<svg width="10" height="10" viewBox="0 0 10 10" fill="none" xmlns="http://www.w3.org/2000/svg">
<g clip-path="url(#clip0_1035_145335)">
<path fill-rule="evenodd" clip-rule="evenodd" d="M1.25 1.875C0.559644 1.875 0 2.43464 0 3.125V8.75C0 9.44036 0.559644 10 1.25 10H8.75C9.44036 10 10 9.44036 10 8.75V3.125C10 2.43464 9.44036 1.875 8.75 1.875H7.5L7.04775 0.970491C6.94188 0.758751 6.72546 0.625 6.48873 0.625H3.51127C3.27454 0.625 3.05812 0.758752 2.95225 0.970492L2.5 1.875H1.25ZM6.875 5.625C6.875 6.66053 6.03553 7.5 5 7.5C3.96447 7.5 3.125 6.66053 3.125 5.625C3.125 4.58947 3.96447 3.75 5 3.75C6.03553 3.75 6.875 4.58947 6.875 5.625ZM8.125 5.625C8.125 7.35089 6.72589 8.75 5 8.75C3.27411 8.75 1.875 7.35089 1.875 5.625C1.875 3.89911 3.27411 2.5 5 2.5C6.72589 2.5 8.125 3.89911 8.125 5.625Z" fill="white"/>
</g>
<defs>
<clipPath id="clip0_1035_145335">
<rect width="10" height="10" fill="white"/>
</clipPath>
</defs>
</svg>
