<svg width="11" height="10" viewBox="0 0 11 10" fill="none" xmlns="http://www.w3.org/2000/svg">
    <path
        d="M6 5.5V7.5H7.15918C6.6836 7.81632 6.11291 7.99986 5.5 8C4.1942 8 3.08598 7.1646 2.67383 6H0.600586C1.06393 8.28215 3.08111 10 5.5 10C6.62633 9.99985 7.66461 9.62592 8.5 8.99805V10H10.5V6.5C10.5 5.94772 10.0523 5.5 9.5 5.5H6ZM0.5 0V3.5C0.5 3.76519 0.605469 4.0195 0.792969 4.20703C0.980504 4.39456 1.23479 4.5 1.5 4.5H5V2.5H3.84375C4.31862 2.18452 4.88716 2 5.5 2C6.80549 2.00029 7.9131 2.83562 8.3252 4H10.3994C9.93617 1.718 7.91863 0.000325648 5.5 0C4.3747 7.00086e-09 3.33533 0.373555 2.5 1.00098V0H0.5Z"
        fill="#4781D1" />
</svg>