<svg width="24" height="24" viewBox="0 0 24 24" fill="none" xmlns="http://www.w3.org/2000/svg">
<path d="M4.5 2.5C4.5 1.94772 4.94772 1.5 5.5 1.5L15.428 1.5L19.5 5.60589V21.5C19.5 22.0523 19.0523 22.5 18.5 22.5H5.5C4.94772 22.5 4.5 22.0523 4.5 21.5V2.5Z" fill="white" stroke="#BBBBBB"/>
<path d="M15 2V4.4C15 4.96005 15 5.24008 15.109 5.45399C15.2049 5.64215 15.3578 5.79513 15.546 5.89101C15.7599 6 16.0399 6 16.6 6H19" stroke="#BBBBBB"/>
<path fill-rule="evenodd" clip-rule="evenodd" d="M12 5.5C12 5.22386 11.7761 5 11.5 5H10.5C10.2239 5 10 5.22386 10 5.5C10 5.77614 10.2239 6 10.5 6H11.5C11.7761 6 12 5.77614 12 5.5ZM9.5 6C9.77614 6 10 6.22386 10 6.5C10 6.77614 9.77614 7 9.5 7H8.5C8.22386 7 8 6.77614 8 6.5C8 6.22386 8.22386 6 8.5 6L9.5 6ZM10 8.5C10 8.22386 9.77614 8 9.5 8H8.5C8.22386 8 8 8.22386 8 8.5C8 8.77614 8.22386 9 8.5 9H9.5C9.77614 9 10 8.77614 10 8.5ZM10 10.5C10 10.2239 9.77614 10 9.5 10H8.5C8.22386 10 8 10.2239 8 10.5C8 10.7761 8.22386 11 8.5 11H9.5C9.77614 11 10 10.7761 10 10.5ZM12 9.5C12 9.22386 11.7761 9 11.5 9H10.5C10.2239 9 10 9.22386 10 9.5C10 9.77614 10.2239 10 10.5 10H11.5C11.7761 10 12 9.77614 12 9.5ZM11.5 7C11.7761 7 12 7.22386 12 7.5C12 7.77614 11.7761 8 11.5 8H10.5C10.2239 8 10 7.77614 10 7.5C10 7.22386 10.2239 7 10.5 7H11.5Z" fill="#BBBBBB"/>
<path fill-rule="evenodd" clip-rule="evenodd" d="M10 13C9.44772 13 9 13.4477 9 14V15H11V14C11 13.4477 10.5523 13 10 13ZM12 15V14C12 12.8954 11.1046 12 10 12C8.89543 12 8 12.8954 8 14V15V16V18.5C8 18.7761 8.22386 19 8.5 19H11.5C11.7761 19 12 18.7761 12 18.5V16V15ZM11 16H9V18H11V16Z" fill="#A1A1A1"/>
</svg>
