<svg width="24" height="24" viewBox="0 0 24 24" fill="none" xmlns="http://www.w3.org/2000/svg">
<path d="M4.5 2.5C4.5 1.94772 4.94772 1.5 5.5 1.5L15.428 1.5L19.5 5.60589V21.5C19.5 22.0523 19.0523 22.5 18.5 22.5H5.5C4.94772 22.5 4.5 22.0523 4.5 21.5V2.5Z" fill="white" stroke="#BBBBBB"/>
<path d="M15 2V4.4C15 4.96005 15 5.24008 15.109 5.45399C15.2049 5.64215 15.3578 5.79513 15.546 5.89101C15.7599 6 16.0399 6 16.6 6H19" stroke="#BBBBBB"/>
<rect x="7.5" y="9.5" width="9" height="7" rx="0.5" stroke="#FC7462"/>
<path fill-rule="evenodd" clip-rule="evenodd" d="M8 10V11.5C8 11.7761 7.77614 12 7.5 12C7.22386 12 7 11.7761 7 11.5V9.606C7 9.27131 7.28262 9 7.63125 9H16.3687C16.7174 9 17 9.2713 17 9.606V11.5C17 11.7761 16.7761 12 16.5 12C16.2239 12 16 11.7761 16 11.5V10H8Z" fill="#E52910"/>
<rect x="9" y="8" width="1" height="3" rx="0.5" fill="#E52910"/>
<rect x="14" y="8" width="1" height="3" rx="0.5" fill="#E52910"/>
<path d="M12.8972 15.5C12.5999 15.5 12.4065 15.1871 12.5395 14.9211L13.75 12.5H12.15C11.9291 12.5 11.75 12.3209 11.75 12.1V11.9C11.75 11.6791 11.9291 11.5 12.15 11.5H14.3504C14.5713 11.5 14.7503 11.6791 14.7503 11.9V12.7389C14.7503 12.801 14.7359 12.8622 14.7081 12.9178L13.5276 15.2788C13.4598 15.4143 13.3213 15.4999 13.1698 15.5L12.8972 15.5Z" fill="#E52910"/>
<path d="M10.65 15.5H10.85C11.0709 15.5 11.25 15.3209 11.25 15.1V11.9C11.25 11.6791 11.0709 11.5 10.85 11.5H10.3444C10.2823 11.5 10.2211 11.5145 10.1655 11.5422L9.47111 11.8894C9.3356 11.9572 9.25 12.0957 9.25 12.2472V12.3528C9.25 12.6501 9.56292 12.8435 9.82889 12.7106L10.25 12.5V13.5V15.1C10.25 15.3209 10.4291 15.5 10.65 15.5Z" fill="#E52910"/>
</svg>
