<svg width="24" height="24" viewBox="0 0 24 24" fill="none" xmlns="http://www.w3.org/2000/svg">
<path d="M4.5 2.5C4.5 1.94772 4.94772 1.5 5.5 1.5L15.428 1.5L19.5 5.60589V21.5C19.5 22.0523 19.0523 22.5 18.5 22.5H5.5C4.94772 22.5 4.5 22.0523 4.5 21.5V2.5Z" fill="white" stroke="#BBBBBB"/>
<path d="M15 2V4.4C15 4.96005 15 5.24008 15.109 5.45399C15.2049 5.64215 15.3578 5.79513 15.546 5.89101C15.7599 6 16.0399 6 16.6 6H19" stroke="#BBBBBB"/>
<path d="M12 14.2C12 13.0799 12 12.5198 12.218 12.092C12.4097 11.7157 12.7157 11.4097 13.092 11.218C13.5198 11 14.0799 11 15.2 11H18.8C19.9201 11 20.4802 11 20.908 11.218C21.2843 11.4097 21.5903 11.7157 21.782 12.092C22 12.5198 22 13.0799 22 14.2V17.8C22 18.9201 22 19.4802 21.782 19.908C21.5903 20.2843 21.2843 20.5903 20.908 20.782C20.4802 21 19.9201 21 18.8 21H15.2C14.0799 21 13.5198 21 13.092 20.782C12.7157 20.5903 12.4097 20.2843 12.218 19.908C12 19.4802 12 18.9201 12 17.8V14.2Z" fill="#3AA133"/>
<path d="M19.5 18.5H18.0797L16.971 16.7633L15.8623 18.5H14.5L16.2174 15.93L14.5 13.5H15.8696L17.0072 15.1807L18.1304 13.5H19.5L17.7536 16.014L19.5 18.5Z" fill="white"/>
<path fill-rule="evenodd" clip-rule="evenodd" d="M7.5 9C7.22386 9 7 9.22386 7 9.5C7 9.77614 7.22386 10 7.5 10H10.5C10.7761 10 11 9.77614 11 9.5C11 9.22386 10.7761 9 10.5 9H7.5ZM7.5 12C7.22386 12 7 12.2239 7 12.5C7 12.7761 7.22386 13 7.5 13H10.5C10.7761 13 11 12.7761 11 12.5C11 12.2239 10.7761 12 10.5 12H7.5ZM7 15.5C7 15.2239 7.22386 15 7.5 15H10.5C10.7761 15 11 15.2239 11 15.5C11 15.7761 10.7761 16 10.5 16H7.5C7.22386 16 7 15.7761 7 15.5ZM13.5 9C13.2239 9 13 9.22386 13 9.5C13 9.77614 13.2239 10 13.5 10H16.5C16.7761 10 17 9.77614 17 9.5C17 9.22386 16.7761 9 16.5 9H13.5Z" fill="#B0D9AD"/>
</svg>
