<svg width="24" height="24" viewBox="0 0 24 24" fill="none" xmlns="http://www.w3.org/2000/svg">
<path d="M5.5 1.5H15.4277L19.5 5.60547V21.5C19.5 22.0523 19.0523 22.5 18.5 22.5H5.5C4.94772 22.5 4.5 22.0523 4.5 21.5V2.5C4.5 1.94772 4.94772 1.5 5.5 1.5Z" fill="white" stroke="#BBBBBB"/>
<path d="M15 2V4.4C15 4.96005 15 5.24008 15.109 5.45399C15.2049 5.64215 15.3578 5.79513 15.546 5.89101C15.7599 6 16.0399 6 16.6 6H19" stroke="#BBBBBB"/>
<path fill-rule="evenodd" clip-rule="evenodd" d="M8 9H10V10V11H9H8V9ZM8.5 12L8.5 14.063C7.63739 14.285 7 15.0681 7 16C7 17.1046 7.89543 18 9 18C10.1046 18 11 17.1046 11 16C11 15.0681 10.3626 14.285 9.5 14.063L9.5 12H10C10.5523 12 11 11.5523 11 11V10.5H16.5C16.7761 10.5 17 10.2761 17 10C17 9.72386 16.7761 9.5 16.5 9.5H11V9C11 8.44772 10.5523 8 10 8H8C7.44772 8 7 8.44772 7 9V11C7 11.5523 7.44772 12 8 12H8.5ZM8 16C8 15.4477 8.44772 15 9 15C9.55228 15 10 15.4477 10 16C10 16.5523 9.55228 17 9 17C8.44772 17 8 16.5523 8 16Z" fill="#C6BEF8"/>
<path d="M12 14.2C12 13.0799 12 12.5198 12.218 12.092C12.4097 11.7157 12.7157 11.4097 13.092 11.218C13.5198 11 14.0799 11 15.2 11H18.8C19.9201 11 20.4802 11 20.908 11.218C21.2843 11.4097 21.5903 11.7157 21.782 12.092C22 12.5198 22 13.0799 22 14.2V17.8C22 18.9201 22 19.4802 21.782 19.908C21.5903 20.2843 21.2843 20.5903 20.908 20.782C20.4802 21 19.9201 21 18.8 21H15.2C14.0799 21 13.5198 21 13.092 20.782C12.7157 20.5903 12.4097 20.2843 12.218 19.908C12 19.4802 12 18.9201 12 17.8V14.2Z" fill="#705CED"/>
<path d="M17.8333 18.5L19.5 13.5H17.8333L17 16.8333L16.1667 13.5H14.5L16.1667 18.5H17.8333Z" fill="white"/>
</svg>
