<svg width="24" height="24" viewBox="0 0 24 24" fill="none" xmlns="http://www.w3.org/2000/svg">
<path d="M3 1H16L21 7V23H3V1Z" fill="white" style="fill:white;fill:white;fill-opacity:1;"/>
<path d="M21 7L16 1H3V16H2V0H16L22 7V16H21V7Z" fill="#BFBFBF" style="fill:#BFBFBF;fill:color(display-p3 0.7490 0.7490 0.7490);fill-opacity:1;"/>
<path d="M5 18H4V19H5V18Z" fill="#F36700" style="fill:#F36700;fill:color(display-p3 0.9529 0.4039 0.0000);fill-opacity:1;"/>
<path d="M8 18H9V19H8V18Z" fill="#F36700" style="fill:#F36700;fill:color(display-p3 0.9529 0.4039 0.0000);fill-opacity:1;"/>
<path fill-rule="evenodd" clip-rule="evenodd" d="M2 16C2 15.4477 2.44771 15 3 15H21C21.5523 15 22 15.4477 22 16V23C22 23.5523 21.5523 24 21 24H3C2.44772 24 2 23.5523 2 23V16ZM18 17H17V19H18V20H17V22H18V20H20V22H21V20H20V19H21V17H20V19H18V17ZM11 17H16V18H14V22H13V18H11V17ZM3 17V22H4V20H6V17H3ZM7 22V17H10V20H8V22H7Z" fill="#F36700" style="fill:#F36700;fill:color(display-p3 0.9529 0.4039 0.0000);fill-opacity:1;"/>
<path d="M15 2H4V14H20V8H19V13H5V3H15V2Z" fill="#BFBFBF" style="fill:#BFBFBF;fill:color(display-p3 0.7490 0.7490 0.7490);fill-opacity:1;"/>
<path d="M15 6H12V5H10V7H15V6Z" fill="#BFBFBF" style="fill:#BFBFBF;fill:color(display-p3 0.7490 0.7490 0.7490);fill-opacity:1;"/>
<path d="M8 5H6V7H8V5Z" fill="#BFBFBF" style="fill:#BFBFBF;fill:color(display-p3 0.7490 0.7490 0.7490);fill-opacity:1;"/>
<path d="M6 9H8V11H6V9Z" fill="#BFBFBF" style="fill:#BFBFBF;fill:color(display-p3 0.7490 0.7490 0.7490);fill-opacity:1;"/>
<path d="M17 9H10V11H12V10H17V9Z" fill="#BFBFBF" style="fill:#BFBFBF;fill:color(display-p3 0.7490 0.7490 0.7490);fill-opacity:1;"/>
<path opacity="0.3" d="M14 9V1H15V8H21V9H14Z" fill="black" style="fill:black;fill:black;fill-opacity:1;"/>
<rect x="2" y="17" width="20" height="5" fill="#F36700" style="fill:#F36700;fill:color(display-p3 0.9529 0.4039 0.0000);fill-opacity:1;"/>
<rect x="6" y="17" width="1" height="5" fill="white" style="fill:white;fill:white;fill-opacity:1;"/>
<rect x="7" y="17" width="2" height="1" fill="white" style="fill:white;fill:white;fill-opacity:1;"/>
<rect x="7" y="21" width="2" height="1" fill="white" style="fill:white;fill:white;fill-opacity:1;"/>
<rect x="9" y="18" width="1" height="3" fill="white" style="fill:white;fill:white;fill-opacity:1;"/>
<rect x="11" y="17" width="1" height="5" fill="white" style="fill:white;fill:white;fill-opacity:1;"/>
<rect x="12" y="17" width="2" height="1" fill="white" style="fill:white;fill:white;fill-opacity:1;"/>
<rect x="13" y="18" width="1" height="1" fill="white" style="fill:white;fill:white;fill-opacity:1;"/>
<rect x="12" y="19" width="2" height="1" fill="white" style="fill:white;fill:white;fill-opacity:1;"/>
<rect x="15" y="17" width="3" height="1" fill="white" style="fill:white;fill:white;fill-opacity:1;"/>
<rect x="16" y="18" width="1" height="4" fill="white" style="fill:white;fill:white;fill-opacity:1;"/>
</svg>
