<svg width="24" height="24" viewBox="0 0 24 24" fill="none" xmlns="http://www.w3.org/2000/svg">
<path fill-rule="evenodd" clip-rule="evenodd" d="M20.7138 13L20.7139 18.5167L22.2833 17.0083L24 18.6583L20.3583 22.1583C20.1307 22.3771 19.8219 22.5 19.5 22.5C19.1781 22.5 18.8693 22.3771 18.6417 22.1583L15 18.6583L16.7167 17.0083L18.2861 18.5167L18.286 13L20.7138 13Z" fill="white"/>
<path fill-rule="evenodd" clip-rule="evenodd" d="M3 2.5C3 2.22386 2.77614 2 2.5 2H0.5C0.223858 2 0 2.22386 0 2.5V4.5C0 4.77614 0.223858 5 0.5 5H2.5C2.77614 5 3 4.77614 3 4.5V2.5ZM24 2.5C24 2.22386 23.7761 2 23.5 2H6.5C6.22386 2 6 2.22386 6 2.5V4.5C6 4.77614 6.22386 5 6.5 5H23.5C23.7761 5 24 4.77614 24 4.5V2.5ZM24 8.5C24 8.22386 23.7761 8 23.5 8H12.5C12.2239 8 12 8.22386 12 8.5V10.5C12 10.7761 12.2239 11 12.5 11H23.5C23.7761 11 24 10.7761 24 10.5V8.5ZM6 19.5C6 19.2239 6.22386 19 6.5 19H13V22H6.5C6.22386 22 6 21.7761 6 21.5V19.5ZM7.5 11C8.32843 11 9 10.3284 9 9.5C9 8.67157 8.32843 8 7.5 8C6.67157 8 6 8.67157 6 9.5C6 10.3284 6.67157 11 7.5 11ZM7.5 17C8.32843 17 9 16.3284 9 15.5C9 14.6716 8.32843 14 7.5 14C6.67157 14 6 14.6716 6 15.5C6 16.3284 6.67157 17 7.5 17ZM0.5 19C0.223858 19 0 19.2239 0 19.5V21.5C0 21.7761 0.223858 22 0.5 22H2.5C2.77614 22 3 21.7761 3 21.5V19.5C3 19.2239 2.77614 19 2.5 19H0.5Z" fill="white"/>
</svg>
