<svg width="24" height="24" viewBox="0 0 24 24" fill="none" xmlns="http://www.w3.org/2000/svg">
<path d="M3 2.72222C3 2.32335 3.33579 2 3.75 2H9.43934C9.63825 2 9.82902 2.07609 9.96967 2.21153L11.7803 3.95513C11.921 4.09058 12.1117 4.16667 12.3107 4.16667H20.25C20.6642 4.16667 21 4.49002 21 4.88889V14.2778C21 14.6767 20.6642 15 20.25 15H3.75C3.33579 15 3 14.6767 3 14.2778V2.72222Z" fill="#FFEBD6"/>
<path fill-rule="evenodd" clip-rule="evenodd" d="M20 14V5H12.1696C11.7717 5 11.3902 4.84782 11.1089 4.57693L9.5 3H4V14H20ZM3.75 2C3.33579 2 3 2.32335 3 2.72222V14.2778C3 14.6767 3.33579 15 3.75 15H20.25C20.6642 15 21 14.6767 21 14.2778V4.88889C21 4.49002 20.6642 4.16667 20.25 4.16667H12.3107C12.1117 4.16667 11.921 4.09058 11.7803 3.95513L9.96967 2.21153C9.82902 2.07609 9.63825 2 9.43934 2H3.75Z" fill="#FF9933"/>
<path d="M2 8.77778C2 8.34822 2.3444 8 2.76923 8H21.2308C21.6556 8 22 8.34822 22 8.77778V21.2222C22 21.6518 21.6556 22 21.2308 22H2.76923C2.3444 22 2 21.6518 2 21.2222V8.77778Z" fill="#FFF9F3"/>
<path fill-rule="evenodd" clip-rule="evenodd" d="M21 9L3 9V21L21 21V9ZM2.76923 8C2.3444 8 2 8.34822 2 8.77778V21.2222C2 21.6518 2.3444 22 2.76923 22H21.2308C21.6556 22 22 21.6518 22 21.2222V8.77778C22 8.34822 21.6556 8 21.2308 8H2.76923Z" fill="#FF9933"/>
<g clip-path="url(#clip0_19373_45353)">
<path d="M20.0086 12.841C20.8873 11.9623 22.3119 11.9623 23.1906 12.841C24.0693 13.7197 24.0693 15.1443 23.1906 16.023L16.5901 22.6235C16.3979 22.8157 16.157 22.9521 15.8932 23.018L13.2663 23.6748C12.7171 23.8121 12.2195 23.3145 12.3568 22.7652L13.0136 20.1384C13.0795 19.8746 13.2159 19.6337 13.4081 19.4415L20.0086 12.841Z" fill="white"/>
<path fill-rule="evenodd" clip-rule="evenodd" d="M20.5393 16.553L15.5294 21.5628L14.1152 21.9164L14.4688 20.5022L19.4786 15.4923L20.5393 16.553ZM22.6606 16.553L23.1906 16.023C24.0693 15.1443 24.0693 13.7197 23.1906 12.841C22.3119 11.9623 20.8873 11.9623 20.0086 12.841L13.4081 19.4415C13.2159 19.6337 13.0795 19.8746 13.0136 20.1384L12.3568 22.7652C12.2195 23.3145 12.7171 23.8121 13.2663 23.6748L15.8932 23.018C16.157 22.9521 16.3979 22.8157 16.5901 22.6235L21.6 17.6136L21.6001 17.6137L22.6607 16.5531L22.6606 16.553ZM21.6 15.4923L20.5393 14.4316L21.0693 13.9017C21.3622 13.6088 21.837 13.6088 22.1299 13.9017C22.4228 14.1945 22.4228 14.6694 22.1299 14.9623L21.6 15.4923Z" fill="#FF9933"/>
</g>
<defs>
<clipPath id="clip0_19373_45353">
<rect width="12" height="12" fill="white" transform="translate(12 12)"/>
</clipPath>
</defs>
</svg>
