<svg width="24" height="24" viewBox="0 0 24 24" fill="none" xmlns="http://www.w3.org/2000/svg">
<path d="M3 2.72222C3 2.32335 3.33579 2 3.75 2H9.43934C9.63825 2 9.82902 2.07609 9.96967 2.21153L11.7803 3.95513C11.921 4.09058 12.1117 4.16667 12.3107 4.16667H20.25C20.6642 4.16667 21 4.49002 21 4.88889V14.2778C21 14.6767 20.6642 15 20.25 15H3.75C3.33579 15 3 14.6767 3 14.2778V2.72222Z" fill="#D3F3E7"/>
<path fill-rule="evenodd" clip-rule="evenodd" d="M20 14V5H12.1696C11.7717 5 11.3902 4.84782 11.1089 4.57693L9.5 3H4V14H20ZM3.75 2C3.33579 2 3 2.32335 3 2.72222V14.2778C3 14.6767 3.33579 15 3.75 15H20.25C20.6642 15 21 14.6767 21 14.2778V4.88889C21 4.49002 20.6642 4.16667 20.25 4.16667H12.3107C12.1117 4.16667 11.921 4.09058 11.7803 3.95513L9.96967 2.21153C9.82902 2.07609 9.63825 2 9.43934 2H3.75Z" fill="#22C386"/>
<path d="M2 8.77778C2 8.34822 2.3444 8 2.76923 8H21.2308C21.6556 8 22 8.34822 22 8.77778V21.2222C22 21.6518 21.6556 22 21.2308 22H2.76923C2.3444 22 2 21.6518 2 21.2222V8.77778Z" fill="#F2FBF8"/>
<path fill-rule="evenodd" clip-rule="evenodd" d="M21 9L3 9V21L21 21V9ZM2.76923 8C2.3444 8 2 8.34822 2 8.77778V21.2222C2 21.6518 2.3444 22 2.76923 22H21.2308C21.6556 22 22 21.6518 22 21.2222V8.77778C22 8.34822 21.6556 8 21.2308 8H2.76923Z" fill="#22C386"/>
<path d="M22.8362 16.7845C23.4075 16.1846 23.3844 15.2351 22.7845 14.6638C22.1846 14.0925 21.2351 14.1156 20.6638 14.7155L16.6879 18.8902L15.2735 17.5701C14.6679 17.0048 13.7187 17.0376 13.1534 17.6432C12.5882 18.2488 12.6209 19.198 13.2265 19.7633L15.7265 22.0966C16.3278 22.6578 17.269 22.6301 17.8362 22.0345L22.8362 16.7845Z" fill="white" stroke="#22C386" stroke-width="1.5" stroke-linecap="round" stroke-linejoin="round"/>
</svg>
