<svg width="24" height="24" viewBox="0 0 24 24" fill="none" xmlns="http://www.w3.org/2000/svg">
<path d="M4.5 2.5C4.5 1.94772 4.94772 1.5 5.5 1.5L15.428 1.5L19.5 5.60589V21.5C19.5 22.0523 19.0523 22.5 18.5 22.5H5.5C4.94772 22.5 4.5 22.0523 4.5 21.5V2.5Z" fill="white" stroke="#BBBBBB"/>
<path d="M15 2V4.4C15 4.96005 15 5.24008 15.109 5.45399C15.2049 5.64215 15.3578 5.79513 15.546 5.89101C15.7599 6 16.0399 6 16.6 6H19" stroke="#BBBBBB"/>
<path fill-rule="evenodd" clip-rule="evenodd" d="M10.0823 10.8736C10.2887 10.69 10.3071 10.374 10.1236 10.1677C9.94001 9.96135 9.62397 9.9429 9.41766 10.1264L7.16766 12.1282C7.06101 12.2231 7 12.359 7 12.5017C7 12.6445 7.06101 12.7804 7.16766 12.8753L9.41766 14.877C9.62397 15.0606 9.94001 15.0421 10.1236 14.8358C10.3071 14.6295 10.2887 14.3135 10.0823 14.1299L8.25223 12.5017L10.0823 10.8736ZM13.9177 14.1304C13.7113 14.3139 13.6929 14.6299 13.8764 14.8363C14.06 15.0426 14.376 15.061 14.5823 14.8775L16.8323 12.8757C16.939 12.7809 17 12.6449 17 12.5022C17 12.3594 16.939 12.2235 16.8323 12.1286L14.5823 10.1269C14.376 9.94332 14.06 9.96178 13.8764 10.1681C13.6929 10.3744 13.7113 10.6904 13.9177 10.874L15.7478 12.5022L13.9177 14.1304Z" fill="#A1A1A1"/>
</svg>
