<svg width="24" height="24" viewBox="0 0 24 24" fill="none" xmlns="http://www.w3.org/2000/svg">
<path d="M4.5 2.5C4.5 1.94772 4.94772 1.5 5.5 1.5L15.428 1.5L19.5 5.60589V21.5C19.5 22.0523 19.0523 22.5 18.5 22.5H5.5C4.94772 22.5 4.5 22.0523 4.5 21.5V2.5Z" fill="white" stroke="#BBBBBB"/>
<path d="M15 2V4.4C15 4.96005 15 5.24008 15.109 5.45399C15.2049 5.64215 15.3578 5.79513 15.546 5.89101C15.7599 6 16.0399 6 16.6 6H19" stroke="#BBBBBB"/>
<path opacity="0.6" d="M14.7205 13.1364C14.8447 12.9545 15.1553 12.9545 15.2795 13.1364L16.9563 15.5909C17.0805 15.7727 16.9252 16 16.6768 16H13.3232C13.0748 16 12.9195 15.7727 13.0437 15.5909L14.7205 13.1364Z" fill="#A671D8"/>
<path d="M10.7248 10.1622C10.8692 9.94595 11.2302 9.94595 11.3746 10.1622L14.9492 15.5135C15.0936 15.7297 14.9131 16 14.6243 16H7.37573C7.08692 16 6.90642 15.7297 7.05082 15.5135L10.7248 10.1622Z" fill="#A671D8"/>
<circle cx="14.5" cy="10.5" r="0.5" fill="#A671D8"/>
</svg>
