<svg width="24" height="24" viewBox="0 0 24 24" fill="none" xmlns="http://www.w3.org/2000/svg">
<path d="M4.5 2.5C4.5 1.94772 4.94772 1.5 5.5 1.5L15.428 1.5L19.5 5.60589V21.5C19.5 22.0523 19.0523 22.5 18.5 22.5H5.5C4.94772 22.5 4.5 22.0523 4.5 21.5V2.5Z" fill="white" stroke="#BBBBBB"/>
<path d="M15 2V4.4C15 4.96005 15 5.24008 15.109 5.45399C15.2049 5.64215 15.3578 5.79513 15.546 5.89101C15.7599 6 16.0399 6 16.6 6H19" stroke="#BBBBBB"/>
<path d="M7.5 9.68C7.5 9.58059 7.58059 9.5 7.68 9.5H16.32C16.4194 9.5 16.5 9.58059 16.5 9.68V16C16.5 16.2761 16.2761 16.5 16 16.5H8C7.72386 16.5 7.5 16.2761 7.5 16V9.68Z" stroke="#F5CA4A"/>
<path d="M11.8583 14.1515C11.9364 14.2296 12.063 14.2296 12.1411 14.1515L16.4514 9.84143C16.5774 9.71543 16.4882 9.5 16.31 9.5H7.68989C7.51171 9.5 7.42247 9.71542 7.54846 9.84142L11.8583 14.1515Z" stroke="#ECB200"/>
</svg>
