<svg width="24" height="24" viewBox="0 0 24 24" fill="none" xmlns="http://www.w3.org/2000/svg">
<path fill-rule="evenodd" clip-rule="evenodd" d="M8 5.5C8 5.22386 8.22386 5 8.5 5H22.5C22.7761 5 23 5.22386 23 5.5V6.5C23 6.77614 22.7761 7 22.5 7H8.5C8.22386 7 8 6.77614 8 6.5V5.5ZM8 11.5C8 11.2239 8.22386 11 8.5 11H22.5C22.7761 11 23 11.2239 23 11.5V12.5C23 12.7761 22.7761 13 22.5 13H8.5C8.22386 13 8 12.7761 8 12.5V11.5ZM8.5 17C8.22386 17 8 17.2239 8 17.5V18.5C8 18.7761 8.22386 19 8.5 19H22.5C22.7761 19 23 18.7761 23 18.5V17.5C23 17.2239 22.7761 17 22.5 17H8.5ZM2 12C2 10.8954 2.89543 10 4 10C5.10457 10 6 10.8954 6 12C6 13.1046 5.10457 14 4 14C2.89543 14 2 13.1046 2 12ZM4 16C2.89543 16 2 16.8954 2 18C2 19.1046 2.89543 20 4 20C5.10457 20 6 19.1046 6 18C6 16.8954 5.10457 16 4 16Z" fill="#F8F9F9"/>
<path d="M5.5 4.5L3.5 7L2 5.5" stroke="white" stroke-width="2" stroke-linecap="round" stroke-linejoin="round"/>
</svg>
