<svg width="24" height="24" viewBox="0 0 24 24" fill="none" xmlns="http://www.w3.org/2000/svg">
<path d="M3 1H16L21 7V23H3V1Z" fill="white" style="fill:white;fill:white;fill-opacity:1;"/>
<path d="M21 7L16 1H3V16H2V0H16L22 7V16H21V7Z" fill="#BFBFBF" style="fill:#BFBFBF;fill:color(display-p3 0.7490 0.7490 0.7490);fill-opacity:1;"/>
<path d="M5 18H4V19H5V18Z" fill="#5E93A2" style="fill:#5E93A2;fill:color(display-p3 0.3686 0.5765 0.6353);fill-opacity:1;"/>
<path d="M8 18H9V19H8V18Z" fill="#5E93A2" style="fill:#5E93A2;fill:color(display-p3 0.3686 0.5765 0.6353);fill-opacity:1;"/>
<path fill-rule="evenodd" clip-rule="evenodd" d="M2 16C2 15.4477 2.44771 15 3 15H21C21.5523 15 22 15.4477 22 16V23C22 23.5523 21.5523 24 21 24H3C2.44772 24 2 23.5523 2 23V16ZM18 17H17V19H18V20H17V22H18V20H20V22H21V20H20V19H21V17H20V19H18V17ZM11 17H16V18H14V22H13V18H11V17ZM3 17V22H4V20H6V17H3ZM7 22V17H10V20H8V22H7Z" fill="#5E93A2" style="fill:#5E93A2;fill:color(display-p3 0.3686 0.5765 0.6353);fill-opacity:1;"/>
<path d="M6 7H8V8H7V9H6V10H7V11H8V12H6V11H5V10H4V9H5V8H6V7Z" fill="#BFBFBF" style="fill:#BFBFBF;fill:color(display-p3 0.7490 0.7490 0.7490);fill-opacity:1;"/>
<path d="M10 9H11V10H10V9Z" fill="#BFBFBF" style="fill:#BFBFBF;fill:color(display-p3 0.7490 0.7490 0.7490);fill-opacity:1;"/>
<path d="M13 9H14V10H13V9Z" fill="#BFBFBF" style="fill:#BFBFBF;fill:color(display-p3 0.7490 0.7490 0.7490);fill-opacity:1;"/>
<path d="M17 9V8H19V9H20V10H19V11H18V12H16V11H17V10H18V9H17Z" fill="#BFBFBF" style="fill:#BFBFBF;fill:color(display-p3 0.7490 0.7490 0.7490);fill-opacity:1;"/>
<path opacity="0.3" d="M14 9V1H15V8H21V9H14Z" fill="black" style="fill:black;fill:black;fill-opacity:1;"/>
<rect x="2" y="17" width="20" height="5" fill="#5E93A2" style="fill:#5E93A2;fill:color(display-p3 0.3686 0.5765 0.6353);fill-opacity:1;"/>
<rect x="3" y="17" width="1" height="5" fill="white" style="fill:white;fill:white;fill-opacity:1;"/>
<rect x="5" y="17" width="1" height="5" fill="white" style="fill:white;fill:white;fill-opacity:1;"/>
<path d="M3.5 17C3.5 17.6667 4.5 19 4.5 19C4.5 19 5.5 17.6667 5.5 17" stroke="white" style="stroke:white;stroke:white;stroke-opacity:1;"/>
<rect x="7" y="17" width="1" height="5" fill="white" style="fill:white;fill:white;fill-opacity:1;"/>
<rect x="9" y="17" width="1" height="5" fill="white" style="fill:white;fill:white;fill-opacity:1;"/>
<rect x="7" y="19" width="3" height="1" fill="white" style="fill:white;fill:white;fill-opacity:1;"/>
<rect x="11" y="17" width="3" height="1" fill="white" style="fill:white;fill:white;fill-opacity:1;"/>
<rect x="12" y="17" width="1" height="5" fill="white" style="fill:white;fill:white;fill-opacity:1;"/>
<rect x="15" y="17" width="1" height="5" fill="white" style="fill:white;fill:white;fill-opacity:1;"/>
<rect x="17" y="17" width="1" height="5" fill="white" style="fill:white;fill:white;fill-opacity:1;"/>
<path d="M15.5 17C15.5 17.6667 16.5 19 16.5 19C16.5 19 17.5 17.6667 17.5 17" stroke="white" style="stroke:white;stroke:white;stroke-opacity:1;"/>
<path d="M19.5 17L19.5 21.5C19.5 21.5 20.5 21.5 21 21.5" stroke="white" style="stroke:white;stroke:white;stroke-opacity:1;"/>
</svg>
