<svg width="24" height="24" viewBox="0 0 24 24" fill="none" xmlns="http://www.w3.org/2000/svg">
<path fill-rule="evenodd" clip-rule="evenodd" d="M3.00027 2C1.8957 2 1.00027 2.89543 1.00027 4V9H3.00027V4H7.58605L10.0003 6.41421C10.3753 6.78929 10.884 7 11.4145 7H21.0003V20H3.00027V17H1.00027V20C1.00027 21.1046 1.8957 22 3.00027 22H21.0003C22.1048 22 23.0003 21.1046 23.0003 20V7C23.0003 5.89543 22.1048 5 21.0003 5H11.4145L9.00027 2.58579C8.6252 2.21071 8.11649 2 7.58605 2H3.00027ZM6.75763 10.1716L8.58611 12.0001L1 12.0002L1.00005 14.0002L8.586 14.0001L6.75763 15.8284L8.17184 17.2426L11.7074 13.7071C12.0979 13.3166 12.0979 12.6834 11.7074 12.2929L8.17184 8.75736L6.75763 10.1716Z" fill="white"/>
</svg>
