<svg width="24" height="24" viewBox="0 0 24 24" fill="none" xmlns="http://www.w3.org/2000/svg">
<path d="M4.5 2.5C4.5 1.94772 4.94772 1.5 5.5 1.5L15.428 1.5L19.5 5.60589V21.5C19.5 22.0523 19.0523 22.5 18.5 22.5H5.5C4.94772 22.5 4.5 22.0523 4.5 21.5V2.5Z" fill="white" stroke="#BBBBBB"/>
<path d="M15 2V4.4C15 4.96005 15 5.24008 15.109 5.45399C15.2049 5.64215 15.3578 5.79513 15.546 5.89101C15.7599 6 16.0399 6 16.6 6H19" stroke="#BBBBBB"/>
<path d="M12 14.2C12 13.0799 12 12.5198 12.218 12.092C12.4097 11.7157 12.7157 11.4097 13.092 11.218C13.5198 11 14.0799 11 15.2 11H18.8C19.9201 11 20.4802 11 20.908 11.218C21.2843 11.4097 21.5903 11.7157 21.782 12.092C22 12.5198 22 13.0799 22 14.2V17.8C22 18.9201 22 19.4802 21.782 19.908C21.5903 20.2843 21.2843 20.5903 20.908 20.782C20.4802 21 19.9201 21 18.8 21H15.2C14.0799 21 13.5198 21 13.092 20.782C12.7157 20.5903 12.4097 20.2843 12.218 19.908C12 19.4802 12 18.9201 12 17.8V14.2Z" fill="#E52910"/>
<path fill-rule="evenodd" clip-rule="evenodd" d="M16.2616 13C16.2616 13.8735 16.0121 14.9038 15.5903 15.8543C15.167 16.8087 14.5956 17.6252 14 18.1065L14.6471 19C16.2523 17.9188 18.0296 17.1776 19.7494 17.4258L20 16.3517C18.5347 15.8588 17.3589 14.3792 17.3589 13H16.2616ZM16.9772 15.2871C16.8676 15.6344 16.7376 15.9773 16.5906 16.308C16.5113 16.4871 16.4268 16.6636 16.3362 16.8375C16.8467 16.6337 17.3743 16.4736 17.9128 16.3761C17.5539 16.0572 17.2392 15.6909 16.9772 15.2871Z" fill="white"/>
<path fill-rule="evenodd" clip-rule="evenodd" d="M7.5 9C7.22386 9 7 9.22386 7 9.5C7 9.77614 7.22386 10 7.5 10H16.5C16.7761 10 17 9.77614 17 9.5C17 9.22386 16.7761 9 16.5 9H7.5ZM7 12.5C7 12.2239 7.22386 12 7.5 12H10.5C10.7761 12 11 12.2239 11 12.5C11 12.7761 10.7761 13 10.5 13H7.5C7.22386 13 7 12.7761 7 12.5ZM7 15.5C7 15.2239 7.22386 15 7.5 15H10.5C10.7761 15 11 15.2239 11 15.5C11 15.7761 10.7761 16 10.5 16H7.5C7.22386 16 7 15.7761 7 15.5Z" fill="#F5A99F"/>
</svg>
