<svg width="28" height="28" viewBox="0 0 28 28" fill="none" xmlns="http://www.w3.org/2000/svg">
<rect x="1" y="1" width="26" height="26" rx="13" stroke="white" stroke-width="2"/>
<circle cx="14" cy="14" r="11" fill="#5DC0E8" stroke="#35A5D2" stroke-width="2"/>
<mask id="mask0_6247_26792" style="mask-type:alpha" maskUnits="userSpaceOnUse" x="4" y="4" width="20" height="20">
<circle cx="14" cy="14" r="10" fill="#D9D9D9"/>
</mask>
<g mask="url(#mask0_6247_26792)">
<path d="M11.2882 15.7118L11.4199 15.5801C12.2628 14.7372 12.1859 13.3488 11.2551 12.6041L8.54783 10.4383C8.1932 10.1546 7.75258 10 7.29844 10H4.70711C4.25435 10 3.82014 10.1799 3.5 10.5C3.17986 10.8201 3 11.2544 3 11.7071V12V13.7538C3 13.9173 3.02005 14.0802 3.05971 14.2389L3.94675 17.787C3.98214 17.9286 4.03292 18.0658 4.09818 18.1964L5.73954 21.4791C5.90965 21.8193 6.17324 22.1039 6.49941 22.2996L10.525 24.715C10.8358 24.9015 11.1915 25 11.554 25H11.9296C12.5983 25 13.2228 24.6658 13.5937 24.1094L14.6718 22.4923C14.8858 22.1713 15 21.7941 15 21.4084C15 20.5673 14.4618 19.8206 13.6639 19.5546L12.07 19.0233C10.6595 18.5532 10.2369 16.7631 11.2882 15.7118Z" fill="white"/>
<path d="M17.3806 6.42903L17.6467 6.02988C18.3468 4.97975 19.8326 4.83263 20.7251 5.72506L21 6L21.86 6.85997C21.9531 6.95309 22.0368 7.05519 22.1099 7.16478L23.8078 9.71175C23.935 9.9025 24.0284 10.1137 24.084 10.3361L24.8787 13.5149C24.9584 13.8334 24.9584 14.1666 24.8787 14.4851L24.0532 17.787C24.0179 17.9286 23.9671 18.0658 23.9018 18.1964L22.2659 21.4683C22.0933 21.8134 21.8134 22.0933 21.4683 22.2659C20.1054 22.9473 18.5709 21.7163 18.9405 20.2381L19.6779 17.2883C19.8731 16.5076 19.5814 15.686 18.9376 15.2032L13.8448 11.3836C12.8711 10.6534 12.77 9.23002 13.6306 8.3694L13.6661 8.33385C13.8857 8.1143 14.1534 7.94888 14.4479 7.8507L16.349 7.217C16.7709 7.07636 17.1339 6.79909 17.3806 6.42903Z" fill="white"/>
</g>
</svg>
