<svg class="link" width="28" height="28" viewBox="0 0 28 28" fill="none" xmlns="http://www.w3.org/2000/svg">
<path class="link-background" d="M24.3582 3.65569C20.8361 0.135601 15.1259 0.135604 11.6038 3.65569L3.64376 11.6112C0.12135 15.1316 0.121351 20.8395 3.64376 24.3599C7.16586 27.88 12.8761 27.88 16.3982 24.3599L24.3582 16.4044C27.8806 12.884 27.8806 7.1761 24.3582 3.65569Z" fill="white" stroke="white" stroke-width="2"/>
<path fill-rule="evenodd" clip-rule="evenodd" d="M23.6538 4.34341C20.5273 1.21886 15.4584 1.21886 12.3319 4.34341L11.1678 5.50684C10.3862 6.28798 10.3862 7.55445 11.1678 8.33559C11.9494 9.11672 13.2166 9.11672 13.9982 8.33559L15.1624 7.17216C16.7256 5.60988 19.2601 5.60988 20.8233 7.17216C22.3865 8.73443 22.3865 11.2674 20.8233 12.8296L19.6592 13.9931C18.8776 14.7742 18.8776 16.0407 19.6592 16.8218C20.4408 17.603 21.708 17.603 22.4896 16.8218L23.6538 15.6584C26.7802 12.5338 26.7802 7.46796 23.6538 4.34341ZM10.6568 17.3286C9.87522 16.5475 9.87522 15.281 10.6568 14.4999L14.5059 10.6532C15.2875 9.87207 16.5547 9.87207 17.3363 10.6532C18.1179 11.4343 18.1179 12.7008 17.3363 13.4819L13.4873 17.3286C12.7057 18.1098 11.4384 18.1098 10.6568 17.3286ZM4.34479 12.3267C1.2184 15.4513 1.2184 20.5173 4.34479 23.6419C7.47118 26.7665 12.5401 26.7665 15.6664 23.6419L16.8285 22.4805C17.6101 21.6994 17.6101 20.4329 16.8285 19.6517C16.0469 18.8706 14.7797 18.8706 13.9981 19.6517L12.836 20.8131C11.2728 22.3754 8.73839 22.3754 7.1752 20.8131C5.61201 19.2508 5.61201 16.7178 7.1752 15.1555L8.33724 13.9941C9.11884 13.213 9.11884 11.9465 8.33724 11.1653C7.55564 10.3842 6.28842 10.3842 5.50683 11.1653L4.34479 12.3267Z" fill="#35A5D2"/>
</svg>
