<svg width="24" height="24" viewBox="0 0 24 24" fill="none" xmlns="http://www.w3.org/2000/svg">
<path d="M4.5 2.5C4.5 1.94772 4.94772 1.5 5.5 1.5L15.428 1.5L19.5 5.60589V21.5C19.5 22.0523 19.0523 22.5 18.5 22.5H5.5C4.94772 22.5 4.5 22.0523 4.5 21.5V2.5Z" fill="white" stroke="#BBBBBB"/>
<path d="M15 2V4.4C15 4.96005 15 5.24008 15.109 5.45399C15.2049 5.64215 15.3578 5.79513 15.546 5.89101C15.7599 6 16.0399 6 16.6 6H19" stroke="#BBBBBB"/>
<path opacity="0.4" d="M7.5 12C7.22386 12 6.99678 11.7753 7.03121 11.5013C7.07568 11.1474 7.1674 10.8002 7.30448 10.4693C7.5055 9.98396 7.80014 9.54301 8.17157 9.17157C8.54301 8.80014 8.98396 8.5055 9.46927 8.30448C9.80021 8.1674 10.1474 8.07568 10.5013 8.03121C10.7753 7.99678 11 8.22386 11 8.5L11 11.5C11 11.7761 10.7761 12 10.5 12H7.5Z" fill="#ED771C"/>
<path d="M8.5 13.5C8.22386 13.5 7.99713 13.7245 8.02775 13.999C8.10735 14.7125 8.35685 15.3991 8.75839 16.0001C9.25285 16.7401 9.95566 17.3169 10.7779 17.6575C11.6002 17.9981 12.505 18.0872 13.3779 17.9135C14.2508 17.7399 15.0526 17.3113 15.682 16.682C16.3113 16.0526 16.7399 15.2508 16.9135 14.3779C17.0872 13.505 16.9981 12.6002 16.6575 11.7779C16.3169 10.9557 15.7401 10.2529 15.0001 9.75839C14.3991 9.35685 13.7125 9.10735 12.999 9.02775C12.7245 8.99713 12.5 9.22386 12.5 9.5V13C12.5 13.2761 12.2761 13.5 12 13.5H8.5Z" fill="#F8C9A4"/>
</svg>
