<svg width="24" height="24" viewBox="0 0 24 24" fill="none" xmlns="http://www.w3.org/2000/svg">
<path d="M4.5 2.5C4.5 1.94772 4.94772 1.5 5.5 1.5L15.428 1.5L19.5 5.60589V21.5C19.5 22.0523 19.0523 22.5 18.5 22.5H5.5C4.94772 22.5 4.5 22.0523 4.5 21.5V2.5Z" fill="white" stroke="#BBBBBB"/>
<path d="M15 2V4.4C15 4.96005 15 5.24008 15.109 5.45399C15.2049 5.64215 15.3578 5.79513 15.546 5.89101C15.7599 6 16.0399 6 16.6 6H19" stroke="#BBBBBB"/>
<path opacity="0.4" d="M7.5 11C7.22386 11 6.99678 10.7753 7.03121 10.5013C7.07568 10.1474 7.1674 9.80021 7.30448 9.46927C7.5055 8.98396 7.80014 8.54301 8.17157 8.17157C8.54301 7.80014 8.98396 7.5055 9.46927 7.30448C9.80021 7.1674 10.1474 7.07568 10.5013 7.03121C10.7753 6.99678 11 7.22386 11 7.5L11 10.5C11 10.7761 10.7761 11 10.5 11H7.5Z" fill="#ED771C"/>
<path d="M8.5 12.5C8.22386 12.5 7.99713 12.7245 8.02775 12.999C8.10735 13.7125 8.35685 14.3991 8.75839 15.0001C9.25285 15.7401 9.95566 16.3169 10.7779 16.6575C11.6002 16.9981 12.505 17.0872 13.3779 16.9135C14.2508 16.7399 15.0526 16.3113 15.682 15.682C16.3113 15.0526 16.7399 14.2508 16.9135 13.3779C17.0872 12.505 16.9981 11.6002 16.6575 10.7779C16.3169 9.95566 15.7401 9.25285 15.0001 8.75839C14.3991 8.35685 13.7125 8.10735 12.999 8.02775C12.7245 7.99713 12.5 8.22386 12.5 8.5V12C12.5 12.2761 12.2761 12.5 12 12.5H8.5Z" fill="#F8C9A4"/>
<path d="M12 14.2C12 13.0799 12 12.5198 12.218 12.092C12.4097 11.7157 12.7157 11.4097 13.092 11.218C13.5198 11 14.0799 11 15.2 11H18.8C19.9201 11 20.4802 11 20.908 11.218C21.2843 11.4097 21.5903 11.7157 21.782 12.092C22 12.5198 22 13.0799 22 14.2V17.8C22 18.9201 22 19.4802 21.782 19.908C21.5903 20.2843 21.2843 20.5903 20.908 20.782C20.4802 21 19.9201 21 18.8 21H15.2C14.0799 21 13.5198 21 13.092 20.782C12.7157 20.5903 12.4097 20.2843 12.218 19.908C12 19.4802 12 18.9201 12 17.8V14.2Z" fill="#ED771C"/>
<path d="M17.3772 13.5C18.1007 13.5 18.634 13.6401 18.9772 13.9202C19.3257 14.1956 19.5 14.5808 19.5 15.0756C19.5 15.2997 19.463 15.5705 19.3891 15.7759C19.3152 15.9767 19.1911 16.1564 19.0168 16.3151C18.8479 16.4739 18.6234 16.5999 18.3436 16.6933C18.069 16.7866 17.7284 16.8333 17.3218 16.8333H16.7V18.5H15.5V13.5H17.3772ZM17.5356 14.4734H16.7V15.8039H17.4089C17.5937 15.8039 17.7548 15.7806 17.8921 15.7339C18.0347 15.6872 18.1455 15.6125 18.2248 15.5098C18.304 15.4071 18.3436 15.274 18.3436 15.1106C18.3436 14.9052 18.2776 14.7488 18.1455 14.6415C18.0135 14.5294 17.8102 14.4734 17.5356 14.4734Z" fill="white"/>
</svg>
