<svg width="24" height="24" viewBox="0 0 24 24" fill="none" xmlns="http://www.w3.org/2000/svg">
<path d="M4.5 2.5C4.5 1.94772 4.94772 1.5 5.5 1.5L15.428 1.5L19.5 5.60589V21.5C19.5 22.0523 19.0523 22.5 18.5 22.5H5.5C4.94772 22.5 4.5 22.0523 4.5 21.5V2.5Z" fill="white" stroke="#BBBBBB"/>
<path d="M15 2V4.4C15 4.96005 15 5.24008 15.109 5.45399C15.2049 5.64215 15.3578 5.79513 15.546 5.89101C15.7599 6 16.0399 6 16.6 6H19" stroke="#BBBBBB"/>
<rect opacity="0.5" x="10" y="11" width="1" height="6" fill="#D56DB6"/>
<rect opacity="0.5" x="15" y="9" width="1" height="6" fill="#D56DB6"/>
<circle cx="9.5" cy="17" r="1.5" fill="#D56DB6"/>
<circle cx="14.5" cy="15" r="1.5" fill="#D56DB6"/>
<mask id="path-7-inside-1_19373_43856" fill="white">
<path d="M15.3419 8.21937L10.3419 9.88604C10.1377 9.9541 10 10.1452 10 10.3604V11.3063C10 11.6476 10.3343 11.8886 10.6581 11.7806L15.6581 10.114C15.8623 10.0459 16 9.85484 16 9.63962V8.69371C16 8.35243 15.6657 8.11145 15.3419 8.21937Z"/>
</mask>
<path d="M10.3419 9.88604L9.70943 7.98867L9.70943 7.98867L10.3419 9.88604ZM15.3419 8.21937L15.9743 10.1167L15.9743 10.1167L15.3419 8.21937ZM15.6581 10.114L15.0257 8.21659L15.0257 8.2166L15.6581 10.114ZM10.6581 11.7806L10.0257 9.88326L10.0257 9.88326L10.6581 11.7806ZM10.9743 11.7834L15.9743 10.1167L14.7094 6.322L9.70943 7.98867L10.9743 11.7834ZM14 8.69371V9.63962H18V8.69371H14ZM15.0257 8.2166L10.0257 9.88326L11.2906 13.678L16.2906 12.0113L15.0257 8.2166ZM12 11.3063V10.3604H8V11.3063H12ZM10.0257 9.88326C10.997 9.5595 12 10.2825 12 11.3063H8C8 13.0127 9.67174 14.2176 11.2906 13.678L10.0257 9.88326ZM14 9.63962C14 8.99398 14.4131 8.42077 15.0257 8.21659L16.2906 12.0113C17.3114 11.671 18 10.7157 18 9.63962H14ZM15.9743 10.1167C15.003 10.4405 14 9.71755 14 8.69371H18C18 6.98732 16.3283 5.78239 14.7094 6.322L15.9743 10.1167ZM9.70943 7.98867C8.68858 8.32896 8 9.2843 8 10.3604H12C12 11.006 11.5869 11.5792 10.9743 11.7834L9.70943 7.98867Z" fill="#D56DB6" mask="url(#path-7-inside-1_19373_43856)"/>
</svg>
