<svg width="24" height="24" viewBox="0 0 24 24" fill="none" xmlns="http://www.w3.org/2000/svg">
<path d="M4.5 2.5C4.5 1.94772 4.94772 1.5 5.5 1.5L15.428 1.5L19.5 5.60589V21.5C19.5 22.0523 19.0523 22.5 18.5 22.5H5.5C4.94772 22.5 4.5 22.0523 4.5 21.5V2.5Z" fill="white" stroke="#BBBBBB"/>
<path d="M15 2V4.4C15 4.96005 15 5.24008 15.109 5.45399C15.2049 5.64215 15.3578 5.79513 15.546 5.89101C15.7599 6 16.0399 6 16.6 6H19" stroke="#BBBBBB"/>
<path d="M12 14.2C12 13.0799 12 12.5198 12.218 12.092C12.4097 11.7157 12.7157 11.4097 13.092 11.218C13.5198 11 14.0799 11 15.2 11H18.8C19.9201 11 20.4802 11 20.908 11.218C21.2843 11.4097 21.5903 11.7157 21.782 12.092C22 12.5198 22 13.0799 22 14.2V17.8C22 18.9201 22 19.4802 21.782 19.908C21.5903 20.2843 21.2843 20.5903 20.908 20.782C20.4802 21 19.9201 21 18.8 21H15.2C14.0799 21 13.5198 21 13.092 20.782C12.7157 20.5903 12.4097 20.2843 12.218 19.908C12 19.4802 12 18.9201 12 17.8V14.2Z" fill="#287CA9"/>
<path d="M20 13.5L18.9108 18.5H17.7059L17.2008 16.084C17.1886 16.0327 17.1744 15.958 17.1582 15.8599C17.142 15.7572 17.1217 15.6452 17.0974 15.5238C17.0771 15.3978 17.0588 15.2787 17.0426 15.1667C17.0264 15.05 17.0142 14.9566 17.0061 14.8866C16.998 14.9566 16.9838 15.05 16.9635 15.1667C16.9473 15.2787 16.929 15.3978 16.9087 15.5238C16.8884 15.6452 16.8682 15.7572 16.8479 15.8599C16.8316 15.958 16.8174 16.0327 16.8053 16.084L16.2941 18.5H15.0953L14 13.5H15.0101L15.5274 16.1261C15.5436 16.1961 15.5619 16.2894 15.5822 16.4062C15.6024 16.5182 15.6227 16.6396 15.643 16.7703C15.6633 16.8964 15.6815 17.0201 15.6978 17.1415C15.7181 17.2582 15.7323 17.3585 15.7404 17.4426C15.7525 17.3305 15.7688 17.2021 15.789 17.0574C15.8134 16.9127 15.8377 16.7656 15.8621 16.6162C15.8864 16.4669 15.9108 16.3268 15.9351 16.1961C15.9594 16.0654 15.9817 15.9603 16.002 15.881L16.5193 13.5H17.4868L18.0041 15.881C18.0162 15.9603 18.0345 16.0654 18.0588 16.1961C18.0872 16.3268 18.1136 16.4692 18.1379 16.6232C18.1663 16.7726 18.1907 16.9197 18.211 17.0644C18.2312 17.2092 18.2475 17.3352 18.2596 17.4426C18.2718 17.3259 18.2901 17.1858 18.3144 17.0224C18.3428 16.8543 18.3712 16.6886 18.3996 16.5252C18.428 16.3571 18.4523 16.2264 18.4726 16.1331L18.9899 13.5H20Z" fill="white"/>
<path fill-rule="evenodd" clip-rule="evenodd" d="M7.5 9C7.22386 9 7 9.22386 7 9.5C7 9.77614 7.22386 10 7.5 10H16.5C16.7761 10 17 9.77614 17 9.5C17 9.22386 16.7761 9 16.5 9H7.5ZM7 12.5C7 12.2239 7.22386 12 7.5 12H10.5C10.7761 12 11 12.2239 11 12.5C11 12.7761 10.7761 13 10.5 13H7.5C7.22386 13 7 12.7761 7 12.5ZM7 15.5C7 15.2239 7.22386 15 7.5 15H10.5C10.7761 15 11 15.2239 11 15.5C11 15.7761 10.7761 16 10.5 16H7.5C7.22386 16 7 15.7761 7 15.5Z" fill="#A9CBDD"/>
</svg>
