<svg width="24" height="24" viewBox="0 0 24 24" fill="none" xmlns="http://www.w3.org/2000/svg">
<path d="M4.5 2.5C4.5 1.94772 4.94772 1.5 5.5 1.5L15.428 1.5L19.5 5.60589V21.5C19.5 22.0523 19.0523 22.5 18.5 22.5H5.5C4.94772 22.5 4.5 22.0523 4.5 21.5V2.5Z" fill="white" stroke="#BBBBBB"/>
<path d="M15 2V4.4C15 4.96005 15 5.24008 15.109 5.45399C15.2049 5.64215 15.3578 5.79513 15.546 5.89101C15.7599 6 16.0399 6 16.6 6H19" stroke="#BBBBBB"/>
<path d="M7 9.5C7 9.22386 7.22386 9 7.5 9H16.5C16.7761 9 17 9.22386 17 9.5C17 9.77614 16.7761 10 16.5 10H7.5C7.22386 10 7 9.77614 7 9.5Z" fill="#287CA9"/>
<path fill-rule="evenodd" clip-rule="evenodd" d="M7.5 12C7.22386 12 7 12.2239 7 12.5C7 12.7761 7.22386 13 7.5 13H16.5C16.7761 13 17 12.7761 17 12.5C17 12.2239 16.7761 12 16.5 12H7.5ZM7.5 15C7.22386 15 7 15.2239 7 15.5C7 15.7761 7.22386 16 7.5 16H12.5C12.7761 16 13 15.7761 13 15.5C13 15.2239 12.7761 15 12.5 15H7.5Z" fill="#A9CBDD"/>
</svg>
