<svg width="32" height="32" viewBox="0 0 32 32" fill="none" xmlns="http://www.w3.org/2000/svg">
<rect width="32" height="32" rx="6" fill="#EB7B0C" fill-opacity="0.1"/>
<path fill-rule="evenodd" clip-rule="evenodd" d="M6 32C2.68629 32 0 29.3137 0 26V19C1.10457 19 2 19.8954 2 21V26C2 28.2091 3.79086 30 6 30H11C12.1046 30 13 30.8954 13 32H6ZM32 19C30.8954 19 30 19.8954 30 21V26C30 28.2091 28.2091 30 26 30H21C19.8954 30 19 30.8954 19 32H26C29.3137 32 32 29.3137 32 26V19ZM19 0C19 1.10457 19.8954 2 21 2H26C28.2091 2 30 3.79086 30 6V11C30 12.1046 30.8954 13 32 13V6C32 2.68629 29.3137 0 26 0H19ZM0 13C1.10457 13 2 12.1046 2 11V6C2 3.79086 3.79086 2 6 2H11C12.1046 2 13 1.10457 13 0H6C2.68629 0 0 2.68629 0 6V13Z" fill="#EB7B0C"/>
<g clip-path="url(#clip0_3658_18183)">
<path fill-rule="evenodd" clip-rule="evenodd" d="M18.2929 9.29312C19.5119 8.07417 21.4882 8.07417 22.7071 9.29312C23.9261 10.5121 23.9261 12.4884 22.7071 13.7073L13.7071 22.7073C13.579 22.8355 13.4184 22.9264 13.2426 22.9704L9.24256 23.9704C8.90178 24.0556 8.54129 23.9557 8.29291 23.7073C8.04453 23.459 7.94468 23.0985 8.02988 22.7577L9.02988 18.7577C9.07384 18.5819 9.16476 18.4213 9.29291 18.2931L18.2929 9.29312ZM21.2929 10.7073C20.855 10.2694 20.145 10.2694 19.7071 10.7073L18.9142 11.5002L20.5 13.086L21.2929 12.2931C21.7308 11.8552 21.7308 11.1452 21.2929 10.7073ZM19.0858 14.5002L17.5 12.9144L10.903 19.5115L10.3744 21.6259L12.4888 21.0973L19.0858 14.5002Z" fill="#EB7B0C"/>
</g>
<defs>
<clipPath id="clip0_3658_18183">
<rect width="16" height="16" fill="white" transform="translate(8 8)"/>
</clipPath>
</defs>
</svg>
