<svg width="32" height="32" viewBox="0 0 32 32" fill="none" xmlns="http://www.w3.org/2000/svg">
<rect width="32" height="32" rx="6" fill="#56A8F4" fill-opacity="0.1"/>
<path fill-rule="evenodd" clip-rule="evenodd" d="M6 32C2.68629 32 0 29.3137 0 26V19C1.10457 19 2 19.8954 2 21V26C2 28.2091 3.79086 30 6 30H11C12.1046 30 13 30.8954 13 32H6ZM32 19C30.8954 19 30 19.8954 30 21V26C30 28.2091 28.2091 30 26 30H21C19.8954 30 19 30.8954 19 32H26C29.3137 32 32 29.3137 32 26V19ZM19 0C19 1.10457 19.8954 2 21 2H26C28.2091 2 30 3.79086 30 6V11C30 12.1046 30.8954 13 32 13V6C32 2.68629 29.3137 0 26 0H19ZM0 13C1.10457 13 2 12.1046 2 11V6C2 3.79086 3.79086 2 6 2H11C12.1046 2 13 1.10457 13 0H6C2.68629 0 0 2.68629 0 6V13Z" fill="#56A8F4"/>
<path fill-rule="evenodd" clip-rule="evenodd" d="M9 11C9 9.89543 9.89543 9 11 9H21C22.1046 9 23 9.89543 23 11V21C23 22.1046 22.1046 23 21 23H17V21H21V11L11 11V17H9V11ZM15 17H17H20V15H15V17ZM20 14H12V12H20V14ZM20 20H18V18H20V20Z" fill="#56A8F4"/>
<path fill-rule="evenodd" clip-rule="evenodd" d="M10.4142 19.2929L11.7071 20.5858V16H13.7071V20.5858L15 19.2929L16.4142 20.7071L13.4142 23.7071C13.2267 23.8946 12.9723 24 12.7071 24C12.4419 24 12.1875 23.8946 12 23.7071L9 20.7071L10.4142 19.2929Z" fill="#56A8F4"/>
</svg>
