<?xml version="1.0" encoding="UTF-8"?>
<svg xmlns="http://www.w3.org/2000/svg" xmlns:xlink="http://www.w3.org/1999/xlink" width="16px" height="16px" viewBox="0 0 16 15" version="1.1">
<defs>
<linearGradient id="linear0" gradientUnits="userSpaceOnUse" x1="534.299988" y1="433.200012" x2="998.099976" y2="433.200012" gradientTransform="matrix(0.0160272,0,0,0.0150255,0.00160282,0)">
<stop offset="0" style="stop-color:rgb(100%,100%,100%);stop-opacity:0.2;"/>
<stop offset="1" style="stop-color:rgb(100%,100%,100%);stop-opacity:0.0196078;"/>
</linearGradient>
<radialGradient id="radial0" gradientUnits="userSpaceOnUse" cx="65.208" cy="19.365999" fx="65.208" fy="19.365999" r="1398.270996" gradientTransform="matrix(0.0160272,0,0,0.0150255,0.00160282,0)">
<stop offset="0" style="stop-color:rgb(100%,100%,100%);stop-opacity:0.101961;"/>
<stop offset="1" style="stop-color:rgb(100%,100%,100%);stop-opacity:0;"/>
</radialGradient>
</defs>
<g id="surface1">
<path style=" stroke:none;fill-rule:nonzero;fill:rgb(85.882354%,85.882354%,85.882354%);fill-opacity:1;" d="M 14.933594 15 C 15.519531 15 16 14.558594 16 14.015625 L 16 3.992188 C 16 3.453125 15.519531 3.011719 14.933594 3.011719 L 4.546875 3.011719 L 8.714844 15 Z M 14.933594 15 "/>
<path style=" stroke:none;fill-rule:nonzero;fill:rgb(86.274511%,86.274511%,86.274511%);fill-opacity:1;" d="M 14.933594 3.460938 C 15.089844 3.460938 15.238281 3.519531 15.347656 3.621094 C 15.457031 3.722656 15.519531 3.855469 15.519531 3.992188 L 15.519531 14.015625 C 15.519531 14.15625 15.457031 14.289062 15.347656 14.390625 C 15.238281 14.492188 15.089844 14.550781 14.933594 14.550781 L 9.066406 14.550781 L 5.207031 3.460938 L 14.933594 3.460938 M 14.933594 3.011719 L 4.546875 3.011719 L 8.714844 15 L 14.933594 15 C 15.519531 15 16 14.558594 16 14.015625 L 16 3.992188 C 16 3.453125 15.519531 3.011719 14.933594 3.011719 Z M 14.933594 3.011719 "/>
<path style=" stroke:none;fill-rule:nonzero;fill:rgb(26.274511%,32.156864%,72.156864%);fill-opacity:1;" d="M 7.730469 12.167969 L 8.714844 15 L 11.453125 12.167969 Z M 7.730469 12.167969 "/>
<path style=" stroke:none;fill-rule:nonzero;fill:rgb(37.64706%,47.450981%,53.333336%);fill-opacity:1;" d="M 15.003906 7.152344 L 15.003906 6.566406 L 11.984375 6.566406 L 11.984375 5.617188 L 11.003906 5.617188 L 11.003906 6.566406 L 9.074219 6.566406 L 9.074219 7.152344 L 12.910156 7.152344 C 12.707031 7.832031 12.253906 8.472656 11.808594 8.96875 C 11.027344 8.097656 11.023438 7.816406 11.023438 7.816406 L 10.210938 7.816406 C 10.210938 7.816406 10.242188 8.238281 11.34375 9.449219 C 10.984375 9.789062 10.714844 9.992188 10.714844 9.992188 L 10.964844 10.726562 C 10.964844 10.726562 11.34375 10.421875 11.816406 9.953125 C 12.289062 10.433594 12.902344 11.015625 13.695312 11.703125 L 14.207031 11.222656 C 13.359375 10.5 12.738281 9.929688 12.28125 9.46875 C 12.894531 8.789062 13.515625 7.933594 13.648438 7.152344 Z M 15.003906 7.152344 "/>
<path style=" stroke:none;fill-rule:nonzero;fill:rgb(25.882354%,52.156866%,95.686275%);fill-opacity:1;" d="M 1.066406 0 C 0.480469 0 0 0.449219 0 1 L 0 11.171875 C 0 11.71875 0.480469 12.167969 1.066406 12.167969 L 11.453125 12.167969 L 7.285156 0 Z M 1.066406 0 "/>
<path style=" stroke:none;fill-rule:nonzero;fill:url(#linear0);" d="M 8.566406 3.011719 L 14.933594 3.011719 C 15.519531 3.011719 16 3.453125 16 3.992188 L 16 10.007812 Z M 8.566406 3.011719 "/>
<path style=" stroke:none;fill-rule:nonzero;fill:rgb(93.333334%,93.333334%,93.333334%);fill-opacity:1;" d="M 5.953125 6.46875 C 5.914062 6.925781 5.5 7.601562 4.492188 7.601562 C 3.625 7.601562 2.917969 6.925781 2.917969 6.09375 C 2.917969 5.261719 3.625 4.589844 4.492188 4.589844 C 4.988281 4.589844 5.320312 4.789062 5.507812 4.953125 L 6.167969 4.359375 C 5.734375 3.984375 5.167969 3.75 4.492188 3.75 C 3.113281 3.75 1.992188 4.800781 1.992188 6.09375 C 1.992188 7.386719 3.113281 8.4375 4.492188 8.4375 C 5.941406 8.4375 6.894531 7.484375 6.894531 6.144531 C 6.894531 5.953125 6.871094 5.808594 6.835938 5.667969 L 4.496094 5.667969 L 4.496094 6.46875 Z M 5.953125 6.46875 "/>
<path style=" stroke:none;fill-rule:nonzero;fill:url(#radial0);" d="M 14.933594 3.011719 L 8.316406 3.011719 L 7.285156 0 L 1.066406 0 C 0.480469 0 0 0.449219 0 1 L 0 11.171875 C 0 11.71875 0.480469 12.167969 1.066406 12.167969 L 7.730469 12.167969 L 8.714844 15 L 14.933594 15 C 15.519531 15 16 14.558594 16 14.015625 L 16 3.992188 C 16 3.453125 15.519531 3.011719 14.933594 3.011719 Z M 14.933594 3.011719 "/>
</g>
</svg>
