<svg width="32" height="32" viewBox="0 0 32 32" fill="none" xmlns="http://www.w3.org/2000/svg">
<g clip-path="url(#clip0_4794_68922)">
<path d="M28 8H2C0.89543 8 0 8.89543 0 10V26C0 27.1046 0.89543 28 2 28H28C29.1046 28 30 27.1046 30 26V10C30 8.89543 29.1046 8 28 8Z" fill="#C2F1E1" style="fill:#C2F1E1;fill:color(display-p3 0.7608 0.9451 0.8824);fill-opacity:1;"/>
<path d="M0 4C0 2.89543 0.895431 2 2 2H11C12.1046 2 13 2.89543 13 4V6H28C29.1046 6 30 6.89543 30 8V10C30 8.89543 29.1046 8 28 8H2C0.895431 8 0 8.89543 0 10V4Z" fill="#99E0C8" style="fill:#99E0C8;fill:color(display-p3 0.6000 0.8784 0.7843);fill-opacity:1;"/>
<path d="M21.4745 24.6983L21.4745 24.6983L20.3079 23.5316C19.683 22.9068 18.67 22.9068 18.0451 23.5316L17.4794 24.0973C16.8546 24.7221 16.8546 25.7352 17.4794 26.36L19.7668 28.6474C20.9384 29.819 22.8379 29.819 24.0095 28.6474L30.5286 22.1283C31.1534 21.5034 31.1534 20.4904 30.5286 19.8655L29.9629 19.2999C29.338 18.675 28.325 18.675 27.7001 19.2999L24.7071 22.2929L21.8881 25.1119L21.4745 24.6983Z" fill="#C2F1E1" stroke="#39BD86" style="fill:#C2F1E1;fill:color(display-p3 0.7608 0.9451 0.8824);fill-opacity:1;stroke:#39BD86;stroke:color(display-p3 0.2220 0.7400 0.5242);stroke-opacity:1;" stroke-width="2"/>
</g>
<defs>
<clipPath id="clip0_4794_68922">
<rect width="32" height="32" fill="white" style="fill:white;fill-opacity:1;"/>
</clipPath>
</defs>
</svg>
