<svg width="32" height="32" viewBox="0 0 32 32" fill="none" xmlns="http://www.w3.org/2000/svg">
<g clip-path="url(#clip0_4794_68922)">
<path d="M2 6C2 4.89551 2.89543 4 4 4H12C13.1046 4 14 4.89551 14 6V8H28C29.1046 8 30 8.89551 30 10V12C30 10.8955 29.1046 10 28 10H4C2.89543 10 2 10.8955 2 12V6Z" fill="#99E0C8"/>
<rect x="2" y="10" width="28" height="18" rx="2" fill="#C2F1E1"/>
<path d="M21.4745 24.6983L21.4745 24.6983L20.3079 23.5316C19.683 22.9068 18.67 22.9068 18.0451 23.5316L17.4794 24.0973C16.8546 24.7221 16.8546 25.7352 17.4794 26.36L19.7668 28.6474C20.9384 29.819 22.8379 29.819 24.0095 28.6474L30.5286 22.1283C31.1534 21.5034 31.1534 20.4904 30.5286 19.8655L29.9629 19.2999C29.338 18.675 28.325 18.675 27.7001 19.2999L24.7071 22.2929L21.8881 25.1119L21.4745 24.6983Z" fill="#C2F1E1" stroke="#39BD86" stroke-width="2"/>
</g>
<defs>
<clipPath id="clip0_4794_68922">
<rect width="32" height="32" fill="white"/>
</clipPath>
</defs>
</svg>
