<svg width="32" height="32" viewBox="0 0 32 32" fill="none" xmlns="http://www.w3.org/2000/svg">
<rect y="8" width="30" height="20" rx="2" fill="#B2BBC0"/>
<path d="M0 4C0 2.89543 0.895431 2 2 2H11C12.1046 2 13 2.89543 13 4V6H28C29.1046 6 30 6.89543 30 8V10C30 8.89543 29.1046 8 28 8H2C0.895431 8 0 8.89543 0 10V4Z" fill="#788790"/>
<path d="M16.1036 13.8964L17.6464 12.3536C17.8417 12.1583 18.1583 12.1583 18.3536 12.3536L20.6464 14.6464C20.8417 14.8417 20.8417 15.1583 20.6464 15.3536L19.1036 16.8964C18.9083 17.0917 18.5917 17.0917 18.3964 16.8964L16.1036 14.6036C15.9083 14.4083 15.9083 14.0917 16.1036 13.8964Z" fill="#788790"/>
<path d="M17.6464 17.6464L15.3536 15.3536C15.1583 15.1583 14.8417 15.1583 14.6464 15.3536L9.85705 20.143C9.78725 20.2128 9.73967 20.3017 9.72031 20.3984L9 24L12.6016 23.2797C12.6983 23.2603 12.7872 23.2128 12.857 23.143L17.6464 18.3536C17.8417 18.1583 17.8417 17.8417 17.6464 17.6464Z" fill="#788790"/>
</svg>
