<svg width="32" height="32" viewBox="0 0 32 32" fill="none" xmlns="http://www.w3.org/2000/svg">
<g clip-path="url(#clip0_17_69366)">
<path d="M2 6C2 4.89551 2.89543 4 4 4H12C13.1046 4 14 4.89551 14 6V8H28C29.1046 8 30 8.89551 30 10V12C30 10.8955 29.1046 10 28 10H4C2.89543 10 2 10.8955 2 12V6Z" fill="#788790"/>
<rect x="2" y="10" width="28" height="18" rx="2" fill="#B2BBC0"/>
<path d="M17.1036 14.8964L18.6464 13.3536C18.8417 13.1583 19.1583 13.1583 19.3536 13.3536L21.6464 15.6464C21.8417 15.8417 21.8417 16.1583 21.6464 16.3536L20.1036 17.8964C19.9083 18.0917 19.5917 18.0917 19.3964 17.8964L17.1036 15.6036C16.9083 15.4083 16.9083 15.0917 17.1036 14.8964Z" fill="#788790"/>
<path d="M18.6464 18.6464L16.3536 16.3536C16.1583 16.1583 15.8417 16.1583 15.6464 16.3536L10.857 21.143C10.7872 21.2128 10.7397 21.3017 10.7203 21.3984L10 25L13.6016 24.2797C13.6983 24.2603 13.7872 24.2128 13.857 24.143L18.6464 19.3536C18.8417 19.1583 18.8417 18.8417 18.6464 18.6464Z" fill="#788790"/>
</g>
<defs>
<clipPath id="clip0_17_69366">
<rect width="32" height="32" fill="white"/>
</clipPath>
</defs>
</svg>
