<svg width="32" height="32" viewBox="0 0 32 32" fill="none" xmlns="http://www.w3.org/2000/svg">
<g clip-path="url(#clip0_4794_68923)">
<path d="M28 8H2C0.89543 8 0 8.89543 0 10V26C0 27.1046 0.89543 28 2 28H28C29.1046 28 30 27.1046 30 26V10C30 8.89543 29.1046 8 28 8Z" fill="#FFE2C2" style="fill:#FFE2C2;fill:color(display-p3 1.0000 0.8863 0.7608);fill-opacity:1;"/>
<path d="M0 4C0 2.89543 0.895431 2 2 2H11C12.1046 2 13 2.89543 13 4V6H28C29.1046 6 30 6.89543 30 8V10C30 8.89543 29.1046 8 28 8H2C0.895431 8 0 8.89543 0 10V4Z" fill="#FFD6B0" style="fill:#FFD6B0;fill:color(display-p3 1.0000 0.8398 0.6900);fill-opacity:1;"/>
<g clip-path="url(#clip1_4794_68923)">
<path d="M18 26V29H21L30 20V19L28 17H27L18 26Z" fill="#FFE2C2" style="fill:#FFE2C2;fill:color(display-p3 1.0000 0.8863 0.7608);fill-opacity:1;"/>
<path fill-rule="evenodd" clip-rule="evenodd" d="M29.3778 19.2426L27.9636 17.8284L27.2565 18.5355L26.5494 19.2426L27.9636 20.6569L28.6707 19.9497L29.3778 19.2426ZM29.3778 22.0711L30.7921 20.6569C31.5731 19.8758 31.5731 18.6095 30.7921 17.8284L29.3778 16.4142C28.5968 15.6332 27.3305 15.6332 26.5494 16.4142L25.1352 17.8284L24.4281 18.5355L23.721 19.2426L18.2998 24.6638C17.6878 25.2758 17.2909 26.0698 17.1685 26.9265L16.8385 29.2364C16.7442 29.8964 17.3099 30.4621 17.9698 30.3678L20.2797 30.0378C21.1365 29.9154 21.9305 29.5184 22.5425 28.9064L27.9636 23.4853L28.6707 22.7782L29.3778 22.0711ZM25.1352 20.6569L26.5494 22.0711L21.1283 27.4922C20.8223 27.7982 20.4253 27.9967 19.9969 28.0579L19.0069 28.1993L19.1484 27.2094C19.2096 26.781 19.4081 26.384 19.714 26.078L25.1352 20.6569Z" fill="#FF9142" style="fill:#FF9142;fill:color(display-p3 1.0000 0.5683 0.2600);fill-opacity:1;"/>
</g>
</g>
<defs>
<clipPath id="clip0_4794_68923">
<rect width="32" height="32" fill="white" style="fill:white;fill-opacity:1;"/>
</clipPath>
<clipPath id="clip1_4794_68923">
<rect width="16" height="16" fill="white" style="fill:white;fill-opacity:1;" transform="translate(16 15)"/>
</clipPath>
</defs>
</svg>
