<svg width="32" height="32" viewBox="0 0 32 32" fill="none" xmlns="http://www.w3.org/2000/svg">
<g clip-path="url(#clip0_1312_210915)">
<rect width="32" height="32" rx="4" fill="#FFAC59" fill-opacity="0.2"/>
<g clip-path="url(#clip1_1312_210915)">
<path fill-rule="evenodd" clip-rule="evenodd" d="M21.3778 12.2426L19.9636 10.8284L19.2565 11.5355L18.5494 12.2426L19.9636 13.6569L20.6707 12.9497L21.3778 12.2426ZM21.3778 15.0711L22.7921 13.6569C23.5731 12.8758 23.5731 11.6095 22.7921 10.8284L21.3778 9.41421C20.5968 8.63317 19.3305 8.63316 18.5494 9.41421L17.1352 10.8284L16.4281 11.5355L15.721 12.2426L10.2998 17.6638C9.68784 18.2758 9.29086 19.0698 9.16846 19.9265L8.83848 22.2364C8.7442 22.8964 9.30988 23.4621 9.96985 23.3678L12.2797 23.0378C13.1365 22.9154 13.9305 22.5184 14.5425 21.9064L19.9636 16.4853L20.6707 15.7782L21.3778 15.0711ZM17.1352 13.6569L18.5494 15.0711L13.1283 20.4922C12.8223 20.7982 12.4253 20.9967 11.9969 21.0579L11.0069 21.1993L11.1484 20.2094C11.2096 19.781 11.4081 19.384 11.714 19.078L17.1352 13.6569Z" fill="#FFAC59"/>
</g>
</g>
<defs>
<clipPath id="clip0_1312_210915">
<rect width="32" height="32" fill="white"/>
</clipPath>
<clipPath id="clip1_1312_210915">
<rect width="16" height="16" fill="white" transform="translate(8 8)"/>
</clipPath>
</defs>
</svg>
