<svg width="16" height="16" viewBox="0 0 16 16" fill="none" xmlns="http://www.w3.org/2000/svg">
<path fill-rule="evenodd" clip-rule="evenodd" d="M6.81022 4.14817C6.83199 4.06109 6.91024 4 7 4C7.08976 4 7.16801 4.06109 7.18978 4.14817L7.48562 5.33156C7.75434 6.40641 8.59359 7.24566 9.66844 7.51438L10.8518 7.81022C10.9389 7.83199 11 7.91024 11 8C11 8.08976 10.9389 8.16801 10.8518 8.18978L9.66844 8.48562C8.59359 8.75434 7.75434 9.59359 7.48562 10.6684L7.18978 11.8518C7.16801 11.9389 7.08976 12 7 12C6.91024 12 6.83199 11.9389 6.81022 11.8518L6.51438 10.6684C6.24566 9.59359 5.40641 8.75434 4.33156 8.48562L3.14817 8.18978C3.06109 8.16801 3 8.08976 3 8C3 7.91024 3.06109 7.83199 3.14817 7.81022L4.33156 7.51438C5.40641 7.24566 6.24566 6.40641 6.51438 5.33156L6.81022 4.14817ZM13 8.15273C13 9.07047 12.3754 9.87043 11.4851 10.093L10.1535 10.4259C9.79523 10.5155 9.51548 10.7952 9.42591 11.1535L9.09302 12.4851C8.87043 13.3754 8.07047 14 7.15273 14H6.84727C5.92953 14 5.12957 13.3754 4.90698 12.4851L4.57409 11.1535C4.48452 10.7952 4.20477 10.5155 3.84649 10.4259L2.51493 10.093C1.6246 9.87043 1 9.07047 1 8.15273V7.84727C1 6.92953 1.62459 6.12957 2.51493 5.90698L3.84649 5.57409C4.20477 5.48452 4.48452 5.20477 4.57409 4.84649L4.90698 3.51493C5.12957 2.6246 5.92953 2 6.84727 2H7.15273C8.07047 2 8.87043 2.62459 9.09302 3.51493L9.42591 4.84649C9.51548 5.20477 9.79523 5.48452 10.1535 5.57409L11.4851 5.90698C12.3754 6.12957 13 6.92953 13 7.84727V8.15273ZM14 3.5C14 3.77614 13.7761 4 13.5 4C13.2239 4 13 3.77614 13 3.5C13 3.22386 13.2239 3 13.5 3C13.7761 3 14 3.22386 14 3.5ZM15 3.5C15 4.32843 14.3284 5 13.5 5C12.6716 5 12 4.32843 12 3.5C12 2.67157 12.6716 2 13.5 2C14.3284 2 15 2.67157 15 3.5ZM13.5 11C13.2239 11 13 11.2239 13 11.5V12H12.5C12.2239 12 12 12.2239 12 12.5C12 12.7761 12.2239 13 12.5 13H13V13.5C13 13.7761 13.2239 14 13.5 14C13.7761 14 14 13.7761 14 13.5V13H14.5C14.7761 13 15 12.7761 15 12.5C15 12.2239 14.7761 12 14.5 12H14V11.5C14 11.2239 13.7761 11 13.5 11Z" fill="#657077"/>
<path fill-rule="evenodd" clip-rule="evenodd" d="M6.81022 4.14817C6.83199 4.06109 6.91024 4 7 4C7.08976 4 7.16801 4.06109 7.18978 4.14817L7.48562 5.33156C7.75434 6.40641 8.59359 7.24566 9.66844 7.51438L10.8518 7.81022C10.9389 7.83199 11 7.91024 11 8C11 8.08976 10.9389 8.16801 10.8518 8.18978L9.66844 8.48562C8.59359 8.75434 7.75434 9.59359 7.48562 10.6684L7.18978 11.8518C7.16801 11.9389 7.08976 12 7 12C6.91024 12 6.83199 11.9389 6.81022 11.8518L6.51438 10.6684C6.24566 9.59359 5.40641 8.75434 4.33156 8.48562L3.14817 8.18978C3.06109 8.16801 3 8.08976 3 8C3 7.91024 3.06109 7.83199 3.14817 7.81022L4.33156 7.51438C5.40641 7.24566 6.24566 6.40641 6.51438 5.33156L6.81022 4.14817ZM13 8.15273C13 9.07047 12.3754 9.87043 11.4851 10.093L10.1535 10.4259C9.79523 10.5155 9.51548 10.7952 9.42591 11.1535L9.09302 12.4851C8.87043 13.3754 8.07047 14 7.15273 14H6.84727C5.92953 14 5.12957 13.3754 4.90698 12.4851L4.57409 11.1535C4.48452 10.7952 4.20477 10.5155 3.84649 10.4259L2.51493 10.093C1.6246 9.87043 1 9.07047 1 8.15273V7.84727C1 6.92953 1.62459 6.12957 2.51493 5.90698L3.84649 5.57409C4.20477 5.48452 4.48452 5.20477 4.57409 4.84649L4.90698 3.51493C5.12957 2.6246 5.92953 2 6.84727 2H7.15273C8.07047 2 8.87043 2.62459 9.09302 3.51493L9.42591 4.84649C9.51548 5.20477 9.79523 5.48452 10.1535 5.57409L11.4851 5.90698C12.3754 6.12957 13 6.92953 13 7.84727V8.15273ZM14 3.5C14 3.77614 13.7761 4 13.5 4C13.2239 4 13 3.77614 13 3.5C13 3.22386 13.2239 3 13.5 3C13.7761 3 14 3.22386 14 3.5ZM15 3.5C15 4.32843 14.3284 5 13.5 5C12.6716 5 12 4.32843 12 3.5C12 2.67157 12.6716 2 13.5 2C14.3284 2 15 2.67157 15 3.5ZM13.5 11C13.2239 11 13 11.2239 13 11.5V12H12.5C12.2239 12 12 12.2239 12 12.5C12 12.7761 12.2239 13 12.5 13H13V13.5C13 13.7761 13.2239 14 13.5 14C13.7761 14 14 13.7761 14 13.5V13H14.5C14.7761 13 15 12.7761 15 12.5C15 12.2239 14.7761 12 14.5 12H14V11.5C14 11.2239 13.7761 11 13.5 11Z" fill="url(#paint0_linear_359_30248)"/>
<path fill-rule="evenodd" clip-rule="evenodd" d="M6.81022 4.14817C6.83199 4.06109 6.91024 4 7 4C7.08976 4 7.16801 4.06109 7.18978 4.14817L7.48562 5.33156C7.75434 6.40641 8.59359 7.24566 9.66844 7.51438L10.8518 7.81022C10.9389 7.83199 11 7.91024 11 8C11 8.08976 10.9389 8.16801 10.8518 8.18978L9.66844 8.48562C8.59359 8.75434 7.75434 9.59359 7.48562 10.6684L7.18978 11.8518C7.16801 11.9389 7.08976 12 7 12C6.91024 12 6.83199 11.9389 6.81022 11.8518L6.51438 10.6684C6.24566 9.59359 5.40641 8.75434 4.33156 8.48562L3.14817 8.18978C3.06109 8.16801 3 8.08976 3 8C3 7.91024 3.06109 7.83199 3.14817 7.81022L4.33156 7.51438C5.40641 7.24566 6.24566 6.40641 6.51438 5.33156L6.81022 4.14817ZM13 8.15273C13 9.07047 12.3754 9.87043 11.4851 10.093L10.1535 10.4259C9.79523 10.5155 9.51548 10.7952 9.42591 11.1535L9.09302 12.4851C8.87043 13.3754 8.07047 14 7.15273 14H6.84727C5.92953 14 5.12957 13.3754 4.90698 12.4851L4.57409 11.1535C4.48452 10.7952 4.20477 10.5155 3.84649 10.4259L2.51493 10.093C1.6246 9.87043 1 9.07047 1 8.15273V7.84727C1 6.92953 1.62459 6.12957 2.51493 5.90698L3.84649 5.57409C4.20477 5.48452 4.48452 5.20477 4.57409 4.84649L4.90698 3.51493C5.12957 2.6246 5.92953 2 6.84727 2H7.15273C8.07047 2 8.87043 2.62459 9.09302 3.51493L9.42591 4.84649C9.51548 5.20477 9.79523 5.48452 10.1535 5.57409L11.4851 5.90698C12.3754 6.12957 13 6.92953 13 7.84727V8.15273ZM14 3.5C14 3.77614 13.7761 4 13.5 4C13.2239 4 13 3.77614 13 3.5C13 3.22386 13.2239 3 13.5 3C13.7761 3 14 3.22386 14 3.5ZM15 3.5C15 4.32843 14.3284 5 13.5 5C12.6716 5 12 4.32843 12 3.5C12 2.67157 12.6716 2 13.5 2C14.3284 2 15 2.67157 15 3.5ZM13.5 11C13.2239 11 13 11.2239 13 11.5V12H12.5C12.2239 12 12 12.2239 12 12.5C12 12.7761 12.2239 13 12.5 13H13V13.5C13 13.7761 13.2239 14 13.5 14C13.7761 14 14 13.7761 14 13.5V13H14.5C14.7761 13 15 12.7761 15 12.5C15 12.2239 14.7761 12 14.5 12H14V11.5C14 11.2239 13.7761 11 13.5 11Z" fill="url(#paint1_linear_359_30248)"/>
<defs>
<linearGradient id="paint0_linear_359_30248" x1="17.5" y1="11.5" x2="0.999999" y2="5" gradientUnits="userSpaceOnUse">
<stop stop-color="#FAC148"/>
<stop offset="1" stop-color="#E06E26"/>
</linearGradient>
<linearGradient id="paint1_linear_359_30248" x1="17.5" y1="11.5" x2="0.999999" y2="5" gradientUnits="userSpaceOnUse">
<stop stop-color="#4781D1"/>
<stop offset="1" stop-color="#664FEA"/>
</linearGradient>
</defs>
</svg>
