<svg width="16" height="17" viewBox="0 0 16 17" fill="none" xmlns="http://www.w3.org/2000/svg">
<path fill-rule="evenodd" clip-rule="evenodd" d="M6.81022 4.64817C6.83199 4.56109 6.91024 4.5 7 4.5C7.08976 4.5 7.16801 4.56109 7.18978 4.64817L7.48562 5.83156C7.75434 6.90641 8.59359 7.74566 9.66844 8.01438L10.8518 8.31022C10.9389 8.33199 11 8.41024 11 8.5C11 8.58976 10.9389 8.66801 10.8518 8.68978L9.66844 8.98562C8.59359 9.25434 7.75434 10.0936 7.48562 11.1684L7.18978 12.3518C7.16801 12.4389 7.08976 12.5 7 12.5C6.91024 12.5 6.83199 12.4389 6.81022 12.3518L6.51438 11.1684C6.24566 10.0936 5.40641 9.25434 4.33156 8.98562L3.14817 8.68978C3.06109 8.66801 3 8.58976 3 8.5C3 8.41024 3.06109 8.33199 3.14817 8.31022L4.33156 8.01438C5.40641 7.74566 6.24566 6.90641 6.51438 5.83156L6.81022 4.64817ZM13 8.65273C13 9.57047 12.3754 10.3704 11.4851 10.593L10.1535 10.9259C9.79523 11.0155 9.51548 11.2952 9.42591 11.6535L9.09302 12.9851C8.87043 13.8754 8.07047 14.5 7.15273 14.5H6.84727C5.92953 14.5 5.12957 13.8754 4.90698 12.9851L4.57409 11.6535C4.48452 11.2952 4.20477 11.0155 3.84649 10.9259L2.51493 10.593C1.6246 10.3704 1 9.57047 1 8.65273V8.34727C1 7.42953 1.62459 6.62957 2.51493 6.40698L3.84649 6.07409C4.20477 5.98452 4.48452 5.70477 4.57409 5.34649L4.90698 4.01493C5.12957 3.1246 5.92953 2.5 6.84727 2.5H7.15273C8.07047 2.5 8.87043 3.12459 9.09302 4.01493L9.42591 5.34649C9.51548 5.70477 9.79523 5.98452 10.1535 6.07409L11.4851 6.40698C12.3754 6.62957 13 7.42953 13 8.34727V8.65273ZM14 4C14 4.27614 13.7761 4.5 13.5 4.5C13.2239 4.5 13 4.27614 13 4C13 3.72386 13.2239 3.5 13.5 3.5C13.7761 3.5 14 3.72386 14 4ZM15 4C15 4.82843 14.3284 5.5 13.5 5.5C12.6716 5.5 12 4.82843 12 4C12 3.17157 12.6716 2.5 13.5 2.5C14.3284 2.5 15 3.17157 15 4ZM13.5 11.5C13.2239 11.5 13 11.7239 13 12V12.5H12.5C12.2239 12.5 12 12.7239 12 13C12 13.2761 12.2239 13.5 12.5 13.5H13V14C13 14.2761 13.2239 14.5 13.5 14.5C13.7761 14.5 14 14.2761 14 14V13.5H14.5C14.7761 13.5 15 13.2761 15 13C15 12.7239 14.7761 12.5 14.5 12.5H14V12C14 11.7239 13.7761 11.5 13.5 11.5Z" fill="#657077"/>
<path fill-rule="evenodd" clip-rule="evenodd" d="M6.81022 4.64817C6.83199 4.56109 6.91024 4.5 7 4.5C7.08976 4.5 7.16801 4.56109 7.18978 4.64817L7.48562 5.83156C7.75434 6.90641 8.59359 7.74566 9.66844 8.01438L10.8518 8.31022C10.9389 8.33199 11 8.41024 11 8.5C11 8.58976 10.9389 8.66801 10.8518 8.68978L9.66844 8.98562C8.59359 9.25434 7.75434 10.0936 7.48562 11.1684L7.18978 12.3518C7.16801 12.4389 7.08976 12.5 7 12.5C6.91024 12.5 6.83199 12.4389 6.81022 12.3518L6.51438 11.1684C6.24566 10.0936 5.40641 9.25434 4.33156 8.98562L3.14817 8.68978C3.06109 8.66801 3 8.58976 3 8.5C3 8.41024 3.06109 8.33199 3.14817 8.31022L4.33156 8.01438C5.40641 7.74566 6.24566 6.90641 6.51438 5.83156L6.81022 4.64817ZM13 8.65273C13 9.57047 12.3754 10.3704 11.4851 10.593L10.1535 10.9259C9.79523 11.0155 9.51548 11.2952 9.42591 11.6535L9.09302 12.9851C8.87043 13.8754 8.07047 14.5 7.15273 14.5H6.84727C5.92953 14.5 5.12957 13.8754 4.90698 12.9851L4.57409 11.6535C4.48452 11.2952 4.20477 11.0155 3.84649 10.9259L2.51493 10.593C1.6246 10.3704 1 9.57047 1 8.65273V8.34727C1 7.42953 1.62459 6.62957 2.51493 6.40698L3.84649 6.07409C4.20477 5.98452 4.48452 5.70477 4.57409 5.34649L4.90698 4.01493C5.12957 3.1246 5.92953 2.5 6.84727 2.5H7.15273C8.07047 2.5 8.87043 3.12459 9.09302 4.01493L9.42591 5.34649C9.51548 5.70477 9.79523 5.98452 10.1535 6.07409L11.4851 6.40698C12.3754 6.62957 13 7.42953 13 8.34727V8.65273ZM14 4C14 4.27614 13.7761 4.5 13.5 4.5C13.2239 4.5 13 4.27614 13 4C13 3.72386 13.2239 3.5 13.5 3.5C13.7761 3.5 14 3.72386 14 4ZM15 4C15 4.82843 14.3284 5.5 13.5 5.5C12.6716 5.5 12 4.82843 12 4C12 3.17157 12.6716 2.5 13.5 2.5C14.3284 2.5 15 3.17157 15 4ZM13.5 11.5C13.2239 11.5 13 11.7239 13 12V12.5H12.5C12.2239 12.5 12 12.7239 12 13C12 13.2761 12.2239 13.5 12.5 13.5H13V14C13 14.2761 13.2239 14.5 13.5 14.5C13.7761 14.5 14 14.2761 14 14V13.5H14.5C14.7761 13.5 15 13.2761 15 13C15 12.7239 14.7761 12.5 14.5 12.5H14V12C14 11.7239 13.7761 11.5 13.5 11.5Z" fill="url(#paint0_linear_357_47753)"/>
<path fill-rule="evenodd" clip-rule="evenodd" d="M6.81022 4.64817C6.83199 4.56109 6.91024 4.5 7 4.5C7.08976 4.5 7.16801 4.56109 7.18978 4.64817L7.48562 5.83156C7.75434 6.90641 8.59359 7.74566 9.66844 8.01438L10.8518 8.31022C10.9389 8.33199 11 8.41024 11 8.5C11 8.58976 10.9389 8.66801 10.8518 8.68978L9.66844 8.98562C8.59359 9.25434 7.75434 10.0936 7.48562 11.1684L7.18978 12.3518C7.16801 12.4389 7.08976 12.5 7 12.5C6.91024 12.5 6.83199 12.4389 6.81022 12.3518L6.51438 11.1684C6.24566 10.0936 5.40641 9.25434 4.33156 8.98562L3.14817 8.68978C3.06109 8.66801 3 8.58976 3 8.5C3 8.41024 3.06109 8.33199 3.14817 8.31022L4.33156 8.01438C5.40641 7.74566 6.24566 6.90641 6.51438 5.83156L6.81022 4.64817ZM13 8.65273C13 9.57047 12.3754 10.3704 11.4851 10.593L10.1535 10.9259C9.79523 11.0155 9.51548 11.2952 9.42591 11.6535L9.09302 12.9851C8.87043 13.8754 8.07047 14.5 7.15273 14.5H6.84727C5.92953 14.5 5.12957 13.8754 4.90698 12.9851L4.57409 11.6535C4.48452 11.2952 4.20477 11.0155 3.84649 10.9259L2.51493 10.593C1.6246 10.3704 1 9.57047 1 8.65273V8.34727C1 7.42953 1.62459 6.62957 2.51493 6.40698L3.84649 6.07409C4.20477 5.98452 4.48452 5.70477 4.57409 5.34649L4.90698 4.01493C5.12957 3.1246 5.92953 2.5 6.84727 2.5H7.15273C8.07047 2.5 8.87043 3.12459 9.09302 4.01493L9.42591 5.34649C9.51548 5.70477 9.79523 5.98452 10.1535 6.07409L11.4851 6.40698C12.3754 6.62957 13 7.42953 13 8.34727V8.65273ZM14 4C14 4.27614 13.7761 4.5 13.5 4.5C13.2239 4.5 13 4.27614 13 4C13 3.72386 13.2239 3.5 13.5 3.5C13.7761 3.5 14 3.72386 14 4ZM15 4C15 4.82843 14.3284 5.5 13.5 5.5C12.6716 5.5 12 4.82843 12 4C12 3.17157 12.6716 2.5 13.5 2.5C14.3284 2.5 15 3.17157 15 4ZM13.5 11.5C13.2239 11.5 13 11.7239 13 12V12.5H12.5C12.2239 12.5 12 12.7239 12 13C12 13.2761 12.2239 13.5 12.5 13.5H13V14C13 14.2761 13.2239 14.5 13.5 14.5C13.7761 14.5 14 14.2761 14 14V13.5H14.5C14.7761 13.5 15 13.2761 15 13C15 12.7239 14.7761 12.5 14.5 12.5H14V12C14 11.7239 13.7761 11.5 13.5 11.5Z" fill="url(#paint1_linear_357_47753)"/>
<defs>
<linearGradient id="paint0_linear_357_47753" x1="17.5" y1="12" x2="0.999999" y2="5.5" gradientUnits="userSpaceOnUse">
<stop stop-color="#FAC148"/>
<stop offset="1" stop-color="#E06E26"/>
</linearGradient>
<linearGradient id="paint1_linear_357_47753" x1="17.5" y1="12" x2="0.999999" y2="5.5" gradientUnits="userSpaceOnUse">
<stop stop-color="#4781D1"/>
<stop offset="1" stop-color="#664FEA"/>
</linearGradient>
</defs>
</svg>
