<svg width="20" height="20" viewBox="0 0 20 20" fill="none" xmlns="http://www.w3.org/2000/svg">
<path fill-rule="evenodd" clip-rule="evenodd" d="M2 2C1.44772 2 1 2.44772 1 3V17C1 17.5523 1.44772 18 2 18C2.55228 18 3 17.5523 3 17V3C3 2.44772 2.55228 2 2 2Z" fill="#657077"/>
<path d="M18 9L8.36532 9L11.707 5.48679L10.2928 4L5.29282 9.2566C4.90229 9.66717 4.90229 10.3328 5.29282 10.7434L10.2928 16L11.707 14.5132L8.36532 11L18 11C18.5523 11 19 10.5523 19 10C19 9.44772 18.5523 9 18 9Z" fill="#657077"/>
</svg>
