<svg width="32" height="32" viewBox="0 0 32 32" fill="none" xmlns="http://www.w3.org/2000/svg">
<path d="M16 32C24.8366 32 32 24.8366 32 16C32 7.16344 24.8366 0 16 0C7.16344 0 0 7.16344 0 16C0 24.8366 7.16344 32 16 32Z" fill="#242424"/>
<mask id="mask0_1539_67556" style="mask-type:luminance" maskUnits="userSpaceOnUse" x="0" y="0" width="32" height="32">
<path d="M16 32C24.8366 32 32 24.8366 32 16C32 7.16344 24.8366 0 16 0C7.16344 0 0 7.16344 0 16C0 24.8366 7.16344 32 16 32Z" fill="white"/>
</mask>
<g mask="url(#mask0_1539_67556)">
<path fill-rule="evenodd" clip-rule="evenodd" d="M16.0001 6.22217C19.9273 6.22217 23.1112 9.40599 23.1112 13.3333C23.1112 17.2609 19.9273 20.4444 16.0001 20.4444C12.0728 20.4444 8.88894 17.2606 8.88894 13.3333C8.88894 9.40599 12.0728 6.22217 16.0001 6.22217ZM25.8284 35.5555H6.17141C4.29721 35.5555 2.77783 34.1376 2.77783 32.4103C2.77783 24.4837 6.64481 21.3888 10.7572 21.4907C12.1831 22.4046 13.9143 22.9416 15.7825 22.9416C17.7192 22.9416 19.5087 22.3646 20.963 21.3888C25.5425 21.3888 29.2223 24.4837 29.2223 32.4103C29.2223 34.1376 27.7029 35.5555 25.8284 35.5555Z" fill="#ADADAD"/>
</g>
</svg>
