<svg width="24" height="24" viewBox="0 0 24 24" fill="none" xmlns="http://www.w3.org/2000/svg">
<path d="M12 24C18.6274 24 24 18.6274 24 12C24 5.37258 18.6274 0 12 0C5.37258 0 0 5.37258 0 12C0 18.6274 5.37258 24 12 24Z" fill="#A3A9AE"/>
<path d="M12 0C18.6274 0 24 5.37258 24 12C24 14.9511 22.9321 17.6513 21.165 19.7412C20.1173 17.1347 18.0784 16.042 15.7217 16.042C14.6311 16.7736 13.2891 17.206 11.8369 17.2061C10.4358 17.2061 9.13676 16.8036 8.06738 16.1182C5.94688 16.0658 3.91232 17.1461 2.84863 19.7588C1.07299 17.6665 0 14.9591 0 12C0 5.37258 5.37258 0 12 0ZM12 4.66699C9.05454 4.66699 6.66699 7.05454 6.66699 10C6.66701 12.9454 9.05455 15.333 12 15.333C14.9454 15.333 17.333 12.9456 17.333 10C17.333 7.05456 14.9454 4.66704 12 4.66699Z" fill="white"/>
</svg>
