<svg width="12" height="12" viewBox="0 0 12 12" fill="none" xmlns="http://www.w3.org/2000/svg">
    <g clip-path="url(#clip0_2686_52182)">
        <path d="M4 1H8V11H4V1Z" fill="white"/>
        <path d="M6 0C9.31371 0 12 2.68629 12 6C12 9.31371 9.31371 12 6 12C2.68629 12 0 9.31371 0 6C0 2.68629 2.68629 0 6 0ZM6 8C5.44772 8 5 8.44771 5 9C5 9.55229 5.44772 10 6 10C6.55228 10 7 9.55229 7 9C7 8.44771 6.55228 8 6 8ZM6 2C5.44772 2 5 2.44772 5 3V6C5 6.55228 5.44772 7 6 7C6.55228 7 7 6.55228 7 6V3C7 2.44772 6.55228 2 6 2Z" fill="#F24724"/>
    </g>
    <defs>
        <clipPath id="clip0_2686_52182">
            <rect width="12" height="12" fill="white"/>
        </clipPath>
    </defs>
</svg>
