<svg width="12" height="12" viewBox="0 0 12 12" fill="none" xmlns="http://www.w3.org/2000/svg">
<g clip-path="url(#clip0_2629_52013)">
<path d="M6 0C9.31371 0 12 2.68629 12 6C12 9.31371 9.31371 12 6 12C2.68629 12 0 9.31371 0 6C0 2.68629 2.68629 0 6 0ZM6 8.0625C5.48319 8.0625 5.0625 8.48319 5.0625 9C5.06252 9.5168 5.4832 9.9375 6 9.9375C6.5168 9.9375 6.93748 9.5168 6.9375 9C6.9375 8.48319 6.51681 8.0625 6 8.0625ZM6 2.0625C5.48319 2.0625 5.06251 2.4832 5.0625 3V6.0625C5.0625 6.57931 5.48319 7 6 7C6.51681 7 6.9375 6.57931 6.9375 6.0625V3C6.93749 2.4832 6.51681 2.0625 6 2.0625Z" fill="#F24724"/>
</g>
<defs>
<clipPath id="clip0_2629_52013">
<rect width="12" height="12" fill="white"/>
</clipPath>
</defs>
</svg>
