<svg width="16" height="16" viewBox="0 0 16 16" fill="none" xmlns="http://www.w3.org/2000/svg">
<g clip-path="url(#clip0_460_8373)">
<path fill-rule="evenodd" clip-rule="evenodd" d="M8.00044 3.77091e-08C6.89618 -0.00021214 5.99905 0.894999 5.99948 2.00078L5.99978 2.76312C4.96153 3.68968 4.67866 5.24714 5.4019 6.49982C5.51596 6.69738 5.74004 6.9886 5.97786 7.28588C6.23515 7.60751 6.56747 8.00794 6.94525 8.45507C7.70162 9.35029 8.65535 10.4505 9.58864 11.5172C10.5226 12.5846 11.4389 13.6217 12.1215 14.3918C12.4629 14.7768 12.746 15.0953 12.9437 15.3175L13.1731 15.575L13.2335 15.6428L13.249 15.6602L13.253 15.6646L13.254 15.6657L13.2542 15.666C13.2543 15.6661 13.2543 15.6661 14.0003 15.0002L13.2543 15.6661C13.5305 15.9756 13.9691 16.0824 14.3567 15.9345C14.7443 15.7867 15.0003 15.415 15.0003 15.0002V11.0002C15.0003 10.8157 14.9493 10.6347 14.8528 10.4774L14.0003 11.0002C14.8528 10.4774 14.8528 10.4774 14.8528 10.4774L14.8526 10.4771L14.8521 10.4763L14.85 10.4729L14.8417 10.4593L14.8093 10.4064L14.6857 10.2049L14.2417 9.48024C13.8725 8.87757 13.3762 8.06694 12.8675 7.235C11.8441 5.56115 10.7873 3.8277 10.598 3.49982C10.435 3.2174 10.2322 2.97081 10.0006 2.76363V2C10.0006 0.894825 9.10411 0.000212288 8.00044 3.77091e-08ZM13.0003 11.2823V12.3672C12.4276 11.7194 11.7651 10.9675 11.0938 10.2002C10.1631 9.13642 9.2182 8.04634 8.47296 7.1643C8.09995 6.72281 7.7807 6.33788 7.53962 6.03652C7.4189 5.88562 7.32138 5.76015 7.24808 5.66163C7.2115 5.61246 7.18328 5.57312 7.16245 5.54286C7.14374 5.51567 7.1355 5.50232 7.13406 5.49999L7.13406 5.49998L7.13405 5.49997C7.13379 5.49955 7.13377 5.49951 7.13395 5.49982C6.85781 5.02153 7.02168 4.40994 7.49997 4.1338C7.65924 4.04184 7.83038 3.9993 7.99922 3.99949C8.17499 3.99969 8.34892 4.04633 8.5012 4.13412C8.64734 4.21837 8.77413 4.3407 8.866 4.49982C9.07178 4.85625 10.1491 6.62298 11.1612 8.27825C11.6702 9.11086 12.1669 9.92202 12.5363 10.525L12.9806 11.2501L13.0003 11.2823ZM4.53553 7.00005C4.29843 6.58939 4.14243 6.15415 4.06255 5.7129C3.76707 6.19738 3.44836 6.71914 3.13283 7.23523C2.62418 8.06717 2.12785 8.8778 1.75865 9.48047L1.31462 10.2051L1.19107 10.4066L1.15862 10.4596L1.15032 10.4731L1.14822 10.4765L1.1477 10.4774L1.14757 10.4776C1.14754 10.4776 1.14753 10.4777 2 11.0004L1.14753 10.4777C1.05106 10.635 1 10.8159 1 11.0004V15.0004C1 15.4152 1.25608 15.787 1.64364 15.9348C2.03121 16.0826 2.4698 15.9758 2.74602 15.6663L2 15.0004C2.74602 15.6663 2.74606 15.6663 2.74612 15.6662L2.74638 15.6659L2.74738 15.6648L2.75134 15.6604L2.76686 15.643L2.82725 15.5753L3.05661 15.3177C3.25438 15.0955 3.53745 14.7771 3.87882 14.392C4.56145 13.622 5.47776 12.5849 6.4117 11.5174C6.72107 11.1638 7.03268 10.8066 7.33861 10.4543C6.9254 9.97557 6.53237 9.5165 6.18105 9.10069L6.02539 8.91604C5.65948 9.33821 5.28185 9.77148 4.9065 10.2005C4.23521 10.9677 3.57271 11.7196 3 12.3675L3 11.2826L3.01978 11.2503L3.46408 10.5252C3.83346 9.92225 4.33013 9.11109 4.83918 8.27848L5.12152 7.81655C4.91184 7.55232 4.67738 7.24574 4.53553 7.00005Z" fill="#657077"/>
</g>
<defs>
<clipPath id="clip0_460_8373">
<rect width="16" height="16" fill="white"/>
</clipPath>
</defs>
</svg>
