<svg width="16" height="16" viewBox="0 0 16 16" fill="none" xmlns="http://www.w3.org/2000/svg">
<path fill-rule="evenodd" clip-rule="evenodd" d="M11.7071 0.292893C11.5196 0.105357 11.2652 0 11 0H5C3.89543 0 3 0.895431 3 2V5H5V2H10.5858L13 4.41421V14H5V11H3V14C3 15.1046 3.89543 16 5 16H13C14.1046 16 15 15.1046 15 14V4C15 3.73478 14.8946 3.48043 14.7071 3.29289L11.7071 0.292893ZM6.29289 5.70711L7.58579 7H1L1 9H7.58579L6.29289 10.2929L7.70711 11.7071L10.7071 8.70711C11.0976 8.31658 11.0976 7.68342 10.7071 7.29289L7.70711 4.29289L6.29289 5.70711Z" fill="#657077"/>
</svg>
