<svg width="16" height="16" viewBox="0 0 16 16" fill="none" xmlns="http://www.w3.org/2000/svg">
<g clip-path="url(#clip0_460_8104)">
<path fill-rule="evenodd" clip-rule="evenodd" d="M7.99986 7.99994C9.99986 7.99994 10.9999 5.18818 10.9999 2.96465C10.9994 1.32721 9.6719 3.27366e-05 8.03446 5.57118e-10H7.96456C6.32721 -3.13999e-05 4.99986 1.3273 4.99986 2.96465C4.99986 5.18818 5.99986 7.99994 7.99986 7.99994ZM1.07832 15.0055C1.34926 12.9127 2.3783 9 5.00004 9C5.18306 9 5.43306 9.13397 5.75004 9.30385C6.29908 9.59808 7.04908 10 8.00004 10C8.95069 10 9.70051 9.59815 10.2495 9.30392C10.5667 9.1339 10.8169 8.99982 11 9C13.6217 9.00252 14.6508 12.9133 14.9217 15.0055C14.9927 15.5532 14.5523 16 14 16H2.00004C1.44776 16 1.0074 15.5532 1.07832 15.0055Z" fill="#657077"/>
</g>
<defs>
<clipPath id="clip0_460_8104">
<rect width="16" height="16" fill="white"/>
</clipPath>
</defs>
</svg>
