<svg width="16" height="16" viewBox="0 0 16 16" fill="none" xmlns="http://www.w3.org/2000/svg">
<g clip-path="url(#clip0_924_24738)">
<path d="M15 9.5C15 9.65238 14.9336 9.87638 14.6524 10.1673C14.3665 10.463 13.9045 10.775 13.256 11.0587C11.9621 11.6248 10.1046 12 8 12C5.89543 12 4.03791 11.6248 2.74396 11.0587C2.09551 10.775 1.63353 10.463 1.34763 10.1673C1.06638 9.87638 1 9.65238 1 9.5C1 9.34762 1.06638 9.12362 1.34763 8.8327C1.63353 8.53698 2.09551 8.22498 2.74396 7.94128C4.03791 7.37518 5.89543 7 8 7C10.1046 7 11.9621 7.37518 13.256 7.94128C13.9045 8.22498 14.3665 8.53698 14.6524 8.8327C14.9336 9.12362 15 9.34762 15 9.5Z" stroke="#333333" stroke-width="2"/>
<path d="M2.09426 12.5C2.26966 12.6708 2.60177 12.905 3.14478 13.1426C4.28496 13.6414 5.99999 14 8 14C10 14 11.715 13.6414 12.8552 13.1426C13.3982 12.905 13.7303 12.6708 13.9057 12.5L14 12.3945V11L16 9.5V12.5C16 14.433 12.4183 16 8 16C3.58172 16 0 14.433 0 12.5L0 9.5L2 11V12.3945L2.09426 12.5Z" fill="#333333"/>
<circle cx="6" cy="2" r="2" fill="#333333"/>
<path fill-rule="evenodd" clip-rule="evenodd" d="M8.82929 3C8.93985 2.68722 9 2.35064 9 2C9 1.64936 8.93985 1.31278 8.82929 1L14 1C14.5523 1 15 1.44772 15 2C15 2.55228 14.5523 3 14 3L8.82929 3ZM3.17071 3L2 3C1.44772 3 1 2.55228 1 2C1 1.44772 1.44772 1 2 1L3.17071 1C3.06015 1.31278 3 1.64936 3 2C3 2.35064 3.06015 2.68722 3.17071 3Z" fill="#333333"/>
</g>
<defs>
<clipPath id="clip0_924_24738">
<rect width="16" height="16" fill="white"/>
</clipPath>
</defs>
</svg>
