<svg width="16" height="16" viewBox="0 0 16 16" fill="none" xmlns="http://www.w3.org/2000/svg">
<g clip-path="url(#clip0_309_1831)">
<path fill-rule="evenodd" clip-rule="evenodd" d="M8.84658 0.979492L5.22312 14.5025L7.15497 15.0201L10.7784 1.49713L8.84658 0.979492ZM2.41431 7.99916L5.20714 5.20614L3.79288 3.79197L0.29299 7.2921C-0.0975112 7.68263 -0.0974991 8.31578 0.293017 8.7063L3.7929 12.2062L5.20711 10.7919L2.41431 7.99916ZM13.5858 8.00004L10.7929 5.20714L12.2071 3.79292L15.7071 7.29293C15.8947 7.48047 16 7.73482 16 8.00004C16 8.26526 15.8947 8.51961 15.7071 8.70715L12.2067 12.2076L10.7925 10.7934L13.5858 8.00004Z" fill="#333333"/>
</g>
<defs>
<clipPath id="clip0_309_1831">
<rect width="16" height="16" fill="white"/>
</clipPath>
</defs>
</svg>
