<svg width="16" height="16" viewBox="0 0 16 16" fill="none" xmlns="http://www.w3.org/2000/svg">
<path d="M3 1C1.34315 1 0 2.34315 0 4V13C0 14.6569 1.34315 16 3 16H8V14H3C2.44772 14 2 13.5523 2 13V4C2 3.44772 2.44772 3 3 3H12C12.5523 3 13 3.44772 13 4V8H15V4C15 2.34315 13.6569 1 12 1H3Z" fill="#A3A9AE"/>
<path d="M10 9H9C8.44772 9 8 9.44771 8 10V11C8 10.4477 8.44772 10 9 10H10V9Z" fill="#A3A9AE"/>
<path d="M5 5C4.44772 5 4 5.44772 4 6V7C4 7.55228 4.44772 8 5 8H6C6.55228 8 7 7.55228 7 7V6C7 5.44772 6.55228 5 6 5H5Z" fill="#A3A9AE"/>
<path d="M4 10C4 9.44771 4.44772 9 5 9H6C6.55228 9 7 9.44772 7 10V11C7 11.5523 6.55228 12 6 12H5C4.44772 12 4 11.5523 4 11V10Z" fill="#A3A9AE"/>
<path d="M9 5C8.44772 5 8 5.44772 8 6V7C8 7.55228 8.44771 8 9 8H10C10.5523 8 11 7.55228 11 7V6C11 5.44772 10.5523 5 10 5H9Z" fill="#A3A9AE"/>
<path d="M16 12H14V10H12V12H10V14H12L12 16H14L14 14H16V12Z" fill="#A3A9AE"/>
</svg>
