<svg width="16" height="16" viewBox="0 0 16 16" fill="none" xmlns="http://www.w3.org/2000/svg">
<g clip-path="url(#clip0_924_24788)">
<path d="M2.09426 12.5C2.26966 12.6708 2.60177 12.905 3.14478 13.1426C4.28496 13.6414 5.99999 14 8 14C10 14 11.715 13.6414 12.8552 13.1426C13.3982 12.905 13.7303 12.6708 13.9057 12.5L14 12.3945V11L16 9.5V12.5C16 14.433 12.4183 16 8 16C3.58172 16 0 14.433 0 12.5L0 9.5L2 11V12.3945L2.09426 12.5Z" fill="#333333"/>
<path fill-rule="evenodd" clip-rule="evenodd" d="M3.59377 6.57837C1.42837 7.20469 0 8.27942 0 9.50011C0 11.4331 3.58172 13.0001 8 13.0001C12.4183 13.0001 16 11.4331 16 9.50011C16 8.27954 14.5719 7.2049 12.4069 6.57855L13.6215 7.79323L12.645 8.76978C12.7171 8.79851 12.7872 8.82778 12.8552 8.85755C13.3982 9.09512 13.7303 9.32927 13.9057 9.50011C13.7303 9.67096 13.3982 9.9051 12.8552 10.1427C11.715 10.6415 10 11.0001 8 11.0001C5.99999 11.0001 4.28496 10.6415 3.14478 10.1427C2.60177 9.9051 2.26966 9.67096 2.09426 9.50011C2.26966 9.32926 2.60177 9.09512 3.14478 8.85755C3.21293 8.82774 3.28314 8.79842 3.35533 8.76965L2.37891 7.79323L3.59377 6.57837ZM14.0262 9.3577C14.0263 9.35769 14.0255 9.35954 14.0233 9.36324C14.025 9.35955 14.026 9.3577 14.0262 9.3577ZM1.97384 9.3577C1.97396 9.3577 1.97505 9.35955 1.97671 9.36324C1.97454 9.35954 1.97371 9.35769 1.97384 9.3577ZM1.97384 9.64252C1.97371 9.64253 1.97454 9.64068 1.97671 9.63698C1.97505 9.64067 1.97396 9.64252 1.97384 9.64252ZM14.0233 9.63698C14.0255 9.64068 14.0263 9.64253 14.0262 9.64252C14.026 9.64252 14.025 9.64067 14.0233 9.63698Z" fill="#333333"/>
<path fill-rule="evenodd" clip-rule="evenodd" d="M6.58586 5.00008L3.79297 2.20718L5.20718 0.792969L8.00008 3.58586L10.793 0.792969L12.2072 2.20718L9.41429 5.00008L12.2072 7.79297L10.793 9.20718L8.00008 6.41429L5.20718 9.20718L3.79297 7.79297L6.58586 5.00008Z" fill="#333333"/>
</g>
<defs>
<clipPath id="clip0_924_24788">
<rect width="16" height="16" fill="white"/>
</clipPath>
</defs>
</svg>
