<svg width="42" height="42" viewBox="0 0 42 42" fill="none" xmlns="http://www.w3.org/2000/svg">
<rect width="42" height="42" rx="4" fill="#1BA8E1" fill-opacity="0.15"/>
<g clip-path="url(#clip0_1983_51323)">
<path d="M24.1641 14.8535C22.5769 13.9962 20.9216 12.145 20.9055 12.1264C20.822 12.0323 20.6953 11.9846 20.5715 12.0044C20.4463 12.0224 20.3394 12.1022 20.2852 12.2161C20.2771 12.234 19.4319 14.0079 18.1619 14.7385C14.9246 15.8723 12.75 18.8407 12.75 22.1252C12.75 26.4672 16.4509 30 21 30C25.5491 30 29.25 26.4672 29.25 22.1252C29.25 18.9315 27.2542 16.0795 24.1641 14.8535Z" fill="#1BA8E1"/>
<path opacity="0.2" d="M18.1619 14.926C19.4319 14.1954 20.2771 12.4215 20.2852 12.4036C20.3394 12.2897 20.4463 12.2099 20.5715 12.1919C20.6953 12.1721 20.822 12.2197 20.9055 12.3139C20.9216 12.3325 22.5769 14.1837 24.1641 15.041C27.219 16.2531 29.201 19.055 29.2458 22.2045C29.2461 22.1778 29.25 22.1519 29.25 22.1252C29.25 18.9315 27.2542 16.0795 24.1641 14.8535C22.5769 13.9962 20.9216 12.145 20.9055 12.1264C20.822 12.0323 20.6953 11.9846 20.5715 12.0044C20.4463 12.0224 20.3394 12.1022 20.2852 12.2161C20.2771 12.234 19.4319 14.0079 18.1619 14.7385C14.9246 15.8723 12.75 18.8407 12.75 22.1252C12.75 22.1529 12.754 22.1796 12.7543 22.2072C12.8006 18.965 14.9594 16.0475 18.1619 14.926Z" fill="white"/>
<path opacity="0.1" d="M21 29.8122C16.4799 29.8122 12.8011 26.3233 12.7543 22.0192C12.7538 22.0546 12.75 22.0893 12.75 22.1247C12.75 26.4669 16.4509 29.9997 21 29.9997C25.5491 29.9997 29.25 26.4669 29.25 22.1247C29.25 22.0884 29.2463 22.0528 29.2458 22.0166C29.2005 26.3219 25.521 29.8122 21 29.8122Z" fill="#010101"/>
<path d="M26.25 21C25.4949 21 25.0518 21.3596 24.3164 21.9551C24.0385 22.1801 23.7014 22.4516 23.279 22.7636C21.3807 20.9678 20.1963 20.25 19.125 20.25C16.8062 20.25 15.75 21.8049 15.75 23.25C15.75 24.9042 17.0955 26.25 18.75 26.25C20.145 26.25 22.3661 24.492 23.1963 23.7911C23.7535 24.4847 24.9811 25.875 25.875 25.875C27.0366 25.875 27.75 24.3461 27.75 23.25C27.75 21.2194 26.7012 21 26.25 21Z" fill="white"/>
<path d="M21.6773 26.8462C22.0457 26.3423 22.3694 26.25 22.8748 26.25C23.0154 26.25 23.1275 26.2896 23.1912 26.3613C23.2549 26.4327 23.2593 26.5203 23.2527 26.5811C23.2278 26.7869 23.3751 26.9733 23.5809 26.9974C23.5962 26.9993 23.6109 27 23.6255 27C23.813 27 23.9749 26.8597 23.9969 26.6689C24.0328 26.3672 23.9456 26.0808 23.7515 25.8629C23.5435 25.6289 23.2322 25.5 22.8748 25.5C22.2815 25.5 21.6524 25.6095 21.0723 26.4038C20.95 26.5708 20.9866 26.8055 21.1536 26.9279C21.3199 27.0498 21.555 27.0143 21.6773 26.8462Z" fill="white"/>
<path d="M23.8278 27.4163C22.8771 27.9078 20.8886 27.8305 20.0412 27.4134C19.8574 27.3233 19.6311 27.3965 19.5388 27.5837C19.4472 27.7693 19.5234 27.9942 19.7087 28.0857C20.2434 28.3498 21.1135 28.5029 21.9909 28.5029C22.7966 28.5029 23.6088 28.3736 24.1721 28.0828C24.3559 27.9876 24.4284 27.7616 24.3332 27.5774C24.238 27.3929 24.0102 27.3229 23.8278 27.4163Z" fill="white"/>
<path d="M24.1641 14.8535C22.5769 13.9962 20.9216 12.145 20.9055 12.1264C20.822 12.0323 20.6953 11.9846 20.5715 12.0044C20.4463 12.0224 20.3394 12.1022 20.2852 12.2161C20.2771 12.234 19.4319 14.0079 18.1619 14.7385C14.9246 15.8723 12.75 18.8407 12.75 22.1252C12.75 26.4672 16.4509 30 21 30C25.5491 30 29.25 26.4672 29.25 22.1252C29.25 18.9315 27.2542 16.0795 24.1641 14.8535Z" fill="url(#paint0_linear_1983_51323)"/>
</g>
<defs>
<linearGradient id="paint0_linear_1983_51323" x1="13.8234" y1="18.1659" x2="28.6519" y2="25.0806" gradientUnits="userSpaceOnUse">
<stop stop-color="white" stop-opacity="0.2"/>
<stop offset="1" stop-color="white" stop-opacity="0"/>
</linearGradient>
<clipPath id="clip0_1983_51323">
<rect width="18" height="18" fill="white" transform="translate(12 12)"/>
</clipPath>
</defs>
</svg>
