<svg width="100" height="100" viewBox="0 0 100 100" fill="none" xmlns="http://www.w3.org/2000/svg">
<g clip-path="url(#clip0_14263_108881)">
<path fill-rule="evenodd" clip-rule="evenodd" d="M50 73.7422C68.7272 73.7422 84 58.4694 84 39.7422C84 21.015 68.7272 5.74219 50 5.74219C31.2728 5.74219 16 21.015 16 39.7422C16 58.4694 31.2728 73.7422 50 73.7422Z" fill="#D9F4FF"/>
<path d="M80 24C74.3131 13.3124 62.9902 6 50 6C37.0098 6 25.6869 13.3124 20 24" stroke="#333333" stroke-linecap="round" stroke-linejoin="round"/>
<path fill-rule="evenodd" clip-rule="evenodd" d="M21.481 53.2793C23.3403 53.2793 25.0662 52.6563 26.5403 51.5789C27.1847 51.1099 27.7773 50.5455 28.3107 49.9152C29.2884 48.7499 30.0514 47.3353 30.5329 45.7596C30.8958 44.5576 31.0958 43.2603 31.0958 41.9044C31.0958 41.4353 31.0736 40.9663 31.0218 40.5119C28.8366 40.3213 21.3773 39.8889 18.9625 33.124C17.9551 35.572 16.9107 36.8253 12.3551 38.3278C12.044 39.4565 11.8662 40.6584 11.8662 41.9044C11.8662 42.6447 11.9255 43.3629 12.0366 44.0665C12.407 46.3239 13.3329 48.3468 14.6514 49.9152C15.2514 50.6335 15.9403 51.2565 16.681 51.7695C18.1032 52.7296 19.7403 53.2793 21.481 53.2793Z" fill="#FEFEFE"/>
<path fill-rule="evenodd" clip-rule="evenodd" d="M18.9626 33.124C21.3774 39.8889 28.8366 40.314 31.0218 40.5119C31.0663 40.9663 31.0959 41.4353 31.0959 41.9044C31.0959 43.253 30.8959 44.5576 30.5329 45.7596C37.1626 28.7192 21.3626 26.689 18.7403 30.0018C12.3922 29.9138 9.06626 37.6461 12.0514 44.0665C11.9403 43.3703 11.8811 42.6447 11.8811 41.9044C11.8811 40.6584 12.0514 39.4491 12.3626 38.3278C16.9107 36.8253 17.9552 35.572 18.9626 33.124Z" fill="#AAAAAA"/>
<path fill-rule="evenodd" clip-rule="evenodd" d="M31.3711 40.4751C31.3933 40.7169 31.4155 40.9515 31.423 41.1933L31.4378 41.5305C32.1563 38.0198 31.7118 35.3739 30.6378 33.439C29.8674 32.0465 28.7637 31.0204 27.5341 30.3168C26.297 29.6059 24.9415 29.2101 23.66 29.0708C21.5785 28.851 19.7267 29.3127 19.0081 30.2142L18.9044 30.3461H18.7341C17.6822 30.3315 16.7193 30.544 15.8526 30.9398C14.46 31.5774 13.3341 32.6915 12.5489 34.0767C11.7563 35.4839 11.3118 37.1696 11.2896 38.9359C11.2822 39.7495 11.3563 40.5777 11.5341 41.4132C11.5489 40.9515 11.5933 40.4971 11.6526 40.05C11.7341 39.427 11.86 38.826 12.023 38.2397L12.0748 38.0638L12.2526 38.0051C14.4822 37.2722 15.8452 36.5979 16.7637 35.821C17.6674 35.0588 18.1563 34.172 18.6378 32.9993L18.9859 32.1491L19.297 33.0139C21.5637 39.361 28.4822 39.9474 30.8452 40.1453L31.3489 40.1892L31.3711 40.4751ZM30.7267 41.23L30.7044 40.8342C28.26 40.629 21.6007 39.9987 18.9489 34.0327C18.5193 34.9342 18.0156 35.6744 17.2156 36.3487C16.2526 37.1623 14.86 37.8585 12.6452 38.5988C12.5118 39.0972 12.4081 39.6102 12.3415 40.1379C12.2674 40.7096 12.223 41.3033 12.223 41.9116C12.223 42.2707 12.2378 42.6225 12.2674 42.967C12.297 43.3261 12.3415 43.6779 12.3933 44.0151L12.8007 46.5143L11.7267 44.213C10.9267 42.4906 10.5637 40.673 10.5859 38.9286C10.6081 37.0377 11.0822 35.242 11.9341 33.7395C12.7859 32.2224 14.023 31.0057 15.5563 30.3095C16.46 29.899 17.4748 29.6645 18.5711 29.6572C19.4896 28.6604 21.5118 28.1547 23.7341 28.3819C25.1118 28.5285 26.5637 28.9536 27.8896 29.7158C29.2156 30.4854 30.4155 31.5921 31.2526 33.1092C32.7933 35.887 33.1267 40.0207 30.86 45.862L30.8526 45.8913L30.1859 45.6641C30.3637 45.0705 30.5044 44.4548 30.6007 43.8245C30.6896 43.2089 30.7415 42.5639 30.7415 41.9116C30.7489 41.6697 30.7415 41.4425 30.7267 41.23Z" fill="#333333"/>
<path fill-rule="evenodd" clip-rule="evenodd" d="M35.8445 59.04C35.1037 58.6516 34.326 58.2778 33.5926 57.9553C32.5556 57.4936 31.5926 57.1198 30.9185 56.8779C30.4074 57.8087 29.8889 58.593 29.3111 59.4798C28.9408 60.0368 28.6223 60.5279 28.3037 60.9823C28.0074 61.4074 27.7482 61.7518 27.5037 62.0084C27.2963 62.2282 27.1037 62.3895 26.9037 62.4921C26.726 62.5874 26.5408 62.6313 26.3408 62.624C26.2371 62.624 26.1334 62.602 26.0297 62.5727C25.926 62.5434 25.8223 62.4921 25.726 62.4261C25.6074 62.3528 25.4815 62.2576 25.3556 62.1476C25.2297 62.0377 25.0963 61.8984 24.9482 61.7372C24.7037 61.4733 24.4667 61.2022 24.2223 60.9383C24.163 60.8504 24.1037 60.7771 24.0371 60.6964C24.0963 60.7771 24.1556 60.865 24.2148 60.953L24.0223 61.3927C24.0074 61.422 23.9926 61.4587 23.9778 61.488L23.2148 63.2617C23.5408 63.9579 23.8148 64.7642 24.0445 65.651L24.4 67.322C24.5926 68.4214 24.7408 69.6014 24.8519 70.7594C24.9852 72.13 25.0741 73.5079 25.126 74.7172C25.1852 75.9412 25.2148 76.9819 25.2297 77.7295L25.2519 78.6017V79.5105C28.2889 79.2173 31.0148 78.7409 33.6148 77.964C34.563 77.6635 35 77.517 36.163 77.0845C38.1926 76.293 40.1704 75.2816 42.1926 73.9989L42.8963 73.5738L42.4741 70.6055C42.2223 69.1617 41.6445 66.7064 40.8148 64.5663C40.4593 63.7014 40.0445 62.8439 39.5556 61.9937C39.2815 61.5759 38.9926 61.2168 38.6815 60.9456C37.9704 60.3007 36.9704 59.6484 35.8445 59.04Z" fill="#EFEFEF"/>
<path fill-rule="evenodd" clip-rule="evenodd" d="M18.1631 74.702C18.2224 73.4268 18.3113 72.0635 18.4446 70.715C18.4816 70.3558 18.5187 70.004 18.5557 69.6449C18.6742 68.6335 18.8224 67.6294 19.0076 66.6912C19.252 65.4453 19.5705 64.3312 19.9631 63.503L20.1113 63.1952L19.615 62.1691L19.0372 60.9964C19.0076 61.0258 18.9853 61.0551 18.9557 61.0844C18.7631 61.3043 18.5631 61.5168 18.3705 61.7367C18.2298 61.8979 18.089 62.0372 17.9631 62.1471C17.8446 62.2571 17.7187 62.3523 17.6002 62.4256C17.4964 62.4843 17.3927 62.5356 17.289 62.5722C17.1927 62.6015 17.089 62.6235 16.9779 62.6235C16.7779 62.6308 16.5927 62.5869 16.415 62.4916C16.2224 62.389 16.0224 62.2277 15.815 62.0079C15.6298 61.81 15.4298 61.5535 15.2076 61.253C14.9853 60.9451 14.7483 60.6007 14.489 60.2122C13.7557 59.1128 13.0298 58.0354 12.3557 56.8994C9.40756 57.9108 6.29645 59.406 4.59274 60.9231C2.61497 62.6895 1.22978 68.1131 0.800152 70.583L0.37793 73.5514L1.08163 73.9764C3.10386 75.2591 5.08163 76.2705 7.11126 77.062C8.27423 77.4945 8.71126 77.641 9.65941 77.9415C12.2594 78.7184 14.9853 79.1948 18.015 79.488V78.5865C18.015 78.4619 18.0224 78.33 18.0224 78.1907L18.0372 77.7363C18.0372 77.6924 18.0372 77.6484 18.0372 77.6044C18.0742 76.7396 18.1113 75.7501 18.1631 74.702Z" fill="#EFEFEF"/>
<path fill-rule="evenodd" clip-rule="evenodd" d="M25.2669 79.5175V78.6086L25.2447 77.7365C25.2225 76.9962 25.1928 75.9481 25.141 74.7242C25.0817 73.5075 25.0002 72.137 24.8669 70.7664C24.7558 69.6084 24.6076 68.4284 24.4151 67.329L24.0595 65.658C23.8299 64.7711 23.5632 63.9649 23.2299 63.2686L24.2151 60.9526C21.2151 56.6797 21.9632 57.0608 19.0225 60.9819L19.6076 62.1693L20.1039 63.1953L19.9558 63.5032C19.5632 64.3314 19.2447 65.4527 19.0002 66.6914C18.8151 67.6295 18.6669 68.6336 18.5484 69.645C18.5114 69.9968 18.4669 70.356 18.4373 70.7151C18.3039 72.0637 18.2225 73.4269 18.1558 74.7022C18.1039 75.7503 18.0743 76.7397 18.0447 77.6045C18.0447 77.6485 18.0447 77.6925 18.0447 77.7365L18.0299 78.1909C18.0299 78.3301 18.0225 78.4621 18.0225 78.5867V79.4882C18.0299 79.4882 18.0373 79.4882 18.0447 79.4882C18.2225 79.5028 18.4002 79.5248 18.578 79.5395C20.6447 79.7154 22.9262 79.7154 25.2669 79.5175Z" fill="#D9F4FF"/>
<path fill-rule="evenodd" clip-rule="evenodd" d="M12.4667 57.2221C10.9333 57.7498 9.35556 58.4095 7.96296 59.1351C6.71852 59.78 5.61482 60.4836 4.82963 61.1799C4.06667 61.8542 3.38519 63.1368 2.82222 64.5806C1.98519 66.7134 1.4 69.1907 1.14815 70.6346L0.762963 73.3684L1.28148 73.6762C2.28148 74.3138 3.27407 74.8782 4.26667 75.3839C5.25926 75.8896 6.24444 76.3367 7.25185 76.7251C7.82963 76.9377 8.22963 77.0843 8.59259 77.2089C8.97778 77.3408 9.31852 77.4507 9.77037 77.5973C11.0593 77.9784 12.3852 78.2936 13.7556 78.5428C15.0148 78.77 16.3185 78.9532 17.6741 79.0851C17.6741 78.125 17.7185 77.1576 17.7481 76.1974C17.763 75.7064 17.7852 75.1933 17.8148 74.673C17.8444 74.0207 17.8815 73.3537 17.9259 72.7014C17.9704 72.0491 18.0222 71.3675 18.0889 70.6712L18.2 69.5938C18.2593 69.0588 18.3333 68.5384 18.4074 68.0327C18.4815 67.549 18.563 67.0726 18.6519 66.6108C18.7852 65.9585 18.9333 65.3356 19.1037 64.7712C19.2593 64.2435 19.4444 63.7598 19.637 63.342L19.7111 63.1808L19.2889 62.3013L18.6148 60.9234L18.7407 60.7548C19.1704 60.1758 19.5111 59.6921 19.8 59.289C20.6148 58.1383 21.037 57.53 21.6296 57.53C22.2667 57.5226 22.7778 58.2556 23.8519 59.8093L24.6074 60.8941L23.6 63.2467C23.7407 63.5619 23.8741 63.8917 23.9926 64.2435C24.1333 64.6613 24.2667 65.101 24.3852 65.5628L24.7481 67.2558C24.837 67.7835 24.9259 68.3405 25 68.9122C25.0815 69.5132 25.1481 70.1142 25.2074 70.7225C25.2741 71.4335 25.3333 72.1151 25.3778 72.7747C25.4222 73.427 25.4593 74.0793 25.4889 74.7023C25.5185 75.3033 25.5407 75.8749 25.5556 76.388L25.5926 77.7146C25.6074 78.4255 25.6148 79.1145 25.6148 79.8254L25.2889 79.8547C24.1185 79.95 22.9556 80.0013 21.8148 80.0013C20.6889 80.0013 19.5926 79.9573 18.5407 79.8694C18.2519 79.8474 17.9704 79.8181 17.6889 79.7961V79.7887C16.2741 79.6495 14.9185 79.4589 13.6222 79.2244C12.2148 78.9679 10.8667 78.6527 9.56296 78.2643H9.55556C9.06667 78.1104 8.71111 77.9931 8.34815 77.8685C7.97037 77.7366 7.56296 77.59 6.98519 77.3774C5.96296 76.9817 4.94815 76.5199 3.93333 76.0069C2.91852 75.4865 1.91111 74.9075 0.888889 74.2625L0 73.7275C0.148148 72.6648 0.325926 71.5874 0.451852 70.5246C0.711111 69.0515 1.3037 66.5229 2.16296 64.3388C2.76296 62.807 3.5037 61.4291 4.35556 60.6742C5.18519 59.9339 6.33333 59.201 7.63704 58.5267C9.06667 57.7865 10.6741 57.1122 12.237 56.5772L12.4667 57.2221ZM18.3778 79.1658L18.6074 79.1877C19.637 79.283 20.7111 79.327 21.8222 79.3197C22.8222 79.3197 23.8593 79.2757 24.9185 79.1951V78.6087L24.9037 77.7439L24.8667 76.4173C24.8519 75.9189 24.8296 75.3619 24.8 74.7389C24.7704 74.1453 24.7333 73.5003 24.6889 72.826C24.6444 72.1444 24.5852 71.4628 24.5259 70.7958C24.4667 70.2021 24.4 69.6012 24.3259 69.0148C24.2519 68.4725 24.1704 67.9301 24.0741 67.3877L23.7185 65.746C23.6074 65.3062 23.4815 64.8811 23.3407 64.4854C23.2074 64.1043 23.0667 63.7451 22.9111 63.4153L22.8444 63.2761L23.8222 60.9967L23.2815 60.2198C22.3556 58.8785 21.9111 58.2409 21.6444 58.2482C21.4222 58.2482 21.0593 58.7539 20.3852 59.7141C20.1185 60.0952 19.8074 60.5349 19.437 61.0333L19.9259 62.0301L20.4963 63.2101L20.2815 63.6645C20.0963 64.0456 19.9333 64.5 19.7852 64.9984C19.6222 65.5408 19.4815 66.1418 19.3482 66.7721C19.2593 67.2192 19.1778 67.6882 19.1037 68.1646C19.0222 68.6777 18.9556 69.1907 18.8963 69.7038L18.7852 70.7665C18.7259 71.4188 18.6667 72.0931 18.6222 72.7747C18.5778 73.4563 18.5407 74.1086 18.5111 74.7316C18.4889 75.2593 18.4667 75.7723 18.4444 76.2487C18.4148 77.2162 18.3778 78.191 18.3778 79.1658ZM41.1407 66.4349C40.8963 65.6727 40.6074 64.9105 40.2667 64.1482C39.9333 63.3933 39.5407 62.6457 39.0963 61.8982C38.6889 61.2165 37.6296 60.4543 36.363 59.7287C34.4519 58.6367 32.0963 57.6692 30.7926 57.2075L31.0296 56.5552C32.3556 57.0242 34.7556 58.0137 36.7185 59.1351C38.0741 59.9119 39.2296 60.7548 39.7037 61.5464C40.163 62.3159 40.563 63.0928 40.9111 63.8697C41.2519 64.6393 41.5481 65.4308 41.8074 66.2297L41.1407 66.4349Z" fill="#333333"/>
<path fill-rule="evenodd" clip-rule="evenodd" d="M74.7334 79.5175V78.6086L74.7556 77.7365C74.7778 76.9962 74.8075 75.9481 74.8593 74.7242C74.9186 73.5075 75.0001 72.137 75.1334 70.7664C75.2445 69.6084 75.3927 68.4284 75.5853 67.329L75.9408 65.658C76.1704 64.7711 76.4371 63.9649 76.7704 63.2686L75.7778 60.9526C78.7778 56.6797 78.0297 57.0608 80.9704 60.9819L80.3927 62.1693L79.8964 63.1953L80.0371 63.5032C80.4297 64.3314 80.7482 65.4527 80.9927 66.6914C81.1778 67.6295 81.326 68.6336 81.4445 69.645C81.489 69.9968 81.526 70.356 81.5556 70.7151C81.6815 72.0637 81.7704 73.4269 81.8371 74.7022C81.889 75.7503 81.9186 76.7397 81.9482 77.6045C81.9482 77.6485 81.9482 77.6925 81.9482 77.7365L81.963 78.1909C81.963 78.3301 81.9704 78.4621 81.9704 78.5867V79.4882C81.963 79.4882 81.9556 79.4882 81.9556 79.4882C81.7778 79.5028 81.6001 79.5248 81.4223 79.5395C79.3482 79.7154 77.0741 79.7154 74.7334 79.5175Z" fill="#D9F4FF"/>
<path fill-rule="evenodd" clip-rule="evenodd" d="M64.1558 59.04C64.8965 58.6516 65.6743 58.2778 66.4076 57.9553C67.4447 57.4936 68.4076 57.1198 69.0817 56.8779C69.5928 57.8087 70.1039 58.593 70.6891 59.4798C71.0595 60.0368 71.378 60.5279 71.6965 60.9823C71.9928 61.4074 72.2521 61.7518 72.4965 62.0084C72.7039 62.2282 72.8965 62.3895 73.0965 62.4921C73.2743 62.5874 73.4595 62.6313 73.6595 62.624C73.7632 62.624 73.8669 62.602 73.9706 62.5727C74.0743 62.5434 74.178 62.4921 74.2743 62.4261C74.3928 62.3528 74.5187 62.2576 74.6447 62.1476C74.7706 62.0377 74.9039 61.8984 75.0521 61.7372C75.2965 61.4733 75.5336 61.2022 75.778 60.9383C75.8373 60.8504 75.8965 60.7771 75.9632 60.6964C75.9039 60.7771 75.8447 60.865 75.7854 60.953L75.978 61.3927C75.9928 61.422 76.0076 61.4587 76.0224 61.488L76.7854 63.2617C76.4595 63.9579 76.1854 64.7642 75.9558 65.651L75.6002 67.322C75.4076 68.4214 75.2595 69.6014 75.1484 70.7594C75.015 72.13 74.9261 73.5079 74.8743 74.7172C74.815 75.9412 74.7854 76.9819 74.7706 77.7295L74.7484 78.6017V79.5105C71.7113 79.2173 68.9854 78.7409 66.3928 77.964C65.4447 77.6635 65.0076 77.517 63.8447 77.0845C61.815 76.293 59.8373 75.2816 57.815 73.9989L57.1113 73.5738L57.5336 70.6055C57.7854 69.1617 58.3632 66.7064 59.1928 64.5663C59.5484 63.7014 59.9632 62.8439 60.4521 61.9937C60.7261 61.5759 61.015 61.2168 61.3261 60.9456C62.0298 60.3007 63.0224 59.6484 64.1558 59.04Z" fill="#EFEFEF"/>
<path fill-rule="evenodd" clip-rule="evenodd" d="M81.8372 74.702C81.778 73.4268 81.6891 72.0635 81.5557 70.715C81.5187 70.3558 81.4817 70.004 81.4446 69.6449C81.3261 68.6335 81.178 67.6294 80.9928 66.6912C80.7483 65.4453 80.4298 64.3312 80.0372 63.503L79.8965 63.1952L80.3928 62.1691L80.9706 60.9964C81.0002 61.0258 81.0224 61.0551 81.052 61.0844C81.2446 61.3043 81.4446 61.5168 81.6372 61.7367C81.778 61.8979 81.9187 62.0372 82.0446 62.1471C82.1706 62.2571 82.2891 62.3523 82.4076 62.4256C82.5113 62.4843 82.615 62.5356 82.7187 62.5722C82.815 62.6015 82.9187 62.6235 83.0298 62.6235C83.2298 62.6308 83.415 62.5869 83.5928 62.4916C83.7854 62.389 83.9854 62.2277 84.1928 62.0079C84.378 61.81 84.578 61.5535 84.8002 61.253C85.0224 60.9451 85.2594 60.6007 85.5187 60.2122C86.2446 59.1128 86.9706 58.0354 87.652 56.8994C90.6002 57.9108 93.7113 59.4133 95.415 60.9305C97.3928 62.6968 98.778 68.1204 99.2076 70.5904L99.6298 73.5587L98.9261 73.9838C96.9039 75.2664 94.9261 76.2778 92.8965 77.0694C91.7335 77.5018 91.2965 77.6484 90.3483 77.9489C87.7483 78.7258 85.0224 79.2022 81.9928 79.4953V78.5938C81.9928 78.4692 81.9854 78.3373 81.9854 78.1981L81.9706 77.7437C81.9706 77.6997 81.9706 77.6557 81.9706 77.6117C81.9187 76.7396 81.8891 75.7501 81.8372 74.702Z" fill="#EFEFEF"/>
<path fill-rule="evenodd" clip-rule="evenodd" d="M16.2588 55.8154C18.4958 58.1241 24.9106 58.0435 27.0366 55.8154C26.5847 54.4961 26.5551 53.1256 26.5403 51.755C26.5403 51.7477 26.5403 51.6524 26.5403 51.5791C25.0736 52.6565 23.3403 53.2795 21.481 53.2795C19.7329 53.2795 18.0958 52.7298 16.6884 51.7697C16.6884 51.821 16.6884 51.8649 16.6884 51.8649C16.6218 53.2282 16.5625 54.5987 16.2588 55.8154Z" fill="#FEFEFE"/>
<path fill-rule="evenodd" clip-rule="evenodd" d="M12.3555 56.8928C13.037 58.0288 13.7629 59.1062 14.4888 60.2056C14.7481 60.5941 14.9851 60.9459 15.2073 61.2537C15.4295 61.5542 15.6295 61.8034 15.8147 62.0086C16.0221 62.2285 16.2221 62.3897 16.4147 62.4923C16.5925 62.5876 16.7777 62.6316 16.9777 62.6243C17.0814 62.6243 17.1851 62.6023 17.2888 62.5729C17.3925 62.5363 17.4962 62.4923 17.5999 62.4264C17.7184 62.3531 17.8444 62.2578 17.9629 62.1479C18.0888 62.0306 18.2295 61.8913 18.3703 61.7374C18.5629 61.5175 18.7629 61.305 18.9555 61.0851C18.9851 61.0558 19.0073 61.0265 19.037 60.9972L19.0295 60.9825C20.2073 59.4141 20.7925 58.4173 21.2592 58.0508C21.311 57.9775 21.3629 57.9043 21.4147 57.8383H21.9481C22.0666 57.9922 22.1777 58.1315 22.274 58.278C22.674 58.7105 23.1999 59.502 24.037 60.6967C24.1036 60.7773 24.1629 60.8506 24.2221 60.9385C24.4666 61.2024 24.7036 61.4736 24.9481 61.7374C25.0962 61.8987 25.2295 62.0379 25.3555 62.1479C25.4814 62.2578 25.5999 62.3531 25.7258 62.4264C25.8295 62.485 25.9332 62.5363 26.0295 62.5729C26.1258 62.6023 26.2295 62.6243 26.3407 62.6243C26.5407 62.6316 26.7258 62.5876 26.9036 62.4923C27.1036 62.3897 27.2962 62.2285 27.5036 62.0086C27.7407 61.7521 28.0073 61.4076 28.3036 60.9825C28.6221 60.5281 28.9407 60.0444 29.311 59.48C29.8962 58.5932 30.4147 57.809 30.9184 56.8782C30.8295 56.8488 30.7332 56.8122 30.6444 56.7829C30.4518 56.7169 30.2666 56.651 30.0814 56.5923C30.0444 56.5777 30.0073 56.5703 29.9703 56.5557C29.3999 56.3724 28.8518 56.2112 28.3629 56.0866C27.8814 55.9693 27.4369 55.8741 27.0444 55.8154C24.9184 58.0435 18.5036 58.1241 16.2666 55.8154C15.874 55.8741 15.4295 55.9693 14.9481 56.0866C14.4518 56.2112 13.911 56.3724 13.3407 56.5557C13.0073 56.6656 12.6814 56.7829 12.3555 56.8928Z" fill="#FEFEFE"/>
<path fill-rule="evenodd" clip-rule="evenodd" d="M31.0519 56.5996C32.6148 57.1346 34.2223 57.8089 35.6519 58.5492C36.9556 59.2235 38.1037 59.9564 38.9334 60.6966C39.7852 61.4589 40.526 62.8294 41.126 64.3686C41.9852 66.56 42.5778 69.0812 42.8371 70.5617C42.963 71.6245 43.1408 72.7019 43.2963 73.7646L42.4 74.2996C41.3852 74.9446 40.3704 75.5236 39.3556 76.044C38.3408 76.5643 37.326 77.0188 36.3111 77.4145H36.3037C35.7185 77.6271 35.3185 77.7737 34.9408 77.9056C34.5704 78.0302 34.2148 78.1475 33.7334 78.3014H33.726C32.4148 78.6898 31.0667 79.0123 29.6667 79.2688C28.2667 79.5253 26.8148 79.7159 25.2815 79.8625L25.2148 79.1735C26.726 79.027 28.1556 78.8364 29.5334 78.5872C30.9037 78.338 32.2297 78.0229 33.5185 77.6417C33.9852 77.4952 34.326 77.3852 34.7037 77.2533C35.0741 77.1287 35.4667 76.9821 36.0445 76.7696C37.0519 76.3738 38.0445 75.9267 39.0297 75.4283C40.0223 74.9226 41.0074 74.3509 42.0148 73.7133L42.5334 73.4055L42.1408 70.6717C41.8889 69.2205 41.3037 66.7506 40.4667 64.6104C39.9037 63.1666 39.2222 61.884 38.4593 61.2097C37.6741 60.5061 36.5704 59.8098 35.3185 59.1648C33.926 58.4392 32.3482 57.7796 30.8148 57.2519L31.0519 56.5996Z" fill="#333333"/>
<path fill-rule="evenodd" clip-rule="evenodd" d="M16.133 56.189C15.9922 56.211 15.8515 56.2403 15.7033 56.2696C15.4811 56.3136 15.2515 56.3722 15.0219 56.4308C14.77 56.4968 14.5182 56.5628 14.2663 56.6361C14.007 56.7094 13.733 56.7973 13.4367 56.8926L12.8737 57.0831C13.3922 57.9333 13.9478 58.7615 14.5033 59.5971L15.1552 60.5645C15.2589 60.7184 15.37 60.8797 15.4959 61.0482C15.607 61.1948 15.7033 61.3341 15.7996 61.4513C15.8959 61.5686 15.9848 61.6786 16.0737 61.7665C16.1626 61.8618 16.2515 61.9497 16.3478 62.023C16.4293 62.089 16.5033 62.1403 16.5774 62.1843C16.6367 62.2136 16.7033 62.2429 16.77 62.2576C16.8367 62.2722 16.9033 62.2795 16.97 62.2795L17.0737 62.2722L17.1774 62.2502L17.2959 62.1989C17.333 62.1843 17.37 62.1623 17.4145 62.133C17.4663 62.1036 17.5182 62.067 17.5626 62.0304C17.6219 61.9864 17.6737 61.9424 17.7256 61.8984L17.9107 61.7225C17.9774 61.6566 18.0441 61.5833 18.1033 61.5173C18.3922 61.1948 18.6811 60.8723 18.97 60.5572C19.3107 60.1834 19.6367 59.8243 19.9478 59.4212C20.1552 59.15 20.3404 58.8568 20.5182 58.5636C20.6589 58.3291 20.7996 58.0946 20.97 57.8674C19.0663 57.7428 17.2219 57.2004 16.133 56.189ZM15.5626 55.588C15.7922 55.5367 16.007 55.5 16.207 55.4707L16.3848 55.4414L16.6219 55.6759C17.7033 56.6874 19.6959 57.1711 21.6885 57.1638C23.6811 57.1564 25.6515 56.6507 26.6737 55.6759L26.9033 55.4414L27.0811 55.4707C27.2737 55.5 27.4885 55.5367 27.7182 55.5807C27.9626 55.632 28.1996 55.6833 28.4367 55.7419C28.7033 55.8079 28.97 55.8812 29.2367 55.9618C29.5107 56.0424 29.7922 56.1303 30.0663 56.2183C30.5107 56.3429 30.9774 56.5261 31.4219 56.68L31.2293 57.0392C30.9774 57.5009 30.7182 57.9407 30.4441 58.3731C30.1552 58.8348 29.8885 59.2379 29.607 59.663L29.0811 60.4546C28.9182 60.6964 28.7626 60.931 28.5922 61.1728C28.4441 61.3854 28.3033 61.5759 28.1552 61.7592C28.0219 61.9351 27.8885 62.089 27.7552 62.2282C27.6441 62.3455 27.533 62.4554 27.4219 62.5434C27.3108 62.6387 27.1922 62.7193 27.0663 62.7853C26.9478 62.8439 26.8293 62.8879 26.7108 62.9172C26.5922 62.9465 26.4663 62.9612 26.333 62.9538C26.2663 62.9538 26.1922 62.9465 26.133 62.9318C26.0663 62.9245 25.9996 62.9025 25.933 62.8805H25.9256C25.8589 62.8586 25.7922 62.8292 25.7256 62.7999C25.6663 62.7706 25.5996 62.7413 25.5404 62.6973C25.4737 62.6533 25.3996 62.602 25.333 62.5507C25.2663 62.4994 25.1922 62.4408 25.1256 62.3822C25.0589 62.3235 24.9922 62.2576 24.9108 62.1769L24.6885 61.9424C24.4811 61.7079 24.1108 61.3561 23.933 61.1069C23.8219 60.9456 23.6885 60.799 23.5626 60.6525C23.4219 60.4912 23.2811 60.33 23.1478 60.1394C22.8811 59.7876 22.6589 59.4578 22.4441 59.128C22.2367 58.8055 22.0219 58.4904 21.77 58.1532H21.5848C21.4145 58.3877 21.2663 58.6296 21.1182 58.8788C20.933 59.1866 20.7404 59.4945 20.5033 59.8023C20.1848 60.22 19.8441 60.5938 19.4811 60.9823L18.6219 61.9351C18.5478 62.023 18.4737 62.0963 18.3996 62.1696L18.1848 62.3748C18.1107 62.4408 18.0441 62.4921 17.9774 62.5434C17.9033 62.602 17.8367 62.646 17.7626 62.69C17.7033 62.7266 17.6441 62.7559 17.5774 62.7853C17.5182 62.8146 17.4515 62.8439 17.3848 62.8659H17.37C17.3033 62.8879 17.2367 62.9025 17.17 62.9172C17.1107 62.9245 17.0367 62.9318 16.97 62.9392C16.8367 62.9392 16.7107 62.9318 16.5922 62.9025C16.4737 62.8732 16.3552 62.8292 16.2367 62.7706C16.1182 62.7046 15.9996 62.6314 15.8811 62.5361C15.7774 62.4481 15.6663 62.3455 15.5478 62.2136C15.4441 62.111 15.3404 61.9864 15.2367 61.8545C15.133 61.7225 15.0219 61.5759 14.9107 61.4294C14.8145 61.2974 14.6959 61.1215 14.5626 60.931L14.1848 60.374L13.9033 59.9489C13.2663 58.9887 12.6367 58.0433 12.0367 57.0465L11.8145 56.68C12.2737 56.5188 12.7552 56.3722 13.1996 56.2036C13.4811 56.1157 13.7626 56.0277 14.0515 55.9398C14.333 55.8592 14.5922 55.7859 14.8367 55.7272C15.1033 55.6906 15.3404 55.632 15.5626 55.588ZM22.3922 57.8454C22.6367 58.1752 22.8367 58.4757 23.0367 58.7835C23.2441 59.0913 23.4441 59.4065 23.7107 59.7583L23.7182 59.7656C23.8293 59.9269 23.9626 60.0808 24.0959 60.2274C24.2367 60.3886 24.37 60.5425 24.5033 60.7258L25.207 61.5027L25.407 61.7225C25.4663 61.7812 25.5256 61.8398 25.5774 61.8911C25.6367 61.9424 25.6885 61.9864 25.7404 62.0304C25.7922 62.0743 25.8441 62.1036 25.8959 62.1403L26.0145 62.2063C26.0515 62.2209 26.0885 62.2429 26.1256 62.2502L26.2367 62.2722L26.3404 62.2795C26.407 62.2795 26.4737 62.2722 26.5404 62.2576C26.607 62.2429 26.6663 62.2209 26.733 62.1843C26.807 62.1476 26.8885 62.089 26.97 62.023C27.0515 61.9571 27.1478 61.8691 27.2367 61.7665C27.3478 61.6492 27.4663 61.51 27.5922 61.3414C27.7182 61.1802 27.8515 60.9969 27.9996 60.7844C28.1478 60.5718 28.3108 60.3373 28.4811 60.0808L28.9996 59.2892C29.3033 58.8275 29.5848 58.4024 29.8293 58.014C30.0219 57.7061 30.207 57.3983 30.3922 57.0685L29.9626 56.9219L29.8367 56.8853C29.5478 56.79 29.2737 56.7094 29.0219 56.6361C28.7478 56.5554 28.4885 56.4821 28.2515 56.4235C27.9996 56.3649 27.77 56.3062 27.5626 56.2623C27.4145 56.233 27.2811 56.2036 27.1404 56.1817C26.1182 57.1638 24.2959 57.7281 22.3922 57.8454Z" fill="#333333"/>
<path fill-rule="evenodd" clip-rule="evenodd" d="M87.7559 56.5698C89.3189 57.1049 90.9263 57.7792 92.3559 58.5194C93.6596 59.1937 94.8078 59.9266 95.6374 60.6669C96.4893 61.4218 97.2226 62.7997 97.83 64.3388C98.6893 66.5229 99.2818 69.0515 99.5411 70.5246C99.667 71.5874 99.8448 72.6648 100 73.7275L99.1041 74.2699C98.0818 74.9148 97.0744 75.4938 96.0596 76.0142C95.0448 76.5346 94.0374 76.989 93.0078 77.3848C92.43 77.5973 92.0226 77.7439 91.6448 77.8758C91.2818 78.0004 90.9337 78.1104 90.4374 78.2716H90.43C89.1189 78.66 87.7707 78.9825 86.3707 79.2317C85.0744 79.4663 83.7189 79.6495 82.3041 79.7961V79.8034L81.4522 79.884C80.4004 79.972 79.3041 80.0233 78.1781 80.016C77.0374 80.016 75.8744 79.9646 74.7041 79.8694L74.3781 79.8401C74.3781 79.1291 74.3855 78.4402 74.4004 77.7292L74.4374 76.3953C74.4522 75.8823 74.4744 75.3106 74.5041 74.7096C74.5337 74.0866 74.5707 73.4343 74.6152 72.782C74.6596 72.1297 74.7115 71.4408 74.7855 70.7299C74.8448 70.1289 74.9115 69.5205 74.993 68.9195C75.067 68.3479 75.1559 67.7908 75.2448 67.2631L75.6078 65.5701C75.7263 65.1157 75.8522 64.6686 76.0004 64.2508C76.1189 63.899 76.2522 63.5692 76.393 63.2541L75.3855 60.9014L76.1411 59.8167C77.2152 58.2702 77.7189 57.5373 78.3633 57.5373C78.9559 57.5373 79.3855 58.1456 80.193 59.2963C80.4818 59.7067 80.8226 60.1905 81.2522 60.7621L81.3781 60.9307L80.7041 62.3086L80.2744 63.1881L80.3485 63.342C80.5559 63.7744 80.7411 64.2728 80.9041 64.8299C81.067 65.3869 81.2078 65.9879 81.3337 66.6108C81.4226 67.0726 81.5041 67.549 81.5781 68.0327C81.6522 68.5384 81.7263 69.0661 81.7855 69.5938L81.8967 70.6712C81.9633 71.3675 82.0152 72.0491 82.0596 72.7014C82.1041 73.361 82.1411 74.0207 82.1707 74.673C82.193 75.186 82.2152 75.6991 82.2374 76.1974C82.267 77.1576 82.3115 78.125 82.3115 79.0851C83.6744 78.9459 84.9707 78.77 86.23 78.5428C87.6004 78.2936 88.9263 77.9784 90.2152 77.5973C90.667 77.4507 91.0078 77.3408 91.393 77.2089C91.7559 77.0843 92.1559 76.9377 92.7337 76.7251C93.7337 76.3367 94.7263 75.8896 95.7189 75.3839C96.7115 74.8782 97.7041 74.3065 98.7041 73.6762L99.2226 73.361L98.83 70.6272C98.5781 69.1761 97.993 66.7061 97.1559 64.5733C96.593 63.1295 95.9115 61.8469 95.1485 61.1726C94.3633 60.469 93.2596 59.7727 92.0152 59.1277C90.6226 58.4021 89.0448 57.7425 87.5115 57.2148L87.7559 56.5698ZM81.6004 79.1658H81.6226C81.6226 78.6894 81.6152 78.2276 81.6004 77.7586C81.593 77.6999 81.593 77.656 81.593 77.6046L81.5485 76.2341C81.5337 75.7577 81.5115 75.252 81.4818 74.7169C81.4522 74.094 81.4152 73.4417 81.3707 72.76C81.3263 72.0784 81.2744 71.3968 81.2078 70.7518L81.0967 69.6891C81.0374 69.1761 80.9707 68.663 80.8892 68.15C80.8152 67.6736 80.7337 67.2118 80.6448 66.7574C80.5189 66.1344 80.3855 65.5554 80.23 65.0351C80.0744 64.5147 79.9041 64.0456 79.7115 63.6498L79.4967 63.1954L80.067 62.0228L80.5559 61.026C80.193 60.5349 79.8744 60.0879 79.6078 59.7067C78.9337 58.7466 78.5707 58.2409 78.3485 58.2409C78.0818 58.2409 77.6374 58.8712 76.7115 60.2125L76.1707 60.9894L77.1485 63.2687L77.0818 63.408C76.9263 63.7378 76.7855 64.0969 76.6522 64.478C76.5189 64.8738 76.393 65.2989 76.2744 65.7387L75.9189 67.3804C75.8226 67.9228 75.7411 68.4651 75.667 69.0075C75.593 69.6012 75.5263 70.1948 75.467 70.7885C75.4004 71.4481 75.3485 72.1371 75.3041 72.8187C75.2596 73.493 75.2226 74.1379 75.193 74.7316C75.1633 75.3473 75.1411 75.9116 75.1263 76.41L75.0893 77.7366L75.067 78.6014V79.1878C76.1263 79.2684 77.1633 79.3124 78.1633 79.3124C79.2744 79.3124 80.3485 79.2684 81.3781 79.1804L81.6004 79.1658ZM58.1855 66.2224C58.4448 65.4235 58.7411 64.6393 59.0818 63.8624C59.43 63.0855 59.8226 62.3159 60.2892 61.539C60.7633 60.7402 61.9189 59.8973 63.2744 59.1204C65.2374 57.999 67.6374 57.0096 68.9633 56.5405L69.2004 57.1928C67.8892 57.6546 65.5337 58.6293 63.63 59.7141C62.3633 60.4323 61.3041 61.2019 60.8967 61.8835C60.4522 62.6238 60.067 63.3787 59.7263 64.1336C59.3855 64.8958 59.0967 65.658 58.8522 66.4203L58.1855 66.2224Z" fill="#333333"/>
<path fill-rule="evenodd" clip-rule="evenodd" d="M69.1778 57.2519C67.6444 57.7796 66.0667 58.4392 64.6741 59.1648C63.4222 59.8098 62.3259 60.5134 61.5333 61.2097C60.7704 61.8913 60.0889 63.1739 59.5259 64.6104C58.6889 66.7432 58.1037 69.2205 57.8518 70.6643L57.4593 73.3981L57.9778 73.706C58.9778 74.3436 59.9704 74.908 60.963 75.421C61.9481 75.9267 62.9407 76.3738 63.9481 76.7622C64.5259 76.9748 64.9259 77.1214 65.2889 77.246C65.6593 77.3706 66.0074 77.4878 66.4741 77.6344C67.7704 78.0229 69.0889 78.3307 70.4593 78.5799C71.837 78.8291 73.2741 79.0196 74.7778 79.1662L74.7111 79.8552C73.1778 79.7086 71.7259 79.518 70.3259 79.2615C68.9185 79.005 67.5704 78.6898 66.2667 78.294H66.2593C65.7778 78.1401 65.4296 78.0302 65.0518 77.8983C64.6741 77.7663 64.2741 77.6271 63.6889 77.4072H63.6815C62.6667 77.0114 61.6518 76.5497 60.637 76.0367C59.6222 75.5163 58.6148 74.9373 57.5926 74.2923L56.6963 73.7573C56.8518 72.6945 57.0222 71.6171 57.1556 70.5544C57.4148 69.0739 58.0074 66.5527 58.8667 64.3686C59.4667 62.8368 60.2074 61.4589 61.0593 60.6966C61.8889 59.9564 63.037 59.2235 64.3407 58.5492C65.7704 57.8089 67.3778 57.1346 68.9407 56.5996L69.1778 57.2519Z" fill="#333333"/>
<path fill-rule="evenodd" clip-rule="evenodd" d="M87.644 56.8928C86.9625 58.0288 86.2366 59.1062 85.5107 60.2056C85.2514 60.5941 85.0144 60.9459 84.7922 61.2537C84.5699 61.5542 84.3699 61.8034 84.1848 62.0086C83.9774 62.2285 83.7773 62.3897 83.5848 62.4923C83.407 62.5876 83.2218 62.6316 83.0218 62.6243C82.9181 62.6243 82.8144 62.6023 82.7107 62.5729C82.607 62.5363 82.5033 62.4923 82.3996 62.4264C82.2811 62.3531 82.1551 62.2578 82.0366 62.1479C81.9107 62.0306 81.7699 61.8913 81.6292 61.7374C81.4366 61.5175 81.2366 61.305 81.044 61.0851C81.0144 61.0558 80.9922 61.0265 80.9625 60.9972L80.9699 60.9825C79.7922 59.4141 79.207 58.4173 78.7403 58.0508C78.6885 57.9775 78.6366 57.9043 78.5848 57.8383H78.0514C77.9329 57.9922 77.8218 58.1315 77.7255 58.278C77.3255 58.7105 76.7996 59.502 75.9625 60.6967C75.8959 60.7773 75.8366 60.8506 75.7774 60.9385C75.5329 61.2024 75.2959 61.4736 75.0514 61.7374C74.9033 61.8987 74.7699 62.0379 74.644 62.1479C74.5181 62.2578 74.3996 62.3531 74.2736 62.4264C74.1699 62.485 74.0662 62.5363 73.9699 62.5729C73.8736 62.6023 73.7699 62.6243 73.6588 62.6243C73.4588 62.6316 73.2736 62.5876 73.0959 62.4923C72.9033 62.3897 72.7033 62.2285 72.4959 62.0086C72.2588 61.7521 71.9922 61.4076 71.6959 60.9825C71.3774 60.5281 71.0588 60.0444 70.6885 59.48C70.1033 58.5932 69.5848 57.809 69.0811 56.8782C69.1699 56.8488 69.2662 56.8122 69.3551 56.7829C69.5477 56.7169 69.7329 56.651 69.9181 56.5923C69.9551 56.5777 69.9922 56.5703 70.0292 56.5557C70.5996 56.3724 71.1477 56.2112 71.6366 56.0866C72.1181 55.9693 72.5625 55.8741 72.9551 55.8154C75.0811 58.0435 81.4959 58.1241 83.7329 55.8154C84.1255 55.8741 84.5699 55.9693 85.0514 56.0866C85.5477 56.2112 86.0885 56.3724 86.6588 56.5557C86.9922 56.6656 87.3181 56.7829 87.644 56.8928Z" fill="#FEFEFE"/>
<path fill-rule="evenodd" clip-rule="evenodd" d="M83.7407 55.8154C81.4962 58.1241 75.0888 58.0435 72.9629 55.8154C73.4147 54.4961 73.4444 53.1256 73.4592 51.755C73.4592 51.7477 73.4592 51.6524 73.4592 51.5791C74.9259 52.6565 76.6592 53.2795 78.5184 53.2795C80.2666 53.2795 81.9036 52.7298 83.311 51.7697C83.311 51.821 83.311 51.8649 83.311 51.8649C83.3777 53.2282 83.437 54.5987 83.7407 55.8154Z" fill="#FEFEFE"/>
<path fill-rule="evenodd" clip-rule="evenodd" d="M83.7921 55.4707C83.9847 55.5 84.1995 55.5367 84.4292 55.588C84.6514 55.632 84.8958 55.6906 85.1403 55.7566C85.3847 55.8152 85.644 55.8885 85.9255 55.9691C86.2144 56.0497 86.4958 56.1377 86.7773 56.233C87.2292 56.4015 87.7106 56.5555 88.1625 56.7094L87.9477 57.0758C87.3477 58.0726 86.7181 59.0254 86.081 59.9782L85.7995 60.396L85.4218 60.953C85.2884 61.1435 85.1699 61.3194 85.0662 61.4514C84.9551 61.5979 84.8514 61.7445 84.7403 61.8765C84.6366 62.0084 84.5329 62.133 84.4292 62.2356C84.3107 62.3602 84.1995 62.4701 84.0958 62.5581C83.9773 62.6534 83.8588 62.734 83.7403 62.7926C83.6218 62.8512 83.5032 62.8952 83.3847 62.9245C83.2662 62.9539 83.1403 62.9685 83.0069 62.9612C82.9403 62.9612 82.8662 62.9539 82.8069 62.9392C82.7403 62.9319 82.6736 62.9099 82.6069 62.8879H82.5921C82.5255 62.8659 82.4588 62.8366 82.3995 62.8073C82.3329 62.7779 82.2736 62.7413 82.2144 62.712C82.1403 62.668 82.0736 62.6167 81.9995 62.5654C81.9255 62.5068 81.8588 62.4555 81.7921 62.3968L81.5773 62.1916L81.3551 61.9571L80.7699 61.3048L80.5032 61.0116C80.1477 60.6158 79.7995 60.242 79.4736 59.8169C79.2366 59.5091 79.044 59.2013 78.8588 58.8935C78.7106 58.6516 78.5625 58.4024 78.3921 58.1679H78.2069C77.9551 58.505 77.7403 58.8202 77.5329 59.1427C77.3181 59.4725 77.0958 59.8023 76.8292 60.1541C76.6958 60.3447 76.5551 60.5059 76.4069 60.6671C76.281 60.8137 76.1551 60.953 76.044 61.1142C75.8662 61.3634 75.5107 61.7079 75.2958 61.9424C75.2292 62.023 75.1551 62.1037 75.0736 62.177C74.9995 62.2502 74.9329 62.3162 74.8588 62.3822C74.7847 62.4481 74.7181 62.5068 74.6514 62.5507C74.5773 62.6021 74.5107 62.6534 74.444 62.6973C74.3773 62.734 74.3181 62.7706 74.2588 62.7999C74.1921 62.8293 74.1255 62.8586 74.0588 62.8806H74.0514C73.9847 62.9025 73.9181 62.9172 73.8514 62.9319C73.7921 62.9392 73.7181 62.9465 73.6514 62.9539C73.5181 62.9539 73.3921 62.9465 73.2736 62.9172C73.1551 62.8879 73.0366 62.8439 72.9181 62.7853C72.7995 62.7193 72.681 62.6387 72.5625 62.5507C72.4514 62.4555 72.3403 62.3529 72.2292 62.2356C72.1032 62.0963 71.9699 61.9424 71.8292 61.7592C71.6884 61.576 71.5403 61.3781 71.3921 61.1729C71.2292 60.931 71.0662 60.6965 70.9032 60.4546L70.3773 59.663C70.0884 59.2233 69.8144 58.8129 69.5403 58.3731C69.2662 57.9333 69.0069 57.5009 68.7551 57.0392L68.5625 56.6801C68.9995 56.5261 69.4736 56.3429 69.9181 56.2183C70.1921 56.1304 70.4736 56.0424 70.7477 55.9618C71.0144 55.8812 71.281 55.8079 71.5477 55.7419C71.7847 55.6833 72.0292 55.6246 72.2662 55.5733C72.4958 55.5294 72.7106 55.4854 72.9032 55.4561L73.081 55.4268L73.3032 55.6613C74.3329 56.6361 76.3032 57.1418 78.2958 57.1565C80.2884 57.1638 82.2884 56.6801 83.3699 55.6686L83.6069 55.4341L83.7921 55.4707ZM84.2884 56.2696C84.1403 56.2403 83.9995 56.211 83.8588 56.189C82.7773 57.2004 80.9329 57.7501 79.0218 57.8527C79.1847 58.0873 79.3255 58.3145 79.4736 58.549C79.6514 58.8422 79.8366 59.1427 80.044 59.4065C80.3625 59.817 80.6884 60.1761 81.0366 60.5572C81.3255 60.8724 81.6069 61.1875 81.8884 61.5027L82.0884 61.7152L82.2662 61.8911L82.4292 62.0304C82.481 62.067 82.5329 62.1037 82.5773 62.133L82.6958 62.1989L82.8144 62.2502L82.9181 62.2722L83.0218 62.2796C83.0884 62.2796 83.1551 62.2722 83.2218 62.2576C83.2884 62.2429 83.3477 62.2209 83.4144 62.1843C83.4884 62.1403 83.5699 62.089 83.644 62.023C83.7403 61.9497 83.8292 61.8618 83.9181 61.7665C84.0069 61.6712 84.0958 61.5686 84.1921 61.444C84.2884 61.3268 84.3921 61.1875 84.4958 61.0409C84.6218 60.8724 84.7329 60.7111 84.8366 60.5572L85.4884 59.5897C86.044 58.7542 86.5921 57.9187 87.1181 57.0758L86.5551 56.8853C86.2588 56.79 85.9847 56.702 85.7255 56.6287C85.4662 56.5555 85.2144 56.4822 84.9699 56.4235C84.7329 56.3649 84.5032 56.3136 84.2884 56.2696ZM76.9625 58.7762C77.1625 58.4684 77.3625 58.1679 77.6069 57.8381C75.6958 57.7208 73.881 57.1638 72.844 56.1817C72.7032 56.2037 72.5699 56.233 72.4218 56.2623C72.2144 56.3063 71.9847 56.3576 71.7329 56.4235C71.4958 56.4822 71.2366 56.5555 70.9625 56.6361C70.7107 56.7094 70.4366 56.7973 70.1477 56.8853L70.0218 56.9219L69.5921 57.0685C69.7773 57.3983 69.9699 57.7061 70.1551 58.014C70.4144 58.4244 70.6884 58.8422 70.9847 59.2893L71.5032 60.0808C71.6736 60.3373 71.8366 60.5719 71.9847 60.7844C72.1329 60.997 72.2736 61.1875 72.3995 61.3414C72.5255 61.5027 72.644 61.6419 72.7551 61.7665C72.8514 61.8691 72.9403 61.9497 73.0218 62.023C73.1032 62.089 73.1847 62.1476 73.2588 62.1843C73.3181 62.2136 73.3847 62.2356 73.4514 62.2576C73.5181 62.2722 73.5847 62.2796 73.6514 62.2796L73.7551 62.2722C73.7921 62.2649 73.8366 62.2576 73.8662 62.2429C73.8958 62.2356 73.9329 62.2209 73.9699 62.1989L74.0884 62.133C74.1403 62.1037 74.1921 62.067 74.244 62.0304C74.3032 61.9864 74.3625 61.9351 74.4144 61.8911C74.4662 61.8398 74.5255 61.7885 74.5921 61.7225C74.8958 61.3927 75.1995 61.0629 75.5032 60.7258C75.6292 60.5499 75.7699 60.3886 75.9032 60.2347C76.0366 60.0808 76.1699 59.9269 76.281 59.7656L76.2884 59.7583C76.5477 59.3992 76.7551 59.084 76.9625 58.7762Z" fill="#333333"/>
<path fill-rule="evenodd" clip-rule="evenodd" d="M78.5113 53.2793C76.652 53.2793 74.9187 52.6563 73.452 51.5789C72.8076 51.1099 72.215 50.5455 71.6817 49.9152C70.7039 48.7499 69.9409 47.3353 69.4594 45.7596C69.0965 44.5576 68.8965 43.2603 68.8965 41.9044C68.8965 41.4353 68.9187 40.9663 68.9706 40.5119C71.1557 40.3213 78.615 39.8889 81.0298 33.124C82.0372 35.572 83.0817 36.8253 87.6372 38.3278C87.9557 39.4565 88.1261 40.6584 88.1261 41.9044C88.1261 42.6447 88.0669 43.3629 87.9557 44.0665C87.5854 46.3239 86.6594 48.3468 85.3409 49.9152C84.7409 50.6335 84.052 51.2565 83.3113 51.7695C81.8965 52.7296 80.2594 53.2793 78.5113 53.2793Z" fill="#FEFEFE"/>
<path fill-rule="evenodd" clip-rule="evenodd" d="M81.0373 33.124C78.6225 39.8889 71.1632 40.314 68.978 40.5119C68.9336 40.9663 68.904 41.4353 68.904 41.9044C68.904 43.253 69.104 44.5576 69.4669 45.7596C62.8373 28.7192 78.6373 26.689 81.2595 30.0018C87.6077 29.9138 90.9336 37.6461 87.9484 44.0665C88.0595 43.3703 88.1188 42.6447 88.1188 41.9044C88.1188 40.6584 87.9484 39.4491 87.6299 38.3278C83.0891 36.8253 82.0373 35.572 81.0373 33.124Z" fill="#EFEFEF"/>
<path fill-rule="evenodd" clip-rule="evenodd" d="M83.6521 51.6153L83.6595 51.9305C83.7262 53.2497 83.7854 54.569 84.0817 55.727L83.4003 55.8956C83.0891 54.6716 83.0299 53.3157 82.9632 51.9671L82.9558 51.63L83.6521 51.6153ZM72.6299 55.705C72.8447 55.0747 72.9632 54.4297 73.0225 53.7774C73.0817 53.1105 73.0965 52.4362 73.104 51.7546V51.498L73.8077 51.5054V51.7619C73.8003 52.4582 73.7928 53.1471 73.7262 53.8434C73.6595 54.547 73.5336 55.2433 73.2965 55.9322L72.6299 55.705Z" fill="#333333"/>
<path fill-rule="evenodd" clip-rule="evenodd" d="M69.333 40.4684C69.3034 40.7029 69.2886 40.9448 69.2738 41.1793C69.259 41.4138 69.2516 41.6557 69.2516 41.9122C69.2516 43.4 69.5034 44.8292 69.9553 46.1265C70.4219 47.4751 71.1108 48.6844 71.9553 49.7032C72.8145 50.7292 73.8367 51.5501 74.9701 52.1071C76.059 52.6422 77.2516 52.9427 78.5108 52.9427C79.7701 52.9427 80.9627 52.6495 82.0515 52.1071C83.1849 51.5501 84.2145 50.7219 85.0664 49.7032C85.9182 48.6917 86.5997 47.4751 87.0664 46.1338C87.5182 44.8366 87.7701 43.4147 87.7701 41.9195C87.7701 41.2966 87.7256 40.6882 87.6441 40.1092C87.5627 39.5082 87.4367 38.9219 87.2738 38.3502L87.9478 38.1597C88.1182 38.7533 88.2516 39.3763 88.3404 40.014C88.4293 40.6369 88.4738 41.2746 88.4738 41.9195C88.4738 43.488 88.2071 44.9905 87.733 46.361C87.2367 47.7829 86.5108 49.0728 85.6071 50.1502C84.6886 51.2496 83.5849 52.1291 82.3627 52.7374C81.1775 53.3238 79.8738 53.6463 78.5108 53.6463C77.1478 53.6463 75.8441 53.3238 74.659 52.7374C73.4367 52.1365 72.333 51.2496 71.4145 50.1502C70.5108 49.0728 69.7849 47.7829 69.2886 46.361C68.8145 44.9905 68.5479 43.4953 68.5479 41.9269C68.5479 41.6777 68.5553 41.4212 68.5701 41.1573C68.5849 40.9008 68.6071 40.6516 68.6367 40.4024L69.333 40.4684Z" fill="#333333"/>
<path fill-rule="evenodd" clip-rule="evenodd" d="M68.9702 40.5119C68.9258 40.9663 68.8961 41.4353 68.8961 41.9044C68.8961 43.253 69.0961 44.5576 69.4591 45.7596C62.8295 28.7192 78.6295 26.689 81.2517 30.0018C87.5998 29.9138 90.9258 37.6461 87.9406 44.0665C88.0517 43.3703 88.111 42.6447 88.111 41.9044C88.111 40.6584 87.9406 39.4491 87.6221 38.3278C83.0739 36.8253 82.0221 35.572 81.0147 33.124C78.6221 39.8889 71.1554 40.3213 68.9702 40.5119Z" fill="#AAAAAA"/>
<path fill-rule="evenodd" clip-rule="evenodd" d="M69.2961 40.8347L69.2739 41.2305C69.2665 41.4431 69.2591 41.6703 69.2591 41.9121C69.2591 42.5644 69.3035 43.2021 69.3998 43.8177C69.4961 44.4554 69.6294 45.071 69.8146 45.6647L69.1479 45.8919C66.8665 40.0358 67.1998 35.8948 68.7479 33.1098C69.585 31.5999 70.785 30.4859 72.1109 29.7163C73.4368 28.9541 74.8961 28.529 76.2665 28.3824C78.4887 28.1479 80.5109 28.6609 81.4368 29.6577C82.5331 29.665 83.5479 29.8996 84.4516 30.31C85.985 31.0063 87.222 32.2229 88.0739 33.7401C88.9183 35.2425 89.3924 37.0455 89.422 38.9291C89.4442 40.6735 89.0887 42.4911 88.2813 44.2135L87.2146 46.5149L87.622 44.0156C87.6739 43.6785 87.7183 43.3267 87.7479 42.9675C87.7776 42.6231 87.7924 42.2713 87.7924 41.9121C87.7924 41.3038 87.7479 40.7101 87.6739 40.1385C87.5998 39.6108 87.4961 39.0977 87.3702 38.5993C85.1553 37.8591 83.7628 37.1628 82.7998 36.3493C82.0072 35.675 81.5035 34.9347 81.0665 34.0332C78.3998 39.9992 71.7405 40.6295 69.2961 40.8347ZM68.5702 41.1939C68.585 40.9593 68.5998 40.7175 68.622 40.4756L68.6516 40.1898L69.1479 40.1458C71.5109 39.9479 78.4294 39.3616 80.6961 33.0145L80.9998 32.1496L81.3479 32.9998C81.8294 34.1725 82.3183 35.0593 83.222 35.8216C84.1405 36.5985 85.5109 37.2727 87.7331 38.0057L87.9109 38.0643L87.9628 38.2402C88.1257 38.8265 88.2516 39.4275 88.3331 40.0505C88.3924 40.4976 88.4368 40.952 88.4516 41.4137C88.622 40.5855 88.7035 39.75 88.6961 38.9365C88.6739 37.1628 88.2294 35.4771 87.4368 34.0772C86.6516 32.6847 85.5257 31.5779 84.1331 30.9403C83.2739 30.5519 82.3035 30.3393 81.2516 30.3466H81.0813L80.9776 30.2147C80.2591 29.3132 78.4072 28.8515 76.3257 29.0714C75.0442 29.2033 73.6813 29.6064 72.4516 30.3173C71.222 31.0283 70.1183 32.0543 69.3479 33.4469C68.2739 35.3745 67.8368 38.0203 68.5479 41.531L68.5702 41.1939Z" fill="#333333"/>
<path fill-rule="evenodd" clip-rule="evenodd" d="M81.0742 61.5539L80.7038 62.3161C79.6223 64.5442 78.6519 65.0646 77.7408 64.6248C76.926 64.2291 76.2668 62.9758 75.6445 61.5319L76.289 61.2607C76.8519 62.5727 77.4297 63.7014 78.0519 64.0019C78.5779 64.2584 79.2223 63.782 80.0742 62.0156L80.4445 61.2534L81.0742 61.5539Z" fill="#333333"/>
<path fill-rule="evenodd" clip-rule="evenodd" d="M17.0449 51.6305L17.0375 51.9676C16.9708 53.3235 16.9041 54.6721 16.6004 55.8961L15.9189 55.7275C16.2078 54.5622 16.2745 53.2502 16.3338 51.931L16.3412 51.6085L17.0449 51.6305ZM26.7041 55.9254C26.4671 55.2438 26.3412 54.5402 26.2745 53.8366C26.2078 53.1476 26.2004 52.4513 26.193 51.7551V51.4985L26.8967 51.4912V51.7477C26.9041 52.4294 26.9115 53.1036 26.9782 53.7706C27.0375 54.4229 27.156 55.0679 27.3708 55.6982L26.7041 55.9254Z" fill="#333333"/>
<path fill-rule="evenodd" clip-rule="evenodd" d="M19.5476 61.2534L19.918 62.0156C20.7698 63.782 21.4143 64.2584 21.9402 64.0019C22.555 63.7014 23.1402 62.5727 23.7032 61.2607L24.3476 61.5319C23.7254 62.9758 23.0661 64.2291 22.2513 64.6248C21.3476 65.0646 20.3698 64.5516 19.2883 62.3161L18.918 61.5539L19.5476 61.2534Z" fill="#333333"/>
<path fill-rule="evenodd" clip-rule="evenodd" d="M70.3635 62.1037C69.3043 61.5466 68.1932 61.0116 67.1413 60.5499C65.6524 59.8902 64.2821 59.3479 63.3043 59.0107C62.5784 60.3373 61.8376 61.4734 61.0006 62.734C60.4747 63.5329 60.008 64.2365 59.5561 64.8814C59.1339 65.4898 58.7561 65.9808 58.408 66.3473C58.1117 66.6624 57.8376 66.8896 57.5561 67.0435C57.3043 67.1755 57.0376 67.2414 56.7487 67.2341C56.5932 67.2341 56.445 67.2048 56.3043 67.1608C56.1561 67.1168 56.008 67.0435 55.8672 66.9556C55.6969 66.853 55.5191 66.7137 55.3413 66.5598C55.1635 66.3986 54.971 66.2007 54.7635 65.9735C54.4154 65.5924 54.0672 65.2112 53.7265 64.8228C53.6376 64.7055 53.5561 64.5883 53.4598 64.4783C53.5413 64.5956 53.6302 64.7202 53.7191 64.8448L53.445 65.4751C53.4228 65.5191 53.408 65.5704 53.3858 65.6144L52.2969 68.1576C52.7635 69.1544 53.1561 70.3124 53.4821 71.5803L53.9932 73.9696C54.2672 75.5454 54.4821 77.2311 54.645 78.8949C54.8376 80.8591 54.9561 82.8233 55.0376 84.5677C55.1191 86.312 55.1635 87.8145 55.1932 88.8772L55.2228 90.1232V91.4205C59.5635 91.0027 63.4747 90.3211 67.1932 89.207C68.5561 88.7746 69.1784 88.5621 70.845 87.9464C73.7487 86.8104 76.5858 85.3665 79.4821 83.5269L80.4895 82.9186L79.8895 78.6677C79.5265 76.6008 78.7043 73.0901 77.5191 70.0192C77.008 68.7806 76.4154 67.5566 75.7117 66.3399C75.3191 65.7389 74.9043 65.2259 74.4672 64.8375C73.408 63.9067 71.9784 62.9758 70.3635 62.1037Z" fill="#FEFEFE"/>
<path fill-rule="evenodd" clip-rule="evenodd" d="M45.0438 84.531C45.1327 82.706 45.2586 80.7491 45.4438 78.8216C45.4957 78.3085 45.5475 77.7955 45.6068 77.2898C45.7771 75.8386 45.992 74.4021 46.2586 73.0608C46.6142 71.2798 47.066 69.682 47.629 68.4874L47.8364 68.055L47.1253 66.5818L46.3031 64.8961C46.266 64.9401 46.229 64.984 46.1846 65.028C45.9031 65.3358 45.629 65.651 45.3475 65.9588C45.1401 66.186 44.9475 66.3839 44.7623 66.5525C44.5846 66.7137 44.4142 66.8456 44.2364 66.9483C44.0957 67.0362 43.9475 67.1095 43.792 67.1535C43.6512 67.1974 43.5031 67.2268 43.3475 67.2268C43.066 67.2341 42.7994 67.1681 42.5401 67.0362C42.266 66.8896 41.9846 66.6551 41.6808 66.3399C41.4142 66.0541 41.1253 65.6876 40.8142 65.2625C40.4957 64.8228 40.1549 64.3244 39.7846 63.7674C38.7401 62.1916 37.7031 60.6451 36.7253 59.0254C32.5105 60.4766 28.0438 62.624 25.6068 64.7935C22.7697 67.3147 20.792 75.0837 20.1771 78.6237L19.5771 82.8746L20.5846 83.4829C23.4809 85.3226 26.3179 86.7664 29.2216 87.9024C30.8883 88.5181 31.5179 88.7306 32.8734 89.1631C36.592 90.2771 40.5031 90.9587 44.8438 91.3765V90.0865C44.8512 89.9033 44.8512 89.7128 44.8586 89.5222L44.8808 88.8699C44.8808 88.8113 44.8808 88.7453 44.8883 88.6867C44.9179 87.448 44.9697 86.0335 45.0438 84.531Z" fill="#FEFEFE"/>
<path fill-rule="evenodd" clip-rule="evenodd" d="M42.3115 57.4861C45.5189 60.7915 54.7041 60.6743 57.7486 57.4861C57.0967 55.6025 57.0597 53.6382 57.0449 51.674C57.0449 51.6593 57.0449 51.5201 57.0449 51.4175C54.9412 52.9566 52.4597 53.8508 49.8004 53.8508C47.2967 53.8508 44.956 53.0666 42.9337 51.6887C42.9337 51.7546 42.9337 51.8206 42.9337 51.8279C42.8374 53.7775 42.7486 55.7417 42.3115 57.4861Z" fill="#FEFEFE"/>
<path fill-rule="evenodd" clip-rule="evenodd" d="M49.8001 53.8512C52.4593 53.8512 54.9408 52.9643 57.0445 51.4179C57.9704 50.7436 58.8149 49.9374 59.5779 49.0285C60.9779 47.3648 62.0667 45.3346 62.7556 43.0772C63.2816 41.3549 63.563 39.4933 63.563 37.5584C63.563 36.8841 63.526 36.2171 63.4593 35.5575C60.3334 35.2863 49.6445 34.6706 46.1927 24.9814C44.7556 28.4848 43.2519 30.2805 36.7334 32.4279C36.2816 34.0403 36.0371 35.7627 36.0371 37.551C36.0371 38.6064 36.1186 39.6398 36.2816 40.6439C36.8075 43.8761 38.1408 46.7785 40.0223 49.0212C40.889 50.0546 41.8667 50.9488 42.9334 51.6744C44.9556 53.0669 47.2964 53.8512 49.8001 53.8512Z" fill="#FEFEFE"/>
<path fill-rule="evenodd" clip-rule="evenodd" d="M36.7266 59.025C37.6969 60.6447 38.7414 62.1912 39.7858 63.767C40.1562 64.324 40.4969 64.8224 40.8154 65.2621C41.1266 65.6872 41.4154 66.0537 41.6821 66.3395C41.9784 66.6547 42.2599 66.8892 42.5414 67.0358C42.8006 67.1677 43.0599 67.2337 43.3488 67.2263C43.5043 67.219 43.6525 67.197 43.7932 67.153C43.9414 67.1017 44.0895 67.0358 44.2377 66.9478C44.408 66.8379 44.5858 66.706 44.7636 66.5521C44.9488 66.3835 45.1414 66.1856 45.3488 65.9584C45.6303 65.6506 45.9043 65.3354 46.1858 65.0276C46.2229 64.9836 46.2599 64.9396 46.3043 64.8957L46.2969 64.881C47.9784 62.6383 48.8154 61.2091 49.4895 60.6814C49.5636 60.5788 49.6377 60.4762 49.7117 60.3735H50.4673C50.6377 60.5861 50.7932 60.7986 50.9414 61.0039C51.5191 61.6195 52.2747 62.7629 53.4673 64.4706C53.5562 64.5805 53.6451 64.6978 53.734 64.815C54.0821 65.1962 54.4303 65.5773 54.771 65.9657C54.9784 66.1929 55.171 66.3908 55.3488 66.5521C55.5266 66.7133 55.7043 66.8452 55.8747 66.9478C56.0229 67.0358 56.1636 67.1091 56.3117 67.153C56.4525 67.197 56.6006 67.2263 56.7562 67.2263C57.0451 67.2337 57.3043 67.1677 57.5636 67.0358C57.8451 66.8892 58.1266 66.6547 58.4154 66.3395C58.7562 65.973 59.134 65.482 59.5636 64.8737C60.0154 64.2287 60.4821 63.5251 61.008 62.7262C61.8451 61.4583 62.5858 60.3296 63.3117 59.003C63.1784 58.959 63.0451 58.9077 62.9192 58.8637C62.6451 58.7685 62.3784 58.6805 62.1117 58.5926C62.0599 58.5779 62.0006 58.5559 61.9488 58.5412C61.134 58.2774 60.3488 58.0502 59.6451 57.867C58.9562 57.6984 58.3192 57.5591 57.7636 57.4785C54.7192 60.6667 45.534 60.784 42.3266 57.4785C41.7636 57.5591 41.1266 57.6911 40.4451 57.867C39.734 58.0429 38.9562 58.2701 38.1414 58.5339C37.6599 58.7025 37.1932 58.8637 36.7266 59.025Z" fill="#D9F4FF"/>
<path fill-rule="evenodd" clip-rule="evenodd" d="M55.2231 91.4204V90.1158L55.1935 88.8698C55.1638 87.8071 55.1268 86.3046 55.0379 84.5602C54.9564 82.8232 54.8305 80.8517 54.6453 78.8874C54.4823 77.2237 54.2749 75.538 53.9934 73.9622L53.4823 71.5729C53.1564 70.305 52.7638 69.1469 52.2972 68.1502L53.7194 64.8374C49.4231 58.7248 50.4972 59.2599 46.2897 64.874L47.1194 66.5744L47.8305 68.0476L47.6231 68.48C47.0601 69.6746 46.6083 71.2651 46.2527 73.0534C45.986 74.3946 45.7712 75.8312 45.6009 77.2824C45.5416 77.7881 45.4897 78.3011 45.4379 78.8142C45.2527 80.7417 45.1268 82.6986 45.0379 84.5236C44.9638 86.0261 44.9194 87.4406 44.8823 88.6793C44.8823 88.7452 44.8823 88.8039 44.8749 88.8625L44.8527 89.5148C44.8453 89.7127 44.8453 89.8959 44.8379 90.0791V91.3691C44.8453 91.3691 44.8527 91.3691 44.8675 91.3691C45.1194 91.3911 45.3786 91.4204 45.6379 91.4424C48.6009 91.7062 51.8601 91.7062 55.2231 91.4204Z" fill="url(#paint0_linear_14263_108881)"/>
<path fill-rule="evenodd" clip-rule="evenodd" d="M46.192 24.9957C49.6513 34.6776 60.3327 35.2932 63.4587 35.5718C63.5253 36.2241 63.5624 36.891 63.5624 37.5726C63.5624 39.5075 63.2735 41.3692 62.755 43.0915C72.2513 18.6926 49.6216 15.7829 45.8661 20.5249C36.7772 20.4076 32.0068 31.4747 36.2883 40.6656C36.1253 39.6688 36.0438 38.628 36.0438 37.5726C36.0438 35.7843 36.2883 34.0619 36.7401 32.4495C43.2513 30.2947 44.755 28.4991 46.192 24.9957Z" fill="#EFEFEF"/>
<path fill-rule="evenodd" clip-rule="evenodd" d="M43.2892 51.4835C43.2892 51.6374 43.2892 51.784 43.2818 51.9379C43.1855 53.8802 43.0966 55.8224 42.6522 57.5741L41.9707 57.4055C42.3929 55.7198 42.4892 53.8069 42.5781 51.9013L42.5929 51.4762L43.2892 51.4835ZM57.4152 57.5961C57.0818 56.6286 56.904 55.6392 56.8077 54.6351C56.7114 53.6456 56.6966 52.6562 56.6892 51.6668V51.3003H57.3929V51.6668C57.4003 52.6415 57.4152 53.6163 57.5114 54.5691C57.6003 55.5146 57.7707 56.4527 58.0818 57.3689L57.4152 57.5961Z" fill="#333333"/>
<path fill-rule="evenodd" clip-rule="evenodd" d="M63.8002 35.4109C63.8372 35.7627 63.8668 36.1218 63.8891 36.4809C63.9113 36.8474 63.9187 37.2138 63.9187 37.5656C63.9187 39.801 63.5483 41.9338 62.8668 43.8761C62.1631 45.8989 61.1335 47.7239 59.8446 49.2557C58.5409 50.8095 56.9853 52.0628 55.252 52.9203C53.5779 53.7485 51.7335 54.2029 49.8002 54.2029C47.8668 54.2029 46.0298 53.7485 44.3483 52.9203C42.615 52.0628 41.052 50.8168 39.7483 49.2557C38.4668 47.7239 37.4372 45.8989 36.7335 43.8761C36.0594 41.9338 35.6816 39.801 35.6816 37.5656C35.6816 36.6495 35.7483 35.7407 35.8668 34.8538C35.9928 33.9523 36.1779 33.0655 36.4224 32.2227L37.0965 32.4132C36.8594 33.2341 36.6816 34.0769 36.5631 34.9491C36.4446 35.7993 36.3853 36.6715 36.3853 37.5656C36.3853 39.7204 36.7483 41.7726 37.4002 43.6489C38.0742 45.5911 39.0668 47.3428 40.2965 48.8086C41.5335 50.2891 43.015 51.4765 44.6668 52.29C46.2446 53.0669 47.9853 53.4993 49.8002 53.4993C51.6224 53.4993 53.3557 53.0669 54.9409 52.29C56.5853 51.4765 58.0668 50.2891 59.3039 48.8086C60.5335 47.3428 61.5261 45.5911 62.2002 43.6489C62.852 41.7726 63.215 39.7204 63.215 37.5656C63.215 37.1992 63.2076 36.8547 63.1853 36.5102C63.1705 36.1658 63.1409 35.8213 63.1039 35.4768L63.8002 35.4109Z" fill="#333333"/>
<path fill-rule="evenodd" clip-rule="evenodd" d="M63.8082 35.5352C63.8452 35.8723 63.8675 36.2168 63.8897 36.554C63.9045 36.8984 63.9193 37.2356 63.9193 37.5654C63.9193 37.8512 63.9119 38.1297 63.9045 38.4156C65.3564 32.6622 64.7415 28.4112 63.0601 25.3696C61.9415 23.3467 60.3415 21.8662 58.5564 20.8328C56.7712 19.7994 54.8008 19.2277 52.9415 19.0298C49.9045 18.7074 47.2008 19.389 46.1415 20.7229L46.0378 20.8548H45.8675C44.3341 20.8328 42.9341 21.1406 41.6823 21.7123C39.6527 22.6358 38.023 24.2482 36.8823 26.2638C35.7416 28.2939 35.0971 30.7346 35.0601 33.2925C35.0378 34.8609 35.2453 36.4733 35.7045 38.0638L35.6971 37.5581C35.6971 36.6639 35.7564 35.7771 35.8749 34.9122C35.9934 34.0327 36.1712 33.1752 36.4008 32.3397L36.4527 32.1638L36.6304 32.1051C39.8453 31.0497 41.8156 30.0823 43.149 28.9536C44.4675 27.8469 45.1786 26.5569 45.8749 24.8566L46.223 24.0064L46.5341 24.8712C49.8008 34.0547 59.7712 34.9049 63.186 35.1981L63.786 35.2494L63.8082 35.5352ZM63.186 36.5906C63.1712 36.3561 63.1564 36.1215 63.1341 35.8943H63.1193C59.6971 35.6012 49.8749 34.7656 46.1712 25.9266C45.5267 27.3485 44.8008 28.4772 43.5934 29.4959C42.2156 30.6613 40.223 31.6507 37.023 32.7135C36.823 33.461 36.6675 34.2233 36.5638 35.0148C36.4527 35.843 36.3934 36.6932 36.3934 37.5727C36.3934 38.0858 36.4156 38.5988 36.4527 39.1045C36.4971 39.6249 36.5564 40.1233 36.6378 40.6143L37.0453 43.1136L35.9712 40.8122C34.8304 38.3643 34.3193 35.7771 34.3564 33.3071C34.3934 30.632 35.0675 28.0741 36.2675 25.9486C37.4749 23.8085 39.2156 22.0861 41.386 21.104C42.6823 20.5103 44.1341 20.1805 45.7045 20.1805C46.9712 18.7513 49.8453 18.0257 53.0156 18.3556C54.9638 18.5608 57.0304 19.1618 58.9119 20.2465C60.7934 21.3312 62.4823 22.907 63.6749 25.0471C65.8675 28.9976 66.3341 34.8829 63.0897 43.2162L62.423 42.989C62.6823 42.1315 62.8823 41.2373 63.0156 40.3212C63.149 39.427 63.2156 38.5109 63.2156 37.5654C63.2156 37.2282 63.2008 36.8984 63.186 36.5906Z" fill="#333333"/>
<path fill-rule="evenodd" clip-rule="evenodd" d="M46.8958 65.3355L47.4292 66.4275C48.7032 69.0587 49.6958 69.7476 50.5255 69.3372C51.4514 68.8828 52.3032 67.241 53.1181 65.3281L53.7625 65.5993C52.8884 67.6368 51.9551 69.4105 50.8292 69.9602C49.6143 70.5538 48.2884 69.8209 46.7921 66.728L46.2588 65.636L46.8958 65.3355Z" fill="#333333"/>
<path fill-rule="evenodd" clip-rule="evenodd" d="M42.3112 57.4858C41.7482 57.5665 41.1112 57.6984 40.4297 57.8743C39.7186 58.0502 38.9408 58.2774 38.126 58.5412C37.6593 58.7025 37.1927 58.8637 36.7334 59.025C37.7038 60.6447 38.7482 62.1912 39.7927 63.7743C40.163 64.3313 40.5038 64.8297 40.8223 65.2694C41.1334 65.6945 41.4223 66.061 41.689 66.3468C41.9852 66.662 42.2667 66.8965 42.5482 67.0431C42.8075 67.175 43.0667 67.241 43.3556 67.2337C43.5038 67.2263 43.6593 67.2044 43.8001 67.1604C43.9482 67.1091 44.0964 67.0431 44.2445 66.9552C44.4149 66.8452 44.5927 66.7133 44.7704 66.5594C44.9556 66.3908 45.1482 66.1929 45.3556 65.9657C45.6371 65.6579 45.9112 65.3427 46.1927 65.0349C46.8371 64.3167 47.4519 63.679 48.0297 62.9388C48.6667 62.1179 49.089 61.2091 49.726 60.3809H50.4815C51.326 61.4509 51.7927 62.3378 52.6075 63.4225C52.963 63.9282 53.3853 64.3167 53.7408 64.815C54.089 65.1962 54.4371 65.5773 54.7778 65.9657C54.9852 66.1929 55.1778 66.3908 55.3556 66.5521C55.5334 66.7133 55.7112 66.8452 55.8815 66.9478C56.0297 67.0358 56.1704 67.1091 56.3186 67.1531C56.4593 67.197 56.6075 67.2263 56.763 67.2263C57.0519 67.2337 57.3112 67.1677 57.5704 67.0358C57.8519 66.8892 58.1334 66.6547 58.4223 66.3395C58.763 65.9731 59.1408 65.482 59.5704 64.8737C60.0223 64.2287 60.489 63.5251 61.0149 62.7262C61.8519 61.4656 62.5927 60.3296 63.3186 59.003C63.1852 58.959 63.0519 58.9077 62.926 58.8637C62.6519 58.7685 62.3852 58.6805 62.1186 58.5926C62.0667 58.5779 62.0075 58.5559 61.9556 58.5412C61.1408 58.2774 60.3556 58.0502 59.6519 57.867C58.963 57.6984 58.326 57.5591 57.7704 57.4785C54.7038 60.674 45.5186 60.7913 42.3112 57.4858Z" fill="#FEFEFE"/>
<path fill-rule="evenodd" clip-rule="evenodd" d="M42.193 57.8599C41.9634 57.8965 41.7338 57.9405 41.4893 57.9918C41.1856 58.0504 40.8597 58.1311 40.5115 58.219C40.1486 58.307 39.7856 58.4096 39.4227 58.5122C39.0449 58.6221 38.6449 58.7467 38.2375 58.8786L37.2523 59.2158C38.0375 60.4984 38.8671 61.7444 39.6967 63.005L40.0819 63.584L40.6152 64.3682C40.7782 64.6101 40.9412 64.8373 41.1041 65.0645C41.2597 65.277 41.4078 65.4749 41.5486 65.6435C41.6967 65.8194 41.8227 65.9806 41.9486 66.1052C42.0893 66.2518 42.2227 66.3764 42.356 66.4864C42.4745 66.589 42.6004 66.6696 42.7189 66.7282C42.8227 66.7795 42.9264 66.8162 43.0301 66.8455C43.1338 66.8675 43.2449 66.8821 43.356 66.8748H43.3634C43.4152 66.8748 43.4671 66.8675 43.5264 66.8601C43.593 66.8455 43.6523 66.8308 43.7115 66.8162C43.7634 66.8015 43.8227 66.7722 43.8819 66.7429C43.9486 66.7136 44.0078 66.6769 44.0671 66.6476C44.1412 66.5963 44.2227 66.545 44.3041 66.4864C44.3782 66.4277 44.4597 66.3618 44.5412 66.2885C44.6301 66.2078 44.719 66.1199 44.8078 66.0319C44.8967 65.9367 44.993 65.8341 45.0967 65.7241L46.3708 64.3096C46.8523 63.7819 47.3189 63.2762 47.7486 62.7118C48.0523 62.316 48.3115 61.8909 48.5708 61.4658C48.8227 61.0627 49.0671 60.6523 49.3634 60.2565C46.5634 60.1539 43.8301 59.377 42.2523 57.9039L42.193 57.8599ZM41.3486 57.3102C41.6745 57.2442 41.9856 57.1856 42.2671 57.1489L42.4449 57.1196L42.7264 57.4055C44.3041 58.8786 47.2078 59.5969 50.0967 59.5822C52.9856 59.5676 55.8523 58.8273 57.3486 57.3981L57.6227 57.1196L57.8004 57.1489C58.0819 57.1929 58.3856 57.2442 58.7115 57.3102C59.0375 57.3762 59.3708 57.4568 59.719 57.5374C60.0893 57.6327 60.4671 57.7353 60.8523 57.8452C61.2449 57.9552 61.6375 58.0798 62.0449 58.2117C62.6375 58.3949 63.2227 58.6075 63.8004 58.8053L63.6078 59.1645C63.2375 59.8388 62.8671 60.4617 62.4819 61.0701C62.0893 61.6931 61.6967 62.2867 61.2819 62.917L60.5338 64.0531C60.2893 64.4195 60.0597 64.7567 59.8375 65.0718C59.6227 65.3796 59.4152 65.6582 59.2227 65.9073C59.0226 66.1639 58.8375 66.3837 58.6597 66.5743C58.5041 66.7429 58.3486 66.8895 58.193 67.014C58.0375 67.146 57.8745 67.2559 57.7115 67.3365C57.556 67.4172 57.4004 67.4758 57.2375 67.5124C57.0745 67.5491 56.9041 67.5637 56.7338 67.5637C56.6375 67.5637 56.5486 67.5564 56.4671 67.5418C56.3708 67.5271 56.2819 67.5051 56.2004 67.4758C56.1115 67.4465 56.0227 67.4098 55.9338 67.3732C55.8449 67.3292 55.756 67.2852 55.6819 67.2339C55.5856 67.1753 55.4893 67.1093 55.393 67.036C55.2967 66.9627 55.2004 66.8821 55.1041 66.7942C55.0078 66.7062 54.9041 66.6109 54.8078 66.5157C54.7041 66.4131 54.6004 66.2958 54.4967 66.1859C54.2004 65.856 53.6597 65.3357 53.4301 65.0058C53.2597 64.764 53.0745 64.5514 52.8893 64.3389C52.6893 64.1044 52.4819 63.8772 52.3041 63.6133C51.919 63.1076 51.6152 62.6458 51.3189 62.1841C51.0004 61.7004 50.6893 61.224 50.2967 60.7183H49.8893C49.6301 61.0701 49.4004 61.4512 49.1634 61.825C48.8967 62.2647 48.6227 62.7045 48.2967 63.1369C47.8375 63.7232 47.3708 64.2363 46.8819 64.7786L45.6078 66.1859C45.5041 66.2958 45.4004 66.4131 45.2967 66.5157C45.193 66.6183 45.0893 66.7136 45.0004 66.8015C44.9115 66.8821 44.8152 66.9627 44.7189 67.036C44.6227 67.1093 44.5264 67.1753 44.4301 67.2413C44.3412 67.2926 44.2597 67.3439 44.1708 67.3805C44.0893 67.4172 44.0004 67.4538 43.9115 67.4831H43.9041C43.8152 67.5124 43.7264 67.5344 43.6375 67.5491C43.5486 67.5637 43.4597 67.5711 43.3708 67.5711C43.193 67.5784 43.0227 67.5564 42.8671 67.5198C42.7041 67.4831 42.5486 67.4245 42.393 67.3439C42.2375 67.2632 42.0745 67.1533 41.9115 67.0214C41.756 66.8968 41.6004 66.7502 41.4449 66.5816C41.2967 66.4277 41.156 66.2591 41.0078 66.0759C40.8597 65.8927 40.7041 65.6875 40.5486 65.4749C40.393 65.255 40.2227 65.0205 40.0449 64.764L39.5115 63.9724L39.1264 63.3934C38.2078 62.0155 37.3041 60.6523 36.4449 59.2085L36.2227 58.842C36.7634 58.6514 37.5264 58.3363 38.0301 58.219C38.4449 58.0871 38.8449 57.9625 39.2449 57.8452C39.6449 57.728 40.0227 57.6253 40.3634 57.5374C40.6819 57.4568 41.0152 57.3762 41.3486 57.3102ZM50.8078 60.2492C51.2375 60.7989 51.5634 61.3046 51.8967 61.8103C52.193 62.2647 52.4967 62.7191 52.8671 63.2102L52.8745 63.2175C53.0449 63.4594 53.2301 63.6719 53.4152 63.8845C53.6152 64.1117 53.8078 64.3389 53.993 64.5954L55.0227 65.7241C55.1264 65.8414 55.2227 65.944 55.3115 66.0319C55.4078 66.1272 55.4967 66.2078 55.5708 66.2811C55.6523 66.3544 55.7338 66.4277 55.8152 66.4864C55.8893 66.545 55.9708 66.5963 56.0449 66.6476C56.1115 66.6916 56.1708 66.7209 56.2301 66.7502C56.2893 66.7795 56.3486 66.8015 56.4004 66.8162C56.4597 66.8308 56.5189 66.8455 56.5782 66.8601C56.6375 66.8675 56.6893 66.8748 56.7486 66.8748H56.756C56.8671 66.8748 56.9782 66.8675 57.0819 66.8455C57.1856 66.8235 57.2893 66.7795 57.3856 66.7282C57.5041 66.6622 57.6227 66.5816 57.7486 66.479C57.8745 66.3764 58.0078 66.2518 58.1486 66.1052C58.3189 65.9293 58.4893 65.7168 58.6745 65.4822C58.8597 65.2404 59.0597 64.9692 59.2671 64.676C59.4967 64.3462 59.7264 64.0091 59.956 63.6646C60.2078 63.2908 60.4523 62.9244 60.7041 62.5359C61.1264 61.8983 61.5264 61.2973 61.8967 60.7036C62.2078 60.2126 62.5041 59.7142 62.8004 59.1938L61.993 58.9226L61.8301 58.8713C61.4227 58.7394 61.0301 58.6221 60.6523 58.5049C60.2597 58.3876 59.8893 58.2923 59.5486 58.2044C59.2078 58.1237 58.8745 58.0431 58.5708 57.9845C58.3338 57.9332 58.0967 57.8892 57.8745 57.8525L57.8375 57.8892C56.3264 59.3257 53.6227 60.1246 50.8078 60.2492Z" fill="#333333"/>
<path fill-rule="evenodd" clip-rule="evenodd" d="M36.8444 59.3554C34.6444 60.1103 32.3777 61.0631 30.3703 62.1039C28.5703 63.0347 26.9851 64.0461 25.8444 65.0576C24.7333 66.047 23.7481 67.9013 22.9259 69.9828C21.7185 73.0537 20.8814 76.6084 20.5185 78.6899L19.9481 82.6989L20.7703 83.1973C22.2074 84.1135 23.637 84.927 25.0592 85.6526C26.4814 86.3782 27.9037 87.0158 29.3481 87.5802C30.1777 87.888 30.7481 88.0932 31.274 88.2691C31.8074 88.4524 32.3037 88.6136 32.9703 88.8261C34.8296 89.3832 36.7259 89.8302 38.6963 90.1894C40.5481 90.5265 42.474 90.7904 44.4888 90.9883C44.4888 90.2114 44.5259 89.4418 44.5259 88.6722C44.5407 88.0492 44.5629 87.3823 44.5926 86.6933C44.6148 85.9897 44.6518 85.2568 44.6888 84.5092C44.7333 83.5784 44.7851 82.633 44.8518 81.6875C44.9185 80.742 44.9925 79.7673 45.0888 78.7851L45.1629 78.0156L45.2444 77.2533C45.3333 76.5131 45.4296 75.7875 45.5333 75.0839C45.6444 74.373 45.7629 73.6694 45.8963 72.9951C46.074 72.1009 46.2814 71.2434 46.5111 70.4592C46.7407 69.675 47.0074 68.9567 47.2963 68.3484L47.4296 68.0625L46.7925 66.7433L45.8666 64.8523L45.9925 64.6838C46.6074 63.8629 47.0963 63.1666 47.5111 62.5803C48.6444 60.9752 49.2444 60.125 50.0074 60.125C50.8444 60.1177 51.5555 61.1511 53.0592 63.3205C53.3259 63.7017 53.6148 64.1267 53.9851 64.6545L54.0963 64.8084L52.6592 68.1578C52.874 68.6269 53.074 69.1326 53.2518 69.6603C53.4518 70.2466 53.637 70.8623 53.8 71.4999C53.9259 72.2255 54.1259 73.2076 54.3185 73.9186C54.4518 74.6661 54.5703 75.4504 54.674 76.2639C54.7851 77.1214 54.8888 78.0009 54.9703 78.8658C55.0666 79.8699 55.1481 80.852 55.2074 81.7974C55.274 82.7429 55.3259 83.6737 55.3629 84.5532C55.4074 85.4181 55.437 86.2389 55.4592 86.9719C55.4814 87.6901 55.5037 88.3351 55.5111 88.8701C55.5333 89.8376 55.5407 90.783 55.5407 91.7505L55.2148 91.7798C53.5407 91.9191 51.8814 91.9924 50.2666 91.9997C48.637 92.007 47.0666 91.9411 45.5777 91.8091L44.8074 91.7358C42.6148 91.5306 40.5407 91.2521 38.5407 90.8856C36.5333 90.5192 34.6074 90.0648 32.7407 89.5078C32.0518 89.2879 31.5555 89.1266 31.0222 88.9507C30.4814 88.7675 29.9037 88.5623 29.074 88.2545H29.0666C27.6074 87.6828 26.1629 87.0305 24.7185 86.2902C23.274 85.55 21.8296 84.7218 20.3777 83.7983L19.1777 83.0727C19.3925 81.5849 19.637 80.0751 19.8148 78.5873C20.1851 76.4764 21.0296 72.8705 22.2592 69.7482C23.1111 67.5715 24.1555 65.6219 25.3555 64.5518C26.5333 63.5038 28.1703 62.463 30.0222 61.4956C32.0592 60.4402 34.3555 59.4727 36.5851 58.7105L36.8444 59.3554ZM45.2 91.0616L45.674 91.1055C47.1629 91.2374 48.7111 91.2961 50.2963 91.2961C51.7703 91.2888 53.3037 91.2301 54.8666 91.1055V90.1234L54.837 88.8774C54.8222 88.3497 54.8074 87.7121 54.7851 86.9792C54.7629 86.2609 54.7259 85.4547 54.6888 84.5679C54.6444 83.7104 54.6 82.7942 54.5333 81.8268C54.4666 80.8593 54.3926 79.8772 54.2963 78.9171C54.2148 78.0596 54.1185 77.1947 54 76.3372C53.8963 75.5676 53.7777 74.7907 53.6444 74.0212L53.1407 71.6538C52.9777 71.0235 52.8 70.4225 52.6074 69.8655C52.4148 69.3012 52.2 68.7735 51.9777 68.2897L51.9111 68.1505L53.3185 64.8743L52.4963 63.6943C51.1333 61.7301 50.4888 60.7993 50.0222 60.7993C49.6222 60.7993 49.0963 61.5469 48.0963 62.9614C47.7037 63.5184 47.237 64.1781 46.6888 64.911L47.4296 66.4281L48.2148 68.0479L47.9333 68.6342C47.6592 69.2132 47.4074 69.8948 47.1851 70.6497C46.9629 71.4046 46.7629 72.2402 46.5851 73.127C46.4518 73.794 46.3333 74.4829 46.2296 75.1865C46.1185 75.8974 46.0222 76.6157 45.9407 77.334L45.8592 78.0889L45.7851 78.8511C45.6963 79.7966 45.6148 80.764 45.5481 81.7388C45.4814 82.7063 45.4296 83.6517 45.3851 84.5459C45.3481 85.3081 45.3185 86.0337 45.2888 86.7227C45.2592 87.4263 45.2444 88.0859 45.2222 88.7015C45.2148 89.1633 45.2 89.625 45.1851 90.0941L45.2 91.0616ZM78.0963 72.6433C77.7407 71.5439 77.3259 70.4445 76.8444 69.3525C76.3555 68.2604 75.8074 67.183 75.1703 66.113C74.5703 65.1089 73.0296 64.0021 71.2074 62.9614C68.4592 61.393 65.074 60.0004 63.2 59.3335L63.437 58.6812C65.3333 59.3554 68.7629 60.77 71.5629 62.3604C73.4888 63.4598 75.1185 64.6471 75.7851 65.7612C76.4444 66.8605 77.0074 67.9672 77.5037 69.074C77.9925 70.1807 78.4148 71.2947 78.7851 72.4307L78.0963 72.6433Z" fill="#333333"/>
<path fill-rule="evenodd" clip-rule="evenodd" d="M63.452 58.7393C65.6816 59.5088 67.9853 60.4689 70.0223 61.5317C71.8742 62.4918 73.5112 63.5325 74.689 64.5806C75.889 65.6507 76.9335 67.6003 77.7927 69.777C79.0149 72.8993 79.8668 76.5052 80.2297 78.6087C80.4075 80.0965 80.6594 81.6064 80.8668 83.0942L79.6668 83.8198C78.2149 84.7433 76.7705 85.5715 75.326 86.3117C73.8742 87.052 72.4298 87.7042 70.9779 88.2686H70.9705C70.1335 88.5764 69.5631 88.7816 69.0223 88.9722C68.5038 89.1554 68.0001 89.3167 67.3038 89.5366H67.2964C65.4223 90.0936 63.5038 90.548 61.4964 90.9144C59.4964 91.2809 57.4223 91.5521 55.2297 91.7646L55.1631 91.0757C57.326 90.8705 59.3853 90.592 61.3631 90.2328C63.3335 89.8737 65.2298 89.4266 67.089 88.8696C67.7483 88.6644 68.2446 88.5031 68.7853 88.3126C69.3186 88.1293 69.889 87.9241 70.7112 87.6163C72.1557 87.052 73.5779 86.407 75.0001 85.6887C76.4223 84.9631 77.8446 84.1423 79.289 83.2334L80.1112 82.7351L79.5409 78.7187C79.1779 76.6372 78.3409 73.0825 77.1409 70.0189C76.3186 67.9301 75.3335 66.0758 74.2223 65.0863C73.089 64.0749 71.5038 63.0708 69.7038 62.1327C67.6964 61.0919 65.4297 60.1391 63.2223 59.3842L63.452 58.7393Z" fill="#333333"/>
<path fill-rule="evenodd" clip-rule="evenodd" d="M31.3634 40.3878C31.393 40.6369 31.4153 40.8861 31.4301 41.1427C31.4449 41.4065 31.4523 41.663 31.4523 41.9122C31.4523 43.4807 31.1856 44.9832 30.7116 46.3464C30.2153 47.7756 29.4893 49.0582 28.5856 50.1356C27.6671 51.235 26.5634 52.1145 25.3412 52.7228C24.156 53.3091 22.8523 53.6316 21.4893 53.6316C20.1264 53.6316 18.8227 53.3091 17.6375 52.7228C16.4153 52.1218 15.3116 51.235 14.393 50.1356C13.4893 49.0582 12.7634 47.7756 12.2671 46.3464C11.793 44.9758 11.5264 43.4733 11.5264 41.9049C11.5264 41.2599 11.5708 40.6223 11.6597 39.992C11.7486 39.3543 11.8819 38.7387 12.0523 38.145L12.7264 38.3356C12.5634 38.8999 12.4375 39.4863 12.356 40.0873C12.2745 40.6736 12.2301 41.2819 12.2301 41.9049C12.2301 43.4001 12.4819 44.8219 12.9338 46.1192C13.4004 47.4678 14.0893 48.6771 14.9338 49.6885C15.793 50.7146 16.8153 51.5355 17.9486 52.0925C19.0375 52.6275 20.2301 52.928 21.4893 52.928C22.7486 52.928 23.9412 52.6348 25.0301 52.0925C26.1634 51.5355 27.193 50.7073 28.0449 49.6885C28.8967 48.6771 29.5782 47.4604 30.0449 46.1119C30.4967 44.8146 30.7486 43.3927 30.7486 41.8976C30.7486 41.641 30.7412 41.3992 30.7264 41.1646C30.7116 40.9228 30.6893 40.6883 30.6671 40.4537L31.3634 40.3878Z" fill="#333333"/>
</g>
<defs>
<linearGradient id="paint0_linear_14263_108881" x1="35.9949" y1="63.2249" x2="51.7351" y2="80.7472" gradientUnits="userSpaceOnUse">
<stop stop-color="#FFC671"/>
<stop offset="1" stop-color="#FF6F3D"/>
</linearGradient>
<clipPath id="clip0_14263_108881">
<rect width="100" height="100" fill="white"/>
</clipPath>
</defs>
</svg>
