<svg width="100" height="100" viewBox="0 0 100 100" fill="none" xmlns="http://www.w3.org/2000/svg">
<path fill-rule="evenodd" clip-rule="evenodd" d="M20.0303 51.1395C18.3689 51.5551 14.2419 53.2385 11.5931 54.6552C7.19524 57.0551 6.04786 62.551 5.42122 67.0302C11.4728 71.3029 18.7346 72.8021 25.5931 73.3739C27.0448 73.3739 27.9466 72.9073 28.4782 72.1265C33.2243 71.8958 40.9553 69.6787 43.8169 66.8111C43.764 66.4394 43.7127 66.0521 43.6598 65.6535C43.2089 62.253 42.6499 58.0368 40.1226 55.8017C38.6293 54.4813 33.4584 52.1851 30.312 51.327C29.6521 51.6517 29.1694 52.0531 28.6745 52.5111C27.3527 51.8515 24.7398 51.4248 20.0303 51.1395Z" fill="#ADADAD"/>
<path d="M20.974 72.7008C16.2471 71.9735 9.7724 70.1976 5.9187 67.373C5.63405 67.1644 5.49675 66.8138 5.54735 66.4645C6.18003 62.0973 7.24179 56.9536 11.457 54.6533C14.0451 53.269 17.9889 51.62 19.7179 51.1576C19.7969 51.1365 19.8771 51.1271 19.9589 51.1271H29.9983C30.1321 51.1271 30.2646 51.154 30.3879 51.2061L40.0347 55.2874" stroke="#333333" stroke-linecap="round" stroke-dasharray="2 3"/>
<path fill-rule="evenodd" clip-rule="evenodd" d="M29.8726 50.6609C28.9145 56.9739 21.7284 56.9739 20.3416 50.6609C20.7418 49.3353 21.248 48.3817 21.2603 47.0051C21.2603 46.9959 20.806 44.287 20.806 44.287C20.806 44.287 23.6093 44.858 25.2515 44.858C26.7946 44.858 28.2428 43.8518 29.4888 42.8877C29.4888 42.934 29.0328 46.6961 29.0328 46.7007C29.0947 48.0681 29.6044 49.4373 29.8726 50.6609Z" fill="#ADADAD" stroke="#333333" stroke-linecap="round" stroke-dasharray="3 3"/>
<path fill-rule="evenodd" clip-rule="evenodd" d="M25.25 48.9151C23.6079 48.9151 22.0771 48.3581 20.7775 47.3967C20.2081 46.9759 19.6841 46.4725 19.2137 45.9073C18.3514 44.8675 17.6747 43.6008 17.2497 42.1939C16.9279 41.117 16.7505 39.9576 16.7505 38.7528C16.7505 38.332 16.7711 37.9152 16.8124 37.5068C18.7433 37.3335 25.3408 36.9498 27.478 30.9052C28.3651 33.092 29.2935 34.2142 33.3204 35.5552C33.5969 36.5619 33.7495 37.6347 33.7495 38.7528C33.7495 39.413 33.6959 40.0566 33.5968 40.6796C33.2709 42.6972 32.4498 44.5085 31.2863 45.9073C30.7541 46.5509 30.1475 47.1079 29.4874 47.5618C28.2413 48.4241 26.7931 48.9151 25.25 48.9151Z" fill="#ADADAD"/>
<path d="M17.5266 37.6432C19.4646 37.4697 25.3459 36.943 27.478 30.9014C28.3651 33.0882 28.6233 34.3241 32.6461 35.665L33.6703 39.0824C35.2822 34.1177 33.3162 27.664 27.6802 28.1081C25.1263 24.9641 11.2121 27.664 17.2497 42.1942L17.5238 37.6435L17.5266 37.6432Z" fill="#ADADAD" stroke="#333333" stroke-linecap="round" stroke-linejoin="round" stroke-dasharray="3 3"/>
<path d="M33.9497 38.0798C32.5543 42.266 32.8127 45.942 28.302 48.2721C26.3141 49.3032 23.9382 49.2991 21.9498 48.2721C18.8845 46.2709 18.6285 45.2776 16.8642 41.2213" stroke="#333333" stroke-dasharray="2 2"/>
<path d="M12.7834 69.3317L13.0918 65.3096" stroke="#333333" stroke-linecap="round" stroke-linejoin="round" stroke-dasharray="3 3"/>
<path fill-rule="evenodd" clip-rule="evenodd" d="M72.1854 72.1098C67.4201 71.8051 59.9435 69.6202 57.1401 66.811C57.193 66.4393 57.2444 66.052 57.2972 65.6534C57.7481 62.2529 58.3071 58.0366 60.8344 55.8015C62.3277 54.4812 68.7281 51.6069 71.8745 50.7488C72.4406 51.0273 72.6182 51.4836 72.7633 51.9939C74.1881 51.4554 76.63 51.0826 80.5934 50.8425C82.2548 51.2581 86.7254 53.1758 89.3741 54.5925C93.772 56.9925 94.81 62.5821 95.4366 67.0613C89.3851 71.334 81.6554 72.6238 75.1241 73.4988C73.5954 73.4988 72.6873 72.9757 72.1854 72.1098Z" fill="#ADADAD"/>
<path d="M79.983 72.7006C84.7099 71.9734 91.1846 70.1975 95.0383 67.3729C95.323 67.1642 95.4603 66.8137 95.4097 66.4644C94.777 62.0971 93.7152 56.9535 89.5 54.6532C86.9119 53.2689 82.9682 51.6199 81.2391 51.1575C81.1601 51.1363 81.08 51.127 80.9982 51.127H70.9587C70.8249 51.127 70.6924 51.1538 70.5691 51.206L60.9224 55.2873" stroke="#333333" stroke-linecap="round" stroke-dasharray="3 3"/>
<path fill-rule="evenodd" clip-rule="evenodd" d="M71.0845 50.6347C72.0426 56.9824 79.2286 56.9824 80.6155 50.6347C80.2152 49.3018 79.7091 48.343 79.6967 46.9588C79.6967 46.9495 80.1511 44.2257 80.1511 44.2257C80.1511 44.2257 77.3477 44.7999 75.7056 44.7999C74.1624 44.7999 72.7142 43.7881 71.4682 42.8187C71.4682 42.8653 71.9242 46.6481 71.9242 46.6528C71.8623 48.0276 71.3527 49.4043 71.0845 50.6347Z" fill="#ADADAD" stroke="#333333" stroke-linecap="round" stroke-dasharray="3 3"/>
<path fill-rule="evenodd" clip-rule="evenodd" d="M75.707 48.915C77.3492 48.915 78.8799 48.358 80.1796 47.3966C80.749 46.9758 81.273 46.4724 81.7433 45.9071C82.6057 44.8674 83.2823 43.6007 83.7073 42.1938C84.0291 41.1169 84.2065 39.9575 84.2065 38.7527C84.2065 38.3318 84.1859 37.9151 84.1446 37.5066C82.2137 37.3334 75.6163 36.9496 73.479 30.9051C72.5919 33.0919 71.6636 34.2141 67.6366 35.5551C67.3602 36.5618 67.2075 37.6346 67.2075 38.7527C67.2075 39.4128 67.2612 40.0565 67.3602 40.6795C67.6861 42.6971 68.5072 44.5084 69.6707 45.9071C70.203 46.5508 70.8095 47.1078 71.4697 47.5616C72.7157 48.424 74.1639 48.915 75.707 48.915Z" fill="#ADADAD"/>
<path d="M83.4304 37.6431C81.4924 37.4695 75.6111 36.9429 73.479 30.9013C72.592 33.088 72.3337 34.3239 68.3109 35.6649L67.2868 39.0823C65.6749 34.1176 67.6408 27.6639 73.2769 28.108C75.8308 24.964 89.7449 27.6639 83.7073 42.1941L83.4333 37.6433L83.4304 37.6431Z" fill="#ADADAD" stroke="#333333" stroke-linecap="round" stroke-linejoin="round" stroke-dasharray="3 3"/>
<path d="M67.0073 38.0797C68.4027 42.2659 68.1443 45.9419 72.655 48.272C74.643 49.3031 77.0188 49.2989 79.0072 48.272C82.0725 46.2708 82.3285 45.2775 84.0928 41.2212" stroke="#333333" stroke-dasharray="2 2"/>
<path d="M88.174 69.3316L87.1267 65.388" stroke="#333333" stroke-linecap="round" stroke-linejoin="round" stroke-dasharray="3 3"/>
<path fill-rule="evenodd" clip-rule="evenodd" d="M44.0386 50.0071C45.3186 57.5154 54.9196 57.5154 56.7725 50.0071C56.2378 48.4305 55.5615 47.2963 55.545 45.6591C55.545 45.6481 56.1521 42.4264 56.1521 42.4264C56.1521 42.4264 52.4066 43.1055 50.2126 43.1055C48.1509 43.1055 46.216 41.9087 44.5512 40.7621C44.5512 40.8172 45.1605 45.2916 45.1605 45.2971C45.0778 46.9233 44.3969 48.5518 44.0386 50.0071Z" fill="#E6E6E6" stroke="#333333" stroke-linecap="round" stroke-dasharray="3 3"/>
<path fill-rule="evenodd" clip-rule="evenodd" d="M50.2409 46.1765C52.5027 46.1765 54.6111 45.4093 56.4012 44.0852C57.1854 43.5056 57.9072 42.8122 58.555 42.0337C59.7428 40.6016 60.6747 38.8569 61.2601 36.9191C61.7034 35.4358 61.9477 33.8389 61.9477 32.1795C61.9477 31.5999 61.9193 31.0259 61.8625 30.4633C59.2029 30.2246 50.1159 29.6961 47.1722 21.3707C45.9504 24.3826 44.6717 25.9283 39.1252 27.7753C38.7444 29.1619 38.5342 30.6395 38.5342 32.1795C38.5342 33.0888 38.6081 33.9753 38.7444 34.8335C39.1934 37.6124 40.3243 40.1072 41.9269 42.0337C42.66 42.9202 43.4953 43.6874 44.4046 44.3125C46.1208 45.5002 48.1155 46.1765 50.2409 46.1765Z" fill="#E6E6E6"/>
<path d="M38.5391 33.898C40.0025 40.7831 41.127 42.1146 46.0361 45.2899C48.7742 46.71 52.0465 46.7043 54.7852 45.2899C60.0914 42.5489 62.6455 33.8289 62.8523 30.4181" stroke="#333333" stroke-linecap="round" stroke-dasharray="2 3"/>
<path d="M61.8626 30.4579C59.1973 30.2192 50.1103 29.6907 47.1723 21.3652C45.9505 24.3772 44.6718 25.9229 39.131 27.7698C39.3773 29.0486 38.4977 31.6099 38.7502 34.8337C34.9652 27.2036 39.131 16.9062 46.8938 17.5179C50.4114 13.1875 70.2711 14.8238 61.9553 34.8369L61.8626 30.4579Z" fill="#E6E6E6" stroke="#333333" stroke-linecap="round" stroke-linejoin="round" stroke-dasharray="3 3"/>
<path fill-rule="evenodd" clip-rule="evenodd" d="M58.3659 50.0368C61.3732 50.6658 65.6711 51.5648 68.7492 53.226C74.2901 56.2772 75.4602 65.2776 76.2798 71.5821C76.36 72.1986 76.4368 72.7894 76.514 73.3463C73.8502 74.9848 71.1908 76.5626 68.2791 77.7248C66.8525 78.2606 66.3217 78.445 65.1576 78.8195C61.9789 79.7931 58.4086 80.6131 54.9617 80.9031C54.8764 74.2588 53.3137 64.4588 50.4852 58.3399C50.9011 57.5585 51.3912 57.063 52.0164 56.4311C53.1008 55.3349 54.5918 53.8278 56.807 49.7037C57.2684 49.8072 57.7938 49.9171 58.3659 50.0368ZM50.0635 59.0146L45.7699 53.3016C44.6405 52.3735 42.8254 51.7067 41.2234 51.1181C40.3808 50.8086 39.5971 50.5207 39.0031 50.2278C35.4747 51.1767 31.7503 53.2697 29.6674 55.1156C26.3437 58.0615 25.4604 65.5758 24.8432 70.8266C24.729 71.7982 24.6239 72.6922 24.5142 73.4655C28.5355 77.5043 39.4506 80.6201 46.0571 80.9033C46.0571 74.5941 46.7967 64.3228 50.0635 59.0146Z" fill="#E6E6E6"/>
<path d="M68.7492 53.226L68.9904 52.788L68.9867 52.786L68.7492 53.226ZM58.3659 50.0368L58.2635 50.5262L58.3659 50.0368ZM76.2798 71.5821L76.7756 71.5176L76.2798 71.5821ZM76.514 73.3463L76.7759 73.7722L77.0541 73.6011L77.0092 73.2776L76.514 73.3463ZM68.2791 77.7248L68.455 78.193L68.4645 78.1892L68.2791 77.7248ZM65.1576 78.8195L65.304 79.2976L65.3107 79.2955L65.1576 78.8195ZM54.9617 80.9031L54.4617 80.9095L54.4686 81.4464L55.0036 81.4014L54.9617 80.9031ZM50.4852 58.3399L50.0438 58.105L49.9271 58.3243L50.0313 58.5497L50.4852 58.3399ZM52.0164 56.4311L52.3718 56.7828V56.7828L52.0164 56.4311ZM56.807 49.7037L56.9165 49.2159L56.5462 49.1328L56.3666 49.4671L56.807 49.7037ZM45.7699 53.3016L46.1696 53.0012L46.1336 52.9533L46.0874 52.9153L45.7699 53.3016ZM50.0635 59.0146L50.4893 59.2766L50.6679 58.9865L50.4632 58.7142L50.0635 59.0146ZM41.2234 51.1181L41.0509 51.5875V51.5875L41.2234 51.1181ZM39.0031 50.2278L39.2242 49.7794L39.0552 49.696L38.8732 49.745L39.0031 50.2278ZM29.6674 55.1156L29.3357 54.7414L29.3357 54.7414L29.6674 55.1156ZM24.8432 70.8266L25.3398 70.885L24.8432 70.8266ZM24.5142 73.4655L24.0191 73.3952L23.9841 73.6418L24.1598 73.8183L24.5142 73.4655ZM46.0571 80.9033L46.0357 81.4029L46.5571 81.4252V80.9033H46.0571ZM66.4361 51.6506C66.1772 51.5544 65.8894 51.6862 65.7932 51.9451C65.697 52.2039 65.8288 52.4918 66.0876 52.588L66.4361 51.6506ZM60.916 51.1008C61.1851 51.1627 61.4535 50.9948 61.5154 50.7257C61.5774 50.4566 61.4094 50.1882 61.1403 50.1263L60.916 51.1008ZM58.0785 49.4658C57.8082 49.4091 57.5431 49.5822 57.4864 49.8524C57.4297 50.1227 57.6028 50.3877 57.8731 50.4445L58.0785 49.4658ZM57.0903 50.2781C57.3602 50.3366 57.6264 50.1652 57.6848 49.8953C57.7433 49.6254 57.5719 49.3592 57.3021 49.3008L57.0903 50.2781ZM55.3577 51.2534C55.2163 51.4906 55.2939 51.7975 55.531 51.939C55.7682 52.0804 56.0751 52.0029 56.2166 51.7657L55.3577 51.2534ZM53.8069 55.2304C53.9841 55.0186 53.956 54.7033 53.7442 54.5261C53.5324 54.3489 53.2171 54.377 53.0399 54.5888L53.8069 55.2304ZM51.2251 56.5252C51.0344 56.725 51.0419 57.0415 51.2417 57.2321C51.4415 57.4228 51.758 57.4153 51.9486 57.2155L51.2251 56.5252ZM51.2157 58.0963C51.3714 57.8682 51.3128 57.5571 51.0847 57.4014C50.8566 57.2457 50.5455 57.3043 50.3898 57.5324L51.2157 58.0963ZM50.7667 60.296C50.8659 60.5537 51.1553 60.6822 51.413 60.583C51.6707 60.4838 51.7992 60.1944 51.7 59.9367L50.7667 60.296ZM52.9227 63.6401C52.8473 63.3745 52.5708 63.2203 52.3051 63.2957C52.0395 63.3711 51.8853 63.6476 51.9607 63.9133L52.9227 63.6401ZM52.8809 67.6251C52.9391 67.8951 53.2051 68.0668 53.475 68.0086C53.745 67.9505 53.9167 67.6845 53.8585 67.4146L52.8809 67.6251ZM54.5727 71.2318C54.529 70.9591 54.2726 70.7735 53.9999 70.8171C53.7272 70.8608 53.5416 71.1172 53.5852 71.3899L54.5727 71.2318ZM54.0949 75.1872C54.1246 75.4617 54.3713 75.6602 54.6458 75.6305C54.9203 75.6008 55.1188 75.3541 55.0891 75.0796L54.0949 75.1872ZM55.3993 78.9513C55.3855 78.6755 55.1508 78.4631 54.875 78.4768C54.5992 78.4906 54.3868 78.7253 54.4005 79.0011L55.3993 78.9513ZM57.6247 81.0884C57.8976 81.0467 58.0852 80.7917 58.0435 80.5187C58.0019 80.2457 57.7468 80.0582 57.4738 80.0998L57.6247 81.0884ZM62.5243 79.0463C62.257 79.1158 62.0967 79.3888 62.1663 79.6561C62.2358 79.9233 62.5088 80.0836 62.7761 80.014L62.5243 79.0463ZM66.1017 79.0376C66.3637 78.9505 66.5055 78.6674 66.4184 78.4054C66.3313 78.1433 66.0483 78.0015 65.7863 78.0886L66.1017 79.0376ZM67.3307 77.5448C67.0716 77.6404 66.939 77.9279 67.0346 78.187C67.1302 78.446 67.4177 78.5786 67.6768 78.483L67.3307 77.5448ZM70.6316 77.2336C70.8805 77.1139 70.9852 76.8152 70.8655 76.5663C70.7458 76.3175 70.447 76.2127 70.1982 76.3324L70.6316 77.2336ZM74.2622 74.1256C74.0247 74.2663 73.9461 74.573 74.0869 74.8106C74.2276 75.0482 74.5343 75.1267 74.7719 74.986L74.2622 74.1256ZM76.9493 72.8388C76.9125 72.5651 76.6608 72.3731 76.3871 72.41C76.1134 72.4468 75.9214 72.6985 75.9583 72.9722L76.9493 72.8388ZM75.8414 72.088C75.8772 72.3618 76.1281 72.5548 76.4019 72.5191C76.6757 72.4834 76.8688 72.2324 76.833 71.9586L75.8414 72.088ZM76.5515 69.8194C76.5143 69.5458 76.2624 69.3541 75.9888 69.3913C75.7151 69.4284 75.5234 69.6804 75.5606 69.954L76.5515 69.8194ZM75.0475 66.589C75.095 66.861 75.3541 67.0429 75.6261 66.9953C75.8981 66.9478 76.0801 66.6887 76.0325 66.4167L75.0475 66.589ZM75.3255 63.0323C75.2585 62.7644 74.9871 62.6015 74.7192 62.6684C74.4513 62.7353 74.2883 63.0068 74.3553 63.2747L75.3255 63.0323ZM73.3663 60.0614C73.4641 60.3196 73.7527 60.4497 74.011 60.3519C74.2692 60.2542 74.3993 59.9656 74.3015 59.7073L73.3663 60.0614ZM72.7723 56.5435C72.6269 56.3087 72.3187 56.2362 72.084 56.3816C71.8492 56.527 71.7767 56.8351 71.9221 57.0699L72.7723 56.5435ZM69.8303 54.5794C70.0408 54.7582 70.3563 54.7325 70.5351 54.5221C70.7139 54.3116 70.6882 53.9961 70.4778 53.8173L69.8303 54.5794ZM44.9609 52.1637C44.7197 52.0292 44.4152 52.1158 44.2808 52.357C44.1463 52.5982 44.2329 52.9028 44.4741 53.0372L44.9609 52.1637ZM42.2299 52.0277C42.4875 52.1271 42.7769 51.9987 42.8762 51.7411C42.9756 51.4834 42.8472 51.194 42.5896 51.0947L42.2299 52.0277ZM40.8364 50.4424C40.5776 50.3461 40.2897 50.4779 40.1934 50.7367C40.0971 50.9955 40.2288 51.2834 40.4876 51.3797L40.8364 50.4424ZM39.353 50.9354C39.6073 51.043 39.9007 50.9241 40.0083 50.6698C40.1159 50.4155 39.997 50.1221 39.7427 50.0145L39.353 50.9354ZM36.303 50.6114C36.0468 50.7142 35.9224 51.0054 36.0253 51.2617C36.1282 51.5179 36.4193 51.6422 36.6756 51.5394L36.303 50.6114ZM32.0607 53.94C32.2918 53.7888 32.3565 53.4789 32.2053 53.2479C32.0541 53.0168 31.7442 52.9521 31.5131 53.1033L32.0607 53.94ZM27.9126 56.4497C27.7644 56.6828 27.8333 56.9918 28.0663 57.1399C28.2993 57.2881 28.6083 57.2193 28.7565 56.9862L27.9126 56.4497ZM27.1471 60.6892C27.2279 60.4251 27.0793 60.1456 26.8152 60.0648C26.5511 59.9841 26.2716 60.1327 26.1908 60.3968L27.1471 60.6892ZM25.2194 64.5238C25.17 64.7955 25.3503 65.0557 25.622 65.105C25.8937 65.1543 26.154 64.9741 26.2033 64.7024L25.2194 64.5238ZM25.5893 68.8125C25.6238 68.5385 25.4296 68.2885 25.1557 68.254C24.8817 68.2195 24.6316 68.4137 24.5972 68.6877L25.5893 68.8125ZM24.2688 71.4281C24.2363 71.7023 24.4322 71.951 24.7065 71.9835C24.9807 72.016 25.2293 71.8201 25.2619 71.5459L24.2688 71.4281ZM25.0991 72.8709C25.1345 72.5971 24.9413 72.3463 24.6674 72.3109C24.3936 72.2754 24.1428 72.4687 24.1073 72.7425L25.0991 72.8709ZM25.6988 75.1072C25.9234 75.268 26.2357 75.2163 26.3965 74.9918C26.5572 74.7673 26.5056 74.4549 26.281 74.2942L25.6988 75.1072ZM29.5451 76.1777C29.296 76.0584 28.9975 76.1637 28.8782 76.4127C28.759 76.6618 28.8642 76.9604 29.1133 77.0796L29.5451 76.1777ZM32.7227 78.5756C32.9825 78.6692 33.2689 78.5345 33.3625 78.2747C33.4561 78.0149 33.3214 77.7284 33.0616 77.6348L32.7227 78.5756ZM36.7031 78.7871C36.4369 78.7136 36.1616 78.8699 36.0881 79.1361C36.0147 79.4023 36.1709 79.6776 36.4371 79.751L36.7031 78.7871ZM40.2262 80.6512C40.497 80.7052 40.7603 80.5293 40.8142 80.2585C40.8681 79.9877 40.6923 79.7244 40.4215 79.6705L40.2262 80.6512ZM44.1882 80.2578C43.9137 80.2282 43.6671 80.4267 43.6375 80.7013C43.6079 80.9758 43.8064 81.2224 44.081 81.252L44.1882 80.2578ZM46.578 79.0416C46.5841 78.7655 46.3653 78.5367 46.0892 78.5306C45.8131 78.5245 45.5844 78.7434 45.5783 79.0194L46.578 79.0416ZM45.7426 75.2568C45.7245 75.5323 45.9333 75.7703 46.2088 75.7884C46.4844 75.8065 46.7224 75.5978 46.7405 75.3223L45.7426 75.2568ZM47.0731 71.6154C47.1048 71.341 46.9081 71.093 46.6338 71.0613C46.3595 71.0296 46.1114 71.2262 46.0797 71.5006L47.0731 71.6154ZM46.6268 67.7623C46.5777 68.0341 46.7582 68.2942 47.0299 68.3433C47.3016 68.3924 47.5618 68.212 47.6109 67.9402L46.6268 67.7623ZM48.4241 64.3312C48.498 64.0652 48.3423 63.7895 48.0762 63.7156C47.8101 63.6417 47.5345 63.7974 47.4606 64.0635L48.4241 64.3312ZM48.7365 60.4643C48.6225 60.7158 48.7341 61.0121 48.9856 61.126C49.2371 61.24 49.5334 61.1284 49.6474 60.8769L48.7365 60.4643ZM49.3898 57.2859C49.2239 57.0652 48.9105 57.0207 48.6897 57.1866C48.469 57.3525 48.4245 57.666 48.5904 57.8867L49.3898 57.2859ZM46.4436 55.0302C46.6095 55.251 46.923 55.2954 47.1437 55.1295C47.3645 54.9636 47.4089 54.6502 47.243 54.4294L46.4436 55.0302ZM68.9867 52.786C68.195 52.3587 67.3308 51.9832 66.4361 51.6506L66.0876 52.588C66.9507 52.9088 67.7706 53.266 68.5117 53.666L68.9867 52.786ZM61.1403 50.1263C60.1864 49.9067 59.2779 49.7167 58.4682 49.5474L58.2635 50.5262C59.0741 50.6958 59.9732 50.8838 60.916 51.1008L61.1403 50.1263ZM58.4682 49.5474C58.3356 49.5196 58.2056 49.4925 58.0785 49.4658L57.8731 50.4445C58.0006 50.4712 58.1309 50.4985 58.2635 50.5262L58.4682 49.5474ZM57.3021 49.3008C57.1688 49.2719 57.0402 49.2436 56.9165 49.2159L56.6976 50.1916C56.8241 50.22 56.9552 50.2488 57.0903 50.2781L57.3021 49.3008ZM56.3666 49.4671C56.0113 50.1284 55.6755 50.7207 55.3577 51.2534L56.2166 51.7657C56.5426 51.2191 56.8858 50.6138 57.2475 49.9403L56.3666 49.4671ZM53.0399 54.5888C52.5172 55.2137 52.0666 55.6694 51.6609 56.0795L52.3718 56.7828C52.7789 56.3712 53.2552 55.89 53.8069 55.2304L53.0399 54.5888ZM51.6609 56.0795C51.5108 56.2312 51.3646 56.3789 51.2251 56.5252L51.9486 57.2155C52.0808 57.077 52.2204 56.9358 52.3718 56.7828L51.6609 56.0795ZM50.3898 57.5324C50.2688 57.7096 50.1537 57.8985 50.0438 58.105L50.9266 58.5748C51.019 58.4012 51.1151 58.2437 51.2157 58.0963L50.3898 57.5324ZM50.0313 58.5497C50.2864 59.1015 50.5316 59.6852 50.7667 60.296L51.7 59.9367C51.4579 59.308 51.2043 58.7039 50.9391 58.1301L50.0313 58.5497ZM51.9607 63.9133C52.3007 65.1106 52.6078 66.3571 52.8809 67.6251L53.8585 67.4146C53.5814 66.1279 53.2692 64.8604 52.9227 63.6401L51.9607 63.9133ZM53.5852 71.3899C53.7905 72.6717 53.9607 73.9467 54.0949 75.1872L55.0891 75.0796C54.9531 73.8223 54.7806 72.5305 54.5727 71.2318L53.5852 71.3899ZM54.4005 79.0011C54.4335 79.6613 54.4539 80.2993 54.4617 80.9095L55.4616 80.8967C55.4536 80.2731 55.4328 79.6228 55.3993 78.9513L54.4005 79.0011ZM55.0036 81.4014C55.8734 81.3282 56.7498 81.2218 57.6247 81.0884L57.4738 80.0998C56.619 80.2302 55.765 80.3338 54.9198 80.4049L55.0036 81.4014ZM62.7761 80.014C63.639 79.7895 64.4846 79.5486 65.304 79.2976L65.0111 78.3414C64.2044 78.5885 63.3726 78.8255 62.5243 79.0463L62.7761 80.014ZM65.3107 79.2955C65.6058 79.2005 65.8614 79.1174 66.1017 79.0376L65.7863 78.0886C65.5503 78.167 65.2981 78.249 65.0044 78.3435L65.3107 79.2955ZM67.6768 78.483C67.9077 78.3978 68.1629 78.3026 68.4549 78.1929L68.1033 77.2568C67.8123 77.3661 67.5592 77.4605 67.3307 77.5448L67.6768 78.483ZM68.4645 78.1892C69.2026 77.8946 69.9237 77.5741 70.6316 77.2336L70.1982 76.3324C69.5084 76.6642 68.8083 76.9753 68.0938 77.2605L68.4645 78.1892ZM74.7719 74.986C75.4434 74.5882 76.1104 74.1816 76.7759 73.7722L76.252 72.9204C75.5884 73.3286 74.9268 73.732 74.2622 74.1256L74.7719 74.986ZM77.0092 73.2776C76.9893 73.1337 76.9693 72.9874 76.9493 72.8388L75.9583 72.9722C75.9784 73.1219 75.9985 73.2695 76.0187 73.415L77.0092 73.2776ZM76.833 71.9586C76.8141 71.8132 76.7949 71.6662 76.7756 71.5176L75.784 71.6465C75.8033 71.7951 75.8224 71.9423 75.8414 72.088L76.833 71.9586ZM76.7756 71.5176C76.7046 70.9711 76.6307 70.4027 76.5515 69.8194L75.5606 69.954C75.6393 70.534 75.7129 71.0996 75.784 71.6465L76.7756 71.5176ZM76.0325 66.4167C75.8362 65.294 75.6058 64.1543 75.3255 63.0323L74.3553 63.2747C74.6284 64.3679 74.8541 65.4833 75.0475 66.589L76.0325 66.4167ZM74.3015 59.7073C73.8764 58.5843 73.3737 57.5148 72.7723 56.5435L71.9221 57.0699C72.4826 57.9752 72.9586 58.9843 73.3663 60.0614L74.3015 59.7073ZM70.4778 53.8173C70.0194 53.4279 69.5246 53.0822 68.9904 52.788L68.508 53.664C68.9805 53.9242 69.4203 54.231 69.8303 54.5794L70.4778 53.8173ZM46.0874 52.9153C45.7517 52.6395 45.3682 52.3906 44.9609 52.1637L44.4741 53.0372C44.8454 53.2441 45.1755 53.4603 45.4525 53.6879L46.0874 52.9153ZM42.5896 51.0947C42.1858 50.939 41.7824 50.7908 41.3958 50.6488L41.0509 51.5875C41.4388 51.7299 41.8347 51.8754 42.2299 52.0277L42.5896 51.0947ZM41.3958 50.6488C41.205 50.5787 41.0183 50.5101 40.8364 50.4424L40.4876 51.3797C40.6719 51.4482 40.8605 51.5175 41.0509 51.5875L41.3958 50.6488ZM39.7427 50.0145C39.5542 49.9347 39.3808 49.8566 39.2242 49.7794L38.7819 50.6763C38.9603 50.7642 39.152 50.8504 39.353 50.9354L39.7427 50.0145ZM38.8732 49.745C38.0166 49.9753 37.1516 50.2706 36.303 50.6114L36.6756 51.5394C37.4923 51.2115 38.3194 50.9294 39.1329 50.7106L38.8732 49.745ZM31.5131 53.1033C30.6871 53.6438 29.9466 54.2001 29.3357 54.7414L29.999 55.4898C30.5663 54.987 31.2665 54.4597 32.0607 53.94L31.5131 53.1033ZM29.3357 54.7414C28.7976 55.2183 28.3268 55.7982 27.9126 56.4497L28.7565 56.9862C29.1317 56.3961 29.5446 55.8925 29.999 55.4897L29.3357 54.7414ZM26.1908 60.3968C25.7891 61.7102 25.4749 63.1159 25.2194 64.5238L26.2033 64.7024C26.4544 63.3189 26.7604 61.9538 27.1471 60.6892L26.1908 60.3968ZM24.5972 68.6877C24.5064 69.409 24.4243 70.1077 24.3466 70.7683L25.3398 70.885C25.4175 70.2239 25.4992 69.5291 25.5893 68.8125L24.5972 68.6877ZM24.3466 70.7683C24.3202 70.9927 24.2944 71.2128 24.2688 71.4281L25.2619 71.5459C25.2875 71.3299 25.3134 71.1094 25.3398 70.885L24.3466 70.7683ZM24.1073 72.7425C24.078 72.969 24.0487 73.1868 24.0191 73.3952L25.0092 73.5358C25.0395 73.3224 25.0693 73.1005 25.0991 72.8709L24.1073 72.7425ZM24.1598 73.8183C24.6039 74.2643 25.1223 74.6944 25.6988 75.1072L26.281 74.2942C25.7399 73.9067 25.2659 73.5118 24.8685 73.1127L24.1598 73.8183ZM29.1133 77.0796C30.2402 77.6191 31.4583 78.1202 32.7227 78.5756L33.0616 77.6348C31.8237 77.1889 30.6372 76.7005 29.5451 76.1777L29.1133 77.0796ZM36.4371 79.751C37.7069 80.1014 38.9832 80.4037 40.2262 80.6512L40.4215 79.6705C39.2025 79.4278 37.9498 79.1311 36.7031 78.7871L36.4371 79.751ZM44.081 81.252C44.7618 81.3254 45.4163 81.3763 46.0357 81.4029L46.0786 80.4038C45.4833 80.3783 44.8504 80.3292 44.1882 80.2578L44.081 81.252ZM46.5571 80.9033C46.5571 80.3151 46.5636 79.6921 46.578 79.0416L45.5783 79.0194C45.5637 79.6774 45.5571 80.3078 45.5571 80.9033H46.5571ZM46.7405 75.3223C46.8198 74.114 46.9284 72.867 47.0731 71.6154L46.0797 71.5006C45.9329 72.7705 45.8229 74.034 45.7426 75.2568L46.7405 75.3223ZM47.6109 67.9402C47.8363 66.6935 48.1051 65.4789 48.4241 64.3312L47.4606 64.0635C47.1319 65.2461 46.8566 66.4913 46.6268 67.7623L47.6109 67.9402ZM49.6474 60.8769C49.9084 60.3007 50.1887 59.7651 50.4893 59.2766L49.6377 58.7525C49.3118 59.282 49.0122 59.8556 48.7365 60.4643L49.6474 60.8769ZM50.4632 58.7142L49.3898 57.2859L48.5904 57.8867L49.6638 59.315L50.4632 58.7142ZM47.243 54.4294L46.1696 53.0012L45.3702 53.602L46.4436 55.0302L47.243 54.4294Z" fill="#333333"/>
<path fill-rule="evenodd" clip-rule="evenodd" d="M38.0791 50.5014C39.4321 52.7228 39.767 53.7396 41.5522 55.653C43.0715 57.2814 44.2315 58.2071 45.1939 57.3776C45.4146 57.1874 49.1183 53.5008 50.3551 51.9786C51.6514 53.6459 52.9689 54.7818 54.2939 56.488C54.9383 57.1968 56.1295 58.2202 57.1378 57.7164C57.6966 57.4182 59.1421 55.6689 59.8662 54.6547C61.0815 52.9481 61.3834 52.3083 62.4023 50.4776C60.7403 49.9107 58.2534 49.1013 56.5129 48.8388C53.7247 51.7165 47.2122 51.8177 44.2772 48.8388C42.5188 49.0836 39.7535 49.9339 38.0791 50.5014Z" fill="#E6E6E6" stroke="#333333" stroke-linecap="round" stroke-dasharray="4 4"/>
<path fill-rule="evenodd" clip-rule="evenodd" d="M55.1148 80.8921C55.0224 73.9449 55.1367 65.9427 52.2385 59.4932L54.0644 56.1804C52.383 53.4601 51.3719 51.3746 50.4264 51.3123C49.4989 51.3122 48.3334 53.9047 46.4069 56.1413L48.595 59.4932C45.4812 66.3322 45.892 73.5842 45.7559 80.8921C48.1803 81.0969 51.7493 81.3284 55.1148 80.8921Z" fill="#E6E6E6" stroke="#333333" stroke-linecap="round" stroke-dasharray="4 4"/>
<path d="M53.8391 56.5513C50.9745 62.6176 49.2052 60.7218 46.6775 56.5513" stroke="#333333" stroke-linecap="round"/>
</svg>
