<svg width="100" height="100" viewBox="0 0 100 100" fill="none" xmlns="http://www.w3.org/2000/svg">
<path fill-rule="evenodd" clip-rule="evenodd" d="M83.037 3.25713C82.1464 2.45522 80.9999 2 79.7984 2H28.9754L10.9937 19.9702V89.6642C10.9937 90.5842 11.2521 91.4542 11.6893 92.1842C12.0669 92.8142 12.5836 93.3442 13.1898 93.7542C13.8257 94.1742 13.3587 95.0542 12.7029 94.6242C11.9476 94.1342 11.3117 93.4742 10.8446 92.7042C10.308 91.8142 10 90.7742 10 89.6642V19.5501C16.2802 13.2201 22.2883 7.32 28.5685 1H79.7885C80.6232 1 81.4182 1.18 82.1435 1.5C82.7497 1.77 83.3153 2.15714 83.7922 2.60713C84.3288 3.10713 83.6531 3.80713 83.037 3.25713Z" fill="#333333"/>
<path fill-rule="evenodd" clip-rule="evenodd" d="M11 64.924V89.6446C11 92.5856 13.3638 95 16.2648 95H79.7352C82.6264 95 85 92.5955 85 89.6446V85.5907V27.1378V8.95513V7.35545C85 4.40449 82.6264 2 79.7352 2H29L11 20V64.924Z" fill="#ADADAD"/>
<path fill-rule="evenodd" clip-rule="evenodd" d="M26.0049 20C27.6617 20 29.0049 18.6569 29.0049 17V2L11.0049 20H26.0049Z" fill="#545454"/>
<path d="M29.5049 2C29.5049 1.79777 29.3831 1.61545 29.1962 1.53806C29.0094 1.46067 28.7943 1.50345 28.6513 1.64645L10.6513 19.6464C10.5083 19.7894 10.4656 20.0045 10.5429 20.1913C10.6203 20.3782 10.8027 20.5 11.0049 20.5H26.0049C27.9379 20.5 29.5049 18.933 29.5049 17V2Z" stroke="#333333" stroke-linejoin="round"/>
<path d="M19.5 93.6451V68.9272V27.7656L37.7954 9.5H86.5929C89.3002 9.5 91.5 11.6943 91.5 14.3549V15.9544V34.1351V89.5917V93.6451C91.5 96.3145 89.2914 98.5 86.5929 98.5H24.4071C21.6998 98.5 19.5 96.3057 19.5 93.6451Z" fill="#333333"/>
<path d="M19.5 93.6451V68.9272V27.7656L37.7954 9.5H86.5929C89.3002 9.5 91.5 11.6943 91.5 14.3549V15.9544V34.1351V89.5917V93.6451C91.5 96.3145 89.2914 98.5 86.5929 98.5H24.4071C21.6998 98.5 19.5 96.3057 19.5 93.6451Z" fill="white" fill-opacity="0.88"/>
<path d="M19.5 93.6451V68.9272V27.7656L37.7954 9.5H86.5929C89.3002 9.5 91.5 11.6943 91.5 14.3549V15.9544V34.1351V89.5917V93.6451C91.5 96.3145 89.2914 98.5 86.5929 98.5H24.4071C21.6998 98.5 19.5 96.3057 19.5 93.6451Z" stroke="#333333"/>
<path d="M38.4971 10.002C38.4971 9.79972 38.3752 9.6174 38.1884 9.54001C38.0016 9.46262 37.7865 9.5054 37.6435 9.6484L19.6435 27.6484C19.5005 27.7914 19.4577 28.0065 19.5351 28.1933C19.6125 28.3801 19.7948 28.502 19.9971 28.502H34.9971C36.9301 28.502 38.4971 26.935 38.4971 25.002V10.002Z" fill="#E07751" stroke="#333333" stroke-linejoin="round"/>
<path fill-rule="evenodd" clip-rule="evenodd" d="M56.5 87C42.9695 87 32 76.0305 32 62.5C32 48.9695 42.9695 38 56.5 38C70.0305 38 81 48.9695 81 62.5C81.0107 76.0305 70.0411 87 56.5 87Z" fill="#333333"/>
<path fill-rule="evenodd" clip-rule="evenodd" d="M56.5 86C43.5218 86 33 75.4782 33 62.5C33 49.5218 43.5218 39 56.5 39C69.4782 39 80 49.5218 80 62.5C80.0102 75.4782 69.4884 86 56.5 86Z" fill="#E07751"/>
<path d="M65.4811 48.9178L65.456 48.8927L65.4276 48.8714C64.8972 48.4735 64.1296 48.4118 63.6237 48.9178L56.5001 56.0414L49.3765 48.9178C48.8706 48.4118 48.1031 48.4735 47.5727 48.8714L47.5442 48.8927L47.5191 48.9178L42.9178 53.5191L42.8927 53.5442L42.8714 53.5727C42.4735 54.1031 42.4118 54.8706 42.9178 55.3765L43.268 55.0264L42.9178 55.3765L50.0414 62.5001L42.9178 69.6237L42.8927 69.6488L42.8714 69.6772C42.4735 70.2076 42.4118 70.9752 42.9178 71.4811L47.5191 76.0824L47.5442 76.1075L47.5727 76.1289C48.1031 76.5267 48.8706 76.5884 49.3765 76.0824L56.5001 68.9588L63.6237 76.0824L63.6488 76.1075L63.6772 76.1289C64.2077 76.5267 64.9752 76.5884 65.4811 76.0824L70.0824 71.4811L70.1076 71.456L70.1289 71.4276C70.5267 70.8971 70.5884 70.1296 70.0824 69.6237L62.9589 62.5001L70.0824 55.3765L70.1076 55.3514L70.1289 55.323C70.5267 54.7926 70.5884 54.0251 70.0824 53.5191L65.4811 48.9178Z" fill="white" stroke="#333333"/>
</svg>
