<svg width="100" height="100" viewBox="0 0 100 100" fill="none" xmlns="http://www.w3.org/2000/svg">
<path fill-rule="evenodd" clip-rule="evenodd" d="M78.037 5.25713C77.1464 4.45522 75.9999 4 74.7984 4H23.9754L5.9937 21.9702V91.6642C5.9937 92.5842 6.25206 93.4542 6.68928 94.1842C7.06689 94.8142 7.58361 95.3442 8.18977 95.7542C8.82573 96.1742 8.35869 97.0542 7.70285 96.6242C6.94765 96.1342 6.31168 95.4742 5.84464 94.7042C5.30805 93.8142 5 92.7742 5 91.6642V21.5501C11.2802 15.2201 17.2883 9.32 23.5685 3H74.7885C75.6232 3 76.4182 3.18 77.1435 3.5C77.7497 3.77 78.3153 4.15714 78.7922 4.60713C79.3288 5.10713 78.6531 5.80713 78.037 5.25713Z" fill="#333333"/>
<path fill-rule="evenodd" clip-rule="evenodd" d="M6 66.924V91.6446C6 94.5856 8.36378 97 11.2648 97H74.7352C77.6264 97 80 94.5955 80 91.6446V87.5907V29.1378V10.9551V9.35545C80 6.40449 77.6264 4 74.7352 4H24L6 22V66.924Z" fill="#ADADAD"/>
<path fill-rule="evenodd" clip-rule="evenodd" d="M21.0049 22C22.6617 22 24.0049 20.6569 24.0049 19V4L6.00488 22H21.0049Z" fill="#545454"/>
<path d="M24.5049 4C24.5049 3.79777 24.3831 3.61545 24.1962 3.53806C24.0094 3.46067 23.7943 3.50345 23.6513 3.64645L5.65133 21.6464C5.50833 21.7894 5.46555 22.0045 5.54294 22.1913C5.62033 22.3782 5.80265 22.5 6.00488 22.5H21.0049C22.9379 22.5 24.5049 20.933 24.5049 19V4Z" stroke="#333333" stroke-linejoin="round"/>
<path d="M18.5 93.6451V68.9272V27.7656L36.7954 9.5H85.5929C88.3002 9.5 90.5 11.6943 90.5 14.3549V15.9544V34.1351V89.5917V93.6451C90.5 96.3145 88.2914 98.5 85.5929 98.5H23.4071C20.6998 98.5 18.5 96.3057 18.5 93.6451Z" fill="#333333"/>
<path d="M18.5 93.6451V68.9272V27.7656L36.7954 9.5H85.5929C88.3002 9.5 90.5 11.6943 90.5 14.3549V15.9544V34.1351V89.5917V93.6451C90.5 96.3145 88.2914 98.5 85.5929 98.5H23.4071C20.6998 98.5 18.5 96.3057 18.5 93.6451Z" fill="white" fill-opacity="0.88"/>
<path d="M18.5 93.6451V68.9272V27.7656L36.7954 9.5H85.5929C88.3002 9.5 90.5 11.6943 90.5 14.3549V15.9544V34.1351V89.5917V93.6451C90.5 96.3145 88.2914 98.5 85.5929 98.5H23.4071C20.6998 98.5 18.5 96.3057 18.5 93.6451Z" stroke="#333333"/>
<path d="M37.4971 10.002C37.4971 9.79972 37.3752 9.6174 37.1884 9.54001C37.0016 9.46262 36.7865 9.5054 36.6435 9.6484L18.6435 27.6484C18.5005 27.7914 18.4577 28.0065 18.5351 28.1933C18.6125 28.3801 18.7948 28.502 18.9971 28.502H33.9971C35.9301 28.502 37.4971 26.935 37.4971 25.002V10.002Z" fill="#E07751" stroke="#333333" stroke-linejoin="round"/>
<path d="M55.4991 86.5C42.7981 86.5 32.5 76.2015 32.5 63.5C32.5 50.7985 42.7981 40.5 55.4991 40.5C68.2 40.5 78.4981 50.7984 78.4982 63.4997C78.4916 76.2016 68.1932 86.5 55.4991 86.5Z" fill="#333333"/>
<path d="M55.4991 86.5C42.7981 86.5 32.5 76.2015 32.5 63.5C32.5 50.7985 42.7981 40.5 55.4991 40.5C68.2 40.5 78.4981 50.7984 78.4982 63.4997C78.4916 76.2016 68.1932 86.5 55.4991 86.5Z" fill="white" fill-opacity="0.88"/>
<path d="M55.4991 86.5C42.7981 86.5 32.5 76.2015 32.5 63.5C32.5 50.7985 42.7981 40.5 55.4991 40.5C68.2 40.5 78.4981 50.7984 78.4982 63.4997C78.4916 76.2016 68.1932 86.5 55.4991 86.5Z" stroke="#333333"/>
<path d="M35.5869 63.4992C35.5869 74.4957 44.5024 83.4115 55.4985 83.4115C66.4946 83.4115 75.4101 74.4957 75.4101 63.4992C75.4101 52.5028 66.4946 43.5869 55.4985 43.5869C44.5024 43.5869 35.5869 52.5028 35.5869 63.4992Z" fill="#E07751" stroke="#333333"/>
<path fill-rule="evenodd" clip-rule="evenodd" d="M55.4984 65.5429C54.3678 65.5429 53.4551 64.6301 53.4551 63.4995C53.4551 62.3688 54.3678 61.4561 55.4984 61.4561C56.629 61.4561 57.5417 62.3688 57.5417 63.4995C57.5314 64.6301 56.6186 65.5429 55.4984 65.5429Z" fill="#333333"/>
<path fill-rule="evenodd" clip-rule="evenodd" d="M55.4984 65.5429C54.3678 65.5429 53.4551 64.6301 53.4551 63.4995C53.4551 62.3688 54.3678 61.4561 55.4984 61.4561C56.629 61.4561 57.5417 62.3688 57.5417 63.4995C57.5314 64.6301 56.6186 65.5429 55.4984 65.5429Z" fill="white" fill-opacity="0.88"/>
<path d="M55.498 55.3232V63.4968" stroke="#333333" stroke-width="2" stroke-linecap="round"/>
<path d="M55.498 55.3232V63.4968" stroke="white" stroke-opacity="0.88" stroke-width="2" stroke-linecap="round"/>
<path d="M65.7678 73.7668L55.498 63.4971" stroke="#333333" stroke-linecap="round"/>
<path d="M65.7678 73.7668L55.498 63.4971" stroke="white" stroke-opacity="0.88" stroke-linecap="round"/>
</svg>
