<svg width="75" height="75" viewBox="0 0 75 75" fill="none" xmlns="http://www.w3.org/2000/svg">
<g clip-path="url(#clip0_14263_108783)">
<path fill-rule="evenodd" clip-rule="evenodd" d="M37.5 56.2417C51.5454 56.2417 63 44.7329 63 30.6209C63 16.5089 51.5454 5 37.5 5C23.4546 5 12 16.5089 12 30.6209C12 44.7329 23.4546 56.2417 37.5 56.2417Z" fill="#ADADAD"/>
<path fill-rule="evenodd" clip-rule="evenodd" d="M16.1105 40.8219C17.505 40.8219 18.7994 40.3525 19.905 39.5406C20.3883 39.1871 20.8327 38.7619 21.2327 38.2869C21.9661 37.4087 22.5383 36.3428 22.8994 35.1554C23.1716 34.2496 23.3216 33.272 23.3216 32.2503C23.3216 31.8968 23.305 31.5434 23.2661 31.2009C21.6272 31.0573 16.0327 30.7315 14.2216 25.6338C13.4661 27.4785 12.6827 28.4229 9.26608 29.5551C9.03275 30.4056 8.89941 31.3114 8.89941 32.2503C8.89941 32.8081 8.94386 33.3494 9.02719 33.8796C9.30497 35.5806 9.99941 37.105 10.9883 38.2869C11.4383 38.8281 11.955 39.2976 12.5105 39.6842C13.5772 40.4077 14.805 40.8219 16.1105 40.8219Z" fill="#333333"/>
<path fill-rule="evenodd" clip-rule="evenodd" d="M16.1105 40.8219C17.505 40.8219 18.7994 40.3525 19.905 39.5406C20.3883 39.1871 20.8327 38.7619 21.2327 38.2869C21.9661 37.4087 22.5383 36.3428 22.8994 35.1554C23.1716 34.2496 23.3216 33.272 23.3216 32.2503C23.3216 31.8968 23.305 31.5434 23.2661 31.2009C21.6272 31.0573 16.0327 30.7315 14.2216 25.6338C13.4661 27.4785 12.6827 28.4229 9.26608 29.5551C9.03275 30.4056 8.89941 31.3114 8.89941 32.2503C8.89941 32.8081 8.94386 33.3494 9.02719 33.8796C9.30497 35.5806 9.99941 37.105 10.9883 38.2869C11.4383 38.8281 11.955 39.2976 12.5105 39.6842C13.5772 40.4077 14.805 40.8219 16.1105 40.8219Z" fill="white" fill-opacity="0.88"/>
<path fill-rule="evenodd" clip-rule="evenodd" d="M14.2217 25.6328C16.0328 30.7305 21.6272 31.0508 23.2661 31.1999C23.2995 31.5423 23.3217 31.8958 23.3217 32.2493C23.3217 33.2655 23.1717 34.2486 22.8995 35.1544C27.8717 22.3135 16.0217 20.7836 14.055 23.28C9.2939 23.2137 6.79945 29.0404 9.03834 33.8786C8.95501 33.3539 8.91057 32.8071 8.91057 32.2493C8.91057 31.3104 9.03834 30.3991 9.27168 29.5541C12.6828 28.4219 13.4661 27.4775 14.2217 25.6328Z" fill="#858585"/>
<path fill-rule="evenodd" clip-rule="evenodd" d="M23.5281 31.1729C23.5448 31.3552 23.5614 31.5319 23.567 31.7142L23.5781 31.9682C24.117 29.3227 23.7836 27.3289 22.9781 25.8709C22.4003 24.8215 21.5725 24.0483 20.6503 23.5181C19.7225 22.9824 18.7059 22.6841 17.7448 22.5792C16.1836 22.4135 14.7948 22.7615 14.2559 23.4408L14.1781 23.5402H14.0503C13.2614 23.5292 12.5392 23.6893 11.8892 23.9876C10.8448 24.4681 10.0003 25.3075 9.41142 26.3514C8.81697 27.4118 8.48364 28.6821 8.46697 30.0131C8.46142 30.6261 8.51697 31.2502 8.65031 31.8799C8.66142 31.5319 8.69475 31.1895 8.7392 30.8526C8.80031 30.3831 8.89475 29.9303 9.01697 29.4884L9.05586 29.3559L9.1892 29.3117C10.8614 28.7594 11.8836 28.2513 12.5725 27.6658C13.2503 27.0915 13.617 26.4232 13.9781 25.5395L14.2392 24.8988L14.4725 25.5506C16.1725 30.3334 21.3614 30.7753 23.1336 30.9244L23.5114 30.9575L23.5281 31.1729ZM23.0448 31.7418L23.0281 31.4435C21.1948 31.2889 16.2003 30.8139 14.2114 26.3182C13.8892 26.9976 13.5114 27.5554 12.9114 28.0635C12.1892 28.6765 11.1448 29.2012 9.48364 29.759C9.38364 30.1346 9.30586 30.5212 9.25586 30.9189C9.20031 31.3497 9.16697 31.797 9.16697 32.2554C9.16697 32.526 9.17809 32.7911 9.20031 33.0507C9.22253 33.3213 9.25586 33.5864 9.29475 33.8405L9.60031 35.7238L8.79475 33.9896C8.19475 32.6917 7.92253 31.322 7.9392 30.0076C7.95586 28.5827 8.31142 27.2295 8.95031 26.0973C9.5892 24.9541 10.517 24.0373 11.667 23.5126C12.3448 23.2033 13.1059 23.0266 13.9281 23.021C14.617 22.2699 16.1336 21.8888 17.8003 22.06C18.8336 22.1705 19.9225 22.4908 20.917 23.0652C21.9114 23.6451 22.8114 24.4791 23.4392 25.6223C24.5948 27.7155 24.8448 30.8305 23.1448 35.2323L23.1392 35.2544L22.6392 35.0832C22.7725 34.6358 22.8781 34.1719 22.9503 33.6969C23.017 33.233 23.0559 32.747 23.0559 32.2554C23.0614 32.0732 23.0559 31.9019 23.0448 31.7418Z" fill="#333333"/>
<path fill-rule="evenodd" clip-rule="evenodd" d="M26.8834 45.1625C26.3278 44.8698 25.7445 44.5881 25.1945 44.3451C24.4167 43.9971 23.6945 43.7155 23.1889 43.5332C22.8056 44.2346 22.4167 44.8256 21.9834 45.4938C21.7056 45.9136 21.4667 46.2836 21.2278 46.6261C21.0056 46.9464 20.8111 47.206 20.6278 47.3993C20.4722 47.565 20.3278 47.6865 20.1778 47.7638C20.0445 47.8356 19.9056 47.8687 19.7556 47.8632C19.6778 47.8632 19.6 47.8466 19.5222 47.8245C19.4445 47.8024 19.3667 47.7638 19.2945 47.7141C19.2056 47.6589 19.1111 47.587 19.0167 47.5042C18.9222 47.4214 18.8222 47.3164 18.7111 47.1949C18.5278 46.9961 18.35 46.7917 18.1667 46.5929C18.1222 46.5266 18.0778 46.4714 18.0278 46.4107C18.0722 46.4714 18.1167 46.5377 18.1611 46.604L18.0167 46.9353C18.0056 46.9574 17.9945 46.9851 17.9834 47.0071L17.4111 48.3437C17.6556 48.8684 17.8611 49.4759 18.0334 50.1442L18.3 51.4034C18.4445 52.2319 18.5556 53.121 18.6389 53.9937C18.7389 55.0265 18.8056 56.0648 18.8445 56.9761C18.8889 57.8984 18.9111 58.6827 18.9222 59.246L18.9389 59.9032V60.5881C21.2167 60.3672 23.2611 60.0082 25.2111 59.4227C25.9222 59.1963 26.25 59.0858 27.1222 58.76C28.6445 58.1635 30.1278 57.4013 31.6445 56.4348L32.1722 56.1145L31.8556 53.8777C31.6667 52.7897 31.2334 50.9395 30.6111 49.3268C30.3445 48.6751 30.0334 48.0289 29.6667 47.3882C29.4611 47.0734 29.2445 46.8028 29.0111 46.5984C28.4778 46.1124 27.7278 45.6209 26.8834 45.1625Z" fill="#CCCCCC"/>
<path fill-rule="evenodd" clip-rule="evenodd" d="M13.6221 56.9651C13.6665 56.0041 13.7332 54.9768 13.8332 53.9606C13.861 53.6899 13.8888 53.4248 13.9165 53.1542C14.0054 52.3921 14.1165 51.6354 14.2554 50.9285C14.4388 49.9896 14.6776 49.1501 14.9721 48.526L15.0832 48.294L14.711 47.5208L14.2776 46.6371C14.2554 46.6592 14.2388 46.6813 14.2165 46.7034C14.0721 46.8691 13.9221 47.0293 13.7776 47.195C13.6721 47.3165 13.5665 47.4214 13.4721 47.5042C13.3832 47.5871 13.2888 47.6589 13.1999 47.7141C13.1221 47.7583 13.0443 47.797 12.9665 47.8246C12.8943 47.8467 12.8165 47.8632 12.7332 47.8632C12.5832 47.8688 12.4443 47.8356 12.311 47.7638C12.1665 47.6865 12.0165 47.565 11.861 47.3993C11.7221 47.2502 11.5721 47.0569 11.4054 46.8304C11.2388 46.5985 11.061 46.3389 10.8665 46.0462C10.3165 45.2177 9.77209 44.4059 9.26654 43.5498C7.05543 44.312 4.72209 45.4387 3.44431 46.5819C1.96098 47.9129 0.922092 51.9999 0.59987 53.8612L0.283203 56.098L0.810981 56.4183C2.32765 57.3848 3.81098 58.147 5.3332 58.7435C6.20543 59.0693 6.5332 59.1798 7.24431 59.4062C9.19431 59.9916 11.2388 60.3506 13.511 60.5716V59.8922C13.511 59.7983 13.5165 59.6989 13.5165 59.594L13.5276 59.2516C13.5276 59.2184 13.5276 59.1853 13.5276 59.1522C13.5554 58.5004 13.5832 57.7548 13.6221 56.9651Z" fill="#CCCCCC"/>
<path fill-rule="evenodd" clip-rule="evenodd" d="M18.9499 60.5934V59.9085L18.9333 59.2513C18.9166 58.6935 18.8944 57.9037 18.8555 56.9814C18.811 56.0646 18.7499 55.0318 18.6499 53.999C18.5666 53.1264 18.4555 52.2372 18.311 51.4087L18.0444 50.1495C17.8722 49.4812 17.6722 48.8737 17.4222 48.349L18.161 46.6038C15.911 43.3839 16.4722 43.6711 14.2666 46.6258L14.7055 47.5206L15.0777 48.2938L14.9666 48.5257C14.6722 49.1498 14.4333 49.9948 14.2499 50.9282C14.111 51.6352 13.9999 52.3918 13.911 53.154C13.8833 53.4191 13.8499 53.6897 13.8277 53.9603C13.7277 54.9766 13.6666 56.0038 13.6166 56.9648C13.5777 57.7546 13.5555 58.5002 13.5333 59.1519C13.5333 59.185 13.5333 59.2182 13.5333 59.2513L13.5222 59.5937C13.5222 59.6987 13.5166 59.7981 13.5166 59.892V60.5713C13.5222 60.5713 13.5277 60.5713 13.5333 60.5713C13.6666 60.5823 13.7999 60.5989 13.9333 60.61C15.4833 60.7425 17.1944 60.7425 18.9499 60.5934Z" fill="#ADADAD"/>
<path fill-rule="evenodd" clip-rule="evenodd" d="M9.35 43.7926C8.2 44.1903 7.01667 44.6873 5.97222 45.2341C5.03889 45.7201 4.21111 46.2503 3.62222 46.775C3.05 47.2831 2.53889 48.2497 2.11667 49.3377C1.48889 50.9449 1.05 52.8116 0.861111 53.8996L0.572222 55.9597L0.961111 56.1917C1.71111 56.6722 2.45556 57.0974 3.2 57.4785C3.94444 57.8596 4.68333 58.1965 5.43889 58.4892C5.87222 58.6494 6.17222 58.7598 6.44445 58.8537C6.73333 58.9531 6.98889 59.036 7.32778 59.1464C8.29445 59.4336 9.28889 59.6711 10.3167 59.8589C11.2611 60.0301 12.2389 60.1682 13.2556 60.2676C13.2556 59.5441 13.2889 58.8151 13.3111 58.0916C13.3222 57.7215 13.3389 57.3349 13.3611 56.9428C13.3833 56.4512 13.4111 55.9487 13.4444 55.4571C13.4778 54.9656 13.5167 54.4519 13.5667 53.9273L13.65 53.1154C13.6944 52.7122 13.75 52.3201 13.8056 51.939C13.8611 51.5745 13.9222 51.2155 13.9889 50.8675C14.0889 50.376 14.2 49.9065 14.3278 49.4813C14.4444 49.0836 14.5833 48.7191 14.7278 48.4043L14.7833 48.2828L14.4667 47.62L13.9611 46.5817L14.0556 46.4547C14.3778 46.0184 14.6333 45.6539 14.85 45.3501C15.4611 44.483 15.7778 44.0246 16.2222 44.0246C16.7 44.0191 17.0833 44.5714 17.8889 45.7422L18.4556 46.5596L17.7 48.3325C17.8056 48.57 17.9056 48.8185 17.9944 49.0836C18.1 49.3984 18.2 49.7298 18.2889 50.0778L18.5611 51.3536C18.6278 51.7512 18.6944 52.1709 18.75 52.6017C18.8111 53.0546 18.8611 53.5075 18.9056 53.9659C18.9556 54.5016 19 55.0153 19.0333 55.5123C19.0667 56.0039 19.0944 56.4954 19.1167 56.9649C19.1389 57.4178 19.1556 57.8485 19.1667 58.2352L19.1944 59.2348C19.2056 59.7705 19.2111 60.2897 19.2111 60.8254L18.9667 60.8475C18.0889 60.9193 17.2167 60.958 16.3611 60.958C15.5167 60.958 14.6944 60.9248 13.9056 60.8586C13.6889 60.842 13.4778 60.8199 13.2667 60.8033V60.7978C12.2056 60.6929 11.1889 60.5493 10.2167 60.3725C9.16111 60.1792 8.15 59.9417 7.17222 59.649H7.16667C6.8 59.5331 6.53333 59.4447 6.26111 59.3508C5.97778 59.2514 5.67222 59.1409 5.23889 58.9808C4.47222 58.6825 3.71111 58.3346 2.95 57.948C2.18889 57.5558 1.43333 57.1195 0.666667 56.6335L0 56.2303C0.111111 55.4295 0.244444 54.6176 0.338889 53.8168C0.533333 52.7067 0.977778 50.8013 1.62222 49.1554C2.07222 48.0011 2.62778 46.9628 3.26667 46.3939C3.88889 45.8361 4.75 45.2838 5.72778 44.7757C6.8 44.2179 8.00556 43.7098 9.17778 43.3066L9.35 43.7926ZM13.7833 60.3284L13.9556 60.3449C14.7278 60.4167 15.5333 60.4499 16.3667 60.4443C17.1167 60.4443 17.8944 60.4112 18.6889 60.3504V59.9086L18.6778 59.2569L18.65 58.2572C18.6389 57.8817 18.6222 57.4619 18.6 56.9925C18.5778 56.5451 18.55 56.0591 18.5167 55.551C18.4833 55.0374 18.4389 54.5237 18.3944 54.0211C18.35 53.5738 18.3 53.1209 18.2444 52.6791C18.1889 52.2704 18.1278 51.8617 18.0556 51.453L17.7889 50.2158C17.7056 49.8844 17.6111 49.5641 17.5056 49.2659C17.4056 48.9787 17.3 48.7081 17.1833 48.4595L17.1333 48.3546L17.8667 46.6369L17.4611 46.0515C16.7667 45.0408 16.4333 44.5603 16.2333 44.5658C16.0667 44.5658 15.7944 44.9469 15.2889 45.6704C15.0889 45.9576 14.8556 46.289 14.5778 46.6646L14.9444 47.4157L15.3722 48.3049L15.2111 48.6473C15.0722 48.9345 14.95 49.2769 14.8389 49.6525C14.7167 50.0612 14.6111 50.5141 14.5111 50.989C14.4444 51.3259 14.3833 51.6794 14.3278 52.0384C14.2667 52.425 14.2167 52.8116 14.1722 53.1982L14.0889 53.999C14.0444 54.4906 14 54.9987 13.9667 55.5123C13.9333 56.026 13.9056 56.5175 13.8833 56.987C13.8667 57.3846 13.85 57.7712 13.8333 58.1302C13.8111 58.8592 13.7833 59.5938 13.7833 60.3284ZM30.8556 50.735C30.6722 50.1606 30.4556 49.5862 30.2 49.0118C29.95 48.443 29.6556 47.8796 29.3222 47.3163C29.0167 46.8026 28.2222 46.2283 27.2722 45.6815C25.8389 44.8586 24.0722 44.1295 23.0944 43.7816L23.2722 43.29C24.2667 43.6435 26.0667 44.3891 27.5389 45.2341C28.5556 45.8196 29.4222 46.4547 29.7778 47.0512C30.1222 47.6311 30.4222 48.2165 30.6833 48.8019C30.9389 49.3819 31.1611 49.9783 31.3556 50.5803L30.8556 50.735Z" fill="#333333"/>
<path fill-rule="evenodd" clip-rule="evenodd" d="M56.0498 60.5934V59.9085L56.0665 59.2513C56.0831 58.6935 56.1054 57.9037 56.1442 56.9814C56.1887 56.0646 56.2498 55.0318 56.3498 53.999C56.4331 53.1264 56.5442 52.2372 56.6887 51.4087L56.9554 50.1495C57.1276 49.4812 57.3276 48.8737 57.5776 48.349L56.8331 46.6038C59.0831 43.3839 58.522 43.6711 60.7276 46.6258L60.2942 47.5206L59.922 48.2938L60.0276 48.5257C60.322 49.1498 60.5609 49.9948 60.7442 50.9282C60.8831 51.6352 60.9942 52.3918 61.0831 53.154C61.1165 53.4191 61.1442 53.6897 61.1665 53.9603C61.2609 54.9766 61.3276 56.0038 61.3776 56.9648C61.4165 57.7546 61.4387 58.5002 61.4609 59.1519C61.4609 59.185 61.4609 59.2182 61.4609 59.2513L61.472 59.5937C61.472 59.6987 61.4776 59.7981 61.4776 59.892V60.5713C61.472 60.5713 61.4665 60.5713 61.4665 60.5713C61.3331 60.5823 61.1998 60.5989 61.0665 60.61C59.5109 60.7425 57.8054 60.7425 56.0498 60.5934Z" fill="#ADADAD"/>
<path fill-rule="evenodd" clip-rule="evenodd" d="M48.1173 45.1625C48.6729 44.8698 49.2562 44.5881 49.8062 44.3451C50.584 43.9971 51.3062 43.7155 51.8118 43.5332C52.1951 44.2346 52.5784 44.8256 53.0173 45.4938C53.2951 45.9136 53.534 46.2836 53.7729 46.6261C53.9951 46.9464 54.1895 47.206 54.3729 47.3993C54.5284 47.565 54.6729 47.6865 54.8229 47.7638C54.9562 47.8356 55.0951 47.8687 55.2451 47.8632C55.3229 47.8632 55.4007 47.8466 55.4784 47.8245C55.5562 47.8024 55.634 47.7638 55.7062 47.7141C55.7951 47.6589 55.8895 47.587 55.984 47.5042C56.0784 47.4214 56.1784 47.3164 56.2895 47.1949C56.4729 46.9961 56.6507 46.7917 56.834 46.5929C56.8784 46.5266 56.9229 46.4714 56.9729 46.4107C56.9284 46.4714 56.884 46.5377 56.8395 46.604L56.984 46.9353C56.9951 46.9574 57.0062 46.9851 57.0173 47.0071L57.5895 48.3437C57.3451 48.8684 57.1395 49.4759 56.9673 50.1442L56.7006 51.4034C56.5562 52.2319 56.4451 53.121 56.3618 53.9937C56.2618 55.0265 56.1951 56.0648 56.1562 56.9761C56.1118 57.8984 56.0895 58.6827 56.0784 59.246L56.0618 59.9032V60.5881C53.784 60.3672 51.7395 60.0082 49.7951 59.4227C49.084 59.1963 48.7562 59.0858 47.884 58.76C46.3618 58.1635 44.8784 57.4013 43.3618 56.4348L42.834 56.1145L43.1507 53.8777C43.3395 52.7897 43.7729 50.9395 44.3951 49.3268C44.6618 48.6751 44.9729 48.0289 45.3395 47.3882C45.5451 47.0734 45.7618 46.8028 45.9951 46.5984C46.5229 46.1124 47.2673 45.6209 48.1173 45.1625Z" fill="#CCCCCC"/>
<path fill-rule="evenodd" clip-rule="evenodd" d="M61.3774 56.9651C61.333 56.0041 61.2663 54.9768 61.1663 53.9606C61.1385 53.6899 61.1108 53.4248 61.083 53.1542C60.9941 52.3921 60.883 51.6354 60.7441 50.9285C60.5608 49.9896 60.3219 49.1501 60.0274 48.526L59.9219 48.294L60.2941 47.5208L60.7274 46.6371C60.7497 46.6592 60.7663 46.6813 60.7885 46.7034C60.933 46.8691 61.083 47.0293 61.2274 47.195C61.333 47.3165 61.4385 47.4214 61.533 47.5042C61.6274 47.5871 61.7163 47.6589 61.8052 47.7141C61.883 47.7583 61.9608 47.797 62.0385 47.8246C62.1108 47.8467 62.1885 47.8632 62.2719 47.8632C62.4219 47.8688 62.5608 47.8356 62.6941 47.7638C62.8385 47.6865 62.9885 47.565 63.1441 47.3993C63.283 47.2502 63.433 47.0569 63.5997 46.8304C63.7663 46.5985 63.9441 46.3389 64.1385 46.0462C64.683 45.2177 65.2274 44.4059 65.7385 43.5498C67.9497 44.312 70.283 45.4442 71.5608 46.5874C73.0441 47.9185 74.083 52.0054 74.4052 53.8667L74.7219 56.1035L74.1941 56.4238C72.6774 57.3903 71.1941 58.1525 69.6719 58.749C68.7997 59.0748 68.4719 59.1853 67.7608 59.4117C65.8108 59.9972 63.7663 60.3562 61.4941 60.5771V59.8977C61.4941 59.8039 61.4885 59.7044 61.4885 59.5995L61.4774 59.2571C61.4774 59.224 61.4774 59.1908 61.4774 59.1577C61.4385 58.5004 61.4163 57.7548 61.3774 56.9651Z" fill="#CCCCCC"/>
<path fill-rule="evenodd" clip-rule="evenodd" d="M12.1943 42.7333C13.8721 44.473 18.6832 44.4123 20.2777 42.7333C19.9388 41.7392 19.9166 40.7064 19.9054 39.6736C19.9054 39.668 19.9054 39.5962 19.9054 39.541C18.8054 40.3529 17.5054 40.8223 16.111 40.8223C14.7999 40.8223 13.5721 40.4081 12.5166 39.6846C12.5166 39.7233 12.5166 39.7564 12.5166 39.7564C12.4666 40.7837 12.4221 41.8165 12.1943 42.7333Z" fill="#333333"/>
<path fill-rule="evenodd" clip-rule="evenodd" d="M12.1943 42.7333C13.8721 44.473 18.6832 44.4123 20.2777 42.7333C19.9388 41.7392 19.9166 40.7064 19.9054 39.6736C19.9054 39.668 19.9054 39.5962 19.9054 39.541C18.8054 40.3529 17.5054 40.8223 16.111 40.8223C14.7999 40.8223 13.5721 40.4081 12.5166 39.6846C12.5166 39.7233 12.5166 39.7564 12.5166 39.7564C12.4666 40.7837 12.4221 41.8165 12.1943 42.7333Z" fill="white" fill-opacity="0.88"/>
<path fill-rule="evenodd" clip-rule="evenodd" d="M9.2666 43.5443C9.77771 44.4004 10.3222 45.2122 10.8666 46.0407C11.061 46.3334 11.2388 46.5985 11.4055 46.8305C11.5722 47.0569 11.7222 47.2447 11.861 47.3993C12.0166 47.565 12.1666 47.6865 12.311 47.7638C12.4444 47.8356 12.5833 47.8688 12.7333 47.8632C12.811 47.8632 12.8888 47.8467 12.9666 47.8246C13.0444 47.797 13.1222 47.7638 13.1999 47.7141C13.2888 47.6589 13.3833 47.5871 13.4722 47.5043C13.5666 47.4159 13.6722 47.3109 13.7777 47.195C13.9222 47.0293 14.0722 46.8691 14.2166 46.7034C14.2388 46.6813 14.2555 46.6592 14.2777 46.6371L14.2722 46.6261C15.1555 45.4442 15.5944 44.6931 15.9444 44.4169C15.9833 44.3617 16.0222 44.3065 16.061 44.2568H16.461C16.5499 44.3727 16.6333 44.4777 16.7055 44.5881C17.0055 44.914 17.3999 45.5105 18.0277 46.4107C18.0777 46.4715 18.1222 46.5267 18.1666 46.593C18.3499 46.7918 18.5277 46.9961 18.711 47.195C18.8222 47.3165 18.9222 47.4214 19.0166 47.5043C19.111 47.5871 19.1999 47.6589 19.2944 47.7141C19.3722 47.7583 19.4499 47.797 19.5222 47.8246C19.5944 47.8467 19.6722 47.8632 19.7555 47.8632C19.9055 47.8688 20.0444 47.8356 20.1777 47.7638C20.3277 47.6865 20.4722 47.565 20.6277 47.3993C20.8055 47.206 21.0055 46.9464 21.2277 46.6261C21.4666 46.2837 21.7055 45.9192 21.9833 45.4939C22.4222 44.8256 22.811 44.2347 23.1888 43.5333C23.1222 43.5112 23.0499 43.4835 22.9833 43.4615C22.8388 43.4117 22.6999 43.362 22.561 43.3179C22.5333 43.3068 22.5055 43.3013 22.4777 43.2902C22.0499 43.1522 21.6388 43.0307 21.2722 42.9368C20.911 42.8484 20.5777 42.7766 20.2833 42.7324C18.6888 44.4114 13.8777 44.4722 12.1999 42.7324C11.9055 42.7766 11.5722 42.8484 11.211 42.9368C10.8388 43.0307 10.4333 43.1522 10.0055 43.2902C9.75549 43.3731 9.51105 43.4615 9.2666 43.5443Z" fill="#333333"/>
<path fill-rule="evenodd" clip-rule="evenodd" d="M9.2666 43.5443C9.77771 44.4004 10.3222 45.2122 10.8666 46.0407C11.061 46.3334 11.2388 46.5985 11.4055 46.8305C11.5722 47.0569 11.7222 47.2447 11.861 47.3993C12.0166 47.565 12.1666 47.6865 12.311 47.7638C12.4444 47.8356 12.5833 47.8688 12.7333 47.8632C12.811 47.8632 12.8888 47.8467 12.9666 47.8246C13.0444 47.797 13.1222 47.7638 13.1999 47.7141C13.2888 47.6589 13.3833 47.5871 13.4722 47.5043C13.5666 47.4159 13.6722 47.3109 13.7777 47.195C13.9222 47.0293 14.0722 46.8691 14.2166 46.7034C14.2388 46.6813 14.2555 46.6592 14.2777 46.6371L14.2722 46.6261C15.1555 45.4442 15.5944 44.6931 15.9444 44.4169C15.9833 44.3617 16.0222 44.3065 16.061 44.2568H16.461C16.5499 44.3727 16.6333 44.4777 16.7055 44.5881C17.0055 44.914 17.3999 45.5105 18.0277 46.4107C18.0777 46.4715 18.1222 46.5267 18.1666 46.593C18.3499 46.7918 18.5277 46.9961 18.711 47.195C18.8222 47.3165 18.9222 47.4214 19.0166 47.5043C19.111 47.5871 19.1999 47.6589 19.2944 47.7141C19.3722 47.7583 19.4499 47.797 19.5222 47.8246C19.5944 47.8467 19.6722 47.8632 19.7555 47.8632C19.9055 47.8688 20.0444 47.8356 20.1777 47.7638C20.3277 47.6865 20.4722 47.565 20.6277 47.3993C20.8055 47.206 21.0055 46.9464 21.2277 46.6261C21.4666 46.2837 21.7055 45.9192 21.9833 45.4939C22.4222 44.8256 22.811 44.2347 23.1888 43.5333C23.1222 43.5112 23.0499 43.4835 22.9833 43.4615C22.8388 43.4117 22.6999 43.362 22.561 43.3179C22.5333 43.3068 22.5055 43.3013 22.4777 43.2902C22.0499 43.1522 21.6388 43.0307 21.2722 42.9368C20.911 42.8484 20.5777 42.7766 20.2833 42.7324C18.6888 44.4114 13.8777 44.4722 12.1999 42.7324C11.9055 42.7766 11.5722 42.8484 11.211 42.9368C10.8388 43.0307 10.4333 43.1522 10.0055 43.2902C9.75549 43.3731 9.51105 43.4615 9.2666 43.5443Z" fill="white" fill-opacity="0.88"/>
<path fill-rule="evenodd" clip-rule="evenodd" d="M23.2889 43.3242C24.4611 43.7274 25.6667 44.2355 26.7389 44.7933C27.7167 45.3014 28.5778 45.8537 29.2 46.4116C29.8389 46.9859 30.3945 48.0187 30.8445 49.1786C31.4889 50.8299 31.9334 52.7298 32.1278 53.8454C32.2222 54.6463 32.3556 55.4582 32.4722 56.259L31.8 56.6622C31.0389 57.1482 30.2778 57.5845 29.5167 57.9766C28.7556 58.3687 27.9945 58.7112 27.2334 59.0094H27.2278C26.7889 59.1696 26.4889 59.28 26.2056 59.3794C25.9278 59.4733 25.6611 59.5617 25.3 59.6777H25.2945C24.3111 59.9704 23.3 60.2134 22.25 60.4067C21.2 60.6 20.1111 60.7436 18.9611 60.8541L18.9111 60.3349C20.0445 60.2245 21.1167 60.0809 22.15 59.8931C23.1778 59.7053 24.1722 59.4678 25.1389 59.1806C25.4889 59.0702 25.7445 58.9873 26.0278 58.8879C26.3056 58.794 26.6 58.6836 27.0334 58.5234C27.7889 58.2252 28.5334 57.8883 29.2722 57.5127C30.0167 57.1316 30.7556 56.7008 31.5111 56.2203L31.9 55.9884L31.6056 53.9283C31.4167 52.8348 30.9778 50.9735 30.35 49.3608C29.9278 48.2728 29.4167 47.3063 28.8445 46.7982C28.2556 46.268 27.4278 45.7433 26.4889 45.2573C25.4445 44.7105 24.2611 44.2134 23.1111 43.8158L23.2889 43.3242Z" fill="#333333"/>
<path fill-rule="evenodd" clip-rule="evenodd" d="M12.1002 43.0145C11.9947 43.0311 11.8891 43.0532 11.778 43.0753C11.6113 43.1084 11.4391 43.1526 11.2669 43.1968C11.078 43.2465 10.8891 43.2962 10.7002 43.3514C10.5058 43.4066 10.3002 43.4729 10.078 43.5447L9.65577 43.6883C10.0447 44.329 10.4613 44.9531 10.878 45.5827L11.3669 46.3117C11.4447 46.4277 11.528 46.5492 11.6224 46.6762C11.7058 46.7867 11.778 46.8916 11.8502 46.98C11.9224 47.0684 11.9891 47.1512 12.0558 47.2175C12.1224 47.2893 12.1891 47.3556 12.2613 47.4108C12.3224 47.4605 12.378 47.4992 12.4335 47.5323C12.478 47.5544 12.528 47.5765 12.578 47.5875C12.628 47.5986 12.678 47.6041 12.728 47.6041L12.8058 47.5986L12.8836 47.582L12.9724 47.5433C13.0002 47.5323 13.028 47.5157 13.0613 47.4936C13.1002 47.4715 13.1391 47.4439 13.1724 47.4163C13.2169 47.3832 13.2558 47.35 13.2947 47.3169L13.4336 47.1843C13.4836 47.1346 13.5336 47.0794 13.578 47.0297C13.7947 46.7867 14.0113 46.5437 14.228 46.3062C14.4836 46.0245 14.728 45.7539 14.9613 45.4501C15.1169 45.2458 15.2558 45.0249 15.3891 44.8039C15.4947 44.6272 15.6002 44.4505 15.728 44.2793C14.3002 44.1854 12.9169 43.7767 12.1002 43.0145ZM11.6724 42.5616C11.8447 42.523 12.0058 42.4954 12.1558 42.4733L12.2891 42.4512L12.4669 42.6279C13.278 43.3901 14.7724 43.7546 16.2669 43.7491C17.7613 43.7435 19.2391 43.3625 20.0058 42.6279L20.178 42.4512L20.3113 42.4733C20.4558 42.4954 20.6169 42.523 20.7891 42.5561C20.9724 42.5948 21.1502 42.6334 21.328 42.6776C21.528 42.7273 21.728 42.7825 21.928 42.8433C22.1336 42.9041 22.3447 42.9703 22.5502 43.0366C22.8836 43.1305 23.2335 43.2686 23.5669 43.3845L23.4224 43.6552C23.2336 44.0031 23.0391 44.3345 22.8335 44.6604C22.6169 45.0083 22.4169 45.3121 22.2058 45.6324L21.8113 46.2289C21.6891 46.4111 21.5724 46.5879 21.4447 46.7701C21.3335 46.9303 21.228 47.0739 21.1169 47.212C21.0169 47.3445 20.9169 47.4605 20.8169 47.5654C20.7336 47.6538 20.6502 47.7366 20.5669 47.8029C20.4836 47.8747 20.3947 47.9355 20.3002 47.9852C20.2113 48.0294 20.1224 48.0625 20.0336 48.0846C19.9447 48.1067 19.8502 48.1177 19.7502 48.1122C19.7002 48.1122 19.6447 48.1067 19.6002 48.0956C19.5502 48.0901 19.5002 48.0735 19.4502 48.057H19.4447C19.3947 48.0404 19.3447 48.0183 19.2947 47.9962C19.2502 47.9741 19.2002 47.952 19.1558 47.9189C19.1058 47.8858 19.0502 47.8471 19.0002 47.8084C18.9502 47.7698 18.8947 47.7256 18.8447 47.6814C18.7947 47.6372 18.7447 47.5875 18.6836 47.5268L18.5169 47.35C18.3613 47.1733 18.0836 46.9082 17.9502 46.7204C17.8669 46.5989 17.7669 46.4884 17.6724 46.378C17.5669 46.2565 17.4613 46.135 17.3613 45.9914C17.1613 45.7263 16.9947 45.4778 16.8335 45.2292C16.678 44.9862 16.5169 44.7487 16.328 44.4947H16.1891C16.0613 44.6714 15.9502 44.8537 15.8391 45.0414C15.7002 45.2734 15.5558 45.5054 15.378 45.7373C15.1391 46.0521 14.8835 46.3338 14.6113 46.6265L13.9669 47.3445C13.9113 47.4108 13.8558 47.466 13.8002 47.5212L13.6391 47.6759C13.5835 47.7256 13.5336 47.7643 13.4836 47.8029C13.428 47.8471 13.378 47.8802 13.3224 47.9134C13.278 47.941 13.2336 47.9631 13.1835 47.9852C13.1391 48.0073 13.0891 48.0294 13.0391 48.0459H13.028C12.978 48.0625 12.928 48.0735 12.878 48.0846C12.8336 48.0901 12.778 48.0956 12.728 48.1012C12.628 48.1012 12.5335 48.0956 12.4447 48.0735C12.3558 48.0514 12.2669 48.0183 12.178 47.9741C12.0891 47.9244 12.0002 47.8692 11.9113 47.7974C11.8336 47.7311 11.7502 47.6538 11.6613 47.5544C11.5835 47.4771 11.5058 47.3832 11.428 47.2838C11.3502 47.1843 11.2669 47.0739 11.1835 46.9634C11.1113 46.864 11.0224 46.7315 10.9224 46.5879L10.6391 46.1681L10.428 45.8478C9.95022 45.1243 9.47799 44.4118 9.02799 43.6607L8.86133 43.3845C9.20577 43.263 9.56688 43.1526 9.90022 43.0256C10.1113 42.9593 10.3224 42.893 10.5391 42.8267C10.7502 42.766 10.9447 42.7108 11.128 42.6666C11.328 42.639 11.5058 42.5948 11.6724 42.5616ZM16.7947 44.2627C16.978 44.5112 17.128 44.7377 17.278 44.9696C17.4336 45.2016 17.5835 45.4391 17.7835 45.7042L17.7891 45.7097C17.8724 45.8312 17.9724 45.9472 18.0724 46.0577C18.178 46.1792 18.278 46.2951 18.378 46.4332L18.9058 47.0187L19.0558 47.1843C19.1002 47.2285 19.1447 47.2727 19.1835 47.3114C19.228 47.35 19.2669 47.3832 19.3058 47.4163C19.3447 47.4494 19.3835 47.4715 19.4224 47.4992L19.5113 47.5489C19.5391 47.5599 19.5669 47.5765 19.5947 47.582L19.678 47.5986L19.7558 47.6041C19.8058 47.6041 19.8558 47.5986 19.9058 47.5875C19.9558 47.5765 20.0002 47.5599 20.0502 47.5323C20.1058 47.5047 20.1669 47.4605 20.228 47.4108C20.2891 47.3611 20.3613 47.2948 20.428 47.2175C20.5113 47.1291 20.6002 47.0242 20.6947 46.8971C20.7891 46.7756 20.8891 46.6376 21.0002 46.4774C21.1113 46.3172 21.2336 46.1405 21.3613 45.9472L21.7502 45.3507C21.978 45.0028 22.1891 44.6824 22.3724 44.3897C22.5169 44.1578 22.6558 43.9258 22.7947 43.6773L22.4724 43.5668L22.378 43.5392C22.1613 43.4674 21.9558 43.4066 21.7669 43.3514C21.5613 43.2907 21.3669 43.2354 21.1891 43.1912C21.0002 43.1471 20.828 43.1029 20.6724 43.0697C20.5613 43.0476 20.4613 43.0256 20.3558 43.009C19.5891 43.7491 18.2224 44.1743 16.7947 44.2627Z" fill="#333333"/>
<path fill-rule="evenodd" clip-rule="evenodd" d="M65.8165 43.3014C66.9887 43.7046 68.1942 44.2127 69.2664 44.7705C70.2442 45.2786 71.1053 45.8309 71.7276 46.3887C72.3664 46.9576 72.9165 47.9959 73.372 49.1557C74.0165 50.8016 74.4609 52.707 74.6553 53.8171C74.7498 54.6179 74.8831 55.4298 74.9998 56.2306L74.3276 56.6393C73.5609 57.1253 72.8053 57.5617 72.0442 57.9538C71.2831 58.3459 70.5276 58.6883 69.7553 58.9866C69.322 59.1467 69.0164 59.2572 68.7331 59.3566C68.4609 59.4505 68.1998 59.5334 67.8276 59.6549H67.822C66.8387 59.9476 65.8276 60.1906 64.7776 60.3784C63.8053 60.5551 62.7887 60.6932 61.7276 60.8036V60.8092L61.0887 60.8699C60.2998 60.9362 59.4776 60.9748 58.6331 60.9693C57.7776 60.9693 56.9053 60.9307 56.0276 60.8589L55.7831 60.8368C55.7831 60.301 55.7887 59.7819 55.7998 59.2462L55.8276 58.241C55.8387 57.8544 55.8553 57.4236 55.8776 56.9707C55.8998 56.5012 55.9276 56.0097 55.9609 55.5182C55.9942 55.0266 56.0331 54.5075 56.0887 53.9717C56.1331 53.5189 56.1831 53.0605 56.2442 52.6076C56.2998 52.1768 56.3664 51.757 56.4331 51.3594L56.7053 50.0836C56.7942 49.7412 56.8887 49.4043 56.9998 49.0894C57.0887 48.8243 57.1887 48.5758 57.2942 48.3383L56.5387 46.5655L57.1053 45.7481C57.9109 44.5827 58.2887 44.0304 58.772 44.0304C59.2164 44.0304 59.5387 44.4888 60.1442 45.3559C60.3609 45.6652 60.6164 46.0297 60.9387 46.4605L61.0331 46.5875L60.5276 47.6259L60.2053 48.2886L60.2609 48.4046C60.4164 48.7305 60.5553 49.106 60.6776 49.5258C60.7998 49.9455 60.9053 50.3984 60.9998 50.8678C61.0665 51.2158 61.1276 51.5748 61.1831 51.9393C61.2387 52.3204 61.2942 52.718 61.3387 53.1157L61.422 53.9276C61.472 54.4522 61.5109 54.9659 61.5442 55.4574C61.5776 55.9545 61.6053 56.4515 61.6276 56.9431C61.6442 57.3297 61.6609 57.7163 61.6776 58.0919C61.6998 58.8154 61.7331 59.5444 61.7331 60.2679C62.7553 60.163 63.7276 60.0304 64.672 59.8592C65.6998 59.6714 66.6942 59.4339 67.6609 59.1467C67.9998 59.0363 68.2553 58.9534 68.5442 58.854C68.8164 58.7601 69.1165 58.6497 69.5498 58.4895C70.2998 58.1968 71.0442 57.8599 71.7887 57.4788C72.5331 57.0977 73.2776 56.6669 74.0276 56.192L74.4164 55.9545L74.122 53.8944C73.9331 52.8009 73.4942 50.9396 72.8665 49.3325C72.4442 48.2444 71.9331 47.2779 71.3609 46.7698C70.772 46.2396 69.9442 45.7149 69.0109 45.2289C67.9664 44.6821 66.7831 44.1851 65.6331 43.7874L65.8165 43.3014ZM61.1998 60.3287H61.2164C61.2164 59.9697 61.2109 59.6217 61.1998 59.2683C61.1942 59.2241 61.1942 59.1909 61.1942 59.1523L61.1609 58.1195C61.1498 57.7605 61.1331 57.3794 61.1109 56.9762C61.0887 56.5068 61.0609 56.0152 61.0276 55.5016C60.9942 54.988 60.9553 54.4743 60.9053 53.9883L60.822 53.1875C60.7776 52.8009 60.7276 52.4143 60.6664 52.0277C60.6109 51.6687 60.5498 51.3207 60.4831 50.9783C60.3887 50.5088 60.2887 50.0725 60.172 49.6804C60.0553 49.2883 59.9276 48.9348 59.7831 48.6366L59.622 48.2941L60.0498 47.4105L60.4164 46.6593C60.1442 46.2893 59.9053 45.9524 59.7053 45.6652C59.1998 44.9417 58.9276 44.5606 58.7609 44.5606C58.5609 44.5606 58.2276 45.0356 57.5331 46.0463L57.1276 46.6317L57.8609 48.3494L57.8109 48.4543C57.6942 48.7028 57.5887 48.9735 57.4887 49.2607C57.3887 49.5589 57.2942 49.8792 57.2053 50.2106L56.9387 51.4477C56.8664 51.8564 56.8053 52.2651 56.7498 52.6738C56.6942 53.1212 56.6442 53.5686 56.5998 54.0159C56.5498 54.513 56.5109 55.0321 56.4776 55.5458C56.4442 56.0539 56.4164 56.5399 56.3942 56.9873C56.372 57.4512 56.3553 57.8765 56.3442 58.252L56.3165 59.2517L56.2998 59.9034V60.3452C57.0942 60.406 57.872 60.4391 58.622 60.4391C59.4553 60.4391 60.2609 60.406 61.0331 60.3397L61.1998 60.3287ZM43.6387 50.5751C43.8331 49.9731 44.0553 49.3822 44.3109 48.7967C44.572 48.2113 44.8664 47.6314 45.2164 47.046C45.572 46.444 46.4387 45.8088 47.4553 45.2234C48.9276 44.3784 50.7276 43.6328 51.722 43.2793L51.8998 43.7708C50.9164 44.1188 49.1498 44.8533 47.722 45.6707C46.772 46.212 45.9776 46.7919 45.672 47.3055C45.3387 47.8633 45.0498 48.4322 44.7942 49.0011C44.5387 49.5755 44.322 50.1499 44.1387 50.7242L43.6387 50.5751Z" fill="#333333"/>
<path fill-rule="evenodd" clip-rule="evenodd" d="M51.8836 43.8158C50.7336 44.2134 49.5502 44.7105 48.5058 45.2573C47.5669 45.7433 46.7447 46.2735 46.1502 46.7982C45.578 47.3118 45.0669 48.2783 44.6447 49.3608C44.0169 50.968 43.578 52.8347 43.3891 53.9228L43.0947 55.9828L43.4836 56.2148C44.2336 56.6953 44.978 57.1206 45.7225 57.5072C46.4614 57.8883 47.2058 58.2252 47.9614 58.5179C48.3947 58.678 48.6947 58.7885 48.9669 58.8824C49.2447 58.9763 49.5058 59.0646 49.8558 59.1751C50.828 59.4678 51.8169 59.6998 52.8447 59.8876C53.878 60.0753 54.9558 60.2189 56.0836 60.3294L56.0336 60.8486C54.8836 60.7381 53.7947 60.5945 52.7447 60.4012C51.6891 60.2079 50.678 59.9704 49.7002 59.6722H49.6947C49.3336 59.5562 49.0725 59.4733 48.7891 59.3739C48.5058 59.2745 48.2058 59.1696 47.7669 59.0039H47.7614C47.0002 58.7056 46.2391 58.3577 45.478 57.9711C44.7169 57.579 43.9613 57.1427 43.1947 56.6566L42.5225 56.2535C42.6391 55.4526 42.7669 54.6408 42.8669 53.8399C43.0614 52.7243 43.5058 50.8244 44.1502 49.1786C44.6002 48.0243 45.1558 46.9859 45.7947 46.4116C46.4169 45.8537 47.278 45.3014 48.2558 44.7933C49.328 44.2355 50.5336 43.7274 51.7058 43.3242L51.8836 43.8158Z" fill="#333333"/>
<path fill-rule="evenodd" clip-rule="evenodd" d="M65.7328 43.5443C65.2217 44.4004 64.6772 45.2122 64.1328 46.0407C63.9383 46.3334 63.7605 46.5985 63.5939 46.8305C63.4272 47.0569 63.2772 47.2447 63.1383 47.3993C62.9828 47.565 62.8328 47.6865 62.6883 47.7638C62.555 47.8356 62.4161 47.8688 62.2661 47.8632C62.1883 47.8632 62.1106 47.8467 62.0328 47.8246C61.955 47.797 61.8772 47.7638 61.7994 47.7141C61.7105 47.6589 61.6161 47.5871 61.5272 47.5043C61.4328 47.4159 61.3272 47.3109 61.2217 47.195C61.0772 47.0293 60.9272 46.8691 60.7828 46.7034C60.7606 46.6813 60.7439 46.6592 60.7217 46.6371L60.7272 46.6261C59.8439 45.4442 59.405 44.6931 59.055 44.4169C59.0161 44.3617 58.9772 44.3065 58.9383 44.2568H58.5383C58.4494 44.3727 58.3661 44.4777 58.2939 44.5881C57.9939 44.914 57.5994 45.5105 56.9717 46.4107C56.9217 46.4715 56.8772 46.5267 56.8328 46.593C56.6494 46.7918 56.4717 46.9961 56.2883 47.195C56.1772 47.3165 56.0772 47.4214 55.9828 47.5043C55.8883 47.5871 55.7994 47.6589 55.705 47.7141C55.6272 47.7583 55.5494 47.797 55.4772 47.8246C55.405 47.8467 55.3272 47.8632 55.2439 47.8632C55.0939 47.8688 54.955 47.8356 54.8217 47.7638C54.6772 47.6865 54.5272 47.565 54.3717 47.3993C54.1939 47.206 53.9939 46.9464 53.7717 46.6261C53.5328 46.2837 53.2939 45.9192 53.0161 45.4939C52.5772 44.8256 52.1883 44.2347 51.8105 43.5333C51.8772 43.5112 51.9494 43.4835 52.0161 43.4615C52.1605 43.4117 52.2994 43.362 52.4383 43.3179C52.4661 43.3068 52.4939 43.3013 52.5217 43.2902C52.9494 43.1522 53.3605 43.0307 53.7272 42.9368C54.0883 42.8484 54.4217 42.7766 54.7161 42.7324C56.3105 44.4114 61.1217 44.4722 62.7994 42.7324C63.0939 42.7766 63.4272 42.8484 63.7883 42.9368C64.1605 43.0307 64.5661 43.1522 64.9939 43.2902C65.2439 43.3731 65.4883 43.4615 65.7328 43.5443Z" fill="#333333"/>
<path fill-rule="evenodd" clip-rule="evenodd" d="M65.7328 43.5443C65.2217 44.4004 64.6772 45.2122 64.1328 46.0407C63.9383 46.3334 63.7605 46.5985 63.5939 46.8305C63.4272 47.0569 63.2772 47.2447 63.1383 47.3993C62.9828 47.565 62.8328 47.6865 62.6883 47.7638C62.555 47.8356 62.4161 47.8688 62.2661 47.8632C62.1883 47.8632 62.1106 47.8467 62.0328 47.8246C61.955 47.797 61.8772 47.7638 61.7994 47.7141C61.7105 47.6589 61.6161 47.5871 61.5272 47.5043C61.4328 47.4159 61.3272 47.3109 61.2217 47.195C61.0772 47.0293 60.9272 46.8691 60.7828 46.7034C60.7606 46.6813 60.7439 46.6592 60.7217 46.6371L60.7272 46.6261C59.8439 45.4442 59.405 44.6931 59.055 44.4169C59.0161 44.3617 58.9772 44.3065 58.9383 44.2568H58.5383C58.4494 44.3727 58.3661 44.4777 58.2939 44.5881C57.9939 44.914 57.5994 45.5105 56.9717 46.4107C56.9217 46.4715 56.8772 46.5267 56.8328 46.593C56.6494 46.7918 56.4717 46.9961 56.2883 47.195C56.1772 47.3165 56.0772 47.4214 55.9828 47.5043C55.8883 47.5871 55.7994 47.6589 55.705 47.7141C55.6272 47.7583 55.5494 47.797 55.4772 47.8246C55.405 47.8467 55.3272 47.8632 55.2439 47.8632C55.0939 47.8688 54.955 47.8356 54.8217 47.7638C54.6772 47.6865 54.5272 47.565 54.3717 47.3993C54.1939 47.206 53.9939 46.9464 53.7717 46.6261C53.5328 46.2837 53.2939 45.9192 53.0161 45.4939C52.5772 44.8256 52.1883 44.2347 51.8105 43.5333C51.8772 43.5112 51.9494 43.4835 52.0161 43.4615C52.1605 43.4117 52.2994 43.362 52.4383 43.3179C52.4661 43.3068 52.4939 43.3013 52.5217 43.2902C52.9494 43.1522 53.3605 43.0307 53.7272 42.9368C54.0883 42.8484 54.4217 42.7766 54.7161 42.7324C56.3105 44.4114 61.1217 44.4722 62.7994 42.7324C63.0939 42.7766 63.4272 42.8484 63.7883 42.9368C64.1605 43.0307 64.5661 43.1522 64.9939 43.2902C65.2439 43.3731 65.4883 43.4615 65.7328 43.5443Z" fill="white" fill-opacity="0.88"/>
<path fill-rule="evenodd" clip-rule="evenodd" d="M62.806 42.7333C61.1227 44.473 56.3171 44.4123 54.7227 42.7333C55.0615 41.7392 55.0838 40.7064 55.0949 39.6736C55.0949 39.668 55.0949 39.5962 55.0949 39.541C56.1949 40.3529 57.4949 40.8223 58.8893 40.8223C60.2004 40.8223 61.4282 40.4081 62.4838 39.6846C62.4838 39.7233 62.4838 39.7564 62.4838 39.7564C62.5338 40.7837 62.5782 41.8165 62.806 42.7333Z" fill="#333333"/>
<path fill-rule="evenodd" clip-rule="evenodd" d="M62.806 42.7333C61.1227 44.473 56.3171 44.4123 54.7227 42.7333C55.0615 41.7392 55.0838 40.7064 55.0949 39.6736C55.0949 39.668 55.0949 39.5962 55.0949 39.541C56.1949 40.3529 57.4949 40.8223 58.8893 40.8223C60.2004 40.8223 61.4282 40.4081 62.4838 39.6846C62.4838 39.7233 62.4838 39.7564 62.4838 39.7564C62.5338 40.7837 62.5782 41.8165 62.806 42.7333Z" fill="white" fill-opacity="0.88"/>
<path fill-rule="evenodd" clip-rule="evenodd" d="M62.8441 42.4736C62.9885 42.4957 63.1497 42.5233 63.3219 42.5619C63.4885 42.5951 63.6719 42.6393 63.8552 42.689C64.0385 42.7331 64.233 42.7884 64.4441 42.8491C64.6608 42.9099 64.8719 42.9762 65.083 43.048C65.4219 43.175 65.783 43.291 66.1219 43.4069L65.9608 43.6831C65.5108 44.4342 65.0385 45.1522 64.5608 45.8702L64.3497 46.185L64.0663 46.6047C63.9663 46.7483 63.8774 46.8809 63.7997 46.9803C63.7163 47.0908 63.6385 47.2012 63.5552 47.3006C63.4774 47.4 63.3997 47.4939 63.3219 47.5713C63.233 47.6651 63.1497 47.748 63.0719 47.8143C62.983 47.8861 62.8941 47.9468 62.8052 47.991C62.7163 48.0352 62.6274 48.0683 62.5385 48.0904C62.4497 48.1125 62.3552 48.1236 62.2552 48.118C62.2052 48.118 62.1497 48.1125 62.1052 48.1015C62.0552 48.0959 62.0052 48.0794 61.9552 48.0628H61.9441C61.8941 48.0462 61.8441 48.0241 61.7997 48.002C61.7497 47.98 61.7052 47.9523 61.6608 47.9303C61.6052 47.8971 61.5552 47.8585 61.4997 47.8198C61.4441 47.7756 61.3941 47.7369 61.3441 47.6928L61.183 47.5381L61.0163 47.3614L60.5774 46.8698L60.3774 46.6489C60.1108 46.3507 59.8497 46.069 59.6052 45.7487C59.4274 45.5167 59.283 45.2848 59.1441 45.0528C59.033 44.8705 58.9219 44.6827 58.7941 44.506H58.6552C58.4663 44.7601 58.3052 44.9976 58.1497 45.2406C57.9885 45.4891 57.8219 45.7376 57.6219 46.0027C57.5219 46.1463 57.4163 46.2678 57.3052 46.3893C57.2108 46.4998 57.1163 46.6047 57.033 46.7262C56.8997 46.914 56.633 47.1736 56.4719 47.3503C56.4219 47.4111 56.3663 47.4718 56.3052 47.5271C56.2497 47.5823 56.1997 47.632 56.1441 47.6817C56.0885 47.7314 56.0385 47.7756 55.9885 47.8087C55.933 47.8474 55.883 47.8861 55.833 47.9192C55.783 47.9468 55.7385 47.9744 55.6941 47.9965C55.6441 48.0186 55.5941 48.0407 55.5441 48.0573H55.5385C55.4885 48.0738 55.4385 48.0849 55.3885 48.0959C55.3441 48.1015 55.2885 48.107 55.2385 48.1125C55.1385 48.1125 55.0441 48.107 54.9552 48.0849C54.8663 48.0628 54.7774 48.0297 54.6885 47.9855C54.5997 47.9358 54.5108 47.875 54.4219 47.8087C54.3385 47.7369 54.2552 47.6596 54.1719 47.5713C54.0774 47.4663 53.9774 47.3503 53.8719 47.2123C53.7663 47.0742 53.6552 46.9251 53.5441 46.7704C53.4219 46.5882 53.2997 46.4114 53.1774 46.2292L52.783 45.6327C52.5663 45.3013 52.3608 44.992 52.1552 44.6607C51.9497 44.3293 51.7552 44.0034 51.5663 43.6555L51.4219 43.3849C51.7497 43.2689 52.1052 43.1308 52.4385 43.0369C52.6441 42.9706 52.8552 42.9044 53.0608 42.8436C53.2608 42.7829 53.4608 42.7276 53.6608 42.6779C53.8385 42.6337 54.0219 42.5896 54.1997 42.5509C54.3719 42.5178 54.533 42.4846 54.6774 42.4625L54.8108 42.4404L54.9774 42.6172C55.7497 43.3517 57.2274 43.7328 58.7219 43.7438C60.2163 43.7494 61.7163 43.3849 62.5274 42.6227L62.7052 42.446L62.8441 42.4736ZM63.2163 43.0756C63.1052 43.0535 62.9997 43.0314 62.8941 43.0148C62.083 43.777 60.6997 44.1912 59.2663 44.2685C59.3885 44.4453 59.4941 44.6165 59.6052 44.7932C59.7385 45.0141 59.8774 45.2406 60.033 45.4394C60.2719 45.7487 60.5163 46.0193 60.7774 46.3065C60.9941 46.544 61.2052 46.7815 61.4163 47.019L61.5663 47.1791L61.6997 47.3117L61.8219 47.4166C61.8608 47.4442 61.8997 47.4718 61.933 47.4939L62.0219 47.5436L62.1108 47.5823L62.1885 47.5989L62.2663 47.6044C62.3163 47.6044 62.3663 47.5989 62.4163 47.5878C62.4663 47.5768 62.5108 47.5602 62.5608 47.5326C62.6163 47.4995 62.6774 47.4608 62.733 47.4111C62.8052 47.3559 62.8719 47.2896 62.9385 47.2178C63.0052 47.146 63.0719 47.0687 63.1441 46.9748C63.2163 46.8864 63.2941 46.7815 63.3719 46.671C63.4663 46.544 63.5497 46.4225 63.6274 46.3065L64.1163 45.5775C64.533 44.9479 64.9441 44.3182 65.3385 43.6831L64.9163 43.5395C64.6941 43.4677 64.4885 43.4014 64.2941 43.3462C64.0997 43.291 63.9108 43.2357 63.7274 43.1916C63.5497 43.1474 63.3774 43.1087 63.2163 43.0756ZM57.7219 44.9644C57.8719 44.7325 58.0219 44.506 58.2052 44.2575C56.7719 44.1691 55.4108 43.7494 54.633 43.0093C54.5274 43.0259 54.4274 43.048 54.3163 43.07C54.1608 43.1032 53.9885 43.1418 53.7997 43.1916C53.6219 43.2357 53.4274 43.291 53.2219 43.3517C53.033 43.4069 52.8274 43.4732 52.6108 43.5395L52.5163 43.5671L52.1941 43.6776C52.333 43.9261 52.4774 44.1581 52.6163 44.39C52.8108 44.6993 53.0163 45.0141 53.2385 45.351L53.6274 45.9475C53.7552 46.1408 53.8774 46.3175 53.9885 46.4777C54.0997 46.6379 54.2052 46.7815 54.2997 46.8975C54.3941 47.019 54.483 47.1239 54.5663 47.2178C54.6385 47.2951 54.7052 47.3559 54.7663 47.4111C54.8274 47.4608 54.8885 47.505 54.9441 47.5326C54.9885 47.5547 55.0385 47.5713 55.0885 47.5878C55.1385 47.5989 55.1885 47.6044 55.2385 47.6044L55.3163 47.5989C55.3441 47.5934 55.3774 47.5878 55.3997 47.5768C55.4219 47.5713 55.4497 47.5602 55.4774 47.5436L55.5663 47.4939C55.6052 47.4718 55.6441 47.4442 55.683 47.4166C55.7274 47.3835 55.7719 47.3448 55.8108 47.3117C55.8497 47.273 55.8941 47.2344 55.9441 47.1847C56.1719 46.9361 56.3997 46.6876 56.6274 46.4335C56.7219 46.301 56.8274 46.1795 56.9274 46.0635C57.0274 45.9475 57.1274 45.8315 57.2108 45.71L57.2163 45.7045C57.4108 45.4339 57.5663 45.1964 57.7219 44.9644Z" fill="#333333"/>
<path fill-rule="evenodd" clip-rule="evenodd" d="M58.883 40.8219C57.4885 40.8219 56.1885 40.3525 55.0885 39.5406C54.6052 39.1871 54.1608 38.7619 53.7608 38.2869C53.0274 37.4087 52.4552 36.3428 52.0941 35.1554C51.8219 34.2496 51.6719 33.272 51.6719 32.2503C51.6719 31.8968 51.6885 31.5434 51.7274 31.2009C53.3663 31.0573 58.9608 30.7315 60.7719 25.6338C61.5274 27.4785 62.3108 28.4229 65.7274 29.5551C65.9663 30.4056 66.0941 31.3114 66.0941 32.2503C66.0941 32.8081 66.0497 33.3494 65.9663 33.8796C65.6885 35.5806 64.9941 37.105 64.0052 38.2869C63.5552 38.8281 63.0385 39.2976 62.483 39.6842C61.4219 40.4077 60.1941 40.8219 58.883 40.8219Z" fill="#333333"/>
<path fill-rule="evenodd" clip-rule="evenodd" d="M58.883 40.8219C57.4885 40.8219 56.1885 40.3525 55.0885 39.5406C54.6052 39.1871 54.1608 38.7619 53.7608 38.2869C53.0274 37.4087 52.4552 36.3428 52.0941 35.1554C51.8219 34.2496 51.6719 33.272 51.6719 32.2503C51.6719 31.8968 51.6885 31.5434 51.7274 31.2009C53.3663 31.0573 58.9608 30.7315 60.7719 25.6338C61.5274 27.4785 62.3108 28.4229 65.7274 29.5551C65.9663 30.4056 66.0941 31.3114 66.0941 32.2503C66.0941 32.8081 66.0497 33.3494 65.9663 33.8796C65.6885 35.5806 64.9941 37.105 64.0052 38.2869C63.5552 38.8281 63.0385 39.2976 62.483 39.6842C61.4219 40.4077 60.1941 40.8219 58.883 40.8219Z" fill="white" fill-opacity="0.88"/>
<path fill-rule="evenodd" clip-rule="evenodd" d="M60.778 25.6328C58.9669 30.7305 53.3724 31.0508 51.7335 31.1999C51.7002 31.5423 51.678 31.8958 51.678 32.2493C51.678 33.2655 51.828 34.2486 52.1002 35.1544C47.128 22.3135 58.978 20.7836 60.9446 23.28C65.7057 23.2137 68.2002 29.0404 65.9613 33.8786C66.0446 33.3539 66.0891 32.8071 66.0891 32.2493C66.0891 31.3104 65.9613 30.3991 65.7224 29.5541C62.3169 28.4219 61.528 27.4775 60.778 25.6328Z" fill="#CCCCCC"/>
<path fill-rule="evenodd" clip-rule="evenodd" d="M62.7393 39.5688L62.7449 39.8063C62.7949 40.8005 62.8393 41.7946 63.0615 42.6672L62.5504 42.7942C62.3171 41.8719 62.2727 40.8502 62.2227 39.8339L62.2171 39.5799L62.7393 39.5688ZM54.4727 42.6506C54.6338 42.1757 54.7227 41.6897 54.7671 41.1981C54.8115 40.6955 54.8227 40.1874 54.8282 39.6738V39.4805L55.356 39.486V39.6793C55.3504 40.204 55.3449 40.7231 55.2949 41.2478C55.2449 41.778 55.1504 42.3027 54.9727 42.8219L54.4727 42.6506Z" fill="#333333"/>
<path fill-rule="evenodd" clip-rule="evenodd" d="M52 31.1675C51.9778 31.3442 51.9667 31.5265 51.9556 31.7032C51.9445 31.8799 51.9389 32.0622 51.9389 32.2555C51.9389 33.3766 52.1278 34.4536 52.4667 35.4312C52.8167 36.4474 53.3334 37.3587 53.9667 38.1264C54.6111 38.8996 55.3778 39.5182 56.2278 39.9379C57.0445 40.3411 57.9389 40.5675 58.8834 40.5675C59.8278 40.5675 60.7222 40.3466 61.5389 39.9379C62.3889 39.5182 63.1611 38.8941 63.8 38.1264C64.4389 37.3642 64.95 36.4474 65.3 35.4367C65.6389 34.4591 65.8278 33.3877 65.8278 32.261C65.8278 31.7916 65.7945 31.3332 65.7334 30.8968C65.6722 30.444 65.5778 30.0021 65.4556 29.5713L65.9611 29.4277C66.0889 29.8751 66.1889 30.3445 66.2556 30.825C66.3222 31.2945 66.3556 31.775 66.3556 32.261C66.3556 33.4429 66.1556 34.5751 65.8 35.6079C65.4278 36.6794 64.8834 37.6514 64.2056 38.4633C63.5167 39.2917 62.6889 39.9545 61.7722 40.4129C60.8834 40.8547 59.9056 41.0977 58.8834 41.0977C57.8611 41.0977 56.8834 40.8547 55.9945 40.4129C55.0778 39.96 54.25 39.2917 53.5611 38.4633C52.8834 37.6514 52.3389 36.6794 51.9667 35.6079C51.6111 34.5751 51.4111 33.4484 51.4111 32.2665C51.4111 32.0788 51.4167 31.8854 51.4278 31.6866C51.4389 31.4933 51.4556 31.3055 51.4778 31.1178L52 31.1675Z" fill="#333333"/>
<path fill-rule="evenodd" clip-rule="evenodd" d="M51.7277 31.1999C51.6943 31.5423 51.6721 31.8958 51.6721 32.2493C51.6721 33.2655 51.8221 34.2486 52.0943 35.1544C47.1221 22.3135 58.9721 20.7836 60.9388 23.28C65.6999 23.2137 68.1943 29.0404 65.9554 33.8786C66.0388 33.3539 66.0832 32.8071 66.0832 32.2493C66.0832 31.3104 65.9554 30.3991 65.7166 29.5541C62.3054 28.4219 61.5166 27.4775 60.761 25.6328C58.9666 30.7305 53.3666 31.0563 51.7277 31.1999Z" fill="#858585"/>
<path fill-rule="evenodd" clip-rule="evenodd" d="M51.9721 31.4435L51.9554 31.7417C51.9498 31.9019 51.9443 32.0731 51.9443 32.2553C51.9443 32.7469 51.9776 33.2274 52.0498 33.6913C52.1221 34.1718 52.2221 34.6357 52.361 35.0831L51.861 35.2543C50.1498 30.8415 50.3998 27.721 51.561 25.6223C52.1887 24.4845 53.0887 23.6451 54.0832 23.0651C55.0776 22.4908 56.1721 22.1704 57.1998 22.06C58.8665 21.8832 60.3832 22.2698 61.0776 23.021C61.8998 23.0265 62.661 23.2032 63.3387 23.5125C64.4887 24.0372 65.4165 24.954 66.0554 26.0972C66.6887 27.2294 67.0443 28.5881 67.0665 30.0075C67.0832 31.322 66.8165 32.6917 66.211 33.9895L65.411 35.7238L65.7165 33.8404C65.7554 33.5864 65.7887 33.3213 65.811 33.0506C65.8332 32.7911 65.8443 32.526 65.8443 32.2553C65.8443 31.7969 65.811 31.3496 65.7554 30.9188C65.6998 30.5211 65.6221 30.1345 65.5276 29.759C63.8665 29.2011 62.8221 28.6765 62.0998 28.0634C61.5054 27.5553 61.1276 26.9975 60.7998 26.3182C58.7998 30.8138 53.8054 31.2888 51.9721 31.4435ZM51.4276 31.7141C51.4387 31.5374 51.4498 31.3551 51.4665 31.1728L51.4887 30.9574L51.861 30.9243C53.6332 30.7752 58.8221 30.3333 60.5221 25.5505L60.7498 24.8988L61.011 25.5394C61.3721 26.4231 61.7387 27.0914 62.4165 27.6658C63.1054 28.2512 64.1332 28.7593 65.7998 29.3116L65.9332 29.3558L65.9721 29.4883C66.0943 29.9302 66.1887 30.3831 66.2498 30.8525C66.2943 31.1894 66.3276 31.5318 66.3387 31.8798C66.4665 31.2557 66.5276 30.6261 66.5221 30.013C66.5054 28.6765 66.1721 27.4062 65.5776 26.3513C64.9887 25.3019 64.1443 24.468 63.0998 23.9875C62.4554 23.6948 61.7276 23.5346 60.9387 23.5401H60.811L60.7332 23.4407C60.1943 22.7614 58.8054 22.4134 57.2443 22.5791C56.2832 22.6785 55.261 22.9823 54.3387 23.518C53.4165 24.0538 52.5887 24.827 52.011 25.8763C51.2054 27.3289 50.8776 29.3226 51.411 31.9681L51.4276 31.7141Z" fill="#333333"/>
<path fill-rule="evenodd" clip-rule="evenodd" d="M60.8056 47.0575L60.5278 47.6319C59.7167 49.3109 58.989 49.703 58.3056 49.3716C57.6945 49.0734 57.2001 48.1289 56.7334 47.0409L57.2167 46.8366C57.639 47.8252 58.0723 48.6757 58.539 48.9022C58.9334 49.0955 59.4167 48.7365 60.0556 47.4054L60.3334 46.8311L60.8056 47.0575Z" fill="#333333"/>
<path fill-rule="evenodd" clip-rule="evenodd" d="M12.7839 39.5795L12.7783 39.8336C12.7283 40.8554 12.6783 41.8716 12.4506 42.7939L11.9395 42.6669C12.1561 41.7887 12.2061 40.8001 12.2506 39.806L12.2561 39.563L12.7839 39.5795ZM20.0283 42.816C19.8506 42.3024 19.7561 41.7722 19.7061 41.242C19.6561 40.7228 19.6506 40.1981 19.645 39.6734V39.4801L20.1728 39.4746V39.6679C20.1783 40.1816 20.1839 40.6897 20.2339 41.1923C20.2783 41.6838 20.3672 42.1698 20.5283 42.6448L20.0283 42.816Z" fill="#333333"/>
<path fill-rule="evenodd" clip-rule="evenodd" d="M14.6607 46.8311L14.9385 47.4054C15.5774 48.7365 16.0607 49.0955 16.4551 48.9022C16.9163 48.6757 17.3551 47.8252 17.7774 46.8366L18.2607 47.0409C17.794 48.1289 17.2996 49.0734 16.6885 49.3716C16.0107 49.703 15.2774 49.3164 14.4663 47.6319L14.1885 47.0575L14.6607 46.8311Z" fill="#333333"/>
<path fill-rule="evenodd" clip-rule="evenodd" d="M52.7727 47.4713C51.9782 47.0516 51.1449 46.6484 50.356 46.3004C49.2393 45.8034 48.2115 45.3947 47.4782 45.1406C46.9338 46.1403 46.3782 46.9963 45.7504 47.9463C45.356 48.5483 45.006 49.0785 44.6671 49.5645C44.3504 50.0229 44.0671 50.393 43.806 50.6691C43.5838 50.9066 43.3782 51.0778 43.1671 51.1938C42.9782 51.2932 42.7782 51.3429 42.5615 51.3374C42.4449 51.3374 42.3338 51.3153 42.2282 51.2821C42.1171 51.249 42.006 51.1938 41.9004 51.1275C41.7727 51.0502 41.6393 50.9453 41.506 50.8293C41.3727 50.7078 41.2282 50.5586 41.0727 50.3874C40.8115 50.1002 40.5504 49.813 40.2949 49.5203C40.2282 49.432 40.1671 49.3436 40.0949 49.2607C40.156 49.3491 40.2227 49.443 40.2893 49.5369L40.0838 50.0119C40.0671 50.045 40.056 50.0837 40.0393 50.1168L39.2227 52.0333C39.5727 52.7844 39.8671 53.657 40.1115 54.6125L40.4949 56.413C40.7004 57.6004 40.8615 58.8707 40.9838 60.1244C41.1282 61.6045 41.2171 63.0847 41.2782 64.3992C41.3393 65.7136 41.3727 66.8458 41.3949 67.6467L41.4171 68.5856V69.5631C44.6727 69.2483 47.606 68.7347 50.3949 67.8952C51.4171 67.5693 51.8838 67.4092 53.1338 66.9452C55.3115 66.0892 57.4393 65.0012 59.6115 63.6149L60.3671 63.1565L59.9171 59.9532C59.6449 58.3957 59.0282 55.7502 58.1393 53.4361C57.756 52.5027 57.3115 51.5804 56.7838 50.6636C56.4893 50.2107 56.1782 49.8241 55.8504 49.5314C55.056 48.83 53.9838 48.1285 52.7727 47.4713Z" fill="#333333"/>
<path fill-rule="evenodd" clip-rule="evenodd" d="M52.7727 47.4713C51.9782 47.0516 51.1449 46.6484 50.356 46.3004C49.2393 45.8034 48.2115 45.3947 47.4782 45.1406C46.9338 46.1403 46.3782 46.9963 45.7504 47.9463C45.356 48.5483 45.006 49.0785 44.6671 49.5645C44.3504 50.0229 44.0671 50.393 43.806 50.6691C43.5838 50.9066 43.3782 51.0778 43.1671 51.1938C42.9782 51.2932 42.7782 51.3429 42.5615 51.3374C42.4449 51.3374 42.3338 51.3153 42.2282 51.2821C42.1171 51.249 42.006 51.1938 41.9004 51.1275C41.7727 51.0502 41.6393 50.9453 41.506 50.8293C41.3727 50.7078 41.2282 50.5586 41.0727 50.3874C40.8115 50.1002 40.5504 49.813 40.2949 49.5203C40.2282 49.432 40.1671 49.3436 40.0949 49.2607C40.156 49.3491 40.2227 49.443 40.2893 49.5369L40.0838 50.0119C40.0671 50.045 40.056 50.0837 40.0393 50.1168L39.2227 52.0333C39.5727 52.7844 39.8671 53.657 40.1115 54.6125L40.4949 56.413C40.7004 57.6004 40.8615 58.8707 40.9838 60.1244C41.1282 61.6045 41.2171 63.0847 41.2782 64.3992C41.3393 65.7136 41.3727 66.8458 41.3949 67.6467L41.4171 68.5856V69.5631C44.6727 69.2483 47.606 68.7347 50.3949 67.8952C51.4171 67.5693 51.8838 67.4092 53.1338 66.9452C55.3115 66.0892 57.4393 65.0012 59.6115 63.6149L60.3671 63.1565L59.9171 59.9532C59.6449 58.3957 59.0282 55.7502 58.1393 53.4361C57.756 52.5027 57.3115 51.5804 56.7838 50.6636C56.4893 50.2107 56.1782 49.8241 55.8504 49.5314C55.056 48.83 53.9838 48.1285 52.7727 47.4713Z" fill="white" fill-opacity="0.88"/>
<path fill-rule="evenodd" clip-rule="evenodd" d="M33.7826 64.3722C33.8493 62.997 33.9437 61.5224 34.0826 60.0698C34.1215 59.6832 34.1604 59.2966 34.2048 58.9155C34.3326 57.822 34.4937 56.7395 34.6937 55.7288C34.9604 54.3867 35.2993 53.1827 35.7215 52.2825L35.8771 51.9566L35.3437 50.8465L34.7271 49.5762C34.6993 49.6094 34.6715 49.6425 34.6382 49.6756C34.4271 49.9076 34.2215 50.1451 34.0104 50.3771C33.8548 50.5483 33.7104 50.6974 33.5715 50.8244C33.4382 50.9459 33.3104 51.0453 33.1771 51.1227C33.0715 51.1889 32.9604 51.2442 32.8437 51.2773C32.7382 51.3104 32.6271 51.3325 32.5104 51.3325C32.2993 51.3381 32.0993 51.2883 31.9048 51.1889C31.6993 51.0785 31.4882 50.9017 31.2604 50.6643C31.0604 50.4489 30.8437 50.1727 30.6104 49.8524C30.3715 49.521 30.1159 49.1454 29.8382 48.7257C29.0548 47.5383 28.2771 46.3729 27.5437 45.1523C24.3826 46.2459 21.0326 47.8641 19.2048 49.4989C17.0771 51.3988 15.5937 57.2531 15.1326 59.9207L14.6826 63.124L15.4382 63.5824C17.6104 64.9687 19.7382 66.0567 21.9159 66.9128C23.1659 67.3767 23.6382 67.5369 24.6548 67.8627C27.4437 68.7022 30.3771 69.2159 33.6326 69.5307V68.5586C33.6382 68.4206 33.6382 68.277 33.6437 68.1334L33.6604 67.6418C33.6604 67.5976 33.6604 67.5479 33.6659 67.5037C33.6882 66.5704 33.7271 65.5044 33.7826 64.3722Z" fill="#333333"/>
<path fill-rule="evenodd" clip-rule="evenodd" d="M33.7826 64.3722C33.8493 62.997 33.9437 61.5224 34.0826 60.0698C34.1215 59.6832 34.1604 59.2966 34.2048 58.9155C34.3326 57.822 34.4937 56.7395 34.6937 55.7288C34.9604 54.3867 35.2993 53.1827 35.7215 52.2825L35.8771 51.9566L35.3437 50.8465L34.7271 49.5762C34.6993 49.6094 34.6715 49.6425 34.6382 49.6756C34.4271 49.9076 34.2215 50.1451 34.0104 50.3771C33.8548 50.5483 33.7104 50.6974 33.5715 50.8244C33.4382 50.9459 33.3104 51.0453 33.1771 51.1227C33.0715 51.1889 32.9604 51.2442 32.8437 51.2773C32.7382 51.3104 32.6271 51.3325 32.5104 51.3325C32.2993 51.3381 32.0993 51.2883 31.9048 51.1889C31.6993 51.0785 31.4882 50.9017 31.2604 50.6643C31.0604 50.4489 30.8437 50.1727 30.6104 49.8524C30.3715 49.521 30.1159 49.1454 29.8382 48.7257C29.0548 47.5383 28.2771 46.3729 27.5437 45.1523C24.3826 46.2459 21.0326 47.8641 19.2048 49.4989C17.0771 51.3988 15.5937 57.2531 15.1326 59.9207L14.6826 63.124L15.4382 63.5824C17.6104 64.9687 19.7382 66.0567 21.9159 66.9128C23.1659 67.3767 23.6382 67.5369 24.6548 67.8627C27.4437 68.7022 30.3771 69.2159 33.6326 69.5307V68.5586C33.6382 68.4206 33.6382 68.277 33.6437 68.1334L33.6604 67.6418C33.6604 67.5976 33.6604 67.5479 33.6659 67.5037C33.6882 66.5704 33.7271 65.5044 33.7826 64.3722Z" fill="white" fill-opacity="0.88"/>
<path fill-rule="evenodd" clip-rule="evenodd" d="M31.7334 43.992C34.139 46.4828 41.0278 46.3944 43.3112 43.992C42.8223 42.5726 42.7945 41.0924 42.7834 39.6122C42.7834 39.6012 42.7834 39.4963 42.7834 39.4189C41.2056 40.5788 39.3445 41.2526 37.3501 41.2526C35.4723 41.2526 33.7167 40.6616 32.2001 39.6233C32.2001 39.673 32.2001 39.7227 32.2001 39.7282C32.1278 41.1973 32.0612 42.6775 31.7334 43.992Z" fill="#333333"/>
<path fill-rule="evenodd" clip-rule="evenodd" d="M31.7334 43.992C34.139 46.4828 41.0278 46.3944 43.3112 43.992C42.8223 42.5726 42.7945 41.0924 42.7834 39.6122C42.7834 39.6012 42.7834 39.4963 42.7834 39.4189C41.2056 40.5788 39.3445 41.2526 37.3501 41.2526C35.4723 41.2526 33.7167 40.6616 32.2001 39.6233C32.2001 39.673 32.2001 39.7227 32.2001 39.7282C32.1278 41.1973 32.0612 42.6775 31.7334 43.992Z" fill="white" fill-opacity="0.88"/>
<path fill-rule="evenodd" clip-rule="evenodd" d="M37.3496 41.253C39.344 41.253 41.2051 40.5847 42.7829 39.4193C43.4773 38.9112 44.1107 38.3037 44.6829 37.6189C45.7329 36.3652 46.5496 34.8353 47.0662 33.1342C47.4607 31.8363 47.6718 30.4335 47.6718 28.9754C47.6718 28.4673 47.644 27.9647 47.594 27.4677C45.2496 27.2633 37.2329 26.7994 34.644 19.498C33.5662 22.138 32.4385 23.4911 27.5496 25.1094C27.2107 26.3244 27.0273 27.6223 27.0273 28.9699C27.0273 29.7652 27.0885 30.544 27.2107 31.3006C27.6051 33.7362 28.6051 35.9233 30.0162 37.6133C30.6662 38.3921 31.3996 39.0659 32.1996 39.6126C33.7162 40.662 35.4718 41.253 37.3496 41.253Z" fill="#333333"/>
<path fill-rule="evenodd" clip-rule="evenodd" d="M37.3496 41.253C39.344 41.253 41.2051 40.5847 42.7829 39.4193C43.4773 38.9112 44.1107 38.3037 44.6829 37.6189C45.7329 36.3652 46.5496 34.8353 47.0662 33.1342C47.4607 31.8363 47.6718 30.4335 47.6718 28.9754C47.6718 28.4673 47.644 27.9647 47.594 27.4677C45.2496 27.2633 37.2329 26.7994 34.644 19.498C33.5662 22.138 32.4385 23.4911 27.5496 25.1094C27.2107 26.3244 27.0273 27.6223 27.0273 28.9699C27.0273 29.7652 27.0885 30.544 27.2107 31.3006C27.6051 33.7362 28.6051 35.9233 30.0162 37.6133C30.6662 38.3921 31.3996 39.0659 32.1996 39.6126C33.7162 40.662 35.4718 41.253 37.3496 41.253Z" fill="white" fill-opacity="0.88"/>
<path fill-rule="evenodd" clip-rule="evenodd" d="M27.5449 45.1517C28.2727 46.3722 29.056 47.5376 29.8394 48.725C30.1171 49.1448 30.3727 49.5203 30.6116 49.8517C30.8449 50.172 31.0616 50.4482 31.2616 50.6636C31.4838 50.9011 31.6949 51.0778 31.906 51.1883C32.1005 51.2877 32.2949 51.3374 32.5116 51.3318C32.6283 51.3263 32.7394 51.3098 32.8449 51.2766C32.956 51.238 33.0671 51.1883 33.1783 51.122C33.306 51.0391 33.4394 50.9397 33.5727 50.8237C33.7116 50.6967 33.856 50.5476 34.0116 50.3764C34.2227 50.1444 34.4283 49.9069 34.6394 49.675C34.6671 49.6418 34.6949 49.6087 34.7283 49.5755L34.7227 49.5645C35.9838 47.8745 36.6116 46.7975 37.1171 46.3999C37.1727 46.3225 37.2283 46.2452 37.2838 46.1679H37.8505C37.9783 46.3281 38.0949 46.4882 38.206 46.6429C38.6394 47.1068 39.206 47.9684 40.1005 49.2552C40.1671 49.3381 40.2338 49.4264 40.3005 49.5148C40.5616 49.802 40.8227 50.0892 41.0783 50.3819C41.2338 50.5531 41.3783 50.7022 41.5116 50.8237C41.6449 50.9452 41.7783 51.0447 41.906 51.122C42.0171 51.1883 42.1227 51.2435 42.2338 51.2766C42.3394 51.3098 42.4505 51.3318 42.5671 51.3318C42.7838 51.3374 42.9783 51.2877 43.1727 51.1883C43.3838 51.0778 43.5949 50.9011 43.8116 50.6636C44.0671 50.3874 44.3505 50.0174 44.6727 49.559C45.0116 49.073 45.3616 48.5428 45.756 47.9408C46.3838 46.9853 46.9394 46.1348 47.4838 45.1351C47.3838 45.102 47.2838 45.0633 47.1894 45.0302C46.9838 44.9584 46.7838 44.8921 46.5838 44.8258C46.5449 44.8148 46.5005 44.7982 46.4616 44.7872C45.8505 44.5883 45.2616 44.4171 44.7338 44.279C44.2171 44.152 43.7394 44.0471 43.3227 43.9863C41.0394 46.3888 34.1505 46.4772 31.7449 43.9863C31.3227 44.0471 30.8449 44.1465 30.3338 44.279C29.8005 44.4116 29.2171 44.5828 28.606 44.7816C28.2449 44.9087 27.8949 45.0302 27.5449 45.1517Z" fill="#ADADAD"/>
<path fill-rule="evenodd" clip-rule="evenodd" d="M41.4178 69.5632V68.5801L41.3956 67.6412C41.3734 66.8404 41.3456 65.7082 41.2789 64.3937C41.2178 63.0848 41.1234 61.5991 40.9845 60.1189C40.8622 58.8652 40.7067 57.5949 40.4956 56.4075L40.1122 54.607C39.8678 53.6515 39.5734 52.7789 39.2234 52.0278L40.29 49.5314C37.0678 44.9253 37.8734 45.3285 34.7178 49.559L35.34 50.8404L35.8734 51.9505L35.7178 52.2763C35.2956 53.1766 34.9567 54.3751 34.69 55.7227C34.49 56.7334 34.3289 57.8159 34.2011 58.9094C34.1567 59.2905 34.1178 59.6771 34.0789 60.0637C33.94 61.5162 33.8456 62.9909 33.7789 64.3661C33.7234 65.4983 33.69 66.5642 33.6622 67.4976C33.6622 67.5473 33.6622 67.5915 33.6567 67.6357L33.64 68.1272C33.6345 68.2763 33.6345 68.4144 33.6289 68.5525V69.5245C33.6345 69.5245 33.64 69.5245 33.6511 69.5245C33.84 69.5411 34.0345 69.5632 34.2289 69.5797C36.4511 69.7786 38.8956 69.7786 41.4178 69.5632Z" fill="#E17415"/>
<path fill-rule="evenodd" clip-rule="evenodd" d="M34.6442 19.5092C37.2387 26.805 45.2498 27.269 47.5942 27.4788C47.6442 27.9704 47.672 28.473 47.672 28.9866C47.672 30.4447 47.4554 31.8475 47.0665 33.1454C54.1887 14.7595 37.2165 12.5669 34.3998 16.1402C27.5831 16.0518 24.0054 24.3915 27.2165 31.3173C27.0942 30.5662 27.0331 29.7819 27.0331 28.9866C27.0331 27.639 27.2165 26.3411 27.5554 25.1261C32.4387 23.5023 33.5665 22.1492 34.6442 19.5092Z" fill="#CCCCCC"/>
<path fill-rule="evenodd" clip-rule="evenodd" d="M32.4674 39.4691C32.4674 39.5851 32.4674 39.6956 32.4618 39.8115C32.3896 41.2751 32.323 42.7387 31.9896 44.0587L31.4785 43.9317C31.7952 42.6614 31.8674 41.2199 31.9341 39.7839L31.9452 39.4636L32.4674 39.4691ZM43.0619 44.0753C42.8119 43.3462 42.6785 42.6006 42.6063 41.844C42.5341 41.0984 42.523 40.3528 42.5174 39.6072V39.3311H43.0452V39.6072C43.0507 40.3418 43.0619 41.0763 43.1341 41.7943C43.2007 42.5068 43.3285 43.2137 43.5619 43.9041L43.0619 44.0753Z" fill="#333333"/>
<path fill-rule="evenodd" clip-rule="evenodd" d="M47.8506 27.3566C47.8784 27.6217 47.9006 27.8923 47.9173 28.1629C47.9339 28.4391 47.9395 28.7152 47.9395 28.9803C47.9395 30.6648 47.6617 32.272 47.1506 33.7356C46.6228 35.2599 45.8506 36.6352 44.8839 37.7894C43.9062 38.9603 42.7395 39.9047 41.4395 40.5509C40.1839 41.175 38.8006 41.5174 37.3506 41.5174C35.9006 41.5174 34.5228 41.175 33.2617 40.5509C31.9617 39.9047 30.7895 38.9658 29.8117 37.7894C28.8506 36.6352 28.0784 35.2599 27.5506 33.7356C27.0451 32.272 26.7617 30.6648 26.7617 28.9803C26.7617 28.29 26.8117 27.6051 26.9006 26.9368C26.9951 26.2575 27.1339 25.5892 27.3173 24.9541L27.8228 25.0977C27.6451 25.7163 27.5117 26.3514 27.4228 27.0086C27.3339 27.6493 27.2895 28.3065 27.2895 28.9803C27.2895 30.6041 27.5617 32.1505 28.0506 33.5644C28.5562 35.028 29.3006 36.348 30.2228 37.4525C31.1506 38.5682 32.2617 39.4629 33.5006 40.076C34.6839 40.6614 35.9895 40.9872 37.3506 40.9872C38.7173 40.9872 40.0173 40.6614 41.2062 40.076C42.4395 39.4629 43.5506 38.5682 44.4784 37.4525C45.4006 36.348 46.1451 35.028 46.6506 33.5644C47.1395 32.1505 47.4117 30.6041 47.4117 28.9803C47.4117 28.7042 47.4062 28.4446 47.3895 28.185C47.3784 27.9255 47.3562 27.6659 47.3284 27.4063L47.8506 27.3566Z" fill="#333333"/>
<path fill-rule="evenodd" clip-rule="evenodd" d="M47.8559 27.4504C47.8837 27.7045 47.9004 27.9641 47.917 28.2181C47.9281 28.4777 47.9393 28.7317 47.9393 28.9803C47.9393 29.1957 47.9337 29.4055 47.9281 29.6209C49.017 25.2854 48.5559 22.0821 47.2948 19.7901C46.4559 18.2657 45.2559 17.1501 43.917 16.3714C42.5781 15.5926 41.1004 15.1618 39.7059 15.0127C37.4281 14.7697 35.4004 15.2834 34.6059 16.2885L34.5281 16.3879H34.4004C33.2504 16.3714 32.2004 16.6033 31.2615 17.0341C29.7393 17.73 28.517 18.9451 27.6615 20.4639C26.8059 21.9937 26.3226 23.8329 26.2948 25.7604C26.2781 26.9423 26.4337 28.1574 26.7781 29.3558L26.7726 28.9748C26.7726 28.301 26.817 27.6327 26.9059 26.981C26.9948 26.3182 27.1281 25.672 27.3004 25.0424L27.3393 24.9099L27.4726 24.8657C29.8837 24.0704 31.3615 23.3413 32.3615 22.4908C33.3504 21.6568 33.8837 20.6848 34.4059 19.4035L34.667 18.7628L34.9004 19.4145C37.3504 26.3348 44.8281 26.9754 47.3893 27.1964L47.8393 27.235L47.8559 27.4504ZM47.3893 28.2457C47.3781 28.069 47.367 27.8923 47.3504 27.721H47.3393C44.7726 27.5001 37.4059 26.8705 34.6281 20.2098C34.1448 21.2813 33.6004 22.1318 32.6948 22.8995C31.6615 23.7777 30.167 24.5233 27.767 25.3241C27.617 25.8874 27.5004 26.4618 27.4226 27.0583C27.3393 27.6824 27.2948 28.323 27.2948 28.9858C27.2948 29.3724 27.3115 29.759 27.3393 30.1401C27.3726 30.5322 27.417 30.9078 27.4781 31.2778L27.7837 33.1612L26.9781 31.427C26.1226 29.5823 25.7393 27.6327 25.767 25.7714C25.7948 23.7556 26.3004 21.8281 27.2004 20.2264C28.1059 18.6137 29.4115 17.3158 31.0393 16.5757C32.0115 16.1284 33.1004 15.8798 34.2781 15.8798C35.2281 14.8029 37.3837 14.2561 39.7615 14.5046C41.2226 14.6593 42.7726 15.1121 44.1837 15.9295C45.5948 16.7469 46.8615 17.9344 47.7559 19.5471C49.4004 22.5239 49.7504 26.9589 47.317 33.2385L46.817 33.0673C47.0115 32.4211 47.1615 31.7473 47.2615 31.0569C47.3615 30.3831 47.4115 29.6927 47.4115 28.9803C47.4115 28.7262 47.4004 28.4777 47.3893 28.2457Z" fill="#333333"/>
<path fill-rule="evenodd" clip-rule="evenodd" d="M35.1721 49.9069L35.5721 50.7298C36.5277 52.7126 37.2721 53.2317 37.8943 52.9224C38.5888 52.58 39.2277 51.3429 39.8388 49.9014L40.3221 50.1057C39.6666 51.6411 38.9666 52.9777 38.1221 53.3919C37.211 53.8392 36.2166 53.2869 35.0943 50.9563L34.6943 50.1333L35.1721 49.9069Z" fill="#333333"/>
<path fill-rule="evenodd" clip-rule="evenodd" d="M31.7331 43.9918C31.3109 44.0526 30.8331 44.152 30.322 44.2846C29.7887 44.4171 29.2054 44.5883 28.5942 44.7872C28.2442 44.9087 27.8942 45.0302 27.5498 45.1517C28.2776 46.3722 29.0609 47.5376 29.8442 48.7305C30.122 49.1503 30.3776 49.5258 30.6165 49.8572C30.8498 50.1776 31.0665 50.4537 31.2665 50.6691C31.4887 50.9066 31.6998 51.0833 31.9109 51.1938C32.1054 51.2932 32.2998 51.3429 32.5165 51.3374C32.6276 51.3319 32.7442 51.3153 32.8498 51.2821C32.9609 51.2435 33.072 51.1938 33.1831 51.1275C33.3109 51.0447 33.4442 50.9452 33.5776 50.8293C33.7165 50.7022 33.8609 50.5531 34.0165 50.3819C34.2276 50.1499 34.4331 49.9125 34.6442 49.6805C35.1276 49.1392 35.5887 48.6587 36.022 48.1009C36.4998 47.4824 36.8165 46.7975 37.2942 46.1734H37.8609C38.4942 46.9798 38.8442 47.648 39.4554 48.4654C39.722 48.8465 40.0387 49.1392 40.3054 49.5148C40.5665 49.802 40.8276 50.0892 41.0831 50.3819C41.2387 50.5531 41.3831 50.7022 41.5165 50.8237C41.6498 50.9452 41.7831 51.0447 41.9109 51.122C42.022 51.1883 42.1276 51.2435 42.2387 51.2766C42.3442 51.3098 42.4554 51.3319 42.572 51.3319C42.7887 51.3374 42.9831 51.2877 43.1776 51.1883C43.3887 51.0778 43.5998 50.9011 43.8165 50.6636C44.072 50.3874 44.3554 50.0174 44.6776 49.559C45.0165 49.073 45.3665 48.5428 45.7609 47.9408C46.3887 46.9908 46.9443 46.1348 47.4887 45.1351C47.3887 45.102 47.2887 45.0633 47.1942 45.0302C46.9887 44.9584 46.7887 44.8921 46.5887 44.8258C46.5498 44.8148 46.5054 44.7982 46.4665 44.7872C45.8554 44.5883 45.2665 44.4171 44.7387 44.279C44.222 44.152 43.7442 44.0471 43.3276 43.9863C41.0276 46.3943 34.1387 46.4827 31.7331 43.9918Z" fill="#333333"/>
<path fill-rule="evenodd" clip-rule="evenodd" d="M31.7331 43.9918C31.3109 44.0526 30.8331 44.152 30.322 44.2846C29.7887 44.4171 29.2054 44.5883 28.5942 44.7872C28.2442 44.9087 27.8942 45.0302 27.5498 45.1517C28.2776 46.3722 29.0609 47.5376 29.8442 48.7305C30.122 49.1503 30.3776 49.5258 30.6165 49.8572C30.8498 50.1776 31.0665 50.4537 31.2665 50.6691C31.4887 50.9066 31.6998 51.0833 31.9109 51.1938C32.1054 51.2932 32.2998 51.3429 32.5165 51.3374C32.6276 51.3319 32.7442 51.3153 32.8498 51.2821C32.9609 51.2435 33.072 51.1938 33.1831 51.1275C33.3109 51.0447 33.4442 50.9452 33.5776 50.8293C33.7165 50.7022 33.8609 50.5531 34.0165 50.3819C34.2276 50.1499 34.4331 49.9125 34.6442 49.6805C35.1276 49.1392 35.5887 48.6587 36.022 48.1009C36.4998 47.4824 36.8165 46.7975 37.2942 46.1734H37.8609C38.4942 46.9798 38.8442 47.648 39.4554 48.4654C39.722 48.8465 40.0387 49.1392 40.3054 49.5148C40.5665 49.802 40.8276 50.0892 41.0831 50.3819C41.2387 50.5531 41.3831 50.7022 41.5165 50.8237C41.6498 50.9452 41.7831 51.0447 41.9109 51.122C42.022 51.1883 42.1276 51.2435 42.2387 51.2766C42.3442 51.3098 42.4554 51.3319 42.572 51.3319C42.7887 51.3374 42.9831 51.2877 43.1776 51.1883C43.3887 51.0778 43.5998 50.9011 43.8165 50.6636C44.072 50.3874 44.3554 50.0174 44.6776 49.559C45.0165 49.073 45.3665 48.5428 45.7609 47.9408C46.3887 46.9908 46.9443 46.1348 47.4887 45.1351C47.3887 45.102 47.2887 45.0633 47.1942 45.0302C46.9887 44.9584 46.7887 44.8921 46.5887 44.8258C46.5498 44.8148 46.5054 44.7982 46.4665 44.7872C45.8554 44.5883 45.2665 44.4171 44.7387 44.279C44.222 44.152 43.7442 44.0471 43.3276 43.9863C41.0276 46.3943 34.1387 46.4827 31.7331 43.9918Z" fill="white" fill-opacity="0.88"/>
<path fill-rule="evenodd" clip-rule="evenodd" d="M31.6448 44.2736C31.4725 44.3013 31.3003 44.3344 31.117 44.3731C30.8892 44.4172 30.6448 44.478 30.3837 44.5443C30.1114 44.6105 29.8392 44.6879 29.567 44.7652C29.2837 44.848 28.9837 44.9419 28.6781 45.0413L27.9392 45.2954C28.5281 46.2619 29.1503 47.2008 29.7725 48.1508L30.0614 48.5871L30.4614 49.178C30.5837 49.3603 30.7059 49.5315 30.8281 49.7027C30.9448 49.8629 31.0559 50.012 31.1614 50.139C31.2725 50.2716 31.367 50.3931 31.4614 50.487C31.567 50.5974 31.667 50.6913 31.767 50.7742C31.8559 50.8515 31.9503 50.9122 32.0392 50.9564C32.117 50.9951 32.1948 51.0227 32.2725 51.0448C32.3503 51.0614 32.4337 51.0724 32.517 51.0669H32.5225C32.5614 51.0669 32.6003 51.0614 32.6448 51.0558C32.6948 51.0448 32.7392 51.0337 32.7837 51.0227C32.8225 51.0116 32.867 50.9896 32.9114 50.9675C32.9614 50.9454 33.0059 50.9178 33.0503 50.8957C33.1059 50.857 33.167 50.8183 33.2281 50.7742C33.2837 50.73 33.3448 50.6803 33.4059 50.625C33.4725 50.5643 33.5392 50.498 33.6059 50.4317C33.6725 50.3599 33.7448 50.2826 33.8225 50.1998L34.7781 49.1338C35.1392 48.7362 35.4892 48.3551 35.8114 47.9298C36.0392 47.6316 36.2337 47.3113 36.4281 46.9909C36.617 46.6872 36.8003 46.3779 37.0225 46.0796C34.9225 46.0023 32.8725 45.4169 31.6892 44.3068L31.6448 44.2736ZM31.0114 43.8594C31.2559 43.8097 31.4892 43.7655 31.7003 43.7379L31.8337 43.7158L32.0448 43.9312C33.2281 45.0413 35.4059 45.5826 37.5725 45.5715C39.7392 45.5605 41.8892 45.0027 43.0114 43.9257L43.217 43.7158L43.3503 43.7379C43.5614 43.7711 43.7892 43.8097 44.0337 43.8594C44.2781 43.9091 44.5281 43.9699 44.7892 44.0306C45.067 44.1024 45.3503 44.1798 45.6392 44.2626C45.9337 44.3454 46.2281 44.4393 46.5337 44.5387C46.9781 44.6768 47.417 44.837 47.8503 44.9861L47.7059 45.2567C47.4281 45.7648 47.1503 46.2343 46.8614 46.6927C46.567 47.1621 46.2725 47.6095 45.9614 48.0845L45.4003 48.9405C45.217 49.2167 45.0448 49.4707 44.8781 49.7082C44.717 49.9402 44.5614 50.1501 44.417 50.3378C44.267 50.5311 44.1281 50.6968 43.9948 50.8404C43.8781 50.9675 43.7614 51.0779 43.6448 51.1718C43.5281 51.2712 43.4059 51.3541 43.2837 51.4148C43.167 51.4756 43.0503 51.5198 42.9281 51.5474C42.8059 51.575 42.6781 51.586 42.5503 51.586C42.4781 51.586 42.4114 51.5805 42.3503 51.5695C42.2781 51.5584 42.2114 51.5418 42.1503 51.5198C42.0837 51.4977 42.017 51.4701 41.9503 51.4424C41.8837 51.4093 41.817 51.3762 41.7614 51.3375C41.6892 51.2933 41.617 51.2436 41.5448 51.1884C41.4725 51.1332 41.4003 51.0724 41.3281 51.0061C41.2559 50.9398 41.1781 50.868 41.1059 50.7962C41.0281 50.7189 40.9503 50.6306 40.8725 50.5477C40.6503 50.2992 40.2448 49.9071 40.0725 49.6585C39.9448 49.4763 39.8059 49.3161 39.667 49.1559C39.517 48.9792 39.3614 48.808 39.2281 48.6092C38.9392 48.2281 38.7114 47.8801 38.4892 47.5322C38.2503 47.1677 38.017 46.8087 37.7225 46.4276H37.417C37.2225 46.6927 37.0503 46.9799 36.8725 47.2616C36.6725 47.5929 36.467 47.9243 36.2225 48.2502C35.8781 48.692 35.5281 49.0786 35.1614 49.4873L34.2059 50.5477C34.1281 50.6306 34.0503 50.7189 33.9725 50.7962C33.8948 50.8736 33.817 50.9454 33.7503 51.0116C33.6837 51.0724 33.6114 51.1332 33.5392 51.1884C33.467 51.2436 33.3948 51.2933 33.3225 51.343C33.2559 51.3817 33.1948 51.4203 33.1281 51.448C33.067 51.4756 33.0003 51.5032 32.9337 51.5253H32.9281C32.8614 51.5474 32.7948 51.5639 32.7281 51.575C32.6614 51.586 32.5948 51.5916 32.5281 51.5916C32.3948 51.5971 32.267 51.5805 32.1503 51.5529C32.0281 51.5253 31.9114 51.4811 31.7948 51.4203C31.6781 51.3596 31.5559 51.2767 31.4337 51.1773C31.317 51.0834 31.2003 50.973 31.0837 50.846C30.9725 50.73 30.867 50.6029 30.7559 50.4649C30.6448 50.3268 30.5281 50.1722 30.4114 50.012C30.2948 49.8463 30.167 49.6696 30.0337 49.4763L29.6337 48.8798L29.3448 48.4435C28.6559 47.4052 27.9781 46.3779 27.3337 45.2899L27.167 45.0137C27.5725 44.8701 28.1448 44.6326 28.5225 44.5443C28.8337 44.4449 29.1337 44.351 29.4337 44.2626C29.7337 44.1742 30.017 44.0969 30.2725 44.0306C30.5114 43.9699 30.7614 43.9091 31.0114 43.8594ZM38.1059 46.0741C38.4281 46.4883 38.6725 46.8694 38.9225 47.2505C39.1448 47.5929 39.3725 47.9354 39.6503 48.3054L39.6559 48.3109C39.7837 48.4932 39.9225 48.6533 40.0614 48.8135C40.2114 48.9847 40.3559 49.1559 40.4948 49.3492L41.267 50.1998C41.3448 50.2881 41.417 50.3655 41.4837 50.4317C41.5559 50.5035 41.6225 50.5643 41.6781 50.6195C41.7392 50.6747 41.8003 50.73 41.8614 50.7742C41.917 50.8183 41.9781 50.857 42.0337 50.8957C42.0837 50.9288 42.1281 50.9509 42.1725 50.973C42.217 50.9951 42.2614 51.0116 42.3003 51.0227C42.3448 51.0337 42.3892 51.0448 42.4337 51.0558C42.4781 51.0614 42.517 51.0669 42.5614 51.0669H42.567C42.6503 51.0669 42.7337 51.0614 42.8114 51.0448C42.8892 51.0282 42.967 50.9951 43.0392 50.9564C43.1281 50.9067 43.217 50.846 43.3114 50.7686C43.4059 50.6913 43.5059 50.5974 43.6114 50.487C43.7392 50.3544 43.867 50.1942 44.0059 50.0175C44.1448 49.8353 44.2948 49.6309 44.4503 49.41C44.6225 49.1615 44.7948 48.9074 44.967 48.6478C45.1559 48.3661 45.3392 48.09 45.5281 47.7973C45.8448 47.3168 46.1448 46.8639 46.4225 46.4165C46.6559 46.0465 46.8781 45.6709 47.1003 45.2788L46.4948 45.0745L46.3725 45.0358C46.067 44.9364 45.7725 44.848 45.4892 44.7597C45.1948 44.6713 44.917 44.5995 44.6614 44.5332C44.4059 44.4725 44.1559 44.4117 43.9281 44.3675C43.7503 44.3289 43.5725 44.2957 43.4059 44.2681L43.3781 44.2957C42.2448 45.3782 40.217 45.9802 38.1059 46.0741Z" fill="#333333"/>
<path fill-rule="evenodd" clip-rule="evenodd" d="M27.6328 45.4007C25.9828 45.9696 24.2828 46.6875 22.7773 47.4718C21.4273 48.1732 20.2384 48.9354 19.3828 49.6975C18.5495 50.4431 17.8106 51.8405 17.1939 53.409C16.2884 55.7231 15.6606 58.4017 15.3884 59.9702L14.9606 62.9913L15.5773 63.3669C16.655 64.0572 17.7273 64.6703 18.7939 65.217C19.8606 65.7638 20.9273 66.2443 22.0106 66.6696C22.6328 66.9015 23.0606 67.0562 23.455 67.1887C23.855 67.3268 24.2273 67.4483 24.7273 67.6085C26.1217 68.0282 27.5439 68.3651 29.0217 68.6358C30.4106 68.8898 31.855 69.0886 33.3661 69.2378C33.3661 68.6523 33.3939 68.0724 33.3939 67.4925C33.405 67.0231 33.4217 66.5205 33.4439 66.0013C33.4606 65.4711 33.4884 64.9188 33.5161 64.3555C33.5495 63.654 33.5884 62.9416 33.6384 62.2291C33.6884 61.5167 33.7439 60.7821 33.8161 60.042L33.8717 59.4621L33.9328 58.8877C33.9995 58.3299 34.0717 57.7831 34.1495 57.2529C34.2328 56.7172 34.3217 56.187 34.4217 55.6789C34.555 55.0051 34.7106 54.3589 34.8828 53.768C35.055 53.177 35.255 52.6358 35.4717 52.1774L35.5717 51.962L35.0939 50.9678L34.3995 49.5429L34.4939 49.4159C34.955 48.7973 35.3217 48.2726 35.6328 47.8308C36.4828 46.6213 36.9328 45.9806 37.505 45.9806C38.1328 45.9751 38.6661 46.7538 39.7939 48.3886C39.9939 48.6758 40.2106 48.9961 40.4884 49.3938L40.5717 49.5098L39.4939 52.0338C39.655 52.3872 39.805 52.7683 39.9384 53.166C40.0884 53.6078 40.2273 54.0717 40.3495 54.5522C40.4439 55.099 40.5939 55.8391 40.7384 56.3748C40.8384 56.9381 40.9273 57.5291 41.005 58.1421C41.0884 58.7883 41.1661 59.4511 41.2273 60.1028C41.2995 60.8594 41.3606 61.5995 41.405 62.312C41.455 63.0244 41.4939 63.7258 41.5217 64.3886C41.555 65.0403 41.5773 65.6589 41.5939 66.2112C41.6106 66.7524 41.6273 67.2384 41.6328 67.6416C41.6495 68.3706 41.655 69.0831 41.655 69.8121L41.4106 69.8342C40.155 69.9392 38.9106 69.9944 37.6995 69.9999C36.4773 70.0054 35.2995 69.9557 34.1828 69.8563L33.605 69.8011C31.9606 69.6465 30.405 69.4366 28.905 69.1604C27.3995 68.8843 25.955 68.5419 24.555 68.1221C24.0384 67.9564 23.6661 67.8349 23.2661 67.7024C22.8606 67.5643 22.4273 67.4097 21.805 67.1777H21.7995C20.705 66.7469 19.6217 66.2554 18.5384 65.6975C17.455 65.1397 16.3717 64.5156 15.2828 63.8197L14.3828 63.273C14.5439 62.1518 14.7273 61.0141 14.8606 59.8929C15.1384 58.3023 15.7717 55.585 16.6939 53.2322C17.3328 51.5919 18.1161 50.1228 19.0161 49.3165C19.8995 48.5267 21.1273 47.7424 22.5161 47.0134C24.0439 46.2181 25.7661 45.4891 27.4384 44.9147L27.6328 45.4007ZM33.8995 69.293L34.255 69.3261C35.3717 69.4255 36.5328 69.4697 37.7217 69.4697C38.8273 69.4642 39.9773 69.42 41.1495 69.3261V68.586L41.1273 67.6471C41.1161 67.2495 41.105 66.769 41.0884 66.2167C41.0717 65.6755 41.0439 65.0679 41.0161 64.3996C40.9828 63.7535 40.9495 63.0631 40.8995 62.3341C40.8495 61.605 40.7939 60.865 40.7217 60.1415C40.6606 59.4953 40.5884 58.8436 40.4995 58.1974C40.4217 57.6175 40.3328 57.032 40.2328 56.4521L39.855 54.6682C39.7328 54.1932 39.5995 53.7404 39.455 53.3206C39.3106 52.8953 39.1495 52.4977 38.9828 52.1332L38.9328 52.0282L39.9884 49.5595L39.3717 48.6703C38.3495 47.1901 37.8661 46.4887 37.5161 46.4887C37.2161 46.4887 36.8217 47.0521 36.0717 48.118C35.7773 48.5377 35.4273 49.0348 35.0161 49.5871L35.5717 50.7303L36.1606 51.9509L35.9495 52.3927C35.7439 52.8291 35.555 53.3427 35.3884 53.9116C35.2217 54.4804 35.0717 55.11 34.9384 55.7783C34.8384 56.2809 34.7495 56.8001 34.6717 57.3303C34.5884 57.866 34.5161 58.4072 34.455 58.9485L34.3939 59.5174L34.3384 60.0917C34.2717 60.8042 34.2106 61.5332 34.1606 62.2678C34.1106 62.9968 34.0717 63.7093 34.0384 64.3831C34.0106 64.9575 33.9884 65.5042 33.9661 66.0234C33.9439 66.5536 33.9328 67.0507 33.9161 67.5146C33.9106 67.8625 33.8995 68.2105 33.8884 68.564L33.8995 69.293ZM58.5717 55.4138C58.305 54.5854 57.9939 53.7569 57.6328 52.934C57.2661 52.1111 56.855 51.2992 56.3773 50.4929C55.9273 49.7362 54.7717 48.9022 53.405 48.118C51.3439 46.9361 48.805 45.8867 47.3995 45.3841L47.5773 44.8926C48.9995 45.4007 51.5717 46.4666 53.6717 47.6651C55.1161 48.4935 56.3384 49.3883 56.8384 50.2277C57.3328 51.0562 57.755 51.8902 58.1273 52.7241C58.4939 53.5581 58.8106 54.3976 59.0884 55.2536L58.5717 55.4138Z" fill="#333333"/>
<path fill-rule="evenodd" clip-rule="evenodd" d="M47.5887 44.9365C49.261 45.5164 50.9887 46.2399 52.5165 47.0408C53.9054 47.7643 55.1332 48.5485 56.0165 49.3383C56.9165 50.1447 57.6998 51.6138 58.3443 53.2541C59.261 55.6069 59.8998 58.3242 60.1721 59.9092C60.3054 61.0304 60.4943 62.1681 60.6498 63.2893L59.7498 63.8361C58.661 64.532 57.5776 65.1561 56.4943 65.7139C55.4054 66.2717 54.3221 66.7632 53.2332 67.1885H53.2276C52.5998 67.4205 52.1721 67.5751 51.7665 67.7187C51.3776 67.8568 50.9998 67.9783 50.4776 68.144H50.4721C49.0665 68.5637 47.6276 68.9061 46.1221 69.1823C44.6221 69.4584 43.0665 69.6628 41.4221 69.823L41.3721 69.3038C42.9943 69.1492 44.5387 68.9393 46.0221 68.6687C47.4998 68.398 48.9221 68.0611 50.3165 67.6414C50.811 67.4867 51.1832 67.3652 51.5887 67.2216C51.9887 67.0836 52.4165 66.9289 53.0332 66.697C54.1165 66.2717 55.1832 65.7857 56.2498 65.2444C57.3165 64.6977 58.3832 64.0791 59.4665 63.3942L60.0832 63.0187L59.6554 59.9921C59.3832 58.4236 58.7554 55.7449 57.8554 53.4363C57.2387 51.8623 56.4998 50.465 55.6665 49.7194C54.8165 48.9572 53.6276 48.2006 52.2776 47.4936C50.7721 46.7094 49.0721 45.9914 47.4165 45.4225L47.5887 44.9365Z" fill="#333333"/>
<path fill-rule="evenodd" clip-rule="evenodd" d="M23.5223 31.107C23.5445 31.2948 23.5612 31.4826 23.5723 31.6759C23.5834 31.8747 23.589 32.068 23.589 32.2558C23.589 33.4377 23.389 34.5699 23.0334 35.5972C22.6612 36.6742 22.1168 37.6407 21.439 38.4525C20.7501 39.281 19.9223 39.9437 19.0056 40.4021C18.1168 40.844 17.139 41.087 16.1168 41.087C15.0945 41.087 14.1168 40.844 13.2279 40.4021C12.3112 39.9493 11.4834 39.281 10.7945 38.4525C10.1168 37.6407 9.57231 36.6742 9.20009 35.5972C8.84453 34.5644 8.64453 33.4322 8.64453 32.2503C8.64453 31.7642 8.67786 31.2838 8.74453 30.8088C8.8112 30.3283 8.9112 29.8644 9.03898 29.417L9.54453 29.5606C9.42231 29.9859 9.32787 30.4277 9.26675 30.8806C9.20564 31.3224 9.17231 31.7808 9.17231 32.2503C9.17231 33.3769 9.3612 34.4484 9.70009 35.426C10.0501 36.4422 10.5668 37.3535 11.2001 38.1156C11.8445 38.8889 12.6112 39.5074 13.4612 39.9272C14.2779 40.3304 15.1723 40.5568 16.1168 40.5568C17.0612 40.5568 17.9556 40.3359 18.7723 39.9272C19.6223 39.5074 20.3945 38.8833 21.0334 38.1156C21.6723 37.3535 22.1834 36.4367 22.5334 35.4204C22.8723 34.4429 23.0612 33.3714 23.0612 32.2447C23.0612 32.0514 23.0556 31.8692 23.0445 31.6924C23.0334 31.5102 23.0168 31.3335 23.0001 31.1567L23.5223 31.107Z" fill="#333333"/>
</g>
<defs>
<clipPath id="clip0_14263_108783">
<rect width="75" height="75" fill="white"/>
</clipPath>
</defs>
</svg>
