<svg width="100" height="100" viewBox="0 0 100 100" fill="none" xmlns="http://www.w3.org/2000/svg">
<path fill-rule="evenodd" clip-rule="evenodd" d="M83.037 3.25713C82.1464 2.45522 80.9999 2 79.7984 2H28.9754L10.9937 19.9702V89.6642C10.9937 90.5842 11.2521 91.4542 11.6893 92.1842C12.0669 92.8142 12.5836 93.3442 13.1898 93.7542C13.8257 94.1742 13.3587 95.0542 12.7029 94.6242C11.9476 94.1342 11.3117 93.4742 10.8446 92.7042C10.308 91.8142 10 90.7742 10 89.6642V19.5501C16.2802 13.2201 22.2883 7.32 28.5685 1H79.7885C80.6232 1 81.4182 1.18 82.1435 1.5C82.7497 1.77 83.3153 2.15714 83.7922 2.60713C84.3288 3.10713 83.6531 3.80713 83.037 3.25713Z" fill="#333333"/>
<path fill-rule="evenodd" clip-rule="evenodd" d="M11 64.924V89.6446C11 92.5856 13.3638 95 16.2648 95H79.7352C82.6264 95 85 92.5955 85 89.6446V85.5907V27.1378V8.95513V7.35545C85 4.40449 82.6264 2 79.7352 2H29L11 20V64.924Z" fill="#EFEFEF"/>
<path d="M29.5049 2C29.5049 1.79777 29.3831 1.61545 29.1962 1.53806C29.0094 1.46067 28.7943 1.50345 28.6513 1.64645L10.6513 19.6464C10.5083 19.7894 10.4656 20.0045 10.5429 20.1913C10.6203 20.3782 10.8027 20.5 11.0049 20.5H26.0049C27.9379 20.5 29.5049 18.933 29.5049 17V2Z" fill="#D9F4FF" stroke="#333333" stroke-linejoin="round"/>
<path fill-rule="evenodd" clip-rule="evenodd" d="M19 68.9272V93.6451C19 96.5858 21.4277 99 24.4071 99H86.5929C89.5623 99 92 96.5958 92 93.6451V89.5917V34.1351V15.9544V14.3549C92 11.4142 89.5723 9 86.5929 9H37.5886L19 27.5583V68.9272Z" fill="#FEFEFE"/>
<path fill-rule="evenodd" clip-rule="evenodd" d="M20 93.6451C20 96.0256 21.972 98 24.4071 98H86.5929C89.0204 98 91 96.0332 91 93.6451V14.3549C91 11.9744 89.028 10 86.5929 10H38.0023L20 27.973V93.6451ZM19 27.5583L37.5886 9H86.5929C89.5723 9 92 11.4142 92 14.3549V93.6451C92 96.5958 89.5623 99 86.5929 99H24.4071C21.4277 99 19 96.5858 19 93.6451V27.5583Z" fill="#333333"/>
<path fill-rule="evenodd" clip-rule="evenodd" d="M34.9971 28.002C36.6539 28.002 37.9971 26.6588 37.9971 25.002V10.002L19.9971 28.002H34.9971Z" fill="url(#paint0_linear_6654_172959)"/>
<path fill-rule="evenodd" clip-rule="evenodd" d="M38.3798 9.0781C38.7535 9.23288 38.9971 9.59752 38.9971 10.002V25.002C38.9971 27.2111 37.2062 29.002 34.9971 29.002H19.9971C19.5926 29.002 19.228 28.7583 19.0732 28.3847C18.9184 28.011 19.004 27.5809 19.29 27.2949L37.29 9.29488C37.576 9.00888 38.0061 8.92332 38.3798 9.0781ZM37.9971 10.002L19.9971 28.002H34.9971C36.6539 28.002 37.9971 26.6588 37.9971 25.002V10.002Z" fill="#333333"/>
<path fill-rule="evenodd" clip-rule="evenodd" d="M55.5 87C41.9695 87 31 76.0305 31 62.5C31 48.9695 41.9695 38 55.5 38C69.0305 38 80 48.9695 80 62.5C80.0107 76.0305 69.0412 87 55.5 87Z" fill="#333333"/>
<path fill-rule="evenodd" clip-rule="evenodd" d="M55.5 86C42.5218 86 32 75.4782 32 62.5C32 49.5218 42.5218 39 55.5 39C68.4782 39 79 49.5218 79 62.5C79.0102 75.4782 68.4884 86 55.5 86Z" fill="url(#paint1_linear_6654_172959)"/>
<path d="M64.4811 48.9178L64.456 48.8927L64.4276 48.8714C63.8972 48.4735 63.1296 48.4118 62.6237 48.9178L55.5001 56.0414L48.3765 48.9178C47.8706 48.4118 47.1031 48.4735 46.5727 48.8714L46.5442 48.8927L46.5191 48.9178L41.9178 53.5191L41.8927 53.5442L41.8714 53.5727C41.4735 54.1031 41.4118 54.8706 41.9178 55.3765L42.268 55.0264L41.9178 55.3765L49.0414 62.5001L41.9178 69.6237L41.8927 69.6488L41.8714 69.6772C41.4735 70.2076 41.4118 70.9752 41.9178 71.4811L46.5191 76.0824L46.5442 76.1075L46.5727 76.1289C47.1031 76.5267 47.8706 76.5884 48.3765 76.0824L55.5001 68.9588L62.6237 76.0824L62.6488 76.1075L62.6772 76.1289C63.2076 76.5267 63.9752 76.5884 64.4811 76.0824L69.0824 71.4811L69.1076 71.456L69.1289 71.4276C69.5267 70.8971 69.5884 70.1296 69.0824 69.6237L61.9589 62.5001L69.0824 55.3765L69.1076 55.3514L69.1289 55.323C69.5267 54.7926 69.5884 54.0251 69.0824 53.5191L64.4811 48.9178Z" fill="white" stroke="#333333"/>
<defs>
<linearGradient id="paint0_linear_6654_172959" x1="26.1684" y1="15.714" x2="33.1645" y2="23.2854" gradientUnits="userSpaceOnUse">
<stop stop-color="#FFC671"/>
<stop offset="1" stop-color="#FF6F3D"/>
</linearGradient>
<linearGradient id="paint1_linear_6654_172959" x1="31.2946" y1="35.8271" x2="59.1555" y2="66.5151" gradientUnits="userSpaceOnUse">
<stop stop-color="#FFC671"/>
<stop offset="1" stop-color="#FF6F3D"/>
</linearGradient>
</defs>
</svg>
