<svg width="75" height="75" viewBox="0 0 75 75" fill="none" xmlns="http://www.w3.org/2000/svg">
<path fill-rule="evenodd" clip-rule="evenodd" d="M21.3953 54.093C24.9579 53.9103 30.7235 52.2515 32.8623 50.1083C32.8227 49.8296 32.7841 49.539 32.7445 49.2401C32.4063 46.6897 31.9871 43.5275 30.0916 41.8512C28.9716 40.861 25.1392 39.2959 22.7794 38.6523C22.2608 38.9075 21.8737 39.1767 21.4709 39.4975C20.4662 39.1057 18.5699 38.8528 15.2617 38.6523C14.0157 38.964 10.8623 39.9273 8.87577 40.9898C5.69806 42.7239 5.17147 46.5236 4.71693 49.8032C4.69967 49.9278 4.68251 50.0516 4.66531 50.1745C9.20397 53.3791 14.2718 54.3686 19.4157 54.7974C20.3659 54.7974 20.9951 54.5381 21.3953 54.093Z" fill="#EFEFEF"/>
<path d="M15.7299 54.5255C12.2314 53.9872 7.45636 52.6831 4.55362 50.6129C4.26628 50.408 4.12911 50.0565 4.18047 49.7074C4.65769 46.4629 5.47596 42.6904 8.59214 40.9899C10.5181 39.9598 13.4449 38.7342 14.7572 38.3764C14.8361 38.3549 14.9175 38.3452 14.9993 38.3452H22.4474C22.5813 38.3452 22.7138 38.3721 22.837 38.4242L30.0254 41.4655" stroke="#AAAAAA" stroke-linecap="round" stroke-dasharray="2 3"/>
<path fill-rule="evenodd" clip-rule="evenodd" d="M22.4043 37.9954C21.6857 42.7302 16.2962 42.7302 15.256 37.9954C15.5562 37.0012 15.9359 36.286 15.9451 35.2536C15.9451 35.2466 15.6043 33.215 15.6043 33.215C15.6043 33.215 17.7069 33.6433 18.9385 33.6433C20.0958 33.6433 21.182 32.8886 22.1165 32.1655C22.1165 32.2003 21.7745 35.0218 21.7745 35.0253C21.8209 36.0508 22.2032 37.0777 22.4043 37.9954Z" fill="#EFEFEF" stroke="#AAAAAA" stroke-linecap="round" stroke-dasharray="3 3"/>
<path fill-rule="evenodd" clip-rule="evenodd" d="M18.9369 36.6861C17.7053 36.6861 16.5572 36.2684 15.5825 35.5474C15.1554 35.2317 14.7624 34.8542 14.4097 34.4302C13.7629 33.6504 13.2554 32.7004 12.9367 31.6452C12.6953 30.8376 12.5623 29.968 12.5623 29.0644C12.5623 28.7488 12.5777 28.4362 12.6087 28.1299C14.0569 27.9999 19.005 27.7121 20.6079 23.1787C21.2732 24.8188 21.9695 25.6605 24.9897 26.6662C25.197 27.4212 25.3115 28.2258 25.3115 29.0644C25.3115 29.5595 25.2713 30.0423 25.197 30.5095C24.9526 32.0227 24.3368 33.3812 23.4641 34.4302C23.0649 34.913 22.61 35.3307 22.1149 35.6711C21.1804 36.3179 20.0942 36.6861 18.9369 36.6861Z" fill="#EFEFEF"/>
<path d="M13.1447 28.2323C14.5982 28.1021 19.0092 27.7071 20.6082 23.1759C21.2736 24.816 21.4672 25.7429 24.4844 26.7486L25.2525 29.3117C26.4614 25.5882 24.9869 20.7479 20.7599 21.081C18.8445 18.723 8.40887 20.7479 12.937 31.6455L13.1426 28.2325L13.1447 28.2323Z" fill="#EFEFEF" stroke="#AAAAAA" stroke-linecap="round" stroke-linejoin="round" stroke-dasharray="3 3"/>
<path d="M25.4619 28.5596C24.4154 31.6992 24.6092 34.4562 21.2261 36.2038C19.7352 36.9771 17.9533 36.974 16.462 36.2038C14.163 34.7029 13.971 33.9579 12.6478 30.9157" stroke="#AAAAAA" stroke-dasharray="2 2"/>
<path d="M9.38769 52.5571L9.85405 48.334" stroke="#AAAAAA" stroke-linecap="round" stroke-linejoin="round" stroke-dasharray="3 3"/>
<path fill-rule="evenodd" clip-rule="evenodd" d="M54.3225 54.093C50.7599 53.9103 44.9943 52.2515 42.8555 50.1083C42.8951 49.8296 42.9336 49.539 42.9733 49.2401C43.3114 46.6897 43.7307 43.5275 45.6262 41.8512C46.7461 40.861 50.5785 39.2959 52.9383 38.6523C53.457 38.9075 53.8441 39.1767 54.2468 39.4975C55.2516 39.1057 57.1479 38.8528 60.456 38.6523C61.7021 38.964 64.8554 39.9273 66.842 40.9898C70.0197 42.7239 70.5463 46.5236 71.0008 49.8032C71.0181 49.9278 71.0353 50.0516 71.0525 50.1745C66.5138 53.3791 61.4459 54.3686 56.3021 54.7974C55.3519 54.7974 54.7227 54.5381 54.3225 54.093Z" fill="#EFEFEF"/>
<path d="M59.9878 54.5255C63.4863 53.9872 68.2614 52.6831 71.1642 50.6129C71.4515 50.408 71.5887 50.0565 71.5373 49.7074C71.0601 46.4629 70.2418 42.6904 67.1256 40.9899C65.1997 39.9598 62.2729 38.7342 60.9606 38.3764C60.8817 38.3549 60.8002 38.3452 60.7184 38.3452H53.2704C53.1365 38.3452 53.004 38.3721 52.8807 38.4242L45.6924 41.4655" stroke="#AAAAAA" stroke-linecap="round" stroke-dasharray="3 3"/>
<path fill-rule="evenodd" clip-rule="evenodd" d="M53.3135 37.9762C54.032 42.737 59.4216 42.737 60.4617 37.9762C60.1616 36.9766 59.7819 36.2574 59.7726 35.2193C59.7726 35.2123 60.1134 33.1695 60.1134 33.1695C60.1134 33.1695 58.0109 33.6001 56.7793 33.6001C55.622 33.6001 54.5358 32.8413 53.6013 32.1143C53.6013 32.1492 53.9433 34.9863 53.9433 34.9898C53.8969 36.0209 53.5146 37.0535 53.3135 37.9762Z" fill="#EFEFEF" stroke="#AAAAAA" stroke-linecap="round" stroke-dasharray="3 3"/>
<path fill-rule="evenodd" clip-rule="evenodd" d="M56.7809 36.6861C58.0125 36.6861 59.1605 36.2684 60.1353 35.5474C60.5623 35.2317 60.9553 34.8542 61.3081 34.4302C61.9548 33.6504 62.4623 32.7004 62.7811 31.6452C63.0224 30.8376 63.1555 29.968 63.1555 29.0644C63.1555 28.7488 63.14 28.4362 63.1091 28.1299C61.6609 27.9999 56.7128 27.7121 55.1099 23.1787C54.4445 24.8188 53.7483 25.6605 50.7281 26.6662C50.5207 27.4212 50.4062 28.2258 50.4062 29.0644C50.4062 29.5595 50.4465 30.0423 50.5207 30.5095C50.7652 32.0227 51.381 33.3812 52.2537 34.4302C52.6528 34.913 53.1077 35.3307 53.6028 35.6711C54.5374 36.3179 55.6235 36.6861 56.7809 36.6861Z" fill="#EFEFEF"/>
<path d="M62.5731 28.2323C61.1196 28.1021 56.7086 27.7071 55.1095 23.1759C54.4442 24.816 54.2505 25.7429 51.2334 26.7486L50.4653 29.3117C49.2564 25.5882 50.7309 20.7479 54.9579 21.081C56.8733 18.723 67.3089 20.7479 62.7807 31.6455L62.5752 28.2325L62.5731 28.2323Z" fill="#EFEFEF" stroke="#AAAAAA" stroke-linecap="round" stroke-linejoin="round" stroke-dasharray="3 3"/>
<path d="M50.2559 28.5596C51.3024 31.6992 51.1086 34.4562 54.4916 36.2038C55.9826 36.9771 57.7645 36.974 59.2558 36.2038C61.5547 34.7029 61.7468 33.9579 63.07 30.9157" stroke="#AAAAAA" stroke-dasharray="2 2"/>
<path d="M66.4754 52.6574L65.2645 48.5427" stroke="#AAAAAA" stroke-linecap="round" stroke-linejoin="round" stroke-dasharray="3 3"/>
<path fill-rule="evenodd" clip-rule="evenodd" d="M33.0283 37.505C33.9884 43.1363 41.1891 43.1363 42.5788 37.505C42.1778 36.3226 41.6705 35.472 41.6581 34.2441C41.6581 34.2358 42.1135 31.8195 42.1135 31.8195C42.1135 31.8195 39.3043 32.3288 37.6589 32.3288C36.1126 32.3288 34.6614 31.4312 33.4128 30.5713C33.4128 30.6126 33.8698 33.9684 33.8698 33.9725C33.8077 35.1922 33.2971 36.4135 33.0283 37.505Z" fill="white" stroke="#333333" stroke-linecap="round" stroke-dasharray="3 3"/>
<path fill-rule="evenodd" clip-rule="evenodd" d="M37.6805 34.6322C39.3768 34.6322 40.9581 34.0568 42.3007 33.0637C42.8888 32.629 43.4301 32.109 43.916 31.5251C44.8068 30.451 45.5058 29.1425 45.9448 27.6891C46.2773 26.5767 46.4605 25.379 46.4605 24.1345C46.4605 23.6997 46.4392 23.2693 46.3966 22.8473C44.4019 22.6683 37.5867 22.2719 35.3789 16.0278C34.4625 18.2868 33.5035 19.4461 29.3437 20.8313C29.0581 21.8713 28.9004 22.9794 28.9004 24.1345C28.9004 24.8164 28.9558 25.4813 29.0581 26.1249C29.3948 28.2091 30.243 30.0802 31.4449 31.5251C31.9947 32.19 32.6213 32.7654 33.3032 33.2342C34.5904 34.125 36.0864 34.6322 37.6805 34.6322Z" fill="white"/>
<path d="M28.9043 25.4243C30.0019 30.5882 30.8452 31.5868 34.5271 33.9682C36.5806 35.0333 39.0349 35.0291 41.0889 33.9682C45.0685 31.9125 46.6394 25.4212 46.7945 22.8631" stroke="#333333" stroke-linecap="round" stroke-dasharray="2 3"/>
<path d="M46.1674 23.0222C44.1515 22.8417 37.5774 22.2531 35.3791 16.0238C34.4627 18.2827 33.5037 19.442 29.3481 20.8272C29.5329 21.7863 28.8732 23.7073 29.0625 26.1251C26.2238 20.4026 29.3482 12.6795 35.1702 13.1383C37.8084 9.89052 52.7858 12.8846 46.1817 26.3539V23.0235L46.1674 23.0222Z" fill="white" stroke="#333333" stroke-linecap="round" stroke-linejoin="round" stroke-dasharray="3 3"/>
<path fill-rule="evenodd" clip-rule="evenodd" d="M43.7745 37.5276C46.03 37.9994 49.2535 38.6736 51.562 39.9195C56.1241 42.4317 57.3856 55.0098 57.3856 55.0098C52.438 58.053 47.0484 60.1872 41.2214 60.6774C41.1574 55.6941 39.9854 48.3441 37.864 43.755C38.176 43.1689 38.5435 42.7973 39.0124 42.3234C39.8258 41.5012 40.9439 40.3709 42.6054 37.2778C42.9514 37.3555 43.3455 37.4379 43.7745 37.5276ZM37.5478 44.261L34.3276 39.9762C33.4805 39.2801 32.1192 38.78 30.9176 38.3386C30.2857 38.1065 29.6979 37.8906 29.2524 37.6709C26.6062 38.3826 23.8129 39.9523 22.2506 41.3367C19.2967 43.9549 18.3857 55.0992 18.3857 55.0992C21.4018 58.1282 29.5881 60.4651 34.543 60.6775C34.543 55.9456 35.0977 48.2421 37.5478 44.261Z" fill="#FEFEFE"/>
<path d="M51.562 39.9195L51.8032 39.4815L51.7995 39.4795L51.562 39.9195ZM43.7745 37.5276L43.8769 37.0382V37.0382L43.7745 37.5276ZM57.3856 55.0098L57.6476 55.4356L57.9144 55.2715L57.8831 54.9599L57.3856 55.0098ZM41.2214 60.6774L40.7214 60.6838L40.7283 61.2206L41.2633 61.1756L41.2214 60.6774ZM37.864 43.755L37.4226 43.52L37.3059 43.7393L37.4102 43.9648L37.864 43.755ZM39.0124 42.3234L39.3679 42.675L39.0124 42.3234ZM42.6054 37.2778L42.7148 36.79L42.3445 36.7069L42.1649 37.0412L42.6054 37.2778ZM34.3276 39.9762L34.7273 39.6758L34.6913 39.628L34.645 39.5899L34.3276 39.9762ZM37.5478 44.261L37.9736 44.523L38.1521 44.2329L37.9475 43.9606L37.5478 44.261ZM30.9176 38.3386L31.0901 37.8693L30.9176 38.3386ZM29.2524 37.6709L29.4735 37.2224L29.3045 37.1391L29.1226 37.188L29.2524 37.6709ZM22.2506 41.3367L21.919 40.9625L21.919 40.9625L22.2506 41.3367ZM18.3857 55.0992L17.8874 55.0584L17.8686 55.2884L18.0314 55.4519L18.3857 55.0992ZM34.543 60.6775L34.5216 61.1771L35.043 61.1994V60.6775H34.543ZM49.8707 38.6208C49.6119 38.5246 49.3241 38.6565 49.2278 38.9153C49.1316 39.1741 49.2634 39.462 49.5223 39.5582L49.8707 38.6208ZM45.6591 38.4475C45.9282 38.5094 46.1966 38.3414 46.2585 38.0723C46.3205 37.8032 46.1525 37.5349 45.8834 37.4729L45.6591 38.4475ZM43.5846 36.977C43.3144 36.9203 43.0493 37.0934 42.9926 37.3637C42.9359 37.6339 43.109 37.899 43.3793 37.9557L43.5846 36.977ZM42.7914 37.8308C43.0613 37.8892 43.3274 37.7179 43.3859 37.448C43.4444 37.1781 43.273 36.9119 43.0031 36.8534L42.7914 37.8308ZM41.4111 38.3761C41.2696 38.6132 41.3472 38.9202 41.5844 39.0616C41.8215 39.2031 42.1284 39.1255 42.2699 38.8883L41.4111 38.3761ZM40.4512 41.5031C40.6284 41.2913 40.6003 40.9759 40.3885 40.7987C40.1767 40.6216 39.8614 40.6496 39.6842 40.8614L40.4512 41.5031ZM38.3285 42.3077C38.1379 42.5075 38.1453 42.824 38.3451 43.0146C38.5449 43.2052 38.8614 43.1978 39.052 42.998L38.3285 42.3077ZM38.5151 43.6427C38.6708 43.4147 38.6122 43.1036 38.3841 42.9479C38.1561 42.7921 37.845 42.8508 37.6893 43.0788L38.5151 43.6427ZM38.2042 45.932C38.2966 46.1923 38.5824 46.3284 38.8426 46.2361C39.1029 46.1437 39.239 45.8579 39.1467 45.5977L38.2042 45.932ZM40.3572 49.8217C40.2951 49.5527 40.0267 49.3849 39.7576 49.447C39.4885 49.5091 39.3207 49.7775 39.3828 50.0466L40.3572 49.8217ZM40.1745 54.2707C40.2147 54.5439 40.4687 54.7328 40.7419 54.6926C41.0151 54.6524 41.204 54.3983 41.1638 54.1251L40.1745 54.2707ZM41.6322 58.4785C41.614 58.2029 41.376 57.9943 41.1004 58.0124C40.8249 58.0305 40.6162 58.2686 40.6343 58.5442L41.6322 58.4785ZM43.4433 60.915C43.7162 60.8727 43.9032 60.6172 43.8609 60.3443C43.8186 60.0714 43.5631 59.8845 43.2902 59.9268L43.4433 60.915ZM47.4396 58.9947C47.1747 59.0727 47.0231 59.3506 47.101 59.6155C47.179 59.8805 47.4569 60.032 47.7219 59.9541L47.4396 58.9947ZM51.8401 58.4665C52.094 58.3578 52.2117 58.0639 52.103 57.81C51.9943 57.5562 51.7004 57.4385 51.4466 57.5472L51.8401 58.4665ZM55.2779 55.6637C55.0364 55.7976 54.9492 56.102 55.0832 56.3434C55.2172 56.5849 55.5215 56.6721 55.763 56.5381L55.2779 55.6637ZM57.6033 52.8773C57.5606 52.6045 57.3048 52.4179 57.032 52.4606C56.7592 52.5034 56.5726 52.7591 56.6153 53.032L57.6033 52.8773ZM55.8176 49.0008C55.8829 49.2691 56.1534 49.4336 56.4217 49.3683C56.69 49.3029 56.8545 49.0325 56.7892 48.7642L55.8176 49.0008ZM55.5523 44.7332C55.4525 44.4758 55.1628 44.348 54.9054 44.4478C54.6479 44.5476 54.5201 44.8373 54.62 45.0947L55.5523 44.7332ZM52.7253 41.5938C52.899 41.8085 53.2138 41.8417 53.4285 41.6681C53.6432 41.4944 53.6765 41.1796 53.5028 40.9649L52.7253 41.5938ZM33.7817 39.0136C33.5405 38.8792 33.2359 38.9657 33.1015 39.2069C32.9671 39.4482 33.0537 39.7527 33.2949 39.8871L33.7817 39.0136ZM31.6276 39.1375C31.8852 39.2368 32.1746 39.1084 32.2739 38.8508C32.3733 38.5931 32.2449 38.3037 31.9873 38.2044L31.6276 39.1375ZM30.671 37.7147C30.4122 37.6184 30.1243 37.7501 30.028 38.0089C29.9317 38.2678 30.0634 38.5556 30.3223 38.6519L30.671 37.7147ZM29.4662 38.3167C29.7205 38.4243 30.0139 38.3054 30.1215 38.0511C30.2291 37.7968 30.1101 37.5034 29.8558 37.3958L29.4662 38.3167ZM27.1808 37.8426C26.9246 37.9454 26.8002 38.2366 26.9031 38.4928C27.006 38.7491 27.2971 38.8734 27.5534 38.7705L27.1808 37.8426ZM24.1141 40.5596C24.3452 40.4084 24.4099 40.0986 24.2587 39.8675C24.1075 39.6364 23.7976 39.5717 23.5665 39.7229L24.1141 40.5596ZM20.7383 42.549C20.6079 42.7924 20.6995 43.0955 20.9428 43.2259C21.1862 43.3563 21.4893 43.2648 21.6197 43.0214L20.7383 42.549ZM20.3881 46.3078C20.4618 46.0416 20.3057 45.7662 20.0396 45.6926C19.7734 45.6189 19.498 45.775 19.4243 46.0411L20.3881 46.3078ZM18.6229 49.6232C18.5736 49.8949 18.754 50.1551 19.0257 50.2044C19.2974 50.2537 19.5576 50.0733 19.6069 49.8016L18.6229 49.6232ZM19.073 53.3577C19.1063 53.0836 18.911 52.8344 18.6369 52.8011C18.3628 52.7678 18.1136 52.963 18.0803 53.2371L19.073 53.3577ZM19.8261 56.8522C20.0594 57 20.3683 56.9307 20.5161 56.6974C20.6639 56.4641 20.5946 56.1552 20.3613 56.0075L19.8261 56.8522ZM24.1708 57.8598C23.9131 57.7605 23.6238 57.889 23.5245 58.1467C23.4253 58.4044 23.5538 58.6937 23.8115 58.793L24.1708 57.8598ZM28.0026 60.1223C28.27 60.191 28.5425 60.0298 28.6112 59.7624C28.6799 59.4949 28.5187 59.2224 28.2513 59.1537L28.0026 60.1223ZM32.4502 59.9838C32.1765 59.9472 31.925 60.1393 31.8883 60.4131C31.8517 60.6868 32.0439 60.9383 32.3176 60.9749L32.4502 59.9838ZM35.0777 58.5887C35.0868 58.3127 34.8704 58.0816 34.5944 58.0725C34.3184 58.0635 34.0873 58.2798 34.0783 58.5558L35.0777 58.5887ZM34.3591 54.316C34.331 54.5907 34.531 54.8361 34.8057 54.8642C35.0804 54.8922 35.3259 54.6922 35.3539 54.4175L34.3591 54.316ZM35.9611 50.2969C36.0155 50.0262 35.8402 49.7626 35.5695 49.7082C35.2987 49.6537 35.0352 49.8291 34.9807 50.0998L35.9611 50.2969ZM36.1557 45.9644C36.0539 46.2211 36.1795 46.5117 36.4362 46.6135C36.6929 46.7153 36.9835 46.5897 37.0853 46.333L36.1557 45.9644ZM37.1424 42.8894C36.9765 42.6686 36.6631 42.6242 36.4423 42.7901C36.2216 42.956 36.1771 43.2694 36.343 43.4902L37.1424 42.8894ZM34.7329 41.3478C34.8988 41.5686 35.2123 41.613 35.433 41.4471C35.6538 41.2812 35.6982 40.9678 35.5323 40.747L34.7329 41.3478ZM51.7995 39.4795C51.1994 39.1557 50.5457 38.8718 49.8707 38.6208L49.5223 39.5582C50.1656 39.7973 50.775 40.063 51.3245 40.3595L51.7995 39.4795ZM45.8834 37.4729C45.1665 37.308 44.484 37.1652 43.8769 37.0382L43.6722 38.017C44.2802 38.1442 44.9534 38.285 45.6591 38.4475L45.8834 37.4729ZM43.8769 37.0382C43.7774 37.0174 43.68 36.997 43.5846 36.977L43.3793 37.9557C43.475 37.9758 43.5727 37.9962 43.6722 38.017L43.8769 37.0382ZM43.0031 36.8534C42.9034 36.8318 42.8073 36.8107 42.7148 36.79L42.4959 37.7657C42.5912 37.7871 42.6898 37.8088 42.7914 37.8308L43.0031 36.8534ZM42.1649 37.0412C41.8993 37.5357 41.6484 37.9782 41.4111 38.3761L42.2699 38.8883C42.5154 38.4767 42.7737 38.021 43.0459 37.5144L42.1649 37.0412ZM39.6842 40.8614C39.2957 41.3258 38.961 41.6644 38.6569 41.9717L39.3679 42.675C39.6734 42.3662 40.0338 42.0021 40.4512 41.5031L39.6842 40.8614ZM38.6569 41.9717C38.5445 42.0854 38.4341 42.197 38.3285 42.3077L39.052 42.998C39.1502 42.895 39.2541 42.79 39.3679 42.675L38.6569 41.9717ZM37.6893 43.0788C37.596 43.2155 37.5073 43.3611 37.4226 43.52L38.3054 43.9899C38.3725 43.8637 38.4422 43.7495 38.5151 43.6427L37.6893 43.0788ZM37.4102 43.9648C37.6908 44.572 37.9558 45.2317 38.2042 45.932L39.1467 45.5977C38.8897 44.8733 38.6135 44.1846 38.3179 43.5452L37.4102 43.9648ZM39.3828 50.0466C39.7024 51.4314 39.9671 52.8616 40.1745 54.2707L41.1638 54.1251C40.9529 52.6918 40.6834 51.235 40.3572 49.8217L39.3828 50.0466ZM40.6343 58.5442C40.6837 59.2939 40.7128 60.0114 40.7214 60.6838L41.7213 60.671C41.7125 59.9792 41.6826 59.2439 41.6322 58.4785L40.6343 58.5442ZM41.2633 61.1756C41.9969 61.1139 42.7236 61.0265 43.4433 60.915L43.2902 59.9268C42.5931 60.0348 41.8895 60.1194 41.1795 60.1791L41.2633 61.1756ZM47.7219 59.9541C49.124 59.5415 50.4968 59.0416 51.8401 58.4665L51.4466 57.5472C50.1371 58.1078 48.8014 58.594 47.4396 58.9947L47.7219 59.9541ZM55.763 56.5381C56.3984 56.1856 57.0266 55.8176 57.6476 55.4356L57.1236 54.5839C56.5148 54.9583 55.8996 55.3187 55.2779 55.6637L55.763 56.5381ZM57.3856 55.0098C57.8831 54.9599 57.8831 54.9598 57.8831 54.9598C57.8831 54.9598 57.8831 54.9598 57.8831 54.9597C57.8831 54.9597 57.8831 54.9596 57.8831 54.9595C57.8831 54.9594 57.883 54.9592 57.883 54.9589C57.883 54.9584 57.8829 54.9577 57.8828 54.9568C57.8826 54.955 57.8824 54.9525 57.882 54.9491C57.8813 54.9424 57.8803 54.9327 57.879 54.92C57.8763 54.8945 57.8722 54.8571 57.8668 54.8085C57.8559 54.7113 57.8394 54.5692 57.8168 54.388C57.7716 54.0257 57.7018 53.5067 57.6033 52.8773L56.6153 53.032C56.7121 53.6498 56.7804 54.1584 56.8245 54.5118C56.8466 54.6885 56.8626 54.8264 56.873 54.9196C56.8782 54.9662 56.882 55.0017 56.8845 55.0253C56.8858 55.037 56.8867 55.0459 56.8873 55.0516C56.8876 55.0545 56.8878 55.0566 56.8879 55.058C56.888 55.0586 56.888 55.0591 56.8881 55.0594C56.8881 55.0595 56.8881 55.0596 56.8881 55.0597C56.8881 55.0597 56.8881 55.0597 56.8881 55.0597C56.8881 55.0597 56.8881 55.0597 56.8881 55.0597C56.8881 55.0597 56.8881 55.0597 57.3856 55.0098ZM56.7892 48.7642C56.4667 47.4396 56.0597 46.0416 55.5523 44.7332L54.62 45.0947C55.1069 46.3505 55.5019 47.7041 55.8176 49.0008L56.7892 48.7642ZM53.5028 40.9649C53.0053 40.3498 52.4418 39.8332 51.8032 39.4815L51.3208 40.3575C51.8163 40.6304 52.2849 41.0493 52.7253 41.5938L53.5028 40.9649ZM34.645 39.5899C34.3859 39.377 34.0916 39.1863 33.7817 39.0136L33.2949 39.8871C33.5688 40.0398 33.8097 40.1978 34.0101 40.3625L34.645 39.5899ZM31.9873 38.2044C31.6834 38.0873 31.3799 37.9758 31.0901 37.8693L30.7452 38.808C31.0362 38.9149 31.3323 39.0236 31.6276 39.1375L31.9873 38.2044ZM31.0901 37.8693C30.9469 37.8167 30.8072 37.7654 30.671 37.7147L30.3223 38.6519C30.4607 38.7034 30.6024 38.7555 30.7452 38.808L31.0901 37.8693ZM29.8558 37.3958C29.716 37.3366 29.5883 37.279 29.4735 37.2224L29.0313 38.1193C29.1678 38.1866 29.3139 38.2523 29.4662 38.3167L29.8558 37.3958ZM29.1226 37.188C28.4747 37.3623 27.8213 37.5854 27.1808 37.8426L27.5534 38.7705C28.1619 38.5262 28.7776 38.3164 29.3823 38.1537L29.1226 37.188ZM23.5665 39.7229C22.943 40.1309 22.3826 40.5517 21.919 40.9625L22.5823 41.7109C23.0023 41.3386 23.5224 40.9468 24.1141 40.5596L23.5665 39.7229ZM21.919 40.9625C21.466 41.364 21.0765 41.918 20.7383 42.549L21.6197 43.0214C21.9274 42.4474 22.2505 42.005 22.5823 41.7109L21.919 40.9625ZM19.4243 46.0411C19.0989 47.2172 18.8346 48.456 18.6229 49.6232L19.6069 49.8016C19.8149 48.6541 20.0731 47.4463 20.3881 46.3078L19.4243 46.0411ZM18.0803 53.2371C18.0131 53.7897 17.965 54.2438 17.9336 54.5603C17.918 54.7185 17.9064 54.8425 17.8988 54.9271C17.895 54.9694 17.8922 55.0019 17.8903 55.024C17.8894 55.0351 17.8886 55.0435 17.8882 55.0493C17.8879 55.0521 17.8877 55.0544 17.8876 55.0559C17.8876 55.0566 17.8875 55.0572 17.8875 55.0577C17.8874 55.0579 17.8874 55.058 17.8874 55.0582C17.8874 55.0582 17.8874 55.0583 17.8874 55.0583C17.8874 55.0583 17.8874 55.0584 17.8874 55.0584C17.8874 55.0584 17.8874 55.0584 18.3857 55.0992C18.8841 55.1399 18.8841 55.1399 18.8841 55.1399C18.8841 55.1399 18.8841 55.1399 18.8841 55.1399C18.8841 55.1399 18.8841 55.1399 18.8841 55.1399C18.8841 55.1398 18.8841 55.1397 18.8841 55.1396C18.8841 55.1394 18.8842 55.1389 18.8842 55.1383C18.8843 55.1371 18.8845 55.1352 18.8847 55.1327C18.8851 55.1276 18.8858 55.1198 18.8867 55.1094C18.8884 55.0887 18.8911 55.0576 18.8948 55.0167C18.9022 54.9349 18.9134 54.814 18.9288 54.6589C18.9595 54.3488 19.0068 53.902 19.073 53.3577L18.0803 53.2371ZM18.0314 55.4519C18.524 55.9466 19.1349 56.4143 19.8261 56.8522L20.3613 56.0075C19.7136 55.5971 19.1661 55.1743 18.7401 54.7464L18.0314 55.4519ZM23.8115 58.793C25.1507 59.3087 26.5806 59.7572 28.0026 60.1223L28.2513 59.1537C26.8627 58.7972 25.4701 58.3601 24.1708 57.8598L23.8115 58.793ZM32.3176 60.9749C33.0946 61.0789 33.8363 61.1477 34.5216 61.1771L34.5644 60.178C33.914 60.1501 33.2026 60.0844 32.4502 59.9838L32.3176 60.9749ZM35.043 60.6775C35.043 60.0316 35.0534 59.3295 35.0777 58.5887L34.0783 58.5558C34.0536 59.3079 34.043 60.0209 34.043 60.6775H35.043ZM35.3539 54.4175C35.4949 53.0356 35.6921 51.6349 35.9611 50.2969L34.9807 50.0998C34.704 51.4761 34.5026 52.9096 34.3591 54.316L35.3539 54.4175ZM37.0853 46.333C37.3509 45.6631 37.6464 45.0547 37.9736 44.523L37.1219 43.9989C36.7581 44.5902 36.4379 45.2528 36.1557 45.9644L37.0853 46.333ZM37.9475 43.9606L37.1424 42.8894L36.343 43.4902L37.1481 44.5613L37.9475 43.9606ZM35.5323 40.747L34.7273 39.6758L33.9279 40.2766L34.7329 41.3478L35.5323 40.747Z" fill="#333333"/>
<path fill-rule="evenodd" clip-rule="evenodd" d="M28.5596 37.876C29.5743 39.542 29.8255 40.3046 31.1644 41.7397C32.3039 42.961 33.1739 43.6553 33.8957 43.0332C34.0612 42.8905 36.839 40.1255 37.7666 38.9839C38.7388 40.2344 39.7269 41.0863 40.7207 42.3659C41.204 42.8976 42.0974 43.6651 42.8536 43.2872C43.2727 43.0636 44.3568 41.7516 44.8999 40.991C45.8113 39.711 46.0378 39.2312 46.802 37.8581C45.5554 37.433 43.6903 36.8259 42.3849 36.629C40.2938 38.7873 35.4094 38.8632 33.2082 36.629C31.8893 36.8126 29.8154 37.4504 28.5596 37.876Z" fill="white" stroke="#333333" stroke-linecap="round" stroke-dasharray="4 4"/>
<path fill-rule="evenodd" clip-rule="evenodd" d="M41.3366 60.669C41.2673 55.4586 41.353 49.4569 39.1794 44.6198L40.5488 42.1353C39.2877 40.095 38.5184 38.5079 37.8093 38.4611C37.1136 38.4611 36.169 40.409 34.8057 42.1059L36.4468 44.6198C34.1114 49.7491 34.4195 55.188 34.3174 60.669C36.1357 60.8226 38.8125 60.9962 41.3366 60.669Z" fill="#EFEFEF" stroke="#333333" stroke-linecap="round" stroke-dasharray="4 4"/>
<path d="M40.3792 42.4136C38.2307 46.9633 36.9038 45.5415 35.008 42.4136" stroke="#333333" stroke-linecap="round"/>
</svg>
