<svg width="100" height="100" viewBox="0 0 100 100" fill="none" xmlns="http://www.w3.org/2000/svg">
<path fill-rule="evenodd" clip-rule="evenodd" d="M83.037 3.25713C82.1464 2.45522 80.9999 2 79.7984 2H28.9754L10.9937 19.9702V89.6642C10.9937 90.5842 11.2521 91.4542 11.6893 92.1842C12.0669 92.8142 12.5836 93.3442 13.1898 93.7542C13.8257 94.1742 13.3587 95.0542 12.7029 94.6242C11.9476 94.1342 11.3117 93.4742 10.8446 92.7042C10.308 91.8142 10 90.7742 10 89.6642V19.5501C16.2802 13.2201 22.2883 7.32 28.5685 1H79.7885C80.6232 1 81.4182 1.18 82.1435 1.5C82.7497 1.77 83.3153 2.15714 83.7922 2.60713C84.3288 3.10713 83.6531 3.80713 83.037 3.25713Z" fill="#333333"/>
<path fill-rule="evenodd" clip-rule="evenodd" d="M11 64.924V89.6446C11 92.5856 13.3638 95 16.2648 95H79.7352C82.6264 95 85 92.5955 85 89.6446V85.5907V27.1378V8.95513V7.35545C85 4.40449 82.6264 2 79.7352 2H29L11 20V64.924Z" fill="#ADADAD"/>
<path fill-rule="evenodd" clip-rule="evenodd" d="M26.0049 20C27.6617 20 29.0049 18.6569 29.0049 17V2L11.0049 20H26.0049Z" fill="#545454"/>
<path d="M29.5049 2C29.5049 1.79777 29.3831 1.61545 29.1962 1.53806C29.0094 1.46067 28.7943 1.50345 28.6513 1.64645L10.6513 19.6464C10.5083 19.7894 10.4656 20.0045 10.5429 20.1913C10.6203 20.3782 10.8027 20.5 11.0049 20.5H26.0049C27.9379 20.5 29.5049 18.933 29.5049 17V2Z" stroke="#333333" stroke-linejoin="round"/>
<path d="M19.5 93.6451V68.9272V27.7656L37.7954 9.5H86.5929C89.3002 9.5 91.5 11.6943 91.5 14.3549V15.9544V34.1351V89.5917V93.6451C91.5 96.3145 89.2914 98.5 86.5929 98.5H24.4071C21.6998 98.5 19.5 96.3057 19.5 93.6451Z" fill="#333333"/>
<path d="M19.5 93.6451V68.9272V27.7656L37.7954 9.5H86.5929C89.3002 9.5 91.5 11.6943 91.5 14.3549V15.9544V34.1351V89.5917V93.6451C91.5 96.3145 89.2914 98.5 86.5929 98.5H24.4071C21.6998 98.5 19.5 96.3057 19.5 93.6451Z" fill="white" fill-opacity="0.88"/>
<path d="M19.5 93.6451V68.9272V27.7656L37.7954 9.5H86.5929C89.3002 9.5 91.5 11.6943 91.5 14.3549V15.9544V34.1351V89.5917V93.6451C91.5 96.3145 89.2914 98.5 86.5929 98.5H24.4071C21.6998 98.5 19.5 96.3057 19.5 93.6451Z" stroke="#333333"/>
<path d="M38.4971 10.002C38.4971 9.79972 38.3752 9.6174 38.1884 9.54001C38.0016 9.46262 37.7865 9.5054 37.6435 9.6484L19.6435 27.6484C19.5005 27.7914 19.4577 28.0065 19.5351 28.1933C19.6125 28.3801 19.7948 28.502 19.9971 28.502H34.9971C36.9301 28.502 38.4971 26.935 38.4971 25.002V10.002Z" fill="#E07751" stroke="#333333" stroke-linejoin="round"/>
<path d="M67.6276 41.7896L67.6276 41.7896C64.0662 39.7001 59.9143 38.501 55.4911 38.501C42.2372 38.501 31.5 49.2476 31.5 62.501C31.5 75.7547 42.2464 86.501 55.5 86.501C68.7537 86.501 79.5 75.7547 79.5 62.501C79.5 58.8133 78.6642 55.3248 77.1837 52.2002L77.183 52.1987C75.1031 47.8481 71.7608 44.2151 67.6276 41.7896Z" fill="#E07751" stroke="#333333"/>
<path fill-rule="evenodd" clip-rule="evenodd" d="M81.3651 36.1031C83.2941 37.4681 83.7423 40.1441 82.3703 42.0498L59.1019 74.4125C58.3684 75.4262 57.2274 76.0749 55.9641 76.183C54.7143 76.2911 53.4646 75.8316 52.5817 74.9531L41.7912 64.2499C40.1204 62.5875 40.1204 59.8844 41.7912 58.2086C43.462 56.5462 46.1788 56.5462 47.8632 58.2086L55.0675 65.3438L75.3882 37.0897C76.7602 35.1706 79.4362 34.7245 81.3651 36.1031Z" fill="white" stroke="#333333"/>
</svg>
