<svg width="100" height="100" viewBox="0 0 100 100" fill="none" xmlns="http://www.w3.org/2000/svg">
<path fill-rule="evenodd" clip-rule="evenodd" d="M82.037 3.25713C81.1464 2.45522 79.9999 2 78.7984 2H27.9754L9.9937 19.9702V89.6642C9.9937 90.5842 10.2521 91.4542 10.6893 92.1842C11.0669 92.8142 11.5836 93.3442 12.1898 93.7542C12.8257 94.1742 12.3587 95.0542 11.7029 94.6242C10.9476 94.1342 10.3117 93.4742 9.84464 92.7042C9.30805 91.8142 9 90.7742 9 89.6642V19.5501C15.2802 13.2201 21.2883 7.32 27.5685 1H78.7885C79.6232 1 80.4182 1.18 81.1435 1.5C81.7497 1.77 82.3153 2.15714 82.7922 2.60713C83.3288 3.10713 82.6531 3.80713 82.037 3.25713Z" fill="#333333"/>
<path fill-rule="evenodd" clip-rule="evenodd" d="M10 64.924V89.6446C10 92.5856 12.3638 95 15.2648 95H78.7352C81.6264 95 84 92.5955 84 89.6446V85.5907V27.1378V8.95513V7.35545C84 4.40449 81.6264 2 78.7352 2H28L10 20V64.924Z" fill="#EFEFEF"/>
<path d="M28.5049 2C28.5049 1.79777 28.3831 1.61545 28.1962 1.53806C28.0094 1.46067 27.7943 1.50345 27.6513 1.64645L9.65133 19.6464C9.50833 19.7894 9.46555 20.0045 9.54294 20.1913C9.62033 20.3782 9.80265 20.5 10.0049 20.5H25.0049C26.9379 20.5 28.5049 18.933 28.5049 17V2Z" fill="#D9F4FF" stroke="#333333" stroke-linejoin="round"/>
<path d="M18.5 93.6451V68.9272V27.7656L36.7954 9.5H85.5929C88.3002 9.5 90.5 11.6943 90.5 14.3549V15.9544V34.1351V89.5917V93.6451C90.5 96.3145 88.2914 98.5 85.5929 98.5H23.4071C20.6998 98.5 18.5 96.3057 18.5 93.6451Z" fill="#FEFEFE" stroke="#333333"/>
<path d="M37.4971 10.002C37.4971 9.79972 37.3752 9.6174 37.1884 9.54001C37.0016 9.46262 36.7865 9.5054 36.6435 9.6484L18.6435 27.6484C18.5005 27.7914 18.4577 28.0065 18.5351 28.1933C18.6125 28.3801 18.7948 28.502 18.9971 28.502H33.9971C35.9301 28.502 37.4971 26.935 37.4971 25.002V10.002Z" fill="url(#paint0_linear_6654_172961)" stroke="#333333" stroke-linejoin="round"/>
<path d="M54.4991 86.5C41.7981 86.5 31.5 76.2015 31.5 63.5C31.5 50.7985 41.7981 40.5 54.4991 40.5C67.2 40.5 77.4981 50.7984 77.4982 63.4997C77.4916 76.2016 67.1932 86.5 54.4991 86.5Z" fill="#FEFEFE" stroke="#333333"/>
<path d="M34.5869 63.4992C34.5869 74.4957 43.5024 83.4115 54.4985 83.4115C65.4946 83.4115 74.4101 74.4957 74.4101 63.4992C74.4101 52.5028 65.4946 43.5869 54.4985 43.5869C43.5024 43.5869 34.5869 52.5028 34.5869 63.4992Z" fill="url(#paint1_linear_6654_172961)" stroke="#333333"/>
<path fill-rule="evenodd" clip-rule="evenodd" d="M54.4984 65.5429C53.3678 65.5429 52.4551 64.6301 52.4551 63.4995C52.4551 62.3688 53.3678 61.4561 54.4984 61.4561C55.629 61.4561 56.5417 62.3688 56.5417 63.4995C56.5314 64.6301 55.6186 65.5429 54.4984 65.5429Z" fill="white"/>
<path d="M54.498 55.3232V63.4968" stroke="white" stroke-width="2" stroke-linecap="round"/>
<path d="M64.7678 73.7668L54.498 63.4971" stroke="white" stroke-linecap="round"/>
<defs>
<linearGradient id="paint0_linear_6654_172961" x1="25.1684" y1="15.714" x2="32.1645" y2="23.2854" gradientUnits="userSpaceOnUse">
<stop stop-color="#FFC671"/>
<stop offset="1" stop-color="#FF6F3D"/>
</linearGradient>
<linearGradient id="paint1_linear_6654_172961" x1="34.4967" y1="41.4657" x2="57.5114" y2="66.8148" gradientUnits="userSpaceOnUse">
<stop stop-color="#FFC671"/>
<stop offset="1" stop-color="#FF6F3D"/>
</linearGradient>
</defs>
</svg>
