<svg width="100" height="100" viewBox="0 0 100 100" fill="none" xmlns="http://www.w3.org/2000/svg">
<mask id="path-1-outside-1_1335_5889" maskUnits="userSpaceOnUse" x="6" y="52.4111" width="88" height="48" fill="black">
<rect fill="white" x="6" y="52.4111" width="88" height="48"/>
<path fill-rule="evenodd" clip-rule="evenodd" d="M84.857 63.1687C79.4357 59.4622 66.9125 54.9015 61.3067 53.8977C59.5717 54.5834 48.5567 52.8919 39.4876 53.5787C32.1201 55.8685 18.6708 60.683 16.1258 63.1687C13.0787 66.1449 9.01573 76.7269 8 87.3209C31.7003 105.509 68.8459 97.2564 73.9094 95.7558C75.7639 95.1787 76.6094 94.8946 78.8821 94.0688C83.5202 92.2776 87.7567 89.846 92 87.3209C90.9514 79.0418 88.2428 65.4835 84.857 63.1687Z"/>
</mask>
<path fill-rule="evenodd" clip-rule="evenodd" d="M84.857 63.1687C79.4357 59.4622 66.9125 54.9015 61.3067 53.8977C59.5717 54.5834 48.5567 52.8919 39.4876 53.5787C32.1201 55.8685 18.6708 60.683 16.1258 63.1687C13.0787 66.1449 9.01573 76.7269 8 87.3209C31.7003 105.509 68.8459 97.2564 73.9094 95.7558C75.7639 95.1787 76.6094 94.8946 78.8821 94.0688C83.5202 92.2776 87.7567 89.846 92 87.3209C90.9514 79.0418 88.2428 65.4835 84.857 63.1687Z" fill="#FEFEFE"/>
<path d="M84.857 63.1687L85.4214 62.3432L84.857 63.1687ZM61.3067 53.8977L61.483 52.9134L61.2033 52.8633L60.9392 52.9677L61.3067 53.8977ZM8 87.3209L7.00456 87.2254L6.95169 87.7769L7.3912 88.1142L8 87.3209ZM73.9094 95.7558L74.1936 96.7147L74.2066 96.7107L73.9094 95.7558ZM78.8821 94.0688L79.2236 95.0087L79.233 95.0053L79.2423 95.0017L78.8821 94.0688ZM92 87.3209L92.5114 88.1802L93.0744 87.8452L92.9921 87.1952L92 87.3209ZM39.4876 53.5787L39.4121 52.5816L39.2991 52.5901L39.1908 52.6238L39.4876 53.5787ZM7.3912 88.1142C19.4926 97.401 34.9629 99.8985 47.9418 99.9215C60.9323 99.9445 71.5811 97.4888 74.1936 96.7146L73.6253 94.7971C71.1742 95.5234 60.7185 97.9441 47.9453 97.9215C35.1604 97.8989 20.2077 95.4286 8.6088 86.5275L7.3912 88.1142ZM74.2066 96.7107C76.0779 96.1283 76.9382 95.8391 79.2236 95.0087L78.5406 93.129C76.2805 93.9501 75.45 94.2291 73.6123 94.801L74.2066 96.7107ZM15.4271 62.4533C14.5546 63.3055 13.6716 64.6326 12.8276 66.2444C11.9753 67.8721 11.1317 69.8509 10.3575 72.057C8.80981 76.4676 7.52085 81.8406 7.00456 87.2254L8.99544 87.4163C9.49488 82.2072 10.7453 76.9923 12.2447 72.7193C12.9942 70.5836 13.8011 68.6967 14.5994 67.1722C15.406 65.6318 16.1735 64.52 16.8246 63.8841L15.4271 62.4533ZM85.4214 62.3432C82.6109 60.4217 78.0353 58.3215 73.509 56.586C68.977 54.8482 64.3769 53.4315 61.483 52.9134L61.1305 54.8821C63.8423 55.3676 68.3067 56.7332 72.793 58.4534C77.2851 60.1758 81.6817 62.2092 84.2926 63.9942L85.4214 62.3432ZM92.9921 87.1952C92.4639 83.0255 91.5176 77.5218 90.2725 72.7554C89.6504 70.3744 88.9467 68.1495 88.1718 66.3579C87.4208 64.6213 86.5241 63.0971 85.4214 62.3432L84.2926 63.9942C84.8828 64.3977 85.5943 65.4363 86.3362 67.1517C87.0542 68.812 87.728 70.9282 88.3374 73.2609C89.5551 77.9221 90.4874 83.3371 91.0079 87.4465L92.9921 87.1952ZM79.2423 95.0017C83.9666 93.1772 88.2666 90.7062 92.5114 88.1802L91.4886 86.4615C87.2467 88.9858 83.0739 91.378 78.5218 93.136L79.2423 95.0017ZM60.9392 52.9677C60.9411 52.9669 60.9263 52.9728 60.8883 52.9817C60.8513 52.9904 60.8007 53.0001 60.734 53.0096C60.5994 53.0289 60.4229 53.0441 60.2003 53.0536C59.7545 53.0727 59.1771 53.0666 58.4771 53.0412C57.0753 52.9904 55.2746 52.8662 53.2086 52.7396C49.106 52.4884 44.0227 52.2324 39.4121 52.5816L39.5631 54.5758C44.0216 54.2382 48.9804 54.4845 53.0863 54.7359C55.1245 54.8607 56.9697 54.9879 58.4046 55.0399C59.123 55.0659 59.7616 55.0742 60.2857 55.0518C60.7723 55.031 61.2857 54.9813 61.6743 54.8277L60.9392 52.9677ZM39.1908 52.6238C35.4877 53.7746 30.2607 55.5585 25.6339 57.369C23.3214 58.2739 21.1452 59.1908 19.3791 60.043C17.6561 60.8745 16.1955 61.7029 15.4271 62.4533L16.8246 63.8841C17.3287 63.3917 18.5036 62.6862 20.2483 61.8442C21.95 61.0231 24.0738 60.1271 26.3627 59.2315C30.9387 57.4408 36.12 55.6725 39.7844 54.5336L39.1908 52.6238Z" fill="#333333" mask="url(#path-1-outside-1_1335_5889)"/>
<path d="M39.2574 53.049L39.1887 53.3214L39.3856 53.5218C40.5567 54.7133 42.2435 55.5697 44.1417 56.127C46.0452 56.6858 48.1951 56.9539 50.3294 56.9442C52.4638 56.9346 54.599 56.6472 56.4732 56.0836C58.3411 55.5218 59.9866 54.6744 61.1016 53.5184L61.3148 53.2973L61.2141 53.0072C60.3631 50.5566 60.3055 48.0084 60.2781 45.3641V45.364V45.3639V45.3637V45.3635V45.3633V45.3631V45.3629V45.3627V45.3625V45.3623V45.3621V45.3619V45.3617V45.3614V45.3612V45.361V45.3608V45.3605V45.3603V45.36V45.3598V45.3596V45.3593V45.359V45.3588V45.3585V45.3583V45.358V45.3577V45.3574V45.3572V45.3569V45.3566V45.3563V45.356V45.3557V45.3554V45.3551V45.3548V45.3545V45.3542V45.3539V45.3535V45.3532V45.3529V45.3526V45.3522V45.3519V45.3516V45.3512V45.3509V45.3505V45.3502V45.3498V45.3495V45.3491V45.3487V45.3484V45.348V45.3476V45.3472V45.3469V45.3465V45.3461V45.3457V45.3453V45.3449V45.3445V45.3441V45.3437V45.3433V45.3429V45.3425V45.3421V45.3417V45.3412V45.3408V45.3404V45.3399V45.3395V45.3391V45.3386V45.3382V45.3378V45.3373V45.3369V45.3364V45.3359V45.3355V45.335V45.3346V45.3341V45.3336V45.3331V45.3327V45.3322V45.3317V45.3312V45.3307V45.3303V45.3298V45.3293V45.3288V45.3283V45.3278V45.3273V45.3268V45.3262V45.3257V45.3252V45.3247V45.3242V45.3237V45.3231V45.3226V45.3221V45.3215V45.321V45.3205V45.3199V45.3194V45.3188V45.3183V45.3177V45.3172V45.3166V45.3161V45.3155V45.3149V45.3144V45.3138V45.3132V45.3127V45.3121V45.3115V45.3109V45.3103V45.3098V45.3092V45.3086V45.308V45.3074V45.3068V45.3062V45.3056V45.305V45.3044V45.3038V45.3032V45.3026V45.302V45.3013V45.3007V45.3001V45.2995V45.2989V45.2982V45.2976V45.297V45.2963V45.2957V45.2951V45.2944V45.2938V45.2931V45.2925V45.2918V45.2912V45.2905V45.2899V45.2892V45.2886V45.2879V45.2873V45.2866V45.2859V45.2853V45.2846V45.2839V45.2832V45.2826V45.2819V45.2812V45.2805V45.2799V45.2792V45.2785V45.2778V45.2771V45.2764V45.2757V45.275V45.2743V45.2736V45.2729V45.2722V45.2715V45.2708V45.2701V45.2694V45.2687V45.268V45.2673V45.2665V45.2658V45.2651V45.2644V45.2637V45.2629V45.2622V45.2615V45.2608V45.26V45.2593V45.2586V45.2578V45.2571V45.2564V45.2556V45.2549V45.2541V45.2534V45.2526V45.2519V45.2511V45.2504V45.2496V45.2489V45.2481V45.2474V45.2466V45.2459V45.2451V45.2443V45.2436V45.2428V45.242V45.2413V45.2405V45.2397V45.239V45.2382V45.2374V45.2367V45.2359V45.2351V45.2343V45.2335V45.2328V45.232V45.2312V45.2304V45.2296V45.2288V45.2281V45.2273V45.2265V45.2257V45.2249V45.2241V45.2233V45.2225V45.2217V45.2209V45.2201V45.2193V45.2185V45.2177V45.2169V45.2161V45.2153V45.2145V45.2137V45.2129V45.2121V45.2113V45.2104V45.2096V45.2088V45.208V45.2072V45.2064V45.2056V45.2047V45.2039V45.2031V45.2023V45.2015V45.2006V45.1998V45.199V45.1982V45.1974V45.1965V45.1957V45.1949V45.194V45.1932V45.1924V45.1916V45.1907V45.1899V45.1891V45.1882V45.1874V45.1866V45.1857V45.1849V45.1841V45.1832V45.1824V45.1815V45.1807V45.1799V45.179V45.1782V45.1774V45.1765V45.1757V45.1748V45.174V45.1731V45.1723V45.1715V45.1706V45.1698V45.1689V45.1681V45.1672V45.1664V45.1655V45.1647V45.1638V45.163V45.1621V45.1613V45.1604V45.1596V45.1587V45.1579V45.157V45.1562V45.1553V45.1545V45.1536V45.1528V45.1519V45.1511V45.1502V45.1494V45.1485V45.1477V45.1468V45.146V45.1451V45.1443V45.1434V45.1425V45.1417V45.1408V45.14V45.1391V45.1383V45.1374V45.1366V45.1357V45.1349V45.134V45.1331V45.1323V45.1314V45.1306V45.1297V45.1289V45.128V45.1272V45.1263V45.1254V45.1246V45.1237V45.1229V45.122V45.1212V45.1203V45.1195V45.1186V45.1178V45.1169V45.116V45.1152V45.1143V45.1135V45.1126V45.1118V45.1109V45.1101V45.1092V45.1084V45.1075V45.1067V45.1058V45.105V45.1041V45.1033V45.1024V45.1016V45.1007V45.0999V45.099V45.0982V45.0973V45.0965V45.0956V45.0948V45.0939V45.0931V45.0922V45.0914V45.0906V45.0897V45.0889V45.088V45.0872V45.0863V45.0855V45.0847V45.0838V45.083V45.0821V45.0813V45.0805V45.0796V45.0788V45.078V45.0771V45.0763V45.0755V45.0746V45.0738V45.073V45.0721V45.0713V45.0705V45.0696V45.0688V45.068V45.0671V45.0663V45.0655V45.0647V45.0638V45.063V45.0622V45.0614V45.0606V45.0597V45.0589V45.0581V45.0573V45.0565V45.0557V45.0548V45.054V45.0532V45.0524V45.0516V45.0508V45.05V45.0492V45.0484V45.0475V45.0467V45.0459V45.0451V45.0443V45.0435V45.0427V45.0419V45.0411V45.0403V45.0395V45.0387V45.038V45.0372V45.0364V45.0356V45.0348V45.034V45.0332V45.0324V45.0316V45.0309V45.0301V45.0293V44.0512L59.4853 44.624C56.6995 46.6366 53.428 47.7967 49.9238 47.7967C46.6302 47.7967 43.5355 46.7738 40.8667 44.9785L40.0876 44.4544V45.3933V45.3939V45.3944V45.3949V45.3954V45.3959V45.3965V45.397V45.3975V45.398V45.3985V45.3991V45.3996V45.4001V45.4006V45.4011V45.4017V45.4022V45.4027V45.4032V45.4037V45.4043V45.4048V45.4053V45.4058V45.4063V45.4068V45.4074V45.4079V45.4084V45.4089V45.4094V45.41V45.4105V45.411V45.4115V45.412V45.4126V45.4131V45.4136V45.4141V45.4146V45.4151V45.4157V45.4162V45.4167V45.4172V45.4177V45.4182V45.4188V45.4193V45.4198V45.4203V45.4208V45.4213V45.4218V45.4224V45.4229V45.4234V45.4239V45.4244V45.4249V45.4254V45.426V45.4265V45.427V45.4275V45.428V45.4285V45.429V45.4295V45.4301V45.4306V45.4311V45.4316V45.4321V45.4326V45.4331V45.4336V45.4341V45.4346V45.4352V45.4357V45.4362V45.4367V45.4372V45.4377V45.4382V45.4387V45.4392V45.4397V45.4402V45.4407V45.4412V45.4417V45.4422V45.4427V45.4433V45.4438V45.4443V45.4448V45.4453V45.4458V45.4463V45.4468V45.4473V45.4478V45.4483V45.4488V45.4493V45.4498V45.4503V45.4508V45.4513V45.4518V45.4523V45.4528V45.4532V45.4537V45.4542V45.4547V45.4552V45.4557V45.4562V45.4567V45.4572V45.4577V45.4582V45.4587V45.4592V45.4597V45.4601V45.4606V45.4611V45.4616V45.4621V45.4626V45.4631V45.4636V45.464V45.4645V45.465V45.4655V45.466V45.4665V45.467V45.4674V45.4679V45.4684V45.4689V45.4694V45.4698V45.4703V45.4708V45.4713V45.4718V45.4722V45.4727V45.4732V45.4737V45.4741V45.4746V45.4751V45.4756V45.476V45.4765V45.477V45.4774V45.4779V45.4784V45.4789V45.4793V45.4798V45.4803V45.4807V45.4812V45.4817V45.4821V45.4826V45.483V45.4835V45.484V45.4844V45.4849V45.4853V45.4858V45.4863V45.4867V45.4872V45.4876V45.4881V45.4886V45.489V45.4895V45.4899V45.4904V45.4908V45.4913V45.4917V45.4922V45.4926V45.4931V45.4935V45.494V45.4944V45.4949V45.4953V45.4957V45.4962V45.4966V45.4971V45.4975V45.498V45.4984V45.4988V45.4993V45.4997V45.5001V45.5006V45.501V45.5014V45.5019V45.5023V45.5027V45.5032V45.5036V45.504V45.5045V45.5049V45.5053V45.5057V45.5062V45.5066V45.507V45.5074V45.5079V45.5083V45.5087V45.5091V45.5095V45.51V45.5104V45.5108V45.5112V45.5116V45.512V45.5125V45.5129V45.5133V45.5137V45.5141V45.5145V45.5149V45.5153V45.5157V45.5161V45.5165V45.5169V45.5173V45.5177V45.5181V45.5185V45.5189V45.5193V45.5197V45.5201V45.5205V45.5209V45.5213V45.5217V45.5221V45.5225V45.5229V45.5232V45.5236V45.524V45.5244V45.5248V45.5252V45.5256V45.5259V45.5263V45.5267V45.5271V45.5274V45.5278V45.5282V45.5286V45.5289V45.5293V45.5297V45.5301V45.5304V45.5308V45.5312V45.5315V45.5319V45.5323V45.5326V45.533V45.5333V45.5337V45.5341V45.5344V45.5348V45.5351V45.5355V45.5358V45.5362V45.5365V45.5369V45.5372V45.5376V45.5379V45.5383V45.5386V45.5389V45.5393V45.5396V45.54V45.5403V45.5406V45.541V45.5413V45.5416V45.542V45.5423V45.5426V45.543V45.5433V45.5436V45.5439V45.5443V45.5446V45.5449V45.5452V45.5456V45.5459V45.5462V45.5465V45.5468V45.5471V45.5474V45.5478V45.5481V45.5484V45.5487V45.549V45.5493V45.5496V45.5499V45.5502V45.5505V45.5508V45.5511V45.5514V45.5517V45.552V45.5523V45.5526V45.5528V45.5531V45.5534V45.5537V45.554V45.5543V45.5546V45.5548V45.5551V45.5554V45.5557V45.5559V45.5562V45.5565V45.5568V45.557V45.5573V45.5576V45.5578V45.5581V45.5584V45.5586V45.5589V45.5591V45.5594V45.5597V45.5599V45.5602V45.5604V45.5607V45.5609V45.5612V45.5614V45.5617V45.5619V45.5621V45.5624V45.5626V45.5629V45.5631V45.5633V45.5636V45.5638V45.564V45.5643V45.5645V45.5647V45.5649V45.5652V45.5654V45.5656V45.5658V45.566V45.5663V45.5665V45.5667V45.5668C40.0832 45.652 40.0788 45.7371 40.0744 45.8221C39.9426 48.3628 39.8142 50.84 39.2574 53.049Z" fill="#FEFEFE" stroke="#333333"/>
<path fill-rule="evenodd" clip-rule="evenodd" d="M49.9261 48.2965C53.5442 48.2965 56.9169 47.0979 59.7804 45.0291C61.035 44.1234 62.1895 43.0402 63.2258 41.8238C65.1258 39.5863 66.6166 36.8605 67.553 33.8328C68.2621 31.5154 68.653 29.0204 68.653 26.4277C68.653 25.5221 68.6075 24.6253 68.5166 23.7463C64.2622 23.3734 49.7261 22.5477 45.0171 9.54004C43.0626 14.2459 41.0172 16.6609 32.1447 19.5466C31.5356 21.713 31.1992 24.0216 31.1992 26.4277C31.1992 27.8484 31.3174 29.2335 31.5356 30.5742C32.2537 34.916 34.0628 38.8138 36.6264 41.8238C37.7991 43.2089 39.1354 44.4076 40.5899 45.3842C43.3353 47.2399 46.5262 48.2965 49.9261 48.2965Z" fill="#FEFEFE"/>
<path fill-rule="evenodd" clip-rule="evenodd" d="M57.2508 98.5492C57.2508 89.6429 56.7782 80.7505 54.8781 72.0259C54.4327 70.3212 53.9054 68.7674 53.2691 67.4267L55.2054 62.9783C52.6518 59.3904 51.3655 56.7799 50.3211 56.5554C49.1107 56.2953 48.1707 58.9852 45.0965 63.0316L46.2328 65.3224L47.1965 67.2935L46.9146 67.8795C45.3944 71.0239 43.2109 81.0263 43.2109 98.8835C47.8874 98.9716 52.0139 99.2142 57.2508 98.5492Z" fill="url(#paint0_linear_1335_5889)"/>
<path d="M57.2515 98.5496C57.2515 89.6433 56.7788 80.7508 54.8788 72.0263C54.4334 70.3216 53.9061 68.7678 53.2697 67.427M47.2745 67.1377C45.7543 70.2821 42.873 81.0266 42.873 98.8838" stroke="#333333"/>
<path fill-rule="evenodd" clip-rule="evenodd" d="M45.0149 9.53115C49.7148 22.5388 64.2508 23.3645 68.5144 23.7374C68.6053 24.6164 68.6507 25.5132 68.6507 26.4188C68.6507 29.0204 68.2598 31.5153 67.5507 33.8327C80.8532 2.56438 50.1964 -3.2456 44.5694 3.52013C32.1516 2.56443 25.4877 18.653 31.5424 30.5742C31.3242 29.2335 31.2061 27.8395 31.2061 26.4188C31.2061 24.0127 31.5424 21.7041 32.1515 19.5377C41.0149 16.652 43.0604 14.237 45.0149 9.53115Z" fill="#EFEFEF" stroke="#333333" stroke-linejoin="round"/>
<path d="M32.3522 19.5459C29.1492 30.2716 33.2614 41.8964 43.1998 46.9106C47.5798 49.1295 52.8144 49.1206 57.1954 46.9106C65.6834 42.6281 69.415 32.9531 68.4999 23.568" stroke="#333333"/>
<path d="M55.4012 63.1699C53.3697 68.1302 51.9681 69.5717 50.3225 69.5573C48.5166 69.5416 47.2753 68.1302 44.9053 63.1699" stroke="#333333" stroke-linecap="round"/>
<mask id="path-10-inside-2_1335_5889" fill="white">
<path fill-rule="evenodd" clip-rule="evenodd" d="M32.1426 55.2398C33.4698 57.424 34.8789 59.4928 36.3061 61.6148C36.8061 62.3607 37.2697 63.0355 37.7061 63.6215C38.1334 64.1986 38.5243 64.6781 38.8879 65.0687C39.297 65.4949 39.6788 65.8057 40.0515 66.001C40.3969 66.1786 40.7606 66.2674 41.1515 66.2496C41.3606 66.2408 41.5606 66.2052 41.7515 66.152C41.9515 66.0898 42.1606 65.9922 42.3515 65.8767C42.5878 65.7347 42.8242 65.5482 43.0605 65.344C43.3151 65.122 43.5787 64.8557 43.8514 64.5449C44.2332 64.1276 44.615 63.7103 44.9878 63.293C45.0423 63.2308 45.0969 63.1775 45.1423 63.1154L45.1332 63.0887C47.4241 60.0788 48.9681 58.209 49.4786 57.4506C49.5786 57.3086 49.6786 57.1754 49.7877 57.0422H50.824C51.0513 57.3352 51.2011 57.6 51.4604 57.8857C52.3539 58.8704 53.2694 60.2475 54.8966 62.5383C55.0239 62.6892 55.1421 62.8401 55.2512 63C55.7239 63.5149 56.1966 64.0299 56.6693 64.5449C56.9511 64.8557 57.2148 65.122 57.4602 65.3351C57.7057 65.5482 57.942 65.7258 58.1784 65.8678C58.3784 65.9833 58.5784 66.0809 58.7784 66.1431C58.9693 66.2052 59.1693 66.2408 59.3784 66.2408C59.7693 66.2496 60.1238 66.1697 60.4783 65.9922C60.8602 65.7879 61.242 65.4772 61.642 65.0599C62.1056 64.5626 62.6238 63.9056 63.2056 63.0887C63.8237 62.2186 64.451 61.2774 65.1692 60.2031C66.3055 58.5072 67.3146 56.9889 68.3055 55.2043C68.1236 55.1421 67.9509 55.08 67.7691 55.0178C67.3964 54.8935 67.0328 54.7692 66.6691 54.6538C66.5964 54.636 66.5237 54.6094 66.4509 54.5827C65.3419 54.2276 64.2783 53.9257 63.3146 53.686C62.3783 53.4551 61.5147 53.2775 60.7511 53.1621C56.6057 57.4506 44.1151 57.6016 39.7515 53.1621C38.9879 53.2687 38.1243 53.4551 37.1879 53.686C36.2243 53.9257 35.1607 54.2276 34.0516 54.5827C33.4062 54.8136 32.7698 55.0267 32.1426 55.2398Z"/>
</mask>
<path fill-rule="evenodd" clip-rule="evenodd" d="M32.1426 55.2398C33.4698 57.424 34.8789 59.4928 36.3061 61.6148C36.8061 62.3607 37.2697 63.0355 37.7061 63.6215C38.1334 64.1986 38.5243 64.6781 38.8879 65.0687C39.297 65.4949 39.6788 65.8057 40.0515 66.001C40.3969 66.1786 40.7606 66.2674 41.1515 66.2496C41.3606 66.2408 41.5606 66.2052 41.7515 66.152C41.9515 66.0898 42.1606 65.9922 42.3515 65.8767C42.5878 65.7347 42.8242 65.5482 43.0605 65.344C43.3151 65.122 43.5787 64.8557 43.8514 64.5449C44.2332 64.1276 44.615 63.7103 44.9878 63.293C45.0423 63.2308 45.0969 63.1775 45.1423 63.1154L45.1332 63.0887C47.4241 60.0788 48.9681 58.209 49.4786 57.4506C49.5786 57.3086 49.6786 57.1754 49.7877 57.0422H50.824C51.0513 57.3352 51.2011 57.6 51.4604 57.8857C52.3539 58.8704 53.2694 60.2475 54.8966 62.5383C55.0239 62.6892 55.1421 62.8401 55.2512 63C55.7239 63.5149 56.1966 64.0299 56.6693 64.5449C56.9511 64.8557 57.2148 65.122 57.4602 65.3351C57.7057 65.5482 57.942 65.7258 58.1784 65.8678C58.3784 65.9833 58.5784 66.0809 58.7784 66.1431C58.9693 66.2052 59.1693 66.2408 59.3784 66.2408C59.7693 66.2496 60.1238 66.1697 60.4783 65.9922C60.8602 65.7879 61.242 65.4772 61.642 65.0599C62.1056 64.5626 62.6238 63.9056 63.2056 63.0887C63.8237 62.2186 64.451 61.2774 65.1692 60.2031C66.3055 58.5072 67.3146 56.9889 68.3055 55.2043C68.1236 55.1421 67.9509 55.08 67.7691 55.0178C67.3964 54.8935 67.0328 54.7692 66.6691 54.6538C66.5964 54.636 66.5237 54.6094 66.4509 54.5827C65.3419 54.2276 64.2783 53.9257 63.3146 53.686C62.3783 53.4551 61.5147 53.2775 60.7511 53.1621C56.6057 57.4506 44.1151 57.6016 39.7515 53.1621C38.9879 53.2687 38.1243 53.4551 37.1879 53.686C36.2243 53.9257 35.1607 54.2276 34.0516 54.5827C33.4062 54.8136 32.7698 55.0267 32.1426 55.2398Z" fill="#D9F4FF"/>
<path d="M32.1426 55.2398L31.8209 54.2929L30.6407 54.6939L31.288 55.7591L32.1426 55.2398ZM36.3061 61.6148L37.1368 61.058L37.1359 61.0568L36.3061 61.6148ZM37.7061 63.6215L38.5098 63.0265L38.5082 63.0242L37.7061 63.6215ZM38.8879 65.0687L38.1559 65.7501L38.1611 65.7557L38.1665 65.7612L38.8879 65.0687ZM40.0515 66.001L39.5873 66.8868L39.5943 66.8904L40.0515 66.001ZM41.1515 66.2496L41.1091 65.2505L41.1061 65.2507L41.1515 66.2496ZM41.7515 66.152L42.0203 67.1152L42.0343 67.1112L42.0482 67.1069L41.7515 66.152ZM42.3515 65.8767L41.8363 65.0196L41.8341 65.021L42.3515 65.8767ZM43.0605 65.344L43.7143 66.1007L43.7178 66.0977L43.0605 65.344ZM43.8514 64.5449L43.1136 63.8699L43.1066 63.8775L43.0998 63.8853L43.8514 64.5449ZM44.9878 63.293L45.7336 63.9591L45.7394 63.9526L44.9878 63.293ZM45.1423 63.1154L45.9495 63.7057L46.2569 63.2853L46.0887 62.7924L45.1423 63.1154ZM45.1332 63.0887L44.3375 62.4831L44.0146 62.9073L44.1868 63.4117L45.1332 63.0887ZM49.4786 57.4506L48.6608 56.875L48.6548 56.8836L48.649 56.8922L49.4786 57.4506ZM49.7877 57.0422V56.0422H49.3141L49.014 56.4085L49.7877 57.0422ZM50.824 57.0422L51.6142 56.4293L51.3139 56.0422H50.824V57.0422ZM51.4604 57.8857L52.2009 57.2137L51.4604 57.8857ZM54.8966 62.5383L54.0814 63.1174L54.1054 63.1512L54.1321 63.1829L54.8966 62.5383ZM55.2512 63L54.4252 63.5637L54.4658 63.6232L54.5145 63.6762L55.2512 63ZM56.6693 64.5449L57.4101 63.8731L57.406 63.8687L56.6693 64.5449ZM58.1784 65.8678L57.6632 66.7249L57.6708 66.7295L57.6785 66.7339L58.1784 65.8678ZM58.7784 66.1431L59.088 65.1921L59.0751 65.1881L58.7784 66.1431ZM59.3784 66.2408L59.4011 65.241L59.3897 65.2408H59.3784V66.2408ZM60.4783 65.9922L60.9262 66.8863L60.9382 66.8803L60.95 66.8739L60.4783 65.9922ZM61.642 65.0599L62.3639 65.7519L62.3733 65.7418L61.642 65.0599ZM63.2056 63.0887L64.0201 63.6689L64.0208 63.6679L63.2056 63.0887ZM65.1692 60.2031L64.3384 59.6464L64.3378 59.6474L65.1692 60.2031ZM68.3055 55.2043L69.1797 55.6897L69.76 54.6447L68.6289 54.258L68.3055 55.2043ZM67.7691 55.0178L68.0926 54.0715L68.0855 54.0692L67.7691 55.0178ZM66.6691 54.6538L66.9717 53.7006L66.9393 53.6904L66.9063 53.6823L66.6691 54.6538ZM66.4509 54.5827L66.7949 53.6437L66.7755 53.6367L66.7559 53.6304L66.4509 54.5827ZM63.3146 53.686L63.5561 52.7155L63.554 52.715L63.3146 53.686ZM60.7511 53.1621L60.9005 52.1733L60.3905 52.0963L60.0321 52.4671L60.7511 53.1621ZM39.7515 53.1621L40.4647 52.4611L40.1118 52.1021L39.6133 52.1717L39.7515 53.1621ZM37.1879 53.686L36.9485 52.715L36.9465 52.7155L37.1879 53.686ZM34.0516 54.5827L33.7467 53.6304L33.7307 53.6355L33.7149 53.6412L34.0516 54.5827ZM31.288 55.7591C32.63 57.9676 34.0545 60.0589 35.4763 62.1729L37.1359 61.0568C35.7033 58.9267 34.3096 56.8803 32.9972 54.7205L31.288 55.7591ZM35.4755 62.1717C35.9778 62.921 36.4525 63.6123 36.904 64.2187L38.5082 63.0242C38.087 62.4586 37.6344 61.8004 37.1368 61.058L35.4755 62.1717ZM36.9024 64.2165C37.3443 64.8135 37.7594 65.324 38.1559 65.7501L39.6199 64.3874C39.2892 64.0321 38.9224 63.5838 38.5098 63.0265L36.9024 64.2165ZM38.1665 65.7612C38.6162 66.2298 39.0834 66.6227 39.5873 66.8868L40.5157 65.1153C40.2742 64.9887 39.9777 64.7601 39.6093 64.3763L38.1665 65.7612ZM39.5943 66.8904C40.08 67.1401 40.6158 67.275 41.1969 67.2486L41.1061 65.2507C40.9054 65.2598 40.7139 65.2171 40.5087 65.1117L39.5943 66.8904ZM41.1939 67.2487C41.4895 67.2362 41.7658 67.1862 42.0203 67.1152L41.4827 65.1888C41.3553 65.2243 41.2316 65.2453 41.1091 65.2505L41.1939 67.2487ZM42.0482 67.1069C42.337 67.0172 42.6198 66.883 42.8689 66.7325L41.8341 65.021C41.7013 65.1013 41.5659 65.1625 41.4547 65.197L42.0482 67.1069ZM42.8666 66.7338C43.1752 66.5484 43.4617 66.3189 43.7143 66.1007L42.4068 64.5873C42.1867 64.7775 42.0004 64.921 41.8363 65.0196L42.8666 66.7338ZM43.7178 66.0977C44.0123 65.8409 44.3072 65.5416 44.603 65.2045L43.0998 63.8853C42.8502 64.1697 42.6179 64.4032 42.4033 64.5903L43.7178 66.0977ZM44.5892 65.2199C44.9703 64.8034 45.3562 64.3816 45.7336 63.9591L44.2419 62.6268C43.8739 63.0389 43.4961 63.4518 43.1136 63.8699L44.5892 65.2199ZM45.7394 63.9526C45.7621 63.9267 45.7624 63.9276 45.8096 63.8755C45.8436 63.838 45.896 63.7789 45.9495 63.7057L44.3351 62.5251C44.3432 62.514 44.3456 62.5126 44.3273 62.5328C44.3171 62.5441 44.3091 62.5527 44.2917 62.5716C44.2768 62.5879 44.2572 62.6094 44.2361 62.6334L45.7394 63.9526ZM46.0887 62.7924L46.0796 62.7657L44.1868 63.4117L44.1959 63.4384L46.0887 62.7924ZM45.929 63.6944C47.0694 62.196 48.0239 60.9814 48.7604 60.0425C49.4831 59.1211 50.027 58.4266 50.3081 58.009L48.649 56.8922C48.4196 57.233 47.9363 57.8526 47.1867 58.8081C46.4509 59.7462 45.4879 60.9715 44.3375 62.4831L45.929 63.6944ZM50.2963 58.0262C50.3846 57.9007 50.47 57.7873 50.5613 57.6759L49.014 56.4085C48.8872 56.5634 48.7725 56.7164 48.6608 56.875L50.2963 58.0262ZM49.7877 58.0422H50.824V56.0422H49.7877V58.0422ZM50.0338 57.6551C50.13 57.7791 50.2006 57.8846 50.3146 58.0453C50.4215 58.196 50.5506 58.3712 50.7198 58.5577L52.2009 57.2137C52.1109 57.1145 52.0354 57.0144 51.9458 56.8881C51.8633 56.7718 51.7453 56.5983 51.6142 56.4293L50.0338 57.6551ZM50.7198 58.5577C51.5603 59.4839 52.4193 60.7775 54.0814 63.1174L55.7119 61.9591C54.1195 59.7174 53.1475 58.2568 52.2009 57.2137L50.7198 58.5577ZM54.1321 63.1829C54.2445 63.3161 54.3405 63.4395 54.4252 63.5637L56.0771 62.4362C55.9437 62.2408 55.8034 62.0623 55.6611 61.8936L54.1321 63.1829ZM54.5145 63.6762C54.7509 63.9337 54.9872 64.1912 55.2236 64.4487C55.4599 64.7061 55.6963 64.9636 55.9326 65.2211L57.406 63.8687C57.1697 63.6112 56.9333 63.3537 56.6969 63.0962C56.4606 62.8387 56.2242 62.5812 55.9879 62.3237L54.5145 63.6762ZM55.9286 65.2167C56.2255 65.544 56.5184 65.8418 56.8046 66.0902L58.1158 64.58C57.9111 64.4023 57.6768 64.1673 57.4101 63.8731L55.9286 65.2167ZM56.8046 66.0902C57.0813 66.3304 57.3647 66.5455 57.6632 66.7249L58.6935 65.0107C58.5194 64.9061 58.3301 64.766 58.1158 64.58L56.8046 66.0902ZM57.6785 66.7339C57.9121 66.8687 58.1836 67.0054 58.4816 67.098L59.0751 65.1881C58.9732 65.1565 58.8447 65.0978 58.6783 65.0017L57.6785 66.7339ZM58.4688 67.094C58.7497 67.1854 59.0541 67.2408 59.3784 67.2408V65.2408C59.2844 65.2408 59.1889 65.2251 59.088 65.1922L58.4688 67.094ZM59.3557 67.2405C59.9115 67.2531 60.4274 67.1361 60.9262 66.8863L60.0305 65.098C59.8202 65.2034 59.6271 65.2462 59.4011 65.241L59.3557 67.2405ZM60.95 66.8739C61.4556 66.6035 61.92 66.2149 62.3639 65.7518L60.92 64.3679C60.5639 64.7394 60.2647 64.9724 60.0067 65.1104L60.95 66.8739ZM62.3733 65.7418C62.8788 65.1997 63.4256 64.5036 64.0201 63.6689L62.391 62.5086C61.822 63.3076 61.3323 63.9256 60.9106 64.3779L62.3733 65.7418ZM64.0208 63.6679C64.649 62.7836 65.2851 61.8291 66.0005 60.7588L64.3378 59.6474C63.6169 60.7258 62.9985 61.6536 62.3903 62.5096L64.0208 63.6679ZM65.9999 60.7597C67.1356 59.0649 68.1662 57.5151 69.1797 55.6897L67.4312 54.7188C66.4629 56.4627 65.4754 57.9496 64.3384 59.6464L65.9999 60.7597ZM68.6289 54.258C68.5423 54.2284 68.4573 54.1986 68.3681 54.1674C68.2801 54.1365 68.1878 54.1041 68.0926 54.0716L67.4456 55.964C67.5322 55.9937 67.6172 56.0234 67.7064 56.0547C67.7945 56.0856 67.8868 56.118 67.982 56.1505L68.6289 54.258ZM68.0855 54.0692C67.7223 53.9481 67.3445 53.819 66.9717 53.7006L66.3666 55.6069C66.721 55.7194 67.0705 55.839 67.4527 55.9664L68.0855 54.0692ZM66.9063 53.6823C66.9067 53.6824 66.9047 53.6819 66.8998 53.6805C66.8949 53.679 66.8879 53.6768 66.8783 53.6736C66.857 53.6664 66.8334 53.6579 66.7949 53.6437L66.107 55.5217C66.1697 55.5447 66.2955 55.5919 66.4319 55.6252L66.9063 53.6823ZM66.7559 53.6304C65.6273 53.269 64.5425 52.961 63.5561 52.7155L63.0732 54.6564C64.014 54.8904 65.0564 55.1862 66.146 55.5351L66.7559 53.6304ZM63.554 52.715C62.5963 52.4789 61.7018 52.2945 60.9005 52.1733L60.6016 54.1509C61.3276 54.2606 62.1603 54.4313 63.0753 54.6569L63.554 52.715ZM60.0321 52.4671C59.1574 53.372 57.7764 54.1179 56.0467 54.638C54.3296 55.1543 52.3404 55.426 50.3286 55.4351C48.3169 55.4442 46.3151 55.1904 44.5724 54.6786C42.8193 54.1637 41.3951 53.4078 40.4647 52.4611L39.0383 53.8631C40.2897 55.1362 42.0632 56.0261 44.0088 56.5976C45.965 57.172 48.1631 57.4449 50.3376 57.4351C52.5121 57.4253 54.6955 57.1327 56.6226 56.5533C58.5372 55.9776 60.2721 55.0965 61.4701 53.8571L60.0321 52.4671ZM39.6133 52.1717C38.7995 52.2853 37.8973 52.4811 36.9485 52.715L37.4273 54.6569C38.3512 54.4291 39.1763 54.2521 39.8897 54.1525L39.6133 52.1717ZM36.9465 52.7155C35.9601 52.961 34.8752 53.269 33.7467 53.6304L34.3566 55.5351C35.4462 55.1862 36.4886 54.8904 37.4293 54.6564L36.9465 52.7155ZM33.7149 53.6412C33.0792 53.8685 32.4538 54.0779 31.8209 54.2929L32.4642 56.1866C33.0859 55.9754 33.7332 55.7587 34.3884 55.5243L33.7149 53.6412Z" fill="#333333" mask="url(#path-10-inside-2_1335_5889)"/>
<defs>
<linearGradient id="paint0_linear_1335_5889" x1="35.8624" y1="60.7358" x2="52.165" y2="86.4926" gradientUnits="userSpaceOnUse">
<stop stop-color="#FFC671"/>
<stop offset="1" stop-color="#FF6F3D"/>
</linearGradient>
</defs>
</svg>
