<svg width="360" height="360" viewBox="0 0 360 360" fill="none" xmlns="http://www.w3.org/2000/svg">
<path d="M259.035 235.026C259.879 231.503 259.091 228.294 257.276 227.859C255.46 227.424 253.305 229.928 252.461 233.452C251.617 236.975 252.405 240.184 254.22 240.618C256.036 241.053 258.191 238.549 259.035 235.026Z" fill="#5C6C30" stroke="#39431E" stroke-width="2.5" stroke-miterlimit="10"/>
<path d="M111.872 248.267C113.688 247.832 114.476 244.624 113.632 241.1C112.788 237.577 110.632 235.073 108.817 235.508C107.001 235.943 106.214 239.151 107.058 242.675C107.901 246.198 110.057 248.702 111.872 248.267Z" fill="#5C6C30" stroke="#39431E" stroke-width="2.5" stroke-miterlimit="10"/>
<path d="M145.385 258.075C153.246 257.442 159.457 254.916 159.257 252.433C159.057 249.95 152.522 248.451 144.661 249.084C136.799 249.718 130.588 252.244 130.788 254.727C130.988 257.209 137.523 258.709 145.385 258.075Z" fill="#5C6C30" stroke="#39431E" stroke-width="2.5" stroke-miterlimit="10"/>
<path d="M146.001 283.19C154.281 282.523 160.864 280.375 160.704 278.393C160.544 276.412 153.703 275.346 145.423 276.013C137.143 276.68 130.561 278.827 130.72 280.809C130.88 282.791 137.721 283.857 146.001 283.19Z" fill="#5C6C30" stroke="#39431E" stroke-width="2.5" stroke-miterlimit="10"/>
<path d="M223.058 253.319C230.82 252.693 236.951 250.174 236.751 247.691C236.551 245.208 230.096 243.702 222.334 244.327C214.571 244.953 208.441 247.472 208.641 249.955C208.841 252.438 215.296 253.944 223.058 253.319Z" fill="#5C6C30" stroke="#39431E" stroke-width="2.5" stroke-miterlimit="10"/>
<path d="M236.071 274.87C236.153 272.878 229.267 270.977 220.691 270.624C212.116 270.271 205.098 271.6 205.016 273.592C204.934 275.584 211.819 277.485 220.395 277.838C228.97 278.191 235.989 276.862 236.071 274.87Z" fill="#5C6C30" stroke="#39431E" stroke-width="2.5" stroke-miterlimit="10"/>
<path d="M187.56 340.38C230.986 340.38 266.19 337.653 266.19 334.29C266.19 330.927 230.986 328.2 187.56 328.2C144.134 328.2 108.93 330.927 108.93 334.29C108.93 337.653 144.134 340.38 187.56 340.38Z" fill="#DDDDDD"/>
<path d="M201.11 296.58C201.11 296.58 199.34 304.77 199.75 314.19C200.16 323.61 202.62 328.39 202.62 328.39C202.62 328.39 207.26 329.96 214.63 329.89C222 329.82 225.28 327.64 225.28 327.64L214.63 314.88C214.63 314.88 212.38 307.85 211.9 301.91C211.42 295.97 211.5 292.02 211.5 292.02C211.5 292.02 208.68 291.33 207.73 291.33C203.09 291.33 201.11 296.58 201.11 296.58Z" fill="#77911A" stroke="#39431E" stroke-width="2.5" stroke-miterlimit="10"/>
<path d="M197.65 294.87C197.65 294.87 199.71 297.72 204.6 296.25C216.61 292.63 212.89 283.34 211.25 282.65C209.61 281.97 209.45 282.19 209.45 282.19L197.65 294.87Z" fill="#5C6C30" stroke="#39431E" stroke-width="2.5" stroke-miterlimit="10"/>
<path d="M202.62 328.39C202.62 328.39 213.4 332.25 218.93 332.14C224.46 332.04 227.73 329.89 227.73 329.89C227.73 329.89 225.79 323.3 221.89 319.45C217.51 315.11 214.63 314.88 214.63 314.88C214.63 314.88 209.79 316.58 207.85 320.88" fill="#77911A"/>
<path d="M202.62 328.39C202.62 328.39 213.4 332.25 218.93 332.14C224.46 332.04 227.73 329.89 227.73 329.89C227.73 329.89 225.79 323.3 221.89 319.45C217.51 315.11 214.63 314.88 214.63 314.88C214.63 314.88 209.79 316.58 207.85 320.88" stroke="#39431E" stroke-width="2.5" stroke-miterlimit="10"/>
<path d="M170.78 300.68C170.78 300.68 172.55 308.87 172.14 318.29C171.73 327.71 169.27 332.49 169.27 332.49C169.27 332.49 164.63 334.06 157.26 333.99C149.89 333.92 146.61 331.74 146.61 331.74L157.26 318.98C157.26 318.98 159.51 311.95 159.99 306.01C160.47 300.07 160.39 296.12 160.39 296.12C160.39 296.12 163.21 295.43 164.16 295.43C168.8 295.43 170.78 300.68 170.78 300.68Z" fill="#77911A" stroke="#39431E" stroke-width="2.5" stroke-miterlimit="10"/>
<path d="M174.24 298.96C174.24 298.96 172.18 301.81 167.29 300.34C155.28 296.72 159 287.43 160.64 286.74C162.28 286.05 162.44 286.28 162.44 286.28L174.24 298.96Z" fill="#5C6C30" stroke="#39431E" stroke-width="2.5" stroke-miterlimit="10"/>
<path d="M169.27 332.48C169.27 332.48 158.49 336.34 152.96 336.23C147.43 336.12 144.16 333.98 144.16 333.98C144.16 333.98 146.1 327.39 150 323.54C154.38 319.2 157.26 318.97 157.26 318.97C157.26 318.97 162.1 320.67 164.04 324.97" fill="#77911A"/>
<path d="M169.27 332.48C169.27 332.48 158.49 336.34 152.96 336.23C147.43 336.12 144.16 333.98 144.16 333.98C144.16 333.98 146.1 327.39 150 323.54C154.38 319.2 157.26 318.97 157.26 318.97C157.26 318.97 162.1 320.67 164.04 324.97" stroke="#39431E" stroke-width="2.5" stroke-miterlimit="10"/>
<path d="M183.95 300.61C201.192 300.61 215.17 284.268 215.17 264.11C215.17 243.952 201.192 227.61 183.95 227.61C166.708 227.61 152.73 243.952 152.73 264.11C152.73 284.268 166.708 300.61 183.95 300.61Z" fill="#A1CC3A" stroke="#39431E" stroke-width="2.5" stroke-miterlimit="10"/>
<path opacity="0.3" d="M165.84 269.6C165.84 249.44 179.82 243.65 197.06 243.65C201.94 243.65 206.56 244.12 210.68 245.24C205.21 234.67 195.29 227.61 183.95 227.61C166.71 227.61 152.73 243.95 152.73 264.11C152.73 280.11 161.54 293.69 173.79 298.62C168.85 289.73 165.84 278.95 165.84 269.6Z" fill="#39431E"/>
<path d="M165.38 132C165.38 132 137.03 132.82 120.74 150.17C106.25 165.6 100.11 195.23 116.5 213.88C135.17 235.12 179.69 254.01 203.68 242.3C227.67 230.59 243.35 195.86 248.15 179.38C252.96 162.9 243.95 138.67 229.59 129.85C204.88 114.7 165.38 132 165.38 132Z" fill="#A1CC3A" stroke="#39431E" stroke-width="2.5" stroke-miterlimit="10"/>
<path opacity="0.3" d="M142.68 216.12C126.47 196.19 122.12 166.95 136.8 150.15C143.83 142.1 154.98 136.76 165.47 133.27C165.34 132.85 165.25 132.43 165.23 132.01C163.17 132.09 136.38 133.5 120.73 150.17C106.24 165.6 100.1 195.23 116.49 213.88C131.68 231.15 163.97 246.88 188.4 245.84C170.45 239.98 152.73 228.48 142.68 216.12Z" fill="#39431E"/>
<path d="M109.15 175.08C115.46 167.69 133.35 163.2 146.17 175.05C158.99 186.9 165.48 206.84 161.42 213.66C157.81 219.71 136.26 222.4 123.34 216.66C110.42 210.92 93.58 193.31 109.15 175.08Z" fill="#3E5023" stroke="#38431B" stroke-width="2.5" stroke-miterlimit="10"/>
<path d="M234.74 139.98C225.52 136.9 207.88 142.26 203 159.02C198.12 175.78 202.82 196.21 209.81 199.97C216.02 203.3 235.88 194.5 244 182.92C252.12 171.35 257.47 147.59 234.74 139.98Z" fill="#3E5023" stroke="#38431B" stroke-width="2.5" stroke-miterlimit="10"/>
<path d="M104.1 159.83C118.02 152.1 113.91 148.51 110.85 146.74C108.49 145.37 101.51 148.43 97.1102 152.82C92.7002 157.22 90.7002 162.34 92.6302 164.28C94.5602 166.21 98.6602 162.85 104.1 159.83Z" fill="#5C6C30" stroke="#39431E" stroke-width="2.5" stroke-miterlimit="10"/>
<path d="M129.86 146.23C130.01 144.66 130.63 138.67 138.8 136.19C146.97 133.71 153.22 137.61 153.63 140.3C154.04 142.99 149.36 147.55 144.83 148.87C140.29 150.19 129.51 150.01 129.86 146.23Z" fill="#5C6C30" stroke="#39431E" stroke-width="2.5" stroke-miterlimit="10"/>
<path d="M244.06 125.82C244.52 123.13 239.92 120.1 233.78 119.06C227.64 118.02 220.19 119.56 219.05 122.04C217.58 125.25 216.3 130.56 232.13 128.82C238.32 128.15 243.61 128.51 244.06 125.82Z" fill="#5C6C30" stroke="#39431E" stroke-width="2.5" stroke-miterlimit="10"/>
<path d="M136.71 142.49C136.71 142.49 105.28 93.82 93.3598 78.65C88.6998 72.72 77.5098 55.78 93.7398 46.77C108.44 38.6 111.29 61.59 113.88 68.86C126.12 103.2 144.07 138.07 144.07 138.07C144.07 138.07 145.15 142.69 141.9 143.44C137.94 144.34 136.71 142.49 136.71 142.49Z" fill="#A1CC3A" stroke="#39431E" stroke-width="2.5" stroke-miterlimit="10"/>
<path d="M93.1802 78.15C95.4102 78.81 97.8302 78.71 100.08 78.09C102.33 77.47 104.41 76.34 106.31 74.99C109.09 73.02 111.52 70.55 113.45 67.74" stroke="#39431E" stroke-width="2.5" stroke-miterlimit="10" stroke-linecap="round" stroke-linejoin="round"/>
<path d="M99.0298 86.3C103.09 90.81 107.78 91.55 111.68 90.66C113.37 90.28 115.03 89.6 116.45 88.46C117.87 87.31 119.04 85.67 119.55 83.72" stroke="#39431E" stroke-width="2.5" stroke-miterlimit="10" stroke-linecap="round" stroke-linejoin="round"/>
<path d="M209.78 127C209.09 125.6 206.42 120.27 197.99 120.84C189.56 121.4 185.14 127.2 185.7 129.83C186.26 132.46 192.19 135.05 196.85 134.68C201.51 134.31 211.43 130.37 209.78 127Z" fill="#5C6C30" stroke="#39431E" stroke-width="2.5" stroke-miterlimit="10"/>
<path d="M201.74 126.17C201.74 126.17 213.94 69.53 219.73 51.13C221.99 43.94 226.47 24.14 208.1 21.44C191.46 19 196.92 41.51 197.07 49.22C197.76 85.67 193.58 125.36 193.58 125.36C193.58 125.36 194.53 129.6 197.83 129.15C201.86 128.6 201.74 126.17 201.74 126.17Z" fill="#A1CC3A" stroke="#39431E" stroke-width="2.5" stroke-miterlimit="10"/>
<path d="M218.84 53.96C217.04 55.32 214.82 56.05 212.57 56.26C210.33 56.47 208.06 56.18 205.89 55.62C202.71 54.81 199.68 53.45 196.98 51.61" stroke="#39431E" stroke-width="2.5" stroke-miterlimit="10" stroke-linecap="round" stroke-linejoin="round"/>
<path d="M216.29 63.22C214.13 68.63 210.13 70.89 206.31 71.44C204.65 71.67 202.92 71.64 201.25 71.11C199.58 70.58 197.96 69.51 196.85 67.95" stroke="#39431E" stroke-width="2.5" stroke-miterlimit="10" stroke-linecap="round" stroke-linejoin="round"/>
<path d="M141.91 192.24H117.08V199.24H141.91V192.24Z" fill="white"/>
<path d="M148.91 199.24H141.91V206.24H148.91V199.24Z" fill="white"/>
<path d="M220.06 171.25H213.06V178.25H220.06V171.25Z" fill="white"/>
<path d="M237.89 157.25H230.89V164.25H237.89V157.25Z" fill="white"/>
<path d="M132.99 185.24H125.99V192.24H132.99V185.24Z" fill="white"/>
<path d="M237.89 164.25H213.06V171.25H237.89V164.25Z" fill="white"/>
<path d="M133.804 255.085C134.377 250.192 127.669 245.385 118.822 244.348C109.974 243.311 102.336 246.437 101.763 251.33C101.189 256.223 107.897 261.03 116.745 262.067C125.593 263.104 133.23 259.978 133.804 255.085Z" fill="#A1CC3A" stroke="#39431E" stroke-width="2.5" stroke-miterlimit="10"/>
<path d="M250.028 254.988C258.9 254.185 265.732 249.558 265.288 244.651C264.844 239.745 257.292 236.419 248.42 237.221C239.548 238.024 232.716 242.652 233.16 247.558C233.604 252.464 241.156 255.791 250.028 254.988Z" fill="#A1CC3A" stroke="#39431E" stroke-width="2.5" stroke-miterlimit="10"/>
<path d="M255.967 276.709C256.453 272.557 250.765 268.477 243.261 267.598C235.757 266.719 229.279 269.372 228.793 273.524C228.306 277.677 233.995 281.756 241.499 282.635C249.002 283.515 255.48 280.861 255.967 276.709Z" fill="#A1CC3A" stroke="#39431E" stroke-width="2.5" stroke-miterlimit="10"/>
<path d="M125.739 289.706C133.27 289.099 139.103 285.229 138.767 281.061C138.431 276.894 132.054 274.007 124.523 274.614C116.992 275.221 111.159 279.091 111.495 283.258C111.83 287.426 118.208 290.312 125.739 289.706Z" fill="#A1CC3A" stroke="#39431E" stroke-width="2.5" stroke-miterlimit="10"/>
<path d="M184.97 229.05C189.2 228.35 193.42 227.64 197.65 226.94" stroke="#39431E" stroke-width="2.5" stroke-miterlimit="10" stroke-linecap="round" stroke-linejoin="round"/>
<path d="M98.7888 260.245C102.277 259.267 104.697 257.017 104.193 255.22C103.689 253.422 100.452 252.758 96.9636 253.736C93.475 254.714 91.0556 256.965 91.5596 258.762C92.0636 260.56 95.3002 261.224 98.7888 260.245Z" fill="#5C6C30" stroke="#39431E" stroke-width="2.5" stroke-miterlimit="10"/>
<path d="M104.444 249.412C104.521 247.546 101.648 245.914 98.0284 245.765C94.4083 245.616 91.4114 247.007 91.3347 248.872C91.258 250.738 94.1305 252.37 97.7506 252.519C101.371 252.668 104.367 251.277 104.444 249.412Z" fill="#5C6C30" stroke="#39431E" stroke-width="2.5" stroke-miterlimit="10"/>
<path d="M108.49 290.895C111.979 289.917 114.398 287.667 113.894 285.87C113.39 284.072 110.154 283.408 106.665 284.386C103.177 285.364 100.757 287.614 101.261 289.412C101.765 291.209 105.002 291.874 108.49 290.895Z" fill="#5C6C30" stroke="#39431E" stroke-width="2.5" stroke-miterlimit="10"/>
<path d="M114.138 280.049C114.214 278.184 111.342 276.551 107.722 276.402C104.102 276.254 101.105 277.645 101.028 279.51C100.951 281.375 103.824 283.008 107.444 283.157C111.064 283.306 114.061 281.915 114.138 280.049Z" fill="#5C6C30" stroke="#39431E" stroke-width="2.5" stroke-miterlimit="10"/>
<path d="M122.159 291.225C123.974 290.79 125.06 288.827 124.584 286.84C124.108 284.853 122.251 283.594 120.435 284.029C118.62 284.463 117.534 286.427 118.01 288.414C118.486 290.401 120.344 291.66 122.159 291.225Z" fill="#5C6C30" stroke="#39431E" stroke-width="2.5" stroke-miterlimit="10"/>
<path d="M274.525 251.081C275.029 249.283 272.61 247.033 269.121 246.055C265.633 245.077 262.396 245.741 261.892 247.538C261.388 249.336 263.808 251.586 267.296 252.564C270.785 253.542 274.021 252.878 274.525 251.081Z" fill="#5C6C30" stroke="#39431E" stroke-width="2.5" stroke-miterlimit="10"/>
<path d="M268.348 244.867C271.968 244.718 274.841 243.085 274.764 241.22C274.687 239.355 271.69 237.963 268.07 238.112C264.45 238.261 261.578 239.894 261.655 241.759C261.731 243.624 264.728 245.016 268.348 244.867Z" fill="#5C6C30" stroke="#39431E" stroke-width="2.5" stroke-miterlimit="10"/>
<path d="M264.83 281.718C265.334 279.921 262.915 277.67 259.426 276.692C255.937 275.714 252.701 276.378 252.197 278.176C251.693 279.973 254.112 282.223 257.601 283.201C261.089 284.18 264.326 283.515 264.83 281.718Z" fill="#5C6C30" stroke="#39431E" stroke-width="2.5" stroke-miterlimit="10"/>
<path d="M258.657 275.508C262.277 275.359 265.15 273.726 265.073 271.861C264.996 269.996 262 268.604 258.379 268.753C254.759 268.902 251.887 270.535 251.964 272.4C252.04 274.265 255.037 275.657 258.657 275.508Z" fill="#5C6C30" stroke="#39431E" stroke-width="2.5" stroke-miterlimit="10"/>
<path d="M248.078 280.759C248.554 278.772 247.468 276.808 245.653 276.374C243.838 275.939 241.98 277.197 241.504 279.185C241.028 281.172 242.114 283.135 243.93 283.57C245.745 284.005 247.602 282.746 248.078 280.759Z" fill="#5C6C30" stroke="#39431E" stroke-width="2.5" stroke-miterlimit="10"/>
<path d="M190.34 213.27C190.99 217.97 191.63 222.67 192.28 227.37" stroke="#39431E" stroke-width="2.5" stroke-miterlimit="10" stroke-linecap="round" stroke-linejoin="round"/>
</svg>
