<svg width="360" height="360" viewBox="0 0 360 360" fill="none" xmlns="http://www.w3.org/2000/svg">
<path d="M88.69 172.66V160.51C88.69 151.28 90.57 143.48 94.34 137.12C98.11 130.76 104.8 124.57 114.41 118.54C122.04 113.73 127.53 109.4 130.87 105.54C134.21 101.68 135.89 97.25 135.89 92.26C135.89 88.3 134.1 85.17 130.52 82.86C126.94 80.55 122.28 79.4 116.53 79.4C102.3 79.4 85.67 84.44 66.64 94.52L47 56.07C70.46 42.69 94.96 36 120.49 36C141.5 36 157.99 40.62 169.95 49.85C181.91 59.08 187.9 71.66 187.9 87.58C187.9 98.98 185.24 108.85 179.91 117.19C174.59 125.53 166.08 133.42 154.4 140.86C144.51 147.27 138.31 151.95 135.82 154.92C133.33 157.89 132.07 161.4 132.07 165.45V172.66H88.69ZM82.61 222.13C82.61 213.46 85.13 206.77 90.17 202.06C95.21 197.35 102.63 194.99 112.43 194.99C121.85 194.99 129.08 197.37 134.12 202.13C139.16 206.89 141.68 213.55 141.68 222.13C141.68 230.7 139.07 237.35 133.84 242.06C128.61 246.77 121.47 249.13 112.43 249.13C103.1 249.13 95.8 246.8 90.52 242.13C85.25 237.46 82.61 230.8 82.61 222.13Z" fill="#DBDBDB"/>
<path d="M205.77 324.07C264.699 324.07 312.47 319.606 312.47 314.1C312.47 308.594 264.699 304.13 205.77 304.13C146.841 304.13 99.0698 308.594 99.0698 314.1C99.0698 319.606 146.841 324.07 205.77 324.07Z" fill="#DDDDDD"/>
<path d="M256.59 280.67L269.49 287.63C274.68 289.14 277.75 287.23 279.44 283.05C286 286.11 289.71 284.32 292.04 280.19C282.53 275.4 272.55 265.89 262.21 252.71L256.59 280.67Z" fill="#19AADB"/>
<path d="M262.21 282.08C270.75 283.66 275.7 283.07 275.73 279.51C283.1 280.04 285 277.64 280.18 271.65L292.05 279.8C290.15 283.96 286.38 285.53 279.45 282.66C278.77 285.48 276.57 287.26 272.51 287.75L262.21 282.08Z" fill="#045C7C"/>
<path d="M256.59 280.27L269.49 287.23C274.68 288.74 277.75 286.83 279.44 282.65C286 285.71 289.71 283.92 292.04 279.79C282.53 275 272.55 265.49 262.21 252.31L256.59 280.27Z" stroke="#082E41" stroke-width="2.5" stroke-miterlimit="10" stroke-linecap="round" stroke-linejoin="round"/>
<path d="M117.35 201.08C117.09 200.63 147.24 111.39 151.11 103.09C152.17 100.26 161.99 71.94 166.27 64.51C166.27 64.51 170.85 69.71 169.79 74.02C169.39 75.67 174.05 77.76 173.55 82.47C172.99 87.66 173.6 89.55 171.96 94.39C173.32 95 218.51 106.55 219.51 106.55C238.26 108.09 247.57 94.45 248.86 93.02C249.05 92.79 251.76 82.05 253.06 79.38C253.89 77.68 260.89 80.43 260.35 89.49C260.3 90.37 262.85 91.62 264.07 94.39C264.77 100.73 262.93 108.23 262.24 114.63C261.82 122.34 261.41 130.05 260.99 137.76C260.7 143.21 260.29 162.03 260.47 165.95C260.52 167.07 265.23 253.81 265.69 261.58C266.36 270.82 269.09 303.79 267.84 311.73C267.41 314.51 221.97 286.47 197.24 284.46C170.53 280.56 150.82 296.03 137.23 307.83C103.07 271.09 116.94 205.02 117.35 201.08Z" fill="#19AADB"/>
<path d="M165.45 66.04C167.9 66.84 169.64 71.46 169.79 74.02C169.95 74.09 174.36 80.43 174.36 80.43C174.36 80.43 174.25 84.0401 174.25 84.1301C174.25 84.4101 173.02 89.8201 173.12 89.4901C174.96 83.7001 167.9 83.73 167.9 83.73C166.64 78.87 163.95 73.22 163 74.8101C162.6 75.4801 164.56 65.75 165.45 66.04Z" fill="#045C7C"/>
<path d="M257.26 99.81C260.65 95.52 262.48 112.64 262.58 112.01C264.54 99.78 266.76 90.84 260.36 89.48C262.53 85.03 254.78 75.6 253.07 79.99C252.84 80.57 248.86 92.65 249.27 91.82C251.06 88.24 258.24 93.64 257.26 99.81Z" fill="#045C7C"/>
<path opacity="0.21" d="M262.74 91.54C252.18 143.54 232.41 123.68 263.97 250.11C266.36 210.8 260.04 194.47 260.46 159.41C261.66 127.01 265.43 91.32 262.74 91.54Z" fill="#082E41"/>
<path opacity="0.2" d="M264.64 242C268.77 288.04 242.76 297.56 203.88 285.48C230.28 293.66 254.16 302.46 267.78 313.77C271.97 306.9 267.49 272.05 264.64 242Z" fill="#082E41"/>
<path opacity="0.19" d="M173.75 285.91C137.19 300.09 130.44 279.7 114.59 230.79C113.24 225.55 114.35 285.81 137.24 307.83C142.79 303.14 156.05 293.44 173.75 285.91Z" fill="#082E41"/>
<path opacity="0.19" d="M169.79 74.02C172.8 82.44 169.34 93.55 162.94 93.83L172.57 94.91C173.57 88.84 178 80.43 169.79 74.02Z" fill="#082E41"/>
<path d="M145.59 117.82C150.17 105.23 160.86 75.2099 165.45 66.0399C165.77 65.3899 166.39 65.6899 167 66.0699C168.66 67.1099 169.91 69.7099 169.79 74.0099C169.77 74.6299 174.92 76.1899 174.4 82.4599C173.94 87.9799 173.6 89.5399 171.97 94.3799C173.33 94.9899 218.52 106.54 219.52 106.54C238.25 108.08 245.76 97.5799 246.69 95.5999C246.69 95.5999 246.69 95.5999 246.69 95.5899C248.87 92.9999 251.82 81.6499 253.07 79.3599C255.08 75.6999 262.1 84.7699 260.36 89.4699C260.19 89.9299 263.85 91.2099 264.08 94.3699C264.78 100.71 262.94 108.21 262.25 114.61C261.83 122.32 261.42 130.03 261 137.74C260.71 143.19 260.3 162.01 260.48 165.93C260.53 167.05 265.24 253.79 265.7 261.56C266.37 270.8 269.1 303.77 267.85 311.71C267.42 314.49 221.98 286.45 197.25 284.44C170.54 280.54 150.83 296.01 137.24 307.81C84.7502 234.42 138.69 147.68 145.59 117.82Z" stroke="#082E41" stroke-width="2.5" stroke-miterlimit="10"/>
<path d="M260.36 89.48C258.81 97.56 257.55 101.09 254.61 105.23" stroke="#082E41" stroke-width="2.5" stroke-miterlimit="10" stroke-linecap="round" stroke-linejoin="round"/>
<path d="M169.92 74.04C168.37 82.12 168.72 82.14 166.65 86.81" stroke="#082E41" stroke-width="2.5" stroke-miterlimit="10" stroke-linecap="round" stroke-linejoin="round"/>
<path d="M164.21 93.8199L173.13 94.7899" stroke="#082E41" stroke-width="2.5" stroke-miterlimit="10" stroke-linecap="round" stroke-linejoin="round"/>
<path d="M162.95 282.37C176.87 281.42 190.18 282.16 202.67 285.24" stroke="#082E41" stroke-width="2.5" stroke-miterlimit="10" stroke-linecap="round" stroke-linejoin="round"/>
<path d="M130.67 307.14C128.18 310.43 124.08 311.1 122.62 310.41C121.23 309.74 121.09 305.06 123.57 301.78C126.06 298.49 129.66 297.04 131.62 298.51C133.58 299.99 133.15 303.86 130.67 307.14Z" fill="#045C7C" stroke="#062E41" stroke-width="2.5" stroke-miterlimit="10"/>
<path d="M138.61 311.04C134.88 313.56 130.46 312.57 128.79 311.08C126.99 309.49 128.76 304.51 132.49 301.99C136.22 299.47 140.62 299.45 142.31 301.95C144 304.45 142.34 308.52 138.61 311.04Z" fill="#045C7C" stroke="#062E41" stroke-width="2.5" stroke-miterlimit="10"/>
<path d="M258.78 314C261.27 317.29 265.37 317.96 266.83 317.27C268.22 316.6 268.36 311.92 265.88 308.64C263.39 305.36 259.79 303.9 257.83 305.37C255.86 306.84 256.29 310.71 258.78 314Z" fill="#045C7C" stroke="#062E41" stroke-width="2.5" stroke-miterlimit="10"/>
<path d="M267.14 309.48C267.93 313.92 271.72 316.39 273.95 316.56C276.35 316.74 278.69 312 277.9 307.57C277.11 303.13 274.06 299.97 271.09 300.49C268.12 301.02 266.36 305.05 267.14 309.48Z" fill="#045C7C" stroke="#062E41" stroke-width="2.5" stroke-miterlimit="10"/>
<path d="M239.01 145.89C239.61 134.71 231.9 125.21 221.81 124.67C211.71 124.13 203.05 132.76 202.45 143.94C201.85 155.12 209.56 164.62 219.65 165.16C229.75 165.69 238.41 157.07 239.01 145.89Z" fill="#014254" stroke="#082E41" stroke-width="2.5" stroke-miterlimit="10"/>
<path d="M173.02 136.63C174.85 125.98 170.03 116.25 162.25 114.92C154.47 113.58 146.67 121.13 144.84 131.78C143.01 142.43 147.83 152.16 155.61 153.49C163.39 154.82 171.18 147.28 173.02 136.63Z" fill="#014254" stroke="#082E41" stroke-width="2.5" stroke-miterlimit="10"/>
<path d="M154.59 128.87C156.926 128.87 158.82 126.976 158.82 124.64C158.82 122.304 156.926 120.41 154.59 120.41C152.254 120.41 150.36 122.304 150.36 124.64C150.36 126.976 152.254 128.87 154.59 128.87Z" fill="white"/>
<path d="M175.13 141.06C163.95 140.88 152.79 139.34 141.97 136.5C141.6 141.61 140.85 146.37 140.47 151.48C140.28 154.04 140.11 156.71 141.09 159.08C142.55 162.63 146.43 164.77 150.26 164.97C154.09 165.17 157.84 163.7 161.1 161.68C168.43 157.16 173.01 149.41 175.13 141.06Z" fill="#19AADB"/>
<path d="M141.97 136.5C152.79 139.35 163.95 140.88 175.13 141.06" stroke="#082E41" stroke-width="2.5" stroke-miterlimit="10" stroke-linecap="round" stroke-linejoin="round"/>
<path d="M242.72 145C228.45 149.82 212.75 150.3 198.22 146.35C198.64 150.5 198.76 154.34 200.42 158.16C202.94 163.95 208 168.57 213.99 170.57C219.98 172.57 226.8 171.91 232.29 168.81C237.78 165.71 241.87 160.2 243.24 154.04C243.92 150.96 242.99 148.16 242.72 145Z" fill="#19AADB"/>
<path d="M198.21 146.36C212.74 150.31 228.45 149.83 242.71 145.01" stroke="#082E41" stroke-width="2.5" stroke-miterlimit="10" stroke-linecap="round" stroke-linejoin="round"/>
<path d="M173.09 152.36C173.15 152.39 176.11 149 184.82 146.19C191.01 148.18 191.38 153.09 194.94 157.01C196.4 157.22 182.52 164.01 178.32 162.47C176.11 160.59 173.16 155.29 173.09 152.36Z" fill="#014254" stroke="#082E41" stroke-width="2.5" stroke-miterlimit="10" stroke-linecap="round" stroke-linejoin="round"/>
<path d="M252.73 139.77C252.51 124.56 239.7 112.6 224.1 113.07C208.51 113.54 196.04 126.24 196.26 141.46C196.48 156.67 209.29 168.63 224.89 168.16C240.48 167.7 252.95 154.99 252.73 139.77Z" stroke="#98D8E6" stroke-width="2.5" stroke-miterlimit="10"/>
<path d="M176.83 132.43C176.65 118.11 165.54 106.84 152.02 107.26C138.5 107.68 127.69 119.63 127.87 133.95C128.05 148.27 139.16 159.54 152.68 159.12C166.2 158.7 177.02 146.75 176.83 132.43Z" stroke="#98D8E6" stroke-width="2.5" stroke-miterlimit="10"/>
<path d="M176.11 140.09C180.12 133.66 193.41 135.4 196.26 141.47" stroke="#98D8E6" stroke-width="2.5" stroke-miterlimit="10" stroke-linecap="round" stroke-linejoin="round"/>
<path d="M143.98 175.28C157.43 175.28 164.38 170.43 171.27 161.85C174.25 168.76 178.6 171.42 185.93 171.19C192.65 170.97 199.31 168.68 204.65 164.57C204.06 167.06 203.34 169.57 202.94 172.08C202.97 171.86 208.71 170.69 209.37 170.3C212.35 174.85 201.54 186.88 198.68 190.35C193.33 196.85 166.64 218.34 130.13 216.66" fill="#19AADB"/>
<path d="M143.98 175.28C157.43 175.28 164.38 170.43 171.27 161.85C174.25 168.76 178.6 171.42 185.93 171.19C192.65 170.97 199.31 168.68 204.65 164.57C204.06 167.06 203.34 169.57 202.94 172.08C202.97 171.86 208.71 170.69 209.37 170.3C212.35 174.85 201.54 186.88 198.68 190.35C193.33 196.85 166.64 218.34 130.13 216.66" stroke="#082E41" stroke-width="2.5" stroke-miterlimit="10" stroke-linecap="round" stroke-linejoin="round"/>
<path d="M208.35 171.6C208.46 171.59 208.59 171.57 208.61 171.63C209.21 173.38 206.85 177.51 205.9 179.07C205.51 179.71 205.09 180.34 204.68 180.97C203.26 183.16 202.18 184.61 200.2 186.7C200.1 185.85 200.35 184.99 200.63 184.18C200.91 183.37 201.22 182.54 201.25 181.68C201.28 180.82 200.96 179.89 200.23 179.43C199.36 178.88 198.22 179.15 197.24 179.46C196.26 179.77 195.16 180.11 194.24 179.66C195.12 178.64 196.05 177.49 196.03 176.14C196.01 174.86 195.09 173.74 193.98 173.11C192.87 172.48 191.58 172.28 190.31 172.1C190.82 172.17 191.26 171.95 191.7 171.74C192.17 171.52 192.74 171.47 193.24 171.35C194.36 171.08 195.46 170.74 196.55 170.34C198.71 169.54 200.78 168.48 202.69 167.2C202.71 167.18 202.78 167.69 202.78 167.74C202.77 167.98 202.69 168.2 202.62 168.43C202.51 168.79 202.5 169.16 202.42 169.53C202.32 170 202.22 170.48 202.13 170.95C202.08 171.2 202.03 171.45 201.97 171.7C201.94 171.86 201.76 172.3 201.82 172.44C201.99 172.9 202.77 172.61 203.07 172.54C203.68 172.39 204.29 172.26 204.91 172.14C205.53 172.02 206.16 171.92 206.79 171.83C207.09 171.79 207.39 171.75 207.7 171.72C207.82 171.69 208.12 171.61 208.35 171.6Z" fill="#045C7C"/>
<path d="M203.42 169.51C202.93 172.74 201.87 175.89 200.3 178.76" stroke="#082E41" stroke-width="2.5" stroke-miterlimit="10" stroke-linecap="round" stroke-linejoin="round"/>
<path d="M233.52 186.93C208.12 201.06 177.81 204.53 150.36 196.46C152.07 201.86 155.51 206.59 159.96 209.67C157.32 209.34 154.68 209 152.04 208.67C152.69 213.25 155.31 217.45 158.99 219.81C157.35 219.68 155.7 219.55 154.06 219.43C155.65 226.91 194.26 245.03 217.21 237.01" fill="#19AADB"/>
<path d="M233.52 186.93C208.12 201.06 177.81 204.53 150.36 196.46C152.07 201.86 155.51 206.59 159.96 209.67C157.32 209.34 154.68 209 152.04 208.67C152.69 213.25 155.31 217.45 158.99 219.81C157.35 219.68 155.7 219.55 154.06 219.43C155.65 226.91 194.26 245.03 217.21 237.01" stroke="#082E41" stroke-width="2.5" stroke-miterlimit="10" stroke-linecap="round" stroke-linejoin="round"/>
<path d="M152.6 198.62C154.24 203.36 157.52 205.59 160.5 210.12C160.77 210.53 160.61 211.04 160.13 210.95C157.89 210.55 155.42 209.91 153.37 209.71C154.93 214.95 157.61 216.41 160.43 220.12C159.07 220.76 158.25 221.1 156.61 221.01C156.64 221.01 159.96 224.13 160.68 224.54C163.58 226.21 166.27 227.64 169.34 228.99C167.95 228.39 166.51 227.77 165.44 226.7C164.36 225.63 163.71 223.99 164.22 222.56C164.94 220.56 167.4 219.92 169.5 219.57C167.81 218.38 166.02 217.06 165.31 215.12C164.6 213.18 165.59 210.48 167.65 210.26C165.61 209.47 164.17 207.33 164.2 205.14C164.23 203.01 165.82 202.88 168.15 201.53C164.22 200.98 156.36 199.62 152.6 198.62Z" fill="#045C7C"/>
<path d="M157.91 218.89C159.67 220.65 162.04 221.17 165.27 222.01" stroke="#082E41" stroke-width="2.5" stroke-miterlimit="10" stroke-linecap="round" stroke-linejoin="round"/>
<path d="M157.83 208.53C160.82 210.14 164.35 210.74 167.7 210.2" stroke="#082E41" stroke-width="2.5" stroke-miterlimit="10" stroke-linecap="round" stroke-linejoin="round"/>
<path d="M149.27 147.72C153.1 149.85 157.6 150.76 161.96 150.29" stroke="#082E41" stroke-width="2.5" stroke-miterlimit="10" stroke-linecap="round" stroke-linejoin="round"/>
<path d="M227.81 157.79C231.17 157.46 234.44 156.3 237.26 154.45" stroke="#082E41" stroke-width="2.5" stroke-miterlimit="10" stroke-linecap="round" stroke-linejoin="round"/>
<path d="M161.44 121.81C162.533 121.81 163.42 120.924 163.42 119.83C163.42 118.736 162.533 117.85 161.44 117.85C160.346 117.85 159.46 118.736 159.46 119.83C159.46 120.924 160.346 121.81 161.44 121.81Z" fill="white"/>
<path d="M231.08 143.96C233.416 143.96 235.31 142.066 235.31 139.73C235.31 137.394 233.416 135.5 231.08 135.5C228.744 135.5 226.85 137.394 226.85 139.73C226.85 142.066 228.744 143.96 231.08 143.96Z" fill="white"/>
<path d="M226.48 133.4C227.574 133.4 228.46 132.513 228.46 131.42C228.46 130.326 227.574 129.44 226.48 129.44C225.386 129.44 224.5 130.326 224.5 131.42C224.5 132.513 225.386 133.4 226.48 133.4Z" fill="white"/>
</svg>
