<svg width="16" height="16" viewBox="0 0 16 16" fill="none" xmlns="http://www.w3.org/2000/svg">
<path fill-rule="evenodd" clip-rule="evenodd" d="M11.962 1.45117L2.30029 14.2047L3.89448 15.4124L13.5562 2.65888L11.962 1.45117ZM8.00001 3.99959C8.12481 3.99959 8.24959 4.00635 8.37423 4.01947L9.70767 2.25931C9.16549 2.09568 8.59434 1.99959 8.00001 1.99959C6.1116 1.99959 4.45712 2.96974 3.22251 3.99402C1.97234 5.03122 1.02832 6.22705 0.542514 6.89919C0.0652547 7.55951 0.0652569 8.43967 0.542514 9.09999C0.955725 9.67169 1.70043 10.6223 2.68307 11.5318L3.89761 9.92863C3.15639 9.22007 2.57221 8.48705 2.21523 7.99959C2.66402 7.38675 3.47193 6.38579 4.49952 5.53326C5.58351 4.63394 6.79128 3.99959 8.00001 3.99959ZM6.47904 13.7932C6.96516 13.9242 7.47349 13.9996 8.00001 13.9996C9.88842 13.9996 11.5429 13.0294 12.7775 12.0052C14.0277 10.968 14.9717 9.77213 15.4575 9.09999C15.9348 8.43967 15.9348 7.55951 15.4575 6.89919C15.0631 6.35353 14.3667 5.46272 13.4497 4.59185L12.2333 6.19751C12.9125 6.86566 13.4491 7.5412 13.7848 7.99959C13.336 8.61243 12.5281 9.61339 11.5005 10.4659C10.4165 11.3652 9.20874 11.9996 8.00001 11.9996C7.94687 11.9996 7.89372 11.9984 7.84059 11.9959L6.47904 13.7932Z" fill="#657077"/>
</svg>
