<svg width="12" height="12" viewBox="0 0 12 12" fill="none" xmlns="http://www.w3.org/2000/svg">
<g clip-path="url(#clip0_4239_690)">
<path d="M5.99995 0.000244141C6.39008 0.000244141 6.7446 0.227133 6.908 0.581398L8.08424 3.13147L10.873 3.46211C11.2604 3.50805 11.5857 3.7751 11.7063 4.14614C11.8268 4.51718 11.7206 4.92446 11.4342 5.18934L9.3724 7.09602L9.9197 9.85044C9.99573 10.2331 9.84228 10.625 9.52666 10.8543C9.21103 11.0837 8.79086 11.1085 8.45043 10.9179L5.99995 9.54625L3.54946 10.9179C3.20903 11.1085 2.78886 11.0837 2.47323 10.8543C2.15761 10.625 2.00416 10.2331 2.08019 9.85044L2.62749 7.09602L0.565712 5.18934C0.279281 4.92446 0.173048 4.51718 0.293607 4.14614C0.414165 3.7751 0.7395 3.50805 1.12692 3.46211L3.91566 3.13147L5.09189 0.581398C5.2553 0.227133 5.60981 0.000244141 5.99995 0.000244141Z" fill="#4781D1"/>
</g>
<defs>
<clipPath id="clip0_4239_690">
<rect width="12" height="12" fill="white"/>
</clipPath>
</defs>
</svg>
