<svg width="76" height="75" viewBox="0 0 76 75" fill="none" xmlns="http://www.w3.org/2000/svg">
<g clip-path="url(#clip0_3260_8878)">
<path fill-rule="evenodd" clip-rule="evenodd" d="M65.4998 4.91089C65.4998 2.7609 63.7392 1 61.5897 1H24.0602L10.4998 14.7025V65.0508C10.4998 67.2008 12.2603 68.9617 14.4098 68.9617H61.5847C63.7342 68.9617 65.4948 67.2008 65.4948 65.0508V36.2678V28.7953V9.9292L65.4998 4.91089Z" fill="#FEFEFE"/>
<path d="M61.557 69C63.7246 69 65.5 67.237 65.5 65.0844V36.2668V28.7853V9.68792V4.66358C65.5 2.511 63.9383 1 61.7707 1H24.5L10.5 15L10.5203 65.0844C10.5203 67.237 12.2957 69 14.4633 69H38H45.8177" stroke="#333333" stroke-linecap="round"/>
<path d="M24 10.963C24 12.906 22.4063 14.4998 20.4632 14.4998H11.2071L24 1.70709V10.963Z" fill="url(#paint0_linear_3260_8878)" stroke="#333333" stroke-linejoin="round"/>
<path d="M58.1984 60.9498L58.1048 60.1044L57.4117 60.5973C56.4909 61.252 55.3073 61.6542 54.0049 61.6542C52.7024 61.6542 51.5135 61.2519 50.5875 60.5927L50.4573 60.5H50.2975H50.2975H50.2974H50.2974H50.2973H50.2972H50.2972H50.2971H50.297H50.297H50.2969H50.2968H50.2968H50.2967H50.2966H50.2966H50.2965H50.2965H50.2964H50.2963H50.2963H50.2962H50.2961H50.2961H50.296H50.2959H50.2959H50.2958H50.2957H50.2957H50.2956H50.2956H50.2955H50.2954H50.2954H50.2953H50.2952H50.2952H50.2951H50.295H50.295H50.2949H50.2948H50.2948H50.2947H50.2947H50.2946H50.2945H50.2945H50.2944H50.2943H50.2943H50.2942H50.2941H50.2941H50.294H50.2939H50.2939H50.2938H50.2938H50.2937H50.2936H50.2936H50.2935H50.2934H50.2934H50.2933H50.2932H50.2932H50.2931H50.293H50.293H50.2929H50.2929H50.2928H50.2927H50.2927H50.2926H50.2925H50.2925H50.2924H50.2923H50.2923H50.2922H50.2921H50.2921H50.292H50.2919H50.2919H50.2918H50.2917H50.2917H50.2916H50.2916H50.2915H50.2914H50.2914H50.2913H50.2912H50.2912H50.2911H50.291H50.291H50.2909H50.2908H50.2908H50.2907H50.2906H50.2906H50.2905H50.2904H50.2904H50.2903H50.2902H50.2902H50.2901H50.29H50.29H50.2899H50.2898H50.2898H50.2897H50.2897H50.2896H50.2895H50.2895H50.2894H50.2893H50.2893H50.2892H50.2891H50.2891H50.289H50.2889H50.2889H50.2888H50.2887H50.2887H50.2886H50.2885H50.2885H50.2884H50.2883H50.2883H50.2882H50.2881H50.2881H50.288H50.2879H50.2879H50.2878H50.2877H50.2877H50.2876H50.2875H50.2875H50.2874H50.2873H50.2873H50.2872H50.2871H50.2871H50.287H50.2869H50.2869H50.2868H50.2867H50.2867H50.2866H50.2865H50.2865H50.2864H50.2863H50.2862H50.2862H50.2861H50.286H50.286H50.2859H50.2858H50.2858H50.2857H50.2856H50.2856H50.2855H50.2854H50.2854H50.2853H50.2852H50.2852H50.2851H50.285H50.285H50.2849H50.2848H50.2847H50.2847H50.2846H50.2845H50.2845H50.2844H50.2843H50.2843H50.2842H50.2841H50.2841H50.284H50.2839H50.2838H50.2838H50.2837H50.2836H50.2836H50.2835H50.2834H50.2834H50.2833H50.2832H50.2832H50.2831H50.283H50.2829H50.2829H50.2828H50.2827H50.2827H50.2826H50.2825H50.2825H50.2824H50.2823H50.2822H50.2822H50.2821H50.282H50.282H50.2819H50.2818H50.2817H50.2817H50.2816H50.2815H50.2815H50.2814H50.2813H50.2812H50.2812H50.2811H50.281H50.281H50.2809H50.2808H50.2807H50.2807H50.2806H50.2805H50.2805H50.2804H50.2803H50.2802H50.2802H50.2801H50.28H50.28H50.2799H50.2798H50.2797H50.2797H50.2796H50.2795H50.2794H50.2794H50.2793H50.2792H50.2791H50.2791H50.279H50.2789H50.2789H50.2788H50.2787H50.2786H50.2786H50.2785H50.2784H50.2783H50.2783H50.2782H50.2781H50.278H50.278H50.2779H50.2778H50.2777H50.2777H50.2776H50.2775H50.2774H50.2774H50.2773H50.2772H50.2771H50.2771H50.277H50.2769H50.2768H50.2768H50.2767H50.2766H50.2765H50.2765H50.2764H50.2763H50.2762H50.2762H50.2761H50.276H50.2759H50.2759H50.2758H50.2757H50.2756H50.2756H50.2755H50.2754H50.2753H50.2752H50.2752H50.2751H50.275H50.2749H50.2749H50.2748H50.2747H50.2746H50.2745H50.2745H50.2744H50.2743H50.2742H50.2742H50.2741H50.274H50.2739H50.2738H50.2738H50.2737H50.2736H50.2735H50.2734H50.2734H50.2733H50.2732H50.2731H50.2731H50.273H50.2729H50.2728H50.2727H50.2727H50.2726H50.2725H50.2724H50.2723H50.2723H50.2722H50.2721H50.272H50.2719H50.2719H50.2718H50.2717H50.2716H50.2715H50.2714H50.2714H50.2713H50.2712H50.2711H50.271H50.271H50.2709H50.2708H50.2707H50.2706H50.2705H50.2705H50.2704H50.2703H50.2702H50.2701H50.2701H50.27H50.2699H50.2698H50.2697H50.2696H50.2696H50.2695H50.2694H50.2693H50.2692H50.2691H50.2691H50.269H50.2689H50.2688H50.2687H50.2686H50.2685H50.2685H50.2684H50.2683H50.2682H50.2681H50.268H50.268H50.2679H50.2678H50.2677H50.2676H50.2675H50.2674H50.2674H50.2673H50.2672H50.2671H50.267H50.2669H50.2668H50.2668H50.2667H50.2666H50.2665H50.2664H50.2663H50.2662H50.2661H50.2661H50.266H50.2659H50.2658H50.2657H50.2656H50.2655H50.2654H50.2654H50.2653H50.2652H50.2651H50.265H50.2649H50.2648H50.2647H50.2646H50.2646H50.2645H50.2644H50.2643H50.2642H50.2641H50.264H50.2639H50.2638H50.2637H50.2637H50.2636H50.2635H50.2634H50.2633H50.2632H50.2631H50.263H50.2629H50.2628H50.2627H50.2626H50.2626H50.2625H50.2624H50.2623H50.2622H50.2621H50.262H50.2619H50.2618H50.2617H50.2616H50.2615H50.2614H50.2614H50.2613H50.2612H50.2611H50.261H50.2609H50.2608H50.2607H50.2606H50.2605H50.2604H50.2603H50.2602H50.2601H50.26H50.2599H50.2598H50.2597H50.2597H50.2596H50.2595H50.2594H50.2593H49.8098L49.7621 60.9469C49.5216 63.198 49.0941 65.3368 48.719 67.1808C48.7026 67.2616 48.6862 67.342 48.6699 67.4219C48.3204 69.138 48.0162 70.6315 48.0006 71.6541C47.9928 72.1721 48.0525 72.7055 48.3414 73.0747C48.5 73.2774 48.7151 73.4146 48.9739 73.4709C49.2204 73.5246 49.4793 73.4995 49.7349 73.4324C50.2381 73.3002 50.8507 72.9717 51.5845 72.472C52.2534 72.0166 53.0535 71.3976 54.0049 70.6011C54.957 71.3982 55.7574 72.0174 56.4261 72.4728C57.1598 72.9724 57.7719 73.3008 58.2743 73.4325C58.5296 73.4994 58.7885 73.5243 59.0348 73.47C59.2937 73.413 59.5083 73.2746 59.6657 73.0711C59.952 72.7008 60.0091 72.1669 59.9989 71.6489C59.9789 70.6255 59.6691 69.1314 59.3133 67.4154C59.2968 67.336 59.2802 67.2561 59.2636 67.1757C58.8819 65.3327 58.447 63.1962 58.1984 60.9498Z" fill="#D9F4FF" stroke="#333333"/>
<path d="M47.9998 57.852V57.8529C47.9998 61.1715 50.6895 63.8555 54.0023 63.8555C57.3161 63.8555 59.9998 61.1654 59.9998 57.8529C59.9998 54.5398 57.3154 51.8555 54.0023 51.8555C50.6888 51.8555 48.0054 54.5452 47.9998 57.852Z" fill="url(#paint1_linear_3260_8878)" stroke="#333333"/>
<path fill-rule="evenodd" clip-rule="evenodd" d="M19.5 20.5C19.2239 20.5 19 20.7239 19 21C19 21.2761 19.2239 21.5 19.5 21.5H56.5C56.7761 21.5 57 21.2761 57 21C57 20.7239 56.7761 20.5 56.5 20.5H19.5ZM19 26C19 25.7239 19.2239 25.5 19.5 25.5H41.5037C41.7799 25.5 42.0037 25.7239 42.0037 26C42.0037 26.2761 41.7799 26.5 41.5037 26.5H19.5C19.2239 26.5 19 26.2761 19 26ZM45 26C45 25.7239 45.2239 25.5 45.5 25.5H56.5C56.7761 25.5 57 25.7239 57 26C57 26.2761 56.7761 26.5 56.5 26.5H45.5C45.2239 26.5 45 26.2761 45 26ZM19 31C19 30.7239 19.2239 30.5 19.5 30.5H56.5C56.7761 30.5 57 30.7239 57 31C57 31.2761 56.7761 31.5 56.5 31.5H19.5C19.2239 31.5 19 31.2761 19 31ZM19.5 45.5C19.2239 45.5 19 45.7239 19 46C19 46.2761 19.2239 46.5 19.5 46.5H47.5C47.7761 46.5 48 46.2761 48 46C48 45.7239 47.7761 45.5 47.5 45.5H19.5ZM19 36C19 35.7239 19.2239 35.5 19.5 35.5H31.6707C31.9469 35.5 32.1707 35.7239 32.1707 36C32.1707 36.2761 31.9469 36.5 31.6707 36.5H19.5C19.2239 36.5 19 36.2761 19 36ZM19.5 50.5C19.2239 50.5 19 50.7239 19 51C19 51.2761 19.2239 51.5 19.5 51.5H32.0632C32.3394 51.5 32.5632 51.2761 32.5632 51C32.5632 50.7239 32.3394 50.5 32.0632 50.5H19.5ZM19 56C19 55.7239 19.2239 55.5 19.5 55.5H28.3408C28.6169 55.5 28.8408 55.7239 28.8408 56C28.8408 56.2761 28.6169 56.5 28.3408 56.5H19.5C19.2239 56.5 19 56.2761 19 56ZM56.5 41.5C56.7761 41.5 57 41.2761 57 41C57 40.7239 56.7761 40.5 56.5 40.5H43.5C43.2239 40.5 43 40.7239 43 41C43 41.2761 43.2239 41.5 43.5 41.5H56.5ZM35 36C35 35.7239 35.2239 35.5 35.5 35.5H56.5C56.7761 35.5 57 35.7239 57 36C57 36.2761 56.7761 36.5 56.5 36.5H35.5C35.2239 36.5 35 36.2761 35 36ZM40.0967 40.5C40.3728 40.5 40.5967 40.7239 40.5967 41C40.5967 41.2761 40.3728 41.5 40.0967 41.5H19.5C19.2239 41.5 19 41.2761 19 41C19 40.7239 19.2239 40.5 19.5 40.5H40.0967Z" fill="#333333"/>
<path fill-rule="evenodd" clip-rule="evenodd" d="M31.4372 11H54.5364C55.8153 11 55.8329 13 54.5188 13H31.4372C30.1876 12.9953 30.1876 11 31.4372 11Z" fill="url(#paint2_linear_3260_8878)"/>
<path fill-rule="evenodd" clip-rule="evenodd" d="M36.456 58.1786C36.7947 57.4237 37.3152 56.2634 37.2462 55.4836C37.2023 54.9971 36.8699 54.6664 35.9668 54.7413C35.5466 54.7787 35.1766 54.8972 34.8693 55.0844C34.5808 55.2591 34.3487 55.5024 34.1982 55.7831C34.0477 56.0638 33.985 56.3944 34.0163 56.7563C34.0477 57.1181 34.1856 57.5173 34.4428 57.9353C34.5306 58.0788 34.7313 58.3221 34.9884 58.634C35.5403 59.3139 36.3243 60.2684 36.7884 61.1917C37.2839 60.9172 37.5912 60.5865 37.7793 60.3807C37.9863 60.1499 38.1117 60.0126 38.3375 60.1249C38.6135 60.2622 38.6385 60.7924 38.6636 61.3351C38.6824 61.7531 38.7013 62.1898 38.7326 62.2085C38.7765 62.2272 38.9647 61.9091 39.4476 60.9172C39.4288 60.7986 39.4476 60.6739 39.4789 60.5491C39.5291 60.3682 39.6232 60.1873 39.711 60.0812C40.0497 59.6508 40.3256 59.6259 40.2943 60.2123C40.288 60.3058 40.2378 60.468 40.1187 60.7238L40.0434 60.8797C40.1312 60.8111 40.3382 60.5366 40.5577 60.2123C40.8838 59.7444 41.2037 59.1642 41.373 58.8336L41.3793 58.8211C41.7618 56.095 42.3263 53.3564 43.1416 52.9447C43.4803 52.7762 43.7061 52.8449 43.8378 53.1006C44.2266 53.8742 42.4015 57.8729 42.0378 58.6714L41.881 59.002C41.7807 59.7257 41.6991 60.4555 41.6176 61.1355C41.8057 60.9359 42.0127 60.7675 42.2322 60.6489C42.5082 60.4992 42.7841 60.3744 43.0475 60.2497C44.2266 59.7007 44.5904 59.3451 45.4998 58.5217C45.1046 59.969 44.6593 60.075 43.267 60.7238C43.0099 60.8423 42.7465 60.9671 42.4768 61.1106C42.1068 61.3039 41.7869 61.6907 41.5486 62.1274L41.4922 62.2397L41.4232 62.8885C41.2915 64.1112 41.2037 64.9346 40.9277 64.9346C40.7207 64.9346 40.6204 64.5416 40.6141 63.6371C40.6078 63.1754 40.7458 62.614 40.9904 62.0962C41.0531 61.5098 41.1284 60.8673 41.2099 60.1935C41.1409 60.3058 41.0657 60.4119 40.9967 60.5179C40.6016 61.0918 40.1626 61.5285 39.8113 61.385L39.7988 61.3788C39.1842 62.5204 38.7891 62.8136 38.5131 62.6826C38.1995 62.5329 38.1744 61.9402 38.1494 61.3663L38.1243 60.7924C37.9048 61.0295 37.5598 61.3913 37.0142 61.6782C37.2776 62.3707 37.2964 63.007 36.8323 63.4499C36.1989 64.055 35.3522 64.0862 34.725 63.8492C34.4052 63.7306 34.1355 63.531 33.9787 63.3064C33.7968 63.0382 33.7529 62.7325 33.9285 62.4331C34.1292 62.0775 34.6686 61.7469 35.6909 61.5784C35.9292 61.541 36.1424 61.4786 36.3368 61.41C35.8915 60.5678 35.1264 59.6259 34.5933 58.9708C34.3236 58.6402 34.1041 58.3782 34.01 58.216C33.709 57.7294 33.5522 57.2553 33.5083 56.8062C33.4707 56.3445 33.5585 55.9203 33.7466 55.5523C33.9411 55.1842 34.2358 54.8785 34.6059 54.6477C34.9822 54.4169 35.4274 54.2734 35.9354 54.2298C37.2274 54.1175 37.7103 54.6602 37.7793 55.44C37.8985 56.8062 37.1898 58.1911 36.1612 59.0207L36.456 58.1786ZM36.456 63.0756C36.7382 62.8074 36.7257 62.3769 36.5375 61.8841C36.3055 61.9714 36.0483 62.0401 35.7598 62.09C34.9132 62.2334 34.4992 62.458 34.3675 62.6888C34.3111 62.7949 34.3236 62.9072 34.3989 63.007C34.4992 63.1505 34.6748 63.2752 34.8943 63.3563C35.3585 63.5372 35.9919 63.5185 36.456 63.0756ZM38.0992 60.5928C38.0302 60.5616 38.0615 60.5865 38.1054 60.624L38.0992 60.5928ZM42.1632 57.0994C42.7778 55.6833 43.5618 53.7182 43.3674 53.3377C43.3486 53.294 43.3925 53.4063 43.3737 53.4125C42.8845 53.6621 42.4831 55.2154 42.1632 57.0994Z" fill="#333333"/>
</g>
<defs>
<linearGradient id="paint0_linear_3260_8878" x1="15.6243" y1="5.93331" x2="20.7785" y2="11.6104" gradientUnits="userSpaceOnUse">
<stop stop-color="#FFC671"/>
<stop offset="1" stop-color="#FF6F3D"/>
</linearGradient>
<linearGradient id="paint1_linear_3260_8878" x1="48.3374" y1="51.6165" x2="54.857" y2="58.7976" gradientUnits="userSpaceOnUse">
<stop stop-color="#FFC671"/>
<stop offset="1" stop-color="#FF6F3D"/>
</linearGradient>
<linearGradient id="paint2_linear_3260_8878" x1="30.5" y1="10.9219" x2="30.8064" y2="14.9012" gradientUnits="userSpaceOnUse">
<stop stop-color="#FF8E3D"/>
<stop offset="1" stop-color="#FF6F3D"/>
</linearGradient>
<clipPath id="clip0_3260_8878">
<rect width="75" height="75" fill="white" transform="translate(0.5)"/>
</clipPath>
</defs>
</svg>
