<svg xmlns="http://www.w3.org/2000/svg" width="232" height="40" viewBox="0 0 232 40" fill="none">
  <path d="M81.5086 11.5082H83.3461L79.6902 25.2129H77.891L74.9434 16.1785H74.8668L71.9191 25.2129H70.1199L66.3109 11.5082H68.1484L71.0387 22.2844H71.1152L74.082 13.3457H75.7281L78.6949 22.2844H78.7715L81.5086 11.5082Z" fill="#5F6368"/>
  <path d="M83.1797 20.5234C83.1797 19.0818 83.6327 17.8887 84.5387 16.9441C85.4574 15.9999 86.6122 15.5277 88.0031 15.5277C89.394 15.5277 90.5425 15.9999 91.4484 16.9441C92.3672 17.8887 92.8266 19.0818 92.8266 20.5234C92.8266 21.9781 92.3672 23.1712 91.4484 24.1027C90.5422 25.0473 89.3937 25.5194 88.0031 25.5191C86.6125 25.5189 85.4577 25.0464 84.5387 24.1016C83.6324 23.1576 83.1794 21.9645 83.1797 20.5223M84.9406 20.5223C84.9406 21.5306 85.2341 22.3473 85.8211 22.9723C86.4081 23.5973 87.1354 23.9098 88.0031 23.9098C88.8708 23.9098 89.5982 23.5973 90.1852 22.9723C90.7721 22.3473 91.0656 21.5306 91.0656 20.5223C91.0656 19.527 90.7721 18.7167 90.1852 18.0914C89.5862 17.4537 88.8589 17.1346 88.0031 17.1344C87.1474 17.1341 86.4198 17.4535 85.8203 18.0926C85.2331 18.7176 84.9396 19.5279 84.9398 20.5234" fill="#5F6368"/>
  <path d="M95.8371 25.2129H94.0762V15.834H95.7605V17.3652H95.8387C96.0173 16.8676 96.3842 16.4432 96.9394 16.0922C97.4947 15.7411 98.0401 15.5657 98.5758 15.566C99.0859 15.566 99.5198 15.6426 99.8773 15.7957L99.3398 17.5C99.1227 17.4109 98.7781 17.3663 98.3062 17.366C97.6427 17.366 97.0654 17.634 96.5742 18.1699C96.0831 18.7059 95.8374 19.3309 95.8371 20.0449V25.2129Z" fill="#5F6368"/>
  <path d="M108.941 25.2129H106.816L103.887 20.7914L102.452 22.2078V25.2129H100.691V11.5082H102.452V19.9492L106.51 15.834H108.768V15.9106L105.112 19.5473L108.941 25.1363V25.2129Z" fill="#5F6368"/>
  <path d="M116.56 22.6098C116.56 23.4267 116.203 24.1157 115.488 24.6769C114.774 25.2381 113.874 25.5189 112.789 25.5191C111.845 25.5191 111.016 25.2734 110.301 24.782C109.601 24.3094 109.066 23.6304 108.77 22.8394L110.339 22.1695C110.569 22.7312 110.904 23.1682 111.345 23.4805C111.764 23.7865 112.27 23.9507 112.79 23.9492C113.352 23.9492 113.82 23.828 114.196 23.5855C114.572 23.3431 114.76 23.056 114.761 22.7242C114.761 22.1252 114.301 21.685 113.382 21.4035L111.775 21.0016C109.95 20.5422 109.038 19.6614 109.038 18.3594C109.038 17.5047 109.386 16.8187 110.081 16.3016C110.777 15.7844 111.667 15.526 112.751 15.5266C113.581 15.5266 114.331 15.7243 115 16.1199C115.67 16.5155 116.139 17.045 116.407 17.7086L114.837 18.3594C114.658 17.9623 114.351 17.6359 113.967 17.4308C113.553 17.2048 113.088 17.0895 112.617 17.0961C112.181 17.0896 111.752 17.2092 111.383 17.4406C111.018 17.6703 110.836 17.951 110.836 18.2828C110.836 18.8187 111.34 19.2016 112.348 19.4312L113.764 19.7949C115.627 20.2543 116.559 21.1918 116.559 22.6074" fill="#5F6368"/>
  <path d="M122.675 25.5191C121.986 25.5191 121.358 25.3724 120.79 25.0789C120.223 24.7854 119.785 24.3962 119.479 23.9113H119.401L119.479 25.2129V29.3473H117.718V15.834H119.402V17.1356H119.48C119.787 16.6509 120.224 16.2617 120.792 15.968C121.36 15.6742 121.988 15.5275 122.677 15.5277C123.914 15.5277 124.961 16.0126 125.816 16.9824C126.696 17.9652 127.137 19.1456 127.137 20.5234C127.137 21.9146 126.696 23.0949 125.816 24.0645C124.961 25.0343 123.915 25.5191 122.677 25.5191M122.39 23.9113C123.232 23.9113 123.94 23.5923 124.514 22.9543C125.087 22.3293 125.374 21.519 125.374 20.5234C125.374 19.5412 125.087 18.7309 124.514 18.0926C123.942 17.4543 123.233 17.1353 122.39 17.1356C121.535 17.1356 120.82 17.4546 120.246 18.0926C119.684 18.7309 119.404 19.5412 119.404 20.5234C119.404 21.5188 119.685 22.3354 120.246 22.9734C120.819 23.5984 121.534 23.9109 122.39 23.9109" fill="#5F6368"/>
  <path d="M131.959 15.5277C133.261 15.5277 134.288 15.8754 135.04 16.5707C135.793 17.266 136.169 18.2199 136.17 19.4324V25.2137H134.485V23.9113H134.407C133.68 24.9832 132.71 25.5191 131.498 25.5191C130.464 25.5191 129.599 25.2129 128.904 24.6004C128.208 23.9879 127.861 23.2223 127.861 22.3035C127.861 21.334 128.228 20.562 128.961 19.9875C129.695 19.413 130.674 19.1259 131.9 19.1262C132.946 19.1262 133.807 19.3176 134.484 19.7004V19.2969C134.484 18.6844 134.241 18.1643 133.756 17.7367C133.289 17.3162 132.681 17.0873 132.053 17.0957C131.07 17.0957 130.292 17.5104 129.718 18.3398L128.167 17.3633C129.022 16.1393 130.285 15.5273 131.956 15.5273M129.681 22.3438C129.681 22.8031 129.875 23.1859 130.264 23.4922C130.654 23.7984 131.109 23.9516 131.632 23.9516C132.371 23.9516 133.032 23.6772 133.612 23.1285C134.193 22.5798 134.484 21.9354 134.484 21.1953C133.935 20.7617 133.169 20.5448 132.187 20.5445C131.472 20.5445 130.875 20.7168 130.397 21.0613C129.918 21.4059 129.68 21.8333 129.681 22.3438Z" fill="#5F6368"/>
  <path d="M142.139 25.5191C140.748 25.5191 139.593 25.047 138.675 24.1027C137.769 23.1332 137.316 21.9401 137.316 20.5234C137.316 19.0818 137.769 17.8887 138.675 16.9441C139.594 15.9999 140.749 15.5277 142.139 15.5277C143.096 15.5277 143.932 15.7669 144.647 16.2453C145.361 16.7237 145.897 17.3841 146.255 18.2266L144.648 18.8965C144.151 17.7225 143.277 17.1356 142.026 17.1356C141.222 17.1356 140.527 17.4611 139.94 18.1121C139.366 18.7632 139.079 19.5671 139.079 20.5238C139.079 21.4806 139.366 22.2845 139.94 22.9356C140.527 23.5866 141.222 23.9121 142.026 23.9121C143.315 23.9121 144.221 23.3251 144.744 22.1512L146.314 22.8211C145.969 23.6633 145.43 24.3236 144.696 24.802C143.962 25.2803 143.111 25.5197 142.141 25.5199" fill="#5F6368"/>
  <path d="M151.616 25.5191C150.237 25.5191 149.102 25.047 148.209 24.1027C147.315 23.1585 146.869 21.9654 146.869 20.5234C146.869 19.0945 147.303 17.9046 148.17 16.9535C149.038 16.0025 150.148 15.5272 151.501 15.5277C152.891 15.5277 153.998 15.9775 154.821 16.877C155.644 17.7764 156.055 19.0366 156.055 20.6574L156.036 20.8488H148.668C148.694 21.7676 149 22.5077 149.587 23.0691C150.173 23.6306 150.875 23.9113 151.692 23.9113C152.815 23.9113 153.695 23.3499 154.334 22.227L155.903 22.9926C155.503 23.7619 154.896 24.4048 154.152 24.8492C153.405 25.2956 152.56 25.5189 151.616 25.5191ZM148.803 19.3941H154.18C154.128 18.7431 153.863 18.2039 153.385 17.7766C152.908 17.3492 152.266 17.1356 151.462 17.1356C150.798 17.1356 150.227 17.3397 149.748 17.7481C149.27 18.1564 148.954 18.7051 148.801 19.3941" fill="#5F6368"/>
  <path d="M7.90625 19.2023V17.0828H15C15.0788 17.5115 15.1171 17.9466 15.1145 18.3824C15.1145 19.9715 14.6797 21.9395 13.2785 23.3395C11.9164 24.7586 10.1762 25.5156 7.86836 25.5156C3.59375 25.5156 0 22.034 0 17.7578C0 13.4816 3.59375 10 7.86914 10C10.2344 10 11.9172 10.9273 13.1848 12.1383L11.6902 13.6328C10.7812 12.7816 9.55273 12.1191 7.86914 12.1191C4.74805 12.1191 2.30781 14.6355 2.30781 17.7578C2.30781 20.8801 4.74805 23.3984 7.86914 23.3984C9.89336 23.3984 11.0473 22.5848 11.7848 21.8469C12.3859 21.2457 12.782 20.3832 12.9355 19.2043L7.90625 19.2023Z" fill="#4285F4"/>
  <path d="M25.9234 20.5203C25.9234 23.3984 23.6719 25.5156 20.9109 25.5156C18.15 25.5156 15.8984 23.3984 15.8984 20.5203C15.8984 17.6254 18.1496 15.525 20.9117 15.525C23.6738 15.525 25.9242 17.6254 25.9242 20.5203M23.7301 20.5203C23.7301 18.7234 22.425 17.493 20.9117 17.493C19.3984 17.493 18.093 18.7227 18.093 20.5203C18.093 22.2988 19.398 23.5477 20.9117 23.5477C22.4254 23.5477 23.7301 22.2977 23.7301 20.5203Z" fill="#EA4335"/>
  <path d="M36.859 20.5203C36.859 23.3984 34.6094 25.5156 31.8465 25.5156C29.0836 25.5156 26.8336 23.3984 26.8336 20.5203C26.8336 17.6254 29.0844 15.525 31.8465 15.525C34.6086 15.525 36.859 17.6254 36.859 20.5203ZM34.6648 20.5203C34.6648 18.7234 33.3598 17.493 31.8465 17.493C30.3332 17.493 29.0277 18.7227 29.0277 20.5203C29.0277 22.2988 30.3328 23.5477 31.8465 23.5477C33.3602 23.5477 34.6648 22.2977 34.6648 20.5203Z" fill="#FBBC04"/>
  <path d="M47.341 15.8277V24.7965C47.341 28.4863 45.1656 30 42.593 30C40.1711 30 38.7149 28.3727 38.1664 27.0484L40.0781 26.2535C40.4184 27.0672 41.25 28.032 42.5942 28.032C44.2399 28.032 45.2613 27.0101 45.2613 25.0992V24.3805H45.1856C44.6938 24.9859 43.7481 25.5156 42.5563 25.5156C40.059 25.5156 37.7703 23.3394 37.7703 20.5394C37.7703 17.7199 40.059 15.525 42.5563 15.525C43.7481 15.525 44.6938 16.0547 45.1856 16.6414H45.2613V15.8277H47.341ZM45.4113 20.5394C45.4113 18.7797 44.2395 17.4926 42.7442 17.4926C41.2309 17.4926 39.9633 18.7793 39.9633 20.5394C39.9633 22.2801 41.2309 23.5473 42.7442 23.5473C44.2387 23.5473 45.4113 22.2797 45.4113 20.5394Z" fill="#4285F4"/>
  <path d="M51.0574 10.5789H48.8633V25.2129H51.0574V10.5789Z" fill="#34A853"/>
  <path d="M59.5313 22.1664L61.2336 23.3016C60.6867 24.1152 59.3609 25.5156 57.0719 25.5156C54.2344 25.5156 52.1156 23.3207 52.1156 20.5203C52.1156 17.5516 54.2535 15.525 56.8258 15.525C59.4176 15.525 60.6848 17.5875 61.1012 18.7039L61.3281 19.2715L54.6484 22.034C55.1594 23.0367 55.9539 23.5477 57.0703 23.5477C58.1867 23.5477 58.9621 23.0008 59.5313 22.1664ZM54.291 20.3695L58.7555 18.5156C58.5094 17.8906 57.7719 17.4562 56.9016 17.4562C55.7856 17.4562 54.2344 18.4402 54.291 20.3703" fill="#EA4335"/>
</svg>