<svg width="92" height="84" viewBox="0 0 92 84" fill="none" xmlns="http://www.w3.org/2000/svg">
<path d="M24.0005 7H61.3257L69.0005 14.2832V66C69.0005 66.5523 68.5528 67 68.0005 67H24.0005C23.4482 67 23.0005 66.5523 23.0005 66V8C23.0005 7.44771 23.4482 7 24.0005 7Z" fill="#444444" stroke="#AAAAAA" stroke-width="2"/>
<path d="M41.0005 19C41.0005 20.1046 39.6573 21 38.0005 21C36.3436 21 35.0005 20.1046 35.0005 19" stroke="#AAAAAA" stroke-width="2" stroke-linecap="round"/>
<path d="M57.0005 19C57.0005 20.1046 55.6573 21 54.0005 21C52.3436 21 51.0005 20.1046 51.0005 19" stroke="#AAAAAA" stroke-width="2" stroke-linecap="round"/>
<path d="M49.0005 28C49.0005 29.1046 47.6573 30 46.0005 30C44.3436 30 43.0005 29.1046 43.0005 28" stroke="#AAAAAA" stroke-width="2" stroke-linecap="round"/>
<path d="M61.0005 7L69.0005 15H62.0005C61.4482 15 61.0005 14.5523 61.0005 14V7Z" fill="#AAAAAA"/>
<g filter="url(#filter0_d_413_7467)">
<path d="M42.3872 34.6586C43.9876 34.2298 45.6326 35.1796 46.0614 36.78L46.8378 39.6777L53.5993 37.866C54.6663 37.5801 55.7629 38.2133 56.0488 39.2802L57.6017 45.0758L60.4995 44.2993C62.0999 43.8705 63.7449 44.8202 64.1737 46.4206L65.7267 52.2162C66.1555 53.8166 65.2057 55.4616 63.6053 55.8904L60.7076 56.6669L62.7781 64.3943C63.064 65.4612 62.4308 66.5579 61.3639 66.8438L54.6024 68.6555L53.3083 63.8259C52.8795 62.2255 51.2345 61.2757 49.6341 61.7046L43.8385 63.2575C42.2381 63.6863 41.2884 65.3313 41.7172 66.9317L43.0113 71.7613L36.2498 73.5731C35.1829 73.859 34.0862 73.2258 33.8003 72.1589L31.7298 64.4315L34.6276 63.655C36.228 63.2262 37.1777 61.5812 36.7489 59.9808L35.196 54.1852C34.7671 52.5848 33.1221 51.6351 31.5217 52.0639L28.624 52.8403L27.071 47.0448C26.7852 45.9779 27.4183 44.8812 28.4853 44.5953L35.2467 42.7836L34.4703 39.8858C34.0415 38.2854 34.9912 36.6404 36.5916 36.2116L42.3872 34.6586Z" fill="#5EA3BE"/>
<path d="M42.3872 34.6586C43.9876 34.2298 45.6326 35.1796 46.0614 36.78L46.8378 39.6777L53.5993 37.866C54.6663 37.5801 55.7629 38.2133 56.0488 39.2802L57.6017 45.0758L60.4995 44.2993C62.0999 43.8705 63.7449 44.8202 64.1737 46.4206L65.7267 52.2162C66.1555 53.8166 65.2057 55.4616 63.6053 55.8904L60.7076 56.6669L62.7781 64.3943C63.064 65.4612 62.4308 66.5579 61.3639 66.8438L54.6024 68.6555L53.3083 63.8259C52.8795 62.2255 51.2345 61.2757 49.6341 61.7046L43.8385 63.2575C42.2381 63.6863 41.2884 65.3313 41.7172 66.9317L43.0113 71.7613L36.2498 73.5731C35.1829 73.859 34.0862 73.2258 33.8003 72.1589L31.7298 64.4315L34.6276 63.655C36.228 63.2262 37.1777 61.5812 36.7489 59.9808L35.196 54.1852C34.7671 52.5848 33.1221 51.6351 31.5217 52.0639L28.624 52.8403L27.071 47.0448C26.7852 45.9779 27.4183 44.8812 28.4853 44.5953L35.2467 42.7836L34.4703 39.8858C34.0415 38.2854 34.9912 36.6404 36.5916 36.2116L42.3872 34.6586Z" stroke="#5FC1E8" stroke-width="2"/>
</g>
<path d="M22.752 34.4624C12.707 41.8444 15.6659 46.6194 19.7385 46.8953C22.2994 47.0689 25.4306 46.1183 27.1047 45.7298" stroke="#AAAAAA" stroke-width="2" stroke-linecap="round"/>
<path d="M30.5436 45.5895C30.3833 46.0576 29.87 46.333 29.1149 46.507C28.105 46.7397 27.6784 46.252 27.106 45.7299" stroke="#AAAAAA" stroke-width="2" stroke-linecap="round"/>
<path d="M69.2617 34.4624C79.3066 41.8444 76.3478 46.6194 72.2752 46.8953C69.7142 47.0689 66.5831 46.1183 64.909 45.7298" stroke="#AAAAAA" stroke-width="2" stroke-linecap="round"/>
<path d="M61.4701 45.5895C61.6304 46.0576 62.1437 46.333 62.8987 46.507C63.9086 46.7397 64.3353 46.252 64.9077 45.7299" stroke="#AAAAAA" stroke-width="2" stroke-linecap="round"/>
<circle cx="10" cy="9" r="7" fill="#5FC1E8"/>
<rect x="9" y="5" width="2" height="8" rx="1" fill="white"/>
<rect x="6" y="10" width="2" height="8" rx="1" transform="rotate(-90 6 10)" fill="white"/>
<circle cx="82" cy="68" r="7" fill="#5FC1E8"/>
<rect x="81" y="64" width="2" height="8" rx="1" fill="white"/>
<rect x="78" y="69" width="2" height="8" rx="1" transform="rotate(-90 78 69)" fill="white"/>
<defs>
<filter id="filter0_d_413_7467" x="19.0022" y="28.5557" width="54.8276" height="55.0864" filterUnits="userSpaceOnUse" color-interpolation-filters="sRGB">
<feFlood flood-opacity="0" result="BackgroundImageFix"/>
<feColorMatrix in="SourceAlpha" type="matrix" values="0 0 0 0 0 0 0 0 0 0 0 0 0 0 0 0 0 0 127 0" result="hardAlpha"/>
<feOffset dy="2"/>
<feGaussianBlur stdDeviation="3.5"/>
<feComposite in2="hardAlpha" operator="out"/>
<feColorMatrix type="matrix" values="0 0 0 0 0 0 0 0 0 0 0 0 0 0 0 0 0 0 0.12 0"/>
<feBlend mode="normal" in2="BackgroundImageFix" result="effect1_dropShadow_413_7467"/>
<feBlend mode="normal" in="SourceGraphic" in2="effect1_dropShadow_413_7467" result="shape"/>
</filter>
</defs>
</svg>
