<svg width="16" height="16" viewBox="0 0 16 16" fill="none" xmlns="http://www.w3.org/2000/svg">
<g clip-path="url(#clip0_207_2025)">
<mask id="path-1-inside-1_207_2025" fill="white">
<path d="M8 -0.000244141C11.3136 -0.000244141 13.9998 2.68619 14 5.99976C14 7.24639 13.4334 8.40395 12.6205 9.36325C12.2489 9.80171 12 10.3413 12 10.916C12 12.0668 11.0671 12.9998 9.91624 12.9998H6.08376C4.93293 12.9998 4 12.0668 4 10.916C4 10.3413 3.75107 9.80171 3.37951 9.36325C2.56657 8.40395 2 7.24639 2 5.99976C2.00016 2.68619 4.68639 -0.000244141 8 -0.000244141Z"/>
</mask>
<path d="M14 5.99976H16V5.99966L14 5.99976ZM2 5.99976L0 5.99966V5.99976H2ZM3.37951 9.36325L1.8537 10.6563L3.37951 9.36325ZM12.6205 9.36325L11.0947 8.07023L12.6205 9.36325ZM8 -0.000244141V1.99976C10.2089 1.99976 11.9999 3.79068 12 5.99986L14 5.99976L16 5.99966C15.9998 1.5817 12.4183 -2.00024 8 -2.00024V-0.000244141ZM14 5.99976H12C12 6.62847 11.7099 7.34421 11.0947 8.07023L12.6205 9.36325L14.1463 10.6563C15.1569 9.46369 16 7.86431 16 5.99976H14ZM9.91624 12.9998V10.9998H6.08376V12.9998V14.9998H9.91624V12.9998ZM3.37951 9.36325L4.90532 8.07023C4.29007 7.34421 4 6.62847 4 5.99976H2H0C0 7.86431 0.843066 9.46369 1.8537 10.6563L3.37951 9.36325ZM2 5.99976L4 5.99986C4.00011 3.79068 5.79106 1.99976 8 1.99976V-0.000244141V-2.00024C3.58172 -2.00024 0.000219941 1.5817 0 5.99966L2 5.99976ZM4 10.916H6C6 9.75449 5.50087 8.773 4.90532 8.07023L3.37951 9.36325L1.8537 10.6563C1.92238 10.7373 1.96196 10.8073 1.98219 10.856C2.00141 10.9022 2 10.9207 2 10.916H4ZM6.08376 12.9998V10.9998C6.0375 10.9998 6 10.9623 6 10.916H4H2C2 13.1714 3.82836 14.9998 6.08376 14.9998V12.9998ZM12 10.916H10C10 10.9623 9.9625 10.9998 9.91624 10.9998V12.9998V14.9998C12.1716 14.9998 14 13.1714 14 10.916H12ZM12.6205 9.36325L11.0947 8.07023C10.4991 8.773 10 9.75449 10 10.916H12H14C14 10.9207 13.9986 10.9022 14.0178 10.856C14.038 10.8073 14.0776 10.7373 14.1463 10.6563L12.6205 9.36325Z" fill="#333333" mask="url(#path-1-inside-1_207_2025)"/>
<rect x="6" y="14" width="4" height="2" rx="1" fill="#333333"/>
<rect x="7" y="8" width="2" height="3" fill="#333333"/>
<path d="M6.5 6.5L8 8L9.5 6.5" stroke="#333333" stroke-width="2" stroke-linecap="round"/>
</g>
<defs>
<clipPath id="clip0_207_2025">
<rect width="16" height="16" fill="white"/>
</clipPath>
</defs>
</svg>
