<svg width="16" height="16" viewBox="0 0 16 16" fill="none" xmlns="http://www.w3.org/2000/svg">
<path d="M3.29161 8.29084C3.35982 8.64692 3.4449 8.99697 3.55132 9.31623C3.75317 9.92178 4.14601 10.3844 4.6771 10.6278C5.18859 10.8623 5.73524 10.8507 6.19123 10.6987C6.64256 10.5482 7.07413 10.2374 7.33699 9.77739C7.61595 9.28921 7.66898 8.68902 7.41915 8.10608C6.78953 6.63698 6.88202 5.03002 7.37839 3.65122C7.60976 3.00852 7.9148 2.45209 8.24405 2.0037C8.40619 2.60299 8.64385 3.12067 8.94095 3.58119C9.47219 4.4046 10.1678 4.99418 10.7477 5.48566C10.783 5.51561 10.8179 5.54519 10.8524 5.57444C11.4796 6.10764 11.9845 6.56006 12.359 7.19042C12.7212 7.80008 13 8.64846 13 10C13 12.7614 10.7614 15 8 15C5.23858 15 3 12.7614 3 10C3 9.40715 3.11554 8.8279 3.29161 8.29084Z" stroke="#657077" stroke-width="2"/>
</svg>
