<svg width="16" height="16" viewBox="0 0 16 16" fill="none" xmlns="http://www.w3.org/2000/svg">
<path fill-rule="evenodd" clip-rule="evenodd" d="M7.02215 15.2038L0.421696 12.1631C-0.140565 11.8977 -0.140565 11.4874 0.421696 11.2461L2.71963 10.1843L6.99771 12.1631C7.55997 12.4286 8.46448 12.4286 9.00229 12.1631L13.2804 10.1843L15.5783 11.2461C16.1406 11.5116 16.1406 11.9218 15.5783 12.1631L8.97785 15.2038C8.46448 15.4451 7.55997 15.4451 7.02215 15.2038Z" fill="white"/>
<path fill-rule="evenodd" clip-rule="evenodd" d="M7.00076 11.441L0.420411 8.39689C-0.140137 8.13114 -0.140137 7.72042 0.420411 7.47882L2.6626 6.43994L7.00076 8.44521C7.56131 8.71097 8.46306 8.71097 8.99924 8.44521L13.3374 6.43994L15.5796 7.47882C16.1401 7.74458 16.1401 8.1553 15.5796 8.39689L8.99924 11.441C8.43869 11.7068 7.53694 11.7068 7.00076 11.441Z" fill="white"/>
<path fill-rule="evenodd" clip-rule="evenodd" d="M7.00076 7.71748L0.420411 4.71714C-0.140137 4.45521 -0.140137 4.0504 0.420411 3.81227L7.00076 0.81193C7.56131 0.549995 8.46306 0.549995 8.99924 0.81193L15.5796 3.81227C16.1401 4.07421 16.1401 4.47902 15.5796 4.71714L8.99924 7.71748C8.43869 7.95561 7.53694 7.95561 7.00076 7.71748Z" fill="white"/>
</svg>
