<svg width="12" height="12" viewBox="0 0 12 12" fill="none" xmlns="http://www.w3.org/2000/svg">
<g clip-path="url(#clip0_276_40551)">
<path fill-rule="evenodd" clip-rule="evenodd" d="M10.8327 1.17715C9.27131 -0.384161 6.73687 -0.38734 5.17399 1.17545L4.59015 1.75925C4.19961 2.14976 4.19961 2.7829 4.59015 3.17341C4.98069 3.56393 5.61387 3.56393 6.00441 3.17341L6.58824 2.58962C7.36858 1.80933 8.63665 1.80955 9.41846 2.59132C10.2003 3.37308 10.2005 4.64107 9.42016 5.42136L8.83633 6.00516C8.44579 6.39567 8.44579 7.02881 8.83633 7.41932C9.22686 7.80984 9.86005 7.80984 10.2506 7.41932L10.8344 6.83553C12.3973 5.27274 12.3941 2.73846 10.8327 1.17715ZM1.17832 10.8311C-0.383087 9.26975 -0.386266 6.73547 1.17662 5.17269L1.75942 4.58992C2.14995 4.19941 2.78314 4.19941 3.17367 4.58992C3.56421 4.98044 3.56421 5.61358 3.17367 6.00409L2.59088 6.58685C1.81054 7.36714 1.81077 8.63513 2.59258 9.41689C3.37439 10.1987 4.64246 10.1989 5.4228 9.4186L6.00559 8.83584C6.39613 8.44532 7.02931 8.44532 7.41985 8.83584C7.81039 9.22635 7.81039 9.85949 7.41985 10.25L6.83705 10.8328C5.27417 12.3956 2.73973 12.3924 1.17832 10.8311ZM4.33491 6.25925C3.94406 6.65008 3.94406 7.28373 4.33491 7.67456C4.72576 8.06538 5.35945 8.06538 5.7503 7.67456L7.67504 5.74994C8.06589 5.35912 8.06589 4.72547 7.67504 4.33464C7.28419 3.94381 6.65049 3.94381 6.25964 4.33464L4.33491 6.25925Z" fill="#A3A9AE"/>
</g>
<defs>
<clipPath id="clip0_276_40551">
<rect width="12" height="12" fill="white"/>
</clipPath>
</defs>
</svg>
