<svg width="12" height="12" viewBox="0 0 12 12" fill="none" xmlns="http://www.w3.org/2000/svg">
<g clip-path="url(#clip0_3016_207286)">
<path fill-rule="evenodd" clip-rule="evenodd" d="M10.8243 1.17572C9.26219 -0.386374 6.72953 -0.386374 5.16743 1.17572L4.58578 1.75737C4.19526 2.1479 4.19526 2.78106 4.58578 3.17159C4.9763 3.56211 5.60947 3.56211 5.99999 3.17159L6.58164 2.58994C7.36269 1.80889 8.62902 1.80889 9.41007 2.58994C10.1911 3.37099 10.1911 4.63732 9.41007 5.41836L8.82842 6.00001C8.4379 6.39054 8.4379 7.0237 8.82842 7.41423C9.21894 7.80475 9.85211 7.80475 10.2426 7.41423L10.8243 6.83258C12.3864 5.27048 12.3864 2.73782 10.8243 1.17572ZM1.17679 10.8233C-0.385306 9.26121 -0.385305 6.72855 1.17679 5.16645L1.7574 4.58584C2.14793 4.19532 2.78109 4.19532 3.17162 4.58584C3.56214 4.97637 3.56214 5.60953 3.17162 6.00005L2.591 6.58067C1.80996 7.36171 1.80996 8.62804 2.591 9.40909C3.37205 10.1901 4.63838 10.1901 5.41943 9.40909L6.00004 8.82848C6.39057 8.43796 7.02373 8.43796 7.41426 8.82848C7.80478 9.21901 7.80478 9.85217 7.41426 10.2427L6.83365 10.8233C5.27155 12.3854 2.73889 12.3854 1.17679 10.8233ZM4.33132 6.25445C3.94079 6.64497 3.94079 7.27814 4.33132 7.66866C4.72184 8.05919 5.35501 8.05918 5.74553 7.66866L7.66866 5.74553C8.05919 5.35501 8.05919 4.72184 7.66866 4.33132C7.27814 3.94079 6.64497 3.94079 6.25445 4.33132L4.33132 6.25445Z" fill="#A3A9AE"/>
</g>
<defs>
<clipPath id="clip0_3016_207286">
<rect width="12" height="12" fill="white"/>
</clipPath>
</defs>
</svg>
