<svg width="16" height="16" viewBox="0 0 16 16" fill="none" xmlns="http://www.w3.org/2000/svg">
<path fill-rule="evenodd" clip-rule="evenodd" d="M4 4C4 1.79086 5.79086 0 8 0C10.2091 0 12 1.79086 12 4V6H13C14.1046 6 15 6.89543 15 8V14C15 15.1046 14.1046 16 13 16H3C1.89543 16 1 15.1046 1 14V8C1 6.89543 1.89543 6 3 6H4V4ZM10 4V6H6V4C6 2.89543 6.89543 2 8 2C9.10457 2 10 2.89543 10 4ZM3 8V14H13V8H3ZM8 13C9.10457 13 10 12.1046 10 11C10 9.89543 9.10457 9 8 9C6.89543 9 6 9.89543 6 11C6 12.1046 6.89543 13 8 13Z" fill="#333333"/>
</svg>
