<svg width="76" height="75" viewBox="0 0 76 75" fill="none" xmlns="http://www.w3.org/2000/svg">
<g clip-path="url(#clip0_62_21257)">
<path d="M13.5 41.4999H14V40.9999V23V22.5H13.5H9C7.49124 22.5 6.23971 23.1788 5.37257 24.1026C4.51352 25.0178 4 26.2073 4 27.2864V40.9999V41.4999H4.5H13.5Z" fill="#D9F4FF" stroke="#333333"/>
<path d="M61.5 22.5H61V23V35V35.5H61.5H70.5H71V35V26.9072C71 24.1762 68.7259 22.5 66.5 22.5H61.5Z" fill="#D9F4FF" stroke="#333333"/>
<path d="M56.5 1.5H57V2V42V42.5H56.5H8.5H8V42V11.3342V11.1253L8.14858 10.9785L17.5957 1.64433L17.7418 1.5H17.9472H56.5Z" fill="white" stroke="#333333"/>
<path d="M17.1464 1.64645C17.2894 1.50345 17.5045 1.46067 17.6913 1.53806C17.8782 1.61545 18 1.79777 18 2V11C18 11.2761 17.7761 11.5 17.5 11.5H8.5C8.29777 11.5 8.11545 11.3782 8.03806 11.1913C7.96067 11.0045 8.00345 10.7894 8.14645 10.6464L17.1464 1.64645Z" fill="url(#paint0_linear_62_21257)" stroke="#333333" stroke-linejoin="round"/>
<path d="M65.5 9.5H66V10V50.5V51H65.5H17.5H17V50.5V19.4176C17 19.0199 17.158 18.6385 17.4391 18.3572L25.8535 9.93955C26.1348 9.65812 26.5164 9.5 26.9143 9.5H65.5Z" fill="white" stroke="#333333"/>
<path d="M26.1464 9.64645C26.2894 9.50345 26.5045 9.46067 26.6913 9.53806C26.8782 9.61545 27 9.79777 27 10V19C27 19.2761 26.7761 19.5 26.5 19.5H17.5C17.2978 19.5 17.1155 19.3782 17.0381 19.1913C16.9607 19.0045 17.0034 18.7894 17.1464 18.6464L26.1464 9.64645Z" fill="#D9F4FF" stroke="#333333" stroke-linejoin="round"/>
<path fill-rule="evenodd" clip-rule="evenodd" d="M35.9317 35.8043L31.5002 40.55L5.50015 40.5C3.34251 40.5 1.28454 42.8453 1.52046 44.4334L5.72598 70.2425C5.96681 71.8306 7.65017 73.5 9.80781 73.5H67.5719C69.7296 73.5 70.9124 72.0862 71.0353 70.4931L74.9757 36.8946C75.1723 35.8939 74.1697 34.5 72.4053 34.5H39.0035C37.8288 34.5 36.7721 34.948 35.9317 35.8043Z" fill="url(#paint1_linear_62_21257)" stroke="#333333"/>
</g>
<path d="M66.2307 51.3568V51.8568H66.7307H68.3388C68.6974 51.8568 69.0464 51.8998 69.3757 51.9843L70 52.1445V51.5V48.0438C70 43.9209 66.8075 40.5 62.8449 40.5H58.1551C54.1925 40.5 51 43.9209 51 48.0438V51.5V52.1429L51.6231 51.9846C51.9576 51.8997 52.3032 51.8568 52.6612 51.8568H54.2692H54.7692V51.3568V48.6205C54.7692 46.2482 56.3374 44.5002 58.4592 44.5002H62.5026C64.6301 44.5002 66.2307 46.2545 66.2307 48.6205V51.3568Z" fill="#EFEFEF" stroke="#333333"/>
<path d="M51.397 50.5H69.603C72.5866 50.5 75 52.8553 75 55.6947V69.3053C75 72.1447 72.5866 74.5 69.603 74.5H51.397C48.4134 74.5 46 72.1447 46 69.3053V55.6904C46 52.8515 48.4129 50.5 51.397 50.5Z" fill="#D9F4FF" stroke="#333333"/>
<path d="M62.9518 67.5H63.5734L63.4402 66.8928L62.4053 62.1775C63.0636 61.7084 63.5 60.9585 63.5 60.1002V60.1002V60.1002V60.1001V60.1001V60.1V60.1V60.0999V60.0999V60.0999V60.0998V60.0998V60.0997V60.0997V60.0997V60.0996V60.0996V60.0995V60.0995V60.0995V60.0994V60.0994V60.0993V60.0993V60.0993V60.0992V60.0992V60.0991V60.0991V60.0991V60.099V60.099V60.0989V60.0989V60.0989V60.0988V60.0988V60.0987V60.0987V60.0987V60.0986V60.0986V60.0985V60.0985V60.0985V60.0984V60.0984V60.0983V60.0983V60.0983V60.0982V60.0982V60.0981V60.0981V60.0981V60.098V60.098V60.0979V60.0979V60.0979V60.0978V60.0978V60.0978V60.0977V60.0977V60.0976V60.0976V60.0976V60.0975V60.0975V60.0974V60.0974V60.0974V60.0973V60.0973V60.0973V60.0972V60.0972V60.0971V60.0971V60.0971V60.097V60.097V60.0969V60.0969V60.0969V60.0968V60.0968V60.0968V60.0967V60.0967V60.0966V60.0966V60.0966V60.0965V60.0965V60.0965V60.0964V60.0964V60.0963V60.0963V60.0963V60.0962V60.0962V60.0962V60.0961V60.0961V60.0961V60.096V60.096V60.0959V60.0959V60.0959V60.0958V60.0958V60.0958V60.0957V60.0957V60.0956V60.0956V60.0956V60.0955V60.0955V60.0955V60.0954V60.0954V60.0954V60.0953V60.0953V60.0952V60.0952V60.0952V60.0951V60.0951V60.0951V60.095V60.095V60.095V60.0949V60.0949V60.0948V60.0948V60.0948V60.0947V60.0947V60.0947V60.0946V60.0946V60.0946V60.0945V60.0945V60.0944V60.0944V60.0944V60.0943V60.0943V60.0943V60.0942V60.0942V60.0942V60.0941V60.0941V60.0941V60.094V60.094V60.0939V60.0939V60.0939V60.0938V60.0938V60.0938V60.0937V60.0937V60.0937V60.0936V60.0936V60.0936V60.0935V60.0935V60.0935V60.0934V60.0934V60.0933V60.0933V60.0933V60.0932V60.0932V60.0932V60.0931V60.0931V60.0931V60.093V60.093V60.093V60.0929V60.0929V60.0929V60.0928V60.0928V60.0927V60.0927V60.0927V60.0926V60.0926V60.0926V60.0925V60.0925V60.0925V60.0924V60.0924V60.0924V60.0923V60.0923V60.0923V60.0922V60.0922V60.0922V60.0921V60.0921V60.0921V60.092V60.092V60.0919V60.0919V60.0919V60.0918V60.0918V60.0918V60.0917V60.0917V60.0917V60.0916V60.0916V60.0916V60.0915V60.0915V60.0915V60.0914V60.0914V60.0914V60.0913V60.0913V60.0913V60.0912V60.0912V60.0911V60.0911V60.0911V60.091V60.091V60.091V60.0909V60.0909V60.0909V60.0908V60.0908V60.0908V60.0907V60.0907V60.0907V60.0906V60.0906V60.0906V60.0905V60.0905V60.0905V60.0904V60.0904V60.0903V60.0903V60.0903V60.0902V60.0902V60.0902V60.0901V60.0901V60.0901V60.09V60.09V60.09V60.0899V60.0899V60.0899V60.0898V60.0898V60.0898V60.0897V60.0897V60.0897V60.0896V60.0896V60.0896V60.0895V60.0895V60.0894V60.0894V60.0894V60.0893V60.0893V60.0893V60.0892V60.0892V60.0892V60.0891V60.0891V60.0891V60.089V60.089V60.089V60.0889V60.0889V60.0889V60.0888V60.0888V60.0887V60.0887V60.0887V60.0886V60.0886V60.0886V60.0885V60.0885V60.0885V60.0884V60.0884V60.0884V60.0883V60.0883V60.0883V60.0882V60.0882V60.0881V60.0881V60.0881V60.088V60.088V60.088V60.0879V60.0879V60.0879V60.0878V60.0878V60.0878V60.0877V60.0877V60.0877V60.0876V60.0876V60.0875V60.0875V60.0875V60.0874V60.0874V60.0874V60.0873V60.0873V60.0873V60.0872V60.0872V60.0872V60.0871V60.0871V60.087V60.087V60.087V60.0869V60.0869V60.0869V60.0868V60.0868V60.0868V60.0867V60.0867V60.0867V60.0866V60.0866V60.0865V60.0865V60.0865V60.0864V60.0864V60.0864V60.0863V60.0863V60.0863V60.0862V60.0862V60.0861V60.0861V60.0861V60.086V60.086V60.086V60.0859V60.0859V60.0858V60.0858V60.0858V60.0857V60.0857V60.0857V60.0856V60.0856V60.0856V60.0855V60.0855V60.0854V60.0854V60.0854V60.0853V60.0853V60.0853V60.0852V60.0852V60.0851V60.0851V60.0851V60.085V60.085V60.085V60.0849V60.0849V60.0848V60.0848V60.0848V60.0847V60.0847V60.0847V60.0846V60.0846V60.0845V60.0845V60.0845V60.0844V60.0844V60.0844V60.0843V60.0843V60.0842V60.0842V60.0842V60.0841V60.0841V60.084V60.084V60.084V60.0839V60.0839V60.0839V60.0838V60.0838V60.0837V60.0837V60.0837V60.0836V60.0836V60.0835V60.0835V60.0835V60.0834V60.0834V60.0834V60.0833V60.0833V60.0832V60.0832V60.0832V60.0831V60.0831V60.083V60.083V60.083V60.0829V60.0829V60.0828V60.0828V60.0828V60.0827V60.0827V60.0826V60.0826V60.0826V60.0825V60.0825V60.0824V60.0824V60.0824V60.0823V60.0823V60.0822V60.0822V60.0822V60.0821V60.0821V60.082V60.082V60.082V60.0819V60.0819V60.0818V60.0818V60.0817V60.0817V60.0817V60.0816V60.0816V60.0815V60.0815V60.0815V60.0814V60.0814V60.0813V60.0813H63.5L63.5 60.0769C63.4871 58.6201 62.227 57.5 60.75 57.5C59.273 57.5 58.0129 58.6201 58 60.0769H58V60.0813V60.0813V60.0814V60.0814V60.0815V60.0815V60.0815V60.0816V60.0816V60.0817V60.0817V60.0817V60.0818V60.0818V60.0819V60.0819V60.082V60.082V60.082V60.0821V60.0821V60.0822V60.0822V60.0822V60.0823V60.0823V60.0824V60.0824V60.0824V60.0825V60.0825V60.0826V60.0826V60.0826V60.0827V60.0827V60.0828V60.0828V60.0828V60.0829V60.0829V60.083V60.083V60.083V60.0831V60.0831V60.0832V60.0832V60.0832V60.0833V60.0833V60.0834V60.0834V60.0834V60.0835V60.0835V60.0835V60.0836V60.0836V60.0837V60.0837V60.0837V60.0838V60.0838V60.0839V60.0839V60.0839V60.084V60.084V60.084V60.0841V60.0841V60.0842V60.0842V60.0842V60.0843V60.0843V60.0844V60.0844V60.0844V60.0845V60.0845V60.0845V60.0846V60.0846V60.0847V60.0847V60.0847V60.0848V60.0848V60.0848V60.0849V60.0849V60.085V60.085V60.085V60.0851V60.0851V60.0851V60.0852V60.0852V60.0853V60.0853V60.0853V60.0854V60.0854V60.0854V60.0855V60.0855V60.0856V60.0856V60.0856V60.0857V60.0857V60.0857V60.0858V60.0858V60.0858V60.0859V60.0859V60.086V60.086V60.086V60.0861V60.0861V60.0861V60.0862V60.0862V60.0863V60.0863V60.0863V60.0864V60.0864V60.0864V60.0865V60.0865V60.0865V60.0866V60.0866V60.0867V60.0867V60.0867V60.0868V60.0868V60.0868V60.0869V60.0869V60.0869V60.087V60.087V60.087V60.0871V60.0871V60.0872V60.0872V60.0872V60.0873V60.0873V60.0873V60.0874V60.0874V60.0874V60.0875V60.0875V60.0875V60.0876V60.0876V60.0877V60.0877V60.0877V60.0878V60.0878V60.0878V60.0879V60.0879V60.0879V60.088V60.088V60.088V60.0881V60.0881V60.0881V60.0882V60.0882V60.0883V60.0883V60.0883V60.0884V60.0884V60.0884V60.0885V60.0885V60.0885V60.0886V60.0886V60.0886V60.0887V60.0887V60.0887V60.0888V60.0888V60.0889V60.0889V60.0889V60.089V60.089V60.089V60.0891V60.0891V60.0891V60.0892V60.0892V60.0892V60.0893V60.0893V60.0893V60.0894V60.0894V60.0894V60.0895V60.0895V60.0896V60.0896V60.0896V60.0897V60.0897V60.0897V60.0898V60.0898V60.0898V60.0899V60.0899V60.0899V60.09V60.09V60.09V60.0901V60.0901V60.0901V60.0902V60.0902V60.0902V60.0903V60.0903V60.0903V60.0904V60.0904V60.0905V60.0905V60.0905V60.0906V60.0906V60.0906V60.0907V60.0907V60.0907V60.0908V60.0908V60.0908V60.0909V60.0909V60.0909V60.091V60.091V60.091V60.0911V60.0911V60.0911V60.0912V60.0912V60.0913V60.0913V60.0913V60.0914V60.0914V60.0914V60.0915V60.0915V60.0915V60.0916V60.0916V60.0916V60.0917V60.0917V60.0917V60.0918V60.0918V60.0918V60.0919V60.0919V60.0919V60.092V60.092V60.0921V60.0921V60.0921V60.0922V60.0922V60.0922V60.0923V60.0923V60.0923V60.0924V60.0924V60.0924V60.0925V60.0925V60.0925V60.0926V60.0926V60.0926V60.0927V60.0927V60.0927V60.0928V60.0928V60.0929V60.0929V60.0929V60.093V60.093V60.093V60.0931V60.0931V60.0931V60.0932V60.0932V60.0932V60.0933V60.0933V60.0933V60.0934V60.0934V60.0935V60.0935V60.0935V60.0936V60.0936V60.0936V60.0937V60.0937V60.0937V60.0938V60.0938V60.0938V60.0939V60.0939V60.0939V60.094V60.094V60.0941V60.0941V60.0941V60.0942V60.0942V60.0942V60.0943V60.0943V60.0943V60.0944V60.0944V60.0944V60.0945V60.0945V60.0946V60.0946V60.0946V60.0947V60.0947V60.0947V60.0948V60.0948V60.0948V60.0949V60.0949V60.095V60.095V60.095V60.0951V60.0951V60.0951V60.0952V60.0952V60.0952V60.0953V60.0953V60.0954V60.0954V60.0954V60.0955V60.0955V60.0955V60.0956V60.0956V60.0956V60.0957V60.0957V60.0958V60.0958V60.0958V60.0959V60.0959V60.0959V60.096V60.096V60.0961V60.0961V60.0961V60.0962V60.0962V60.0962V60.0963V60.0963V60.0963V60.0964V60.0964V60.0965V60.0965V60.0965V60.0966V60.0966V60.0966V60.0967V60.0967V60.0968V60.0968V60.0968V60.0969V60.0969V60.0969V60.097V60.097V60.0971V60.0971V60.0971V60.0972V60.0972V60.0973V60.0973V60.0973V60.0974V60.0974V60.0974V60.0975V60.0975V60.0976V60.0976V60.0976V60.0977V60.0977V60.0978V60.0978V60.0978V60.0979V60.0979V60.0979V60.098V60.098V60.0981V60.0981V60.0981V60.0982V60.0982V60.0983V60.0983V60.0983V60.0984V60.0984V60.0985V60.0985V60.0985V60.0986V60.0986V60.0987V60.0987V60.0987V60.0988V60.0988V60.0989V60.0989V60.0989V60.099V60.099V60.0991V60.0991V60.0991V60.0992V60.0992V60.0993V60.0993V60.0993V60.0994V60.0994V60.0995V60.0995V60.0995V60.0996V60.0996V60.0997V60.0997V60.0997V60.0998V60.0998V60.0999V60.0999V60.0999V60.1V60.1V60.1001V60.1001V60.1002V60.1002V60.1002C58 60.959 58.4386 61.7083 59.0948 62.177L58.0598 66.8928L57.9266 67.5H58.5482H60.7475H62.9518Z" fill="white" stroke="#333333"/>
<path d="M1 44C1 42.067 2.567 40.5 4.5 40.5H39.5C41.433 40.5 43 42.067 43 44V49C43 50.933 41.433 52.5 39.5 52.5H4.5C2.567 52.5 1 50.933 1 49V44Z" fill="white" stroke="#333333"/>
<path fill-rule="evenodd" clip-rule="evenodd" d="M8.5 46.5C8.5 45.6696 7.83036 45 7 45C6.16964 45 5.5 45.675 5.5 46.5C5.5 47.3304 6.16964 48 7 48C7.83036 48 8.5 47.3304 8.5 46.5ZM14.5 46.5C14.5 45.6696 13.8304 45 13 45C12.1696 45 11.5 45.675 11.5 46.5C11.5 47.3304 12.1696 48 13 48C13.8304 48 14.5 47.3304 14.5 46.5ZM19 45C19.8304 45 20.5 45.6696 20.5 46.5C20.5 47.3304 19.8304 48 19 48C18.1696 48 17.5 47.3304 17.5 46.5C17.5 45.675 18.175 45 19 45ZM26.5 46.5C26.5 45.6696 25.8304 45 25 45C24.175 45 23.5054 45.675 23.5 46.5C23.5 47.3304 24.1696 48 25 48C25.8304 48 26.5 47.3304 26.5 46.5ZM31 45C31.8304 45 32.5 45.6696 32.5 46.5C32.5 47.3304 31.8304 48 31 48C30.1696 48 29.5 47.3304 29.5 46.5C29.5 45.675 30.1696 45 31 45ZM38.5 46.5C38.5 45.6696 37.8304 45 37 45C36.1696 45 35.5 45.675 35.5 46.5C35.5 47.3304 36.1696 48 37 48C37.8304 48 38.5 47.3304 38.5 46.5Z" fill="#333333"/>
<defs>
<linearGradient id="paint0_linear_62_21257" x1="19.439" y1="1.51835" x2="14.3577" y2="9.73585" gradientUnits="userSpaceOnUse">
<stop stop-color="#FFC671"/>
<stop offset="1" stop-color="#FF6F3D"/>
</linearGradient>
<linearGradient id="paint1_linear_62_21257" x1="19.9313" y1="21.6207" x2="46.9459" y2="62.7768" gradientUnits="userSpaceOnUse">
<stop stop-color="#FFC671"/>
<stop offset="1" stop-color="#FF6F3D"/>
</linearGradient>
<clipPath id="clip0_62_21257">
<rect width="75" height="75" fill="white" transform="translate(0.5)"/>
</clipPath>
</defs>
</svg>
