<svg width="75" height="75" viewBox="0 0 75 75" fill="none" xmlns="http://www.w3.org/2000/svg">
<path d="M13 41.4999H13.5V40.9999V23V22.5H13H8.5C6.99124 22.5 5.73971 23.1788 4.87257 24.1026C4.01352 25.0178 3.5 26.2073 3.5 27.2864V40.9999V41.4999H4H13Z" fill="#ADADAD" stroke="#333333"/>
<path d="M61 22.5H60.5V23V35V35.5H61H70H70.5V35V26.9072C70.5 24.1762 68.2259 22.5 66 22.5H61Z" fill="#ADADAD" stroke="#333333"/>
<path d="M56 1.5H56.5V2V42V42.5H56H8H7.5V42V11.3342V11.1253L7.64858 10.9785L17.0957 1.64433L17.2418 1.5H17.4472H56Z" fill="#333333"/>
<path d="M56 1.5H56.5V2V42V42.5H56H8H7.5V42V11.3342V11.1253L7.64858 10.9785L17.0957 1.64433L17.2418 1.5H17.4472H56Z" fill="white" fill-opacity="0.88"/>
<path d="M56 1.5H56.5V2V42V42.5H56H8H7.5V42V11.3342V11.1253L7.64858 10.9785L17.0957 1.64433L17.2418 1.5H17.4472H56Z" stroke="#333333"/>
<path d="M16.6464 1.64645C16.7894 1.50345 17.0045 1.46067 17.1913 1.53806C17.3782 1.61545 17.5 1.79777 17.5 2V11C17.5 11.2761 17.2761 11.5 17 11.5H8C7.79777 11.5 7.61545 11.3782 7.53806 11.1913C7.46067 11.0045 7.50345 10.7894 7.64645 10.6464L16.6464 1.64645Z" fill="#E07751" stroke="#333333" stroke-linejoin="round"/>
<path d="M65 9.5H65.5V10V50.5V51H65H17H16.5V50.5V19.4176C16.5 19.0199 16.658 18.6385 16.9391 18.3572L25.3535 9.93955C25.6348 9.65812 26.0164 9.5 26.4143 9.5H65Z" fill="#333333"/>
<path d="M65 9.5H65.5V10V50.5V51H65H17H16.5V50.5V19.4176C16.5 19.0199 16.658 18.6385 16.9391 18.3572L25.3535 9.93955C25.6348 9.65812 26.0164 9.5 26.4143 9.5H65Z" fill="white" fill-opacity="0.88"/>
<path d="M65 9.5H65.5V10V50.5V51H65H17H16.5V50.5V19.4176C16.5 19.0199 16.658 18.6385 16.9391 18.3572L25.3535 9.93955C25.6348 9.65812 26.0164 9.5 26.4143 9.5H65Z" stroke="#333333"/>
<path d="M25.6464 9.64645C25.7894 9.50345 26.0045 9.46067 26.1913 9.53806C26.3782 9.61545 26.5 9.79777 26.5 10V19C26.5 19.2761 26.2761 19.5 26 19.5H17C16.7978 19.5 16.6155 19.3782 16.5381 19.1913C16.4607 19.0045 16.5034 18.7894 16.6464 18.6464L25.6464 9.64645Z" fill="#ADADAD" stroke="#333333" stroke-linejoin="round"/>
<path fill-rule="evenodd" clip-rule="evenodd" d="M35.4317 35.8043L31.0002 40.55L5.00015 40.5C2.84251 40.5 0.784544 42.8453 1.02046 44.4334L5.22598 70.2425C5.46681 71.8306 7.15017 73.5 9.30781 73.5H67.0719C69.2296 73.5 70.4124 72.0862 70.5353 70.4931L74.4757 36.8946C74.6723 35.8939 73.6697 34.5 71.9053 34.5H38.5035C37.3288 34.5 36.2721 34.948 35.4317 35.8043Z" fill="#E07751" stroke="#333333"/>
<path d="M0.5 44C0.5 42.067 2.067 40.5 4 40.5H39C40.933 40.5 42.5 42.067 42.5 44V49C42.5 50.933 40.933 52.5 39 52.5H4C2.067 52.5 0.5 50.933 0.5 49V44Z" fill="#333333"/>
<path d="M0.5 44C0.5 42.067 2.067 40.5 4 40.5H39C40.933 40.5 42.5 42.067 42.5 44V49C42.5 50.933 40.933 52.5 39 52.5H4C2.067 52.5 0.5 50.933 0.5 49V44Z" fill="white" fill-opacity="0.88"/>
<path d="M0.5 44C0.5 42.067 2.067 40.5 4 40.5H39C40.933 40.5 42.5 42.067 42.5 44V49C42.5 50.933 40.933 52.5 39 52.5H4C2.067 52.5 0.5 50.933 0.5 49V44Z" stroke="#333333"/>
<path fill-rule="evenodd" clip-rule="evenodd" d="M8 46.5C8 45.6696 7.33036 45 6.5 45C5.66964 45 5 45.675 5 46.5C5 47.3304 5.66964 48 6.5 48C7.33036 48 8 47.3304 8 46.5ZM14 46.5C14 45.6696 13.3304 45 12.5 45C11.6696 45 11 45.675 11 46.5C11 47.3304 11.6696 48 12.5 48C13.3304 48 14 47.3304 14 46.5ZM18.5 45C19.3304 45 20 45.6696 20 46.5C20 47.3304 19.3304 48 18.5 48C17.6696 48 17 47.3304 17 46.5C17 45.675 17.675 45 18.5 45ZM26 46.5C26 45.6696 25.3304 45 24.5 45C23.675 45 23.0054 45.675 23 46.5C23 47.3304 23.6696 48 24.5 48C25.3304 48 26 47.3304 26 46.5ZM30.5 45C31.3304 45 32 45.6696 32 46.5C32 47.3304 31.3304 48 30.5 48C29.6696 48 29 47.3304 29 46.5C29 45.675 29.6696 45 30.5 45ZM38 46.5C38 45.6696 37.3304 45 36.5 45C35.6696 45 35 45.675 35 46.5C35 47.3304 35.6696 48 36.5 48C37.3304 48 38 47.3304 38 46.5Z" fill="#333333"/>
<path d="M65.7307 51.3568V51.8568H66.2307H67.8388C68.1974 51.8568 68.5464 51.8998 68.8757 51.9843L69.5 52.1445V51.5V48.0438C69.5 43.9209 66.3075 40.5 62.3449 40.5H57.6551C53.6925 40.5 50.5 43.9209 50.5 48.0438V51.5V52.1429L51.1231 51.9846C51.4576 51.8997 51.8032 51.8568 52.1612 51.8568H53.7692H54.2692V51.3568V48.6205C54.2692 46.2482 55.8374 44.5002 57.9592 44.5002H62.0026C64.1301 44.5002 65.7307 46.2545 65.7307 48.6205V51.3568Z" fill="#333333"/>
<path d="M65.7307 51.3568V51.8568H66.2307H67.8388C68.1974 51.8568 68.5464 51.8998 68.8757 51.9843L69.5 52.1445V51.5V48.0438C69.5 43.9209 66.3075 40.5 62.3449 40.5H57.6551C53.6925 40.5 50.5 43.9209 50.5 48.0438V51.5V52.1429L51.1231 51.9846C51.4576 51.8997 51.8032 51.8568 52.1612 51.8568H53.7692H54.2692V51.3568V48.6205C54.2692 46.2482 55.8374 44.5002 57.9592 44.5002H62.0026C64.1301 44.5002 65.7307 46.2545 65.7307 48.6205V51.3568Z" fill="white" fill-opacity="0.88"/>
<path d="M65.7307 51.3568V51.8568H66.2307H67.8388C68.1974 51.8568 68.5464 51.8998 68.8757 51.9843L69.5 52.1445V51.5V48.0438C69.5 43.9209 66.3075 40.5 62.3449 40.5H57.6551C53.6925 40.5 50.5 43.9209 50.5 48.0438V51.5V52.1429L51.1231 51.9846C51.4576 51.8997 51.8032 51.8568 52.1612 51.8568H53.7692H54.2692V51.3568V48.6205C54.2692 46.2482 55.8374 44.5002 57.9592 44.5002H62.0026C64.1301 44.5002 65.7307 46.2545 65.7307 48.6205V51.3568Z" stroke="#333333"/>
<path d="M50.897 50.5H69.103C72.0866 50.5 74.5 52.8553 74.5 55.6947V69.3053C74.5 72.1447 72.0866 74.5 69.103 74.5H50.897C47.9134 74.5 45.5 72.1447 45.5 69.3053V55.6904C45.5 52.8515 47.9129 50.5 50.897 50.5Z" fill="#ADADAD" stroke="#333333"/>
<path d="M62.4518 67.5H63.0734L62.9402 66.8928L61.9053 62.1775C62.5636 61.7084 63 60.9585 63 60.1002V60.1002V60.1002V60.1001V60.1001V60.1V60.1V60.0999V60.0999V60.0999V60.0998V60.0998V60.0997V60.0997V60.0997V60.0996V60.0996V60.0995V60.0995V60.0995V60.0994V60.0994V60.0993V60.0993V60.0993V60.0992V60.0992V60.0991V60.0991V60.0991V60.099V60.099V60.0989V60.0989V60.0989V60.0988V60.0988V60.0987V60.0987V60.0987V60.0986V60.0986V60.0985V60.0985V60.0985V60.0984V60.0984V60.0983V60.0983V60.0983V60.0982V60.0982V60.0981V60.0981V60.0981V60.098V60.098V60.0979V60.0979V60.0979V60.0978V60.0978V60.0978V60.0977V60.0977V60.0976V60.0976V60.0976V60.0975V60.0975V60.0974V60.0974V60.0974V60.0973V60.0973V60.0973V60.0972V60.0972V60.0971V60.0971V60.0971V60.097V60.097V60.0969V60.0969V60.0969V60.0968V60.0968V60.0968V60.0967V60.0967V60.0966V60.0966V60.0966V60.0965V60.0965V60.0965V60.0964V60.0964V60.0963V60.0963V60.0963V60.0962V60.0962V60.0962V60.0961V60.0961V60.0961V60.096V60.096V60.0959V60.0959V60.0959V60.0958V60.0958V60.0958V60.0957V60.0957V60.0956V60.0956V60.0956V60.0955V60.0955V60.0955V60.0954V60.0954V60.0954V60.0953V60.0953V60.0952V60.0952V60.0952V60.0951V60.0951V60.0951V60.095V60.095V60.095V60.0949V60.0949V60.0948V60.0948V60.0948V60.0947V60.0947V60.0947V60.0946V60.0946V60.0946V60.0945V60.0945V60.0944V60.0944V60.0944V60.0943V60.0943V60.0943V60.0942V60.0942V60.0942V60.0941V60.0941V60.0941V60.094V60.094V60.0939V60.0939V60.0939V60.0938V60.0938V60.0938V60.0937V60.0937V60.0937V60.0936V60.0936V60.0936V60.0935V60.0935V60.0935V60.0934V60.0934V60.0933V60.0933V60.0933V60.0932V60.0932V60.0932V60.0931V60.0931V60.0931V60.093V60.093V60.093V60.0929V60.0929V60.0929V60.0928V60.0928V60.0927V60.0927V60.0927V60.0926V60.0926V60.0926V60.0925V60.0925V60.0925V60.0924V60.0924V60.0924V60.0923V60.0923V60.0923V60.0922V60.0922V60.0922V60.0921V60.0921V60.0921V60.092V60.092V60.0919V60.0919V60.0919V60.0918V60.0918V60.0918V60.0917V60.0917V60.0917V60.0916V60.0916V60.0916V60.0915V60.0915V60.0915V60.0914V60.0914V60.0914V60.0913V60.0913V60.0913V60.0912V60.0912V60.0911V60.0911V60.0911V60.091V60.091V60.091V60.0909V60.0909V60.0909V60.0908V60.0908V60.0908V60.0907V60.0907V60.0907V60.0906V60.0906V60.0906V60.0905V60.0905V60.0905V60.0904V60.0904V60.0903V60.0903V60.0903V60.0902V60.0902V60.0902V60.0901V60.0901V60.0901V60.09V60.09V60.09V60.0899V60.0899V60.0899V60.0898V60.0898V60.0898V60.0897V60.0897V60.0897V60.0896V60.0896V60.0896V60.0895V60.0895V60.0894V60.0894V60.0894V60.0893V60.0893V60.0893V60.0892V60.0892V60.0892V60.0891V60.0891V60.0891V60.089V60.089V60.089V60.0889V60.0889V60.0889V60.0888V60.0888V60.0887V60.0887V60.0887V60.0886V60.0886V60.0886V60.0885V60.0885V60.0885V60.0884V60.0884V60.0884V60.0883V60.0883V60.0883V60.0882V60.0882V60.0881V60.0881V60.0881V60.088V60.088V60.088V60.0879V60.0879V60.0879V60.0878V60.0878V60.0878V60.0877V60.0877V60.0877V60.0876V60.0876V60.0875V60.0875V60.0875V60.0874V60.0874V60.0874V60.0873V60.0873V60.0873V60.0872V60.0872V60.0872V60.0871V60.0871V60.087V60.087V60.087V60.0869V60.0869V60.0869V60.0868V60.0868V60.0868V60.0867V60.0867V60.0867V60.0866V60.0866V60.0865V60.0865V60.0865V60.0864V60.0864V60.0864V60.0863V60.0863V60.0863V60.0862V60.0862V60.0861V60.0861V60.0861V60.086V60.086V60.086V60.0859V60.0859V60.0858V60.0858V60.0858V60.0857V60.0857V60.0857V60.0856V60.0856V60.0856V60.0855V60.0855V60.0854V60.0854V60.0854V60.0853V60.0853V60.0853V60.0852V60.0852V60.0851V60.0851V60.0851V60.085V60.085V60.085V60.0849V60.0849V60.0848V60.0848V60.0848V60.0847V60.0847V60.0847V60.0846V60.0846V60.0845V60.0845V60.0845V60.0844V60.0844V60.0844V60.0843V60.0843V60.0842V60.0842V60.0842V60.0841V60.0841V60.084V60.084V60.084V60.0839V60.0839V60.0839V60.0838V60.0838V60.0837V60.0837V60.0837V60.0836V60.0836V60.0835V60.0835V60.0835V60.0834V60.0834V60.0834V60.0833V60.0833V60.0832V60.0832V60.0832V60.0831V60.0831V60.083V60.083V60.083V60.0829V60.0829V60.0828V60.0828V60.0828V60.0827V60.0827V60.0826V60.0826V60.0826V60.0825V60.0825V60.0824V60.0824V60.0824V60.0823V60.0823V60.0822V60.0822V60.0822V60.0821V60.0821V60.082V60.082V60.082V60.0819V60.0819V60.0818V60.0818V60.0817V60.0817V60.0817V60.0816V60.0816V60.0815V60.0815V60.0815V60.0814V60.0814V60.0813V60.0813H63L63 60.0769C62.9871 58.6201 61.727 57.5 60.25 57.5C58.773 57.5 57.5129 58.6201 57.5 60.0769H57.5V60.0813V60.0813V60.0814V60.0814V60.0815V60.0815V60.0815V60.0816V60.0816V60.0817V60.0817V60.0817V60.0818V60.0818V60.0819V60.0819V60.082V60.082V60.082V60.0821V60.0821V60.0822V60.0822V60.0822V60.0823V60.0823V60.0824V60.0824V60.0824V60.0825V60.0825V60.0826V60.0826V60.0826V60.0827V60.0827V60.0828V60.0828V60.0828V60.0829V60.0829V60.083V60.083V60.083V60.0831V60.0831V60.0832V60.0832V60.0832V60.0833V60.0833V60.0834V60.0834V60.0834V60.0835V60.0835V60.0835V60.0836V60.0836V60.0837V60.0837V60.0837V60.0838V60.0838V60.0839V60.0839V60.0839V60.084V60.084V60.084V60.0841V60.0841V60.0842V60.0842V60.0842V60.0843V60.0843V60.0844V60.0844V60.0844V60.0845V60.0845V60.0845V60.0846V60.0846V60.0847V60.0847V60.0847V60.0848V60.0848V60.0848V60.0849V60.0849V60.085V60.085V60.085V60.0851V60.0851V60.0851V60.0852V60.0852V60.0853V60.0853V60.0853V60.0854V60.0854V60.0854V60.0855V60.0855V60.0856V60.0856V60.0856V60.0857V60.0857V60.0857V60.0858V60.0858V60.0858V60.0859V60.0859V60.086V60.086V60.086V60.0861V60.0861V60.0861V60.0862V60.0862V60.0863V60.0863V60.0863V60.0864V60.0864V60.0864V60.0865V60.0865V60.0865V60.0866V60.0866V60.0867V60.0867V60.0867V60.0868V60.0868V60.0868V60.0869V60.0869V60.0869V60.087V60.087V60.087V60.0871V60.0871V60.0872V60.0872V60.0872V60.0873V60.0873V60.0873V60.0874V60.0874V60.0874V60.0875V60.0875V60.0875V60.0876V60.0876V60.0877V60.0877V60.0877V60.0878V60.0878V60.0878V60.0879V60.0879V60.0879V60.088V60.088V60.088V60.0881V60.0881V60.0881V60.0882V60.0882V60.0883V60.0883V60.0883V60.0884V60.0884V60.0884V60.0885V60.0885V60.0885V60.0886V60.0886V60.0886V60.0887V60.0887V60.0887V60.0888V60.0888V60.0889V60.0889V60.0889V60.089V60.089V60.089V60.0891V60.0891V60.0891V60.0892V60.0892V60.0892V60.0893V60.0893V60.0893V60.0894V60.0894V60.0894V60.0895V60.0895V60.0896V60.0896V60.0896V60.0897V60.0897V60.0897V60.0898V60.0898V60.0898V60.0899V60.0899V60.0899V60.09V60.09V60.09V60.0901V60.0901V60.0901V60.0902V60.0902V60.0902V60.0903V60.0903V60.0903V60.0904V60.0904V60.0905V60.0905V60.0905V60.0906V60.0906V60.0906V60.0907V60.0907V60.0907V60.0908V60.0908V60.0908V60.0909V60.0909V60.0909V60.091V60.091V60.091V60.0911V60.0911V60.0911V60.0912V60.0912V60.0913V60.0913V60.0913V60.0914V60.0914V60.0914V60.0915V60.0915V60.0915V60.0916V60.0916V60.0916V60.0917V60.0917V60.0917V60.0918V60.0918V60.0918V60.0919V60.0919V60.0919V60.092V60.092V60.0921V60.0921V60.0921V60.0922V60.0922V60.0922V60.0923V60.0923V60.0923V60.0924V60.0924V60.0924V60.0925V60.0925V60.0925V60.0926V60.0926V60.0926V60.0927V60.0927V60.0927V60.0928V60.0928V60.0929V60.0929V60.0929V60.093V60.093V60.093V60.0931V60.0931V60.0931V60.0932V60.0932V60.0932V60.0933V60.0933V60.0933V60.0934V60.0934V60.0935V60.0935V60.0935V60.0936V60.0936V60.0936V60.0937V60.0937V60.0937V60.0938V60.0938V60.0938V60.0939V60.0939V60.0939V60.094V60.094V60.0941V60.0941V60.0941V60.0942V60.0942V60.0942V60.0943V60.0943V60.0943V60.0944V60.0944V60.0944V60.0945V60.0945V60.0946V60.0946V60.0946V60.0947V60.0947V60.0947V60.0948V60.0948V60.0948V60.0949V60.0949V60.095V60.095V60.095V60.0951V60.0951V60.0951V60.0952V60.0952V60.0952V60.0953V60.0953V60.0954V60.0954V60.0954V60.0955V60.0955V60.0955V60.0956V60.0956V60.0956V60.0957V60.0957V60.0958V60.0958V60.0958V60.0959V60.0959V60.0959V60.096V60.096V60.0961V60.0961V60.0961V60.0962V60.0962V60.0962V60.0963V60.0963V60.0963V60.0964V60.0964V60.0965V60.0965V60.0965V60.0966V60.0966V60.0966V60.0967V60.0967V60.0968V60.0968V60.0968V60.0969V60.0969V60.0969V60.097V60.097V60.0971V60.0971V60.0971V60.0972V60.0972V60.0973V60.0973V60.0973V60.0974V60.0974V60.0974V60.0975V60.0975V60.0976V60.0976V60.0976V60.0977V60.0977V60.0978V60.0978V60.0978V60.0979V60.0979V60.0979V60.098V60.098V60.0981V60.0981V60.0981V60.0982V60.0982V60.0983V60.0983V60.0983V60.0984V60.0984V60.0985V60.0985V60.0985V60.0986V60.0986V60.0987V60.0987V60.0987V60.0988V60.0988V60.0989V60.0989V60.0989V60.099V60.099V60.0991V60.0991V60.0991V60.0992V60.0992V60.0993V60.0993V60.0993V60.0994V60.0994V60.0995V60.0995V60.0995V60.0996V60.0996V60.0997V60.0997V60.0997V60.0998V60.0998V60.0999V60.0999V60.0999V60.1V60.1V60.1001V60.1001V60.1002V60.1002V60.1002C57.5 60.959 57.9386 61.7083 58.5948 62.177L57.5598 66.8928L57.4266 67.5H58.0482H60.2475H62.4518Z" fill="#333333" stroke="#333333"/>
</svg>
