<svg width="16" height="16" viewBox="0 0 16 16" fill="none" xmlns="http://www.w3.org/2000/svg">
<circle cx="11" cy="12" r="2" stroke="#333333" stroke-width="2"/>
<circle cx="5" cy="4" r="2" stroke="#333333" stroke-width="2"/>
<path d="M15 3C15.5523 3 16 3.44772 16 4C16 4.55228 15.5523 5 15 5H5C5.55228 5 6 4.55228 6 4C6 3.44772 5.55228 3 5 3C4.44772 3 4 3.44772 4 4C4 4.55228 4.44772 5 5 5H1C0.447715 5 0 4.55228 0 4C0 3.44772 0.447715 3 1 3H15Z" fill="#333333"/>
<path d="M15 11C15.5523 11 16 11.4477 16 12C16 12.5523 15.5523 13 15 13H11C11.5523 13 12 12.5523 12 12C12 11.4477 11.5523 11 11 11C10.4477 11 10 11.4477 10 12C10 12.5523 10.4477 13 11 13H1C0.447715 13 0 12.5523 0 12C0 11.4477 0.447715 11 1 11H15Z" fill="#333333"/>
</svg>
