<svg width="16" height="16" viewBox="0 0 16 16" fill="none" xmlns="http://www.w3.org/2000/svg">
<g clip-path="url(#clip0_916_27624)">
<path d="M13 12.5859L14.293 11.293L15.707 12.707L13.0605 15.3535C12.4748 15.9393 11.5252 15.9393 10.9395 15.3535L8.29297 12.707L9.70703 11.293L11 12.5859V8H13V12.5859Z" fill="#657077"/>
<path d="M9 0C9.27145 0 9.53127 0.110312 9.71973 0.305664L12.7197 3.41699C12.8995 3.60338 13 3.85241 13 4.11133V7H11V4.51465L8.5752 2H2V14H8.17188L10.1719 16H2C0.89543 16 0 15.1046 0 14V2C2.57702e-07 0.895431 0.89543 0 2 0H9ZM13 8V14C13 14.7833 12.5484 15.4589 11.8926 15.7871C11.5453 15.7623 11.205 15.619 10.9395 15.3535L9.58594 14H11V8H13ZM7.58594 12H3V10H9.58594L7.58594 12ZM10 11.5859V12H9L9.70703 11.293L10 11.5859ZM10 9H3V7H10V9ZM9 6H3V4H9V6Z" fill="#657077"/>
</g>
<defs>
<clipPath id="clip0_916_27624">
<rect width="16" height="16" fill="white"/>
</clipPath>
</defs>
</svg>
