<svg xmlns="http://www.w3.org/2000/svg" width="232" height="40" viewBox="0 0 232 40" fill="none">
  <path d="M28.5373 4.01596C23.4642 4.01596 19.1644 7.44428 17.8318 12.0893C16.6735 9.62549 14.1636 7.89942 11.2727 7.89942C7.29688 7.89942 4.02869 11.1573 4.02869 15.1205C4.02869 19.0837 7.29688 22.343 11.2727 22.343C14.1636 22.343 16.6735 20.6159 17.8318 18.1517C19.1644 22.797 23.4642 26.2265 28.5373 26.2265C33.5728 26.2265 37.8507 22.8487 39.2175 18.2558C40.3971 20.6641 42.8759 22.343 45.7258 22.343C49.7016 22.343 52.9713 19.0837 52.9713 15.1205C52.9713 11.1573 49.7016 7.89942 45.7258 7.89942C42.8759 7.89942 40.3971 9.57732 39.2175 11.9852C37.8507 7.39257 33.5728 4.01596 28.5373 4.01596ZM28.5373 8.25489C32.3669 8.25489 35.4262 11.303 35.4262 15.1205C35.4262 18.9379 32.3669 21.9875 28.5373 21.9875C24.7077 21.9875 21.65 18.9379 21.65 15.1205C21.65 11.303 24.7077 8.25489 28.5373 8.25489ZM11.2727 12.1383C12.9505 12.1383 14.2657 13.448 14.2657 15.1205C14.2657 16.793 12.9505 18.1041 11.2727 18.1041C9.59483 18.1041 8.28106 16.793 8.28106 15.1205C8.28106 13.448 9.59483 12.1383 11.2727 12.1383ZM45.7258 12.1383C47.4037 12.1383 48.7189 13.448 48.7189 15.1205C48.7189 16.793 47.4037 18.1041 45.7258 18.1041C44.048 18.1041 42.7343 16.793 42.7343 15.1205C42.7343 13.448 44.048 12.1383 45.7258 12.1383Z" fill="#0082C9"/>
  <path d="M9.12556 29.5762C8.98407 29.5762 8.92296 29.6567 8.92296 29.7977V35.6418C8.92296 35.7829 8.98407 35.8624 9.12556 35.8624H9.28784C9.42934 35.8624 9.50912 35.7829 9.50912 35.6418V30.7889L12.7094 35.7399C12.7234 35.7615 12.7385 35.776 12.7537 35.7918C12.7582 35.7972 12.7614 35.8028 12.7665 35.8075C12.7801 35.8199 12.7951 35.8264 12.8097 35.834C12.8179 35.8383 12.8243 35.8446 12.8334 35.8477C12.8397 35.8498 12.8464 35.8485 12.8531 35.8503C12.8756 35.856 12.8987 35.862 12.9258 35.862H13.0871C13.2286 35.862 13.2897 35.7825 13.2897 35.6414V29.7977C13.2897 29.6566 13.2286 29.5761 13.0871 29.5761H12.9258C12.7843 29.5761 12.7036 29.6566 12.7036 29.7977V34.6508L9.50326 29.6998C9.49235 29.683 9.47915 29.6727 9.46686 29.6596C9.42991 29.6075 9.37138 29.5763 9.28787 29.5763L9.12556 29.5762ZM47.5519 29.6566C47.4104 29.6566 47.4712 29.7371 47.4712 29.8781V31.8732C47.4712 32.0747 47.4908 32.2154 47.4908 32.2154H47.4712C47.4712 32.2154 47.087 31.3291 46.0156 31.3291C44.8433 31.3291 44.0141 32.256 44.0545 33.6262C44.0545 34.9964 44.8024 35.9438 45.995 35.9438C47.1472 35.9438 47.5312 35.0164 47.5312 35.0164H47.5518C47.5518 35.0164 47.5115 35.1375 47.5115 35.2987V35.6409C47.5115 35.7819 47.5923 35.8428 47.7338 35.8428H47.8754C48.0169 35.8428 48.077 35.7623 48.077 35.6213V29.8781C48.077 29.7371 47.8546 29.6566 47.7131 29.6566H47.5519ZM31.8454 29.6772C31.7039 29.6772 31.7854 29.7577 31.7854 29.8987V34.835C31.7854 35.8022 32.4316 35.9232 32.7954 35.9232C32.9572 35.9232 33.0177 35.8427 33.0177 35.7017V35.5605C33.0177 35.4195 32.9368 35.3595 32.8358 35.3595C32.6336 35.3394 32.3716 35.2786 32.3716 34.7144V29.8987C32.3716 29.7577 32.1492 29.6772 32.0077 29.6772L31.8454 29.6772ZM24.5891 30.2007C24.4476 30.2007 24.3669 30.2812 24.3669 30.4223V31.4703V31.9742V34.2507C24.3669 35.2985 24.9535 35.8831 25.9237 35.8831C26.1057 35.8831 26.1657 35.8231 26.1657 35.6821V35.5605C26.1657 35.3993 26.1057 35.3591 25.9237 35.3389C25.5801 35.3188 24.953 35.198 24.953 34.1703V31.9537H25.8628C26.0042 31.9537 26.085 31.8937 26.085 31.7527V31.6919C26.085 31.5508 26.0042 31.4703 25.8628 31.4703H24.953V30.4223C24.953 30.2812 24.8929 30.2007 24.7514 30.2007H24.5891ZM16.5382 31.3292C15.3254 31.3292 14.3544 32.196 14.3342 33.6468C14.3342 35.017 15.3453 35.9634 16.6592 35.9634C17.3666 35.9634 17.8918 35.6615 18.1344 35.4801C18.2355 35.3995 18.256 35.2985 18.1954 35.1978L18.1344 35.0978C18.0738 34.9769 17.9734 34.9564 17.8522 35.037C17.65 35.1982 17.2448 35.4399 16.6788 35.4399C15.7692 35.4399 14.9808 34.7948 14.9607 33.6664H18.1747C18.296 33.6664 18.397 33.5657 18.397 33.4448C18.397 32.1754 17.7308 31.3292 16.5382 31.3292ZM29.0965 31.3292C27.7826 31.3292 26.772 32.2962 26.7518 33.6664C26.7518 35.0366 27.7629 35.984 29.0768 35.984C29.8854 35.984 30.431 35.6007 30.6534 35.4193C30.7545 35.3186 30.774 35.2383 30.7134 35.1174L30.6534 35.037C30.5725 34.9161 30.4914 34.8956 30.3701 34.9762C30.168 35.1575 29.7438 35.4399 29.1172 35.4399C28.1469 35.4399 27.3783 34.7142 27.3783 33.6664C27.3783 32.5985 28.1469 31.8733 29.1172 31.8733C29.6427 31.8733 30.0264 32.1351 30.2285 32.2762C30.3498 32.3568 30.4506 32.3569 30.5314 32.236L30.5924 32.135C30.6935 32.0141 30.6728 31.9137 30.5717 31.8331C30.3494 31.6517 29.8646 31.3292 29.0965 31.3292ZM35.9289 31.3292C34.6352 31.3292 33.5842 32.3165 33.5842 33.6262C33.5842 34.9561 34.6352 35.9634 35.9289 35.9634C37.2226 35.9634 38.2735 34.9561 38.2735 33.6262C38.2735 32.3165 37.2226 31.3292 35.9289 31.3292ZM22.8523 31.3968C22.8028 31.4047 22.7551 31.4379 22.7097 31.4919L21.8914 32.4635L21.2796 33.1909L20.3522 32.0899L19.8496 31.4919C19.8041 31.4379 19.7526 31.4082 19.6992 31.4037C19.6457 31.3994 19.5901 31.4191 19.5359 31.4644L19.412 31.5684C19.3036 31.659 19.3093 31.7593 19.4002 31.8674L20.2185 32.8389L20.8971 33.6458L19.9037 34.8252C19.9027 34.8261 19.9022 34.8274 19.9018 34.8278L19.4002 35.4229C19.3092 35.5309 19.3193 35.645 19.4277 35.7356L19.5516 35.8386C19.66 35.9292 19.7587 35.9064 19.8496 35.7983L20.6669 34.8268L21.2796 34.0993L22.2071 35.2013C22.2075 35.2021 22.2086 35.203 22.2091 35.2034L22.7097 35.7995C22.8006 35.9075 22.915 35.9166 23.0234 35.8259L23.1473 35.723C23.2557 35.6323 23.2501 35.532 23.1591 35.424L22.3408 34.4514L21.6622 33.6455L22.6556 32.4652C22.6566 32.4643 22.6571 32.4634 22.6575 32.4626L23.1591 31.8675C23.2501 31.7594 23.24 31.6454 23.1316 31.5547L23.0077 31.4518C22.9535 31.4065 22.9018 31.3889 22.8523 31.3968ZM39.4665 31.4302C39.325 31.4302 39.2639 31.5107 39.2639 31.6517V34.2507C39.2639 35.3993 40.1129 35.9635 41.164 35.9635C42.2151 35.9635 43.0642 35.3993 43.0642 34.2507V31.6517C43.0844 31.5107 43.004 31.4302 42.8625 31.4302H42.7003C42.5588 31.4302 42.478 31.5107 42.478 31.6517V34.09C42.478 34.7751 42.0332 35.3998 41.164 35.3998C40.3151 35.3998 39.8501 34.7751 39.8501 34.09V31.6517C39.8501 31.5107 39.7693 31.4302 39.6278 31.4302L39.4665 31.4302ZM16.5175 31.8331C17.1644 31.8331 17.7301 32.2964 17.7705 33.2233H14.9813C15.1228 32.3166 15.7696 31.8331 16.5175 31.8331ZM35.9289 31.8733C36.8789 31.8733 37.647 32.6188 37.647 33.6263C37.647 34.6741 36.8789 35.44 35.9289 35.44C34.9788 35.44 34.2102 34.6539 34.1901 33.6263C34.1901 32.6389 34.9788 31.8733 35.9289 31.8733ZM46.056 31.8733C47.006 31.8733 47.4712 32.7401 47.4712 33.6469C47.4712 34.9163 46.7832 35.44 46.0353 35.44C45.2066 35.44 44.6412 34.7349 44.621 33.6469C44.621 32.5185 45.2676 31.8733 46.056 31.8733Z" fill="#0082C9"/>
</svg>