<svg width="200" height="140" viewBox="0 0 200 140" fill="none" xmlns="http://www.w3.org/2000/svg">
<g filter="url(#filter0_d_1090_58377)">
<path d="M64.0684 22C64.0684 20.8954 64.9638 20 66.0684 20H124.068L136.068 32V114C136.068 115.105 135.173 116 134.068 116H66.0684C64.9638 116 64.0684 115.105 64.0684 114V22Z" fill="white"/>
<path d="M65.0684 22C65.0684 21.4477 65.5161 21 66.0684 21H123.654L135.068 32.4142V114C135.068 114.552 134.621 115 134.068 115H66.0684C65.5161 115 65.0684 114.552 65.0684 114V22Z" stroke="#AAAAAA" stroke-width="2"/>
</g>
<path d="M136.15 57C141.426 59.9105 152.265 65.8284 149.579 72.0373C148.056 75.559 140.739 75.6184 137.128 75.1159C136.584 75.0401 136.047 75.3822 136.012 75.9308C135.911 77.5241 136.391 79.6164 139.507 78.8284" stroke="#AAAAAA" stroke-width="2" stroke-linecap="round"/>
<path d="M75.2715 59.6259L79.771 64.9882L59.4708 82.022C57.9901 83.2645 55.7824 83.0714 54.5399 81.5906C53.2974 80.1099 53.4905 77.9022 54.9713 76.6597L75.2715 59.6259Z" fill="#E2E2E2" stroke="#AAAAAA" stroke-width="2"/>
<circle cx="110" cy="47" r="2" fill="#AAAAAA"/>
<circle cx="88" cy="52" r="16" fill="white" stroke="#AAAAAA" stroke-width="2"/>
<circle cx="88" cy="52" r="12" fill="#F5F5F5" stroke="#AAAAAA" stroke-width="2"/>
<circle cx="90.5" cy="48.5" r="3.5" fill="#AAAAAA"/>
<path d="M65 57C58.6857 60.7331 52 65.5327 52 69.7991C52 74.6032 56.2198 75.2239 60.0435 75.1698C60.682 75.1608 61.188 75.7347 61.241 76.3711C61.2988 77.0645 61.5066 77.8322 62.0286 78.3319C62.92 79.1851 63.6381 79.0429 63.8857 78.8652" stroke="#AAAAAA" stroke-width="2" stroke-linecap="round"/>
<path d="M110.985 59.6709C107.836 61.173 106.403 62.5166 107.747 63.9498" stroke="#AAAAAA" stroke-width="2" stroke-linecap="round"/>
<path d="M124 20L136 32H125C124.448 32 124 31.5523 124 31V20Z" fill="#AAAAAA"/>
<defs>
<filter id="filter0_d_1090_58377" x="49.0684" y="12" width="102" height="126" filterUnits="userSpaceOnUse" color-interpolation-filters="sRGB">
<feFlood flood-opacity="0" result="BackgroundImageFix"/>
<feColorMatrix in="SourceAlpha" type="matrix" values="0 0 0 0 0 0 0 0 0 0 0 0 0 0 0 0 0 0 127 0" result="hardAlpha"/>
<feOffset dy="7"/>
<feGaussianBlur stdDeviation="7.5"/>
<feColorMatrix type="matrix" values="0 0 0 0 0.333333 0 0 0 0 0.333333 0 0 0 0 0.333333 0 0 0 0.1 0"/>
<feBlend mode="normal" in2="BackgroundImageFix" result="effect1_dropShadow_1090_58377"/>
<feBlend mode="normal" in="SourceGraphic" in2="effect1_dropShadow_1090_58377" result="shape"/>
</filter>
</defs>
</svg>
