<svg width="20" height="20" viewBox="0 0 20 20" fill="none" xmlns="http://www.w3.org/2000/svg">
<path fill-rule="evenodd" clip-rule="evenodd" d="M8.89992 18.7913L1.47441 15.2914C0.841864 14.9858 0.841864 14.5136 1.47441 14.2359L4.05959 13.0137L8.87242 15.2914C9.50497 15.5969 10.5225 15.5969 11.1276 15.2914L15.9404 13.0137L18.5256 14.2359C19.1581 14.5414 19.1581 15.0136 18.5256 15.2914L11.1001 18.7913C10.5225 19.069 9.50497 19.069 8.89992 18.7913Z" fill="#FF6F3D"/>
<path fill-rule="evenodd" clip-rule="evenodd" d="M8.87586 14.4606L1.47296 10.9566C0.842346 10.6507 0.842346 10.178 1.47296 9.89989L3.99543 8.7041L8.87586 11.0123C9.50647 11.3182 10.5209 11.3182 11.1241 11.0123L16.0046 8.7041L18.527 9.89989C19.1577 10.2058 19.1577 10.6785 18.527 10.9566L11.1241 14.4606C10.4935 14.7665 9.47906 14.7665 8.87586 14.4606Z" fill="#95C038"/>
<path fill-rule="evenodd" clip-rule="evenodd" d="M8.87586 10.1747L1.47296 6.72119C0.842346 6.41969 0.842346 5.95374 1.47296 5.67965L8.87586 2.22612C9.50647 1.92463 10.5209 1.92463 11.1241 2.22612L18.527 5.67965C19.1577 5.98115 19.1577 6.4471 18.527 6.72119L11.1241 10.1747C10.4935 10.4488 9.47906 10.4488 8.87586 10.1747Z" fill="#5DC0E8"/>
</svg>
