<svg width="16" height="16" viewBox="0 0 16 16" fill="none" xmlns="http://www.w3.org/2000/svg">
    <g clip-path="url(#clip0_1596_815)">
        <path fill-rule="evenodd" clip-rule="evenodd"
            d="M12.5972 11.0115L11.2929 9.70718L12.7071 8.29297L15.7071 11.293C15.8946 11.4805 16 11.7349 16 12.0001C16 12.2653 15.8946 12.5196 15.7071 12.7072L12.7071 15.7072L11.2929 14.293L12.5663 13.0195C12.1275 13.0572 11.7399 13.1287 11.4082 13.2509C10.982 13.408 10.6621 13.6426 10.4333 14.0077C10.1953 14.3875 9.99999 14.9985 9.99999 16.0001L7.99999 16.0001C7.99999 14.7517 8.24221 13.7377 8.73856 12.9456C9.24415 12.1388 9.95551 11.6547 10.7168 11.3742C11.3304 11.1481 11.9818 11.0519 12.5972 11.0115Z"
            fill="#333333" />
        <path fill-rule="evenodd" clip-rule="evenodd"
            d="M7.91648 7.1415e-10C6.25975 -3.57605e-05 4.91669 1.343 4.91669 2.99973V3.49996C4.91669 4.58861 5.09469 5.64621 5.53434 6.47055C5.99389 7.33221 6.78953 7.99996 7.91669 7.99996C9.04393 7.99996 9.83945 7.33211 10.2989 6.4704C10.7383 5.64607 10.9161 4.5885 10.9161 3.49996V2.99973C10.9161 1.34305 9.57316 3.5765e-05 7.91648 7.1415e-10ZM6.91669 2.99973C6.91669 2.44759 7.3643 1.99999 7.91644 2C8.46857 2.00001 8.91615 2.4476 8.91615 2.99973V3.49996C8.91615 4.41142 8.76092 5.10385 8.53399 5.52952C8.32698 5.9178 8.12278 5.99996 7.91669 5.99996C7.71051 5.99996 7.50616 5.91771 7.29904 5.52937C7.07202 5.1037 6.91669 4.41131 6.91669 3.49996V2.99973Z"
            fill="#333333" />
        <path
            d="M5.34563 8.64271C3.77056 8.64271 2.73402 9.64685 2.11185 10.6849C1.49263 11.7181 1.17194 12.9469 1.02579 13.8463C0.823509 15.091 1.84459 16 2.91706 16H6.91698C6.91698 15.2886 6.98844 14.6189 7.14453 14H3.02874C3.16339 13.2632 3.42009 12.3926 3.82735 11.7131C4.2387 11.0267 4.70241 10.6821 5.24835 10.6459C5.27187 10.6569 5.30118 10.6713 5.33813 10.6903C5.38994 10.717 5.4465 10.7472 5.51614 10.7846L5.54947 10.8024C6.01856 11.0542 6.84906 11.4999 7.91706 11.4999C8.16513 11.4999 8.40039 11.4758 8.62129 11.4357C9.12837 10.9715 9.70406 10.6508 10.2881 10.4356C10.3463 10.4142 10.4046 10.3938 10.463 10.3743L9.79566 9.70692L10.8423 8.66031C10.7278 8.64884 10.6102 8.64283 10.4894 8.64271C10.1952 8.64243 9.94465 8.74278 9.80897 8.80217C9.66456 8.86537 9.51228 8.94703 9.39009 9.01255L9.37279 9.02182C8.89407 9.27839 8.45321 9.49986 7.91706 9.49986C7.38061 9.49986 6.93958 9.2783 6.46083 9.02174L6.44356 9.01248C6.32146 8.94702 6.16932 8.86544 6.02506 8.80228C5.88949 8.74293 5.63934 8.64271 5.34563 8.64271Z"
            fill="#333333" />
    </g>
    <defs>
        <clipPath id="clip0_1596_815">
            <rect width="16" height="16" fill="white" />
        </clipPath>
    </defs>
</svg>