<svg width="16" height="16" viewBox="0 0 16 16" fill="none" xmlns="http://www.w3.org/2000/svg">
<g clip-path="url(#clip0_2089_31890)">
<path fill-rule="evenodd" clip-rule="evenodd" d="M7.99945 2.00012C7.4473 2.00011 6.9997 2.44771 6.9997 2.99985V3.50008C6.9997 4.41143 7.15503 5.10383 7.38205 5.52949C7.58916 5.91783 7.79352 6.00008 7.9997 6.00008C8.20579 6.00008 8.40999 5.91792 8.61699 5.52964C8.84392 5.10397 8.99916 4.41154 8.99916 3.50008V2.99985C8.99916 2.44773 8.55157 2.00013 7.99945 2.00012ZM4.9997 2.99985C4.9997 1.34312 6.34276 8.63082e-05 7.99949 0.000122071C9.65617 0.000157834 10.9992 1.34317 10.9992 2.99985V3.50008C10.9992 4.58862 10.8213 5.64619 10.3819 6.47052C9.92246 7.33223 9.12694 8.00008 7.9997 8.00008C6.87254 8.00008 6.0769 7.33233 5.61734 6.47067C5.1777 5.64633 4.9997 4.58873 4.9997 3.50008V2.99985ZM2.19486 10.6851C2.81702 9.64697 3.85357 8.64283 5.42864 8.64283C5.72234 8.64283 5.9725 8.74305 6.10807 8.8024C6.25233 8.86557 6.40447 8.94714 6.52657 9.0126L6.54384 9.02186C7.02258 9.27842 7.46362 9.49998 8.00006 9.49998C8.53622 9.49998 8.97707 9.27851 9.4558 9.02194C9.46149 9.01889 9.46726 9.0158 9.4731 9.01267C9.59529 8.94715 9.74757 8.86549 9.89198 8.80229C10.0277 8.7429 10.2782 8.64255 10.5725 8.64283C12.1468 8.64435 13.183 9.6481 13.8051 10.686C14.4244 11.719 14.7451 12.9472 14.8913 13.8463C15.0937 15.0911 14.0725 16.0001 13.0001 16.0001H3.00006C1.92759 16.0001 0.906516 15.0911 1.1088 13.8464C1.25495 12.9471 1.57564 11.7183 2.19486 10.6851ZM3.11175 14.0001H12.8883C12.7537 13.2637 12.497 12.3936 12.0897 11.7143C11.6785 11.0282 11.2145 10.683 10.6682 10.6461C10.6447 10.6571 10.6155 10.6715 10.5787 10.6904C10.5268 10.7171 10.4702 10.7474 10.4005 10.7847C10.3896 10.7906 10.3785 10.7966 10.3672 10.8026C9.89817 11.0543 9.06781 11.5 8.00006 11.5C6.93207 11.5 6.10156 11.0543 5.63248 10.8026C5.62116 10.7965 5.61004 10.7905 5.59915 10.7847C5.52951 10.7474 5.47295 10.7171 5.42114 10.6904C5.38419 10.6714 5.35488 10.657 5.33135 10.646C4.78542 10.6822 4.32171 11.0269 3.91036 11.7132C3.5031 12.3927 3.2464 13.2633 3.11175 14.0001Z" fill="#333333"/>
</g>
<defs>
<clipPath id="clip0_2089_31890">
<rect width="16" height="16" fill="white"/>
</clipPath>
</defs>
</svg>
