<svg width="16" height="16" viewBox="0 0 16 16" fill="none" xmlns="http://www.w3.org/2000/svg">
<circle cx="8" cy="8" r="7.5" fill="#5DC0E8" stroke="#35A5D2"/>
<mask id="mask0_4248_200975" style="mask-type:alpha" maskUnits="userSpaceOnUse" x="1" y="1" width="14" height="14">
<circle cx="8" cy="8" r="7" fill="#D9D9D9"/>
</mask>
<g mask="url(#mask0_4248_200975)">
<path d="M5.6449 9.65583L6.51076 8.78998C6.9322 8.36853 6.89375 7.67433 6.42834 7.302L4.0747 5.41908C3.89738 5.27723 3.67707 5.19995 3.45 5.19995H1.41499C1.14978 5.19995 0.895425 5.30531 0.707888 5.49284L0.593674 5.60706C0.406138 5.79459 0.300781 6.04895 0.300781 6.31416V6.59995V7.87685C0.300781 7.95861 0.310809 8.04006 0.330639 8.11938L0.974158 10.6935C0.991854 10.7642 1.01724 10.8329 1.04987 10.8981L2.27055 13.3395C2.35561 13.5096 2.4874 13.6519 2.65048 13.7498L5.66327 15.5574C5.81868 15.6507 5.99652 15.7 6.17776 15.7H6.7656C7.09995 15.7 7.41218 15.5329 7.59765 15.2547L8.53283 13.8519C8.64234 13.6876 8.70078 13.4946 8.70078 13.2972V12.9207C8.70078 12.4903 8.42535 12.1081 8.01701 11.972L6.03578 11.3116C5.33055 11.0765 5.11925 10.1815 5.6449 9.65583Z" fill="white"/>
<path d="M10.2899 2.81452L10.823 2.01494C11.173 1.48988 11.9159 1.41631 12.3621 1.86253L12.8996 2.4L13.5296 3.02998C13.5762 3.07655 13.618 3.1276 13.6545 3.18239L14.9035 5.05588C14.9671 5.15125 15.0138 5.25684 15.0416 5.36804L15.639 7.75746C15.6788 7.9167 15.6788 8.0833 15.639 8.24254L15.0262 10.6935C15.0085 10.7643 14.9831 10.8329 14.9505 10.8982L13.7487 13.3019C13.6519 13.4954 13.495 13.6523 13.3015 13.7491L12.7443 14.0277C11.9801 14.4097 11.1197 13.7195 11.3269 12.8907L12.0386 10.0442C12.1362 9.65382 11.9903 9.24302 11.6684 9.00161L7.52202 5.89181C7.03518 5.52668 6.9846 4.81501 7.41491 4.3847L7.83268 3.96693C7.94246 3.85715 8.07629 3.77444 8.22356 3.72535L9.77411 3.2085C9.98507 3.13818 10.1666 2.99955 10.2899 2.81452Z" fill="white"/>
</g>
</svg>
