<svg width="417" height="200" viewBox="0 0 417 200" fill="none" xmlns="http://www.w3.org/2000/svg">
<rect x="0.5" width="416" height="200" rx="6" fill="white"/>
<ellipse cx="208.612" cy="118.622" rx="150" ry="28" transform="rotate(-8.00751 208.612 118.622)" stroke="#D9F4FF" stroke-width="2" stroke-linecap="round" stroke-dasharray="6 6"/>
<ellipse cx="208.5" cy="172.5" rx="32" ry="2.5" fill="#EFEFEF"/>
<g filter="url(#filter0_d_2495_114421)">
<path d="M171.5 37C171.5 35.8954 172.395 35 173.5 35H231.5L243.5 47V129C243.5 130.105 242.605 131 241.5 131H173.5C172.395 131 171.5 130.105 171.5 129V37Z" fill="white"/>
<path d="M172.5 37C172.5 36.4477 172.948 36 173.5 36H231.086L242.5 47.4142V129C242.5 129.552 242.052 130 241.5 130H173.5C172.948 130 172.5 129.552 172.5 129V37Z" stroke="#AAAAAA" stroke-width="2"/>
</g>
<path d="M231.5 35L243.5 47H232.5C231.948 47 231.5 46.5523 231.5 46V35Z" fill="#AAAAAA"/>
<path d="M201.332 62C201.332 59.7909 199.317 58 196.832 58C194.347 58 192.332 59.7909 192.332 62" stroke="#AAAAAA" stroke-width="2" stroke-linecap="round"/>
<path d="M223.223 62C223.223 59.7909 221.208 58 218.723 58C216.237 58 214.223 59.7909 214.223 62" stroke="#AAAAAA" stroke-width="2" stroke-linecap="round"/>
<path d="M172.5 75.0001C166 82.9999 151.5 77.9999 147.5 67.9999" stroke="#AAAAAA" stroke-width="2" stroke-linecap="round"/>
<path d="M147.498 68C147.259 68.6025 146.626 69.2761 145.498 69.5C143.99 69.7995 143.853 69.6719 142.998 69.0001" stroke="#AAAAAA" stroke-width="2" stroke-linecap="round"/>
<path d="M242.719 75.0001C249.219 82.9999 263.719 77.9999 267.719 67.9999" stroke="#AAAAAA" stroke-width="2" stroke-linecap="round"/>
<path d="M267.721 68C267.96 68.6025 268.593 69.2761 269.721 69.5C271.229 69.7995 271.366 69.6719 272.221 69.0001" stroke="#AAAAAA" stroke-width="2" stroke-linecap="round"/>
<path d="M201.139 72.3417C202.699 75.1692 205.191 77 208 77C210.809 77 213.301 75.1692 214.861 72.3417C215.204 71.72 214.723 71 214.013 71H201.987C201.277 71 200.796 71.72 201.139 72.3417Z" fill="#AAAAAA"/>
<rect x="180.5" y="88" width="8" height="8" rx="2" fill="#27ABA3"/>
<rect x="192.5" y="88" width="42" height="8" rx="2" fill="#E2E2E2"/>
<rect x="192.5" y="101" width="42" height="8" rx="2" fill="#E2E2E2"/>
<rect x="192.5" y="114" width="42" height="8" rx="2" fill="#94D5D2"/>
<rect x="180.5" y="101" width="8" height="8" rx="2" fill="#27ABA3"/>
<path fill-rule="evenodd" clip-rule="evenodd" d="M210.311 116.406L210.434 116.047C210.926 115.093 211.541 113.66 211.418 112.705C211.418 112.228 211.049 111.87 209.943 111.87C209.451 111.87 208.959 112.108 208.59 112.347C208.221 112.586 207.975 112.825 207.73 113.183C207.607 113.541 207.484 113.899 207.484 114.376C207.484 114.854 207.73 115.331 207.975 115.809C208.098 115.928 208.344 116.286 208.713 116.644C209.451 117.48 210.434 118.674 211.049 119.748C211.541 119.39 211.91 119.032 212.156 118.793C212.525 118.435 212.77 118.196 213.139 118.435C213.631 118.674 213.631 119.39 213.631 120.225C213.631 120.703 213.508 121.18 213.631 121.18C213.631 121.18 213.754 120.822 214.246 119.628C214.246 119.509 214.246 119.27 214.246 119.151C214.369 118.912 214.492 118.674 214.615 118.435C215.23 117.599 215.721 117.599 215.721 118.554C216.09 117.957 216.582 117.241 216.705 116.883C217.197 113.302 218.057 109.721 219.164 109.124C219.779 108.885 220.148 109.005 220.393 109.363C221.008 110.437 218.549 115.689 218.057 116.764L217.811 117.122C217.689 117.838 217.566 118.554 217.566 119.27C217.689 119.151 217.811 119.032 218.057 119.032C218.426 118.793 218.795 118.674 219.164 118.554C220.025 118.196 220.885 117.838 221.5 117.122C221.377 118.077 221.131 118.793 219.656 119.509C219.287 119.628 218.918 119.867 218.672 119.987C218.18 120.225 217.811 120.703 217.566 121.18V121.3L217.443 122.135C217.197 123.806 217.197 125 216.582 125C216.213 125 215.967 124.403 215.967 123.09C215.967 122.493 216.09 121.777 216.459 121.061L216.705 119.39C216.213 119.987 215.721 120.464 215.23 120.345C214.369 121.777 213.754 122.135 213.385 122.016C212.893 121.777 212.77 120.942 212.77 120.106C212.77 119.987 212.77 119.867 212.77 119.748C212.525 119.987 212.156 120.345 211.664 120.583C212.033 121.538 211.91 122.374 211.295 122.971C210.434 123.806 209.205 123.806 208.344 123.568C207.852 123.448 207.484 123.09 207.238 122.732C206.992 122.374 206.869 121.896 207.115 121.419C207.361 120.942 208.221 120.464 209.574 120.225C209.82 120.225 209.943 120.106 210.189 120.106C209.574 119.151 208.713 117.957 207.975 117.241C207.607 116.764 207.361 116.406 207.238 116.286C206.869 115.57 206.623 114.973 206.5 114.376C206.5 113.78 206.623 113.183 206.869 112.586C207.115 112.108 207.607 111.631 208.098 111.392C208.59 111.034 209.205 110.915 209.943 110.795C211.787 110.676 212.525 111.392 212.648 112.586C212.648 114.018 211.91 116.167 210.311 116.406ZM210.434 122.374C210.68 122.135 210.68 121.658 210.557 121.18C210.311 121.3 209.943 121.3 209.697 121.419C208.59 121.538 208.098 121.896 207.975 122.135C207.975 122.255 207.975 122.255 207.975 122.374C208.098 122.493 208.344 122.613 208.59 122.732C209.205 122.851 209.943 122.851 210.434 122.374ZM218.795 112.944C219.164 111.87 219.533 110.915 219.656 110.318C219.287 110.795 219.041 111.75 218.795 112.944Z" fill="#333333"/>
<path d="M78.5 86C78.5 85.4477 78.9477 85 79.5 85L108.086 85L116.5 93.4142V135C116.5 135.552 116.052 136 115.5 136H79.5C78.9477 136 78.5 135.552 78.5 135V86Z" fill="white" stroke="#CCCCCC" stroke-width="2"/>
<path d="M109.5 94C108.395 94 107.5 93.1046 107.5 92L107.5 84L108.269 84L117.5 93.2308L117.5 94L109.5 94Z" fill="#CCCCCC"/>
<rect x="89.5" y="128" width="5" height="5" rx="1" transform="rotate(180 89.5 128)" fill="#CCCCCC"/>
<rect x="110.5" y="128" width="17" height="5" rx="1" transform="rotate(180 110.5 128)" fill="#CCCCCC"/>
<rect x="89.5" y="119" width="5" height="5" rx="1" transform="rotate(180 89.5 119)" fill="#CCCCCC"/>
<rect x="110.5" y="119" width="17" height="5" rx="1" transform="rotate(180 110.5 119)" fill="#CCCCCC"/>
<path d="M296.5 43C296.5 42.4477 296.948 42 297.5 42L326.086 42L334.5 50.4142V92C334.5 92.5523 334.052 93 333.5 93H297.5C296.948 93 296.5 92.5523 296.5 92V43Z" fill="white" stroke="#CCCCCC" stroke-width="2"/>
<path d="M327.5 51C326.395 51 325.5 50.1046 325.5 49L325.5 41L326.269 41L335.5 50.2308L335.5 51L327.5 51Z" fill="#CCCCCC"/>
<rect x="307.5" y="85" width="5" height="5" rx="1" transform="rotate(180 307.5 85)" fill="#CCCCCC"/>
<rect x="318.5" y="85" width="6" height="5" rx="1" transform="rotate(180 318.5 85)" fill="#CCCCCC"/>
<rect x="328.5" y="85" width="5" height="5" rx="1" transform="rotate(180 328.5 85)" fill="#CCCCCC"/>
<rect x="328.5" y="76" width="26" height="5" rx="1" transform="rotate(180 328.5 76)" fill="#CCCCCC"/>
<path d="M130.621 96.2639C129.45 95.0923 129.45 93.1928 130.621 92.0213L131.521 91.1213C132.693 89.9497 134.592 89.9497 135.764 91.1213L151.581 106.939L152.678 110.698C153.12 112.213 151.713 113.62 150.198 113.178L146.439 112.081L130.621 96.2639Z" fill="#9ADAF3"/>
<path d="M276.006 105.121C277.177 103.95 279.077 103.95 280.248 105.121L281.148 106.021C282.32 107.193 282.32 109.092 281.148 110.264L265.331 126.081L261.572 127.178C260.056 127.62 258.65 126.213 259.092 124.698L260.188 120.939L276.006 105.121Z" fill="#FF6F3D"/>
<path d="M52.5 38C52.5 36.8954 53.3954 36 54.5 36H82.5C83.6046 36 84.5 36.8954 84.5 38V52C84.5 53.1046 83.6046 54 82.5 54H76.5V58L68.5 54H54.5C53.3954 54 52.5 53.1046 52.5 52V38Z" fill="#FF6F3D"/>
<circle cx="60.5" cy="45" r="2" fill="white"/>
<circle cx="68.5" cy="45" r="2" fill="white"/>
<circle cx="76.5" cy="45" r="2" fill="white"/>
<path d="M360.5 157C360.5 158.105 359.605 159 358.5 159H330.5C329.395 159 328.5 158.105 328.5 157V143C328.5 141.895 329.395 141 330.5 141H336.5V137L344.5 141H358.5C359.605 141 360.5 141.895 360.5 143V157Z" fill="#9ADAF3"/>
<circle cx="2" cy="2" r="2" transform="matrix(-1 0 0 1 354.5 148)" fill="white"/>
<circle cx="2" cy="2" r="2" transform="matrix(-1 0 0 1 346.5 148)" fill="white"/>
<circle cx="2" cy="2" r="2" transform="matrix(-1 0 0 1 338.5 148)" fill="white"/>
<defs>
<filter id="filter0_d_2495_114421" x="156.5" y="27" width="102" height="126" filterUnits="userSpaceOnUse" color-interpolation-filters="sRGB">
<feFlood flood-opacity="0" result="BackgroundImageFix"/>
<feColorMatrix in="SourceAlpha" type="matrix" values="0 0 0 0 0 0 0 0 0 0 0 0 0 0 0 0 0 0 127 0" result="hardAlpha"/>
<feOffset dy="7"/>
<feGaussianBlur stdDeviation="7.5"/>
<feColorMatrix type="matrix" values="0 0 0 0 0.333333 0 0 0 0 0.333333 0 0 0 0 0.333333 0 0 0 0.1 0"/>
<feBlend mode="normal" in2="BackgroundImageFix" result="effect1_dropShadow_2495_114421"/>
<feBlend mode="normal" in="SourceGraphic" in2="effect1_dropShadow_2495_114421" result="shape"/>
</filter>
</defs>
</svg>
