<svg width="416" height="200" viewBox="0 0 416 200" fill="none" xmlns="http://www.w3.org/2000/svg">
<rect width="416" height="200" rx="6" fill="#333333"/>
<ellipse cx="208.112" cy="118.623" rx="150" ry="28" transform="rotate(-8.00751 208.112 118.623)" stroke="#65C2E6" stroke-width="2" stroke-linecap="round" stroke-dasharray="6 6"/>
<ellipse cx="208" cy="172.5" rx="32" ry="2.5" fill="#444444"/>
<g filter="url(#filter0_d_546_3413)">
<path d="M171 37C171 35.8954 171.895 35 173 35H231L243 47V129C243 130.105 242.105 131 241 131H173C171.895 131 171 130.105 171 129V37Z" fill="#444444"/>
<path d="M172 37C172 36.4477 172.448 36 173 36H230.586L242 47.4142V129C242 129.552 241.552 130 241 130H173C172.448 130 172 129.552 172 129V37Z" stroke="#AAAAAA" stroke-width="2"/>
</g>
<path d="M231 35L243 47H232C231.448 47 231 46.5523 231 46V35Z" fill="#AAAAAA"/>
<path d="M200.832 62C200.832 59.7909 198.817 58 196.332 58C193.847 58 191.832 59.7909 191.832 62" stroke="#AAAAAA" stroke-width="2" stroke-linecap="round"/>
<path d="M222.725 62C222.725 59.7909 220.71 58 218.225 58C215.739 58 213.725 59.7909 213.725 62" stroke="#AAAAAA" stroke-width="2" stroke-linecap="round"/>
<path d="M172 75C165.5 82.9999 151 77.9999 147 67.9999" stroke="#AAAAAA" stroke-width="2" stroke-linecap="round"/>
<path d="M147 68C146.761 68.6024 146.128 69.2761 145 69.5C143.492 69.7995 143.355 69.6718 142.5 69" stroke="#AAAAAA" stroke-width="2" stroke-linecap="round"/>
<path d="M242.227 75C248.726 82.9999 263.226 77.9999 267.226 67.9999" stroke="#AAAAAA" stroke-width="2" stroke-linecap="round"/>
<path d="M267.227 68C267.466 68.6024 268.099 69.2761 269.227 69.5C270.735 69.7995 270.872 69.6718 271.727 69" stroke="#AAAAAA" stroke-width="2" stroke-linecap="round"/>
<path d="M200.639 72.3417C202.199 75.1692 204.691 77 207.5 77C210.309 77 212.801 75.1692 214.361 72.3417C214.704 71.72 214.223 71 213.513 71H201.487C200.777 71 200.296 71.72 200.639 72.3417Z" fill="#AAAAAA"/>
<rect x="180" y="88" width="8" height="8" rx="2" fill="#27ABA3"/>
<rect x="192" y="88" width="42" height="8" rx="2" fill="#666666"/>
<rect x="192" y="101" width="42" height="8" rx="2" fill="#666666"/>
<rect x="192" y="114" width="42" height="8" rx="2" fill="#27ABA3"/>
<rect x="180" y="101" width="8" height="8" rx="2" fill="#27ABA3"/>
<path fill-rule="evenodd" clip-rule="evenodd" d="M209.811 116.406L209.934 116.047C210.426 115.093 211.041 113.66 210.918 112.705C210.918 112.228 210.549 111.87 209.443 111.87C208.951 111.87 208.459 112.108 208.09 112.347C207.721 112.586 207.475 112.825 207.23 113.183C207.107 113.541 206.984 113.899 206.984 114.376C206.984 114.854 207.23 115.331 207.475 115.809C207.598 115.928 207.844 116.286 208.213 116.644C208.951 117.48 209.934 118.674 210.549 119.748C211.041 119.39 211.41 119.032 211.656 118.793C212.025 118.435 212.27 118.196 212.639 118.435C213.131 118.674 213.131 119.39 213.131 120.225C213.131 120.703 213.008 121.18 213.131 121.18C213.131 121.18 213.254 120.822 213.746 119.628C213.746 119.509 213.746 119.27 213.746 119.151C213.869 118.912 213.992 118.674 214.115 118.435C214.73 117.599 215.221 117.599 215.221 118.554C215.59 117.957 216.082 117.241 216.205 116.883C216.697 113.302 217.557 109.721 218.664 109.124C219.279 108.885 219.648 109.005 219.893 109.363C220.508 110.437 218.049 115.689 217.557 116.764L217.311 117.122C217.189 117.838 217.066 118.554 217.066 119.27C217.189 119.151 217.311 119.032 217.557 119.032C217.926 118.793 218.295 118.674 218.664 118.554C219.525 118.196 220.385 117.838 221 117.122C220.877 118.077 220.631 118.793 219.156 119.509C218.787 119.628 218.418 119.867 218.172 119.987C217.68 120.225 217.311 120.703 217.066 121.18V121.3L216.943 122.135C216.697 123.806 216.697 125 216.082 125C215.713 125 215.467 124.403 215.467 123.09C215.467 122.493 215.59 121.777 215.959 121.061L216.205 119.39C215.713 119.987 215.221 120.464 214.73 120.345C213.869 121.777 213.254 122.135 212.885 122.016C212.393 121.777 212.27 120.942 212.27 120.106C212.27 119.987 212.27 119.867 212.27 119.748C212.025 119.987 211.656 120.345 211.164 120.583C211.533 121.538 211.41 122.374 210.795 122.971C209.934 123.806 208.705 123.806 207.844 123.568C207.352 123.448 206.984 123.09 206.738 122.732C206.492 122.374 206.369 121.896 206.615 121.419C206.861 120.942 207.721 120.464 209.074 120.225C209.32 120.225 209.443 120.106 209.689 120.106C209.074 119.151 208.213 117.957 207.475 117.241C207.107 116.764 206.861 116.406 206.738 116.286C206.369 115.57 206.123 114.973 206 114.376C206 113.78 206.123 113.183 206.369 112.586C206.615 112.108 207.107 111.631 207.598 111.392C208.09 111.034 208.705 110.915 209.443 110.795C211.287 110.676 212.025 111.392 212.148 112.586C212.148 114.018 211.41 116.167 209.811 116.406ZM209.934 122.374C210.18 122.135 210.18 121.658 210.057 121.18C209.811 121.3 209.443 121.3 209.197 121.419C208.09 121.538 207.598 121.896 207.475 122.135C207.475 122.255 207.475 122.255 207.475 122.374C207.598 122.493 207.844 122.613 208.09 122.732C208.705 122.851 209.443 122.851 209.934 122.374ZM218.295 112.944C218.664 111.87 219.033 110.915 219.156 110.318C218.787 110.795 218.541 111.75 218.295 112.944Z" fill="#CCCCCC"/>
<path d="M78 86C78 85.4477 78.4477 85 79 85L107.586 85L116 93.4142V135C116 135.552 115.552 136 115 136H79C78.4477 136 78 135.552 78 135V86Z" fill="#444444" stroke="#CCCCCC" stroke-width="2"/>
<path d="M109 94C107.895 94 107 93.1046 107 92L107 84L107.769 84L117 93.2308L117 94L109 94Z" fill="#CCCCCC"/>
<rect x="89" y="128" width="5" height="5" rx="1" transform="rotate(180 89 128)" fill="#666666"/>
<rect x="110" y="128" width="17" height="5" rx="1" transform="rotate(180 110 128)" fill="#666666"/>
<rect x="89" y="119" width="5" height="5" rx="1" transform="rotate(180 89 119)" fill="#666666"/>
<rect x="110" y="119" width="17" height="5" rx="1" transform="rotate(180 110 119)" fill="#666666"/>
<path d="M296 43C296 42.4477 296.448 42 297 42L325.586 42L334 50.4142V92C334 92.5523 333.552 93 333 93H297C296.448 93 296 92.5523 296 92V43Z" fill="#444444" stroke="#CCCCCC" stroke-width="2"/>
<path d="M327 51C325.895 51 325 50.1046 325 49L325 41L325.769 41L335 50.2308L335 51L327 51Z" fill="#CCCCCC"/>
<rect x="307" y="85" width="5" height="5" rx="1" transform="rotate(180 307 85)" fill="#666666"/>
<rect x="318" y="85" width="6" height="5" rx="1" transform="rotate(180 318 85)" fill="#666666"/>
<rect x="328" y="85" width="5" height="5" rx="1" transform="rotate(180 328 85)" fill="#666666"/>
<rect x="328" y="76" width="26" height="5" rx="1" transform="rotate(180 328 76)" fill="#666666"/>
<path d="M130.121 96.2639C128.95 95.0923 128.95 93.1928 130.121 92.0213L131.021 91.1213C132.193 89.9497 134.092 89.9497 135.264 91.1213L151.081 106.939L152.178 110.698C152.62 112.213 151.213 113.62 149.698 113.178L145.939 112.081L130.121 96.2639Z" fill="#65C2E6"/>
<path d="M275.506 105.121C276.678 103.95 278.577 103.95 279.749 105.121L280.649 106.021C281.82 107.193 281.82 109.092 280.649 110.264L264.831 126.081L261.072 127.178C259.557 127.62 258.15 126.213 258.592 124.698L259.689 120.939L275.506 105.121Z" fill="#FF6F3D"/>
<path d="M52 38C52 36.8954 52.8954 36 54 36H82C83.1046 36 84 36.8954 84 38V52C84 53.1046 83.1046 54 82 54H76V58L68 54H54C52.8954 54 52 53.1046 52 52V38Z" fill="#FF6F3D"/>
<circle cx="60" cy="45" r="2" fill="#333333"/>
<circle cx="68" cy="45" r="2" fill="#333333"/>
<circle cx="76" cy="45" r="2" fill="#333333"/>
<path d="M360 157C360 158.105 359.105 159 358 159H330C328.895 159 328 158.105 328 157V143C328 141.895 328.895 141 330 141H336V137L344 141H358C359.105 141 360 141.895 360 143V157Z" fill="#65C2E6"/>
<circle cx="2" cy="2" r="2" transform="matrix(-1 0 0 1 354 148)" fill="#333333"/>
<circle cx="2" cy="2" r="2" transform="matrix(-1 0 0 1 346 148)" fill="#333333"/>
<circle cx="2" cy="2" r="2" transform="matrix(-1 0 0 1 338 148)" fill="#333333"/>
<defs>
<filter id="filter0_d_546_3413" x="156" y="27" width="102" height="126" filterUnits="userSpaceOnUse" color-interpolation-filters="sRGB">
<feFlood flood-opacity="0" result="BackgroundImageFix"/>
<feColorMatrix in="SourceAlpha" type="matrix" values="0 0 0 0 0 0 0 0 0 0 0 0 0 0 0 0 0 0 127 0" result="hardAlpha"/>
<feOffset dy="7"/>
<feGaussianBlur stdDeviation="7.5"/>
<feColorMatrix type="matrix" values="0 0 0 0 0.333333 0 0 0 0 0.333333 0 0 0 0 0.333333 0 0 0 0.1 0"/>
<feBlend mode="normal" in2="BackgroundImageFix" result="effect1_dropShadow_546_3413"/>
<feBlend mode="normal" in="SourceGraphic" in2="effect1_dropShadow_546_3413" result="shape"/>
</filter>
</defs>
</svg>
