<svg width="12" height="12" viewBox="0 0 12 12" fill="none" xmlns="http://www.w3.org/2000/svg">
<path d="M11.2116 1.67921C11.19 1.52449 11.0787 1.39722 10.9282 1.35539L6.10521 0.0141088C6.03646 -0.00502845 5.96383 -0.00502845 5.89502 0.0141088L1.07201 1.35539C0.921527 1.39722 0.810207 1.52444 0.788664 1.67921C0.76069 1.88036 0.12252 6.63309 1.75938 8.99743C3.39431 11.3589 5.80618 11.9641 5.90804 11.9887C5.93831 11.9961 5.96916 11.9997 6.00012 11.9997C6.03107 11.9997 6.06192 11.996 6.09219 11.9887C6.1941 11.9641 8.60597 11.3589 10.2408 8.99743C11.8777 6.63314 11.2395 1.88041 11.2116 1.67921ZM9.11034 4.4539L5.82056 7.74368C5.74401 7.82023 5.64362 7.85855 5.54328 7.85855C5.44294 7.85855 5.34255 7.82028 5.266 7.74368L3.23196 5.70964C3.15839 5.63612 3.11708 5.53636 3.11708 5.43236C3.11708 5.32836 3.15844 5.22859 3.23196 5.15508L3.63583 4.75121C3.78898 4.59811 4.03729 4.59806 4.19039 4.75121L5.54328 6.1041L8.15191 3.49542C8.22542 3.42185 8.32519 3.38054 8.42919 3.38054C8.53319 3.38054 8.63295 3.42185 8.70647 3.49542L9.11034 3.89929C9.26349 4.05244 9.26349 4.30075 9.11034 4.4539Z" fill="#35AD17"/>
</svg>
