<svg width="14" height="14" viewBox="0 0 14 14" fill="none" xmlns="http://www.w3.org/2000/svg">
<path d="M12.7068 2.61025L12.7068 2.61035C12.7226 2.72404 12.893 3.99303 12.8503 5.54093C12.8084 7.06348 12.5591 8.97176 11.6519 10.282C9.91208 12.7952 7.35275 13.4402 7.20965 13.4748L7.20891 13.4749C7.14062 13.4913 7.0706 13.4997 7.00012 13.4997C6.9302 13.4997 6.85988 13.4915 6.79053 13.4747C6.64754 13.4402 4.08821 12.7952 2.34829 10.282L2.75938 9.99743L2.34829 10.282C1.44115 8.97174 1.19185 7.06344 1.1499 5.54089C1.10726 3.99299 1.27762 2.72401 1.29343 2.61033L1.29344 2.61028C1.34242 2.25835 1.59557 1.96889 1.93804 1.87367L12.7068 2.61025ZM12.7068 2.61025C12.6578 2.25845 12.4047 1.96891 12.0622 1.87367C12.0622 1.87367 12.0621 1.87366 12.0621 1.87365L7.23928 0.532418C7.23927 0.532415 7.23926 0.532412 7.23925 0.532409C7.23923 0.532403 7.2392 0.532396 7.23918 0.53239C7.08271 0.48886 6.91744 0.488896 6.76105 0.53239C6.76105 0.532391 6.76105 0.532391 6.76104 0.532392L1.9381 1.87365L12.7068 2.61025ZM6.18973 7.45765L6.54328 7.81121L6.89684 7.45765L9.42919 4.92524L9.68054 5.17659L6.54328 8.31385L4.66178 6.43236L4.91311 6.18103L6.18973 7.45765ZM9.35279 4.84885L9.35291 4.84897C9.35287 4.84893 9.35283 4.84889 9.35279 4.84885ZM4.58551 6.35608C4.58553 6.3561 4.58554 6.35611 4.58555 6.35612L4.58551 6.35608ZM4.83678 6.1047L4.83684 6.10476C4.83682 6.10474 4.8368 6.10472 4.83678 6.1047Z" fill="#35AD17" stroke="white"/>
</svg>
