<svg width="16" height="16" viewBox="0 0 16 16" fill="none" xmlns="http://www.w3.org/2000/svg">
<path fill-rule="evenodd" clip-rule="evenodd" d="M1 1L2 2L4 0L5 1L2 4L0 2L1 1ZM7 1C6.44772 1 6 1.44772 6 2C6 2.55228 6.44772 3 7 3L15 3C15.5523 3 16 2.55228 16 2C16 1.44772 15.5523 1 15 1L7 1ZM6 8C6 7.44772 6.44772 7 7 7L15 7C15.5523 7 16 7.44772 16 8C16 8.55229 15.5523 9 15 9L7 9C6.44772 9 6 8.55229 6 8ZM7 13C6.44772 13 6 13.4477 6 14C6 14.5523 6.44772 15 7 15L15 15C15.5523 15 16 14.5523 16 14C16 13.4477 15.5523 13 15 13L7 13ZM0 8C0 6.89543 0.895431 6 2 6C3.10457 6 4 6.89543 4 8C4 9.10457 3.10457 10 2 10C0.895431 10 0 9.10457 0 8ZM2 12C0.895431 12 0 12.8954 0 14C0 15.1046 0.895431 16 2 16C3.10457 16 4 15.1046 4 14C4 12.8954 3.10457 12 2 12Z" fill="#657077"/>
</svg>
