<svg width="12" height="12" viewBox="0 0 12 12" fill="none" xmlns="http://www.w3.org/2000/svg">
<g clip-path="url(#clip0_460_7581)">
<path d="M11 10.0005H10L10 8.6933C10 8.4113 9.88094 8.14241 9.67214 7.95287L7.90499 6.34875C7.68563 6.14962 7.68653 5.80451 7.90694 5.60654L9.66826 4.02456C9.87942 3.8349 10 3.56443 10 3.2806V2.00049H11V0.000488281L1.00001 -0.0234375C1.00001 0.476562 1.00002 1.50049 1.00002 2.00049H2.00004V3.2806C2.00004 3.56444 2.12066 3.8349 2.33182 4.02456L4.0931 5.60654C4.3135 5.80451 4.31441 6.14962 4.09505 6.34874L2.32789 7.95286C2.11908 8.1424 2.00001 8.4113 2.00001 8.6933L2.00002 10.0005H1V11.9766L11 12.0005V10.0005ZM4.00001 9.41495C4.00001 9.04745 4.39306 8.70248 4.65307 8.44247L5.73497 7.50049C5.88155 7.354 6.11903 7.354 6.26552 7.50049L7.34752 8.44247C7.60753 8.70248 8.00001 9.04745 8.00001 9.41495L8.00002 10.0005H4.00002L4.00001 9.41495Z" fill="#657077"/>
</g>
<defs>
<clipPath id="clip0_460_7581">
<rect width="12" height="12" fill="white"/>
</clipPath>
</defs>
</svg>
