<svg width="21" height="20" viewBox="0 0 21 20" fill="none" xmlns="http://www.w3.org/2000/svg">
<g clip-path="url(#clip0_617_152)">
<path fill-rule="evenodd" clip-rule="evenodd" d="M18.585 16.2043C19.855 15.2932 20.6667 13.9468 20.6667 12.4496C20.6667 9.70731 17.9692 7.48367 14.6425 7.48367C11.3158 7.48367 8.61832 9.70731 8.61832 12.4496C8.61832 15.1926 11.3158 17.4163 14.6425 17.4163C15.33 17.4163 15.9933 17.3198 16.6092 17.1442L16.7858 17.1178C16.9017 17.1178 17.0067 17.1533 17.1058 17.2093L18.425 17.9629L18.5408 18C18.6517 18 18.7417 17.911 18.7417 17.8013L18.7092 17.6562L18.4375 16.6544L18.4167 16.5275C18.4167 16.3939 18.4833 16.276 18.585 16.2043ZM7.89582 2C3.90332 2 0.666656 4.66804 0.666656 7.96022C0.666656 9.75595 1.63999 11.3728 3.16416 12.4652C3.28666 12.551 3.36666 12.6928 3.36666 12.8536L3.34166 13.0053L3.01582 14.2074L2.97666 14.3813C2.97666 14.5132 3.08499 14.6204 3.21749 14.6204L3.35749 14.5759L4.93999 13.6714C5.05832 13.6038 5.18416 13.5618 5.32332 13.5618L5.53582 13.5931C6.27416 13.8034 7.07082 13.9204 7.89582 13.9204L8.29249 13.9105C8.13582 13.4455 8.04999 12.9558 8.04999 12.4504C8.04999 9.44842 11.0017 7.01453 14.6425 7.01453L15.035 7.02443C14.4908 4.17747 11.5017 2 7.89582 2ZM12.6342 11.6556C12.1908 11.6556 11.8317 11.2994 11.8317 10.8608C11.8317 10.4213 12.1908 10.066 12.6342 10.066C13.0783 10.066 13.4375 10.4213 13.4375 10.8608C13.4375 11.2994 13.0783 11.6556 12.6342 11.6556ZM16.6508 11.6556C16.2067 11.6556 15.8475 11.2994 15.8475 10.8608C15.8475 10.4213 16.2067 10.066 16.6508 10.066C17.0942 10.066 17.4533 10.4213 17.4533 10.8608C17.4533 11.2994 17.0942 11.6556 16.6508 11.6556ZM5.48582 7.00629C4.95332 7.00629 4.52249 6.5792 4.52249 6.05318C4.52249 5.52633 4.95332 5.09925 5.48582 5.09925C6.01832 5.09925 6.44999 5.52633 6.44999 6.05318C6.44999 6.5792 6.01832 7.00629 5.48582 7.00629ZM10.305 7.00629C9.77249 7.00629 9.34166 6.5792 9.34166 6.05318C9.34166 5.52633 9.77249 5.09925 10.305 5.09925C10.8375 5.09925 11.2692 5.52633 11.2692 6.05318C11.2692 6.5792 10.8375 7.00629 10.305 7.00629Z" fill="#51C332"/>
</g>
<defs>
<clipPath id="clip0_617_152">
<rect width="20" height="20" fill="white" transform="translate(0.666656)"/>
</clipPath>
</defs>
</svg>
