<svg width="16" height="16" viewBox="0 0 16 16" fill="none" xmlns="http://www.w3.org/2000/svg">
<g clip-path="url(#clip0_460_8356)">
<path fill-rule="evenodd" clip-rule="evenodd" d="M11.4997 7.08616L13.2927 5.2932C14.0068 4.57915 14.0068 3.42145 13.2927 2.70741C12.5787 1.99336 11.421 1.99336 10.7069 2.70741L8.91005 4.50428L8.91121 4.50191L8.91169 4.5003L8.91143 4.49929L8.91003 4.49644L8.90606 4.5003L7.49583 5.91053C6.71698 5.13168 6.71698 3.86892 7.49583 3.09007L9.29271 1.2932C10.7878 -0.201898 13.2118 -0.201899 14.7069 1.2932C16.202 2.78829 16.202 5.21232 14.7069 6.70741L12.914 8.50038C12.1329 9.28139 10.8667 9.28138 10.0857 8.50038L11.4997 7.08616ZM4.49989 8.91444L2.70692 10.7074C1.99288 11.4215 1.99288 12.5791 2.70692 13.2932C3.42097 14.0072 4.57866 14.0072 5.29271 13.2932L7.08958 11.4963L7.08842 11.4987L7.08793 11.5003L7.08819 11.5013L7.0896 11.5042L7.09356 11.5003L8.5038 10.0901C9.28264 10.8689 9.28265 12.1317 8.5038 12.9105L6.70692 14.7074C5.21183 16.2025 2.7878 16.2025 1.29271 14.7074C-0.202387 13.2123 -0.202386 10.7883 1.29271 9.29319L3.08568 7.50023C3.86668 6.71922 5.13295 6.71922 5.91395 7.50023L4.49989 8.91444ZM5.70692 11.7074L11.7069 5.70741L10.2927 4.29319L4.29271 10.2932L5.70692 11.7074Z" fill="#657077"/>
</g>
<defs>
<clipPath id="clip0_460_8356">
<rect width="15.9999" height="16" fill="white"/>
</clipPath>
</defs>
</svg>
