<svg width="16" height="16" viewBox="0 0 16 16" fill="none" xmlns="http://www.w3.org/2000/svg">
<g clip-path="url(#clip0_4524_2506)">
<path fill-rule="evenodd" clip-rule="evenodd" d="M11.5002 7.08616L13.2932 5.2932C14.0072 4.57915 14.0072 3.42145 13.2932 2.70741C12.5792 1.99336 11.4215 1.99336 10.7074 2.70741L8.91053 4.50428L8.9117 4.50191L8.91218 4.5003L8.91192 4.49929L8.91052 4.49644L8.90655 4.5003L7.49632 5.91053C6.71747 5.13168 6.71747 3.86892 7.49632 3.09007L9.2932 1.2932C10.7883 -0.201898 13.2123 -0.201899 14.7074 1.2932C16.2025 2.78829 16.2025 5.21232 14.7074 6.70741L12.9144 8.50038C12.1334 9.28139 10.8672 9.28138 10.0862 8.50038L11.5002 7.08616ZM4.50038 8.91444L2.70741 10.7074C1.99336 11.4215 1.99336 12.5791 2.70741 13.2932C3.42145 14.0072 4.57915 14.0072 5.2932 13.2932L7.09007 11.4963L7.08891 11.4987L7.08842 11.5003L7.08868 11.5013L7.09009 11.5042L7.09405 11.5003L8.50428 10.0901C9.28313 10.8689 9.28314 12.1317 8.50428 12.9105L6.70741 14.7074C5.21232 16.2025 2.78829 16.2025 1.2932 14.7074C-0.201899 13.2123 -0.201898 10.7883 1.2932 9.29319L3.08616 7.50023C3.86717 6.71922 5.13343 6.71922 5.91444 7.50023L4.50038 8.91444ZM5.70741 11.7074L11.7074 5.70741L10.2932 4.29319L4.2932 10.2932L5.70741 11.7074Z" fill="#657077"/>
</g>
<defs>
<clipPath id="clip0_4524_2506">
<rect width="16" height="16" fill="white"/>
</clipPath>
</defs>
</svg>
