<svg width="32" height="32" viewBox="0 0 32 32" fill="none" xmlns="http://www.w3.org/2000/svg">
<path fill-rule="evenodd" clip-rule="evenodd" d="M6 32C2.68629 32 0 29.3137 0 26V19C1.10457 19 2 19.8954 2 21V26C2 28.2091 3.79086 30 6 30H11C12.1046 30 13 30.8954 13 32H6ZM32 19C30.8954 19 30 19.8954 30 21V26C30 28.2091 28.2091 30 26 30H21C19.8954 30 19 30.8954 19 32H26C29.3137 32 32 29.3137 32 26V19ZM19 0C19 1.10457 19.8954 2 21 2H26C28.2091 2 30 3.79086 30 6V11C30 12.1046 30.8954 13 32 13V6C32 2.68629 29.3137 0 26 0H19ZM0 13C1.10457 13 2 12.1046 2 11V6C2 3.79086 3.79086 2 6 2H11C12.1046 2 13 1.10457 13 0H6C2.68629 0 0 2.68629 0 6V13Z" fill="#FF6680"/>
</svg>
