<svg width="12" height="13" viewBox="0 0 12 13" fill="none" xmlns="http://www.w3.org/2000/svg">
<path d="M6 0.5C9.31371 0.5 12 3.18629 12 6.5C12 9.81371 9.31371 12.5 6 12.5C2.68629 12.5 0 9.81371 0 6.5C0 3.18629 2.68629 0.5 6 0.5ZM9.62402 3.71875C9.21976 3.39574 8.64197 3.43726 8.28711 3.79883L8.21875 3.875L5.7168 7.00195L4.20703 5.49316L4.13086 5.42383C3.73811 5.10382 3.15897 5.12719 2.79297 5.49316C2.42691 5.85932 2.40418 6.43831 2.72461 6.83105L2.79297 6.90723L4.69727 8.8125C5.32943 9.44467 6.3712 9.38659 6.92969 8.68848L9.78027 5.125C10.1253 4.69374 10.0553 4.06376 9.62402 3.71875Z" fill="#4781D1"/>
</svg>
