<svg width="16" height="16" viewBox="0 0 16 16" fill="none" xmlns="http://www.w3.org/2000/svg">
<rect x="1" y="1" width="6" height="3" rx="1" fill="#A3A9AE"/>
<path fill-rule="evenodd" clip-rule="evenodd" d="M3 7V9H5V7H3ZM2 5C1.44772 5 1 5.44772 1 6V10C1 10.5523 1.44772 11 2 11H6C6.55228 11 7 10.5523 7 10V6C7 5.44772 6.55228 5 6 5H2Z" fill="#A3A9AE"/>
<rect x="9" y="1" width="6" height="3" rx="1" fill="#A3A9AE"/>
<path fill-rule="evenodd" clip-rule="evenodd" d="M11 7V13H13V7H11ZM10 5C9.44772 5 9 5.44772 9 6V14C9 14.5523 9.44772 15 10 15H14C14.5523 15 15 14.5523 15 14V6C15 5.44772 14.5523 5 14 5H10Z" fill="#A3A9AE"/>
</svg>
