<svg width="16" height="16" viewBox="0 0 16 16" fill="none" xmlns="http://www.w3.org/2000/svg">
<g clip-path="url(#clip0_2763_45328)">
<path fill-rule="evenodd" clip-rule="evenodd" d="M2.33724 13.6372C1.61662 12.9134 1.04754 12.071 0.63 11.11C0.21 10.1433 0 9.10667 0 8C0 6.89333 0.21 5.85667 0.63 4.89C1.05 3.92333 1.62333 3.07667 2.35 2.35C3.07667 1.62333 3.92667 1.05 4.9 0.63C5.87333 0.21 6.90667 0 8 0C9.10667 0 10.1433 0.21 11.11 0.63C12.0767 1.05 12.9233 1.62333 13.65 2.35C14.3767 3.07667 14.95 3.92333 15.37 4.89C15.79 5.85667 16 6.89333 16 8C16 9.10667 15.79 10.1433 15.37 11.11C14.95 12.0767 14.3767 12.9233 13.65 13.65C12.9233 14.3767 12.0733 14.95 11.1 15.37C10.1267 15.79 9.09333 16 8 16C6.89333 16 5.85667 15.79 4.89 15.37C3.929 14.9525 3.08659 14.3834 2.36279 13.6628C2.35852 13.6585 2.35426 13.6543 2.35 13.65C2.34574 13.6457 2.34149 13.6415 2.33724 13.6372ZM5.29 12.67C5.47 13.1433 5.68 13.6 5.92 14.04C5.87333 14.025 5.82699 14.0095 5.78098 13.9935C5.09074 13.7537 4.47375 13.4025 3.93 12.94C3.8575 12.8783 3.78651 12.8153 3.71703 12.7509C3.23068 12.3003 2.81833 11.7833 2.48 11.2H4.84C4.96 11.7067 5.11 12.1967 5.29 12.67ZM4.43 8.81C4.45 9.07 4.48 9.33333 4.52 9.6H1.8C1.73333 9.33333 1.68333 9.07 1.65 8.81C1.64583 8.7775 1.64193 8.74484 1.63828 8.71203C1.61276 8.48234 1.6 8.245 1.6 8C1.6 7.79748 1.60872 7.60018 1.62616 7.40812C1.63466 7.33968 1.64594 7.2703 1.66 7.2H1.64873C1.64915 7.19666 1.64957 7.19333 1.65 7.19C1.68333 6.93 1.73333 6.66667 1.8 6.4H4.52C4.48 6.66667 4.45 6.93 4.43 7.19C4.42974 7.19333 4.42949 7.19666 4.42924 7.2H4.42C4.40667 7.33333 4.4 7.46333 4.4 7.59L4.4 8C4.4 8.28 4.41 8.55 4.43 8.81ZM8.8 13.0595C8.8341 12.9933 8.86744 12.9268 8.9 12.86C9.15333 12.34 9.36 11.7867 9.52 11.2H6.48C6.62 11.7133 6.79573 12.2011 7.00719 12.6634C7.0374 12.7295 7.06833 12.795 7.1 12.86C7.32167 13.315 7.57906 13.7547 7.87219 14.1791C7.91406 14.2397 7.95667 14.3 8 14.36C8 14.36 8 14.36 8 14.36C8.14666 14.1467 8.28667 13.93 8.42 13.71C8.55333 13.49 8.68 13.2667 8.8 13.04V13.0595ZM9.88 9.6C9.92 9.33333 9.95 9.07 9.97 8.81C9.99 8.55 10 8.28 10 8C10 7.72 9.99 7.45 9.97 7.19C9.95 6.93 9.92 6.66667 9.88 6.4H6.12C6.08 6.66667 6.05 6.93 6.03 7.19C6.01 7.45 6 7.72 6 8C6 8.245 6.00766 8.48234 6.02297 8.71203C6.02516 8.74484 6.0275 8.7775 6.03 8.81C6.05 9.07 6.08 9.33333 6.12 9.6H9.88ZM9.52 4.8C9.36 4.21333 9.15333 3.66 8.9 3.14C8.64667 2.62 8.34667 2.12 8 1.64C7.85333 1.85333 7.71333 2.07 7.58 2.29C7.44667 2.51 7.32 2.73333 7.2 2.96V2.94048C7.1659 3.00665 7.13256 3.07316 7.1 3.14C6.84667 3.66 6.64 4.21333 6.48 4.8H9.52ZM11.5708 8.8C11.5705 8.80334 11.5703 8.80667 11.57 8.81C11.55 9.07 11.52 9.33333 11.48 9.6H14.2C14.2667 9.33333 14.3167 9.07 14.35 8.81C14.3504 8.80667 14.3509 8.80334 14.3513 8.8H14.34C14.3541 8.7297 14.3653 8.66032 14.3738 8.59187C14.3913 8.39981 14.4 8.20252 14.4 8C14.4 7.72 14.3833 7.45 14.35 7.19C14.3167 6.93 14.2667 6.66667 14.2 6.4H11.48C11.515 6.63333 11.5423 6.86411 11.562 7.09234C11.5648 7.12495 11.5675 7.1575 11.57 7.19C11.59 7.45 11.6 7.72 11.6 8V8.41C11.6 8.53667 11.5933 8.66667 11.58 8.8H11.5708ZM4.84 4.8H2.48C2.86667 4.13333 3.35 3.55333 3.93 3.06C4.51 2.56667 5.17333 2.2 5.92 1.96C5.68 2.4 5.47 2.85667 5.29 3.33C5.11 3.80333 4.96 4.29333 4.84 4.8ZM12.07 3.06C12.65 3.55333 13.1333 4.13333 13.52 4.8H11.16C11.04 4.29333 10.89 3.80333 10.71 3.33C10.6987 3.30042 10.6874 3.2709 10.6759 3.24145C10.5036 2.79965 10.305 2.3725 10.08 1.96C10.8267 2.2 11.49 2.56667 12.07 3.06ZM11.16 11.2H13.52C13.1333 11.8667 12.65 12.4467 12.07 12.94C11.49 13.4333 10.8267 13.8 10.08 14.04C10.32 13.6 10.53 13.1433 10.71 12.67C10.89 12.1967 11.04 11.7067 11.16 11.2Z" fill="#333333"/>
</g>
<defs>
<clipPath id="clip0_2763_45328">
<rect width="16" height="16" fill="white"/>
</clipPath>
</defs>
</svg>
