<svg width="334" height="200" viewBox="0 0 334 200" fill="none" xmlns="http://www.w3.org/2000/svg">
<rect width="334" height="200" fill="#333333"/>
<path fill-rule="evenodd" clip-rule="evenodd" d="M100.132 115.668L15.4134 76.5187C8.19554 73.0999 8.19554 67.8169 15.4134 64.7136L100.132 25.5641C107.35 22.1453 118.959 22.1453 125.863 25.5641L210.587 64.7136C217.804 68.1324 217.804 73.4154 210.587 76.5187L125.863 115.668C118.645 118.777 107.036 118.777 100.132 115.668Z" fill="#31434A"/>
<path fill-rule="evenodd" clip-rule="evenodd" d="M209.132 138.668L124.413 99.5187C117.196 96.0999 117.196 90.8169 124.413 87.7136L209.132 48.5641C216.35 45.1453 227.959 45.1453 234.863 48.5641L319.587 87.7136C326.804 91.1324 326.804 96.4154 319.587 99.5187L234.863 138.668C227.645 141.777 216.036 141.777 209.132 138.668Z" fill="#31434A"/>
<path fill-rule="evenodd" clip-rule="evenodd" d="M139.132 169.668L54.4134 130.519C47.1955 127.1 47.1955 121.817 54.4134 118.714L139.132 79.5641C146.35 76.1453 157.959 76.1453 164.863 79.5641L249.587 118.714C256.804 122.132 256.804 127.415 249.587 130.519L164.863 169.668C157.645 172.777 146.036 172.777 139.132 169.668Z" fill="#31434A"/>
<path d="M90.3711 89.5H239.629C241.761 89.5 243.5 91.2517 243.5 93.4287V192.5H86.5V93.4287C86.5002 91.2517 88.2385 89.5 90.3711 89.5Z" fill="#444444" stroke="#AAAAAA" stroke-miterlimit="10"/>
<path d="M261.5 192.5V195.341C261.499 195.365 261.498 195.405 261.493 195.457C261.484 195.562 261.462 195.719 261.413 195.909C261.315 196.29 261.107 196.807 260.666 197.327C259.796 198.354 257.928 199.5 253.871 199.5H76.0352C72.0739 199.5 70.2265 198.357 69.3555 197.327C68.9138 196.805 68.7001 196.286 68.5967 195.903C68.545 195.712 68.5209 195.555 68.5098 195.449C68.5042 195.396 68.5019 195.356 68.501 195.332C68.5005 195.321 68.5001 195.313 68.5 195.309V192.5H261.5Z" fill="#444444" stroke="#AAAAAA" stroke-miterlimit="10"/>
<path d="M261.457 195.5C261.448 195.554 261.44 195.613 261.427 195.674C261.336 196.086 261.139 196.639 260.71 197.194C259.868 198.285 258.038 199.5 254 199.5H76C72.0577 199.5 70.2222 198.289 69.3545 197.19C68.913 196.632 68.6993 196.075 68.5957 195.66C68.5817 195.604 68.5727 195.55 68.5625 195.5H261.457Z" fill="#333333" stroke="#AAAAAA" stroke-miterlimit="10"/>
<path d="M94.1982 93.5H236.802C237.734 93.5 238.5 94.2664 238.5 95.2246V179.775C238.5 180.734 237.734 181.5 236.802 181.5H94.1982C93.2662 181.5 92.5002 180.734 92.5 179.775V95.2246C92.5002 94.2664 93.2662 93.5 94.1982 93.5Z" fill="#333333" stroke="#676767" stroke-miterlimit="10"/>
<path d="M236.187 124.216C266.058 108.707 284.382 90.5672 281.75 76.0795C277.615 53.3212 223.333 48.1896 160.512 64.6197C97.6912 81.0498 50.1159 112.819 54.2503 135.577C55.7216 143.676 63.5436 149.543 75.8411 153" stroke="#9ADAF3" stroke-linecap="round" stroke-linejoin="round"/>
<path d="M165 59.5C190.129 59.5 210.5 79.871 210.5 105C210.5 130.129 190.129 150.5 165 150.5C139.871 150.5 119.5 130.129 119.5 105C119.5 79.871 139.871 59.5 165 59.5Z" fill="#5EA3BE" stroke="#9ADAF3" stroke-linecap="round" stroke-linejoin="round"/>
<path fill-rule="evenodd" clip-rule="evenodd" d="M130.76 75.5547C137.43 80.6051 155.126 80.0266 163.641 79.1101C174.407 77.9531 184.03 74.0754 194 70" fill="#5EA3BE"/>
<path d="M130.76 75.5547C137.43 80.6051 155.126 80.0266 163.641 79.1101C174.407 77.9531 184.03 74.0754 194 70" stroke="#9ADAF3" stroke-linecap="round" stroke-linejoin="round"/>
<path fill-rule="evenodd" clip-rule="evenodd" d="M139.002 67.7416C149.428 70.4499 177.534 75.7404 185.561 64.5957L139.002 67.7416Z" fill="#5EA3BE"/>
<path d="M139.002 67.7416C149.428 70.4499 177.534 75.7404 185.561 64.5957" stroke="#9ADAF3" stroke-linecap="round" stroke-linejoin="round"/>
<path d="M126.094 81.372C134.408 83.92 143.22 84.2905 151.922 84.6349C160.288 84.9729 168.712 85.3044 177 84.1345C185.289 82.9645 193.042 80.7713 199.499 75.5" stroke="#9ADAF3" stroke-linecap="round" stroke-linejoin="round"/>
<path fill-rule="evenodd" clip-rule="evenodd" d="M120 101.999C128.56 106.179 137.327 106.409 146.831 106.032C156.336 105.655 165.698 103.614 174.924 101.274C180.916 99.753 186.907 98.0955 193.06 97.4715C199.207 96.8475 204.371 96.9188 210 99.4993" fill="#5EA3BE"/>
<path d="M120 101.999C128.56 106.179 137.327 106.409 146.831 106.032C156.336 105.655 165.698 103.614 174.924 101.274C180.916 99.753 186.907 98.0955 193.06 97.4715C199.207 96.8475 204.371 96.9188 210 99.4993" stroke="#9ADAF3" stroke-linecap="round" stroke-linejoin="round"/>
<path fill-rule="evenodd" clip-rule="evenodd" d="M123.5 123.499C132.81 127.906 138.99 128.902 149.219 127.778C159.448 126.653 169.477 124.079 179.687 122.799C189.896 121.518 196.002 121.528 205.5 125.499" fill="#5EA3BE"/>
<path d="M123.5 123.499C132.81 127.906 138.99 128.902 149.219 127.778C159.448 126.653 169.477 124.079 179.687 122.799C189.896 121.518 196.002 121.528 205.5 125.499" stroke="#9ADAF3" stroke-linecap="round" stroke-linejoin="round"/>
<path fill-rule="evenodd" clip-rule="evenodd" d="M132.5 136.596C139.373 140.79 146.247 140.226 154.283 139.474C160.55 138.887 166.788 137.923 172.942 136.596C177.388 135.638 181.815 134.481 186.35 134.175C190.884 133.876 194.124 133.682 198 136.038" fill="#5EA3BE"/>
<path d="M132.5 136.596C139.373 140.79 146.247 140.226 154.283 139.474C160.55 138.887 166.788 137.923 172.942 136.596C177.388 135.638 181.815 134.481 186.35 134.175C190.884 133.876 194.124 133.682 198 136.038" stroke="#9ADAF3" stroke-linecap="round" stroke-linejoin="round"/>
<path d="M109 44.6253C68.3165 41.7119 39.2763 49.0236 36.2575 65.6285C31.7456 90.446 87.0693 126.624 159.831 146.436C232.592 166.247 295.231 162.189 299.743 137.371V137.378C302.447 122.503 283.656 103.545 252.5 86.4767" stroke="#9ADAF3" stroke-linecap="round" stroke-linejoin="round"/>
<path fill-rule="evenodd" clip-rule="evenodd" d="M56 32.4615L80.9731 25L91.2843 59.8315L73.689 65.0884L64.1883 60.1196L56 32.4615Z" fill="#5EA3BE" stroke="#9ADAF3" stroke-linecap="round" stroke-linejoin="round"/>
<path d="M73.4629 65.1606L71.3841 58.1367L64.2324 60.2749L73.4629 65.1606Z" fill="#297C9D" stroke="#9ADAF3" stroke-linecap="round" stroke-linejoin="round"/>
<path d="M78.4911 30.7654L60.9395 36.0117L61.7619 38.7885L79.3135 33.5421L78.4911 30.7654Z" stroke="#9ADAF3" stroke-linecap="round" stroke-linejoin="round"/>
<path d="M80.0341 35.9538L62.4824 41.2002L63.3049 43.977L80.8565 38.7306L80.0341 35.9538Z" stroke="#9ADAF3" stroke-linecap="round" stroke-linejoin="round"/>
<path d="M67.2276 45.4395L64.0195 46.3984L64.842 49.1752L68.05 48.2163L67.2276 45.4395Z" stroke="#9ADAF3" stroke-linecap="round" stroke-linejoin="round"/>
<path d="M68.7647 50.627L65.5566 51.5859L66.3791 54.3627L69.5871 53.4038L68.7647 50.627Z" stroke="#9ADAF3" stroke-linecap="round" stroke-linejoin="round"/>
<path d="M70.1113 46.0882L81.9775 42.543" stroke="#9ADAF3" stroke-linecap="round" stroke-linejoin="round"/>
<path d="M71.6484 51.2841L83.5147 47.7334" stroke="#9ADAF3" stroke-linecap="round" stroke-linejoin="round"/>
<path d="M73.2539 56.6907L85.1201 53.1455" stroke="#9ADAF3" stroke-linecap="round" stroke-linejoin="round"/>
<path d="M311.831 142.179C312.746 142.653 313.103 143.779 312.631 144.712C312.331 145.3 312.039 145.874 311.903 146.132L305.304 158.867C304.989 159.477 304.247 159.714 303.64 159.406L274.615 144.224C274.036 143.923 273.801 143.219 274.065 142.617L281.55 125.742C281.842 125.089 282.614 124.809 283.242 125.139L289.806 128.576C290.427 128.899 290.913 129.437 291.177 130.09L291.934 131.955L311.831 142.186V142.179Z" fill="#297C9D" stroke="#9ADAF3" stroke-linecap="round" stroke-linejoin="round"/>
<path d="M277.022 130.169L269.051 151.485C268.909 151.865 269.073 152.288 269.423 152.475L300.326 168.64C300.69 168.833 301.14 168.704 301.362 168.353L313.31 149.117C313.553 148.723 313.417 148.199 313.01 147.984L278.129 129.738C277.707 129.516 277.186 129.724 277.022 130.169Z" fill="#5EA3BE" stroke="#9ADAF3" stroke-linecap="round" stroke-linejoin="round"/>
<path fill-rule="evenodd" clip-rule="evenodd" d="M266.012 68.0493L241 60.8814L250.909 26L268.532 31.0519L273.88 40.3525L266.012 68.0493Z" fill="#5EA3BE" stroke="#9ADAF3" stroke-linecap="round" stroke-linejoin="round"/>
<path d="M268.758 31.1133L266.762 38.1483L273.924 40.1978L268.758 31.1133Z" fill="#297C9D" stroke="#9ADAF3" stroke-linecap="round" stroke-linejoin="round"/>
<path d="M250.832 36.8516L269.966 42.3355" stroke="#9ADAF3" stroke-linecap="round" stroke-linejoin="round"/>
<path d="M249.844 40.3301L268.977 45.814" stroke="#9ADAF3" stroke-linecap="round" stroke-linejoin="round"/>
<path d="M248.857 43.8037L267.991 49.2877" stroke="#9ADAF3" stroke-linecap="round" stroke-linejoin="round"/>
<path d="M247.871 47.2822L267.005 52.7662" stroke="#9ADAF3" stroke-linecap="round" stroke-linejoin="round"/>
<path d="M246.883 50.7559L266.017 56.2398" stroke="#9ADAF3" stroke-linecap="round" stroke-linejoin="round"/>
<path d="M245.896 54.2344L265.03 59.7183" stroke="#9ADAF3" stroke-linecap="round" stroke-linejoin="round"/>
<path d="M64.3321 145.146L59.2316 155.571L41.1346 161.753C40.4784 161.974 39.7671 161.625 39.541 160.966L28.0663 127.087C27.8457 126.428 28.1931 125.714 28.8493 125.486L53.4915 117.067C54.1477 116.845 54.859 117.194 55.0851 117.853L64.3266 145.146H64.3321Z" fill="#5EA3BE" stroke="#9ADAF3" stroke-linecap="round" stroke-linejoin="round"/>
<path d="M52.0401 121.869L32.9395 128.397L36.9338 140.192L56.0345 133.663L52.0401 121.869Z" fill="#5EA3BE" stroke="#9ADAF3" stroke-linecap="round" stroke-linejoin="round"/>
<path d="M56.8877 136.175L37.7871 142.703L41.7815 154.497L60.8821 147.969L56.8877 136.175Z" fill="#5EA3BE" stroke="#9ADAF3" stroke-linecap="round" stroke-linejoin="round"/>
<path d="M59.2373 155.565L56.6016 147.787L64.3433 145.14L59.2373 155.565Z" fill="#297C9D" stroke="#9ADAF3" stroke-linecap="round" stroke-linejoin="round"/>
<path d="M50.0772 125.431L36.6875 130.008L37.3748 132.037L50.7646 127.461L50.0772 125.431Z" fill="#5EA3BE" stroke="#9ADAF3" stroke-linecap="round" stroke-linejoin="round"/>
<path d="M51.4757 129.546L38.0859 134.123L38.7733 136.153L52.163 131.576L51.4757 129.546Z" fill="#5EA3BE" stroke="#9ADAF3" stroke-linecap="round" stroke-linejoin="round"/>
<path d="M43.125 150.691L45.4795 146.32L48.3523 147.151L51.6111 141.451L57.9302 145.633L43.125 150.691Z" fill="#5EA3BE" stroke="#9ADAF3" stroke-linecap="round" stroke-linejoin="round"/>
<path d="M46.5768 144.442C47.2772 144.442 47.8451 143.871 47.8451 143.168C47.8451 142.464 47.2772 141.894 46.5768 141.894C45.8764 141.894 45.3086 142.464 45.3086 143.168C45.3086 143.871 45.8764 144.442 46.5768 144.442Z" fill="#5EA3BE" stroke="#9ADAF3" stroke-linecap="round" stroke-linejoin="round"/>
<path fill-rule="evenodd" clip-rule="evenodd" d="M165.416 34.7117L154.696 29.774C153.784 29.3406 153.784 28.6767 154.696 28.2872L158.428 26.5645L165.378 29.7795C166.29 30.2129 167.76 30.2129 168.634 29.7795L175.585 26.5645L179.316 28.2872C180.229 28.7206 180.229 29.3844 179.316 29.774L168.596 34.7117C167.76 35.1012 166.29 35.1012 165.422 34.7117H165.416Z" fill="#FF6F3D"/>
<path fill-rule="evenodd" clip-rule="evenodd" d="M165.377 28.6381L154.684 23.7004C153.772 23.267 153.772 22.6031 154.684 22.2136L158.329 20.5293L165.377 23.7827C166.29 24.2161 167.754 24.2161 168.623 23.7827L175.671 20.5293L179.316 22.2136C180.228 22.647 180.228 23.3109 179.316 23.7004L168.623 28.6381C167.71 29.0716 166.246 29.0716 165.377 28.6381Z" fill="#95C038"/>
<path fill-rule="evenodd" clip-rule="evenodd" d="M165.377 22.6912L154.684 17.7535C153.772 17.3201 153.772 16.6562 154.684 16.2667L165.377 11.329C166.29 10.8956 167.754 10.8956 168.623 11.329L179.316 16.2667C180.228 16.7001 180.228 17.364 179.316 17.7535L168.623 22.6912C167.71 23.0808 166.246 23.0808 165.377 22.6912Z" fill="#5DC0E8"/>
<path d="M29.5955 40.1679C29.638 40.7093 29.0883 41.1008 28.5906 40.8836L23.1653 38.5157C22.6528 38.2921 22.5803 37.5948 23.0357 37.2705L27.9972 33.737C28.4527 33.4126 29.0879 33.7091 29.1317 34.2666L29.5955 40.1679Z" fill="#F36700"/>
<path d="M19.0388 174.984C18.6768 175.388 18.014 175.261 17.8272 174.751L15.7913 169.193C15.599 168.668 16.053 168.134 16.6022 168.239L22.5845 169.385C23.1337 169.491 23.3581 170.155 22.9853 170.571L19.0388 174.984Z" fill="#95C03D"/>
<path d="M306.985 28.4876C306.562 28.8284 305.929 28.5958 305.827 28.0624L304.717 22.2478C304.613 21.6985 305.147 21.2449 305.672 21.4376L311.39 23.5369C311.915 23.7296 312.029 24.4212 311.594 24.7722L306.985 28.4876Z" fill="#95C038"/>
<path d="M229.876 33.0997C229.79 33.636 229.164 33.8875 228.731 33.5596L224.013 29.9847C223.567 29.647 223.66 28.9522 224.179 28.7438L229.831 26.4733C230.35 26.2649 230.898 26.7022 230.81 27.2543L229.876 33.0997Z" fill="#5FC1E8"/>
</svg>
