<svg width="42" height="42" viewBox="0 0 42 42" fill="none" xmlns="http://www.w3.org/2000/svg">
<rect width="42" height="42" rx="4" fill="#676767" fill-opacity="0.15"/>
<g clip-path="url(#clip0_1983_51314)">
<path d="M21 12C16.0375 12 12 16.0375 12 21C12 25.9625 16.0375 30 21 30C25.9625 30 30 25.9625 30 21C30 16.0375 25.9625 12 21 12ZM21 29.25C16.4509 29.25 12.75 25.5491 12.75 21C12.75 16.4509 16.4509 12.75 21 12.75C25.5491 12.75 29.25 16.4509 29.25 21C29.25 25.5491 25.5491 29.25 21 29.25Z" fill="#676767"/>
<path d="M14.1305 18C13.7273 18.9196 13.5 19.9332 13.5 21C13.5 24.0368 15.3174 26.6519 17.9187 27.8303L14.4576 18H14.1305Z" fill="#676767"/>
<path d="M17.9999 17.625C17.9999 17.8323 17.8322 18 17.6249 18H17.4086L19.5113 24.5229C19.8945 23.4301 20.2888 22.2945 20.5948 21.3876L19.4021 18H19.1249C18.9176 18 18.7499 17.8323 18.7499 17.625C18.7499 17.4177 18.9176 17.25 19.1249 17.25H22.4999C22.7072 17.25 22.8749 17.4177 22.8749 17.625C22.8749 17.8323 22.7072 18 22.4999 18H22.3532L24.4559 24.5229C24.8916 23.2808 25.3447 21.9752 25.6618 21.0231C25.8057 20.3035 25.2472 19.3993 24.7514 18.5969C24.3658 17.9725 24.0325 17.4331 24.0325 16.9728C24.0325 15.5684 24.8499 15.3585 25.337 15.3585C25.6306 15.3585 25.8991 15.4371 26.1458 15.5583C24.8013 14.2862 22.9926 13.5 20.9999 13.5C18.231 13.5 15.8138 15.012 14.5146 17.25H17.6249C17.8322 17.25 17.9999 17.4177 17.9999 17.625Z" fill="#676767"/>
<path d="M18.999 28.2206C19.6373 28.3978 20.3065 28.4999 21.0004 28.4999C21.6942 28.4999 22.3631 28.3978 23.0012 28.2207L20.998 22.5312C20.2816 24.617 19.3288 27.2959 18.999 28.2206Z" fill="#676767"/>
<path d="M27.0925 16.6426C27.3991 17.6018 27.0229 19.2346 26.6243 20.494C26.5595 20.6995 26.4789 20.9456 26.387 21.222C26.3782 21.2598 26.3683 21.2975 26.357 21.3352C26.3486 21.3641 26.3365 21.3916 26.3218 21.4169C25.6831 23.3217 24.5809 26.4317 24.083 27.8301C26.6837 26.6514 28.5004 24.0367 28.5004 21.0005C28.5004 19.3747 27.9749 17.8725 27.0925 16.6426Z" fill="#676767"/>
<path d="M21 12C16.0375 12 12 16.0375 12 21C12 25.9625 16.0375 30 21 30C25.9625 30 30 25.9625 30 21C30 16.0375 25.9625 12 21 12Z" fill="url(#paint0_linear_1983_51314)"/>
</g>
<defs>
<linearGradient id="paint0_linear_1983_51314" x1="12.8437" y1="17.1966" x2="29.1563" y2="24.8034" gradientUnits="userSpaceOnUse">
<stop stop-color="white" stop-opacity="0.2"/>
<stop offset="1" stop-color="white" stop-opacity="0"/>
</linearGradient>
<clipPath id="clip0_1983_51314">
<rect width="18" height="18" fill="white" transform="translate(12 12)"/>
</clipPath>
</defs>
</svg>
