<svg width="160" height="40" viewBox="0 0 160 40" fill="none" xmlns="http://www.w3.org/2000/svg">
<path d="M81.5082 11.5078H83.3457L79.6898 25.2125H77.8906L74.943 16.1781H74.8664L71.9187 25.2125H70.1195L66.3105 11.5078H68.148L71.0383 22.284H71.1148L74.0816 13.3453H75.7277L78.6945 22.284H78.7711L81.5082 11.5078Z" fill="#5F6368"/>
<path d="M83.1797 20.523C83.1797 19.0814 83.6327 17.8883 84.5387 16.9438C85.4574 15.9995 86.6122 15.5273 88.0031 15.5273C89.394 15.5273 90.5425 15.9995 91.4484 16.9438C92.3672 17.8883 92.8266 19.0814 92.8266 20.523C92.8266 21.9777 92.3672 23.1708 91.4484 24.1023C90.5422 25.0469 89.3937 25.519 88.0031 25.5188C86.6125 25.5185 85.4577 25.046 84.5387 24.1012C83.6324 23.1572 83.1794 21.9641 83.1797 20.5219M84.9406 20.5219C84.9406 21.5302 85.2341 22.3469 85.8211 22.9719C86.4081 23.5969 87.1354 23.9094 88.0031 23.9094C88.8708 23.9094 89.5982 23.5969 90.1852 22.9719C90.7721 22.3469 91.0656 21.5302 91.0656 20.5219C91.0656 19.5266 90.7721 18.7163 90.1852 18.091C89.5862 17.4533 88.8589 17.1342 88.0031 17.134C87.1474 17.1337 86.4198 17.4531 85.8203 18.0922C85.2331 18.7172 84.9396 19.5275 84.9398 20.523" fill="#5F6368"/>
<path d="M95.8371 25.2133H94.0762V15.8344H95.7605V17.3656H95.8387C96.0173 16.868 96.3842 16.4436 96.9394 16.0926C97.4947 15.7415 98.0401 15.5661 98.5758 15.5664C99.0859 15.5664 99.5198 15.643 99.8773 15.7961L99.3398 17.5004C99.1227 17.4113 98.7781 17.3667 98.3062 17.3664C97.6427 17.3664 97.0654 17.6344 96.5742 18.1703C96.0831 18.7062 95.8374 19.3312 95.8371 20.0453V25.2133Z" fill="#5F6368"/>
<path d="M108.941 25.2125H106.816L103.888 20.791L102.452 22.2074V25.2125H100.691V11.5078H102.452V19.9488L106.51 15.8336H108.769V15.9102L105.113 19.5469L108.941 25.1359V25.2125Z" fill="#5F6368"/>
<path d="M116.56 22.6096C116.56 23.4265 116.202 24.1156 115.488 24.6768C114.773 25.238 113.874 25.5187 112.789 25.5189C111.845 25.5189 111.015 25.2732 110.301 24.7818C109.601 24.3092 109.066 23.6302 108.77 22.8393L110.339 22.1693C110.569 22.7311 110.904 23.168 111.344 23.4803C111.764 23.7863 112.27 23.9505 112.789 23.949C113.351 23.949 113.82 23.8278 114.196 23.5854C114.571 23.3429 114.76 23.0558 114.76 22.724C114.76 22.1251 114.301 21.6848 113.382 21.4033L111.774 21.0014C109.95 20.542 109.038 19.6613 109.038 18.3592C109.038 17.5045 109.385 16.8186 110.081 16.3014C110.776 15.7842 111.666 15.5258 112.751 15.5264C113.58 15.5264 114.33 15.7242 115 16.1197C115.67 16.5153 116.139 17.0449 116.406 17.7084L114.837 18.3592C114.657 17.9622 114.351 17.6357 113.966 17.4307C113.553 17.2046 113.088 17.0893 112.617 17.0959C112.181 17.0894 111.752 17.209 111.382 17.4404C111.018 17.6701 110.836 17.9508 110.836 18.2826C110.836 18.8186 111.34 19.2014 112.348 19.4311L113.764 19.7947C115.627 20.2541 116.559 21.1916 116.559 22.6072" fill="#5F6368"/>
<path d="M122.675 25.5188C121.986 25.5188 121.358 25.372 120.79 25.0785C120.222 24.785 119.785 24.3958 119.479 23.9109H119.401L119.479 25.2125V29.3469H117.718V15.8336H119.402V17.1352H119.48C119.787 16.6505 120.224 16.2613 120.792 15.9676C121.36 15.6738 121.988 15.5271 122.677 15.5273C123.914 15.5273 124.961 16.0122 125.816 16.982C126.696 17.9648 127.137 19.1452 127.137 20.523C127.137 21.9142 126.696 23.0945 125.816 24.0641C124.961 25.0339 123.915 25.5188 122.677 25.5188M122.39 23.9109C123.232 23.9109 123.94 23.5919 124.514 22.9539C125.087 22.3289 125.374 21.5186 125.374 20.523C125.374 19.5408 125.087 18.7305 124.514 18.0922C123.941 17.4539 123.233 17.1349 122.39 17.1352C121.535 17.1352 120.82 17.4542 120.246 18.0922C119.684 18.7305 119.403 19.5408 119.404 20.523C119.404 21.5184 119.684 22.335 120.246 22.973C120.819 23.598 121.533 23.9105 122.39 23.9105" fill="#5F6368"/>
<path d="M131.959 15.5277C133.261 15.5277 134.288 15.8754 135.041 16.5707C135.793 17.266 136.169 18.2199 136.17 19.4324V25.2137H134.486V23.9113H134.407C133.68 24.9832 132.71 25.5191 131.498 25.5191C130.464 25.5191 129.6 25.2129 128.904 24.6004C128.209 23.9879 127.861 23.2223 127.861 22.3035C127.861 21.334 128.228 20.562 128.962 19.9875C129.695 19.413 130.675 19.1259 131.9 19.1262C132.946 19.1262 133.807 19.3176 134.484 19.7004V19.2969C134.484 18.6844 134.242 18.1643 133.757 17.7367C133.29 17.3162 132.681 17.0873 132.053 17.0957C131.07 17.0957 130.292 17.5104 129.718 18.3398L128.168 17.3633C129.022 16.1393 130.285 15.5273 131.957 15.5273M129.681 22.3438C129.681 22.8031 129.876 23.1859 130.265 23.4922C130.654 23.7984 131.11 23.9516 131.632 23.9516C132.372 23.9516 133.032 23.6772 133.613 23.1285C134.194 22.5798 134.484 21.9354 134.484 21.1953C133.935 20.7617 133.169 20.5448 132.187 20.5445C131.472 20.5445 130.876 20.7168 130.397 21.0613C129.919 21.4059 129.68 21.8333 129.681 22.3438Z" fill="#5F6368"/>
<path d="M142.14 25.5188C140.749 25.5188 139.594 25.0466 138.675 24.1023C137.769 23.1328 137.316 21.9397 137.316 20.523C137.316 19.0814 137.769 17.8883 138.675 16.9438C139.594 15.9995 140.749 15.5273 142.14 15.5273C143.097 15.5273 143.933 15.7665 144.647 16.2449C145.362 16.7233 145.898 17.3837 146.255 18.2262L144.649 18.8961C144.151 17.7221 143.277 17.1352 142.027 17.1352C141.223 17.1352 140.527 17.4607 139.94 18.1117C139.366 18.7628 139.079 19.5667 139.079 20.5234C139.079 21.4802 139.366 22.2841 139.94 22.9352C140.527 23.5862 141.222 23.9117 142.027 23.9117C143.315 23.9117 144.221 23.3247 144.745 22.1508L146.314 22.8207C145.97 23.6629 145.43 24.3232 144.696 24.8016C143.963 25.2799 143.111 25.5193 142.141 25.5195" fill="#5F6368"/>
<path d="M151.616 25.5188C150.238 25.5188 149.102 25.0466 148.209 24.1023C147.316 23.1581 146.869 21.965 146.869 20.523C146.869 19.0941 147.303 17.9042 148.171 16.9531C149.038 16.0021 150.149 15.5268 151.501 15.5273C152.892 15.5273 153.999 15.9771 154.821 16.8766C155.644 17.776 156.056 19.0362 156.055 20.657L156.036 20.8484H148.668C148.694 21.7672 149.001 22.5073 149.587 23.0688C150.174 23.6302 150.875 23.9109 151.693 23.9109C152.815 23.9109 153.696 23.3495 154.334 22.2266L155.904 22.9922C155.503 23.7615 154.897 24.4044 154.152 24.8488C153.405 25.2952 152.56 25.5185 151.616 25.5188ZM148.804 19.3938H154.18C154.128 18.7427 153.863 18.2035 153.386 17.7762C152.908 17.3488 152.267 17.1352 151.462 17.1352C150.798 17.1352 150.227 17.3393 149.749 17.7477C149.27 18.156 148.955 18.7047 148.802 19.3938" fill="#5F6368"/>
<path d="M7.90625 19.2023V17.0828H15C15.0788 17.5115 15.1171 17.9466 15.1145 18.3824C15.1145 19.9715 14.6797 21.9395 13.2785 23.3395C11.9164 24.7586 10.1762 25.5156 7.86836 25.5156C3.59375 25.5156 0 22.034 0 17.7578C0 13.4816 3.59375 10 7.86914 10C10.2344 10 11.9172 10.9273 13.1848 12.1383L11.6902 13.6328C10.7812 12.7816 9.55273 12.1191 7.86914 12.1191C4.74805 12.1191 2.30781 14.6355 2.30781 17.7578C2.30781 20.8801 4.74805 23.3984 7.86914 23.3984C9.89336 23.3984 11.0473 22.5848 11.7848 21.8469C12.3859 21.2457 12.782 20.3832 12.9355 19.2043L7.90625 19.2023Z" fill="#4285F4"/>
<path d="M25.9234 20.5207C25.9234 23.3988 23.6719 25.516 20.9109 25.516C18.15 25.516 15.8984 23.3988 15.8984 20.5207C15.8984 17.6258 18.1496 15.5254 20.9117 15.5254C23.6738 15.5254 25.9242 17.6258 25.9242 20.5207M23.7301 20.5207C23.7301 18.7238 22.425 17.4934 20.9117 17.4934C19.3984 17.4934 18.093 18.723 18.093 20.5207C18.093 22.2992 19.398 23.548 20.9117 23.548C22.4254 23.548 23.7301 22.298 23.7301 20.5207Z" fill="#EA4335"/>
<path d="M36.8594 20.5207C36.8594 23.3988 34.6098 25.516 31.8469 25.516C29.084 25.516 26.834 23.3988 26.834 20.5207C26.834 17.6258 29.0848 15.5254 31.8469 15.5254C34.609 15.5254 36.8594 17.6258 36.8594 20.5207ZM34.6652 20.5207C34.6652 18.7238 33.3602 17.4934 31.8469 17.4934C30.3336 17.4934 29.0281 18.723 29.0281 20.5207C29.0281 22.2992 30.3332 23.548 31.8469 23.548C33.3605 23.548 34.6652 22.298 34.6652 20.5207Z" fill="#FBBC04"/>
<path d="M47.3412 15.8281V24.7969C47.3412 28.4867 45.1658 30.0004 42.5932 30.0004C40.1713 30.0004 38.715 28.373 38.1666 27.0488L40.0783 26.2539C40.4186 27.0676 41.2502 28.0324 42.5943 28.0324C44.24 28.0324 45.2615 27.0105 45.2615 25.0996V24.3809H45.1857C44.6939 24.9863 43.7482 25.516 42.5564 25.516C40.0592 25.516 37.7705 23.3398 37.7705 20.5398C37.7705 17.7203 40.0592 15.5254 42.5564 15.5254C43.7482 15.5254 44.6939 16.0551 45.1857 16.6418H45.2615V15.8281H47.3412ZM45.4115 20.5398C45.4115 18.7801 44.2396 17.493 42.7443 17.493C41.2311 17.493 39.9635 18.7797 39.9635 20.5398C39.9635 22.2805 41.2311 23.5477 42.7443 23.5477C44.2389 23.5477 45.4115 22.2801 45.4115 20.5398Z" fill="#4285F4"/>
<path d="M51.0574 10.5791H48.8633V25.2131H51.0574V10.5791Z" fill="#34A853"/>
<path d="M59.5309 22.1668L61.2332 23.302C60.6863 24.1156 59.3605 25.516 57.0715 25.516C54.234 25.516 52.1152 23.3211 52.1152 20.5207C52.1152 17.552 54.2531 15.5254 56.8254 15.5254C59.4172 15.5254 60.6844 17.5879 61.1008 18.7043L61.3277 19.2719L54.648 22.0344C55.159 23.0371 55.9535 23.548 57.0699 23.548C58.1863 23.548 58.9617 23.0012 59.5309 22.1668ZM54.2906 20.3699L58.7551 18.516C58.509 17.891 57.7715 17.4566 56.9012 17.4566C55.7852 17.4566 54.234 18.4406 54.2906 20.3707" fill="#EA4335"/>
</svg>
