<svg width="170" height="40" viewBox="0 0 170 40" fill="none" xmlns="http://www.w3.org/2000/svg">
<path fill-rule="evenodd" clip-rule="evenodd" d="M9.3248 29.7552L0.559975 25.6377C-0.186658 25.2782 -0.186658 24.7227 0.559975 24.3959L3.61143 22.958L9.29234 25.6377C10.039 25.9971 11.2401 25.9971 11.9542 25.6377L17.6352 22.958L20.6866 24.3959C21.4332 24.7553 21.4332 25.3109 20.6866 25.6377L11.9218 29.7552C11.2401 30.0819 10.039 30.0819 9.3248 29.7552Z" fill="#FF6F3D"/>
<path fill-rule="evenodd" clip-rule="evenodd" d="M9.29639 24.66L0.558269 20.5377C-0.18609 20.1779 -0.18609 19.6217 0.558269 19.2945L3.5357 17.8877L9.29639 20.6032C10.0408 20.9631 11.2382 20.9631 11.9502 20.6032L17.7109 17.8877L20.6883 19.2945C21.4327 19.6544 21.4327 20.2106 20.6883 20.5377L11.9502 24.66C11.2058 25.0199 10.0084 25.0199 9.29639 24.66Z" fill="#95C038"/>
<path fill-rule="evenodd" clip-rule="evenodd" d="M9.29639 19.6173L0.558269 15.5543C-0.18609 15.1996 -0.18609 14.6515 0.558269 14.329L9.29639 10.266C10.0408 9.91132 11.2382 9.91132 11.9502 10.266L20.6883 14.329C21.4327 14.6837 21.4327 15.2319 20.6883 15.5543L11.9502 19.6173C11.2058 19.9398 10.0084 19.9398 9.29639 19.6173Z" fill="#5DC0E8"/>
<path d="M31.5723 14.8887C29.0435 14.8887 26.5586 16.3735 26.5586 19.9998C26.5586 23.6261 29.0435 25.1109 31.5723 25.1109C34.101 25.1109 36.586 23.6261 36.586 19.9998C36.586 16.3735 34.101 14.8887 31.5723 14.8887ZM31.5723 16.3164C32.347 16.3164 34.3934 16.6162 34.3934 19.9998C34.3934 23.3834 32.347 23.6832 31.5723 23.6832C30.7976 23.6832 28.7512 23.3834 28.7512 19.9998C28.7512 16.6162 30.7976 16.3164 31.5723 16.3164Z" fill="#333333"/>
<path d="M38.2723 15.0029V24.9967H40.3479V19.1146L40.3041 17.3443H40.3479L40.8595 18.4579L44.4261 24.9967H47.1157V15.0029H45.04V20.8849L45.0839 22.6553H45.04L44.4992 21.299L40.9618 15.0029H38.2723Z" fill="#333333"/>
<path d="M49.1638 15.0029V24.9967H55.303V23.312H51.2394V15.0029H49.1638Z" fill="#333333"/>
<path d="M53.5489 15.0029L57.3202 20.9135V24.9967H59.3958V20.942L63.0793 15.0029H60.8867L58.7672 18.515L58.4164 19.2003H58.3726L58.051 18.515L55.9461 15.0029H53.5489Z" fill="#333333"/>
<path d="M67.9153 14.8887C65.3865 14.8887 62.9016 16.3735 62.9016 19.9998C62.9016 23.6261 65.3865 25.1109 67.9153 25.1109C70.4441 25.1109 72.929 23.6261 72.929 19.9998C72.929 16.3735 70.4441 14.8887 67.9153 14.8887ZM67.9153 16.3164C68.69 16.3164 70.7364 16.6162 70.7364 19.9998C70.7364 23.3834 68.69 23.6832 67.9153 23.6832C67.1406 23.6832 65.0942 23.3834 65.0942 19.9998C65.0942 16.6162 67.1406 16.3164 67.9153 16.3164Z" fill="#333333"/>
<path d="M74.6153 15.0029V24.9967H76.691V20.7564H80.1698V19.1146H76.691V16.6876H80.3452V15.0029H74.6153Z" fill="#333333"/>
<path d="M81.8097 15.0029V24.9967H83.8853V20.7564H87.3642V19.1146H83.8853V16.6876H87.5396V15.0029H81.8097Z" fill="#333333"/>
<path d="M89.0041 24.9967H91.0797V15.0029H89.0041V24.9967Z" fill="#333333"/>
<path d="M100.599 22.9836C100.087 23.2121 99.3709 23.4262 98.4647 23.4262C96.6229 23.4262 94.9566 22.4411 94.9566 20.0283C94.9566 17.9867 96.3159 16.5733 98.6108 16.5733C99.3856 16.5733 100.043 16.7161 100.643 16.9445L100.73 15.2313C99.9556 14.9886 99.2686 14.8887 98.4647 14.8887C95.2489 14.8887 92.764 16.6162 92.764 20.0569C92.764 23.6975 95.5412 25.1109 98.0846 25.1109C98.9032 25.1109 99.8241 24.9824 100.73 24.6826L100.599 22.9836Z" fill="#333333"/>
<path d="M102.337 15.0029V24.9967H108.446V23.2263H104.412V20.6708H108.081V19.029H104.412V16.7732H108.446V15.0029H102.337Z" fill="#333333"/>
<path d="M120.869 25.3221H119.996L118.463 20.4357C118.39 20.2194 118.308 19.9465 118.218 19.6171C118.128 19.2876 118.082 19.0897 118.078 19.0231C118.002 19.4623 117.881 19.9432 117.714 20.4656L116.228 25.3221H115.355L113.333 18.0248H114.269L115.469 22.532C115.635 23.1642 115.757 23.7366 115.833 24.249C115.926 23.6401 116.065 23.0444 116.249 22.4621L117.61 18.0248H118.546L119.975 22.5021C120.141 23.0178 120.282 23.6001 120.396 24.249C120.462 23.7765 120.587 23.2008 120.77 22.522L121.966 18.0248H122.901L120.869 25.3221Z" fill="#333333"/>
<path d="M128.665 22.5819C128.665 23.4737 128.431 24.1708 127.963 24.6733C127.496 25.1724 126.849 25.422 126.025 25.422C125.515 25.422 125.063 25.3072 124.668 25.0776C124.273 24.848 123.968 24.5185 123.754 24.0893C123.539 23.66 123.431 23.1576 123.431 22.5819C123.431 21.6901 123.664 20.9963 124.128 20.5005C124.592 20.0014 125.237 19.7518 126.061 19.7518C126.858 19.7518 127.49 20.0064 127.958 20.5155C128.429 21.0246 128.665 21.7134 128.665 22.5819ZM124.325 22.5819C124.325 23.2807 124.471 23.8131 124.762 24.1791C125.053 24.5452 125.481 24.7282 126.046 24.7282C126.61 24.7282 127.038 24.5468 127.329 24.1841C127.624 23.8181 127.771 23.284 127.771 22.5819C127.771 21.8865 127.624 21.359 127.329 20.9997C127.038 20.637 126.607 20.4556 126.035 20.4556C125.47 20.4556 125.044 20.6336 124.757 20.9897C124.469 21.3457 124.325 21.8765 124.325 22.5819Z" fill="#333333"/>
<path d="M132.568 19.7518C132.821 19.7518 133.048 19.7718 133.249 19.8117L133.13 20.5804C132.894 20.5305 132.686 20.5055 132.506 20.5055C132.045 20.5055 131.65 20.6852 131.321 21.0446C130.995 21.404 130.832 21.8515 130.832 22.3873V25.3221H129.97V19.8517H130.682L130.78 20.8649H130.822C131.033 20.5089 131.288 20.2343 131.586 20.0413C131.884 19.8483 132.211 19.7518 132.568 19.7518Z" fill="#333333"/>
<path d="M134.954 22.522C135.103 22.319 135.33 22.0528 135.635 21.7234L137.475 19.8517H138.498L136.191 22.1826L138.66 25.3221H137.615L135.604 22.7366L134.954 23.2757V25.3221H134.102V17.5557H134.954V21.6735C134.954 21.8565 134.94 22.1394 134.912 22.522H134.954Z" fill="#333333"/>
<path d="M143.155 23.8297C143.155 24.3389 142.958 24.7315 142.563 25.0077C142.168 25.2839 141.614 25.422 140.9 25.422C140.144 25.422 139.555 25.3072 139.133 25.0776V24.3089C139.406 24.442 139.699 24.5468 140.011 24.6234C140.326 24.6999 140.63 24.7382 140.921 24.7382C141.371 24.7382 141.717 24.6699 141.96 24.5335C142.203 24.3938 142.324 24.1825 142.324 23.8996C142.324 23.6867 142.227 23.5053 142.033 23.3556C141.842 23.2025 141.468 23.0228 140.91 22.8165C140.38 22.6268 140.002 22.4621 139.777 22.3224C139.555 22.1793 139.389 22.0179 139.278 21.8382C139.171 21.6585 139.117 21.4439 139.117 21.1943C139.117 20.7484 139.306 20.3974 139.684 20.1412C140.061 19.8816 140.579 19.7518 141.238 19.7518C141.851 19.7518 142.45 19.8716 143.036 20.1112L142.729 20.785C142.157 20.5588 141.64 20.4456 141.175 20.4456C140.766 20.4456 140.458 20.5072 140.25 20.6303C140.042 20.7534 139.938 20.9231 139.938 21.1394C139.938 21.2858 139.976 21.4106 140.053 21.5138C140.132 21.6169 140.259 21.7151 140.432 21.8083C140.605 21.9014 140.938 22.0362 141.43 22.2126C142.106 22.4488 142.561 22.6867 142.797 22.9263C143.036 23.1659 143.155 23.467 143.155 23.8297Z" fill="#333333"/>
<path d="M147.001 25.422C146.631 25.422 146.291 25.3571 145.983 25.2273C145.678 25.0942 145.422 24.8912 145.214 24.6184H145.151C145.193 24.9378 145.214 25.2406 145.214 25.5268V27.7779H144.351V19.8517H145.053L145.172 20.6004H145.214C145.435 20.3009 145.694 20.0846 145.988 19.9515C146.283 19.8184 146.62 19.7518 147.001 19.7518C147.757 19.7518 148.339 19.9997 148.748 20.4955C149.16 20.9914 149.366 21.6868 149.366 22.5819C149.366 23.4804 149.157 24.1791 148.737 24.6783C148.322 25.1741 147.743 25.422 147.001 25.422ZM146.877 20.4556C146.295 20.4556 145.874 20.6103 145.614 20.9198C145.354 21.2293 145.221 21.7217 145.214 22.3972V22.5819C145.214 23.3506 145.347 23.9013 145.614 24.234C145.881 24.5635 146.309 24.7282 146.898 24.7282C147.39 24.7282 147.774 24.5368 148.051 24.1542C148.332 23.7715 148.472 23.2441 148.472 22.5719C148.472 21.8898 148.332 21.3674 148.051 21.0047C147.774 20.6386 147.383 20.4556 146.877 20.4556Z" fill="#333333"/>
<path d="M154.169 25.3221L153.997 24.5435H153.956C153.671 24.8862 153.387 25.1192 153.103 25.2423C152.823 25.3621 152.471 25.422 152.048 25.422C151.483 25.422 151.04 25.2822 150.718 25.0027C150.399 24.7232 150.24 24.3255 150.24 23.8098C150.24 22.705 151.159 22.126 152.999 22.0728L153.966 22.0429V21.7034C153.966 21.2742 153.869 20.9581 153.675 20.7551C153.484 20.5488 153.178 20.4456 152.755 20.4456C152.28 20.4456 151.743 20.5854 151.144 20.8649L150.879 20.231C151.159 20.0846 151.466 19.9698 151.799 19.8866C152.135 19.8034 152.471 19.7618 152.807 19.7618C153.486 19.7618 153.988 19.9066 154.314 20.1961C154.643 20.4856 154.808 20.9498 154.808 21.5886V25.3221H154.169ZM152.22 24.7382C152.757 24.7382 153.178 24.5967 153.483 24.3139C153.791 24.0311 153.945 23.6351 153.945 23.126V22.6318L153.082 22.6668C152.396 22.6901 151.901 22.7932 151.596 22.9762C151.295 23.1559 151.144 23.4371 151.144 23.8198C151.144 24.1192 151.237 24.3472 151.425 24.5036C151.615 24.66 151.88 24.7382 152.22 24.7382Z" fill="#333333"/>
<path d="M158.654 25.422C157.829 25.422 157.19 25.1791 156.736 24.6932C156.286 24.2041 156.061 23.5136 156.061 22.6218C156.061 21.7068 156.289 20.9997 156.747 20.5005C157.207 20.0014 157.862 19.7518 158.711 19.7518C158.985 19.7518 159.259 19.7801 159.532 19.8367C159.806 19.8933 160.021 19.9598 160.177 20.0363L159.912 20.7401C159.721 20.6669 159.513 20.607 159.288 20.5604C159.063 20.5105 158.864 20.4856 158.69 20.4856C157.533 20.4856 156.955 21.1943 156.955 22.6119C156.955 23.284 157.095 23.7998 157.376 24.1592C157.66 24.5185 158.079 24.6982 158.633 24.6982C159.108 24.6982 159.595 24.6001 160.094 24.4037V25.1375C159.713 25.3271 159.233 25.422 158.654 25.422Z" fill="#333333"/>
<path d="M163.644 25.422C162.802 25.422 162.136 25.1757 161.648 24.6833C161.163 24.1908 160.92 23.507 160.92 22.6318C160.92 21.75 161.145 21.0496 161.596 20.5305C162.05 20.0114 162.658 19.7518 163.42 19.7518C164.134 19.7518 164.699 19.9781 165.114 20.4307C165.53 20.8799 165.738 21.4738 165.738 22.2126V22.7366H161.814C161.831 23.3789 161.999 23.8663 162.318 24.1991C162.64 24.5319 163.093 24.6982 163.675 24.6982C164.288 24.6982 164.894 24.5751 165.494 24.3289V25.0676C165.189 25.194 164.9 25.2839 164.626 25.3371C164.356 25.3937 164.028 25.422 163.644 25.422ZM163.41 20.4456C162.952 20.4456 162.587 20.5887 162.313 20.8749C162.043 21.1611 161.883 21.557 161.835 22.0628H164.813C164.813 21.5404 164.692 21.1411 164.449 20.8649C164.207 20.5854 163.86 20.4456 163.41 20.4456Z" fill="#333333"/>
</svg>
