<svg width="57" height="40" viewBox="0 0 57 40" fill="none" xmlns="http://www.w3.org/2000/svg">
<path d="M28.5369 4.01562C23.4639 4.01562 19.164 7.44394 17.8314 12.0889C16.6732 9.62516 14.1633 7.89908 11.2723 7.89908C7.29651 7.89908 4.02832 11.1569 4.02832 15.1201C4.02832 19.0833 7.29651 22.3427 11.2723 22.3427C14.1633 22.3427 16.6732 20.6155 17.8314 18.1513C19.164 22.7967 23.4639 26.2261 28.5369 26.2261C33.5725 26.2261 37.8504 22.8484 39.2171 18.2555C40.3967 20.6637 42.8756 22.3427 45.7255 22.3427C49.7012 22.3427 52.9709 19.0833 52.9709 15.1201C52.9709 11.1569 49.7012 7.89908 45.7255 7.89908C42.8756 7.89908 40.3967 9.57699 39.2171 11.9848C37.8504 7.39223 33.5725 4.01562 28.5369 4.01562ZM28.5369 8.25456C32.3665 8.25456 35.4258 11.3027 35.4258 15.1201C35.4258 18.9376 32.3665 21.9872 28.5369 21.9872C24.7074 21.9872 21.6496 18.9376 21.6496 15.1201C21.6496 11.3027 24.7074 8.25456 28.5369 8.25456ZM11.2723 12.138C12.9501 12.138 14.2654 13.4476 14.2654 15.1201C14.2654 16.7927 12.9501 18.1037 11.2723 18.1037C9.59446 18.1037 8.28069 16.7927 8.28069 15.1201C8.28069 13.4476 9.59446 12.138 11.2723 12.138ZM45.7255 12.138C47.4033 12.138 48.7186 13.4476 48.7186 15.1201C48.7186 16.7927 47.4033 18.1037 45.7255 18.1037C44.0477 18.1037 42.7339 16.7927 42.7339 15.1201C42.7339 13.4476 44.0477 12.138 45.7255 12.138Z" fill="#0082C9"/>
<path d="M9.12546 29.5763C8.98396 29.5763 8.92285 29.6568 8.92285 29.7978V35.6419C8.92285 35.783 8.98396 35.8625 9.12546 35.8625H9.28773C9.42923 35.8625 9.50902 35.783 9.50902 35.6419V30.789L12.7093 35.74C12.7233 35.7616 12.7384 35.7761 12.7536 35.7919C12.7581 35.7973 12.7613 35.8029 12.7664 35.8076C12.78 35.82 12.795 35.8264 12.8096 35.8341C12.8178 35.8384 12.8242 35.8446 12.8333 35.8478C12.8396 35.8499 12.8463 35.8486 12.853 35.8503C12.8755 35.8561 12.8986 35.8621 12.9257 35.8621H13.087C13.2285 35.8621 13.2896 35.7826 13.2896 35.6415V29.7977C13.2896 29.6567 13.2285 29.5762 13.087 29.5762H12.9257C12.7842 29.5762 12.7035 29.6567 12.7035 29.7977V34.6509L9.50316 29.6999C9.49224 29.683 9.47905 29.6728 9.46676 29.6597C9.4298 29.6076 9.37127 29.5764 9.28776 29.5764L9.12546 29.5763ZM47.5518 29.6567C47.4103 29.6567 47.4711 29.7372 47.4711 29.8782V31.8733C47.4711 32.0748 47.4907 32.2155 47.4907 32.2155H47.4711C47.4711 32.2155 47.0869 31.3292 46.0155 31.3292C44.8431 31.3292 44.014 32.2561 44.0544 33.6263C44.0544 34.9964 44.8023 35.9439 45.9949 35.9439C47.1471 35.9439 47.5311 35.0165 47.5311 35.0165H47.5517C47.5517 35.0165 47.5114 35.1376 47.5114 35.2988V35.641C47.5114 35.782 47.5922 35.8429 47.7337 35.8429H47.8753C48.0168 35.8429 48.0769 35.7624 48.0769 35.6214V29.8782C48.0769 29.7372 47.8545 29.6567 47.713 29.6567H47.5518ZM31.8453 29.6773C31.7038 29.6773 31.7853 29.7578 31.7853 29.8988V34.8351C31.7853 35.8023 32.4315 35.9233 32.7953 35.9233C32.957 35.9233 33.0176 35.8428 33.0176 35.7018V35.5606C33.0176 35.4195 32.9367 35.3596 32.8357 35.3596C32.6335 35.3395 32.3715 35.2787 32.3715 34.7145V29.8988C32.3715 29.7578 32.1491 29.6773 32.0076 29.6773L31.8453 29.6773ZM24.589 30.2008C24.4475 30.2008 24.3667 30.2813 24.3667 30.4224V31.4704V31.9743V34.2508C24.3667 35.2986 24.9534 35.8831 25.9236 35.8831C26.1055 35.8831 26.1656 35.8232 26.1656 35.6822V35.5606C26.1656 35.3994 26.1055 35.3592 25.9236 35.339C25.58 35.3189 24.9529 35.198 24.9529 34.1704V31.9537H25.8626C26.0041 31.9537 26.0849 31.8938 26.0849 31.7528V31.692C26.0849 31.5509 26.0041 31.4704 25.8626 31.4704H24.9529V30.4224C24.9529 30.2813 24.8928 30.2008 24.7513 30.2008H24.589ZM16.5381 31.3292C15.3253 31.3292 14.3542 32.1961 14.3341 33.6469C14.3341 35.0171 15.3452 35.9635 16.6591 35.9635C17.3665 35.9635 17.8917 35.6616 18.1343 35.4802C18.2354 35.3996 18.2559 35.2986 18.1953 35.1979L18.1343 35.0978C18.0737 34.9769 17.9733 34.9565 17.852 35.0371C17.6499 35.1983 17.2447 35.44 16.6787 35.44C15.7691 35.44 14.9807 34.7949 14.9606 33.6665H18.1746C18.2959 33.6665 18.3969 33.5658 18.3969 33.4449C18.3969 32.1755 17.7307 31.3292 16.5381 31.3292ZM29.0964 31.3292C27.7825 31.3292 26.7719 32.2963 26.7517 33.6665C26.7517 35.0367 27.7628 35.9841 29.0767 35.9841C29.8853 35.9841 30.4309 35.6008 30.6533 35.4194C30.7544 35.3187 30.7739 35.2384 30.7133 35.1175L30.6533 35.0371C30.5724 34.9162 30.4913 34.8957 30.37 34.9763C30.1679 35.1576 29.7437 35.44 29.117 35.44C28.1468 35.44 27.3782 34.7143 27.3782 33.6665C27.3782 32.5986 28.1468 31.8733 29.117 31.8733C29.6426 31.8733 30.0263 32.1352 30.2284 32.2763C30.3497 32.3569 30.4505 32.357 30.5313 32.2361L30.5923 32.1351C30.6934 32.0142 30.6727 31.9138 30.5716 31.8332C30.3493 31.6518 29.8645 31.3292 29.0964 31.3292ZM35.9288 31.3292C34.6351 31.3292 33.5841 32.3166 33.5841 33.6263C33.5841 34.9562 34.6351 35.9635 35.9288 35.9635C37.2224 35.9635 38.2734 34.9562 38.2734 33.6263C38.2734 32.3166 37.2224 31.3292 35.9288 31.3292ZM22.8522 31.3969C22.8027 31.4048 22.755 31.438 22.7095 31.492L21.8913 32.4635L21.2795 33.191L20.3521 32.09L19.8495 31.492C19.804 31.438 19.7525 31.4083 19.6991 31.4037C19.6456 31.3995 19.59 31.4192 19.5358 31.4645L19.4119 31.5684C19.3035 31.6591 19.3092 31.7594 19.4001 31.8675L20.2184 32.839L20.897 33.6459L19.9036 34.8253C19.9026 34.8262 19.9021 34.8274 19.9017 34.8279L19.4001 35.423C19.3091 35.531 19.3192 35.645 19.4276 35.7357L19.5515 35.8387C19.6599 35.9293 19.7586 35.9065 19.8495 35.7984L20.6668 34.8269L21.2795 34.0994L22.207 35.2014C22.2074 35.2022 22.2085 35.2031 22.209 35.2035L22.7096 35.7996C22.8005 35.9076 22.9149 35.9167 23.0233 35.826L23.1472 35.7231C23.2556 35.6324 23.25 35.5321 23.159 35.4241L22.3407 34.4515L21.6621 33.6456L22.6555 32.4652C22.6565 32.4644 22.657 32.4635 22.6574 32.4627L23.159 31.8676C23.25 31.7595 23.2399 31.6455 23.1315 31.5548L23.0076 31.4519C22.9534 31.4065 22.9017 31.389 22.8522 31.3969ZM39.4664 31.4303C39.3249 31.4303 39.2638 31.5108 39.2638 31.6518V34.2508C39.2638 35.3994 40.1128 35.9636 41.1639 35.9636C42.215 35.9636 43.0641 35.3994 43.0641 34.2508V31.6518C43.0843 31.5108 43.0039 31.4303 42.8624 31.4303H42.7002C42.5587 31.4303 42.4779 31.5108 42.4779 31.6518V34.0901C42.4779 34.7751 42.0331 35.3999 41.1639 35.3999C40.315 35.3999 39.85 34.7751 39.85 34.0901V31.6518C39.85 31.5108 39.7692 31.4303 39.6277 31.4303L39.4664 31.4303ZM16.5174 31.8332C17.1643 31.8332 17.73 32.2965 17.7704 33.2234H14.9812C15.1227 32.3166 15.7695 31.8332 16.5174 31.8332ZM35.9288 31.8734C36.8788 31.8734 37.6469 32.6189 37.6469 33.6264C37.6469 34.6742 36.8788 35.4401 35.9288 35.4401C34.9787 35.4401 34.2101 34.654 34.1899 33.6264C34.1899 32.639 34.9787 31.8734 35.9288 31.8734ZM46.0559 31.8734C47.0059 31.8734 47.4711 32.7402 47.4711 33.647C47.4711 34.9164 46.7831 35.4401 46.0352 35.4401C45.2064 35.4401 44.6411 34.735 44.6209 33.647C44.6209 32.5186 45.2675 31.8734 46.0559 31.8734Z" fill="#0082C9"/>
</svg>
