<svg width="42" height="42" viewBox="0 0 42 42" fill="none" xmlns="http://www.w3.org/2000/svg">
<rect width="42" height="42" rx="4" fill="#0B5CFF" fill-opacity="0.25"/>
<path d="M24 24.5C24 25.3284 23.3284 26 22.5 26H16C14.3431 26 13 24.6569 13 23V17.5C13 16.6716 13.6716 16 14.5 16H21C22.6569 16 24 17.3431 24 19V24.5ZM27.8 16.8999L25.6 18.5499C25.2223 18.8332 25 19.2778 25 19.7499L25 22.2499C25 22.7221 25.2223 23.1666 25.6 23.4499L27.8 25.0999C28.2944 25.4707 29 25.118 29 24.4999V17.4999C29 16.8819 28.2944 16.5291 27.8 16.8999Z" fill="#0B5CFF"/>
</svg>
