<svg width="17" height="16" viewBox="0 0 17 16" fill="none" xmlns="http://www.w3.org/2000/svg">
<g clip-path="url(#clip0_1506_33994)">
<path fill-rule="evenodd" clip-rule="evenodd" d="M7.50331 14C3.63704 14.0008 0.502484 10.8687 0.5 7.00248C0.499173 3.13622 3.63125 0.0016573 7.49834 6.56004e-07C11.3596 -0.00165357 14.4925 3.12546 14.5 6.98676C14.5025 8.47474 14.0406 9.85499 13.251 10.9905C13.2616 11.0005 13.2722 11.0106 13.2826 11.021L16.1358 13.8743C16.6223 14.3607 16.6223 15.1494 16.1358 15.6359C15.6494 16.1224 14.8606 16.1224 14.3742 15.6359L11.521 12.7827C11.5105 12.7722 11.5003 12.7616 11.4902 12.7509C10.3606 13.5362 8.98841 13.9975 7.50827 14H7.50331ZM7.50226 12.2C4.63018 12.2006 2.30165 9.87393 2.29981 7.00185C2.29919 4.12976 4.62588 1.80123 7.49857 1.8C10.367 1.79877 12.6943 4.12177 12.6998 6.99016C12.7047 9.86286 10.3793 12.1951 7.50595 12.2H7.50226Z" fill="#D0D5DA"/>
<rect x="4.5" y="6" width="6" height="2" rx="0.5" fill="#D0D5DA"/>
<rect x="6.5" y="10" width="6" height="2" rx="0.5" transform="rotate(-90 6.5 10)" fill="#D0D5DA"/>
</g>
<defs>
<clipPath id="clip0_1506_33994">
<rect width="16" height="16" fill="white" transform="translate(0.5)"/>
</clipPath>
</defs>
</svg>
