<svg width="20" height="20" viewBox="0 0 20 20" fill="none" xmlns="http://www.w3.org/2000/svg">
<g clip-path="url(#clip0_581_94800)">
<path fill-rule="evenodd" clip-rule="evenodd" d="M16.5 2C15.6716 2 15 2.67157 15 3.5C15 4.32843 15.6716 5 16.5 5C17.3284 5 18 4.32843 18 3.5C18 2.67157 17.3284 2 16.5 2ZM13 3.5C13 1.567 14.567 0 16.5 0C18.433 0 20 1.567 20 3.5C20 5.433 18.433 7 16.5 7C15.5781 7 14.7394 6.64354 14.1142 6.06091L6.90046 9.6678C6.96551 9.93453 7 10.2132 7 10.5C7 10.6257 6.99337 10.7499 6.98044 10.8722L13.7946 14.2793C14.4365 13.4982 15.4101 13 16.5 13C18.433 13 20 14.567 20 16.5C20 18.433 18.433 20 16.5 20C14.567 20 13 18.433 13 16.5C13 16.3743 13.0066 16.2501 13.0196 16.1278L6.20538 12.7207C5.56348 13.5018 4.58992 14 3.5 14C1.567 14 0 12.433 0 10.5C0 8.567 1.567 7 3.5 7C4.42194 7 5.26063 7.35646 5.88576 7.93909L13.0995 4.3322C13.0345 4.06547 13 3.78676 13 3.5ZM3.5 9C2.67157 9 2 9.67157 2 10.5C2 11.3284 2.67157 12 3.5 12C4.32843 12 5 11.3284 5 10.5C5 9.67157 4.32843 9 3.5 9ZM16.5 15C15.6716 15 15 15.6716 15 16.5C15 17.3284 15.6716 18 16.5 18C17.3284 18 18 17.3284 18 16.5C18 15.6716 17.3284 15 16.5 15Z" fill="#657077"/>
</g>
<defs>
<clipPath id="clip0_581_94800">
<rect width="20" height="20" fill="white"/>
</clipPath>
</defs>
</svg>
