<svg width="20" height="20" viewBox="0 0 20 20" fill="none" xmlns="http://www.w3.org/2000/svg">
<g clip-path="url(#clip0_581_94751)">
<path fill-rule="evenodd" clip-rule="evenodd" d="M10 18C14.4183 18 18 14.4183 18 10C18 5.58172 14.4183 2 10 2C5.58172 2 2 5.58172 2 10C2 14.4183 5.58172 18 10 18ZM10 20C15.5228 20 20 15.5228 20 10C20 4.47715 15.5228 0 10 0C4.47715 0 0 4.47715 0 10C0 15.5228 4.47715 20 10 20Z" fill="#657077"/>
<path fill-rule="evenodd" clip-rule="evenodd" d="M7.3904 14.4552C7.14096 14.9433 6.5441 15.1401 6.05279 14.8944C5.55881 14.6474 5.35859 14.0468 5.60558 13.5528L5.60603 13.5519L5.6065 13.5509L5.60753 13.5489L5.60988 13.5443L5.61579 13.5328C5.62028 13.5242 5.62586 13.5136 5.63255 13.5013C5.64594 13.4766 5.66381 13.4446 5.68632 13.4064C5.73127 13.3301 5.79517 13.2282 5.87929 13.1095C6.04678 12.873 6.2992 12.5628 6.64814 12.2526C7.35443 11.6248 8.45721 11 10 11C11.5428 11 12.6456 11.6248 13.3519 12.2526C13.7008 12.5628 13.9532 12.873 14.1207 13.1095C14.2048 13.2282 14.2687 13.3301 14.3137 13.4064C14.3362 13.4446 14.3541 13.4766 14.3675 13.5013C14.3742 13.5136 14.3797 13.5242 14.3842 13.5328L14.3901 13.5443L14.3925 13.5489L14.394 13.5519L14.3944 13.5528C14.6414 14.0468 14.4412 14.6474 13.9472 14.8944C13.4559 15.1401 12.859 14.9433 12.6096 14.4552L12.6089 14.4538C12.6064 14.4492 12.6003 14.4382 12.5906 14.4218C12.5711 14.3887 12.5374 14.3343 12.4887 14.2655C12.3905 14.127 12.2367 13.9372 12.0231 13.7474C11.6044 13.3752 10.9572 13 10 13C9.0428 13 8.39558 13.3752 7.97687 13.7474C7.76331 13.9372 7.60948 14.127 7.51134 14.2655C7.46266 14.3343 7.42889 14.3887 7.4094 14.4218C7.39968 14.4382 7.39363 14.4492 7.39114 14.4538L7.3904 14.4552Z" fill="#657077"/>
<path d="M8.5 7.25C8.5 7.94036 7.94036 8.5 7.25 8.5C6.55964 8.5 6 7.94036 6 7.25C6 6.55964 6.55964 6 7.25 6C7.94036 6 8.5 6.55964 8.5 7.25Z" fill="#657077"/>
<path d="M14 7.25C14 7.94036 13.4404 8.5 12.75 8.5C12.0596 8.5 11.5 7.94036 11.5 7.25C11.5 6.55964 12.0596 6 12.75 6C13.4404 6 14 6.55964 14 7.25Z" fill="#657077"/>
</g>
<defs>
<clipPath id="clip0_581_94751">
<rect width="20" height="20" fill="white"/>
</clipPath>
</defs>
</svg>
