<svg width="18" height="18" viewBox="0 0 18 18" fill="none" xmlns="http://www.w3.org/2000/svg">
<path fill-rule="evenodd" clip-rule="evenodd" d="M8.2523 16.5046C9.8831 16.5046 11.4049 16.0291 12.6864 15.2095L14.954 17.4771C15.2912 17.8143 15.7395 18 16.2162 18C16.6931 18 17.1411 17.8143 17.4779 17.4769C18.1737 16.7814 18.1737 15.6492 17.4778 14.9534L15.21 12.6855C16.0293 11.4042 16.5046 9.88272 16.5046 8.2523C16.5046 3.70195 12.8026 0 8.2523 0C3.70195 0 0 3.70195 0 8.2523C0 12.8026 3.70195 16.5046 8.2523 16.5046ZM14.0284 8.25233C14.0284 5.06774 11.4376 2.47698 8.25309 2.47698C5.0686 2.47698 2.47775 5.06774 2.47775 8.25233C2.47775 11.4369 5.0685 14.0277 8.25309 14.0277C11.4377 14.0277 14.0284 11.4369 14.0284 8.25233Z" fill="#657077"/>
</svg>
