<svg width="20" height="20" viewBox="0 0 20 20" fill="none" xmlns="http://www.w3.org/2000/svg">
<path fill-rule="evenodd" clip-rule="evenodd" d="M10.5 2C8.77023 2 7.11492 2.67483 5.89729 3.87032C4.68028 5.06521 4 6.68188 4 8.36364C4 10.8184 5.63288 13.2316 7.46962 15.1352C8.36639 16.0646 9.2667 16.8261 9.94405 17.3557C10.1539 17.5197 10.3415 17.6608 10.5 17.7772C10.6585 17.6608 10.8461 17.5197 11.056 17.3557C11.7333 16.8261 12.6336 16.0646 13.5304 15.1352C15.3671 13.2316 17 10.8184 17 8.36364C17 6.68188 16.3197 5.06521 15.1027 3.87032C13.8851 2.67483 12.2298 2 10.5 2ZM10.5 19C9.95234 19.8367 9.95209 19.8365 9.95182 19.8364L9.94922 19.8347L9.94337 19.8308L9.92367 19.8177C9.90704 19.8066 9.88348 19.7908 9.85346 19.7704C9.79342 19.7296 9.70747 19.6703 9.59931 19.5936C9.38307 19.4403 9.07746 19.2168 8.7122 18.9313C7.9833 18.3614 7.00861 17.5377 6.03038 16.5239C4.11712 14.5411 2 11.6361 2 8.36364C2 6.13948 2.90008 4.01021 4.49611 2.4432C6.09152 0.876792 8.25152 0 10.5 0C12.7485 0 14.9085 0.876793 16.5039 2.4432C18.0999 4.01021 19 6.13948 19 8.36364C19 11.6361 16.8829 14.5411 14.9696 16.5239C13.9914 17.5377 13.0167 18.3614 12.2878 18.9313C11.9225 19.2168 11.6169 19.4403 11.4007 19.5936C11.2925 19.6703 11.2066 19.7296 11.1465 19.7704C11.1165 19.7908 11.093 19.8066 11.0763 19.8177L11.0566 19.8308L11.0508 19.8347L11.0489 19.8359C11.0486 19.8361 11.0477 19.8367 10.5 19ZM10.5 19L11.0477 19.8367C10.715 20.0544 10.2845 20.0541 9.95182 19.8364L10.5 19ZM10.5 7C9.67157 7 9 7.67157 9 8.5C9 9.32843 9.67157 10 10.5 10C11.3284 10 12 9.32843 12 8.5C12 7.67157 11.3284 7 10.5 7ZM7 8.5C7 6.567 8.567 5 10.5 5C12.433 5 14 6.567 14 8.5C14 10.433 12.433 12 10.5 12C8.567 12 7 10.433 7 8.5Z" fill="#657077"/>
</svg>
