<svg width="20" height="20" viewBox="0 0 20 20" fill="none" xmlns="http://www.w3.org/2000/svg">
<path fill-rule="evenodd" clip-rule="evenodd" d="M10 2C8.34315 2 7 3.34315 7 5C7 6.65685 8.34315 8 10 8C11.6569 8 13 6.65685 13 5C13 3.34315 11.6569 2 10 2ZM5 5C5 2.23858 7.23858 0 10 0C12.7614 0 15 2.23858 15 5C15 7.76142 12.7614 10 10 10C7.23858 10 5 7.76142 5 5ZM2.46447 13.4645C3.40215 12.5268 4.67392 12 6 12H14C15.3261 12 16.5979 12.5268 17.5355 13.4645C18.4732 14.4021 19 15.6739 19 17V19C19 19.5523 18.5523 20 18 20C17.4477 20 17 19.5523 17 19V17C17 16.2044 16.6839 15.4413 16.1213 14.8787C15.5587 14.3161 14.7956 14 14 14H6C5.20435 14 4.44129 14.3161 3.87868 14.8787C3.31607 15.4413 3 16.2044 3 17V19C3 19.5523 2.55228 20 2 20C1.44772 20 1 19.5523 1 19V17C1 15.6739 1.52678 14.4021 2.46447 13.4645Z" fill="#657077"/>
</svg>
