<svg width="20" height="20" viewBox="0 0 20 20" fill="none" xmlns="http://www.w3.org/2000/svg">
<path d="M13.0751 12.6251C12.6582 12.3273 12.5383 11.7683 12.7043 11.2837C12.896 10.7243 13 10.1243 13 9.5C13 6.94994 11.2645 4.80521 8.91027 4.18248C8.40388 4.04853 8 3.62117 8 3.09737C8 2.51221 8.49763 2.04268 9.06995 2.16458C12.4584 2.88626 15 5.89632 15 9.5C15 10.479 14.8124 11.4141 14.4713 12.2715C14.2499 12.8279 13.5624 12.9731 13.0751 12.6251Z" fill="#657077"/>
<path fill-rule="evenodd" clip-rule="evenodd" d="M7.13136 14.9879L7.31495 15H15C16.6569 15 18 13.6569 18 12C18 10.3431 16.6569 9 15 9C14.9138 9 14.8289 9.00358 14.7454 9.01054L13.2039 9.13894L12.692 7.67925C11.9397 5.53375 9.89639 4 7.5 4C4.46243 4 2 6.46243 2 9.5C2 12.4136 4.26666 14.7994 7.13136 14.9879ZM14.5794 7.01744C13.5547 4.09535 10.7721 2 7.5 2C3.35786 2 0 5.35786 0 9.5C0 13.4741 3.09098 16.7263 7 16.9836V17H15C17.7614 17 20 14.7614 20 12C20 9.23858 17.7614 7 15 7C14.8583 7 14.7181 7.00589 14.5794 7.01744Z" fill="#657077"/>
</svg>
