<svg width="20" height="20" viewBox="0 0 20 20" fill="none" xmlns="http://www.w3.org/2000/svg">
<path fill-rule="evenodd" clip-rule="evenodd" d="M10 2C9.1954 2 8.42924 2.31101 7.86865 2.85602C7.30902 3.40011 7 4.13194 7 4.88889V8H13V4.88889C13 4.13194 12.691 3.40011 12.1313 2.85602C11.5708 2.31101 10.8046 2 10 2ZM15 8H16.2222C17.6767 8 19 9.10392 19 10.6364V16.3636C19 17.8961 17.6767 19 16.2222 19H3.77778C2.3233 19 1 17.8961 1 16.3636V10.6364C1 9.10392 2.3233 8 3.77778 8H5V4.88889C5 3.58304 5.53383 2.33657 6.47449 1.42203C7.4142 0.508431 8.68287 0 10 0C11.3171 0 12.5858 0.508431 13.5255 1.42203C14.4662 2.33657 15 3.58304 15 4.88889V8ZM3.77778 10C3.26857 10 3 10.3613 3 10.6364V16.3636C3 16.6387 3.26857 17 3.77778 17H16.2222C16.7314 17 17 16.6387 17 16.3636V10.6364C17 10.3613 16.7314 10 16.2222 10H3.77778Z" fill="#657077"/>
</svg>
