<svg width="20" height="20" viewBox="0 0 20 20" fill="none" xmlns="http://www.w3.org/2000/svg">
<path fill-rule="evenodd" clip-rule="evenodd" d="M8.88102 17.5269C8.62626 17.0519 8.03804 16.8629 7.55279 17.1056C7.05881 17.3526 6.85858 17.9532 7.10557 18.4472L7.1061 18.4483L7.10665 18.4494L7.10778 18.4516L7.11022 18.4564L7.11579 18.4671C7.11981 18.4748 7.12446 18.4835 7.12977 18.4931C7.14036 18.5124 7.1536 18.5355 7.16963 18.5619C7.20164 18.6147 7.24515 18.681 7.30156 18.7563C7.41406 18.9062 7.58063 19.0951 7.81281 19.2809C8.28984 19.6625 9.00708 20 10 20C10.9929 20 11.7102 19.6625 12.1872 19.2809C12.4194 19.0951 12.5859 18.9062 12.6984 18.7563C12.7549 18.681 12.7984 18.6147 12.8304 18.5619C12.8464 18.5355 12.8596 18.5124 12.8702 18.4931C12.8755 18.4835 12.8802 18.4748 12.8842 18.4671L12.8898 18.4564L12.8922 18.4516L12.8934 18.4494L12.8939 18.4483L12.8944 18.4472C13.1414 17.9532 12.9412 17.3526 12.4472 17.1056C11.962 16.8629 11.3737 17.0519 11.119 17.5269C11.1159 17.5318 11.1091 17.542 11.0984 17.5562C11.0703 17.5938 11.0181 17.6549 10.9378 17.7191C10.7898 17.8375 10.5071 18 10 18C9.49292 18 9.21017 17.8375 9.0622 17.7191C8.98187 17.6549 8.92969 17.5938 8.90156 17.5562C8.89089 17.542 8.88412 17.5318 8.88102 17.5269Z" fill="#657077"/>
<path fill-rule="evenodd" clip-rule="evenodd" d="M16.5642 14C15.6892 12.6526 15 10.2869 15 6C15 4.29757 13.0989 2 10 2C6.90115 2 5 4.29757 5 6C5 10.2869 4.31077 12.6526 3.43582 14H16.5642ZM10 0C6 0 3 3 3 6C3 10.1717 2.3117 12.0745 1.74268 12.9348L1.73794 12.942C1.40298 13.4484 1 14.0577 1 14.6637C1 15.4017 1.59829 16 2.33632 16H17.6637C18.4017 16 19 15.4017 19 14.6637C19 14.0577 18.597 13.4485 18.2621 12.942L18.2573 12.9348C17.6883 12.0745 17 10.1717 17 6C17 3 14 0 10 0Z" fill="#657077"/>
</svg>
