<svg width="20" height="20" viewBox="0 0 20 20" fill="none" xmlns="http://www.w3.org/2000/svg">
<path fill-rule="evenodd" clip-rule="evenodd" d="M18 10C18 14.4183 14.4183 18 10 18C5.58172 18 2 14.4183 2 10C2 5.58172 5.58172 2 10 2C14.4183 2 18 5.58172 18 10ZM20 10C20 15.5228 15.5228 20 10 20C4.47715 20 0 15.5228 0 10C0 4.47715 4.47715 0 10 0C15.5228 0 20 4.47715 20 10ZM9.5 4C9.22386 4 9 4.22386 9 4.5V5.5C9 5.57039 9.01455 5.63738 9.04079 5.69814C8.60577 5.76999 8.16333 5.90448 7.76679 6.14239C6.98628 6.61065 6.5 7.41102 6.5 8.49978C6.5 9.55312 7.06846 10.2437 7.74612 10.673C8.33298 11.0447 9.07162 11.266 9.64932 11.439L9.64933 11.439L9.71265 11.458C10.3764 11.6572 10.8547 11.8085 11.1837 12.0169C11.4436 12.1814 11.5 12.3034 11.5 12.5C11.5 12.7185 11.4517 12.8184 11.4241 12.861C11.3962 12.9041 11.3446 12.9579 11.2268 13.0115C10.9519 13.1365 10.477 13.1869 9.84054 13.1291C9.2339 13.0739 8.60871 12.9334 8.1225 12.8008C7.88249 12.7354 7.68306 12.6737 7.54514 12.6289C7.47631 12.6066 7.42314 12.5885 7.38829 12.5765L7.35019 12.5632L7.34214 12.5603L7.34137 12.56C7.34155 12.5601 7.34175 12.5602 7 13.5C6.65825 14.4397 6.65849 14.4398 6.65876 14.4399L6.65939 14.4402L6.66104 14.4408L6.66584 14.4425L6.68136 14.448L6.73524 14.4669C6.78096 14.4827 6.84596 14.5047 6.92751 14.5312C7.09038 14.584 7.32063 14.6552 7.59625 14.7304C7.98318 14.8359 8.4733 14.9532 9 15.0373V15.5C9 15.7761 9.22386 16 9.5 16H10.5C10.7761 16 11 15.7761 11 15.5V15.1147C11.362 15.0703 11.7221 14.9833 12.0544 14.8322C12.4522 14.6514 12.8303 14.3693 13.1032 13.9475C13.3765 13.5253 13.5 13.0315 13.5 12.5C13.5 11.4467 12.9314 10.7563 12.2538 10.3272C11.6671 9.95564 10.9287 9.73447 10.3511 9.56146L10.3511 9.56146L10.3511 9.56146L10.2874 9.54236C9.62362 9.34324 9.14535 9.19184 8.81639 8.98345C8.55654 8.81884 8.5 8.69673 8.5 8.49978C8.5 8.08865 8.63872 7.9516 8.79571 7.85742C9.03409 7.7144 9.44233 7.62495 9.99998 7.62496C10.5343 7.62497 11.0884 7.7062 11.5226 7.79305C11.7364 7.83581 11.9139 7.87844 12.0361 7.90987C12.0971 7.92555 12.1439 7.93834 12.1742 7.94682L12.2069 7.95611L12.2131 7.95794C12.2129 7.95787 12.2127 7.9578 12.5 6.99997C12.7873 6.04214 12.7871 6.04206 12.7868 6.04197L12.7861 6.04177L12.7844 6.04125L12.7795 6.03982L12.7645 6.03541L12.7135 6.02089C12.6705 6.00887 12.6099 5.99236 12.5342 5.97288C12.383 5.934 12.1698 5.88288 11.9149 5.83189C11.645 5.77792 11.3197 5.72233 10.9657 5.68237C10.9878 5.62587 11 5.56435 11 5.5V4.5C11 4.22386 10.7761 4 10.5 4H9.5Z" fill="#657077"/>
</svg>
