<svg width="20" height="20" viewBox="0 0 20 20" fill="none" xmlns="http://www.w3.org/2000/svg">
<path d="M2.03133 18.8718L2.02952 18.8684C2.01095 18.8342 2 18.7952 2 18.75V15H5V18.75C5 18.8244 4.96891 18.8905 4.91469 18.9386C4.87004 18.9774 4.81369 19 4.75 19H2.25C2.17992 19 2.11598 18.9717 2.06798 18.9217C2.05652 18.909 2.04888 18.8996 2.04383 18.893C2.04069 18.8882 2.03638 18.8812 2.03133 18.8718ZM9.09154 5.05729L9.09354 5.05566C9.1374 5.02003 9.19054 5 9.25 5H11.75C11.8883 5 12 5.11168 12 5.25V8H9V5.25C9 5.17162 9.03496 5.10301 9.09154 5.05729ZM16 1.25C16 1.11168 16.1117 1 16.25 1H18.75C18.8883 1 19 1.11168 19 1.25V4H16V1.25ZM16 7H19V18.75C19 18.8883 18.8883 19 18.75 19H16.25C16.1117 19 16 18.8883 16 18.75V7ZM12 11V18.75C12 18.8883 11.8883 19 11.75 19H9.25C9.11166 19 9 18.8883 9 18.75V11H12ZM2 9.25C2 9.11168 2.11166 9 2.25 9H4.75C4.88834 9 5 9.11168 5 9.25V12H2V9.25Z" fill="#ECEEF1" stroke="#657077" stroke-width="2"/>
</svg>
