<svg width="20" height="20" viewBox="0 0 20 20" fill="none" xmlns="http://www.w3.org/2000/svg">
<g clip-path="url(#clip0_581_94657)">
<path fill-rule="evenodd" clip-rule="evenodd" d="M10 0C10.3797 0 10.7265 0.21496 10.8955 0.554911L13.4433 5.68081L19.1437 6.50827C19.5211 6.56305 19.8345 6.82772 19.9517 7.19064C20.0688 7.55355 19.9694 7.95152 19.6953 8.21666L15.5755 12.2017L16.5474 17.8298C16.6122 18.2046 16.4587 18.5837 16.1514 18.8079C15.8441 19.032 15.4362 19.0625 15.0991 18.8864L10 16.2233L4.90096 18.8864C4.56381 19.0625 4.15596 19.032 3.84868 18.8079C3.54139 18.5837 3.38789 18.2046 3.45262 17.8298L4.4246 12.2017L0.304778 8.21666C0.0306673 7.95152 -0.0687731 7.55355 0.0484034 7.19064C0.16558 6.82772 0.478971 6.56305 0.856378 6.50827L6.55678 5.68081L9.10454 0.554911C9.27351 0.21496 9.6204 0 10 0ZM10 3.24674L8.11452 7.04025C7.96844 7.33414 7.68746 7.53765 7.36268 7.58479L3.15902 8.19498L6.19528 11.1319C6.43312 11.362 6.54176 11.6948 6.48544 12.0209L5.76759 16.1774L9.5371 14.2088C9.82713 14.0573 10.1729 14.0573 10.463 14.2088L14.2325 16.1774L13.5146 12.0209C13.4583 11.6948 13.5669 11.362 13.8048 11.1319L16.841 8.19498L12.6374 7.58479C12.3126 7.53765 12.0316 7.33414 11.8855 7.04025L10 3.24674Z" fill="#657077"/>
</g>
<defs>
<clipPath id="clip0_581_94657">
<rect width="20" height="20" fill="white"/>
</clipPath>
</defs>
</svg>
