<svg width="20" height="20" viewBox="0 0 20 20" fill="none" xmlns="http://www.w3.org/2000/svg">
<path fill-rule="evenodd" clip-rule="evenodd" d="M8.92038 0.344611C9.61518 0.0766176 10.3848 0.0766172 11.0796 0.344611L16.0796 2.27318C17.2368 2.71952 18 3.83192 18 5.07219V10C18 12.4434 16.7713 14.4986 15.3966 16.0399C14.0156 17.5882 12.3997 18.7181 11.4175 19.3319C10.5458 19.8765 9.4542 19.8765 8.58253 19.3319C7.60027 18.7181 5.98437 17.5882 4.60341 16.0399C3.22867 14.4986 2 12.4434 2 10V5.07219C2 3.83192 2.76321 2.71952 3.92038 2.27318L8.92038 0.344611ZM10.3599 2.21061C10.1283 2.12128 9.87173 2.12128 9.64013 2.21061L4.64013 4.13919C4.2544 4.28796 4 4.65877 4 5.07219V10C4 11.7535 4.8855 13.3515 6.09596 14.7086C7.30019 16.0587 8.74051 17.0722 9.64235 17.6358C9.86557 17.7752 10.1344 17.7752 10.3577 17.6358C11.2595 17.0722 12.6998 16.0587 13.904 14.7086C15.1145 13.3515 16 11.7535 16 10V5.07219C16 4.65877 15.7456 4.28796 15.3599 4.13919L10.3599 2.21061Z" fill="#657077"/>
</svg>
