<svg width="20" height="20" viewBox="0 0 20 20" fill="none" xmlns="http://www.w3.org/2000/svg">
<path fill-rule="evenodd" clip-rule="evenodd" d="M4.75 4C4.55621 4 4.36712 4.07806 4.22522 4.22222C4.08278 4.36691 4 4.56646 4 4.77778V17.2222C4 17.4335 4.08278 17.6331 4.22522 17.7778C4.36712 17.9219 4.55622 18 4.75 18H15.25C15.4438 18 15.6329 17.9219 15.7748 17.7778C15.9172 17.6331 16 17.4335 16 17.2222V4.77778C16 4.56646 15.9172 4.36691 15.7748 4.22222C15.6329 4.07805 15.4438 4 15.25 4H13.5C12.9477 4 12.5 3.55228 12.5 3C12.5 2.44772 12.9477 2 13.5 2H15.25C15.9845 2 16.6856 2.29655 17.2001 2.81918C17.714 3.34128 18 4.0461 18 4.77778V17.2222C18 17.9539 17.714 18.6587 17.2001 19.1808C16.6856 19.7035 15.9845 20 15.25 20H4.75C4.01553 20 3.31438 19.7035 2.79991 19.1808C2.28597 18.6587 2 17.9539 2 17.2222V4.77778C2 4.0461 2.28597 3.34128 2.79991 2.81918C3.31438 2.29655 4.01553 2 4.75 2H6.5C7.05228 2 7.5 2.44772 7.5 3C7.5 3.55228 7.05228 4 6.5 4H4.75Z" fill="#657077"/>
<path fill-rule="evenodd" clip-rule="evenodd" d="M8 2V3H12V2H8ZM6 1.75C6 0.783502 6.7835 0 7.75 0H12.25C13.2165 0 14 0.783502 14 1.75V3.25C14 4.2165 13.2165 5 12.25 5H7.75C6.7835 5 6 4.2165 6 3.25V1.75Z" fill="#657077"/>
</svg>
