<svg width="20" height="20" viewBox="0 0 20 20" fill="none" xmlns="http://www.w3.org/2000/svg">
<g clip-path="url(#clip0_581_94625)">
<path fill-rule="evenodd" clip-rule="evenodd" d="M0.000106305 4.98449C-3.55541e-05 4.99422 -3.53157e-05 5.00395 0.000106305 5.01367V15.25C0.000106305 16.7912 1.28456 18 2.80011 18H17.2001C18.7156 18 20.0001 16.7912 20.0001 15.25V5.01368C20.0002 5.00395 20.0002 4.99422 20.0001 4.98448V4.75C20.0001 3.20885 18.7156 2 17.2001 2H2.80011C1.28456 2 0.000106305 3.20885 0.000106305 4.75V4.98449ZM17.9514 4.49729C17.8424 4.21978 17.5599 4 17.2001 4H2.80011C2.44027 4 2.15781 4.21978 2.04882 4.49729L10.0001 9.79815L17.9514 4.49729ZM18.0001 6.86852V15.25C18.0001 15.6338 17.6646 16 17.2001 16H2.80011C2.33565 16 2.00011 15.6338 2.00011 15.25V6.86852L9.44541 11.8321C9.78131 12.056 10.2189 12.056 10.5548 11.8321L18.0001 6.86852Z" fill="#657077"/>
</g>
<defs>
<clipPath id="clip0_581_94625">
<rect width="20" height="20" fill="white"/>
</clipPath>
</defs>
</svg>
