<svg width="20" height="20" viewBox="0 0 20 20" fill="none" xmlns="http://www.w3.org/2000/svg">
<g clip-path="url(#clip0_581_94628)">
<path fill-rule="evenodd" clip-rule="evenodd" d="M0 1C0 0.447715 0.447715 0 1 0H4.8198L5.8198 5H18.3975C19.3367 5 20.0449 5.85331 19.8718 6.77643L18.7888 12.5529C18.5227 13.9718 17.2838 15 15.8401 15H8.15985C6.71621 15 5.47728 13.9718 5.21124 12.5529L4.01824 6.19019L3.1802 2H1C0.447715 2 0 1.55228 0 1ZM6.20493 7L7.17698 12.1843C7.26566 12.6573 7.67864 13 8.15985 13H15.8401C16.3214 13 16.7343 12.6573 16.823 12.1843L17.7951 7H6.20493ZM5 18C5 16.8954 5.89543 16 7 16C8.10457 16 9 16.8954 9 18C9 19.1046 8.10457 20 7 20C5.89543 20 5 19.1046 5 18ZM16 18C16 16.8954 16.8954 16 18 16C19.1046 16 20 16.8954 20 18C20 19.1046 19.1046 20 18 20C16.8954 20 16 19.1046 16 18Z" fill="#657077"/>
</g>
<defs>
<clipPath id="clip0_581_94628">
<rect width="20" height="20" fill="white"/>
</clipPath>
</defs>
</svg>
