<svg width="20" height="20" viewBox="0 0 20 20" fill="none" xmlns="http://www.w3.org/2000/svg">
<g clip-path="url(#clip0_581_94678)">
<path fill-rule="evenodd" clip-rule="evenodd" d="M10 2C5.58172 2 2 5.58172 2 10C2 11.4238 2.37107 12.7579 3.02106 13.9141L3.21598 14.2608L2.3538 17.7095L6.05379 16.9695L6.36377 17.128C7.45363 17.6852 8.6886 18 10 18C14.4183 18 18 14.4183 18 10C18 5.58172 14.4183 2 10 2ZM0 10C0 4.47715 4.47715 0 10 0C15.5228 0 20 4.47715 20 10C20 15.5228 15.5228 20 10 20C8.49126 20 7.05824 19.6652 5.77333 19.0652L1.35147 19.9496C0.559646 20.1079 -0.127279 19.3876 0.0685827 18.6042L1.08568 14.5358C0.391284 13.1735 0 11.6312 0 10Z" fill="#657077"/>
</g>
<defs>
<clipPath id="clip0_581_94678">
<rect width="20" height="20" fill="white"/>
</clipPath>
</defs>
</svg>
