<svg width="20" height="20" viewBox="0 0 20 20" fill="none" xmlns="http://www.w3.org/2000/svg">
<path fill-rule="evenodd" clip-rule="evenodd" d="M2.79557 0.830129C3.30898 0.302046 4.01142 0 4.75 0H10.905C10.9251 0 10.9451 0.000200272 10.965 0.000599623C10.9766 0.000200987 10.9883 0 11 0C11.0445 0 11.0883 0.00290394 11.1312 0.00853246C11.8585 0.0634963 12.544 0.382095 13.056 0.908765L17.151 5.12074C17.6954 5.68073 18 6.43096 18 7.21198V17.2C18 17.9337 17.7169 18.6427 17.2044 19.1699C16.691 19.698 15.9886 20 15.25 20H4.75C4.01142 20 3.30898 19.698 2.79557 19.1699C2.28308 18.6427 2 17.9337 2 17.2V2.8C2 2.06634 2.28308 1.35726 2.79557 0.830129ZM10 2H4.75C4.56032 2 4.37252 2.07724 4.22956 2.22429C4.08566 2.37229 4 2.57888 4 2.8V17.2C4 17.4211 4.08566 17.6277 4.22956 17.7757C4.37252 17.9228 4.56032 18 4.75 18H15.25C15.4397 18 15.6275 17.9228 15.7704 17.7757C15.9143 17.6277 16 17.4211 16 17.2V8H13C11.3431 8 10 6.65685 10 5V2ZM15.2164 6H13C12.4477 6 12 5.55228 12 5V2.6917L15.2164 6Z" fill="#657077"/>
<path d="M6 14C6 13.4477 6.44772 13 7 13C7.55228 13 8 13.4477 8 14C8 14.5523 7.55228 15 7 15C6.44772 15 6 14.5523 6 14Z" fill="#657077"/>
<path d="M9 14C9 13.4477 9.44772 13 10 13C10.5523 13 11 13.4477 11 14C11 14.5523 10.5523 15 10 15C9.44772 15 9 14.5523 9 14Z" fill="#657077"/>
<path d="M12 14C12 13.4477 12.4477 13 13 13C13.5523 13 14 13.4477 14 14C14 14.5523 13.5523 15 13 15C12.4477 15 12 14.5523 12 14Z" fill="#657077"/>
</svg>
