<svg width="20" height="20" viewBox="0 0 20 20" fill="none" xmlns="http://www.w3.org/2000/svg">
<g clip-path="url(#clip0_581_94659)">
<path fill-rule="evenodd" clip-rule="evenodd" d="M9.3415 0.247423C9.71852 -0.0824744 10.2815 -0.0824744 10.6585 0.247423L18.6585 7.24742C18.8755 7.43731 19 7.71164 19 8V17C19 17.7957 18.6839 18.5587 18.1213 19.1213C17.5587 19.6839 16.7957 20 16 20H4C3.20435 20 2.44129 19.6839 1.87868 19.1213C1.31607 18.5587 1 17.7957 1 17V8C1 7.71164 1.12448 7.43731 1.3415 7.24742L9.3415 0.247423ZM8 18H12V12H8V18ZM14 18V11C14 10.4477 13.5523 10 13 10H7C6.44772 10 6 10.4477 6 11V18H4C3.73478 18 3.48043 17.8946 3.29289 17.7071C3.10536 17.5196 3 17.2652 3 17V8.45377L10 2.32877L17 8.45377V17C17 17.2652 16.8946 17.5196 16.7071 17.7071C16.5196 17.8946 16.2652 18 16 18H14Z" fill="#657077"/>
</g>
<defs>
<clipPath id="clip0_581_94659">
<rect width="20" height="20" fill="white"/>
</clipPath>
</defs>
</svg>
