<svg width="20" height="20" viewBox="0 0 20 20" fill="none" xmlns="http://www.w3.org/2000/svg">
<g clip-path="url(#clip0_581_94709)">
<path fill-rule="evenodd" clip-rule="evenodd" d="M3 2C2.44772 2 2 2.44772 2 3V17C2 17.4288 2.2699 17.7946 2.64909 17.9367L13.2929 7.29289C13.6834 6.90237 14.3166 6.90237 14.7071 7.29289L18 10.5858V3C18 2.44771 17.5523 2 17 2H3ZM20 12.999V3C20 1.34315 18.6569 0 17 0H3C1.34315 0 0 1.34315 0 3V17C0 18.6569 1.34315 20 3 20H17C18.6569 20 20 18.6569 20 17V13.001C20 13.0003 20 12.9997 20 12.999ZM18 13.4142L14 9.41421L5.41421 18H17C17.5523 18 18 17.5523 18 17V13.4142ZM6.5 6C6.22386 6 6 6.22386 6 6.5C6 6.77614 6.22386 7 6.5 7C6.77614 7 7 6.77614 7 6.5C7 6.22386 6.77614 6 6.5 6ZM4 6.5C4 5.11929 5.11929 4 6.5 4C7.88071 4 9 5.11929 9 6.5C9 7.88071 7.88071 9 6.5 9C5.11929 9 4 7.88071 4 6.5Z" fill="#657077"/>
</g>
<defs>
<clipPath id="clip0_581_94709">
<rect width="20" height="20" fill="white"/>
</clipPath>
</defs>
</svg>
