<svg width="20" height="20" viewBox="0 0 20 20" fill="none" xmlns="http://www.w3.org/2000/svg">
<g clip-path="url(#clip0_581_94638)">
<path fill-rule="evenodd" clip-rule="evenodd" d="M2.06189 9H5.05858C5.28635 6.63684 6.13717 4.37308 7.51923 2.39209C4.62077 3.33658 2.44954 5.89134 2.06189 9ZM10 2.45918C8.34948 4.35812 7.33896 6.62707 7.06954 9H12.9305C12.661 6.62707 11.6505 4.35812 10 2.45918ZM12.9305 11C12.661 13.3729 11.6505 15.6419 10 17.5408C8.34948 15.6419 7.33896 13.3729 7.06954 11H12.9305ZM5.05858 11H2.06189C2.44954 14.1087 4.62077 16.6634 7.51923 17.6079C6.13717 15.6269 5.28635 13.3632 5.05858 11ZM12.4808 17.6079C13.8628 15.6269 14.7137 13.3632 14.9414 11H17.9381C17.5505 14.1087 15.3792 16.6634 12.4808 17.6079ZM17.9381 9H14.9414C14.7137 6.63684 13.8628 4.37308 12.4808 2.39209C15.3792 3.33658 17.5505 5.89134 17.9381 9ZM0 10C0 4.47715 4.47715 0 10 0C15.5228 0 20 4.47715 20 10C20 15.5228 15.5228 20 10 20C4.47715 20 0 15.5228 0 10Z" fill="#657077"/>
</g>
<defs>
<clipPath id="clip0_581_94638">
<rect width="20" height="20" fill="white"/>
</clipPath>
</defs>
</svg>
