<svg width="20" height="20" viewBox="0 0 20 20" fill="none" xmlns="http://www.w3.org/2000/svg">
<path fill-rule="evenodd" clip-rule="evenodd" d="M4.5 3C3.67157 3 3 3.67157 3 4.5C3 5.32843 3.67157 6 4.5 6C5.32843 6 6 5.32843 6 4.5C6 3.67157 5.32843 3 4.5 3ZM1 4.5C1 2.567 2.567 1 4.5 1C6.433 1 8 2.567 8 4.5C8 6.433 6.433 8 4.5 8C2.567 8 1 6.433 1 4.5ZM16.2929 2.29289C16.6834 1.90237 17.3166 1.90237 17.7071 2.29289C18.0976 2.68342 18.0976 3.31658 17.7071 3.70711L3.70711 17.7071C3.31658 18.0976 2.68342 18.0976 2.29289 17.7071C1.90237 17.3166 1.90237 16.6834 2.29289 16.2929L16.2929 2.29289ZM15.5 14C14.6716 14 14 14.6716 14 15.5C14 16.3284 14.6716 17 15.5 17C16.3284 17 17 16.3284 17 15.5C17 14.6716 16.3284 14 15.5 14ZM12 15.5C12 13.567 13.567 12 15.5 12C17.433 12 19 13.567 19 15.5C19 17.433 17.433 19 15.5 19C13.567 19 12 17.433 12 15.5Z" fill="#657077"/>
</svg>
