<svg width="20" height="20" viewBox="0 0 20 20" fill="none" xmlns="http://www.w3.org/2000/svg">
<path d="M1 11H10.6347L7.29297 14.5132L8.70718 16L13.7072 10.7434C14.0977 10.3328 14.0977 9.66717 13.7072 9.2566L8.70718 4L7.29297 5.48679L10.6347 9L1 9C0.447716 9 0 9.44771 0 10C0 10.5523 0.447715 11 1 11Z" fill="#657077"/>
<path fill-rule="evenodd" clip-rule="evenodd" d="M16 5.82843V18H5V13H3V19C3 19.5523 3.44772 20 4 20H17C17.5523 20 18 19.5523 18 19V5.41421C18 5.149 17.8946 4.89464 17.7071 4.70711L16 3L13.2929 0.292893C13.1054 0.105357 12.851 0 12.5858 0H4C3.44772 0 3 0.447715 3 1V7H5V2H12.1716L14.5858 4.41421L16 5.82843Z" fill="#657077"/>
</svg>
