<svg width="20" height="20" viewBox="0 0 20 20" fill="none" xmlns="http://www.w3.org/2000/svg">
<g clip-path="url(#clip0_462_3587)">
<path fill-rule="evenodd" clip-rule="evenodd" d="M10.007 2.02637C7.80308 2.02637 5.80941 2.9185 4.36419 4.36375L4.3568 4.37114L4.35007 4.3776C4.35009 4.37757 4.35004 4.37762 4.34991 4.37775L4.34983 4.37783L4.34977 4.37788L4.34954 4.3781L4.34941 4.37823L4.3465 4.38105L4.32849 4.39873C4.31152 4.41548 4.28478 4.44212 4.24906 4.47846C4.17762 4.55116 4.07031 4.66259 3.93349 4.81123C3.84213 4.91046 3.73769 5.0262 3.62203 5.15799H6.15837V7.15799H1.02686C0.474571 7.15799 0.0268555 6.71027 0.0268555 6.15799V1.02637H2.02686V3.94417C2.19 3.75606 2.33628 3.59327 2.46204 3.45666C2.61435 3.2912 2.73671 3.16399 2.82264 3.07656C2.86561 3.03284 2.89948 2.99905 2.92346 2.97538L2.9519 2.94749L2.95589 2.94363C4.76038 1.14211 7.25435 0.0263672 10.007 0.0263672C15.5189 0.0263672 19.9872 4.49474 19.9872 10.0067C19.9872 15.5187 15.5189 19.987 10.007 19.987C4.4951 19.987 0.0268555 15.5187 0.0268555 10.0067H2.02686C2.02686 14.4141 5.59971 17.987 10.007 17.987C14.4143 17.987 17.9872 14.4141 17.9872 10.0067C17.9872 5.59927 14.4143 2.02637 10.007 2.02637ZM8.99951 4V11C8.99951 11.5523 9.44723 12 9.99951 12H13.9995V10H10.9995V4H8.99951Z" fill="#657077"/>
</g>
<defs>
<clipPath id="clip0_462_3587">
<rect width="20" height="20" fill="white"/>
</clipPath>
</defs>
</svg>
