<svg width="20" height="20" viewBox="0 0 20 20" fill="none" xmlns="http://www.w3.org/2000/svg">
<path fill-rule="evenodd" clip-rule="evenodd" d="M8.6085 0.376687C9.03087 0.13024 9.51077 0 10 0C10.4892 0 10.9691 0.130228 11.3914 0.376653C11.3922 0.37708 11.3929 0.377506 11.3936 0.377934L17.6159 3.97866C18.0382 4.22562 18.3875 4.57979 18.6299 5.00441C18.8722 5.42894 18.9995 5.90959 19 6.39825V13.6018C18.9995 14.0904 18.8722 14.5711 18.6299 14.9956C18.3875 15.4202 18.0382 15.7744 17.6159 16.0213L17.612 16.0236L11.3936 19.6221C11.3929 19.6225 11.3922 19.6229 11.3915 19.6233C10.9692 19.8698 10.4892 20 10 20C9.51073 20 9.0308 19.8697 8.60842 19.6233C8.60773 19.6229 8.60705 19.6225 8.60637 19.6221L2.38802 16.0236L2.38415 16.0213C1.96178 15.7744 1.61251 15.4202 1.37015 14.9956C1.12783 14.5711 1.00049 14.0904 1 13.6018V6.39825C1.00049 5.90959 1.12783 5.42894 1.37015 5.00441C1.61251 4.57979 1.96178 4.22563 2.38415 3.97867L2.38801 3.97641L8.6085 0.376687ZM11 17.5391L16.6064 14.2948C16.6069 14.2945 16.6075 14.2941 16.608 14.2938C16.7249 14.2251 16.8235 14.1256 16.8929 14.0042C16.9625 13.8822 16.9997 13.7429 17 13.6004C17 13.6002 17 13.6006 17 13.6004V7.4L11 10.6V17.5391ZM10 8.86667L12.0049 7.7974L6.00386 4.36824C5.95481 4.34022 5.90904 4.30867 5.86668 4.27409L3.71912 5.51687L10 8.86667ZM3 7.4V13.6001C3.00022 13.7428 3.03747 13.8821 3.10712 14.0042C3.17647 14.1257 3.2751 14.2251 3.392 14.2938C3.39254 14.2942 3.39309 14.2945 3.39363 14.2948L9 17.5391V10.6L3 7.4ZM7.85582 3.123L13.9961 6.63176C14.0268 6.64929 14.0562 6.6682 14.0843 6.68837L16.2809 5.51687L10.3841 2.10448C10.2665 2.03571 10.1341 2 10 2C9.86593 2 9.73348 2.0357 9.61585 2.10447L9.61199 2.10674L7.85582 3.123Z" fill="#657077"/>
</svg>
