<svg width="20" height="18" viewBox="0 0 20 18" fill="none" xmlns="http://www.w3.org/2000/svg">
<path fill-rule="evenodd" clip-rule="evenodd" d="M5.49982 4H3C2.44772 4 2 4.44772 2 5V7H7V9H1H0V8V5C0 3.34315 1.34315 2 3 2H5.05001C5.28164 0.85888 6.29052 0 7.5 0H12.5C13.7095 0 14.7184 0.85888 14.95 2H17C18.6569 2 20 3.34315 20 5V8V9H19H13V7H18V5C18 4.44771 17.5523 4 17 4H14.5002C14.0441 4.60722 13.3179 5 12.5 5H7.5C6.68209 5 5.95592 4.60722 5.49982 4ZM3 10V15C3 15.5523 3.44772 16 4 16H16C16.5523 16 17 15.5523 17 15V10H19V15C19 16.6569 17.6569 18 16 18H4C2.34315 18 1 16.6569 1 15V10H3ZM8 7H12V10C12 11.1046 11.1046 12 10 12C8.89543 12 8 11.1046 8 10V7ZM8.5 2C8.22386 2 8 2.22386 8 2.5C8 2.77614 8.22386 3 8.5 3H11.5C11.7761 3 12 2.77614 12 2.5C12 2.22386 11.7761 2 11.5 2H8.5Z" fill="#657077"/>
</svg>
