<svg width="20" height="20" viewBox="0 0 20 20" fill="none" xmlns="http://www.w3.org/2000/svg">
<path fill-rule="evenodd" clip-rule="evenodd" d="M5.71429 2C5.55787 2 5.38572 2.0676 5.24261 2.2253C5.09656 2.38621 5 2.62352 5 2.88889V15.9404L8.14461 13.4655C9.23318 12.6087 10.7668 12.6087 11.8554 13.4655L15 15.9404V2.88889C15 2.62352 14.9034 2.38621 14.7574 2.2253C14.6143 2.0676 14.4421 2 14.2857 2H5.71429ZM3.7616 0.881189C4.26146 0.330414 4.96139 0 5.71429 0H14.2857C15.0386 0 15.7385 0.330414 16.2384 0.881189C16.7353 1.42874 17 2.15233 17 2.88889V18C17 18.383 16.7813 18.7323 16.4368 18.8996C16.0923 19.0668 15.6825 19.0227 15.3815 18.7858L10.6185 15.0371C10.2556 14.7515 9.74439 14.7515 9.38154 15.0371L4.61846 18.7858C4.31752 19.0227 3.90774 19.0668 3.56323 18.8996C3.21872 18.7323 3 18.383 3 18V2.88889C3 2.15233 3.26466 1.42874 3.7616 0.881189Z" fill="#657077"/>
</svg>
