<svg width="20" height="20" viewBox="0 0 20 20" fill="none" xmlns="http://www.w3.org/2000/svg">
<g clip-path="url(#clip0_1034_40437)">
<path fill-rule="evenodd" clip-rule="evenodd" d="M0 1C0 0.447715 0.447715 0 1 0H3C3.74028 0 4.38663 0.402199 4.73244 1H16.7192C18.0204 1 18.9751 2.22278 18.6595 3.48507L17.1595 9.48507C16.9369 10.3754 16.137 11 15.2192 11H6.78078C5.86304 11 5.06308 10.3754 4.84049 9.48507L3.02986 2.24254L2.96922 2H1C0.447715 2 0 1.55228 0 1ZM5.28078 3L6.78078 9H15.2192L16.7192 3H5.28078ZM5 13C5 12.4477 5.44772 12 6 12H16C16.5523 12 17 12.4477 17 13C17 13.5523 16.5523 14 16 14H6C5.44772 14 5 13.5523 5 13ZM8 17C8 18.1046 7.10457 19 6 19C4.89543 19 4 18.1046 4 17C4 15.8954 4.89543 15 6 15C7.10457 15 8 15.8954 8 17ZM16 19C17.1046 19 18 18.1046 18 17C18 15.8954 17.1046 15 16 15C14.8954 15 14 15.8954 14 17C14 18.1046 14.8954 19 16 19Z" fill="#333333"/>
</g>
<defs>
<clipPath id="clip0_1034_40437">
<rect width="20" height="20" fill="white"/>
</clipPath>
</defs>
</svg>
