<svg width="20" height="20" viewBox="0 0 20 20" fill="none" xmlns="http://www.w3.org/2000/svg">
<path fill-rule="evenodd" clip-rule="evenodd" d="M3 3C2.73478 3 2.48043 3.10536 2.29289 3.29289C2.10536 3.48043 2 3.73478 2 4V16C2 16.2652 2.10536 16.5196 2.29289 16.7071C2.48043 16.8946 2.73478 17 3 17H17C17.2652 17 17.5196 16.8946 17.7071 16.7071C17.8946 16.5196 18 16.2652 18 16V7C18 6.73478 17.8946 6.48043 17.7071 6.29289C17.5196 6.10536 17.2652 6 17 6H10C9.66565 6 9.35342 5.8329 9.16795 5.5547L7.46482 3H3ZM0.87868 1.87868C1.44129 1.31607 2.20435 1 3 1H8C8.33435 1 8.64658 1.1671 8.83205 1.4453L10.5352 4H17C17.7957 4 18.5587 4.31607 19.1213 4.87868C19.6839 5.44129 20 6.20435 20 7V16C20 16.7957 19.6839 17.5587 19.1213 18.1213C18.5587 18.6839 17.7957 19 17 19H3C2.20435 19 1.44129 18.6839 0.87868 18.1213C0.31607 17.5587 0 16.7956 0 16V4C0 3.20435 0.31607 2.44129 0.87868 1.87868Z" fill="#657077"/>
</svg>
