<svg width="20" height="20" viewBox="0 0 20 20" fill="none" xmlns="http://www.w3.org/2000/svg">
<path fill-rule="evenodd" clip-rule="evenodd" d="M18 2H14.8293C14.4175 0.834808 13.3062 0 12 0H8C6.69378 0 5.58254 0.834808 5.17071 2H2C0.895431 2 0 2.89543 0 4V8H7V6H13V8H20V4C20 2.89543 19.1046 2 18 2ZM7 9V10C7 11.6569 8.34315 13 10 13C11.6569 13 13 11.6569 13 10V9H19V15C19 16.6569 17.6569 18 16 18H4C2.34315 18 1 16.6569 1 15V9H7ZM8 2.5C8 2.22386 8.22386 2 8.5 2H11.5C11.7761 2 12 2.22386 12 2.5C12 2.77614 11.7761 3 11.5 3H8.5C8.22386 3 8 2.77614 8 2.5ZM12 7H8V10C8 11.1046 8.89543 12 10 12C11.1046 12 12 11.1046 12 10V7Z" fill="#657077"/>
</svg>
