<svg width="20" height="20" viewBox="0 0 20 20" fill="none" xmlns="http://www.w3.org/2000/svg">
<path d="M2.03133 18.8718L2.02952 18.8684C2.01095 18.8342 2 18.7952 2 18.75V15H5V18.75C5 18.8244 4.96891 18.8905 4.91469 18.9385C4.87004 18.9774 4.81369 19 4.75 19H2.25C2.17992 19 2.11598 18.9716 2.06798 18.9216C2.05652 18.909 2.04888 18.8996 2.04383 18.8929C2.04069 18.8882 2.03638 18.8811 2.03133 18.8718ZM9.09154 5.05726L9.09354 5.05562C9.1374 5.01999 9.19054 4.99997 9.25 4.99997H11.75C11.8883 4.99997 12 5.11165 12 5.24997V7.99997H9V5.24997C9 5.17159 9.03496 5.10298 9.09154 5.05726ZM16 1.24997C16 1.11165 16.1117 0.999969 16.25 0.999969H18.75C18.8883 0.999969 19 1.11165 19 1.24997V3.99997H16V1.24997ZM16 6.99997H19V18.75C19 18.8883 18.8883 19 18.75 19H16.25C16.1117 19 16 18.8883 16 18.75V6.99997ZM12 11V18.75C12 18.8883 11.8883 19 11.75 19H9.25C9.11166 19 9 18.8883 9 18.75V11H12ZM2 9.24997C2 9.11165 2.11166 8.99997 2.25 8.99997H4.75C4.88834 8.99997 5 9.11165 5 9.24997V12H2V9.24997Z" fill="#ECEEF1" stroke="#657077" stroke-width="2"/>
</svg>
