<svg width="20" height="20" viewBox="0 0 20 20" fill="none" xmlns="http://www.w3.org/2000/svg">
<path fill-rule="evenodd" clip-rule="evenodd" d="M2 7.00006C2 6.44777 2.44772 6.00006 3 6.00006H17C17.5523 6.00006 18 6.44777 18 7.00006C18 7.55234 17.5523 8.00006 17 8.00006H3C2.44772 8.00006 2 7.55234 2 7.00006Z" fill="#657077"/>
<path fill-rule="evenodd" clip-rule="evenodd" d="M2 13.0001C2 12.4478 2.44772 12.0001 3 12.0001H17C17.5523 12.0001 18 12.4478 18 13.0001C18 13.5523 17.5523 14.0001 17 14.0001H3C2.44772 14.0001 2 13.5523 2 13.0001Z" fill="#657077"/>
<path fill-rule="evenodd" clip-rule="evenodd" d="M9.18429 1.01719C9.72711 1.11897 10.0847 1.64152 9.98287 2.18435L6.98287 18.1843C6.88109 18.7272 6.35854 19.0847 5.81571 18.9829C5.27289 18.8811 4.91535 18.3586 5.01713 17.8158L8.01713 1.81577C8.11891 1.27294 8.64146 0.915406 9.18429 1.01719Z" fill="#657077"/>
<path fill-rule="evenodd" clip-rule="evenodd" d="M14.1843 1.01719C14.7271 1.11897 15.0847 1.64152 14.9829 2.18435L11.9829 18.1843C11.8811 18.7272 11.3585 19.0847 10.8157 18.9829C10.2729 18.8811 9.91535 18.3586 10.0171 17.8158L13.0171 1.81577C13.1189 1.27294 13.6415 0.915406 14.1843 1.01719Z" fill="#657077"/>
</svg>
