<svg width="20" height="20" viewBox="0 0 20 20" fill="none" xmlns="http://www.w3.org/2000/svg">
<g clip-path="url(#clip0_47_1244)">
<path d="M18.0004 3C19.1048 3.00024 20.0004 3.89558 20.0004 5V15C20.0004 16.1044 19.1048 16.9998 18.0004 17H2.00043C0.895858 17 0.000427246 16.1046 0.000427246 15V5C0.000427482 3.89543 0.895857 3 2.00043 3H18.0004ZM2.00043 15H18.0004V5H2.00043V15ZM8.28754 10.8008C9.40126 10.8019 9.82958 12.0386 9.98773 13.0049C10.0768 13.5496 9.62758 13.9997 9.07562 14H3.92426C3.37219 13.9999 2.92225 13.5497 3.01117 13.0049C3.16931 12.0382 3.59835 10.8008 4.71234 10.8008C4.96806 10.8013 5.73383 11.3338 6.49945 11.334C7.26546 11.3339 8.03211 10.8007 8.28754 10.8008ZM16.0004 12H11.0004V10H16.0004V12ZM6.50043 6C7.48739 6.00013 8.32872 6.80345 8.23676 7.78613C8.11843 9.05018 7.72906 9.99974 6.45355 10C5.18377 10 4.83795 9.04076 4.74554 7.78711C4.67301 6.80273 5.51342 6.00025 6.50043 6ZM16.9985 9H10.0004V7H16.9985V9Z" fill="#657077"/>
</g>
<defs>
<clipPath id="clip0_47_1244">
<rect width="20" height="20" fill="white"/>
</clipPath>
</defs>
</svg>
