<svg width="20" height="20" viewBox="0 0 20 20" fill="none" xmlns="http://www.w3.org/2000/svg">
<path fill-rule="evenodd" clip-rule="evenodd" d="M19 2C19 1.72161 18.8839 1.45581 18.6798 1.26657C18.4756 1.07733 18.2017 0.981767 17.9242 1.00288C8.89487 1.68975 1.68975 8.89487 1.00288 17.9242C0.981767 18.2017 1.07733 18.4756 1.26657 18.6798C1.45581 18.8839 1.72161 19 2 19H15.6C17.4778 19 19 17.4778 19 15.6V2ZM7.16592 17H3.11467C4.13973 9.82025 9.82025 4.13973 17 3.11467V7.16592C11.975 8.00895 8.00895 11.975 7.16592 17ZM9.20004 17H15.6C16.3732 17 17 16.3732 17 15.6V9.20004C13.0817 9.9954 9.9954 13.0817 9.20004 17Z" fill="#657077"/>
</svg>
