<svg width="20" height="20" viewBox="0 0 20 20" fill="none" xmlns="http://www.w3.org/2000/svg">
<path fill-rule="evenodd" clip-rule="evenodd" d="M10.0009 1C10.3911 1 10.7456 1.22689 10.909 1.58115L13.2138 6.57791L18.6782 7.2258C19.0656 7.27174 19.391 7.53879 19.5115 7.90983C19.6321 8.28087 19.5258 8.68815 19.2394 8.95303L15.1994 12.6891L16.2718 18.0863C16.3479 18.4689 16.1944 18.8609 15.8788 19.0902C15.5632 19.3195 15.143 19.3443 14.8026 19.1537L10.0009 16.466L5.19932 19.1537C4.85889 19.3443 4.43872 19.3195 4.1231 19.0902C3.80747 18.8609 3.65402 18.4689 3.73006 18.0863L4.80247 12.6891L0.762489 8.95303C0.476058 8.68815 0.369826 8.28087 0.490384 7.90983C0.610943 7.53879 0.936278 7.27174 1.3237 7.2258L6.78811 6.57791L9.09289 1.58115C9.2563 1.22689 9.61081 1 10.0009 1ZM10.0009 4.38751L8.36977 7.92389C8.22411 8.2397 7.92482 8.45714 7.57946 8.49809L3.7121 8.95663L6.57134 11.6008C6.82667 11.8369 6.94099 12.1887 6.87321 12.5298L6.11423 16.3496L9.51251 14.4474C9.81598 14.2775 10.1859 14.2775 10.4894 14.4474L13.8877 16.3496L13.1287 12.5298C13.0609 12.1887 13.1752 11.8369 13.4306 11.6008L16.2898 8.95663L12.4224 8.49809C12.0771 8.45714 11.7778 8.2397 11.6321 7.92389L10.0009 4.38751Z" fill="#657077"/>
</svg>
