<svg width="20" height="20" viewBox="0 0 20 20" fill="none" xmlns="http://www.w3.org/2000/svg">
<g clip-path="url(#clip0_581_94707)">
<path fill-rule="evenodd" clip-rule="evenodd" d="M16.4324 2C16.2266 2 16.0227 2.04055 15.8325 2.11933C15.6423 2.19811 15.4695 2.31358 15.3239 2.45914L3.25659 14.5265L2.42524 17.5748L5.47353 16.7434L17.5409 4.67608C17.6864 4.53051 17.8019 4.3577 17.8807 4.16751C17.9595 3.97732 18 3.77348 18 3.56761C18 3.36175 17.9595 3.1579 17.8807 2.96771C17.8019 2.77752 17.6864 2.60471 17.5409 2.45914C17.3953 2.31358 17.2225 2.19811 17.0323 2.11933C16.8421 2.04055 16.6383 2 16.4324 2ZM15.0671 0.271568C15.5 0.0922788 15.9639 0 16.4324 0C16.9009 0 17.3648 0.0922786 17.7977 0.271568C18.2305 0.450858 18.6238 0.713646 18.9551 1.04493C19.2864 1.37621 19.5492 1.7695 19.7285 2.20235C19.9077 2.63519 20 3.09911 20 3.56761C20 4.03611 19.9077 4.50003 19.7285 4.93288C19.5492 5.36572 19.2864 5.75901 18.9551 6.09029L6.69996 18.3454C6.57691 18.4685 6.42387 18.5573 6.25597 18.6031L1.26314 19.9648C0.916928 20.0592 0.546666 19.9609 0.292916 19.7071C0.0391662 19.4534 -0.0591621 19.0831 0.0352593 18.7369L1.39694 13.7441C1.44273 13.5762 1.53154 13.4231 1.6546 13.3001L13.9097 1.04493C14.241 0.713645 14.6343 0.450857 15.0671 0.271568Z" fill="#657077"/>
</g>
<defs>
<clipPath id="clip0_581_94707">
<rect width="20" height="20" fill="white"/>
</clipPath>
</defs>
</svg>
