<svg width="20" height="20" viewBox="0 0 20 20" fill="none" xmlns="http://www.w3.org/2000/svg">
<g clip-path="url(#clip0_581_94622)">
<path fill-rule="evenodd" clip-rule="evenodd" d="M9 2C5.13401 2 2 5.13401 2 9C2 12.866 5.13401 16 9 16C10.8867 16 12.5991 15.2535 13.858 14.0399C13.884 14.0062 13.9124 13.9738 13.9433 13.9429C13.9741 13.9121 14.0065 13.8836 14.0402 13.8577C15.2537 12.5988 16 10.8866 16 9C16 5.13401 12.866 2 9 2ZM16.0321 14.6175C17.2636 13.0778 18 11.1249 18 9C18 4.02944 13.9706 0 9 0C4.02944 0 0 4.02944 0 9C0 13.9706 4.02944 18 9 18C11.1251 18 13.0782 17.2635 14.6179 16.0317L18.2933 19.7071C18.6838 20.0977 19.317 20.0977 19.7075 19.7071C20.098 19.3166 20.098 18.6834 19.7075 18.2929L16.0321 14.6175Z" fill="#657077"/>
</g>
<defs>
<clipPath id="clip0_581_94622">
<rect width="20" height="20" fill="white"/>
</clipPath>
</defs>
</svg>
