<svg width="20" height="20" viewBox="0 0 20 20" fill="none" xmlns="http://www.w3.org/2000/svg">
<g clip-path="url(#clip0_581_94667)">
<path fill-rule="evenodd" clip-rule="evenodd" d="M10 2C5.58172 2 2 5.58172 2 10C2 14.4183 5.58172 18 10 18C14.4183 18 18 14.4183 18 10C18 5.58172 14.4183 2 10 2ZM0 10C0 4.47715 4.47715 0 10 0C15.5228 0 20 4.47715 20 10C20 15.5228 15.5228 20 10 20C4.47715 20 0 15.5228 0 10ZM10 4C10.5523 4 11 4.44772 11 5V9.46482L13.5547 11.1679C14.0142 11.4743 14.1384 12.0952 13.8321 12.5547C13.5257 13.0142 12.9048 13.1384 12.4453 12.8321L9.4453 10.8321C9.1671 10.6466 9 10.3344 9 10V5C9 4.44772 9.44771 4 10 4Z" fill="#657077"/>
</g>
<defs>
<clipPath id="clip0_581_94667">
<rect width="20" height="20" fill="white"/>
</clipPath>
</defs>
</svg>
