<svg width="20" height="20" viewBox="0 0 20 20" fill="none" xmlns="http://www.w3.org/2000/svg">
<g clip-path="url(#clip0_581_94742)">
<path fill-rule="evenodd" clip-rule="evenodd" d="M3.68014 5.09436C2.62708 6.44904 2 8.15129 2 10C2 11.8487 2.62708 13.551 3.68014 14.9056L5.8284 12.7574C5.30488 11.967 5 11.0191 5 10C5 8.98092 5.30488 8.03304 5.8284 7.24261L3.68014 5.09436ZM5.09436 3.68014L7.24261 5.8284C8.03304 5.30488 8.98092 5 10 5C11.0191 5 11.967 5.30488 12.7574 5.8284L14.9056 3.68014C13.551 2.62708 11.8487 2 10 2C8.15129 2 6.44904 2.62708 5.09436 3.68014ZM16.3199 5.09436L14.1716 7.24261C14.6951 8.03304 15 8.98092 15 10C15 11.0191 14.6951 11.967 14.1716 12.7574L16.3199 14.9056C17.3729 13.551 18 11.8487 18 10C18 8.15129 17.3729 6.44904 16.3199 5.09436ZM14.9056 16.3199L12.7574 14.1716C11.967 14.6951 11.0191 15 10 15C8.98092 15 8.03304 14.6951 7.24261 14.1716L5.09436 16.3199C6.44904 17.3729 8.15129 18 10 18C11.8487 18 13.551 17.3729 14.9056 16.3199ZM0 10C0 4.47715 4.47715 0 10 0C15.5228 0 20 4.47715 20 10C20 15.5228 15.5228 20 10 20C4.47715 20 0 15.5228 0 10ZM10 7C8.34315 7 7 8.34315 7 10C7 11.6569 8.34315 13 10 13C11.6569 13 13 11.6569 13 10C13 8.34315 11.6569 7 10 7Z" fill="#657077"/>
</g>
<defs>
<clipPath id="clip0_581_94742">
<rect width="20" height="20" fill="white"/>
</clipPath>
</defs>
</svg>
