<svg width="18" height="18" viewBox="0 0 18 18" fill="none" xmlns="http://www.w3.org/2000/svg">
<path fill-rule="evenodd" clip-rule="evenodd" d="M18 1C18 0.721606 17.8839 0.455811 17.6798 0.266568C17.4756 0.0773254 17.2017 -0.0182333 16.9242 0.00288372C7.89487 0.689753 0.689753 7.89487 0.00288372 16.9242C-0.0182333 17.2017 0.0773254 17.4756 0.266568 17.6798C0.455811 17.8839 0.721606 18 1 18H14.6C16.4778 18 18 16.4778 18 14.6V1ZM6.16592 16H2.11467C3.13973 8.82025 8.82025 3.13973 16 2.11467V6.16592C10.975 7.00895 7.00895 10.975 6.16592 16ZM8.20004 16H14.6C15.3732 16 16 15.3732 16 14.6V8.20004C12.0817 8.9954 8.9954 12.0817 8.20004 16Z" fill="#657077"/>
</svg>
