<svg width="20" height="20" viewBox="0 0 20 20" fill="none" xmlns="http://www.w3.org/2000/svg">
<path fill-rule="evenodd" clip-rule="evenodd" d="M2.6 5C2.33249 5 2 5.25369 2 5.71429V14.2857C2 14.7463 2.33249 15 2.6 15H11.4C11.6675 15 12 14.7463 12 14.2857V5.71429C12 5.25369 11.6675 5 11.4 5H2.6ZM14 8.13148V5.71429C14 4.28133 12.8998 3 11.4 3H2.6C1.1002 3 0 4.28133 0 5.71429V14.2857C0 15.7187 1.1002 17 2.6 17H11.4C12.8998 17 14 15.7187 14 14.2857V11.8685L18.4453 14.8321C18.7522 15.0366 19.1467 15.0557 19.4719 14.8817C19.797 14.7077 20 14.3688 20 14V6C20 5.6312 19.797 5.29234 19.4719 5.11833C19.1467 4.94431 18.7522 4.96338 18.4453 5.16795L14 8.13148ZM14.8028 10L18 12.1315V7.86852L14.8028 10Z" fill="#657077"/>
</svg>
