<svg width="20" height="20" viewBox="0 0 20 20" fill="none" xmlns="http://www.w3.org/2000/svg">
<g clip-path="url(#clip0_2944_110295)">
<path fill-rule="evenodd" clip-rule="evenodd" d="M16.3599 6.63211C16.9457 6.04633 17.8954 6.04633 18.4812 6.63211C19.067 7.2179 19.067 8.16765 18.4812 8.75343L14.9457 12.289C14.7504 12.4842 14.4339 12.4842 14.2386 12.289L12.8244 10.8748C12.6291 10.6795 12.6291 10.3629 12.8244 10.1676L16.3599 6.63211ZM3.64076 9.91215C3.79507 8.81626 4.14793 7.73347 4.52474 6.81776L12.6387 14.9318C11.723 15.3086 10.6402 15.6614 9.54434 15.8157C7.83422 16.0565 6.41777 15.7819 5.39976 14.7638L5.39134 14.7554L5.38588 14.75L5.38158 14.7457L5.37504 14.7391L5.37179 14.7359L5.36963 14.7337L5.36197 14.726L5.35315 14.7172L5.35211 14.7162L5.35059 14.7147L5.34222 14.7063L5.33642 14.7005L5.3323 14.6964L5.32641 14.6905L5.32235 14.6864L5.31945 14.6835L5.31236 14.6764L5.30251 14.6666L5.30236 14.6664L5.30224 14.6663L5.29232 14.6564L5.28479 14.6489L5.28226 14.6463L5.27888 14.643L5.27217 14.6363L5.26709 14.6312L5.26206 14.6261L5.25552 14.6196L5.25193 14.616L5.24914 14.6132L5.24178 14.6059L5.23242 14.5965L5.2316 14.5957L5.23095 14.595L5.22141 14.5855L5.21251 14.5766L5.2112 14.5753L5.2096 14.5737L5.20097 14.5651L5.19382 14.5579L5.19073 14.5548L5.18704 14.5511L5.18047 14.5445L5.17488 14.539L5.17019 14.5343L5.16474 14.5288L5.1599 14.524L5.15569 14.5198L5.14961 14.5137L5.14271 14.5068L5.1393 14.5034L5.13624 14.5003L5.12898 14.4931L5.12095 14.485L5.11865 14.4827L5.11654 14.4806L5.10831 14.4724L5.09944 14.4635L5.09797 14.4621L5.09659 14.4607L5.08763 14.4517L5.0782 14.4423L5.07727 14.4414L5.07638 14.4405L5.06692 14.431L5.05722 14.4213L5.05656 14.4206L5.05592 14.42L5.04621 14.4103L5.03649 14.4006L5.03585 14.3999L5.03519 14.3993L5.02549 14.3896L5.01603 14.3801L5.01514 14.3792L5.01421 14.3783L5.00478 14.3689L4.99582 14.3599L4.99444 14.3585L4.99297 14.357L4.9841 14.3482L4.97587 14.3399L4.97376 14.3378L4.97146 14.3355L4.96343 14.3275L4.95617 14.3203L4.95311 14.3172L4.9497 14.3138L4.9428 14.3069L4.93672 14.3008L4.93251 14.2966L4.92767 14.2917L4.92222 14.2863L4.91753 14.2816L4.91194 14.276L4.90537 14.2695L4.90168 14.2658L4.89859 14.2627L4.89144 14.2555L4.88281 14.2469L4.88121 14.2453L4.8799 14.244L4.871 14.2351L4.86146 14.2255L4.86081 14.2249L4.85999 14.2241L4.85063 14.2147L4.84327 14.2073L4.84048 14.2046L4.83689 14.201L4.83035 14.1944L4.82532 14.1894L4.82024 14.1843L4.81353 14.1776L4.81015 14.1742L4.80762 14.1717L4.80009 14.1642L4.79017 14.1542L4.79005 14.1541L4.7899 14.154L4.78005 14.1441L4.77296 14.137L4.77006 14.1341L4.766 14.1301L4.76011 14.1242L4.75599 14.1201L4.75019 14.1143L4.74182 14.1059L4.7403 14.1044L4.73926 14.1033L4.73044 14.0945L4.72278 14.0869L4.72062 14.0847L4.71737 14.0815L4.71083 14.0749L4.70653 14.0706L4.70107 14.0652L4.69265 14.0567C3.67464 13.0387 3.39997 11.6223 3.64076 9.91215ZM4.75086 16.8218C8.04308 19.1286 12.8052 17.1661 14.9218 16.0781C15.4908 15.7857 15.5772 15.0418 15.1249 14.5895L4.86704 4.33162C4.41467 3.87925 3.67082 3.96566 3.37837 4.53465C2.29042 6.65134 0.32786 11.4134 2.63469 14.7056C2.61295 14.724 2.59181 14.7434 2.57133 14.7638L0.450012 16.8852C0.0594876 17.2757 0.0594873 17.9089 0.450012 18.2994L1.15712 19.0065C1.54764 19.397 2.18081 19.397 2.57133 19.0065L4.69265 16.8852C4.71313 16.8647 4.73253 16.8435 4.75086 16.8218ZM12.8244 0.975259C12.2386 0.389473 11.2888 0.389473 10.7031 0.975259L7.16753 4.51079C6.97226 4.70605 6.97226 5.02264 7.16753 5.2179L8.58174 6.63211C8.777 6.82738 9.09358 6.82738 9.28885 6.63211L12.8244 3.09658C13.4102 2.51079 13.4102 1.56105 12.8244 0.975259Z" fill="#657077"/>
</g>
<defs>
<clipPath id="clip0_2944_110295">
<rect width="20" height="20" fill="white"/>
</clipPath>
</defs>
</svg>
