<svg width="20" height="20" viewBox="0 0 20 20" fill="none" xmlns="http://www.w3.org/2000/svg">
<path fill-rule="evenodd" clip-rule="evenodd" d="M0 5C0 3.34315 1.34315 2 3 2H6.4C7.59622 2 8.75747 2.43928 9.62499 3.24255C9.7588 3.36645 9.88398 3.49754 10 3.63496C10.116 3.49754 10.2412 3.36645 10.375 3.24255C11.2425 2.43928 12.4038 2 13.6 2H17C18.6569 2 20 3.34315 20 5V13.5C20 15.1569 18.6569 16.5 17 16.5H12.7C12.2254 16.5 11.7842 16.6753 11.4702 16.966C11.1589 17.2543 11 17.6281 11 18C11 18.5523 10.5523 19 10 19C9.44771 19 9 18.5523 9 18C9 17.6281 8.84114 17.2543 8.52978 16.966C8.21583 16.6753 7.77464 16.5 7.3 16.5H3C1.34314 16.5 0 15.1569 0 13.5V5ZM9 14.8909C8.47596 14.6347 7.89281 14.5 7.3 14.5H3C2.44771 14.5 2 14.0523 2 13.5V5C2 4.44772 2.44772 4 3 4H6.4C7.11334 4 7.78344 4.26309 8.26618 4.71007C8.74632 5.15465 9 5.74041 9 6.33333V14.8909ZM11 14.8909C11.524 14.6347 12.1072 14.5 12.7 14.5H17C17.5523 14.5 18 14.0523 18 13.5V5C18 4.44772 17.5523 4 17 4H13.6C12.8867 4 12.2166 4.26309 11.7338 4.71007C11.2537 5.15465 11 5.74041 11 6.33333V14.8909Z" fill="#657077"/>
</svg>
