<svg width="20" height="20" viewBox="0 0 20 20" fill="none" xmlns="http://www.w3.org/2000/svg">
<g clip-path="url(#clip0_462_3538)">
<path fill-rule="evenodd" clip-rule="evenodd" d="M2 10C2 5.58172 5.58172 2 10 2C14.4183 2 18 5.58172 18 10C18 14.4183 14.4183 18 10 18C5.58172 18 2 14.4183 2 10ZM10 0C4.47715 0 0 4.47715 0 10C0 15.5228 4.47715 20 10 20C15.5228 20 20 15.5228 20 10C20 4.47715 15.5228 0 10 0ZM9 3.5V10.0001C9 11.1047 9.89543 12.0001 11 12.0001H14.5V10.0001H11V3.5H9Z" fill="#657077"/>
</g>
<defs>
<clipPath id="clip0_462_3538">
<rect width="20" height="20" fill="white"/>
</clipPath>
</defs>
</svg>
