<svg width="20" height="20" viewBox="0 0 20 20" fill="none" xmlns="http://www.w3.org/2000/svg">
<g clip-path="url(#clip0_581_94766)">
<path fill-rule="evenodd" clip-rule="evenodd" d="M9.99988 2C8.89531 2 7.99988 2.89543 7.99988 4C7.99988 5.10457 8.89531 6 9.99988 6C11.1044 6 11.9999 5.10457 11.9999 4C11.9999 2.89543 11.1044 2 9.99988 2ZM5.99988 4C5.99988 1.79086 7.79074 0 9.99988 0C12.209 0 13.9999 1.79086 13.9999 4C13.9999 5.86384 12.7251 7.42994 10.9999 7.87398V17.9373C12.7529 17.7165 14.3941 16.9195 15.6567 15.6569C16.7342 14.5794 17.4725 13.2263 17.8032 11.7632C17.8455 11.5759 17.7957 11.4116 17.6636 11.27C17.5208 11.1169 17.2825 11 16.9999 11H16.2999C15.7476 11 15.2999 10.5523 15.2999 10C15.2999 9.44771 15.7476 9 16.2999 9H16.9999C18.5775 9 20.1737 10.3469 19.754 12.2041C19.3407 14.0328 18.4178 15.7242 17.0709 17.0711C15.1956 18.9464 12.652 20 9.99988 20C7.34771 20 4.80417 18.9464 2.92881 17.0711C1.58197 15.7242 0.659022 14.0328 0.245762 12.2041C-0.173925 10.3469 1.42228 9 2.99988 9H3.69988C4.25216 9 4.69988 9.44771 4.69988 10C4.69988 10.5523 4.25216 11 3.69988 11H2.99988C2.71726 11 2.47898 11.1169 2.33617 11.27C2.20407 11.4116 2.15424 11.5759 2.19657 11.7632C2.52721 13.2263 3.2656 14.5794 4.34302 15.6569C5.60565 16.9195 7.24688 17.7165 8.99988 17.9373V7.87398C7.27465 7.42994 5.99988 5.86384 5.99988 4Z" fill="#657077"/>
</g>
<defs>
<clipPath id="clip0_581_94766">
<rect width="20" height="20" fill="white"/>
</clipPath>
</defs>
</svg>
