<svg width="20" height="20" viewBox="0 0 20 20" fill="none" xmlns="http://www.w3.org/2000/svg">
<path fill-rule="evenodd" clip-rule="evenodd" d="M3 11C3.55228 11 4 11.4477 4 12V17.8333C4 18.3856 3.55228 18.8333 3 18.8333C2.44772 18.8333 2 18.3856 2 17.8333V12C2 11.4477 2.44772 11 3 11Z" fill="#657077"/>
<path fill-rule="evenodd" clip-rule="evenodd" d="M3 1C3.55228 1 4 1.44772 4 2V7.83333C4 8.38562 3.55228 8.83333 3 8.83333C2.44772 8.83333 2 8.38562 2 7.83333V2C2 1.44772 2.44772 1 3 1Z" fill="#657077"/>
<path fill-rule="evenodd" clip-rule="evenodd" d="M10 9C10.5523 9 11 9.44772 11 10V18C11 18.5523 10.5523 19 10 19C9.44772 19 9 18.5523 9 18V10C9 9.44772 9.44772 9 10 9Z" fill="#657077"/>
<path fill-rule="evenodd" clip-rule="evenodd" d="M10 1C10.5523 1 11 1.44772 11 2V6.16667C11 6.71895 10.5523 7.16667 10 7.16667C9.44772 7.16667 9 6.71895 9 6.16667V2C9 1.44772 9.44772 1 10 1Z" fill="#657077"/>
<path fill-rule="evenodd" clip-rule="evenodd" d="M17 13C17.5523 13 18 13.4477 18 14V18.1667C18 18.719 17.5523 19.1667 17 19.1667C16.4477 19.1667 16 18.719 16 18.1667V14C16 13.4477 16.4477 13 17 13Z" fill="#657077"/>
<path fill-rule="evenodd" clip-rule="evenodd" d="M17 1C17.5523 1 18 1.44772 18 2V9.5C18 10.0523 17.5523 10.5 17 10.5C16.4477 10.5 16 10.0523 16 9.5V2C16 1.44772 16.4477 1 17 1Z" fill="#657077"/>
<path fill-rule="evenodd" clip-rule="evenodd" d="M0 12C0 11.4477 0.447715 11 1 11H5C5.55228 11 6 11.4477 6 12C6 12.5523 5.55228 13 5 13H1C0.447715 13 0 12.5523 0 12Z" fill="#657077"/>
<path fill-rule="evenodd" clip-rule="evenodd" d="M6 7C6 6.44772 6.44772 6 7 6H13C13.5523 6 14 6.44772 14 7C14 7.55228 13.5523 8 13 8H7C6.44772 8 6 7.55228 6 7Z" fill="#657077"/>
<path fill-rule="evenodd" clip-rule="evenodd" d="M14 13C14 12.4477 14.4477 12 15 12H19C19.5523 12 20 12.4477 20 13C20 13.5523 19.5523 14 19 14H15C14.4477 14 14 13.5523 14 13Z" fill="#657077"/>
</svg>
