<svg width="20" height="20" viewBox="0 0 20 20" fill="none" xmlns="http://www.w3.org/2000/svg">
<g clip-path="url(#clip0_581_94733)">
<path fill-rule="evenodd" clip-rule="evenodd" d="M10.4478 3.00828C10.1662 2.86752 9.83486 2.86752 9.55333 3.00828L3.90328 5.83331L9.55333 8.65833C9.83486 8.7991 10.1662 8.7991 10.4478 8.65833L16.0978 5.83331L10.4478 3.00828ZM8.6589 1.21943C9.50349 0.797137 10.4976 0.797137 11.3422 1.21943L18.7811 4.93888C19.1199 5.10827 19.3339 5.45454 19.3339 5.83331C19.3339 6.21208 19.1199 6.55834 18.7811 6.72774L11.3422 10.4472C10.4976 10.8695 9.50349 10.8695 8.6589 10.4472L1.22 6.72774C0.881214 6.55834 0.667211 6.21208 0.667211 5.83331C0.667211 5.45454 0.881214 5.10827 1.22 4.93888L8.6589 1.21943ZM0.772784 9.5528C1.01977 9.05882 1.62045 8.8586 2.11442 9.10559L9.55333 12.825C9.83486 12.9658 10.1662 12.9658 10.4478 12.825L17.8867 9.10559C18.3806 8.8586 18.9813 9.05882 19.2283 9.5528C19.4753 10.0468 19.2751 10.6475 18.7811 10.8944L11.3422 14.6139C10.4976 15.0362 9.50349 15.0362 8.6589 14.6139L1.22 10.8944C0.726019 10.6475 0.525795 10.0468 0.772784 9.5528ZM0.772784 13.7194C1.01977 13.2255 1.62045 13.0252 2.11442 13.2722L9.55333 16.9917C9.83486 17.1324 10.1662 17.1324 10.4478 16.9917L17.8867 13.2722C18.3806 13.0252 18.9813 13.2255 19.2283 13.7194C19.4753 14.2134 19.2751 14.8141 18.7811 15.0611L11.3422 18.7805C10.4976 19.2028 9.50349 19.2028 8.6589 18.7805L1.22 15.0611C0.726019 14.8141 0.525795 14.2134 0.772784 13.7194Z" fill="#657077"/>
</g>
<defs>
<clipPath id="clip0_581_94733">
<rect width="20" height="20" fill="white"/>
</clipPath>
</defs>
</svg>
