<svg width="20" height="20" viewBox="0 0 20 20" fill="none" xmlns="http://www.w3.org/2000/svg">
<path fill-rule="evenodd" clip-rule="evenodd" d="M9.29289 0.292893C9.48043 0.105357 9.73478 0 10 0C11.3132 0 12.6136 0.258658 13.8268 0.761205C15.0401 1.26375 16.1425 2.00035 17.0711 2.92893C17.9997 3.85752 18.7362 4.95991 19.2388 6.17317C19.7413 7.38642 20 8.68678 20 10C20 10.5523 19.5523 11 19 11H10C9.44772 11 9 10.5523 9 10V1C9 0.734784 9.10536 0.48043 9.29289 0.292893ZM11 2.06275V9H17.9373C17.8482 8.29303 17.6649 7.59962 17.391 6.93853C16.989 5.96793 16.3997 5.08601 15.6569 4.34315C14.914 3.60028 14.0321 3.011 13.0615 2.60896C12.4004 2.33513 11.707 2.15182 11 2.06275ZM7.29061 2.55497C7.53639 3.04955 7.33471 3.64973 6.84013 3.89551C4.56206 5.02762 3 7.37672 3 10.0888C3 13.9058 6.09424 17 9.91117 17C12.6233 17 14.9724 15.4379 16.1045 13.1599C16.3503 12.6653 16.9505 12.4636 17.445 12.7094C17.9396 12.9552 18.1413 13.5554 17.8955 14.0499C16.4386 16.9817 13.4115 19 9.91117 19C4.98967 19 1 15.0103 1 10.0888C1 6.58852 3.0183 3.56145 5.95006 2.10449C6.44464 1.8587 7.04482 2.06039 7.29061 2.55497Z" fill="#657077"/>
</svg>
