<svg width="20" height="20" viewBox="0 0 20 20" fill="none" xmlns="http://www.w3.org/2000/svg">
<path fill-rule="evenodd" clip-rule="evenodd" d="M2.962 3C2.31672 3 2 3.44057 2 3.744V5H4V3H2.962ZM2.962 1C1.44011 1 0 2.12106 0 3.744V16.256C0 17.8789 1.44011 19 2.962 19H17.038C18.5599 19 20 17.8789 20 16.256V3.744C20 2.12106 18.5599 1 17.038 1H2.962ZM6 3V9H14V3H6ZM16 3V5H18V3.744C18 3.44057 17.6833 3 17.038 3H16ZM18 7H16V9H18V7ZM18 11H16V13H18V11ZM18 15H16V17H17.038C17.6833 17 18 16.5594 18 16.256V15ZM14 17V11H6V17H14ZM4 17V15H2V16.256C2 16.5594 2.31672 17 2.962 17H4ZM2 13H4V11H2V13ZM2 9H4V7H2V9Z" fill="#657077"/>
</svg>
