<svg width="20" height="20" viewBox="0 0 20 20" fill="none" xmlns="http://www.w3.org/2000/svg">
<path fill-rule="evenodd" clip-rule="evenodd" d="M7.01357 4.01859C6.98225 2.33891 8.3539 1 10.0011 1C11.6483 1 13.0201 2.33904 12.9885 4.01895C12.9622 5.41088 12.8797 6.69897 12.5276 7.65231C12.344 8.14961 12.0618 8.62964 11.6099 8.98171C11.1449 9.34397 10.5912 9.5 10.0001 9.5C9.40889 9.5 8.85518 9.34389 8.39022 8.98141C7.93837 8.62916 7.65645 8.14895 7.47308 7.65163C7.12154 6.69827 7.03953 5.41019 7.01357 4.01859ZM10.0011 3C9.44014 3 9.00338 3.45322 9.01323 3.9813C9.03978 5.4049 9.13097 6.36685 9.34957 6.95971C9.45127 7.23551 9.55365 7.35246 9.61988 7.4041C9.67299 7.4455 9.77112 7.5 10.0001 7.5C10.2291 7.5 10.3275 7.44549 10.3808 7.40396C10.4472 7.35223 10.5497 7.23521 10.6515 6.95948C10.8703 6.36678 10.962 5.40491 10.9888 3.98123C10.9988 3.45328 10.5621 3 10.0011 3ZM7.03338 12.2724L7.03186 12.2741C6.79188 12.5425 6.55136 12.9867 6.33504 13.5975C6.1233 14.1954 5.95734 14.8874 5.83105 15.5936C5.57781 17.0098 5.50007 18.3913 5.50007 19H3.50007C3.50007 18.2823 3.58673 16.7825 3.86228 15.2416C4.00039 14.4692 4.18993 13.6636 4.44977 12.9299C4.70503 12.2091 5.0522 11.4875 5.54099 10.9409C6.12668 10.286 6.90157 10.1561 7.55397 10.2391C8.1759 10.3182 8.76331 10.5918 9.2147 10.8626C9.69811 11.1526 10.302 11.1526 10.7854 10.8626C11.2368 10.5918 11.8242 10.3182 12.4462 10.2391C13.0986 10.1561 13.8735 10.286 14.4592 10.9409C14.9479 11.4875 15.2951 12.2091 15.5504 12.9299C15.8102 13.6636 15.9998 14.4692 16.1379 15.2416C16.4134 16.7825 16.5001 18.2823 16.5001 19H14.5001C14.5001 18.3913 14.4223 17.0098 14.1691 15.5936C14.0428 14.8874 13.8768 14.1954 13.6651 13.5975C13.4488 12.9867 13.2083 12.5425 12.9683 12.2741L12.9668 12.2724C12.9419 12.2444 12.9 12.1975 12.6986 12.2231C12.4626 12.2531 12.1483 12.3772 11.8144 12.5776C10.6977 13.2476 9.30249 13.2476 8.18571 12.5776C7.8518 12.3772 7.53755 12.2531 7.30153 12.2231C7.10011 12.1975 7.05828 12.2444 7.03338 12.2724ZM6.01375 4.03724C6.01213 3.95035 6.0133 3.86416 6.01717 3.77875C5.71558 3.60078 5.36536 3.5 4.99969 3.5C3.91388 3.5 2.96835 4.38658 3.01547 5.54047C3.03897 6.11608 3.09937 6.84509 3.28148 7.45557C3.37171 7.75804 3.51449 8.11185 3.76072 8.40716C4.02919 8.72916 4.44295 9 4.98792 9C5.53183 9 5.94501 8.73028 6.21393 8.4112C6.33744 8.26465 6.43554 8.10344 6.51437 7.9411C6.11428 6.816 6.03898 5.39008 6.01375 4.03724ZM13.9883 4.03781C13.9626 5.40047 13.8859 6.8368 13.4779 7.96551C13.553 8.11803 13.6455 8.26899 13.7607 8.40715C14.0292 8.72916 14.4429 9 14.9879 9C15.5318 9 15.945 8.73028 16.2139 8.41121C16.4613 8.11767 16.6068 7.76537 16.6996 7.46285C16.8868 6.85244 16.9528 6.12343 16.9798 5.54604C17.0339 4.38735 16.0848 3.5 14.9997 3.5C14.6348 3.5 14.2857 3.60015 13.9848 3.77695C13.9887 3.86313 13.9899 3.95011 13.9883 4.03781ZM15.309 10.4945C15.7092 11.0127 16.0303 11.6139 16.2892 12.2406C16.4164 12.1734 16.5396 12.0956 16.6574 12.0072C16.7535 11.9352 16.8494 11.88 16.9354 11.8434C16.9901 11.8201 17.0341 11.807 17.0667 11.8C17.4283 12.4071 17.7693 13.4621 17.9206 14.5002H16.9803C17.03 14.7241 17.0741 14.9421 17.1132 15.1513C17.1996 15.6124 17.2686 16.0675 17.323 16.5002H18.0001C19.071 16.5002 20.0819 15.6015 19.9221 14.3742C19.7549 13.09 19.3209 11.6292 18.7275 10.6825C18.3028 10.0049 17.6233 9.75425 16.9789 9.79752C16.3966 9.83663 15.8609 10.1046 15.4574 10.4072C15.4106 10.4423 15.3608 10.4714 15.309 10.4945ZM2.88691 15.1513C2.92608 14.9421 2.9701 14.7241 3.01984 14.5002H2.07973C2.23063 13.4645 2.56974 12.4105 2.92901 11.8015C2.96101 11.8084 3.00405 11.8211 3.05745 11.8436C3.14309 11.8798 3.2388 11.9344 3.33493 12.006C3.45509 12.0956 3.58068 12.1743 3.71037 12.242C3.9693 11.6149 4.29046 11.0133 4.69091 10.4949C4.63483 10.471 4.58092 10.4403 4.53044 10.4027C4.12596 10.1011 3.58924 9.83478 3.00651 9.79833C2.36127 9.75797 1.68409 10.013 1.26316 10.6915C0.676655 11.6368 0.245184 13.0924 0.0782696 14.3739C-0.0815918 15.6011 0.929078 16.5002 2.00039 16.5002H2.67714C2.73156 16.0675 2.80058 15.6124 2.88691 15.1513Z" fill="#657077"/>
</svg>
