<svg width="20" height="17" viewBox="0 0 20 17" fill="none" xmlns="http://www.w3.org/2000/svg">
<path fill-rule="evenodd" clip-rule="evenodd" d="M7.5397 2.54191C7.21328 1.9357 6.32251 2.00472 6.09336 2.65397L4.91242 5.99996H15.0856L13.9047 2.65397C13.6755 2.00472 12.7848 1.9357 12.4583 2.54191C11.4037 4.50049 8.59433 4.50049 7.5397 2.54191ZM17.2065 5.99996L15.7907 1.98833C14.9837 -0.297994 11.8469 -0.541035 10.6974 1.59371C10.3979 2.14989 9.60013 2.14989 9.30065 1.59371C8.15117 -0.541032 5.01432 -0.297999 4.20738 1.98833L2.79151 5.99996H0.999023C0.446739 5.99996 -0.000976562 6.44767 -0.000976562 6.99996V7.99996H0.999023H1.99902V8.00027H17.999V7.99996H18.999H19.999V6.99996C19.999 6.44767 19.5513 5.99996 18.999 5.99996H17.2065ZM1.99986 9.9998C1.44758 9.9998 0.999863 10.4475 0.999863 10.9998H-0.000136852V11.8818C-0.000136852 12.5992 0.383714 13.2583 0.999863 13.6138V15.9998C0.999863 16.5521 1.44758 16.9998 1.99986 16.9998H5.99986C7.65672 16.9998 8.99986 15.6567 8.99986 13.9998V13H8.99994V14.0002C8.99994 13.4479 9.44765 13.0002 9.99994 13.0002C10.548 13.0002 10.9931 13.4411 10.9999 13.9876V13.9998C10.9999 15.6567 12.343 16.9998 13.9999 16.9998H17.9999C18.5521 16.9998 18.9999 16.5521 18.9999 15.9998V13.6133C19.6155 13.2576 19.999 12.5988 19.999 11.8817V10.9998H18.9999C18.9998 10.4475 18.5521 9.9998 17.9999 9.9998H11.9999C11.4476 9.9998 10.9999 10.4475 10.9999 10.9998V11H8.99986V10.9998C8.99986 10.4475 8.55215 9.9998 7.99986 9.9998H1.99986ZM2.99986 14.9998V11.9998H6.99986V13.9998C6.99986 14.5521 6.55215 14.9998 5.99986 14.9998H2.99986ZM16.9999 11.9998V14.9998H13.9999C13.4476 14.9998 12.9999 14.5521 12.9999 13.9998V11.9998H16.9999Z" fill="#657077"/>
</svg>
