<svg width="20" height="20" viewBox="0 0 20 20" fill="none" xmlns="http://www.w3.org/2000/svg">
<g clip-path="url(#clip0_5891_171713)">
<path fill-rule="evenodd" clip-rule="evenodd" d="M0 6.875C0 5.83947 0.839466 5 1.875 5H8.75H11.25H18.125C19.1605 5 20 5.83947 20 6.875V12H18V18.125C18 19.1605 17.1605 20 16.125 20H11.25H8.75H3.875C2.83947 20 2 19.1605 2 18.125V12H0V6.875ZM11.25 18H16V12H11.25V18ZM8.75 12V18H4V12H8.75ZM11.25 10H16.125H18V7H11.25V10ZM8.75 7V10H3.875H2V7H8.75Z" fill="#657077"/>
<path fill-rule="evenodd" clip-rule="evenodd" d="M4.96178 2.33904C5.10436 2.12676 5.22371 2.05411 5.29585 2.02488C5.37049 1.99462 5.47881 1.97701 5.65021 2.00955C6.03474 2.08255 6.54984 2.37201 7.12964 2.85062C7.68606 3.30994 8.20315 3.85982 8.5881 4.3063C8.77856 4.52719 8.9323 4.71766 9.0375 4.85167C9.08704 4.91478 9.12562 4.96511 9.152 4.99992H10.8492C10.8753 4.96671 10.9107 4.92225 10.9545 4.8683C11.0614 4.73645 11.2176 4.54901 11.4109 4.33148C11.8012 3.89199 12.3254 3.34939 12.8876 2.89413C13.4727 2.4203 13.9947 2.12775 14.3853 2.05038C14.5612 2.01554 14.6684 2.03285 14.7368 2.05938C14.8 2.0839 14.9075 2.14572 15.0375 2.3393C15.1732 2.54149 15.2243 2.80382 14.8749 3.33545C14.5284 3.86265 13.9044 4.43852 13.1411 4.99992H16.1183C16.2752 4.81593 16.4193 4.62702 16.5462 4.43389C17.1282 3.54834 17.4625 2.36303 16.6978 1.22432C16.3776 0.747446 15.964 0.390234 15.4601 0.194757C14.9614 0.00129002 14.4554 -0.00236368 13.9967 0.0884996C13.1182 0.262524 12.2857 0.808015 11.629 1.33983C10.9987 1.85017 10.4326 2.42952 10.0119 2.89567C9.59563 2.42031 9.03276 1.82823 8.40285 1.30825C7.74921 0.768665 6.9141 0.213767 6.02324 0.0446412C5.55694 -0.0438837 5.04627 -0.0320064 4.54458 0.17134C4.04037 0.375702 3.62604 0.740758 3.30155 1.22384C2.54871 2.34463 2.9455 3.52135 3.51304 4.36336C3.65913 4.5801 3.8269 4.79272 4.01026 4.99992H7.00417C6.20619 4.40544 5.5422 3.79551 5.17148 3.24552C4.79572 2.68803 4.87754 2.46444 4.96178 2.33904Z" fill="#657077"/>
</g>
<defs>
<clipPath id="clip0_5891_171713">
<rect width="20" height="20" fill="white"/>
</clipPath>
</defs>
</svg>
