<svg width="16" height="16" viewBox="0 0 16 16" fill="none" xmlns="http://www.w3.org/2000/svg">
<path fill-rule="evenodd" clip-rule="evenodd" d="M3.35071 0H0.649286C0.291187 0 0 0.291499 0 0.649982V3.35002C0 3.70849 0.291187 4 0.649286 4H3.35071C3.7088 4 4 3.7085 4 3.35002V0.649982C3.99998 0.291499 3.7088 0 3.35071 0ZM3.35071 6H0.649286C0.291187 6 0 6.2915 0 6.64998V9.35002C0 9.70849 0.291187 10 0.649286 10H3.35071C3.7088 10 4 9.7085 4 9.35002V6.64998C3.99998 6.2915 3.7088 6 3.35071 6ZM0.649286 12H3.35071C3.7088 12 3.99998 12.2915 4 12.65V15.35C4 15.7085 3.7088 16 3.35071 16H0.649286C0.291187 16 0 15.7085 0 15.35V12.65C0 12.2915 0.291187 12 0.649286 12ZM9.35071 0H6.64929C6.29119 0 6 0.291499 6 0.649982V3.35002C6 3.70849 6.29119 4 6.64929 4H9.35071C9.7088 4 10 3.7085 10 3.35002V0.649982C9.99998 0.291499 9.7088 0 9.35071 0ZM6.64929 6H9.35071C9.7088 6 9.99998 6.2915 10 6.64998V9.35002C10 9.7085 9.7088 10 9.35071 10H6.64929C6.29119 10 6 9.70849 6 9.35002V6.64998C6 6.2915 6.29119 6 6.64929 6ZM9.35071 12H6.64929C6.29119 12 6 12.2915 6 12.65V15.35C6 15.7085 6.29119 16 6.64929 16H9.35071C9.7088 16 10 15.7085 10 15.35V12.65C9.99998 12.2915 9.7088 12 9.35071 12ZM12.6493 0H15.3507C15.7088 0 16 0.291499 16 0.649982V3.35002C16 3.7085 15.7088 4 15.3507 4H12.6493C12.2912 4 12 3.70849 12 3.35002V0.649982C12 0.291499 12.2912 0 12.6493 0ZM15.3507 6H12.6493C12.2912 6 12 6.2915 12 6.64998V9.35002C12 9.70849 12.2912 10 12.6493 10H15.3507C15.7088 10 16 9.7085 16 9.35002V6.64998C16 6.2915 15.7088 6 15.3507 6ZM12.6493 12H15.3507C15.7088 12 16 12.2915 16 12.65V15.35C16 15.7085 15.7088 16 15.3507 16H12.6493C12.2912 16 12 15.7085 12 15.35V12.65C12 12.2915 12.2912 12 12.6493 12Z" fill="#657077"/>
</svg>
