<svg width="20" height="20" viewBox="0 0 20 20" fill="none" xmlns="http://www.w3.org/2000/svg">
<g clip-path="url(#clip0_581_94694)">
<path fill-rule="evenodd" clip-rule="evenodd" d="M5 3C5 1.34315 6.34315 0 8 0H12C13.6569 0 15 1.34315 15 3V4H17C18.6569 4 20 5.34315 20 7V17C20 18.6569 18.6569 20 17 20H3C1.34315 20 0 18.6569 0 17V7C0 5.34315 1.34315 4 3 4H5V3ZM5 6H3C2.44772 6 2 6.44772 2 7V17C2 17.5523 2.44772 18 3 18H5V6ZM7 18V6H13V18H7ZM15 18H17C17.5523 18 18 17.5523 18 17V7C18 6.44772 17.5523 6 17 6H15V18ZM13 4H7V3C7 2.44772 7.44772 2 8 2H12C12.5523 2 13 2.44772 13 3V4Z" fill="#657077"/>
</g>
<defs>
<clipPath id="clip0_581_94694">
<rect width="20" height="20" fill="white"/>
</clipPath>
</defs>
</svg>
