<svg width="20" height="20" viewBox="0 0 20 20" fill="none" xmlns="http://www.w3.org/2000/svg">
<g clip-path="url(#clip0_462_3474)">
<path fill-rule="evenodd" clip-rule="evenodd" d="M4.55231 2.37832C5.17657 0.921689 7.18238 0.737247 8.29632 1.86445C8.91333 2.4888 9.53704 2.96703 10 2.96703C10.463 2.96703 11.0867 2.4888 11.7037 1.86445C12.8176 0.737248 14.8234 0.921687 15.4477 2.37831L16.9998 6H19.0016C19.5538 6 20.0016 6.44772 20.0016 7V9H0V7C0 6.44772 0.447715 6 1 6H3.00015L4.55231 2.37832ZM2 11C1.44772 11 1 11.4477 1 12H0V13C0 13.7403 0.402199 14.3866 1 14.7324V17C1 17.5523 1.44772 18 2 18H6C7.65685 18 9 16.6569 9 15C9 14.4477 9.44771 14 10 14C10.5523 14 11 14.4477 11 15C11 16.6569 12.3431 18 14 18H18C18.5523 18 19 17.5523 19 17V14.7324C19.5978 14.3866 20 13.7403 20 13V12H19C19 11.4477 18.5523 11 18 11H12C11.4477 11 11 11.4477 11 12H9C9 11.4477 8.55229 11 8 11H2Z" fill="#657077"/>
</g>
<defs>
<clipPath id="clip0_462_3474">
<rect width="20" height="20" fill="white"/>
</clipPath>
</defs>
</svg>
