<svg width="20" height="20" viewBox="0 0 20 20" fill="none" xmlns="http://www.w3.org/2000/svg">
<path fill-rule="evenodd" clip-rule="evenodd" d="M2 1C0.895431 1 0 1.89543 0 3V6C0 7.10457 0.89543 8 2 8V17C2 18.1046 2.89543 19 4 19H16C17.1046 19 18 18.1046 18 17V8C19.1046 8 20 7.10457 20 6V3C20 1.89543 19.1046 1 18 1H2ZM4 16.5V8H16V16.5C16 16.7761 15.7761 17 15.5 17H4.5C4.22386 17 4 16.7761 4 16.5ZM17.5 3C17.7761 3 18 3.22386 18 3.5V5.5C18 5.77614 17.7761 6 17.5 6H2.5C2.22386 6 2 5.77614 2 5.5V3.5C2 3.22386 2.22386 3 2.5 3H17.5ZM7 10C6.44772 10 6 10.4477 6 11C6 11.5523 6.44772 12 7 12H13C13.5523 12 14 11.5523 14 11C14 10.4477 13.5523 10 13 10H7Z" fill="#657077"/>
</svg>
