<svg width="20" height="20" viewBox="0 0 20 20" fill="none" xmlns="http://www.w3.org/2000/svg">
<g clip-path="url(#clip0_581_94713)">
<path fill-rule="evenodd" clip-rule="evenodd" d="M10 2C5.58172 2 2 5.58172 2 10C2 14.4183 5.58172 18 10 18C14.4183 18 18 14.4183 18 10C18 5.58172 14.4183 2 10 2ZM0 10C0 4.47715 4.47715 0 10 0C15.5228 0 20 4.47715 20 10C20 15.5228 15.5228 20 10 20C4.47715 20 0 15.5228 0 10ZM6.5 7.5C6.5 6.94772 6.94772 6.5 7.5 6.5H7.50833C8.06062 6.5 8.50833 6.94772 8.50833 7.5C8.50833 8.05228 8.06062 8.5 7.50833 8.5H7.5C6.94772 8.5 6.5 8.05228 6.5 7.5ZM11.5 7.5C11.5 6.94772 11.9477 6.5 12.5 6.5H12.5083C13.0606 6.5 13.5083 6.94772 13.5083 7.5C13.5083 8.05228 13.0606 8.5 12.5083 8.5H12.5C11.9477 8.5 11.5 8.05228 11.5 7.5ZM6 13C6 12.4477 6.44772 12 7 12H13C13.5523 12 14 12.4477 14 13C14 13.5523 13.5523 14 13 14H7C6.44772 14 6 13.5523 6 13Z" fill="#657077"/>
</g>
<defs>
<clipPath id="clip0_581_94713">
<rect width="20" height="20" fill="white"/>
</clipPath>
</defs>
</svg>
