<svg width="20" height="20" viewBox="0 0 20 20" fill="none" xmlns="http://www.w3.org/2000/svg">
<path fill-rule="evenodd" clip-rule="evenodd" d="M17 4.01285C14.2705 4.90469 11.2815 4.49622 8.8906 2.90227C7.51126 1.98271 5.78462 1.75148 4.21193 2.27571L3 2.67969V11.4635C5.72946 10.5716 8.71849 10.9801 11.1094 12.5741C12.4887 13.4936 14.2154 13.7249 15.7881 13.2006L17 12.7967V4.01285ZM1.41177 1.10092C1.16586 1.18288 1 1.41301 1 1.67221V13.4525C1 13.839 1.37865 14.112 1.74532 13.9897L3.57947 13.3783C5.73768 12.6589 8.10713 12.9763 10 14.2382C11.8929 15.5001 14.2623 15.8174 16.4205 15.098L18.5882 14.3754C18.8341 14.2935 19 14.0633 19 13.8041V2.02381C19 1.63731 18.6213 1.36439 18.2547 1.48661L16.4205 2.098C14.2623 2.8174 11.8929 2.50008 10 1.23817C8.10713 -0.0237418 5.73768 -0.341054 3.57947 0.378347L1.41177 1.10092Z" fill="#657077"/>
<path d="M1 12C1 11.4477 1.44772 11 2 11C2.55228 11 3 11.4477 3 12V19C3 19.5523 2.55228 20 2 20C1.44772 20 1 19.5523 1 19V12Z" fill="#657077"/>
</svg>
