<svg width="20" height="20" viewBox="0 0 20 20" fill="none" xmlns="http://www.w3.org/2000/svg">
<g clip-path="url(#clip0_581_94761)">
<path fill-rule="evenodd" clip-rule="evenodd" d="M7.39061 11.545C7.14117 11.0569 6.54432 10.8601 6.05301 11.1058C5.55903 11.3528 5.3588 11.9535 5.60579 12.4474L5.60672 12.4493L5.60774 12.4513L5.61009 12.4559L5.61601 12.4674C5.62049 12.476 5.62607 12.4866 5.63277 12.499C5.64615 12.5237 5.66402 12.5556 5.68653 12.5938C5.73149 12.6701 5.79538 12.772 5.87951 12.8907C6.04699 13.1272 6.29942 13.4375 6.64836 13.7476C7.35465 14.3754 8.45743 15.0002 10.0002 15.0002C11.543 15.0002 12.6458 14.3754 13.3521 13.7476C13.701 13.4375 13.9534 13.1272 14.1209 12.8907C14.2051 12.772 14.2689 12.6701 14.3139 12.5938C14.3364 12.5556 14.3543 12.5237 14.3677 12.499C14.3744 12.4866 14.3799 12.476 14.3844 12.4674L14.3903 12.4559L14.3927 12.4513L14.3942 12.4483L14.3946 12.4474C14.6416 11.9535 14.4414 11.3528 13.9474 11.1058C13.4561 10.8601 12.8593 11.0569 12.6098 11.545L12.6091 11.5464C12.6066 11.551 12.6005 11.562 12.5908 11.5785C12.5713 11.6115 12.5376 11.666 12.4889 11.7347C12.3907 11.8733 12.2369 12.063 12.0234 12.2528C11.6046 12.625 10.9574 13.0002 10.0002 13.0002C9.04301 13.0002 8.39579 12.625 7.97708 12.2528C7.76352 12.063 7.6097 11.8733 7.51156 11.7347C7.46287 11.666 7.42911 11.6115 7.40961 11.5785C7.39989 11.562 7.39384 11.551 7.39135 11.5464L7.39061 11.545Z" fill="#657077"/>
<path fill-rule="evenodd" clip-rule="evenodd" d="M10 18C14.4183 18 18 14.4183 18 10C18 5.58172 14.4183 2 10 2C5.58172 2 2 5.58172 2 10C2 14.4183 5.58172 18 10 18ZM10 20C15.5228 20 20 15.5228 20 10C20 4.47715 15.5228 0 10 0C4.47715 0 0 4.47715 0 10C0 15.5228 4.47715 20 10 20Z" fill="#657077"/>
<path d="M8.5 7.25C8.5 7.94036 7.94036 8.5 7.25 8.5C6.55964 8.5 6 7.94036 6 7.25C6 6.55964 6.55964 6 7.25 6C7.94036 6 8.5 6.55964 8.5 7.25Z" fill="#657077"/>
<path d="M14 7.25C14 7.94036 13.4404 8.5 12.75 8.5C12.0596 8.5 11.5 7.94036 11.5 7.25C11.5 6.55964 12.0596 6 12.75 6C13.4404 6 14 6.55964 14 7.25Z" fill="#657077"/>
</g>
<defs>
<clipPath id="clip0_581_94761">
<rect width="20" height="20" fill="white"/>
</clipPath>
</defs>
</svg>
