<svg width="20" height="20" viewBox="0 0 20 20" fill="none" xmlns="http://www.w3.org/2000/svg">
<path fill-rule="evenodd" clip-rule="evenodd" d="M11.5 0.00350273C11.417 0.00117276 11.3336 0 11.25 0C11.1664 0 11.083 0.00117276 11 0.00350273V9H19.9965C19.9988 8.91695 20 8.83361 20 8.75C20 8.6664 19.9988 8.58307 19.9965 8.50003C19.9918 8.33213 19.9823 8.16541 19.9683 8C19.9395 7.66078 19.8914 7.32708 19.825 7C19.129 3.57152 16.4285 0.870976 13 0.175032C12.6729 0.108638 12.3392 0.0604895 12 0.0316933C11.8346 0.0176527 11.6679 0.00821301 11.5 0.00350273ZM8 1.11774C8.32805 1.0657 8.66168 1.03046 9 1.01292C9.16558 1.00433 9.33228 0.999985 9.5 0.999985C9.66772 0.999985 9.83442 1.00433 10 1.01292V10H18.9871C18.9957 10.1656 19 10.3323 19 10.5C19 10.6677 18.9957 10.8344 18.9871 11C18.9695 11.3383 18.9343 11.672 18.8822 12C18.1631 16.534 14.2363 20 9.5 20C4.25329 20 0 15.7467 0 10.5C0 5.76368 3.46602 1.83691 8 1.11774ZM8 3.15001C4.57664 3.84492 2 6.87155 2 10.5C2 14.6421 5.35786 18 9.5 18C13.1284 18 16.1551 15.4234 16.85 12H8V3.15001ZM13 7V2.22906C15.3214 2.85049 17.1495 4.67856 17.7709 7H13Z" fill="#657077"/>
</svg>
