<svg width="20" height="20" viewBox="0 0 20 20" fill="none" xmlns="http://www.w3.org/2000/svg">
<path fill-rule="evenodd" clip-rule="evenodd" d="M10 0C10.5523 0 11 0.447715 11 1V2H15C15.5523 2 16 2.44772 16 3C16 3.55228 15.5523 4 15 4H11V9H12.5C13.6935 9 14.8381 9.47411 15.682 10.318C16.5259 11.1619 17 12.3065 17 13.5C17 14.6935 16.5259 15.8381 15.682 16.682C14.8381 17.5259 13.6935 18 12.5 18H11V19C11 19.5523 10.5523 20 10 20C9.44772 20 9 19.5523 9 19V18H4C3.44772 18 3 17.5523 3 17C3 16.4477 3.44772 16 4 16H9V11H7.5C6.30653 11 5.16193 10.5259 4.31802 9.68198C3.47411 8.83807 3 7.69347 3 6.5C3 5.30653 3.47411 4.16193 4.31802 3.31802C5.16193 2.47411 6.30653 2 7.5 2H9V1C9 0.447715 9.44772 0 10 0ZM9 4H7.5C6.83696 4 6.20107 4.26339 5.73223 4.73223C5.26339 5.20107 5 5.83696 5 6.5C5 7.16304 5.26339 7.79893 5.73223 8.26777C6.20107 8.73661 6.83696 9 7.5 9H9V4ZM11 11V16H12.5C13.163 16 13.7989 15.7366 14.2678 15.2678C14.7366 14.7989 15 14.163 15 13.5C15 12.837 14.7366 12.2011 14.2678 11.7322C13.7989 11.2634 13.163 11 12.5 11H11Z" fill="#657077"/>
</svg>
