<svg width="20" height="20" viewBox="0 0 20 20" fill="none" xmlns="http://www.w3.org/2000/svg">
<path fill-rule="evenodd" clip-rule="evenodd" d="M10 3C7.85686 3 5.81419 3.79524 4.31836 5.19136C2.82485 6.5853 2 8.46053 2 10.4V11H4C4.75011 11 5.49474 11.2541 6.065 11.7428C6.64003 12.2357 7 12.9403 7 13.7143V16.2857C7 17.0597 6.64003 17.7643 6.065 18.2572C5.49474 18.746 4.75011 19 4 19H3C2.24989 19 1.50526 18.746 0.934995 18.2572C0.359968 17.7643 0 17.0597 0 16.2857V10.4C5.96046e-08 7.88383 1.07157 5.48592 2.95372 3.72925C4.83354 1.97475 7.36924 1 10 1C12.6308 1 15.1665 1.97475 17.0463 3.72925C18.9284 5.48592 20 7.88383 20 10.4V16.2857C20 17.0597 19.64 17.7643 19.065 18.2572C18.4947 18.746 17.7501 19 17 19H16C15.2499 19 14.5053 18.746 13.935 18.2572C13.36 17.7643 13 17.0597 13 16.2857V13.7143C13 12.9403 13.36 12.2357 13.935 11.7428C14.5053 11.2541 15.2499 11 16 11H18V10.4C18 8.46053 17.1751 6.5853 15.6816 5.19136C14.1858 3.79524 12.1431 3 10 3ZM18 13H16C15.6892 13 15.4165 13.1072 15.2366 13.2614C15.0615 13.4115 15 13.579 15 13.7143V16.2857C15 16.421 15.0615 16.5885 15.2366 16.7386C15.4165 16.8928 15.6892 17 16 17H17C17.3108 17 17.5835 16.8928 17.7634 16.7386C17.9385 16.5885 18 16.421 18 16.2857V13ZM2 16.2857C2 16.421 2.06146 16.5885 2.23658 16.7386C2.41646 16.8928 2.68924 17 3 17H4C4.31076 17 4.58354 16.8928 4.76342 16.7386C4.93854 16.5885 5 16.421 5 16.2857V13.7143C5 13.579 4.93854 13.4115 4.76342 13.2614C4.58354 13.1072 4.31076 13 4 13H2V16.2857Z" fill="#657077"/>
</svg>
