<svg width="20" height="20" viewBox="0 0 20 20" fill="none" xmlns="http://www.w3.org/2000/svg">
<path fill-rule="evenodd" clip-rule="evenodd" d="M3.25368 3.55152C5.10294 1.90773 7.50837 1 9.99962 1C12.4909 1 14.8963 1.90773 16.7456 3.55152C17.9723 4.64192 18.8961 6.00468 19.4489 7.51201C19.7861 8.43152 19.5557 9.33866 19.0154 9.98529C18.4884 10.616 17.6739 11 16.7949 11H10.9996V15.6C10.9996 15.964 11.1473 16.3177 11.4177 16.5821C11.6888 16.8472 12.0612 17 12.4542 17C12.8471 17 13.2195 16.8472 13.4907 16.5821C13.7611 16.3177 13.9087 15.964 13.9087 15.6C13.9087 15.0477 14.3564 14.6 14.9087 14.6C15.461 14.6 15.9087 15.0477 15.9087 15.6C15.9087 16.5091 15.5392 17.3763 14.8889 18.0121C14.2394 18.6471 13.3632 19 12.4542 19C11.5451 19 10.6689 18.6471 10.0194 18.0121C9.36917 17.3763 8.99962 16.5091 8.99962 15.6V11H3.20438C2.3253 11 1.51087 10.616 0.983888 9.98529C0.443571 9.33866 0.21316 8.43152 0.550375 7.51201C1.10316 6.00468 2.02698 4.64192 3.25368 3.55152ZM16.7949 9C17.0972 9 17.3437 8.86676 17.4806 8.70288C17.6042 8.55496 17.6407 8.39026 17.5712 8.20063C17.1323 7.00396 16.3974 5.91795 15.4168 5.04634C13.9377 3.73159 12.0065 3 9.99962 3C7.99273 3 6.06151 3.73159 4.58241 5.04634C3.60185 5.91795 2.86695 7.00396 2.42809 8.20063C2.35855 8.39026 2.39502 8.55496 2.51863 8.70288C2.65556 8.86676 2.90208 9 3.20438 9H16.7949Z" fill="#657077"/>
</svg>
