<svg width="20" height="20" viewBox="0 0 20 20" fill="none" xmlns="http://www.w3.org/2000/svg">
<g clip-path="url(#clip0_581_94776)">
<path fill-rule="evenodd" clip-rule="evenodd" d="M11.4021 0.0844043C11.8131 0.264888 12.0534 0.697083 11.9899 1.14142L11.153 7H15.8898C17.577 7 18.5061 8.96061 17.4377 10.2665L9.77395 19.6332C9.48973 19.9806 9.00885 20.0961 8.59789 19.9156C8.18693 19.7351 7.94657 19.3029 8.01005 18.8586L8.84699 13H4.11024C2.42299 13 1.49389 11.0394 2.56232 9.73352L10.226 0.366761C10.5103 0.0193714 10.9911 -0.0960791 11.4021 0.0844043ZM9.50284 4.40905L4.11024 11H10C10.2899 11 10.5655 11.1258 10.7555 11.3448C10.9454 11.5638 11.0309 11.8544 10.9899 12.1414L10.4972 15.591L15.8898 9H10C9.7101 9 9.43448 8.8742 9.24454 8.6552C9.0546 8.4362 8.96905 8.14556 9.01005 7.85858L9.50284 4.40905Z" fill="#657077"/>
</g>
<defs>
<clipPath id="clip0_581_94776">
<rect width="20" height="20" fill="white"/>
</clipPath>
</defs>
</svg>
