<svg width="20" height="20" viewBox="0 0 20 20" fill="none" xmlns="http://www.w3.org/2000/svg">
<path fill-rule="evenodd" clip-rule="evenodd" d="M2.28571 1C1.57563 1 1 1.57563 1 2.28571V7.71429C1 8.42437 1.57563 9 2.28571 9H7.71429C8.42437 9 9 8.42437 9 7.71429V2.28571C9 1.57563 8.42437 1 7.71429 1H2.28571ZM3.5 7C3.22386 7 3 6.77614 3 6.5V3.5C3 3.22386 3.22386 3 3.5 3H6.5C6.77614 3 7 3.22386 7 3.5V6.5C7 6.77614 6.77614 7 6.5 7H3.5ZM2.28571 11C1.57563 11 1 11.5756 1 12.2857V17.7143C1 18.4244 1.57563 19 2.28571 19H7.71429C8.42437 19 9 18.4244 9 17.7143V12.2857C9 11.5756 8.42437 11 7.71429 11H2.28571ZM3.5 17C3.22386 17 3 16.7761 3 16.5V13.5C3 13.2239 3.22386 13 3.5 13H6.5C6.77614 13 7 13.2239 7 13.5V16.5C7 16.7761 6.77614 17 6.5 17H3.5ZM11 2.28571C11 1.57563 11.5756 1 12.2857 1H17.7143C18.4244 1 19 1.57563 19 2.28571V7.71429C19 8.42437 18.4244 9 17.7143 9H12.2857C11.5756 9 11 8.42437 11 7.71429V2.28571ZM13.5 3C13.2239 3 13 3.22386 13 3.5V6.5C13 6.77614 13.2239 7 13.5 7H16.5C16.7761 7 17 6.77614 17 6.5V3.5C17 3.22386 16.7761 3 16.5 3H13.5ZM12.2857 11C11.5756 11 11 11.5756 11 12.2857V17.7143C11 18.4244 11.5756 19 12.2857 19H17.7143C18.4244 19 19 18.4244 19 17.7143V12.2857C19 11.5756 18.4244 11 17.7143 11H12.2857ZM13.5 17C13.2239 17 13 16.7761 13 16.5V13.5C13 13.2239 13.2239 13 13.5 13H16.5C16.7761 13 17 13.2239 17 13.5V16.5C17 16.7761 16.7761 17 16.5 17H13.5Z" fill="#657077"/>
</svg>
