<svg width="20" height="20" viewBox="0 0 20 20" fill="none" xmlns="http://www.w3.org/2000/svg">
<g clip-path="url(#clip0_581_94810)">
<path fill-rule="evenodd" clip-rule="evenodd" d="M9.08489 2.41784C10.2106 1.2921 11.7375 0.659668 13.3295 0.659668C14.9215 0.659668 16.4484 1.2921 17.5741 2.41784C18.6998 3.54358 19.3323 5.07041 19.3323 6.66245C19.3323 8.25448 18.6998 9.78132 17.5741 10.9071L17.57 10.9111L15.9299 12.5325C15.848 12.6624 15.737 12.7722 15.606 12.8527L12.2874 16.1335C11.7258 16.6886 10.968 17 10.1783 17H4.41434L1.70711 19.7072C1.31658 20.0978 0.683417 20.0978 0.292893 19.7072C-0.0976311 19.3167 -0.0976311 18.6835 0.292893 18.293L3 15.5859V9.8201C3 9.03185 3.31024 8.27527 3.86363 7.71393L9.08489 2.41784ZM6.41434 15H10.1783C10.4415 15 10.6941 14.8962 10.8813 14.7112L12.6122 13H8.41434L6.41434 15ZM7.28363 11.3023L5 13.5859V9.8201C5 9.55735 5.10341 9.30515 5.28788 9.11804L10.5015 3.82966C11.2519 3.08049 12.269 2.65967 13.3295 2.65967C14.3911 2.65967 15.4092 3.08139 16.1599 3.83206C16.9106 4.58272 17.3323 5.60084 17.3323 6.66245C17.3323 7.72313 16.9113 8.74042 16.1618 9.4909L14.6353 11H10.4143L13.7071 7.70723C14.0976 7.3167 14.0976 6.68354 13.7071 6.29302C13.3166 5.90249 12.6834 5.90249 12.2929 6.29302L7.30228 11.2836C7.29598 11.2898 7.28976 11.296 7.28363 11.3023Z" fill="#657077"/>
</g>
<defs>
<clipPath id="clip0_581_94810">
<rect width="20" height="20" fill="white"/>
</clipPath>
</defs>
</svg>
