<svg width="20" height="20" viewBox="0 0 20 20" fill="none" xmlns="http://www.w3.org/2000/svg">
<g clip-path="url(#clip0_581_94670)">
<path fill-rule="evenodd" clip-rule="evenodd" d="M10.5 2C8.01472 2 6 4.01472 6 6.5C6 8.98528 8.01472 11 10.5 11C12.9853 11 15 8.98528 15 6.5C15 4.01472 12.9853 2 10.5 2ZM4 6.5C4 2.91015 6.91015 0 10.5 0C14.0899 0 17 2.91015 17 6.5C17 8.77268 15.8336 10.7729 14.0668 11.9348L14.9912 18.8678C15.046 19.2788 14.8415 19.681 14.4771 19.8788C14.1127 20.0767 13.664 20.0291 13.3492 19.7593L10.5 17.3171L7.65079 19.7593C7.33598 20.0291 6.88729 20.0767 6.52289 19.8788C6.15849 19.681 5.95397 19.2788 6.00877 18.8678L6.93317 11.9348C5.16637 10.7729 4 8.77268 4 6.5ZM8.83746 12.7854L8.33729 16.5367L9.84921 15.2407C10.2237 14.9198 10.7763 14.9198 11.1508 15.2407L12.6627 16.5367L12.1625 12.7854C11.6319 12.9254 11.0746 13 10.5 13C9.92535 13 9.36812 12.9254 8.83746 12.7854Z" fill="#657077"/>
</g>
<defs>
<clipPath id="clip0_581_94670">
<rect width="20" height="20" fill="white"/>
</clipPath>
</defs>
</svg>
