<svg width="20" height="20" viewBox="0 0 20 20" fill="none" xmlns="http://www.w3.org/2000/svg">
<path fill-rule="evenodd" clip-rule="evenodd" d="M0 4C0 2.34315 1.34315 1 3 1H11C12.6569 1 14 2.34315 14 4V5H15.662C16.4661 5 17.2366 5.3228 17.8005 5.89599L19.1385 7.25587C19.6906 7.81701 20 8.57268 20 9.35989V11C20 12.4405 18.9848 13.6438 17.6308 13.9336C17.867 14.4049 18 14.9369 18 15.5C18 17.433 16.433 19 14.5 19C12.567 19 11 17.433 11 15.5C11 14.9632 11.1208 14.4546 11.3368 14H8.66319C8.87916 14.4546 9 14.9632 9 15.5C9 17.433 7.433 19 5.5 19C3.567 19 2 17.433 2 15.5C2 14.9369 2.13298 14.4049 2.36924 13.9336C1.01525 13.6438 0 12.4405 0 11V4ZM5.5 14C4.67157 14 4 14.6716 4 15.5C4 16.3284 4.67157 17 5.5 17C6.32843 17 7 16.3284 7 15.5C7 14.6716 6.32843 14 5.5 14ZM12 12V4C12 3.44772 11.5523 3 11 3H3C2.44772 3 2 3.44772 2 4V11C2 11.5523 2.44772 12 3 12H12ZM14 12V7H15.662C15.9301 7 16.1869 7.1076 16.3749 7.29866L17.7128 8.65855C17.8969 8.8456 18 9.09749 18 9.35989V11C18 11.5523 17.5523 12 17 12H14ZM14.5 14C13.6716 14 13 14.6716 13 15.5C13 16.3284 13.6716 17 14.5 17C15.3284 17 16 16.3284 16 15.5C16 14.6716 15.3284 14 14.5 14Z" fill="#657077"/>
</svg>
