<svg width="20" height="20" viewBox="0 0 20 20" fill="none" xmlns="http://www.w3.org/2000/svg">
<g clip-path="url(#clip0_581_94620)">
<path fill-rule="evenodd" clip-rule="evenodd" d="M8.25421 12.1258C6.02273 9.88558 5.91374 7.97097 5.96345 7.27751C5.97662 7.0939 6.06878 6.93113 6.19895 6.80096L7.04124 5.95867C7.2746 5.72531 7.3778 5.39185 7.31705 5.06747L6.89536 2.81592C6.80676 2.34285 6.39374 2 5.91245 2L3.41411 2C2.89649 2 2.4708 2.39386 2.47972 2.9114C2.5138 4.88926 3.01987 9.70554 6.83714 13.5371C6.84349 13.5435 6.84984 13.5499 6.85622 13.5562C6.86267 13.5627 6.86913 13.5691 6.87558 13.5756C10.7055 17.391 15.3073 17.6846 17.1899 17.6227C17.6891 17.6063 18.0513 17.1843 18.0444 16.6848L18.0108 14.2659C18.0045 13.814 17.6958 13.4224 17.2579 13.3108L14.9657 12.7264C14.6238 12.6392 14.2611 12.7388 14.0116 12.9883L13.1116 13.8883C13.0376 13.9623 12.953 14.0246 12.8533 14.0565C12.3584 14.2148 10.647 14.5092 8.28696 12.1585C8.28145 12.153 8.27594 12.1475 8.27043 12.142C8.26502 12.1366 8.25961 12.1312 8.25421 12.1258ZM5.91245 3.52706e-06H3.41411C1.89105 2.85271e-06 0.449948 1.20102 0.480013 2.94585C0.517794 5.13855 1.0696 10.598 5.442 14.9704C9.83641 19.3649 15.1135 19.692 17.2556 19.6216C18.9622 19.5655 20.0645 18.124 20.0442 16.657L20.0106 14.2381C19.9917 12.8824 19.0658 11.7077 17.752 11.3728L15.4598 10.7884C14.4339 10.5269 13.346 10.8254 12.5974 11.5741L12.016 12.1555C11.9461 12.149 11.8613 12.1354 11.7618 12.1099C11.3837 12.0127 10.6658 11.709 9.68464 10.7278C8.40654 9.4497 8.06707 8.40507 7.98191 7.84643L8.45546 7.37288C9.15553 6.67281 9.46512 5.67243 9.28287 4.6993L8.86118 2.44774C8.59538 1.02854 7.35633 2.937e-06 5.91245 3.52706e-06ZM12.2551 12.1484C12.2551 12.1483 12.2533 12.1487 12.2497 12.1498C12.2533 12.149 12.2551 12.1485 12.2551 12.1484Z" fill="#657077"/>
</g>
<defs>
<clipPath id="clip0_581_94620">
<rect width="20" height="20" fill="white"/>
</clipPath>
</defs>
</svg>
