<svg width="20" height="20" viewBox="0 0 20 20" fill="none" xmlns="http://www.w3.org/2000/svg">
<g clip-path="url(#clip0_462_3528)">
<path fill-rule="evenodd" clip-rule="evenodd" d="M10.0003 2C8.8957 1.99998 8.00025 2.89542 8.00025 4V4.33328C8.00025 5.56326 8.23428 6.52959 8.60781 7.15206C8.95419 7.72929 9.40132 7.99994 10.0007 7.99994C10.5999 7.99994 11.0468 7.72936 11.393 7.15222C11.7664 6.52975 12.0002 5.56338 12.0002 4.33328V4C12.0002 2.89544 11.1048 2.00002 10.0003 2ZM6.00025 4C6.00025 1.79083 7.79116 -4.23185e-05 10.0003 7.50006e-10C12.2094 4.23797e-05 14.0002 1.79089 14.0002 4V4.33328C14.0002 5.76984 13.7345 7.13681 13.1081 8.181C12.4546 9.27052 11.4017 9.99994 10.0007 9.99994C8.59972 9.99994 7.54664 9.2706 6.89289 8.18116C6.26629 7.13696 6.00025 5.76996 6.00025 4.33328V4ZM12.6632 11.1797C12.8348 11.1061 13.1136 10.9997 13.4298 11C15.4493 11.0019 16.7678 12.3175 17.5632 13.7044C18.3576 15.0895 18.7508 16.728 18.9092 17.8671C19.0797 19.0936 18.0778 20 17.0002 20H3.00025C1.92265 20 0.920858 19.0936 1.0913 17.8672C1.24963 16.7278 1.64281 15.0886 2.43722 13.7031C3.23258 12.316 4.55141 11 6.57168 11C6.8873 11 7.16568 11.1063 7.33712 11.1798C7.51658 11.2568 7.70856 11.3577 7.8745 11.4448L7.89377 11.455L7.42882 12.3403L7.89377 11.455C8.5283 11.7882 9.18679 12.12 10.0002 12.12C10.8133 12.12 11.4716 11.7883 12.1061 11.4551L12.1254 11.4449C12.2914 11.3577 12.4836 11.2567 12.6632 11.1797ZM13.4516 13.0177C13.3523 13.0603 13.2282 13.1248 13.036 13.2257C13.0244 13.2318 13.0127 13.238 13.0008 13.2442C12.3761 13.5726 11.3347 14.12 10.0002 14.12C8.66548 14.12 7.62382 13.5725 6.99909 13.2441C6.9872 13.2379 6.97546 13.2317 6.96387 13.2256C6.77184 13.1248 6.64781 13.0604 6.54854 13.0178C6.53145 13.0105 6.51773 13.0049 6.50705 13.0009C5.53595 13.0269 4.77853 13.6406 4.17224 14.698C3.58062 15.7298 3.24353 17.0167 3.09306 18H16.9074C16.7569 17.0171 16.4198 15.7309 15.8282 14.6994C15.222 13.6424 14.4644 13.028 13.4928 13.0009C13.4822 13.005 13.4686 13.0105 13.4516 13.0177Z" fill="#657077"/>
</g>
<defs>
<clipPath id="clip0_462_3528">
<rect width="20" height="20" fill="white"/>
</clipPath>
</defs>
</svg>
