<svg width="20" height="20" viewBox="0 0 20 20" fill="none" xmlns="http://www.w3.org/2000/svg">
<path fill-rule="evenodd" clip-rule="evenodd" d="M12.0603 1.4464C12.7578 1.15186 13.5061 1 14.2623 1C15.0185 1 15.7668 1.15186 16.4643 1.4464C17.1616 1.74086 17.7939 2.1719 18.3256 2.71397C18.8577 3.25591 19.2787 3.89833 19.5656 4.60406C19.8526 5.30976 20 6.06552 20 6.82833C20 7.59113 19.8526 8.34689 19.5656 9.05259C19.2787 9.75833 18.8577 10.4007 18.3256 10.9427L10.7135 18.7004C10.5255 18.892 10.2683 19 9.99977 19C9.73127 19 9.47405 18.892 9.286 18.7004L1.67373 10.9425C0.599945 9.84819 0 8.36792 0 6.82833C0 5.28873 0.599945 3.80847 1.67373 2.71414C2.74815 1.61917 4.20946 1.00047 5.73725 1.00047C7.26504 1.00047 8.72634 1.61917 9.80076 2.71414L9.99977 2.91696L10.1986 2.71431C10.7304 2.17208 11.3629 1.74092 12.0603 1.4464ZM14.2623 3C13.7742 3 13.2904 3.09799 12.8384 3.28886C12.3863 3.47975 11.9743 3.76006 11.6265 4.11473L10.7135 5.04513C10.5255 5.23678 10.2683 5.34476 9.99977 5.34476C9.73127 5.34476 9.47405 5.23678 9.286 5.04513L8.37321 4.11489C7.67082 3.39907 6.72225 3.00047 5.73725 3.00047C4.75225 3.00047 3.80367 3.39907 3.10128 4.11489C2.39826 4.83136 2 5.80707 2 6.82833C2 7.84959 2.39826 8.82529 3.10128 9.54176L9.99977 16.5722L16.8983 9.54176C17.2463 9.18723 17.5235 8.7651 17.7129 8.29932C17.9023 7.83352 18 7.33361 18 6.82833C18 6.32304 17.9023 5.82314 17.7129 5.35733C17.5235 4.89156 17.2465 4.46959 16.8984 4.11506C16.5506 3.7604 16.1383 3.47975 15.6862 3.28886C15.2342 3.09799 14.7504 3 14.2623 3Z" fill="#657077"/>
</svg>
