<svg width="20" height="20" viewBox="0 0 20 20" fill="none" xmlns="http://www.w3.org/2000/svg">
<path fill-rule="evenodd" clip-rule="evenodd" d="M1 4C1 2.34315 2.34315 1 4 1H16C17.6569 1 19 2.34315 19 4V16C19 17.6569 17.6569 19 16 19H4C2.34315 19 1 17.6569 1 16V4ZM4 3C3.44772 3 3 3.44772 3 4V16C3 16.5523 3.44772 17 4 17H16C16.5523 17 17 16.5523 17 16V4C17 3.44772 16.5523 3 16 3H4ZM5 6C5 5.44772 5.44772 5 6 5H8C8.55228 5 9 5.44772 9 6V8C9 8.55228 8.55228 9 8 9H6C5.44772 9 5 8.55228 5 8V6ZM6 11C5.44772 11 5 11.4477 5 12V14C5 14.5523 5.44772 15 6 15H8C8.55228 15 9 14.5523 9 14V12C9 11.4477 8.55228 11 8 11H6ZM11 6C11 5.44772 11.4477 5 12 5H14C14.5523 5 15 5.44772 15 6V8C15 8.55228 14.5523 9 14 9H12C11.4477 9 11 8.55228 11 8V6ZM12 11C11.4477 11 11 11.4477 11 12V14C11 14.5523 11.4477 15 12 15H14C14.5523 15 15 14.5523 15 14V12C15 11.4477 14.5523 11 14 11H12Z" fill="#657077"/>
</svg>
