<svg width="20" height="20" viewBox="0 0 20 20" fill="none" xmlns="http://www.w3.org/2000/svg">
<path fill-rule="evenodd" clip-rule="evenodd" d="M6.11775 2.52922C6.29158 2.20346 6.63077 2 7 2H13C13.3692 2 13.7084 2.20346 13.8823 2.52922L14.6908 4.04439H17.3636C18.047 4.04439 18.7119 4.30196 19.2097 4.77522C19.7093 5.25012 20 5.90536 20 6.59994V15.4444C20 16.139 19.7093 16.7943 19.2097 17.2692C18.7119 17.7424 18.047 18 17.3636 18H2.63636C1.95304 18 1.28814 17.7424 0.790295 17.2692C0.290726 16.7943 0 16.139 0 15.4444V6.59994C0 5.90536 0.290726 5.25012 0.790295 4.77522C1.28814 4.30196 1.95304 4.04439 2.63636 4.04439H5.30924L6.11775 2.52922ZM7.59985 4L6.79134 5.51517C6.61751 5.84092 6.27833 6.04439 5.90909 6.04439H2.63636C2.45171 6.04439 2.28417 6.11459 2.16826 6.22478C2.05408 6.33332 2 6.46941 2 6.59994V15.4444C2 15.575 2.05408 15.7111 2.16826 15.8196C2.28417 15.9298 2.45171 16 2.63636 16H17.3636C17.5483 16 17.7158 15.9298 17.8317 15.8196C17.9459 15.7111 18 15.575 18 15.4444V6.59994C18 6.46941 17.9459 6.33332 17.8317 6.22478C17.7158 6.11459 17.5483 6.04439 17.3636 6.04439H14.0909C13.7217 6.04439 13.3825 5.84093 13.2087 5.51517L12.4001 4H7.59985ZM10 9C8.89543 9 8 9.89543 8 11C8 12.1046 8.89543 13 10 13C11.1046 13 12 12.1046 12 11C12 9.89543 11.1046 9 10 9ZM6 11C6 8.79086 7.79086 7 10 7C12.2091 7 14 8.79086 14 11C14 13.2091 12.2091 15 10 15C7.79086 15 6 13.2091 6 11Z" fill="#657077"/>
</svg>
