<svg width="16" height="16" viewBox="0 0 16 16" fill="none" xmlns="http://www.w3.org/2000/svg">
<path fill-rule="evenodd" clip-rule="evenodd" d="M3.75734 3.75742C4.84422 2.67052 6.34284 2.00003 7.99996 2.00003C11.3137 2.00003 13.9999 4.68637 13.9999 8.00013C13.9999 11.3139 11.3137 14.0002 7.99996 14.0002C4.68627 14.0002 1.99999 11.3139 1.99999 8.00013H0C0 12.4185 3.58171 16.0003 7.99996 16.0003C12.4182 16.0003 15.9999 12.4185 15.9999 8.00013C15.9999 3.58178 12.4182 0 7.99996 0C5.7941 0 3.79517 0.894113 2.34902 2.33731L2.34681 2.33945L2.32349 2.36231C2.30403 2.38153 2.27683 2.40865 2.24254 2.44355C2.18242 2.50471 2.10044 2.5898 1.99999 2.69799V1.00002H0V5.00008C0 5.55237 0.447713 6.0001 0.999995 6.0001H4.99998V4.00006H3.52056C3.582 3.93475 3.63198 3.88309 3.66894 3.84548C3.69598 3.81797 3.71604 3.79799 3.72849 3.78569L3.74139 3.77304L3.74294 3.77153L3.74995 3.76481L3.75734 3.75742Z" fill="#333333"/>
</svg>
