<svg width="16" height="16" viewBox="0 0 16 16" fill="none" xmlns="http://www.w3.org/2000/svg">
<path fill-rule="evenodd" clip-rule="evenodd" d="M14.9992 2.03809C14.9992 1.75969 14.8832 1.4939 14.679 1.30465C14.4748 1.11541 14.201 1.01985 13.9234 1.04097C7.04851 1.56395 1.56297 7.04949 1.03999 13.9243C1.01888 14.2019 1.11443 14.4758 1.30368 14.68C1.49292 14.8841 1.75872 15.0002 2.03711 15.0002H12.9992C14.1038 15.0002 14.9992 14.1048 14.9992 13.0002V8C14.9995 8 14.9997 8 15 8V6C14.9997 6 14.9995 6 14.9992 6V2.03809ZM12.9992 6.2232V3.166C7.97466 4.00875 4.00777 7.97563 3.16502 13.0002H6.22297C6.98636 9.63561 9.63477 6.98695 12.9992 6.2232ZM8.28982 13.0002H12.9992V8.29011C10.7417 8.96226 8.96165 10.7426 8.28982 13.0002Z" fill="#657077"/>
</svg>
