<svg width="16" height="16" viewBox="0 0 16 16" fill="none" xmlns="http://www.w3.org/2000/svg">
<path fill-rule="evenodd" clip-rule="evenodd" d="M0 1C0 0.447715 0.447715 0 1 0H2C2.74028 0 3.38663 0.402199 3.73244 1H12.9962C14.3425 1 15.3043 2.30325 14.9073 3.58967L13.6731 7.58967C13.4144 8.4281 12.6395 9 11.762 9H5.72076C4.8599 9 4.09562 8.44914 3.82339 7.63246L2.05132 2.31623L1.94591 2H1C0.447715 2 0 1.55228 0 1ZM4.38743 3L5.72076 7H11.762L12.9962 3H4.38743ZM4 11C4 10.4477 4.44772 10 5 10H12C12.5523 10 13 10.4477 13 11C13 11.5523 12.5523 12 12 12H5C4.44772 12 4 11.5523 4 11ZM6 14.5C6 15.3284 5.32843 16 4.5 16C3.67157 16 3 15.3284 3 14.5C3 13.6716 3.67157 13 4.5 13C5.32843 13 6 13.6716 6 14.5ZM12.5 16C13.3284 16 14 15.3284 14 14.5C14 13.6716 13.3284 13 12.5 13C11.6716 13 11 13.6716 11 14.5C11 15.3284 11.6716 16 12.5 16Z" fill="#333333"/>
</svg>
