<svg width="16" height="16" viewBox="0 0 16 16" fill="none" xmlns="http://www.w3.org/2000/svg">
<path fill-rule="evenodd" clip-rule="evenodd" d="M9.15399 3.64743C9.51984 3.9919 9.77295 4.43901 9.88 4.93L13 13V15L11 14L5.84998 7.37C5.47736 7.06084 5.20337 6.64935 5.06183 6.18631C4.92029 5.72326 4.91736 5.22891 5.05347 4.76424C5.18958 4.29957 5.45874 3.8849 5.82776 3.5714C6.19672 3.25789 6.64941 3.05926 7.13 3H7V1H8V3H7.82996C8.32654 3.07727 8.78809 3.30297 9.15399 3.64743ZM6.90363 6.34786C7.08276 6.457 7.29047 6.50999 7.5 6.5C7.63562 6.50017 7.7699 6.47274 7.89459 6.41939C8.01929 6.36604 8.13184 6.28788 8.2254 6.18966C8.31891 6.09144 8.39148 5.97521 8.43872 5.84806C8.4859 5.7209 8.50677 5.58547 8.5 5.45C8.49976 5.24025 8.43671 5.03538 8.31897 4.86179C8.20123 4.6882 8.03418 4.55386 7.83942 4.47607C7.64459 4.39828 7.43097 4.38061 7.22607 4.42535C7.02112 4.47008 6.83429 4.57517 6.68964 4.72705C6.54498 4.87894 6.44916 5.07067 6.41443 5.27753C6.37976 5.4844 6.40784 5.69691 6.495 5.88767C6.58221 6.07844 6.72455 6.23872 6.90363 6.34786Z" fill="#787D82"/>
<path d="M2.02002 14.99L2 13.05L4.51001 6.72L6.96997 10.41L3.97998 13.98L2.02002 14.99Z" fill="#787D82"/>
</svg>
