<svg width="16" height="16" viewBox="0 0 16 16" fill="none" xmlns="http://www.w3.org/2000/svg">
<path d="M14 2C15.1046 2 16 2.89543 16 4V12C16 13.1046 15.1046 14 14 14H2C0.895431 14 0 13.1046 0 12V4C6.44266e-08 2.89543 0.89543 2 2 2H14ZM2 12H14V4H2V12ZM6.74902 8.60059C7.44159 8.60126 7.75579 9.33467 7.89453 10.0068C8.00613 10.5477 7.55129 11 6.99902 11H3.99902C3.44677 11 2.99295 10.5477 3.10449 10.0068C3.24322 9.33445 3.55643 8.60063 4.24902 8.60059C4.42763 8.60065 4.96337 8.99997 5.49902 9C6.03466 8.99998 6.5704 8.60051 6.74902 8.60059ZM12 10H9V8H12V10ZM5.5 5C6.18994 5.00029 6.77158 5.56091 6.7207 6.24902C6.64725 7.24222 6.38617 7.99998 5.46582 8C4.55003 7.99977 4.32212 7.23416 4.2666 6.25C4.22775 5.56083 4.80973 5 5.5 5ZM13 7H8V5H13V7Z" fill="#657077"/>
</svg>
