<svg width="16" height="16" viewBox="0 0 16 16" fill="none" xmlns="http://www.w3.org/2000/svg">
<path fill-rule="evenodd" clip-rule="evenodd" d="M15.7082 5C15.9013 5.64783 16 6.32146 16 7H9L9 0C9.67854 0 10.3522 0.0986511 11 0.291796C11.2298 0.360315 11.4564 0.440726 11.6788 0.532843C12.5281 0.884626 13.2997 1.40024 13.9497 2.05025C14.5998 2.70026 15.1154 3.47194 15.4672 4.32122C15.5593 4.54361 15.6397 4.77018 15.7082 5ZM11 2.41742C11.5725 2.66729 12.0934 3.02236 12.5355 3.46447C12.9776 3.90657 13.3327 4.42747 13.5826 5H11V2.41742Z" fill="#657077"/>
<path fill-rule="evenodd" clip-rule="evenodd" d="M6 9.99982V3.03171C3.68681 3.72015 2 5.86299 2 8.3998C2 11.4926 4.50721 13.9998 7.6 13.9998C10.1368 13.9998 12.2796 12.313 12.9681 9.99982H6ZM15.1897 8.7998C15.1965 8.66734 15.2 8.53398 15.2 8.3998C15.2 8.26564 15.1965 8.13228 15.1897 7.99982H8V0.81015C7.86754 0.803282 7.73417 0.799805 7.6 0.799805C7.46583 0.799805 7.33246 0.803282 7.2 0.81015C6.79059 0.83138 6.38975 0.885008 6 0.968522C2.57093 1.70328 0 4.75131 0 8.3998C0 12.5972 3.40264 15.9998 7.6 15.9998C11.2485 15.9998 14.2965 13.4289 15.0313 9.99982C15.1148 9.61006 15.1684 9.20922 15.1897 8.7998Z" fill="#657077"/>
</svg>
