<svg width="16" height="16" viewBox="0 0 16 16" fill="none" xmlns="http://www.w3.org/2000/svg">
<path d="M3 0.5H10.293L13.5 3.70703V15C13.5 15.2761 13.2761 15.5 13 15.5H3C2.72386 15.5 2.5 15.2761 2.5 15V1C2.5 0.723858 2.72386 0.5 3 0.5Z" fill="white" stroke="#BBBBBB"/>
<path d="M9.5 1V3.7C9.5 3.98003 9.5 4.12004 9.5545 4.227C9.60243 4.32108 9.67892 4.39757 9.773 4.4455C9.87996 4.5 10.02 4.5 10.3 4.5H13" stroke="#BBBBBB"/>
<path d="M8 12H5V11H8V12ZM8 10H5V9H8V10ZM8 8H5V7H8V8ZM12 8H9V7H12V8Z" fill="#3AA133"/>
<path d="M10 9H15V14H10V9Z" fill="#3AA133"/>
<path d="M12 13H11V12H12V13ZM14 13H13V12H14V13ZM13 12H12V11H13V12ZM12 11H11V10H12V11ZM14 11H13V10H14V11Z" fill="white"/>
</svg>
