<svg width="16" height="16" viewBox="0 0 16 16" fill="none" xmlns="http://www.w3.org/2000/svg">
<g clip-path="url(#clip0_2066_5450)">
<path d="M8 0C9.3749 0 10.6687 0.347054 11.7988 0.958008L10.2998 2.45703C9.59149 2.16281 8.81479 2 8 2C4.68629 2 2 4.68629 2 8C2 11.3137 4.68629 14 8 14C11.3137 14 14 11.3137 14 8C14 7.75837 13.9838 7.5203 13.9561 7.28613L15.6357 5.60645C15.8724 6.36221 16 7.1662 16 8C16 12.4183 12.4183 16 8 16C3.58172 16 0 12.4183 0 8C0 3.58172 3.58172 0 8 0ZM14.207 4.20703L7.70703 10.707C7.31655 11.0973 6.68345 11.0973 6.29297 10.707L3.29297 7.70703L4.70703 6.29297L7 8.58594L12.793 2.79297L14.207 4.20703Z" fill="#35AD17"/>
</g>
<defs>
<clipPath id="clip0_2066_5450">
<rect width="16" height="16" fill="white"/>
</clipPath>
</defs>
</svg>