<svg width="16" height="16" viewBox="0 0 16 16" fill="none" xmlns="http://www.w3.org/2000/svg">
<g clip-path="url(#clip0_1977_9365)">
<path d="M14.2505 0.417358L10.8588 3.80785L12.1753 5.12433L15.5664 1.73323L14.2505 0.417358Z" fill="white"/>
<path fill-rule="evenodd" clip-rule="evenodd" d="M2.37174 6.80033L4.30216 8.73075L6.49354 6.53936L6.97505 7.02087L4.78366 9.21225L6.78779 11.2164L8.97918 9.025L9.4763 9.52212L7.28492 11.7135L9.19972 13.6283C9.70154 14.1301 10.5518 13.9641 10.828 13.3103L12.4065 9.94397L6.02896 3.56646L2.6897 5.17204C2.03596 5.44822 1.86992 6.29851 2.37174 6.80033ZM6.53126 3.07642L6.92252 2.70001C7.70357 1.91896 8.9699 1.91896 9.75095 2.70001L10.8588 3.80785L12.1753 5.12433L13.3 6.24909C14.0811 7.03014 14.0811 8.29647 13.3 9.07752L12.9088 9.45393L6.53126 3.07642Z" fill="white"/>
</g>
<defs>
<clipPath id="clip0_1977_9365">
<rect width="12" height="12" fill="white" transform="translate(2 2)"/>
</clipPath>
</defs>
</svg>