<svg width="16" height="16" viewBox="0 0 16 16" fill="none" xmlns="http://www.w3.org/2000/svg">
    <path fill-rule="evenodd" clip-rule="evenodd"
        d="M0.432556 2.23157C0.599444 1.88606 0.949312 1.6665 1.33302 1.6665H1.36198H1.39089H1.41975H1.44856H1.47732H1.50603H1.5347H1.56332H1.59189H1.62041H1.64888H1.6773H1.70568H1.73401H1.7623H1.79053H1.81872H1.84687H1.87496H1.90302H1.93102H1.95898H1.9869H2.01476H2.04259H2.07037H2.0981H2.12579H2.15344H2.18104H2.2086H2.23611H2.26358H2.29101H2.31839H2.34573H2.37303H2.40029H2.4275H2.45467H2.4818H2.50889H2.53593H2.56294H2.5899H2.61682H2.64371H2.67055H2.69735H2.72411H2.75083H2.77751H2.80415H2.83075H2.85731H2.88384H2.91032H2.93676H2.96317H2.98954H3.01587H3.04216H3.06842H3.09464H3.12082H3.14696H3.17307H3.19914H3.22517H3.25116H3.27713H3.30305H3.32894H3.35479H3.38061H3.40639H3.43214H3.45785H3.48353H3.50918H3.53479H3.56036H3.5859H3.61141H3.63689H3.66233H3.68774H3.71311H3.73846H3.76377H3.78904H3.81429H3.83951H3.86469H3.88984H3.91496H3.94005H3.96511H3.99013H4.01513H4.0401H4.06503H4.08994H4.11482H4.13966H4.16448H4.18927H4.21403H4.23876H4.26346H4.28814H4.31279H4.3374H4.36199H4.38656H4.41109H4.4356H4.46008H4.48453H4.50896H4.53336H4.55774H4.58209H4.60641H4.63071H4.65498H4.67923H4.70345H4.72764H4.75182H4.77596H4.80009H4.82419H4.84826H4.87231H4.89634H4.92035H4.94433H4.96829H4.99222H5.01614H5.04003H5.0639H5.08774H5.11157H5.13537H5.15915H5.18292H5.20666H5.23038H5.25407H5.27775H5.30141H5.32505H5.34867H5.37227H5.39584H5.4194H5.44295H5.46647H5.48997H5.51346H5.53692H5.56037H5.5838H5.60722H5.63061H5.65399H5.67735H5.7007H5.72402H5.74733H5.77063H5.79391H5.81717H5.84042H5.86365H5.88687H5.91007H5.93325H5.95642H5.97958H6.00272H6.02585H6.04896H6.07206H6.09515H6.11822H6.14128H6.16433H6.18737H6.21039H6.2334H6.25639H6.27938H6.30235H6.32531H6.34826H6.3712H6.39413H6.41705H6.43995H6.46285H6.48573H6.50861H6.53147H6.55433H6.57717H6.60001H6.62284H6.64566H6.66847H6.69127H6.71406H6.73685H6.75962H6.78239H6.80515H6.82791H6.85065H6.87339H6.89613H6.91885H6.94157H6.96429H6.98699H7.0097H7.03239H7.05508H7.07777H7.10045H7.12313H7.1458H7.16846H7.19113H7.21378H7.23644H7.25909H7.28174H7.30438H7.32702H7.34966H7.37229H7.39493H7.41756H7.44018H7.46281H7.48544H7.50806H7.53068H7.5533H7.57592H7.59854H7.62116H7.64377H7.66639H7.68901H7.71163H7.73424H7.75686H7.77948H7.8021H7.82472H7.84735H7.86997H7.8926H7.91523H7.93786H7.96049H7.98312H8.00576H8.0284H8.05105H8.07369H8.09634H8.119H8.14166H8.16432H8.18699H8.20966H8.23233H8.25501H8.2777H8.30039H8.32309H8.34579H8.36849H8.39121H8.41393H8.43666H8.45939H8.48213H8.50488H8.52763H8.55039H8.57316H8.59594H8.61872H8.64151H8.66432H8.68713H8.70994H8.73277H8.75561H8.77845H8.80131H8.82417H8.84705H8.86993H8.89283H8.91574H8.93865H8.96158H8.98452H9.00747H9.03043H9.0534H9.07639H9.09939H9.12239H9.14542H9.16845H9.1915H9.21456H9.23763H9.26072H9.28382H9.30693H9.33006H9.3532H9.37636H9.39953H9.42272H9.44592H9.46913H9.49236H9.51561H9.53887H9.56215H9.58545H9.60876H9.63209H9.65543H9.67879H9.70217H9.72556H9.74898H9.77241H9.79586H9.81932H9.84281H9.86631H9.88984H9.91338H9.93694H9.96052H9.98411H10.0077H10.0314H10.055H10.0787H10.1024H10.1261H10.1499H10.1736H10.1974H10.2212H10.245H10.2689H10.2928H10.3166H10.3406H10.3645H10.3885H10.4124H10.4364H10.4605H10.4845H10.5086H10.5327H10.5568H10.581H10.6051H10.6293H10.6536H10.6778H10.7021H10.7264H10.7507H10.775H10.7994H10.8238H10.8482H10.8727H10.8972H10.9217H10.9462H10.9708H10.9954H11.02H11.0446H11.0693H11.094H11.1187H11.1435H11.1683H11.1931H11.218H11.2428H11.2677H11.2927H11.3176H11.3426H11.3677H11.3927H11.4178H11.4429H11.4681H11.4933H11.5185H11.5437H11.569H11.5943H11.6197H11.645H11.6705H11.6959H11.7214H11.7469H11.7724H11.798H11.8236H11.8492H11.8749H11.9006H11.9264H11.9522H11.978H12.0038H12.0297H12.0557H12.0816H12.1076H12.1336H12.1597H12.1858H12.212H12.2381H12.2644H12.2906H12.3169H12.3432H12.3696H12.396H12.4225H12.4489H12.4755H12.502H12.5286H12.5553H12.582H12.6087H12.6354H12.6622H12.6891H12.716H12.7429H12.7698H12.7968H12.8239H12.851H12.8781H12.9053H12.9325H12.9597H12.987H13.0144H13.0418H13.0692H13.0967H13.1242H13.1517H13.1793H13.207H13.2347H13.2624H13.2902H13.318H13.3459H13.3738H13.4018H13.4298H13.4578H13.4859H13.5141H13.5422H13.5705H13.5988H13.6271H13.6555H13.6839H13.7124H13.7409H13.7695H13.7981H13.8267H13.8555H13.8842H13.913H13.9419H13.9708H13.9998C14.3733 1.6665 14.7158 1.87474 14.8876 2.20644C15.0595 2.53813 15.0322 2.93798 14.8167 3.24318L12.8167 6.07656C12.4982 6.52776 11.8743 6.63534 11.4231 6.31685C10.9719 5.99836 10.8643 5.3744 11.1828 4.9232L12.0699 3.6665H12.0557H12.0297H12.0038H11.978H11.9522H11.9264H11.9006H11.8749H11.8492H11.8236H11.798H11.7724H11.7469H11.7214H11.6959H11.6705H11.645H11.6197H11.5943H11.569H11.5437H11.5185H11.4933H11.4681H11.4429H11.4178H11.3927H11.3677H11.3426H11.3176H11.2927H11.2677H11.2428H11.218H11.1931H11.1683H11.1435H11.1187H11.094H11.0693H11.0446H11.02H10.9954H10.9708H10.9462H10.9217H10.8972H10.8727H10.8482H10.8238H10.7994H10.775H10.7507H10.7264H10.7021H10.6778H10.6536H10.6293H10.6051H10.581H10.5568H10.5327H10.5086H10.4845H10.4605H10.4364H10.4124H10.3885H10.3645H10.3406H10.3166H10.2928H10.2689H10.245H10.2212H10.1974H10.1736H10.1499H10.1261H10.1024H10.0787H10.055H10.0314H10.0077H9.98411H9.96052H9.93694H9.91338H9.88984H9.86631H9.84281H9.81932H9.79586H9.77241H9.74898H9.72556H9.70217H9.67879H9.65543H9.63209H9.60876H9.58545H9.56215H9.53887H9.51561H9.49236H9.46913H9.44592H9.42272H9.39953H9.37636H9.3532H9.33006H9.30693H9.28382H9.26072H9.23763H9.21456H9.1915H9.16845H9.14542H9.12239H9.09939H9.07639H9.0534H9.03043H9.00747H8.98452H8.96158H8.93865H8.91574H8.89283H8.86993H8.84705H8.82417H8.80131H8.77845H8.75561H8.73277H8.70994H8.68713H8.66432H8.64151H8.61872H8.59594H8.57316H8.55039H8.52763H8.50488H8.48213H8.45939H8.43666H8.41393H8.39121H8.36849H8.34579H8.32309H8.30039H8.2777H8.25501H8.23233H8.20966H8.18699H8.16432H8.14166H8.119H8.09634H8.07369H8.05105H8.0284H8.00576H7.98312H7.96049H7.93786H7.91523H7.8926H7.86997H7.84735H7.82472H7.8021H7.77948H7.75686H7.73424H7.71163H7.68901H7.66639H7.64377H7.62116H7.59854H7.57592H7.5533H7.53068H7.50806H7.48544H7.46281H7.44018H7.41756H7.39493H7.37229H7.34966H7.32702H7.30438H7.28174H7.25909H7.23644H7.21378H7.19113H7.16846H7.1458H7.12313H7.10045H7.07777H7.05508H7.03239H7.0097H6.98699H6.96429H6.94157H6.91885H6.89613H6.87339H6.85065H6.82791H6.80515H6.78239H6.75962H6.73685H6.71406H6.69127H6.66847H6.64566H6.62284H6.60001H6.57717H6.55433H6.53147H6.50861H6.48573H6.46285H6.43995H6.41705H6.39413H6.3712H6.34826H6.32531H6.30235H6.27938H6.25639H6.2334H6.21039H6.18737H6.16433H6.14128H6.11822H6.09515H6.07206H6.04896H6.02585H6.00272H5.97958H5.95642H5.93325H5.91007H5.88687H5.86365H5.84042H5.81717H5.79391H5.77063H5.74733H5.72402H5.7007H5.67735H5.65399H5.63061H5.60722H5.5838H5.56037H5.53692H5.51346H5.48997H5.46647H5.44295H5.4194H5.39584H5.37227H5.34867H5.32505H5.30141H5.27775H5.25407H5.23038H5.20666H5.18292H5.15915H5.13537H5.11157H5.08774H5.0639H5.04003H5.01614H4.99222H4.96829H4.94433H4.92035H4.89634H4.87231H4.84826H4.82419H4.80009H4.77596H4.75182H4.72764H4.70345H4.67923H4.65498H4.63071H4.60641H4.58209H4.55774H4.53336H4.50896H4.48453H4.46008H4.4356H4.41109H4.38656H4.36199H4.3374H4.31279H4.28814H4.26346H4.23876H4.21403H4.18927H4.16448H4.13966H4.11482H4.08994H4.06503H4.0401H4.01513H3.99013H3.96511H3.94005H3.91496H3.88984H3.86469H3.83951H3.81429H3.78904H3.76377H3.73846H3.71311H3.68774H3.66233H3.63689H3.61141H3.5859H3.56036H3.53479H3.50918H3.48353H3.45785H3.43214H3.40639H3.40334L6.87821 8.04485C7.01854 8.22167 7.09492 8.44076 7.09492 8.6665V13.0855C7.58889 12.8665 8.17021 13.0801 8.40321 13.5712C8.63998 14.0701 8.42743 14.6666 7.92847 14.9033L6.52362 15.5699C6.21382 15.717 5.85029 15.695 5.56046 15.5117C5.27063 15.3284 5.09492 15.0094 5.09492 14.6665V9.01511L0.549728 3.28816C0.311195 2.98761 0.265669 2.57708 0.432556 2.23157Z"
        fill="#333333" />
    <g clip-path="url(#clip0_6259_2125)">
        <path fill-rule="evenodd" clip-rule="evenodd"
            d="M9.35659 7.99787C9.51473 7.85852 9.74671 7.85559 9.92186 7.97286L10.4394 8.31934C10.4742 8.34265 10.5105 8.36092 10.5475 8.37445C10.7429 8.26612 10.9516 8.17898 11.1707 8.11611C11.1872 8.08043 11.1999 8.04195 11.208 8.00096L11.329 7.38989C11.3699 7.18304 11.5361 7.02105 11.7466 7.0079C11.8304 7.00266 11.9149 7 12 7C12.0851 7 12.1696 7.00266 12.2534 7.0079C12.4639 7.02105 12.6301 7.18304 12.671 7.38989L12.792 8.00096C12.8001 8.04195 12.8128 8.08043 12.8293 8.11611C13.0484 8.17898 13.2571 8.26612 13.4525 8.37445C13.4895 8.36092 13.5258 8.34265 13.5606 8.31934L14.0781 7.97286C14.2533 7.85559 14.4853 7.85852 14.6434 7.99787C14.7704 8.10977 14.8902 8.2296 15.0021 8.35659C15.1415 8.51473 15.1444 8.74671 15.0271 8.92186L14.6807 9.43937C14.6573 9.47418 14.6391 9.51046 14.6256 9.5475C14.7339 9.74288 14.821 9.95163 14.8839 10.1707C14.9196 10.1872 14.958 10.1999 14.999 10.208L15.6101 10.329C15.817 10.3699 15.9789 10.5361 15.9921 10.7466C15.9973 10.8304 16 10.9149 16 11C16 11.0851 15.9973 11.1696 15.9921 11.2534C15.9789 11.4639 15.817 11.6301 15.6101 11.671L14.999 11.792C14.958 11.8001 14.9196 11.8128 14.8839 11.8293C14.821 12.0484 14.7339 12.2571 14.6256 12.4525C14.6391 12.4895 14.6573 12.5258 14.6807 12.5606L15.0271 13.0781C15.1444 13.2533 15.1415 13.4853 15.0021 13.6434C14.8902 13.7704 14.7704 13.8902 14.6434 14.0021C14.4853 14.1415 14.2533 14.1444 14.0781 14.0271L13.5606 13.6807C13.5258 13.6573 13.4895 13.6391 13.4525 13.6256C13.2571 13.7339 13.0484 13.821 12.8293 13.8839C12.8128 13.9196 12.8001 13.958 12.792 13.999L12.671 14.6101C12.6301 14.817 12.4639 14.9789 12.2534 14.9921C12.1696 14.9973 12.0851 15 12 15C11.9149 15 11.8304 14.9973 11.7466 14.9921C11.5361 14.9789 11.3699 14.817 11.329 14.6101L11.208 13.999C11.1999 13.958 11.1872 13.9196 11.1707 13.8839C10.9516 13.821 10.7429 13.7339 10.5475 13.6256C10.5105 13.6391 10.4742 13.6573 10.4394 13.6807L9.92186 14.0271C9.74671 14.1444 9.51473 14.1415 9.35659 14.0021C9.2296 13.8902 9.10977 13.7704 8.99787 13.6434C8.85852 13.4853 8.85559 13.2533 8.97286 13.0781L9.31934 12.5606C9.34265 12.5258 9.36092 12.4895 9.37445 12.4525C9.26612 12.2571 9.17898 12.0484 9.11611 11.8293C9.08043 11.8128 9.04195 11.8001 9.00096 11.792L8.38989 11.671C8.18304 11.6301 8.02105 11.4639 8.0079 11.2534C8.00266 11.1696 8 11.0851 8 11C8 10.9149 8.00266 10.8304 8.0079 10.7466C8.02105 10.5361 8.18304 10.3699 8.38989 10.329L9.00096 10.208C9.04195 10.1999 9.08043 10.1872 9.11611 10.1707C9.17898 9.95163 9.26612 9.74288 9.37444 9.5475C9.36092 9.51046 9.34265 9.47418 9.31934 9.43937L8.97286 8.92186C8.85559 8.74671 8.85852 8.51473 8.99787 8.35659C9.10977 8.2296 9.2296 8.10977 9.35659 7.99787ZM12 12C12.5523 12 13 11.5523 13 11C13 10.4477 12.5523 10 12 10C11.4477 10 11 10.4477 11 11C11 11.5523 11.4477 12 12 12Z"
            fill="#333333" />
    </g>
    <defs>
        <clipPath id="clip0_6259_2125">
            <rect width="8" height="8" fill="white" transform="translate(8 7)" />
        </clipPath>
    </defs>
</svg>