<svg width="17" height="16" viewBox="0 0 17 16" fill="none" xmlns="http://www.w3.org/2000/svg">
<g clip-path="url(#clip0_156_3035)">
<path d="M15.0971 7.89979L14.2412 7.38262V7.38262L15.0971 7.89979ZM8.85021 1.65293L8.33304 0.797051L8.33304 0.797052L8.85021 1.65293ZM15.75 8H14.75C14.75 11.3137 12.0637 14 8.75 14V15V16C13.1683 16 16.75 12.4183 16.75 8H15.75ZM8.75 15V14C5.43629 14 2.75 11.3137 2.75 8H1.75H0.75C0.75 12.4183 4.33172 16 8.75 16V15ZM1.75 8H2.75C2.75 4.68629 5.43629 2 8.75 2V1V0C4.33172 0 0.75 3.58172 0.75 8H1.75ZM11.2 10.1V9.1C9.23939 9.1 7.65 7.51061 7.65 5.55H6.65H5.65C5.65 8.61518 8.13482 11.1 11.2 11.1V10.1ZM15.0971 7.89979L14.2412 7.38262C13.6179 8.41406 12.4886 9.1 11.2 9.1V10.1V11.1C13.2176 11.1 14.9826 10.0228 15.9529 8.41696L15.0971 7.89979ZM6.65 5.55H7.65C7.65 4.26141 8.33594 3.13207 9.36738 2.50881L8.85021 1.65293L8.33304 0.797052C6.72719 1.7674 5.65 3.53243 5.65 5.55H6.65ZM8.75 1V2C8.55869 2 8.36239 1.91933 8.22013 1.77125C8.09323 1.63915 8.04778 1.49575 8.03451 1.39749C8.01151 1.22721 8.06482 0.959126 8.33304 0.797051L8.85021 1.65293L9.36738 2.50881C9.91281 2.17923 10.0779 1.58468 10.0165 1.12981C9.95197 0.651878 9.55899 0 8.75 0V1ZM15.0971 7.89979L15.9529 8.41697C15.7909 8.68518 15.5228 8.73849 15.3525 8.71549C15.2543 8.70222 15.1108 8.65677 14.9788 8.52987C14.8307 8.38761 14.75 8.19131 14.75 8H15.75H16.75C16.75 7.19101 16.0981 6.79803 15.6202 6.73348C15.1653 6.67205 14.5708 6.83719 14.2412 7.38262L15.0971 7.89979Z" fill="#657077"/>
</g>
<defs>
<clipPath id="clip0_156_3035">
<rect width="16" height="16" fill="white" transform="translate(0.75)"/>
</clipPath>
</defs>
</svg>
