<svg width="16" height="16" viewBox="0 0 16 16" fill="none" xmlns="http://www.w3.org/2000/svg">
<path fill-rule="evenodd" clip-rule="evenodd" d="M8.5 0H7.5C6.67157 0 6 0.671573 6 1.5V2H5H3C1.89543 2 1 2.89543 1 4H3H5H7.5H8.5H11H13H15C15 2.89543 14.1046 2 13 2H11H10V1.5C10 0.671573 9.32843 0 8.5 0ZM3 5H13V13.2C13 14.7464 11.7464 16 10.2 16H5.8C4.2536 16 3 14.7464 3 13.2V5ZM8.00067 8.58579L10.2936 6.29289L11.7078 7.70711L9.41488 10L11.7078 12.2929L10.2936 13.7071L8.00067 11.4142L5.70778 13.7071L4.29356 12.2929L6.58646 10L4.29356 7.70711L5.70778 6.29289L8.00067 8.58579Z" fill="white"/>
</svg>