<svg width="16" height="16" viewBox="0 0 16 16" fill="none" xmlns="http://www.w3.org/2000/svg">
<path fill-rule="evenodd" clip-rule="evenodd" d="M13.8092 8L13.8092 12.3445L14.8555 11.3389L16 12.4388L13.5722 14.7722C13.4205 14.9181 13.2146 15 13 15C12.7854 15 12.5795 14.9181 12.4278 14.7722L10 12.4388L11.1445 11.3389L12.1907 12.3445L12.1907 8.00001L13.8092 8Z" fill="white"/>
<path fill-rule="evenodd" clip-rule="evenodd" d="M2 1.5C2 1.22386 1.77614 1 1.5 1H0.5C0.223858 1 0 1.22386 0 1.5V2.5C0 2.77614 0.223858 3 0.5 3H1.5C1.77614 3 2 2.77614 2 2.5V1.5ZM16 1.5C16 1.22386 15.7761 1 15.5 1H4.5C4.22386 1 4 1.22386 4 1.5V2.5C4 2.77614 4.22386 3 4.5 3L15.5 3C15.7761 3 16 2.77614 16 2.5V1.5ZM16 5.5C16 5.22386 15.7761 5 15.5 5H8.5C8.22386 5 8 5.22386 8 5.5V6.5C8 6.77614 8.22386 7 8.5 7H15.5C15.7761 7 16 6.77614 16 6.5V5.5ZM9 13H4.5C4.22386 13 4 13.2239 4 13.5V14.5C4 14.7761 4.22386 15 4.5 15H9V13ZM5 7C5.55228 7 6 6.55228 6 6C6 5.44772 5.55228 5 5 5C4.44772 5 4 5.44772 4 6C4 6.55228 4.44772 7 5 7ZM5 11C5.55228 11 6 10.5523 6 10C6 9.44771 5.55228 9 5 9C4.44772 9 4 9.44771 4 10C4 10.5523 4.44772 11 5 11ZM0.5 13C0.223858 13 0 13.2239 0 13.5V14.5C0 14.7761 0.223858 15 0.5 15H1.5C1.77614 15 2 14.7761 2 14.5V13.5C2 13.2239 1.77614 13 1.5 13H0.5Z" fill="white"/>
</svg>