<svg width="17" height="16" viewBox="0 0 17 16" fill="none" xmlns="http://www.w3.org/2000/svg">
<g clip-path="url(#clip0_156_1629)">
<circle cx="8.75" cy="8" r="3" stroke="#333333" stroke-width="2"/>
<path d="M8.75 13C9.30229 13 9.75 13.4477 9.75 14V15C9.75 15.5523 9.30229 16 8.75 16C8.19772 16 7.75 15.5523 7.75 15V14C7.75 13.4477 8.19772 13 8.75 13ZM2.75 7C3.30228 7 3.75 7.44772 3.75 8C3.75 8.55229 3.30228 9 2.75 9H1.75C1.19772 9 0.75 8.55228 0.75 8C0.75 7.44772 1.19772 7 1.75 7H2.75ZM15.75 7C16.3023 7 16.75 7.44772 16.75 8C16.75 8.55229 16.3023 9 15.75 9H14.75C14.1977 9 13.75 8.55228 13.75 8C13.75 7.44772 14.1977 7 14.75 7H15.75ZM8.75 0C9.30229 0 9.75 0.447715 9.75 1V2C9.75 2.55228 9.30229 3 8.75 3C8.19772 3 7.75 2.55228 7.75 2V1C7.75 0.447715 8.19772 0 8.75 0Z" fill="#333333"/>
<path d="M12.2855 11.5355C12.676 11.145 13.3092 11.145 13.6997 11.5355L14.4068 12.2426C14.7974 12.6332 14.7974 13.2663 14.4068 13.6569C14.0163 14.0474 13.3832 14.0474 12.9926 13.6569L12.2855 12.9497C11.895 12.5592 11.895 11.9261 12.2855 11.5355ZM3.80024 11.5355C4.19076 11.145 4.82393 11.145 5.21445 11.5355C5.60498 11.9261 5.60498 12.5592 5.21445 12.9497L4.50735 13.6569C4.11682 14.0474 3.48366 14.0474 3.09313 13.6569C2.70261 13.2663 2.70261 12.6332 3.09313 12.2426L3.80024 11.5355ZM12.9926 2.34315C13.3832 1.95262 14.0163 1.95262 14.4068 2.34315C14.7974 2.73367 14.7974 3.36683 14.4068 3.75736L13.6997 4.46447C13.3092 4.85499 12.676 4.85499 12.2855 4.46447C11.895 4.07394 11.895 3.44078 12.2855 3.05025L12.9926 2.34315ZM3.09313 2.34315C3.48366 1.95262 4.11682 1.95262 4.50735 2.34315L5.21445 3.05025C5.60498 3.44078 5.60498 4.07394 5.21445 4.46447C4.82393 4.85499 4.19076 4.85499 3.80024 4.46447L3.09313 3.75736C2.70261 3.36684 2.70261 2.73367 3.09313 2.34315Z" fill="#333333"/>
</g>
<defs>
<clipPath id="clip0_156_1629">
<rect width="16" height="16" fill="white" transform="translate(0.75)"/>
</clipPath>
</defs>
</svg>
