<svg width="16" height="16" viewBox="0 0 16 16" fill="none" xmlns="http://www.w3.org/2000/svg">
<path d="M3 0.5H10.293L13.5 3.70703V15C13.5 15.2761 13.2761 15.5 13 15.5H3C2.72386 15.5 2.5 15.2761 2.5 15V1C2.5 0.723858 2.72386 0.5 3 0.5Z" fill="white" stroke="#BBBBBB"/>
<path d="M9.5 1V3.7C9.5 3.98003 9.5 4.12004 9.5545 4.227C9.60243 4.32108 9.67892 4.39757 9.773 4.4455C9.87996 4.5 10.02 4.5 10.3 4.5H13" stroke="#BBBBBB"/>
<path d="M10 9H15V14H10V9Z" fill="#E54D39"/>
<rect x="11" y="12" width="1" height="1" fill="white"/>
<rect x="12" y="10" width="1" height="1" fill="white"/>
<rect x="12" y="11" width="1" height="1" fill="white"/>
<rect x="13" y="11" width="1" height="1" fill="white"/>
<path d="M9 12H5V11H9V12ZM9 10H5V9H9V10ZM11 8H5V7H11V8Z" fill="#E54D39"/>
</svg>
