<svg width="16" height="16" viewBox="0 0 16 16" fill="none" xmlns="http://www.w3.org/2000/svg">
<path fill-rule="evenodd" clip-rule="evenodd" d="M14.4358 1.56227C12.3516 -0.520757 8.97224 -0.520758 6.88794 1.56227L6.11185 2.33789C5.59077 2.85865 5.59077 3.70297 6.11185 4.22372C6.63292 4.74448 7.47775 4.74448 7.99882 4.22372L8.77492 3.4481C9.81706 2.40659 11.5067 2.40659 12.5489 3.4481C13.591 4.48962 13.591 6.17825 12.5489 7.21977L11.7728 7.99539C11.2517 8.51614 11.2517 9.36046 11.7728 9.88122C12.2939 10.402 13.1387 10.402 13.6598 9.88122L14.4359 9.1056C16.5201 7.02256 16.5201 3.6453 14.4358 1.56227ZM5.77122 10.2191C5.25015 9.69834 5.25015 8.85402 5.77122 8.33326L8.33724 5.7688C8.85832 5.24804 9.70315 5.24804 10.2242 5.7688C10.7453 6.28956 10.7453 7.13387 10.2242 7.65463L7.6582 10.2191C7.13713 10.7399 6.2923 10.7399 5.77122 10.2191ZM1.56319 6.88448C-0.521064 8.96755 -0.521065 12.3449 1.56319 14.4279C3.64745 16.511 7.0267 16.511 9.11096 14.4279L9.88565 13.6537C10.4067 13.1329 10.4067 12.2886 9.88565 11.7678C9.36459 11.2471 8.51977 11.2471 7.99871 11.7678L7.22402 12.5421C6.18189 13.5836 4.49226 13.5836 3.45013 12.5421C2.40801 11.5005 2.40801 9.81188 3.45013 8.77035L4.22483 7.9961C4.74589 7.47533 4.74589 6.631 4.22483 6.11023C3.70376 5.58946 2.85895 5.58946 2.33789 6.11023L1.56319 6.88448Z" fill="#35A5D2"/>
</svg>
