<svg width="16" height="16" viewBox="0 0 16 16" fill="none" xmlns="http://www.w3.org/2000/svg">
<path fill-rule="evenodd" clip-rule="evenodd" d="M8 1C8.29192 1 8.56927 1.12756 8.75926 1.34921L14.7593 8.34921C15.0134 8.64572 15.0717 9.06306 14.9085 9.41786C14.7453 9.77266 14.3905 10 14 10H10.994V12H8.99398V9C8.99398 8.44772 9.4417 8 9.99398 8H11.8258L8 3.53659L4.17422 8H5.99384C6.54613 8 6.99384 8.44772 6.99384 9V12H4.99384V10H2C1.60947 10 1.25467 9.77266 1.09149 9.41786C0.928301 9.06306 0.986589 8.64572 1.24074 8.34921L7.24074 1.34921C7.43072 1.12756 7.70807 1 8 1ZM15 13V15H0.999999V13H15Z" fill="white"/>
</svg>
