<svg width="16" height="16" viewBox="0 0 16 16" fill="none" xmlns="http://www.w3.org/2000/svg">
<g clip-path="url(#clip0_835_3248)">
<path d="M15.0029 4.39092H2.69372C2.54217 4.39092 2.39682 4.32921 2.28966 4.21936C2.1825 4.10951 2.12229 3.96052 2.12229 3.80517C2.12229 3.64982 2.1825 3.50083 2.28966 3.39098C2.39682 3.28113 2.54217 3.21941 2.69372 3.21941H12.7349V1.02283C12.7349 0.710624 12.5983 0.419504 12.3606 0.224447C12.2438 0.128359 12.1073 0.0605432 11.9614 0.0260591C11.8154 -0.00842493 11.6638 -0.00868772 11.5177 0.0252905L0.778293 2.49718C0.556939 2.54734 0.359007 2.67367 0.217414 2.85515C0.0758213 3.03664 -0.000900287 3.26234 7.97244e-06 3.49472V14.9773C7.97244e-06 15.5408 0.447436 16 0.99715 16H15.0029C15.5526 16 16 15.5414 16 14.9773V5.41306C16 4.84957 15.5526 4.39092 15.0029 4.39092ZM13.2034 11.2396C12.6691 11.2396 12.2349 10.7938 12.2349 10.2461C12.2349 9.69845 12.6697 9.25269 13.2034 9.25269C13.7383 9.25269 14.1726 9.69845 14.1726 10.2461C14.1726 10.7938 13.7383 11.2396 13.2034 11.2396Z" fill="#657077"/>
</g>
<defs>
<clipPath id="clip0_835_3248">
<rect width="16" height="16" fill="white"/>
</clipPath>
</defs>
</svg>
