<svg width="624" height="444" viewBox="0 0 624 444" fill="none" xmlns="http://www.w3.org/2000/svg">
<g clip-path="url(#clip0_182_15824)">
<rect width="624" height="444" fill="white"/>
<rect width="312" height="83.71" fill="#F8F9F9"/>
<path fill-rule="evenodd" clip-rule="evenodd" d="M37.8777 55.3459L24.8334 49.2293C23.7222 48.6953 23.7222 47.8701 24.8334 47.3847L29.3747 45.2487L37.8294 49.2293C38.9406 49.7633 40.7281 49.7633 41.791 49.2293L50.2457 45.2487L54.787 47.3847C55.8982 47.9186 55.8982 48.7439 54.787 49.2293L41.7427 55.3459C40.7281 55.8313 38.9406 55.8313 37.8777 55.3459Z" fill="#FF6F3D"/>
<path fill-rule="evenodd" clip-rule="evenodd" d="M37.8354 47.7769L24.8308 41.6532C23.7231 41.1186 23.7231 40.2924 24.8308 39.8064L29.262 37.7166L37.8354 41.7505C38.9432 42.2851 40.7253 42.2851 41.785 41.7505L50.3584 37.7166L54.7896 39.8064C55.8973 40.341 55.8973 41.1672 54.7896 41.6532L41.785 47.7769C40.6772 48.3115 38.8951 48.3115 37.8354 47.7769Z" fill="#95C038"/>
<path fill-rule="evenodd" clip-rule="evenodd" d="M37.8354 40.2865L24.8308 34.251C23.7231 33.7241 23.7231 32.9097 24.8308 32.4307L37.8354 26.3952C38.9432 25.8683 40.7253 25.8683 41.785 26.3952L54.7896 32.4307C55.8973 32.9576 55.8973 33.772 54.7896 34.251L41.785 40.2865C40.6772 40.7655 38.8951 40.7655 37.8354 40.2865Z" fill="#5DC0E8"/>
<path d="M70.987 33.2625C67.2236 33.2625 63.5254 35.4681 63.5254 40.855C63.5254 46.2419 67.2236 48.4475 70.987 48.4475C74.7505 48.4475 78.4487 46.2419 78.4487 40.855C78.4487 35.4681 74.7505 33.2625 70.987 33.2625ZM70.987 35.3833C72.14 35.3833 75.1856 35.8286 75.1856 40.855C75.1856 45.8813 72.14 46.3267 70.987 46.3267C69.8341 46.3267 66.7885 45.8813 66.7885 40.855C66.7885 35.8286 69.8341 35.3833 70.987 35.3833Z" fill="#333333"/>
<path d="M80.9584 33.4321V48.2779H84.0475V39.5401L83.9822 36.9103H84.0475L84.8089 38.5645L90.1169 48.2779H94.1196V33.4321H91.0305V42.1699L91.0958 44.7997H91.0305L90.2256 42.7849L84.9612 33.4321H80.9584Z" fill="#333333"/>
<path d="M97.1677 33.4321V48.2779H106.304V45.7753H100.257V33.4321H97.1677Z" fill="#333333"/>
<path d="M103.694 33.4321L109.307 42.2123V48.2779H112.396V42.2547L117.878 33.4321H114.615L111.46 38.6493L110.938 39.6673H110.873L110.394 38.6493L107.262 33.4321H103.694Z" fill="#333333"/>
<path d="M125.075 33.2625C121.311 33.2625 117.613 35.4681 117.613 40.855C117.613 46.2419 121.311 48.4475 125.075 48.4475C128.838 48.4475 132.536 46.2419 132.536 40.855C132.536 35.4681 128.838 33.2625 125.075 33.2625ZM125.075 35.3833C126.228 35.3833 129.273 35.8286 129.273 40.855C129.273 45.8813 126.228 46.3267 125.075 46.3267C123.922 46.3267 120.876 45.8813 120.876 40.855C120.876 35.8286 123.922 35.3833 125.075 35.3833Z" fill="#333333"/>
<path d="M135.046 33.4321V48.2779H138.135V41.979H143.313V39.5401H138.135V35.9347H143.574V33.4321H135.046Z" fill="#333333"/>
<path d="M145.753 33.4321V48.2779H148.842V41.979H154.02V39.5401H148.842V35.9347H154.281V33.4321H145.753Z" fill="#333333"/>
<path d="M156.46 48.2779H159.549V33.4321H156.46V48.2779Z" fill="#333333"/>
<path d="M173.716 45.2875C172.955 45.6268 171.889 45.945 170.54 45.945C167.799 45.945 165.319 44.4816 165.319 40.8974C165.319 37.8646 167.342 35.765 170.758 35.765C171.911 35.765 172.89 35.9771 173.782 36.3164L173.912 33.7714C172.759 33.4109 171.737 33.2625 170.54 33.2625C165.754 33.2625 162.056 35.8286 162.056 40.9398C162.056 46.3479 166.189 48.4475 169.975 48.4475C171.193 48.4475 172.563 48.2567 173.912 47.8113L173.716 45.2875Z" fill="#333333"/>
<path d="M176.302 33.4321V48.2779H185.396V45.6481H179.392V41.8518H184.852V39.4128H179.392V36.0619H185.396V33.4321H176.302Z" fill="#333333"/>
<path d="M192.807 37.2412H197.555V38.3756H192.807V37.2412ZM194.638 33.4329H195.805V48.3257H194.638V33.4329ZM198.041 36.512H204.815V37.695H198.041V36.512ZM204.345 36.512H205.512C205.512 36.512 205.512 36.9657 205.512 37.1278C205.333 44.3716 205.188 46.7862 204.62 47.5155C204.296 47.9692 203.956 48.0989 203.437 48.1637C202.935 48.2123 202.06 48.1961 201.201 48.1475C201.169 47.8072 201.039 47.3048 200.828 46.9807C201.752 47.0455 202.611 47.0617 202.951 47.0617C203.243 47.0617 203.405 47.0131 203.567 46.8024C204.021 46.2839 204.183 43.772 204.345 36.8037V36.512ZM198.3 39.3641L199.386 39.591C199.046 41.2926 198.414 42.9941 197.668 44.1285C197.474 43.9503 197.02 43.6424 196.745 43.4803C197.474 42.4432 197.992 40.9198 198.3 39.3641ZM205.625 39.6234L206.646 39.4127C207.116 40.9036 207.618 42.8483 207.78 43.9827L206.662 44.2582C206.533 43.1076 206.079 41.1305 205.625 39.6234ZM200.942 33.595H202.092V36.4958C202.092 40.0934 201.752 44.8254 197.506 48.3744C197.312 48.0989 196.874 47.7261 196.583 47.5479C200.65 44.2096 200.942 39.8179 200.942 36.4958V33.595Z" fill="#333333"/>
<path d="M216.142 36.1554H223.824V37.3222H215.575L216.142 36.1554ZM218.168 39.672H223.451V40.7902H218.168V39.672ZM218.152 43.2372H223.678V44.3878H218.152V43.2372ZM217.552 36.5282H218.8V48.3419H217.552V36.5282ZM216.758 33.6274L217.941 33.9353C217.018 36.512 215.608 39.0562 214.117 40.7254C213.939 40.5147 213.452 40.0772 213.177 39.8827C214.652 38.3756 215.964 36.0096 216.758 33.6274ZM212.869 33.4977L214.036 33.8705C212.966 36.6092 211.297 39.3803 209.531 41.1953C209.417 40.9036 209.045 40.2554 208.818 39.9637C210.438 38.3918 211.945 35.961 212.869 33.4977ZM211.135 37.6788L212.334 36.4633L212.367 36.4796V48.3257H211.135V37.6788Z" fill="#333333"/>
<path d="M231.894 42.2001H233.174V47.24H231.894V42.2001ZM225.671 35.41H239.462V38.6835H238.214V36.5444H226.887V39.0724H225.671V35.41ZM227.389 41.487H237.809V42.589H227.389V41.487ZM225.704 46.689H239.462V47.8072H225.704V46.689ZM233.596 38.3594L234.341 37.5491C235.962 38.3432 238.182 39.5586 239.333 40.3202L238.538 41.2764C237.436 40.4985 235.233 39.2021 233.596 38.3594ZM230.663 37.5005L231.521 38.2297C230.225 39.3803 228.426 40.6119 226.546 41.4222L225.833 40.3689C227.746 39.672 229.415 38.5701 230.663 37.5005ZM231.311 33.6922L232.591 33.3357C232.98 34.0649 233.466 35.0535 233.693 35.6693L232.364 36.1068C232.153 35.491 231.716 34.4539 231.311 33.6922Z" fill="#333333"/>
<path d="M242.136 37.0954H243.368V48.3582H242.136V37.0954ZM242.363 34.227L243.303 33.6598C244.064 34.3242 244.94 35.2966 245.345 35.961L244.324 36.6254C243.967 35.961 243.108 34.9562 242.363 34.227ZM246.349 34.3566H254.89V35.491H246.349V34.3566ZM254.193 34.3566H255.441V46.8672C255.441 47.5479 255.311 47.872 254.89 48.0665C254.452 48.2609 253.755 48.2771 252.751 48.2771C252.702 47.9692 252.54 47.4669 252.378 47.1427C253.059 47.1752 253.723 47.1589 253.917 47.1589C254.144 47.1589 254.193 47.0779 254.193 46.8672V34.3566ZM246.787 42.2649V44.4526H250.693V42.2649H246.787ZM246.787 39.0886V41.2602H250.693V39.0886H246.787ZM245.685 38.0839H251.843V45.4736H245.685V38.0839Z" fill="#333333"/>
<rect width="312" height="58" transform="translate(0 83.71)" fill="#F8F9F9"/>
<rect x="24" y="83.71" width="264" height="40" rx="3.71429" fill="#4781D1"/>
<path d="M53.5969 97.7757V96.4557H49.9569V97.7757H53.5969ZM55.7569 94.7957V99.4357H47.9369V94.7957H55.7569ZM45.6569 104.536L43.8369 105.196V110.096C43.8369 111.136 43.6769 111.716 43.0969 112.076C42.5369 112.436 41.7769 112.516 40.6369 112.516C40.5969 111.916 40.3369 110.996 40.0569 110.396C40.6169 110.416 41.1569 110.416 41.3369 110.416C41.5569 110.416 41.6169 110.336 41.6169 110.116V105.956C41.0369 106.156 40.4769 106.336 39.9569 106.516L39.3969 104.236C40.0369 104.076 40.7769 103.856 41.6169 103.616V100.036H39.6769V97.8357H41.6169V94.0757H43.8369V97.8357H45.4969V100.036H43.8369V102.916L45.2769 102.436L45.6569 104.536ZM49.5569 103.216V101.736H47.8969V103.216H49.5569ZM54.0169 101.736V103.216H55.7569V101.736H54.0169ZM57.9969 107.976H53.9769C55.0969 109.036 56.7569 109.976 58.3769 110.496C57.8969 110.896 57.2169 111.736 56.8769 112.296C55.4769 111.696 54.0569 110.696 52.9569 109.516V112.776H50.6969V109.576C49.3369 110.856 47.6369 111.856 45.8569 112.456C45.5169 111.916 44.8769 111.056 44.3969 110.616C46.3369 110.116 48.2569 109.136 49.5569 107.976H45.8769V106.056H50.6969V104.836H46.1369V100.136H51.4169V104.756H52.1969V100.136H57.6569V104.836H52.9569V106.056H57.9969V107.976ZM63.8969 94.1357L66.2169 94.8557C65.6969 96.2557 65.0369 97.6757 64.2969 99.0157V112.716H61.8969V102.716C61.4769 103.216 61.0569 103.716 60.6569 104.156C60.4369 103.576 59.7569 102.216 59.3369 101.616C61.1569 99.8157 62.8969 96.9757 63.8969 94.1357ZM78.2369 99.5757H72.5569V101.676H77.7369V103.836H72.5569V106.096H77.9969V108.296H72.5569V112.736H70.1169V99.5757H69.3569C68.5569 101.056 67.6369 102.416 66.7369 103.456C66.3569 103.016 65.4169 102.176 64.9169 101.796C66.6769 99.9957 68.2569 97.1157 69.1569 94.2557L71.4569 94.8357C71.1769 95.6757 70.8569 96.4957 70.4769 97.3157H78.2369V99.5757Z" fill="white"/>
<path d="M266.594 107.128C266.13 107.618 265.298 107.618 264.834 107.128L261.334 103.426C260.681 102.736 261.217 101.662 262.214 101.662L269.215 101.662C270.212 101.662 270.747 102.736 270.095 103.426L266.594 107.128Z" fill="white"/>
<rect width="312" height="312.433" transform="translate(0 141.71)" fill="#F8F9F9"/>
<g clip-path="url(#clip1_182_15824)">
<rect width="312" height="44.8095" transform="translate(0 141.71)" fill="#F8F9F9"/>
<g clip-path="url(#clip2_182_15824)">
<path fill-rule="evenodd" clip-rule="evenodd" d="M42.5709 154.21C41.2034 154.21 40.0947 155.319 40.0947 156.686V171.543C40.0947 172.911 41.2034 174.019 42.5709 174.019H54.9519C56.3194 174.019 57.4281 172.911 57.4281 171.543V159.3C57.4281 158.979 57.3037 158.671 57.0812 158.441L53.3669 154.589C53.1336 154.347 52.8118 154.21 52.4757 154.21H42.5709ZM42.5709 156.686L51.9496 156.686L54.9519 159.8V171.543H42.5709V156.686ZM43.809 161.639H51.2376V159.162H43.809V161.639ZM43.809 165.353H53.7138V162.877H43.809V165.353ZM43.809 169.067H53.7138V166.591H43.809V169.067Z" fill="#657077"/>
</g>
<path d="M79.4034 161.392H73.754C74.4461 163.13 75.3957 164.676 76.635 165.979C77.7939 164.724 78.7113 163.211 79.4034 161.392ZM83.9744 161.392H81.6567C80.7876 163.774 79.6126 165.722 78.1319 167.331C79.7897 168.603 81.8177 169.552 84.2641 170.1C83.7974 170.566 83.1858 171.468 82.8961 172.015C80.3047 171.355 78.2123 170.277 76.5223 168.844C74.768 170.245 72.6917 171.291 70.2452 172.063C70.0199 171.564 69.4243 170.663 69.0381 170.196C71.4201 169.569 73.4321 168.651 75.0577 167.412C73.6091 165.754 72.4985 163.742 71.6294 161.392H69.3278V159.525H75.6371V156.982H77.5846V159.525H83.9744V161.392ZM98.0578 158.028L99.8926 158.495C99.3454 159.863 98.7016 161.36 98.1704 162.326L96.6575 161.859C97.1725 160.861 97.7681 159.235 98.0578 158.028ZM93.8086 161.585L92.183 162.245C91.9416 161.247 91.3621 159.686 90.8632 158.527L92.4083 157.964C92.9395 159.123 93.5189 160.604 93.8086 161.585ZM91.2978 165.464L90.2194 166.929C90.0262 166.414 89.64 165.674 89.2537 164.965V171.999H87.451V165.69C87.0003 167.074 86.4853 168.361 85.8737 169.231C85.6966 168.683 85.2781 167.927 85.0045 167.46C85.9059 166.189 86.7428 163.967 87.1613 162.068H85.3908V160.298H87.451V156.982H89.2537V160.298H91.0724V162.068H89.2537V162.599C89.7365 163.195 91.0081 165.03 91.2978 165.464ZM96.2068 157.046V162.921H99.6029V171.806H97.7198V171.13H90.6057V169.295H97.7198V167.83H91.2012V166.124H97.7198V164.74H90.9759V162.921H94.372V157.046H96.2068Z" fill="#555F65"/>
</g>
<g clip-path="url(#clip3_182_15824)">
<rect width="312" height="44.8095" transform="translate(0 186.52)" fill="#F8F9F9"/>
<rect x="24" y="186.52" width="264" height="44.8095" rx="4" fill="#DFE2E3"/>
<g clip-path="url(#clip4_182_15824)">
<path fill-rule="evenodd" clip-rule="evenodd" d="M38.8569 203.972C38.8569 201.921 40.5199 200.258 42.5712 200.258H53.7141C55.7654 200.258 57.4284 201.921 57.4284 203.972V215.115C57.4284 217.166 55.7654 218.829 53.7141 218.829H42.5712C40.5199 218.829 38.8569 217.166 38.8569 215.115V203.972ZM42.5712 202.734C41.8874 202.734 41.3331 203.288 41.3331 203.972V215.115C41.3331 215.798 41.8874 216.353 42.5712 216.353H53.7141C54.3979 216.353 54.9522 215.798 54.9522 215.115V203.972C54.9522 203.288 54.3979 202.734 53.7141 202.734H42.5712ZM43.8093 206.448C43.8093 205.764 44.3636 205.21 45.0474 205.21H46.2855C46.9693 205.21 47.5236 205.764 47.5236 206.448V207.686C47.5236 208.37 46.9693 208.924 46.2855 208.924H45.0474C44.3636 208.924 43.8093 208.37 43.8093 207.686V206.448ZM45.0474 210.162C44.3636 210.162 43.8093 210.717 43.8093 211.4V212.639C43.8093 213.322 44.3636 213.877 45.0474 213.877H46.2855C46.9693 213.877 47.5236 213.322 47.5236 212.639V211.4C47.5236 210.717 46.9693 210.162 46.2855 210.162H45.0474ZM48.7617 206.448C48.7617 205.764 49.316 205.21 49.9998 205.21H51.2379C51.9217 205.21 52.476 205.764 52.476 206.448V207.686C52.476 208.37 51.9217 208.924 51.2379 208.924H49.9998C49.316 208.924 48.7617 208.37 48.7617 207.686V206.448ZM49.9998 210.162C49.316 210.162 48.7617 210.717 48.7617 211.4V212.639C48.7617 213.322 49.316 213.877 49.9998 213.877H51.2379C51.9217 213.877 52.476 213.322 52.476 212.639V211.4C52.476 210.717 51.9217 210.162 51.2379 210.162H49.9998Z" fill="#4781D1"/>
</g>
<path d="M83.4433 202.532V204.238H69.875V202.532H83.4433ZM76.3775 208.713H72.8043C72.8043 209.035 72.7882 209.373 72.7721 209.711H76.3775V208.713ZM80.5783 206.331H72.8043V207.328H80.5783V206.331ZM83.8135 211.207H77.3271C77.2949 211.513 77.2466 211.819 77.1822 212.109H82.4454C82.4454 212.109 82.4293 212.559 82.3971 212.785C82.2201 214.893 82.0269 215.891 81.6245 216.293C81.2704 216.664 80.852 216.776 80.353 216.825C79.9023 216.857 79.0815 216.873 78.2284 216.841C78.1962 216.358 78.0031 215.698 77.7295 215.247C78.4538 215.328 79.162 215.344 79.4678 215.344C79.7253 215.344 79.8862 215.312 80.0311 215.183C80.2081 215.022 80.3369 214.555 80.4496 213.573H76.7316C76.1039 215.006 74.9289 216.1 72.5629 216.825C72.3859 216.374 71.903 215.682 71.5167 215.328C74.4782 214.539 75.1542 213.155 75.4118 211.207H72.6595C72.4341 213.139 71.8708 215.183 70.5993 216.648C70.2452 216.31 69.4243 215.795 68.9576 215.585C70.7602 213.573 70.9373 210.66 70.9373 208.519V204.946H82.4454V208.713H78.2767V209.711H83.8135V211.207ZM85.8093 205.638H87.8051V216.857H85.8093V205.638ZM86.0346 202.79L87.5476 201.872C88.3041 202.564 89.1732 203.578 89.5595 204.303L87.9339 205.333C87.5959 204.641 86.7589 203.562 86.0346 202.79ZM90.1228 202.564H98.8303V204.351H90.1228V202.564ZM97.752 202.564H99.7639V214.797C99.7639 215.698 99.6029 216.133 99.0718 216.438C98.5245 216.744 97.752 216.76 96.738 216.76C96.6736 216.277 96.4321 215.505 96.1907 215.038C96.7058 215.07 97.3013 215.054 97.4944 215.054C97.7037 215.054 97.752 214.974 97.752 214.781V202.564ZM91.1529 210.902V212.447H94.2754V210.902H91.1529ZM91.1529 207.827V209.356H94.2754V207.827H91.1529ZM89.4307 206.282H96.0781V213.992H89.4307V206.282Z" fill="#4781D1"/>
</g>
<g clip-path="url(#clip5_182_15824)">
<rect width="312" height="44.8095" transform="translate(0 231.329)" fill="#F8F9F9"/>
<g clip-path="url(#clip6_182_15824)">
<path fill-rule="evenodd" clip-rule="evenodd" d="M40.095 250.019C39.4112 250.019 38.8569 249.465 38.8569 248.781V246.305C38.8569 245.621 39.4112 245.067 40.095 245.067H57.4284C58.1121 245.067 58.6665 245.621 58.6665 246.305V248.781C58.6665 249.465 58.1121 250.019 57.4284 250.019V261.162C57.4284 261.846 56.874 262.4 56.1903 262.4H41.3331C40.6493 262.4 40.095 261.846 40.095 261.162V250.019ZM42.5712 251.257V259.924H54.9522V251.257H42.5712ZM45.0474 254.972C45.0474 254.288 45.6017 253.734 46.2855 253.734H51.2379C51.9217 253.734 52.476 254.288 52.476 254.972C52.476 255.656 51.9217 256.21 51.2379 256.21H46.2855C45.6017 256.21 45.0474 255.656 45.0474 254.972ZM43.1903 247.543C42.8484 247.543 42.5712 247.82 42.5712 248.162C42.5712 248.504 42.8484 248.781 43.1903 248.781H54.3331C54.675 248.781 54.9522 248.504 54.9522 248.162C54.9522 247.82 54.675 247.543 54.3331 247.543H43.1903Z" fill="#657077"/>
</g>
<path d="M69.6336 248.533H71.5328V256.693H69.6336V248.533ZM72.8043 246.601H74.7197V253.007C74.7197 256.323 74.3817 259.606 71.5811 261.843C71.227 261.425 70.5027 260.733 70.0199 260.443C72.5146 258.528 72.8043 255.824 72.8043 253.007V246.601ZM76.12 252.975H82.4776V254.89H76.12V252.975ZM75.2669 258.528H82.7029V260.443H75.2669V258.528ZM75.6532 247.76H83.5077V261.586H81.5119V249.659H75.6532V247.76ZM98.0578 247.647L99.8926 248.114C99.3454 249.482 98.7016 250.979 98.1704 251.945L96.6575 251.478C97.1725 250.48 97.7681 248.854 98.0578 247.647ZM93.8086 251.204L92.183 251.864C91.9416 250.866 91.3621 249.305 90.8632 248.146L92.4083 247.583C92.9395 248.742 93.5189 250.223 93.8086 251.204ZM91.2978 255.083L90.2194 256.548C90.0262 256.033 89.64 255.293 89.2537 254.584V261.618H87.451V255.309C87.0003 256.693 86.4853 257.98 85.8737 258.85C85.6966 258.302 85.2781 257.546 85.0045 257.079C85.9059 255.808 86.7428 253.586 87.1613 251.687H85.3908V249.917H87.451V246.601H89.2537V249.917H91.0724V251.687H89.2537V252.218C89.7365 252.814 91.0081 254.649 91.2978 255.083ZM96.2068 246.665V252.54H99.6029V261.425H97.7198V260.749H90.6057V258.914H97.7198V257.449H91.2012V255.743H97.7198V254.359H90.9759V252.54H94.372V246.665H96.2068Z" fill="#555F65"/>
</g>
<rect width="312" height="0.804569" transform="translate(0 276.139)" fill="#F8F9F9"/>
<g clip-path="url(#clip7_182_15824)">
<rect width="312" height="44.8095" transform="translate(0 276.943)" fill="#F8F9F9"/>
<g clip-path="url(#clip8_182_15824)">
<path fill-rule="evenodd" clip-rule="evenodd" d="M48.7624 293.157C48.0786 293.157 47.5243 293.712 47.5243 294.395V295.014C47.5243 295.807 47.7641 296.487 48.0777 296.941C48.4139 297.426 48.7018 297.49 48.7618 297.49C48.8219 297.49 49.1103 297.426 49.4467 296.94C49.7605 296.487 50.0004 295.807 50.0005 295.015V295.015V295.015L50.0004 294.395C50.0002 293.711 49.446 293.157 48.7624 293.157ZM45.0481 294.395C45.0481 292.344 46.7111 290.681 48.7625 290.681C50.8134 290.681 52.4761 292.344 52.4765 294.395L52.4767 295.014V295.015C52.4767 296.285 52.0973 297.462 51.4823 298.35C50.8898 299.206 49.9397 299.966 48.7618 299.966C47.5836 299.966 46.6338 299.205 46.0417 298.35C45.4271 297.462 45.0481 296.285 45.0481 295.014V294.395ZM50.1614 300.978C50.5243 300.796 51.4352 300.385 52.3621 300.856C53.0778 301.219 53.5393 301.871 53.8414 302.462C54.1541 303.075 54.374 303.777 54.531 304.448C54.8449 305.79 54.9523 307.208 54.9523 308.014H52.4761C52.4761 307.366 52.3839 306.141 52.1199 305.012C51.9879 304.448 51.8241 303.957 51.6362 303.589C51.5218 303.365 51.4215 303.231 51.3491 303.155C51.3251 303.165 51.2984 303.178 51.2688 303.192L50.4229 303.615C49.3772 304.138 48.1464 304.138 47.1007 303.615L46.2547 303.192C46.2252 303.178 46.1985 303.165 46.1745 303.155C46.1021 303.231 46.0018 303.365 45.8874 303.589C45.6995 303.957 45.5357 304.448 45.4037 305.012C45.1397 306.141 45.0475 307.366 45.0475 308.014H42.5713C42.5713 307.208 42.6786 305.79 42.9926 304.448C43.1496 303.777 43.3695 303.075 43.6822 302.462C43.9842 301.871 44.4458 301.219 45.1615 300.856C46.0884 300.385 46.9993 300.796 47.3621 300.978L48.2081 301.401C48.5567 301.575 48.9669 301.575 49.3155 301.401L50.1614 300.978ZM43.8098 294.395C43.8098 293.969 43.8636 293.556 43.9647 293.162C43.9133 293.159 43.8615 293.157 43.8093 293.157C42.4418 293.157 41.3332 294.265 41.333 295.633L41.3329 296.376V296.376C41.3329 297.566 41.767 298.428 42.2392 298.995C42.4692 299.271 42.7016 299.469 42.8838 299.603C42.9754 299.67 43.0558 299.722 43.1193 299.76C43.151 299.779 43.1787 299.795 43.2017 299.807C43.2131 299.814 43.2234 299.819 43.2325 299.824L43.2451 299.83L43.2507 299.833L43.2533 299.835L43.2545 299.835C43.2551 299.835 43.2558 299.836 43.8094 298.728L43.2558 299.836C43.6043 300.01 44.0146 300.01 44.3632 299.836L43.8094 298.728C44.3632 299.836 44.3638 299.835 44.3644 299.835L44.3657 299.834L44.3683 299.833L44.3739 299.83L44.3865 299.824C44.3955 299.819 44.4058 299.814 44.4173 299.807C44.4402 299.795 44.4679 299.779 44.4997 299.76C44.5631 299.722 44.6435 299.67 44.7351 299.603C44.8582 299.513 45.0042 299.393 45.1569 299.239C45.1105 299.178 45.066 299.116 45.0235 299.055C44.2584 297.949 43.8098 296.524 43.8098 295.015V294.395ZM52.4999 299.055C52.4574 299.117 52.413 299.178 52.3667 299.24C52.5193 299.393 52.6653 299.513 52.7884 299.603C52.88 299.67 52.9604 299.722 53.0238 299.76C53.0556 299.779 53.0833 299.795 53.1062 299.807C53.1177 299.814 53.128 299.819 53.1371 299.824L53.1497 299.83L53.1552 299.833L53.1578 299.835L53.1591 299.835C53.1597 299.836 53.1603 299.836 53.714 298.729L53.1603 299.836C53.5089 300.01 53.9192 300.01 54.2678 299.836L53.714 298.729C54.2678 299.836 54.2684 299.836 54.269 299.835L54.2703 299.835L54.2729 299.833L54.2785 299.83L54.2911 299.824C54.2957 299.822 54.3007 299.819 54.306 299.816C54.311 299.813 54.3163 299.81 54.3219 299.807C54.3448 299.795 54.3725 299.779 54.4043 299.76C54.4677 299.722 54.5481 299.67 54.6397 299.603C54.8219 299.469 55.0543 299.271 55.2842 298.995C55.7563 298.428 56.1902 297.566 56.1902 296.376V295.633C56.1902 294.266 55.0815 293.157 53.7139 293.157C53.6621 293.157 53.6106 293.159 53.5596 293.162C53.6606 293.556 53.7144 293.969 53.7145 294.394L53.7146 295.014V295.015C53.7146 296.525 53.2654 297.95 52.4999 299.055ZM55.7303 304.233C55.8357 304.67 55.9197 305.111 55.9856 305.538H58.0473C58.0473 304.899 57.9643 303.972 57.7059 303.111C57.4735 302.336 56.9711 301.183 55.8297 300.746C55.16 300.49 54.5412 300.675 54.1755 300.833C54.5039 301.224 54.7525 301.637 54.9413 302.009C55.3094 302.734 55.558 303.519 55.7303 304.233ZM42.5819 302.009C42.7707 301.637 43.0194 301.224 43.3479 300.833C42.9821 300.675 42.3633 300.49 41.6937 300.746C40.5523 301.183 40.0499 302.336 39.8175 303.111C39.5591 303.972 39.4761 304.899 39.4761 305.538H41.5377C41.6035 305.111 41.6875 304.67 41.7929 304.233C41.9652 303.519 42.2139 302.734 42.5819 302.009ZM43.8093 295.633L43.8094 295.633V296.376L43.8093 296.401L43.8091 296.376V296.376V296.376L43.8092 295.633L43.8093 295.633ZM53.7139 295.633L53.714 295.633V296.376L53.7139 296.401L53.7137 296.376V296.376V296.376L53.7138 295.633L53.7139 295.633Z" fill="#657077"/>
</g>
<path d="M75.5231 298.154H84.1018V300.021H75.5231V298.154ZM80.9633 299.249C81.5266 301.824 82.6694 304.238 84.3916 305.462C83.9731 305.8 83.3776 306.492 83.1039 306.975C81.1564 305.429 79.9654 302.742 79.2894 299.635L80.9633 299.249ZM76.5049 307.345C76.3922 306.91 76.0542 306.138 75.7806 305.784C76.1186 305.606 76.5854 305.236 76.5854 304.528V292.473H78.4363V305.784C78.4363 305.784 76.5049 306.685 76.5049 307.345ZM71.4832 292.183H73.1571V307.296H71.4832V292.183ZM69.3747 295.145H74.4608V296.851H70.8555V303.981H69.3747V295.145ZM73.7848 295.145H75.1851V302.194C75.1851 302.822 75.1368 303.321 74.7666 303.611C74.4125 303.884 73.994 303.933 73.3985 303.933C73.3824 303.466 73.2215 302.742 73.0122 302.307C73.318 302.323 73.5595 302.323 73.656 302.307C73.7526 302.307 73.7848 302.275 73.7848 302.146V295.145ZM81.8807 292.811L83.6834 293.374C82.7981 295.112 81.3496 296.883 79.9815 297.977C79.7078 297.623 79.0157 296.883 78.6295 296.545C79.901 295.66 81.1564 294.243 81.8807 292.811ZM76.5049 307.345L76.2474 305.639L76.9234 305.027L80.3999 303.788C80.3838 304.335 80.4643 305.156 80.5448 305.59C77.4223 306.83 76.8429 307.087 76.5049 307.345ZM87.0795 294.597H89.1075V298.267C89.1075 300.939 88.7695 304.93 86.8702 307.425C86.5161 307.071 85.647 306.46 85.1641 306.25C86.9185 303.949 87.0795 300.617 87.0795 298.267V294.597ZM91.5056 292.569L93.421 292.086C93.7751 292.795 94.1614 293.712 94.3545 294.324L92.3587 294.903C92.1977 294.275 91.8115 293.294 91.5056 292.569ZM88.351 294.597H98.7002V301.583H96.7205V296.4H88.351V294.597ZM88.3832 298.943H97.7184V300.73H88.3832V298.943Z" fill="#555F65"/>
</g>
<g clip-path="url(#clip9_182_15824)">
<rect width="312" height="44.8095" transform="translate(0 321.753)" fill="#F8F9F9"/>
<g clip-path="url(#clip10_182_15824)">
<path fill-rule="evenodd" clip-rule="evenodd" d="M48.1421 334.253H49.3802C50.4059 334.253 51.2374 335.084 51.2374 336.11V336.729H51.2386H54.9528C56.3208 336.729 57.429 337.838 57.429 339.205H54.9528L54.9528 339.205H51.2386H49.3802H48.1421H46.2862H42.5719V339.205H40.0957C40.0957 337.838 41.204 336.729 42.5719 336.729H46.285V336.11C46.285 335.084 47.1164 334.253 48.1421 334.253ZM42.5719 340.443V350.348C42.5719 352.4 44.2348 354.062 46.2862 354.062H51.2386C53.2899 354.062 54.9528 352.4 54.9528 350.348V340.443H52.4767V350.348C52.4767 351.032 51.9223 351.586 51.2386 351.586H46.2862C45.6024 351.586 45.0481 351.032 45.0481 350.348V340.443H42.5719ZM47.5243 341.681V351.586H50.0005V341.681H47.5243Z" fill="#657077"/>
</g>
<path d="M78.0178 345.877V343.093H75.1851V345.877H78.0178ZM73.3824 341.419H79.9493V347.535H73.3824V341.419ZM71.8373 349.402H81.5105V339.52H71.8373V349.402ZM69.8415 337.556H83.6029V352.042H81.5105V351.189H71.8373V352.042H69.8415V337.556ZM91.1676 343.994V350.319C92.6645 349.676 93.8556 348.823 94.8052 347.744C94.1292 346.553 93.598 345.185 93.1796 343.672C92.8576 344.171 92.5357 344.622 92.1816 345.024C91.9885 344.783 91.5539 344.348 91.1676 343.994ZM97.5092 341.709H94.4994C94.8535 343.27 95.3363 344.734 96.0123 346.006C96.6883 344.783 97.1712 343.366 97.5092 341.709ZM100.39 341.709H99.4728C98.9738 344.107 98.2335 346.119 97.1712 347.776C98.0725 348.903 99.1831 349.788 100.567 350.384C100.133 350.77 99.5372 351.543 99.2475 352.058C97.9116 351.398 96.8171 350.497 95.9157 349.386C94.9178 350.48 93.6785 351.382 92.1816 352.106C92.0368 351.688 91.5217 350.883 91.1676 350.432V352.042H89.3006V347.937C88.0774 348.324 86.8702 348.71 85.8401 349.016L85.1802 347.068C85.486 347.004 85.8079 346.939 86.1781 346.859V338.892H88.013V346.424L89.3006 346.119V337.121H91.1676V343.028C92.3426 341.499 93.1796 339.294 93.6302 337.025L95.5938 337.395C95.4007 338.248 95.1754 339.085 94.9017 339.89H100.39V341.709ZM107.971 340.002V341.789H101.758V340.002H104.044V337.25H105.814V340.002H107.971ZM104.382 347.648L102.74 347.953C102.772 346.505 102.515 344.268 102.161 342.545L103.69 342.24C104.092 343.978 104.366 346.151 104.382 347.648ZM106.764 347.664L107.955 347.406L108.132 349.177C105.959 349.708 103.577 350.239 101.791 350.641L101.42 348.726C102.434 348.549 103.754 348.291 105.171 348.002L105.026 347.97C105.348 346.424 105.653 343.93 105.75 342.095L107.617 342.401C107.392 344.187 107.07 346.199 106.764 347.664ZM113.894 349.499V346.36H110.08V349.499H113.894ZM116.389 341.805H112.767V344.573H115.858V351.977H113.894V351.285H110.08V352.042H108.213V344.573H110.804V337.025H112.767V339.986H116.389V341.805Z" fill="#555F65"/>
</g>
<rect x="312" width="1.2381" height="545" fill="#ECEEF1"/>
<g style="mix-blend-mode:screen">
<rect x="312" y="444" width="312" height="370" transform="rotate(-180 312 444)" fill="url(#paint0_linear_182_15824)"/>
</g>
<g clip-path="url(#clip11_182_15824)" filter="url(#filter0_d_182_15824)">
<rect width="312" height="83.71" transform="translate(312)" fill="#F8F9F9"/>
<path fill-rule="evenodd" clip-rule="evenodd" d="M349.878 55.3459L336.833 49.2293C335.722 48.6953 335.722 47.8701 336.833 47.3847L341.375 45.2487L349.829 49.2293C350.941 49.7633 352.728 49.7633 353.791 49.2293L362.246 45.2487L366.787 47.3847C367.898 47.9186 367.898 48.7439 366.787 49.2293L353.743 55.3459C352.728 55.8313 350.941 55.8313 349.878 55.3459Z" fill="#FF6F3D"/>
<path fill-rule="evenodd" clip-rule="evenodd" d="M349.835 47.7769L336.831 41.6532C335.723 41.1186 335.723 40.2924 336.831 39.8064L341.262 37.7166L349.835 41.7505C350.943 42.2851 352.725 42.2851 353.785 41.7505L362.358 37.7166L366.79 39.8064C367.897 40.341 367.897 41.1672 366.79 41.6532L353.785 47.7769C352.677 48.3115 350.895 48.3115 349.835 47.7769Z" fill="#95C038"/>
<path fill-rule="evenodd" clip-rule="evenodd" d="M349.835 40.2865L336.831 34.251C335.723 33.7241 335.723 32.9097 336.831 32.4307L349.835 26.3952C350.943 25.8683 352.725 25.8683 353.785 26.3952L366.79 32.4307C367.897 32.9576 367.897 33.772 366.79 34.251L353.785 40.2865C352.677 40.7655 350.895 40.7655 349.835 40.2865Z" fill="#5DC0E8"/>
<path d="M382.987 33.2625C379.224 33.2625 375.525 35.4681 375.525 40.855C375.525 46.2419 379.224 48.4475 382.987 48.4475C386.75 48.4475 390.449 46.2419 390.449 40.855C390.449 35.4681 386.75 33.2625 382.987 33.2625ZM382.987 35.3833C384.14 35.3833 387.186 35.8286 387.186 40.855C387.186 45.8813 384.14 46.3267 382.987 46.3267C381.834 46.3267 378.789 45.8813 378.789 40.855C378.789 35.8286 381.834 35.3833 382.987 35.3833Z" fill="#333333"/>
<path d="M392.958 33.4321V48.2779H396.047V39.5401L395.982 36.9103H396.047L396.809 38.5645L402.117 48.2779H406.12V33.4321H403.031V42.1699L403.096 44.7997H403.031L402.226 42.7849L396.961 33.4321H392.958Z" fill="#333333"/>
<path d="M409.168 33.4321V48.2779H418.304V45.7753H412.257V33.4321H409.168Z" fill="#333333"/>
<path d="M415.694 33.4321L421.307 42.2123V48.2779H424.396V42.2547L429.878 33.4321H426.615L423.46 38.6493L422.938 39.6673H422.873L422.394 38.6493L419.262 33.4321H415.694Z" fill="#333333"/>
<path d="M437.075 33.2625C433.311 33.2625 429.613 35.4681 429.613 40.855C429.613 46.2419 433.311 48.4475 437.075 48.4475C440.838 48.4475 444.536 46.2419 444.536 40.855C444.536 35.4681 440.838 33.2625 437.075 33.2625ZM437.075 35.3833C438.228 35.3833 441.273 35.8286 441.273 40.855C441.273 45.8813 438.228 46.3267 437.075 46.3267C435.922 46.3267 432.876 45.8813 432.876 40.855C432.876 35.8286 435.922 35.3833 437.075 35.3833Z" fill="#333333"/>
<path d="M447.046 33.4321V48.2779H450.135V41.979H455.313V39.5401H450.135V35.9347H455.574V33.4321H447.046Z" fill="#333333"/>
<path d="M457.753 33.4321V48.2779H460.842V41.979H466.02V39.5401H460.842V35.9347H466.281V33.4321H457.753Z" fill="#333333"/>
<path d="M468.46 48.2779H471.549V33.4321H468.46V48.2779Z" fill="#333333"/>
<path d="M485.716 45.2875C484.955 45.6268 483.889 45.945 482.54 45.945C479.799 45.945 477.319 44.4816 477.319 40.8974C477.319 37.8646 479.342 35.765 482.758 35.765C483.911 35.765 484.89 35.9771 485.782 36.3164L485.912 33.7714C484.759 33.4109 483.737 33.2625 482.54 33.2625C477.754 33.2625 474.056 35.8286 474.056 40.9398C474.056 46.3479 478.189 48.4475 481.975 48.4475C483.193 48.4475 484.563 48.2567 485.912 47.8113L485.716 45.2875Z" fill="#333333"/>
<path d="M488.302 33.4321V48.2779H497.396V45.6481H491.392V41.8518H496.852V39.4128H491.392V36.0619H497.396V33.4321H488.302Z" fill="#333333"/>
<path d="M504.807 37.2412H509.555V38.3756H504.807V37.2412ZM506.638 33.4329H507.805V48.3257H506.638V33.4329ZM510.041 36.512H516.815V37.695H510.041V36.512ZM516.345 36.512H517.512C517.512 36.512 517.512 36.9657 517.512 37.1278C517.333 44.3716 517.188 46.7862 516.62 47.5155C516.296 47.9692 515.956 48.0989 515.437 48.1637C514.935 48.2123 514.06 48.1961 513.201 48.1475C513.169 47.8072 513.039 47.3048 512.828 46.9807C513.752 47.0455 514.611 47.0617 514.951 47.0617C515.243 47.0617 515.405 47.0131 515.567 46.8024C516.021 46.2839 516.183 43.772 516.345 36.8037V36.512ZM510.3 39.3641L511.386 39.591C511.046 41.2926 510.414 42.9941 509.668 44.1285C509.474 43.9503 509.02 43.6424 508.745 43.4803C509.474 42.4432 509.992 40.9198 510.3 39.3641ZM517.625 39.6234L518.646 39.4127C519.116 40.9036 519.618 42.8483 519.78 43.9827L518.662 44.2582C518.533 43.1076 518.079 41.1305 517.625 39.6234ZM512.942 33.595H514.092V36.4958C514.092 40.0934 513.752 44.8254 509.506 48.3744C509.312 48.0989 508.874 47.7261 508.583 47.5479C512.65 44.2096 512.942 39.8179 512.942 36.4958V33.595Z" fill="#333333"/>
<path d="M528.142 36.1554H535.824V37.3222H527.575L528.142 36.1554ZM530.168 39.672H535.451V40.7902H530.168V39.672ZM530.152 43.2372H535.678V44.3878H530.152V43.2372ZM529.552 36.5282H530.8V48.3419H529.552V36.5282ZM528.758 33.6274L529.941 33.9353C529.018 36.512 527.608 39.0562 526.117 40.7254C525.939 40.5147 525.452 40.0772 525.177 39.8827C526.652 38.3756 527.964 36.0096 528.758 33.6274ZM524.869 33.4977L526.036 33.8705C524.966 36.6092 523.297 39.3803 521.531 41.1953C521.417 40.9036 521.045 40.2554 520.818 39.9637C522.438 38.3918 523.945 35.961 524.869 33.4977ZM523.135 37.6788L524.334 36.4633L524.367 36.4796V48.3257H523.135V37.6788Z" fill="#333333"/>
<path d="M543.894 42.2001H545.174V47.24H543.894V42.2001ZM537.671 35.41H551.462V38.6835H550.214V36.5444H538.887V39.0724H537.671V35.41ZM539.389 41.487H549.809V42.589H539.389V41.487ZM537.704 46.689H551.462V47.8072H537.704V46.689ZM545.596 38.3594L546.341 37.5491C547.962 38.3432 550.182 39.5586 551.333 40.3202L550.538 41.2764C549.436 40.4985 547.233 39.2021 545.596 38.3594ZM542.663 37.5005L543.521 38.2297C542.225 39.3803 540.426 40.6119 538.546 41.4222L537.833 40.3689C539.746 39.672 541.415 38.5701 542.663 37.5005ZM543.311 33.6922L544.591 33.3357C544.98 34.0649 545.466 35.0535 545.693 35.6693L544.364 36.1068C544.153 35.491 543.716 34.4539 543.311 33.6922Z" fill="#333333"/>
<path d="M554.136 37.0954H555.368V48.3582H554.136V37.0954ZM554.363 34.227L555.303 33.6598C556.064 34.3242 556.94 35.2966 557.345 35.961L556.324 36.6254C555.967 35.961 555.108 34.9562 554.363 34.227ZM558.349 34.3566H566.89V35.491H558.349V34.3566ZM566.193 34.3566H567.441V46.8672C567.441 47.5479 567.311 47.872 566.89 48.0665C566.452 48.2609 565.755 48.2771 564.751 48.2771C564.702 47.9692 564.54 47.4669 564.378 47.1427C565.059 47.1752 565.723 47.1589 565.917 47.1589C566.144 47.1589 566.193 47.0779 566.193 46.8672V34.3566ZM558.787 42.2649V44.4526H562.693V42.2649H558.787ZM558.787 39.0886V41.2602H562.693V39.0886H558.787ZM557.685 38.0839H563.843V45.4736H557.685V38.0839Z" fill="#333333"/>
<rect width="312" height="370.433" transform="translate(312 83.71)" fill="#F8F9F9"/>
<g clip-path="url(#clip12_182_15824)">
<rect width="312" height="44.8095" transform="translate(312 83.71)" fill="#F8F9F9"/>
<g clip-path="url(#clip13_182_15824)">
<path fill-rule="evenodd" clip-rule="evenodd" d="M354.571 96.21C353.203 96.21 352.095 97.3187 352.095 98.6862V113.543C352.095 114.911 353.203 116.02 354.571 116.02H366.952C368.319 116.02 369.428 114.911 369.428 113.543V101.3C369.428 100.979 369.304 100.671 369.081 100.441L365.367 96.5887C365.134 96.3467 364.812 96.21 364.476 96.21H354.571ZM354.571 98.6862L363.95 98.6862L366.952 101.8V113.543H354.571V98.6862ZM355.809 103.639H363.238V101.162H355.809V103.639ZM355.809 107.353H365.714V104.877H355.809V107.353ZM355.809 111.067H365.714V108.591H355.809V111.067Z" fill="#657077"/>
</g>
<path d="M391.403 103.392H385.754C386.446 105.131 387.396 106.676 388.635 107.979C389.794 106.724 390.711 105.211 391.403 103.392ZM395.974 103.392H393.657C392.788 105.774 391.613 107.722 390.132 109.331C391.79 110.603 393.818 111.553 396.264 112.1C395.797 112.567 395.186 113.468 394.896 114.015C392.305 113.355 390.212 112.277 388.522 110.844C386.768 112.245 384.692 113.291 382.245 114.063C382.02 113.564 381.424 112.663 381.038 112.196C383.42 111.569 385.432 110.651 387.058 109.412C385.609 107.754 384.499 105.742 383.629 103.392H381.328V101.525H387.637V98.9821H389.585V101.525H395.974V103.392ZM410.058 100.028L411.893 100.495C411.345 101.863 410.702 103.36 410.17 104.326L408.657 103.859C409.173 102.861 409.768 101.235 410.058 100.028ZM405.809 103.585L404.183 104.245C403.942 103.247 403.362 101.686 402.863 100.527L404.408 99.964C404.939 101.123 405.519 102.604 405.809 103.585ZM403.298 107.464L402.219 108.929C402.026 108.414 401.64 107.674 401.254 106.965V113.999H399.451V107.69C399 109.074 398.485 110.361 397.874 111.231C397.697 110.683 397.278 109.927 397.005 109.46C397.906 108.189 398.743 105.967 399.161 104.068H397.391V102.298H399.451V98.9821H401.254V102.298H403.072V104.068H401.254V104.599C401.737 105.195 403.008 107.03 403.298 107.464ZM408.207 99.0465V104.921H411.603V113.806H409.72V113.13H402.606V111.295H409.72V109.83H403.201V108.124H409.72V106.74H402.976V104.921H406.372V99.0465H408.207Z" fill="#555F65"/>
</g>
<g clip-path="url(#clip14_182_15824)">
<rect width="312" height="44.8095" transform="translate(312 128.52)" fill="#F8F9F9"/>
<rect x="336" y="128.52" width="264" height="44.8095" rx="4" fill="#DFE2E3"/>
<g clip-path="url(#clip15_182_15824)">
<path fill-rule="evenodd" clip-rule="evenodd" d="M350.857 145.972C350.857 143.921 352.52 142.258 354.571 142.258H365.714C367.765 142.258 369.428 143.921 369.428 145.972V157.115C369.428 159.166 367.765 160.829 365.714 160.829H354.571C352.52 160.829 350.857 159.166 350.857 157.115V145.972ZM354.571 144.734C353.887 144.734 353.333 145.288 353.333 145.972V157.115C353.333 157.798 353.887 158.353 354.571 158.353H365.714C366.398 158.353 366.952 157.798 366.952 157.115V145.972C366.952 145.288 366.398 144.734 365.714 144.734H354.571ZM355.809 148.448C355.809 147.764 356.364 147.21 357.047 147.21H358.286C358.969 147.21 359.524 147.764 359.524 148.448V149.686C359.524 150.37 358.969 150.924 358.286 150.924H357.047C356.364 150.924 355.809 150.37 355.809 149.686V148.448ZM357.047 152.162C356.364 152.162 355.809 152.717 355.809 153.4V154.639C355.809 155.322 356.364 155.877 357.047 155.877H358.286C358.969 155.877 359.524 155.322 359.524 154.639V153.4C359.524 152.717 358.969 152.162 358.286 152.162H357.047ZM360.762 148.448C360.762 147.764 361.316 147.21 362 147.21H363.238C363.922 147.21 364.476 147.764 364.476 148.448V149.686C364.476 150.37 363.922 150.924 363.238 150.924H362C361.316 150.924 360.762 150.37 360.762 149.686V148.448ZM362 152.162C361.316 152.162 360.762 152.717 360.762 153.4V154.639C360.762 155.322 361.316 155.877 362 155.877H363.238C363.922 155.877 364.476 155.322 364.476 154.639V153.4C364.476 152.717 363.922 152.162 363.238 152.162H362Z" fill="#4781D1"/>
</g>
<path d="M395.443 144.532V146.238H381.875V144.532H395.443ZM388.377 150.713H384.804C384.804 151.035 384.788 151.373 384.772 151.711H388.377V150.713ZM392.578 148.331H384.804V149.328H392.578V148.331ZM395.813 153.207H389.327C389.295 153.513 389.247 153.819 389.182 154.109H394.445C394.445 154.109 394.429 154.559 394.397 154.785C394.22 156.893 394.027 157.891 393.625 158.293C393.27 158.664 392.852 158.776 392.353 158.825C391.902 158.857 391.081 158.873 390.228 158.841C390.196 158.358 390.003 157.698 389.729 157.247C390.454 157.328 391.162 157.344 391.468 157.344C391.725 157.344 391.886 157.312 392.031 157.183C392.208 157.022 392.337 156.555 392.45 155.573H388.732C388.104 157.006 386.929 158.1 384.563 158.825C384.386 158.374 383.903 157.682 383.517 157.328C386.478 156.539 387.154 155.155 387.412 153.207H384.659C384.434 155.139 383.871 157.183 382.599 158.648C382.245 158.31 381.424 157.795 380.958 157.585C382.76 155.573 382.937 152.66 382.937 150.519V146.946H394.445V150.713H390.277V151.711H395.813V153.207ZM397.809 147.638H399.805V158.857H397.809V147.638ZM398.035 144.79L399.548 143.872C400.304 144.564 401.173 145.578 401.559 146.303L399.934 147.333C399.596 146.641 398.759 145.562 398.035 144.79ZM402.123 144.564H410.83V146.351H402.123V144.564ZM409.752 144.564H411.764V156.797C411.764 157.698 411.603 158.133 411.072 158.438C410.525 158.744 409.752 158.76 408.738 158.76C408.674 158.277 408.432 157.505 408.191 157.038C408.706 157.07 409.301 157.054 409.494 157.054C409.704 157.054 409.752 156.974 409.752 156.781V144.564ZM403.153 152.902V154.447H406.275V152.902H403.153ZM403.153 149.827V151.356H406.275V149.827H403.153ZM401.431 148.282H408.078V155.992H401.431V148.282Z" fill="#4781D1"/>
</g>
<g clip-path="url(#clip16_182_15824)">
<rect width="312" height="44.8095" transform="translate(312 173.329)" fill="#F8F9F9"/>
<g clip-path="url(#clip17_182_15824)">
<path fill-rule="evenodd" clip-rule="evenodd" d="M352.095 192.02C351.411 192.02 350.857 191.465 350.857 190.781V188.305C350.857 187.621 351.411 187.067 352.095 187.067H369.428C370.112 187.067 370.666 187.621 370.666 188.305V190.781C370.666 191.465 370.112 192.02 369.428 192.02V203.162C369.428 203.846 368.874 204.4 368.19 204.4H353.333C352.649 204.4 352.095 203.846 352.095 203.162V192.02ZM354.571 193.258V201.924H366.952V193.258H354.571ZM357.047 196.972C357.047 196.288 357.602 195.734 358.286 195.734H363.238C363.922 195.734 364.476 196.288 364.476 196.972C364.476 197.656 363.922 198.21 363.238 198.21H358.286C357.602 198.21 357.047 197.656 357.047 196.972ZM355.19 189.543C354.848 189.543 354.571 189.82 354.571 190.162C354.571 190.504 354.848 190.781 355.19 190.781H366.333C366.675 190.781 366.952 190.504 366.952 190.162C366.952 189.82 366.675 189.543 366.333 189.543H355.19Z" fill="#657077"/>
</g>
<path d="M381.634 190.533H383.533V198.693H381.634V190.533ZM384.804 188.601H386.72V195.007C386.72 198.323 386.382 201.606 383.581 203.843C383.227 203.425 382.503 202.733 382.02 202.443C384.515 200.528 384.804 197.824 384.804 195.007V188.601ZM388.12 194.975H394.478V196.89H388.12V194.975ZM387.267 200.528H394.703V202.443H387.267V200.528ZM387.653 189.76H395.508V203.586H393.512V191.659H387.653V189.76ZM410.058 189.647L411.893 190.114C411.345 191.482 410.702 192.979 410.17 193.945L408.657 193.478C409.173 192.48 409.768 190.855 410.058 189.647ZM405.809 193.204L404.183 193.864C403.942 192.866 403.362 191.305 402.863 190.146L404.408 189.583C404.939 190.742 405.519 192.223 405.809 193.204ZM403.298 197.083L402.219 198.548C402.026 198.033 401.64 197.293 401.254 196.584V203.618H399.451V197.309C399 198.693 398.485 199.981 397.874 200.85C397.697 200.302 397.278 199.546 397.005 199.079C397.906 197.808 398.743 195.587 399.161 193.687H397.391V191.917H399.451V188.601H401.254V191.917H403.072V193.687H401.254V194.218C401.737 194.814 403.008 196.649 403.298 197.083ZM408.207 188.666V194.54H411.603V203.425H409.72V202.749H402.606V200.914H409.72V199.449H403.201V197.743H409.72V196.359H402.976V194.54H406.372V188.666H408.207Z" fill="#555F65"/>
</g>
<rect width="312" height="0.804569" transform="translate(312 218.139)" fill="#F8F9F9"/>
<g clip-path="url(#clip18_182_15824)">
<rect width="312" height="44.8095" transform="translate(312 218.943)" fill="#F8F9F9"/>
<g clip-path="url(#clip19_182_15824)">
<path fill-rule="evenodd" clip-rule="evenodd" d="M360.762 235.157C360.079 235.157 359.524 235.712 359.524 236.395V237.014C359.524 237.807 359.764 238.487 360.078 238.941C360.414 239.426 360.702 239.49 360.762 239.49C360.822 239.49 361.11 239.426 361.447 238.94C361.761 238.487 362 237.807 362 237.015V237.015V237.015L362 236.395C362 235.711 361.446 235.157 360.762 235.157ZM357.048 236.395C357.048 234.344 358.711 232.681 360.762 232.681C362.813 232.681 364.476 234.344 364.477 236.395L364.477 237.014V237.015C364.477 238.285 364.097 239.462 363.482 240.35C362.89 241.206 361.94 241.966 360.762 241.966C359.584 241.966 358.634 241.205 358.042 240.35C357.427 239.462 357.048 238.285 357.048 237.014V236.395ZM362.161 242.978C362.524 242.796 363.435 242.385 364.362 242.856C365.078 243.219 365.539 243.871 365.841 244.462C366.154 245.075 366.374 245.777 366.531 246.448C366.845 247.79 366.952 249.208 366.952 250.014H364.476C364.476 249.366 364.384 248.141 364.12 247.012C363.988 246.448 363.824 245.957 363.636 245.589C363.522 245.365 363.421 245.231 363.349 245.155C363.325 245.165 363.298 245.178 363.269 245.192L362.423 245.615C361.377 246.138 360.146 246.138 359.101 245.615L358.255 245.192C358.225 245.178 358.199 245.165 358.174 245.155C358.102 245.231 358.002 245.365 357.887 245.589C357.699 245.957 357.536 246.448 357.404 247.012C357.14 248.141 357.048 249.366 357.048 250.014H354.571C354.571 249.208 354.679 247.79 354.993 246.448C355.15 245.777 355.37 245.075 355.682 244.462C355.984 243.871 356.446 243.219 357.162 242.856C358.088 242.385 358.999 242.796 359.362 242.978L360.208 243.401C360.557 243.575 360.967 243.575 361.315 243.401L362.161 242.978ZM355.81 236.395C355.81 235.969 355.864 235.556 355.965 235.162C355.913 235.159 355.862 235.157 355.809 235.157C354.442 235.157 353.333 236.265 353.333 237.633L353.333 238.376V238.376C353.333 239.566 353.767 240.428 354.239 240.995C354.469 241.271 354.702 241.469 354.884 241.603C354.975 241.67 355.056 241.722 355.119 241.76C355.151 241.779 355.179 241.795 355.202 241.807C355.213 241.814 355.223 241.819 355.232 241.824L355.245 241.83L355.251 241.833L355.253 241.835L355.255 241.835C355.255 241.835 355.256 241.836 355.809 240.728L355.256 241.836C355.604 242.01 356.015 242.01 356.363 241.836L355.809 240.728C356.363 241.836 356.364 241.835 356.364 241.835L356.366 241.834L356.368 241.833L356.374 241.83L356.386 241.824C356.396 241.819 356.406 241.814 356.417 241.807C356.44 241.795 356.468 241.779 356.5 241.76C356.563 241.722 356.644 241.67 356.735 241.603C356.858 241.513 357.004 241.393 357.157 241.239C357.11 241.178 357.066 241.116 357.023 241.055C356.258 239.949 355.81 238.524 355.81 237.015V236.395ZM364.5 241.055C364.457 241.117 364.413 241.178 364.367 241.24C364.519 241.393 364.665 241.513 364.788 241.603C364.88 241.67 364.96 241.722 365.024 241.76C365.056 241.779 365.083 241.795 365.106 241.807C365.118 241.814 365.128 241.819 365.137 241.824L365.15 241.83L365.155 241.833L365.158 241.835L365.159 241.835C365.16 241.836 365.16 241.836 365.714 240.729L365.16 241.836C365.509 242.01 365.919 242.01 366.268 241.836L365.714 240.729C366.268 241.836 366.268 241.836 366.269 241.835L366.27 241.835L366.273 241.833L366.278 241.83L366.291 241.824C366.296 241.822 366.301 241.819 366.306 241.816C366.311 241.813 366.316 241.81 366.322 241.807C366.345 241.795 366.372 241.779 366.404 241.76C366.468 241.722 366.548 241.67 366.64 241.603C366.822 241.469 367.054 241.271 367.284 240.995C367.756 240.428 368.19 239.566 368.19 238.376V237.633C368.19 236.266 367.082 235.157 365.714 235.157C365.662 235.157 365.611 235.159 365.56 235.162C365.661 235.556 365.714 235.969 365.714 236.394L365.715 237.014V237.015C365.715 238.525 365.265 239.95 364.5 241.055ZM367.73 246.233C367.836 246.67 367.92 247.111 367.986 247.538H370.047C370.047 246.899 369.964 245.972 369.706 245.111C369.474 244.336 368.971 243.183 367.83 242.746C367.16 242.49 366.541 242.675 366.175 242.833C366.504 243.224 366.753 243.637 366.941 244.009C367.309 244.734 367.558 245.519 367.73 246.233ZM354.582 244.009C354.771 243.637 355.019 243.224 355.348 242.833C354.982 242.675 354.363 242.49 353.694 242.746C352.552 243.183 352.05 244.336 351.817 245.111C351.559 245.972 351.476 246.899 351.476 247.538H353.538C353.604 247.111 353.688 246.67 353.793 246.233C353.965 245.519 354.214 244.734 354.582 244.009ZM355.809 237.633L355.809 237.633V238.376L355.809 238.401L355.809 238.376V238.376V238.376L355.809 237.633L355.809 237.633ZM365.714 237.633L365.714 237.633V238.376L365.714 238.401L365.714 238.376V238.376V238.376L365.714 237.633L365.714 237.633Z" fill="#657077"/>
</g>
<path d="M387.523 240.154H396.102V242.021H387.523V240.154ZM392.963 241.249C393.527 243.824 394.669 246.238 396.392 247.462C395.973 247.8 395.378 248.492 395.104 248.975C393.156 247.429 391.965 244.742 391.289 241.635L392.963 241.249ZM388.505 249.345C388.392 248.91 388.054 248.138 387.781 247.784C388.119 247.606 388.585 247.236 388.585 246.528V234.473H390.436V247.784C390.436 247.784 388.505 248.685 388.505 249.345ZM383.483 234.183H385.157V249.296H383.483V234.183ZM381.375 237.145H386.461V238.851H382.855V245.981H381.375V237.145ZM385.785 237.145H387.185V244.194C387.185 244.822 387.137 245.321 386.767 245.611C386.413 245.884 385.994 245.933 385.399 245.933C385.382 245.466 385.221 244.742 385.012 244.307C385.318 244.323 385.559 244.323 385.656 244.307C385.753 244.307 385.785 244.275 385.785 244.146V237.145ZM393.881 234.811L395.683 235.374C394.798 237.112 393.35 238.883 391.981 239.977C391.708 239.623 391.016 238.883 390.629 238.545C391.901 237.66 393.156 236.243 393.881 234.811ZM388.505 249.345L388.247 247.639L388.923 247.027L392.4 245.788C392.384 246.335 392.464 247.156 392.545 247.59C389.422 248.83 388.843 249.087 388.505 249.345ZM399.079 236.597H401.107V240.267C401.107 242.939 400.769 246.93 398.87 249.425C398.516 249.071 397.647 248.46 397.164 248.25C398.919 245.949 399.079 242.617 399.079 240.267V236.597ZM403.506 234.569L405.421 234.086C405.775 234.795 406.161 235.712 406.355 236.324L404.359 236.903C404.198 236.275 403.811 235.294 403.506 234.569ZM400.351 236.597H410.7V243.583H408.721V238.4H400.351V236.597ZM400.383 240.943H409.718V242.73H400.383V240.943Z" fill="#555F65"/>
</g>
<g clip-path="url(#clip20_182_15824)">
<rect width="312" height="44.8095" transform="translate(312 263.753)" fill="#F8F9F9"/>
<g clip-path="url(#clip21_182_15824)">
<path fill-rule="evenodd" clip-rule="evenodd" d="M360.142 276.253H361.38C362.406 276.253 363.237 277.084 363.237 278.11V278.729H363.239H366.953C368.321 278.729 369.429 279.838 369.429 281.205H366.953L366.953 281.205H363.239H361.38H360.142H358.286H354.572V281.205H352.096C352.096 279.838 353.204 278.729 354.572 278.729H358.285V278.11C358.285 277.084 359.116 276.253 360.142 276.253ZM354.572 282.443V292.348C354.572 294.4 356.235 296.062 358.286 296.062H363.239C365.29 296.062 366.953 294.4 366.953 292.348V282.443H364.477V292.348C364.477 293.032 363.922 293.586 363.239 293.586H358.286C357.602 293.586 357.048 293.032 357.048 292.348V282.443H354.572ZM359.524 283.681V293.586H362V283.681H359.524Z" fill="#657077"/>
</g>
<path d="M390.018 287.877V285.093H387.185V287.877H390.018ZM385.382 283.419H391.949V289.535H385.382V283.419ZM383.837 291.402H393.511V281.52H383.837V291.402ZM381.841 279.556H395.603V294.042H393.511V293.189H383.837V294.042H381.841V279.556ZM403.168 285.994V292.319C404.665 291.676 405.856 290.823 406.805 289.744C406.129 288.553 405.598 287.185 405.18 285.672C404.858 286.171 404.536 286.622 404.182 287.024C403.989 286.783 403.554 286.348 403.168 285.994ZM409.509 283.709H406.499C406.853 285.27 407.336 286.734 408.012 288.006C408.688 286.783 409.171 285.366 409.509 283.709ZM412.39 283.709H411.473C410.974 286.107 410.233 288.119 409.171 289.776C410.073 290.903 411.183 291.788 412.567 292.384C412.133 292.77 411.537 293.543 411.247 294.058C409.912 293.398 408.817 292.497 407.916 291.386C406.918 292.48 405.679 293.382 404.182 294.106C404.037 293.688 403.522 292.883 403.168 292.432V294.042H401.301V289.937C400.077 290.324 398.87 290.71 397.84 291.016L397.18 289.068C397.486 289.004 397.808 288.939 398.178 288.859V280.892H400.013V288.424L401.301 288.119V279.121H403.168V285.028C404.343 283.499 405.18 281.294 405.63 279.025L407.594 279.395C407.401 280.248 407.175 281.085 406.902 281.89H412.39V283.709ZM419.971 282.002V283.789H413.758V282.002H416.044V279.25H417.814V282.002H419.971ZM416.382 289.648L414.74 289.953C414.772 288.505 414.515 286.268 414.161 284.545L415.69 284.24C416.092 285.978 416.366 288.151 416.382 289.648ZM418.764 289.664L419.955 289.406L420.132 291.177C417.959 291.708 415.577 292.239 413.791 292.641L413.42 290.726C414.434 290.549 415.754 290.291 417.171 290.002L417.026 289.97C417.348 288.424 417.653 285.93 417.75 284.095L419.617 284.401C419.392 286.187 419.07 288.199 418.764 289.664ZM425.894 291.499V288.36H422.08V291.499H425.894ZM428.389 283.805H424.767V286.573H427.858V293.977H425.894V293.285H422.08V294.042H420.213V286.573H422.804V279.025H424.767V281.986H428.389V283.805Z" fill="#555F65"/>
</g>
</g>
</g>
<defs>
<filter id="filter0_d_182_15824" x="299" y="-10" width="332" height="565" filterUnits="userSpaceOnUse" color-interpolation-filters="sRGB">
<feFlood flood-opacity="0" result="BackgroundImageFix"/>
<feColorMatrix in="SourceAlpha" type="matrix" values="0 0 0 0 0 0 0 0 0 0 0 0 0 0 0 0 0 0 127 0" result="hardAlpha"/>
<feOffset dx="-3"/>
<feGaussianBlur stdDeviation="5"/>
<feComposite in2="hardAlpha" operator="out"/>
<feColorMatrix type="matrix" values="0 0 0 0 0 0 0 0 0 0 0 0 0 0 0 0 0 0 0.15 0"/>
<feBlend mode="normal" in2="BackgroundImageFix" result="effect1_dropShadow_182_15824"/>
<feBlend mode="normal" in="SourceGraphic" in2="effect1_dropShadow_182_15824" result="shape"/>
</filter>
<linearGradient id="paint0_linear_182_15824" x1="475.75" y1="814" x2="475.75" y2="494.83" gradientUnits="userSpaceOnUse">
<stop stop-color="white" stop-opacity="0.2"/>
<stop offset="1" stop-color="#E0E0E0" stop-opacity="0.89"/>
</linearGradient>
<clipPath id="clip0_182_15824">
<rect width="624" height="444" fill="white"/>
</clipPath>
<clipPath id="clip1_182_15824">
<rect width="312" height="44.8095" fill="white" transform="translate(0 141.71)"/>
</clipPath>
<clipPath id="clip2_182_15824">
<rect width="19.8095" height="19.8095" fill="white" transform="translate(38.8569 154.21)"/>
</clipPath>
<clipPath id="clip3_182_15824">
<rect width="312" height="44.8095" fill="white" transform="translate(0 186.52)"/>
</clipPath>
<clipPath id="clip4_182_15824">
<rect width="19.8095" height="19.8095" fill="white" transform="translate(38.8569 199.02)"/>
</clipPath>
<clipPath id="clip5_182_15824">
<rect width="312" height="44.8095" fill="white" transform="translate(0 231.329)"/>
</clipPath>
<clipPath id="clip6_182_15824">
<rect width="19.8095" height="19.8095" fill="white" transform="translate(38.8569 243.829)"/>
</clipPath>
<clipPath id="clip7_182_15824">
<rect width="312" height="44.8095" fill="white" transform="translate(0 276.943)"/>
</clipPath>
<clipPath id="clip8_182_15824">
<rect width="19.8095" height="19.8095" fill="white" transform="translate(38.8569 289.443)"/>
</clipPath>
<clipPath id="clip9_182_15824">
<rect width="312" height="44.8095" fill="white" transform="translate(0 321.753)"/>
</clipPath>
<clipPath id="clip10_182_15824">
<rect width="19.8095" height="19.8095" fill="white" transform="translate(38.8569 334.253)"/>
</clipPath>
<clipPath id="clip11_182_15824">
<rect width="312" height="545" fill="white" transform="translate(312)"/>
</clipPath>
<clipPath id="clip12_182_15824">
<rect width="312" height="44.8095" fill="white" transform="translate(312 83.71)"/>
</clipPath>
<clipPath id="clip13_182_15824">
<rect width="19.8095" height="19.8095" fill="white" transform="translate(350.857 96.21)"/>
</clipPath>
<clipPath id="clip14_182_15824">
<rect width="312" height="44.8095" fill="white" transform="translate(312 128.52)"/>
</clipPath>
<clipPath id="clip15_182_15824">
<rect width="19.8095" height="19.8095" fill="white" transform="translate(350.857 141.02)"/>
</clipPath>
<clipPath id="clip16_182_15824">
<rect width="312" height="44.8095" fill="white" transform="translate(312 173.329)"/>
</clipPath>
<clipPath id="clip17_182_15824">
<rect width="19.8095" height="19.8095" fill="white" transform="translate(350.857 185.829)"/>
</clipPath>
<clipPath id="clip18_182_15824">
<rect width="312" height="44.8095" fill="white" transform="translate(312 218.943)"/>
</clipPath>
<clipPath id="clip19_182_15824">
<rect width="19.8095" height="19.8095" fill="white" transform="translate(350.857 231.443)"/>
</clipPath>
<clipPath id="clip20_182_15824">
<rect width="312" height="44.8095" fill="white" transform="translate(312 263.753)"/>
</clipPath>
<clipPath id="clip21_182_15824">
<rect width="19.8095" height="19.8095" fill="white" transform="translate(350.857 276.253)"/>
</clipPath>
</defs>
</svg>
