<svg width="550" height="318" viewBox="0 0 550 318" fill="none" xmlns="http://www.w3.org/2000/svg">
<g clip-path="url(#clip0_180_14973)">
<rect width="550" height="318" fill="white"/>
<rect width="914" height="69" fill="white"/>
<rect width="36" height="69" transform="translate(20)" fill="white"/>
<path d="M36.632 26.582V28.49H21.458V26.582H36.632ZM28.73 33.494H24.734C24.734 33.854 24.716 34.232 24.698 34.61H28.73V33.494ZM33.428 30.83H24.734V31.946H33.428V30.83ZM37.046 36.284H29.792C29.756 36.626 29.702 36.968 29.63 37.292H35.516C35.516 37.292 35.498 37.796 35.462 38.048C35.264 40.406 35.048 41.522 34.598 41.972C34.202 42.386 33.734 42.512 33.176 42.566C32.672 42.602 31.754 42.62 30.8 42.584C30.764 42.044 30.548 41.306 30.242 40.802C31.052 40.892 31.844 40.91 32.186 40.91C32.474 40.91 32.654 40.874 32.816 40.73C33.014 40.55 33.158 40.028 33.284 38.93H29.126C28.424 40.532 27.11 41.756 24.464 42.566C24.266 42.062 23.726 41.288 23.294 40.892C26.606 40.01 27.362 38.462 27.65 36.284H24.572C24.32 38.444 23.69 40.73 22.268 42.368C21.872 41.99 20.954 41.414 20.432 41.18C22.448 38.93 22.646 35.672 22.646 33.278V29.282H35.516V33.494H30.854V34.61H37.046V36.284ZM39.278 30.056H41.51V42.602H39.278V30.056ZM39.53 26.87L41.222 25.844C42.068 26.618 43.04 27.752 43.472 28.562L41.654 29.714C41.276 28.94 40.34 27.734 39.53 26.87ZM44.102 26.618H53.84V28.616H44.102V26.618ZM52.634 26.618H54.884V40.298C54.884 41.306 54.704 41.792 54.11 42.134C53.498 42.476 52.634 42.494 51.5 42.494C51.428 41.954 51.158 41.09 50.888 40.568C51.464 40.604 52.13 40.586 52.346 40.586C52.58 40.586 52.634 40.496 52.634 40.28V26.618ZM45.254 35.942V37.67H48.746V35.942H45.254ZM45.254 32.504V34.214H48.746V32.504H45.254ZM43.328 30.776H50.762V39.398H43.328V30.776Z" fill="#333333"/>
<rect width="786" height="69" transform="translate(56)" fill="white"/>
<path fill-rule="evenodd" clip-rule="evenodd" d="M80.5 27C79.6716 27 79 27.6716 79 28.5V33H74.5C73.6716 33 73 33.6716 73 34.5C73 35.3284 73.6716 36 74.5 36H79V40.5C79 41.3284 79.6716 42 80.5 42C81.3284 42 82 41.3284 82 40.5V36H86.5C87.3284 36 88 35.3284 88 34.5C88 33.6716 87.3284 33 86.5 33H82V28.5C82 27.6716 81.3284 27 80.5 27Z" fill="#A3A9AE"/>
<rect width="914" height="32" transform="translate(0 69)" fill="white"/>
<g clip-path="url(#clip1_180_14973)">
<rect x="20" y="69" width="754" height="32" rx="3" fill="white"/>
<path d="M32.758 84.527L32.953 85.931C32.485 86.061 32.017 86.191 31.549 86.321V89.506C31.549 90.247 31.419 90.624 31.003 90.845C30.561 91.092 29.95 91.131 29.04 91.131C29.001 90.728 28.793 90.13 28.624 89.727C29.118 89.753 29.651 89.753 29.82 89.753C30.002 89.753 30.054 89.688 30.054 89.506V86.724L28.689 87.088L28.299 85.606C28.793 85.502 29.404 85.372 30.054 85.216V82.863H28.507V81.433H30.054V79.002H31.549V81.433H32.797V82.863H31.549V84.839L32.758 84.527ZM38.075 87.335H35.02C35.41 87.803 35.917 88.219 36.541 88.557C37.139 88.219 37.659 87.816 38.075 87.335ZM34.5 83.929H35.904V80.51C35.462 80.757 34.968 80.965 34.5 81.147V81.979H35.501V83.071H34.5V83.929ZM39.271 86.009L40.22 86.451C39.726 87.621 38.959 88.518 37.997 89.207C38.816 89.493 39.739 89.701 40.727 89.831C40.389 90.156 39.986 90.767 39.778 91.17C38.517 90.949 37.399 90.598 36.424 90.104C35.319 90.598 34.058 90.923 32.706 91.131C32.576 90.741 32.29 90.169 32.043 89.844C33.109 89.727 34.11 89.519 35.02 89.22C34.448 88.778 33.954 88.258 33.538 87.673L34.435 87.335H32.927V86.074H35.904V85.138H33.161V79.977L33.837 80.185C34.318 79.938 34.812 79.626 35.124 79.353L35.904 80.094V79.002H37.282V83.929H38.777V83.071H37.672V81.979H38.777V81.16H37.659V79.951H40.155V85.138H37.282V86.074H39.011L39.271 86.009ZM44.471 88.193L45.94 88.752C45.095 89.636 43.782 90.52 42.69 91.04C42.417 90.741 41.845 90.208 41.507 89.948C42.599 89.545 43.795 88.882 44.471 88.193ZM51.582 87.946L48.228 88.05V91.131H46.694V88.102C44.887 88.154 43.223 88.193 41.897 88.219L41.819 86.841C42.638 86.841 43.639 86.841 44.744 86.828C44.939 86.724 45.134 86.607 45.329 86.49C44.705 86.022 43.847 85.489 43.132 85.125L44.159 84.241C44.328 84.332 44.523 84.423 44.705 84.527C45.121 84.189 45.563 83.786 45.927 83.409H43.327V84.813H41.858V82.122H46.681V81.329H41.975V80.003H46.681V78.989H48.202V80.003H52.999V81.329H48.202V82.122H53.168V84.813H51.634V83.409H47.331L47.734 83.604C47.11 84.163 46.408 84.722 45.797 85.164C46.083 85.346 46.356 85.528 46.59 85.697C47.552 85.06 48.462 84.371 49.138 83.773L50.516 84.514C49.489 85.294 48.254 86.113 47.071 86.815C48.059 86.802 49.086 86.789 50.126 86.776C49.814 86.542 49.502 86.334 49.203 86.139L50.217 85.359C51.231 85.996 52.609 86.958 53.298 87.647L52.206 88.531C52.037 88.362 51.829 88.154 51.582 87.946ZM48.982 88.934L50.152 88.154C51.166 88.687 52.583 89.532 53.324 90.13L52.05 91.001C51.413 90.416 50.035 89.519 48.982 88.934Z" fill="#A3A9AE"/>
</g>
<rect x="20.5" y="69.5" width="753" height="31" rx="2.5" stroke="#D0D5DA"/>
<g clip-path="url(#clip2_180_14973)">
<rect x="20" y="125" width="252" height="121" rx="12" fill="white"/>
<rect x="36" y="141" width="32" height="32" rx="6" fill="#FF6680"/>
<path d="M52.504 158.752H51.412C51.258 159.536 51.02 160.194 50.67 160.74C51.104 160.992 51.51 161.244 51.832 161.482C52.868 160.936 53.68 160.236 54.296 159.368C53.904 158.542 53.596 157.618 53.344 156.61C53.148 156.974 52.924 157.31 52.7 157.618C52.644 157.562 52.588 157.492 52.504 157.408V158.752ZM48.486 158.752L48.08 159.494C48.5 159.662 48.906 159.83 49.312 160.026C49.536 159.676 49.718 159.256 49.844 158.752H48.486ZM56.018 154.202H54.408C54.604 155.378 54.884 156.484 55.262 157.492C55.612 156.54 55.864 155.434 56.018 154.202ZM58.524 154.202H57.74C57.446 156.274 56.97 158.01 56.214 159.424C56.858 160.418 57.67 161.216 58.692 161.748C58.314 162.084 57.796 162.728 57.544 163.19C56.592 162.616 55.822 161.874 55.192 160.964C54.422 161.888 53.456 162.644 52.238 163.26C52.14 163.022 51.93 162.644 51.706 162.308L51.076 162.952C50.698 162.63 50.194 162.266 49.62 161.902C48.794 162.518 47.674 162.924 46.176 163.232C46.078 162.756 45.784 162.196 45.518 161.86C46.652 161.706 47.52 161.482 48.178 161.104C47.926 160.964 47.66 160.838 47.394 160.726L47.24 160.992L45.784 160.544C46.092 160.054 46.442 159.424 46.792 158.752H45.462V157.408H47.492C47.66 157.058 47.828 156.722 47.968 156.414L48.276 156.484V155.14C47.632 155.784 46.876 156.372 46.176 156.764C45.994 156.4 45.644 155.854 45.336 155.56C46.19 155.21 47.128 154.538 47.8 153.81H45.616V152.494H46.68C46.554 152.018 46.246 151.374 45.952 150.87L47.156 150.366C47.52 150.898 47.884 151.612 47.996 152.102L47.1 152.494H48.276V150.142H49.802V152.494H50.908L49.984 152.088C50.306 151.584 50.698 150.842 50.922 150.31L52.322 150.87C51.888 151.472 51.454 152.06 51.118 152.494H52.448V153.81H50.152C50.824 154.188 51.818 154.776 52.126 154.986L51.244 156.134C50.936 155.84 50.348 155.35 49.802 154.916V156.61H48.906L49.508 156.736L49.172 157.408H52.504C52.182 157.086 51.678 156.652 51.37 156.442C52.56 155.014 53.232 152.634 53.568 150.142L55.248 150.366C55.136 151.15 54.982 151.92 54.8 152.662H58.524V154.202Z" fill="white"/>
<path d="M88.576 159.288H87.328C87.152 160.184 86.88 160.936 86.48 161.56C86.976 161.848 87.44 162.136 87.808 162.408C88.992 161.784 89.92 160.984 90.624 159.992C90.176 159.048 89.824 157.992 89.536 156.84C89.312 157.256 89.056 157.64 88.8 157.992C88.736 157.928 88.672 157.848 88.576 157.752V159.288ZM83.984 159.288L83.52 160.136C84 160.328 84.464 160.52 84.928 160.744C85.184 160.344 85.392 159.864 85.536 159.288H83.984ZM92.592 154.088H90.752C90.976 155.432 91.296 156.696 91.728 157.848C92.128 156.76 92.416 155.496 92.592 154.088ZM95.456 154.088H94.56C94.224 156.456 93.68 158.44 92.816 160.056C93.552 161.192 94.48 162.104 95.648 162.712C95.216 163.096 94.624 163.832 94.336 164.36C93.248 163.704 92.368 162.856 91.648 161.816C90.768 162.872 89.664 163.736 88.272 164.44C88.16 164.168 87.92 163.736 87.664 163.352L86.944 164.088C86.512 163.72 85.936 163.304 85.28 162.888C84.336 163.592 83.056 164.056 81.344 164.408C81.232 163.864 80.896 163.224 80.592 162.84C81.888 162.664 82.88 162.408 83.632 161.976C83.344 161.816 83.04 161.672 82.736 161.544L82.56 161.848L80.896 161.336C81.248 160.776 81.648 160.056 82.048 159.288H80.528V157.752H82.848C83.04 157.352 83.232 156.968 83.392 156.616L83.744 156.696V155.16C83.008 155.896 82.144 156.568 81.344 157.016C81.136 156.6 80.736 155.976 80.384 155.64C81.36 155.24 82.432 154.472 83.2 153.64H80.704V152.136H81.92C81.776 151.592 81.424 150.856 81.088 150.28L82.464 149.704C82.88 150.312 83.296 151.128 83.424 151.688L82.4 152.136H83.744V149.448H85.488V152.136H86.752L85.696 151.672C86.064 151.096 86.512 150.248 86.768 149.64L88.368 150.28C87.872 150.968 87.376 151.64 86.992 152.136H88.512V153.64H85.888C86.656 154.072 87.792 154.744 88.144 154.984L87.136 156.296C86.784 155.96 86.112 155.4 85.488 154.904V156.84H84.464L85.152 156.984L84.768 157.752H88.576C88.208 157.384 87.632 156.888 87.28 156.648C88.64 155.016 89.408 152.296 89.792 149.448L91.712 149.704C91.584 150.6 91.408 151.48 91.2 152.328H95.456V154.088ZM101.456 156.216L101.68 157.928C101.152 158.088 100.592 158.264 100.048 158.424V162.184C100.048 163.064 99.904 163.528 99.424 163.816C98.944 164.136 98.24 164.2 97.216 164.184C97.168 163.72 96.96 162.936 96.736 162.44C97.312 162.456 97.856 162.456 98.048 162.44C98.24 162.44 98.32 162.376 98.32 162.168V158.936L96.816 159.368L96.384 157.528C96.944 157.4 97.584 157.24 98.32 157.048V154.232H96.64V152.472H98.32V149.448H100.048V152.472H101.648V154.232H100.048V156.6L101.456 156.216ZM103.952 156.12H106.32V154.712H103.968V154.968C103.968 155.336 103.968 155.704 103.952 156.12ZM109.104 151.704H103.968V153.08H109.104V151.704ZM109.264 162.424V160.824H105.392V162.424H109.264ZM111.344 157.72H108.096V159.256H110.976V164.376H109.264V163.928H105.392V164.392H103.76V159.256H106.32V157.72H103.856C103.68 160.056 103.168 162.632 101.952 164.44C101.616 164.104 100.816 163.528 100.416 163.32C101.984 160.968 102.112 157.464 102.112 154.968V150.088H110.896V154.712H108.096V156.12H111.344V157.72ZM121.04 161.368H127.312V163.288H112.768V161.368H118.864V153.096H113.632V151.112H126.416V153.096H121.04V161.368ZM132.032 149.512L133.888 150.088C133.472 151.208 132.944 152.344 132.352 153.416V164.376H130.432V156.376C130.096 156.776 129.76 157.176 129.44 157.528C129.264 157.064 128.72 155.976 128.384 155.496C129.84 154.056 131.232 151.784 132.032 149.512ZM143.504 153.864H138.96V155.544H143.104V157.272H138.96V159.08H143.312V160.84H138.96V164.392H137.008V153.864H136.4C135.76 155.048 135.024 156.136 134.304 156.968C134 156.616 133.248 155.944 132.848 155.64C134.256 154.2 135.52 151.896 136.24 149.608L138.08 150.072C137.856 150.744 137.6 151.4 137.296 152.056H143.504V153.864Z" fill="#333333"/>
<rect x="184" y="149" width="16" height="16" rx="8" fill="#4781D1"/>
<path d="M189.741 157.271C189.741 156.902 189.768 156.537 189.82 156.177C189.876 155.813 189.971 155.472 190.106 155.153C190.241 154.831 190.43 154.546 190.673 154.3C190.916 154.051 191.225 153.856 191.6 153.716C191.975 153.572 192.429 153.5 192.962 153.5C193.088 153.5 193.235 153.506 193.402 153.518C193.572 153.527 193.712 153.543 193.824 153.566V154.652C193.707 154.625 193.581 154.605 193.446 154.59C193.314 154.573 193.182 154.564 193.05 154.564C192.517 154.564 192.104 154.649 191.811 154.819C191.521 154.989 191.316 155.225 191.196 155.526C191.079 155.825 191.01 156.174 190.989 156.572H191.046C191.128 156.429 191.231 156.301 191.354 156.19C191.48 156.079 191.632 155.991 191.811 155.926C191.99 155.859 192.199 155.825 192.439 155.825C192.814 155.825 193.14 155.906 193.415 156.067C193.69 156.225 193.903 156.455 194.052 156.757C194.202 157.059 194.276 157.426 194.276 157.86C194.276 158.323 194.187 158.721 194.008 159.055C193.83 159.389 193.576 159.646 193.248 159.824C192.923 160 192.536 160.088 192.088 160.088C191.76 160.088 191.454 160.032 191.169 159.921C190.885 159.807 190.636 159.634 190.422 159.402C190.208 159.171 190.042 158.879 189.921 158.528C189.801 158.173 189.741 157.754 189.741 157.271ZM192.062 159.002C192.328 159.002 192.545 158.912 192.712 158.73C192.879 158.548 192.962 158.264 192.962 157.877C192.962 157.564 192.889 157.318 192.743 157.139C192.599 156.958 192.381 156.867 192.088 156.867C191.889 156.867 191.713 156.912 191.561 157.003C191.411 157.091 191.295 157.204 191.213 157.341C191.131 157.476 191.09 157.615 191.09 157.759C191.09 157.908 191.111 158.056 191.152 158.203C191.193 158.349 191.254 158.482 191.336 158.603C191.418 158.723 191.52 158.819 191.64 158.893C191.763 158.966 191.903 159.002 192.062 159.002Z" fill="white"/>
<g clip-path="url(#clip3_180_14973)">
<path fill-rule="evenodd" clip-rule="evenodd" d="M223.577 149L216.418 149C216.159 149 215.949 149.21 215.949 149.468L215.949 149.499C215.949 149.937 216.12 150.35 216.431 150.661C216.631 150.861 216.873 151.002 217.138 151.077L216.607 156.276C216.064 156.306 215.558 156.532 215.17 156.919C214.753 157.337 214.523 157.892 214.523 158.483L214.523 158.527C214.523 158.786 214.733 158.996 214.991 158.996L218.998 158.996L218.998 162.51C218.999 162.595 219.168 164.026 219.19 164.219C219.211 164.412 219.362 164.549 219.362 164.563C219.378 164.808 219.753 164.999 220 165C220.129 165 220.415 164.948 220.5 164.863C220.578 164.785 220.629 164.68 220.636 164.563C220.637 164.552 220.793 164.37 220.809 164.219C220.826 164.068 221 162.595 221.001 162.504V158.996L225.003 158.996C225.133 158.996 225.25 158.943 225.334 158.859C225.419 158.774 225.472 158.657 225.471 158.528V158.483C225.471 157.892 225.241 157.337 224.824 156.92C224.436 156.532 223.93 156.306 223.388 156.276L222.857 151.078C223.121 151.002 223.364 150.861 223.564 150.661C223.874 150.35 224.045 149.938 224.045 149.499L224.045 149.468C224.045 149.21 223.835 149 223.577 149Z" fill="#3B72A7"/>
</g>
<path fill-rule="evenodd" clip-rule="evenodd" d="M246 151C246 149.895 246.895 149 248 149C249.105 149 250 149.895 250 151C250 152.105 249.105 153 248 153C246.895 153 246 152.105 246 151ZM246 157C246 155.895 246.895 155 248 155C249.105 155 250 155.895 250 157C250 158.105 249.105 159 248 159C246.895 159 246 158.105 246 157ZM248 161C246.895 161 246 161.895 246 163C246 164.105 246.895 165 248 165C249.105 165 250 164.105 250 163C250 161.895 249.105 161 248 161Z" fill="#A3A9AE"/>
<rect x="20" y="189" width="252" height="1" fill="#D0D5DA"/>
<g filter="url(#filter0_b_180_14973)">
<rect x="36" y="206" width="50" height="24" rx="6" fill="#ECEEF1"/>
<path d="M53.694 212.379L54.539 212.73C54.162 213.328 53.72 213.978 53.382 214.407L52.732 214.095C53.044 213.64 53.486 212.886 53.694 212.379ZM50.691 214.095L49.924 214.433C49.807 213.978 49.469 213.263 49.118 212.73L49.846 212.431C50.21 212.951 50.561 213.64 50.691 214.095ZM56.385 215.408L56.372 215.447C56.619 216.942 56.983 218.346 57.503 219.555C58.062 218.398 58.413 217.02 58.647 215.408H56.385ZM52.836 219.815H51.016C50.834 220.179 50.639 220.53 50.47 220.868C50.99 221.076 51.51 221.31 52.017 221.557C52.407 221.089 52.667 220.517 52.836 219.815ZM60.428 215.408H59.648C59.323 217.514 58.829 219.23 58.036 220.621C58.686 221.739 59.505 222.623 60.545 223.169C60.324 223.351 60.012 223.728 59.882 223.988C58.881 223.403 58.088 222.571 57.451 221.531C56.684 222.545 55.709 223.377 54.435 224.027C54.357 223.858 54.188 223.572 54.019 223.351L53.72 223.663C53.317 223.338 52.797 222.987 52.199 222.636C51.445 223.26 50.418 223.689 49.027 223.988C48.962 223.728 48.767 223.377 48.585 223.195C49.781 222.987 50.691 222.662 51.354 222.181C50.938 221.973 50.509 221.765 50.08 221.583L49.872 221.947L49.04 221.648C49.326 221.154 49.677 220.491 50.028 219.815H48.559V219.009H50.431C50.626 218.619 50.808 218.242 50.964 217.891L51.302 217.969V216.175C50.652 216.942 49.82 217.657 49.027 218.086C48.91 217.865 48.676 217.527 48.494 217.358C49.417 216.942 50.405 216.136 51.042 215.291H48.637V214.498H51.302V212.119H52.199V214.498H54.838V215.291H52.199V215.356C52.758 215.681 54.162 216.565 54.513 216.825L53.98 217.514C53.642 217.202 52.823 216.578 52.199 216.11V218.047H51.64L51.861 218.099C51.718 218.385 51.575 218.697 51.419 219.009H54.89V219.815H53.759C53.577 220.686 53.278 221.401 52.836 221.986C53.408 222.298 53.928 222.636 54.331 222.935C55.436 222.324 56.294 221.544 56.931 220.569C56.437 219.516 56.06 218.307 55.761 216.981C55.488 217.592 55.163 218.138 54.812 218.606C54.669 218.424 54.253 218.099 54.032 217.943C55.124 216.578 55.8 214.407 56.151 212.119L57.139 212.262C57.009 213.029 56.84 213.783 56.658 214.498H60.428V215.408ZM65.589 218.658L64.107 219.139V222.792C64.107 223.325 63.99 223.572 63.665 223.728C63.366 223.884 62.872 223.923 62.053 223.91C62.014 223.676 61.897 223.286 61.767 223.013C62.326 223.026 62.846 223.026 62.989 223.026C63.145 223.026 63.21 222.974 63.21 222.779V219.438C62.664 219.62 62.144 219.776 61.676 219.919L61.442 218.996C61.923 218.853 62.534 218.671 63.21 218.476V215.629H61.598V214.732H63.21V212.132H64.107V214.732H65.576V215.629H64.107V218.203L65.459 217.774L65.589 218.658ZM67.071 217.462H69.593V216.032H67.084V216.591C67.084 216.877 67.084 217.15 67.071 217.462ZM72.037 213.536H67.084V215.187H72.037V213.536ZM72.128 222.675V220.712H68.137V222.675H72.128ZM73.402 218.294H70.516V219.893H73.012V223.962H72.128V223.481H68.137V224.014H67.292V219.893H69.593V218.294H67.032C66.915 220.218 66.564 222.402 65.472 224.001C65.316 223.819 64.913 223.546 64.692 223.455C66.031 221.466 66.148 218.645 66.148 216.591V212.691H72.96V216.032H70.516V217.462H73.402V218.294Z" fill="#333333"/>
</g>
<g filter="url(#filter1_b_180_14973)">
<rect x="90" y="206" width="50" height="24" rx="6" fill="#ECEEF1"/>
<path d="M103.079 212.652H113.895V224.053H112.855V213.562H104.08V224.053H103.079V212.652ZM103.638 222.61H113.505V223.507H103.638V222.61ZM104.938 215.759H112.114V216.63H104.938V215.759ZM109.15 214.108H110.086V220.79C110.086 221.284 109.995 221.544 109.631 221.687C109.293 221.843 108.773 221.856 107.941 221.856C107.889 221.609 107.746 221.219 107.616 220.972C108.214 220.998 108.76 220.998 108.929 220.985C109.098 220.985 109.15 220.933 109.15 220.79V214.108ZM109.189 216.084L110.008 216.63C108.877 218.333 107.044 219.854 105.367 220.803C105.25 220.621 104.964 220.322 104.743 220.153C106.381 219.243 108.175 217.735 109.189 216.084ZM116.3 212.626H119.745V213.51H117.223V224.027H116.3V212.626ZM119.524 212.626H119.706L119.849 212.587L120.538 213.003C120.135 214.056 119.628 215.317 119.16 216.331C120.174 217.41 120.408 218.359 120.408 219.165C120.408 219.88 120.239 220.439 119.849 220.712C119.667 220.842 119.407 220.92 119.147 220.959C118.861 220.985 118.523 220.998 118.211 220.972C118.198 220.725 118.107 220.322 117.938 220.062C118.25 220.088 118.523 220.101 118.744 220.075C118.913 220.075 119.056 220.036 119.173 219.958C119.394 219.815 119.472 219.464 119.472 219.074C119.472 218.372 119.199 217.475 118.185 216.448C118.692 215.291 119.225 213.796 119.524 212.899V212.626ZM123.06 212.093H124.061C124.035 216.799 124.009 221.622 120.187 224.066C120.031 223.832 119.706 223.533 119.446 223.351C123.125 221.102 123.047 216.552 123.06 212.093ZM123.944 216.058C124.139 217.241 124.711 221.453 127.649 223.312C127.376 223.507 127.077 223.793 126.921 224.04C123.892 222.038 123.32 217.475 123.06 216.136L123.944 216.058Z" fill="#333333"/>
</g>
</g>
<rect x="20.5" y="125.5" width="251" height="120" rx="11.5" stroke="#D0D5DA"/>
<g clip-path="url(#clip4_180_14973)">
<rect x="288" y="125" width="252" height="121" rx="12" fill="white"/>
<rect x="304" y="141" width="32" height="32" rx="6" fill="#B679F2"/>
<path d="M324.76 156.918L326.146 157.954C325.264 158.584 324.228 159.228 323.36 159.69C324.186 160.614 325.278 161.3 326.664 161.692C326.3 162.042 325.824 162.714 325.586 163.176C322.632 162.168 321.092 160.04 320.168 156.932C319.636 157.436 319.006 157.912 318.334 158.346V160.95C319.328 160.74 320.378 160.516 321.386 160.292L321.54 161.804C319.342 162.322 316.99 162.812 315.254 163.19L314.764 161.65C315.31 161.552 315.968 161.426 316.668 161.286V159.284C315.898 159.662 315.114 159.97 314.344 160.208C314.106 159.83 313.63 159.2 313.28 158.864C314.946 158.43 316.738 157.632 318.054 156.722H313.798V155.308H319.132V154.524H314.974V153.194H319.132V152.48H314.316V151.066H319.132V150.142H320.798V151.066H325.726V152.48H320.798V153.194H325.18V154.524H320.798V155.308H326.174V156.722H321.722C321.946 157.408 322.212 158.024 322.562 158.598C323.346 158.08 324.186 157.45 324.76 156.918Z" fill="white"/>
<path d="M361.44 157.192L363.024 158.376C362.016 159.096 360.832 159.832 359.84 160.36C360.784 161.416 362.032 162.2 363.616 162.648C363.2 163.048 362.656 163.816 362.384 164.344C359.008 163.192 357.248 160.76 356.192 157.208C355.584 157.784 354.864 158.328 354.096 158.824V161.8C355.232 161.56 356.432 161.304 357.584 161.048L357.76 162.776C355.248 163.368 352.56 163.928 350.576 164.36L350.016 162.6C350.64 162.488 351.392 162.344 352.192 162.184V159.896C351.312 160.328 350.416 160.68 349.536 160.952C349.264 160.52 348.72 159.8 348.32 159.416C350.224 158.92 352.272 158.008 353.776 156.968H348.912V155.352H355.008V154.456H350.256V152.936H355.008V152.12H349.504V150.504H355.008V149.448H356.912V150.504H362.544V152.12H356.912V152.936H361.92V154.456H356.912V155.352H363.056V156.968H357.968C358.224 157.752 358.528 158.456 358.928 159.112C359.824 158.52 360.784 157.8 361.44 157.192ZM370.96 153.064H372.944V164.392H370.96V153.064ZM368.048 156.264V157.352H376V156.264H368.048ZM368.048 153.72V154.808H376V153.72H368.048ZM366.176 152.152H377.968V158.936H366.176V152.152ZM364.752 159.992H379.264V161.768H364.752V159.992ZM367.44 150.232L369.104 149.48C369.712 150.168 370.448 151.144 370.768 151.816L369.008 152.632C368.736 151.992 368.048 150.968 367.44 150.232ZM374.912 149.528L377.04 150.152C376.368 151.224 375.6 152.312 375.024 153.016L373.328 152.424C373.888 151.64 374.56 150.44 374.912 149.528Z" fill="#333333"/>
<rect x="480" y="149" width="16" height="16" rx="8" fill="#4781D1"/>
<path d="M490.276 160H485.785V159.055L487.398 157.425C487.723 157.091 487.984 156.812 488.18 156.59C488.379 156.364 488.523 156.159 488.611 155.975C488.702 155.79 488.747 155.592 488.747 155.381C488.747 155.126 488.675 154.936 488.532 154.81C488.391 154.681 488.202 154.617 487.965 154.617C487.716 154.617 487.474 154.674 487.24 154.788C487.005 154.902 486.761 155.065 486.506 155.276L485.768 154.401C485.952 154.243 486.147 154.094 486.352 153.953C486.56 153.812 486.8 153.7 487.073 153.615C487.348 153.527 487.678 153.483 488.062 153.483C488.483 153.483 488.845 153.559 489.147 153.711C489.452 153.864 489.686 154.072 489.85 154.335C490.014 154.596 490.096 154.892 490.096 155.223C490.096 155.578 490.026 155.901 489.885 156.194C489.745 156.487 489.54 156.777 489.27 157.064C489.003 157.352 488.681 157.669 488.303 158.018L487.477 158.796V158.857H490.276V160Z" fill="white"/>
<path fill-rule="evenodd" clip-rule="evenodd" d="M514 151C514 149.895 514.895 149 516 149C517.105 149 518 149.895 518 151C518 152.105 517.105 153 516 153C514.895 153 514 152.105 514 151ZM514 157C514 155.895 514.895 155 516 155C517.105 155 518 155.895 518 157C518 158.105 517.105 159 516 159C514.895 159 514 158.105 514 157ZM516 161C514.895 161 514 161.895 514 163C514 164.105 514.895 165 516 165C517.105 165 518 164.105 518 163C518 161.895 517.105 161 516 161Z" fill="#A3A9AE"/>
<rect x="288" y="189" width="252" height="1" fill="#D0D5DA"/>
<g filter="url(#filter2_b_180_14973)">
<rect x="304" y="206" width="40" height="24" rx="6" fill="#ECEEF1"/>
<path fill-rule="evenodd" clip-rule="evenodd" d="M320 211L316 213.625L320 216.249L316 218.874L320 221.499L324 218.874L328 221.499L332 218.874L328 216.249L332 213.625L328 211L324 213.625L320 211ZM324 213.625L328 216.249L324 218.874L320 216.249L324 213.625Z" fill="#0062FF"/>
<path d="M324 219.751L320 222.375L324 225L328 222.375L324 219.751Z" fill="#0062FF"/>
</g>
<g filter="url(#filter3_b_180_14973)">
<rect x="348" y="206" width="50" height="24" rx="6" fill="#F3F4F4"/>
<path d="M361.079 212.652H371.895V224.053H370.855V213.562H362.08V224.053H361.079V212.652ZM361.638 222.61H371.505V223.507H361.638V222.61ZM362.938 215.759H370.114V216.63H362.938V215.759ZM367.15 214.108H368.086V220.79C368.086 221.284 367.995 221.544 367.631 221.687C367.293 221.843 366.773 221.856 365.941 221.856C365.889 221.609 365.746 221.219 365.616 220.972C366.214 220.998 366.76 220.998 366.929 220.985C367.098 220.985 367.15 220.933 367.15 220.79V214.108ZM367.189 216.084L368.008 216.63C366.877 218.333 365.044 219.854 363.367 220.803C363.25 220.621 362.964 220.322 362.743 220.153C364.381 219.243 366.175 217.735 367.189 216.084ZM374.3 212.626H377.745V213.51H375.223V224.027H374.3V212.626ZM377.524 212.626H377.706L377.849 212.587L378.538 213.003C378.135 214.056 377.628 215.317 377.16 216.331C378.174 217.41 378.408 218.359 378.408 219.165C378.408 219.88 378.239 220.439 377.849 220.712C377.667 220.842 377.407 220.92 377.147 220.959C376.861 220.985 376.523 220.998 376.211 220.972C376.198 220.725 376.107 220.322 375.938 220.062C376.25 220.088 376.523 220.101 376.744 220.075C376.913 220.075 377.056 220.036 377.173 219.958C377.394 219.815 377.472 219.464 377.472 219.074C377.472 218.372 377.199 217.475 376.185 216.448C376.692 215.291 377.225 213.796 377.524 212.899V212.626ZM381.06 212.093H382.061C382.035 216.799 382.009 221.622 378.187 224.066C378.031 223.832 377.706 223.533 377.446 223.351C381.125 221.102 381.047 216.552 381.06 212.093ZM381.944 216.058C382.139 217.241 382.711 221.453 385.649 223.312C385.376 223.507 385.077 223.793 384.921 224.04C381.892 222.038 381.32 217.475 381.06 216.136L381.944 216.058Z" fill="#333333"/>
</g>
</g>
<rect x="288.5" y="125.5" width="251" height="120" rx="11.5" stroke="#D0D5DA"/>
<g clip-path="url(#clip5_180_14973)">
<rect x="20" y="262" width="252" height="121" rx="12" fill="white"/>
<rect x="36" y="278" width="32" height="32" rx="6" fill="#6191F2"/>
<path d="M55.766 288.836V290.712H56.648V288.836H55.766ZM53.68 288.836V290.712H54.52V288.836H53.68ZM51.608 288.836V290.712H52.434V288.836H51.608ZM50.04 287.604H58.286V291.93H50.04V287.604ZM53.232 292.168H54.87V296.312H53.232V292.168ZM50.264 292.994H57.894V294.436H50.264V292.994ZM49.648 295.416H58.454V296.886H49.648V295.416ZM55.304 297.446L56.536 296.732C57.166 297.586 58.09 298.762 58.524 299.476L57.222 300.302C56.816 299.574 55.948 298.342 55.304 297.446ZM50.432 300.218C50.362 299.896 50.096 299.126 49.928 298.706C50.222 298.636 50.488 298.44 50.796 298.132C51.132 297.824 52.154 296.69 52.798 295.542L54.212 296.452C53.442 297.502 52.42 298.636 51.398 299.434V299.462C51.398 299.462 50.432 299.924 50.432 300.218ZM50.432 300.218L50.39 299.014L51.258 298.496L56.914 298.104C56.9 298.524 56.942 299.14 56.97 299.49C51.678 299.924 50.936 300.022 50.432 300.218ZM45.294 294.366C46.414 294.1 48.08 293.666 49.676 293.218L49.9 294.758C48.458 295.192 46.904 295.64 45.672 295.99L45.294 294.366ZM45.56 289.76H49.648V291.328H45.56V289.76ZM46.974 287.128H48.542V298.37C48.542 299.168 48.416 299.602 47.968 299.868C47.52 300.148 46.89 300.204 45.966 300.204C45.924 299.77 45.728 299.056 45.518 298.594C46.036 298.622 46.568 298.622 46.736 298.622C46.904 298.622 46.974 298.566 46.974 298.37V287.128Z" fill="white"/>
<path d="M92.304 288.384V290.528H93.312V288.384H92.304ZM89.92 288.384V290.528H90.88V288.384H89.92ZM87.552 288.384V290.528H88.496V288.384H87.552ZM85.76 286.976H95.184V291.92H85.76V286.976ZM89.408 292.192H91.28V296.928H89.408V292.192ZM86.016 293.136H94.736V294.784H86.016V293.136ZM85.312 295.904H95.376V297.584H85.312V295.904ZM91.776 298.224L93.184 297.408C93.904 298.384 94.96 299.728 95.456 300.544L93.968 301.488C93.504 300.656 92.512 299.248 91.776 298.224ZM86.208 301.392C86.128 301.024 85.824 300.144 85.632 299.664C85.968 299.584 86.272 299.36 86.624 299.008C87.008 298.656 88.176 297.36 88.912 296.048L90.528 297.088C89.648 298.288 88.48 299.584 87.312 300.496V300.528C87.312 300.528 86.208 301.056 86.208 301.392ZM86.208 301.392L86.16 300.016L87.152 299.424L93.616 298.976C93.6 299.456 93.648 300.16 93.68 300.56C87.632 301.056 86.784 301.168 86.208 301.392ZM80.336 294.704C81.616 294.4 83.52 293.904 85.344 293.392L85.6 295.152C83.952 295.648 82.176 296.16 80.768 296.56L80.336 294.704ZM80.64 289.44H85.312V291.232H80.64V289.44ZM82.256 286.432H84.048V299.28C84.048 300.192 83.904 300.688 83.392 300.992C82.88 301.312 82.16 301.376 81.104 301.376C81.056 300.88 80.832 300.064 80.592 299.536C81.184 299.568 81.792 299.568 81.984 299.568C82.176 299.568 82.256 299.504 82.256 299.28V286.432ZM108.656 293.392V291.296H104.768V293.392H108.656ZM98.944 294.352H100.368V292.368H98.96V292.8C98.96 293.28 98.96 293.792 98.944 294.352ZM100.368 288.72H98.96V290.64H100.368V288.72ZM109.2 299.456H109.728C109.968 299.456 110.032 299.216 110.064 297.552C110.416 297.84 111.184 298.16 111.68 298.288C111.52 300.544 111.072 301.168 109.936 301.168H108.864C107.44 301.168 107.136 300.608 107.136 298.928V295.056H106.272C106.064 297.84 105.488 300.064 102.848 301.408C102.688 301.024 102.304 300.496 101.952 300.144C101.872 300.448 101.712 300.688 101.456 300.864C100.992 301.168 100.384 301.216 99.44 301.216C99.408 300.752 99.2 299.936 98.976 299.472C99.472 299.488 99.952 299.488 100.128 299.488C100.304 299.488 100.368 299.424 100.368 299.232V296.112H98.864C98.72 297.968 98.448 299.904 97.888 301.36C97.568 301.088 96.816 300.672 96.416 300.528C97.28 298.336 97.344 295.12 97.344 292.8V287.008H102.032V299.264C102.032 299.44 102.032 299.6 102.016 299.744C103.92 298.72 104.24 297.088 104.4 295.056H102.912V289.632H104.496C104.256 288.88 103.792 287.904 103.312 287.168L104.944 286.496C105.52 287.328 106.128 288.448 106.352 289.232L105.424 289.632H107.12C107.6 288.72 108.112 287.456 108.4 286.464L110.384 287.088C109.984 287.968 109.552 288.88 109.136 289.632H110.592V295.056H108.96V298.912C108.96 299.408 108.992 299.456 109.2 299.456Z" fill="#333333"/>
<path fill-rule="evenodd" clip-rule="evenodd" d="M246 288C246 286.895 246.895 286 248 286C249.105 286 250 286.895 250 288C250 289.105 249.105 290 248 290C246.895 290 246 289.105 246 288ZM246 294C246 292.895 246.895 292 248 292C249.105 292 250 292.895 250 294C250 295.105 249.105 296 248 296C246.895 296 246 295.105 246 294ZM248 298C246.895 298 246 298.895 246 300C246 301.105 246.895 302 248 302C249.105 302 250 301.105 250 300C250 298.895 249.105 298 248 298Z" fill="#A3A9AE"/>
</g>
<rect x="20.5" y="262.5" width="251" height="120" rx="11.5" stroke="#D0D5DA"/>
<g clip-path="url(#clip6_180_14973)">
<rect x="288" y="262" width="252" height="121" rx="12" fill="white"/>
<rect x="304" y="278" width="32" height="32" rx="6" fill="#1FCECB"/>
<path d="M317.914 289.886H315.8C316.038 290.362 316.22 291.006 316.276 291.426L315.576 291.622H318.32L317.396 291.426C317.578 291.006 317.802 290.362 317.914 289.886ZM317.732 295.472V295.584C318.236 295.934 319.398 296.858 319.72 297.11L318.754 298.3C318.53 298.02 318.138 297.6 317.732 297.208V300.19H316.122V297.376C315.576 298.16 314.946 298.86 314.344 299.35C314.092 298.986 313.616 298.44 313.266 298.174C314.176 297.572 315.142 296.522 315.786 295.472H313.658V294.072H316.122V292.994H313.616V291.622H314.904C314.848 291.16 314.68 290.558 314.484 290.082L315.338 289.886H313.77V288.528H316.122V287.254H317.732V288.528H320.056V289.886H318.614L319.426 290.04C319.174 290.642 318.95 291.202 318.754 291.622H320.168V292.994H317.732V294.072H320.042V295.472H317.732ZM326.524 291.748V293.288H325.194V300.134H323.584V293.288H322.156C322.142 295.374 321.848 298.328 320 300.246C319.79 299.882 319.188 299.308 318.81 299.112C320.42 297.404 320.588 295.024 320.588 293.092V288.248L321.554 288.514C322.884 288.192 324.27 287.744 325.124 287.282L326.454 288.5C325.222 289.046 323.626 289.48 322.156 289.788V291.748H326.524Z" fill="white"/>
<path d="M353.616 289.584H351.2C351.472 290.128 351.68 290.864 351.744 291.344L350.944 291.568H354.08L353.024 291.344C353.232 290.864 353.488 290.128 353.616 289.584ZM353.408 295.968V296.096C353.984 296.496 355.312 297.552 355.68 297.84L354.576 299.2C354.32 298.88 353.872 298.4 353.408 297.952V301.36H351.568V298.144C350.944 299.04 350.224 299.84 349.536 300.4C349.248 299.984 348.704 299.36 348.304 299.056C349.344 298.368 350.448 297.168 351.184 295.968H348.752V294.368H351.568V293.136H348.704V291.568H350.176C350.112 291.04 349.92 290.352 349.696 289.808L350.672 289.584H348.88V288.032H351.568V286.576H353.408V288.032H356.064V289.584H354.416L355.344 289.76C355.056 290.448 354.8 291.088 354.576 291.568H356.192V293.136H353.408V294.368H356.048V295.968H353.408ZM363.456 291.712V293.472H361.936V301.296H360.096V293.472H358.464C358.448 295.856 358.112 299.232 356 301.424C355.76 301.008 355.072 300.352 354.64 300.128C356.48 298.176 356.672 295.456 356.672 293.248V287.712L357.776 288.016C359.296 287.648 360.88 287.136 361.856 286.608L363.376 288C361.968 288.624 360.144 289.12 358.464 289.472V291.712H363.456ZM375.184 296.528H368.864V299.136H375.184V296.528ZM366.992 301.408V294.848H377.136V301.408H375.184V300.816H368.864V301.408H366.992ZM368.768 291.584H375.232C373.904 290.544 372.72 289.392 371.952 288.336C371.2 289.408 370.08 290.544 368.768 291.584ZM370.88 286.464H372.848C374.56 288.912 377.152 290.944 379.696 291.968C379.232 292.464 378.8 293.088 378.464 293.68C377.648 293.264 376.816 292.736 376.016 292.16V293.264H368.048V292.144C367.264 292.72 366.416 293.248 365.568 293.712C365.312 293.248 364.784 292.56 364.368 292.16C367.12 290.832 369.68 288.416 370.88 286.464ZM389.504 294.528H386.512V296.736H389.504V294.528ZM391.264 298.304H386.512V299.36H384.752V292.96H391.264V298.304ZM391.984 290.128V291.728H384V290.128H391.984ZM394.8 287.2V299.2C394.8 300.192 394.592 300.72 393.984 301.04C393.376 301.36 392.48 301.408 391.152 301.408C391.072 300.88 390.784 300.016 390.496 299.52C391.344 299.568 392.272 299.568 392.544 299.552C392.816 299.536 392.928 299.44 392.928 299.184V289.008H383.088V301.392H381.232V287.2H394.8Z" fill="#333333"/>
<path fill-rule="evenodd" clip-rule="evenodd" d="M514 288C514 286.895 514.895 286 516 286C517.105 286 518 286.895 518 288C518 289.105 517.105 290 516 290C514.895 290 514 289.105 514 288ZM514 294C514 292.895 514.895 292 516 292C517.105 292 518 292.895 518 294C518 295.105 517.105 296 516 296C514.895 296 514 295.105 514 294ZM516 298C514.895 298 514 298.895 514 300C514 301.105 514.895 302 516 302C517.105 302 518 301.105 518 300C518 298.895 517.105 298 516 298Z" fill="#A3A9AE"/>
</g>
<rect x="288.5" y="262.5" width="251" height="120" rx="11.5" stroke="#D0D5DA"/>
</g>
<defs>
<filter id="filter0_b_180_14973" x="-18.3656" y="151.634" width="158.731" height="132.731" filterUnits="userSpaceOnUse" color-interpolation-filters="sRGB">
<feFlood flood-opacity="0" result="BackgroundImageFix"/>
<feGaussianBlur in="BackgroundImageFix" stdDeviation="27.1828"/>
<feComposite in2="SourceAlpha" operator="in" result="effect1_backgroundBlur_180_14973"/>
<feBlend mode="normal" in="SourceGraphic" in2="effect1_backgroundBlur_180_14973" result="shape"/>
</filter>
<filter id="filter1_b_180_14973" x="35.6344" y="151.634" width="158.731" height="132.731" filterUnits="userSpaceOnUse" color-interpolation-filters="sRGB">
<feFlood flood-opacity="0" result="BackgroundImageFix"/>
<feGaussianBlur in="BackgroundImageFix" stdDeviation="27.1828"/>
<feComposite in2="SourceAlpha" operator="in" result="effect1_backgroundBlur_180_14973"/>
<feBlend mode="normal" in="SourceGraphic" in2="effect1_backgroundBlur_180_14973" result="shape"/>
</filter>
<filter id="filter2_b_180_14973" x="249.634" y="151.634" width="148.731" height="132.731" filterUnits="userSpaceOnUse" color-interpolation-filters="sRGB">
<feFlood flood-opacity="0" result="BackgroundImageFix"/>
<feGaussianBlur in="BackgroundImageFix" stdDeviation="27.1828"/>
<feComposite in2="SourceAlpha" operator="in" result="effect1_backgroundBlur_180_14973"/>
<feBlend mode="normal" in="SourceGraphic" in2="effect1_backgroundBlur_180_14973" result="shape"/>
</filter>
<filter id="filter3_b_180_14973" x="293.634" y="151.634" width="158.731" height="132.731" filterUnits="userSpaceOnUse" color-interpolation-filters="sRGB">
<feFlood flood-opacity="0" result="BackgroundImageFix"/>
<feGaussianBlur in="BackgroundImageFix" stdDeviation="27.1828"/>
<feComposite in2="SourceAlpha" operator="in" result="effect1_backgroundBlur_180_14973"/>
<feBlend mode="normal" in="SourceGraphic" in2="effect1_backgroundBlur_180_14973" result="shape"/>
</filter>
<clipPath id="clip0_180_14973">
<rect width="550" height="318" fill="white"/>
</clipPath>
<clipPath id="clip1_180_14973">
<rect x="20" y="69" width="754" height="32" rx="3" fill="white"/>
</clipPath>
<clipPath id="clip2_180_14973">
<rect x="20" y="125" width="252" height="121" rx="12" fill="white"/>
</clipPath>
<clipPath id="clip3_180_14973">
<rect width="16" height="16" fill="white" transform="translate(212 149)"/>
</clipPath>
<clipPath id="clip4_180_14973">
<rect x="288" y="125" width="252" height="121" rx="12" fill="white"/>
</clipPath>
<clipPath id="clip5_180_14973">
<rect x="20" y="262" width="252" height="121" rx="12" fill="white"/>
</clipPath>
<clipPath id="clip6_180_14973">
<rect x="288" y="262" width="252" height="121" rx="12" fill="white"/>
</clipPath>
</defs>
</svg>
