<svg width="550" height="318" viewBox="0 0 550 318" fill="none" xmlns="http://www.w3.org/2000/svg">
<g clip-path="url(#clip0_180_15135)">
<rect width="914" height="56" fill="#446996"/>
<rect width="914" height="28" fill="#446996"/>
<path fill-rule="evenodd" clip-rule="evenodd" d="M32.2105 11.0031C31.3947 11.6552 31 12.6583 31 13.9875C31 15.3166 31.3947 16.3197 32.2105 16.9969C33.0263 17.674 33.9474 18 35.0263 18C36.0789 18 37.0263 17.674 37.8158 16.9969C38.6053 16.3448 39 15.3417 39 14.0125C39 12.6583 38.6053 11.6803 37.8158 11.0031C37.0263 10.326 36.1053 10 35.0263 10C33.9474 10 33 10.326 32.2105 11.0031ZM33.2632 15.9937C32.9211 15.5674 32.7368 14.9154 32.7368 13.9875C32.7368 13.0846 32.9211 12.4326 33.2632 12.0313C33.6316 11.605 34.0263 11.3292 34.4474 11.2288L34.4474 11.2288C34.5526 11.2038 34.6579 11.1787 34.7368 11.1787C34.8158 11.1536 34.8947 11.1536 35 11.1536H35C35.0526 11.1536 35.0987 11.1599 35.1447 11.1661C35.1908 11.1724 35.2368 11.1787 35.2895 11.1787C35.3684 11.1787 35.4737 11.2038 35.5789 11.2288C36 11.3292 36.3947 11.605 36.7368 12.0313C37.0789 12.4577 37.2632 13.1348 37.2632 14.0125C37.2632 14.8903 37.0789 15.5674 36.7368 15.9937C36.3947 16.4201 36 16.6959 35.5789 16.7962C35.5609 16.8005 35.5436 16.8048 35.5268 16.809C35.4458 16.8292 35.3767 16.8464 35.2895 16.8464C35.1842 16.8715 35.1053 16.8715 35 16.8715C34.9605 16.8715 34.9145 16.8652 34.8684 16.8589L34.8684 16.8589C34.8224 16.8527 34.7763 16.8464 34.7368 16.8464C34.6496 16.8464 34.5805 16.8292 34.4995 16.809L34.4995 16.809L34.4994 16.809L34.4993 16.809C34.4826 16.8048 34.4654 16.8005 34.4474 16.7962C34.0263 16.6959 33.6316 16.4201 33.2632 15.9937ZM42.1338 10H40V18H41.6394V13.2821L41.6134 11.8718H41.6394L42.0558 12.7692L44.8662 18H47V10H45.3606V14.7179L45.3866 16.1282H45.3606L44.9442 15.0513L42.1338 10ZM48.32 10H50V16.641H53.5V18H48.32V10ZM54.0069 10H52L55.1615 14.7436V18H56.8935V14.7436L60 10H58.1581L56.3711 12.8205L56.0962 13.359H56.0412L55.7663 12.8205L54.0069 10ZM60 13.9875C60 12.6583 60.3947 11.6552 61.2105 11.0031C62 10.326 62.9474 10 64.0263 10C65.1053 10 66.0263 10.326 66.8158 11.0031C67.6053 11.6803 68 12.6583 68 14.0125C68 15.3417 67.6053 16.3448 66.8158 16.9969C66.0263 17.674 65.0789 18 64.0263 18C62.9474 18 62.0263 17.674 61.2105 16.9969C60.4211 16.3197 60 15.3166 60 13.9875ZM61.7368 13.9875C61.7368 14.9154 61.9211 15.5674 62.2632 15.9937C62.6316 16.4201 63 16.6959 63.4474 16.7962C63.5526 16.8213 63.6579 16.8464 63.7368 16.8464C63.7763 16.8464 63.8224 16.8527 63.8684 16.8589C63.9145 16.8652 63.9605 16.8715 64 16.8715C64.1053 16.8715 64.1842 16.8715 64.2895 16.8464C64.3767 16.8464 64.4458 16.8292 64.5268 16.809L64.5644 16.7997L64.5789 16.7962C65 16.6959 65.3947 16.4201 65.7368 15.9937C66.0789 15.5674 66.2632 14.8903 66.2632 14.0125C66.2632 13.1348 66.0789 12.4577 65.7368 12.0313C65.3947 11.605 65 11.3292 64.5789 11.2288C64.4737 11.2038 64.3684 11.1787 64.2895 11.1787C64.2368 11.1787 64.1908 11.1724 64.1447 11.1661C64.0987 11.1599 64.0526 11.1536 64 11.1536C63.8947 11.1536 63.8158 11.1536 63.7368 11.1787C63.6579 11.1787 63.5526 11.2038 63.4474 11.2288C63.0263 11.3292 62.6316 11.605 62.2632 12.0313C61.9211 12.4326 61.7368 13.0846 61.7368 13.9875ZM74 10H69.37V18H71V14.641H73.8707V13.2821H71V11.359H74V10ZM75.37 10H80V11.359H77V13.2821H79.8707V14.641H77V18H75.37V10ZM81.5 10V18H83.1376V10H81.5ZM90.5 10.2019V11.5647C90.2273 11.4637 89.9545 11.388 89.657 11.3375C89.3595 11.2871 89.0372 11.2618 88.6901 11.2618C87.8719 11.2618 87.2521 11.5142 86.8058 12.0442C86.3595 12.5489 86.1364 13.205 86.1364 13.9874C86.1364 14.7445 86.3347 15.3754 86.7562 15.8801C87.1777 16.3849 87.7727 16.6625 88.5413 16.6625C88.777 16.6625 89.0127 16.6436 89.2804 16.6222L89.2804 16.6222L89.4091 16.612C89.7314 16.5615 90.0537 16.4858 90.4008 16.3344L90.5 17.6719C90.4504 17.6972 90.376 17.7224 90.3017 17.7476C90.2025 17.7729 90.1033 17.7981 89.9793 17.8233C89.8513 17.8559 89.7025 17.878 89.5331 17.9031L89.533 17.9032C89.4401 17.9169 89.3409 17.9317 89.2355 17.9495C88.938 17.9748 88.6405 18 88.3182 18H88.1942H88.0703C87.1777 17.9495 86.3595 17.5962 85.6157 16.9905C84.8719 16.3596 84.5 15.3754 84.5 14.0631C84.5 12.776 84.8719 11.7666 85.5909 11.0599C86.3099 10.3533 87.3017 10 88.5165 10C88.8388 10 89.1364 10 89.3843 10.0252C89.6203 10.0471 89.8378 10.0878 90.0688 10.1311L90.1777 10.1514C90.2025 10.164 90.2335 10.1703 90.2645 10.1767C90.2955 10.183 90.3264 10.1893 90.3512 10.2019C90.3666 10.1863 90.3914 10.19 90.4256 10.1951C90.4468 10.1982 90.4716 10.2019 90.5 10.2019ZM97 10H92V18H97V16.7436H93.6636V14.5128H96.5489V13.2564H93.6636V11.2564H97V10Z" fill="white"/>
<path opacity="0.5" fill-rule="evenodd" clip-rule="evenodd" d="M13.6047 16.5078L18.5631 18.8254C19.0657 19.0543 19.9111 19.0543 20.4366 18.8254L25.3723 16.5184L26.5602 17.0753C27.0857 17.327 27.0857 17.716 26.5602 17.9449L20.3912 20.8284C19.9114 21.0572 19.066 21.0572 18.5633 20.8284L12.3944 17.9449C11.8689 17.6932 11.8689 17.3041 12.3944 17.0753L13.6047 16.5078Z" fill="white"/>
<path opacity="0.75" fill-rule="evenodd" clip-rule="evenodd" d="M13.5553 12.9846L18.5631 15.3254C19.0657 15.5542 19.9111 15.5542 20.4366 15.3254L25.4447 12.9845L26.6058 13.5281C27.1314 13.7798 27.1314 14.1689 26.6058 14.3977L20.4369 17.2812C19.9114 17.5329 19.066 17.5329 18.5633 17.2812L12.3944 14.3977C11.8689 14.146 11.8689 13.7569 12.3944 13.5281L13.5553 12.9846Z" fill="white"/>
<path fill-rule="evenodd" clip-rule="evenodd" d="M18.5631 13.8254L12.3941 10.9419C11.8686 10.6902 11.8686 10.3011 12.3941 10.0723L18.5631 7.1888C19.0886 6.93707 19.934 6.93707 20.4366 7.1888L26.6056 10.0723C27.1311 10.324 27.1311 10.713 26.6056 10.9419L20.4366 13.8254C19.9111 14.0542 19.0658 14.0542 18.5631 13.8254Z" fill="white"/>
<path fill-rule="evenodd" clip-rule="evenodd" d="M134 19H135V10.4142L132.586 8H132V11H126V8L124 8L124 19H125V14C125 13.4477 125.448 13 126 13H133C133.552 13 134 13.4477 134 14V19ZM135 20C135.552 20 136 19.5523 136 19V10.4142C136 10.149 135.895 9.89464 135.707 9.70711L133.293 7.29289C133.105 7.10536 132.851 7 132.586 7H124C123.448 7 123 7.44772 123 8V19C123 19.5523 123.448 20 124 20H135ZM133 19V14H126V19H133ZM130 8H131V10H130V8Z" fill="white"/>
<path d="M166 8V10H174V8H166ZM165 10V8C165 7.44772 165.448 7 166 7H174C174.552 7 175 7.44772 175 8V10H177C177.552 10 178 10.4477 178 11V17C178 17.5523 177.552 18 177 18H175V19C175 19.5523 174.552 20 174 20H166C165.448 20 165 19.5523 165 19V18H163C162.448 18 162 17.5523 162 17V11C162 10.4477 162.448 10 163 10H165ZM165 17V15C165 14.4477 165.448 14 166 14H174C174.552 14 175 14.4477 175 15V17H177V11H174H166H163V17H165ZM165 12H164V13H165V12ZM174 15H166V19H174V15Z" fill="white"/>
<path d="M204.5 11.5002L208.8 7.2002M204.5 11.5002L208.801 15.8007M204.5 11.5002L212 11.5002C214.86 11.5002 216.5 12.8469 216.5 15.5002C216.5 18.1535 214.86 19.5002 212 19.5002H210" stroke="white"/>
<path d="M255.5 11.5002L251.2 7.2002M255.5 11.5002L251.199 15.8007M255.5 11.5002L248 11.5002C245.14 11.5002 243.5 12.8469 243.5 15.5002C243.5 18.1535 245.14 19.5002 248 19.5002H250" stroke="white"/>
<path d="M384.994 13.8164C384.994 12.3906 385.377 11.2754 386.143 10.4707C386.908 9.66211 387.896 9.25781 389.107 9.25781C389.9 9.25781 390.615 9.44727 391.252 9.82617C391.889 10.2051 392.373 10.7344 392.705 11.4141C393.041 12.0898 393.209 12.8574 393.209 13.7168C393.209 14.5879 393.033 15.3672 392.682 16.0547C392.33 16.7422 391.832 17.2637 391.188 17.6191C390.543 17.9707 389.848 18.1465 389.102 18.1465C388.293 18.1465 387.57 17.9512 386.934 17.5605C386.297 17.1699 385.814 16.6367 385.486 15.9609C385.158 15.2852 384.994 14.5703 384.994 13.8164ZM386.166 13.834C386.166 14.8691 386.443 15.6855 386.998 16.2832C387.557 16.877 388.256 17.1738 389.096 17.1738C389.951 17.1738 390.654 16.873 391.205 16.2715C391.76 15.6699 392.037 14.8164 392.037 13.7109C392.037 13.0117 391.918 12.4023 391.68 11.8828C391.445 11.3594 391.1 10.9551 390.643 10.6699C390.189 10.3809 389.68 10.2363 389.113 10.2363C388.309 10.2363 387.615 10.5137 387.033 11.0684C386.455 11.6191 386.166 12.541 386.166 13.834ZM394.668 18V9.41016H395.834L400.346 16.1543V9.41016H401.436V18H400.27L395.758 11.25V18H394.668ZM403.305 18V9.41016H404.441V16.9863H408.672V18H403.305ZM411.561 18V14.3613L408.25 9.41016H409.633L411.326 12C411.639 12.4844 411.93 12.9688 412.199 13.4531C412.457 13.0039 412.77 12.498 413.137 11.9355L414.801 9.41016H416.125L412.697 14.3613V18H411.561ZM416.799 13.8164C416.799 12.3906 417.182 11.2754 417.947 10.4707C418.713 9.66211 419.701 9.25781 420.912 9.25781C421.705 9.25781 422.42 9.44727 423.057 9.82617C423.693 10.2051 424.178 10.7344 424.51 11.4141C424.846 12.0898 425.014 12.8574 425.014 13.7168C425.014 14.5879 424.838 15.3672 424.486 16.0547C424.135 16.7422 423.637 17.2637 422.992 17.6191C422.348 17.9707 421.652 18.1465 420.906 18.1465C420.098 18.1465 419.375 17.9512 418.738 17.5605C418.102 17.1699 417.619 16.6367 417.291 15.9609C416.963 15.2852 416.799 14.5703 416.799 13.8164ZM417.971 13.834C417.971 14.8691 418.248 15.6855 418.803 16.2832C419.361 16.877 420.061 17.1738 420.9 17.1738C421.756 17.1738 422.459 16.873 423.01 16.2715C423.564 15.6699 423.842 14.8164 423.842 13.7109C423.842 13.0117 423.723 12.4023 423.484 11.8828C423.25 11.3594 422.904 10.9551 422.447 10.6699C421.994 10.3809 421.484 10.2363 420.918 10.2363C420.113 10.2363 419.42 10.5137 418.838 11.0684C418.26 11.6191 417.971 12.541 417.971 13.834ZM426.543 18V9.41016H432.338V10.4238H427.68V13.084H431.711V14.0977H427.68V18H426.543ZM433.879 18V9.41016H439.674V10.4238H435.016V13.084H439.047V14.0977H435.016V18H433.879ZM441.35 18V9.41016H442.486V18H441.35ZM450.625 14.9883L451.762 15.2754C451.523 16.209 451.094 16.9219 450.473 17.4141C449.855 17.9023 449.1 18.1465 448.205 18.1465C447.279 18.1465 446.525 17.959 445.943 17.584C445.365 17.2051 444.924 16.6582 444.619 15.9434C444.318 15.2285 444.168 14.4609 444.168 13.6406C444.168 12.7461 444.338 11.9668 444.678 11.3027C445.021 10.6348 445.508 10.1289 446.137 9.78516C446.77 9.4375 447.465 9.26367 448.223 9.26367C449.082 9.26367 449.805 9.48242 450.391 9.91992C450.977 10.3574 451.385 10.9727 451.615 11.7656L450.496 12.0293C450.297 11.4043 450.008 10.9492 449.629 10.6641C449.25 10.3789 448.773 10.2363 448.199 10.2363C447.539 10.2363 446.986 10.3945 446.541 10.7109C446.1 11.0273 445.789 11.4531 445.609 11.9883C445.43 12.5195 445.34 13.0684 445.34 13.6348C445.34 14.3652 445.445 15.0039 445.656 15.5508C445.871 16.0938 446.203 16.5 446.652 16.7695C447.102 17.0391 447.588 17.1738 448.111 17.1738C448.748 17.1738 449.287 16.9902 449.729 16.623C450.17 16.2559 450.469 15.7109 450.625 14.9883ZM453.191 18V9.41016H459.402V10.4238H454.328V13.0547H459.08V14.0625H454.328V16.9863H459.602V18H453.191ZM472.118 10.86H466.982C467.57 12.468 468.422 13.884 469.562 15.048C470.666 13.932 471.506 12.552 472.118 10.86ZM474.998 10.86H473.15C472.442 12.828 471.494 14.412 470.246 15.672C471.554 16.776 473.174 17.592 475.118 18.048C474.902 18.252 474.614 18.66 474.482 18.912C472.478 18.396 470.846 17.532 469.526 16.344C468.206 17.472 466.586 18.3 464.654 18.924C464.57 18.708 464.282 18.276 464.09 18.072C465.998 17.52 467.57 16.752 468.854 15.696C467.618 14.388 466.682 12.768 465.998 10.86H464.234V9.984H469.118V7.956H470.018V9.984H474.998V10.86ZM485.774 8.736L486.65 8.988C486.242 9.948 485.726 11.112 485.318 11.844L484.598 11.616C485.006 10.872 485.51 9.624 485.774 8.736ZM482.198 11.46L481.418 11.76C481.214 11.028 480.746 9.876 480.35 9.024L481.082 8.76C481.49 9.624 481.97 10.74 482.198 11.46ZM480.302 13.968L479.762 14.64C479.57 14.256 479.138 13.512 478.778 12.912V18.912H477.926V13.188C477.53 14.544 476.978 15.876 476.414 16.68C476.306 16.44 476.09 16.092 475.934 15.888C476.678 14.892 477.422 12.996 477.77 11.364H476.198V10.524H477.926V7.956H478.778V10.524H480.278V11.364H478.778V11.844C479.126 12.276 480.098 13.632 480.302 13.968ZM483.878 8.004V12.372H486.542V18.816H485.666V18.072H480.026V17.208H485.666V15.588H480.446V14.772H485.666V13.224H480.29V12.372H483.026V8.004H483.878Z" fill="white"/>
<path d="M489.42 18V16.7988H490.621V18H489.42Z" fill="white"/>
<path d="M497.148 18V17.2148C496.754 17.832 496.174 18.1406 495.408 18.1406C494.912 18.1406 494.455 18.0039 494.037 17.7305C493.623 17.457 493.301 17.0762 493.07 16.5879C492.844 16.0957 492.73 15.5312 492.73 14.8945C492.73 14.2734 492.834 13.7109 493.041 13.207C493.248 12.6992 493.559 12.3105 493.973 12.041C494.387 11.7715 494.85 11.6367 495.361 11.6367C495.736 11.6367 496.07 11.7168 496.363 11.877C496.656 12.0332 496.895 12.2383 497.078 12.4922V9.41016H498.127V18H497.148ZM493.814 14.8945C493.814 15.6914 493.982 16.2871 494.318 16.6816C494.654 17.0762 495.051 17.2734 495.508 17.2734C495.969 17.2734 496.359 17.0859 496.68 16.7109C497.004 16.332 497.166 15.7559 497.166 14.9824C497.166 14.1309 497.002 13.5059 496.674 13.1074C496.346 12.709 495.941 12.5098 495.461 12.5098C494.992 12.5098 494.6 12.7012 494.283 13.084C493.971 13.4668 493.814 14.0703 493.814 14.8945ZM499.398 14.8887C499.398 13.7363 499.719 12.8828 500.359 12.3281C500.895 11.8672 501.547 11.6367 502.316 11.6367C503.172 11.6367 503.871 11.918 504.414 12.4805C504.957 13.0391 505.229 13.8125 505.229 14.8008C505.229 15.6016 505.107 16.2324 504.865 16.6934C504.627 17.1504 504.277 17.5059 503.816 17.7598C503.359 18.0137 502.859 18.1406 502.316 18.1406C501.445 18.1406 500.74 17.8613 500.201 17.3027C499.666 16.7441 499.398 15.9395 499.398 14.8887ZM500.482 14.8887C500.482 15.6855 500.656 16.2832 501.004 16.6816C501.352 17.0762 501.789 17.2734 502.316 17.2734C502.84 17.2734 503.275 17.0742 503.623 16.6758C503.971 16.2773 504.145 15.6699 504.145 14.8535C504.145 14.084 503.969 13.502 503.617 13.1074C503.27 12.709 502.836 12.5098 502.316 12.5098C501.789 12.5098 501.352 12.707 501.004 13.1016C500.656 13.4961 500.482 14.0918 500.482 14.8887ZM510.531 15.7207L511.568 15.8555C511.455 16.5703 511.164 17.1309 510.695 17.5371C510.23 17.9395 509.658 18.1406 508.979 18.1406C508.127 18.1406 507.441 17.8633 506.922 17.3086C506.406 16.75 506.148 15.9512 506.148 14.9121C506.148 14.2402 506.26 13.6523 506.482 13.1484C506.705 12.6445 507.043 12.2676 507.496 12.0176C507.953 11.7637 508.449 11.6367 508.984 11.6367C509.66 11.6367 510.213 11.8086 510.643 12.1523C511.072 12.4922 511.348 12.9766 511.469 13.6055L510.443 13.7637C510.346 13.3457 510.172 13.0312 509.922 12.8203C509.676 12.6094 509.377 12.5039 509.025 12.5039C508.494 12.5039 508.062 12.6953 507.73 13.0781C507.398 13.457 507.232 14.0586 507.232 14.8828C507.232 15.7188 507.393 16.3262 507.713 16.7051C508.033 17.084 508.451 17.2734 508.967 17.2734C509.381 17.2734 509.727 17.1465 510.004 16.8926C510.281 16.6387 510.457 16.248 510.531 15.7207ZM511.768 18L514.041 14.7656L511.938 11.7773H513.256L514.211 13.2363C514.391 13.5137 514.535 13.7461 514.645 13.9336C514.816 13.6758 514.975 13.4473 515.119 13.248L516.168 11.7773H517.428L515.277 14.707L517.592 18H516.297L515.02 16.0664L514.68 15.5449L513.045 18H511.768Z" fill="white"/>
<path d="M20.532 38.86H15.396C15.984 40.468 16.836 41.884 17.976 43.048C19.08 41.932 19.92 40.552 20.532 38.86ZM23.412 38.86H21.564C20.856 40.828 19.908 42.412 18.66 43.672C19.968 44.776 21.588 45.592 23.532 46.048C23.316 46.252 23.028 46.66 22.896 46.912C20.892 46.396 19.26 45.532 17.94 44.344C16.62 45.472 15 46.3 13.068 46.924C12.984 46.708 12.696 46.276 12.504 46.072C14.412 45.52 15.984 44.752 17.268 43.696C16.032 42.388 15.096 40.768 14.412 38.86H12.648V37.984H17.532V35.956H18.432V37.984H23.412V38.86ZM27.24 36.004L28.08 36.268C27.744 37.144 27.348 38.032 26.892 38.86V46.9H26.04V40.24C25.692 40.756 25.308 41.224 24.936 41.644C24.852 41.428 24.588 40.972 24.432 40.768C25.548 39.604 26.604 37.816 27.24 36.004ZM35.376 41.908V42.784H32.124V46.924H31.236V42.784H27.816V41.908H31.236V39.28H29.352C29.1 39.976 28.812 40.6 28.488 41.104C28.32 40.972 27.948 40.756 27.72 40.648C28.428 39.664 28.92 38.104 29.196 36.556L30.036 36.736C29.928 37.3 29.796 37.864 29.64 38.404H31.236V36.112H32.124V38.404H34.86V39.28H32.124V41.908H35.376Z" fill="white"/>
<rect width="48" height="28" transform="translate(48 28)" fill="#F1F1F1"/>
<path d="M69.048 41.524V40.336H62.928V41.524H69.048ZM62.928 45.448H69.048V44.176H62.928V45.448ZM69.048 43.468V42.244H62.928V43.468H69.048ZM71.34 38.44H66.54C66.408 38.824 66.288 39.208 66.144 39.544H69.96V46.924H69.048V46.24H62.928V46.924H62.052V39.544H65.196C65.304 39.196 65.412 38.788 65.484 38.44H60.684V37.612H63.78C63.54 37.204 63.132 36.664 62.76 36.256L63.54 35.92C63.972 36.34 64.452 36.928 64.668 37.336L64.152 37.612H67.32C67.704 37.12 68.148 36.436 68.412 35.944L69.384 36.196C69.06 36.7 68.676 37.204 68.316 37.612H71.34V38.44ZM77.58 42.616V40.468H78.48V42.628C78.48 44.26 77.82 45.916 73.188 46.924C73.092 46.732 72.84 46.384 72.648 46.204C77.076 45.304 77.58 43.9 77.58 42.616ZM78.54 44.668L79.044 44.056C80.412 44.656 82.224 45.592 83.136 46.252L82.584 46.96C81.708 46.288 79.932 45.292 78.54 44.668ZM72.924 36.616H83.184V37.456H78.42C78.204 37.948 77.964 38.464 77.748 38.884H82.032V44.428H81.096V39.712H74.988V44.452H74.1V38.884H76.848C77.04 38.464 77.256 37.924 77.4 37.456H72.924V36.616Z" fill="#444444"/>
<path d="M112.056 41.008L112.176 41.836L110.868 42.268V45.88C110.868 46.36 110.76 46.612 110.46 46.756C110.172 46.888 109.716 46.924 108.972 46.912C108.936 46.708 108.828 46.336 108.708 46.096C109.224 46.108 109.692 46.108 109.836 46.096C109.98 46.096 110.04 46.06 110.04 45.88V42.532L108.612 43L108.384 42.136C108.84 42.016 109.416 41.836 110.04 41.644V39.184H108.54V38.368H110.04V35.968H110.868V38.368H112.152V39.184H110.868V41.392C111.264 41.272 111.66 41.14 112.056 41.008ZM116.196 45.472H118.26V43.696H116.724V42.916H118.26V41.452H116.676V40.684H119.064V46.84H118.26V46.252H113.34V46.888H112.524V40.684L113.16 40.888C113.7 40.696 114.24 40.456 114.576 40.24L115.296 40.864C114.72 41.14 113.988 41.392 113.34 41.572V42.916H114.876V43.696H113.34V45.472H115.368V39.448H112.272V38.644H115.368V37.444C114.456 37.54 113.532 37.6 112.68 37.636C112.656 37.42 112.548 37.12 112.464 36.928C114.528 36.796 117.024 36.556 118.404 36.208L118.98 36.892C118.2 37.084 117.228 37.24 116.196 37.36V38.644H119.376V39.448H116.196V45.472ZM122.76 36.688H126.576C126.576 38.812 126.852 43.336 131.556 46.132C131.352 46.276 130.992 46.66 130.836 46.876C127.884 45.088 126.612 42.46 126.072 40.192C125.184 43.3 123.672 45.484 121.284 46.888C121.116 46.708 120.72 46.336 120.48 46.18C123.132 44.8 124.608 42.388 125.34 39.028L125.868 39.112C125.784 38.56 125.736 38.032 125.712 37.576H122.76V36.688Z" fill="white"/>
<path d="M156.744 43.816C156.708 43.636 156.564 43.204 156.456 42.976C156.708 42.916 156.96 42.616 157.308 42.172C157.656 41.728 158.808 40.036 159.54 38.416L160.332 38.86C159.492 40.492 158.436 42.136 157.38 43.324V43.348C157.38 43.348 156.744 43.636 156.744 43.816ZM156.744 43.816L156.684 43.06L157.116 42.748L160.104 42.04C160.104 42.28 160.116 42.628 160.14 42.808C157.38 43.528 156.996 43.66 156.744 43.816ZM156.672 40.936C156.624 40.744 156.48 40.312 156.372 40.084C156.576 40.024 156.78 39.748 157.02 39.328C157.26 38.932 158.052 37.348 158.472 35.896L159.336 36.256C158.784 37.756 157.992 39.328 157.212 40.432V40.456C157.212 40.456 156.672 40.756 156.672 40.936ZM156.672 40.936L156.648 40.276L157.08 40L159.144 39.784C159.108 40.012 159.084 40.348 159.072 40.516C157.188 40.768 156.864 40.84 156.672 40.936ZM156.444 45.364C157.368 45.076 158.76 44.572 160.128 44.08L160.284 44.848C159.012 45.34 157.692 45.856 156.672 46.24L156.444 45.364ZM161.748 39.928H165.876V40.744H161.748V39.928ZM160.728 42.004H167.016V42.844H160.728V42.004ZM164.604 44.008L165.336 43.684C166.044 44.584 166.836 45.82 167.184 46.6L166.404 46.972C166.08 46.204 165.312 44.932 164.604 44.008ZM160.692 46.708L160.668 46.036L161.172 45.736L165.984 45.268C166.032 45.496 166.128 45.808 166.188 45.988C161.532 46.492 161.016 46.564 160.692 46.708ZM160.692 46.708C160.644 46.48 160.476 46.036 160.392 45.856C160.632 45.796 160.92 45.724 161.112 45.496C161.424 45.148 162.528 43.276 162.888 42.604H163.872C163.344 43.504 162.276 45.352 161.724 46.12C161.724 46.12 160.692 46.444 160.692 46.708ZM164.052 36.388C164.772 37.564 166.248 38.992 167.46 39.76C167.292 39.964 167.076 40.348 166.98 40.588C165.72 39.652 164.208 38.104 163.404 36.82L164.052 36.388ZM163.62 35.884L164.436 36.16C163.608 38.032 162.204 39.688 160.692 40.768C160.62 40.564 160.368 40.108 160.224 39.904C161.628 38.992 162.9 37.54 163.62 35.884ZM168.996 36.448H178.992V46.972H178.092V37.276H169.872V46.972H168.996V36.448ZM169.512 45.652H178.62V46.456H169.512V45.652ZM172.488 42.664L172.872 42.112C173.832 42.304 175.056 42.7 175.728 43.012L175.344 43.612C174.684 43.288 173.46 42.868 172.488 42.664ZM172.968 37.516L173.712 37.768C173.028 38.872 171.936 39.904 170.928 40.576C170.796 40.432 170.484 40.168 170.304 40.036C171.324 39.424 172.356 38.488 172.968 37.516ZM176.172 38.464H176.328L176.472 38.428L176.976 38.74C175.74 40.72 172.944 42.028 170.508 42.592C170.424 42.376 170.244 42.016 170.088 41.848C172.44 41.392 175.14 40.204 176.172 38.596V38.464ZM172.44 39.124C173.496 40.396 175.692 41.368 177.876 41.764C177.708 41.932 177.48 42.232 177.372 42.448C175.176 41.98 172.956 40.876 171.768 39.436L172.44 39.124ZM172.692 38.464H176.436V39.172H172.212L172.692 38.464ZM171.3 44.188L171.72 43.564C173.34 43.756 175.404 44.212 176.58 44.608L176.172 45.28C175.032 44.872 172.956 44.392 171.3 44.188Z" fill="white"/>
<path d="M215.256 38.656H208.764C208.404 39.424 207.984 40.156 207.504 40.84H210.12V39.232H211.008V40.84H214.596V44.68C214.596 45.16 214.488 45.412 214.116 45.544C213.756 45.688 213.12 45.7 212.088 45.688C212.052 45.448 211.92 45.124 211.8 44.884C212.568 44.908 213.264 44.896 213.444 44.896C213.648 44.884 213.708 44.836 213.708 44.668V41.68H211.008V46.936H210.12V41.68H207.576V45.82H206.688V41.884C206.172 42.472 205.596 43 204.948 43.444C204.828 43.228 204.6 42.892 204.42 42.7C205.872 41.716 206.976 40.24 207.78 38.656H204.768V37.792H208.164C208.428 37.18 208.632 36.568 208.8 35.956L209.724 36.172C209.556 36.712 209.352 37.252 209.148 37.792H215.256V38.656ZM223.44 43.144H220.536V44.764H223.44V43.144ZM224.268 45.496H220.536V46.192H219.72V42.412H224.268V45.496ZM225.204 37.36H218.748V38.872H225.204V37.36ZM218.712 40.684H226.92C226.92 40.684 226.908 40.96 226.908 41.092C226.752 44.74 226.608 46.072 226.248 46.492C226.032 46.768 225.804 46.84 225.432 46.876C225.096 46.912 224.472 46.912 223.836 46.864C223.824 46.624 223.728 46.264 223.584 46.036C224.22 46.096 224.796 46.108 225.024 46.108C225.24 46.108 225.36 46.072 225.468 45.94C225.732 45.664 225.864 44.524 225.996 41.476H218.664C218.508 43.216 218.1 45.16 217.092 46.612C216.96 46.432 216.576 46.144 216.384 46.048C217.728 44.104 217.86 41.38 217.86 39.424V36.592H226.08V39.652H218.748C218.748 39.976 218.736 40.324 218.712 40.684Z" fill="white"/>
<path d="M261.144 43.9L261.912 44.272C260.46 45.76 257.724 46.588 254.7 46.984C254.616 46.756 254.448 46.444 254.28 46.24C257.172 45.928 259.836 45.196 261.144 43.9ZM259.584 42.556L260.304 42.904C259.14 43.852 257.208 44.56 255.456 44.956C255.348 44.764 255.144 44.488 254.964 44.32C256.632 43.984 258.564 43.336 259.584 42.556ZM258.348 41.164L259.044 41.5C258.156 42.184 256.728 42.76 255.54 43.096C255.408 42.94 255.204 42.688 255.012 42.556C256.164 42.256 257.58 41.728 258.348 41.164ZM263.352 40.588H260.328C261.156 41.56 262.428 42.436 263.604 42.892C263.412 43.06 263.148 43.372 263.016 43.588C261.66 42.988 260.244 41.836 259.344 40.588H256.692C255.72 41.932 254.412 42.94 252.924 43.648C252.804 43.468 252.456 43.12 252.264 42.952C253.584 42.412 254.736 41.62 255.612 40.588H252.672V39.82H256.188C256.416 39.484 256.608 39.124 256.776 38.752C255.444 38.788 254.22 38.824 253.236 38.848L253.128 38.032L255.12 37.996C255.588 37.384 256.116 36.568 256.416 35.956L257.376 36.22C256.992 36.796 256.536 37.444 256.104 37.972C257.508 37.948 259.068 37.912 260.616 37.864C260.172 37.516 259.704 37.168 259.272 36.88L259.968 36.46C261.048 37.132 262.368 38.164 263.004 38.908L262.272 39.4C262.068 39.148 261.78 38.872 261.456 38.572C260.22 38.62 258.948 38.668 257.748 38.716C257.58 39.1 257.4 39.472 257.196 39.82H263.352V40.588ZM269.652 39.496H270.648C271.236 39.064 271.812 38.596 272.34 38.116H269.652V39.496ZM275.064 40.264H270.912C270.156 40.804 269.352 41.308 268.524 41.776C270.24 41.596 272.136 41.332 273.228 41.02L273.816 41.632C272.376 42.028 270.192 42.292 268.296 42.436C268.224 42.748 268.152 43.048 268.068 43.336H273.804C273.804 43.336 273.78 43.6 273.756 43.744C273.468 45.508 273.216 46.288 272.82 46.636C272.568 46.852 272.316 46.912 271.896 46.936C271.536 46.948 270.828 46.948 270.084 46.9C270.072 46.66 269.952 46.312 269.808 46.084C270.552 46.156 271.332 46.168 271.608 46.168C271.872 46.168 272.016 46.156 272.124 46.06C272.388 45.856 272.592 45.28 272.808 44.08H267.876C267.816 44.296 267.756 44.5 267.708 44.68L266.808 44.536C267 43.972 267.216 43.156 267.42 42.352C266.592 42.76 265.74 43.132 264.9 43.456C264.78 43.264 264.504 42.916 264.324 42.748C265.452 42.364 266.58 41.884 267.648 41.332L267.708 41.056L268.092 41.104C268.572 40.84 269.052 40.552 269.508 40.264H264.816V39.496H268.764V38.116H265.728V37.384H268.764V35.956H269.652V37.384H272.508V37.96C273 37.492 273.444 37.012 273.852 36.52L274.584 36.916C273.816 37.852 272.916 38.704 271.932 39.496H275.064V40.264Z" fill="white"/>
<path d="M300.564 38.74H304.08V39.58H300.564V38.74ZM301.92 35.92H302.784V46.948H301.92V35.92ZM304.44 38.2H309.456V39.076H304.44V38.2ZM309.108 38.2H309.972C309.972 38.2 309.972 38.536 309.972 38.656C309.84 44.02 309.732 45.808 309.312 46.348C309.072 46.684 308.82 46.78 308.436 46.828C308.064 46.864 307.416 46.852 306.78 46.816C306.756 46.564 306.66 46.192 306.504 45.952C307.188 46 307.824 46.012 308.076 46.012C308.292 46.012 308.412 45.976 308.532 45.82C308.868 45.436 308.988 43.576 309.108 38.416V38.2ZM304.632 40.312L305.436 40.48C305.184 41.74 304.716 43 304.164 43.84C304.02 43.708 303.684 43.48 303.48 43.36C304.02 42.592 304.404 41.464 304.632 40.312ZM310.056 40.504L310.812 40.348C311.16 41.452 311.532 42.892 311.652 43.732L310.824 43.936C310.728 43.084 310.392 41.62 310.056 40.504ZM306.588 36.04H307.44V38.188C307.44 40.852 307.188 44.356 304.044 46.984C303.9 46.78 303.576 46.504 303.36 46.372C306.372 43.9 306.588 40.648 306.588 38.188V36.04ZM315.444 36.004L316.296 36.28C315.972 37.144 315.54 38.02 315.072 38.848V46.9H314.184V40.228C313.812 40.756 313.404 41.236 312.996 41.656C312.912 41.452 312.648 40.96 312.48 40.768C313.668 39.616 314.772 37.828 315.444 36.004ZM323.496 38.812H319.8V40.528H323.22V41.356H319.8V43.168H323.388V44.008H319.8V46.912H318.9V38.812H318.072C317.556 39.772 316.968 40.636 316.368 41.308C316.224 41.152 315.876 40.852 315.672 40.708C316.752 39.592 317.724 37.864 318.312 36.112L319.164 36.34C318.972 36.892 318.744 37.432 318.504 37.96H323.496V38.812Z" fill="white"/>
<path d="M351.336 35.992L352.176 36.244C351.828 37.108 351.42 37.96 350.952 38.74V46.888H350.1V40.048C349.692 40.624 349.248 41.14 348.816 41.584C348.72 41.392 348.468 40.924 348.312 40.72C349.5 39.58 350.652 37.804 351.336 35.992ZM353.412 37.324V39.52H357.864V37.324H353.412ZM359.412 42.616H356.568C357.36 43.876 358.572 45.088 359.724 45.712C359.532 45.868 359.244 46.192 359.088 46.42C358.02 45.724 356.868 44.476 356.052 43.168V46.924H355.164V43.204C354.324 44.524 353.124 45.724 351.96 46.396C351.804 46.18 351.54 45.856 351.336 45.688C352.572 45.076 353.844 43.888 354.648 42.616H351.684V41.8H355.164V40.312H352.572V36.52H358.752V40.312H356.052V41.8H359.412V42.616ZM360.456 42.304C361.476 42.052 362.988 41.596 364.464 41.164L364.596 41.992C363.228 42.412 361.8 42.856 360.696 43.192L360.456 42.304ZM360.636 38.344H364.524V39.208H360.636V38.344ZM362.256 35.932H363.132V45.844C363.132 46.336 363.024 46.6 362.712 46.744C362.4 46.888 361.92 46.912 361.116 46.912C361.08 46.684 360.972 46.3 360.84 46.048C361.392 46.06 361.884 46.06 362.028 46.06C362.196 46.06 362.256 46.012 362.256 45.832V35.932ZM365.964 41.104H370.668V41.956H365.964V41.104ZM365.928 37.996H371.088V42.712H370.2V38.824H365.928V37.996ZM365.364 37.996H366.252V41.224C366.252 43 366.024 45.424 364.584 46.984C364.452 46.804 364.068 46.48 363.864 46.36C365.208 44.884 365.364 42.82 365.364 41.212V37.996ZM367.08 36.28L367.884 35.968C368.352 36.484 368.832 37.18 369.036 37.648L368.196 38.02C368.004 37.528 367.524 36.808 367.08 36.28Z" fill="white"/>
<path d="M401.4 36.508H406.884V42.892H405.984V37.3H402.264V42.892H401.4V36.508ZM404.04 42.7H404.88V45.676C404.88 46.012 404.976 46.096 405.312 46.096H406.284C406.716 46.096 406.764 45.772 406.824 44.056C407.04 44.236 407.34 44.356 407.568 44.416C407.46 46.3 407.316 46.792 406.284 46.792H405.192C404.376 46.792 404.04 46.564 404.04 45.76V42.7ZM403.644 38.212H404.508V40.576C404.508 42.652 403.968 45.316 400.812 46.972C400.716 46.792 400.428 46.444 400.248 46.3C403.272 44.728 403.644 42.436 403.644 40.552V38.212ZM396.756 37.984H400.176V38.812H396.756V37.984ZM398.268 41.524L399.132 40.504V46.96H398.268V41.524ZM399.144 40.708C399.468 41.02 400.608 42.352 400.872 42.664L400.296 43.384C399.948 42.832 399.012 41.608 398.616 41.152L399.144 40.708ZM399.924 37.984H400.104L400.272 37.948L400.752 38.284C399.984 40.42 398.376 42.436 396.876 43.564C396.804 43.312 396.6 42.856 396.468 42.688C397.86 41.728 399.3 39.928 399.924 38.176V37.984ZM397.848 36.352L398.532 35.956C399 36.4 399.468 37.024 399.684 37.456L398.952 37.924C398.748 37.48 398.28 36.82 397.848 36.352ZM408.996 36.448H418.992V46.972H418.092V37.276H409.872V46.972H408.996V36.448ZM409.512 45.652H418.62V46.456H409.512V45.652ZM412.488 42.664L412.872 42.112C413.832 42.304 415.056 42.7 415.728 43.012L415.344 43.612C414.684 43.288 413.46 42.868 412.488 42.664ZM412.968 37.516L413.712 37.768C413.028 38.872 411.936 39.904 410.928 40.576C410.796 40.432 410.484 40.168 410.304 40.036C411.324 39.424 412.356 38.488 412.968 37.516ZM416.172 38.464H416.328L416.472 38.428L416.976 38.74C415.74 40.72 412.944 42.028 410.508 42.592C410.424 42.376 410.244 42.016 410.088 41.848C412.44 41.392 415.14 40.204 416.172 38.596V38.464ZM412.44 39.124C413.496 40.396 415.692 41.368 417.876 41.764C417.708 41.932 417.48 42.232 417.372 42.448C415.176 41.98 412.956 40.876 411.768 39.436L412.44 39.124ZM412.692 38.464H416.436V39.172H412.212L412.692 38.464ZM411.3 44.188L411.72 43.564C413.34 43.756 415.404 44.212 416.58 44.608L416.172 45.28C415.032 44.872 412.956 44.392 411.3 44.188Z" fill="white"/>
<path d="M448.056 41.008L448.176 41.836L446.868 42.268V45.88C446.868 46.36 446.76 46.612 446.46 46.756C446.172 46.888 445.716 46.924 444.972 46.912C444.936 46.708 444.828 46.336 444.708 46.096C445.224 46.108 445.692 46.108 445.836 46.096C445.98 46.096 446.04 46.06 446.04 45.88V42.532L444.612 43L444.384 42.136C444.84 42.016 445.416 41.836 446.04 41.644V39.184H444.54V38.368H446.04V35.968H446.868V38.368H448.152V39.184H446.868V41.392C447.264 41.272 447.66 41.14 448.056 41.008ZM452.196 45.472H454.26V43.696H452.724V42.916H454.26V41.452H452.676V40.684H455.064V46.84H454.26V46.252H449.34V46.888H448.524V40.684L449.16 40.888C449.7 40.696 450.24 40.456 450.576 40.24L451.296 40.864C450.72 41.14 449.988 41.392 449.34 41.572V42.916H450.876V43.696H449.34V45.472H451.368V39.448H448.272V38.644H451.368V37.444C450.456 37.54 449.532 37.6 448.68 37.636C448.656 37.42 448.548 37.12 448.464 36.928C450.528 36.796 453.024 36.556 454.404 36.208L454.98 36.892C454.2 37.084 453.228 37.24 452.196 37.36V38.644H455.376V39.448H452.196V45.472ZM459.24 36.004L460.08 36.268C459.744 37.144 459.348 38.032 458.892 38.86V46.9H458.04V40.24C457.692 40.756 457.308 41.224 456.936 41.644C456.852 41.428 456.588 40.972 456.432 40.768C457.548 39.604 458.604 37.816 459.24 36.004ZM467.376 41.908V42.784H464.124V46.924H463.236V42.784H459.816V41.908H463.236V39.28H461.352C461.1 39.976 460.812 40.6 460.488 41.104C460.32 40.972 459.948 40.756 459.72 40.648C460.428 39.664 460.92 38.104 461.196 36.556L462.036 36.736C461.928 37.3 461.796 37.864 461.64 38.404H463.236V36.112H464.124V38.404H466.86V39.28H464.124V41.908H467.376Z" fill="white"/>
<mask id="path-27-inside-1_180_15135" fill="white">
<path d="M0 56H914V124H0V56Z"/>
</mask>
<path d="M0 56H914V124H0V56Z" fill="#F1F1F1"/>
<path d="M914 123H0V125H914V123Z" fill="#CBCBCB" mask="url(#path-27-inside-1_180_15135)"/>
<path d="M14 71H22V73H23V71C23 70.4477 22.5523 70 22 70H14C13.4477 70 13 70.4477 13 71V78C13 78.5523 13.4477 79 14 79H16V78H14V71Z" fill="#444444"/>
<path d="M21 72H15V73H21V72Z" fill="#444444"/>
<path d="M25 77V76H19V77H25Z" fill="#444444"/>
<path d="M25 78V79H19V78H25Z" fill="#444444"/>
<path d="M25 81V80H19V81H25Z" fill="#444444"/>
<path fill-rule="evenodd" clip-rule="evenodd" d="M18 74C17.4477 74 17 74.4477 17 75V82C17 82.5523 17.4477 83 18 83H26C26.5523 83 27 82.5523 27 82V75C27 74.4477 26.5523 74 26 74H18ZM18 75V82H26V75H18Z" fill="#444444"/>
<path d="M16 74H15V75H16V74Z" fill="#444444"/>
<path d="M15 76H16V77H15V76Z" fill="#444444"/>
<path d="M16 97H22V98H24C24.5523 98 25 98.4477 25 99V101H24V99H22V100H16V99H14V106H16V107H14C13.4477 107 13 106.552 13 106V99C13 98.4477 13.4477 98 14 98H16V97Z" fill="#444444"/>
<path d="M19 105V104H25V105H19Z" fill="#444444"/>
<path d="M25 106H19V107H25V106Z" fill="#444444"/>
<path d="M19 109V108H25V109H19Z" fill="#444444"/>
<path fill-rule="evenodd" clip-rule="evenodd" d="M18 102C17.4477 102 17 102.448 17 103V110C17 110.552 17.4477 111 18 111H26C26.5523 111 27 110.552 27 110V103C27 102.448 26.5523 102 26 102H18ZM26 110V103H18V110H26Z" fill="#444444"/>
<path fill-rule="evenodd" clip-rule="evenodd" d="M48 72.5C48 72.9841 47.8624 73.4361 47.6241 73.819L50.4016 75.4226L57.0798 71.5669C57.5581 71.2908 58.1697 71.4546 58.4458 71.9329L51.4016 75.9999L58.4458 80.0669C58.1697 80.5452 57.5581 80.7091 57.0798 80.4329L50.4016 76.5773L47.6241 78.1809C47.8624 78.5638 48 79.0158 48 79.5C48 80.8807 46.8807 82 45.5 82C44.1193 82 43 80.8807 43 79.5C43 78.1193 44.1193 77 45.5 77C46.0242 77 46.5106 77.1613 46.9125 77.437L49.4016 75.9999L46.9127 74.5629C46.5108 74.8387 46.0242 75 45.5 75C44.1193 75 43 73.8807 43 72.5C43 71.1193 44.1193 70 45.5 70C46.8807 70 48 71.1193 48 72.5ZM47 72.5C47 73.3284 46.3284 74 45.5 74C44.6716 74 44 73.3284 44 72.5C44 71.6716 44.6716 71 45.5 71C46.3284 71 47 71.6716 47 72.5ZM47 79.5C47 80.3284 46.3284 81 45.5 81C44.6716 81 44 80.3284 44 79.5C44 78.6716 44.6716 78 45.5 78C46.3284 78 47 78.6716 47 79.5Z" fill="#444444"/>
<path fill-rule="evenodd" clip-rule="evenodd" d="M47 98H55V101H47V98ZM46 98C46 97.4477 46.4477 97 47 97H55C55.5523 97 56 97.4477 56 98V101C56 101.552 55.5523 102 55 102H47C46.4477 102 46 101.552 46 101V100H45V103H51V105H52V111H49V105H50V104H45C44.4477 104 44 103.552 44 103V100C44 99.4477 44.4477 99 45 99H46V98Z" fill="#444444"/>
<rect width="844" height="68" transform="translate(60 56)" fill="#F1F1F1"/>
<rect x="70" y="64" width="1" height="52" fill="#CBCBCB"/>
<g clip-path="url(#clip1_180_15135)">
<rect x="81" y="65" width="106" height="22" rx="2" fill="white"/>
<path d="M84.9839 80L88.0078 72.126H89.1304L92.353 80H91.166L90.2476 77.6152H86.9551L86.0903 80H84.9839ZM87.2559 76.7666H89.9253L89.1035 74.5859C88.8529 73.9235 88.6667 73.3792 88.5449 72.9531C88.4447 73.458 88.3032 73.9593 88.1206 74.457L87.2559 76.7666ZM93.0513 80V74.2959H93.9214V75.1606C94.1434 74.756 94.3475 74.4893 94.5337 74.3604C94.7235 74.2314 94.9312 74.167 95.1567 74.167C95.4826 74.167 95.8138 74.2708 96.1504 74.4785L95.8174 75.3755C95.5811 75.2358 95.3447 75.166 95.1084 75.166C94.8971 75.166 94.7074 75.2305 94.5391 75.3594C94.3708 75.4847 94.2508 75.6602 94.1792 75.8857C94.0718 76.2295 94.0181 76.6055 94.0181 77.0137V80H93.0513ZM96.7305 73.2378V72.126H97.6973V73.2378H96.7305ZM96.7305 80V74.2959H97.6973V80H96.7305ZM102.896 79.2964C102.538 79.6007 102.193 79.8156 101.86 79.9409C101.53 80.0662 101.176 80.1289 100.796 80.1289C100.17 80.1289 99.6882 79.9767 99.3516 79.6724C99.015 79.3644 98.8467 78.9723 98.8467 78.4961C98.8467 78.2168 98.9093 77.9626 99.0347 77.7334C99.1636 77.5007 99.3301 77.3145 99.5342 77.1748C99.7419 77.0352 99.9746 76.9295 100.232 76.8579C100.422 76.8078 100.709 76.7594 101.092 76.7129C101.872 76.6198 102.447 76.5088 102.816 76.3799C102.819 76.2474 102.821 76.1632 102.821 76.1274C102.821 75.7336 102.73 75.4561 102.547 75.2949C102.3 75.0765 101.933 74.9673 101.446 74.9673C100.992 74.9673 100.655 75.0479 100.437 75.209C100.222 75.3665 100.062 75.6476 99.9585 76.0522L99.0132 75.9233C99.0991 75.5187 99.2406 75.1929 99.4375 74.9458C99.6344 74.6951 99.9191 74.5036 100.292 74.3711C100.664 74.235 101.095 74.167 101.586 74.167C102.073 74.167 102.469 74.2243 102.773 74.3389C103.077 74.4535 103.301 74.5985 103.444 74.7739C103.588 74.9458 103.688 75.1642 103.745 75.4292C103.777 75.5939 103.793 75.8911 103.793 76.3208V77.6099C103.793 78.5086 103.813 79.078 103.853 79.3179C103.896 79.5542 103.978 79.7816 104.1 80H103.09C102.99 79.7995 102.925 79.5649 102.896 79.2964ZM102.816 77.1372C102.465 77.2804 101.939 77.4022 101.237 77.5024C100.839 77.5597 100.558 77.6242 100.394 77.6958C100.229 77.7674 100.102 77.873 100.012 78.0127C99.9227 78.1488 99.8779 78.3009 99.8779 78.4692C99.8779 78.7271 99.9746 78.9419 100.168 79.1138C100.365 79.2856 100.651 79.3716 101.027 79.3716C101.4 79.3716 101.731 79.291 102.021 79.1299C102.311 78.9652 102.524 78.7414 102.66 78.4585C102.764 78.2401 102.816 77.9178 102.816 77.4917V77.1372ZM105.276 80V72.126H106.243V80H105.276Z" fill="#444444"/>
<path d="M183 75L180.5 77.5L178 75" stroke="#444444"/>
</g>
<rect x="81.5" y="65.5" width="105" height="21" rx="1.5" stroke="#CFCFCF"/>
<g clip-path="url(#clip2_180_15135)">
<rect x="189" y="65" width="45" height="22" rx="2" fill="white"/>
<path d="M197.098 80H196.131V73.8394C195.899 74.0614 195.592 74.2834 195.213 74.5054C194.837 74.7274 194.499 74.8939 194.198 75.0049V74.0703C194.738 73.8161 195.211 73.5081 195.616 73.1465C196.02 72.7848 196.307 72.4339 196.475 72.0938H197.098V80ZM202.405 80H201.438V73.8394C201.205 74.0614 200.899 74.2834 200.52 74.5054C200.144 74.7274 199.805 74.8939 199.504 75.0049V74.0703C200.045 73.8161 200.518 73.5081 200.922 73.1465C201.327 72.7848 201.613 72.4339 201.782 72.0938H202.405V80Z" fill="#444444"/>
<path d="M230 75L227.5 77.5L225 75" stroke="#444444"/>
</g>
<rect x="189.5" y="65.5" width="44" height="21" rx="1.5" stroke="#CFCFCF"/>
<path fill-rule="evenodd" clip-rule="evenodd" d="M249.5 68.5L247.5 71H251.5L249.5 68.5ZM246.514 76.8324L247.778 80H249L245.007 70H244.014L240 80H241.194L242.444 76.8324H246.514ZM244.965 72.7044L246.146 75.7902H242.861L244.056 72.7044C244.245 72.1821 244.391 71.703 244.493 71.267C244.655 71.8347 244.813 72.3138 244.965 72.7044Z" fill="#444444"/>
<path fill-rule="evenodd" clip-rule="evenodd" d="M271.5 72.5L273.5 70H269.5L271.5 72.5ZM268.066 77.4659L269.049 80H270L266.894 72H266.122L263 80H263.929L264.901 77.4659H268.066ZM266.862 74.1635L267.78 76.6321H265.225L266.154 74.1635C266.302 73.7457 266.415 73.3624 266.495 73.0136C266.621 73.4677 266.743 73.851 266.862 74.1635Z" fill="#444444"/>
<path d="M289.51 77H285.44L284.19 80H283L287 70H288L292 80H290.78L289.51 77ZM285.86 76H289.15L287.5 71.5L285.86 76Z" fill="#444444"/>
<path d="M297 79.9996L296 79.994V79.4996C295.5 79.9996 295 79.9996 294.612 79.9996C294.108 79.9996 293.712 79.8485 293.425 79.5463C293.142 79.244 293 78.8429 293 78.3429C293 77.1012 293.5 76.4996 294.671 76.2403L296 75.9996C296 75.0258 295.562 74.772 295.146 74.772C294.536 74.772 293.494 74.9996 293.494 74.9996V74.5369C293.992 74.1787 294.566 73.9996 295.215 73.9996C296.405 73.9996 297 74.7123 297 76.1377V79.9996ZM296 76.9996L294.968 77.1564C294.592 77.2161 294.309 77.3224 294.117 77.4754C293.982 77.5837 293.831 77.8914 293.831 78.2758C293.831 78.5556 293.918 78.7851 294.093 78.9642C294.271 79.1396 294.506 79.2272 294.8 79.2272C295.202 79.2272 295.533 79.0687 295.794 78.7515C296.057 78.4306 296 78.0593 296 77.5705V76.9996Z" fill="#444444"/>
<path d="M308 74L305.5 76.5L303 74" stroke="#444444"/>
<path d="M87 100H90.1104C91.5277 100 92.5553 100.203 93.1934 100.608C93.8359 101.009 94.1572 101.65 94.1572 102.529C94.1572 103.126 94.016 103.616 93.7334 103.999C93.4554 104.382 93.084 104.612 92.6191 104.689V104.758C93.2526 104.899 93.7083 105.163 93.9863 105.551C94.2689 105.938 94.4102 106.453 94.4102 107.096C94.4102 108.007 94.0798 108.718 93.4189 109.229C92.7627 109.739 91.8695 110 90.7393 110H87V100ZM89 103.958H90.3496C90.9238 103.958 91.3385 103.869 91.5938 103.691C91.8535 103.514 91.9834 103.22 91.9834 102.81C91.9834 102.427 91.8421 102.153 91.5596 101.989C91.2816 101.821 90.8395 101.736 90.2334 101.736H89V103.958ZM89 105.64V108.244H90.5C91.0833 108.244 91.514 108.132 91.792 107.909C92.07 107.686 92.209 107.344 92.209 106.884C92.209 106.054 91.6165 105.64 90.4316 105.64H89Z" fill="#444444"/>
<path fill-rule="evenodd" clip-rule="evenodd" d="M113 100H118V101H116L114.023 109H116V110H111V109H113.045L115.023 101H113V100Z" fill="#444444"/>
<path fill-rule="evenodd" clip-rule="evenodd" d="M143 105.395V100H142V105.5C142 106.325 141.593 106.895 141.132 107.339C140.671 107.778 140.014 107.998 139.161 107.998C138.266 107.998 137.329 107.745 136.868 107.305C136.407 106.866 136 106.216 136 105.395V100H135V105.335C135 106.465 135.332 107.352 135.996 107.998C136.665 108.644 137.867 109 139.084 109C140.302 109 141.259 108.679 141.955 108.038C142.652 107.397 143 106.516 143 105.395ZM144 110H134V111H144V110Z" fill="#444444"/>
<path fill-rule="evenodd" clip-rule="evenodd" d="M165.087 109.281C165.696 108.802 166 108.135 166 107.279C166 106.784 165.895 106.358 165.686 106H169V105H164.548C164.222 104.823 163.829 104.651 163.372 104.484C162.776 104.267 162.333 104.07 162.041 103.892C161.754 103.71 161.55 103.513 161.428 103.3C161.307 103.083 161.246 102.806 161.246 102.468C161.246 102.012 161.411 101.654 161.741 101.397C162.072 101.14 162.53 101.011 163.117 101.011C163.861 101.011 164.626 101.18 165.413 101.517L165.759 100.532C164.963 100.177 164.091 100 163.143 100C162.235 100 161.504 100.222 160.952 100.665C160.4 101.109 160.124 101.705 160.124 102.455C160.124 103.169 160.313 103.748 160.691 104.192C160.947 104.488 161.315 104.758 161.796 105H157V106H164.076C164.355 106.172 164.555 106.358 164.676 106.56C164.811 106.773 164.878 107.048 164.878 107.385C164.878 107.895 164.691 108.295 164.317 108.583C163.943 108.867 163.387 109.009 162.648 109.009C162.196 109.009 161.739 108.96 161.278 108.862C160.817 108.765 160.391 108.632 160 108.463V109.554C160.609 109.851 161.478 110 162.609 110C163.652 110 164.478 109.76 165.087 109.281Z" fill="#444444"/>
<path fill-rule="evenodd" clip-rule="evenodd" d="M190.012 102H193V101.299H191.137V101.261L191.687 100.784C192.054 100.474 192.309 100.236 192.453 100.069C192.599 99.9016 192.707 99.7388 192.775 99.5806C192.845 99.4205 192.88 99.2497 192.88 99.0681C192.88 98.8595 192.824 98.6743 192.711 98.5125C192.597 98.3506 192.439 98.2248 192.234 98.1349C192.029 98.045 191.793 98 191.526 98C191.324 98 191.14 98.0189 190.977 98.0566C190.813 98.0926 190.662 98.1448 190.523 98.2131C190.385 98.2814 190.211 98.3983 190 98.5637L190.491 99.1005C190.661 98.971 190.824 98.8712 190.98 98.8011C191.135 98.731 191.296 98.6959 191.462 98.6959C191.62 98.6959 191.746 98.7345 191.839 98.8119C191.935 98.8892 191.982 99.007 191.982 99.1652C191.982 99.2713 191.961 99.3738 191.918 99.4727C191.875 99.5716 191.805 99.6795 191.708 99.7964C191.61 99.9114 191.403 100.119 191.085 100.419L190.012 101.42V102ZM187.514 106.832L188.778 110H190L186.007 100H185.014L181 110H182.194L183.444 106.832H187.514ZM185.965 102.704L187.146 105.79H183.861L185.056 102.704C185.245 102.182 185.391 101.703 185.493 101.267C185.655 101.835 185.813 102.314 185.965 102.704Z" fill="#444444"/>
<path fill-rule="evenodd" clip-rule="evenodd" d="M211.514 106.832L212.778 110H214L210.007 100H209.014L205 110H206.194L207.444 106.832H211.514ZM209.965 102.704L211.146 105.79H207.861L209.056 102.704C209.245 102.182 209.391 101.703 209.493 101.267C209.655 101.835 209.813 102.314 209.965 102.704ZM215.012 111H218V110.299H216.137V110.261L216.687 109.784C217.054 109.474 217.309 109.236 217.453 109.069C217.599 108.902 217.707 108.739 217.775 108.581C217.845 108.421 217.88 108.25 217.88 108.068C217.88 107.86 217.824 107.674 217.711 107.512C217.597 107.351 217.439 107.225 217.234 107.135C217.029 107.045 216.793 107 216.526 107C216.324 107 216.14 107.019 215.977 107.057C215.813 107.093 215.662 107.145 215.523 107.213C215.385 107.281 215.211 107.398 215 107.564L215.491 108.1C215.661 107.971 215.824 107.871 215.98 107.801C216.135 107.731 216.296 107.696 216.462 107.696C216.62 107.696 216.746 107.735 216.839 107.812C216.935 107.889 216.982 108.007 216.982 108.165C216.982 108.271 216.961 108.374 216.918 108.473C216.875 108.572 216.805 108.679 216.708 108.796C216.61 108.911 216.403 109.119 216.085 109.419L215.012 110.42V111Z" fill="#444444"/>
<path fill-rule="evenodd" clip-rule="evenodd" d="M240.914 97.4998L241.5 98.0856C242.281 98.8667 242.281 100.133 241.5 100.914L234.914 107.5C234.293 108.121 233.365 108.248 232.618 107.881L231.5 109H228.5L231.118 106.381C230.752 105.635 230.879 104.707 231.5 104.086L238.086 97.4998C238.867 96.7188 240.133 96.7188 240.914 97.4998ZM240.207 98.207C239.817 97.8164 239.183 97.8164 238.793 98.207L238.354 98.6463L240.354 100.646L240.793 100.207C241.183 99.8164 241.183 99.1833 240.793 98.7927L240.207 98.207ZM232.207 104.793L237.646 99.3534L239.646 101.353L234.207 106.793C233.817 107.183 233.183 107.183 232.793 106.793L232.207 106.207C231.817 105.816 231.817 105.183 232.207 104.793Z" fill="#444444"/>
<path d="M253 104L250.5 106.5L248 104" stroke="#444444"/>
<path d="M271.642 109L270.238 105.832H265.716L264.327 109H263L267.46 99H268.563L273 109H271.642ZM269.829 104.79L268.517 101.704C268.347 101.314 268.172 100.835 267.992 100.267C267.879 100.703 267.717 101.182 267.506 101.704L266.179 104.79H269.829Z" fill="#444444"/>
<path d="M286 104L283.5 106.5L281 104" stroke="#444444"/>
<path fill-rule="evenodd" clip-rule="evenodd" d="M302.414 111H302H299.414C298.884 111 298.375 110.789 298 110.414L296.5 108.914C295.719 108.133 295.719 106.867 296.5 106.086L303.086 99.5001C303.867 98.719 305.133 98.719 305.914 99.5001L308.5 102.086C309.281 102.867 309.281 104.133 308.5 104.914L303.414 110H308V111H302.414ZM302 110L306.001 105.999L302.001 101.999L297.207 106.793C296.816 107.184 296.816 107.817 297.207 108.207L298.707 109.707C298.894 109.895 299.149 110 299.414 110L302 110ZM305.207 100.207C304.816 99.8167 304.183 99.8167 303.793 100.207L302.708 101.292L306.708 105.292L307.793 104.207C308.183 103.817 308.183 103.184 307.793 102.793L305.207 100.207Z" fill="#444444"/>
<rect x="323" y="64" width="1" height="52" fill="#CBCBCB"/>
<path d="M339.5 73C340.328 73 341 72.3284 341 71.5C341 70.6716 340.328 70 339.5 70C338.672 70 338 70.6716 338 71.5C338 72.3284 338.672 73 339.5 73Z" fill="#444444"/>
<path d="M339.5 78C340.328 78 341 77.3284 341 76.5C341 75.6716 340.328 75 339.5 75C338.672 75 338 75.6716 338 76.5C338 77.3284 338.672 78 339.5 78Z" fill="#444444"/>
<path d="M341 81.5C341 82.3284 340.328 83 339.5 83C338.672 83 338 82.3284 338 81.5C338 80.6716 338.672 80 339.5 80C340.328 80 341 80.6716 341 81.5Z" fill="#444444"/>
<path d="M342 71H350V72H342V71Z" fill="#444444"/>
<path d="M350 76H342V77H350V76Z" fill="#444444"/>
<path d="M342 81H350V82H342V81Z" fill="#444444"/>
<path d="M362 75L359.5 77.5L357 75" stroke="#444444"/>
<path fill-rule="evenodd" clip-rule="evenodd" d="M370 73H371V69H370H369V70H370V73ZM373 71H381V72H373V71ZM373 76H381V77H373V76ZM381 81H373V82H381V81ZM372 77V78H369V77L371 75H369V74H370H371L372 75L370 77H372ZM369 83V82H371L370.5 81L371 80H370H369V79H371L372 80L371.5 81L372 82L371 83H369Z" fill="#444444"/>
<path d="M393 75L390.5 77.5L388 75" stroke="#444444"/>
<path d="M413 73H412V70H411V69H413V73Z" fill="#444444"/>
<path d="M399 71H409V72H399V71Z" fill="#444444"/>
<path d="M399 76H406V77H399V76Z" fill="#444444"/>
<path d="M404 81H399V82H404V81Z" fill="#444444"/>
<path d="M407 80H406V79H407V80Z" fill="#444444"/>
<path d="M407 83H406V81H407V83Z" fill="#444444"/>
<path d="M409.5 77.5C410.052 77.5 410.5 77.0523 410.5 76.5C410.5 75.9477 410.052 75.5 409.5 75.5C408.948 75.5 408.5 75.9477 408.5 76.5C408.5 77.0523 408.948 77.5 409.5 77.5Z" fill="#444444"/>
<path d="M424 75L421.5 77.5L419 75" stroke="#444444"/>
<path d="M443 71H431V72H443V71Z" fill="#444444"/>
<path d="M443 73H437V74H443V73Z" fill="#444444"/>
<path d="M437 75H443V76H437V75Z" fill="#444444"/>
<path d="M443 77H437V78H443V77Z" fill="#444444"/>
<path d="M437 79H443V80H437V79Z" fill="#444444"/>
<path d="M431 81V82H443V81H431Z" fill="#444444"/>
<path d="M434.354 74.3536L432.707 76H436V77H432.707L434.354 78.6465L433.647 79.3536L430.793 76.5L433.647 73.6465L434.354 74.3536Z" fill="#444444"/>
<path d="M474 71H462V72H474V71Z" fill="#444444"/>
<path d="M474 73H468V74H474V73Z" fill="#444444"/>
<path d="M468 75H474V76H468V75Z" fill="#444444"/>
<path d="M474 77H468V78H474V77Z" fill="#444444"/>
<path d="M468 79H474V80H468V79Z" fill="#444444"/>
<path d="M462 81V82H474V81H462Z" fill="#444444"/>
<path d="M463.646 78.6465L465.293 77H462V76H465.293L463.646 74.3536L464.354 73.6465L467.207 76.5L464.354 79.3536L463.646 78.6465Z" fill="#444444"/>
<path fill-rule="evenodd" clip-rule="evenodd" d="M497.5 77C497.67 77 497.837 76.9879 498 76.9646V82H499V71H501V82H502V71H503V70C501.165 70 499.278 70 497.5 70C495.567 70 494 71.567 494 73.5C494 75.433 495.567 77 497.5 77Z" fill="#444444"/>
<path d="M517 75L514.5 77.5L512 75" stroke="#444444"/>
<path d="M338 99H350V100H338V99Z" fill="#444444"/>
<path d="M338 101H345V102H338V101Z" fill="#444444"/>
<path d="M348 103H338V104H348V103Z" fill="#444444"/>
<path d="M338 105H345V106H338V105Z" fill="#444444"/>
<path d="M345 107H338V108H345V107Z" fill="#444444"/>
<path d="M338 109H350V110H338V109Z" fill="#444444"/>
<path d="M369 99H381V100H369V99Z" fill="#444444"/>
<path d="M372 101H378V102H372V101Z" fill="#444444"/>
<path d="M380 103H370V104H380V103Z" fill="#444444"/>
<path d="M372 105H378V106H372V105Z" fill="#444444"/>
<path d="M378 107H372V108H378V107Z" fill="#444444"/>
<path d="M369 109H381V110H369V109Z" fill="#444444"/>
<path d="M400 99H412V100H400V99Z" fill="#444444"/>
<path d="M405 101H412V102H405V101Z" fill="#444444"/>
<path d="M412 103H402V104H412V103Z" fill="#444444"/>
<path d="M405 105H412V106H405V105Z" fill="#444444"/>
<path d="M412 107H405V108H412V107Z" fill="#444444"/>
<path d="M400 109H412V110H400V109Z" fill="#444444"/>
<path d="M431 99H443V100H431V99Z" fill="#444444"/>
<path d="M443 101H431V102H443V101Z" fill="#444444"/>
<path d="M431 103H443V104H431V103Z" fill="#444444"/>
<path d="M443 105H431V106H443V105Z" fill="#444444"/>
<path d="M431 107H443V108H431V107Z" fill="#444444"/>
<path d="M431 109H443V110H431V109Z" fill="#444444"/>
<path d="M461.646 100.647L464.5 97.793L467.354 100.647L466.646 101.354L465 99.7072V108.293L466.646 106.647L467.354 107.354L464.5 110.207L461.646 107.354L462.354 106.647L464 108.293V99.7072L462.354 101.354L461.646 100.647Z" fill="#444444"/>
<path d="M475 99H468V100H475V99Z" fill="#444444"/>
<path d="M468 102H475V103H468V102Z" fill="#444444"/>
<path d="M475 105H468V106H475V105Z" fill="#444444"/>
<path d="M468 108H475V109H468V108Z" fill="#444444"/>
<path d="M486 103L483.5 105.5L481 103" stroke="#444444"/>
<path fill-rule="evenodd" clip-rule="evenodd" d="M498.646 102.354L496.646 100.354L493.207 103.793C492.816 104.183 492.816 104.817 493.207 105.207L495.793 107.793C496.183 108.183 496.816 108.183 497.207 107.793L501.793 103.207C502.183 102.817 502.183 102.183 501.793 101.793L499.207 99.2071C498.816 98.8166 498.183 98.8166 497.793 99.2071L497.353 99.6465L499.353 101.646L498.646 102.354ZM492.5 103.086L495.939 99.6465L493.646 97.3536L494.353 96.6465L496.646 98.9394L497.086 98.5C497.867 97.719 499.133 97.719 499.914 98.5L502.5 101.086C503.281 101.867 503.281 103.133 502.5 103.914L497.914 108.5C497.133 109.281 495.867 109.281 495.086 108.5L492.5 105.914C491.719 105.133 491.719 103.867 492.5 103.086ZM505 107.5C505 108.328 504.328 109 503.5 109C502.671 109 502 108.328 502 107.5C502 106.672 503.5 105 503.5 105C503.5 105 505 106.672 505 107.5Z" fill="#444444"/>
<path d="M517 103L514.5 105.5L512 103" stroke="#444444"/>
<rect x="530" y="64" width="1" height="52" fill="#CBCBCB"/>
<g clip-path="url(#clip3_180_15135)">
<g clip-path="url(#clip4_180_15135)">
<rect x="541.5" y="67.5" width="109" height="45" fill="white"/>
<rect x="541.5" y="67.5" width="109" height="45" stroke="#CFCFCF"/>
<rect x="543" y="69" width="106" height="42" fill="white"/>
<rect x="543" y="69" width="106" height="42" stroke="#848484" stroke-width="2"/>
</g>
</g>
<rect x="541.5" y="67.5" width="322" height="45" stroke="#CFCFCF"/>
<g clip-path="url(#clip5_180_15135)">
<mask id="path-84-inside-2_180_15135" fill="white">
<path d="M0 124H40V505H0V124Z"/>
</mask>
<path d="M0 124H40V505H0V124Z" fill="#F1F1F1"/>
<path d="M39 124V505H41V124H39Z" fill="#CBCBCB" mask="url(#path-84-inside-2_180_15135)"/>
<path fill-rule="evenodd" clip-rule="evenodd" d="M23 152.5C23 154.985 20.9853 157 18.5 157C16.0147 157 14 154.985 14 152.5C14 150.015 16.0147 148 18.5 148C20.9853 148 23 150.015 23 152.5ZM22.0195 156.727C21.0658 157.522 19.8387 158 18.5 158C15.4624 158 13 155.538 13 152.5C13 149.462 15.4624 147 18.5 147C21.5376 147 24 149.462 24 152.5C24 153.839 23.5217 155.066 22.7266 156.02L26.8536 160.146L26.1465 160.854L22.0195 156.727Z" fill="#444444"/>
<path fill-rule="evenodd" clip-rule="evenodd" d="M16 195V196V196.919L18.1253 195.219L18.3992 195H18.75H26V187L14 187V195H15H16ZM15.8123 198.35L18.75 196H26C26.5523 196 27 195.552 27 195V187C27 186.448 26.5523 186 26 186H14C13.4477 186 13 186.448 13 187V195C13 195.552 13.4477 196 14 196H15V197V197.96C15 198.379 15.485 198.612 15.8123 198.35ZM16 189H24V190H16V189ZM22 192H16V193H22V192Z" fill="#444444"/>
<path fill-rule="evenodd" clip-rule="evenodd" d="M13 234.667L15 233V232H14.638L14.3598 232.232L13 233.365V225H25V227H26V225C26 224.448 25.5523 224 25 224H13C12.4477 224 12 224.448 12 225V234.198V235.5L13 234.667ZM24 236H17C16.4477 236 16 235.552 16 235V229C16 228.448 16.4477 228 17 228H27C27.5523 228 28 228.448 28 229V238L24 236ZM27 236.382L24.2361 235H17V229H27V236.382ZM20 232C20 232.552 19.5523 233 19 233C18.4477 233 18 232.552 18 232C18 231.448 18.4477 231 19 231C19.5523 231 20 231.448 20 232ZM22 233C22.5523 233 23 232.552 23 232C23 231.448 22.5523 231 22 231C21.4477 231 21 231.448 21 232C21 232.552 21.4477 233 22 233ZM26 232C26 232.552 25.5523 233 25 233C24.4477 233 24 232.552 24 232C24 231.448 24.4477 231 25 231C25.5523 231 26 231.448 26 232Z" fill="#444444"/>
<path fill-rule="evenodd" clip-rule="evenodd" d="M23 263H14V264H23V263ZM25 266H16V267H25V266ZM18 269H27V270H18V269ZM23 272H14V273H23V272Z" fill="#444444"/>
<path fill-rule="evenodd" clip-rule="evenodd" d="M18 303H12V308H15V311H16V308H18L22 312V299L18 303ZM21 301.414L18.4142 304H13V307H18.4142L21 309.586V301.414ZM23 310.793C25.3085 310.14 27 308.018 27 305.5C27 302.982 25.3085 300.86 23 300.207V301.256C24.7478 301.874 26 303.541 26 305.5C26 307.459 24.7478 309.126 23 309.744V310.793ZM25 305.5C25 306.896 24.1825 308.101 23 308.663V307.5C23.6072 307.044 24 306.318 24 305.5C24 304.682 23.6072 303.956 23 303.5V302.337C24.1825 302.899 25 304.104 25 305.5Z" fill="#444444"/>
<rect width="834" height="381" transform="translate(40 124)" fill="#E2E2E2"/>
<rect x="59.5" y="144.5" width="795" height="1125" fill="white" stroke="#BBBEC2"/>
</g>
</g>
<defs>
<clipPath id="clip0_180_15135">
<rect width="550" height="318" fill="white"/>
</clipPath>
<clipPath id="clip1_180_15135">
<rect x="81" y="65" width="106" height="22" rx="2" fill="white"/>
</clipPath>
<clipPath id="clip2_180_15135">
<rect x="189" y="65" width="45" height="22" rx="2" fill="white"/>
</clipPath>
<clipPath id="clip3_180_15135">
<rect x="541" y="67" width="323" height="46" fill="white"/>
</clipPath>
<clipPath id="clip4_180_15135">
<rect width="293" height="46" fill="white" transform="translate(541 67)"/>
</clipPath>
<clipPath id="clip5_180_15135">
<rect width="914" height="381" fill="white" transform="translate(0 124)"/>
</clipPath>
</defs>
</svg>
