<svg width="550" height="318" viewBox="0 0 550 318" fill="none" xmlns="http://www.w3.org/2000/svg">
<g clip-path="url(#clip0_180_15111)">
<rect width="550" height="318" fill="#333333"/>
<rect width="914" height="530" fill="white"/>
<rect width="914" height="54" fill="#333333"/>
<rect width="882" height="53" transform="translate(16)" fill="#333333"/>
<path d="M22.636 23.374H36.139V25.537H22.636V23.374ZM25.156 18.796H35.257V20.917H25.156V18.796ZM28.39 16.276H30.889V24.193H28.39V16.276ZM24.841 16.822L27.235 17.326C26.626 19.489 25.534 21.631 24.4 22.975C23.917 22.597 22.909 21.925 22.321 21.631C23.476 20.476 24.358 18.649 24.841 16.822ZM30.007 24.655H32.485V29.233C32.485 29.821 32.527 29.884 32.884 29.884C33.01 29.884 33.577 29.884 33.745 29.884C34.102 29.884 34.186 29.632 34.249 27.7C34.711 28.12 35.761 28.498 36.433 28.666C36.202 31.48 35.572 32.215 34.018 32.215C33.619 32.215 32.821 32.215 32.443 32.215C30.427 32.215 30.007 31.459 30.007 29.254V24.655ZM26.227 24.571H28.747C28.432 27.994 27.613 30.745 23.728 32.362C23.455 31.711 22.762 30.766 22.216 30.283C25.471 29.107 25.975 27.091 26.227 24.571ZM16.903 18.187L18.835 16.78C20.011 17.725 21.46 19.111 22.132 20.098L20.053 21.694C19.465 20.665 18.079 19.216 16.903 18.187ZM21.691 24.277V32.257H19.276V26.608H16.945V24.277H21.691ZM21.46 31.312C22.111 31.312 22.636 31.858 23.707 32.488C25.03 33.307 26.836 33.412 29.02 33.412C31.12 33.412 34.375 33.244 36.412 32.95C36.139 33.622 35.74 34.861 35.719 35.533C34.165 35.638 31.015 35.764 28.957 35.764C26.458 35.764 24.799 35.491 23.392 34.693C22.531 34.168 21.859 33.559 21.397 33.559C20.62 33.559 19.465 34.798 18.331 36.1L16.672 33.916C18.268 32.446 20.116 31.312 21.46 31.312ZM37.525 26.776C39.331 26.377 41.977 25.663 44.539 24.97L44.854 27.238C42.523 27.931 40.045 28.645 38.071 29.191L37.525 26.776ZM37.819 20.119H44.875V22.429H37.819V20.119ZM40.192 16.192H42.649V33.202C42.649 34.378 42.439 35.029 41.788 35.428C41.116 35.827 40.171 35.89 38.785 35.89C38.701 35.239 38.407 34.21 38.113 33.517C38.827 33.559 39.604 33.559 39.856 33.538C40.108 33.538 40.192 33.454 40.192 33.181V16.192ZM45.4 17.011H54.514V19.237H45.4V17.011ZM54.052 17.011H54.472L54.871 16.927L56.383 17.725C54.409 22.03 50.083 24.865 45.547 26.293C45.295 25.684 44.707 24.76 44.245 24.277C48.466 23.206 52.561 20.644 54.052 17.368V17.011ZM48.34 18.124C50.02 21.085 53.443 23.311 57.706 24.214C57.202 24.718 56.509 25.684 56.173 26.314C51.784 25.117 48.403 22.492 46.408 18.796L48.34 18.124ZM45.652 26.923H55.858V29.128H45.652V26.923ZM44.602 30.577H57.202V32.824H44.602V30.577ZM49.558 25.285H52.099V35.911H49.558V25.285ZM72.133 21.967H64.762C65.665 24.235 66.904 26.251 68.521 27.952C70.033 26.314 71.23 24.34 72.133 21.967ZM78.097 21.967H75.073C73.939 25.075 72.406 27.616 70.474 29.716C72.637 31.375 75.283 32.614 78.475 33.328C77.866 33.937 77.068 35.113 76.69 35.827C73.309 34.966 70.579 33.559 68.374 31.69C66.085 33.517 63.376 34.882 60.184 35.89C59.89 35.239 59.113 34.063 58.609 33.454C61.717 32.635 64.342 31.438 66.463 29.821C64.573 27.658 63.124 25.033 61.99 21.967H58.987V19.531H67.219V16.213H69.76V19.531H78.097V21.967ZM84.124 16.297L86.497 17.053C85.93 18.544 85.237 20.077 84.439 21.526V35.806H82.066V25.243C81.646 25.768 81.226 26.293 80.806 26.755C80.575 26.125 79.882 24.781 79.462 24.151C81.31 22.261 83.095 19.279 84.124 16.297ZM99.223 26.335V28.771H93.847V35.827H91.327V28.771H85.657V26.335H91.327V22.723H88.765C88.387 23.752 87.925 24.697 87.463 25.432C87.001 25.096 85.909 24.508 85.3 24.235C86.434 22.597 87.295 19.93 87.778 17.368L90.193 17.872C90.025 18.691 89.815 19.489 89.584 20.287H91.327V16.486H93.847V20.287H98.236V22.723H93.847V26.335H99.223Z" fill="white"/>
<rect y="53" width="914" height="1" fill="#474747"/>
<rect width="914" height="54" transform="translate(0 54)" fill="#333333"/>
<path d="M16.608 77.192H21.536V78.968H16.608V77.192ZM18.16 73.416H20V88.44H18.16V73.416ZM21.952 76.376H28.464V78.248H21.952V76.376ZM27.696 76.376H29.52C29.52 76.376 29.504 77.016 29.504 77.24C29.376 84.152 29.248 86.584 28.704 87.352C28.32 87.912 27.936 88.088 27.36 88.184C26.832 88.28 26.016 88.28 25.184 88.248C25.152 87.72 24.944 86.92 24.608 86.408C25.408 86.472 26.112 86.472 26.464 86.472C26.736 86.472 26.896 86.424 27.056 86.2C27.456 85.704 27.568 83.272 27.696 76.792V76.376ZM21.776 79.384L23.456 79.72C23.136 81.384 22.512 83.032 21.792 84.104C21.472 83.832 20.752 83.384 20.352 83.16C21.04 82.232 21.52 80.808 21.776 79.384ZM29.088 79.72L30.64 79.384C31.088 80.904 31.6 82.888 31.792 84.072L30.112 84.504C29.968 83.304 29.52 81.272 29.088 79.72ZM24.384 73.496H26.192V76.92C26.192 80.456 25.84 85.144 21.904 88.456C21.584 88.04 20.896 87.416 20.448 87.128C24.064 84.2 24.384 80.024 24.384 76.92V73.496ZM36.032 73.512L37.888 74.088C37.472 75.208 36.944 76.344 36.352 77.416V88.376H34.432V80.376C34.096 80.776 33.76 81.176 33.44 81.528C33.264 81.064 32.72 79.976 32.384 79.496C33.84 78.056 35.232 75.784 36.032 73.512ZM47.504 77.864H42.96V79.544H47.104V81.272H42.96V83.08H47.312V84.84H42.96V88.392H41.008V77.864H40.4C39.76 79.048 39.024 80.136 38.304 80.968C38 80.616 37.248 79.944 36.848 79.64C38.256 78.2 39.52 75.896 40.24 73.608L42.08 74.072C41.856 74.744 41.6 75.4 41.296 76.056H47.504V77.864ZM56.768 76.616H55.216C54.928 79.272 54.048 80.952 49.984 81.832C49.824 81.384 49.344 80.616 48.96 80.232C52.448 79.624 53.008 78.504 53.264 76.616H51.056V78.472H49.184V74.888H54.976V73.448H56.928V74.888H62.864V78.2H60.896V76.616H58.64V79.144C58.64 79.576 58.736 79.64 59.232 79.64H60.656C61.056 79.64 61.136 79.48 61.2 78.472C61.552 78.744 62.336 79.016 62.832 79.128C62.64 80.808 62.128 81.256 60.848 81.256H58.944C57.152 81.256 56.768 80.744 56.768 79.16V76.616ZM56.928 86.232H63.008V87.96H49.008V86.232H54.976V83.848H50.688V82.136H61.648V83.848H56.928V86.232ZM65.136 77.272H67.12V88.424H65.136V77.272ZM65.36 74.44L66.864 73.528C67.616 74.216 68.48 75.224 68.864 75.944L67.248 76.968C66.912 76.28 66.08 75.208 65.36 74.44ZM69.424 74.216H78.08V75.992H69.424V74.216ZM77.008 74.216H79.008V86.376C79.008 87.272 78.848 87.704 78.32 88.008C77.776 88.312 77.008 88.328 76 88.328C75.936 87.848 75.696 87.08 75.456 86.616C75.968 86.648 76.56 86.632 76.752 86.632C76.96 86.632 77.008 86.552 77.008 86.36V74.216ZM70.448 82.504V84.04H73.552V82.504H70.448ZM70.448 79.448V80.968H73.552V79.448H70.448ZM68.736 77.912H75.344V85.576H68.736V77.912Z" fill="#ADADAD"/>
<path fill-rule="evenodd" clip-rule="evenodd" d="M95.5859 81.9999L91.293 77.707L92.7072 76.2928L97.7072 81.2928C98.0977 81.6833 98.0977 82.3165 97.7072 82.707L92.7072 87.707L91.293 86.2928L95.5859 81.9999Z" fill="#ADADAD"/>
<path d="M122.784 74.184V75.88H109.296V74.184H122.784ZM115.76 80.328H112.208C112.208 80.648 112.192 80.984 112.176 81.32H115.76V80.328ZM119.936 77.96H112.208V78.952H119.936V77.96ZM123.152 82.808H116.704C116.672 83.112 116.624 83.416 116.56 83.704H121.792C121.792 83.704 121.776 84.152 121.744 84.376C121.568 86.472 121.376 87.464 120.976 87.864C120.624 88.232 120.208 88.344 119.712 88.392C119.264 88.424 118.448 88.44 117.6 88.408C117.568 87.928 117.376 87.272 117.104 86.824C117.824 86.904 118.528 86.92 118.832 86.92C119.088 86.92 119.248 86.888 119.392 86.76C119.568 86.6 119.696 86.136 119.808 85.16H116.112C115.488 86.584 114.32 87.672 111.968 88.392C111.792 87.944 111.312 87.256 110.928 86.904C113.872 86.12 114.544 84.744 114.8 82.808H112.064C111.84 84.728 111.28 86.76 110.016 88.216C109.664 87.88 108.848 87.368 108.384 87.16C110.176 85.16 110.352 82.264 110.352 80.136V76.584H121.792V80.328H117.648V81.32H123.152V82.808ZM125.136 77.272H127.12V88.424H125.136V77.272ZM125.36 74.44L126.864 73.528C127.616 74.216 128.48 75.224 128.864 75.944L127.248 76.968C126.912 76.28 126.08 75.208 125.36 74.44ZM129.424 74.216H138.08V75.992H129.424V74.216ZM137.008 74.216H139.008V86.376C139.008 87.272 138.848 87.704 138.32 88.008C137.776 88.312 137.008 88.328 136 88.328C135.936 87.848 135.696 87.08 135.456 86.616C135.968 86.648 136.56 86.632 136.752 86.632C136.96 86.632 137.008 86.552 137.008 86.36V74.216ZM130.448 82.504V84.04H133.552V82.504H130.448ZM130.448 79.448V80.968H133.552V79.448H130.448ZM128.736 77.912H135.344V85.576H128.736V77.912Z" fill="#ADADAD"/>
<path fill-rule="evenodd" clip-rule="evenodd" d="M155.586 81.9999L151.293 77.707L152.707 76.2928L157.707 81.2928C158.098 81.6833 158.098 82.3165 157.707 82.707L152.707 87.707L151.293 86.2928L155.586 81.9999Z" fill="#ADADAD"/>
<path d="M176.576 83.288H175.328C175.152 84.184 174.88 84.936 174.48 85.56C174.976 85.848 175.44 86.136 175.808 86.408C176.992 85.784 177.92 84.984 178.624 83.992C178.176 83.048 177.824 81.992 177.536 80.84C177.312 81.256 177.056 81.64 176.8 81.992C176.736 81.928 176.672 81.848 176.576 81.752V83.288ZM171.984 83.288L171.52 84.136C172 84.328 172.464 84.52 172.928 84.744C173.184 84.344 173.392 83.864 173.536 83.288H171.984ZM180.592 78.088H178.752C178.976 79.432 179.296 80.696 179.728 81.848C180.128 80.76 180.416 79.496 180.592 78.088ZM183.456 78.088H182.56C182.224 80.456 181.68 82.44 180.816 84.056C181.552 85.192 182.48 86.104 183.648 86.712C183.216 87.096 182.624 87.832 182.336 88.36C181.248 87.704 180.368 86.856 179.648 85.816C178.768 86.872 177.664 87.736 176.272 88.44C176.16 88.168 175.92 87.736 175.664 87.352L174.944 88.088C174.512 87.72 173.936 87.304 173.28 86.888C172.336 87.592 171.056 88.056 169.344 88.408C169.232 87.864 168.896 87.224 168.592 86.84C169.888 86.664 170.88 86.408 171.632 85.976C171.344 85.816 171.04 85.672 170.736 85.544L170.56 85.848L168.896 85.336C169.248 84.776 169.648 84.056 170.048 83.288H168.528V81.752H170.848C171.04 81.352 171.232 80.968 171.392 80.616L171.744 80.696V79.16C171.008 79.896 170.144 80.568 169.344 81.016C169.136 80.6 168.736 79.976 168.384 79.64C169.36 79.24 170.432 78.472 171.2 77.64H168.704V76.136H169.92C169.776 75.592 169.424 74.856 169.088 74.28L170.464 73.704C170.88 74.312 171.296 75.128 171.424 75.688L170.4 76.136H171.744V73.448H173.488V76.136H174.752L173.696 75.672C174.064 75.096 174.512 74.248 174.768 73.64L176.368 74.28C175.872 74.968 175.376 75.64 174.992 76.136H176.512V77.64H173.888C174.656 78.072 175.792 78.744 176.144 78.984L175.136 80.296C174.784 79.96 174.112 79.4 173.488 78.904V80.84H172.464L173.152 80.984L172.768 81.752H176.576C176.208 81.384 175.632 80.888 175.28 80.648C176.64 79.016 177.408 76.296 177.792 73.448L179.712 73.704C179.584 74.6 179.408 75.48 179.2 76.328H183.456V78.088ZM189.456 80.216L189.68 81.928C189.152 82.088 188.592 82.264 188.048 82.424V86.184C188.048 87.064 187.904 87.528 187.424 87.816C186.944 88.136 186.24 88.2 185.216 88.184C185.168 87.72 184.96 86.936 184.736 86.44C185.312 86.456 185.856 86.456 186.048 86.44C186.24 86.44 186.32 86.376 186.32 86.168V82.936L184.816 83.368L184.384 81.528C184.944 81.4 185.584 81.24 186.32 81.048V78.232H184.64V76.472H186.32V73.448H188.048V76.472H189.648V78.232H188.048V80.6L189.456 80.216ZM191.952 80.12H194.32V78.712H191.968V78.968C191.968 79.336 191.968 79.704 191.952 80.12ZM197.104 75.704H191.968V77.08H197.104V75.704ZM197.264 86.424V84.824H193.392V86.424H197.264ZM199.344 81.72H196.096V83.256H198.976V88.376H197.264V87.928H193.392V88.392H191.76V83.256H194.32V81.72H191.856C191.68 84.056 191.168 86.632 189.952 88.44C189.616 88.104 188.816 87.528 188.416 87.32C189.984 84.968 190.112 81.464 190.112 78.968V74.088H198.896V78.712H196.096V80.12H199.344V81.72ZM209.04 85.368H215.312V87.288H200.768V85.368H206.864V77.096H201.632V75.112H214.416V77.096H209.04V85.368ZM220.032 73.512L221.888 74.088C221.472 75.208 220.944 76.344 220.352 77.416V88.376H218.432V80.376C218.096 80.776 217.76 81.176 217.44 81.528C217.264 81.064 216.72 79.976 216.384 79.496C217.84 78.056 219.232 75.784 220.032 73.512ZM231.504 77.864H226.96V79.544H231.104V81.272H226.96V83.08H231.312V84.84H226.96V88.392H225.008V77.864H224.4C223.76 79.048 223.024 80.136 222.304 80.968C222 80.616 221.248 79.944 220.848 79.64C222.256 78.2 223.52 75.896 224.24 73.608L226.08 74.072C225.856 74.744 225.6 75.4 225.296 76.056H231.504V77.864Z" fill="white"/>
<rect width="914" height="44" transform="translate(0 108)" fill="#333333"/>
<g clip-path="url(#clip1_180_15111)">
<rect x="16" y="108" width="882" height="32" rx="3" fill="#282828"/>
<path d="M28.758 123.527L28.953 124.931C28.485 125.061 28.017 125.191 27.549 125.321V128.506C27.549 129.247 27.419 129.624 27.003 129.845C26.561 130.092 25.95 130.131 25.04 130.131C25.001 129.728 24.793 129.13 24.624 128.727C25.118 128.753 25.651 128.753 25.82 128.753C26.002 128.753 26.054 128.688 26.054 128.506V125.724L24.689 126.088L24.299 124.606C24.793 124.502 25.404 124.372 26.054 124.216V121.863H24.507V120.433H26.054V118.002H27.549V120.433H28.797V121.863H27.549V123.839L28.758 123.527ZM34.075 126.335H31.02C31.41 126.803 31.917 127.219 32.541 127.557C33.139 127.219 33.659 126.816 34.075 126.335ZM30.5 122.929H31.904V119.51C31.462 119.757 30.968 119.965 30.5 120.147V120.979H31.501V122.071H30.5V122.929ZM35.271 125.009L36.22 125.451C35.726 126.621 34.959 127.518 33.997 128.207C34.816 128.493 35.739 128.701 36.727 128.831C36.389 129.156 35.986 129.767 35.778 130.17C34.517 129.949 33.399 129.598 32.424 129.104C31.319 129.598 30.058 129.923 28.706 130.131C28.576 129.741 28.29 129.169 28.043 128.844C29.109 128.727 30.11 128.519 31.02 128.22C30.448 127.778 29.954 127.258 29.538 126.673L30.435 126.335H28.927V125.074H31.904V124.138H29.161V118.977L29.837 119.185C30.318 118.938 30.812 118.626 31.124 118.353L31.904 119.094V118.002H33.282V122.929H34.777V122.071H33.672V120.979H34.777V120.16H33.659V118.951H36.155V124.138H33.282V125.074H35.011L35.271 125.009ZM40.471 127.193L41.94 127.752C41.095 128.636 39.782 129.52 38.69 130.04C38.417 129.741 37.845 129.208 37.507 128.948C38.599 128.545 39.795 127.882 40.471 127.193ZM47.582 126.946L44.228 127.05V130.131H42.694V127.102C40.887 127.154 39.223 127.193 37.897 127.219L37.819 125.841C38.638 125.841 39.639 125.841 40.744 125.828C40.939 125.724 41.134 125.607 41.329 125.49C40.705 125.022 39.847 124.489 39.132 124.125L40.159 123.241C40.328 123.332 40.523 123.423 40.705 123.527C41.121 123.189 41.563 122.786 41.927 122.409H39.327V123.813H37.858V121.122H42.681V120.329H37.975V119.003H42.681V117.989H44.202V119.003H48.999V120.329H44.202V121.122H49.168V123.813H47.634V122.409H43.331L43.734 122.604C43.11 123.163 42.408 123.722 41.797 124.164C42.083 124.346 42.356 124.528 42.59 124.697C43.552 124.06 44.462 123.371 45.138 122.773L46.516 123.514C45.489 124.294 44.254 125.113 43.071 125.815C44.059 125.802 45.086 125.789 46.126 125.776C45.814 125.542 45.502 125.334 45.203 125.139L46.217 124.359C47.231 124.996 48.609 125.958 49.298 126.647L48.206 127.531C48.037 127.362 47.829 127.154 47.582 126.946ZM44.982 127.934L46.152 127.154C47.166 127.687 48.583 128.532 49.324 129.13L48.05 130.001C47.413 129.416 46.035 128.519 44.982 127.934Z" fill="#5C5C5C"/>
</g>
<rect x="16.5" y="108.5" width="881" height="31" rx="2.5" stroke="#474747"/>
<rect width="914" height="378" transform="translate(0 152)" fill="#333333"/>
<rect width="914" height="48" transform="translate(0 152)" fill="#333333"/>
<g clip-path="url(#clip2_180_15111)">
<path d="M18 166C18 164.896 18.8954 164 20 164H28C29.1046 164 30 164.896 30 166V168H44C45.1046 168 46 168.896 46 170V172C46 170.896 45.1046 170 44 170H20C18.8954 170 18 170.896 18 172V166Z" fill="#788790"/>
<rect x="18" y="170" width="28" height="18" rx="2" fill="#B2BBC0"/>
</g>
<path d="M69.426 175.246V176.912H63.882V180.272C63.882 181.238 63.672 181.686 63 181.952C62.342 182.218 61.362 182.26 60.088 182.246C59.976 181.756 59.654 180.986 59.388 180.524C60.354 180.566 61.432 180.566 61.754 180.566C62.048 180.566 62.146 180.496 62.146 180.244V176.912H56.588V175.246H62.146V173.034H62.972C63.658 172.628 64.372 172.124 64.974 171.634H58.044V169.996H66.71L67.088 169.912L68.362 170.864C67.172 172.096 65.464 173.44 63.882 174.35V175.246H69.426ZM79.422 172.978H74.508C75.11 174.49 75.936 175.834 77.014 176.968C78.022 175.876 78.82 174.56 79.422 172.978ZM83.398 172.978H81.382C80.626 175.05 79.604 176.744 78.316 178.144C79.758 179.25 81.522 180.076 83.65 180.552C83.244 180.958 82.712 181.742 82.46 182.218C80.206 181.644 78.386 180.706 76.916 179.46C75.39 180.678 73.584 181.588 71.456 182.26C71.26 181.826 70.742 181.042 70.406 180.636C72.478 180.09 74.228 179.292 75.642 178.214C74.382 176.772 73.416 175.022 72.66 172.978H70.658V171.354H76.146V169.142H77.84V171.354H83.398V172.978ZM87.416 169.198L88.998 169.702C88.62 170.696 88.158 171.718 87.626 172.684V182.204H86.044V175.162C85.764 175.512 85.484 175.862 85.204 176.17C85.05 175.75 84.588 174.854 84.308 174.434C85.54 173.174 86.73 171.186 87.416 169.198ZM97.482 175.89V177.514H93.898V182.218H92.218V177.514H88.438V175.89H92.218V173.482H90.51C90.258 174.168 89.95 174.798 89.642 175.288C89.334 175.064 88.606 174.672 88.2 174.49C88.956 173.398 89.53 171.62 89.852 169.912L91.462 170.248C91.35 170.794 91.21 171.326 91.056 171.858H92.218V169.324H93.898V171.858H96.824V173.482H93.898V175.89H97.482ZM111.286 177.248H106.526C107.478 178.956 109.074 180.132 111.482 180.636C111.104 180.972 110.628 181.7 110.404 182.148C107.758 181.462 106.12 180.048 105.028 177.92C104.216 179.88 102.648 181.308 99.624 182.218C99.442 181.756 98.966 181.07 98.574 180.72C101.262 179.978 102.648 178.858 103.376 177.248H98.728V175.554H101.15C101.066 174.91 100.73 173.916 100.38 173.174L101.864 172.824C102.256 173.566 102.648 174.574 102.76 175.204L101.388 175.554H103.866C104.034 174.728 104.104 173.776 104.132 172.74H99.274V171.102H104.16V169.156H105.966C105.966 169.828 105.966 170.472 105.952 171.102H110.712V172.74H105.91C105.882 173.748 105.812 174.7 105.672 175.554H107.912L106.876 175.26C107.268 174.574 107.744 173.51 107.968 172.74L109.648 173.16C109.214 174.028 108.71 174.924 108.304 175.554H111.286V177.248Z" fill="white"/>
<rect width="914" height="48" transform="translate(0 200)" fill="#333333"/>
<g clip-path="url(#clip3_180_15111)">
<path d="M18 214C18 212.896 18.8954 212 20 212H28C29.1046 212 30 212.896 30 214V216H44C45.1046 216 46 216.896 46 218V220C46 218.896 45.1046 218 44 218H20C18.8954 218 18 218.896 18 220V214Z" fill="#788790"/>
<rect x="18" y="218" width="28" height="18" rx="2" fill="#B2BBC0"/>
</g>
<path d="M69.426 223.246V224.912H63.882V228.272C63.882 229.238 63.672 229.686 63 229.952C62.342 230.218 61.362 230.26 60.088 230.246C59.976 229.756 59.654 228.986 59.388 228.524C60.354 228.566 61.432 228.566 61.754 228.566C62.048 228.566 62.146 228.496 62.146 228.244V224.912H56.588V223.246H62.146V221.034H62.972C63.658 220.628 64.372 220.124 64.974 219.634H58.044V217.996H66.71L67.088 217.912L68.362 218.864C67.172 220.096 65.464 221.44 63.882 222.35V223.246H69.426ZM79.422 220.978H74.508C75.11 222.49 75.936 223.834 77.014 224.968C78.022 223.876 78.82 222.56 79.422 220.978ZM83.398 220.978H81.382C80.626 223.05 79.604 224.744 78.316 226.144C79.758 227.25 81.522 228.076 83.65 228.552C83.244 228.958 82.712 229.742 82.46 230.218C80.206 229.644 78.386 228.706 76.916 227.46C75.39 228.678 73.584 229.588 71.456 230.26C71.26 229.826 70.742 229.042 70.406 228.636C72.478 228.09 74.228 227.292 75.642 226.214C74.382 224.772 73.416 223.022 72.66 220.978H70.658V219.354H76.146V217.142H77.84V219.354H83.398V220.978ZM87.416 217.198L88.998 217.702C88.62 218.696 88.158 219.718 87.626 220.684V230.204H86.044V223.162C85.764 223.512 85.484 223.862 85.204 224.17C85.05 223.75 84.588 222.854 84.308 222.434C85.54 221.174 86.73 219.186 87.416 217.198ZM97.482 223.89V225.514H93.898V230.218H92.218V225.514H88.438V223.89H92.218V221.482H90.51C90.258 222.168 89.95 222.798 89.642 223.288C89.334 223.064 88.606 222.672 88.2 222.49C88.956 221.398 89.53 219.62 89.852 217.912L91.462 218.248C91.35 218.794 91.21 219.326 91.056 219.858H92.218V217.324H93.898V219.858H96.824V221.482H93.898V223.89H97.482ZM111.286 225.248H106.526C107.478 226.956 109.074 228.132 111.482 228.636C111.104 228.972 110.628 229.7 110.404 230.148C107.758 229.462 106.12 228.048 105.028 225.92C104.216 227.88 102.648 229.308 99.624 230.218C99.442 229.756 98.966 229.07 98.574 228.72C101.262 227.978 102.648 226.858 103.376 225.248H98.728V223.554H101.15C101.066 222.91 100.73 221.916 100.38 221.174L101.864 220.824C102.256 221.566 102.648 222.574 102.76 223.204L101.388 223.554H103.866C104.034 222.728 104.104 221.776 104.132 220.74H99.274V219.102H104.16V217.156H105.966C105.966 217.828 105.966 218.472 105.952 219.102H110.712V220.74H105.91C105.882 221.748 105.812 222.7 105.672 223.554H107.912L106.876 223.26C107.268 222.574 107.744 221.51 107.968 220.74L109.648 221.16C109.214 222.028 108.71 222.924 108.304 223.554H111.286V225.248Z" fill="white"/>
<rect width="914" height="48" transform="translate(0 248)" fill="#333333"/>
<g clip-path="url(#clip4_180_15111)">
<g clip-path="url(#clip5_180_15111)">
<path d="M21 258H35L43 266V286H21V258Z" fill="white"/>
<path fill-rule="evenodd" clip-rule="evenodd" d="M21 286H43V266L35 258H21V286ZM35 257H20V287H44V266L35 257Z" fill="url(#paint0_linear_180_15111)"/>
<path fill-rule="evenodd" clip-rule="evenodd" d="M23 276C23 275.448 23.4477 275 24 275H40C40.5523 275 41 275.448 41 276V283C41 283.552 40.5523 284 40 284H24C23.4477 284 23 283.552 23 283V276ZM31 281V282H29V277H30V281H31ZM26 277L26.5 278.528L27 277H28L27.0831 279.5L28 282H27L26.5 280.472L26 282H25L25.9169 279.5L25 277H26ZM37.5 278.528L37 277H36L36.9169 279.5L36 282H37L37.5 280.472L38 282H39L38.0831 279.5L39 277H38L37.5 278.528ZM32.6582 280.555C32.6582 280.555 33.2754 281 33.5918 281C33.9355 281 34.1094 280.773 34.1094 280.555C34.1094 280.353 33.788 280.161 33.3961 279.927C32.784 279.56 32 279.091 32 278.324C32 277.534 32.7407 277 33.5312 277C34.4375 277 34.9219 277.625 34.9219 277.625L34.2812 278.367C34.2812 278.367 34.0645 278 33.6172 278C33.3105 278 33.0195 278.078 33.0195 278.344C33.0195 278.524 33.3234 278.715 33.6975 278.95C34.2961 279.326 35.0746 279.816 35.0746 280.555C35.0746 281.42 34.416 282.004 33.5357 282.004C32.8301 282.004 32.0684 281.324 32.0684 281.324L32.6582 280.555Z" fill="#6AAA1E"/>
<path fill-rule="evenodd" clip-rule="evenodd" d="M23 260H35V261H30V263H35V264H30V266H41V273H23V260ZM29 266V264H24V266H29ZM24 267H29V269H24V267ZM24 270V272H29V270H24ZM30 270V272H35V270H30ZM36 270V272H40V270H36ZM40 269H36V267H40V269ZM35 267V269H30V267H35ZM24 263H29V261H24V263Z" fill="#BFBFBF"/>
<path opacity="0.3" d="M34 267V258H35V266H43V267H34Z" fill="black"/>
</g>
</g>
<path d="M58.338 270.14H67.494V271.68H58.338V270.14ZM61.992 265.198H63.798V275.39C63.798 276.272 63.91 276.398 64.68 276.398C65.044 276.398 66.612 276.398 66.99 276.398C67.704 276.398 67.844 276.006 67.97 274.354C68.39 274.648 69.118 274.956 69.636 275.082C69.398 277.294 68.866 278.106 67.158 278.106C66.696 278.106 64.904 278.106 64.484 278.106C62.552 278.106 61.992 277.518 61.992 275.376V265.198ZM58.604 267.13H68.264V274.62H58.604V272.982H66.542V268.782H58.604V267.13ZM57.54 267.13H59.276V275.432H57.54V267.13ZM83.426 271.246V272.912H77.882V276.272C77.882 277.238 77.672 277.686 77 277.952C76.342 278.218 75.362 278.26 74.088 278.246C73.976 277.756 73.654 276.986 73.388 276.524C74.354 276.566 75.432 276.566 75.754 276.566C76.048 276.566 76.146 276.496 76.146 276.244V272.912H70.588V271.246H76.146V269.034H76.972C77.658 268.628 78.372 268.124 78.974 267.634H72.044V265.996H80.71L81.088 265.912L82.362 266.864C81.172 268.096 79.464 269.44 77.882 270.35V271.246H83.426ZM95.76 271.918L97.146 272.954C96.264 273.584 95.228 274.228 94.36 274.69C95.186 275.614 96.278 276.3 97.664 276.692C97.3 277.042 96.824 277.714 96.586 278.176C93.632 277.168 92.092 275.04 91.168 271.932C90.636 272.436 90.006 272.912 89.334 273.346V275.95C90.328 275.74 91.378 275.516 92.386 275.292L92.54 276.804C90.342 277.322 87.99 277.812 86.254 278.19L85.764 276.65C86.31 276.552 86.968 276.426 87.668 276.286V274.284C86.898 274.662 86.114 274.97 85.344 275.208C85.106 274.83 84.63 274.2 84.28 273.864C85.946 273.43 87.738 272.632 89.054 271.722H84.798V270.308H90.132V269.524H85.974V268.194H90.132V267.48H85.316V266.066H90.132V265.142H91.798V266.066H96.726V267.48H91.798V268.194H96.18V269.524H91.798V270.308H97.174V271.722H92.722C92.946 272.408 93.212 273.024 93.562 273.598C94.346 273.08 95.186 272.45 95.76 271.918ZM105.868 272.996H109.158C108.542 272.66 107.982 272.268 107.478 271.848C106.974 272.282 106.442 272.66 105.868 272.996ZM105.952 276.3H108.878V274.396H105.952V276.3ZM103.74 271.862L103.264 272.52C104.384 272.1 105.448 271.512 106.358 270.756C105.966 270.308 105.616 269.846 105.308 269.384C104.972 269.79 104.622 270.154 104.272 270.462C104.062 270.238 103.628 269.846 103.264 269.552H102.074V269.888C102.452 270.294 103.502 271.54 103.74 271.862ZM108.612 268.026H106.316L106.218 268.166C106.54 268.698 106.932 269.23 107.422 269.734C107.884 269.216 108.29 268.642 108.612 268.026ZM109.662 266.556L110.712 267.046C110.236 268.502 109.508 269.734 108.584 270.77C109.466 271.442 110.53 271.988 111.748 272.324C111.412 272.646 110.95 273.304 110.74 273.71L110.488 273.612V278.176H108.878V277.728H105.952V278.218H104.398V273.738C104.16 273.85 103.922 273.948 103.684 274.032C103.53 273.71 103.236 273.262 102.97 272.926L102.844 273.108C102.676 272.758 102.382 272.24 102.074 271.75V278.204H100.506V272.898C100.114 274.018 99.638 275.054 99.106 275.768C98.952 275.306 98.588 274.662 98.336 274.256C99.19 273.15 99.988 271.218 100.38 269.552H98.672V268.012H100.506V265.142H102.074V268.012H103.642V268.768C104.636 267.802 105.504 266.472 106.008 265.128L107.59 265.562C107.45 265.912 107.296 266.262 107.128 266.612H109.382L109.662 266.556Z" fill="white"/>
</g>
<defs>
<linearGradient id="paint0_linear_180_15111" x1="32" y1="286" x2="32" y2="257" gradientUnits="userSpaceOnUse">
<stop stop-color="#A8A8A8"/>
<stop offset="1" stop-color="#DADADA"/>
</linearGradient>
<clipPath id="clip0_180_15111">
<rect width="550" height="318" fill="white"/>
</clipPath>
<clipPath id="clip1_180_15111">
<rect x="16" y="108" width="882" height="32" rx="3" fill="white"/>
</clipPath>
<clipPath id="clip2_180_15111">
<rect width="32" height="32" fill="white" transform="translate(16 160)"/>
</clipPath>
<clipPath id="clip3_180_15111">
<rect width="32" height="32" fill="white" transform="translate(16 208)"/>
</clipPath>
<clipPath id="clip4_180_15111">
<rect width="32" height="32" fill="white" transform="translate(16 256)"/>
</clipPath>
<clipPath id="clip5_180_15111">
<rect width="32" height="32" fill="white" transform="translate(16 256)"/>
</clipPath>
</defs>
</svg>
