<svg width="550" height="318" viewBox="0 0 550 318" fill="none" xmlns="http://www.w3.org/2000/svg">
<g clip-path="url(#clip0_180_14960)">
<rect width="550" height="318" fill="white"/>
<g clip-path="url(#clip1_180_14960)">
<rect width="251" height="69" fill="#F8F9F9"/>
<path fill-rule="evenodd" clip-rule="evenodd" d="M31.1327 45.7058L20.6685 40.7648C19.7772 40.3335 19.7772 39.6668 20.6685 39.2747L24.3116 37.5493L31.0939 40.7648C31.9853 41.1962 33.4193 41.1962 34.2719 40.7648L41.0542 37.5493L44.6973 39.2747C45.5887 39.706 45.5887 40.3727 44.6973 40.7648L34.2332 45.7058C33.4193 46.098 31.9853 46.098 31.1327 45.7058Z" fill="#FF6F3D"/>
<path fill-rule="evenodd" clip-rule="evenodd" d="M31.0988 39.5916L20.6665 34.6448C19.7778 34.213 19.7778 33.5456 20.6665 33.153L24.2212 31.4648L31.0988 34.7234C31.9874 35.1552 33.4171 35.1552 34.2671 34.7234L41.1447 31.4648L44.6993 33.153C45.588 33.5848 45.588 34.2522 44.6993 34.6448L34.2671 39.5916C33.3784 40.0234 31.9488 40.0234 31.0988 39.5916Z" fill="#95C038"/>
<path fill-rule="evenodd" clip-rule="evenodd" d="M31.0988 33.5408L20.6665 28.6652C19.7778 28.2396 19.7778 27.5817 20.6665 27.1948L31.0988 22.3192C31.9874 21.8936 33.4171 21.8936 34.2671 22.3192L44.6993 27.1948C45.588 27.6204 45.588 28.2783 44.6993 28.6652L34.2671 33.5408C33.3784 33.9277 31.9488 33.9277 31.0988 33.5408Z" fill="#5DC0E8"/>
<path d="M57.693 27.8667C54.674 27.8667 51.7073 29.6484 51.7073 34C51.7073 38.3516 54.674 40.1334 57.693 40.1334C60.712 40.1334 63.6787 38.3516 63.6787 34C63.6787 29.6484 60.712 27.8667 57.693 27.8667ZM57.693 29.5799C58.6179 29.5799 61.0611 29.9397 61.0611 34C61.0611 38.0604 58.6179 38.4201 57.693 38.4201C56.7681 38.4201 54.3249 38.0604 54.3249 34C54.3249 29.9397 56.7681 29.5799 57.693 29.5799Z" fill="#333333"/>
<path d="M65.692 28.0038V39.9963H68.1701V32.9378L68.1177 30.8134H68.1701L68.7809 32.1497L73.0389 39.9963H76.2499V28.0038H73.7719V35.0622L73.8242 37.1866H73.7719L73.1262 35.5591L68.903 28.0038H65.692Z" fill="#333333"/>
<path d="M78.6951 28.0038V39.9963H86.0246V37.9747H81.1732V28.0038H78.6951Z" fill="#333333"/>
<path d="M83.9305 28.0038L88.4329 35.0965V39.9963H90.9109V35.1308L95.3086 28.0038H92.6909L90.1605 32.2183L89.7417 33.0406H89.6893L89.3054 32.2183L86.7924 28.0038H83.9305Z" fill="#333333"/>
<path d="M101.082 27.8667C98.0631 27.8667 95.0964 29.6484 95.0964 34C95.0964 38.3516 98.0631 40.1334 101.082 40.1334C104.101 40.1334 107.068 38.3516 107.068 34C107.068 29.6484 104.101 27.8667 101.082 27.8667ZM101.082 29.5799C102.007 29.5799 104.45 29.9397 104.45 34C104.45 38.0604 102.007 38.4201 101.082 38.4201C100.157 38.4201 97.7141 38.0604 97.7141 34C97.7141 29.9397 100.157 29.5799 101.082 29.5799Z" fill="#333333"/>
<path d="M109.081 28.0038V39.9963H111.559V34.908H115.713V32.9378H111.559V30.0254H115.922V28.0038H109.081Z" fill="#333333"/>
<path d="M117.67 28.0038V39.9963H120.148V34.908H124.302V32.9378H120.148V30.0254H124.511V28.0038H117.67Z" fill="#333333"/>
<path d="M126.26 39.9963H128.738V28.0038H126.26V39.9963Z" fill="#333333"/>
<path d="M140.102 37.5807C139.492 37.8548 138.636 38.1118 137.554 38.1118C135.356 38.1118 133.366 36.9296 133.366 34.0343C133.366 31.5844 134.989 29.8883 137.729 29.8883C138.654 29.8883 139.439 30.0596 140.155 30.3337L140.259 28.2779C139.334 27.9866 138.514 27.8667 137.554 27.8667C133.715 27.8667 130.749 29.9397 130.749 34.0686C130.749 38.4373 134.064 40.1334 137.101 40.1334C138.078 40.1334 139.177 39.9792 140.259 39.6194L140.102 37.5807Z" fill="#333333"/>
<path d="M142.177 28.0038V39.9963H149.471V37.8719H144.655V34.8052H149.035V32.835H144.655V30.1281H149.471V28.0038H142.177Z" fill="#333333"/>
<path d="M157.658 30.53H161.76V31.51H157.658V30.53ZM159.24 27.24H160.248V40.106H159.24V27.24ZM162.18 29.9H168.032V30.922H162.18V29.9ZM167.626 29.9H168.634C168.634 29.9 168.634 30.292 168.634 30.432C168.48 36.69 168.354 38.776 167.864 39.406C167.584 39.798 167.29 39.91 166.842 39.966C166.408 40.008 165.652 39.994 164.91 39.952C164.882 39.658 164.77 39.224 164.588 38.944C165.386 39 166.128 39.014 166.422 39.014C166.674 39.014 166.814 38.972 166.954 38.79C167.346 38.342 167.486 36.172 167.626 30.152V29.9ZM162.404 32.364L163.342 32.56C163.048 34.03 162.502 35.5 161.858 36.48C161.69 36.326 161.298 36.06 161.06 35.92C161.69 35.024 162.138 33.708 162.404 32.364ZM168.732 32.588L169.614 32.406C170.02 33.694 170.454 35.374 170.594 36.354L169.628 36.592C169.516 35.598 169.124 33.89 168.732 32.588ZM164.686 27.38H165.68V29.886C165.68 32.994 165.386 37.082 161.718 40.148C161.55 39.91 161.172 39.588 160.92 39.434C164.434 36.55 164.686 32.756 164.686 29.886V27.38ZM177.678 29.592H184.314V30.6H177.188L177.678 29.592ZM179.428 32.63H183.992V33.596H179.428V32.63ZM179.414 35.71H184.188V36.704H179.414V35.71ZM178.896 29.914H179.974V40.12H178.896V29.914ZM178.21 27.408L179.232 27.674C178.434 29.9 177.216 32.098 175.928 33.54C175.774 33.358 175.354 32.98 175.116 32.812C176.39 31.51 177.524 29.466 178.21 27.408ZM174.85 27.296L175.858 27.618C174.934 29.984 173.492 32.378 171.966 33.946C171.868 33.694 171.546 33.134 171.35 32.882C172.75 31.524 174.052 29.424 174.85 27.296ZM173.352 30.908L174.388 29.858L174.416 29.872V40.106H173.352V30.908ZM191.146 34.814H192.252V39.168H191.146V34.814ZM185.77 28.948H197.684V31.776H196.606V29.928H186.82V32.112H185.77V28.948ZM187.254 34.198H196.256V35.15H187.254V34.198ZM185.798 38.692H197.684V39.658H185.798V38.692ZM192.616 31.496L193.26 30.796C194.66 31.482 196.578 32.532 197.572 33.19L196.886 34.016C195.934 33.344 194.03 32.224 192.616 31.496ZM190.082 30.754L190.824 31.384C189.704 32.378 188.15 33.442 186.526 34.142L185.91 33.232C187.562 32.63 189.004 31.678 190.082 30.754ZM190.642 27.464L191.748 27.156C192.084 27.786 192.504 28.64 192.7 29.172L191.552 29.55C191.37 29.018 190.992 28.122 190.642 27.464ZM199.854 30.404H200.918V40.134H199.854V30.404ZM200.05 27.926L200.862 27.436C201.52 28.01 202.276 28.85 202.626 29.424L201.744 29.998C201.436 29.424 200.694 28.556 200.05 27.926ZM203.494 28.038H210.872V29.018H203.494V28.038ZM210.27 28.038H211.348V38.846C211.348 39.434 211.236 39.714 210.872 39.882C210.494 40.05 209.892 40.064 209.024 40.064C208.982 39.798 208.842 39.364 208.702 39.084C209.29 39.112 209.864 39.098 210.032 39.098C210.228 39.098 210.27 39.028 210.27 38.846V28.038ZM203.872 34.87V36.76H207.246V34.87H203.872ZM203.872 32.126V34.002H207.246V32.126H203.872ZM202.92 31.258H208.24V37.642H202.92V31.258Z" fill="#333333"/>
<rect width="251" height="48" transform="translate(0 69)" fill="#F8F9F9"/>
<rect x="20" y="69" width="211" height="32" rx="3" fill="#4781D1"/>
<path d="M37.616 80.584H35.2C35.472 81.128 35.68 81.864 35.744 82.344L34.944 82.568H38.08L37.024 82.344C37.232 81.864 37.488 81.128 37.616 80.584ZM37.408 86.968V87.096C37.984 87.496 39.312 88.552 39.68 88.84L38.576 90.2C38.32 89.88 37.872 89.4 37.408 88.952V92.36H35.568V89.144C34.944 90.04 34.224 90.84 33.536 91.4C33.248 90.984 32.704 90.36 32.304 90.056C33.344 89.368 34.448 88.168 35.184 86.968H32.752V85.368H35.568V84.136H32.704V82.568H34.176C34.112 82.04 33.92 81.352 33.696 80.808L34.672 80.584H32.88V79.032H35.568V77.576H37.408V79.032H40.064V80.584H38.416L39.344 80.76C39.056 81.448 38.8 82.088 38.576 82.568H40.192V84.136H37.408V85.368H40.048V86.968H37.408ZM47.456 82.712V84.472H45.936V92.296H44.096V84.472H42.464C42.448 86.856 42.112 90.232 40 92.424C39.76 92.008 39.072 91.352 38.64 91.128C40.48 89.176 40.672 86.456 40.672 84.248V78.712L41.776 79.016C43.296 78.648 44.88 78.136 45.856 77.608L47.376 79C45.968 79.624 44.144 80.12 42.464 80.472V82.712H47.456ZM60.352 79.912H58.896V80.568H60.352V79.912ZM60.352 82.68V82.024H58.896V82.68H60.352ZM57.04 80.568V79.912H54.112V78.472H57.04V77.56H58.896V78.472H62.224V80.568H63.424V82.024H62.224V84.12H58.896V84.824H62.352V86.2H58.896V86.952H63.088V88.44H58.896V89.736H57.04V88.44H53.248V86.952H57.04V86.2H53.936V84.824H57.04V84.12H54.032V82.68H57.04V82.024H53.024V80.568H57.04ZM52.432 82.792L53.552 83.048C53.36 85.336 52.976 87.224 52.416 88.744C53.904 89.928 55.92 90.168 58.256 90.184C59.2 90.184 62.448 90.184 63.616 90.136C63.312 90.568 63.008 91.464 62.88 91.992H58.208C55.504 91.992 53.328 91.672 51.632 90.392C51.136 91.256 50.544 91.928 49.856 92.456C49.568 92.072 48.832 91.416 48.432 91.176C49.184 90.648 49.808 89.944 50.304 89.032C49.712 88.232 49.216 87.208 48.8 85.928L50.288 85.384C50.496 86.088 50.768 86.68 51.072 87.192C51.312 86.392 51.504 85.496 51.632 84.504H50.544L50.336 84.968L48.608 84.52C49.296 83.112 50.064 81.384 50.656 79.992H48.576V78.328H51.504L51.792 78.264L53.088 78.616C52.608 79.864 51.952 81.384 51.296 82.84H52.096L52.432 82.792ZM78.784 78.184V79.88H65.296V78.184H78.784ZM71.76 84.328H68.208C68.208 84.648 68.192 84.984 68.176 85.32H71.76V84.328ZM75.936 81.96H68.208V82.952H75.936V81.96ZM79.152 86.808H72.704C72.672 87.112 72.624 87.416 72.56 87.704H77.792C77.792 87.704 77.776 88.152 77.744 88.376C77.568 90.472 77.376 91.464 76.976 91.864C76.624 92.232 76.208 92.344 75.712 92.392C75.264 92.424 74.448 92.44 73.6 92.408C73.568 91.928 73.376 91.272 73.104 90.824C73.824 90.904 74.528 90.92 74.832 90.92C75.088 90.92 75.248 90.888 75.392 90.76C75.568 90.6 75.696 90.136 75.808 89.16H72.112C71.488 90.584 70.32 91.672 67.968 92.392C67.792 91.944 67.312 91.256 66.928 90.904C69.872 90.12 70.544 88.744 70.8 86.808H68.064C67.84 88.728 67.28 90.76 66.016 92.216C65.664 91.88 64.848 91.368 64.384 91.16C66.176 89.16 66.352 86.264 66.352 84.136V80.584H77.792V84.328H73.648V85.32H79.152V86.808ZM81.136 81.272H83.12V92.424H81.136V81.272ZM81.36 78.44L82.864 77.528C83.616 78.216 84.48 79.224 84.864 79.944L83.248 80.968C82.912 80.28 82.08 79.208 81.36 78.44ZM85.424 78.216H94.08V79.992H85.424V78.216ZM93.008 78.216H95.008V90.376C95.008 91.272 94.848 91.704 94.32 92.008C93.776 92.312 93.008 92.328 92 92.328C91.936 91.848 91.696 91.08 91.456 90.616C91.968 90.648 92.56 90.632 92.752 90.632C92.96 90.632 93.008 90.552 93.008 90.36V78.216ZM86.448 86.504V88.04H89.552V86.504H86.448ZM86.448 83.448V84.968H89.552V83.448H86.448ZM84.736 81.912H91.344V89.576H84.736V81.912Z" fill="white"/>
<path d="M213.754 87.6845C213.356 88.1052 212.644 88.1052 212.246 87.6845L209.245 84.5118C208.686 83.9201 209.145 83 210 83L216 83C216.855 83 217.314 83.9201 216.755 84.5118L213.754 87.6845Z" fill="white"/>
<rect width="251" height="340" transform="translate(0 117)" fill="#F8F9F9"/>
<rect width="251" height="36" transform="translate(0 117)" fill="#F8F9F9"/>
<path fill-rule="evenodd" clip-rule="evenodd" d="M35 127C33.8954 127 33 127.895 33 129V141C33 142.105 33.8954 143 35 143H45C46.1046 143 47 142.105 47 141V131.111C47 130.852 46.8996 130.603 46.7198 130.417L43.7198 127.306C43.5314 127.11 43.2715 127 43 127H35ZM35 129L42.5751 129L45 131.515V141H35V129ZM36 133H42V131H36V133ZM36 136H44V134H36V136ZM36 139H44V137H36V139Z" fill="#657077"/>
<path d="M64.749 132.551H60.186C60.745 133.955 61.512 135.203 62.513 136.256C63.449 135.242 64.19 134.02 64.749 132.551ZM68.441 132.551H66.569C65.867 134.475 64.918 136.048 63.722 137.348C65.061 138.375 66.699 139.142 68.675 139.584C68.298 139.961 67.804 140.689 67.57 141.131C65.477 140.598 63.787 139.727 62.422 138.57C61.005 139.701 59.328 140.546 57.352 141.17C57.17 140.767 56.689 140.039 56.377 139.662C58.301 139.155 59.926 138.414 61.239 137.413C60.069 136.074 59.172 134.449 58.47 132.551H56.611V131.043H61.707V128.989H63.28V131.043H68.441V132.551ZM79.816 129.834L81.298 130.211C80.856 131.316 80.336 132.525 79.907 133.305L78.685 132.928C79.101 132.122 79.582 130.809 79.816 129.834ZM76.384 132.707L75.071 133.24C74.876 132.434 74.408 131.173 74.005 130.237L75.253 129.782C75.682 130.718 76.15 131.914 76.384 132.707ZM74.356 135.84L73.485 137.023C73.329 136.607 73.017 136.009 72.705 135.437V141.118H71.249V136.022C70.885 137.14 70.469 138.18 69.975 138.882C69.832 138.44 69.494 137.829 69.273 137.452C70.001 136.425 70.677 134.631 71.015 133.097H69.585V131.667H71.249V128.989H72.705V131.667H74.174V133.097H72.705V133.526C73.095 134.007 74.122 135.489 74.356 135.84ZM78.321 129.041V133.786H81.064V140.962H79.543V140.416H73.797V138.934H79.543V137.751H74.278V136.373H79.543V135.255H74.096V133.786H76.839V129.041H78.321Z" fill="#555F65"/>
<rect width="251" height="36" transform="translate(0 153)" fill="#F8F9F9"/>
<path fill-rule="evenodd" clip-rule="evenodd" d="M32 167C32 165.343 33.3431 164 35 164H44C45.6569 164 47 165.343 47 167V176C47 177.657 45.6569 179 44 179H35C33.3431 179 32 177.657 32 176V167ZM35 166C34.4477 166 34 166.448 34 167V176C34 176.552 34.4477 177 35 177H44C44.5523 177 45 176.552 45 176V167C45 166.448 44.5523 166 44 166H35ZM36 169C36 168.448 36.4477 168 37 168H38C38.5523 168 39 168.448 39 169V170C39 170.552 38.5523 171 38 171H37C36.4477 171 36 170.552 36 170V169ZM37 172C36.4477 172 36 172.448 36 173V174C36 174.552 36.4477 175 37 175H38C38.5523 175 39 174.552 39 174V173C39 172.448 38.5523 172 38 172H37ZM40 169C40 168.448 40.4477 168 41 168H42C42.5523 168 43 168.448 43 169V170C43 170.552 42.5523 171 42 171H41C40.4477 171 40 170.552 40 170V169ZM41 172C40.4477 172 40 172.448 40 173V174C40 174.552 40.4477 175 41 175H42C42.5523 175 43 174.552 43 174V173C43 172.448 42.5523 172 42 172H41Z" fill="#657077"/>
<path d="M68.012 165.587V166.965H57.053V165.587H68.012ZM62.305 170.579H59.419C59.419 170.839 59.406 171.112 59.393 171.385H62.305V170.579ZM65.698 168.655H59.419V169.461H65.698V168.655ZM68.311 172.594H63.072C63.046 172.841 63.007 173.088 62.955 173.322H67.206C67.206 173.322 67.193 173.686 67.167 173.868C67.024 175.571 66.868 176.377 66.543 176.702C66.257 177.001 65.919 177.092 65.516 177.131C65.152 177.157 64.489 177.17 63.8 177.144C63.774 176.754 63.618 176.221 63.397 175.857C63.982 175.922 64.554 175.935 64.801 175.935C65.009 175.935 65.139 175.909 65.256 175.805C65.399 175.675 65.503 175.298 65.594 174.505H62.591C62.084 175.662 61.135 176.546 59.224 177.131C59.081 176.767 58.691 176.208 58.379 175.922C60.771 175.285 61.317 174.167 61.525 172.594H59.302C59.12 174.154 58.665 175.805 57.638 176.988C57.352 176.715 56.689 176.299 56.312 176.13C57.768 174.505 57.911 172.152 57.911 170.423V167.537H67.206V170.579H63.839V171.385H68.311V172.594ZM69.923 168.096H71.535V177.157H69.923V168.096ZM70.105 165.795L71.327 165.054C71.938 165.613 72.64 166.432 72.952 167.017L71.639 167.849C71.366 167.29 70.69 166.419 70.105 165.795ZM73.407 165.613H80.44V167.056H73.407V165.613ZM79.569 165.613H81.194V175.493C81.194 176.221 81.064 176.572 80.635 176.819C80.193 177.066 79.569 177.079 78.75 177.079C78.698 176.689 78.503 176.065 78.308 175.688C78.724 175.714 79.205 175.701 79.361 175.701C79.53 175.701 79.569 175.636 79.569 175.48V165.613ZM74.239 172.347V173.595H76.761V172.347H74.239ZM74.239 169.864V171.099H76.761V169.864H74.239ZM72.848 168.616H78.217V174.843H72.848V168.616Z" fill="#555F65"/>
<rect width="251" height="36" transform="translate(0 189)" fill="#F8F9F9"/>
<path fill-rule="evenodd" clip-rule="evenodd" d="M33 204C32.4477 204 32 203.552 32 203V201C32 200.448 32.4477 200 33 200H47C47.5523 200 48 200.448 48 201V203C48 203.552 47.5523 204 47 204V213C47 213.552 46.5523 214 46 214H34C33.4477 214 33 213.552 33 213V204ZM35 205V212H45V205H35ZM37 208C37 207.448 37.4477 207 38 207H42C42.5523 207 43 207.448 43 208C43 208.552 42.5523 209 42 209H38C37.4477 209 37 208.552 37 208ZM35.5 202C35.2239 202 35 202.224 35 202.5C35 202.776 35.2239 203 35.5 203H44.5C44.7761 203 45 202.776 45 202.5C45 202.224 44.7761 202 44.5 202H35.5Z" fill="#657077"/>
<path d="M56.858 202.549H58.392V209.14H56.858V202.549ZM59.419 200.989H60.966V206.163C60.966 208.841 60.693 211.493 58.431 213.3C58.145 212.962 57.56 212.403 57.17 212.169C59.185 210.622 59.419 208.438 59.419 206.163V200.989ZM62.097 206.137H67.232V207.684H62.097V206.137ZM61.408 210.622H67.414V212.169H61.408V210.622ZM61.72 201.925H68.064V213.092H66.452V203.459H61.72V201.925ZM79.816 201.834L81.298 202.211C80.856 203.316 80.336 204.525 79.907 205.305L78.685 204.928C79.101 204.122 79.582 202.809 79.816 201.834ZM76.384 204.707L75.071 205.24C74.876 204.434 74.408 203.173 74.005 202.237L75.253 201.782C75.682 202.718 76.15 203.914 76.384 204.707ZM74.356 207.84L73.485 209.023C73.329 208.607 73.017 208.009 72.705 207.437V213.118H71.249V208.022C70.885 209.14 70.469 210.18 69.975 210.882C69.832 210.44 69.494 209.829 69.273 209.452C70.001 208.425 70.677 206.631 71.015 205.097H69.585V203.667H71.249V200.989H72.705V203.667H74.174V205.097H72.705V205.526C73.095 206.007 74.122 207.489 74.356 207.84ZM78.321 201.041V205.786H81.064V212.962H79.543V212.416H73.797V210.934H79.543V209.751H74.278V208.373H79.543V207.255H74.096V205.786H76.839V201.041H78.321Z" fill="#555F65"/>
<rect width="251" height="16" transform="translate(0 225)" fill="#F8F9F9"/>
<rect width="251" height="36" transform="translate(0 241)" fill="#F8F9F9"/>
<path fill-rule="evenodd" clip-rule="evenodd" d="M40.0005 254C39.4482 254 39.0005 254.448 39.0005 255V255.5C39.0005 256.14 39.1942 256.69 39.4475 257.056C39.719 257.448 39.9516 257.5 40 257.5C40.0486 257.5 40.2815 257.448 40.5532 257.055C40.8067 256.689 41.0004 256.14 41.0005 255.5V255.5V255.5L41.0004 255C41.0003 254.448 40.5526 254 40.0005 254ZM37.0005 255C37.0005 253.343 38.3437 252 40.0005 252C41.6571 252 43 253.343 43.0004 254.999L43.0005 255.5V255.5C43.0005 256.527 42.694 257.477 42.1973 258.194C41.7188 258.885 40.9514 259.5 40 259.5C39.0484 259.5 38.2812 258.885 37.803 258.194C37.3066 257.477 37.0005 256.526 37.0005 255.5V255ZM37.9102 262.075C37.8518 262.137 37.7708 262.244 37.6784 262.425C37.5266 262.723 37.3943 263.119 37.2877 263.575C37.0744 264.487 37 265.476 37 266H35C35 265.349 35.0867 264.204 35.3403 263.119C35.4671 262.577 35.6447 262.01 35.8973 261.516C36.1412 261.038 36.514 260.512 37.0921 260.218C37.8407 259.837 38.5765 260.17 38.8695 260.316L39.5528 260.658C39.8343 260.799 40.1657 260.799 40.4472 260.658L41.1305 260.316C41.4235 260.17 42.1593 259.837 42.9079 260.218C43.486 260.512 43.8588 261.038 44.1027 261.516C44.3553 262.01 44.5329 262.577 44.6597 263.119C44.9133 264.204 45 265.349 45 266H43C43 265.476 42.9256 264.487 42.7123 263.575C42.6057 263.119 42.4734 262.723 42.3216 262.425C42.2292 262.244 42.1482 262.137 42.0898 262.075C42.0703 262.083 42.0488 262.093 42.0249 262.105L41.3416 262.447C40.4971 262.869 39.5029 262.869 38.6584 262.447L37.9751 262.105C37.9512 262.093 37.9297 262.083 37.9102 262.075ZM36.0005 255C36.0005 254.656 36.0439 254.322 36.1256 254.004C36.084 254.001 36.0421 254 35.9999 254C34.8954 254 34 254.895 33.9999 255.999L33.9998 256.599V256.6C33.9998 257.561 34.3504 258.257 34.7317 258.715C34.9175 258.938 35.1052 259.098 35.2524 259.206C35.3264 259.26 35.3913 259.302 35.4426 259.333C35.4682 259.348 35.4906 259.361 35.5091 259.371L35.534 259.384L35.5442 259.39L35.5487 259.392L35.5508 259.393L35.5518 259.394C35.5523 259.394 35.5528 259.394 36 258.5L35.5528 259.394C35.8344 259.535 36.1658 259.535 36.4473 259.394L36 258.5C36.4473 259.394 36.4478 259.394 36.4483 259.394L36.4493 259.393L36.4514 259.392L36.4559 259.39L36.4661 259.384L36.491 259.371C36.5095 259.361 36.5319 259.348 36.5575 259.333C36.6088 259.302 36.6737 259.26 36.7477 259.206C36.8471 259.133 36.9651 259.036 37.0884 258.912C37.051 258.862 37.0151 258.813 36.9808 258.763C36.3628 257.87 36.0005 256.719 36.0005 255.5V255ZM43.0194 258.764C42.9851 258.813 42.9492 258.863 42.9118 258.913C43.0351 259.036 43.153 259.133 43.2524 259.206C43.3264 259.26 43.3913 259.302 43.4426 259.333C43.4682 259.348 43.4906 259.361 43.5091 259.371L43.534 259.384L43.5442 259.39L43.5487 259.392L43.5508 259.393L43.5518 259.394C43.5523 259.394 43.5528 259.394 44 258.5L43.5528 259.394C43.8344 259.535 44.1658 259.535 44.4473 259.394L44 258.5C44.4473 259.394 44.4478 259.394 44.4483 259.394L44.4493 259.393L44.4514 259.392L44.4559 259.39L44.4661 259.384L44.491 259.371C44.5095 259.361 44.5319 259.348 44.5575 259.333C44.6088 259.302 44.6737 259.26 44.7477 259.206C44.8949 259.098 45.0825 258.938 45.2683 258.715C45.6495 258.257 46 257.561 46 256.6V256C46 254.895 45.1045 254 43.9999 254C43.9581 254 43.9165 254.001 43.8753 254.003C43.9569 254.322 44.0003 254.655 44.0004 254.999L44.0005 255.5V255.5C44.0005 256.72 43.6377 257.871 43.0194 258.764ZM45.6286 262.946C45.7137 263.299 45.7815 263.655 45.8347 264H47.5C47.5 263.484 47.433 262.735 47.2243 262.039C47.0365 261.413 46.6307 260.482 45.7089 260.129C45.1679 259.922 44.6681 260.072 44.3727 260.2C44.638 260.516 44.8388 260.849 44.9913 261.149C45.2886 261.735 45.4894 262.369 45.6286 262.946ZM35.0087 261.149C35.1612 260.849 35.362 260.516 35.6273 260.2C35.3319 260.072 34.8321 259.922 34.2911 260.129C33.3693 260.482 32.9635 261.413 32.7757 262.039C32.567 262.735 32.5 263.484 32.5 264H34.1653C34.2185 263.655 34.2863 263.299 34.3714 262.946C34.5106 262.369 34.7114 261.735 35.0087 261.149ZM35.9999 256L36 256V256.6L35.9999 256.62L35.9998 256.6V256.6V256.6L35.9999 256L35.9999 256ZM43.9999 256L44 256V256.6L43.9999 256.62L43.9998 256.6V256.6V256.6L43.9999 256L43.9999 256Z" fill="#657077"/>
<path d="M61.538 257.786H68.467V259.294H61.538V257.786ZM65.932 258.67C66.387 260.75 67.31 262.7 68.701 263.688C68.363 263.961 67.882 264.52 67.661 264.91C66.088 263.662 65.126 261.491 64.58 258.982L65.932 258.67ZM62.331 265.209C62.24 264.858 61.967 264.234 61.746 263.948C62.019 263.805 62.396 263.506 62.396 262.934V253.197H63.891V263.948C63.891 263.948 62.331 264.676 62.331 265.209ZM58.275 252.963H59.627V265.17H58.275V252.963ZM56.572 255.355H60.68V256.733H57.768V262.492H56.572V255.355ZM60.134 255.355H61.265V261.049C61.265 261.556 61.226 261.959 60.927 262.193C60.641 262.414 60.303 262.453 59.822 262.453C59.809 262.076 59.679 261.491 59.51 261.14C59.757 261.153 59.952 261.153 60.03 261.14C60.108 261.14 60.134 261.114 60.134 261.01V255.355ZM66.673 253.47L68.129 253.925C67.414 255.329 66.244 256.759 65.139 257.643C64.918 257.357 64.359 256.759 64.047 256.486C65.074 255.771 66.088 254.627 66.673 253.47ZM62.331 265.209L62.123 263.831L62.669 263.337L65.477 262.336C65.464 262.778 65.529 263.441 65.594 263.792C63.072 264.793 62.604 265.001 62.331 265.209ZM70.872 254.913H72.51V257.877C72.51 260.035 72.237 263.259 70.703 265.274C70.417 264.988 69.715 264.494 69.325 264.325C70.742 262.466 70.872 259.775 70.872 257.877V254.913ZM74.447 253.275L75.994 252.885C76.28 253.457 76.592 254.198 76.748 254.692L75.136 255.16C75.006 254.653 74.694 253.86 74.447 253.275ZM71.899 254.913H80.258V260.555H78.659V256.369H71.899V254.913ZM71.925 258.423H79.465V259.866H71.925V258.423Z" fill="#555F65"/>
<rect width="251" height="36" transform="translate(0 277)" fill="#F8F9F9"/>
<g clip-path="url(#clip2_180_14960)">
<path fill-rule="evenodd" clip-rule="evenodd" d="M39.4997 287H40.4997C41.3281 287 41.9997 287.672 41.9997 288.5V289H42.0007H45.0007C46.1056 289 47.0007 289.896 47.0007 291H45.0007V291H42.0007H40.4997H39.4997H38.0007H35.0007V291H33.0007C33.0007 289.896 33.8959 289 35.0007 289H37.9997V288.5C37.9997 287.672 38.6713 287 39.4997 287ZM35.0007 292V300C35.0007 301.657 36.3439 303 38.0007 303H42.0007C43.6576 303 45.0007 301.657 45.0007 300V292H43.0007V300C43.0007 300.553 42.553 301 42.0007 301H38.0007C37.4484 301 37.0007 300.553 37.0007 300V292H35.0007ZM39.0007 293V301H41.0007V293H39.0007Z" fill="#657077"/>
</g>
<path d="M63.553 296.139V293.89H61.265V296.139H63.553ZM59.809 292.538H65.113V297.478H59.809V292.538ZM58.561 298.986H66.374V291.004H58.561V298.986ZM56.949 289.418H68.064V301.118H66.374V300.429H58.561V301.118H56.949V289.418ZM74.174 294.618V299.727C75.383 299.207 76.345 298.518 77.112 297.647C76.566 296.685 76.137 295.58 75.799 294.358C75.539 294.761 75.279 295.125 74.993 295.45C74.837 295.255 74.486 294.904 74.174 294.618ZM79.296 292.772H76.865C77.151 294.033 77.541 295.216 78.087 296.243C78.633 295.255 79.023 294.111 79.296 292.772ZM81.623 292.772H80.882C80.479 294.709 79.881 296.334 79.023 297.673C79.751 298.583 80.648 299.298 81.766 299.779C81.415 300.091 80.934 300.715 80.7 301.131C79.621 300.598 78.737 299.87 78.009 298.973C77.203 299.857 76.202 300.585 74.993 301.17C74.876 300.832 74.46 300.182 74.174 299.818V301.118H72.666V297.803C71.678 298.115 70.703 298.427 69.871 298.674L69.338 297.101C69.585 297.049 69.845 296.997 70.144 296.932V290.497H71.626V296.581L72.666 296.334V289.067H74.174V293.838C75.123 292.603 75.799 290.822 76.163 288.989L77.749 289.288C77.593 289.977 77.411 290.653 77.19 291.303H81.623V292.772ZM87.746 291.394V292.837H82.728V291.394H84.574V289.171H86.004V291.394H87.746ZM84.847 297.569L83.521 297.816C83.547 296.646 83.339 294.839 83.053 293.448L84.288 293.201C84.613 294.605 84.834 296.36 84.847 297.569ZM86.771 297.582L87.733 297.374L87.876 298.804C86.121 299.233 84.197 299.662 82.754 299.987L82.455 298.44C83.274 298.297 84.34 298.089 85.484 297.855L85.367 297.829C85.627 296.581 85.874 294.566 85.952 293.084L87.46 293.331C87.278 294.774 87.018 296.399 86.771 297.582ZM92.53 299.064V296.529H89.449V299.064H92.53ZM94.545 292.85H91.62V295.086H94.116V301.066H92.53V300.507H89.449V301.118H87.941V295.086H90.034V288.989H91.62V291.381H94.545V292.85Z" fill="#555F65"/>
<rect width="251" height="4" transform="translate(0 313)" fill="#F8F9F9"/>
<rect width="251" height="16" transform="translate(0 317)" fill="#F8F9F9"/>
<rect x="251" width="1" height="530" fill="#ECEEF1"/>
</g>
<rect width="662" height="69" transform="translate(252)" fill="white"/>
<rect width="36" height="69" transform="translate(272)" fill="white"/>
<path d="M288.632 26.582V28.49H273.458V26.582H288.632ZM280.73 33.494H276.734C276.734 33.854 276.716 34.232 276.698 34.61H280.73V33.494ZM285.428 30.83H276.734V31.946H285.428V30.83ZM289.046 36.284H281.792C281.756 36.626 281.702 36.968 281.63 37.292H287.516C287.516 37.292 287.498 37.796 287.462 38.048C287.264 40.406 287.048 41.522 286.598 41.972C286.202 42.386 285.734 42.512 285.176 42.566C284.672 42.602 283.754 42.62 282.8 42.584C282.764 42.044 282.548 41.306 282.242 40.802C283.052 40.892 283.844 40.91 284.186 40.91C284.474 40.91 284.654 40.874 284.816 40.73C285.014 40.55 285.158 40.028 285.284 38.93H281.126C280.424 40.532 279.11 41.756 276.464 42.566C276.266 42.062 275.726 41.288 275.294 40.892C278.606 40.01 279.362 38.462 279.65 36.284H276.572C276.32 38.444 275.69 40.73 274.268 42.368C273.872 41.99 272.954 41.414 272.432 41.18C274.448 38.93 274.646 35.672 274.646 33.278V29.282H287.516V33.494H282.854V34.61H289.046V36.284ZM291.278 30.056H293.51V42.602H291.278V30.056ZM291.53 26.87L293.222 25.844C294.068 26.618 295.04 27.752 295.472 28.562L293.654 29.714C293.276 28.94 292.34 27.734 291.53 26.87ZM296.102 26.618H305.84V28.616H296.102V26.618ZM304.634 26.618H306.884V40.298C306.884 41.306 306.704 41.792 306.11 42.134C305.498 42.476 304.634 42.494 303.5 42.494C303.428 41.954 303.158 41.09 302.888 40.568C303.464 40.604 304.13 40.586 304.346 40.586C304.58 40.586 304.634 40.496 304.634 40.28V26.618ZM297.254 35.942V37.67H300.746V35.942H297.254ZM297.254 32.504V34.214H300.746V32.504H297.254ZM295.328 30.776H302.762V39.398H295.328V30.776Z" fill="#333333"/>
<rect width="534" height="69" transform="translate(308)" fill="white"/>
<path fill-rule="evenodd" clip-rule="evenodd" d="M332.5 27C331.672 27 331 27.6716 331 28.5V33H326.5C325.672 33 325 33.6716 325 34.5C325 35.3284 325.672 36 326.5 36H331V40.5C331 41.3284 331.672 42 332.5 42C333.328 42 334 41.3284 334 40.5V36H338.5C339.328 36 340 35.3284 340 34.5C340 33.6716 339.328 33 338.5 33H334V28.5C334 27.6716 333.328 27 332.5 27Z" fill="#A3A9AE"/>
<rect width="662" height="32" transform="translate(252 69)" fill="white"/>
<g clip-path="url(#clip3_180_14960)">
<rect x="272" y="69" width="502" height="32" rx="3" fill="white"/>
<path d="M284.758 84.527L284.953 85.931C284.485 86.061 284.017 86.191 283.549 86.321V89.506C283.549 90.247 283.419 90.624 283.003 90.845C282.561 91.092 281.95 91.131 281.04 91.131C281.001 90.728 280.793 90.13 280.624 89.727C281.118 89.753 281.651 89.753 281.82 89.753C282.002 89.753 282.054 89.688 282.054 89.506V86.724L280.689 87.088L280.299 85.606C280.793 85.502 281.404 85.372 282.054 85.216V82.863H280.507V81.433H282.054V79.002H283.549V81.433H284.797V82.863H283.549V84.839L284.758 84.527ZM290.075 87.335H287.02C287.41 87.803 287.917 88.219 288.541 88.557C289.139 88.219 289.659 87.816 290.075 87.335ZM286.5 83.929H287.904V80.51C287.462 80.757 286.968 80.965 286.5 81.147V81.979H287.501V83.071H286.5V83.929ZM291.271 86.009L292.22 86.451C291.726 87.621 290.959 88.518 289.997 89.207C290.816 89.493 291.739 89.701 292.727 89.831C292.389 90.156 291.986 90.767 291.778 91.17C290.517 90.949 289.399 90.598 288.424 90.104C287.319 90.598 286.058 90.923 284.706 91.131C284.576 90.741 284.29 90.169 284.043 89.844C285.109 89.727 286.11 89.519 287.02 89.22C286.448 88.778 285.954 88.258 285.538 87.673L286.435 87.335H284.927V86.074H287.904V85.138H285.161V79.977L285.837 80.185C286.318 79.938 286.812 79.626 287.124 79.353L287.904 80.094V79.002H289.282V83.929H290.777V83.071H289.672V81.979H290.777V81.16H289.659V79.951H292.155V85.138H289.282V86.074H291.011L291.271 86.009ZM296.471 88.193L297.94 88.752C297.095 89.636 295.782 90.52 294.69 91.04C294.417 90.741 293.845 90.208 293.507 89.948C294.599 89.545 295.795 88.882 296.471 88.193ZM303.582 87.946L300.228 88.05V91.131H298.694V88.102C296.887 88.154 295.223 88.193 293.897 88.219L293.819 86.841C294.638 86.841 295.639 86.841 296.744 86.828C296.939 86.724 297.134 86.607 297.329 86.49C296.705 86.022 295.847 85.489 295.132 85.125L296.159 84.241C296.328 84.332 296.523 84.423 296.705 84.527C297.121 84.189 297.563 83.786 297.927 83.409H295.327V84.813H293.858V82.122H298.681V81.329H293.975V80.003H298.681V78.989H300.202V80.003H304.999V81.329H300.202V82.122H305.168V84.813H303.634V83.409H299.331L299.734 83.604C299.11 84.163 298.408 84.722 297.797 85.164C298.083 85.346 298.356 85.528 298.59 85.697C299.552 85.06 300.462 84.371 301.138 83.773L302.516 84.514C301.489 85.294 300.254 86.113 299.071 86.815C300.059 86.802 301.086 86.789 302.126 86.776C301.814 86.542 301.502 86.334 301.203 86.139L302.217 85.359C303.231 85.996 304.609 86.958 305.298 87.647L304.206 88.531C304.037 88.362 303.829 88.154 303.582 87.946ZM300.982 88.934L302.152 88.154C303.166 88.687 304.583 89.532 305.324 90.13L304.05 91.001C303.413 90.416 302.035 89.519 300.982 88.934Z" fill="#A3A9AE"/>
</g>
<rect x="272.5" y="69.5" width="501" height="31" rx="2.5" stroke="#D0D5DA"/>
<g clip-path="url(#clip4_180_14960)">
<rect x="272" y="125" width="270" height="121" rx="12" fill="white"/>
<rect x="288" y="141" width="32" height="32" rx="6" fill="#FF6680"/>
<path d="M304.504 158.752H303.412C303.258 159.536 303.02 160.194 302.67 160.74C303.104 160.992 303.51 161.244 303.832 161.482C304.868 160.936 305.68 160.236 306.296 159.368C305.904 158.542 305.596 157.618 305.344 156.61C305.148 156.974 304.924 157.31 304.7 157.618C304.644 157.562 304.588 157.492 304.504 157.408V158.752ZM300.486 158.752L300.08 159.494C300.5 159.662 300.906 159.83 301.312 160.026C301.536 159.676 301.718 159.256 301.844 158.752H300.486ZM308.018 154.202H306.408C306.604 155.378 306.884 156.484 307.262 157.492C307.612 156.54 307.864 155.434 308.018 154.202ZM310.524 154.202H309.74C309.446 156.274 308.97 158.01 308.214 159.424C308.858 160.418 309.67 161.216 310.692 161.748C310.314 162.084 309.796 162.728 309.544 163.19C308.592 162.616 307.822 161.874 307.192 160.964C306.422 161.888 305.456 162.644 304.238 163.26C304.14 163.022 303.93 162.644 303.706 162.308L303.076 162.952C302.698 162.63 302.194 162.266 301.62 161.902C300.794 162.518 299.674 162.924 298.176 163.232C298.078 162.756 297.784 162.196 297.518 161.86C298.652 161.706 299.52 161.482 300.178 161.104C299.926 160.964 299.66 160.838 299.394 160.726L299.24 160.992L297.784 160.544C298.092 160.054 298.442 159.424 298.792 158.752H297.462V157.408H299.492C299.66 157.058 299.828 156.722 299.968 156.414L300.276 156.484V155.14C299.632 155.784 298.876 156.372 298.176 156.764C297.994 156.4 297.644 155.854 297.336 155.56C298.19 155.21 299.128 154.538 299.8 153.81H297.616V152.494H298.68C298.554 152.018 298.246 151.374 297.952 150.87L299.156 150.366C299.52 150.898 299.884 151.612 299.996 152.102L299.1 152.494H300.276V150.142H301.802V152.494H302.908L301.984 152.088C302.306 151.584 302.698 150.842 302.922 150.31L304.322 150.87C303.888 151.472 303.454 152.06 303.118 152.494H304.448V153.81H302.152C302.824 154.188 303.818 154.776 304.126 154.986L303.244 156.134C302.936 155.84 302.348 155.35 301.802 154.916V156.61H300.906L301.508 156.736L301.172 157.408H304.504C304.182 157.086 303.678 156.652 303.37 156.442C304.56 155.014 305.232 152.634 305.568 150.142L307.248 150.366C307.136 151.15 306.982 151.92 306.8 152.662H310.524V154.202Z" fill="white"/>
<path d="M340.576 159.288H339.328C339.152 160.184 338.88 160.936 338.48 161.56C338.976 161.848 339.44 162.136 339.808 162.408C340.992 161.784 341.92 160.984 342.624 159.992C342.176 159.048 341.824 157.992 341.536 156.84C341.312 157.256 341.056 157.64 340.8 157.992C340.736 157.928 340.672 157.848 340.576 157.752V159.288ZM335.984 159.288L335.52 160.136C336 160.328 336.464 160.52 336.928 160.744C337.184 160.344 337.392 159.864 337.536 159.288H335.984ZM344.592 154.088H342.752C342.976 155.432 343.296 156.696 343.728 157.848C344.128 156.76 344.416 155.496 344.592 154.088ZM347.456 154.088H346.56C346.224 156.456 345.68 158.44 344.816 160.056C345.552 161.192 346.48 162.104 347.648 162.712C347.216 163.096 346.624 163.832 346.336 164.36C345.248 163.704 344.368 162.856 343.648 161.816C342.768 162.872 341.664 163.736 340.272 164.44C340.16 164.168 339.92 163.736 339.664 163.352L338.944 164.088C338.512 163.72 337.936 163.304 337.28 162.888C336.336 163.592 335.056 164.056 333.344 164.408C333.232 163.864 332.896 163.224 332.592 162.84C333.888 162.664 334.88 162.408 335.632 161.976C335.344 161.816 335.04 161.672 334.736 161.544L334.56 161.848L332.896 161.336C333.248 160.776 333.648 160.056 334.048 159.288H332.528V157.752H334.848C335.04 157.352 335.232 156.968 335.392 156.616L335.744 156.696V155.16C335.008 155.896 334.144 156.568 333.344 157.016C333.136 156.6 332.736 155.976 332.384 155.64C333.36 155.24 334.432 154.472 335.2 153.64H332.704V152.136H333.92C333.776 151.592 333.424 150.856 333.088 150.28L334.464 149.704C334.88 150.312 335.296 151.128 335.424 151.688L334.4 152.136H335.744V149.448H337.488V152.136H338.752L337.696 151.672C338.064 151.096 338.512 150.248 338.768 149.64L340.368 150.28C339.872 150.968 339.376 151.64 338.992 152.136H340.512V153.64H337.888C338.656 154.072 339.792 154.744 340.144 154.984L339.136 156.296C338.784 155.96 338.112 155.4 337.488 154.904V156.84H336.464L337.152 156.984L336.768 157.752H340.576C340.208 157.384 339.632 156.888 339.28 156.648C340.64 155.016 341.408 152.296 341.792 149.448L343.712 149.704C343.584 150.6 343.408 151.48 343.2 152.328H347.456V154.088ZM353.456 156.216L353.68 157.928C353.152 158.088 352.592 158.264 352.048 158.424V162.184C352.048 163.064 351.904 163.528 351.424 163.816C350.944 164.136 350.24 164.2 349.216 164.184C349.168 163.72 348.96 162.936 348.736 162.44C349.312 162.456 349.856 162.456 350.048 162.44C350.24 162.44 350.32 162.376 350.32 162.168V158.936L348.816 159.368L348.384 157.528C348.944 157.4 349.584 157.24 350.32 157.048V154.232H348.64V152.472H350.32V149.448H352.048V152.472H353.648V154.232H352.048V156.6L353.456 156.216ZM355.952 156.12H358.32V154.712H355.968V154.968C355.968 155.336 355.968 155.704 355.952 156.12ZM361.104 151.704H355.968V153.08H361.104V151.704ZM361.264 162.424V160.824H357.392V162.424H361.264ZM363.344 157.72H360.096V159.256H362.976V164.376H361.264V163.928H357.392V164.392H355.76V159.256H358.32V157.72H355.856C355.68 160.056 355.168 162.632 353.952 164.44C353.616 164.104 352.816 163.528 352.416 163.32C353.984 160.968 354.112 157.464 354.112 154.968V150.088H362.896V154.712H360.096V156.12H363.344V157.72ZM373.04 161.368H379.312V163.288H364.768V161.368H370.864V153.096H365.632V151.112H378.416V153.096H373.04V161.368ZM384.032 149.512L385.888 150.088C385.472 151.208 384.944 152.344 384.352 153.416V164.376H382.432V156.376C382.096 156.776 381.76 157.176 381.44 157.528C381.264 157.064 380.72 155.976 380.384 155.496C381.84 154.056 383.232 151.784 384.032 149.512ZM395.504 153.864H390.96V155.544H395.104V157.272H390.96V159.08H395.312V160.84H390.96V164.392H389.008V153.864H388.4C387.76 155.048 387.024 156.136 386.304 156.968C386 156.616 385.248 155.944 384.848 155.64C386.256 154.2 387.52 151.896 388.24 149.608L390.08 150.072C389.856 150.744 389.6 151.4 389.296 152.056H395.504V153.864Z" fill="#333333"/>
<rect x="454" y="149" width="16" height="16" rx="8" fill="#4781D1"/>
<path d="M459.741 157.271C459.741 156.902 459.768 156.537 459.82 156.177C459.876 155.813 459.971 155.472 460.106 155.153C460.241 154.831 460.43 154.546 460.673 154.3C460.916 154.051 461.225 153.856 461.6 153.716C461.975 153.572 462.429 153.5 462.962 153.5C463.088 153.5 463.235 153.506 463.402 153.518C463.572 153.527 463.712 153.543 463.824 153.566V154.652C463.707 154.625 463.581 154.605 463.446 154.59C463.314 154.573 463.182 154.564 463.05 154.564C462.517 154.564 462.104 154.649 461.811 154.819C461.521 154.989 461.316 155.225 461.196 155.526C461.079 155.825 461.01 156.174 460.989 156.572H461.046C461.128 156.429 461.231 156.301 461.354 156.19C461.48 156.079 461.632 155.991 461.811 155.926C461.99 155.859 462.199 155.825 462.439 155.825C462.814 155.825 463.14 155.906 463.415 156.067C463.69 156.225 463.903 156.455 464.052 156.757C464.202 157.059 464.276 157.426 464.276 157.86C464.276 158.323 464.187 158.721 464.008 159.055C463.83 159.389 463.576 159.646 463.248 159.824C462.923 160 462.536 160.088 462.088 160.088C461.76 160.088 461.454 160.032 461.169 159.921C460.885 159.807 460.636 159.634 460.422 159.402C460.208 159.171 460.042 158.879 459.921 158.528C459.801 158.173 459.741 157.754 459.741 157.271ZM462.062 159.002C462.328 159.002 462.545 158.912 462.712 158.73C462.879 158.548 462.962 158.264 462.962 157.877C462.962 157.564 462.889 157.318 462.743 157.139C462.599 156.958 462.381 156.867 462.088 156.867C461.889 156.867 461.713 156.912 461.561 157.003C461.411 157.091 461.295 157.204 461.213 157.341C461.131 157.476 461.09 157.615 461.09 157.759C461.09 157.908 461.111 158.056 461.152 158.203C461.193 158.349 461.254 158.482 461.336 158.603C461.418 158.723 461.52 158.819 461.64 158.893C461.763 158.966 461.903 159.002 462.062 159.002Z" fill="white"/>
<g clip-path="url(#clip5_180_14960)">
<path fill-rule="evenodd" clip-rule="evenodd" d="M493.577 149L486.418 149C486.159 149 485.949 149.21 485.949 149.468L485.949 149.499C485.949 149.937 486.12 150.35 486.431 150.661C486.631 150.861 486.873 151.002 487.138 151.077L486.607 156.276C486.064 156.306 485.558 156.532 485.17 156.919C484.753 157.337 484.523 157.892 484.523 158.483L484.523 158.527C484.523 158.786 484.733 158.996 484.991 158.996L488.998 158.996L488.998 162.51C488.999 162.595 489.168 164.026 489.19 164.219C489.211 164.412 489.362 164.549 489.362 164.563C489.378 164.808 489.753 164.999 490 165C490.129 165 490.415 164.948 490.5 164.863C490.578 164.785 490.629 164.68 490.636 164.563C490.637 164.552 490.793 164.37 490.809 164.219C490.826 164.068 491 162.595 491.001 162.504V158.996L495.003 158.996C495.133 158.996 495.25 158.943 495.334 158.859C495.419 158.774 495.472 158.657 495.471 158.528V158.483C495.471 157.892 495.241 157.337 494.824 156.92C494.436 156.532 493.93 156.306 493.388 156.276L492.857 151.078C493.121 151.002 493.364 150.861 493.564 150.661C493.874 150.35 494.045 149.938 494.045 149.499L494.045 149.468C494.045 149.21 493.835 149 493.577 149Z" fill="#3B72A7"/>
</g>
<path fill-rule="evenodd" clip-rule="evenodd" d="M516 151C516 149.895 516.895 149 518 149C519.105 149 520 149.895 520 151C520 152.105 519.105 153 518 153C516.895 153 516 152.105 516 151ZM516 157C516 155.895 516.895 155 518 155C519.105 155 520 155.895 520 157C520 158.105 519.105 159 518 159C516.895 159 516 158.105 516 157ZM518 161C516.895 161 516 161.895 516 163C516 164.105 516.895 165 518 165C519.105 165 520 164.105 520 163C520 161.895 519.105 161 518 161Z" fill="#A3A9AE"/>
<rect x="272" y="189" width="270" height="1" fill="#D0D5DA"/>
<g filter="url(#filter0_b_180_14960)">
<rect x="288" y="206" width="50" height="24" rx="6" fill="#ECEEF1"/>
<path d="M305.694 212.379L306.539 212.73C306.162 213.328 305.72 213.978 305.382 214.407L304.732 214.095C305.044 213.64 305.486 212.886 305.694 212.379ZM302.691 214.095L301.924 214.433C301.807 213.978 301.469 213.263 301.118 212.73L301.846 212.431C302.21 212.951 302.561 213.64 302.691 214.095ZM308.385 215.408L308.372 215.447C308.619 216.942 308.983 218.346 309.503 219.555C310.062 218.398 310.413 217.02 310.647 215.408H308.385ZM304.836 219.815H303.016C302.834 220.179 302.639 220.53 302.47 220.868C302.99 221.076 303.51 221.31 304.017 221.557C304.407 221.089 304.667 220.517 304.836 219.815ZM312.428 215.408H311.648C311.323 217.514 310.829 219.23 310.036 220.621C310.686 221.739 311.505 222.623 312.545 223.169C312.324 223.351 312.012 223.728 311.882 223.988C310.881 223.403 310.088 222.571 309.451 221.531C308.684 222.545 307.709 223.377 306.435 224.027C306.357 223.858 306.188 223.572 306.019 223.351L305.72 223.663C305.317 223.338 304.797 222.987 304.199 222.636C303.445 223.26 302.418 223.689 301.027 223.988C300.962 223.728 300.767 223.377 300.585 223.195C301.781 222.987 302.691 222.662 303.354 222.181C302.938 221.973 302.509 221.765 302.08 221.583L301.872 221.947L301.04 221.648C301.326 221.154 301.677 220.491 302.028 219.815H300.559V219.009H302.431C302.626 218.619 302.808 218.242 302.964 217.891L303.302 217.969V216.175C302.652 216.942 301.82 217.657 301.027 218.086C300.91 217.865 300.676 217.527 300.494 217.358C301.417 216.942 302.405 216.136 303.042 215.291H300.637V214.498H303.302V212.119H304.199V214.498H306.838V215.291H304.199V215.356C304.758 215.681 306.162 216.565 306.513 216.825L305.98 217.514C305.642 217.202 304.823 216.578 304.199 216.11V218.047H303.64L303.861 218.099C303.718 218.385 303.575 218.697 303.419 219.009H306.89V219.815H305.759C305.577 220.686 305.278 221.401 304.836 221.986C305.408 222.298 305.928 222.636 306.331 222.935C307.436 222.324 308.294 221.544 308.931 220.569C308.437 219.516 308.06 218.307 307.761 216.981C307.488 217.592 307.163 218.138 306.812 218.606C306.669 218.424 306.253 218.099 306.032 217.943C307.124 216.578 307.8 214.407 308.151 212.119L309.139 212.262C309.009 213.029 308.84 213.783 308.658 214.498H312.428V215.408ZM317.589 218.658L316.107 219.139V222.792C316.107 223.325 315.99 223.572 315.665 223.728C315.366 223.884 314.872 223.923 314.053 223.91C314.014 223.676 313.897 223.286 313.767 223.013C314.326 223.026 314.846 223.026 314.989 223.026C315.145 223.026 315.21 222.974 315.21 222.779V219.438C314.664 219.62 314.144 219.776 313.676 219.919L313.442 218.996C313.923 218.853 314.534 218.671 315.21 218.476V215.629H313.598V214.732H315.21V212.132H316.107V214.732H317.576V215.629H316.107V218.203L317.459 217.774L317.589 218.658ZM319.071 217.462H321.593V216.032H319.084V216.591C319.084 216.877 319.084 217.15 319.071 217.462ZM324.037 213.536H319.084V215.187H324.037V213.536ZM324.128 222.675V220.712H320.137V222.675H324.128ZM325.402 218.294H322.516V219.893H325.012V223.962H324.128V223.481H320.137V224.014H319.292V219.893H321.593V218.294H319.032C318.915 220.218 318.564 222.402 317.472 224.001C317.316 223.819 316.913 223.546 316.692 223.455C318.031 221.466 318.148 218.645 318.148 216.591V212.691H324.96V216.032H322.516V217.462H325.402V218.294Z" fill="#333333"/>
</g>
<g filter="url(#filter1_b_180_14960)">
<rect x="342" y="206" width="50" height="24" rx="6" fill="#ECEEF1"/>
<path d="M355.079 212.652H365.895V224.053H364.855V213.562H356.08V224.053H355.079V212.652ZM355.638 222.61H365.505V223.507H355.638V222.61ZM356.938 215.759H364.114V216.63H356.938V215.759ZM361.15 214.108H362.086V220.79C362.086 221.284 361.995 221.544 361.631 221.687C361.293 221.843 360.773 221.856 359.941 221.856C359.889 221.609 359.746 221.219 359.616 220.972C360.214 220.998 360.76 220.998 360.929 220.985C361.098 220.985 361.15 220.933 361.15 220.79V214.108ZM361.189 216.084L362.008 216.63C360.877 218.333 359.044 219.854 357.367 220.803C357.25 220.621 356.964 220.322 356.743 220.153C358.381 219.243 360.175 217.735 361.189 216.084ZM368.3 212.626H371.745V213.51H369.223V224.027H368.3V212.626ZM371.524 212.626H371.706L371.849 212.587L372.538 213.003C372.135 214.056 371.628 215.317 371.16 216.331C372.174 217.41 372.408 218.359 372.408 219.165C372.408 219.88 372.239 220.439 371.849 220.712C371.667 220.842 371.407 220.92 371.147 220.959C370.861 220.985 370.523 220.998 370.211 220.972C370.198 220.725 370.107 220.322 369.938 220.062C370.25 220.088 370.523 220.101 370.744 220.075C370.913 220.075 371.056 220.036 371.173 219.958C371.394 219.815 371.472 219.464 371.472 219.074C371.472 218.372 371.199 217.475 370.185 216.448C370.692 215.291 371.225 213.796 371.524 212.899V212.626ZM375.06 212.093H376.061C376.035 216.799 376.009 221.622 372.187 224.066C372.031 223.832 371.706 223.533 371.446 223.351C375.125 221.102 375.047 216.552 375.06 212.093ZM375.944 216.058C376.139 217.241 376.711 221.453 379.649 223.312C379.376 223.507 379.077 223.793 378.921 224.04C375.892 222.038 375.32 217.475 375.06 216.136L375.944 216.058Z" fill="#333333"/>
</g>
</g>
<rect x="272.5" y="125.5" width="269" height="120" rx="11.5" stroke="#D0D5DA"/>
<g clip-path="url(#clip6_180_14960)">
<rect x="272" y="262" width="270" height="121" rx="12" fill="white"/>
<rect x="288" y="278" width="32" height="32" rx="6" fill="#1FCECB"/>
<path d="M301.914 289.886H299.8C300.038 290.362 300.22 291.006 300.276 291.426L299.576 291.622H302.32L301.396 291.426C301.578 291.006 301.802 290.362 301.914 289.886ZM301.732 295.472V295.584C302.236 295.934 303.398 296.858 303.72 297.11L302.754 298.3C302.53 298.02 302.138 297.6 301.732 297.208V300.19H300.122V297.376C299.576 298.16 298.946 298.86 298.344 299.35C298.092 298.986 297.616 298.44 297.266 298.174C298.176 297.572 299.142 296.522 299.786 295.472H297.658V294.072H300.122V292.994H297.616V291.622H298.904C298.848 291.16 298.68 290.558 298.484 290.082L299.338 289.886H297.77V288.528H300.122V287.254H301.732V288.528H304.056V289.886H302.614L303.426 290.04C303.174 290.642 302.95 291.202 302.754 291.622H304.168V292.994H301.732V294.072H304.042V295.472H301.732ZM310.524 291.748V293.288H309.194V300.134H307.584V293.288H306.156C306.142 295.374 305.848 298.328 304 300.246C303.79 299.882 303.188 299.308 302.81 299.112C304.42 297.404 304.588 295.024 304.588 293.092V288.248L305.554 288.514C306.884 288.192 308.27 287.744 309.124 287.282L310.454 288.5C309.222 289.046 307.626 289.48 306.156 289.788V291.748H310.524Z" fill="white"/>
<path d="M337.616 289.584H335.2C335.472 290.128 335.68 290.864 335.744 291.344L334.944 291.568H338.08L337.024 291.344C337.232 290.864 337.488 290.128 337.616 289.584ZM337.408 295.968V296.096C337.984 296.496 339.312 297.552 339.68 297.84L338.576 299.2C338.32 298.88 337.872 298.4 337.408 297.952V301.36H335.568V298.144C334.944 299.04 334.224 299.84 333.536 300.4C333.248 299.984 332.704 299.36 332.304 299.056C333.344 298.368 334.448 297.168 335.184 295.968H332.752V294.368H335.568V293.136H332.704V291.568H334.176C334.112 291.04 333.92 290.352 333.696 289.808L334.672 289.584H332.88V288.032H335.568V286.576H337.408V288.032H340.064V289.584H338.416L339.344 289.76C339.056 290.448 338.8 291.088 338.576 291.568H340.192V293.136H337.408V294.368H340.048V295.968H337.408ZM347.456 291.712V293.472H345.936V301.296H344.096V293.472H342.464C342.448 295.856 342.112 299.232 340 301.424C339.76 301.008 339.072 300.352 338.64 300.128C340.48 298.176 340.672 295.456 340.672 293.248V287.712L341.776 288.016C343.296 287.648 344.88 287.136 345.856 286.608L347.376 288C345.968 288.624 344.144 289.12 342.464 289.472V291.712H347.456ZM359.184 296.528H352.864V299.136H359.184V296.528ZM350.992 301.408V294.848H361.136V301.408H359.184V300.816H352.864V301.408H350.992ZM352.768 291.584H359.232C357.904 290.544 356.72 289.392 355.952 288.336C355.2 289.408 354.08 290.544 352.768 291.584ZM354.88 286.464H356.848C358.56 288.912 361.152 290.944 363.696 291.968C363.232 292.464 362.8 293.088 362.464 293.68C361.648 293.264 360.816 292.736 360.016 292.16V293.264H352.048V292.144C351.264 292.72 350.416 293.248 349.568 293.712C349.312 293.248 348.784 292.56 348.368 292.16C351.12 290.832 353.68 288.416 354.88 286.464ZM373.504 294.528H370.512V296.736H373.504V294.528ZM375.264 298.304H370.512V299.36H368.752V292.96H375.264V298.304ZM375.984 290.128V291.728H368V290.128H375.984ZM378.8 287.2V299.2C378.8 300.192 378.592 300.72 377.984 301.04C377.376 301.36 376.48 301.408 375.152 301.408C375.072 300.88 374.784 300.016 374.496 299.52C375.344 299.568 376.272 299.568 376.544 299.552C376.816 299.536 376.928 299.44 376.928 299.184V289.008H367.088V301.392H365.232V287.2H378.8Z" fill="#333333"/>
<path fill-rule="evenodd" clip-rule="evenodd" d="M516 288C516 286.895 516.895 286 518 286C519.105 286 520 286.895 520 288C520 289.105 519.105 290 518 290C516.895 290 516 289.105 516 288ZM516 294C516 292.895 516.895 292 518 292C519.105 292 520 292.895 520 294C520 295.105 519.105 296 518 296C516.895 296 516 295.105 516 294ZM518 298C516.895 298 516 298.895 516 300C516 301.105 516.895 302 518 302C519.105 302 520 301.105 520 300C520 298.895 519.105 298 518 298Z" fill="#A3A9AE"/>
</g>
<rect x="272.5" y="262.5" width="269" height="120" rx="11.5" stroke="#D0D5DA"/>
</g>
<defs>
<filter id="filter0_b_180_14960" x="233.634" y="151.634" width="158.731" height="132.731" filterUnits="userSpaceOnUse" color-interpolation-filters="sRGB">
<feFlood flood-opacity="0" result="BackgroundImageFix"/>
<feGaussianBlur in="BackgroundImageFix" stdDeviation="27.1828"/>
<feComposite in2="SourceAlpha" operator="in" result="effect1_backgroundBlur_180_14960"/>
<feBlend mode="normal" in="SourceGraphic" in2="effect1_backgroundBlur_180_14960" result="shape"/>
</filter>
<filter id="filter1_b_180_14960" x="287.634" y="151.634" width="158.731" height="132.731" filterUnits="userSpaceOnUse" color-interpolation-filters="sRGB">
<feFlood flood-opacity="0" result="BackgroundImageFix"/>
<feGaussianBlur in="BackgroundImageFix" stdDeviation="27.1828"/>
<feComposite in2="SourceAlpha" operator="in" result="effect1_backgroundBlur_180_14960"/>
<feBlend mode="normal" in="SourceGraphic" in2="effect1_backgroundBlur_180_14960" result="shape"/>
</filter>
<clipPath id="clip0_180_14960">
<rect width="550" height="318" fill="white"/>
</clipPath>
<clipPath id="clip1_180_14960">
<rect width="252" height="530" fill="white"/>
</clipPath>
<clipPath id="clip2_180_14960">
<rect width="16" height="16" fill="white" transform="translate(32 287)"/>
</clipPath>
<clipPath id="clip3_180_14960">
<rect x="272" y="69" width="502" height="32" rx="3" fill="white"/>
</clipPath>
<clipPath id="clip4_180_14960">
<rect x="272" y="125" width="270" height="121" rx="12" fill="white"/>
</clipPath>
<clipPath id="clip5_180_14960">
<rect width="16" height="16" fill="white" transform="translate(482 149)"/>
</clipPath>
<clipPath id="clip6_180_14960">
<rect x="272" y="262" width="270" height="121" rx="12" fill="white"/>
</clipPath>
</defs>
</svg>
