<svg width="550" height="318" viewBox="0 0 550 318" fill="none" xmlns="http://www.w3.org/2000/svg">
<g clip-path="url(#clip0_180_14988)">
<rect width="550" height="318" fill="white"/>
<g clip-path="url(#clip1_180_14988)">
<rect width="914" height="69" fill="white"/>
<rect width="232" height="69" fill="white"/>
<path fill-rule="evenodd" clip-rule="evenodd" d="M31.1327 45.7059L20.6685 40.7648C19.7772 40.3335 19.7772 39.6668 20.6685 39.2747L24.3116 37.5493L31.0939 40.7648C31.9853 41.1962 33.4193 41.1962 34.2719 40.7648L41.0542 37.5493L44.6973 39.2747C45.5887 39.7061 45.5887 40.3727 44.6973 40.7648L34.2332 45.7059C33.4193 46.098 31.9853 46.098 31.1327 45.7059Z" fill="#FF6F3D"/>
<path fill-rule="evenodd" clip-rule="evenodd" d="M31.0988 39.5916L20.6665 34.6448C19.7778 34.213 19.7778 33.5456 20.6665 33.153L24.2212 31.4648L31.0988 34.7234C31.9874 35.1552 33.4171 35.1552 34.2671 34.7234L41.1447 31.4648L44.6993 33.153C45.588 33.5848 45.588 34.2522 44.6993 34.6448L34.2671 39.5916C33.3784 40.0234 31.9488 40.0234 31.0988 39.5916Z" fill="#95C038"/>
<path fill-rule="evenodd" clip-rule="evenodd" d="M31.0988 33.5408L20.6665 28.6652C19.7778 28.2396 19.7778 27.5817 20.6665 27.1948L31.0988 22.3192C31.9874 21.8936 33.4171 21.8936 34.2671 22.3192L44.6993 27.1948C45.588 27.6204 45.588 28.2783 44.6993 28.6652L34.2671 33.5408C33.3784 33.9277 31.9488 33.9277 31.0988 33.5408Z" fill="#5DC0E8"/>
<path d="M57.693 27.8667C54.674 27.8667 51.7073 29.6484 51.7073 34C51.7073 38.3516 54.674 40.1333 57.693 40.1333C60.712 40.1333 63.6787 38.3516 63.6787 34C63.6787 29.6484 60.712 27.8667 57.693 27.8667ZM57.693 29.5799C58.6179 29.5799 61.0611 29.9397 61.0611 34C61.0611 38.0603 58.6179 38.4201 57.693 38.4201C56.7681 38.4201 54.3249 38.0603 54.3249 34C54.3249 29.9397 56.7681 29.5799 57.693 29.5799Z" fill="#333333"/>
<path d="M65.692 28.0037V39.9963H68.1701V32.9378L68.1177 30.8134H68.1701L68.7809 32.1497L73.0389 39.9963H76.2499V28.0037H73.7719V35.0622L73.8242 37.1866H73.7719L73.1262 35.559L68.903 28.0037H65.692Z" fill="#333333"/>
<path d="M78.6951 28.0037V39.9963H86.0246V37.9747H81.1732V28.0037H78.6951Z" fill="#333333"/>
<path d="M83.9305 28.0037L88.4329 35.0965V39.9963H90.9109V35.1307L95.3086 28.0037H92.6909L90.1605 32.2182L89.7417 33.0406H89.6893L89.3054 32.2182L86.7924 28.0037H83.9305Z" fill="#333333"/>
<path d="M101.082 27.8667C98.0631 27.8667 95.0964 29.6484 95.0964 34C95.0964 38.3516 98.0631 40.1333 101.082 40.1333C104.101 40.1333 107.068 38.3516 107.068 34C107.068 29.6484 104.101 27.8667 101.082 27.8667ZM101.082 29.5799C102.007 29.5799 104.45 29.9397 104.45 34C104.45 38.0603 102.007 38.4201 101.082 38.4201C100.157 38.4201 97.7141 38.0603 97.7141 34C97.7141 29.9397 100.157 29.5799 101.082 29.5799Z" fill="#333333"/>
<path d="M109.081 28.0037V39.9963H111.559V34.908H115.713V32.9378H111.559V30.0253H115.922V28.0037H109.081Z" fill="#333333"/>
<path d="M117.67 28.0037V39.9963H120.148V34.908H124.302V32.9378H120.148V30.0253H124.511V28.0037H117.67Z" fill="#333333"/>
<path d="M126.26 39.9963H128.738V28.0037H126.26V39.9963Z" fill="#333333"/>
<path d="M140.102 37.5806C139.492 37.8547 138.636 38.1117 137.554 38.1117C135.356 38.1117 133.366 36.9296 133.366 34.0343C133.366 31.5844 134.989 29.8883 137.729 29.8883C138.654 29.8883 139.439 30.0596 140.155 30.3337L140.259 28.2778C139.334 27.9866 138.514 27.8667 137.554 27.8667C133.715 27.8667 130.749 29.9397 130.749 34.0685C130.749 38.4372 134.064 40.1333 137.101 40.1333C138.078 40.1333 139.177 39.9791 140.259 39.6194L140.102 37.5806Z" fill="#333333"/>
<path d="M142.177 28.0037V39.9963H149.471V37.8719H144.655V34.8052H149.035V32.835H144.655V30.1281H149.471V28.0037H142.177Z" fill="#333333"/>
<path d="M157.658 30.53H161.76V31.51H157.658V30.53ZM159.24 27.24H160.248V40.106H159.24V27.24ZM162.18 29.9H168.032V30.922H162.18V29.9ZM167.626 29.9H168.634C168.634 29.9 168.634 30.292 168.634 30.432C168.48 36.69 168.354 38.776 167.864 39.406C167.584 39.798 167.29 39.91 166.842 39.966C166.408 40.008 165.652 39.994 164.91 39.952C164.882 39.658 164.77 39.224 164.588 38.944C165.386 39 166.128 39.014 166.422 39.014C166.674 39.014 166.814 38.972 166.954 38.79C167.346 38.342 167.486 36.172 167.626 30.152V29.9ZM162.404 32.364L163.342 32.56C163.048 34.03 162.502 35.5 161.858 36.48C161.69 36.326 161.298 36.06 161.06 35.92C161.69 35.024 162.138 33.708 162.404 32.364ZM168.732 32.588L169.614 32.406C170.02 33.694 170.454 35.374 170.594 36.354L169.628 36.592C169.516 35.598 169.124 33.89 168.732 32.588ZM164.686 27.38H165.68V29.886C165.68 32.994 165.386 37.082 161.718 40.148C161.55 39.91 161.172 39.588 160.92 39.434C164.434 36.55 164.686 32.756 164.686 29.886V27.38ZM177.678 29.592H184.314V30.6H177.188L177.678 29.592ZM179.428 32.63H183.992V33.596H179.428V32.63ZM179.414 35.71H184.188V36.704H179.414V35.71ZM178.896 29.914H179.974V40.12H178.896V29.914ZM178.21 27.408L179.232 27.674C178.434 29.9 177.216 32.098 175.928 33.54C175.774 33.358 175.354 32.98 175.116 32.812C176.39 31.51 177.524 29.466 178.21 27.408ZM174.85 27.296L175.858 27.618C174.934 29.984 173.492 32.378 171.966 33.946C171.868 33.694 171.546 33.134 171.35 32.882C172.75 31.524 174.052 29.424 174.85 27.296ZM173.352 30.908L174.388 29.858L174.416 29.872V40.106H173.352V30.908ZM191.146 34.814H192.252V39.168H191.146V34.814ZM185.77 28.948H197.684V31.776H196.606V29.928H186.82V32.112H185.77V28.948ZM187.254 34.198H196.256V35.15H187.254V34.198ZM185.798 38.692H197.684V39.658H185.798V38.692ZM192.616 31.496L193.26 30.796C194.66 31.482 196.578 32.532 197.572 33.19L196.886 34.016C195.934 33.344 194.03 32.224 192.616 31.496ZM190.082 30.754L190.824 31.384C189.704 32.378 188.15 33.442 186.526 34.142L185.91 33.232C187.562 32.63 189.004 31.678 190.082 30.754ZM190.642 27.464L191.748 27.156C192.084 27.786 192.504 28.64 192.7 29.172L191.552 29.55C191.37 29.018 190.992 28.122 190.642 27.464ZM199.854 30.404H200.918V40.134H199.854V30.404ZM200.05 27.926L200.862 27.436C201.52 28.01 202.276 28.85 202.626 29.424L201.744 29.998C201.436 29.424 200.694 28.556 200.05 27.926ZM203.494 28.038H210.872V29.018H203.494V28.038ZM210.27 28.038H211.348V38.846C211.348 39.434 211.236 39.714 210.872 39.882C210.494 40.05 209.892 40.064 209.024 40.064C208.982 39.798 208.842 39.364 208.702 39.084C209.29 39.112 209.864 39.098 210.032 39.098C210.228 39.098 210.27 39.028 210.27 38.846V28.038ZM203.872 34.87V36.76H207.246V34.87H203.872ZM203.872 32.126V34.002H207.246V32.126H203.872ZM202.92 31.258H208.24V37.642H202.92V31.258Z" fill="#333333"/>
<rect width="682" height="69" transform="translate(232)" fill="white"/>
<rect width="16" height="69" transform="translate(252)" fill="white"/>
<line x1="252.5" y1="24" x2="252.5" y2="45" stroke="#DFE2E3"/>
<rect width="72" height="69" transform="translate(268)" fill="white"/>
<path d="M278.386 27.068L280.528 26.186C281.572 28.292 283.624 30.812 285.262 32.324C284.704 32.774 283.876 33.602 283.462 34.196C281.77 32.378 279.7 29.534 278.386 27.068ZM273.328 26.15L275.776 26.852C274.624 29.678 272.734 32.468 270.898 34.178C270.466 33.728 269.404 32.918 268.846 32.576C270.7 31.118 272.392 28.652 273.328 26.15ZM278.692 36.248L280.78 35.276C282.346 37.22 284.038 39.758 284.92 41.486L282.688 42.656C282.508 42.224 282.256 41.738 281.95 41.216C277.63 41.504 273.094 41.774 269.926 41.918L269.638 39.668L272.14 39.578C273.292 37.436 274.534 34.556 275.218 32.306L277.792 32.9C276.856 35.114 275.686 37.526 274.588 39.47C276.532 39.38 278.638 39.272 280.726 39.164C280.078 38.156 279.358 37.13 278.692 36.248ZM291.49 37.508L293.758 38.39C292.408 39.938 290.428 41.558 288.7 42.584C288.232 42.116 287.44 41.432 286.936 41.09C288.628 40.19 290.536 38.714 291.49 37.508ZM296.242 38.516L298.204 37.454C299.734 38.552 301.966 40.226 303.1 41.324L300.976 42.584C299.986 41.486 297.844 39.74 296.242 38.516ZM292.93 31.28V34.736H297.07V31.28H292.93ZM299.302 34.736H303.226V36.824H286.828V34.736H290.698V31.28H287.458V29.21H290.698V25.88H292.93V29.21H297.07V25.88H299.302V29.21H302.668V31.28H299.302V34.736ZM320.632 26.582V28.49H305.458V26.582H320.632ZM312.73 33.494H308.734C308.734 33.854 308.716 34.232 308.698 34.61H312.73V33.494ZM317.428 30.83H308.734V31.946H317.428V30.83ZM321.046 36.284H313.792C313.756 36.626 313.702 36.968 313.63 37.292H319.516C319.516 37.292 319.498 37.796 319.462 38.048C319.264 40.406 319.048 41.522 318.598 41.972C318.202 42.386 317.734 42.512 317.176 42.566C316.672 42.602 315.754 42.62 314.8 42.584C314.764 42.044 314.548 41.306 314.242 40.802C315.052 40.892 315.844 40.91 316.186 40.91C316.474 40.91 316.654 40.874 316.816 40.73C317.014 40.55 317.158 40.028 317.284 38.93H313.126C312.424 40.532 311.11 41.756 308.464 42.566C308.266 42.062 307.726 41.288 307.294 40.892C310.606 40.01 311.362 38.462 311.65 36.284H308.572C308.32 38.444 307.69 40.73 306.268 42.368C305.872 41.99 304.954 41.414 304.432 41.18C306.448 38.93 306.646 35.672 306.646 33.278V29.282H319.516V33.494H314.854V34.61H321.046V36.284ZM323.278 30.056H325.51V42.602H323.278V30.056ZM323.53 26.87L325.222 25.844C326.068 26.618 327.04 27.752 327.472 28.562L325.654 29.714C325.276 28.94 324.34 27.734 323.53 26.87ZM328.102 26.618H337.84V28.616H328.102V26.618ZM336.634 26.618H338.884V40.298C338.884 41.306 338.704 41.792 338.11 42.134C337.498 42.476 336.634 42.494 335.5 42.494C335.428 41.954 335.158 41.09 334.888 40.568C335.464 40.604 336.13 40.586 336.346 40.586C336.58 40.586 336.634 40.496 336.634 40.28V26.618ZM329.254 35.942V37.67H332.746V35.942H329.254ZM329.254 32.504V34.214H332.746V32.504H329.254ZM327.328 30.776H334.762V39.398H327.328V30.776Z" fill="#333333"/>
<rect width="333" height="69" transform="translate(340)" fill="white"/>
<path fill-rule="evenodd" clip-rule="evenodd" d="M366.5 28.5C366.5 29.6046 365.605 30.5 364.5 30.5C363.395 30.5 362.5 29.6046 362.5 28.5C362.5 27.3954 363.395 26.5 364.5 26.5C365.605 26.5 366.5 27.3954 366.5 28.5ZM364.5 36.5C365.605 36.5 366.5 35.6046 366.5 34.5C366.5 33.3954 365.605 32.5 364.5 32.5C363.395 32.5 362.5 33.3954 362.5 34.5C362.5 35.6046 363.395 36.5 364.5 36.5ZM364.5 42.5C365.605 42.5 366.5 41.6046 366.5 40.5C366.5 39.3954 365.605 38.5 364.5 38.5C363.395 38.5 362.5 39.3954 362.5 40.5C362.5 41.6046 363.395 42.5 364.5 42.5Z" fill="#A3A9AE"/>
</g>
<rect width="914" height="32" transform="translate(0 69)" fill="white"/>
<g clip-path="url(#clip2_180_14988)">
<rect x="20" y="69" width="754" height="32" rx="3" fill="white"/>
<path d="M32.758 84.527L32.953 85.931C32.485 86.061 32.017 86.191 31.549 86.321V89.506C31.549 90.247 31.419 90.624 31.003 90.845C30.561 91.092 29.95 91.131 29.04 91.131C29.001 90.728 28.793 90.13 28.624 89.727C29.118 89.753 29.651 89.753 29.82 89.753C30.002 89.753 30.054 89.688 30.054 89.506V86.724L28.689 87.088L28.299 85.606C28.793 85.502 29.404 85.372 30.054 85.216V82.863H28.507V81.433H30.054V79.002H31.549V81.433H32.797V82.863H31.549V84.839L32.758 84.527ZM38.075 87.335H35.02C35.41 87.803 35.917 88.219 36.541 88.557C37.139 88.219 37.659 87.816 38.075 87.335ZM34.5 83.929H35.904V80.51C35.462 80.757 34.968 80.965 34.5 81.147V81.979H35.501V83.071H34.5V83.929ZM39.271 86.009L40.22 86.451C39.726 87.621 38.959 88.518 37.997 89.207C38.816 89.493 39.739 89.701 40.727 89.831C40.389 90.156 39.986 90.767 39.778 91.17C38.517 90.949 37.399 90.598 36.424 90.104C35.319 90.598 34.058 90.923 32.706 91.131C32.576 90.741 32.29 90.169 32.043 89.844C33.109 89.727 34.11 89.519 35.02 89.22C34.448 88.778 33.954 88.258 33.538 87.673L34.435 87.335H32.927V86.074H35.904V85.138H33.161V79.977L33.837 80.185C34.318 79.938 34.812 79.626 35.124 79.353L35.904 80.094V79.002H37.282V83.929H38.777V83.071H37.672V81.979H38.777V81.16H37.659V79.951H40.155V85.138H37.282V86.074H39.011L39.271 86.009ZM44.471 88.193L45.94 88.752C45.095 89.636 43.782 90.52 42.69 91.04C42.417 90.741 41.845 90.208 41.507 89.948C42.599 89.545 43.795 88.882 44.471 88.193ZM51.582 87.946L48.228 88.05V91.131H46.694V88.102C44.887 88.154 43.223 88.193 41.897 88.219L41.819 86.841C42.638 86.841 43.639 86.841 44.744 86.828C44.939 86.724 45.134 86.607 45.329 86.49C44.705 86.022 43.847 85.489 43.132 85.125L44.159 84.241C44.328 84.332 44.523 84.423 44.705 84.527C45.121 84.189 45.563 83.786 45.927 83.409H43.327V84.813H41.858V82.122H46.681V81.329H41.975V80.003H46.681V78.989H48.202V80.003H52.999V81.329H48.202V82.122H53.168V84.813H51.634V83.409H47.331L47.734 83.604C47.11 84.163 46.408 84.722 45.797 85.164C46.083 85.346 46.356 85.528 46.59 85.697C47.552 85.06 48.462 84.371 49.138 83.773L50.516 84.514C49.489 85.294 48.254 86.113 47.071 86.815C48.059 86.802 49.086 86.789 50.126 86.776C49.814 86.542 49.502 86.334 49.203 86.139L50.217 85.359C51.231 85.996 52.609 86.958 53.298 87.647L52.206 88.531C52.037 88.362 51.829 88.154 51.582 87.946ZM48.982 88.934L50.152 88.154C51.166 88.687 52.583 89.532 53.324 90.13L52.05 91.001C51.413 90.416 50.035 89.519 48.982 88.934Z" fill="#A3A9AE"/>
</g>
<rect x="20.5" y="69.5" width="753" height="31" rx="2.5" stroke="#D0D5DA"/>
<rect width="914" height="40" transform="translate(0 101)" fill="white"/>
<path d="M25.196 125.28H29.264V122.94H25.196V125.28ZM27.308 118.26H24.32C24.128 118.464 23.936 118.668 23.732 118.872C24.368 119.34 25.136 119.94 25.64 120.456C26.312 119.796 26.876 119.052 27.308 118.26ZM30.752 121.644V127.044H29.264V126.564H25.196V127.032H23.768V123.624C22.928 124.104 22.028 124.488 21.116 124.8C20.948 124.404 20.588 123.816 20.288 123.528C21.788 123.096 23.24 122.376 24.488 121.452C24.008 120.924 23.288 120.3 22.652 119.796C22.244 120.12 21.8 120.42 21.32 120.708C21.104 120.36 20.636 119.832 20.312 119.592C22.28 118.548 23.6 117.084 24.296 115.776L25.904 116.076C25.724 116.388 25.52 116.7 25.304 117.012H28.028L28.268 116.94L29.252 117.456C28.64 119.1 27.668 120.504 26.468 121.644H30.752ZM37.904 120.612L39.248 120.876C38.936 122.472 38.384 124.08 37.7 125.076C37.436 124.86 36.86 124.488 36.524 124.332C37.196 123.444 37.664 122.016 37.904 120.612ZM43.448 119.124H41.048V125.412C41.048 126.108 40.94 126.516 40.508 126.744C40.1 126.972 39.524 127.02 38.744 127.02C38.684 126.624 38.48 125.988 38.264 125.592C38.768 125.616 39.272 125.616 39.44 125.604C39.596 125.604 39.656 125.568 39.656 125.412V119.124H38.48C38.168 119.784 37.82 120.372 37.448 120.84C37.328 120.732 37.124 120.6 36.908 120.456V120.528H35.624V120.876C35.948 121.14 36.932 122.184 37.16 122.448L36.344 123.564C36.2 123.252 35.912 122.784 35.624 122.352V127.032H34.244V122.724C33.86 123.648 33.404 124.5 32.936 125.1C32.804 124.692 32.504 124.104 32.276 123.744C32.948 122.964 33.608 121.692 34.052 120.528H32.528V119.196H34.244V117.804C33.74 117.9 33.248 117.984 32.78 118.044C32.708 117.72 32.54 117.24 32.384 116.952C33.704 116.724 35.18 116.376 36.104 115.956L37.052 117.048C36.62 117.216 36.14 117.372 35.624 117.504V119.196H36.872C37.436 118.26 37.856 117.06 38.12 115.86L39.512 116.148C39.38 116.712 39.212 117.264 39.02 117.792H43.448V119.124ZM41.348 120.9L42.584 120.54C43.088 121.824 43.532 123.468 43.7 124.572L42.368 124.992C42.248 123.888 41.816 122.184 41.348 120.9Z" fill="#A3A9AE"/>
<path fill-rule="evenodd" clip-rule="evenodd" d="M53.633 125.854C53.8357 126.049 54.1643 126.049 54.367 125.854L58 122.354L57.266 121.646L54.519 124.293V117H53.481V124.293L50.734 121.646L50 122.354L53.633 125.854Z" fill="#A3A9AE"/>
<rect x="233.5" y="116" width="1" height="10" fill="#D0D5DA"/>
<path d="M245.032 115.872L246.34 116.268C246.088 117.012 245.788 117.792 245.452 118.536V127.032H244.096V121.032C243.856 121.392 243.604 121.74 243.34 122.04C243.22 121.704 242.884 120.876 242.656 120.504C243.616 119.376 244.504 117.624 245.032 115.872ZM247.36 119.184V120.852C248.212 120.636 248.98 120.348 249.652 119.964C249.316 119.664 249.016 119.352 248.764 119.04C248.548 119.304 248.308 119.544 248.068 119.76C247.912 119.604 247.624 119.376 247.36 119.184ZM251.572 118.188H249.46C249.76 118.572 250.144 118.956 250.612 119.292C250.996 118.968 251.308 118.608 251.572 118.188ZM253.96 118.188H253.06C252.712 118.872 252.256 119.448 251.728 119.952C252.472 120.312 253.348 120.6 254.344 120.756C254.092 121.02 253.744 121.56 253.576 121.896C252.472 121.656 251.512 121.248 250.72 120.756C249.916 121.284 248.992 121.692 247.984 121.992C247.876 121.776 247.6 121.404 247.36 121.128V125.04H246.124V117.36H247.36V118.632C248.14 117.9 248.788 116.88 249.16 115.836L250.444 116.136C250.336 116.436 250.204 116.748 250.06 117.036H253.96V118.188ZM251.956 122.436L252.976 122.856C252.028 123.888 250.432 124.608 248.8 125.028C248.644 124.764 248.356 124.368 248.104 124.14C249.604 123.828 251.164 123.228 251.956 122.436ZM250.78 121.344L251.824 121.776C251.08 122.532 249.892 123.096 248.776 123.456C248.608 123.192 248.296 122.856 248.02 122.64C249.04 122.376 250.192 121.884 250.78 121.344ZM252.82 123.792L254.044 124.284C252.796 125.748 250.672 126.552 248.224 126.996C248.068 126.648 247.78 126.18 247.504 125.868C249.712 125.568 251.788 124.92 252.82 123.792ZM263.74 119.28H261.832C262.072 120.42 262.396 121.464 262.852 122.388C263.272 121.512 263.56 120.48 263.74 119.28ZM266.104 119.28H265.216C264.916 121.092 264.436 122.568 263.716 123.78C264.376 124.632 265.228 125.316 266.296 125.748C265.96 126.036 265.516 126.612 265.312 127.02C264.28 126.528 263.464 125.856 262.792 125.016C262 125.88 261.004 126.564 259.744 127.092C259.588 126.768 259.156 126.132 258.88 125.82C260.224 125.34 261.22 124.68 261.976 123.78C261.52 122.94 261.172 121.992 260.884 120.948C260.716 121.224 260.536 121.464 260.344 121.692C260.2 121.548 259.924 121.344 259.66 121.152V121.584H258.28V121.188H256.636V123.552C256.636 123.972 256.708 124.032 257.14 124.032H258.364C258.724 124.032 258.796 123.864 258.844 122.772C259.132 122.988 259.732 123.228 260.116 123.312C259.948 124.944 259.576 125.364 258.496 125.364H256.936C255.628 125.364 255.244 124.98 255.244 123.564V119.892H258.28V118.068H255.256V116.748H259.66V120.048C260.416 118.944 260.944 117.432 261.244 115.848L262.732 116.112C262.6 116.736 262.444 117.348 262.252 117.936H266.104V119.28ZM269.836 124.68H275.164V121.992H269.836V124.68ZM275.164 117.996H269.836V120.576H275.164V117.996ZM268.36 116.556H276.7V126.876H275.164V126.12H269.836V126.9H268.36V116.556ZM281.26 122.136V122.952H282.748V122.136H281.26ZM282.748 118.5H281.26V119.196H282.748V118.5ZM281.26 120.288V121.044H282.748V120.288H281.26ZM284.788 122.952V124.2H278.896V122.952H279.976V118.5H279.04V117.252H279.976V115.98H281.26V117.252H282.748V115.98H284.056V117.252H284.872V118.5H284.056V122.952H284.788ZM280.384 124.284L281.716 124.68C281.296 125.556 280.588 126.492 279.94 127.08C279.676 126.828 279.124 126.42 278.8 126.228C279.424 125.76 280.048 125.004 280.384 124.284ZM286.6 121.8H288.34V120.324H286.612V120.768C286.612 121.08 286.612 121.428 286.6 121.8ZM288.34 117.66H286.612V119.064H288.34V117.66ZM289.72 116.364V125.46C289.72 126.168 289.588 126.54 289.168 126.768C288.748 126.996 288.136 127.032 287.248 127.02C287.2 126.648 287.02 126.024 286.84 125.664C287.356 125.7 287.932 125.688 288.1 125.688C288.28 125.688 288.34 125.628 288.34 125.436V123.072H286.516C286.384 124.488 286.084 125.988 285.436 127.068C285.208 126.816 284.62 126.384 284.308 126.264C284.344 126.192 284.392 126.132 284.428 126.06L283.432 126.624C283.192 126.156 282.616 125.364 282.148 124.812L283.228 124.224C283.66 124.704 284.224 125.364 284.524 125.856C285.22 124.356 285.28 122.328 285.28 120.768V116.364H289.72Z" fill="#A3A9AE"/>
<rect x="431" y="116" width="1" height="10" fill="#D0D5DA"/>
<path d="M451.328 120.528H447.104C447.896 122.868 449.348 124.752 451.592 125.664C451.232 125.964 450.764 126.6 450.536 127.008C448.364 125.988 446.972 124.236 446.036 121.92C445.388 123.924 444.092 125.796 441.548 127.02C441.32 126.624 440.9 126.108 440.48 125.808C443.228 124.584 444.368 122.592 444.836 120.528H440.708V119.052H445.076C445.196 117.924 445.184 116.832 445.196 115.848H446.756C446.744 116.832 446.732 117.936 446.612 119.052H451.328V120.528ZM457.268 116.004H458.816V125.256C458.816 126.132 458.612 126.528 458.084 126.756C457.52 126.984 456.704 127.032 455.54 127.032C455.456 126.612 455.192 125.94 454.976 125.544C455.756 125.58 456.644 125.58 456.908 125.568C457.172 125.568 457.268 125.484 457.268 125.256V116.004ZM460.124 119.136L461.528 118.608C462.5 120.312 463.484 122.484 463.784 123.984L462.224 124.596C461.984 123.144 461.072 120.888 460.124 119.136ZM454.124 118.74L455.756 119.016C455.348 120.804 454.7 123.036 453.704 124.356C453.344 124.116 452.684 123.78 452.312 123.612C453.272 122.4 453.872 120.3 454.124 118.74Z" fill="#A3A9AE"/>
<rect x="20" y="140" width="874" height="1" fill="#ECEEF1"/>
<rect width="914" height="48" transform="translate(0 141)" fill="white"/>
<path d="M28 157C27.4477 157 27 157.448 27 158V162C27 161.448 27.4477 161 28 161H45C45.5523 161 46 161.448 46 162V161C46 160.448 45.5523 160 45 160H35V158C35 157.448 34.5523 157 34 157H28Z" fill="#788790"/>
<rect x="27" y="161" width="19" height="12" rx="1" fill="#B2BBC0"/>
<path d="M72.467 164.657V166.204H67.319V169.324C67.319 170.221 67.124 170.637 66.5 170.884C65.889 171.131 64.979 171.17 63.796 171.157C63.692 170.702 63.393 169.987 63.146 169.558C64.043 169.597 65.044 169.597 65.343 169.597C65.616 169.597 65.707 169.532 65.707 169.298V166.204H60.546V164.657H65.707V162.603H66.474C67.111 162.226 67.774 161.758 68.333 161.303H61.898V159.782H69.945L70.296 159.704L71.479 160.588C70.374 161.732 68.788 162.98 67.319 163.825V164.657H72.467ZM81.749 162.551H77.186C77.745 163.955 78.512 165.203 79.513 166.256C80.449 165.242 81.19 164.02 81.749 162.551ZM85.441 162.551H83.569C82.867 164.475 81.918 166.048 80.722 167.348C82.061 168.375 83.699 169.142 85.675 169.584C85.298 169.961 84.804 170.689 84.57 171.131C82.477 170.598 80.787 169.727 79.422 168.57C78.005 169.701 76.328 170.546 74.352 171.17C74.17 170.767 73.689 170.039 73.377 169.662C75.301 169.155 76.926 168.414 78.239 167.413C77.069 166.074 76.172 164.449 75.47 162.551H73.611V161.043H78.707V158.989H80.28V161.043H85.441V162.551ZM89.172 159.041L90.641 159.509C90.29 160.432 89.861 161.381 89.367 162.278V171.118H87.898V164.579C87.638 164.904 87.378 165.229 87.118 165.515C86.975 165.125 86.546 164.293 86.286 163.903C87.43 162.733 88.535 160.887 89.172 159.041ZM98.519 165.255V166.763H95.191V171.131H93.631V166.763H90.121V165.255H93.631V163.019H92.045C91.811 163.656 91.525 164.241 91.239 164.696C90.953 164.488 90.277 164.124 89.9 163.955C90.602 162.941 91.135 161.29 91.434 159.704L92.929 160.016C92.825 160.523 92.695 161.017 92.552 161.511H93.631V159.158H95.191V161.511H97.908V163.019H95.191V165.255H98.519ZM111.337 166.516H106.917C107.801 168.102 109.283 169.194 111.519 169.662C111.168 169.974 110.726 170.65 110.518 171.066C108.061 170.429 106.54 169.116 105.526 167.14C104.772 168.96 103.316 170.286 100.508 171.131C100.339 170.702 99.897 170.065 99.533 169.74C102.029 169.051 103.316 168.011 103.992 166.516H99.676V164.943H101.925C101.847 164.345 101.535 163.422 101.21 162.733L102.588 162.408C102.952 163.097 103.316 164.033 103.42 164.618L102.146 164.943H104.447C104.603 164.176 104.668 163.292 104.694 162.33H100.183V160.809H104.72V159.002H106.397C106.397 159.626 106.397 160.224 106.384 160.809H110.804V162.33H106.345C106.319 163.266 106.254 164.15 106.124 164.943H108.204L107.242 164.67C107.606 164.033 108.048 163.045 108.256 162.33L109.816 162.72C109.413 163.526 108.945 164.358 108.568 164.943H111.337V166.516Z" fill="#333333"/>
<path d="M247.312 169H241.994V168.049L244.03 165.987C244.424 165.586 244.748 165.24 245.002 164.95C245.256 164.657 245.444 164.379 245.566 164.118C245.691 163.856 245.754 163.572 245.754 163.264C245.754 162.884 245.645 162.598 245.426 162.404C245.208 162.207 244.92 162.109 244.562 162.109C244.221 162.109 243.906 162.177 243.616 162.313C243.33 162.445 243.033 162.635 242.725 162.882L242.032 162.05C242.25 161.864 242.483 161.694 242.73 161.54C242.981 161.386 243.26 161.264 243.568 161.174C243.876 161.081 244.227 161.035 244.621 161.035C245.118 161.035 245.548 161.124 245.91 161.303C246.271 161.479 246.549 161.724 246.742 162.039C246.939 162.354 247.038 162.721 247.038 163.14C247.038 163.563 246.953 163.953 246.785 164.311C246.617 164.669 246.377 165.024 246.065 165.375C245.754 165.722 245.383 166.1 244.954 166.508L243.595 167.834V167.894H247.312V169ZM253.606 165.068C253.606 165.702 253.556 166.27 253.456 166.771C253.359 167.269 253.205 167.691 252.994 168.039C252.783 168.386 252.507 168.651 252.167 168.833C251.827 169.016 251.415 169.107 250.932 169.107C250.326 169.107 249.827 168.948 249.433 168.629C249.039 168.307 248.747 167.845 248.558 167.244C248.368 166.639 248.273 165.913 248.273 165.068C248.273 164.223 248.359 163.5 248.531 162.898C248.706 162.293 248.989 161.83 249.379 161.507C249.77 161.185 250.287 161.024 250.932 161.024C251.54 161.024 252.042 161.185 252.436 161.507C252.833 161.826 253.127 162.288 253.316 162.893C253.51 163.495 253.606 164.22 253.606 165.068ZM249.546 165.068C249.546 165.731 249.589 166.284 249.675 166.728C249.764 167.172 249.911 167.505 250.115 167.727C250.319 167.945 250.591 168.055 250.932 168.055C251.272 168.055 251.544 167.945 251.748 167.727C251.952 167.509 252.099 167.177 252.188 166.733C252.282 166.289 252.328 165.734 252.328 165.068C252.328 164.41 252.283 163.858 252.194 163.414C252.104 162.97 251.958 162.637 251.753 162.415C251.549 162.189 251.275 162.077 250.932 162.077C250.588 162.077 250.314 162.189 250.11 162.415C249.909 162.637 249.764 162.97 249.675 163.414C249.589 163.858 249.546 164.41 249.546 165.068ZM259.901 169H254.584V168.049L256.62 165.987C257.014 165.586 257.338 165.24 257.592 164.95C257.846 164.657 258.034 164.379 258.156 164.118C258.281 163.856 258.344 163.572 258.344 163.264C258.344 162.884 258.235 162.598 258.016 162.404C257.798 162.207 257.509 162.109 257.151 162.109C256.811 162.109 256.496 162.177 256.206 162.313C255.92 162.445 255.622 162.635 255.314 162.882L254.622 162.05C254.84 161.864 255.073 161.694 255.32 161.54C255.57 161.386 255.85 161.264 256.158 161.174C256.466 161.081 256.817 161.035 257.21 161.035C257.708 161.035 258.138 161.124 258.5 161.303C258.861 161.479 259.139 161.724 259.332 162.039C259.529 162.354 259.627 162.721 259.627 163.14C259.627 163.563 259.543 163.953 259.375 164.311C259.207 164.669 258.967 165.024 258.655 165.375C258.344 165.722 257.973 166.1 257.543 166.508L256.185 167.834V167.894H259.901V169ZM266.481 167.276H265.417V169H264.171V167.276H260.6V166.32L264.188 161.126H265.417V166.229H266.481V167.276ZM264.171 166.229V164.279C264.171 164.118 264.173 163.955 264.177 163.79C264.184 163.622 264.191 163.461 264.198 163.307C264.205 163.153 264.213 163.011 264.22 162.882C264.227 162.75 264.232 162.641 264.236 162.555H264.193C264.125 162.698 264.05 162.845 263.967 162.995C263.885 163.142 263.797 163.285 263.704 163.425L261.771 166.229H264.171ZM270.885 161.147L267.958 169H266.776L269.704 161.147H270.885ZM276.788 165.068C276.788 165.702 276.738 166.27 276.638 166.771C276.541 167.269 276.387 167.691 276.176 168.039C275.965 168.386 275.689 168.651 275.349 168.833C275.008 169.016 274.597 169.107 274.113 169.107C273.508 169.107 273.009 168.948 272.615 168.629C272.221 168.307 271.929 167.845 271.739 167.244C271.549 166.639 271.455 165.913 271.455 165.068C271.455 164.223 271.541 163.5 271.712 162.898C271.888 162.293 272.171 161.83 272.561 161.507C272.951 161.185 273.469 161.024 274.113 161.024C274.722 161.024 275.223 161.185 275.617 161.507C276.015 161.826 276.308 162.288 276.498 162.893C276.691 163.495 276.788 164.22 276.788 165.068ZM272.728 165.068C272.728 165.731 272.771 166.284 272.856 166.728C272.946 167.172 273.093 167.505 273.297 167.727C273.501 167.945 273.773 168.055 274.113 168.055C274.453 168.055 274.726 167.945 274.93 167.727C275.134 167.509 275.281 167.177 275.37 166.733C275.463 166.289 275.51 165.734 275.51 165.068C275.51 164.41 275.465 163.858 275.375 163.414C275.286 162.97 275.139 162.637 274.935 162.415C274.731 162.189 274.457 162.077 274.113 162.077C273.77 162.077 273.496 162.189 273.292 162.415C273.091 162.637 272.946 162.97 272.856 163.414C272.771 163.858 272.728 164.41 272.728 165.068ZM280.414 161.04C280.868 161.04 281.278 161.112 281.644 161.255C282.009 161.395 282.299 161.604 282.514 161.883C282.729 162.163 282.836 162.508 282.836 162.92C282.836 163.239 282.77 163.516 282.637 163.752C282.508 163.989 282.333 164.196 282.111 164.375C281.889 164.551 281.64 164.707 281.364 164.843C281.672 164.993 281.955 165.167 282.213 165.364C282.474 165.557 282.684 165.785 282.841 166.046C283.002 166.307 283.083 166.613 283.083 166.964C283.083 167.405 282.97 167.786 282.745 168.108C282.523 168.427 282.213 168.674 281.815 168.85C281.418 169.021 280.954 169.107 280.424 169.107C279.855 169.107 279.37 169.023 278.969 168.855C278.568 168.687 278.263 168.447 278.056 168.135C277.848 167.82 277.744 167.444 277.744 167.007C277.744 166.646 277.816 166.332 277.959 166.067C278.102 165.802 278.294 165.573 278.534 165.38C278.777 165.187 279.044 165.024 279.334 164.891C279.087 164.744 278.861 164.58 278.657 164.397C278.453 164.211 278.29 163.998 278.168 163.758C278.05 163.514 277.991 163.233 277.991 162.915C277.991 162.506 278.1 162.164 278.319 161.889C278.537 161.609 278.829 161.398 279.194 161.255C279.563 161.112 279.97 161.04 280.414 161.04ZM278.947 166.959C278.947 167.303 279.069 167.586 279.312 167.808C279.556 168.03 279.919 168.141 280.403 168.141C280.883 168.141 281.248 168.031 281.499 167.813C281.749 167.595 281.875 167.306 281.875 166.948C281.875 166.719 281.81 166.517 281.681 166.341C281.556 166.166 281.386 166.01 281.171 165.874C280.96 165.734 280.725 165.605 280.467 165.487L280.295 165.417C280.016 165.536 279.776 165.67 279.576 165.82C279.375 165.967 279.219 166.134 279.108 166.32C279.001 166.506 278.947 166.719 278.947 166.959ZM280.403 162.012C280.056 162.012 279.769 162.098 279.543 162.27C279.321 162.438 279.21 162.682 279.21 163C279.21 163.226 279.264 163.419 279.372 163.581C279.483 163.742 279.631 163.881 279.817 164C280.004 164.114 280.209 164.222 280.435 164.322C280.653 164.225 280.85 164.119 281.026 164.005C281.205 163.887 281.346 163.747 281.45 163.586C281.558 163.421 281.611 163.224 281.611 162.995C281.611 162.68 281.499 162.438 281.273 162.27C281.051 162.098 280.761 162.012 280.403 162.012ZM287.772 161.147L284.845 169H283.663L286.59 161.147H287.772ZM293.675 169H288.357V168.049L290.393 165.987C290.787 165.586 291.111 165.24 291.365 164.95C291.619 164.657 291.807 164.379 291.929 164.118C292.055 163.856 292.117 163.572 292.117 163.264C292.117 162.884 292.008 162.598 291.79 162.404C291.571 162.207 291.283 162.109 290.925 162.109C290.585 162.109 290.27 162.177 289.979 162.313C289.693 162.445 289.396 162.635 289.088 162.882L288.395 162.05C288.613 161.864 288.846 161.694 289.093 161.54C289.344 161.386 289.623 161.264 289.931 161.174C290.239 161.081 290.59 161.035 290.984 161.035C291.482 161.035 291.911 161.124 292.273 161.303C292.635 161.479 292.912 161.724 293.105 162.039C293.302 162.354 293.401 162.721 293.401 163.14C293.401 163.563 293.317 163.953 293.148 164.311C292.98 164.669 292.74 165.024 292.429 165.375C292.117 165.722 291.747 166.1 291.317 166.508L289.958 167.834V167.894H293.675V169ZM298.364 169H297.096V163.946C297.096 163.778 297.098 163.609 297.102 163.441C297.105 163.273 297.109 163.108 297.112 162.947C297.119 162.786 297.128 162.632 297.139 162.485C297.064 162.567 296.971 162.657 296.86 162.753C296.752 162.85 296.638 162.95 296.516 163.054L295.614 163.774L294.98 162.974L297.311 161.147H298.364V169ZM307.516 169H306.249V163.946C306.249 163.778 306.25 163.609 306.254 163.441C306.257 163.273 306.261 163.108 306.265 162.947C306.272 162.786 306.281 162.632 306.292 162.485C306.216 162.567 306.123 162.657 306.012 162.753C305.905 162.85 305.79 162.95 305.668 163.054L304.766 163.774L304.132 162.974L306.463 161.147H307.516V169ZM312.748 161.04C313.202 161.04 313.612 161.112 313.978 161.255C314.343 161.395 314.633 161.604 314.848 161.883C315.062 162.163 315.17 162.508 315.17 162.92C315.17 163.239 315.104 163.516 314.971 163.752C314.842 163.989 314.667 164.196 314.445 164.375C314.223 164.551 313.974 164.707 313.698 164.843C314.006 164.993 314.289 165.167 314.547 165.364C314.808 165.557 315.018 165.785 315.175 166.046C315.336 166.307 315.417 166.613 315.417 166.964C315.417 167.405 315.304 167.786 315.079 168.108C314.857 168.427 314.547 168.674 314.149 168.85C313.752 169.021 313.288 169.107 312.758 169.107C312.189 169.107 311.704 169.023 311.303 168.855C310.902 168.687 310.597 168.447 310.39 168.135C310.182 167.82 310.078 167.444 310.078 167.007C310.078 166.646 310.15 166.332 310.293 166.067C310.436 165.802 310.628 165.573 310.868 165.38C311.111 165.187 311.378 165.024 311.668 164.891C311.421 164.744 311.195 164.58 310.991 164.397C310.787 164.211 310.624 163.998 310.502 163.758C310.384 163.514 310.325 163.233 310.325 162.915C310.325 162.506 310.434 162.164 310.653 161.889C310.871 161.609 311.163 161.398 311.528 161.255C311.897 161.112 312.304 161.04 312.748 161.04ZM311.281 166.959C311.281 167.303 311.403 167.586 311.646 167.808C311.89 168.03 312.253 168.141 312.737 168.141C313.217 168.141 313.582 168.031 313.833 167.813C314.083 167.595 314.208 167.306 314.208 166.948C314.208 166.719 314.144 166.517 314.015 166.341C313.89 166.166 313.72 166.01 313.505 165.874C313.294 165.734 313.059 165.605 312.801 165.487L312.629 165.417C312.35 165.536 312.11 165.67 311.91 165.82C311.709 165.967 311.553 166.134 311.442 166.32C311.335 166.506 311.281 166.719 311.281 166.959ZM312.737 162.012C312.389 162.012 312.103 162.098 311.877 162.27C311.655 162.438 311.544 162.682 311.544 163C311.544 163.226 311.598 163.419 311.706 163.581C311.817 163.742 311.965 163.881 312.151 164C312.338 164.114 312.543 164.222 312.769 164.322C312.987 164.225 313.184 164.119 313.36 164.005C313.539 163.887 313.68 163.747 313.784 163.586C313.892 163.421 313.945 163.224 313.945 162.995C313.945 162.68 313.833 162.438 313.607 162.27C313.385 162.098 313.095 162.012 312.737 162.012ZM316.62 168.334C316.62 168.04 316.695 167.834 316.846 167.716C317 167.595 317.186 167.534 317.404 167.534C317.623 167.534 317.809 167.595 317.963 167.716C318.12 167.834 318.199 168.04 318.199 168.334C318.199 168.62 318.12 168.828 317.963 168.957C317.809 169.082 317.623 169.145 317.404 169.145C317.186 169.145 317 169.082 316.846 168.957C316.695 168.828 316.62 168.62 316.62 168.334ZM316.62 163.736C316.62 163.439 316.695 163.23 316.846 163.108C317 162.986 317.186 162.925 317.404 162.925C317.623 162.925 317.809 162.986 317.963 163.108C318.12 163.23 318.199 163.439 318.199 163.736C318.199 164.019 318.12 164.225 317.963 164.354C317.809 164.479 317.623 164.542 317.404 164.542C317.186 164.542 317 164.479 316.846 164.354C316.695 164.225 316.62 164.019 316.62 163.736ZM324.43 162.941C324.43 163.296 324.358 163.604 324.215 163.865C324.072 164.127 323.875 164.341 323.624 164.51C323.377 164.674 323.09 164.793 322.765 164.864V164.902C323.391 164.981 323.864 165.178 324.183 165.493C324.505 165.808 324.666 166.225 324.666 166.744C324.666 167.199 324.557 167.605 324.338 167.963C324.12 168.318 323.785 168.597 323.334 168.801C322.883 169.005 322.303 169.107 321.594 169.107C321.168 169.107 320.772 169.073 320.407 169.005C320.045 168.937 319.701 168.828 319.375 168.678V167.555C319.708 167.72 320.063 167.847 320.439 167.937C320.815 168.026 321.171 168.071 321.508 168.071C322.163 168.071 322.63 167.949 322.91 167.706C323.189 167.458 323.329 167.118 323.329 166.685C323.329 166.406 323.255 166.177 323.108 165.998C322.965 165.819 322.741 165.684 322.437 165.595C322.136 165.505 321.748 165.46 321.271 165.46H320.579V164.445H321.277C321.732 164.445 322.097 164.392 322.373 164.284C322.648 164.173 322.847 164.021 322.969 163.828C323.094 163.634 323.157 163.409 323.157 163.151C323.157 162.814 323.048 162.553 322.829 162.367C322.611 162.177 322.287 162.082 321.857 162.082C321.592 162.082 321.35 162.112 321.132 162.173C320.917 162.234 320.718 162.311 320.536 162.404C320.353 162.497 320.179 162.598 320.015 162.705L319.408 161.83C319.705 161.608 320.059 161.42 320.471 161.266C320.883 161.112 321.363 161.035 321.911 161.035C322.716 161.035 323.338 161.208 323.774 161.556C324.211 161.899 324.43 162.361 324.43 162.941ZM328.356 161.04C328.811 161.04 329.221 161.112 329.586 161.255C329.951 161.395 330.241 161.604 330.456 161.883C330.671 162.163 330.778 162.508 330.778 162.92C330.778 163.239 330.712 163.516 330.58 163.752C330.451 163.989 330.275 164.196 330.053 164.375C329.831 164.551 329.582 164.707 329.307 164.843C329.615 164.993 329.897 165.167 330.155 165.364C330.417 165.557 330.626 165.785 330.784 166.046C330.945 166.307 331.025 166.613 331.025 166.964C331.025 167.405 330.913 167.786 330.687 168.108C330.465 168.427 330.155 168.674 329.758 168.85C329.36 169.021 328.897 169.107 328.367 169.107C327.797 169.107 327.312 169.023 326.911 168.855C326.51 168.687 326.206 168.447 325.998 168.135C325.79 167.82 325.687 167.444 325.687 167.007C325.687 166.646 325.758 166.332 325.901 166.067C326.045 165.802 326.236 165.573 326.476 165.38C326.72 165.187 326.986 165.024 327.276 164.891C327.029 164.744 326.804 164.58 326.6 164.397C326.396 164.211 326.233 163.998 326.111 163.758C325.993 163.514 325.934 163.233 325.934 162.915C325.934 162.506 326.043 162.164 326.261 161.889C326.48 161.609 326.771 161.398 327.137 161.255C327.506 161.112 327.912 161.04 328.356 161.04ZM326.89 166.959C326.89 167.303 327.011 167.586 327.255 167.808C327.498 168.03 327.862 168.141 328.345 168.141C328.825 168.141 329.19 168.031 329.441 167.813C329.692 167.595 329.817 167.306 329.817 166.948C329.817 166.719 329.752 166.517 329.624 166.341C329.498 166.166 329.328 166.01 329.113 165.874C328.902 165.734 328.667 165.605 328.41 165.487L328.238 165.417C327.958 165.536 327.719 165.67 327.518 165.82C327.318 165.967 327.162 166.134 327.051 166.32C326.943 166.506 326.89 166.719 326.89 166.959ZM328.345 162.012C327.998 162.012 327.711 162.098 327.486 162.27C327.264 162.438 327.153 162.682 327.153 163C327.153 163.226 327.207 163.419 327.314 163.581C327.425 163.742 327.574 163.881 327.76 164C327.946 164.114 328.152 164.222 328.377 164.322C328.596 164.225 328.793 164.119 328.968 164.005C329.147 163.887 329.289 163.747 329.393 163.586C329.5 163.421 329.554 163.224 329.554 162.995C329.554 162.68 329.441 162.438 329.215 162.27C328.993 162.098 328.703 162.012 328.345 162.012Z" fill="#A3A9AE"/>
<rect x="20" y="188" width="874" height="1" fill="#ECEEF1"/>
<rect width="914" height="48" transform="translate(0 189)" fill="white"/>
<path d="M28 205C27.4477 205 27 205.448 27 206V210C27 209.448 27.4477 209 28 209H45C45.5523 209 46 209.448 46 210V209C46 208.448 45.5523 208 45 208H35V206C35 205.448 34.5523 205 34 205H28Z" fill="#788790"/>
<rect x="27" y="209" width="19" height="12" rx="1" fill="#B2BBC0"/>
<path d="M72.467 212.657V214.204H67.319V217.324C67.319 218.221 67.124 218.637 66.5 218.884C65.889 219.131 64.979 219.17 63.796 219.157C63.692 218.702 63.393 217.987 63.146 217.558C64.043 217.597 65.044 217.597 65.343 217.597C65.616 217.597 65.707 217.532 65.707 217.298V214.204H60.546V212.657H65.707V210.603H66.474C67.111 210.226 67.774 209.758 68.333 209.303H61.898V207.782H69.945L70.296 207.704L71.479 208.588C70.374 209.732 68.788 210.98 67.319 211.825V212.657H72.467ZM81.749 210.551H77.186C77.745 211.955 78.512 213.203 79.513 214.256C80.449 213.242 81.19 212.02 81.749 210.551ZM85.441 210.551H83.569C82.867 212.475 81.918 214.048 80.722 215.348C82.061 216.375 83.699 217.142 85.675 217.584C85.298 217.961 84.804 218.689 84.57 219.131C82.477 218.598 80.787 217.727 79.422 216.57C78.005 217.701 76.328 218.546 74.352 219.17C74.17 218.767 73.689 218.039 73.377 217.662C75.301 217.155 76.926 216.414 78.239 215.413C77.069 214.074 76.172 212.449 75.47 210.551H73.611V209.043H78.707V206.989H80.28V209.043H85.441V210.551ZM89.172 207.041L90.641 207.509C90.29 208.432 89.861 209.381 89.367 210.278V219.118H87.898V212.579C87.638 212.904 87.378 213.229 87.118 213.515C86.975 213.125 86.546 212.293 86.286 211.903C87.43 210.733 88.535 208.887 89.172 207.041ZM98.519 213.255V214.763H95.191V219.131H93.631V214.763H90.121V213.255H93.631V211.019H92.045C91.811 211.656 91.525 212.241 91.239 212.696C90.953 212.488 90.277 212.124 89.9 211.955C90.602 210.941 91.135 209.29 91.434 207.704L92.929 208.016C92.825 208.523 92.695 209.017 92.552 209.511H93.631V207.158H95.191V209.511H97.908V211.019H95.191V213.255H98.519ZM111.337 214.516H106.917C107.801 216.102 109.283 217.194 111.519 217.662C111.168 217.974 110.726 218.65 110.518 219.066C108.061 218.429 106.54 217.116 105.526 215.14C104.772 216.96 103.316 218.286 100.508 219.131C100.339 218.702 99.897 218.065 99.533 217.74C102.029 217.051 103.316 216.011 103.992 214.516H99.676V212.943H101.925C101.847 212.345 101.535 211.422 101.21 210.733L102.588 210.408C102.952 211.097 103.316 212.033 103.42 212.618L102.146 212.943H104.447C104.603 212.176 104.668 211.292 104.694 210.33H100.183V208.809H104.72V207.002H106.397C106.397 207.626 106.397 208.224 106.384 208.809H110.804V210.33H106.345C106.319 211.266 106.254 212.15 106.124 212.943H108.204L107.242 212.67C107.606 212.033 108.048 211.045 108.256 210.33L109.816 210.72C109.413 211.526 108.945 212.358 108.568 212.943H111.337V214.516Z" fill="#333333"/>
<path d="M247.312 217H241.994V216.049L244.03 213.987C244.424 213.586 244.748 213.24 245.002 212.95C245.256 212.657 245.444 212.379 245.566 212.118C245.691 211.856 245.754 211.572 245.754 211.264C245.754 210.884 245.645 210.598 245.426 210.404C245.208 210.207 244.92 210.109 244.562 210.109C244.221 210.109 243.906 210.177 243.616 210.313C243.33 210.445 243.033 210.635 242.725 210.882L242.032 210.05C242.25 209.864 242.483 209.694 242.73 209.54C242.981 209.386 243.26 209.264 243.568 209.174C243.876 209.081 244.227 209.035 244.621 209.035C245.118 209.035 245.548 209.124 245.91 209.303C246.271 209.479 246.549 209.724 246.742 210.039C246.939 210.354 247.038 210.721 247.038 211.14C247.038 211.563 246.953 211.953 246.785 212.311C246.617 212.669 246.377 213.024 246.065 213.375C245.754 213.722 245.383 214.1 244.954 214.508L243.595 215.834V215.894H247.312V217ZM253.606 213.068C253.606 213.702 253.556 214.27 253.456 214.771C253.359 215.269 253.205 215.691 252.994 216.039C252.783 216.386 252.507 216.651 252.167 216.833C251.827 217.016 251.415 217.107 250.932 217.107C250.326 217.107 249.827 216.948 249.433 216.629C249.039 216.307 248.747 215.845 248.558 215.244C248.368 214.639 248.273 213.913 248.273 213.068C248.273 212.223 248.359 211.5 248.531 210.898C248.706 210.293 248.989 209.83 249.379 209.507C249.77 209.185 250.287 209.024 250.932 209.024C251.54 209.024 252.042 209.185 252.436 209.507C252.833 209.826 253.127 210.288 253.316 210.893C253.51 211.495 253.606 212.22 253.606 213.068ZM249.546 213.068C249.546 213.731 249.589 214.284 249.675 214.728C249.764 215.172 249.911 215.505 250.115 215.727C250.319 215.945 250.591 216.055 250.932 216.055C251.272 216.055 251.544 215.945 251.748 215.727C251.952 215.509 252.099 215.177 252.188 214.733C252.282 214.289 252.328 213.734 252.328 213.068C252.328 212.41 252.283 211.858 252.194 211.414C252.104 210.97 251.958 210.637 251.753 210.415C251.549 210.189 251.275 210.077 250.932 210.077C250.588 210.077 250.314 210.189 250.11 210.415C249.909 210.637 249.764 210.97 249.675 211.414C249.589 211.858 249.546 212.41 249.546 213.068ZM259.901 217H254.584V216.049L256.62 213.987C257.014 213.586 257.338 213.24 257.592 212.95C257.846 212.657 258.034 212.379 258.156 212.118C258.281 211.856 258.344 211.572 258.344 211.264C258.344 210.884 258.235 210.598 258.016 210.404C257.798 210.207 257.509 210.109 257.151 210.109C256.811 210.109 256.496 210.177 256.206 210.313C255.92 210.445 255.622 210.635 255.314 210.882L254.622 210.05C254.84 209.864 255.073 209.694 255.32 209.54C255.57 209.386 255.85 209.264 256.158 209.174C256.466 209.081 256.817 209.035 257.21 209.035C257.708 209.035 258.138 209.124 258.5 209.303C258.861 209.479 259.139 209.724 259.332 210.039C259.529 210.354 259.627 210.721 259.627 211.14C259.627 211.563 259.543 211.953 259.375 212.311C259.207 212.669 258.967 213.024 258.655 213.375C258.344 213.722 257.973 214.1 257.543 214.508L256.185 215.834V215.894H259.901V217ZM266.481 215.276H265.417V217H264.171V215.276H260.6V214.32L264.188 209.126H265.417V214.229H266.481V215.276ZM264.171 214.229V212.279C264.171 212.118 264.173 211.955 264.177 211.79C264.184 211.622 264.191 211.461 264.198 211.307C264.205 211.153 264.213 211.011 264.22 210.882C264.227 210.75 264.232 210.641 264.236 210.555H264.193C264.125 210.698 264.05 210.845 263.967 210.995C263.885 211.142 263.797 211.285 263.704 211.425L261.771 214.229H264.171ZM270.885 209.147L267.958 217H266.776L269.704 209.147H270.885ZM276.788 213.068C276.788 213.702 276.738 214.27 276.638 214.771C276.541 215.269 276.387 215.691 276.176 216.039C275.965 216.386 275.689 216.651 275.349 216.833C275.008 217.016 274.597 217.107 274.113 217.107C273.508 217.107 273.009 216.948 272.615 216.629C272.221 216.307 271.929 215.845 271.739 215.244C271.549 214.639 271.455 213.913 271.455 213.068C271.455 212.223 271.541 211.5 271.712 210.898C271.888 210.293 272.171 209.83 272.561 209.507C272.951 209.185 273.469 209.024 274.113 209.024C274.722 209.024 275.223 209.185 275.617 209.507C276.015 209.826 276.308 210.288 276.498 210.893C276.691 211.495 276.788 212.22 276.788 213.068ZM272.728 213.068C272.728 213.731 272.771 214.284 272.856 214.728C272.946 215.172 273.093 215.505 273.297 215.727C273.501 215.945 273.773 216.055 274.113 216.055C274.453 216.055 274.726 215.945 274.93 215.727C275.134 215.509 275.281 215.177 275.37 214.733C275.463 214.289 275.51 213.734 275.51 213.068C275.51 212.41 275.465 211.858 275.375 211.414C275.286 210.97 275.139 210.637 274.935 210.415C274.731 210.189 274.457 210.077 274.113 210.077C273.77 210.077 273.496 210.189 273.292 210.415C273.091 210.637 272.946 210.97 272.856 211.414C272.771 211.858 272.728 212.41 272.728 213.068ZM280.414 209.04C280.868 209.04 281.278 209.112 281.644 209.255C282.009 209.395 282.299 209.604 282.514 209.883C282.729 210.163 282.836 210.508 282.836 210.92C282.836 211.239 282.77 211.516 282.637 211.752C282.508 211.989 282.333 212.196 282.111 212.375C281.889 212.551 281.64 212.707 281.364 212.843C281.672 212.993 281.955 213.167 282.213 213.364C282.474 213.557 282.684 213.785 282.841 214.046C283.002 214.307 283.083 214.613 283.083 214.964C283.083 215.405 282.97 215.786 282.745 216.108C282.523 216.427 282.213 216.674 281.815 216.85C281.418 217.021 280.954 217.107 280.424 217.107C279.855 217.107 279.37 217.023 278.969 216.855C278.568 216.687 278.263 216.447 278.056 216.135C277.848 215.82 277.744 215.444 277.744 215.007C277.744 214.646 277.816 214.332 277.959 214.067C278.102 213.802 278.294 213.573 278.534 213.38C278.777 213.187 279.044 213.024 279.334 212.891C279.087 212.744 278.861 212.58 278.657 212.397C278.453 212.211 278.29 211.998 278.168 211.758C278.05 211.514 277.991 211.233 277.991 210.915C277.991 210.506 278.1 210.164 278.319 209.889C278.537 209.609 278.829 209.398 279.194 209.255C279.563 209.112 279.97 209.04 280.414 209.04ZM278.947 214.959C278.947 215.303 279.069 215.586 279.312 215.808C279.556 216.03 279.919 216.141 280.403 216.141C280.883 216.141 281.248 216.031 281.499 215.813C281.749 215.595 281.875 215.306 281.875 214.948C281.875 214.719 281.81 214.517 281.681 214.341C281.556 214.166 281.386 214.01 281.171 213.874C280.96 213.734 280.725 213.605 280.467 213.487L280.295 213.417C280.016 213.536 279.776 213.67 279.576 213.82C279.375 213.967 279.219 214.134 279.108 214.32C279.001 214.506 278.947 214.719 278.947 214.959ZM280.403 210.012C280.056 210.012 279.769 210.098 279.543 210.27C279.321 210.438 279.21 210.682 279.21 211C279.21 211.226 279.264 211.419 279.372 211.581C279.483 211.742 279.631 211.881 279.817 212C280.004 212.114 280.209 212.222 280.435 212.322C280.653 212.225 280.85 212.119 281.026 212.005C281.205 211.887 281.346 211.747 281.45 211.586C281.558 211.421 281.611 211.224 281.611 210.995C281.611 210.68 281.499 210.438 281.273 210.27C281.051 210.098 280.761 210.012 280.403 210.012ZM287.772 209.147L284.845 217H283.663L286.59 209.147H287.772ZM293.675 217H288.357V216.049L290.393 213.987C290.787 213.586 291.111 213.24 291.365 212.95C291.619 212.657 291.807 212.379 291.929 212.118C292.055 211.856 292.117 211.572 292.117 211.264C292.117 210.884 292.008 210.598 291.79 210.404C291.571 210.207 291.283 210.109 290.925 210.109C290.585 210.109 290.27 210.177 289.979 210.313C289.693 210.445 289.396 210.635 289.088 210.882L288.395 210.05C288.613 209.864 288.846 209.694 289.093 209.54C289.344 209.386 289.623 209.264 289.931 209.174C290.239 209.081 290.59 209.035 290.984 209.035C291.482 209.035 291.911 209.124 292.273 209.303C292.635 209.479 292.912 209.724 293.105 210.039C293.302 210.354 293.401 210.721 293.401 211.14C293.401 211.563 293.317 211.953 293.148 212.311C292.98 212.669 292.74 213.024 292.429 213.375C292.117 213.722 291.747 214.1 291.317 214.508L289.958 215.834V215.894H293.675V217ZM298.364 217H297.096V211.946C297.096 211.778 297.098 211.609 297.102 211.441C297.105 211.273 297.109 211.108 297.112 210.947C297.119 210.786 297.128 210.632 297.139 210.485C297.064 210.567 296.971 210.657 296.86 210.753C296.752 210.85 296.638 210.95 296.516 211.054L295.614 211.774L294.98 210.974L297.311 209.147H298.364V217ZM307.516 217H306.249V211.946C306.249 211.778 306.25 211.609 306.254 211.441C306.257 211.273 306.261 211.108 306.265 210.947C306.272 210.786 306.281 210.632 306.292 210.485C306.216 210.567 306.123 210.657 306.012 210.753C305.905 210.85 305.79 210.95 305.668 211.054L304.766 211.774L304.132 210.974L306.463 209.147H307.516V217ZM310.997 217L314.08 210.254H310.003V209.147H315.438V210.012L312.355 217H310.997ZM316.62 216.334C316.62 216.04 316.695 215.834 316.846 215.716C317 215.595 317.186 215.534 317.404 215.534C317.623 215.534 317.809 215.595 317.963 215.716C318.12 215.834 318.199 216.04 318.199 216.334C318.199 216.62 318.12 216.828 317.963 216.957C317.809 217.082 317.623 217.145 317.404 217.145C317.186 217.145 317 217.082 316.846 216.957C316.695 216.828 316.62 216.62 316.62 216.334ZM316.62 211.736C316.62 211.439 316.695 211.23 316.846 211.108C317 210.986 317.186 210.925 317.404 210.925C317.623 210.925 317.809 210.986 317.963 211.108C318.12 211.23 318.199 211.439 318.199 211.736C318.199 212.019 318.12 212.225 317.963 212.354C317.809 212.479 317.623 212.542 317.404 212.542C317.186 212.542 317 212.479 316.846 212.354C316.695 212.225 316.62 212.019 316.62 211.736ZM322.083 212.091C322.587 212.091 323.031 212.182 323.415 212.365C323.801 212.544 324.102 212.809 324.317 213.16C324.532 213.507 324.639 213.933 324.639 214.438C324.639 214.989 324.523 215.466 324.29 215.867C324.057 216.264 323.715 216.57 323.264 216.785C322.813 217 322.263 217.107 321.615 217.107C321.203 217.107 320.819 217.072 320.46 217C320.106 216.928 319.8 216.821 319.542 216.678V215.539C319.811 215.689 320.133 215.813 320.509 215.91C320.885 216.003 321.245 216.049 321.588 216.049C321.954 216.049 322.267 215.996 322.528 215.888C322.79 215.781 322.99 215.616 323.13 215.394C323.273 215.172 323.345 214.891 323.345 214.551C323.345 214.1 323.2 213.752 322.91 213.509C322.623 213.262 322.174 213.138 321.562 213.138C321.347 213.138 321.118 213.158 320.874 213.197C320.634 213.233 320.434 213.272 320.272 213.315L319.719 212.988L320.015 209.147H324.097V210.259H321.126L320.955 212.214C321.083 212.186 321.237 212.159 321.417 212.134C321.596 212.105 321.818 212.091 322.083 212.091ZM328.356 209.04C328.811 209.04 329.221 209.112 329.586 209.255C329.951 209.395 330.241 209.604 330.456 209.883C330.671 210.163 330.778 210.508 330.778 210.92C330.778 211.239 330.712 211.516 330.58 211.752C330.451 211.989 330.275 212.196 330.053 212.375C329.831 212.551 329.582 212.707 329.307 212.843C329.615 212.993 329.897 213.167 330.155 213.364C330.417 213.557 330.626 213.785 330.784 214.046C330.945 214.307 331.025 214.613 331.025 214.964C331.025 215.405 330.913 215.786 330.687 216.108C330.465 216.427 330.155 216.674 329.758 216.85C329.36 217.021 328.897 217.107 328.367 217.107C327.797 217.107 327.312 217.023 326.911 216.855C326.51 216.687 326.206 216.447 325.998 216.135C325.79 215.82 325.687 215.444 325.687 215.007C325.687 214.646 325.758 214.332 325.901 214.067C326.045 213.802 326.236 213.573 326.476 213.38C326.72 213.187 326.986 213.024 327.276 212.891C327.029 212.744 326.804 212.58 326.6 212.397C326.396 212.211 326.233 211.998 326.111 211.758C325.993 211.514 325.934 211.233 325.934 210.915C325.934 210.506 326.043 210.164 326.261 209.889C326.48 209.609 326.771 209.398 327.137 209.255C327.506 209.112 327.912 209.04 328.356 209.04ZM326.89 214.959C326.89 215.303 327.011 215.586 327.255 215.808C327.498 216.03 327.862 216.141 328.345 216.141C328.825 216.141 329.19 216.031 329.441 215.813C329.692 215.595 329.817 215.306 329.817 214.948C329.817 214.719 329.752 214.517 329.624 214.341C329.498 214.166 329.328 214.01 329.113 213.874C328.902 213.734 328.667 213.605 328.41 213.487L328.238 213.417C327.958 213.536 327.719 213.67 327.518 213.82C327.318 213.967 327.162 214.134 327.051 214.32C326.943 214.506 326.89 214.719 326.89 214.959ZM328.345 210.012C327.998 210.012 327.711 210.098 327.486 210.27C327.264 210.438 327.153 210.682 327.153 211C327.153 211.226 327.207 211.419 327.314 211.581C327.425 211.742 327.574 211.881 327.76 212C327.946 212.114 328.152 212.222 328.377 212.322C328.596 212.225 328.793 212.119 328.968 212.005C329.147 211.887 329.289 211.747 329.393 211.586C329.5 211.421 329.554 211.224 329.554 210.995C329.554 210.68 329.441 210.438 329.215 210.27C328.993 210.098 328.703 210.012 328.345 210.012Z" fill="#A3A9AE"/>
<rect x="20" y="236" width="874" height="1" fill="#ECEEF1"/>
<rect width="914" height="48" transform="translate(0 237)" fill="white"/>
<g clip-path="url(#clip3_180_14988)">
<path d="M28 252H39L44 257V270H28V252Z" fill="white"/>
<path fill-rule="evenodd" clip-rule="evenodd" d="M28 263H35.5H44V257L39 252H28V263ZM39 251H27V264H45V257L39 251Z" fill="url(#paint0_linear_180_14988)"/>
<path fill-rule="evenodd" clip-rule="evenodd" d="M28 263C27.4477 263 27 263.448 27 264V271C27 271.552 27.4477 272 28 272H44C44.5523 272 45 271.552 45 271V264C45 263.448 44.5523 263 44 263H28ZM41 265C40.5463 265 40.0715 265.081 39.6919 265.306C39.2863 265.546 39 265.949 39 266.5C39 266.768 39.0789 267.008 39.2321 267.208C39.3787 267.4 39.5713 267.525 39.7559 267.612C40.0789 267.764 40.4855 267.843 40.8192 267.908L40.9037 267.924C41.2946 268.001 41.5895 268.069 41.7905 268.179C41.8818 268.229 41.9289 268.276 41.9545 268.314C41.9769 268.348 42 268.401 42 268.5C42 268.628 41.9442 268.732 41.7726 268.829C41.5848 268.936 41.3023 269 41 269C40.7427 269 40.4426 268.907 40.1811 268.792C40.0558 268.737 39.9498 268.682 39.8759 268.641C39.8391 268.621 39.8108 268.604 39.7924 268.593L39.7728 268.581L39.7694 268.579C39.7694 268.579 39.7696 268.579 39.5 269C39.2304 269.421 39.2312 269.422 39.2312 269.422L39.2324 269.422L39.2355 269.424L39.2451 269.43C39.253 269.435 39.2639 269.442 39.2775 269.45C39.3047 269.466 39.3429 269.489 39.3906 269.515C39.4856 269.568 39.6199 269.638 39.7796 269.708C40.0884 269.843 40.5383 270 41 270C41.4167 270 41.8842 269.916 42.2666 269.699C42.6653 269.472 43 269.076 43 268.5C43 268.224 42.9293 267.975 42.7877 267.761C42.6492 267.552 42.462 267.407 42.272 267.302C41.9105 267.104 41.4554 267.013 41.0963 266.943L41.0612 266.936C40.6763 266.861 40.3871 266.804 40.1816 266.707C40.0849 266.662 40.0432 266.623 40.0257 266.6C40.0149 266.586 40 266.563 40 266.5C40 266.347 40.0591 266.25 40.2011 266.166C40.3692 266.067 40.6444 266 41 266C41.2538 266 41.5537 266.093 41.8169 266.208C41.9429 266.263 42.0497 266.318 42.1243 266.36C42.1373 266.367 42.1493 266.374 42.1602 266.38C42.1662 266.383 42.1718 266.386 42.177 266.389C42.1896 266.397 42.2002 266.403 42.2087 266.408L42.2286 266.42L42.2321 266.422C42.2321 266.422 42.2321 266.422 42.2414 266.407L42.5 266C42.768 265.578 42.7672 265.577 42.7672 265.577L42.7661 265.577L42.763 265.575L42.7533 265.569C42.7454 265.564 42.7345 265.557 42.7209 265.549C42.7099 265.543 42.697 265.535 42.6824 265.526C42.661 265.514 42.6358 265.5 42.6074 265.484C42.5121 265.432 42.3774 265.362 42.2175 265.292C41.9088 265.157 41.4587 265 41 265ZM29.1606 270.011L30.873 267.396L29.3213 265H30.5039L31.5088 266.61L32.4932 265H33.6655L32.1069 267.434L33.8193 270.011H32.5991L31.4883 268.278L30.374 270.011H29.1606ZM35 265V270H38V269H36V265H35Z" fill="#6AAA1E"/>
<path fill-rule="evenodd" clip-rule="evenodd" d="M29 254H38V260H41V258H42V261H29V254ZM37 260V258H34V260H37ZM33 260V258H30V260H33ZM30 257H33V255H30V257ZM34 255V257H37V255H34Z" fill="#BFBFBF"/>
<path opacity="0.3" d="M37 259V252H38V258H44V259H37Z" fill="black"/>
</g>
<path d="M62.171 259.63H70.673V261.06H62.171V259.63ZM65.564 255.041H67.241V264.505C67.241 265.324 67.345 265.441 68.06 265.441C68.398 265.441 69.854 265.441 70.205 265.441C70.868 265.441 70.998 265.077 71.115 263.543C71.505 263.816 72.181 264.102 72.662 264.219C72.441 266.273 71.947 267.027 70.361 267.027C69.932 267.027 68.268 267.027 67.878 267.027C66.084 267.027 65.564 266.481 65.564 264.492V255.041ZM62.418 256.835H71.388V263.79H62.418V262.269H69.789V258.369H62.418V256.835ZM61.43 256.835H63.042V264.544H61.43V256.835ZM85.467 260.657V262.204H80.319V265.324C80.319 266.221 80.124 266.637 79.5 266.884C78.889 267.131 77.979 267.17 76.796 267.157C76.692 266.702 76.393 265.987 76.146 265.558C77.043 265.597 78.044 265.597 78.343 265.597C78.616 265.597 78.707 265.532 78.707 265.298V262.204H73.546V260.657H78.707V258.603H79.474C80.111 258.226 80.774 257.758 81.333 257.303H74.898V255.782H82.945L83.296 255.704L84.479 256.588C83.374 257.732 81.788 258.98 80.319 259.825V260.657H85.467ZM96.92 261.281L98.207 262.243C97.388 262.828 96.426 263.426 95.62 263.855C96.387 264.713 97.401 265.35 98.688 265.714C98.35 266.039 97.908 266.663 97.687 267.092C94.944 266.156 93.514 264.18 92.656 261.294C92.162 261.762 91.577 262.204 90.953 262.607V265.025C91.876 264.83 92.851 264.622 93.787 264.414L93.93 265.818C91.889 266.299 89.705 266.754 88.093 267.105L87.638 265.675C88.145 265.584 88.756 265.467 89.406 265.337V263.478C88.691 263.829 87.963 264.115 87.248 264.336C87.027 263.985 86.585 263.4 86.26 263.088C87.807 262.685 89.471 261.944 90.693 261.099H86.741V259.786H91.694V259.058H87.833V257.823H91.694V257.16H87.222V255.847H91.694V254.989H93.241V255.847H97.817V257.16H93.241V257.823H97.31V259.058H93.241V259.786H98.233V261.099H94.099C94.307 261.736 94.554 262.308 94.879 262.841C95.607 262.36 96.387 261.775 96.92 261.281ZM106.306 262.282H109.361C108.789 261.97 108.269 261.606 107.801 261.216C107.333 261.619 106.839 261.97 106.306 262.282ZM106.384 265.35H109.101V263.582H106.384V265.35ZM104.33 261.229L103.888 261.84C104.928 261.45 105.916 260.904 106.761 260.202C106.397 259.786 106.072 259.357 105.786 258.928C105.474 259.305 105.149 259.643 104.824 259.929C104.629 259.721 104.226 259.357 103.888 259.084H102.783V259.396C103.134 259.773 104.109 260.93 104.33 261.229ZM108.854 257.667H106.722L106.631 257.797C106.93 258.291 107.294 258.785 107.749 259.253C108.178 258.772 108.555 258.239 108.854 257.667ZM109.829 256.302L110.804 256.757C110.362 258.109 109.686 259.253 108.828 260.215C109.647 260.839 110.635 261.346 111.766 261.658C111.454 261.957 111.025 262.568 110.83 262.945L110.596 262.854V267.092H109.101V266.676H106.384V267.131H104.941V262.971C104.72 263.075 104.499 263.166 104.278 263.244C104.135 262.945 103.862 262.529 103.615 262.217L103.498 262.386C103.342 262.061 103.069 261.58 102.783 261.125V267.118H101.327V262.191C100.963 263.231 100.521 264.193 100.027 264.856C99.884 264.427 99.546 263.829 99.312 263.452C100.105 262.425 100.846 260.631 101.21 259.084H99.624V257.654H101.327V254.989H102.783V257.654H104.239V258.356C105.162 257.459 105.968 256.224 106.436 254.976L107.905 255.379C107.775 255.704 107.632 256.029 107.476 256.354H109.569L109.829 256.302Z" fill="#333333"/>
<path d="M247.312 265H241.994V264.049L244.03 261.987C244.424 261.586 244.748 261.24 245.002 260.95C245.256 260.657 245.444 260.379 245.566 260.118C245.691 259.856 245.754 259.572 245.754 259.264C245.754 258.884 245.645 258.598 245.426 258.404C245.208 258.207 244.92 258.109 244.562 258.109C244.221 258.109 243.906 258.177 243.616 258.313C243.33 258.445 243.033 258.635 242.725 258.882L242.032 258.05C242.25 257.864 242.483 257.694 242.73 257.54C242.981 257.386 243.26 257.264 243.568 257.174C243.876 257.081 244.227 257.035 244.621 257.035C245.118 257.035 245.548 257.124 245.91 257.303C246.271 257.479 246.549 257.724 246.742 258.039C246.939 258.354 247.038 258.721 247.038 259.14C247.038 259.563 246.953 259.953 246.785 260.311C246.617 260.669 246.377 261.024 246.065 261.375C245.754 261.722 245.383 262.1 244.954 262.508L243.595 263.834V263.894H247.312V265ZM253.606 261.068C253.606 261.702 253.556 262.27 253.456 262.771C253.359 263.269 253.205 263.691 252.994 264.039C252.783 264.386 252.507 264.651 252.167 264.833C251.827 265.016 251.415 265.107 250.932 265.107C250.326 265.107 249.827 264.948 249.433 264.629C249.039 264.307 248.747 263.845 248.558 263.244C248.368 262.639 248.273 261.913 248.273 261.068C248.273 260.223 248.359 259.5 248.531 258.898C248.706 258.293 248.989 257.83 249.379 257.507C249.77 257.185 250.287 257.024 250.932 257.024C251.54 257.024 252.042 257.185 252.436 257.507C252.833 257.826 253.127 258.288 253.316 258.893C253.51 259.495 253.606 260.22 253.606 261.068ZM249.546 261.068C249.546 261.731 249.589 262.284 249.675 262.728C249.764 263.172 249.911 263.505 250.115 263.727C250.319 263.945 250.591 264.055 250.932 264.055C251.272 264.055 251.544 263.945 251.748 263.727C251.952 263.509 252.099 263.177 252.188 262.733C252.282 262.289 252.328 261.734 252.328 261.068C252.328 260.41 252.283 259.858 252.194 259.414C252.104 258.97 251.958 258.637 251.753 258.415C251.549 258.189 251.275 258.077 250.932 258.077C250.588 258.077 250.314 258.189 250.11 258.415C249.909 258.637 249.764 258.97 249.675 259.414C249.589 259.858 249.546 260.41 249.546 261.068ZM259.901 265H254.584V264.049L256.62 261.987C257.014 261.586 257.338 261.24 257.592 260.95C257.846 260.657 258.034 260.379 258.156 260.118C258.281 259.856 258.344 259.572 258.344 259.264C258.344 258.884 258.235 258.598 258.016 258.404C257.798 258.207 257.509 258.109 257.151 258.109C256.811 258.109 256.496 258.177 256.206 258.313C255.92 258.445 255.622 258.635 255.314 258.882L254.622 258.05C254.84 257.864 255.073 257.694 255.32 257.54C255.57 257.386 255.85 257.264 256.158 257.174C256.466 257.081 256.817 257.035 257.21 257.035C257.708 257.035 258.138 257.124 258.5 257.303C258.861 257.479 259.139 257.724 259.332 258.039C259.529 258.354 259.627 258.721 259.627 259.14C259.627 259.563 259.543 259.953 259.375 260.311C259.207 260.669 258.967 261.024 258.655 261.375C258.344 261.722 257.973 262.1 257.543 262.508L256.185 263.834V263.894H259.901V265ZM266.481 263.276H265.417V265H264.171V263.276H260.6V262.32L264.188 257.126H265.417V262.229H266.481V263.276ZM264.171 262.229V260.279C264.171 260.118 264.173 259.955 264.177 259.79C264.184 259.622 264.191 259.461 264.198 259.307C264.205 259.153 264.213 259.011 264.22 258.882C264.227 258.75 264.232 258.641 264.236 258.555H264.193C264.125 258.698 264.05 258.845 263.967 258.995C263.885 259.142 263.797 259.285 263.704 259.425L261.771 262.229H264.171ZM270.885 257.147L267.958 265H266.776L269.704 257.147H270.885ZM276.788 261.068C276.788 261.702 276.738 262.27 276.638 262.771C276.541 263.269 276.387 263.691 276.176 264.039C275.965 264.386 275.689 264.651 275.349 264.833C275.008 265.016 274.597 265.107 274.113 265.107C273.508 265.107 273.009 264.948 272.615 264.629C272.221 264.307 271.929 263.845 271.739 263.244C271.549 262.639 271.455 261.913 271.455 261.068C271.455 260.223 271.541 259.5 271.712 258.898C271.888 258.293 272.171 257.83 272.561 257.507C272.951 257.185 273.469 257.024 274.113 257.024C274.722 257.024 275.223 257.185 275.617 257.507C276.015 257.826 276.308 258.288 276.498 258.893C276.691 259.495 276.788 260.22 276.788 261.068ZM272.728 261.068C272.728 261.731 272.771 262.284 272.856 262.728C272.946 263.172 273.093 263.505 273.297 263.727C273.501 263.945 273.773 264.055 274.113 264.055C274.453 264.055 274.726 263.945 274.93 263.727C275.134 263.509 275.281 263.177 275.37 262.733C275.463 262.289 275.51 261.734 275.51 261.068C275.51 260.41 275.465 259.858 275.375 259.414C275.286 258.97 275.139 258.637 274.935 258.415C274.731 258.189 274.457 258.077 274.113 258.077C273.77 258.077 273.496 258.189 273.292 258.415C273.091 258.637 272.946 258.97 272.856 259.414C272.771 259.858 272.728 260.41 272.728 261.068ZM280.414 257.04C280.868 257.04 281.278 257.112 281.644 257.255C282.009 257.395 282.299 257.604 282.514 257.883C282.729 258.163 282.836 258.508 282.836 258.92C282.836 259.239 282.77 259.516 282.637 259.752C282.508 259.989 282.333 260.196 282.111 260.375C281.889 260.551 281.64 260.707 281.364 260.843C281.672 260.993 281.955 261.167 282.213 261.364C282.474 261.557 282.684 261.785 282.841 262.046C283.002 262.307 283.083 262.613 283.083 262.964C283.083 263.405 282.97 263.786 282.745 264.108C282.523 264.427 282.213 264.674 281.815 264.85C281.418 265.021 280.954 265.107 280.424 265.107C279.855 265.107 279.37 265.023 278.969 264.855C278.568 264.687 278.263 264.447 278.056 264.135C277.848 263.82 277.744 263.444 277.744 263.007C277.744 262.646 277.816 262.332 277.959 262.067C278.102 261.802 278.294 261.573 278.534 261.38C278.777 261.187 279.044 261.024 279.334 260.891C279.087 260.744 278.861 260.58 278.657 260.397C278.453 260.211 278.29 259.998 278.168 259.758C278.05 259.514 277.991 259.233 277.991 258.915C277.991 258.506 278.1 258.164 278.319 257.889C278.537 257.609 278.829 257.398 279.194 257.255C279.563 257.112 279.97 257.04 280.414 257.04ZM278.947 262.959C278.947 263.303 279.069 263.586 279.312 263.808C279.556 264.03 279.919 264.141 280.403 264.141C280.883 264.141 281.248 264.031 281.499 263.813C281.749 263.595 281.875 263.306 281.875 262.948C281.875 262.719 281.81 262.517 281.681 262.341C281.556 262.166 281.386 262.01 281.171 261.874C280.96 261.734 280.725 261.605 280.467 261.487L280.295 261.417C280.016 261.536 279.776 261.67 279.576 261.82C279.375 261.967 279.219 262.134 279.108 262.32C279.001 262.506 278.947 262.719 278.947 262.959ZM280.403 258.012C280.056 258.012 279.769 258.098 279.543 258.27C279.321 258.438 279.21 258.682 279.21 259C279.21 259.226 279.264 259.419 279.372 259.581C279.483 259.742 279.631 259.881 279.817 260C280.004 260.114 280.209 260.222 280.435 260.322C280.653 260.225 280.85 260.119 281.026 260.005C281.205 259.887 281.346 259.747 281.45 259.586C281.558 259.421 281.611 259.224 281.611 258.995C281.611 258.68 281.499 258.438 281.273 258.27C281.051 258.098 280.761 258.012 280.403 258.012ZM287.772 257.147L284.845 265H283.663L286.59 257.147H287.772ZM293.675 265H288.357V264.049L290.393 261.987C290.787 261.586 291.111 261.24 291.365 260.95C291.619 260.657 291.807 260.379 291.929 260.118C292.055 259.856 292.117 259.572 292.117 259.264C292.117 258.884 292.008 258.598 291.79 258.404C291.571 258.207 291.283 258.109 290.925 258.109C290.585 258.109 290.27 258.177 289.979 258.313C289.693 258.445 289.396 258.635 289.088 258.882L288.395 258.05C288.613 257.864 288.846 257.694 289.093 257.54C289.344 257.386 289.623 257.264 289.931 257.174C290.239 257.081 290.59 257.035 290.984 257.035C291.482 257.035 291.911 257.124 292.273 257.303C292.635 257.479 292.912 257.724 293.105 258.039C293.302 258.354 293.401 258.721 293.401 259.14C293.401 259.563 293.317 259.953 293.148 260.311C292.98 260.669 292.74 261.024 292.429 261.375C292.117 261.722 291.747 262.1 291.317 262.508L289.958 263.834V263.894H293.675V265ZM298.364 265H297.096V259.946C297.096 259.778 297.098 259.609 297.102 259.441C297.105 259.273 297.109 259.108 297.112 258.947C297.119 258.786 297.128 258.632 297.139 258.485C297.064 258.567 296.971 258.657 296.86 258.753C296.752 258.85 296.638 258.95 296.516 259.054L295.614 259.774L294.98 258.974L297.311 257.147H298.364V265ZM307.516 265H306.249V259.946C306.249 259.778 306.25 259.609 306.254 259.441C306.257 259.273 306.261 259.108 306.265 258.947C306.272 258.786 306.281 258.632 306.292 258.485C306.216 258.567 306.123 258.657 306.012 258.753C305.905 258.85 305.79 258.95 305.668 259.054L304.766 259.774L304.132 258.974L306.463 257.147H307.516V265ZM310.11 261.654C310.11 261.192 310.143 260.737 310.207 260.29C310.275 259.842 310.39 259.423 310.551 259.033C310.712 258.642 310.934 258.299 311.217 258.001C311.503 257.704 311.863 257.472 312.296 257.303C312.73 257.131 313.251 257.045 313.859 257.045C314.017 257.045 314.194 257.053 314.391 257.067C314.588 257.081 314.751 257.104 314.88 257.137V258.184C314.74 258.145 314.586 258.114 314.418 258.093C314.253 258.071 314.089 258.061 313.924 258.061C313.265 258.061 312.751 258.186 312.382 258.437C312.014 258.684 311.75 259.024 311.593 259.457C311.435 259.887 311.344 260.379 311.319 260.934H311.383C311.491 260.755 311.625 260.596 311.786 260.456C311.947 260.316 312.144 260.205 312.377 260.123C312.61 260.037 312.88 259.994 313.188 259.994C313.646 259.994 314.046 260.091 314.386 260.284C314.726 260.474 314.987 260.75 315.17 261.111C315.356 261.473 315.449 261.912 315.449 262.427C315.449 262.982 315.344 263.46 315.132 263.861C314.925 264.262 314.627 264.57 314.241 264.785C313.858 265 313.401 265.107 312.871 265.107C312.481 265.107 312.117 265.036 311.781 264.893C311.448 264.749 311.156 264.535 310.905 264.248C310.655 263.962 310.459 263.604 310.32 263.174C310.18 262.741 310.11 262.234 310.11 261.654ZM312.85 264.065C313.258 264.065 313.585 263.933 313.833 263.668C314.083 263.399 314.208 262.989 314.208 262.438C314.208 261.99 314.097 261.636 313.875 261.375C313.657 261.113 313.328 260.982 312.887 260.982C312.586 260.982 312.323 261.047 312.098 261.176C311.872 261.305 311.697 261.468 311.571 261.665C311.45 261.861 311.389 262.062 311.389 262.266C311.389 262.474 311.419 262.683 311.48 262.895C311.541 263.106 311.632 263.301 311.754 263.48C311.876 263.655 312.028 263.797 312.21 263.904C312.393 264.012 312.606 264.065 312.85 264.065ZM316.62 264.334C316.62 264.04 316.695 263.834 316.846 263.716C317 263.595 317.186 263.534 317.404 263.534C317.623 263.534 317.809 263.595 317.963 263.716C318.12 263.834 318.199 264.04 318.199 264.334C318.199 264.62 318.12 264.828 317.963 264.957C317.809 265.082 317.623 265.145 317.404 265.145C317.186 265.145 317 265.082 316.846 264.957C316.695 264.828 316.62 264.62 316.62 264.334ZM316.62 259.736C316.62 259.439 316.695 259.23 316.846 259.108C317 258.986 317.186 258.925 317.404 258.925C317.623 258.925 317.809 258.986 317.963 259.108C318.12 259.23 318.199 259.439 318.199 259.736C318.199 260.019 318.12 260.225 317.963 260.354C317.809 260.479 317.623 260.542 317.404 260.542C317.186 260.542 317 260.479 316.846 260.354C316.695 260.225 316.62 260.019 316.62 259.736ZM324.73 265H319.413V264.049L321.449 261.987C321.843 261.586 322.167 261.24 322.421 260.95C322.675 260.657 322.863 260.379 322.985 260.118C323.11 259.856 323.173 259.572 323.173 259.264C323.173 258.884 323.064 258.598 322.845 258.404C322.627 258.207 322.339 258.109 321.98 258.109C321.64 258.109 321.325 258.177 321.035 258.313C320.749 258.445 320.451 258.635 320.144 258.882L319.451 258.05C319.669 257.864 319.902 257.694 320.149 257.54C320.4 257.386 320.679 257.264 320.987 257.174C321.295 257.081 321.646 257.035 322.04 257.035C322.537 257.035 322.967 257.124 323.329 257.303C323.69 257.479 323.968 257.724 324.161 258.039C324.358 258.354 324.457 258.721 324.457 259.14C324.457 259.563 324.372 259.953 324.204 260.311C324.036 260.669 323.796 261.024 323.484 261.375C323.173 261.722 322.802 262.1 322.373 262.508L321.014 263.834V263.894H324.73V265ZM328.377 260.091C328.882 260.091 329.326 260.182 329.709 260.365C330.096 260.544 330.397 260.809 330.612 261.16C330.827 261.507 330.934 261.933 330.934 262.438C330.934 262.989 330.818 263.466 330.585 263.867C330.352 264.264 330.01 264.57 329.559 264.785C329.108 265 328.558 265.107 327.91 265.107C327.498 265.107 327.113 265.072 326.755 265C326.401 264.928 326.095 264.821 325.837 264.678V263.539C326.105 263.689 326.428 263.813 326.804 263.91C327.18 264.003 327.54 264.049 327.883 264.049C328.249 264.049 328.562 263.996 328.823 263.888C329.085 263.781 329.285 263.616 329.425 263.394C329.568 263.172 329.64 262.891 329.64 262.551C329.64 262.1 329.495 261.752 329.205 261.509C328.918 261.262 328.469 261.138 327.856 261.138C327.642 261.138 327.412 261.158 327.169 261.197C326.929 261.233 326.729 261.272 326.567 261.315L326.014 260.988L326.31 257.147H330.392V258.259H327.421L327.25 260.214C327.378 260.186 327.532 260.159 327.711 260.134C327.89 260.105 328.112 260.091 328.377 260.091Z" fill="#A3A9AE"/>
<path d="M443.206 265H441.938V259.946C441.938 259.778 441.94 259.609 441.943 259.441C441.947 259.273 441.951 259.108 441.954 258.947C441.961 258.786 441.97 258.632 441.981 258.485C441.906 258.567 441.813 258.657 441.702 258.753C441.594 258.85 441.48 258.95 441.358 259.054L440.456 259.774L439.822 258.974L442.153 257.147H443.206V265ZM445.8 261.654C445.8 261.192 445.832 260.737 445.896 260.29C445.965 259.842 446.079 259.423 446.24 259.033C446.401 258.642 446.623 258.299 446.906 258.001C447.193 257.704 447.553 257.472 447.986 257.303C448.419 257.131 448.94 257.045 449.549 257.045C449.706 257.045 449.884 257.053 450.081 257.067C450.278 257.081 450.44 257.104 450.569 257.137V258.184C450.43 258.145 450.276 258.114 450.107 258.093C449.943 258.071 449.778 258.061 449.613 258.061C448.954 258.061 448.441 258.186 448.072 258.437C447.703 258.684 447.44 259.024 447.282 259.457C447.125 259.887 447.033 260.379 447.008 260.934H447.073C447.18 260.755 447.314 260.596 447.476 260.456C447.637 260.316 447.834 260.205 448.066 260.123C448.299 260.037 448.569 259.994 448.877 259.994C449.336 259.994 449.735 260.091 450.075 260.284C450.415 260.474 450.677 260.75 450.859 261.111C451.046 261.473 451.139 261.912 451.139 262.427C451.139 262.982 451.033 263.46 450.822 263.861C450.614 264.262 450.317 264.57 449.93 264.785C449.547 265 449.09 265.107 448.561 265.107C448.17 265.107 447.807 265.036 447.47 264.893C447.137 264.749 446.845 264.535 446.595 264.248C446.344 263.962 446.149 263.604 446.009 263.174C445.87 262.741 445.8 262.234 445.8 261.654ZM448.539 264.065C448.947 264.065 449.275 263.933 449.522 263.668C449.773 263.399 449.898 262.989 449.898 262.438C449.898 261.99 449.787 261.636 449.565 261.375C449.347 261.113 449.017 260.982 448.577 260.982C448.276 260.982 448.013 261.047 447.787 261.176C447.562 261.305 447.386 261.468 447.261 261.665C447.139 261.861 447.078 262.062 447.078 262.266C447.078 262.474 447.109 262.683 447.169 262.895C447.23 263.106 447.322 263.301 447.443 263.48C447.565 263.655 447.717 263.797 447.9 263.904C448.083 264.012 448.296 264.065 448.539 264.065ZM454.753 260.091C455.258 260.091 455.702 260.182 456.085 260.365C456.472 260.544 456.773 260.809 456.988 261.16C457.203 261.507 457.31 261.933 457.31 262.438C457.31 262.989 457.194 263.466 456.961 263.867C456.728 264.264 456.386 264.57 455.935 264.785C455.484 265 454.934 265.107 454.286 265.107C453.874 265.107 453.489 265.072 453.131 265C452.777 264.928 452.471 264.821 452.213 264.678V263.539C452.481 263.689 452.804 263.813 453.18 263.91C453.556 264.003 453.916 264.049 454.259 264.049C454.625 264.049 454.938 263.996 455.199 263.888C455.461 263.781 455.661 263.616 455.801 263.394C455.944 263.172 456.016 262.891 456.016 262.551C456.016 262.1 455.871 261.752 455.581 261.509C455.294 261.262 454.845 261.138 454.232 261.138C454.018 261.138 453.788 261.158 453.545 261.197C453.305 261.233 453.104 261.272 452.943 261.315L452.39 260.988L452.686 257.147H456.768V258.259H453.797L453.625 260.214C453.754 260.186 453.908 260.159 454.087 260.134C454.266 260.105 454.488 260.091 454.753 260.091ZM458.604 264.334C458.604 264.04 458.68 263.834 458.83 263.716C458.984 263.595 459.17 263.534 459.389 263.534C459.607 263.534 459.793 263.595 459.947 263.716C460.105 263.834 460.184 264.04 460.184 264.334C460.184 264.62 460.105 264.828 459.947 264.957C459.793 265.082 459.607 265.145 459.389 265.145C459.17 265.145 458.984 265.082 458.83 264.957C458.68 264.828 458.604 264.62 458.604 264.334ZM465.109 265H463.841V259.946C463.841 259.778 463.843 259.609 463.847 259.441C463.85 259.273 463.854 259.108 463.857 258.947C463.865 258.786 463.874 258.632 463.884 258.485C463.809 258.567 463.716 258.657 463.605 258.753C463.498 258.85 463.383 258.95 463.261 259.054L462.359 259.774L461.725 258.974L464.056 257.147H465.109V265ZM470.34 257.04C470.795 257.04 471.205 257.112 471.57 257.255C471.936 257.395 472.226 257.604 472.44 257.883C472.655 258.163 472.763 258.508 472.763 258.92C472.763 259.239 472.696 259.516 472.564 259.752C472.435 259.989 472.26 260.196 472.038 260.375C471.816 260.551 471.567 260.707 471.291 260.843C471.599 260.993 471.882 261.167 472.14 261.364C472.401 261.557 472.611 261.785 472.768 262.046C472.929 262.307 473.01 262.613 473.01 262.964C473.01 263.405 472.897 263.786 472.671 264.108C472.449 264.427 472.14 264.674 471.742 264.85C471.345 265.021 470.881 265.107 470.351 265.107C469.782 265.107 469.297 265.023 468.896 264.855C468.494 264.687 468.19 264.447 467.982 264.135C467.775 263.82 467.671 263.444 467.671 263.007C467.671 262.646 467.743 262.332 467.886 262.067C468.029 261.802 468.221 261.573 468.46 261.38C468.704 261.187 468.971 261.024 469.261 260.891C469.014 260.744 468.788 260.58 468.584 260.397C468.38 260.211 468.217 259.998 468.095 259.758C467.977 259.514 467.918 259.233 467.918 258.915C467.918 258.506 468.027 258.164 468.246 257.889C468.464 257.609 468.756 257.398 469.121 257.255C469.49 257.112 469.896 257.04 470.34 257.04ZM468.874 262.959C468.874 263.303 468.996 263.586 469.239 263.808C469.483 264.03 469.846 264.141 470.33 264.141C470.809 264.141 471.175 264.031 471.425 263.813C471.676 263.595 471.801 263.306 471.801 262.948C471.801 262.719 471.737 262.517 471.608 262.341C471.483 262.166 471.312 262.01 471.098 261.874C470.886 261.734 470.652 261.605 470.394 261.487L470.222 261.417C469.943 261.536 469.703 261.67 469.502 261.82C469.302 261.967 469.146 262.134 469.035 262.32C468.928 262.506 468.874 262.719 468.874 262.959ZM470.33 258.012C469.982 258.012 469.696 258.098 469.47 258.27C469.248 258.438 469.137 258.682 469.137 259C469.137 259.226 469.191 259.419 469.298 259.581C469.409 259.742 469.558 259.881 469.744 260C469.93 260.114 470.136 260.222 470.362 260.322C470.58 260.225 470.777 260.119 470.953 260.005C471.132 259.887 471.273 259.747 471.377 259.586C471.484 259.421 471.538 259.224 471.538 258.995C471.538 258.68 471.425 258.438 471.2 258.27C470.978 258.098 470.688 258.012 470.33 258.012ZM483.371 265H481.888L479.444 261.434L478.671 262.062V265H477.382V257.147H478.671V260.902C478.828 260.708 478.988 260.515 479.149 260.322C479.31 260.128 479.471 259.935 479.632 259.742L481.845 257.147H483.301L480.368 260.585L483.371 265ZM484.407 257.147H486.744C487.757 257.147 488.521 257.294 489.037 257.588C489.553 257.882 489.811 258.388 489.811 259.108C489.811 259.409 489.757 259.681 489.649 259.924C489.546 260.164 489.393 260.363 489.193 260.521C488.992 260.674 488.745 260.778 488.452 260.832V260.886C488.756 260.939 489.026 261.034 489.263 261.17C489.503 261.306 489.691 261.502 489.827 261.756C489.966 262.01 490.036 262.34 490.036 262.744C490.036 263.224 489.922 263.632 489.692 263.969C489.467 264.305 489.143 264.561 488.72 264.737C488.301 264.912 487.804 265 487.227 265H484.407V257.147ZM485.696 260.386H486.932C487.515 260.386 487.92 260.291 488.146 260.102C488.371 259.912 488.484 259.634 488.484 259.269C488.484 258.897 488.35 258.628 488.081 258.463C487.816 258.299 487.394 258.216 486.813 258.216H485.696V260.386ZM485.696 261.428V263.92H487.055C487.657 263.92 488.079 263.804 488.323 263.571C488.566 263.339 488.688 263.023 488.688 262.626C488.688 262.382 488.632 262.171 488.521 261.992C488.414 261.813 488.237 261.675 487.99 261.579C487.743 261.478 487.41 261.428 486.991 261.428H485.696Z" fill="#A3A9AE"/>
<rect x="20" y="284" width="874" height="1" fill="#ECEEF1"/>
</g>
<defs>
<linearGradient id="paint0_linear_180_14988" x1="35.5" y1="271.3" x2="35.5" y2="251" gradientUnits="userSpaceOnUse">
<stop stop-color="#A8A8A8"/>
<stop offset="1" stop-color="#DADADA"/>
</linearGradient>
<clipPath id="clip0_180_14988">
<rect width="550" height="318" fill="white"/>
</clipPath>
<clipPath id="clip1_180_14988">
<rect width="914" height="69" fill="white"/>
</clipPath>
<clipPath id="clip2_180_14988">
<rect x="20" y="69" width="754" height="32" rx="3" fill="white"/>
</clipPath>
<clipPath id="clip3_180_14988">
<rect width="24" height="24" fill="white" transform="translate(24 249)"/>
</clipPath>
</defs>
</svg>
