<svg width="550" height="318" viewBox="0 0 550 318" fill="none" xmlns="http://www.w3.org/2000/svg">
<g clip-path="url(#clip0_180_15004)">
<rect width="550" height="318" fill="white"/>
<rect width="914" height="530" fill="white"/>
<rect width="914" height="54" fill="white"/>
<rect width="882" height="53" transform="translate(16)" fill="white"/>
<path d="M35.404 17.179V19.405H17.701V17.179H35.404ZM26.185 25.243H21.523C21.523 25.663 21.502 26.104 21.481 26.545H26.185V25.243ZM31.666 22.135H21.523V23.437H31.666V22.135ZM35.887 28.498H27.424C27.382 28.897 27.319 29.296 27.235 29.674H34.102C34.102 29.674 34.081 30.262 34.039 30.556C33.808 33.307 33.556 34.609 33.031 35.134C32.569 35.617 32.023 35.764 31.372 35.827C30.784 35.869 29.713 35.89 28.6 35.848C28.558 35.218 28.306 34.357 27.949 33.769C28.894 33.874 29.818 33.895 30.217 33.895C30.553 33.895 30.763 33.853 30.952 33.685C31.183 33.475 31.351 32.866 31.498 31.585H26.647C25.828 33.454 24.295 34.882 21.208 35.827C20.977 35.239 20.347 34.336 19.843 33.874C23.707 32.845 24.589 31.039 24.925 28.498H21.334C21.04 31.018 20.305 33.685 18.646 35.596C18.184 35.155 17.113 34.483 16.504 34.21C18.856 31.585 19.087 27.784 19.087 24.991V20.329H34.102V25.243H28.663V26.545H35.887V28.498ZM38.491 21.232H41.095V35.869H38.491V21.232ZM38.785 17.515L40.759 16.318C41.746 17.221 42.88 18.544 43.384 19.489L41.263 20.833C40.822 19.93 39.73 18.523 38.785 17.515ZM44.119 17.221H55.48V19.552H44.119V17.221ZM54.073 17.221H56.698V33.181C56.698 34.357 56.488 34.924 55.795 35.323C55.081 35.722 54.073 35.743 52.75 35.743C52.666 35.113 52.351 34.105 52.036 33.496C52.708 33.538 53.485 33.517 53.737 33.517C54.01 33.517 54.073 33.412 54.073 33.16V17.221ZM45.463 28.099V30.115H49.537V28.099H45.463ZM45.463 24.088V26.083H49.537V24.088H45.463ZM43.216 22.072H51.889V32.131H43.216V22.072ZM66.463 24.067H63.355C63.124 24.613 62.851 25.159 62.578 25.663C63.502 26.23 64.636 26.923 65.413 27.49C65.833 26.461 66.19 25.306 66.463 24.067ZM59.197 19.468V17.137H69.571V19.468H64.993C64.783 20.224 64.531 21.001 64.258 21.778H67.24L67.66 21.715L69.235 22.219C68.185 29.128 65.392 33.643 61.528 35.89C61.15 35.344 60.226 34.42 59.659 34.063C61.528 33.076 63.103 31.606 64.3 29.674C63.544 29.023 62.368 28.204 61.381 27.553C61.003 28.078 60.583 28.582 60.121 29.023C59.68 28.561 58.882 27.805 58.336 27.406C60.352 25.495 61.696 22.303 62.41 19.468H59.197ZM72.595 18.544V30.073H70.138V18.544H72.595ZM75.031 16.612H77.509V32.866C77.509 34.273 77.215 34.945 76.375 35.323C75.514 35.743 74.212 35.827 72.322 35.806C72.217 35.113 71.839 34 71.503 33.307C72.763 33.349 74.065 33.349 74.464 33.349C74.863 33.328 75.031 33.202 75.031 32.845V16.612ZM96.64 26.377L98.719 27.931C97.396 28.876 95.842 29.842 94.54 30.535C95.779 31.921 97.417 32.95 99.496 33.538C98.95 34.063 98.236 35.071 97.879 35.764C93.448 34.252 91.138 31.06 89.752 26.398C88.954 27.154 88.009 27.868 87.001 28.519V32.425C88.492 32.11 90.067 31.774 91.579 31.438L91.81 33.706C88.513 34.483 84.985 35.218 82.381 35.785L81.646 33.475C82.465 33.328 83.452 33.139 84.502 32.929V29.926C83.347 30.493 82.171 30.955 81.016 31.312C80.659 30.745 79.945 29.8 79.42 29.296C81.919 28.645 84.607 27.448 86.581 26.083H80.197V23.962H88.198V22.786H81.961V20.791H88.198V19.72H80.974V17.599H88.198V16.213H90.697V17.599H98.089V19.72H90.697V20.791H97.27V22.786H90.697V23.962H98.761V26.083H92.083C92.419 27.112 92.818 28.036 93.343 28.897C94.519 28.12 95.779 27.175 96.64 26.377Z" fill="#333333"/>
<rect y="53" width="914" height="1" fill="#ECEEF1"/>
<rect width="914" height="60" transform="translate(0 54)" fill="white"/>
<g clip-path="url(#clip1_180_15004)">
<rect x="16" y="70" width="882" height="32" rx="3" fill="white"/>
<path d="M28.758 85.527L28.953 86.931C28.485 87.061 28.017 87.191 27.549 87.321V90.506C27.549 91.247 27.419 91.624 27.003 91.845C26.561 92.092 25.95 92.131 25.04 92.131C25.001 91.728 24.793 91.13 24.624 90.727C25.118 90.753 25.651 90.753 25.82 90.753C26.002 90.753 26.054 90.688 26.054 90.506V87.724L24.689 88.088L24.299 86.606C24.793 86.502 25.404 86.372 26.054 86.216V83.863H24.507V82.433H26.054V80.002H27.549V82.433H28.797V83.863H27.549V85.839L28.758 85.527ZM34.075 88.335H31.02C31.41 88.803 31.917 89.219 32.541 89.557C33.139 89.219 33.659 88.816 34.075 88.335ZM30.5 84.929H31.904V81.51C31.462 81.757 30.968 81.965 30.5 82.147V82.979H31.501V84.071H30.5V84.929ZM35.271 87.009L36.22 87.451C35.726 88.621 34.959 89.518 33.997 90.207C34.816 90.493 35.739 90.701 36.727 90.831C36.389 91.156 35.986 91.767 35.778 92.17C34.517 91.949 33.399 91.598 32.424 91.104C31.319 91.598 30.058 91.923 28.706 92.131C28.576 91.741 28.29 91.169 28.043 90.844C29.109 90.727 30.11 90.519 31.02 90.22C30.448 89.778 29.954 89.258 29.538 88.673L30.435 88.335H28.927V87.074H31.904V86.138H29.161V80.977L29.837 81.185C30.318 80.938 30.812 80.626 31.124 80.353L31.904 81.094V80.002H33.282V84.929H34.777V84.071H33.672V82.979H34.777V82.16H33.659V80.951H36.155V86.138H33.282V87.074H35.011L35.271 87.009ZM40.471 89.193L41.94 89.752C41.095 90.636 39.782 91.52 38.69 92.04C38.417 91.741 37.845 91.208 37.507 90.948C38.599 90.545 39.795 89.882 40.471 89.193ZM47.582 88.946L44.228 89.05V92.131H42.694V89.102C40.887 89.154 39.223 89.193 37.897 89.219L37.819 87.841C38.638 87.841 39.639 87.841 40.744 87.828C40.939 87.724 41.134 87.607 41.329 87.49C40.705 87.022 39.847 86.489 39.132 86.125L40.159 85.241C40.328 85.332 40.523 85.423 40.705 85.527C41.121 85.189 41.563 84.786 41.927 84.409H39.327V85.813H37.858V83.122H42.681V82.329H37.975V81.003H42.681V79.989H44.202V81.003H48.999V82.329H44.202V83.122H49.168V85.813H47.634V84.409H43.331L43.734 84.604C43.11 85.163 42.408 85.722 41.797 86.164C42.083 86.346 42.356 86.528 42.59 86.697C43.552 86.06 44.462 85.371 45.138 84.773L46.516 85.514C45.489 86.294 44.254 87.113 43.071 87.815C44.059 87.802 45.086 87.789 46.126 87.776C45.814 87.542 45.502 87.334 45.203 87.139L46.217 86.359C47.231 86.996 48.609 87.958 49.298 88.647L48.206 89.531C48.037 89.362 47.829 89.154 47.582 88.946ZM44.982 89.934L46.152 89.154C47.166 89.687 48.583 90.532 49.324 91.13L48.05 92.001C47.413 91.416 46.035 90.519 44.982 89.934Z" fill="#A3A9AE"/>
</g>
<rect x="16.5" y="70.5" width="881" height="31" rx="2.5" stroke="#D0D5DA"/>
<rect width="914" height="192" transform="translate(0 114)" fill="white"/>
<rect width="914" height="48" transform="translate(0 114)" fill="white"/>
<rect x="16" y="122" width="32" height="32" rx="6" fill="#5CC3F7"/>
<path d="M29.914 133.886H27.8C28.038 134.362 28.22 135.006 28.276 135.426L27.576 135.622H30.32L29.396 135.426C29.578 135.006 29.802 134.362 29.914 133.886ZM29.732 139.472V139.584C30.236 139.934 31.398 140.858 31.72 141.11L30.754 142.3C30.53 142.02 30.138 141.6 29.732 141.208V144.19H28.122V141.376C27.576 142.16 26.946 142.86 26.344 143.35C26.092 142.986 25.616 142.44 25.266 142.174C26.176 141.572 27.142 140.522 27.786 139.472H25.658V138.072H28.122V136.994H25.616V135.622H26.904C26.848 135.16 26.68 134.558 26.484 134.082L27.338 133.886H25.77V132.528H28.122V131.254H29.732V132.528H32.056V133.886H30.614L31.426 134.04C31.174 134.642 30.95 135.202 30.754 135.622H32.168V136.994H29.732V138.072H32.042V139.472H29.732ZM38.524 135.748V137.288H37.194V144.134H35.584V137.288H34.156C34.142 139.374 33.848 142.328 32 144.246C31.79 143.882 31.188 143.308 30.81 143.112C32.42 141.404 32.588 139.024 32.588 137.092V132.248L33.554 132.514C34.884 132.192 36.27 131.744 37.124 131.282L38.454 132.5C37.222 133.046 35.626 133.48 34.156 133.788V135.748H38.524Z" fill="white"/>
<path d="M60.914 133.886H58.8C59.038 134.362 59.22 135.006 59.276 135.426L58.576 135.622H61.32L60.396 135.426C60.578 135.006 60.802 134.362 60.914 133.886ZM60.732 139.472V139.584C61.236 139.934 62.398 140.858 62.72 141.11L61.754 142.3C61.53 142.02 61.138 141.6 60.732 141.208V144.19H59.122V141.376C58.576 142.16 57.946 142.86 57.344 143.35C57.092 142.986 56.616 142.44 56.266 142.174C57.176 141.572 58.142 140.522 58.786 139.472H56.658V138.072H59.122V136.994H56.616V135.622H57.904C57.848 135.16 57.68 134.558 57.484 134.082L58.338 133.886H56.77V132.528H59.122V131.254H60.732V132.528H63.056V133.886H61.614L62.426 134.04C62.174 134.642 61.95 135.202 61.754 135.622H63.168V136.994H60.732V138.072H63.042V139.472H60.732ZM69.524 135.748V137.288H68.194V144.134H66.584V137.288H65.156C65.142 139.374 64.848 142.328 63 144.246C62.79 143.882 62.188 143.308 61.81 143.112C63.42 141.404 63.588 139.024 63.588 137.092V132.248L64.554 132.514C65.884 132.192 67.27 131.744 68.124 131.282L69.454 132.5C68.222 133.046 66.626 133.48 65.156 133.788V135.748H69.524ZM72.576 141.306H74.802V138.562H72.576V141.306ZM74.802 137.12V134.852H72.576V137.12H74.802ZM79.254 133.298H83.188C83.188 133.298 83.188 133.858 83.174 134.054C82.992 140.312 82.838 142.538 82.264 143.28C81.872 143.798 81.48 143.952 80.92 144.05C80.388 144.12 79.548 144.106 78.722 144.078C78.694 143.616 78.47 142.916 78.176 142.454C79.072 142.538 79.898 142.538 80.262 142.538C80.542 142.538 80.696 142.482 80.878 142.3C81.284 141.852 81.466 139.752 81.62 134.81H78.624C78.26 135.65 77.826 136.42 77.392 137.022C77.168 136.812 76.692 136.49 76.314 136.238V142.776H72.576V143.798H71.064V133.396H72.646C72.828 132.696 72.996 131.8 73.052 131.142L74.872 131.394C74.634 132.094 74.382 132.794 74.144 133.396H76.314V135.664C77.126 134.488 77.798 132.794 78.204 131.156L79.8 131.52C79.646 132.122 79.464 132.71 79.254 133.298ZM80.864 139.682L79.45 140.55C79.058 139.71 78.19 138.338 77.504 137.316L78.806 136.574C79.506 137.54 80.43 138.87 80.864 139.682ZM84.532 134.418H88.844V135.972H84.532V134.418ZM85.89 131.114H87.5V144.26H85.89V131.114ZM89.208 133.704H94.906V135.342H89.208V133.704ZM94.234 133.704H95.83C95.83 133.704 95.816 134.264 95.816 134.46C95.704 140.508 95.592 142.636 95.116 143.308C94.78 143.798 94.444 143.952 93.94 144.036C93.478 144.12 92.764 144.12 92.036 144.092C92.008 143.63 91.826 142.93 91.532 142.482C92.232 142.538 92.848 142.538 93.156 142.538C93.394 142.538 93.534 142.496 93.674 142.3C94.024 141.866 94.122 139.738 94.234 134.068V133.704ZM89.054 136.336L90.524 136.63C90.244 138.086 89.698 139.528 89.068 140.466C88.788 140.228 88.158 139.836 87.808 139.64C88.41 138.828 88.83 137.582 89.054 136.336ZM95.452 136.63L96.81 136.336C97.202 137.666 97.65 139.402 97.818 140.438L96.348 140.816C96.222 139.766 95.83 137.988 95.452 136.63ZM91.336 131.184H92.918V134.18C92.918 137.274 92.61 141.376 89.166 144.274C88.886 143.91 88.284 143.364 87.892 143.112C91.056 140.55 91.336 136.896 91.336 134.18V131.184ZM104.552 132.178C105.406 137.344 107.352 141.25 111.804 142.86C111.412 143.196 110.88 143.882 110.628 144.33C105.91 142.398 104.02 138.282 102.984 132.444L104.552 132.178ZM105.364 131.772L106.792 131.198C107.324 132.178 107.87 133.452 108.038 134.292L106.498 134.936C106.358 134.11 105.868 132.78 105.364 131.772ZM109.242 132.08L110.964 132.332C110.068 137.554 108.416 142.09 103.348 144.428C103.124 144.022 102.676 143.378 102.368 143.028C107.058 141.026 108.556 136.812 109.242 132.08ZM99.246 132.22L100.464 131.352C101.066 132.052 101.822 133.004 102.158 133.634L100.856 134.628C100.548 133.97 99.834 132.962 99.246 132.22ZM100.394 144.008L100.044 142.482L100.408 141.95L103.292 139.906C103.404 140.368 103.642 141.026 103.81 141.348C101.122 143.308 100.66 143.686 100.394 144.008ZM98.532 135.412H101.612V137.022H98.532V135.412ZM100.394 144.008C100.226 143.672 99.75 143.098 99.484 142.86C99.792 142.58 100.212 142.006 100.212 141.208V135.412H101.836V142.076C101.836 142.076 100.394 143.392 100.394 144.008Z" fill="#333333"/>
<rect width="914" height="48" transform="translate(0 162)" fill="white"/>
<rect x="16" y="170" width="32" height="32" rx="6" fill="#FF6680"/>
<path d="M32.504 187.752H31.412C31.258 188.536 31.02 189.194 30.67 189.74C31.104 189.992 31.51 190.244 31.832 190.482C32.868 189.936 33.68 189.236 34.296 188.368C33.904 187.542 33.596 186.618 33.344 185.61C33.148 185.974 32.924 186.31 32.7 186.618C32.644 186.562 32.588 186.492 32.504 186.408V187.752ZM28.486 187.752L28.08 188.494C28.5 188.662 28.906 188.83 29.312 189.026C29.536 188.676 29.718 188.256 29.844 187.752H28.486ZM36.018 183.202H34.408C34.604 184.378 34.884 185.484 35.262 186.492C35.612 185.54 35.864 184.434 36.018 183.202ZM38.524 183.202H37.74C37.446 185.274 36.97 187.01 36.214 188.424C36.858 189.418 37.67 190.216 38.692 190.748C38.314 191.084 37.796 191.728 37.544 192.19C36.592 191.616 35.822 190.874 35.192 189.964C34.422 190.888 33.456 191.644 32.238 192.26C32.14 192.022 31.93 191.644 31.706 191.308L31.076 191.952C30.698 191.63 30.194 191.266 29.62 190.902C28.794 191.518 27.674 191.924 26.176 192.232C26.078 191.756 25.784 191.196 25.518 190.86C26.652 190.706 27.52 190.482 28.178 190.104C27.926 189.964 27.66 189.838 27.394 189.726L27.24 189.992L25.784 189.544C26.092 189.054 26.442 188.424 26.792 187.752H25.462V186.408H27.492C27.66 186.058 27.828 185.722 27.968 185.414L28.276 185.484V184.14C27.632 184.784 26.876 185.372 26.176 185.764C25.994 185.4 25.644 184.854 25.336 184.56C26.19 184.21 27.128 183.538 27.8 182.81H25.616V181.494H26.68C26.554 181.018 26.246 180.374 25.952 179.87L27.156 179.366C27.52 179.898 27.884 180.612 27.996 181.102L27.1 181.494H28.276V179.142H29.802V181.494H30.908L29.984 181.088C30.306 180.584 30.698 179.842 30.922 179.31L32.322 179.87C31.888 180.472 31.454 181.06 31.118 181.494H32.448V182.81H30.152C30.824 183.188 31.818 183.776 32.126 183.986L31.244 185.134C30.936 184.84 30.348 184.35 29.802 183.916V185.61H28.906L29.508 185.736L29.172 186.408H32.504C32.182 186.086 31.678 185.652 31.37 185.442C32.56 184.014 33.232 181.634 33.568 179.142L35.248 179.366C35.136 180.15 34.982 180.92 34.8 181.662H38.524V183.202Z" fill="white"/>
<path d="M63.504 187.752H62.412C62.258 188.536 62.02 189.194 61.67 189.74C62.104 189.992 62.51 190.244 62.832 190.482C63.868 189.936 64.68 189.236 65.296 188.368C64.904 187.542 64.596 186.618 64.344 185.61C64.148 185.974 63.924 186.31 63.7 186.618C63.644 186.562 63.588 186.492 63.504 186.408V187.752ZM59.486 187.752L59.08 188.494C59.5 188.662 59.906 188.83 60.312 189.026C60.536 188.676 60.718 188.256 60.844 187.752H59.486ZM67.018 183.202H65.408C65.604 184.378 65.884 185.484 66.262 186.492C66.612 185.54 66.864 184.434 67.018 183.202ZM69.524 183.202H68.74C68.446 185.274 67.97 187.01 67.214 188.424C67.858 189.418 68.67 190.216 69.692 190.748C69.314 191.084 68.796 191.728 68.544 192.19C67.592 191.616 66.822 190.874 66.192 189.964C65.422 190.888 64.456 191.644 63.238 192.26C63.14 192.022 62.93 191.644 62.706 191.308L62.076 191.952C61.698 191.63 61.194 191.266 60.62 190.902C59.794 191.518 58.674 191.924 57.176 192.232C57.078 191.756 56.784 191.196 56.518 190.86C57.652 190.706 58.52 190.482 59.178 190.104C58.926 189.964 58.66 189.838 58.394 189.726L58.24 189.992L56.784 189.544C57.092 189.054 57.442 188.424 57.792 187.752H56.462V186.408H58.492C58.66 186.058 58.828 185.722 58.968 185.414L59.276 185.484V184.14C58.632 184.784 57.876 185.372 57.176 185.764C56.994 185.4 56.644 184.854 56.336 184.56C57.19 184.21 58.128 183.538 58.8 182.81H56.616V181.494H57.68C57.554 181.018 57.246 180.374 56.952 179.87L58.156 179.366C58.52 179.898 58.884 180.612 58.996 181.102L58.1 181.494H59.276V179.142H60.802V181.494H61.908L60.984 181.088C61.306 180.584 61.698 179.842 61.922 179.31L63.322 179.87C62.888 180.472 62.454 181.06 62.118 181.494H63.448V182.81H61.152C61.824 183.188 62.818 183.776 63.126 183.986L62.244 185.134C61.936 184.84 61.348 184.35 60.802 183.916V185.61H59.906L60.508 185.736L60.172 186.408H63.504C63.182 186.086 62.678 185.652 62.37 185.442C63.56 184.014 64.232 181.634 64.568 179.142L66.248 179.366C66.136 180.15 65.982 180.92 65.8 181.662H69.524V183.202ZM74.774 185.064L74.97 186.562C74.508 186.702 74.018 186.856 73.542 186.996V190.286C73.542 191.056 73.416 191.462 72.996 191.714C72.576 191.994 71.96 192.05 71.064 192.036C71.022 191.63 70.84 190.944 70.644 190.51C71.148 190.524 71.624 190.524 71.792 190.51C71.96 190.51 72.03 190.454 72.03 190.272V187.444L70.714 187.822L70.336 186.212C70.826 186.1 71.386 185.96 72.03 185.792V183.328H70.56V181.788H72.03V179.142H73.542V181.788H74.942V183.328H73.542V185.4L74.774 185.064ZM76.958 184.98H79.03V183.748H76.972V183.972C76.972 184.294 76.972 184.616 76.958 184.98ZM81.466 181.116H76.972V182.32H81.466V181.116ZM81.606 190.496V189.096H78.218V190.496H81.606ZM83.426 186.38H80.584V187.724H83.104V192.204H81.606V191.812H78.218V192.218H76.79V187.724H79.03V186.38H76.874C76.72 188.424 76.272 190.678 75.208 192.26C74.914 191.966 74.214 191.462 73.864 191.28C75.236 189.222 75.348 186.156 75.348 183.972V179.702H83.034V183.748H80.584V184.98H83.426V186.38ZM91.91 189.572H97.398V191.252H84.672V189.572H90.006V182.334H85.428V180.598H96.614V182.334H91.91V189.572ZM101.528 179.198L103.152 179.702C102.788 180.682 102.326 181.676 101.808 182.614V192.204H100.128V185.204C99.834 185.554 99.54 185.904 99.26 186.212C99.106 185.806 98.63 184.854 98.336 184.434C99.61 183.174 100.828 181.186 101.528 179.198ZM111.566 183.006H107.59V184.476H111.216V185.988H107.59V187.57H111.398V189.11H107.59V192.218H105.882V183.006H105.35C104.79 184.042 104.146 184.994 103.516 185.722C103.25 185.414 102.592 184.826 102.242 184.56C103.474 183.3 104.58 181.284 105.21 179.282L106.82 179.688C106.624 180.276 106.4 180.85 106.134 181.424H111.566V183.006Z" fill="#333333"/>
<rect width="914" height="48" transform="translate(0 210)" fill="white"/>
<rect x="16" y="218" width="32" height="32" rx="6" fill="#B679F2"/>
<path d="M36.76 233.918L38.146 234.954C37.264 235.584 36.228 236.228 35.36 236.69C36.186 237.614 37.278 238.3 38.664 238.692C38.3 239.042 37.824 239.714 37.586 240.176C34.632 239.168 33.092 237.04 32.168 233.932C31.636 234.436 31.006 234.912 30.334 235.346V237.95C31.328 237.74 32.378 237.516 33.386 237.292L33.54 238.804C31.342 239.322 28.99 239.812 27.254 240.19L26.764 238.65C27.31 238.552 27.968 238.426 28.668 238.286V236.284C27.898 236.662 27.114 236.97 26.344 237.208C26.106 236.83 25.63 236.2 25.28 235.864C26.946 235.43 28.738 234.632 30.054 233.722H25.798V232.308H31.132V231.524H26.974V230.194H31.132V229.48H26.316V228.066H31.132V227.142H32.798V228.066H37.726V229.48H32.798V230.194H37.18V231.524H32.798V232.308H38.174V233.722H33.722C33.946 234.408 34.212 235.024 34.562 235.598C35.346 235.08 36.186 234.45 36.76 233.918Z" fill="white"/>
<path d="M67.76 233.918L69.146 234.954C68.264 235.584 67.228 236.228 66.36 236.69C67.186 237.614 68.278 238.3 69.664 238.692C69.3 239.042 68.824 239.714 68.586 240.176C65.632 239.168 64.092 237.04 63.168 233.932C62.636 234.436 62.006 234.912 61.334 235.346V237.95C62.328 237.74 63.378 237.516 64.386 237.292L64.54 238.804C62.342 239.322 59.99 239.812 58.254 240.19L57.764 238.65C58.31 238.552 58.968 238.426 59.668 238.286V236.284C58.898 236.662 58.114 236.97 57.344 237.208C57.106 236.83 56.63 236.2 56.28 235.864C57.946 235.43 59.738 234.632 61.054 233.722H56.798V232.308H62.132V231.524H57.974V230.194H62.132V229.48H57.316V228.066H62.132V227.142H63.798V228.066H68.726V229.48H63.798V230.194H68.18V231.524H63.798V232.308H69.174V233.722H64.722C64.946 234.408 65.212 235.024 65.562 235.598C66.346 235.08 67.186 234.45 67.76 233.918ZM76.09 230.306H77.826V240.218H76.09V230.306ZM73.542 233.106V234.058H80.5V233.106H73.542ZM73.542 230.88V231.832H80.5V230.88H73.542ZM71.904 229.508H82.222V235.444H71.904V229.508ZM70.658 236.368H83.356V237.922H70.658V236.368ZM73.01 227.828L74.466 227.17C74.998 227.772 75.642 228.626 75.922 229.214L74.382 229.928C74.144 229.368 73.542 228.472 73.01 227.828ZM79.548 227.212L81.41 227.758C80.822 228.696 80.15 229.648 79.646 230.264L78.162 229.746C78.652 229.06 79.24 228.01 79.548 227.212Z" fill="#333333"/>
<rect width="914" height="48" transform="translate(0 258)" fill="white"/>
<rect x="16" y="266" width="32" height="32" rx="6" fill="#6191F2"/>
<path d="M35.766 276.836V278.712H36.648V276.836H35.766ZM33.68 276.836V278.712H34.52V276.836H33.68ZM31.608 276.836V278.712H32.434V276.836H31.608ZM30.04 275.604H38.286V279.93H30.04V275.604ZM33.232 280.168H34.87V284.312H33.232V280.168ZM30.264 280.994H37.894V282.436H30.264V280.994ZM29.648 283.416H38.454V284.886H29.648V283.416ZM35.304 285.446L36.536 284.732C37.166 285.586 38.09 286.762 38.524 287.476L37.222 288.302C36.816 287.574 35.948 286.342 35.304 285.446ZM30.432 288.218C30.362 287.896 30.096 287.126 29.928 286.706C30.222 286.636 30.488 286.44 30.796 286.132C31.132 285.824 32.154 284.69 32.798 283.542L34.212 284.452C33.442 285.502 32.42 286.636 31.398 287.434V287.462C31.398 287.462 30.432 287.924 30.432 288.218ZM30.432 288.218L30.39 287.014L31.258 286.496L36.914 286.104C36.9 286.524 36.942 287.14 36.97 287.49C31.678 287.924 30.936 288.022 30.432 288.218ZM25.294 282.366C26.414 282.1 28.08 281.666 29.676 281.218L29.9 282.758C28.458 283.192 26.904 283.64 25.672 283.99L25.294 282.366ZM25.56 277.76H29.648V279.328H25.56V277.76ZM26.974 275.128H28.542V286.37C28.542 287.168 28.416 287.602 27.968 287.868C27.52 288.148 26.89 288.204 25.966 288.204C25.924 287.77 25.728 287.056 25.518 286.594C26.036 286.622 26.568 286.622 26.736 286.622C26.904 286.622 26.974 286.566 26.974 286.37V275.128Z" fill="white"/>
<path d="M66.766 276.836V278.712H67.648V276.836H66.766ZM64.68 276.836V278.712H65.52V276.836H64.68ZM62.608 276.836V278.712H63.434V276.836H62.608ZM61.04 275.604H69.286V279.93H61.04V275.604ZM64.232 280.168H65.87V284.312H64.232V280.168ZM61.264 280.994H68.894V282.436H61.264V280.994ZM60.648 283.416H69.454V284.886H60.648V283.416ZM66.304 285.446L67.536 284.732C68.166 285.586 69.09 286.762 69.524 287.476L68.222 288.302C67.816 287.574 66.948 286.342 66.304 285.446ZM61.432 288.218C61.362 287.896 61.096 287.126 60.928 286.706C61.222 286.636 61.488 286.44 61.796 286.132C62.132 285.824 63.154 284.69 63.798 283.542L65.212 284.452C64.442 285.502 63.42 286.636 62.398 287.434V287.462C62.398 287.462 61.432 287.924 61.432 288.218ZM61.432 288.218L61.39 287.014L62.258 286.496L67.914 286.104C67.9 286.524 67.942 287.14 67.97 287.49C62.678 287.924 61.936 288.022 61.432 288.218ZM56.294 282.366C57.414 282.1 59.08 281.666 60.676 281.218L60.9 282.758C59.458 283.192 57.904 283.64 56.672 283.99L56.294 282.366ZM56.56 277.76H60.648V279.328H56.56V277.76ZM57.974 275.128H59.542V286.37C59.542 287.168 59.416 287.602 58.968 287.868C58.52 288.148 57.89 288.204 56.966 288.204C56.924 287.77 56.728 287.056 56.518 286.594C57.036 286.622 57.568 286.622 57.736 286.622C57.904 286.622 57.974 286.566 57.974 286.37V275.128ZM81.074 281.218V279.384H77.672V281.218H81.074ZM72.576 282.058H73.822V280.322H72.59V280.7C72.59 281.12 72.59 281.568 72.576 282.058ZM73.822 277.13H72.59V278.81H73.822V277.13ZM81.55 286.524H82.012C82.222 286.524 82.278 286.314 82.306 284.858C82.614 285.11 83.286 285.39 83.72 285.502C83.58 287.476 83.188 288.022 82.194 288.022H81.256C80.01 288.022 79.744 287.532 79.744 286.062V282.674H78.988C78.806 285.11 78.302 287.056 75.992 288.232C75.852 287.896 75.516 287.434 75.208 287.126C75.138 287.392 74.998 287.602 74.774 287.756C74.368 288.022 73.836 288.064 73.01 288.064C72.982 287.658 72.8 286.944 72.604 286.538C73.038 286.552 73.458 286.552 73.612 286.552C73.766 286.552 73.822 286.496 73.822 286.328V283.598H72.506C72.38 285.222 72.142 286.916 71.652 288.19C71.372 287.952 70.714 287.588 70.364 287.462C71.12 285.544 71.176 282.73 71.176 280.7V275.632H75.278V286.356C75.278 286.51 75.278 286.65 75.264 286.776C76.93 285.88 77.21 284.452 77.35 282.674H76.048V277.928H77.434C77.224 277.27 76.818 276.416 76.398 275.772L77.826 275.184C78.33 275.912 78.862 276.892 79.058 277.578L78.246 277.928H79.73C80.15 277.13 80.598 276.024 80.85 275.156L82.586 275.702C82.236 276.472 81.858 277.27 81.494 277.928H82.768V282.674H81.34V286.048C81.34 286.482 81.368 286.524 81.55 286.524Z" fill="#333333"/>
</g>
<defs>
<clipPath id="clip0_180_15004">
<rect width="550" height="318" fill="white"/>
</clipPath>
<clipPath id="clip1_180_15004">
<rect x="16" y="70" width="882" height="32" rx="3" fill="white"/>
</clipPath>
</defs>
</svg>
