<svg width="624" height="444" viewBox="0 0 624 444" fill="none" xmlns="http://www.w3.org/2000/svg">
<g clip-path="url(#clip0_182_15054)">
<rect width="624" height="444" fill="white"/>
<rect width="624" height="530" fill="white"/>
<rect width="624" height="530" fill="white"/>
<rect width="624" height="54" fill="white"/>
<rect width="592" height="53" transform="translate(16)" fill="white"/>
<path d="M22.636 23.374H36.139V25.537H22.636V23.374ZM25.156 18.796H35.257V20.917H25.156V18.796ZM28.39 16.276H30.889V24.193H28.39V16.276ZM24.841 16.822L27.235 17.326C26.626 19.489 25.534 21.631 24.4 22.975C23.917 22.597 22.909 21.925 22.321 21.631C23.476 20.476 24.358 18.649 24.841 16.822ZM30.007 24.655H32.485V29.233C32.485 29.821 32.527 29.884 32.884 29.884C33.01 29.884 33.577 29.884 33.745 29.884C34.102 29.884 34.186 29.632 34.249 27.7C34.711 28.12 35.761 28.498 36.433 28.666C36.202 31.48 35.572 32.215 34.018 32.215C33.619 32.215 32.821 32.215 32.443 32.215C30.427 32.215 30.007 31.459 30.007 29.254V24.655ZM26.227 24.571H28.747C28.432 27.994 27.613 30.745 23.728 32.362C23.455 31.711 22.762 30.766 22.216 30.283C25.471 29.107 25.975 27.091 26.227 24.571ZM16.903 18.187L18.835 16.78C20.011 17.725 21.46 19.111 22.132 20.098L20.053 21.694C19.465 20.665 18.079 19.216 16.903 18.187ZM21.691 24.277V32.257H19.276V26.608H16.945V24.277H21.691ZM21.46 31.312C22.111 31.312 22.636 31.858 23.707 32.488C25.03 33.307 26.836 33.412 29.02 33.412C31.12 33.412 34.375 33.244 36.412 32.95C36.139 33.622 35.74 34.861 35.719 35.533C34.165 35.638 31.015 35.764 28.957 35.764C26.458 35.764 24.799 35.491 23.392 34.693C22.531 34.168 21.859 33.559 21.397 33.559C20.62 33.559 19.465 34.798 18.331 36.1L16.672 33.916C18.268 32.446 20.116 31.312 21.46 31.312ZM37.525 26.776C39.331 26.377 41.977 25.663 44.539 24.97L44.854 27.238C42.523 27.931 40.045 28.645 38.071 29.191L37.525 26.776ZM37.819 20.119H44.875V22.429H37.819V20.119ZM40.192 16.192H42.649V33.202C42.649 34.378 42.439 35.029 41.788 35.428C41.116 35.827 40.171 35.89 38.785 35.89C38.701 35.239 38.407 34.21 38.113 33.517C38.827 33.559 39.604 33.559 39.856 33.538C40.108 33.538 40.192 33.454 40.192 33.181V16.192ZM45.4 17.011H54.514V19.237H45.4V17.011ZM54.052 17.011H54.472L54.871 16.927L56.383 17.725C54.409 22.03 50.083 24.865 45.547 26.293C45.295 25.684 44.707 24.76 44.245 24.277C48.466 23.206 52.561 20.644 54.052 17.368V17.011ZM48.34 18.124C50.02 21.085 53.443 23.311 57.706 24.214C57.202 24.718 56.509 25.684 56.173 26.314C51.784 25.117 48.403 22.492 46.408 18.796L48.34 18.124ZM45.652 26.923H55.858V29.128H45.652V26.923ZM44.602 30.577H57.202V32.824H44.602V30.577ZM49.558 25.285H52.099V35.911H49.558V25.285ZM72.133 21.967H64.762C65.665 24.235 66.904 26.251 68.521 27.952C70.033 26.314 71.23 24.34 72.133 21.967ZM78.097 21.967H75.073C73.939 25.075 72.406 27.616 70.474 29.716C72.637 31.375 75.283 32.614 78.475 33.328C77.866 33.937 77.068 35.113 76.69 35.827C73.309 34.966 70.579 33.559 68.374 31.69C66.085 33.517 63.376 34.882 60.184 35.89C59.89 35.239 59.113 34.063 58.609 33.454C61.717 32.635 64.342 31.438 66.463 29.821C64.573 27.658 63.124 25.033 61.99 21.967H58.987V19.531H67.219V16.213H69.76V19.531H78.097V21.967ZM84.124 16.297L86.497 17.053C85.93 18.544 85.237 20.077 84.439 21.526V35.806H82.066V25.243C81.646 25.768 81.226 26.293 80.806 26.755C80.575 26.125 79.882 24.781 79.462 24.151C81.31 22.261 83.095 19.279 84.124 16.297ZM99.223 26.335V28.771H93.847V35.827H91.327V28.771H85.657V26.335H91.327V22.723H88.765C88.387 23.752 87.925 24.697 87.463 25.432C87.001 25.096 85.909 24.508 85.3 24.235C86.434 22.597 87.295 19.93 87.778 17.368L90.193 17.872C90.025 18.691 89.815 19.489 89.584 20.287H91.327V16.486H93.847V20.287H98.236V22.723H93.847V26.335H99.223Z" fill="#333333"/>
<rect y="53" width="624" height="1" fill="#ECEEF1"/>
<rect width="624" height="54" transform="translate(0 54)" fill="white"/>
<path d="M16.608 77.192H21.536V78.968H16.608V77.192ZM18.16 73.416H20V88.44H18.16V73.416ZM21.952 76.376H28.464V78.248H21.952V76.376ZM27.696 76.376H29.52C29.52 76.376 29.504 77.016 29.504 77.24C29.376 84.152 29.248 86.584 28.704 87.352C28.32 87.912 27.936 88.088 27.36 88.184C26.832 88.28 26.016 88.28 25.184 88.248C25.152 87.72 24.944 86.92 24.608 86.408C25.408 86.472 26.112 86.472 26.464 86.472C26.736 86.472 26.896 86.424 27.056 86.2C27.456 85.704 27.568 83.272 27.696 76.792V76.376ZM21.776 79.384L23.456 79.72C23.136 81.384 22.512 83.032 21.792 84.104C21.472 83.832 20.752 83.384 20.352 83.16C21.04 82.232 21.52 80.808 21.776 79.384ZM29.088 79.72L30.64 79.384C31.088 80.904 31.6 82.888 31.792 84.072L30.112 84.504C29.968 83.304 29.52 81.272 29.088 79.72ZM24.384 73.496H26.192V76.92C26.192 80.456 25.84 85.144 21.904 88.456C21.584 88.04 20.896 87.416 20.448 87.128C24.064 84.2 24.384 80.024 24.384 76.92V73.496ZM36.032 73.512L37.888 74.088C37.472 75.208 36.944 76.344 36.352 77.416V88.376H34.432V80.376C34.096 80.776 33.76 81.176 33.44 81.528C33.264 81.064 32.72 79.976 32.384 79.496C33.84 78.056 35.232 75.784 36.032 73.512ZM47.504 77.864H42.96V79.544H47.104V81.272H42.96V83.08H47.312V84.84H42.96V88.392H41.008V77.864H40.4C39.76 79.048 39.024 80.136 38.304 80.968C38 80.616 37.248 79.944 36.848 79.64C38.256 78.2 39.52 75.896 40.24 73.608L42.08 74.072C41.856 74.744 41.6 75.4 41.296 76.056H47.504V77.864ZM56.768 76.616H55.216C54.928 79.272 54.048 80.952 49.984 81.832C49.824 81.384 49.344 80.616 48.96 80.232C52.448 79.624 53.008 78.504 53.264 76.616H51.056V78.472H49.184V74.888H54.976V73.448H56.928V74.888H62.864V78.2H60.896V76.616H58.64V79.144C58.64 79.576 58.736 79.64 59.232 79.64H60.656C61.056 79.64 61.136 79.48 61.2 78.472C61.552 78.744 62.336 79.016 62.832 79.128C62.64 80.808 62.128 81.256 60.848 81.256H58.944C57.152 81.256 56.768 80.744 56.768 79.16V76.616ZM56.928 86.232H63.008V87.96H49.008V86.232H54.976V83.848H50.688V82.136H61.648V83.848H56.928V86.232ZM65.136 77.272H67.12V88.424H65.136V77.272ZM65.36 74.44L66.864 73.528C67.616 74.216 68.48 75.224 68.864 75.944L67.248 76.968C66.912 76.28 66.08 75.208 65.36 74.44ZM69.424 74.216H78.08V75.992H69.424V74.216ZM77.008 74.216H79.008V86.376C79.008 87.272 78.848 87.704 78.32 88.008C77.776 88.312 77.008 88.328 76 88.328C75.936 87.848 75.696 87.08 75.456 86.616C75.968 86.648 76.56 86.632 76.752 86.632C76.96 86.632 77.008 86.552 77.008 86.36V74.216ZM70.448 82.504V84.04H73.552V82.504H70.448ZM70.448 79.448V80.968H73.552V79.448H70.448ZM68.736 77.912H75.344V85.576H68.736V77.912Z" fill="#657077"/>
<path fill-rule="evenodd" clip-rule="evenodd" d="M95.5859 81.9998L91.293 77.7069L92.7072 76.2927L97.7072 81.2927C98.0977 81.6832 98.0977 82.3164 97.7072 82.7069L92.7072 87.7069L91.293 86.2927L95.5859 81.9998Z" fill="#657077"/>
<path d="M122.784 74.184V75.88H109.296V74.184H122.784ZM115.76 80.328H112.208C112.208 80.648 112.192 80.984 112.176 81.32H115.76V80.328ZM119.936 77.96H112.208V78.952H119.936V77.96ZM123.152 82.808H116.704C116.672 83.112 116.624 83.416 116.56 83.704H121.792C121.792 83.704 121.776 84.152 121.744 84.376C121.568 86.472 121.376 87.464 120.976 87.864C120.624 88.232 120.208 88.344 119.712 88.392C119.264 88.424 118.448 88.44 117.6 88.408C117.568 87.928 117.376 87.272 117.104 86.824C117.824 86.904 118.528 86.92 118.832 86.92C119.088 86.92 119.248 86.888 119.392 86.76C119.568 86.6 119.696 86.136 119.808 85.16H116.112C115.488 86.584 114.32 87.672 111.968 88.392C111.792 87.944 111.312 87.256 110.928 86.904C113.872 86.12 114.544 84.744 114.8 82.808H112.064C111.84 84.728 111.28 86.76 110.016 88.216C109.664 87.88 108.848 87.368 108.384 87.16C110.176 85.16 110.352 82.264 110.352 80.136V76.584H121.792V80.328H117.648V81.32H123.152V82.808ZM125.136 77.272H127.12V88.424H125.136V77.272ZM125.36 74.44L126.864 73.528C127.616 74.216 128.48 75.224 128.864 75.944L127.248 76.968C126.912 76.28 126.08 75.208 125.36 74.44ZM129.424 74.216H138.08V75.992H129.424V74.216ZM137.008 74.216H139.008V86.376C139.008 87.272 138.848 87.704 138.32 88.008C137.776 88.312 137.008 88.328 136 88.328C135.936 87.848 135.696 87.08 135.456 86.616C135.968 86.648 136.56 86.632 136.752 86.632C136.96 86.632 137.008 86.552 137.008 86.36V74.216ZM130.448 82.504V84.04H133.552V82.504H130.448ZM130.448 79.448V80.968H133.552V79.448H130.448ZM128.736 77.912H135.344V85.576H128.736V77.912Z" fill="#657077"/>
<path fill-rule="evenodd" clip-rule="evenodd" d="M155.586 81.9998L151.293 77.7069L152.707 76.2927L157.707 81.2927C158.098 81.6832 158.098 82.3164 157.707 82.7069L152.707 87.7069L151.293 86.2927L155.586 81.9998Z" fill="#657077"/>
<path d="M181.632 74.472V76.36H170.352V74.472H181.632ZM171.168 81.384L173.184 81.912C172.48 83.784 171.28 85.72 170.144 86.92C169.744 86.584 168.88 86.024 168.384 85.784C169.536 84.728 170.608 83.032 171.168 81.384ZM183.12 80.216H177.088V86.152C177.088 87.224 176.864 87.752 176.112 88.056C175.376 88.36 174.32 88.392 172.928 88.392C172.832 87.8 172.544 86.936 172.256 86.36C173.168 86.408 174.288 86.424 174.592 86.408C174.896 86.408 175.008 86.328 175.008 86.104V80.216H168.896V78.312H183.12V80.216ZM178.72 82.072L180.512 81.32C181.568 82.792 182.72 84.728 183.168 86.088L181.184 86.968C180.832 85.656 179.744 83.592 178.72 82.072ZM187.872 77.224V82.04C189.088 80.504 189.728 78.008 190.048 75.816H188.992V74.456C188.672 75.384 188.288 76.312 187.872 77.224ZM192.448 79.192H191.072C190.912 79.672 190.752 80.136 190.576 80.584C191.024 80.904 191.536 81.288 191.904 81.64C192.128 80.888 192.304 80.072 192.448 79.192ZM196.224 84.6H194.544V75.816H191.856C191.744 76.376 191.632 76.968 191.504 77.544H192.928L193.232 77.48L194.336 77.816C193.76 82.984 192.08 86.6 189.632 88.392C189.392 87.96 188.8 87.224 188.448 86.936C189.616 86.136 190.544 84.952 191.248 83.4C190.912 83 190.352 82.488 189.856 82.088C189.584 82.584 189.28 83.032 188.928 83.432C188.688 83.064 188.208 82.488 187.872 82.152V88.376H186.128V80.36C185.808 80.84 185.472 81.288 185.136 81.672C184.992 81.224 184.528 80.12 184.224 79.624C185.504 78.136 186.688 75.8 187.392 73.464L189.152 73.992L189.104 74.152H194.656V75.288H196.224V84.6ZM197.232 73.752H198.992V86.232C198.992 87.24 198.816 87.736 198.224 88.04C197.648 88.344 196.752 88.408 195.488 88.408C195.424 87.896 195.168 87.064 194.912 86.536C195.776 86.584 196.592 86.584 196.88 86.568C197.136 86.552 197.232 86.488 197.232 86.216V73.752ZM210.768 77.832H205.152C205.84 79.56 206.784 81.096 208.016 82.392C209.168 81.144 210.08 79.64 210.768 77.832ZM215.312 77.832H213.008C212.144 80.2 210.976 82.136 209.504 83.736C211.152 85 213.168 85.944 215.6 86.488C215.136 86.952 214.528 87.848 214.24 88.392C211.664 87.736 209.584 86.664 207.904 85.24C206.16 86.632 204.096 87.672 201.664 88.44C201.44 87.944 200.848 87.048 200.464 86.584C202.832 85.96 204.832 85.048 206.448 83.816C205.008 82.168 203.904 80.168 203.04 77.832H200.752V75.976H207.024V73.448H208.96V75.976H215.312V77.832ZM219.904 73.512L221.712 74.088C221.28 75.224 220.752 76.392 220.144 77.496V88.376H218.336V80.328C218.016 80.728 217.696 81.128 217.376 81.48C217.2 81 216.672 79.976 216.352 79.496C217.76 78.056 219.12 75.784 219.904 73.512ZM231.408 81.16V83.016H227.312V88.392H225.392V83.016H221.072V81.16H225.392V78.408H223.44C223.152 79.192 222.8 79.912 222.448 80.472C222.096 80.216 221.264 79.768 220.8 79.56C221.664 78.312 222.32 76.28 222.688 74.328L224.528 74.712C224.4 75.336 224.24 75.944 224.064 76.552H225.392V73.656H227.312V76.552H230.656V78.408H227.312V81.16H231.408Z" fill="#333333"/>
<rect width="624" height="422" transform="translate(0 108)" fill="white"/>
<rect width="624" height="48" transform="translate(0 108)" fill="white"/>
<g clip-path="url(#clip1_182_15054)">
<g clip-path="url(#clip2_182_15054)">
<path d="M21 118H35L43 126V146H21V118Z" fill="white"/>
<path fill-rule="evenodd" clip-rule="evenodd" d="M21 146H43V126L35 118H21V146ZM35 117H20V147H44V126L35 117Z" fill="url(#paint0_linear_182_15054)"/>
<path fill-rule="evenodd" clip-rule="evenodd" d="M23 136C23 135.448 23.4477 135 24 135H40C40.5523 135 41 135.448 41 136V143C41 143.552 40.5523 144 40 144H24C23.4477 144 23 143.552 23 143V136ZM31 141V142H29V137H30V141H31ZM26 137L26.5 138.528L27 137H28L27.0831 139.5L28 142H27L26.5 140.472L26 142H25L25.9169 139.5L25 137H26ZM37.5 138.528L37 137H36L36.9169 139.5L36 142H37L37.5 140.472L38 142H39L38.0831 139.5L39 137H38L37.5 138.528ZM32.6582 140.555C32.6582 140.555 33.2754 141 33.5918 141C33.9355 141 34.1094 140.773 34.1094 140.555C34.1094 140.353 33.788 140.161 33.3961 139.927C32.784 139.56 32 139.091 32 138.324C32 137.534 32.7407 137 33.5312 137C34.4375 137 34.9219 137.625 34.9219 137.625L34.2812 138.367C34.2812 138.367 34.0645 138 33.6172 138C33.3105 138 33.0195 138.078 33.0195 138.344C33.0195 138.524 33.3234 138.715 33.6975 138.95C34.2961 139.326 35.0746 139.816 35.0746 140.555C35.0746 141.42 34.416 142.004 33.5357 142.004C32.8301 142.004 32.0684 141.324 32.0684 141.324L32.6582 140.555Z" fill="#6AAA1E"/>
<path fill-rule="evenodd" clip-rule="evenodd" d="M23 120H35V121H30V123H35V124H30V126H41V133H23V120ZM29 126V124H24V126H29ZM24 127H29V129H24V127ZM24 130V132H29V130H24ZM30 130V132H35V130H30ZM36 130V132H40V130H36ZM40 129H36V127H40V129ZM35 127V129H30V127H35ZM24 123H29V121H24V123Z" fill="#BFBFBF"/>
<path opacity="0.3" d="M34 127V118H35V126H43V127H34Z" fill="black"/>
</g>
</g>
<path d="M56.504 126.626H61.18V128.208H56.504V126.626ZM58.114 127.298H59.78V134.312H58.114V127.298ZM56.266 134.074C57.456 133.794 59.36 133.29 61.236 132.786L61.432 134.2C59.78 134.788 58.03 135.39 56.672 135.852L56.266 134.074ZM61.362 125.646H69.468V127.144H61.362V125.646ZM64.344 126.332L66.36 126.598C65.954 127.494 65.464 128.376 65.114 128.964L63.602 128.656C63.896 127.97 64.19 127.032 64.344 126.332ZM64.4 130.238H66.08V133.122C66.08 135.068 65.184 137.084 61.236 138.288C61.04 137.938 60.536 137.336 60.172 137C63.924 136.076 64.4 134.48 64.4 133.108V130.238ZM65.59 135.992L66.64 134.984C67.62 135.572 68.992 136.454 69.65 137.07L68.53 138.204C67.914 137.574 66.598 136.636 65.59 135.992ZM61.74 128.236H68.768V134.802H67.06V129.72H63.378V134.858H61.74V128.236ZM73.682 135.572H80.164V133.92H73.682V135.572ZM80.164 130.7H73.682V132.352H80.164V130.7ZM80.164 127.522H73.682V129.132H80.164V127.522ZM72.002 125.898H81.928V138.064H80.164V137.196H73.682V138.064H72.002V125.898ZM84.994 126.598L85.834 125.464C86.772 125.814 88.06 126.416 88.704 126.892L87.822 128.152C87.22 127.662 85.96 126.99 84.994 126.598ZM84.602 129.79C85.652 129.496 87.206 128.992 88.718 128.488L89.012 129.93C87.682 130.42 86.254 130.91 85.092 131.316L84.602 129.79ZM90.482 125.226L92.064 125.45C91.588 126.836 90.86 128.152 89.572 129.216C89.32 128.852 88.774 128.348 88.41 128.152C89.516 127.34 90.16 126.22 90.482 125.226ZM91.07 126.318H95.816V127.55H90.202L91.07 126.318ZM95.466 126.318H95.718L95.984 126.248L97.23 126.542C96.936 127.382 96.558 128.32 96.236 128.936L94.766 128.558C95.004 128.04 95.298 127.2 95.466 126.514V126.318ZM86.282 131.764H95.9V135.474H94.15V133.29H87.934V135.628H86.282V131.764ZM90.216 133.654H91.854C91.364 136.104 90.132 137.588 85.204 138.288C85.092 137.896 84.742 137.224 84.462 136.888C88.914 136.398 89.796 135.39 90.216 133.654ZM91.084 136.328L92.05 135.138C93.646 135.558 96.012 136.328 97.258 136.874L96.208 138.218C95.074 137.658 92.75 136.818 91.084 136.328ZM92.302 126.92H93.954C93.548 129.02 92.652 130.756 89.516 131.764C89.362 131.386 88.956 130.826 88.634 130.546C91.378 129.776 91.98 128.418 92.302 126.92ZM93.562 127.732C94.234 128.992 95.62 129.93 97.426 130.294C97.09 130.602 96.656 131.204 96.446 131.624C94.5 131.036 93.114 129.762 92.344 128.026L93.562 127.732ZM108.066 127.592L107.212 128.838C106.778 128.292 105.812 127.536 105.042 127.018L105.84 125.898C106.624 126.36 107.618 127.074 108.066 127.592ZM104.398 130.532L105.182 129.342C105.994 129.776 107.03 130.448 107.534 130.952L106.694 132.282C106.232 131.764 105.21 131.022 104.398 130.532ZM103.138 125.912L104.538 126.22C104.174 127.34 103.768 128.67 103.418 129.482L102.368 129.188C102.648 128.306 102.984 126.892 103.138 125.912ZM100.422 129.188L99.176 129.524C99.148 128.656 98.868 127.298 98.546 126.29L99.708 125.982C100.072 126.99 100.352 128.32 100.422 129.188ZM104.244 133.794L103.222 135.082C103.012 134.634 102.62 133.906 102.214 133.262V138.176H100.674V133.234C100.226 134.536 99.666 135.838 99.064 136.678C98.924 136.174 98.56 135.418 98.308 134.956C99.008 134.102 99.722 132.604 100.156 131.33H98.56V129.776H100.674V125.198H102.214V129.776H104.286V131.33H102.214V131.428C102.62 131.834 103.95 133.402 104.244 133.794ZM111.65 134.116L109.97 134.424V138.204H108.402V134.704L104.496 135.404L104.244 133.85L108.402 133.108V125.128H109.97V132.828L111.398 132.562L111.65 134.116Z" fill="#333333"/>
<g style="mix-blend-mode:screen">
<rect x="624" width="202" height="624" transform="rotate(90 624 0)" fill="url(#paint1_linear_182_15054)"/>
</g>
<g filter="url(#filter0_d_182_15054)">
<rect width="624" height="530" transform="translate(0 171)" fill="white"/>
<rect width="624" height="530" transform="translate(0 171)" fill="white"/>
<rect width="624" height="54" transform="translate(0 171)" fill="white"/>
<rect width="592" height="53" transform="translate(16 171)" fill="white"/>
<path d="M22.636 194.374H36.139V196.537H22.636V194.374ZM25.156 189.796H35.257V191.917H25.156V189.796ZM28.39 187.276H30.889V195.193H28.39V187.276ZM24.841 187.822L27.235 188.326C26.626 190.489 25.534 192.631 24.4 193.975C23.917 193.597 22.909 192.925 22.321 192.631C23.476 191.476 24.358 189.649 24.841 187.822ZM30.007 195.655H32.485V200.233C32.485 200.821 32.527 200.884 32.884 200.884C33.01 200.884 33.577 200.884 33.745 200.884C34.102 200.884 34.186 200.632 34.249 198.7C34.711 199.12 35.761 199.498 36.433 199.666C36.202 202.48 35.572 203.215 34.018 203.215C33.619 203.215 32.821 203.215 32.443 203.215C30.427 203.215 30.007 202.459 30.007 200.254V195.655ZM26.227 195.571H28.747C28.432 198.994 27.613 201.745 23.728 203.362C23.455 202.711 22.762 201.766 22.216 201.283C25.471 200.107 25.975 198.091 26.227 195.571ZM16.903 189.187L18.835 187.78C20.011 188.725 21.46 190.111 22.132 191.098L20.053 192.694C19.465 191.665 18.079 190.216 16.903 189.187ZM21.691 195.277V203.257H19.276V197.608H16.945V195.277H21.691ZM21.46 202.312C22.111 202.312 22.636 202.858 23.707 203.488C25.03 204.307 26.836 204.412 29.02 204.412C31.12 204.412 34.375 204.244 36.412 203.95C36.139 204.622 35.74 205.861 35.719 206.533C34.165 206.638 31.015 206.764 28.957 206.764C26.458 206.764 24.799 206.491 23.392 205.693C22.531 205.168 21.859 204.559 21.397 204.559C20.62 204.559 19.465 205.798 18.331 207.1L16.672 204.916C18.268 203.446 20.116 202.312 21.46 202.312ZM37.525 197.776C39.331 197.377 41.977 196.663 44.539 195.97L44.854 198.238C42.523 198.931 40.045 199.645 38.071 200.191L37.525 197.776ZM37.819 191.119H44.875V193.429H37.819V191.119ZM40.192 187.192H42.649V204.202C42.649 205.378 42.439 206.029 41.788 206.428C41.116 206.827 40.171 206.89 38.785 206.89C38.701 206.239 38.407 205.21 38.113 204.517C38.827 204.559 39.604 204.559 39.856 204.538C40.108 204.538 40.192 204.454 40.192 204.181V187.192ZM45.4 188.011H54.514V190.237H45.4V188.011ZM54.052 188.011H54.472L54.871 187.927L56.383 188.725C54.409 193.03 50.083 195.865 45.547 197.293C45.295 196.684 44.707 195.76 44.245 195.277C48.466 194.206 52.561 191.644 54.052 188.368V188.011ZM48.34 189.124C50.02 192.085 53.443 194.311 57.706 195.214C57.202 195.718 56.509 196.684 56.173 197.314C51.784 196.117 48.403 193.492 46.408 189.796L48.34 189.124ZM45.652 197.923H55.858V200.128H45.652V197.923ZM44.602 201.577H57.202V203.824H44.602V201.577ZM49.558 196.285H52.099V206.911H49.558V196.285ZM72.133 192.967H64.762C65.665 195.235 66.904 197.251 68.521 198.952C70.033 197.314 71.23 195.34 72.133 192.967ZM78.097 192.967H75.073C73.939 196.075 72.406 198.616 70.474 200.716C72.637 202.375 75.283 203.614 78.475 204.328C77.866 204.937 77.068 206.113 76.69 206.827C73.309 205.966 70.579 204.559 68.374 202.69C66.085 204.517 63.376 205.882 60.184 206.89C59.89 206.239 59.113 205.063 58.609 204.454C61.717 203.635 64.342 202.438 66.463 200.821C64.573 198.658 63.124 196.033 61.99 192.967H58.987V190.531H67.219V187.213H69.76V190.531H78.097V192.967ZM84.124 187.297L86.497 188.053C85.93 189.544 85.237 191.077 84.439 192.526V206.806H82.066V196.243C81.646 196.768 81.226 197.293 80.806 197.755C80.575 197.125 79.882 195.781 79.462 195.151C81.31 193.261 83.095 190.279 84.124 187.297ZM99.223 197.335V199.771H93.847V206.827H91.327V199.771H85.657V197.335H91.327V193.723H88.765C88.387 194.752 87.925 195.697 87.463 196.432C87.001 196.096 85.909 195.508 85.3 195.235C86.434 193.597 87.295 190.93 87.778 188.368L90.193 188.872C90.025 189.691 89.815 190.489 89.584 191.287H91.327V187.486H93.847V191.287H98.236V193.723H93.847V197.335H99.223Z" fill="#333333"/>
<rect y="224" width="624" height="1" fill="#ECEEF1"/>
<rect width="624" height="54" transform="translate(0 225)" fill="white"/>
<path d="M16.608 248.192H21.536V249.968H16.608V248.192ZM18.16 244.416H20V259.44H18.16V244.416ZM21.952 247.376H28.464V249.248H21.952V247.376ZM27.696 247.376H29.52C29.52 247.376 29.504 248.016 29.504 248.24C29.376 255.152 29.248 257.584 28.704 258.352C28.32 258.912 27.936 259.088 27.36 259.184C26.832 259.28 26.016 259.28 25.184 259.248C25.152 258.72 24.944 257.92 24.608 257.408C25.408 257.472 26.112 257.472 26.464 257.472C26.736 257.472 26.896 257.424 27.056 257.2C27.456 256.704 27.568 254.272 27.696 247.792V247.376ZM21.776 250.384L23.456 250.72C23.136 252.384 22.512 254.032 21.792 255.104C21.472 254.832 20.752 254.384 20.352 254.16C21.04 253.232 21.52 251.808 21.776 250.384ZM29.088 250.72L30.64 250.384C31.088 251.904 31.6 253.888 31.792 255.072L30.112 255.504C29.968 254.304 29.52 252.272 29.088 250.72ZM24.384 244.496H26.192V247.92C26.192 251.456 25.84 256.144 21.904 259.456C21.584 259.04 20.896 258.416 20.448 258.128C24.064 255.2 24.384 251.024 24.384 247.92V244.496ZM36.032 244.512L37.888 245.088C37.472 246.208 36.944 247.344 36.352 248.416V259.376H34.432V251.376C34.096 251.776 33.76 252.176 33.44 252.528C33.264 252.064 32.72 250.976 32.384 250.496C33.84 249.056 35.232 246.784 36.032 244.512ZM47.504 248.864H42.96V250.544H47.104V252.272H42.96V254.08H47.312V255.84H42.96V259.392H41.008V248.864H40.4C39.76 250.048 39.024 251.136 38.304 251.968C38 251.616 37.248 250.944 36.848 250.64C38.256 249.2 39.52 246.896 40.24 244.608L42.08 245.072C41.856 245.744 41.6 246.4 41.296 247.056H47.504V248.864ZM56.768 247.616H55.216C54.928 250.272 54.048 251.952 49.984 252.832C49.824 252.384 49.344 251.616 48.96 251.232C52.448 250.624 53.008 249.504 53.264 247.616H51.056V249.472H49.184V245.888H54.976V244.448H56.928V245.888H62.864V249.2H60.896V247.616H58.64V250.144C58.64 250.576 58.736 250.64 59.232 250.64H60.656C61.056 250.64 61.136 250.48 61.2 249.472C61.552 249.744 62.336 250.016 62.832 250.128C62.64 251.808 62.128 252.256 60.848 252.256H58.944C57.152 252.256 56.768 251.744 56.768 250.16V247.616ZM56.928 257.232H63.008V258.96H49.008V257.232H54.976V254.848H50.688V253.136H61.648V254.848H56.928V257.232ZM65.136 248.272H67.12V259.424H65.136V248.272ZM65.36 245.44L66.864 244.528C67.616 245.216 68.48 246.224 68.864 246.944L67.248 247.968C66.912 247.28 66.08 246.208 65.36 245.44ZM69.424 245.216H78.08V246.992H69.424V245.216ZM77.008 245.216H79.008V257.376C79.008 258.272 78.848 258.704 78.32 259.008C77.776 259.312 77.008 259.328 76 259.328C75.936 258.848 75.696 258.08 75.456 257.616C75.968 257.648 76.56 257.632 76.752 257.632C76.96 257.632 77.008 257.552 77.008 257.36V245.216ZM70.448 253.504V255.04H73.552V253.504H70.448ZM70.448 250.448V251.968H73.552V250.448H70.448ZM68.736 248.912H75.344V256.576H68.736V248.912Z" fill="#657077"/>
<path fill-rule="evenodd" clip-rule="evenodd" d="M95.5859 253L91.293 248.707L92.7072 247.293L97.7072 252.293C98.0977 252.683 98.0977 253.316 97.7072 253.707L92.7072 258.707L91.293 257.293L95.5859 253Z" fill="#657077"/>
<path d="M122.784 245.184V246.88H109.296V245.184H122.784ZM115.76 251.328H112.208C112.208 251.648 112.192 251.984 112.176 252.32H115.76V251.328ZM119.936 248.96H112.208V249.952H119.936V248.96ZM123.152 253.808H116.704C116.672 254.112 116.624 254.416 116.56 254.704H121.792C121.792 254.704 121.776 255.152 121.744 255.376C121.568 257.472 121.376 258.464 120.976 258.864C120.624 259.232 120.208 259.344 119.712 259.392C119.264 259.424 118.448 259.44 117.6 259.408C117.568 258.928 117.376 258.272 117.104 257.824C117.824 257.904 118.528 257.92 118.832 257.92C119.088 257.92 119.248 257.888 119.392 257.76C119.568 257.6 119.696 257.136 119.808 256.16H116.112C115.488 257.584 114.32 258.672 111.968 259.392C111.792 258.944 111.312 258.256 110.928 257.904C113.872 257.12 114.544 255.744 114.8 253.808H112.064C111.84 255.728 111.28 257.76 110.016 259.216C109.664 258.88 108.848 258.368 108.384 258.16C110.176 256.16 110.352 253.264 110.352 251.136V247.584H121.792V251.328H117.648V252.32H123.152V253.808ZM125.136 248.272H127.12V259.424H125.136V248.272ZM125.36 245.44L126.864 244.528C127.616 245.216 128.48 246.224 128.864 246.944L127.248 247.968C126.912 247.28 126.08 246.208 125.36 245.44ZM129.424 245.216H138.08V246.992H129.424V245.216ZM137.008 245.216H139.008V257.376C139.008 258.272 138.848 258.704 138.32 259.008C137.776 259.312 137.008 259.328 136 259.328C135.936 258.848 135.696 258.08 135.456 257.616C135.968 257.648 136.56 257.632 136.752 257.632C136.96 257.632 137.008 257.552 137.008 257.36V245.216ZM130.448 253.504V255.04H133.552V253.504H130.448ZM130.448 250.448V251.968H133.552V250.448H130.448ZM128.736 248.912H135.344V256.576H128.736V248.912Z" fill="#657077"/>
<path fill-rule="evenodd" clip-rule="evenodd" d="M155.586 253L151.293 248.707L152.707 247.293L157.707 252.293C158.098 252.683 158.098 253.316 157.707 253.707L152.707 258.707L151.293 257.293L155.586 253Z" fill="#657077"/>
<path d="M181.632 245.472V247.36H170.352V245.472H181.632ZM171.168 252.384L173.184 252.912C172.48 254.784 171.28 256.72 170.144 257.92C169.744 257.584 168.88 257.024 168.384 256.784C169.536 255.728 170.608 254.032 171.168 252.384ZM183.12 251.216H177.088V257.152C177.088 258.224 176.864 258.752 176.112 259.056C175.376 259.36 174.32 259.392 172.928 259.392C172.832 258.8 172.544 257.936 172.256 257.36C173.168 257.408 174.288 257.424 174.592 257.408C174.896 257.408 175.008 257.328 175.008 257.104V251.216H168.896V249.312H183.12V251.216ZM178.72 253.072L180.512 252.32C181.568 253.792 182.72 255.728 183.168 257.088L181.184 257.968C180.832 256.656 179.744 254.592 178.72 253.072ZM187.872 248.224V253.04C189.088 251.504 189.728 249.008 190.048 246.816H188.992V245.456C188.672 246.384 188.288 247.312 187.872 248.224ZM192.448 250.192H191.072C190.912 250.672 190.752 251.136 190.576 251.584C191.024 251.904 191.536 252.288 191.904 252.64C192.128 251.888 192.304 251.072 192.448 250.192ZM196.224 255.6H194.544V246.816H191.856C191.744 247.376 191.632 247.968 191.504 248.544H192.928L193.232 248.48L194.336 248.816C193.76 253.984 192.08 257.6 189.632 259.392C189.392 258.96 188.8 258.224 188.448 257.936C189.616 257.136 190.544 255.952 191.248 254.4C190.912 254 190.352 253.488 189.856 253.088C189.584 253.584 189.28 254.032 188.928 254.432C188.688 254.064 188.208 253.488 187.872 253.152V259.376H186.128V251.36C185.808 251.84 185.472 252.288 185.136 252.672C184.992 252.224 184.528 251.12 184.224 250.624C185.504 249.136 186.688 246.8 187.392 244.464L189.152 244.992L189.104 245.152H194.656V246.288H196.224V255.6ZM197.232 244.752H198.992V257.232C198.992 258.24 198.816 258.736 198.224 259.04C197.648 259.344 196.752 259.408 195.488 259.408C195.424 258.896 195.168 258.064 194.912 257.536C195.776 257.584 196.592 257.584 196.88 257.568C197.136 257.552 197.232 257.488 197.232 257.216V244.752ZM210.768 248.832H205.152C205.84 250.56 206.784 252.096 208.016 253.392C209.168 252.144 210.08 250.64 210.768 248.832ZM215.312 248.832H213.008C212.144 251.2 210.976 253.136 209.504 254.736C211.152 256 213.168 256.944 215.6 257.488C215.136 257.952 214.528 258.848 214.24 259.392C211.664 258.736 209.584 257.664 207.904 256.24C206.16 257.632 204.096 258.672 201.664 259.44C201.44 258.944 200.848 258.048 200.464 257.584C202.832 256.96 204.832 256.048 206.448 254.816C205.008 253.168 203.904 251.168 203.04 248.832H200.752V246.976H207.024V244.448H208.96V246.976H215.312V248.832ZM219.904 244.512L221.712 245.088C221.28 246.224 220.752 247.392 220.144 248.496V259.376H218.336V251.328C218.016 251.728 217.696 252.128 217.376 252.48C217.2 252 216.672 250.976 216.352 250.496C217.76 249.056 219.12 246.784 219.904 244.512ZM231.408 252.16V254.016H227.312V259.392H225.392V254.016H221.072V252.16H225.392V249.408H223.44C223.152 250.192 222.8 250.912 222.448 251.472C222.096 251.216 221.264 250.768 220.8 250.56C221.664 249.312 222.32 247.28 222.688 245.328L224.528 245.712C224.4 246.336 224.24 246.944 224.064 247.552H225.392V244.656H227.312V247.552H230.656V249.408H227.312V252.16H231.408Z" fill="#333333"/>
<rect width="624" height="44" transform="translate(0 279)" fill="white"/>
<g clip-path="url(#clip3_182_15054)">
<rect x="16" y="279" width="592" height="32" rx="3" fill="white"/>
<path d="M28.758 294.527L28.953 295.931C28.485 296.061 28.017 296.191 27.549 296.321V299.506C27.549 300.247 27.419 300.624 27.003 300.845C26.561 301.092 25.95 301.131 25.04 301.131C25.001 300.728 24.793 300.13 24.624 299.727C25.118 299.753 25.651 299.753 25.82 299.753C26.002 299.753 26.054 299.688 26.054 299.506V296.724L24.689 297.088L24.299 295.606C24.793 295.502 25.404 295.372 26.054 295.216V292.863H24.507V291.433H26.054V289.002H27.549V291.433H28.797V292.863H27.549V294.839L28.758 294.527ZM34.075 297.335H31.02C31.41 297.803 31.917 298.219 32.541 298.557C33.139 298.219 33.659 297.816 34.075 297.335ZM30.5 293.929H31.904V290.51C31.462 290.757 30.968 290.965 30.5 291.147V291.979H31.501V293.071H30.5V293.929ZM35.271 296.009L36.22 296.451C35.726 297.621 34.959 298.518 33.997 299.207C34.816 299.493 35.739 299.701 36.727 299.831C36.389 300.156 35.986 300.767 35.778 301.17C34.517 300.949 33.399 300.598 32.424 300.104C31.319 300.598 30.058 300.923 28.706 301.131C28.576 300.741 28.29 300.169 28.043 299.844C29.109 299.727 30.11 299.519 31.02 299.22C30.448 298.778 29.954 298.258 29.538 297.673L30.435 297.335H28.927V296.074H31.904V295.138H29.161V289.977L29.837 290.185C30.318 289.938 30.812 289.626 31.124 289.353L31.904 290.094V289.002H33.282V293.929H34.777V293.071H33.672V291.979H34.777V291.16H33.659V289.951H36.155V295.138H33.282V296.074H35.011L35.271 296.009ZM40.471 298.193L41.94 298.752C41.095 299.636 39.782 300.52 38.69 301.04C38.417 300.741 37.845 300.208 37.507 299.948C38.599 299.545 39.795 298.882 40.471 298.193ZM47.582 297.946L44.228 298.05V301.131H42.694V298.102C40.887 298.154 39.223 298.193 37.897 298.219L37.819 296.841C38.638 296.841 39.639 296.841 40.744 296.828C40.939 296.724 41.134 296.607 41.329 296.49C40.705 296.022 39.847 295.489 39.132 295.125L40.159 294.241C40.328 294.332 40.523 294.423 40.705 294.527C41.121 294.189 41.563 293.786 41.927 293.409H39.327V294.813H37.858V292.122H42.681V291.329H37.975V290.003H42.681V288.989H44.202V290.003H48.999V291.329H44.202V292.122H49.168V294.813H47.634V293.409H43.331L43.734 293.604C43.11 294.163 42.408 294.722 41.797 295.164C42.083 295.346 42.356 295.528 42.59 295.697C43.552 295.06 44.462 294.371 45.138 293.773L46.516 294.514C45.489 295.294 44.254 296.113 43.071 296.815C44.059 296.802 45.086 296.789 46.126 296.776C45.814 296.542 45.502 296.334 45.203 296.139L46.217 295.359C47.231 295.996 48.609 296.958 49.298 297.647L48.206 298.531C48.037 298.362 47.829 298.154 47.582 297.946ZM44.982 298.934L46.152 298.154C47.166 298.687 48.583 299.532 49.324 300.13L48.05 301.001C47.413 300.416 46.035 299.519 44.982 298.934Z" fill="#A3A9AE"/>
<path fill-rule="evenodd" clip-rule="evenodd" d="M591 290C588.791 290 587 291.791 587 294C587 296.209 588.791 298 591 298C592.119 298 593.129 297.542 593.857 296.8C594.565 296.077 595 295.091 595 294C595 291.791 593.209 290 591 290ZM585 294C585 290.686 587.686 288 591 288C594.314 288 597 290.686 597 294C597 295.28 596.599 296.467 595.916 297.441L599.713 301.299L598.287 302.701L594.512 298.865C593.525 299.579 592.311 300 591 300C587.686 300 585 297.314 585 294Z" fill="#D0D5DA"/>
</g>
<rect x="16.5" y="279.5" width="591" height="31" rx="2.5" stroke="#D0D5DA"/>
<rect width="624" height="378" transform="translate(0 323)" fill="white"/>
<rect width="624" height="48" transform="translate(0 323)" fill="white"/>
<g clip-path="url(#clip4_182_15054)">
<g clip-path="url(#clip5_182_15054)">
<path d="M21 333H35L43 341V361H21V333Z" fill="white"/>
<path fill-rule="evenodd" clip-rule="evenodd" d="M21 361H43V341L35 333H21V361ZM35 332H20V362H44V341L35 332Z" fill="url(#paint2_linear_182_15054)"/>
<path fill-rule="evenodd" clip-rule="evenodd" d="M23 351C23 350.448 23.4477 350 24 350H40C40.5523 350 41 350.448 41 351V358C41 358.552 40.5523 359 40 359H24C23.4477 359 23 358.552 23 358V351ZM31 356V357H29V352H30V356H31ZM26 352L26.5 353.528L27 352H28L27.0831 354.5L28 357H27L26.5 355.472L26 357H25L25.9169 354.5L25 352H26ZM37.5 353.528L37 352H36L36.9169 354.5L36 357H37L37.5 355.472L38 357H39L38.0831 354.5L39 352H38L37.5 353.528ZM32.6582 355.555C32.6582 355.555 33.2754 356 33.5918 356C33.9355 356 34.1094 355.773 34.1094 355.555C34.1094 355.353 33.788 355.161 33.3961 354.927C32.784 354.56 32 354.091 32 353.324C32 352.534 32.7407 352 33.5312 352C34.4375 352 34.9219 352.625 34.9219 352.625L34.2812 353.367C34.2812 353.367 34.0645 353 33.6172 353C33.3105 353 33.0195 353.078 33.0195 353.344C33.0195 353.524 33.3234 353.715 33.6975 353.95C34.2961 354.326 35.0746 354.816 35.0746 355.555C35.0746 356.42 34.416 357.004 33.5357 357.004C32.8301 357.004 32.0684 356.324 32.0684 356.324L32.6582 355.555Z" fill="#6AAA1E"/>
<path fill-rule="evenodd" clip-rule="evenodd" d="M23 335H35V336H30V338H35V339H30V341H41V348H23V335ZM29 341V339H24V341H29ZM24 342H29V344H24V342ZM24 345V347H29V345H24ZM30 345V347H35V345H30ZM36 345V347H40V345H36ZM40 344H36V342H40V344ZM35 342V344H30V342H35ZM24 338H29V336H24V338Z" fill="#BFBFBF"/>
<path opacity="0.3" d="M34 342V333H35V341H43V342H34Z" fill="black"/>
</g>
</g>
<path d="M56.504 341.626H61.18V343.208H56.504V341.626ZM58.114 342.298H59.78V349.312H58.114V342.298ZM56.266 349.074C57.456 348.794 59.36 348.29 61.236 347.786L61.432 349.2C59.78 349.788 58.03 350.39 56.672 350.852L56.266 349.074ZM61.362 340.646H69.468V342.144H61.362V340.646ZM64.344 341.332L66.36 341.598C65.954 342.494 65.464 343.376 65.114 343.964L63.602 343.656C63.896 342.97 64.19 342.032 64.344 341.332ZM64.4 345.238H66.08V348.122C66.08 350.068 65.184 352.084 61.236 353.288C61.04 352.938 60.536 352.336 60.172 352C63.924 351.076 64.4 349.48 64.4 348.108V345.238ZM65.59 350.992L66.64 349.984C67.62 350.572 68.992 351.454 69.65 352.07L68.53 353.204C67.914 352.574 66.598 351.636 65.59 350.992ZM61.74 343.236H68.768V349.802H67.06V344.72H63.378V349.858H61.74V343.236ZM73.682 350.572H80.164V348.92H73.682V350.572ZM80.164 345.7H73.682V347.352H80.164V345.7ZM80.164 342.522H73.682V344.132H80.164V342.522ZM72.002 340.898H81.928V353.064H80.164V352.196H73.682V353.064H72.002V340.898ZM84.994 341.598L85.834 340.464C86.772 340.814 88.06 341.416 88.704 341.892L87.822 343.152C87.22 342.662 85.96 341.99 84.994 341.598ZM84.602 344.79C85.652 344.496 87.206 343.992 88.718 343.488L89.012 344.93C87.682 345.42 86.254 345.91 85.092 346.316L84.602 344.79ZM90.482 340.226L92.064 340.45C91.588 341.836 90.86 343.152 89.572 344.216C89.32 343.852 88.774 343.348 88.41 343.152C89.516 342.34 90.16 341.22 90.482 340.226ZM91.07 341.318H95.816V342.55H90.202L91.07 341.318ZM95.466 341.318H95.718L95.984 341.248L97.23 341.542C96.936 342.382 96.558 343.32 96.236 343.936L94.766 343.558C95.004 343.04 95.298 342.2 95.466 341.514V341.318ZM86.282 346.764H95.9V350.474H94.15V348.29H87.934V350.628H86.282V346.764ZM90.216 348.654H91.854C91.364 351.104 90.132 352.588 85.204 353.288C85.092 352.896 84.742 352.224 84.462 351.888C88.914 351.398 89.796 350.39 90.216 348.654ZM91.084 351.328L92.05 350.138C93.646 350.558 96.012 351.328 97.258 351.874L96.208 353.218C95.074 352.658 92.75 351.818 91.084 351.328ZM92.302 341.92H93.954C93.548 344.02 92.652 345.756 89.516 346.764C89.362 346.386 88.956 345.826 88.634 345.546C91.378 344.776 91.98 343.418 92.302 341.92ZM93.562 342.732C94.234 343.992 95.62 344.93 97.426 345.294C97.09 345.602 96.656 346.204 96.446 346.624C94.5 346.036 93.114 344.762 92.344 343.026L93.562 342.732ZM108.066 342.592L107.212 343.838C106.778 343.292 105.812 342.536 105.042 342.018L105.84 340.898C106.624 341.36 107.618 342.074 108.066 342.592ZM104.398 345.532L105.182 344.342C105.994 344.776 107.03 345.448 107.534 345.952L106.694 347.282C106.232 346.764 105.21 346.022 104.398 345.532ZM103.138 340.912L104.538 341.22C104.174 342.34 103.768 343.67 103.418 344.482L102.368 344.188C102.648 343.306 102.984 341.892 103.138 340.912ZM100.422 344.188L99.176 344.524C99.148 343.656 98.868 342.298 98.546 341.29L99.708 340.982C100.072 341.99 100.352 343.32 100.422 344.188ZM104.244 348.794L103.222 350.082C103.012 349.634 102.62 348.906 102.214 348.262V353.176H100.674V348.234C100.226 349.536 99.666 350.838 99.064 351.678C98.924 351.174 98.56 350.418 98.308 349.956C99.008 349.102 99.722 347.604 100.156 346.33H98.56V344.776H100.674V340.198H102.214V344.776H104.286V346.33H102.214V346.428C102.62 346.834 103.95 348.402 104.244 348.794ZM111.65 349.116L109.97 349.424V353.204H108.402V349.704L104.496 350.404L104.244 348.85L108.402 348.108V340.128H109.97V347.828L111.398 347.562L111.65 349.116Z" fill="#333333"/>
<rect width="624" height="48" transform="translate(0 371)" fill="white"/>
<g clip-path="url(#clip6_182_15054)">
<g clip-path="url(#clip7_182_15054)">
<path d="M21 381H35L43 389V409H21V381Z" fill="white"/>
<path fill-rule="evenodd" clip-rule="evenodd" d="M21 409H43V389L35 381H21V409ZM35 380H20V410H44V389L35 380Z" fill="url(#paint3_linear_182_15054)"/>
<path d="M31.0117 404.167V400.848C32.1958 400.848 33 401.1 33 402.511C33 403.955 32.3574 404.167 31.0117 404.167Z" fill="#9E1919"/>
<path d="M26.0117 400.848V402.27H26.5654C26.9642 402.27 27.2308 402.243 27.3652 402.191C27.4997 402.139 27.6045 402.056 27.6797 401.945C27.7572 401.833 27.7959 401.703 27.7959 401.555C27.7959 401.373 27.7423 401.222 27.6353 401.104C27.5282 400.986 27.3926 400.911 27.2285 400.882C27.1077 400.859 26.8651 400.848 26.5005 400.848H26.0117Z" fill="#9E1919"/>
<path fill-rule="evenodd" clip-rule="evenodd" d="M24 398C23.4477 398 23 398.448 23 399V406C23 406.552 23.4477 407 24 407H40C40.5523 407 41 406.552 41 406V399C41 398.448 40.5523 398 40 398H24ZM30.1155 400.001C30.077 400.001 30.0385 400.001 30 400.001V405.011C31.9616 405.011 34 404.978 34 402.511C34 399.992 32.112 399.996 30.2323 400C30.1934 400 30.1544 400.001 30.1155 400.001ZM25 405.011V400H26.6235C27.2388 400 27.6398 400.025 27.8267 400.075C28.1138 400.15 28.3542 400.314 28.5479 400.567C28.7415 400.818 28.8384 401.143 28.8384 401.542C28.8384 401.849 28.7826 402.108 28.6709 402.317C28.5592 402.527 28.4168 402.692 28.2437 402.813C28.0728 402.931 27.8984 403.01 27.7207 403.049C27.4792 403.097 27.1294 403.121 26.6714 403.121H26.0117V405.011H25ZM36 400V405.011H37.0117V403.011H38.978V402.011H36.978V401.011H38.978V400.011L36 400Z" fill="#9E1919"/>
<path d="M30 393V385H23V393H30Z" fill="#BFBFBF"/>
<path d="M31 387V385H35V387H31Z" fill="#BFBFBF"/>
<path d="M31 390V388H35V389H41V390H31Z" fill="#BFBFBF"/>
<path d="M31 393V391H41V393H31Z" fill="#BFBFBF"/>
<path d="M23 396V394H41V396H23Z" fill="#BFBFBF"/>
<path opacity="0.3" d="M34 390V381H35V389H43V390H34Z" fill="black"/>
</g>
</g>
<path d="M58.282 388.142L59.71 388.576C59.122 390.2 58.128 391.866 57.022 392.916C56.91 392.566 56.518 391.712 56.266 391.348C57.12 390.564 57.862 389.374 58.282 388.142ZM58.212 389.626H61.768V391.222H57.904L58.212 389.626ZM58.52 401.204L58.268 399.762L58.744 399.244L61.516 397.914C61.544 398.362 61.67 399.034 61.768 399.37C59.262 400.672 58.786 400.938 58.52 401.204ZM57.456 392.09H61.53V393.588H57.456V392.09ZM56.756 394.96H61.81V396.458H56.756V394.96ZM58.52 401.204C58.408 400.826 58.058 400.14 57.806 399.818C58.1 399.636 58.52 399.23 58.52 398.6V392.468H60.046V399.776C60.046 399.776 58.52 400.658 58.52 401.204ZM63.21 394.624H68.264V396.038H63.21V394.624ZM63.21 397.088H68.306V398.488H63.21V397.088ZM62.202 392.034H68.208V393.602H63.7V401.246H62.202V392.034ZM67.55 392.02H69.048V399.468C69.048 400.196 68.922 400.644 68.432 400.896C67.956 401.162 67.256 401.176 66.262 401.176C66.206 400.756 66.01 400.056 65.786 399.65C66.43 399.678 67.088 399.678 67.298 399.664C67.48 399.664 67.55 399.608 67.55 399.426V392.02ZM64.89 388.086H66.43V393.126H64.89V388.086ZM61.95 389.178L63.252 388.548C63.77 389.318 64.302 390.34 64.498 391.04L63.098 391.74C62.944 391.054 62.454 389.99 61.95 389.178ZM68.026 388.436L69.496 389.024C69.062 389.99 68.558 390.998 68.152 391.67L66.85 391.11C67.242 390.41 67.746 389.276 68.026 388.436ZM80.164 398.012H74.032V399.44H80.164V398.012ZM72.38 401.218V396.696H81.9V401.218H80.164V400.742H74.032V401.218H72.38ZM73.934 394.162V394.89H76.426V394.162H73.934ZM76.426 391.362V390.746H73.934V391.362H76.426ZM76.426 393.098V392.44H73.934V393.098H76.426ZM78.05 394.89H83.034V396.108H72.338V392.748C72.058 393.07 71.764 393.364 71.484 393.63C71.246 393.294 70.672 392.58 70.336 392.272C71.554 391.264 72.744 389.668 73.458 388.086L75.026 388.59C74.872 388.912 74.718 389.248 74.536 389.57H76.692C76.902 389.094 77.112 388.562 77.238 388.142L78.974 388.534C78.792 388.884 78.61 389.248 78.428 389.57H82.502V390.746H78.05V391.362H81.774V392.44H78.05V393.098H81.788V394.162H78.05V394.89ZM84.532 391.418H88.844V392.972H84.532V391.418ZM85.89 388.114H87.5V401.26H85.89V388.114ZM89.208 390.704H94.906V392.342H89.208V390.704ZM94.234 390.704H95.83C95.83 390.704 95.816 391.264 95.816 391.46C95.704 397.508 95.592 399.636 95.116 400.308C94.78 400.798 94.444 400.952 93.94 401.036C93.478 401.12 92.764 401.12 92.036 401.092C92.008 400.63 91.826 399.93 91.532 399.482C92.232 399.538 92.848 399.538 93.156 399.538C93.394 399.538 93.534 399.496 93.674 399.3C94.024 398.866 94.122 396.738 94.234 391.068V390.704ZM89.054 393.336L90.524 393.63C90.244 395.086 89.698 396.528 89.068 397.466C88.788 397.228 88.158 396.836 87.808 396.64C88.41 395.828 88.83 394.582 89.054 393.336ZM95.452 393.63L96.81 393.336C97.202 394.666 97.65 396.402 97.818 397.438L96.348 397.816C96.222 396.766 95.83 394.988 95.452 393.63ZM91.336 388.184H92.918V391.18C92.918 394.274 92.61 398.376 89.166 401.274C88.886 400.91 88.284 400.364 87.892 400.112C91.056 397.55 91.336 393.896 91.336 391.18V388.184ZM104.552 389.178C105.406 394.344 107.352 398.25 111.804 399.86C111.412 400.196 110.88 400.882 110.628 401.33C105.91 399.398 104.02 395.282 102.984 389.444L104.552 389.178ZM105.364 388.772L106.792 388.198C107.324 389.178 107.87 390.452 108.038 391.292L106.498 391.936C106.358 391.11 105.868 389.78 105.364 388.772ZM109.242 389.08L110.964 389.332C110.068 394.554 108.416 399.09 103.348 401.428C103.124 401.022 102.676 400.378 102.368 400.028C107.058 398.026 108.556 393.812 109.242 389.08ZM99.246 389.22L100.464 388.352C101.066 389.052 101.822 390.004 102.158 390.634L100.856 391.628C100.548 390.97 99.834 389.962 99.246 389.22ZM100.394 401.008L100.044 399.482L100.408 398.95L103.292 396.906C103.404 397.368 103.642 398.026 103.81 398.348C101.122 400.308 100.66 400.686 100.394 401.008ZM98.532 392.412H101.612V394.022H98.532V392.412ZM100.394 401.008C100.226 400.672 99.75 400.098 99.484 399.86C99.792 399.58 100.212 399.006 100.212 398.208V392.412H101.836V399.076C101.836 399.076 100.394 400.392 100.394 401.008Z" fill="#333333"/>
</g>
<rect x="-1.5" y="-1.5" width="44" height="607" rx="2.5" transform="matrix(-4.37114e-08 -1 -1 4.37114e-08 614 315)" stroke="#4781D1" stroke-width="3" stroke-linejoin="round"/>
<path d="M313.5 98C313.5 97.1716 312.828 96.5 312 96.5C311.172 96.5 310.5 97.1716 310.5 98L313.5 98ZM310.939 158.061C311.525 158.646 312.475 158.646 313.061 158.061L322.607 148.515C323.192 147.929 323.192 146.979 322.607 146.393C322.021 145.808 321.071 145.808 320.485 146.393L312 154.879L303.515 146.393C302.929 145.808 301.979 145.808 301.393 146.393C300.808 146.979 300.808 147.929 301.393 148.515L310.939 158.061ZM310.5 98L310.5 157L313.5 157L313.5 98L310.5 98Z" fill="#4781D1"/>
</g>
<defs>
<filter id="filter0_d_182_15054" x="-10" y="157" width="644" height="550" filterUnits="userSpaceOnUse" color-interpolation-filters="sRGB">
<feFlood flood-opacity="0" result="BackgroundImageFix"/>
<feColorMatrix in="SourceAlpha" type="matrix" values="0 0 0 0 0 0 0 0 0 0 0 0 0 0 0 0 0 0 127 0" result="hardAlpha"/>
<feOffset dy="-4"/>
<feGaussianBlur stdDeviation="5"/>
<feComposite in2="hardAlpha" operator="out"/>
<feColorMatrix type="matrix" values="0 0 0 0 0 0 0 0 0 0 0 0 0 0 0 0 0 0 0.15 0"/>
<feBlend mode="normal" in2="BackgroundImageFix" result="effect1_dropShadow_182_15054"/>
<feBlend mode="normal" in="SourceGraphic" in2="effect1_dropShadow_182_15054" result="shape"/>
</filter>
<linearGradient id="paint0_linear_182_15054" x1="32" y1="146" x2="32" y2="117" gradientUnits="userSpaceOnUse">
<stop stop-color="#A8A8A8"/>
<stop offset="1" stop-color="#DADADA"/>
</linearGradient>
<linearGradient id="paint1_linear_182_15054" x1="596.188" y1="94.8649" x2="840.638" y2="94.8649" gradientUnits="userSpaceOnUse">
<stop stop-color="white" stop-opacity="0.2"/>
<stop offset="1" stop-color="#E0E0E0" stop-opacity="0.89"/>
</linearGradient>
<linearGradient id="paint2_linear_182_15054" x1="32" y1="361" x2="32" y2="332" gradientUnits="userSpaceOnUse">
<stop stop-color="#A8A8A8"/>
<stop offset="1" stop-color="#DADADA"/>
</linearGradient>
<linearGradient id="paint3_linear_182_15054" x1="32" y1="409" x2="32" y2="380" gradientUnits="userSpaceOnUse">
<stop stop-color="#A8A8A8"/>
<stop offset="1" stop-color="#DADADA"/>
</linearGradient>
<clipPath id="clip0_182_15054">
<rect width="624" height="444" fill="white"/>
</clipPath>
<clipPath id="clip1_182_15054">
<rect width="32" height="32" fill="white" transform="translate(16 116)"/>
</clipPath>
<clipPath id="clip2_182_15054">
<rect width="32" height="32" fill="white" transform="translate(16 116)"/>
</clipPath>
<clipPath id="clip3_182_15054">
<rect x="16" y="279" width="592" height="32" rx="3" fill="white"/>
</clipPath>
<clipPath id="clip4_182_15054">
<rect width="32" height="32" fill="white" transform="translate(16 331)"/>
</clipPath>
<clipPath id="clip5_182_15054">
<rect width="32" height="32" fill="white" transform="translate(16 331)"/>
</clipPath>
<clipPath id="clip6_182_15054">
<rect width="32" height="32" fill="white" transform="translate(16 379)"/>
</clipPath>
<clipPath id="clip7_182_15054">
<rect width="32" height="32" fill="white" transform="translate(16 379)"/>
</clipPath>
</defs>
</svg>
