<svg width="624" height="444" viewBox="0 0 624 444" fill="none" xmlns="http://www.w3.org/2000/svg">
<g clip-path="url(#clip0_182_15973)">
<rect width="624" height="444" fill="white"/>
<rect width="624" height="530" fill="white"/>
<rect width="624" height="530" fill="#333333"/>
<rect width="624" height="54" fill="#333333"/>
<rect width="592" height="53" transform="translate(16)" fill="#333333"/>
<path d="M22.636 23.374H36.139V25.537H22.636V23.374ZM25.156 18.796H35.257V20.917H25.156V18.796ZM28.39 16.276H30.889V24.193H28.39V16.276ZM24.841 16.822L27.235 17.326C26.626 19.489 25.534 21.631 24.4 22.975C23.917 22.597 22.909 21.925 22.321 21.631C23.476 20.476 24.358 18.649 24.841 16.822ZM30.007 24.655H32.485V29.233C32.485 29.821 32.527 29.884 32.884 29.884C33.01 29.884 33.577 29.884 33.745 29.884C34.102 29.884 34.186 29.632 34.249 27.7C34.711 28.12 35.761 28.498 36.433 28.666C36.202 31.48 35.572 32.215 34.018 32.215C33.619 32.215 32.821 32.215 32.443 32.215C30.427 32.215 30.007 31.459 30.007 29.254V24.655ZM26.227 24.571H28.747C28.432 27.994 27.613 30.745 23.728 32.362C23.455 31.711 22.762 30.766 22.216 30.283C25.471 29.107 25.975 27.091 26.227 24.571ZM16.903 18.187L18.835 16.78C20.011 17.725 21.46 19.111 22.132 20.098L20.053 21.694C19.465 20.665 18.079 19.216 16.903 18.187ZM21.691 24.277V32.257H19.276V26.608H16.945V24.277H21.691ZM21.46 31.312C22.111 31.312 22.636 31.858 23.707 32.488C25.03 33.307 26.836 33.412 29.02 33.412C31.12 33.412 34.375 33.244 36.412 32.95C36.139 33.622 35.74 34.861 35.719 35.533C34.165 35.638 31.015 35.764 28.957 35.764C26.458 35.764 24.799 35.491 23.392 34.693C22.531 34.168 21.859 33.559 21.397 33.559C20.62 33.559 19.465 34.798 18.331 36.1L16.672 33.916C18.268 32.446 20.116 31.312 21.46 31.312ZM37.525 26.776C39.331 26.377 41.977 25.663 44.539 24.97L44.854 27.238C42.523 27.931 40.045 28.645 38.071 29.191L37.525 26.776ZM37.819 20.119H44.875V22.429H37.819V20.119ZM40.192 16.192H42.649V33.202C42.649 34.378 42.439 35.029 41.788 35.428C41.116 35.827 40.171 35.89 38.785 35.89C38.701 35.239 38.407 34.21 38.113 33.517C38.827 33.559 39.604 33.559 39.856 33.538C40.108 33.538 40.192 33.454 40.192 33.181V16.192ZM45.4 17.011H54.514V19.237H45.4V17.011ZM54.052 17.011H54.472L54.871 16.927L56.383 17.725C54.409 22.03 50.083 24.865 45.547 26.293C45.295 25.684 44.707 24.76 44.245 24.277C48.466 23.206 52.561 20.644 54.052 17.368V17.011ZM48.34 18.124C50.02 21.085 53.443 23.311 57.706 24.214C57.202 24.718 56.509 25.684 56.173 26.314C51.784 25.117 48.403 22.492 46.408 18.796L48.34 18.124ZM45.652 26.923H55.858V29.128H45.652V26.923ZM44.602 30.577H57.202V32.824H44.602V30.577ZM49.558 25.285H52.099V35.911H49.558V25.285ZM72.133 21.967H64.762C65.665 24.235 66.904 26.251 68.521 27.952C70.033 26.314 71.23 24.34 72.133 21.967ZM78.097 21.967H75.073C73.939 25.075 72.406 27.616 70.474 29.716C72.637 31.375 75.283 32.614 78.475 33.328C77.866 33.937 77.068 35.113 76.69 35.827C73.309 34.966 70.579 33.559 68.374 31.69C66.085 33.517 63.376 34.882 60.184 35.89C59.89 35.239 59.113 34.063 58.609 33.454C61.717 32.635 64.342 31.438 66.463 29.821C64.573 27.658 63.124 25.033 61.99 21.967H58.987V19.531H67.219V16.213H69.76V19.531H78.097V21.967ZM84.124 16.297L86.497 17.053C85.93 18.544 85.237 20.077 84.439 21.526V35.806H82.066V25.243C81.646 25.768 81.226 26.293 80.806 26.755C80.575 26.125 79.882 24.781 79.462 24.151C81.31 22.261 83.095 19.279 84.124 16.297ZM99.223 26.335V28.771H93.847V35.827H91.327V28.771H85.657V26.335H91.327V22.723H88.765C88.387 23.752 87.925 24.697 87.463 25.432C87.001 25.096 85.909 24.508 85.3 24.235C86.434 22.597 87.295 19.93 87.778 17.368L90.193 17.872C90.025 18.691 89.815 19.489 89.584 20.287H91.327V16.486H93.847V20.287H98.236V22.723H93.847V26.335H99.223Z" fill="white"/>
<rect y="53" width="624" height="1" fill="#474747"/>
<rect width="624" height="46" transform="translate(0 54)" fill="#333333"/>
<path d="M16.608 73.192H21.536V74.968H16.608V73.192ZM18.16 69.416H20V84.44H18.16V69.416ZM21.952 72.376H28.464V74.248H21.952V72.376ZM27.696 72.376H29.52C29.52 72.376 29.504 73.016 29.504 73.24C29.376 80.152 29.248 82.584 28.704 83.352C28.32 83.912 27.936 84.088 27.36 84.184C26.832 84.28 26.016 84.28 25.184 84.248C25.152 83.72 24.944 82.92 24.608 82.408C25.408 82.472 26.112 82.472 26.464 82.472C26.736 82.472 26.896 82.424 27.056 82.2C27.456 81.704 27.568 79.272 27.696 72.792V72.376ZM21.776 75.384L23.456 75.72C23.136 77.384 22.512 79.032 21.792 80.104C21.472 79.832 20.752 79.384 20.352 79.16C21.04 78.232 21.52 76.808 21.776 75.384ZM29.088 75.72L30.64 75.384C31.088 76.904 31.6 78.888 31.792 80.072L30.112 80.504C29.968 79.304 29.52 77.272 29.088 75.72ZM24.384 69.496H26.192V72.92C26.192 76.456 25.84 81.144 21.904 84.456C21.584 84.04 20.896 83.416 20.448 83.128C24.064 80.2 24.384 76.024 24.384 72.92V69.496ZM36.032 69.512L37.888 70.088C37.472 71.208 36.944 72.344 36.352 73.416V84.376H34.432V76.376C34.096 76.776 33.76 77.176 33.44 77.528C33.264 77.064 32.72 75.976 32.384 75.496C33.84 74.056 35.232 71.784 36.032 69.512ZM47.504 73.864H42.96V75.544H47.104V77.272H42.96V79.08H47.312V80.84H42.96V84.392H41.008V73.864H40.4C39.76 75.048 39.024 76.136 38.304 76.968C38 76.616 37.248 75.944 36.848 75.64C38.256 74.2 39.52 71.896 40.24 69.608L42.08 70.072C41.856 70.744 41.6 71.4 41.296 72.056H47.504V73.864ZM56.768 72.616H55.216C54.928 75.272 54.048 76.952 49.984 77.832C49.824 77.384 49.344 76.616 48.96 76.232C52.448 75.624 53.008 74.504 53.264 72.616H51.056V74.472H49.184V70.888H54.976V69.448H56.928V70.888H62.864V74.2H60.896V72.616H58.64V75.144C58.64 75.576 58.736 75.64 59.232 75.64H60.656C61.056 75.64 61.136 75.48 61.2 74.472C61.552 74.744 62.336 75.016 62.832 75.128C62.64 76.808 62.128 77.256 60.848 77.256H58.944C57.152 77.256 56.768 76.744 56.768 75.16V72.616ZM56.928 82.232H63.008V83.96H49.008V82.232H54.976V79.848H50.688V78.136H61.648V79.848H56.928V82.232ZM65.136 73.272H67.12V84.424H65.136V73.272ZM65.36 70.44L66.864 69.528C67.616 70.216 68.48 71.224 68.864 71.944L67.248 72.968C66.912 72.28 66.08 71.208 65.36 70.44ZM69.424 70.216H78.08V71.992H69.424V70.216ZM77.008 70.216H79.008V82.376C79.008 83.272 78.848 83.704 78.32 84.008C77.776 84.312 77.008 84.328 76 84.328C75.936 83.848 75.696 83.08 75.456 82.616C75.968 82.648 76.56 82.632 76.752 82.632C76.96 82.632 77.008 82.552 77.008 82.36V70.216ZM70.448 78.504V80.04H73.552V78.504H70.448ZM70.448 75.448V76.968H73.552V75.448H70.448ZM68.736 73.912H75.344V81.576H68.736V73.912Z" fill="#ADADAD"/>
<path fill-rule="evenodd" clip-rule="evenodd" d="M95.5859 77.9998L91.293 73.7069L92.7072 72.2927L97.7072 77.2927C98.0977 77.6832 98.0977 78.3164 97.7072 78.7069L92.7072 83.7069L91.293 82.2927L95.5859 77.9998Z" fill="#ADADAD"/>
<path d="M122.784 70.184V71.88H109.296V70.184H122.784ZM115.76 76.328H112.208C112.208 76.648 112.192 76.984 112.176 77.32H115.76V76.328ZM119.936 73.96H112.208V74.952H119.936V73.96ZM123.152 78.808H116.704C116.672 79.112 116.624 79.416 116.56 79.704H121.792C121.792 79.704 121.776 80.152 121.744 80.376C121.568 82.472 121.376 83.464 120.976 83.864C120.624 84.232 120.208 84.344 119.712 84.392C119.264 84.424 118.448 84.44 117.6 84.408C117.568 83.928 117.376 83.272 117.104 82.824C117.824 82.904 118.528 82.92 118.832 82.92C119.088 82.92 119.248 82.888 119.392 82.76C119.568 82.6 119.696 82.136 119.808 81.16H116.112C115.488 82.584 114.32 83.672 111.968 84.392C111.792 83.944 111.312 83.256 110.928 82.904C113.872 82.12 114.544 80.744 114.8 78.808H112.064C111.84 80.728 111.28 82.76 110.016 84.216C109.664 83.88 108.848 83.368 108.384 83.16C110.176 81.16 110.352 78.264 110.352 76.136V72.584H121.792V76.328H117.648V77.32H123.152V78.808ZM125.136 73.272H127.12V84.424H125.136V73.272ZM125.36 70.44L126.864 69.528C127.616 70.216 128.48 71.224 128.864 71.944L127.248 72.968C126.912 72.28 126.08 71.208 125.36 70.44ZM129.424 70.216H138.08V71.992H129.424V70.216ZM137.008 70.216H139.008V82.376C139.008 83.272 138.848 83.704 138.32 84.008C137.776 84.312 137.008 84.328 136 84.328C135.936 83.848 135.696 83.08 135.456 82.616C135.968 82.648 136.56 82.632 136.752 82.632C136.96 82.632 137.008 82.552 137.008 82.36V70.216ZM130.448 78.504V80.04H133.552V78.504H130.448ZM130.448 75.448V76.968H133.552V75.448H130.448ZM128.736 73.912H135.344V81.576H128.736V73.912Z" fill="white"/>
<rect width="624" height="56" transform="translate(0 100)" fill="#333333"/>
<g clip-path="url(#clip1_182_15973)">
<rect x="16" y="112" width="592" height="32" rx="3" fill="#282828"/>
<path d="M28.758 127.527L28.953 128.931C28.485 129.061 28.017 129.191 27.549 129.321V132.506C27.549 133.247 27.419 133.624 27.003 133.845C26.561 134.092 25.95 134.131 25.04 134.131C25.001 133.728 24.793 133.13 24.624 132.727C25.118 132.753 25.651 132.753 25.82 132.753C26.002 132.753 26.054 132.688 26.054 132.506V129.724L24.689 130.088L24.299 128.606C24.793 128.502 25.404 128.372 26.054 128.216V125.863H24.507V124.433H26.054V122.002H27.549V124.433H28.797V125.863H27.549V127.839L28.758 127.527ZM34.075 130.335H31.02C31.41 130.803 31.917 131.219 32.541 131.557C33.139 131.219 33.659 130.816 34.075 130.335ZM30.5 126.929H31.904V123.51C31.462 123.757 30.968 123.965 30.5 124.147V124.979H31.501V126.071H30.5V126.929ZM35.271 129.009L36.22 129.451C35.726 130.621 34.959 131.518 33.997 132.207C34.816 132.493 35.739 132.701 36.727 132.831C36.389 133.156 35.986 133.767 35.778 134.17C34.517 133.949 33.399 133.598 32.424 133.104C31.319 133.598 30.058 133.923 28.706 134.131C28.576 133.741 28.29 133.169 28.043 132.844C29.109 132.727 30.11 132.519 31.02 132.22C30.448 131.778 29.954 131.258 29.538 130.673L30.435 130.335H28.927V129.074H31.904V128.138H29.161V122.977L29.837 123.185C30.318 122.938 30.812 122.626 31.124 122.353L31.904 123.094V122.002H33.282V126.929H34.777V126.071H33.672V124.979H34.777V124.16H33.659V122.951H36.155V128.138H33.282V129.074H35.011L35.271 129.009ZM40.471 131.193L41.94 131.752C41.095 132.636 39.782 133.52 38.69 134.04C38.417 133.741 37.845 133.208 37.507 132.948C38.599 132.545 39.795 131.882 40.471 131.193ZM47.582 130.946L44.228 131.05V134.131H42.694V131.102C40.887 131.154 39.223 131.193 37.897 131.219L37.819 129.841C38.638 129.841 39.639 129.841 40.744 129.828C40.939 129.724 41.134 129.607 41.329 129.49C40.705 129.022 39.847 128.489 39.132 128.125L40.159 127.241C40.328 127.332 40.523 127.423 40.705 127.527C41.121 127.189 41.563 126.786 41.927 126.409H39.327V127.813H37.858V125.122H42.681V124.329H37.975V123.003H42.681V121.989H44.202V123.003H48.999V124.329H44.202V125.122H49.168V127.813H47.634V126.409H43.331L43.734 126.604C43.11 127.163 42.408 127.722 41.797 128.164C42.083 128.346 42.356 128.528 42.59 128.697C43.552 128.06 44.462 127.371 45.138 126.773L46.516 127.514C45.489 128.294 44.254 129.113 43.071 129.815C44.059 129.802 45.086 129.789 46.126 129.776C45.814 129.542 45.502 129.334 45.203 129.139L46.217 128.359C47.231 128.996 48.609 129.958 49.298 130.647L48.206 131.531C48.037 131.362 47.829 131.154 47.582 130.946ZM44.982 131.934L46.152 131.154C47.166 131.687 48.583 132.532 49.324 133.13L48.05 134.001C47.413 133.416 46.035 132.519 44.982 131.934Z" fill="#5C5C5C"/>
<path fill-rule="evenodd" clip-rule="evenodd" d="M591 123C588.791 123 587 124.791 587 127C587 129.209 588.791 131 591 131C592.119 131 593.129 130.542 593.857 129.8C594.565 129.077 595 128.091 595 127C595 124.791 593.209 123 591 123ZM585 127C585 123.686 587.686 121 591 121C594.314 121 597 123.686 597 127C597 128.28 596.599 129.467 595.916 130.441L599.713 134.299L598.287 135.701L594.512 131.865C593.525 132.579 592.311 133 591 133C587.686 133 585 130.314 585 127Z" fill="#474747"/>
</g>
<rect x="16.5" y="112.5" width="591" height="31" rx="2.5" stroke="#474747"/>
<rect x="16" y="164" width="32" height="32" rx="6" fill="#7757D9" fill-opacity="0.09"/>
<path d="M36.928 174.038V175.69H27.058V174.038H36.928ZM27.772 180.086L29.536 180.548C28.92 182.186 27.87 183.88 26.876 184.93C26.526 184.636 25.77 184.146 25.336 183.936C26.344 183.012 27.282 181.528 27.772 180.086ZM38.23 179.064H32.952V184.258C32.952 185.196 32.756 185.658 32.098 185.924C31.454 186.19 30.53 186.218 29.312 186.218C29.228 185.7 28.976 184.944 28.724 184.44C29.522 184.482 30.502 184.496 30.768 184.482C31.034 184.482 31.132 184.412 31.132 184.216V179.064H25.784V177.398H38.23V179.064ZM34.38 180.688L35.948 180.03C36.872 181.318 37.88 183.012 38.272 184.202L36.536 184.972C36.228 183.824 35.276 182.018 34.38 180.688Z" fill="#7757D9"/>
<path d="M67.928 174.038V175.69H58.058V174.038H67.928ZM58.772 180.086L60.536 180.548C59.92 182.186 58.87 183.88 57.876 184.93C57.526 184.636 56.77 184.146 56.336 183.936C57.344 183.012 58.282 181.528 58.772 180.086ZM69.23 179.064H63.952V184.258C63.952 185.196 63.756 185.658 63.098 185.924C62.454 186.19 61.53 186.218 60.312 186.218C60.228 185.7 59.976 184.944 59.724 184.44C60.522 184.482 61.502 184.496 61.768 184.482C62.034 184.482 62.132 184.412 62.132 184.216V179.064H56.784V177.398H69.23V179.064ZM65.38 180.688L66.948 180.03C67.872 181.318 68.88 183.012 69.272 184.202L67.536 184.972C67.228 183.824 66.276 182.018 65.38 180.688ZM73.388 176.446V180.66C74.452 179.316 75.012 177.132 75.292 175.214H74.368V174.024C74.088 174.836 73.752 175.648 73.388 176.446ZM77.392 178.168H76.188C76.048 178.588 75.908 178.994 75.754 179.386C76.146 179.666 76.594 180.002 76.916 180.31C77.112 179.652 77.266 178.938 77.392 178.168ZM80.696 182.9H79.226V175.214H76.874C76.776 175.704 76.678 176.222 76.566 176.726H77.812L78.078 176.67L79.044 176.964C78.54 181.486 77.07 184.65 74.928 186.218C74.718 185.84 74.2 185.196 73.892 184.944C74.914 184.244 75.726 183.208 76.342 181.85C76.048 181.5 75.558 181.052 75.124 180.702C74.886 181.136 74.62 181.528 74.312 181.878C74.102 181.556 73.682 181.052 73.388 180.758V186.204H71.862V179.19C71.582 179.61 71.288 180.002 70.994 180.338C70.868 179.946 70.462 178.98 70.196 178.546C71.316 177.244 72.352 175.2 72.968 173.156L74.508 173.618L74.466 173.758H79.324V174.752H80.696V182.9ZM81.578 173.408H83.118V184.328C83.118 185.21 82.964 185.644 82.446 185.91C81.942 186.176 81.158 186.232 80.052 186.232C79.996 185.784 79.772 185.056 79.548 184.594C80.304 184.636 81.018 184.636 81.27 184.622C81.494 184.608 81.578 184.552 81.578 184.314V173.408ZM93.422 176.978H88.508C89.11 178.49 89.936 179.834 91.014 180.968C92.022 179.876 92.82 178.56 93.422 176.978ZM97.398 176.978H95.382C94.626 179.05 93.604 180.744 92.316 182.144C93.758 183.25 95.522 184.076 97.65 184.552C97.244 184.958 96.712 185.742 96.46 186.218C94.206 185.644 92.386 184.706 90.916 183.46C89.39 184.678 87.584 185.588 85.456 186.26C85.26 185.826 84.742 185.042 84.406 184.636C86.478 184.09 88.228 183.292 89.642 182.214C88.382 180.772 87.416 179.022 86.66 176.978H84.658V175.354H90.146V173.142H91.84V175.354H97.398V176.978ZM101.416 173.198L102.998 173.702C102.62 174.696 102.158 175.718 101.626 176.684V186.204H100.044V179.162C99.764 179.512 99.484 179.862 99.204 180.17C99.05 179.75 98.588 178.854 98.308 178.434C99.54 177.174 100.73 175.186 101.416 173.198ZM111.482 179.89V181.514H107.898V186.218H106.218V181.514H102.438V179.89H106.218V177.482H104.51C104.258 178.168 103.95 178.798 103.642 179.288C103.334 179.064 102.606 178.672 102.2 178.49C102.956 177.398 103.53 175.62 103.852 173.912L105.462 174.248C105.35 174.794 105.21 175.326 105.056 175.858H106.218V173.324H107.898V175.858H110.824V177.482H107.898V179.89H111.482Z" fill="white"/>
<mask id="path-13-inside-1_182_15973" fill="white">
<path d="M624 0L624 210L-9.17939e-06 210L0 -2.72759e-05L624 0Z"/>
</mask>
<path d="M624 0L624 210L-9.17939e-06 210L0 -2.72759e-05L624 0Z" fill="url(#paint0_linear_182_15973)"/>
<path d="M624 209L-9.13568e-06 209L-9.2231e-06 211L624 211L624 209Z" fill="#5D5D5D" mask="url(#path-13-inside-1_182_15973)"/>
<g filter="url(#filter0_d_182_15973)">
<rect width="624" height="530" transform="translate(0 210)" fill="#333333"/>
<rect width="624" height="54" transform="translate(0 210)" fill="#333333"/>
<rect width="592" height="53" transform="translate(16 210)" fill="#333333"/>
<path d="M22.636 233.374H36.139V235.537H22.636V233.374ZM25.156 228.796H35.257V230.917H25.156V228.796ZM28.39 226.276H30.889V234.193H28.39V226.276ZM24.841 226.822L27.235 227.326C26.626 229.489 25.534 231.631 24.4 232.975C23.917 232.597 22.909 231.925 22.321 231.631C23.476 230.476 24.358 228.649 24.841 226.822ZM30.007 234.655H32.485V239.233C32.485 239.821 32.527 239.884 32.884 239.884C33.01 239.884 33.577 239.884 33.745 239.884C34.102 239.884 34.186 239.632 34.249 237.7C34.711 238.12 35.761 238.498 36.433 238.666C36.202 241.48 35.572 242.215 34.018 242.215C33.619 242.215 32.821 242.215 32.443 242.215C30.427 242.215 30.007 241.459 30.007 239.254V234.655ZM26.227 234.571H28.747C28.432 237.994 27.613 240.745 23.728 242.362C23.455 241.711 22.762 240.766 22.216 240.283C25.471 239.107 25.975 237.091 26.227 234.571ZM16.903 228.187L18.835 226.78C20.011 227.725 21.46 229.111 22.132 230.098L20.053 231.694C19.465 230.665 18.079 229.216 16.903 228.187ZM21.691 234.277V242.257H19.276V236.608H16.945V234.277H21.691ZM21.46 241.312C22.111 241.312 22.636 241.858 23.707 242.488C25.03 243.307 26.836 243.412 29.02 243.412C31.12 243.412 34.375 243.244 36.412 242.95C36.139 243.622 35.74 244.861 35.719 245.533C34.165 245.638 31.015 245.764 28.957 245.764C26.458 245.764 24.799 245.491 23.392 244.693C22.531 244.168 21.859 243.559 21.397 243.559C20.62 243.559 19.465 244.798 18.331 246.1L16.672 243.916C18.268 242.446 20.116 241.312 21.46 241.312ZM37.525 236.776C39.331 236.377 41.977 235.663 44.539 234.97L44.854 237.238C42.523 237.931 40.045 238.645 38.071 239.191L37.525 236.776ZM37.819 230.119H44.875V232.429H37.819V230.119ZM40.192 226.192H42.649V243.202C42.649 244.378 42.439 245.029 41.788 245.428C41.116 245.827 40.171 245.89 38.785 245.89C38.701 245.239 38.407 244.21 38.113 243.517C38.827 243.559 39.604 243.559 39.856 243.538C40.108 243.538 40.192 243.454 40.192 243.181V226.192ZM45.4 227.011H54.514V229.237H45.4V227.011ZM54.052 227.011H54.472L54.871 226.927L56.383 227.725C54.409 232.03 50.083 234.865 45.547 236.293C45.295 235.684 44.707 234.76 44.245 234.277C48.466 233.206 52.561 230.644 54.052 227.368V227.011ZM48.34 228.124C50.02 231.085 53.443 233.311 57.706 234.214C57.202 234.718 56.509 235.684 56.173 236.314C51.784 235.117 48.403 232.492 46.408 228.796L48.34 228.124ZM45.652 236.923H55.858V239.128H45.652V236.923ZM44.602 240.577H57.202V242.824H44.602V240.577ZM49.558 235.285H52.099V245.911H49.558V235.285ZM72.133 231.967H64.762C65.665 234.235 66.904 236.251 68.521 237.952C70.033 236.314 71.23 234.34 72.133 231.967ZM78.097 231.967H75.073C73.939 235.075 72.406 237.616 70.474 239.716C72.637 241.375 75.283 242.614 78.475 243.328C77.866 243.937 77.068 245.113 76.69 245.827C73.309 244.966 70.579 243.559 68.374 241.69C66.085 243.517 63.376 244.882 60.184 245.89C59.89 245.239 59.113 244.063 58.609 243.454C61.717 242.635 64.342 241.438 66.463 239.821C64.573 237.658 63.124 235.033 61.99 231.967H58.987V229.531H67.219V226.213H69.76V229.531H78.097V231.967ZM84.124 226.297L86.497 227.053C85.93 228.544 85.237 230.077 84.439 231.526V245.806H82.066V235.243C81.646 235.768 81.226 236.293 80.806 236.755C80.575 236.125 79.882 234.781 79.462 234.151C81.31 232.261 83.095 229.279 84.124 226.297ZM99.223 236.335V238.771H93.847V245.827H91.327V238.771H85.657V236.335H91.327V232.723H88.765C88.387 233.752 87.925 234.697 87.463 235.432C87.001 235.096 85.909 234.508 85.3 234.235C86.434 232.597 87.295 229.93 87.778 227.368L90.193 227.872C90.025 228.691 89.815 229.489 89.584 230.287H91.327V226.486H93.847V230.287H98.236V232.723H93.847V236.335H99.223Z" fill="white"/>
<rect y="263" width="624" height="1" fill="#474747"/>
<rect width="624" height="54" transform="translate(0 264)" fill="#333333"/>
<path d="M16.608 287.192H21.536V288.968H16.608V287.192ZM18.16 283.416H20V298.44H18.16V283.416ZM21.952 286.376H28.464V288.248H21.952V286.376ZM27.696 286.376H29.52C29.52 286.376 29.504 287.016 29.504 287.24C29.376 294.152 29.248 296.584 28.704 297.352C28.32 297.912 27.936 298.088 27.36 298.184C26.832 298.28 26.016 298.28 25.184 298.248C25.152 297.72 24.944 296.92 24.608 296.408C25.408 296.472 26.112 296.472 26.464 296.472C26.736 296.472 26.896 296.424 27.056 296.2C27.456 295.704 27.568 293.272 27.696 286.792V286.376ZM21.776 289.384L23.456 289.72C23.136 291.384 22.512 293.032 21.792 294.104C21.472 293.832 20.752 293.384 20.352 293.16C21.04 292.232 21.52 290.808 21.776 289.384ZM29.088 289.72L30.64 289.384C31.088 290.904 31.6 292.888 31.792 294.072L30.112 294.504C29.968 293.304 29.52 291.272 29.088 289.72ZM24.384 283.496H26.192V286.92C26.192 290.456 25.84 295.144 21.904 298.456C21.584 298.04 20.896 297.416 20.448 297.128C24.064 294.2 24.384 290.024 24.384 286.92V283.496ZM36.032 283.512L37.888 284.088C37.472 285.208 36.944 286.344 36.352 287.416V298.376H34.432V290.376C34.096 290.776 33.76 291.176 33.44 291.528C33.264 291.064 32.72 289.976 32.384 289.496C33.84 288.056 35.232 285.784 36.032 283.512ZM47.504 287.864H42.96V289.544H47.104V291.272H42.96V293.08H47.312V294.84H42.96V298.392H41.008V287.864H40.4C39.76 289.048 39.024 290.136 38.304 290.968C38 290.616 37.248 289.944 36.848 289.64C38.256 288.2 39.52 285.896 40.24 283.608L42.08 284.072C41.856 284.744 41.6 285.4 41.296 286.056H47.504V287.864ZM56.768 286.616H55.216C54.928 289.272 54.048 290.952 49.984 291.832C49.824 291.384 49.344 290.616 48.96 290.232C52.448 289.624 53.008 288.504 53.264 286.616H51.056V288.472H49.184V284.888H54.976V283.448H56.928V284.888H62.864V288.2H60.896V286.616H58.64V289.144C58.64 289.576 58.736 289.64 59.232 289.64H60.656C61.056 289.64 61.136 289.48 61.2 288.472C61.552 288.744 62.336 289.016 62.832 289.128C62.64 290.808 62.128 291.256 60.848 291.256H58.944C57.152 291.256 56.768 290.744 56.768 289.16V286.616ZM56.928 296.232H63.008V297.96H49.008V296.232H54.976V293.848H50.688V292.136H61.648V293.848H56.928V296.232ZM65.136 287.272H67.12V298.424H65.136V287.272ZM65.36 284.44L66.864 283.528C67.616 284.216 68.48 285.224 68.864 285.944L67.248 286.968C66.912 286.28 66.08 285.208 65.36 284.44ZM69.424 284.216H78.08V285.992H69.424V284.216ZM77.008 284.216H79.008V296.376C79.008 297.272 78.848 297.704 78.32 298.008C77.776 298.312 77.008 298.328 76 298.328C75.936 297.848 75.696 297.08 75.456 296.616C75.968 296.648 76.56 296.632 76.752 296.632C76.96 296.632 77.008 296.552 77.008 296.36V284.216ZM70.448 292.504V294.04H73.552V292.504H70.448ZM70.448 289.448V290.968H73.552V289.448H70.448ZM68.736 287.912H75.344V295.576H68.736V287.912Z" fill="#ADADAD"/>
<path fill-rule="evenodd" clip-rule="evenodd" d="M95.5859 292L91.293 287.707L92.7072 286.293L97.7072 291.293C98.0977 291.683 98.0977 292.316 97.7072 292.707L92.7072 297.707L91.293 296.293L95.5859 292Z" fill="#ADADAD"/>
<path d="M122.784 284.184V285.88H109.296V284.184H122.784ZM115.76 290.328H112.208C112.208 290.648 112.192 290.984 112.176 291.32H115.76V290.328ZM119.936 287.96H112.208V288.952H119.936V287.96ZM123.152 292.808H116.704C116.672 293.112 116.624 293.416 116.56 293.704H121.792C121.792 293.704 121.776 294.152 121.744 294.376C121.568 296.472 121.376 297.464 120.976 297.864C120.624 298.232 120.208 298.344 119.712 298.392C119.264 298.424 118.448 298.44 117.6 298.408C117.568 297.928 117.376 297.272 117.104 296.824C117.824 296.904 118.528 296.92 118.832 296.92C119.088 296.92 119.248 296.888 119.392 296.76C119.568 296.6 119.696 296.136 119.808 295.16H116.112C115.488 296.584 114.32 297.672 111.968 298.392C111.792 297.944 111.312 297.256 110.928 296.904C113.872 296.12 114.544 294.744 114.8 292.808H112.064C111.84 294.728 111.28 296.76 110.016 298.216C109.664 297.88 108.848 297.368 108.384 297.16C110.176 295.16 110.352 292.264 110.352 290.136V286.584H121.792V290.328H117.648V291.32H123.152V292.808ZM125.136 287.272H127.12V298.424H125.136V287.272ZM125.36 284.44L126.864 283.528C127.616 284.216 128.48 285.224 128.864 285.944L127.248 286.968C126.912 286.28 126.08 285.208 125.36 284.44ZM129.424 284.216H138.08V285.992H129.424V284.216ZM137.008 284.216H139.008V296.376C139.008 297.272 138.848 297.704 138.32 298.008C137.776 298.312 137.008 298.328 136 298.328C135.936 297.848 135.696 297.08 135.456 296.616C135.968 296.648 136.56 296.632 136.752 296.632C136.96 296.632 137.008 296.552 137.008 296.36V284.216ZM130.448 292.504V294.04H133.552V292.504H130.448ZM130.448 289.448V290.968H133.552V289.448H130.448ZM128.736 287.912H135.344V295.576H128.736V287.912Z" fill="white"/>
<rect width="624" height="44" transform="translate(0 318)" fill="#333333"/>
<g clip-path="url(#clip2_182_15973)">
<rect x="16" y="318" width="592" height="32" rx="3" fill="#282828"/>
<path d="M28.758 333.527L28.953 334.931C28.485 335.061 28.017 335.191 27.549 335.321V338.506C27.549 339.247 27.419 339.624 27.003 339.845C26.561 340.092 25.95 340.131 25.04 340.131C25.001 339.728 24.793 339.13 24.624 338.727C25.118 338.753 25.651 338.753 25.82 338.753C26.002 338.753 26.054 338.688 26.054 338.506V335.724L24.689 336.088L24.299 334.606C24.793 334.502 25.404 334.372 26.054 334.216V331.863H24.507V330.433H26.054V328.002H27.549V330.433H28.797V331.863H27.549V333.839L28.758 333.527ZM34.075 336.335H31.02C31.41 336.803 31.917 337.219 32.541 337.557C33.139 337.219 33.659 336.816 34.075 336.335ZM30.5 332.929H31.904V329.51C31.462 329.757 30.968 329.965 30.5 330.147V330.979H31.501V332.071H30.5V332.929ZM35.271 335.009L36.22 335.451C35.726 336.621 34.959 337.518 33.997 338.207C34.816 338.493 35.739 338.701 36.727 338.831C36.389 339.156 35.986 339.767 35.778 340.17C34.517 339.949 33.399 339.598 32.424 339.104C31.319 339.598 30.058 339.923 28.706 340.131C28.576 339.741 28.29 339.169 28.043 338.844C29.109 338.727 30.11 338.519 31.02 338.22C30.448 337.778 29.954 337.258 29.538 336.673L30.435 336.335H28.927V335.074H31.904V334.138H29.161V328.977L29.837 329.185C30.318 328.938 30.812 328.626 31.124 328.353L31.904 329.094V328.002H33.282V332.929H34.777V332.071H33.672V330.979H34.777V330.16H33.659V328.951H36.155V334.138H33.282V335.074H35.011L35.271 335.009ZM40.471 337.193L41.94 337.752C41.095 338.636 39.782 339.52 38.69 340.04C38.417 339.741 37.845 339.208 37.507 338.948C38.599 338.545 39.795 337.882 40.471 337.193ZM47.582 336.946L44.228 337.05V340.131H42.694V337.102C40.887 337.154 39.223 337.193 37.897 337.219L37.819 335.841C38.638 335.841 39.639 335.841 40.744 335.828C40.939 335.724 41.134 335.607 41.329 335.49C40.705 335.022 39.847 334.489 39.132 334.125L40.159 333.241C40.328 333.332 40.523 333.423 40.705 333.527C41.121 333.189 41.563 332.786 41.927 332.409H39.327V333.813H37.858V331.122H42.681V330.329H37.975V329.003H42.681V327.989H44.202V329.003H48.999V330.329H44.202V331.122H49.168V333.813H47.634V332.409H43.331L43.734 332.604C43.11 333.163 42.408 333.722 41.797 334.164C42.083 334.346 42.356 334.528 42.59 334.697C43.552 334.06 44.462 333.371 45.138 332.773L46.516 333.514C45.489 334.294 44.254 335.113 43.071 335.815C44.059 335.802 45.086 335.789 46.126 335.776C45.814 335.542 45.502 335.334 45.203 335.139L46.217 334.359C47.231 334.996 48.609 335.958 49.298 336.647L48.206 337.531C48.037 337.362 47.829 337.154 47.582 336.946ZM44.982 337.934L46.152 337.154C47.166 337.687 48.583 338.532 49.324 339.13L48.05 340.001C47.413 339.416 46.035 338.519 44.982 337.934Z" fill="#5C5C5C"/>
<path fill-rule="evenodd" clip-rule="evenodd" d="M591 329C588.791 329 587 330.791 587 333C587 335.209 588.791 337 591 337C592.119 337 593.129 336.542 593.857 335.8C594.565 335.077 595 334.091 595 333C595 330.791 593.209 329 591 329ZM585 333C585 329.686 587.686 327 591 327C594.314 327 597 329.686 597 333C597 334.28 596.599 335.467 595.916 336.441L599.713 340.299L598.287 341.701L594.512 337.865C593.525 338.579 592.311 339 591 339C587.686 339 585 336.314 585 333Z" fill="#474747"/>
</g>
<rect x="16.5" y="318.5" width="591" height="31" rx="2.5" stroke="#474747"/>
<path d="M23.792 368.928H31.508V370.164H23.792V368.928ZM25.232 366.312H31.004V367.524H25.232V366.312ZM27.08 364.872H28.508V369.396H27.08V364.872ZM25.052 365.184L26.42 365.472C26.072 366.708 25.448 367.932 24.8 368.7C24.524 368.484 23.948 368.1 23.612 367.932C24.272 367.272 24.776 366.228 25.052 365.184ZM28.004 369.66H29.42V372.276C29.42 372.612 29.444 372.648 29.648 372.648C29.72 372.648 30.044 372.648 30.14 372.648C30.344 372.648 30.392 372.504 30.428 371.4C30.692 371.64 31.292 371.856 31.676 371.952C31.544 373.56 31.184 373.98 30.296 373.98C30.068 373.98 29.612 373.98 29.396 373.98C28.244 373.98 28.004 373.548 28.004 372.288V369.66ZM25.844 369.612H27.284C27.104 371.568 26.636 373.14 24.416 374.064C24.26 373.692 23.864 373.152 23.552 372.876C25.412 372.204 25.7 371.052 25.844 369.612ZM20.516 365.964L21.62 365.16C22.292 365.7 23.12 366.492 23.504 367.056L22.316 367.968C21.98 367.38 21.188 366.552 20.516 365.964ZM23.252 369.444V374.004H21.872V370.776H20.54V369.444H23.252ZM23.12 373.464C23.492 373.464 23.792 373.776 24.404 374.136C25.16 374.604 26.192 374.664 27.44 374.664C28.64 374.664 30.5 374.568 31.664 374.4C31.508 374.784 31.28 375.492 31.268 375.876C30.38 375.936 28.58 376.008 27.404 376.008C25.976 376.008 25.028 375.852 24.224 375.396C23.732 375.096 23.348 374.748 23.084 374.748C22.64 374.748 21.98 375.456 21.332 376.2L20.384 374.952C21.296 374.112 22.352 373.464 23.12 373.464ZM32.3 370.872C33.332 370.644 34.844 370.236 36.308 369.84L36.488 371.136C35.156 371.532 33.74 371.94 32.612 372.252L32.3 370.872ZM32.468 367.068H36.5V368.388H32.468V367.068ZM33.824 364.824H35.228V374.544C35.228 375.216 35.108 375.588 34.736 375.816C34.352 376.044 33.812 376.08 33.02 376.08C32.972 375.708 32.804 375.12 32.636 374.724C33.044 374.748 33.488 374.748 33.632 374.736C33.776 374.736 33.824 374.688 33.824 374.532V364.824ZM36.8 365.292H42.008V366.564H36.8V365.292ZM41.744 365.292H41.984L42.212 365.244L43.076 365.7C41.948 368.16 39.476 369.78 36.884 370.596C36.74 370.248 36.404 369.72 36.14 369.444C38.552 368.832 40.892 367.368 41.744 365.496V365.292ZM38.48 365.928C39.44 367.62 41.396 368.892 43.832 369.408C43.544 369.696 43.148 370.248 42.956 370.608C40.448 369.924 38.516 368.424 37.376 366.312L38.48 365.928ZM36.944 370.956H42.776V372.216H36.944V370.956ZM36.344 373.044H43.544V374.328H36.344V373.044ZM39.176 370.02H40.628V376.092H39.176V370.02ZM54.08 370.644L55.268 371.532C54.512 372.072 53.624 372.624 52.88 373.02C53.588 373.812 54.524 374.4 55.712 374.736C55.4 375.036 54.992 375.612 54.788 376.008C52.256 375.144 50.936 373.32 50.144 370.656C49.688 371.088 49.148 371.496 48.572 371.868V374.1C49.424 373.92 50.324 373.728 51.188 373.536L51.32 374.832C49.436 375.276 47.42 375.696 45.932 376.02L45.512 374.7C45.98 374.616 46.544 374.508 47.144 374.388V372.672C46.484 372.996 45.812 373.26 45.152 373.464C44.948 373.14 44.54 372.6 44.24 372.312C45.668 371.94 47.204 371.256 48.332 370.476H44.684V369.264H49.256V368.592H45.692V367.452H49.256V366.84H45.128V365.628H49.256V364.836H50.684V365.628H54.908V366.84H50.684V367.452H54.44V368.592H50.684V369.264H55.292V370.476H51.476C51.668 371.064 51.896 371.592 52.196 372.084C52.868 371.64 53.588 371.1 54.08 370.644ZM61.22 367.548H62.708V376.044H61.22V367.548ZM59.036 369.948V370.764H65V369.948H59.036ZM59.036 368.04V368.856H65V368.04H59.036ZM57.632 366.864H66.476V371.952H57.632V366.864ZM56.564 372.744H67.448V374.076H56.564V372.744ZM58.58 365.424L59.828 364.86C60.284 365.376 60.836 366.108 61.076 366.612L59.756 367.224C59.552 366.744 59.036 365.976 58.58 365.424ZM64.184 364.896L65.78 365.364C65.276 366.168 64.7 366.984 64.268 367.512L62.996 367.068C63.416 366.48 63.92 365.58 64.184 364.896Z" fill="#A3A9AE"/>
<rect x="16" y="398" width="32" height="32" rx="6" fill="#7757D9" fill-opacity="0.09"/>
<path d="M36.928 408.038V409.69H27.058V408.038H36.928ZM27.772 414.086L29.536 414.548C28.92 416.186 27.87 417.88 26.876 418.93C26.526 418.636 25.77 418.146 25.336 417.936C26.344 417.012 27.282 415.528 27.772 414.086ZM38.23 413.064H32.952V418.258C32.952 419.196 32.756 419.658 32.098 419.924C31.454 420.19 30.53 420.218 29.312 420.218C29.228 419.7 28.976 418.944 28.724 418.44C29.522 418.482 30.502 418.496 30.768 418.482C31.034 418.482 31.132 418.412 31.132 418.216V413.064H25.784V411.398H38.23V413.064ZM34.38 414.688L35.948 414.03C36.872 415.318 37.88 417.012 38.272 418.202L36.536 418.972C36.228 417.824 35.276 416.018 34.38 414.688Z" fill="#7757D9"/>
<path d="M67.928 408.038V409.69H58.058V408.038H67.928ZM58.772 414.086L60.536 414.548C59.92 416.186 58.87 417.88 57.876 418.93C57.526 418.636 56.77 418.146 56.336 417.936C57.344 417.012 58.282 415.528 58.772 414.086ZM69.23 413.064H63.952V418.258C63.952 419.196 63.756 419.658 63.098 419.924C62.454 420.19 61.53 420.218 60.312 420.218C60.228 419.7 59.976 418.944 59.724 418.44C60.522 418.482 61.502 418.496 61.768 418.482C62.034 418.482 62.132 418.412 62.132 418.216V413.064H56.784V411.398H69.23V413.064ZM65.38 414.688L66.948 414.03C67.872 415.318 68.88 417.012 69.272 418.202L67.536 418.972C67.228 417.824 66.276 416.018 65.38 414.688ZM73.388 410.446V414.66C74.452 413.316 75.012 411.132 75.292 409.214H74.368V408.024C74.088 408.836 73.752 409.648 73.388 410.446ZM77.392 412.168H76.188C76.048 412.588 75.908 412.994 75.754 413.386C76.146 413.666 76.594 414.002 76.916 414.31C77.112 413.652 77.266 412.938 77.392 412.168ZM80.696 416.9H79.226V409.214H76.874C76.776 409.704 76.678 410.222 76.566 410.726H77.812L78.078 410.67L79.044 410.964C78.54 415.486 77.07 418.65 74.928 420.218C74.718 419.84 74.2 419.196 73.892 418.944C74.914 418.244 75.726 417.208 76.342 415.85C76.048 415.5 75.558 415.052 75.124 414.702C74.886 415.136 74.62 415.528 74.312 415.878C74.102 415.556 73.682 415.052 73.388 414.758V420.204H71.862V413.19C71.582 413.61 71.288 414.002 70.994 414.338C70.868 413.946 70.462 412.98 70.196 412.546C71.316 411.244 72.352 409.2 72.968 407.156L74.508 407.618L74.466 407.758H79.324V408.752H80.696V416.9ZM81.578 407.408H83.118V418.328C83.118 419.21 82.964 419.644 82.446 419.91C81.942 420.176 81.158 420.232 80.052 420.232C79.996 419.784 79.772 419.056 79.548 418.594C80.304 418.636 81.018 418.636 81.27 418.622C81.494 418.608 81.578 418.552 81.578 418.314V407.408ZM93.422 410.978H88.508C89.11 412.49 89.936 413.834 91.014 414.968C92.022 413.876 92.82 412.56 93.422 410.978ZM97.398 410.978H95.382C94.626 413.05 93.604 414.744 92.316 416.144C93.758 417.25 95.522 418.076 97.65 418.552C97.244 418.958 96.712 419.742 96.46 420.218C94.206 419.644 92.386 418.706 90.916 417.46C89.39 418.678 87.584 419.588 85.456 420.26C85.26 419.826 84.742 419.042 84.406 418.636C86.478 418.09 88.228 417.292 89.642 416.214C88.382 414.772 87.416 413.022 86.66 410.978H84.658V409.354H90.146V407.142H91.84V409.354H97.398V410.978ZM101.416 407.198L102.998 407.702C102.62 408.696 102.158 409.718 101.626 410.684V420.204H100.044V413.162C99.764 413.512 99.484 413.862 99.204 414.17C99.05 413.75 98.588 412.854 98.308 412.434C99.54 411.174 100.73 409.186 101.416 407.198ZM111.482 413.89V415.514H107.898V420.218H106.218V415.514H102.438V413.89H106.218V411.482H104.51C104.258 412.168 103.95 412.798 103.642 413.288C103.334 413.064 102.606 412.672 102.2 412.49C102.956 411.398 103.53 409.62 103.852 407.912L105.462 408.248C105.35 408.794 105.21 409.326 105.056 409.858H106.218V407.324H107.898V409.858H110.824V411.482H107.898V413.89H111.482Z" fill="white"/>
</g>
<path d="M313.5 81C313.5 80.1716 312.828 79.5 312 79.5C311.172 79.5 310.5 80.1716 310.5 81L313.5 81ZM310.939 188.061C311.525 188.646 312.475 188.646 313.061 188.061L322.607 178.515C323.192 177.929 323.192 176.979 322.607 176.393C322.021 175.808 321.071 175.808 320.485 176.393L312 184.879L303.515 176.393C302.929 175.808 301.979 175.808 301.393 176.393C300.808 176.979 300.808 177.929 301.393 178.515L310.939 188.061ZM310.5 81L310.5 187L313.5 187L313.5 81L310.5 81Z" fill="#F58D31"/>
<rect x="-1.5" y="-1.5" width="35" height="135" rx="2.5" transform="matrix(-4.37114e-08 -1 -1 4.37114e-08 145 387)" stroke="#F58D31" stroke-width="3" stroke-linejoin="round"/>
</g>
<defs>
<filter id="filter0_d_182_15973" x="-10" y="196" width="644" height="550" filterUnits="userSpaceOnUse" color-interpolation-filters="sRGB">
<feFlood flood-opacity="0" result="BackgroundImageFix"/>
<feColorMatrix in="SourceAlpha" type="matrix" values="0 0 0 0 0 0 0 0 0 0 0 0 0 0 0 0 0 0 127 0" result="hardAlpha"/>
<feOffset dy="-4"/>
<feGaussianBlur stdDeviation="5"/>
<feComposite in2="hardAlpha" operator="out"/>
<feColorMatrix type="matrix" values="0 0 0 0 0 0 0 0 0 0 0 0 0 0 0 0 0 0 0.15 0"/>
<feBlend mode="normal" in2="BackgroundImageFix" result="effect1_dropShadow_182_15973"/>
<feBlend mode="normal" in="SourceGraphic" in2="effect1_dropShadow_182_15973" result="shape"/>
</filter>
<linearGradient id="paint0_linear_182_15973" x1="518" y1="89.5" x2="506.99" y2="250.748" gradientUnits="userSpaceOnUse">
<stop offset="0.206359" stop-color="#292929" stop-opacity="0"/>
<stop offset="0.59256" stop-color="#292929" stop-opacity="0.130272"/>
<stop offset="0.909525" stop-color="#292929"/>
</linearGradient>
<clipPath id="clip0_182_15973">
<rect width="624" height="444" fill="white"/>
</clipPath>
<clipPath id="clip1_182_15973">
<rect x="16" y="112" width="592" height="32" rx="3" fill="white"/>
</clipPath>
<clipPath id="clip2_182_15973">
<rect x="16" y="318" width="592" height="32" rx="3" fill="white"/>
</clipPath>
</defs>
</svg>
