<svg width="550" height="318" viewBox="0 0 550 318" fill="none" xmlns="http://www.w3.org/2000/svg">
<g clip-path="url(#clip0_180_15196)">
<rect width="550" height="318" fill="white"/>
<mask id="path-1-inside-1_180_15196" fill="white">
<path d="M0 0H914V40H0V0Z"/>
</mask>
<path d="M0 0H914V40H0V0Z" fill="#F7F7F7"/>
<path d="M0 1H914V-1H0V1ZM914 39H0V41H914V39Z" fill="#CBCBCB" mask="url(#path-1-inside-1_180_15196)"/>
<path fill-rule="evenodd" clip-rule="evenodd" d="M30.2105 17.0031C29.3947 17.6552 29 18.6583 29 19.9875C29 21.3166 29.3947 22.3197 30.2105 22.9969C31.0263 23.674 31.9474 24 33.0263 24C34.0789 24 35.0263 23.674 35.8158 22.9969C36.6053 22.3448 37 21.3417 37 20.0125C37 18.6583 36.6053 17.6803 35.8158 17.0031C35.0263 16.326 34.1053 16 33.0263 16C31.9474 16 31 16.326 30.2105 17.0031ZM31.2632 21.9937C30.9211 21.5674 30.7368 20.9154 30.7368 19.9875C30.7368 19.0846 30.9211 18.4326 31.2632 18.0313C31.6316 17.605 32.0263 17.3292 32.4474 17.2288L32.4474 17.2288C32.5526 17.2038 32.6579 17.1787 32.7368 17.1787C32.8158 17.1536 32.8947 17.1536 33 17.1536H33C33.0526 17.1536 33.0987 17.1599 33.1447 17.1661C33.1908 17.1724 33.2368 17.1787 33.2895 17.1787C33.3684 17.1787 33.4737 17.2038 33.5789 17.2288C34 17.3292 34.3947 17.605 34.7368 18.0313C35.0789 18.4577 35.2632 19.1348 35.2632 20.0125C35.2632 20.8903 35.0789 21.5674 34.7368 21.9937C34.3947 22.4201 34 22.6959 33.5789 22.7962C33.5609 22.8005 33.5436 22.8048 33.5268 22.809C33.4458 22.8292 33.3767 22.8464 33.2895 22.8464C33.1842 22.8715 33.1053 22.8715 33 22.8715C32.9605 22.8715 32.9145 22.8652 32.8684 22.8589L32.8684 22.8589C32.8224 22.8527 32.7763 22.8464 32.7368 22.8464C32.6496 22.8464 32.5805 22.8292 32.4995 22.809L32.4995 22.809L32.4994 22.809L32.4993 22.809C32.4826 22.8048 32.4654 22.8005 32.4474 22.7962C32.0263 22.6959 31.6316 22.4201 31.2632 21.9937ZM40.1338 16H38V24H39.6394V19.2821L39.6134 17.8718H39.6394L40.0558 18.7692L42.8662 24H45V16H43.3606V20.7179L43.3866 22.1282H43.3606L42.9442 21.0513L40.1338 16ZM46.32 16H48V22.641H51.5V24H46.32V16ZM52.0069 16H50L53.1615 20.7436V24H54.8935V20.7436L58 16H56.1581L54.3711 18.8205L54.0962 19.359H54.0412L53.7663 18.8205L52.0069 16ZM58 19.9875C58 18.6583 58.3947 17.6552 59.2105 17.0031C60 16.326 60.9474 16 62.0263 16C63.1053 16 64.0263 16.326 64.8158 17.0031C65.6053 17.6803 66 18.6583 66 20.0125C66 21.3417 65.6053 22.3448 64.8158 22.9969C64.0263 23.674 63.0789 24 62.0263 24C60.9474 24 60.0263 23.674 59.2105 22.9969C58.4211 22.3197 58 21.3166 58 19.9875ZM59.7368 19.9875C59.7368 20.9154 59.9211 21.5674 60.2632 21.9937C60.6316 22.4201 61 22.6959 61.4474 22.7962C61.5526 22.8213 61.6579 22.8464 61.7368 22.8464C61.7763 22.8464 61.8224 22.8527 61.8684 22.8589C61.9145 22.8652 61.9605 22.8715 62 22.8715C62.1053 22.8715 62.1842 22.8715 62.2895 22.8464C62.3767 22.8464 62.4458 22.8292 62.5268 22.809L62.5644 22.7997L62.5789 22.7962C63 22.6959 63.3947 22.4201 63.7368 21.9937C64.0789 21.5674 64.2632 20.8903 64.2632 20.0125C64.2632 19.1348 64.0789 18.4577 63.7368 18.0313C63.3947 17.605 63 17.3292 62.5789 17.2288C62.4737 17.2038 62.3684 17.1787 62.2895 17.1787C62.2368 17.1787 62.1908 17.1724 62.1447 17.1661C62.0987 17.1599 62.0526 17.1536 62 17.1536C61.8947 17.1536 61.8158 17.1536 61.7368 17.1787C61.6579 17.1787 61.5526 17.2038 61.4474 17.2288C61.0263 17.3292 60.6316 17.605 60.2632 18.0313C59.9211 18.4326 59.7368 19.0846 59.7368 19.9875ZM72 16H67.37V24H69V20.641H71.8707V19.2821H69V17.359H72V16ZM73.37 16H78V17.359H75V19.2821H77.8707V20.641H75V24H73.37V16ZM79.5 16V24H81.1376V16H79.5ZM88.5 16.2019V17.5647C88.2273 17.4637 87.9545 17.388 87.657 17.3375C87.3595 17.2871 87.0372 17.2618 86.6901 17.2618C85.8719 17.2618 85.2521 17.5142 84.8058 18.0442C84.3595 18.5489 84.1364 19.205 84.1364 19.9874C84.1364 20.7445 84.3347 21.3754 84.7562 21.8801C85.1777 22.3849 85.7727 22.6625 86.5413 22.6625C86.777 22.6625 87.0127 22.6436 87.2804 22.6222L87.2804 22.6222L87.4091 22.612C87.7314 22.5615 88.0537 22.4858 88.4008 22.3344L88.5 23.6719C88.4504 23.6972 88.376 23.7224 88.3017 23.7476C88.2025 23.7729 88.1033 23.7981 87.9793 23.8233C87.8513 23.8559 87.7025 23.878 87.5331 23.9031L87.533 23.9032C87.4401 23.9169 87.3409 23.9317 87.2355 23.9495C86.938 23.9748 86.6405 24 86.3182 24H86.1942H86.0703C85.1777 23.9495 84.3595 23.5962 83.6157 22.9905C82.8719 22.3596 82.5 21.3754 82.5 20.0631C82.5 18.776 82.8719 17.7666 83.5909 17.0599C84.3099 16.3533 85.3017 16 86.5165 16C86.8388 16 87.1364 16 87.3843 16.0252C87.6203 16.0471 87.8378 16.0878 88.0688 16.1311L88.1777 16.1514C88.2025 16.164 88.2335 16.1703 88.2645 16.1767C88.2955 16.183 88.3264 16.1893 88.3512 16.2019C88.3666 16.1863 88.3914 16.19 88.4256 16.1951C88.4468 16.1982 88.4716 16.2019 88.5 16.2019ZM95 16H90V24H95V22.7436H91.6636V20.5128H94.5489V19.2564H91.6636V17.2564H95V16Z" fill="black" fill-opacity="0.8"/>
<path opacity="0.5" fill-rule="evenodd" clip-rule="evenodd" d="M11.6047 22.5078L16.5631 24.8254C17.0657 25.0543 17.9111 25.0543 18.4366 24.8254L23.3723 22.5184L24.5602 23.0753C25.0857 23.327 25.0857 23.716 24.5602 23.9449L18.3912 26.8284C17.9114 27.0572 17.066 27.0572 16.5633 26.8284L10.3944 23.9449C9.86887 23.6932 9.86887 23.3041 10.3944 23.0753L11.6047 22.5078Z" fill="black" fill-opacity="0.8"/>
<path opacity="0.75" fill-rule="evenodd" clip-rule="evenodd" d="M11.5553 18.9846L16.5631 21.3254C17.0657 21.5542 17.9111 21.5542 18.4366 21.3254L23.4447 18.9845L24.6058 19.5281C25.1314 19.7798 25.1314 20.1689 24.6058 20.3977L18.4369 23.2812C17.9114 23.5329 17.066 23.5329 16.5633 23.2812L10.3944 20.3977C9.86887 20.146 9.86887 19.7569 10.3944 19.5281L11.5553 18.9846Z" fill="black" fill-opacity="0.8"/>
<path fill-rule="evenodd" clip-rule="evenodd" d="M16.5631 19.8254L10.3941 16.9419C9.86862 16.6902 9.86862 16.3011 10.3941 16.0723L16.5631 13.1888C17.0886 12.9371 17.934 12.9371 18.4366 13.1888L24.6056 16.0723C25.1311 16.324 25.1311 16.713 24.6056 16.9419L18.4366 19.8254C17.9111 20.0542 17.0658 20.0542 16.5631 19.8254Z" fill="black" fill-opacity="0.8"/>
<path d="M396.994 19.8164C396.994 18.3906 397.377 17.2754 398.143 16.4707C398.908 15.6621 399.896 15.2578 401.107 15.2578C401.9 15.2578 402.615 15.4473 403.252 15.8262C403.889 16.2051 404.373 16.7344 404.705 17.4141C405.041 18.0898 405.209 18.8574 405.209 19.7168C405.209 20.5879 405.033 21.3672 404.682 22.0547C404.33 22.7422 403.832 23.2637 403.188 23.6191C402.543 23.9707 401.848 24.1465 401.102 24.1465C400.293 24.1465 399.57 23.9512 398.934 23.5605C398.297 23.1699 397.814 22.6367 397.486 21.9609C397.158 21.2852 396.994 20.5703 396.994 19.8164ZM398.166 19.834C398.166 20.8691 398.443 21.6855 398.998 22.2832C399.557 22.877 400.256 23.1738 401.096 23.1738C401.951 23.1738 402.654 22.873 403.205 22.2715C403.76 21.6699 404.037 20.8164 404.037 19.7109C404.037 19.0117 403.918 18.4023 403.68 17.8828C403.445 17.3594 403.1 16.9551 402.643 16.6699C402.189 16.3809 401.68 16.2363 401.113 16.2363C400.309 16.2363 399.615 16.5137 399.033 17.0684C398.455 17.6191 398.166 18.541 398.166 19.834ZM406.668 24V15.4102H407.834L412.346 22.1543V15.4102H413.436V24H412.27L407.758 17.25V24H406.668ZM415.305 24V15.4102H416.441V22.9863H420.672V24H415.305ZM423.561 24V20.3613L420.25 15.4102H421.633L423.326 18C423.639 18.4844 423.93 18.9688 424.199 19.4531C424.457 19.0039 424.77 18.498 425.137 17.9355L426.801 15.4102H428.125L424.697 20.3613V24H423.561ZM428.799 19.8164C428.799 18.3906 429.182 17.2754 429.947 16.4707C430.713 15.6621 431.701 15.2578 432.912 15.2578C433.705 15.2578 434.42 15.4473 435.057 15.8262C435.693 16.2051 436.178 16.7344 436.51 17.4141C436.846 18.0898 437.014 18.8574 437.014 19.7168C437.014 20.5879 436.838 21.3672 436.486 22.0547C436.135 22.7422 435.637 23.2637 434.992 23.6191C434.348 23.9707 433.652 24.1465 432.906 24.1465C432.098 24.1465 431.375 23.9512 430.738 23.5605C430.102 23.1699 429.619 22.6367 429.291 21.9609C428.963 21.2852 428.799 20.5703 428.799 19.8164ZM429.971 19.834C429.971 20.8691 430.248 21.6855 430.803 22.2832C431.361 22.877 432.061 23.1738 432.9 23.1738C433.756 23.1738 434.459 22.873 435.01 22.2715C435.564 21.6699 435.842 20.8164 435.842 19.7109C435.842 19.0117 435.723 18.4023 435.484 17.8828C435.25 17.3594 434.904 16.9551 434.447 16.6699C433.994 16.3809 433.484 16.2363 432.918 16.2363C432.113 16.2363 431.42 16.5137 430.838 17.0684C430.26 17.6191 429.971 18.541 429.971 19.834ZM438.543 24V15.4102H444.338V16.4238H439.68V19.084H443.711V20.0977H439.68V24H438.543ZM445.879 24V15.4102H451.674V16.4238H447.016V19.084H451.047V20.0977H447.016V24H445.879ZM453.35 24V15.4102H454.486V24H453.35ZM462.625 20.9883L463.762 21.2754C463.523 22.209 463.094 22.9219 462.473 23.4141C461.855 23.9023 461.1 24.1465 460.205 24.1465C459.279 24.1465 458.525 23.959 457.943 23.584C457.365 23.2051 456.924 22.6582 456.619 21.9434C456.318 21.2285 456.168 20.4609 456.168 19.6406C456.168 18.7461 456.338 17.9668 456.678 17.3027C457.021 16.6348 457.508 16.1289 458.137 15.7852C458.77 15.4375 459.465 15.2637 460.223 15.2637C461.082 15.2637 461.805 15.4824 462.391 15.9199C462.977 16.3574 463.385 16.9727 463.615 17.7656L462.496 18.0293C462.297 17.4043 462.008 16.9492 461.629 16.6641C461.25 16.3789 460.773 16.2363 460.199 16.2363C459.539 16.2363 458.986 16.3945 458.541 16.7109C458.1 17.0273 457.789 17.4531 457.609 17.9883C457.43 18.5195 457.34 19.0684 457.34 19.6348C457.34 20.3652 457.445 21.0039 457.656 21.5508C457.871 22.0938 458.203 22.5 458.652 22.7695C459.102 23.0391 459.588 23.1738 460.111 23.1738C460.748 23.1738 461.287 22.9902 461.729 22.623C462.17 22.2559 462.469 21.7109 462.625 20.9883ZM465.191 24V15.4102H471.402V16.4238H466.328V19.0547H471.08V20.0625H466.328V22.9863H471.602V24H465.191ZM484.118 16.86H478.982C479.57 18.468 480.422 19.884 481.562 21.048C482.666 19.932 483.506 18.552 484.118 16.86ZM486.998 16.86H485.15C484.442 18.828 483.494 20.412 482.246 21.672C483.554 22.776 485.174 23.592 487.118 24.048C486.902 24.252 486.614 24.66 486.482 24.912C484.478 24.396 482.846 23.532 481.526 22.344C480.206 23.472 478.586 24.3 476.654 24.924C476.57 24.708 476.282 24.276 476.09 24.072C477.998 23.52 479.57 22.752 480.854 21.696C479.618 20.388 478.682 18.768 477.998 16.86H476.234V15.984H481.118V13.956H482.018V15.984H486.998V16.86ZM497.774 14.736L498.65 14.988C498.242 15.948 497.726 17.112 497.318 17.844L496.598 17.616C497.006 16.872 497.51 15.624 497.774 14.736ZM494.198 17.46L493.418 17.76C493.214 17.028 492.746 15.876 492.35 15.024L493.082 14.76C493.49 15.624 493.97 16.74 494.198 17.46ZM492.302 19.968L491.762 20.64C491.57 20.256 491.138 19.512 490.778 18.912V24.912H489.926V19.188C489.53 20.544 488.978 21.876 488.414 22.68C488.306 22.44 488.09 22.092 487.934 21.888C488.678 20.892 489.422 18.996 489.77 17.364H488.198V16.524H489.926V13.956H490.778V16.524H492.278V17.364H490.778V17.844C491.126 18.276 492.098 19.632 492.302 19.968ZM495.878 14.004V18.372H498.542V24.816H497.666V24.072H492.026V23.208H497.666V21.588H492.446V20.772H497.666V19.224H492.29V18.372H495.026V14.004H495.878Z" fill="black" fill-opacity="0.8"/>
<path d="M501.42 24V22.7988H502.621V24H501.42Z" fill="black" fill-opacity="0.8"/>
<path d="M509.148 24V23.2148C508.754 23.832 508.174 24.1406 507.408 24.1406C506.912 24.1406 506.455 24.0039 506.037 23.7305C505.623 23.457 505.301 23.0762 505.07 22.5879C504.844 22.0957 504.73 21.5312 504.73 20.8945C504.73 20.2734 504.834 19.7109 505.041 19.207C505.248 18.6992 505.559 18.3105 505.973 18.041C506.387 17.7715 506.85 17.6367 507.361 17.6367C507.736 17.6367 508.07 17.7168 508.363 17.877C508.656 18.0332 508.895 18.2383 509.078 18.4922V15.4102H510.127V24H509.148ZM505.814 20.8945C505.814 21.6914 505.982 22.2871 506.318 22.6816C506.654 23.0762 507.051 23.2734 507.508 23.2734C507.969 23.2734 508.359 23.0859 508.68 22.7109C509.004 22.332 509.166 21.7559 509.166 20.9824C509.166 20.1309 509.002 19.5059 508.674 19.1074C508.346 18.709 507.941 18.5098 507.461 18.5098C506.992 18.5098 506.6 18.7012 506.283 19.084C505.971 19.4668 505.814 20.0703 505.814 20.8945ZM511.398 20.8887C511.398 19.7363 511.719 18.8828 512.359 18.3281C512.895 17.8672 513.547 17.6367 514.316 17.6367C515.172 17.6367 515.871 17.918 516.414 18.4805C516.957 19.0391 517.229 19.8125 517.229 20.8008C517.229 21.6016 517.107 22.2324 516.865 22.6934C516.627 23.1504 516.277 23.5059 515.816 23.7598C515.359 24.0137 514.859 24.1406 514.316 24.1406C513.445 24.1406 512.74 23.8613 512.201 23.3027C511.666 22.7441 511.398 21.9395 511.398 20.8887ZM512.482 20.8887C512.482 21.6855 512.656 22.2832 513.004 22.6816C513.352 23.0762 513.789 23.2734 514.316 23.2734C514.84 23.2734 515.275 23.0742 515.623 22.6758C515.971 22.2773 516.145 21.6699 516.145 20.8535C516.145 20.084 515.969 19.502 515.617 19.1074C515.27 18.709 514.836 18.5098 514.316 18.5098C513.789 18.5098 513.352 18.707 513.004 19.1016C512.656 19.4961 512.482 20.0918 512.482 20.8887ZM522.531 21.7207L523.568 21.8555C523.455 22.5703 523.164 23.1309 522.695 23.5371C522.23 23.9395 521.658 24.1406 520.979 24.1406C520.127 24.1406 519.441 23.8633 518.922 23.3086C518.406 22.75 518.148 21.9512 518.148 20.9121C518.148 20.2402 518.26 19.6523 518.482 19.1484C518.705 18.6445 519.043 18.2676 519.496 18.0176C519.953 17.7637 520.449 17.6367 520.984 17.6367C521.66 17.6367 522.213 17.8086 522.643 18.1523C523.072 18.4922 523.348 18.9766 523.469 19.6055L522.443 19.7637C522.346 19.3457 522.172 19.0312 521.922 18.8203C521.676 18.6094 521.377 18.5039 521.025 18.5039C520.494 18.5039 520.062 18.6953 519.73 19.0781C519.398 19.457 519.232 20.0586 519.232 20.8828C519.232 21.7188 519.393 22.3262 519.713 22.7051C520.033 23.084 520.451 23.2734 520.967 23.2734C521.381 23.2734 521.727 23.1465 522.004 22.8926C522.281 22.6387 522.457 22.248 522.531 21.7207ZM523.768 24L526.041 20.7656L523.938 17.7773H525.256L526.211 19.2363C526.391 19.5137 526.535 19.7461 526.645 19.9336C526.816 19.6758 526.975 19.4473 527.119 19.248L528.168 17.7773H529.428L527.277 20.707L529.592 24H528.297L527.02 22.0664L526.68 21.5449L525.045 24H523.768Z" fill="black" fill-opacity="0.8"/>
<g clip-path="url(#clip1_180_15196)">
<rect width="914" height="490" transform="translate(0 40)" fill="#EEEEEE"/>
<rect x="59.5" y="60.5" width="795" height="1125" fill="white" stroke="#CCCCCC"/>
</g>
</g>
<defs>
<clipPath id="clip0_180_15196">
<rect width="550" height="318" fill="white"/>
</clipPath>
<clipPath id="clip1_180_15196">
<rect width="914" height="490" fill="white" transform="translate(0 40)"/>
</clipPath>
</defs>
</svg>
