<svg width="550" height="318" viewBox="0 0 550 318" fill="none" xmlns="http://www.w3.org/2000/svg">
<g clip-path="url(#clip0_188_21221)">
<rect width="550" height="318" fill="white"/>
<rect width="914" height="69" fill="white"/>
<rect width="61" height="69" transform="translate(20)" fill="white"/>
<path d="M24.3418 33.8545H25.2207C26.082 33.8545 26.7178 33.7109 27.1279 33.4238C27.5381 33.1367 27.7432 32.6855 27.7432 32.0703C27.7432 31.4609 27.5322 31.0273 27.1104 30.7695C26.6943 30.5117 26.0469 30.3828 25.168 30.3828H24.3418V33.8545ZM24.3418 36.0693V41H21.6172V28.1504H25.3613C27.1074 28.1504 28.3994 28.4697 29.2373 29.1084C30.0752 29.7412 30.4941 30.7051 30.4941 32C30.4941 32.7559 30.2861 33.4297 29.8701 34.0215C29.4541 34.6074 28.8652 35.0674 28.1035 35.4014C30.0371 38.29 31.2969 40.1562 31.8828 41H28.8594L25.792 36.0693H24.3418ZM35.4248 36.0693C35.4248 37.042 35.583 37.7773 35.8994 38.2754C36.2217 38.7734 36.7432 39.0225 37.4639 39.0225C38.1787 39.0225 38.6914 38.7764 39.002 38.2842C39.3184 37.7861 39.4766 37.0479 39.4766 36.0693C39.4766 35.0967 39.3184 34.3672 39.002 33.8809C38.6855 33.3945 38.167 33.1514 37.4463 33.1514C36.7314 33.1514 36.2158 33.3945 35.8994 33.8809C35.583 34.3613 35.4248 35.0908 35.4248 36.0693ZM42.2188 36.0693C42.2188 37.6689 41.7969 38.9199 40.9531 39.8223C40.1094 40.7246 38.9346 41.1758 37.4287 41.1758C36.4854 41.1758 35.6533 40.9707 34.9326 40.5605C34.2119 40.1445 33.6582 39.5498 33.2715 38.7764C32.8848 38.0029 32.6914 37.1006 32.6914 36.0693C32.6914 34.4639 33.1104 33.2158 33.9482 32.3252C34.7861 31.4346 35.9639 30.9893 37.4814 30.9893C38.4248 30.9893 39.2568 31.1943 39.9775 31.6045C40.6982 32.0146 41.252 32.6035 41.6387 33.3711C42.0254 34.1387 42.2188 35.0381 42.2188 36.0693ZM46.5693 36.0693C46.5693 37.042 46.7275 37.7773 47.0439 38.2754C47.3662 38.7734 47.8877 39.0225 48.6084 39.0225C49.3232 39.0225 49.8359 38.7764 50.1465 38.2842C50.4629 37.7861 50.6211 37.0479 50.6211 36.0693C50.6211 35.0967 50.4629 34.3672 50.1465 33.8809C49.8301 33.3945 49.3115 33.1514 48.5908 33.1514C47.876 33.1514 47.3604 33.3945 47.0439 33.8809C46.7275 34.3613 46.5693 35.0908 46.5693 36.0693ZM53.3633 36.0693C53.3633 37.6689 52.9414 38.9199 52.0977 39.8223C51.2539 40.7246 50.0791 41.1758 48.5732 41.1758C47.6299 41.1758 46.7979 40.9707 46.0771 40.5605C45.3564 40.1445 44.8027 39.5498 44.416 38.7764C44.0293 38.0029 43.8359 37.1006 43.8359 36.0693C43.8359 34.4639 44.2549 33.2158 45.0928 32.3252C45.9307 31.4346 47.1084 30.9893 48.626 30.9893C49.5693 30.9893 50.4014 31.1943 51.1221 31.6045C51.8428 32.0146 52.3965 32.6035 52.7832 33.3711C53.1699 34.1387 53.3633 35.0381 53.3633 36.0693ZM64.376 41H61.6953V35.2607C61.6953 34.5518 61.5752 34.0215 61.335 33.6699C61.1006 33.3125 60.7285 33.1338 60.2188 33.1338C59.5332 33.1338 59.0352 33.3857 58.7246 33.8896C58.4141 34.3936 58.2588 35.2227 58.2588 36.377V41H55.5781V31.1738H57.626L57.9863 32.4307H58.1357C58.3994 31.9795 58.7803 31.6279 59.2783 31.376C59.7764 31.1182 60.3477 30.9893 60.9922 30.9893C62.4629 30.9893 63.459 31.4697 63.9805 32.4307H64.2178C64.4814 31.9736 64.8682 31.6191 65.3779 31.3672C65.8936 31.1152 66.4736 30.9893 67.1182 30.9893C68.2314 30.9893 69.0723 31.2764 69.6406 31.8506C70.2148 32.4189 70.502 33.333 70.502 34.5928V41H67.8125V35.2607C67.8125 34.5518 67.6924 34.0215 67.4521 33.6699C67.2178 33.3125 66.8457 33.1338 66.3359 33.1338C65.6797 33.1338 65.1875 33.3682 64.8594 33.8369C64.5371 34.3057 64.376 35.0498 64.376 36.0693V41ZM80.1172 38.082C80.1172 39.0898 79.7656 39.8574 79.0625 40.3848C78.3652 40.9121 77.3193 41.1758 75.9248 41.1758C75.21 41.1758 74.6006 41.126 74.0967 41.0264C73.5928 40.9326 73.1211 40.792 72.6816 40.6045V38.3896C73.1797 38.624 73.7393 38.8203 74.3604 38.9785C74.9873 39.1367 75.5381 39.2158 76.0127 39.2158C76.9854 39.2158 77.4717 38.9346 77.4717 38.3721C77.4717 38.1611 77.4072 37.9912 77.2783 37.8623C77.1494 37.7275 76.9268 37.5781 76.6104 37.4141C76.2939 37.2441 75.8721 37.0479 75.3447 36.8252C74.5889 36.5088 74.0322 36.2158 73.6748 35.9463C73.3232 35.6768 73.0654 35.3691 72.9014 35.0234C72.7432 34.6719 72.6641 34.2412 72.6641 33.7314C72.6641 32.8584 73.001 32.1846 73.6748 31.71C74.3545 31.2295 75.3154 30.9893 76.5576 30.9893C77.7412 30.9893 78.8926 31.2471 80.0117 31.7627L79.2031 33.6963C78.7109 33.4854 78.251 33.3125 77.8232 33.1777C77.3955 33.043 76.959 32.9756 76.5137 32.9756C75.7227 32.9756 75.3271 33.1895 75.3271 33.6172C75.3271 33.8574 75.4531 34.0654 75.7051 34.2412C75.9629 34.417 76.5225 34.6777 77.3838 35.0234C78.1514 35.334 78.7139 35.624 79.0713 35.8936C79.4287 36.1631 79.6924 36.4736 79.8623 36.8252C80.0322 37.1768 80.1172 37.5957 80.1172 38.082Z" fill="#333333"/>
<rect width="761" height="69" transform="translate(81)" fill="white"/>
<path fill-rule="evenodd" clip-rule="evenodd" d="M105.5 27C104.672 27 104 27.6716 104 28.5V33H99.5C98.6716 33 98 33.6716 98 34.5C98 35.3284 98.6716 36 99.5 36H104V40.5C104 41.3284 104.672 42 105.5 42C106.328 42 107 41.3284 107 40.5V36H111.5C112.328 36 113 35.3284 113 34.5C113 33.6716 112.328 33 111.5 33H107V28.5C107 27.6716 106.328 27 105.5 27Z" fill="#A3A9AE"/>
<rect width="914" height="32" transform="translate(0 69)" fill="white"/>
<g clip-path="url(#clip1_188_21221)">
<rect x="20" y="69" width="754" height="32" rx="3" fill="white"/>
<path d="M34.5762 87.4736C34.5762 88.0238 34.4408 88.4977 34.1699 88.8955C33.9033 89.2933 33.5182 89.598 33.0146 89.8096C32.5153 90.0212 31.9186 90.127 31.2246 90.127C30.8861 90.127 30.5623 90.1079 30.2534 90.0698C29.9445 90.0317 29.6525 89.9767 29.3774 89.9048C29.1066 89.8286 28.859 89.7376 28.6348 89.6318V88.1973C29.0114 88.3623 29.4325 88.5125 29.8979 88.6479C30.3634 88.7791 30.8374 88.8447 31.3198 88.8447C31.7134 88.8447 32.0392 88.7939 32.2974 88.6924C32.5597 88.5866 32.7544 88.4385 32.8813 88.248C33.0083 88.0534 33.0718 87.827 33.0718 87.5688C33.0718 87.2938 32.9977 87.061 32.8496 86.8706C32.7015 86.6802 32.4772 86.5067 32.1768 86.3501C31.8805 86.1893 31.5081 86.0179 31.0596 85.8359C30.7549 85.7132 30.4629 85.5736 30.1836 85.417C29.9085 85.2604 29.6631 85.0763 29.4473 84.8647C29.2314 84.6532 29.0601 84.4035 28.9331 84.1157C28.8104 83.8237 28.749 83.481 28.749 83.0874C28.749 82.5627 28.8739 82.1141 29.1235 81.7417C29.3774 81.3693 29.7329 81.0837 30.1899 80.8848C30.6512 80.6859 31.1886 80.5864 31.8022 80.5864C32.2889 80.5864 32.7459 80.6372 33.1733 80.7388C33.605 80.8403 34.0282 80.9842 34.4429 81.1704L33.9604 82.3955C33.5796 82.2389 33.2093 82.1141 32.8496 82.021C32.4941 81.9279 32.1302 81.8813 31.7578 81.8813C31.4362 81.8813 31.1632 81.93 30.939 82.0273C30.7147 82.1247 30.5433 82.2622 30.4248 82.4399C30.3105 82.6134 30.2534 82.8208 30.2534 83.062C30.2534 83.3328 30.319 83.5614 30.4502 83.7476C30.5856 83.9295 30.793 84.0967 31.0723 84.249C31.3558 84.4014 31.7197 84.5706 32.1641 84.7568C32.6761 84.9684 33.1099 85.1906 33.4653 85.4233C33.825 85.6561 34.1001 85.9354 34.2905 86.2612C34.481 86.5828 34.5762 86.987 34.5762 87.4736ZM39.0132 82.8398C39.6395 82.8398 40.1769 82.9689 40.6255 83.2271C41.0741 83.4852 41.4189 83.8512 41.6602 84.3252C41.9014 84.7992 42.022 85.3662 42.022 86.0264V86.8262H37.3311C37.348 87.5075 37.5299 88.0322 37.877 88.4004C38.2282 88.7686 38.7191 88.9526 39.3496 88.9526C39.7982 88.9526 40.2002 88.9103 40.5557 88.8257C40.9154 88.7368 41.2856 88.6077 41.6665 88.4385V89.6509C41.3153 89.8159 40.9577 89.9365 40.5938 90.0127C40.2298 90.0889 39.7939 90.127 39.2861 90.127C38.5964 90.127 37.9891 89.9937 37.4644 89.7271C36.9438 89.4562 36.5355 89.0542 36.2393 88.521C35.9473 87.9878 35.8013 87.3255 35.8013 86.5342C35.8013 85.7471 35.9346 85.0785 36.2012 84.5283C36.4678 83.9782 36.8423 83.5592 37.3247 83.2715C37.8071 82.9837 38.37 82.8398 39.0132 82.8398ZM39.0132 83.9634C38.5435 83.9634 38.1626 84.1157 37.8706 84.4204C37.5828 84.7251 37.4136 85.1715 37.3628 85.7598H40.562C40.5578 85.4085 40.4985 85.0975 40.3843 84.8267C40.2743 84.5558 40.105 84.3442 39.8765 84.1919C39.6522 84.0396 39.3644 83.9634 39.0132 83.9634ZM46.459 82.8398C47.3477 82.8398 48.0184 83.0366 48.4712 83.4302C48.9282 83.8237 49.1567 84.4373 49.1567 85.271V90H48.0967L47.811 89.0034H47.7603C47.5614 89.2573 47.3561 89.4668 47.1445 89.6318C46.9329 89.7969 46.6875 89.9196 46.4082 90C46.1331 90.0846 45.7967 90.127 45.3989 90.127C44.98 90.127 44.6055 90.0508 44.2754 89.8984C43.9453 89.7419 43.6851 89.5049 43.4946 89.1875C43.3042 88.8701 43.209 88.4681 43.209 87.9814C43.209 87.2578 43.4777 86.714 44.0151 86.3501C44.5568 85.9862 45.3735 85.7852 46.4653 85.7471L47.6841 85.7026V85.3345C47.6841 84.8478 47.5698 84.5008 47.3413 84.2935C47.117 84.0861 46.7996 83.9824 46.3892 83.9824C46.0379 83.9824 45.6973 84.0332 45.3672 84.1348C45.0371 84.2363 44.7155 84.3612 44.4023 84.5093L43.9199 83.4556C44.2627 83.2736 44.652 83.1255 45.0879 83.0112C45.528 82.897 45.985 82.8398 46.459 82.8398ZM47.6777 86.6421L46.77 86.6738C46.0252 86.6992 45.5026 86.8262 45.2021 87.0547C44.9017 87.2832 44.7515 87.5964 44.7515 87.9941C44.7515 88.3411 44.8551 88.5951 45.0625 88.7559C45.2699 88.9124 45.5428 88.9907 45.8813 88.9907C46.3976 88.9907 46.825 88.8447 47.1636 88.5527C47.5063 88.2565 47.6777 87.8228 47.6777 87.2515V86.6421ZM54.8062 82.8398C54.9246 82.8398 55.0537 82.8462 55.1934 82.8589C55.333 82.8716 55.4536 82.8885 55.5552 82.9097L55.4155 84.3062C55.3267 84.2808 55.2166 84.2617 55.0854 84.249C54.9585 84.2363 54.8442 84.23 54.7427 84.23C54.4761 84.23 54.2222 84.2744 53.981 84.3633C53.7397 84.4479 53.526 84.5791 53.3398 84.7568C53.1536 84.9303 53.0076 85.1483 52.9019 85.4106C52.7961 85.673 52.7432 85.9777 52.7432 86.3247V90H51.2451V82.9731H52.4131L52.6162 84.2109H52.686C52.8257 83.9613 52.9992 83.7327 53.2065 83.5254C53.4139 83.318 53.6509 83.153 53.9175 83.0303C54.1883 82.9033 54.4845 82.8398 54.8062 82.8398ZM59.6875 90.127C59.0231 90.127 58.4476 89.9979 57.9609 89.7397C57.4743 89.4816 57.0998 89.0859 56.8374 88.5527C56.575 88.0195 56.4438 87.3424 56.4438 86.5215C56.4438 85.6667 56.5877 84.9684 56.8755 84.4268C57.1632 83.8851 57.561 83.4852 58.0688 83.2271C58.5809 82.9689 59.167 82.8398 59.8271 82.8398C60.2461 82.8398 60.6248 82.8822 60.9634 82.9668C61.3062 83.0472 61.596 83.1466 61.833 83.2651L61.3887 84.4585C61.1305 84.3527 60.866 84.2638 60.5952 84.1919C60.3244 84.12 60.0641 84.084 59.8145 84.084C59.404 84.084 59.0612 84.175 58.7861 84.3569C58.5153 84.5389 58.3122 84.8097 58.1768 85.1694C58.0456 85.5291 57.98 85.9756 57.98 86.5088C57.98 87.0251 58.0477 87.4609 58.1831 87.8164C58.3185 88.1676 58.5195 88.4342 58.7861 88.6162C59.0527 88.7939 59.3807 88.8828 59.77 88.8828C60.1551 88.8828 60.5 88.8363 60.8047 88.7432C61.1094 88.6501 61.3971 88.5295 61.668 88.3813V89.6763C61.4014 89.8286 61.1157 89.9408 60.811 90.0127C60.5063 90.0889 60.1318 90.127 59.6875 90.127ZM64.8101 80.123V82.605C64.8101 82.8631 64.8016 83.1149 64.7847 83.3604C64.772 83.6058 64.7572 83.7962 64.7402 83.9316H64.8228C64.9709 83.6862 65.1528 83.4852 65.3687 83.3286C65.5845 83.1678 65.8257 83.0472 66.0923 82.9668C66.3631 82.8864 66.6509 82.8462 66.9556 82.8462C67.493 82.8462 67.95 82.9372 68.3267 83.1191C68.7033 83.2969 68.991 83.5741 69.1899 83.9507C69.3931 84.3273 69.4946 84.8161 69.4946 85.417V90H68.0029V85.6963C68.0029 85.1504 67.8908 84.742 67.6665 84.4712C67.4422 84.1961 67.0952 84.0586 66.6255 84.0586C66.1727 84.0586 65.813 84.1538 65.5464 84.3442C65.284 84.5304 65.0957 84.8076 64.9814 85.1758C64.8672 85.5397 64.8101 85.984 64.8101 86.5088V90H63.3184V80.123H64.8101Z" fill="#A3A9AE"/>
</g>
<rect x="20.5" y="69.5" width="753" height="31" rx="2.5" stroke="#D0D5DA"/>
<g clip-path="url(#clip2_188_21221)">
<rect x="20" y="125" width="429" height="121" rx="12" fill="white"/>
<rect x="36" y="141" width="32" height="32" rx="6" fill="#FF6680"/>
<path d="M50.373 156.907C50.373 158.552 49.9036 159.812 48.9648 160.688C48.0306 161.562 46.6794 162 44.9111 162H42.0811V152.006H45.2188C46.8503 152.006 48.1172 152.437 49.0195 153.298C49.9219 154.159 50.373 155.362 50.373 156.907ZM48.1719 156.962C48.1719 154.815 47.224 153.742 45.3281 153.742H44.2002V160.25H45.1094C47.151 160.25 48.1719 159.154 48.1719 156.962ZM58.5625 162L57.9746 159.327L57.1816 155.95H57.1338L55.7393 162H53.4971L51.3232 154.357H53.4014L54.2832 157.741C54.4245 158.347 54.568 159.184 54.7139 160.25H54.7549C54.7731 159.904 54.8529 159.354 54.9941 158.603L55.1035 158.021L56.0469 154.357H58.3438L59.2393 158.021C59.2575 158.122 59.2848 158.27 59.3213 158.466C59.3623 158.662 59.401 158.871 59.4375 159.095C59.474 159.313 59.5059 159.53 59.5332 159.744C59.5651 159.954 59.5833 160.122 59.5879 160.25H59.6289C59.6699 159.922 59.7428 159.473 59.8477 158.903C59.9525 158.329 60.0277 157.942 60.0732 157.741L60.9893 154.357H63.0332L60.832 162H58.5625Z" fill="white"/>
<path d="M90.7734 157.18C90.7734 158.466 90.5339 159.542 90.0547 160.406C89.5755 161.266 88.8802 161.914 87.9688 162.352C87.0573 162.784 85.9583 163 84.6719 163H81.5V151.578H85.0156C86.1979 151.578 87.2188 151.792 88.0781 152.219C88.9375 152.641 89.6016 153.268 90.0703 154.102C90.5391 154.93 90.7734 155.956 90.7734 157.18ZM88.8203 157.234C88.8203 156.297 88.6719 155.526 88.375 154.922C88.0833 154.318 87.651 153.87 87.0781 153.578C86.5104 153.281 85.8099 153.133 84.9766 153.133H83.375V161.43H84.7031C86.0833 161.43 87.1146 161.078 87.7969 160.375C88.4792 159.672 88.8203 158.625 88.8203 157.234ZM96.4375 154.188C97.5312 154.188 98.3568 154.43 98.9141 154.914C99.4766 155.398 99.7578 156.154 99.7578 157.18V163H98.4531L98.1016 161.773H98.0391C97.7943 162.086 97.5417 162.344 97.2812 162.547C97.0208 162.75 96.7188 162.901 96.375 163C96.0365 163.104 95.6224 163.156 95.1328 163.156C94.6172 163.156 94.1562 163.062 93.75 162.875C93.3438 162.682 93.0234 162.391 92.7891 162C92.5547 161.609 92.4375 161.115 92.4375 160.516C92.4375 159.625 92.7682 158.956 93.4297 158.508C94.0964 158.06 95.1016 157.812 96.4453 157.766L97.9453 157.711V157.258C97.9453 156.659 97.8047 156.232 97.5234 155.977C97.2474 155.721 96.8568 155.594 96.3516 155.594C95.9193 155.594 95.5 155.656 95.0938 155.781C94.6875 155.906 94.2917 156.06 93.9062 156.242L93.3125 154.945C93.7344 154.721 94.2135 154.539 94.75 154.398C95.2917 154.258 95.8542 154.188 96.4375 154.188ZM97.9375 158.867L96.8203 158.906C95.9036 158.938 95.2604 159.094 94.8906 159.375C94.5208 159.656 94.3359 160.042 94.3359 160.531C94.3359 160.958 94.4635 161.271 94.7188 161.469C94.974 161.661 95.3099 161.758 95.7266 161.758C96.362 161.758 96.888 161.578 97.3047 161.219C97.7266 160.854 97.9375 160.32 97.9375 159.617V158.867ZM105.547 161.672C105.786 161.672 106.023 161.651 106.258 161.609C106.492 161.562 106.706 161.508 106.898 161.445V162.836C106.695 162.924 106.432 163 106.109 163.062C105.786 163.125 105.451 163.156 105.102 163.156C104.612 163.156 104.172 163.076 103.781 162.914C103.391 162.747 103.081 162.464 102.852 162.062C102.622 161.661 102.508 161.107 102.508 160.398V155.75H101.328V154.93L102.594 154.281L103.195 152.43H104.352V154.352H106.828V155.75H104.352V160.375C104.352 160.812 104.461 161.138 104.68 161.352C104.898 161.565 105.188 161.672 105.547 161.672ZM112.047 154.188C113.141 154.188 113.966 154.43 114.523 154.914C115.086 155.398 115.367 156.154 115.367 157.18V163H114.062L113.711 161.773H113.648C113.404 162.086 113.151 162.344 112.891 162.547C112.63 162.75 112.328 162.901 111.984 163C111.646 163.104 111.232 163.156 110.742 163.156C110.227 163.156 109.766 163.062 109.359 162.875C108.953 162.682 108.633 162.391 108.398 162C108.164 161.609 108.047 161.115 108.047 160.516C108.047 159.625 108.378 158.956 109.039 158.508C109.706 158.06 110.711 157.812 112.055 157.766L113.555 157.711V157.258C113.555 156.659 113.414 156.232 113.133 155.977C112.857 155.721 112.466 155.594 111.961 155.594C111.529 155.594 111.109 155.656 110.703 155.781C110.297 155.906 109.901 156.06 109.516 156.242L108.922 154.945C109.344 154.721 109.823 154.539 110.359 154.398C110.901 154.258 111.464 154.188 112.047 154.188ZM113.547 158.867L112.43 158.906C111.513 158.938 110.87 159.094 110.5 159.375C110.13 159.656 109.945 160.042 109.945 160.531C109.945 160.958 110.073 161.271 110.328 161.469C110.583 161.661 110.919 161.758 111.336 161.758C111.971 161.758 112.497 161.578 112.914 161.219C113.336 160.854 113.547 160.32 113.547 159.617V158.867ZM129.164 162.992L128.07 158.969C128.018 158.771 127.956 158.531 127.883 158.25C127.81 157.969 127.737 157.68 127.664 157.383C127.591 157.081 127.523 156.802 127.461 156.547C127.404 156.292 127.359 156.094 127.328 155.953H127.266C127.24 156.094 127.198 156.292 127.141 156.547C127.083 156.802 127.018 157.081 126.945 157.383C126.872 157.685 126.799 157.979 126.727 158.266C126.659 158.552 126.596 158.797 126.539 159L125.391 162.992H123.375L120.953 154.344H122.812L123.938 158.641C124.01 158.932 124.081 159.247 124.148 159.586C124.221 159.924 124.284 160.247 124.336 160.555C124.388 160.862 124.427 161.115 124.453 161.312H124.516C124.536 161.172 124.565 160.995 124.602 160.781C124.638 160.562 124.68 160.336 124.727 160.102C124.773 159.862 124.82 159.638 124.867 159.43C124.914 159.216 124.958 159.044 125 158.914L126.328 154.344H128.336L129.609 158.914C129.667 159.112 129.729 159.362 129.797 159.664C129.865 159.961 129.924 160.26 129.977 160.562C130.034 160.859 130.07 161.107 130.086 161.305H130.148C130.169 161.128 130.206 160.888 130.258 160.586C130.315 160.279 130.38 159.953 130.453 159.609C130.526 159.26 130.602 158.938 130.68 158.641L131.828 154.344H133.656L131.219 162.992H129.164ZM142.797 158.656C142.797 159.375 142.703 160.013 142.516 160.57C142.328 161.128 142.055 161.599 141.695 161.984C141.336 162.365 140.904 162.656 140.398 162.859C139.893 163.057 139.323 163.156 138.688 163.156C138.094 163.156 137.549 163.057 137.055 162.859C136.56 162.656 136.13 162.365 135.766 161.984C135.406 161.599 135.128 161.128 134.93 160.57C134.732 160.013 134.633 159.375 134.633 158.656C134.633 157.703 134.797 156.896 135.125 156.234C135.458 155.568 135.932 155.06 136.547 154.711C137.161 154.362 137.893 154.188 138.742 154.188C139.539 154.188 140.242 154.362 140.852 154.711C141.461 155.06 141.938 155.568 142.281 156.234C142.625 156.901 142.797 157.708 142.797 158.656ZM136.523 158.656C136.523 159.286 136.599 159.826 136.75 160.273C136.906 160.721 137.146 161.065 137.469 161.305C137.792 161.539 138.208 161.656 138.719 161.656C139.229 161.656 139.646 161.539 139.969 161.305C140.292 161.065 140.529 160.721 140.68 160.273C140.831 159.826 140.906 159.286 140.906 158.656C140.906 158.026 140.831 157.492 140.68 157.055C140.529 156.612 140.292 156.276 139.969 156.047C139.646 155.812 139.227 155.695 138.711 155.695C137.951 155.695 137.396 155.951 137.047 156.461C136.698 156.971 136.523 157.703 136.523 158.656ZM149.289 154.188C149.435 154.188 149.594 154.195 149.766 154.211C149.938 154.227 150.086 154.247 150.211 154.273L150.039 155.992C149.93 155.961 149.794 155.938 149.633 155.922C149.477 155.906 149.336 155.898 149.211 155.898C148.883 155.898 148.57 155.953 148.273 156.062C147.977 156.167 147.714 156.328 147.484 156.547C147.255 156.76 147.076 157.029 146.945 157.352C146.815 157.674 146.75 158.049 146.75 158.477V163H144.906V154.352H146.344L146.594 155.875H146.68C146.852 155.568 147.065 155.286 147.32 155.031C147.576 154.776 147.867 154.573 148.195 154.422C148.529 154.266 148.893 154.188 149.289 154.188ZM153.648 150.844V156.719C153.648 156.984 153.638 157.276 153.617 157.594C153.596 157.906 153.576 158.201 153.555 158.477H153.594C153.729 158.294 153.891 158.081 154.078 157.836C154.271 157.591 154.453 157.378 154.625 157.195L157.266 154.352H159.375L155.914 158.07L159.602 163H157.445L154.68 159.203L153.648 160.086V163H151.812V150.844H153.648Z" fill="#333333"/>
<rect x="361" y="149" width="16" height="16" rx="8" fill="#4781D1"/>
<path d="M366.746 157.271C366.746 156 367.014 155.053 367.55 154.432C368.089 153.811 368.895 153.5 369.967 153.5C370.333 153.5 370.62 153.522 370.828 153.566V154.652C370.567 154.593 370.31 154.564 370.055 154.564C369.589 154.564 369.208 154.634 368.912 154.775C368.619 154.916 368.399 155.124 368.253 155.399C368.106 155.674 368.02 156.065 367.994 156.572H368.051C368.341 156.074 368.805 155.825 369.444 155.825C370.018 155.825 370.468 156.005 370.793 156.366C371.118 156.726 371.281 157.224 371.281 157.86C371.281 158.545 371.087 159.089 370.701 159.49C370.314 159.889 369.778 160.088 369.092 160.088C368.618 160.088 368.203 159.978 367.849 159.758C367.497 159.539 367.225 159.218 367.031 158.796C366.841 158.374 366.746 157.866 366.746 157.271ZM369.066 159.002C369.356 159.002 369.579 158.906 369.734 158.712C369.889 158.516 369.967 158.238 369.967 157.877C369.967 157.564 369.894 157.318 369.747 157.139C369.604 156.958 369.385 156.867 369.092 156.867C368.817 156.867 368.581 156.956 368.385 157.135C368.191 157.313 368.095 157.521 368.095 157.759C368.095 158.107 368.186 158.402 368.367 158.642C368.552 158.882 368.785 159.002 369.066 159.002Z" fill="white"/>
<g clip-path="url(#clip3_188_21221)">
<path fill-rule="evenodd" clip-rule="evenodd" d="M400.577 149L393.418 149C393.159 149 392.949 149.21 392.949 149.468L392.949 149.499C392.949 149.937 393.12 150.35 393.431 150.661C393.631 150.861 393.873 151.002 394.138 151.077L393.607 156.276C393.064 156.306 392.558 156.532 392.17 156.919C391.753 157.337 391.523 157.892 391.523 158.483L391.523 158.527C391.523 158.786 391.733 158.996 391.991 158.996L395.998 158.996L395.998 162.51C395.999 162.595 396.168 164.026 396.19 164.219C396.211 164.412 396.362 164.549 396.362 164.563C396.378 164.808 396.753 164.999 397 165C397.129 165 397.415 164.948 397.5 164.863C397.578 164.785 397.629 164.68 397.636 164.563C397.637 164.552 397.793 164.37 397.809 164.219C397.826 164.068 398 162.595 398.001 162.504V158.996L402.003 158.996C402.133 158.996 402.25 158.943 402.334 158.859C402.419 158.774 402.472 158.657 402.471 158.528V158.483C402.471 157.892 402.241 157.337 401.824 156.92C401.436 156.532 400.93 156.306 400.388 156.276L399.857 151.078C400.121 151.002 400.364 150.861 400.564 150.661C400.874 150.35 401.045 149.938 401.045 149.499L401.045 149.468C401.045 149.21 400.835 149 400.577 149Z" fill="#3B72A7"/>
</g>
<path fill-rule="evenodd" clip-rule="evenodd" d="M423 151C423 149.895 423.895 149 425 149C426.105 149 427 149.895 427 151C427 152.105 426.105 153 425 153C423.895 153 423 152.105 423 151ZM423 157C423 155.895 423.895 155 425 155C426.105 155 427 155.895 427 157C427 158.105 426.105 159 425 159C423.895 159 423 158.105 423 157ZM425 161C423.895 161 423 161.895 423 163C423 164.105 423.895 165 425 165C426.105 165 427 164.105 427 163C427 161.895 426.105 161 425 161Z" fill="#A3A9AE"/>
<rect x="20" y="189" width="429" height="1" fill="#D0D5DA"/>
<g filter="url(#filter0_b_188_21221)">
<rect x="36" y="206" width="53" height="24" rx="6" fill="#ECEEF1"/>
<path d="M56.6836 218.271C56.6836 219.803 56.2668 220.975 55.4331 221.788C54.6037 222.596 53.4082 223 51.8467 223H49.2759V213.72H52.1196C53.5627 213.72 54.6841 214.12 55.4839 214.919C56.2837 215.719 56.6836 216.836 56.6836 218.271ZM55.541 218.309C55.541 217.099 55.2363 216.187 54.627 215.573C54.0218 214.96 53.1204 214.653 51.9229 214.653H50.355V222.067H51.6689C52.9554 222.067 53.9224 221.752 54.5698 221.121C55.2173 220.486 55.541 219.549 55.541 218.309ZM62.8789 223L62.6694 222.01H62.6187C62.2716 222.446 61.9246 222.742 61.5776 222.898C61.2349 223.051 60.8053 223.127 60.2891 223.127C59.5993 223.127 59.0576 222.949 58.6641 222.594C58.2747 222.238 58.0801 221.733 58.0801 221.077C58.0801 219.672 59.2036 218.935 61.4507 218.868L62.6313 218.83V218.398C62.6313 217.852 62.5129 217.45 62.2759 217.192C62.0431 216.93 61.6686 216.798 61.1523 216.798C60.5726 216.798 59.9167 216.976 59.1846 217.332L58.8608 216.525C59.2036 216.339 59.5781 216.193 59.9844 216.087C60.3949 215.982 60.8053 215.929 61.2158 215.929C62.0452 215.929 62.6589 216.113 63.0566 216.481C63.4587 216.849 63.6597 217.439 63.6597 218.252V223H62.8789ZM60.4985 222.257C61.1545 222.257 61.6686 222.077 62.041 221.718C62.4176 221.358 62.606 220.854 62.606 220.207V219.579L61.5522 219.623C60.7144 219.653 60.1092 219.784 59.7368 220.017C59.3687 220.245 59.1846 220.603 59.1846 221.089C59.1846 221.47 59.2988 221.76 59.5273 221.959C59.7601 222.158 60.0838 222.257 60.4985 222.257ZM68.084 222.257C68.2702 222.257 68.45 222.245 68.6235 222.219C68.797 222.19 68.9346 222.16 69.0361 222.13V222.937C68.9219 222.992 68.7526 223.036 68.5283 223.07C68.3083 223.108 68.1094 223.127 67.9316 223.127C66.5859 223.127 65.9131 222.418 65.9131 221V216.862H64.9165V216.354L65.9131 215.916L66.3574 214.431H66.9668V216.043H68.9854V216.862H66.9668V220.956C66.9668 221.375 67.0662 221.697 67.2651 221.921C67.464 222.145 67.737 222.257 68.084 222.257ZM74.7109 223L74.5015 222.01H74.4507C74.1037 222.446 73.7567 222.742 73.4097 222.898C73.0669 223.051 72.6374 223.127 72.1211 223.127C71.4313 223.127 70.8896 222.949 70.4961 222.594C70.1068 222.238 69.9121 221.733 69.9121 221.077C69.9121 219.672 71.0356 218.935 73.2827 218.868L74.4634 218.83V218.398C74.4634 217.852 74.3449 217.45 74.1079 217.192C73.8752 216.93 73.5007 216.798 72.9844 216.798C72.4046 216.798 71.7487 216.976 71.0166 217.332L70.6929 216.525C71.0356 216.339 71.4102 216.193 71.8164 216.087C72.2269 215.982 72.6374 215.929 73.0479 215.929C73.8773 215.929 74.4909 216.113 74.8887 216.481C75.2907 216.849 75.4917 217.439 75.4917 218.252V223H74.7109ZM72.3306 222.257C72.9865 222.257 73.5007 222.077 73.873 221.718C74.2497 221.358 74.438 220.854 74.438 220.207V219.579L73.3843 219.623C72.5464 219.653 71.9412 219.784 71.5688 220.017C71.2007 220.245 71.0166 220.603 71.0166 221.089C71.0166 221.47 71.1309 221.76 71.3594 221.959C71.5921 222.158 71.9159 222.257 72.3306 222.257Z" fill="#333333"/>
</g>
<g filter="url(#filter1_b_188_21221)">
<rect x="93" y="206" width="58" height="24" rx="6" fill="#ECEEF1"/>
<path d="M109.132 223H108.053V214.678H105.114V213.72H112.071V214.678H109.132V223ZM116.254 223.127C115.226 223.127 114.414 222.814 113.817 222.188C113.224 221.561 112.928 220.692 112.928 219.579C112.928 218.457 113.203 217.566 113.753 216.906C114.308 216.246 115.05 215.916 115.981 215.916C116.853 215.916 117.543 216.204 118.051 216.779C118.559 217.351 118.812 218.106 118.812 219.045V219.712H114.02C114.041 220.529 114.246 221.149 114.636 221.572C115.029 221.995 115.582 222.207 116.292 222.207C117.042 222.207 117.782 222.05 118.514 221.737V222.676C118.142 222.837 117.788 222.951 117.454 223.019C117.124 223.091 116.724 223.127 116.254 223.127ZM115.969 216.798C115.41 216.798 114.964 216.98 114.629 217.344C114.299 217.708 114.105 218.212 114.045 218.855H117.683C117.683 218.191 117.535 217.683 117.238 217.332C116.942 216.976 116.519 216.798 115.969 216.798ZM124.894 223L124.684 222.01H124.633C124.286 222.446 123.939 222.742 123.592 222.898C123.25 223.051 122.82 223.127 122.304 223.127C121.614 223.127 121.072 222.949 120.679 222.594C120.289 222.238 120.095 221.733 120.095 221.077C120.095 219.672 121.218 218.935 123.465 218.868L124.646 218.83V218.398C124.646 217.852 124.528 217.45 124.291 217.192C124.058 216.93 123.683 216.798 123.167 216.798C122.587 216.798 121.931 216.976 121.199 217.332L120.875 216.525C121.218 216.339 121.593 216.193 121.999 216.087C122.41 215.982 122.82 215.929 123.23 215.929C124.06 215.929 124.674 216.113 125.071 216.481C125.473 216.849 125.674 217.439 125.674 218.252V223H124.894ZM122.513 222.257C123.169 222.257 123.683 222.077 124.056 221.718C124.432 221.358 124.621 220.854 124.621 220.207V219.579L123.567 219.623C122.729 219.653 122.124 219.784 121.751 220.017C121.383 220.245 121.199 220.603 121.199 221.089C121.199 221.47 121.313 221.76 121.542 221.959C121.775 222.158 122.098 222.257 122.513 222.257ZM136.719 223V218.474C136.719 217.92 136.601 217.505 136.364 217.23C136.127 216.951 135.759 216.811 135.259 216.811C134.603 216.811 134.119 216.999 133.806 217.376C133.493 217.753 133.336 218.332 133.336 219.115V223H132.282V218.474C132.282 217.92 132.164 217.505 131.927 217.23C131.69 216.951 131.319 216.811 130.816 216.811C130.156 216.811 129.671 217.01 129.362 217.408C129.058 217.801 128.905 218.449 128.905 219.35V223H127.852V216.043H128.708L128.88 216.995H128.931C129.13 216.657 129.409 216.392 129.769 216.202C130.132 216.011 130.539 215.916 130.987 215.916C132.075 215.916 132.786 216.31 133.12 217.097H133.171C133.378 216.733 133.679 216.445 134.072 216.233C134.466 216.022 134.914 215.916 135.418 215.916C136.205 215.916 136.793 216.119 137.183 216.525C137.576 216.927 137.773 217.573 137.773 218.461V223H136.719Z" fill="#333333"/>
</g>
</g>
<rect x="20.5" y="125.5" width="428" height="120" rx="11.5" stroke="#D0D5DA"/>
<g clip-path="url(#clip4_188_21221)">
<rect x="465" y="125" width="429" height="121" rx="12" fill="white"/>
<rect x="481" y="141" width="32" height="32" rx="6" fill="#B679F2"/>
<path d="M496.501 162H494.416V152.006H500.145V153.742H496.501V156.319H499.892V158.049H496.501V162Z" fill="white"/>
<path d="M528.359 163H526.5V151.578H532.953V153.156H528.359V156.719H532.656V158.289H528.359V163ZM542.5 158.656C542.5 159.375 542.406 160.013 542.219 160.57C542.031 161.128 541.758 161.599 541.398 161.984C541.039 162.365 540.607 162.656 540.102 162.859C539.596 163.057 539.026 163.156 538.391 163.156C537.797 163.156 537.253 163.057 536.758 162.859C536.263 162.656 535.833 162.365 535.469 161.984C535.109 161.599 534.831 161.128 534.633 160.57C534.435 160.013 534.336 159.375 534.336 158.656C534.336 157.703 534.5 156.896 534.828 156.234C535.161 155.568 535.635 155.06 536.25 154.711C536.865 154.362 537.596 154.188 538.445 154.188C539.242 154.188 539.945 154.362 540.555 154.711C541.164 155.06 541.641 155.568 541.984 156.234C542.328 156.901 542.5 157.708 542.5 158.656ZM536.227 158.656C536.227 159.286 536.302 159.826 536.453 160.273C536.609 160.721 536.849 161.065 537.172 161.305C537.495 161.539 537.911 161.656 538.422 161.656C538.932 161.656 539.349 161.539 539.672 161.305C539.995 161.065 540.232 160.721 540.383 160.273C540.534 159.826 540.609 159.286 540.609 158.656C540.609 158.026 540.534 157.492 540.383 157.055C540.232 156.612 539.995 156.276 539.672 156.047C539.349 155.812 538.93 155.695 538.414 155.695C537.654 155.695 537.099 155.951 536.75 156.461C536.401 156.971 536.227 157.703 536.227 158.656ZM548.992 154.188C549.138 154.188 549.297 154.195 549.469 154.211C549.641 154.227 549.789 154.247 549.914 154.273L549.742 155.992C549.633 155.961 549.497 155.938 549.336 155.922C549.18 155.906 549.039 155.898 548.914 155.898C548.586 155.898 548.273 155.953 547.977 156.062C547.68 156.167 547.417 156.328 547.188 156.547C546.958 156.76 546.779 157.029 546.648 157.352C546.518 157.674 546.453 158.049 546.453 158.477V163H544.609V154.352H546.047L546.297 155.875H546.383C546.555 155.568 546.768 155.286 547.023 155.031C547.279 154.776 547.57 154.573 547.898 154.422C548.232 154.266 548.596 154.188 548.992 154.188ZM561.289 154.188C562.258 154.188 562.987 154.438 563.477 154.938C563.971 155.438 564.219 156.24 564.219 157.344V163H562.383V157.672C562.383 157.016 562.255 156.521 562 156.188C561.745 155.854 561.357 155.688 560.836 155.688C560.107 155.688 559.581 155.922 559.258 156.391C558.94 156.854 558.781 157.529 558.781 158.414V163H556.945V157.672C556.945 157.234 556.888 156.87 556.773 156.578C556.664 156.281 556.495 156.06 556.266 155.914C556.036 155.763 555.747 155.688 555.398 155.688C554.893 155.688 554.49 155.802 554.188 156.031C553.891 156.26 553.677 156.599 553.547 157.047C553.417 157.49 553.352 158.034 553.352 158.68V163H551.516V154.352H552.945L553.203 155.516H553.305C553.482 155.214 553.701 154.966 553.961 154.773C554.227 154.576 554.521 154.43 554.844 154.336C555.167 154.237 555.503 154.188 555.852 154.188C556.497 154.188 557.042 154.302 557.484 154.531C557.927 154.755 558.258 155.099 558.477 155.562H558.617C558.888 155.094 559.266 154.747 559.75 154.523C560.234 154.299 560.747 154.188 561.289 154.188ZM572.594 160.531C572.594 161.099 572.456 161.578 572.18 161.969C571.904 162.359 571.5 162.656 570.969 162.859C570.443 163.057 569.797 163.156 569.031 163.156C568.427 163.156 567.906 163.112 567.469 163.023C567.036 162.94 566.628 162.81 566.242 162.633V161.047C566.654 161.24 567.115 161.406 567.625 161.547C568.141 161.688 568.628 161.758 569.086 161.758C569.69 161.758 570.125 161.664 570.391 161.477C570.656 161.284 570.789 161.029 570.789 160.711C570.789 160.523 570.734 160.357 570.625 160.211C570.521 160.06 570.323 159.906 570.031 159.75C569.745 159.589 569.323 159.396 568.766 159.172C568.219 158.953 567.758 158.734 567.383 158.516C567.008 158.297 566.724 158.034 566.531 157.727C566.339 157.414 566.242 157.016 566.242 156.531C566.242 155.766 566.544 155.185 567.148 154.789C567.758 154.388 568.562 154.188 569.562 154.188C570.094 154.188 570.594 154.242 571.062 154.352C571.536 154.456 572 154.609 572.453 154.812L571.875 156.195C571.484 156.023 571.091 155.883 570.695 155.773C570.305 155.659 569.906 155.602 569.5 155.602C569.026 155.602 568.664 155.674 568.414 155.82C568.169 155.966 568.047 156.174 568.047 156.445C568.047 156.648 568.107 156.82 568.227 156.961C568.346 157.102 568.552 157.242 568.844 157.383C569.141 157.523 569.552 157.698 570.078 157.906C570.594 158.104 571.039 158.312 571.414 158.531C571.794 158.745 572.086 159.008 572.289 159.32C572.492 159.633 572.594 160.036 572.594 160.531Z" fill="#333333"/>
<rect x="465" y="189" width="429" height="1" fill="#D0D5DA"/>
<g filter="url(#filter2_b_188_21221)">
<rect x="481" y="206" width="40" height="24" rx="6" fill="#ECEEF1"/>
<path fill-rule="evenodd" clip-rule="evenodd" d="M497 211L493 213.625L497 216.249L493 218.874L497 221.499L501 218.874L505 221.499L509 218.874L505 216.249L509 213.625L505 211L501 213.625L497 211ZM501 213.625L505 216.249L501 218.874L497 216.249L501 213.625Z" fill="#0062FF"/>
<path d="M501 219.751L497 222.375L501 225L505 222.375L501 219.751Z" fill="#0062FF"/>
</g>
<g filter="url(#filter3_b_188_21221)">
<rect x="525" y="206" width="58" height="24" rx="6" fill="#F3F4F4"/>
<path d="M541.132 223H540.053V214.678H537.114V213.72H544.071V214.678H541.132V223ZM548.254 223.127C547.226 223.127 546.414 222.814 545.817 222.188C545.224 221.561 544.928 220.692 544.928 219.579C544.928 218.457 545.203 217.566 545.753 216.906C546.308 216.246 547.05 215.916 547.981 215.916C548.853 215.916 549.543 216.204 550.051 216.779C550.559 217.351 550.812 218.106 550.812 219.045V219.712H546.02C546.041 220.529 546.246 221.149 546.636 221.572C547.029 221.995 547.582 222.207 548.292 222.207C549.042 222.207 549.782 222.05 550.514 221.737V222.676C550.142 222.837 549.788 222.951 549.454 223.019C549.124 223.091 548.724 223.127 548.254 223.127ZM547.969 216.798C547.41 216.798 546.964 216.98 546.629 217.344C546.299 217.708 546.105 218.212 546.045 218.855H549.683C549.683 218.191 549.535 217.683 549.238 217.332C548.942 216.976 548.519 216.798 547.969 216.798ZM556.894 223L556.684 222.01H556.633C556.286 222.446 555.939 222.742 555.592 222.898C555.25 223.051 554.82 223.127 554.304 223.127C553.614 223.127 553.072 222.949 552.679 222.594C552.289 222.238 552.095 221.733 552.095 221.077C552.095 219.672 553.218 218.935 555.465 218.868L556.646 218.83V218.398C556.646 217.852 556.528 217.45 556.291 217.192C556.058 216.93 555.683 216.798 555.167 216.798C554.587 216.798 553.931 216.976 553.199 217.332L552.875 216.525C553.218 216.339 553.593 216.193 553.999 216.087C554.41 215.982 554.82 215.929 555.23 215.929C556.06 215.929 556.674 216.113 557.071 216.481C557.473 216.849 557.674 217.439 557.674 218.252V223H556.894ZM554.513 222.257C555.169 222.257 555.683 222.077 556.056 221.718C556.432 221.358 556.621 220.854 556.621 220.207V219.579L555.567 219.623C554.729 219.653 554.124 219.784 553.751 220.017C553.383 220.245 553.199 220.603 553.199 221.089C553.199 221.47 553.313 221.76 553.542 221.959C553.775 222.158 554.098 222.257 554.513 222.257ZM568.719 223V218.474C568.719 217.92 568.601 217.505 568.364 217.23C568.127 216.951 567.759 216.811 567.259 216.811C566.603 216.811 566.119 216.999 565.806 217.376C565.493 217.753 565.336 218.332 565.336 219.115V223H564.282V218.474C564.282 217.92 564.164 217.505 563.927 217.23C563.69 216.951 563.319 216.811 562.816 216.811C562.156 216.811 561.671 217.01 561.362 217.408C561.058 217.801 560.905 218.449 560.905 219.35V223H559.852V216.043H560.708L560.88 216.995H560.931C561.13 216.657 561.409 216.392 561.769 216.202C562.132 216.011 562.539 215.916 562.987 215.916C564.075 215.916 564.786 216.31 565.12 217.097H565.171C565.378 216.733 565.679 216.445 566.072 216.233C566.466 216.022 566.914 215.916 567.418 215.916C568.205 215.916 568.793 216.119 569.183 216.525C569.576 216.927 569.773 217.573 569.773 218.461V223H568.719Z" fill="#333333"/>
</g>
</g>
<rect x="465.5" y="125.5" width="428" height="120" rx="11.5" stroke="#D0D5DA"/>
<g clip-path="url(#clip5_188_21221)">
<rect x="20" y="262" width="429" height="121" rx="12" fill="white"/>
<rect x="36" y="278" width="32" height="32" rx="6" fill="#6191F2"/>
<path d="M47.6455 293.388H51.6104V298.569C50.9678 298.779 50.3617 298.925 49.792 299.007C49.2269 299.093 48.6481 299.137 48.0557 299.137C46.5472 299.137 45.3942 298.695 44.5967 297.811C43.8037 296.922 43.4072 295.648 43.4072 293.989C43.4072 292.376 43.8675 291.118 44.7881 290.216C45.7132 289.313 46.9938 288.862 48.6299 288.862C49.6553 288.862 50.6442 289.067 51.5967 289.478L50.8926 291.173C50.1634 290.808 49.4046 290.626 48.6162 290.626C47.7002 290.626 46.9665 290.934 46.415 291.549C45.8636 292.164 45.5879 292.991 45.5879 294.03C45.5879 295.115 45.8089 295.944 46.251 296.519C46.6976 297.088 47.3447 297.373 48.1924 297.373C48.6344 297.373 49.0833 297.327 49.5391 297.236V295.151H47.6455V293.388ZM55.4932 295.165C55.4932 295.922 55.6162 296.493 55.8623 296.881C56.113 297.268 56.5186 297.462 57.0791 297.462C57.6351 297.462 58.0339 297.271 58.2754 296.888C58.5215 296.5 58.6445 295.926 58.6445 295.165C58.6445 294.409 58.5215 293.841 58.2754 293.463C58.0293 293.085 57.626 292.896 57.0654 292.896C56.5094 292.896 56.1084 293.085 55.8623 293.463C55.6162 293.837 55.4932 294.404 55.4932 295.165ZM60.7773 295.165C60.7773 296.409 60.4492 297.382 59.793 298.084C59.1367 298.786 58.223 299.137 57.0518 299.137C56.318 299.137 55.6709 298.977 55.1104 298.658C54.5498 298.335 54.1191 297.872 53.8184 297.271C53.5176 296.669 53.3672 295.967 53.3672 295.165C53.3672 293.916 53.693 292.946 54.3447 292.253C54.9964 291.56 55.9124 291.214 57.0928 291.214C57.8265 291.214 58.4736 291.373 59.0342 291.692C59.5947 292.011 60.0254 292.469 60.3262 293.066C60.627 293.663 60.7773 294.363 60.7773 295.165Z" fill="white"/>
<path d="M86.1094 293.797H90.375V299.531C89.776 299.729 89.1562 299.883 88.5156 299.992C87.875 300.102 87.1562 300.156 86.3594 300.156C85.1979 300.156 84.2135 299.927 83.4062 299.469C82.6042 299.005 81.9948 298.336 81.5781 297.461C81.1615 296.581 80.9531 295.521 80.9531 294.281C80.9531 293.089 81.1849 292.055 81.6484 291.18C82.112 290.299 82.7865 289.62 83.6719 289.141C84.5573 288.656 85.6302 288.414 86.8906 288.414C87.5104 288.414 88.1094 288.477 88.6875 288.602C89.2708 288.721 89.8047 288.888 90.2891 289.102L89.6328 290.648C89.2474 290.466 88.8151 290.312 88.3359 290.188C87.8568 290.062 87.3594 290 86.8438 290C86.026 290 85.3203 290.177 84.7266 290.531C84.138 290.885 83.6849 291.385 83.3672 292.031C83.0495 292.672 82.8906 293.43 82.8906 294.305C82.8906 295.154 83.0182 295.898 83.2734 296.539C83.5286 297.18 83.9271 297.68 84.4688 298.039C85.0156 298.393 85.7214 298.57 86.5859 298.57C87.0182 298.57 87.3854 298.547 87.6875 298.5C87.9896 298.453 88.2682 298.401 88.5234 298.344V295.398H86.1094V293.797ZM96.3672 291.188C97.138 291.188 97.7995 291.346 98.3516 291.664C98.9036 291.982 99.3281 292.432 99.625 293.016C99.9219 293.599 100.07 294.297 100.07 295.109V296.094H94.2969C94.3177 296.932 94.5417 297.578 94.9688 298.031C95.401 298.484 96.0052 298.711 96.7812 298.711C97.3333 298.711 97.8281 298.659 98.2656 298.555C98.7083 298.445 99.1641 298.286 99.6328 298.078V299.57C99.2005 299.773 98.7604 299.922 98.3125 300.016C97.8646 300.109 97.3281 300.156 96.7031 300.156C95.8542 300.156 95.1068 299.992 94.4609 299.664C93.8203 299.331 93.3177 298.836 92.9531 298.18C92.5938 297.523 92.4141 296.708 92.4141 295.734C92.4141 294.766 92.5781 293.943 92.9062 293.266C93.2344 292.589 93.6953 292.073 94.2891 291.719C94.8828 291.365 95.5755 291.188 96.3672 291.188ZM96.3672 292.57C95.7891 292.57 95.3203 292.758 94.9609 293.133C94.6068 293.508 94.3984 294.057 94.3359 294.781H98.2734C98.2682 294.349 98.1953 293.966 98.0547 293.633C97.9193 293.299 97.7109 293.039 97.4297 292.852C97.1536 292.664 96.7995 292.57 96.3672 292.57ZM105.359 298.672C105.599 298.672 105.836 298.651 106.07 298.609C106.305 298.562 106.518 298.508 106.711 298.445V299.836C106.508 299.924 106.245 300 105.922 300.062C105.599 300.125 105.263 300.156 104.914 300.156C104.424 300.156 103.984 300.076 103.594 299.914C103.203 299.747 102.893 299.464 102.664 299.062C102.435 298.661 102.32 298.107 102.32 297.398V292.75H101.141V291.93L102.406 291.281L103.008 289.43H104.164V291.352H106.641V292.75H104.164V297.375C104.164 297.812 104.273 298.138 104.492 298.352C104.711 298.565 105 298.672 105.359 298.672ZM117.008 291.188C117.154 291.188 117.312 291.195 117.484 291.211C117.656 291.227 117.805 291.247 117.93 291.273L117.758 292.992C117.648 292.961 117.513 292.938 117.352 292.922C117.195 292.906 117.055 292.898 116.93 292.898C116.602 292.898 116.289 292.953 115.992 293.062C115.695 293.167 115.432 293.328 115.203 293.547C114.974 293.76 114.794 294.029 114.664 294.352C114.534 294.674 114.469 295.049 114.469 295.477V300H112.625V291.352H114.062L114.312 292.875H114.398C114.57 292.568 114.784 292.286 115.039 292.031C115.294 291.776 115.586 291.573 115.914 291.422C116.247 291.266 116.612 291.188 117.008 291.188ZM121.367 291.352V300H119.531V291.352H121.367ZM120.461 288.039C120.742 288.039 120.984 288.115 121.188 288.266C121.396 288.417 121.5 288.677 121.5 289.047C121.5 289.411 121.396 289.672 121.188 289.828C120.984 289.979 120.742 290.055 120.461 290.055C120.169 290.055 119.922 289.979 119.719 289.828C119.521 289.672 119.422 289.411 119.422 289.047C119.422 288.677 119.521 288.417 119.719 288.266C119.922 288.115 120.169 288.039 120.461 288.039ZM126.906 300.156C125.875 300.156 125.047 299.781 124.422 299.031C123.802 298.276 123.492 297.164 123.492 295.695C123.492 294.211 123.807 293.089 124.438 292.328C125.073 291.568 125.909 291.188 126.945 291.188C127.383 291.188 127.766 291.247 128.094 291.367C128.422 291.482 128.703 291.638 128.938 291.836C129.177 292.034 129.38 292.255 129.547 292.5H129.633C129.607 292.339 129.576 292.107 129.539 291.805C129.508 291.497 129.492 291.214 129.492 290.953V287.844H131.336V300H129.898L129.57 298.82H129.492C129.336 299.07 129.138 299.297 128.898 299.5C128.664 299.698 128.383 299.857 128.055 299.977C127.732 300.096 127.349 300.156 126.906 300.156ZM127.422 298.664C128.208 298.664 128.763 298.438 129.086 297.984C129.409 297.531 129.576 296.852 129.586 295.945V295.703C129.586 294.734 129.43 293.992 129.117 293.477C128.805 292.956 128.234 292.695 127.406 292.695C126.745 292.695 126.24 292.964 125.891 293.5C125.547 294.031 125.375 294.773 125.375 295.727C125.375 296.68 125.547 297.409 125.891 297.914C126.24 298.414 126.75 298.664 127.422 298.664ZM145.781 295.656C145.781 296.375 145.688 297.013 145.5 297.57C145.312 298.128 145.039 298.599 144.68 298.984C144.32 299.365 143.888 299.656 143.383 299.859C142.878 300.057 142.307 300.156 141.672 300.156C141.078 300.156 140.534 300.057 140.039 299.859C139.544 299.656 139.115 299.365 138.75 298.984C138.391 298.599 138.112 298.128 137.914 297.57C137.716 297.013 137.617 296.375 137.617 295.656C137.617 294.703 137.781 293.896 138.109 293.234C138.443 292.568 138.917 292.06 139.531 291.711C140.146 291.362 140.878 291.188 141.727 291.188C142.523 291.188 143.227 291.362 143.836 291.711C144.445 292.06 144.922 292.568 145.266 293.234C145.609 293.901 145.781 294.708 145.781 295.656ZM139.508 295.656C139.508 296.286 139.583 296.826 139.734 297.273C139.891 297.721 140.13 298.065 140.453 298.305C140.776 298.539 141.193 298.656 141.703 298.656C142.214 298.656 142.63 298.539 142.953 298.305C143.276 298.065 143.513 297.721 143.664 297.273C143.815 296.826 143.891 296.286 143.891 295.656C143.891 295.026 143.815 294.492 143.664 294.055C143.513 293.612 143.276 293.276 142.953 293.047C142.63 292.812 142.211 292.695 141.695 292.695C140.935 292.695 140.38 292.951 140.031 293.461C139.682 293.971 139.508 294.703 139.508 295.656ZM152.211 292.75H150.109V300H148.273V292.75H146.859V291.867L148.273 291.328V290.727C148.273 289.992 148.388 289.409 148.617 288.977C148.852 288.544 149.185 288.234 149.617 288.047C150.055 287.854 150.576 287.758 151.18 287.758C151.576 287.758 151.938 287.792 152.266 287.859C152.594 287.922 152.87 287.995 153.094 288.078L152.617 289.469C152.44 289.411 152.242 289.359 152.023 289.312C151.805 289.26 151.57 289.234 151.32 289.234C150.904 289.234 150.596 289.365 150.398 289.625C150.206 289.885 150.109 290.266 150.109 290.766V291.352H152.211V292.75Z" fill="#333333"/>
<path fill-rule="evenodd" clip-rule="evenodd" d="M423 288C423 286.895 423.895 286 425 286C426.105 286 427 286.895 427 288C427 289.105 426.105 290 425 290C423.895 290 423 289.105 423 288ZM423 294C423 292.895 423.895 292 425 292C426.105 292 427 292.895 427 294C427 295.105 426.105 296 425 296C423.895 296 423 295.105 423 294ZM425 298C423.895 298 423 298.895 423 300C423 301.105 423.895 302 425 302C426.105 302 427 301.105 427 300C427 298.895 426.105 298 425 298Z" fill="#A3A9AE"/>
</g>
<rect x="20.5" y="262.5" width="428" height="120" rx="11.5" stroke="#D0D5DA"/>
<g clip-path="url(#clip6_188_21221)">
<rect x="465" y="262" width="429" height="121" rx="12" fill="white"/>
<rect x="481" y="278" width="32" height="32" rx="6" fill="#1FCECB"/>
<path d="M495.756 293.442H496.439C497.109 293.442 497.604 293.331 497.923 293.107C498.242 292.884 498.401 292.533 498.401 292.055C498.401 291.581 498.237 291.243 497.909 291.043C497.586 290.842 497.082 290.742 496.398 290.742H495.756V293.442ZM495.756 295.165V299H493.637V289.006H496.549C497.907 289.006 498.912 289.254 499.563 289.751C500.215 290.243 500.541 290.993 500.541 292C500.541 292.588 500.379 293.112 500.056 293.572C499.732 294.028 499.274 294.386 498.682 294.646C500.186 296.892 501.165 298.344 501.621 299H499.27L496.884 295.165H495.756Z" fill="white"/>
<path d="M529.711 288.578C530.695 288.578 531.508 288.698 532.148 288.938C532.794 289.177 533.273 289.542 533.586 290.031C533.904 290.521 534.062 291.143 534.062 291.898C534.062 292.461 533.958 292.94 533.75 293.336C533.542 293.732 533.268 294.06 532.93 294.32C532.591 294.581 532.229 294.789 531.844 294.945L535.086 300H532.969L530.211 295.422H528.375V300H526.5V288.578H529.711ZM529.586 290.141H528.375V293.875H529.672C530.542 293.875 531.172 293.714 531.562 293.391C531.958 293.068 532.156 292.591 532.156 291.961C532.156 291.299 531.945 290.831 531.523 290.555C531.107 290.279 530.461 290.141 529.586 290.141ZM544.188 295.656C544.188 296.375 544.094 297.013 543.906 297.57C543.719 298.128 543.445 298.599 543.086 298.984C542.727 299.365 542.294 299.656 541.789 299.859C541.284 300.057 540.714 300.156 540.078 300.156C539.484 300.156 538.94 300.057 538.445 299.859C537.951 299.656 537.521 299.365 537.156 298.984C536.797 298.599 536.518 298.128 536.32 297.57C536.122 297.013 536.023 296.375 536.023 295.656C536.023 294.703 536.188 293.896 536.516 293.234C536.849 292.568 537.323 292.06 537.938 291.711C538.552 291.362 539.284 291.188 540.133 291.188C540.93 291.188 541.633 291.362 542.242 291.711C542.852 292.06 543.328 292.568 543.672 293.234C544.016 293.901 544.188 294.708 544.188 295.656ZM537.914 295.656C537.914 296.286 537.99 296.826 538.141 297.273C538.297 297.721 538.536 298.065 538.859 298.305C539.182 298.539 539.599 298.656 540.109 298.656C540.62 298.656 541.036 298.539 541.359 298.305C541.682 298.065 541.919 297.721 542.07 297.273C542.221 296.826 542.297 296.286 542.297 295.656C542.297 295.026 542.221 294.492 542.07 294.055C541.919 293.612 541.682 293.276 541.359 293.047C541.036 292.812 540.617 292.695 540.102 292.695C539.341 292.695 538.786 292.951 538.438 293.461C538.089 293.971 537.914 294.703 537.914 295.656ZM548.141 300H546.297V287.844H548.141V300ZM552.609 300H550.766V287.844H552.609V300ZM557.07 291.352V300H555.234V291.352H557.07ZM556.164 288.039C556.445 288.039 556.688 288.115 556.891 288.266C557.099 288.417 557.203 288.677 557.203 289.047C557.203 289.411 557.099 289.672 556.891 289.828C556.688 289.979 556.445 290.055 556.164 290.055C555.872 290.055 555.625 289.979 555.422 289.828C555.224 289.672 555.125 289.411 555.125 289.047C555.125 288.677 555.224 288.417 555.422 288.266C555.625 288.115 555.872 288.039 556.164 288.039ZM564.211 291.188C565.185 291.188 565.943 291.44 566.484 291.945C567.031 292.445 567.305 293.25 567.305 294.359V300H565.469V294.703C565.469 294.031 565.331 293.529 565.055 293.195C564.779 292.857 564.352 292.688 563.773 292.688C562.935 292.688 562.352 292.945 562.023 293.461C561.701 293.977 561.539 294.724 561.539 295.703V300H559.703V291.352H561.133L561.391 292.523H561.492C561.68 292.221 561.911 291.974 562.188 291.781C562.469 291.583 562.781 291.435 563.125 291.336C563.474 291.237 563.836 291.188 564.211 291.188ZM572.344 303.844C571.172 303.844 570.273 303.633 569.648 303.211C569.023 302.789 568.711 302.198 568.711 301.438C568.711 300.906 568.878 300.456 569.211 300.086C569.544 299.721 570.021 299.469 570.641 299.328C570.406 299.224 570.203 299.062 570.031 298.844C569.865 298.62 569.781 298.372 569.781 298.102C569.781 297.779 569.872 297.503 570.055 297.273C570.237 297.044 570.51 296.823 570.875 296.609C570.422 296.417 570.057 296.104 569.781 295.672C569.51 295.234 569.375 294.721 569.375 294.133C569.375 293.508 569.508 292.977 569.773 292.539C570.039 292.096 570.427 291.76 570.938 291.531C571.448 291.297 572.065 291.18 572.789 291.18C572.945 291.18 573.115 291.19 573.297 291.211C573.484 291.227 573.656 291.247 573.812 291.273C573.974 291.294 574.096 291.318 574.18 291.344H577.172V292.367L575.703 292.641C575.844 292.839 575.956 293.065 576.039 293.32C576.122 293.57 576.164 293.844 576.164 294.141C576.164 295.036 575.854 295.742 575.234 296.258C574.62 296.768 573.771 297.023 572.688 297.023C572.427 297.013 572.174 296.992 571.93 296.961C571.742 297.076 571.599 297.203 571.5 297.344C571.401 297.479 571.352 297.633 571.352 297.805C571.352 297.945 571.401 298.06 571.5 298.148C571.599 298.232 571.745 298.294 571.938 298.336C572.135 298.378 572.375 298.398 572.656 298.398H574.148C575.096 298.398 575.82 298.599 576.32 299C576.82 299.401 577.07 299.99 577.07 300.766C577.07 301.75 576.664 302.508 575.852 303.039C575.039 303.576 573.87 303.844 572.344 303.844ZM572.414 302.555C573.055 302.555 573.594 302.492 574.031 302.367C574.469 302.242 574.799 302.062 575.023 301.828C575.247 301.599 575.359 301.326 575.359 301.008C575.359 300.727 575.289 300.51 575.148 300.359C575.008 300.208 574.797 300.104 574.516 300.047C574.234 299.99 573.885 299.961 573.469 299.961H572.109C571.771 299.961 571.471 300.013 571.211 300.117C570.951 300.227 570.747 300.383 570.602 300.586C570.461 300.789 570.391 301.034 570.391 301.32C570.391 301.716 570.565 302.021 570.914 302.234C571.268 302.448 571.768 302.555 572.414 302.555ZM572.773 295.82C573.31 295.82 573.708 295.674 573.969 295.383C574.229 295.086 574.359 294.669 574.359 294.133C574.359 293.549 574.224 293.112 573.953 292.82C573.688 292.529 573.292 292.383 572.766 292.383C572.25 292.383 571.857 292.531 571.586 292.828C571.32 293.125 571.188 293.565 571.188 294.148C571.188 294.674 571.32 295.086 571.586 295.383C571.857 295.674 572.253 295.82 572.773 295.82Z" fill="#333333"/>
</g>
<rect x="465.5" y="262.5" width="428" height="120" rx="11.5" stroke="#D0D5DA"/>
</g>
<defs>
<filter id="filter0_b_188_21221" x="-18.3656" y="151.634" width="161.731" height="132.731" filterUnits="userSpaceOnUse" color-interpolation-filters="sRGB">
<feFlood flood-opacity="0" result="BackgroundImageFix"/>
<feGaussianBlur in="BackgroundImageFix" stdDeviation="27.1828"/>
<feComposite in2="SourceAlpha" operator="in" result="effect1_backgroundBlur_188_21221"/>
<feBlend mode="normal" in="SourceGraphic" in2="effect1_backgroundBlur_188_21221" result="shape"/>
</filter>
<filter id="filter1_b_188_21221" x="38.6344" y="151.634" width="166.731" height="132.731" filterUnits="userSpaceOnUse" color-interpolation-filters="sRGB">
<feFlood flood-opacity="0" result="BackgroundImageFix"/>
<feGaussianBlur in="BackgroundImageFix" stdDeviation="27.1828"/>
<feComposite in2="SourceAlpha" operator="in" result="effect1_backgroundBlur_188_21221"/>
<feBlend mode="normal" in="SourceGraphic" in2="effect1_backgroundBlur_188_21221" result="shape"/>
</filter>
<filter id="filter2_b_188_21221" x="426.634" y="151.634" width="148.731" height="132.731" filterUnits="userSpaceOnUse" color-interpolation-filters="sRGB">
<feFlood flood-opacity="0" result="BackgroundImageFix"/>
<feGaussianBlur in="BackgroundImageFix" stdDeviation="27.1828"/>
<feComposite in2="SourceAlpha" operator="in" result="effect1_backgroundBlur_188_21221"/>
<feBlend mode="normal" in="SourceGraphic" in2="effect1_backgroundBlur_188_21221" result="shape"/>
</filter>
<filter id="filter3_b_188_21221" x="470.634" y="151.634" width="166.731" height="132.731" filterUnits="userSpaceOnUse" color-interpolation-filters="sRGB">
<feFlood flood-opacity="0" result="BackgroundImageFix"/>
<feGaussianBlur in="BackgroundImageFix" stdDeviation="27.1828"/>
<feComposite in2="SourceAlpha" operator="in" result="effect1_backgroundBlur_188_21221"/>
<feBlend mode="normal" in="SourceGraphic" in2="effect1_backgroundBlur_188_21221" result="shape"/>
</filter>
<clipPath id="clip0_188_21221">
<rect width="550" height="318" fill="white"/>
</clipPath>
<clipPath id="clip1_188_21221">
<rect x="20" y="69" width="754" height="32" rx="3" fill="white"/>
</clipPath>
<clipPath id="clip2_188_21221">
<rect x="20" y="125" width="429" height="121" rx="12" fill="white"/>
</clipPath>
<clipPath id="clip3_188_21221">
<rect width="16" height="16" fill="white" transform="translate(389 149)"/>
</clipPath>
<clipPath id="clip4_188_21221">
<rect x="465" y="125" width="429" height="121" rx="12" fill="white"/>
</clipPath>
<clipPath id="clip5_188_21221">
<rect x="20" y="262" width="429" height="121" rx="12" fill="white"/>
</clipPath>
<clipPath id="clip6_188_21221">
<rect x="465" y="262" width="429" height="121" rx="12" fill="white"/>
</clipPath>
</defs>
</svg>
