<svg width="550" height="318" viewBox="0 0 550 318" fill="none" xmlns="http://www.w3.org/2000/svg">
<g clip-path="url(#clip0_188_21413)">
<rect width="914" height="56" fill="#2A2A2A"/>
<rect width="914" height="28" fill="#2A2A2A"/>
<path fill-rule="evenodd" clip-rule="evenodd" d="M32.2105 11.0031C31.3947 11.6552 31 12.6583 31 13.9875C31 15.3166 31.3947 16.3197 32.2105 16.9969C33.0263 17.674 33.9474 18 35.0263 18C36.0789 18 37.0263 17.674 37.8158 16.9969C38.6053 16.3448 39 15.3417 39 14.0125C39 12.6583 38.6053 11.6803 37.8158 11.0031C37.0263 10.326 36.1053 10 35.0263 10C33.9474 10 33 10.326 32.2105 11.0031ZM33.2632 15.9937C32.9211 15.5674 32.7368 14.9154 32.7368 13.9875C32.7368 13.0846 32.9211 12.4326 33.2632 12.0313C33.6316 11.605 34.0263 11.3292 34.4474 11.2288L34.4474 11.2288C34.5526 11.2038 34.6579 11.1787 34.7368 11.1787C34.8158 11.1536 34.8947 11.1536 35 11.1536H35C35.0526 11.1536 35.0987 11.1599 35.1447 11.1661C35.1908 11.1724 35.2368 11.1787 35.2895 11.1787C35.3684 11.1787 35.4737 11.2038 35.5789 11.2288C36 11.3292 36.3947 11.605 36.7368 12.0313C37.0789 12.4577 37.2632 13.1348 37.2632 14.0125C37.2632 14.8903 37.0789 15.5674 36.7368 15.9937C36.3947 16.4201 36 16.6959 35.5789 16.7962C35.5609 16.8005 35.5436 16.8048 35.5268 16.809C35.4458 16.8292 35.3767 16.8464 35.2895 16.8464C35.1842 16.8715 35.1053 16.8715 35 16.8715C34.9605 16.8715 34.9145 16.8652 34.8684 16.8589L34.8684 16.8589C34.8224 16.8527 34.7763 16.8464 34.7368 16.8464C34.6496 16.8464 34.5805 16.8292 34.4995 16.809L34.4995 16.809L34.4994 16.809L34.4993 16.809C34.4826 16.8048 34.4654 16.8005 34.4474 16.7962C34.0263 16.6959 33.6316 16.4201 33.2632 15.9937ZM42.1338 10H40V18H41.6394V13.2821L41.6134 11.8718H41.6394L42.0558 12.7692L44.8662 18H47V10H45.3606V14.7179L45.3866 16.1282H45.3606L44.9442 15.0513L42.1338 10ZM48.32 10H50V16.641H53.5V18H48.32V10ZM54.0069 10H52L55.1615 14.7436V18H56.8935V14.7436L60 10H58.1581L56.3711 12.8205L56.0962 13.359H56.0412L55.7663 12.8205L54.0069 10ZM60 13.9875C60 12.6583 60.3947 11.6552 61.2105 11.0031C62 10.326 62.9474 10 64.0263 10C65.1053 10 66.0263 10.326 66.8158 11.0031C67.6053 11.6803 68 12.6583 68 14.0125C68 15.3417 67.6053 16.3448 66.8158 16.9969C66.0263 17.674 65.0789 18 64.0263 18C62.9474 18 62.0263 17.674 61.2105 16.9969C60.4211 16.3197 60 15.3166 60 13.9875ZM61.7368 13.9875C61.7368 14.9154 61.9211 15.5674 62.2632 15.9937C62.6316 16.4201 63 16.6959 63.4474 16.7962C63.5526 16.8213 63.6579 16.8464 63.7368 16.8464C63.7763 16.8464 63.8224 16.8527 63.8684 16.8589C63.9145 16.8652 63.9605 16.8715 64 16.8715C64.1053 16.8715 64.1842 16.8715 64.2895 16.8464C64.3767 16.8464 64.4458 16.8292 64.5268 16.809L64.5644 16.7997L64.5789 16.7962C65 16.6959 65.3947 16.4201 65.7368 15.9937C66.0789 15.5674 66.2632 14.8903 66.2632 14.0125C66.2632 13.1348 66.0789 12.4577 65.7368 12.0313C65.3947 11.605 65 11.3292 64.5789 11.2288C64.4737 11.2038 64.3684 11.1787 64.2895 11.1787C64.2368 11.1787 64.1908 11.1724 64.1447 11.1661C64.0987 11.1599 64.0526 11.1536 64 11.1536C63.8947 11.1536 63.8158 11.1536 63.7368 11.1787C63.6579 11.1787 63.5526 11.2038 63.4474 11.2288C63.0263 11.3292 62.6316 11.605 62.2632 12.0313C61.9211 12.4326 61.7368 13.0846 61.7368 13.9875ZM74 10H69.37V18H71V14.641H73.8707V13.2821H71V11.359H74V10ZM75.37 10H80V11.359H77V13.2821H79.8707V14.641H77V18H75.37V10ZM81.5 10V18H83.1376V10H81.5ZM90.5 10.2019V11.5647C90.2273 11.4637 89.9545 11.388 89.657 11.3375C89.3595 11.2871 89.0372 11.2618 88.6901 11.2618C87.8719 11.2618 87.2521 11.5142 86.8058 12.0442C86.3595 12.5489 86.1364 13.205 86.1364 13.9874C86.1364 14.7445 86.3347 15.3754 86.7562 15.8801C87.1777 16.3849 87.7727 16.6625 88.5413 16.6625C88.777 16.6625 89.0127 16.6436 89.2804 16.6222L89.2804 16.6222L89.4091 16.612C89.7314 16.5615 90.0537 16.4858 90.4008 16.3344L90.5 17.6719C90.4504 17.6972 90.376 17.7224 90.3017 17.7476C90.2025 17.7729 90.1033 17.7981 89.9793 17.8233C89.8513 17.8559 89.7025 17.878 89.5331 17.9031L89.533 17.9032C89.4401 17.9169 89.3409 17.9317 89.2355 17.9495C88.938 17.9748 88.6405 18 88.3182 18H88.1942H88.0703C87.1777 17.9495 86.3595 17.5962 85.6157 16.9905C84.8719 16.3596 84.5 15.3754 84.5 14.0631C84.5 12.776 84.8719 11.7666 85.5909 11.0599C86.3099 10.3533 87.3017 10 88.5165 10C88.8388 10 89.1364 10 89.3843 10.0252C89.6203 10.0471 89.8378 10.0878 90.0688 10.1311L90.1777 10.1514C90.2025 10.164 90.2335 10.1703 90.2645 10.1767C90.2955 10.183 90.3264 10.1893 90.3512 10.2019C90.3666 10.1863 90.3914 10.19 90.4256 10.1951C90.4468 10.1982 90.4716 10.2019 90.5 10.2019ZM97 10H92V18H97V16.7436H93.6636V14.5128H96.5489V13.2564H93.6636V11.2564H97V10Z" fill="white" fill-opacity="0.8"/>
<path opacity="0.5" fill-rule="evenodd" clip-rule="evenodd" d="M13.6047 16.5078L18.5631 18.8254C19.0657 19.0543 19.9111 19.0543 20.4366 18.8254L25.3723 16.5184L26.5602 17.0753C27.0857 17.327 27.0857 17.716 26.5602 17.9449L20.3912 20.8284C19.9114 21.0572 19.066 21.0572 18.5633 20.8284L12.3944 17.9449C11.8689 17.6932 11.8689 17.3041 12.3944 17.0753L13.6047 16.5078Z" fill="white" fill-opacity="0.8"/>
<path opacity="0.75" fill-rule="evenodd" clip-rule="evenodd" d="M13.5553 12.9846L18.5631 15.3254C19.0657 15.5542 19.9111 15.5542 20.4366 15.3254L25.4447 12.9845L26.6058 13.5281C27.1314 13.7798 27.1314 14.1689 26.6058 14.3977L20.4369 17.2812C19.9114 17.5329 19.066 17.5329 18.5633 17.2812L12.3944 14.3977C11.8689 14.146 11.8689 13.7569 12.3944 13.5281L13.5553 12.9846Z" fill="white" fill-opacity="0.8"/>
<path fill-rule="evenodd" clip-rule="evenodd" d="M18.5631 13.8254L12.3941 10.9419C11.8686 10.6902 11.8686 10.3011 12.3941 10.0723L18.5631 7.1888C19.0886 6.93707 19.934 6.93707 20.4366 7.1888L26.6056 10.0723C27.1311 10.324 27.1311 10.713 26.6056 10.9419L20.4366 13.8254C19.9111 14.0542 19.0658 14.0542 18.5631 13.8254Z" fill="white" fill-opacity="0.8"/>
<path fill-rule="evenodd" clip-rule="evenodd" d="M134 19H135V10.4142L132.586 8H132V11H126V8L124 8L124 19H125V14C125 13.4477 125.448 13 126 13H133C133.552 13 134 13.4477 134 14V19ZM135 20C135.552 20 136 19.5523 136 19V10.4142C136 10.149 135.895 9.89464 135.707 9.70711L133.293 7.29289C133.105 7.10536 132.851 7 132.586 7H124C123.448 7 123 7.44772 123 8V19C123 19.5523 123.448 20 124 20H135ZM133 19V14H126V19H133ZM130 8H131V10H130V8Z" fill="white" fill-opacity="0.8"/>
<path d="M166 8V10H174V8H166ZM165 10V8C165 7.44772 165.448 7 166 7H174C174.552 7 175 7.44772 175 8V10H177C177.552 10 178 10.4477 178 11V17C178 17.5523 177.552 18 177 18H175V19C175 19.5523 174.552 20 174 20H166C165.448 20 165 19.5523 165 19V18H163C162.448 18 162 17.5523 162 17V11C162 10.4477 162.448 10 163 10H165ZM165 17V15C165 14.4477 165.448 14 166 14H174C174.552 14 175 14.4477 175 15V17H177V11H174H166H163V17H165ZM165 12H164V13H165V12ZM174 15H166V19H174V15Z" fill="white" fill-opacity="0.8"/>
<path d="M204.5 11.5002L208.8 7.2002M204.5 11.5002L208.801 15.8007M204.5 11.5002L212 11.5002C214.86 11.5002 216.5 12.8469 216.5 15.5002C216.5 18.1535 214.86 19.5002 212 19.5002H210" stroke="white" stroke-opacity="0.8"/>
<path d="M255.5 11.5002L251.2 7.2002M255.5 11.5002L251.199 15.8007M255.5 11.5002L248 11.5002C245.14 11.5002 243.5 12.8469 243.5 15.5002C243.5 18.1535 245.14 19.5002 248 19.5002H250" stroke="white" stroke-opacity="0.8"/>
<path d="M406.223 18V9.41016H409.182C409.85 9.41016 410.359 9.45117 410.711 9.5332C411.203 9.64648 411.623 9.85156 411.971 10.1484C412.424 10.5312 412.762 11.0215 412.984 11.6191C413.211 12.2129 413.324 12.8926 413.324 13.6582C413.324 14.3105 413.248 14.8887 413.096 15.3926C412.943 15.8965 412.748 16.3145 412.51 16.6465C412.271 16.9746 412.01 17.2344 411.725 17.4258C411.443 17.6133 411.102 17.7559 410.699 17.8535C410.301 17.9512 409.842 18 409.322 18H406.223ZM407.359 16.9863H409.193C409.76 16.9863 410.203 16.9336 410.523 16.8281C410.848 16.7227 411.105 16.5742 411.297 16.3828C411.566 16.1133 411.775 15.752 411.924 15.2988C412.076 14.8418 412.152 14.2891 412.152 13.6406C412.152 12.7422 412.004 12.0527 411.707 11.5723C411.414 11.0879 411.057 10.7637 410.635 10.5996C410.33 10.4824 409.84 10.4238 409.164 10.4238H407.359V16.9863ZM414.367 14.8887C414.367 13.7363 414.688 12.8828 415.328 12.3281C415.863 11.8672 416.516 11.6367 417.285 11.6367C418.141 11.6367 418.84 11.918 419.383 12.4805C419.926 13.0391 420.197 13.8125 420.197 14.8008C420.197 15.6016 420.076 16.2324 419.834 16.6934C419.596 17.1504 419.246 17.5059 418.785 17.7598C418.328 18.0137 417.828 18.1406 417.285 18.1406C416.414 18.1406 415.709 17.8613 415.17 17.3027C414.635 16.7441 414.367 15.9395 414.367 14.8887ZM415.451 14.8887C415.451 15.6855 415.625 16.2832 415.973 16.6816C416.32 17.0762 416.758 17.2734 417.285 17.2734C417.809 17.2734 418.244 17.0742 418.592 16.6758C418.939 16.2773 419.113 15.6699 419.113 14.8535C419.113 14.084 418.938 13.502 418.586 13.1074C418.238 12.709 417.805 12.5098 417.285 12.5098C416.758 12.5098 416.32 12.707 415.973 13.1016C415.625 13.4961 415.451 14.0918 415.451 14.8887ZM425.5 15.7207L426.537 15.8555C426.424 16.5703 426.133 17.1309 425.664 17.5371C425.199 17.9395 424.627 18.1406 423.947 18.1406C423.096 18.1406 422.41 17.8633 421.891 17.3086C421.375 16.75 421.117 15.9512 421.117 14.9121C421.117 14.2402 421.229 13.6523 421.451 13.1484C421.674 12.6445 422.012 12.2676 422.465 12.0176C422.922 11.7637 423.418 11.6367 423.953 11.6367C424.629 11.6367 425.182 11.8086 425.611 12.1523C426.041 12.4922 426.316 12.9766 426.438 13.6055L425.412 13.7637C425.314 13.3457 425.141 13.0312 424.891 12.8203C424.645 12.6094 424.346 12.5039 423.994 12.5039C423.463 12.5039 423.031 12.6953 422.699 13.0781C422.367 13.457 422.201 14.0586 422.201 14.8828C422.201 15.7188 422.361 16.3262 422.682 16.7051C423.002 17.084 423.42 17.2734 423.936 17.2734C424.35 17.2734 424.695 17.1465 424.973 16.8926C425.25 16.6387 425.426 16.248 425.5 15.7207ZM431.518 18V17.0859C431.033 17.7891 430.375 18.1406 429.543 18.1406C429.176 18.1406 428.832 18.0703 428.512 17.9297C428.195 17.7891 427.959 17.6133 427.803 17.4023C427.65 17.1875 427.543 16.9258 427.48 16.6172C427.438 16.4102 427.416 16.082 427.416 15.6328V11.7773H428.471V15.2285C428.471 15.7793 428.492 16.1504 428.535 16.3418C428.602 16.6191 428.742 16.8379 428.957 16.998C429.172 17.1543 429.438 17.2324 429.754 17.2324C430.07 17.2324 430.367 17.1523 430.645 16.9922C430.922 16.8281 431.117 16.6074 431.23 16.3301C431.348 16.0488 431.406 15.6426 431.406 15.1113V11.7773H432.461V18H431.518ZM434.119 18V11.7773H435.062V12.6504C435.258 12.3457 435.518 12.1016 435.842 11.918C436.166 11.7305 436.535 11.6367 436.949 11.6367C437.41 11.6367 437.787 11.7324 438.08 11.9238C438.377 12.1152 438.586 12.3828 438.707 12.7266C439.199 12 439.84 11.6367 440.629 11.6367C441.246 11.6367 441.721 11.8086 442.053 12.1523C442.385 12.4922 442.551 13.0176 442.551 13.7285V18H441.502V14.0801C441.502 13.6582 441.467 13.3555 441.396 13.1719C441.33 12.9844 441.207 12.834 441.027 12.7207C440.848 12.6074 440.637 12.5508 440.395 12.5508C439.957 12.5508 439.594 12.6973 439.305 12.9902C439.016 13.2793 438.871 13.7441 438.871 14.3848V18H437.816V13.957C437.816 13.4883 437.73 13.1367 437.559 12.9023C437.387 12.668 437.105 12.5508 436.715 12.5508C436.418 12.5508 436.143 12.6289 435.889 12.7852C435.639 12.9414 435.457 13.1699 435.344 13.4707C435.23 13.7715 435.174 14.2051 435.174 14.7715V18H434.119ZM448.375 15.9961L449.465 16.1309C449.293 16.7676 448.975 17.2617 448.51 17.6133C448.045 17.9648 447.451 18.1406 446.729 18.1406C445.818 18.1406 445.096 17.8613 444.561 17.3027C444.029 16.7402 443.764 15.9531 443.764 14.9414C443.764 13.8945 444.033 13.082 444.572 12.5039C445.111 11.9258 445.811 11.6367 446.67 11.6367C447.502 11.6367 448.182 11.9199 448.709 12.4863C449.236 13.0527 449.5 13.8496 449.5 14.877C449.5 14.9395 449.498 15.0332 449.494 15.1582H444.854C444.893 15.8418 445.086 16.3652 445.434 16.7285C445.781 17.0918 446.215 17.2734 446.734 17.2734C447.121 17.2734 447.451 17.1719 447.725 16.9688C447.998 16.7656 448.215 16.4414 448.375 15.9961ZM444.912 14.291H448.387C448.34 13.7676 448.207 13.375 447.988 13.1133C447.652 12.707 447.217 12.5039 446.682 12.5039C446.197 12.5039 445.789 12.666 445.457 12.9902C445.129 13.3145 444.947 13.748 444.912 14.291ZM450.795 18V11.7773H451.744V12.6621C452.201 11.9785 452.861 11.6367 453.725 11.6367C454.1 11.6367 454.443 11.7051 454.756 11.8418C455.072 11.9746 455.309 12.1504 455.465 12.3691C455.621 12.5879 455.73 12.8477 455.793 13.1484C455.832 13.3438 455.852 13.6855 455.852 14.1738V18H454.797V14.2148C454.797 13.7852 454.756 13.4648 454.674 13.2539C454.592 13.0391 454.445 12.8691 454.234 12.7441C454.027 12.6152 453.783 12.5508 453.502 12.5508C453.053 12.5508 452.664 12.6934 452.336 12.9785C452.012 13.2637 451.85 13.8047 451.85 14.6016V18H450.795ZM459.777 17.0566L459.93 17.9883C459.633 18.0508 459.367 18.082 459.133 18.082C458.75 18.082 458.453 18.0215 458.242 17.9004C458.031 17.7793 457.883 17.6211 457.797 17.4258C457.711 17.2266 457.668 16.8105 457.668 16.1777V12.5977H456.895V11.7773H457.668V10.2363L458.717 9.60352V11.7773H459.777V12.5977H458.717V16.2363C458.717 16.5371 458.734 16.7305 458.77 16.8164C458.809 16.9023 458.869 16.9707 458.951 17.0215C459.037 17.0723 459.158 17.0977 459.314 17.0977C459.432 17.0977 459.586 17.084 459.777 17.0566ZM464.494 18H463.439V11.2793C463.186 11.5215 462.852 11.7637 462.438 12.0059C462.027 12.248 461.658 12.4297 461.33 12.5508V11.5312C461.92 11.2539 462.436 10.918 462.877 10.5234C463.318 10.1289 463.631 9.74609 463.814 9.375H464.494V18Z" fill="white" fill-opacity="0.8"/>
<path d="M468.42 18V16.7988H469.621V18H468.42Z" fill="white" fill-opacity="0.8"/>
<path d="M476.148 18V17.2148C475.754 17.832 475.174 18.1406 474.408 18.1406C473.912 18.1406 473.455 18.0039 473.037 17.7305C472.623 17.457 472.301 17.0762 472.07 16.5879C471.844 16.0957 471.73 15.5312 471.73 14.8945C471.73 14.2734 471.834 13.7109 472.041 13.207C472.248 12.6992 472.559 12.3105 472.973 12.041C473.387 11.7715 473.85 11.6367 474.361 11.6367C474.736 11.6367 475.07 11.7168 475.363 11.877C475.656 12.0332 475.895 12.2383 476.078 12.4922V9.41016H477.127V18H476.148ZM472.814 14.8945C472.814 15.6914 472.982 16.2871 473.318 16.6816C473.654 17.0762 474.051 17.2734 474.508 17.2734C474.969 17.2734 475.359 17.0859 475.68 16.7109C476.004 16.332 476.166 15.7559 476.166 14.9824C476.166 14.1309 476.002 13.5059 475.674 13.1074C475.346 12.709 474.941 12.5098 474.461 12.5098C473.992 12.5098 473.6 12.7012 473.283 13.084C472.971 13.4668 472.814 14.0703 472.814 14.8945ZM478.398 14.8887C478.398 13.7363 478.719 12.8828 479.359 12.3281C479.895 11.8672 480.547 11.6367 481.316 11.6367C482.172 11.6367 482.871 11.918 483.414 12.4805C483.957 13.0391 484.229 13.8125 484.229 14.8008C484.229 15.6016 484.107 16.2324 483.865 16.6934C483.627 17.1504 483.277 17.5059 482.816 17.7598C482.359 18.0137 481.859 18.1406 481.316 18.1406C480.445 18.1406 479.74 17.8613 479.201 17.3027C478.666 16.7441 478.398 15.9395 478.398 14.8887ZM479.482 14.8887C479.482 15.6855 479.656 16.2832 480.004 16.6816C480.352 17.0762 480.789 17.2734 481.316 17.2734C481.84 17.2734 482.275 17.0742 482.623 16.6758C482.971 16.2773 483.145 15.6699 483.145 14.8535C483.145 14.084 482.969 13.502 482.617 13.1074C482.27 12.709 481.836 12.5098 481.316 12.5098C480.789 12.5098 480.352 12.707 480.004 13.1016C479.656 13.4961 479.482 14.0918 479.482 14.8887ZM489.531 15.7207L490.568 15.8555C490.455 16.5703 490.164 17.1309 489.695 17.5371C489.23 17.9395 488.658 18.1406 487.979 18.1406C487.127 18.1406 486.441 17.8633 485.922 17.3086C485.406 16.75 485.148 15.9512 485.148 14.9121C485.148 14.2402 485.26 13.6523 485.482 13.1484C485.705 12.6445 486.043 12.2676 486.496 12.0176C486.953 11.7637 487.449 11.6367 487.984 11.6367C488.66 11.6367 489.213 11.8086 489.643 12.1523C490.072 12.4922 490.348 12.9766 490.469 13.6055L489.443 13.7637C489.346 13.3457 489.172 13.0312 488.922 12.8203C488.676 12.6094 488.377 12.5039 488.025 12.5039C487.494 12.5039 487.062 12.6953 486.73 13.0781C486.398 13.457 486.232 14.0586 486.232 14.8828C486.232 15.7188 486.393 16.3262 486.713 16.7051C487.033 17.084 487.451 17.2734 487.967 17.2734C488.381 17.2734 488.727 17.1465 489.004 16.8926C489.281 16.6387 489.457 16.248 489.531 15.7207ZM490.768 18L493.041 14.7656L490.938 11.7773H492.256L493.211 13.2363C493.391 13.5137 493.535 13.7461 493.645 13.9336C493.816 13.6758 493.975 13.4473 494.119 13.248L495.168 11.7773H496.428L494.277 14.707L496.592 18H495.297L494.02 16.0664L493.68 15.5449L492.045 18H490.768Z" fill="white" fill-opacity="0.8"/>
<path d="M13.3047 46V37.4102H19.0996V38.4238H14.4414V41.084H18.4727V42.0977H14.4414V46H13.3047ZM20.4531 38.623V37.4102H21.5078V38.623H20.4531ZM20.4531 46V39.7773H21.5078V46H20.4531ZM23.0957 46V37.4102H24.1504V46H23.0957ZM30.0508 43.9961L31.1406 44.1309C30.9688 44.7676 30.6504 45.2617 30.1855 45.6133C29.7207 45.9648 29.127 46.1406 28.4043 46.1406C27.4941 46.1406 26.7715 45.8613 26.2363 45.3027C25.7051 44.7402 25.4395 43.9531 25.4395 42.9414C25.4395 41.8945 25.709 41.082 26.248 40.5039C26.7871 39.9258 27.4863 39.6367 28.3457 39.6367C29.1777 39.6367 29.8574 39.9199 30.3848 40.4863C30.9121 41.0527 31.1758 41.8496 31.1758 42.877C31.1758 42.9395 31.1738 43.0332 31.1699 43.1582H26.5293C26.5684 43.8418 26.7617 44.3652 27.1094 44.7285C27.457 45.0918 27.8906 45.2734 28.4102 45.2734C28.7969 45.2734 29.127 45.1719 29.4004 44.9688C29.6738 44.7656 29.8906 44.4414 30.0508 43.9961ZM26.5879 42.291H30.0625C30.0156 41.7676 29.8828 41.375 29.6641 41.1133C29.3281 40.707 28.8926 40.5039 28.3574 40.5039C27.873 40.5039 27.4648 40.666 27.1328 40.9902C26.8047 41.3145 26.623 41.748 26.5879 42.291Z" fill="white" fill-opacity="0.8"/>
<rect width="57" height="28" transform="translate(44 28)" fill="#404040"/>
<path d="M57.4473 46V37.4102H58.584V40.9375H63.0488V37.4102H64.1855V46H63.0488V41.9512H58.584V46H57.4473ZM65.5566 42.8887C65.5566 41.7363 65.877 40.8828 66.5176 40.3281C67.0527 39.8672 67.7051 39.6367 68.4746 39.6367C69.3301 39.6367 70.0293 39.918 70.5723 40.4805C71.1152 41.0391 71.3867 41.8125 71.3867 42.8008C71.3867 43.6016 71.2656 44.2324 71.0234 44.6934C70.7852 45.1504 70.4355 45.5059 69.9746 45.7598C69.5176 46.0137 69.0176 46.1406 68.4746 46.1406C67.6035 46.1406 66.8984 45.8613 66.3594 45.3027C65.8242 44.7441 65.5566 43.9395 65.5566 42.8887ZM66.6406 42.8887C66.6406 43.6855 66.8145 44.2832 67.1621 44.6816C67.5098 45.0762 67.9473 45.2734 68.4746 45.2734C68.998 45.2734 69.4336 45.0742 69.7812 44.6758C70.1289 44.2773 70.3027 43.6699 70.3027 42.8535C70.3027 42.084 70.127 41.502 69.7754 41.1074C69.4277 40.709 68.9941 40.5098 68.4746 40.5098C67.9473 40.5098 67.5098 40.707 67.1621 41.1016C66.8145 41.4961 66.6406 42.0918 66.6406 42.8887ZM72.6289 46V39.7773H73.5723V40.6504C73.7676 40.3457 74.0273 40.1016 74.3516 39.918C74.6758 39.7305 75.0449 39.6367 75.459 39.6367C75.9199 39.6367 76.2969 39.7324 76.5898 39.9238C76.8867 40.1152 77.0957 40.3828 77.2168 40.7266C77.709 40 78.3496 39.6367 79.1387 39.6367C79.7559 39.6367 80.2305 39.8086 80.5625 40.1523C80.8945 40.4922 81.0605 41.0176 81.0605 41.7285V46H80.0117V42.0801C80.0117 41.6582 79.9766 41.3555 79.9062 41.1719C79.8398 40.9844 79.7168 40.834 79.5371 40.7207C79.3574 40.6074 79.1465 40.5508 78.9043 40.5508C78.4668 40.5508 78.1035 40.6973 77.8145 40.9902C77.5254 41.2793 77.3809 41.7441 77.3809 42.3848V46H76.3262V41.957C76.3262 41.4883 76.2402 41.1367 76.0684 40.9023C75.8965 40.668 75.6152 40.5508 75.2246 40.5508C74.9277 40.5508 74.6523 40.6289 74.3984 40.7852C74.1484 40.9414 73.9668 41.1699 73.8535 41.4707C73.7402 41.7715 73.6836 42.2051 73.6836 42.7715V46H72.6289ZM86.8848 43.9961L87.9746 44.1309C87.8027 44.7676 87.4844 45.2617 87.0195 45.6133C86.5547 45.9648 85.9609 46.1406 85.2383 46.1406C84.3281 46.1406 83.6055 45.8613 83.0703 45.3027C82.5391 44.7402 82.2734 43.9531 82.2734 42.9414C82.2734 41.8945 82.543 41.082 83.082 40.5039C83.6211 39.9258 84.3203 39.6367 85.1797 39.6367C86.0117 39.6367 86.6914 39.9199 87.2188 40.4863C87.7461 41.0527 88.0098 41.8496 88.0098 42.877C88.0098 42.9395 88.0078 43.0332 88.0039 43.1582H83.3633C83.4023 43.8418 83.5957 44.3652 83.9434 44.7285C84.291 45.0918 84.7246 45.2734 85.2441 45.2734C85.6309 45.2734 85.9609 45.1719 86.2344 44.9688C86.5078 44.7656 86.7246 44.4414 86.8848 43.9961ZM83.4219 42.291H86.8965C86.8496 41.7676 86.7168 41.375 86.498 41.1133C86.1621 40.707 85.7266 40.5039 85.1914 40.5039C84.707 40.5039 84.2988 40.666 83.9668 40.9902C83.6387 41.3145 83.457 41.748 83.4219 42.291Z" fill="white" fill-opacity="0.8"/>
<path d="M114.602 46V37.4102H115.738V46H114.602ZM117.613 46V39.7773H118.562V40.6621C119.02 39.9785 119.68 39.6367 120.543 39.6367C120.918 39.6367 121.262 39.7051 121.574 39.8418C121.891 39.9746 122.127 40.1504 122.283 40.3691C122.439 40.5879 122.549 40.8477 122.611 41.1484C122.65 41.3438 122.67 41.6855 122.67 42.1738V46H121.615V42.2148C121.615 41.7852 121.574 41.4648 121.492 41.2539C121.41 41.0391 121.264 40.8691 121.053 40.7441C120.846 40.6152 120.602 40.5508 120.32 40.5508C119.871 40.5508 119.482 40.6934 119.154 40.9785C118.83 41.2637 118.668 41.8047 118.668 42.6016V46H117.613ZM123.871 44.1426L124.914 43.9785C124.973 44.3965 125.135 44.7168 125.4 44.9395C125.67 45.1621 126.045 45.2734 126.525 45.2734C127.01 45.2734 127.369 45.1758 127.604 44.9805C127.838 44.7812 127.955 44.5488 127.955 44.2832C127.955 44.0449 127.852 43.8574 127.645 43.7207C127.5 43.627 127.141 43.5078 126.566 43.3633C125.793 43.168 125.256 43 124.955 42.8594C124.658 42.7148 124.432 42.5176 124.275 42.2676C124.123 42.0137 124.047 41.7344 124.047 41.4297C124.047 41.1523 124.109 40.8965 124.234 40.6621C124.363 40.4238 124.537 40.2266 124.756 40.0703C124.92 39.9492 125.143 39.8477 125.424 39.7656C125.709 39.6797 126.014 39.6367 126.338 39.6367C126.826 39.6367 127.254 39.707 127.621 39.8477C127.992 39.9883 128.266 40.1797 128.441 40.4219C128.617 40.6602 128.738 40.9805 128.805 41.3828L127.773 41.5234C127.727 41.2031 127.59 40.9531 127.363 40.7734C127.141 40.5938 126.824 40.5039 126.414 40.5039C125.93 40.5039 125.584 40.584 125.377 40.7441C125.17 40.9043 125.066 41.0918 125.066 41.3066C125.066 41.4434 125.109 41.5664 125.195 41.6758C125.281 41.7891 125.416 41.8828 125.6 41.957C125.705 41.9961 126.016 42.0859 126.531 42.2266C127.277 42.4258 127.797 42.5898 128.09 42.7188C128.387 42.8438 128.619 43.0273 128.787 43.2695C128.955 43.5117 129.039 43.8125 129.039 44.1719C129.039 44.5234 128.936 44.8555 128.729 45.168C128.525 45.4766 128.23 45.7168 127.844 45.8887C127.457 46.0566 127.02 46.1406 126.531 46.1406C125.723 46.1406 125.105 45.9727 124.68 45.6367C124.258 45.3008 123.988 44.8027 123.871 44.1426ZM134.553 43.9961L135.643 44.1309C135.471 44.7676 135.152 45.2617 134.688 45.6133C134.223 45.9648 133.629 46.1406 132.906 46.1406C131.996 46.1406 131.273 45.8613 130.738 45.3027C130.207 44.7402 129.941 43.9531 129.941 42.9414C129.941 41.8945 130.211 41.082 130.75 40.5039C131.289 39.9258 131.988 39.6367 132.848 39.6367C133.68 39.6367 134.359 39.9199 134.887 40.4863C135.414 41.0527 135.678 41.8496 135.678 42.877C135.678 42.9395 135.676 43.0332 135.672 43.1582H131.031C131.07 43.8418 131.264 44.3652 131.611 44.7285C131.959 45.0918 132.393 45.2734 132.912 45.2734C133.299 45.2734 133.629 45.1719 133.902 44.9688C134.176 44.7656 134.393 44.4414 134.553 43.9961ZM131.09 42.291H134.564C134.518 41.7676 134.385 41.375 134.166 41.1133C133.83 40.707 133.395 40.5039 132.859 40.5039C132.375 40.5039 131.967 40.666 131.635 40.9902C131.307 41.3145 131.125 41.748 131.09 42.291ZM136.961 46V39.7773H137.91V40.7207C138.152 40.2793 138.375 39.9883 138.578 39.8477C138.785 39.707 139.012 39.6367 139.258 39.6367C139.613 39.6367 139.975 39.75 140.342 39.9766L139.979 40.9551C139.721 40.8027 139.463 40.7266 139.205 40.7266C138.975 40.7266 138.768 40.7969 138.584 40.9375C138.4 41.0742 138.27 41.2656 138.191 41.5117C138.074 41.8867 138.016 42.2969 138.016 42.7422V46H136.961ZM143.271 45.0566L143.424 45.9883C143.127 46.0508 142.861 46.082 142.627 46.082C142.244 46.082 141.947 46.0215 141.736 45.9004C141.525 45.7793 141.377 45.6211 141.291 45.4258C141.205 45.2266 141.162 44.8105 141.162 44.1777V40.5977H140.389V39.7773H141.162V38.2363L142.211 37.6035V39.7773H143.271V40.5977H142.211V44.2363C142.211 44.5371 142.229 44.7305 142.264 44.8164C142.303 44.9023 142.363 44.9707 142.445 45.0215C142.531 45.0723 142.652 45.0977 142.809 45.0977C142.926 45.0977 143.08 45.084 143.271 45.0566Z" fill="white" fill-opacity="0.8"/>
<path d="M169.416 46V37.4102H172.375C173.043 37.4102 173.553 37.4512 173.904 37.5332C174.396 37.6465 174.816 37.8516 175.164 38.1484C175.617 38.5312 175.955 39.0215 176.178 39.6191C176.404 40.2129 176.518 40.8926 176.518 41.6582C176.518 42.3105 176.441 42.8887 176.289 43.3926C176.137 43.8965 175.941 44.3145 175.703 44.6465C175.465 44.9746 175.203 45.2344 174.918 45.4258C174.637 45.6133 174.295 45.7559 173.893 45.8535C173.494 45.9512 173.035 46 172.516 46H169.416ZM170.553 44.9863H172.387C172.953 44.9863 173.396 44.9336 173.717 44.8281C174.041 44.7227 174.299 44.5742 174.49 44.3828C174.76 44.1133 174.969 43.752 175.117 43.2988C175.27 42.8418 175.346 42.2891 175.346 41.6406C175.346 40.7422 175.197 40.0527 174.9 39.5723C174.607 39.0879 174.25 38.7637 173.828 38.5996C173.523 38.4824 173.033 38.4238 172.357 38.4238H170.553V44.9863ZM177.941 46V39.7773H178.891V40.7207C179.133 40.2793 179.355 39.9883 179.559 39.8477C179.766 39.707 179.992 39.6367 180.238 39.6367C180.594 39.6367 180.955 39.75 181.322 39.9766L180.959 40.9551C180.701 40.8027 180.443 40.7266 180.186 40.7266C179.955 40.7266 179.748 40.7969 179.564 40.9375C179.381 41.0742 179.25 41.2656 179.172 41.5117C179.055 41.8867 178.996 42.2969 178.996 42.7422V46H177.941ZM186.01 45.2324C185.619 45.5645 185.242 45.7988 184.879 45.9355C184.52 46.0723 184.133 46.1406 183.719 46.1406C183.035 46.1406 182.51 45.9746 182.143 45.6426C181.775 45.3066 181.592 44.8789 181.592 44.3594C181.592 44.0547 181.66 43.7773 181.797 43.5273C181.938 43.2734 182.119 43.0703 182.342 42.918C182.568 42.7656 182.822 42.6504 183.104 42.5723C183.311 42.5176 183.623 42.4648 184.041 42.4141C184.893 42.3125 185.52 42.1914 185.922 42.0508C185.926 41.9062 185.928 41.8145 185.928 41.7754C185.928 41.3457 185.828 41.043 185.629 40.8672C185.359 40.6289 184.959 40.5098 184.428 40.5098C183.932 40.5098 183.564 40.5977 183.326 40.7734C183.092 40.9453 182.918 41.252 182.805 41.6934L181.773 41.5527C181.867 41.1113 182.021 40.7559 182.236 40.4863C182.451 40.2129 182.762 40.0039 183.168 39.8594C183.574 39.7109 184.045 39.6367 184.58 39.6367C185.111 39.6367 185.543 39.6992 185.875 39.8242C186.207 39.9492 186.451 40.1074 186.607 40.2988C186.764 40.4863 186.873 40.7246 186.936 41.0137C186.971 41.1934 186.988 41.5176 186.988 41.9863V43.3926C186.988 44.373 187.01 44.9941 187.053 45.2559C187.1 45.5137 187.189 45.7617 187.322 46H186.221C186.111 45.7812 186.041 45.5254 186.01 45.2324ZM185.922 42.877C185.539 43.0332 184.965 43.166 184.199 43.2754C183.766 43.3379 183.459 43.4082 183.279 43.4863C183.1 43.5645 182.961 43.6797 182.863 43.832C182.766 43.9805 182.717 44.1465 182.717 44.3301C182.717 44.6113 182.822 44.8457 183.033 45.0332C183.248 45.2207 183.561 45.3145 183.971 45.3145C184.377 45.3145 184.738 45.2266 185.055 45.0508C185.371 44.8711 185.604 44.627 185.752 44.3184C185.865 44.0801 185.922 43.7285 185.922 43.2637V42.877ZM189.777 46L187.873 39.7773H188.963L189.953 43.3691L190.322 44.7051C190.338 44.6387 190.445 44.2109 190.645 43.4219L191.635 39.7773H192.719L193.65 43.3867L193.961 44.5762L194.318 43.375L195.385 39.7773H196.41L194.465 46H193.369L192.379 42.2734L192.139 41.2129L190.879 46H189.777Z" fill="white" fill-opacity="0.8"/>
<path d="M222.35 46V37.4102H223.486V44.9863H227.717V46H222.35ZM233.002 45.2324C232.611 45.5645 232.234 45.7988 231.871 45.9355C231.512 46.0723 231.125 46.1406 230.711 46.1406C230.027 46.1406 229.502 45.9746 229.135 45.6426C228.768 45.3066 228.584 44.8789 228.584 44.3594C228.584 44.0547 228.652 43.7773 228.789 43.5273C228.93 43.2734 229.111 43.0703 229.334 42.918C229.561 42.7656 229.814 42.6504 230.096 42.5723C230.303 42.5176 230.615 42.4648 231.033 42.4141C231.885 42.3125 232.512 42.1914 232.914 42.0508C232.918 41.9062 232.92 41.8145 232.92 41.7754C232.92 41.3457 232.82 41.043 232.621 40.8672C232.352 40.6289 231.951 40.5098 231.42 40.5098C230.924 40.5098 230.557 40.5977 230.318 40.7734C230.084 40.9453 229.91 41.252 229.797 41.6934L228.766 41.5527C228.859 41.1113 229.014 40.7559 229.229 40.4863C229.443 40.2129 229.754 40.0039 230.16 39.8594C230.566 39.7109 231.037 39.6367 231.572 39.6367C232.104 39.6367 232.535 39.6992 232.867 39.8242C233.199 39.9492 233.443 40.1074 233.6 40.2988C233.756 40.4863 233.865 40.7246 233.928 41.0137C233.963 41.1934 233.98 41.5176 233.98 41.9863V43.3926C233.98 44.373 234.002 44.9941 234.045 45.2559C234.092 45.5137 234.182 45.7617 234.314 46H233.213C233.104 45.7812 233.033 45.5254 233.002 45.2324ZM232.914 42.877C232.531 43.0332 231.957 43.166 231.191 43.2754C230.758 43.3379 230.451 43.4082 230.271 43.4863C230.092 43.5645 229.953 43.6797 229.855 43.832C229.758 43.9805 229.709 44.1465 229.709 44.3301C229.709 44.6113 229.814 44.8457 230.025 45.0332C230.24 45.2207 230.553 45.3145 230.963 45.3145C231.369 45.3145 231.73 45.2266 232.047 45.0508C232.363 44.8711 232.596 44.627 232.744 44.3184C232.857 44.0801 232.914 43.7285 232.914 43.2637V42.877ZM235.574 48.3965L235.457 47.4062C235.688 47.4688 235.889 47.5 236.061 47.5C236.295 47.5 236.482 47.4609 236.623 47.3828C236.764 47.3047 236.879 47.1953 236.969 47.0547C237.035 46.9492 237.143 46.6875 237.291 46.2695C237.311 46.2109 237.342 46.125 237.385 46.0117L235.023 39.7773H236.16L237.455 43.3809C237.623 43.8379 237.773 44.3184 237.906 44.8223C238.027 44.3379 238.172 43.8652 238.34 43.4043L239.67 39.7773H240.725L238.357 46.1055C238.104 46.7891 237.906 47.2598 237.766 47.5176C237.578 47.8652 237.363 48.1191 237.121 48.2793C236.879 48.4434 236.59 48.5254 236.254 48.5254C236.051 48.5254 235.824 48.4824 235.574 48.3965ZM241.229 42.8887C241.229 41.7363 241.549 40.8828 242.189 40.3281C242.725 39.8672 243.377 39.6367 244.146 39.6367C245.002 39.6367 245.701 39.918 246.244 40.4805C246.787 41.0391 247.059 41.8125 247.059 42.8008C247.059 43.6016 246.938 44.2324 246.695 44.6934C246.457 45.1504 246.107 45.5059 245.646 45.7598C245.189 46.0137 244.689 46.1406 244.146 46.1406C243.275 46.1406 242.57 45.8613 242.031 45.3027C241.496 44.7441 241.229 43.9395 241.229 42.8887ZM242.312 42.8887C242.312 43.6855 242.486 44.2832 242.834 44.6816C243.182 45.0762 243.619 45.2734 244.146 45.2734C244.67 45.2734 245.105 45.0742 245.453 44.6758C245.801 44.2773 245.975 43.6699 245.975 42.8535C245.975 42.084 245.799 41.502 245.447 41.1074C245.1 40.709 244.666 40.5098 244.146 40.5098C243.619 40.5098 243.182 40.707 242.834 41.1016C242.486 41.4961 242.312 42.0918 242.312 42.8887ZM252.379 46V45.0859C251.895 45.7891 251.236 46.1406 250.404 46.1406C250.037 46.1406 249.693 46.0703 249.373 45.9297C249.057 45.7891 248.82 45.6133 248.664 45.4023C248.512 45.1875 248.404 44.9258 248.342 44.6172C248.299 44.4102 248.277 44.082 248.277 43.6328V39.7773H249.332V43.2285C249.332 43.7793 249.354 44.1504 249.396 44.3418C249.463 44.6191 249.604 44.8379 249.818 44.998C250.033 45.1543 250.299 45.2324 250.615 45.2324C250.932 45.2324 251.229 45.1523 251.506 44.9922C251.783 44.8281 251.979 44.6074 252.092 44.3301C252.209 44.0488 252.268 43.6426 252.268 43.1113V39.7773H253.322V46H252.379ZM257.283 45.0566L257.436 45.9883C257.139 46.0508 256.873 46.082 256.639 46.082C256.256 46.082 255.959 46.0215 255.748 45.9004C255.537 45.7793 255.389 45.6211 255.303 45.4258C255.217 45.2266 255.174 44.8105 255.174 44.1777V40.5977H254.4V39.7773H255.174V38.2363L256.223 37.6035V39.7773H257.283V40.5977H256.223V44.2363C256.223 44.5371 256.24 44.7305 256.275 44.8164C256.314 44.9023 256.375 44.9707 256.457 45.0215C256.543 45.0723 256.664 45.0977 256.82 45.0977C256.938 45.0977 257.092 45.084 257.283 45.0566Z" fill="white" fill-opacity="0.8"/>
<path d="M283.24 46V37.4102H287.049C287.814 37.4102 288.396 37.4883 288.795 37.6445C289.193 37.7969 289.512 38.0684 289.75 38.459C289.988 38.8496 290.107 39.2812 290.107 39.7539C290.107 40.3633 289.91 40.877 289.516 41.2949C289.121 41.7129 288.512 41.9785 287.688 42.0918C287.988 42.2363 288.217 42.3789 288.373 42.5195C288.705 42.8242 289.02 43.2051 289.316 43.6621L290.811 46H289.381L288.244 44.2129C287.912 43.6973 287.639 43.3027 287.424 43.0293C287.209 42.7559 287.016 42.5645 286.844 42.4551C286.676 42.3457 286.504 42.2695 286.328 42.2266C286.199 42.1992 285.988 42.1855 285.695 42.1855H284.377V46H283.24ZM284.377 41.2012H286.82C287.34 41.2012 287.746 41.1484 288.039 41.043C288.332 40.9336 288.555 40.7617 288.707 40.5273C288.859 40.2891 288.936 40.0312 288.936 39.7539C288.936 39.3477 288.787 39.0137 288.49 38.752C288.197 38.4902 287.732 38.3594 287.096 38.3594H284.377V41.2012ZM296.02 43.9961L297.109 44.1309C296.938 44.7676 296.619 45.2617 296.154 45.6133C295.689 45.9648 295.096 46.1406 294.373 46.1406C293.463 46.1406 292.74 45.8613 292.205 45.3027C291.674 44.7402 291.408 43.9531 291.408 42.9414C291.408 41.8945 291.678 41.082 292.217 40.5039C292.756 39.9258 293.455 39.6367 294.314 39.6367C295.146 39.6367 295.826 39.9199 296.354 40.4863C296.881 41.0527 297.145 41.8496 297.145 42.877C297.145 42.9395 297.143 43.0332 297.139 43.1582H292.498C292.537 43.8418 292.73 44.3652 293.078 44.7285C293.426 45.0918 293.859 45.2734 294.379 45.2734C294.766 45.2734 295.096 45.1719 295.369 44.9688C295.643 44.7656 295.859 44.4414 296.02 43.9961ZM292.557 42.291H296.031C295.984 41.7676 295.852 41.375 295.633 41.1133C295.297 40.707 294.861 40.5039 294.326 40.5039C293.842 40.5039 293.434 40.666 293.102 40.9902C292.773 41.3145 292.592 41.748 292.557 42.291ZM298.691 46V40.5977H297.76V39.7773H298.691V39.1152C298.691 38.6973 298.729 38.3867 298.803 38.1836C298.904 37.9102 299.082 37.6895 299.336 37.5215C299.594 37.3496 299.953 37.2637 300.414 37.2637C300.711 37.2637 301.039 37.2988 301.398 37.3691L301.24 38.2891C301.021 38.25 300.814 38.2305 300.619 38.2305C300.299 38.2305 300.072 38.2988 299.939 38.4355C299.807 38.5723 299.74 38.8281 299.74 39.2031V39.7773H300.953V40.5977H299.74V46H298.691ZM306.039 43.9961L307.129 44.1309C306.957 44.7676 306.639 45.2617 306.174 45.6133C305.709 45.9648 305.115 46.1406 304.393 46.1406C303.482 46.1406 302.76 45.8613 302.225 45.3027C301.693 44.7402 301.428 43.9531 301.428 42.9414C301.428 41.8945 301.697 41.082 302.236 40.5039C302.775 39.9258 303.475 39.6367 304.334 39.6367C305.166 39.6367 305.846 39.9199 306.373 40.4863C306.9 41.0527 307.164 41.8496 307.164 42.877C307.164 42.9395 307.162 43.0332 307.158 43.1582H302.518C302.557 43.8418 302.75 44.3652 303.098 44.7285C303.445 45.0918 303.879 45.2734 304.398 45.2734C304.785 45.2734 305.115 45.1719 305.389 44.9688C305.662 44.7656 305.879 44.4414 306.039 43.9961ZM302.576 42.291H306.051C306.004 41.7676 305.871 41.375 305.652 41.1133C305.316 40.707 304.881 40.5039 304.346 40.5039C303.861 40.5039 303.453 40.666 303.121 40.9902C302.793 41.3145 302.611 41.748 302.576 42.291ZM308.447 46V39.7773H309.396V40.7207C309.639 40.2793 309.861 39.9883 310.064 39.8477C310.271 39.707 310.498 39.6367 310.744 39.6367C311.1 39.6367 311.461 39.75 311.828 39.9766L311.465 40.9551C311.207 40.8027 310.949 40.7266 310.691 40.7266C310.461 40.7266 310.254 40.7969 310.07 40.9375C309.887 41.0742 309.756 41.2656 309.678 41.5117C309.561 41.8867 309.502 42.2969 309.502 42.7422V46H308.447ZM316.715 43.9961L317.805 44.1309C317.633 44.7676 317.314 45.2617 316.85 45.6133C316.385 45.9648 315.791 46.1406 315.068 46.1406C314.158 46.1406 313.436 45.8613 312.9 45.3027C312.369 44.7402 312.104 43.9531 312.104 42.9414C312.104 41.8945 312.373 41.082 312.912 40.5039C313.451 39.9258 314.15 39.6367 315.01 39.6367C315.842 39.6367 316.521 39.9199 317.049 40.4863C317.576 41.0527 317.84 41.8496 317.84 42.877C317.84 42.9395 317.838 43.0332 317.834 43.1582H313.193C313.232 43.8418 313.426 44.3652 313.773 44.7285C314.121 45.0918 314.555 45.2734 315.074 45.2734C315.461 45.2734 315.791 45.1719 316.064 44.9688C316.338 44.7656 316.555 44.4414 316.715 43.9961ZM313.252 42.291H316.727C316.68 41.7676 316.547 41.375 316.328 41.1133C315.992 40.707 315.557 40.5039 315.021 40.5039C314.537 40.5039 314.129 40.666 313.797 40.9902C313.469 41.3145 313.287 41.748 313.252 42.291ZM319.135 46V39.7773H320.084V40.6621C320.541 39.9785 321.201 39.6367 322.064 39.6367C322.439 39.6367 322.783 39.7051 323.096 39.8418C323.412 39.9746 323.648 40.1504 323.805 40.3691C323.961 40.5879 324.07 40.8477 324.133 41.1484C324.172 41.3438 324.191 41.6855 324.191 42.1738V46H323.137V42.2148C323.137 41.7852 323.096 41.4648 323.014 41.2539C322.932 41.0391 322.785 40.8691 322.574 40.7441C322.367 40.6152 322.123 40.5508 321.842 40.5508C321.393 40.5508 321.004 40.6934 320.676 40.9785C320.352 41.2637 320.189 41.8047 320.189 42.6016V46H319.135ZM329.875 43.7207L330.912 43.8555C330.799 44.5703 330.508 45.1309 330.039 45.5371C329.574 45.9395 329.002 46.1406 328.322 46.1406C327.471 46.1406 326.785 45.8633 326.266 45.3086C325.75 44.75 325.492 43.9512 325.492 42.9121C325.492 42.2402 325.604 41.6523 325.826 41.1484C326.049 40.6445 326.387 40.2676 326.84 40.0176C327.297 39.7637 327.793 39.6367 328.328 39.6367C329.004 39.6367 329.557 39.8086 329.986 40.1523C330.416 40.4922 330.691 40.9766 330.812 41.6055L329.787 41.7637C329.689 41.3457 329.516 41.0312 329.266 40.8203C329.02 40.6094 328.721 40.5039 328.369 40.5039C327.838 40.5039 327.406 40.6953 327.074 41.0781C326.742 41.457 326.576 42.0586 326.576 42.8828C326.576 43.7188 326.736 44.3262 327.057 44.7051C327.377 45.084 327.795 45.2734 328.311 45.2734C328.725 45.2734 329.07 45.1465 329.348 44.8926C329.625 44.6387 329.801 44.248 329.875 43.7207ZM336.074 43.9961L337.164 44.1309C336.992 44.7676 336.674 45.2617 336.209 45.6133C335.744 45.9648 335.15 46.1406 334.428 46.1406C333.518 46.1406 332.795 45.8613 332.26 45.3027C331.729 44.7402 331.463 43.9531 331.463 42.9414C331.463 41.8945 331.732 41.082 332.271 40.5039C332.811 39.9258 333.51 39.6367 334.369 39.6367C335.201 39.6367 335.881 39.9199 336.408 40.4863C336.936 41.0527 337.199 41.8496 337.199 42.877C337.199 42.9395 337.197 43.0332 337.193 43.1582H332.553C332.592 43.8418 332.785 44.3652 333.133 44.7285C333.48 45.0918 333.914 45.2734 334.434 45.2734C334.82 45.2734 335.15 45.1719 335.424 44.9688C335.697 44.7656 335.914 44.4414 336.074 43.9961ZM332.611 42.291H336.086C336.039 41.7676 335.906 41.375 335.688 41.1133C335.352 40.707 334.916 40.5039 334.381 40.5039C333.896 40.5039 333.488 40.666 333.156 40.9902C332.828 41.3145 332.646 41.748 332.611 42.291ZM338.072 44.1426L339.115 43.9785C339.174 44.3965 339.336 44.7168 339.602 44.9395C339.871 45.1621 340.246 45.2734 340.727 45.2734C341.211 45.2734 341.57 45.1758 341.805 44.9805C342.039 44.7812 342.156 44.5488 342.156 44.2832C342.156 44.0449 342.053 43.8574 341.846 43.7207C341.701 43.627 341.342 43.5078 340.768 43.3633C339.994 43.168 339.457 43 339.156 42.8594C338.859 42.7148 338.633 42.5176 338.477 42.2676C338.324 42.0137 338.248 41.7344 338.248 41.4297C338.248 41.1523 338.311 40.8965 338.436 40.6621C338.564 40.4238 338.738 40.2266 338.957 40.0703C339.121 39.9492 339.344 39.8477 339.625 39.7656C339.91 39.6797 340.215 39.6367 340.539 39.6367C341.027 39.6367 341.455 39.707 341.822 39.8477C342.193 39.9883 342.467 40.1797 342.643 40.4219C342.818 40.6602 342.939 40.9805 343.006 41.3828L341.975 41.5234C341.928 41.2031 341.791 40.9531 341.564 40.7734C341.342 40.5938 341.025 40.5039 340.615 40.5039C340.131 40.5039 339.785 40.584 339.578 40.7441C339.371 40.9043 339.268 41.0918 339.268 41.3066C339.268 41.4434 339.311 41.5664 339.396 41.6758C339.482 41.7891 339.617 41.8828 339.801 41.957C339.906 41.9961 340.217 42.0859 340.732 42.2266C341.479 42.4258 341.998 42.5898 342.291 42.7188C342.588 42.8438 342.82 43.0273 342.988 43.2695C343.156 43.5117 343.24 43.8125 343.24 44.1719C343.24 44.5234 343.137 44.8555 342.93 45.168C342.727 45.4766 342.432 45.7168 342.045 45.8887C341.658 46.0566 341.221 46.1406 340.732 46.1406C339.924 46.1406 339.307 45.9727 338.881 45.6367C338.459 45.3008 338.189 44.8027 338.072 44.1426Z" fill="white" fill-opacity="0.8"/>
<path d="M375.164 42.9883L376.301 43.2754C376.062 44.209 375.633 44.9219 375.012 45.4141C374.395 45.9023 373.639 46.1465 372.744 46.1465C371.818 46.1465 371.064 45.959 370.482 45.584C369.904 45.2051 369.463 44.6582 369.158 43.9434C368.857 43.2285 368.707 42.4609 368.707 41.6406C368.707 40.7461 368.877 39.9668 369.217 39.3027C369.561 38.6348 370.047 38.1289 370.676 37.7852C371.309 37.4375 372.004 37.2637 372.762 37.2637C373.621 37.2637 374.344 37.4824 374.93 37.9199C375.516 38.3574 375.924 38.9727 376.154 39.7656L375.035 40.0293C374.836 39.4043 374.547 38.9492 374.168 38.6641C373.789 38.3789 373.312 38.2363 372.738 38.2363C372.078 38.2363 371.525 38.3945 371.08 38.7109C370.639 39.0273 370.328 39.4531 370.148 39.9883C369.969 40.5195 369.879 41.0684 369.879 41.6348C369.879 42.3652 369.984 43.0039 370.195 43.5508C370.41 44.0938 370.742 44.5 371.191 44.7695C371.641 45.0391 372.127 45.1738 372.65 45.1738C373.287 45.1738 373.826 44.9902 374.268 44.623C374.709 44.2559 375.008 43.7109 375.164 42.9883ZM377.18 42.8887C377.18 41.7363 377.5 40.8828 378.141 40.3281C378.676 39.8672 379.328 39.6367 380.098 39.6367C380.953 39.6367 381.652 39.918 382.195 40.4805C382.738 41.0391 383.01 41.8125 383.01 42.8008C383.01 43.6016 382.889 44.2324 382.646 44.6934C382.408 45.1504 382.059 45.5059 381.598 45.7598C381.141 46.0137 380.641 46.1406 380.098 46.1406C379.227 46.1406 378.521 45.8613 377.982 45.3027C377.447 44.7441 377.18 43.9395 377.18 42.8887ZM378.264 42.8887C378.264 43.6855 378.438 44.2832 378.785 44.6816C379.133 45.0762 379.57 45.2734 380.098 45.2734C380.621 45.2734 381.057 45.0742 381.404 44.6758C381.752 44.2773 381.926 43.6699 381.926 42.8535C381.926 42.084 381.75 41.502 381.398 41.1074C381.051 40.709 380.617 40.5098 380.098 40.5098C379.57 40.5098 379.133 40.707 378.785 41.1016C378.438 41.4961 378.264 42.0918 378.264 42.8887ZM384.229 46V37.4102H385.283V46H384.229ZM386.9 46V37.4102H387.955V46H386.9ZM393.656 45.2324C393.266 45.5645 392.889 45.7988 392.525 45.9355C392.166 46.0723 391.779 46.1406 391.365 46.1406C390.682 46.1406 390.156 45.9746 389.789 45.6426C389.422 45.3066 389.238 44.8789 389.238 44.3594C389.238 44.0547 389.307 43.7773 389.443 43.5273C389.584 43.2734 389.766 43.0703 389.988 42.918C390.215 42.7656 390.469 42.6504 390.75 42.5723C390.957 42.5176 391.27 42.4648 391.688 42.4141C392.539 42.3125 393.166 42.1914 393.568 42.0508C393.572 41.9062 393.574 41.8145 393.574 41.7754C393.574 41.3457 393.475 41.043 393.275 40.8672C393.006 40.6289 392.605 40.5098 392.074 40.5098C391.578 40.5098 391.211 40.5977 390.973 40.7734C390.738 40.9453 390.564 41.252 390.451 41.6934L389.42 41.5527C389.514 41.1113 389.668 40.7559 389.883 40.4863C390.098 40.2129 390.408 40.0039 390.814 39.8594C391.221 39.7109 391.691 39.6367 392.227 39.6367C392.758 39.6367 393.189 39.6992 393.521 39.8242C393.854 39.9492 394.098 40.1074 394.254 40.2988C394.41 40.4863 394.52 40.7246 394.582 41.0137C394.617 41.1934 394.635 41.5176 394.635 41.9863V43.3926C394.635 44.373 394.656 44.9941 394.699 45.2559C394.746 45.5137 394.836 45.7617 394.969 46H393.867C393.758 45.7812 393.688 45.5254 393.656 45.2324ZM393.568 42.877C393.186 43.0332 392.611 43.166 391.846 43.2754C391.412 43.3379 391.105 43.4082 390.926 43.4863C390.746 43.5645 390.607 43.6797 390.51 43.832C390.412 43.9805 390.363 44.1465 390.363 44.3301C390.363 44.6113 390.469 44.8457 390.68 45.0332C390.895 45.2207 391.207 45.3145 391.617 45.3145C392.023 45.3145 392.385 45.2266 392.701 45.0508C393.018 44.8711 393.25 44.627 393.398 44.3184C393.512 44.0801 393.568 43.7285 393.568 43.2637V42.877ZM397.248 46H396.27V37.4102H397.324V40.4746C397.77 39.916 398.338 39.6367 399.029 39.6367C399.412 39.6367 399.773 39.7148 400.113 39.8711C400.457 40.0234 400.738 40.2402 400.957 40.5215C401.18 40.7988 401.354 41.1348 401.479 41.5293C401.604 41.9238 401.666 42.3457 401.666 42.7949C401.666 43.8613 401.402 44.6855 400.875 45.2676C400.348 45.8496 399.715 46.1406 398.977 46.1406C398.242 46.1406 397.666 45.834 397.248 45.2207V46ZM397.236 42.8418C397.236 43.5879 397.338 44.127 397.541 44.459C397.873 45.002 398.322 45.2734 398.889 45.2734C399.35 45.2734 399.748 45.0742 400.084 44.6758C400.42 44.2734 400.588 43.6758 400.588 42.8828C400.588 42.0703 400.426 41.4707 400.102 41.084C399.781 40.6973 399.393 40.5039 398.936 40.5039C398.475 40.5039 398.076 40.7051 397.74 41.1074C397.404 41.5059 397.236 42.084 397.236 42.8418ZM402.562 42.8887C402.562 41.7363 402.883 40.8828 403.523 40.3281C404.059 39.8672 404.711 39.6367 405.48 39.6367C406.336 39.6367 407.035 39.918 407.578 40.4805C408.121 41.0391 408.393 41.8125 408.393 42.8008C408.393 43.6016 408.271 44.2324 408.029 44.6934C407.791 45.1504 407.441 45.5059 406.98 45.7598C406.523 46.0137 406.023 46.1406 405.48 46.1406C404.609 46.1406 403.904 45.8613 403.365 45.3027C402.83 44.7441 402.562 43.9395 402.562 42.8887ZM403.646 42.8887C403.646 43.6855 403.82 44.2832 404.168 44.6816C404.516 45.0762 404.953 45.2734 405.48 45.2734C406.004 45.2734 406.439 45.0742 406.787 44.6758C407.135 44.2773 407.309 43.6699 407.309 42.8535C407.309 42.084 407.133 41.502 406.781 41.1074C406.434 40.709 406 40.5098 405.48 40.5098C404.953 40.5098 404.516 40.707 404.168 41.1016C403.82 41.4961 403.646 42.0918 403.646 42.8887ZM409.623 46V39.7773H410.572V40.7207C410.814 40.2793 411.037 39.9883 411.24 39.8477C411.447 39.707 411.674 39.6367 411.92 39.6367C412.275 39.6367 412.637 39.75 413.004 39.9766L412.641 40.9551C412.383 40.8027 412.125 40.7266 411.867 40.7266C411.637 40.7266 411.43 40.7969 411.246 40.9375C411.062 41.0742 410.932 41.2656 410.854 41.5117C410.736 41.8867 410.678 42.2969 410.678 42.7422V46H409.623ZM417.691 45.2324C417.301 45.5645 416.924 45.7988 416.561 45.9355C416.201 46.0723 415.814 46.1406 415.4 46.1406C414.717 46.1406 414.191 45.9746 413.824 45.6426C413.457 45.3066 413.273 44.8789 413.273 44.3594C413.273 44.0547 413.342 43.7773 413.479 43.5273C413.619 43.2734 413.801 43.0703 414.023 42.918C414.25 42.7656 414.504 42.6504 414.785 42.5723C414.992 42.5176 415.305 42.4648 415.723 42.4141C416.574 42.3125 417.201 42.1914 417.604 42.0508C417.607 41.9062 417.609 41.8145 417.609 41.7754C417.609 41.3457 417.51 41.043 417.311 40.8672C417.041 40.6289 416.641 40.5098 416.109 40.5098C415.613 40.5098 415.246 40.5977 415.008 40.7734C414.773 40.9453 414.6 41.252 414.486 41.6934L413.455 41.5527C413.549 41.1113 413.703 40.7559 413.918 40.4863C414.133 40.2129 414.443 40.0039 414.85 39.8594C415.256 39.7109 415.727 39.6367 416.262 39.6367C416.793 39.6367 417.225 39.6992 417.557 39.8242C417.889 39.9492 418.133 40.1074 418.289 40.2988C418.445 40.4863 418.555 40.7246 418.617 41.0137C418.652 41.1934 418.67 41.5176 418.67 41.9863V43.3926C418.67 44.373 418.691 44.9941 418.734 45.2559C418.781 45.5137 418.871 45.7617 419.004 46H417.902C417.793 45.7812 417.723 45.5254 417.691 45.2324ZM417.604 42.877C417.221 43.0332 416.646 43.166 415.881 43.2754C415.447 43.3379 415.141 43.4082 414.961 43.4863C414.781 43.5645 414.643 43.6797 414.545 43.832C414.447 43.9805 414.398 44.1465 414.398 44.3301C414.398 44.6113 414.504 44.8457 414.715 45.0332C414.93 45.2207 415.242 45.3145 415.652 45.3145C416.059 45.3145 416.42 45.2266 416.736 45.0508C417.053 44.8711 417.285 44.627 417.434 44.3184C417.547 44.0801 417.604 43.7285 417.604 43.2637V42.877ZM422.613 45.0566L422.766 45.9883C422.469 46.0508 422.203 46.082 421.969 46.082C421.586 46.082 421.289 46.0215 421.078 45.9004C420.867 45.7793 420.719 45.6211 420.633 45.4258C420.547 45.2266 420.504 44.8105 420.504 44.1777V40.5977H419.73V39.7773H420.504V38.2363L421.553 37.6035V39.7773H422.613V40.5977H421.553V44.2363C421.553 44.5371 421.57 44.7305 421.605 44.8164C421.645 44.9023 421.705 44.9707 421.787 45.0215C421.873 45.0723 421.994 45.0977 422.15 45.0977C422.268 45.0977 422.422 45.084 422.613 45.0566ZM423.656 38.623V37.4102H424.711V38.623H423.656ZM423.656 46V39.7773H424.711V46H423.656ZM425.93 42.8887C425.93 41.7363 426.25 40.8828 426.891 40.3281C427.426 39.8672 428.078 39.6367 428.848 39.6367C429.703 39.6367 430.402 39.918 430.945 40.4805C431.488 41.0391 431.76 41.8125 431.76 42.8008C431.76 43.6016 431.639 44.2324 431.396 44.6934C431.158 45.1504 430.809 45.5059 430.348 45.7598C429.891 46.0137 429.391 46.1406 428.848 46.1406C427.977 46.1406 427.271 45.8613 426.732 45.3027C426.197 44.7441 425.93 43.9395 425.93 42.8887ZM427.014 42.8887C427.014 43.6855 427.188 44.2832 427.535 44.6816C427.883 45.0762 428.32 45.2734 428.848 45.2734C429.371 45.2734 429.807 45.0742 430.154 44.6758C430.502 44.2773 430.676 43.6699 430.676 42.8535C430.676 42.084 430.5 41.502 430.148 41.1074C429.801 40.709 429.367 40.5098 428.848 40.5098C428.32 40.5098 427.883 40.707 427.535 41.1016C427.188 41.4961 427.014 42.0918 427.014 42.8887ZM433.002 46V39.7773H433.951V40.6621C434.408 39.9785 435.068 39.6367 435.932 39.6367C436.307 39.6367 436.65 39.7051 436.963 39.8418C437.279 39.9746 437.516 40.1504 437.672 40.3691C437.828 40.5879 437.938 40.8477 438 41.1484C438.039 41.3438 438.059 41.6855 438.059 42.1738V46H437.004V42.2148C437.004 41.7852 436.963 41.4648 436.881 41.2539C436.799 41.0391 436.652 40.8691 436.441 40.7441C436.234 40.6152 435.99 40.5508 435.709 40.5508C435.26 40.5508 434.871 40.6934 434.543 40.9785C434.219 41.2637 434.057 41.8047 434.057 42.6016V46H433.002Z" fill="white" fill-opacity="0.8"/>
<path d="M464.391 46V37.4102H467.631C468.201 37.4102 468.637 37.4375 468.938 37.4922C469.359 37.5625 469.713 37.6973 469.998 37.8965C470.283 38.0918 470.512 38.3672 470.684 38.7227C470.859 39.0781 470.947 39.4688 470.947 39.8945C470.947 40.625 470.715 41.2441 470.25 41.752C469.785 42.2559 468.945 42.5078 467.73 42.5078H465.527V46H464.391ZM465.527 41.4941H467.748C468.482 41.4941 469.004 41.3574 469.312 41.084C469.621 40.8105 469.775 40.4258 469.775 39.9297C469.775 39.5703 469.684 39.2637 469.5 39.0098C469.32 38.752 469.082 38.582 468.785 38.5C468.594 38.4492 468.24 38.4238 467.725 38.4238H465.527V41.4941ZM472.248 46V39.7773H473.197V40.7207C473.439 40.2793 473.662 39.9883 473.865 39.8477C474.072 39.707 474.299 39.6367 474.545 39.6367C474.9 39.6367 475.262 39.75 475.629 39.9766L475.266 40.9551C475.008 40.8027 474.75 40.7266 474.492 40.7266C474.262 40.7266 474.055 40.7969 473.871 40.9375C473.688 41.0742 473.557 41.2656 473.479 41.5117C473.361 41.8867 473.303 42.2969 473.303 42.7422V46H472.248ZM475.863 42.8887C475.863 41.7363 476.184 40.8828 476.824 40.3281C477.359 39.8672 478.012 39.6367 478.781 39.6367C479.637 39.6367 480.336 39.918 480.879 40.4805C481.422 41.0391 481.693 41.8125 481.693 42.8008C481.693 43.6016 481.572 44.2324 481.33 44.6934C481.092 45.1504 480.742 45.5059 480.281 45.7598C479.824 46.0137 479.324 46.1406 478.781 46.1406C477.91 46.1406 477.205 45.8613 476.666 45.3027C476.131 44.7441 475.863 43.9395 475.863 42.8887ZM476.947 42.8887C476.947 43.6855 477.121 44.2832 477.469 44.6816C477.816 45.0762 478.254 45.2734 478.781 45.2734C479.305 45.2734 479.74 45.0742 480.088 44.6758C480.436 44.2773 480.609 43.6699 480.609 42.8535C480.609 42.084 480.434 41.502 480.082 41.1074C479.734 40.709 479.301 40.5098 478.781 40.5098C478.254 40.5098 477.816 40.707 477.469 41.1016C477.121 41.4961 476.947 42.0918 476.947 42.8887ZM485.238 45.0566L485.391 45.9883C485.094 46.0508 484.828 46.082 484.594 46.082C484.211 46.082 483.914 46.0215 483.703 45.9004C483.492 45.7793 483.344 45.6211 483.258 45.4258C483.172 45.2266 483.129 44.8105 483.129 44.1777V40.5977H482.355V39.7773H483.129V38.2363L484.178 37.6035V39.7773H485.238V40.5977H484.178V44.2363C484.178 44.5371 484.195 44.7305 484.23 44.8164C484.27 44.9023 484.33 44.9707 484.412 45.0215C484.498 45.0723 484.619 45.0977 484.775 45.0977C484.893 45.0977 485.047 45.084 485.238 45.0566ZM490.535 43.9961L491.625 44.1309C491.453 44.7676 491.135 45.2617 490.67 45.6133C490.205 45.9648 489.611 46.1406 488.889 46.1406C487.979 46.1406 487.256 45.8613 486.721 45.3027C486.189 44.7402 485.924 43.9531 485.924 42.9414C485.924 41.8945 486.193 41.082 486.732 40.5039C487.271 39.9258 487.971 39.6367 488.83 39.6367C489.662 39.6367 490.342 39.9199 490.869 40.4863C491.396 41.0527 491.66 41.8496 491.66 42.877C491.66 42.9395 491.658 43.0332 491.654 43.1582H487.014C487.053 43.8418 487.246 44.3652 487.594 44.7285C487.941 45.0918 488.375 45.2734 488.895 45.2734C489.281 45.2734 489.611 45.1719 489.885 44.9688C490.158 44.7656 490.375 44.4414 490.535 43.9961ZM487.072 42.291H490.547C490.5 41.7676 490.367 41.375 490.148 41.1133C489.812 40.707 489.377 40.5039 488.842 40.5039C488.357 40.5039 487.949 40.666 487.617 40.9902C487.289 41.3145 487.107 41.748 487.072 42.291ZM497.016 43.7207L498.053 43.8555C497.939 44.5703 497.648 45.1309 497.18 45.5371C496.715 45.9395 496.143 46.1406 495.463 46.1406C494.611 46.1406 493.926 45.8633 493.406 45.3086C492.891 44.75 492.633 43.9512 492.633 42.9121C492.633 42.2402 492.744 41.6523 492.967 41.1484C493.189 40.6445 493.527 40.2676 493.98 40.0176C494.438 39.7637 494.934 39.6367 495.469 39.6367C496.145 39.6367 496.697 39.8086 497.127 40.1523C497.557 40.4922 497.832 40.9766 497.953 41.6055L496.928 41.7637C496.83 41.3457 496.656 41.0312 496.406 40.8203C496.16 40.6094 495.861 40.5039 495.51 40.5039C494.979 40.5039 494.547 40.6953 494.215 41.0781C493.883 41.457 493.717 42.0586 493.717 42.8828C493.717 43.7188 493.877 44.3262 494.197 44.7051C494.518 45.084 494.936 45.2734 495.451 45.2734C495.865 45.2734 496.211 45.1465 496.488 44.8926C496.766 44.6387 496.941 44.248 497.016 43.7207ZM501.258 45.0566L501.41 45.9883C501.113 46.0508 500.848 46.082 500.613 46.082C500.23 46.082 499.934 46.0215 499.723 45.9004C499.512 45.7793 499.363 45.6211 499.277 45.4258C499.191 45.2266 499.148 44.8105 499.148 44.1777V40.5977H498.375V39.7773H499.148V38.2363L500.197 37.6035V39.7773H501.258V40.5977H500.197V44.2363C500.197 44.5371 500.215 44.7305 500.25 44.8164C500.289 44.9023 500.35 44.9707 500.432 45.0215C500.518 45.0723 500.639 45.0977 500.795 45.0977C500.912 45.0977 501.066 45.084 501.258 45.0566ZM502.301 38.623V37.4102H503.355V38.623H502.301ZM502.301 46V39.7773H503.355V46H502.301ZM504.574 42.8887C504.574 41.7363 504.895 40.8828 505.535 40.3281C506.07 39.8672 506.723 39.6367 507.492 39.6367C508.348 39.6367 509.047 39.918 509.59 40.4805C510.133 41.0391 510.404 41.8125 510.404 42.8008C510.404 43.6016 510.283 44.2324 510.041 44.6934C509.803 45.1504 509.453 45.5059 508.992 45.7598C508.535 46.0137 508.035 46.1406 507.492 46.1406C506.621 46.1406 505.916 45.8613 505.377 45.3027C504.842 44.7441 504.574 43.9395 504.574 42.8887ZM505.658 42.8887C505.658 43.6855 505.832 44.2832 506.18 44.6816C506.527 45.0762 506.965 45.2734 507.492 45.2734C508.016 45.2734 508.451 45.0742 508.799 44.6758C509.146 44.2773 509.32 43.6699 509.32 42.8535C509.32 42.084 509.145 41.502 508.793 41.1074C508.445 40.709 508.012 40.5098 507.492 40.5098C506.965 40.5098 506.527 40.707 506.18 41.1016C505.832 41.4961 505.658 42.0918 505.658 42.8887ZM511.646 46V39.7773H512.596V40.6621C513.053 39.9785 513.713 39.6367 514.576 39.6367C514.951 39.6367 515.295 39.7051 515.607 39.8418C515.924 39.9746 516.16 40.1504 516.316 40.3691C516.473 40.5879 516.582 40.8477 516.645 41.1484C516.684 41.3438 516.703 41.6855 516.703 42.1738V46H515.648V42.2148C515.648 41.7852 515.607 41.4648 515.525 41.2539C515.443 41.0391 515.297 40.8691 515.086 40.7441C514.879 40.6152 514.635 40.5508 514.354 40.5508C513.904 40.5508 513.516 40.6934 513.188 40.9785C512.863 41.2637 512.701 41.8047 512.701 42.6016V46H511.646Z" fill="white" fill-opacity="0.8"/>
<path d="M545.479 46L542.15 37.4102H543.381L545.613 43.6504C545.793 44.1504 545.943 44.6191 546.064 45.0566C546.197 44.5879 546.352 44.1191 546.527 43.6504L548.848 37.4102H550.008L546.645 46H545.479ZM550.676 38.623V37.4102H551.73V38.623H550.676ZM550.676 46V39.7773H551.73V46H550.676ZM557.602 43.9961L558.691 44.1309C558.52 44.7676 558.201 45.2617 557.736 45.6133C557.271 45.9648 556.678 46.1406 555.955 46.1406C555.045 46.1406 554.322 45.8613 553.787 45.3027C553.256 44.7402 552.99 43.9531 552.99 42.9414C552.99 41.8945 553.26 41.082 553.799 40.5039C554.338 39.9258 555.037 39.6367 555.896 39.6367C556.729 39.6367 557.408 39.9199 557.936 40.4863C558.463 41.0527 558.727 41.8496 558.727 42.877C558.727 42.9395 558.725 43.0332 558.721 43.1582H554.08C554.119 43.8418 554.312 44.3652 554.66 44.7285C555.008 45.0918 555.441 45.2734 555.961 45.2734C556.348 45.2734 556.678 45.1719 556.951 44.9688C557.225 44.7656 557.441 44.4414 557.602 43.9961ZM554.139 42.291H557.613C557.566 41.7676 557.434 41.375 557.215 41.1133C556.879 40.707 556.443 40.5039 555.908 40.5039C555.424 40.5039 555.016 40.666 554.684 40.9902C554.355 41.3145 554.174 41.748 554.139 42.291ZM561.17 46L559.266 39.7773H560.355L561.346 43.3691L561.715 44.7051C561.73 44.6387 561.838 44.2109 562.037 43.4219L563.027 39.7773H564.111L565.043 43.3867L565.354 44.5762L565.711 43.375L566.777 39.7773H567.803L565.857 46H564.762L563.771 42.2734L563.531 41.2129L562.271 46H561.17Z" fill="white" fill-opacity="0.8"/>
<mask id="path-26-inside-1_188_21413" fill="white">
<path d="M0 56H914V124H0V56Z"/>
</mask>
<path d="M0 56H914V124H0V56Z" fill="#404040"/>
<path d="M914 123H0V125H914V123Z" fill="#616161" mask="url(#path-26-inside-1_188_21413)"/>
<path d="M14 71H22V73H23V71C23 70.4477 22.5523 70 22 70H14C13.4477 70 13 70.4477 13 71V78C13 78.5523 13.4477 79 14 79H16V78H14V71Z" fill="white" fill-opacity="0.8"/>
<path d="M21 72H15V73H21V72Z" fill="white" fill-opacity="0.8"/>
<path d="M25 77V76H19V77H25Z" fill="white" fill-opacity="0.8"/>
<path d="M25 78V79H19V78H25Z" fill="white" fill-opacity="0.8"/>
<path d="M25 81V80H19V81H25Z" fill="white" fill-opacity="0.8"/>
<path fill-rule="evenodd" clip-rule="evenodd" d="M18 74C17.4477 74 17 74.4477 17 75V82C17 82.5523 17.4477 83 18 83H26C26.5523 83 27 82.5523 27 82V75C27 74.4477 26.5523 74 26 74H18ZM18 75V82H26V75H18Z" fill="white" fill-opacity="0.8"/>
<path d="M16 74H15V75H16V74Z" fill="white" fill-opacity="0.8"/>
<path d="M15 76H16V77H15V76Z" fill="white" fill-opacity="0.8"/>
<path d="M16 97H22V98H24C24.5523 98 25 98.4477 25 99V101H24V99H22V100H16V99H14V106H16V107H14C13.4477 107 13 106.552 13 106V99C13 98.4477 13.4477 98 14 98H16V97Z" fill="white" fill-opacity="0.8"/>
<path d="M19 105V104H25V105H19Z" fill="white" fill-opacity="0.8"/>
<path d="M25 106H19V107H25V106Z" fill="white" fill-opacity="0.8"/>
<path d="M19 109V108H25V109H19Z" fill="white" fill-opacity="0.8"/>
<path fill-rule="evenodd" clip-rule="evenodd" d="M18 102C17.4477 102 17 102.448 17 103V110C17 110.552 17.4477 111 18 111H26C26.5523 111 27 110.552 27 110V103C27 102.448 26.5523 102 26 102H18ZM26 110V103H18V110H26Z" fill="white" fill-opacity="0.8"/>
<path fill-rule="evenodd" clip-rule="evenodd" d="M48 72.5C48 72.9841 47.8624 73.4361 47.6241 73.819L50.4016 75.4226L57.0798 71.5669C57.5581 71.2908 58.1697 71.4546 58.4458 71.9329L51.4016 75.9999L58.4458 80.0669C58.1697 80.5452 57.5581 80.7091 57.0798 80.4329L50.4016 76.5773L47.6241 78.1809C47.8624 78.5638 48 79.0158 48 79.5C48 80.8807 46.8807 82 45.5 82C44.1193 82 43 80.8807 43 79.5C43 78.1193 44.1193 77 45.5 77C46.0242 77 46.5106 77.1613 46.9125 77.437L49.4016 75.9999L46.9127 74.5629C46.5108 74.8387 46.0242 75 45.5 75C44.1193 75 43 73.8807 43 72.5C43 71.1193 44.1193 70 45.5 70C46.8807 70 48 71.1193 48 72.5ZM47 72.5C47 73.3284 46.3284 74 45.5 74C44.6716 74 44 73.3284 44 72.5C44 71.6716 44.6716 71 45.5 71C46.3284 71 47 71.6716 47 72.5ZM47 79.5C47 80.3284 46.3284 81 45.5 81C44.6716 81 44 80.3284 44 79.5C44 78.6716 44.6716 78 45.5 78C46.3284 78 47 78.6716 47 79.5Z" fill="white" fill-opacity="0.8"/>
<path fill-rule="evenodd" clip-rule="evenodd" d="M47 98H55V101H47V98ZM46 98C46 97.4477 46.4477 97 47 97H55C55.5523 97 56 97.4477 56 98V101C56 101.552 55.5523 102 55 102H47C46.4477 102 46 101.552 46 101V100H45V103H51V105H52V111H49V105H50V104H45C44.4477 104 44 103.552 44 103V100C44 99.4477 44.4477 99 45 99H46V98Z" fill="white" fill-opacity="0.8"/>
<rect width="844" height="68" transform="translate(60 56)" fill="#404040"/>
<rect x="70" y="64" width="1" height="52" fill="#505050"/>
<g clip-path="url(#clip1_188_21413)">
<rect x="81" y="65" width="106" height="22" rx="2" fill="#333333"/>
<path d="M84.9839 80L88.0078 72.126H89.1304L92.353 80H91.166L90.2476 77.6152H86.9551L86.0903 80H84.9839ZM87.2559 76.7666H89.9253L89.1035 74.5859C88.8529 73.9235 88.6667 73.3792 88.5449 72.9531C88.4447 73.458 88.3032 73.9593 88.1206 74.457L87.2559 76.7666ZM93.0513 80V74.2959H93.9214V75.1606C94.1434 74.756 94.3475 74.4893 94.5337 74.3604C94.7235 74.2314 94.9312 74.167 95.1567 74.167C95.4826 74.167 95.8138 74.2708 96.1504 74.4785L95.8174 75.3755C95.5811 75.2358 95.3447 75.166 95.1084 75.166C94.8971 75.166 94.7074 75.2305 94.5391 75.3594C94.3708 75.4847 94.2508 75.6602 94.1792 75.8857C94.0718 76.2295 94.0181 76.6055 94.0181 77.0137V80H93.0513ZM96.7305 73.2378V72.126H97.6973V73.2378H96.7305ZM96.7305 80V74.2959H97.6973V80H96.7305ZM102.896 79.2964C102.538 79.6007 102.193 79.8156 101.86 79.9409C101.53 80.0662 101.176 80.1289 100.796 80.1289C100.17 80.1289 99.6882 79.9767 99.3516 79.6724C99.015 79.3644 98.8467 78.9723 98.8467 78.4961C98.8467 78.2168 98.9093 77.9626 99.0347 77.7334C99.1636 77.5007 99.3301 77.3145 99.5342 77.1748C99.7419 77.0352 99.9746 76.9295 100.232 76.8579C100.422 76.8078 100.709 76.7594 101.092 76.7129C101.872 76.6198 102.447 76.5088 102.816 76.3799C102.819 76.2474 102.821 76.1632 102.821 76.1274C102.821 75.7336 102.73 75.4561 102.547 75.2949C102.3 75.0765 101.933 74.9673 101.446 74.9673C100.992 74.9673 100.655 75.0479 100.437 75.209C100.222 75.3665 100.062 75.6476 99.9585 76.0522L99.0132 75.9233C99.0991 75.5187 99.2406 75.1929 99.4375 74.9458C99.6344 74.6951 99.9191 74.5036 100.292 74.3711C100.664 74.235 101.095 74.167 101.586 74.167C102.073 74.167 102.469 74.2243 102.773 74.3389C103.077 74.4535 103.301 74.5985 103.444 74.7739C103.588 74.9458 103.688 75.1642 103.745 75.4292C103.777 75.5939 103.793 75.8911 103.793 76.3208V77.6099C103.793 78.5086 103.813 79.078 103.853 79.3179C103.896 79.5542 103.978 79.7816 104.1 80H103.09C102.99 79.7995 102.925 79.5649 102.896 79.2964ZM102.816 77.1372C102.465 77.2804 101.939 77.4022 101.237 77.5024C100.839 77.5597 100.558 77.6242 100.394 77.6958C100.229 77.7674 100.102 77.873 100.012 78.0127C99.9227 78.1488 99.8779 78.3009 99.8779 78.4692C99.8779 78.7271 99.9746 78.9419 100.168 79.1138C100.365 79.2856 100.651 79.3716 101.027 79.3716C101.4 79.3716 101.731 79.291 102.021 79.1299C102.311 78.9652 102.524 78.7414 102.66 78.4585C102.764 78.2401 102.816 77.9178 102.816 77.4917V77.1372ZM105.276 80V72.126H106.243V80H105.276Z" fill="white" fill-opacity="0.8"/>
<path d="M183 75L180.5 77.5L178 75" stroke="white" stroke-opacity="0.8"/>
</g>
<rect x="81.5" y="65.5" width="105" height="21" rx="1.5" stroke="#666666"/>
<g clip-path="url(#clip2_188_21413)">
<rect x="189" y="65" width="45" height="22" rx="2" fill="#333333"/>
<path d="M197.098 80H196.131V73.8394C195.899 74.0614 195.592 74.2834 195.213 74.5054C194.837 74.7274 194.499 74.8939 194.198 75.0049V74.0703C194.738 73.8161 195.211 73.5081 195.616 73.1465C196.02 72.7848 196.307 72.4339 196.475 72.0938H197.098V80ZM202.405 80H201.438V73.8394C201.205 74.0614 200.899 74.2834 200.52 74.5054C200.144 74.7274 199.805 74.8939 199.504 75.0049V74.0703C200.045 73.8161 200.518 73.5081 200.922 73.1465C201.327 72.7848 201.613 72.4339 201.782 72.0938H202.405V80Z" fill="white" fill-opacity="0.8"/>
<path d="M230 75L227.5 77.5L225 75" stroke="white" stroke-opacity="0.8"/>
</g>
<rect x="189.5" y="65.5" width="44" height="21" rx="1.5" stroke="#666666"/>
<path fill-rule="evenodd" clip-rule="evenodd" d="M249.5 68.5L247.5 71H251.5L249.5 68.5ZM246.514 76.8324L247.778 80H249L245.007 70H244.014L240 80H241.194L242.444 76.8324H246.514ZM244.965 72.7044L246.146 75.7902H242.861L244.056 72.7044C244.245 72.1821 244.391 71.703 244.493 71.267C244.655 71.8347 244.813 72.3138 244.965 72.7044Z" fill="white" fill-opacity="0.8"/>
<path fill-rule="evenodd" clip-rule="evenodd" d="M271.5 72.5L273.5 70H269.5L271.5 72.5ZM268.066 77.4659L269.049 80H270L266.894 72H266.122L263 80H263.929L264.901 77.4659H268.066ZM266.862 74.1635L267.78 76.6321H265.225L266.154 74.1635C266.302 73.7457 266.415 73.3624 266.495 73.0136C266.621 73.4677 266.743 73.851 266.862 74.1635Z" fill="white" fill-opacity="0.8"/>
<path d="M289.51 77H285.44L284.19 80H283L287 70H288L292 80H290.78L289.51 77ZM285.86 76H289.15L287.5 71.5L285.86 76Z" fill="white" fill-opacity="0.8"/>
<path d="M297 79.9996L296 79.994V79.4996C295.5 79.9996 295 79.9996 294.612 79.9996C294.108 79.9996 293.712 79.8485 293.425 79.5462C293.142 79.244 293 78.8429 293 78.3429C293 77.1012 293.5 76.4996 294.671 76.2403L296 75.9996C296 75.0257 295.562 74.772 295.146 74.772C294.536 74.772 293.494 74.9996 293.494 74.9996V74.5369C293.992 74.1787 294.566 73.9996 295.215 73.9996C296.405 73.9996 297 74.7123 297 76.1377V79.9996ZM296 76.9996L294.968 77.1563C294.592 77.216 294.309 77.3224 294.117 77.4753C293.982 77.5837 293.831 77.8914 293.831 78.2757C293.831 78.5556 293.918 78.7851 294.093 78.9642C294.271 79.1395 294.506 79.2272 294.8 79.2272C295.202 79.2272 295.533 79.0686 295.794 78.7515C296.057 78.4306 296 78.0593 296 77.5705V76.9996Z" fill="white" fill-opacity="0.8"/>
<path d="M308 74L305.5 76.5L303 74" stroke="white" stroke-opacity="0.8"/>
<path d="M87 100H90.1104C91.5277 100 92.5553 100.203 93.1934 100.608C93.8359 101.009 94.1572 101.65 94.1572 102.529C94.1572 103.126 94.016 103.616 93.7334 103.999C93.4554 104.382 93.084 104.612 92.6191 104.689V104.758C93.2526 104.899 93.7083 105.163 93.9863 105.551C94.2689 105.938 94.4102 106.453 94.4102 107.096C94.4102 108.007 94.0798 108.718 93.4189 109.229C92.7627 109.739 91.8695 110 90.7393 110H87V100ZM89 103.958H90.3496C90.9238 103.958 91.3385 103.869 91.5938 103.691C91.8535 103.514 91.9834 103.22 91.9834 102.81C91.9834 102.427 91.8421 102.153 91.5596 101.989C91.2816 101.821 90.8395 101.736 90.2334 101.736H89V103.958ZM89 105.64V108.244H90.5C91.0833 108.244 91.514 108.132 91.792 107.909C92.07 107.686 92.209 107.344 92.209 106.884C92.209 106.054 91.6165 105.64 90.4316 105.64H89Z" fill="white" fill-opacity="0.8"/>
<path fill-rule="evenodd" clip-rule="evenodd" d="M113 100H118V101H116L114.023 109H116V110H111V109H113.045L115.023 101H113V100Z" fill="white" fill-opacity="0.8"/>
<path fill-rule="evenodd" clip-rule="evenodd" d="M143 105.395V100H142V105.5C142 106.325 141.593 106.895 141.132 107.339C140.671 107.778 140.014 107.998 139.161 107.998C138.266 107.998 137.329 107.745 136.868 107.305C136.407 106.866 136 106.216 136 105.395V100H135V105.335C135 106.465 135.332 107.352 135.996 107.998C136.665 108.644 137.867 109 139.084 109C140.302 109 141.259 108.679 141.955 108.038C142.652 107.397 143 106.516 143 105.395ZM144 110H134V111H144V110Z" fill="white" fill-opacity="0.8"/>
<path fill-rule="evenodd" clip-rule="evenodd" d="M165.087 109.281C165.696 108.802 166 108.135 166 107.279C166 106.784 165.895 106.358 165.686 106H169V105H164.548C164.222 104.823 163.829 104.651 163.372 104.484C162.776 104.267 162.333 104.07 162.041 103.892C161.754 103.71 161.55 103.513 161.428 103.3C161.307 103.083 161.246 102.806 161.246 102.468C161.246 102.012 161.411 101.654 161.741 101.397C162.072 101.14 162.53 101.011 163.117 101.011C163.861 101.011 164.626 101.18 165.413 101.517L165.759 100.532C164.963 100.177 164.091 100 163.143 100C162.235 100 161.504 100.222 160.952 100.665C160.4 101.109 160.124 101.705 160.124 102.455C160.124 103.169 160.313 103.748 160.691 104.192C160.947 104.488 161.315 104.758 161.796 105H157V106H164.076C164.355 106.172 164.555 106.358 164.676 106.56C164.811 106.773 164.878 107.048 164.878 107.385C164.878 107.895 164.691 108.295 164.317 108.583C163.943 108.867 163.387 109.009 162.648 109.009C162.196 109.009 161.739 108.96 161.278 108.862C160.817 108.765 160.391 108.632 160 108.463V109.554C160.609 109.851 161.478 110 162.609 110C163.652 110 164.478 109.76 165.087 109.281Z" fill="white" fill-opacity="0.8"/>
<path fill-rule="evenodd" clip-rule="evenodd" d="M190.012 102H193V101.299H191.137V101.261L191.687 100.784C192.054 100.474 192.309 100.236 192.453 100.069C192.599 99.9016 192.707 99.7388 192.775 99.5806C192.845 99.4205 192.88 99.2497 192.88 99.0681C192.88 98.8595 192.824 98.6743 192.711 98.5125C192.597 98.3506 192.439 98.2248 192.234 98.1349C192.029 98.045 191.793 98 191.526 98C191.324 98 191.14 98.0189 190.977 98.0566C190.813 98.0926 190.662 98.1448 190.523 98.2131C190.385 98.2814 190.211 98.3983 190 98.5637L190.491 99.1005C190.661 98.971 190.824 98.8712 190.98 98.8011C191.135 98.731 191.296 98.6959 191.462 98.6959C191.62 98.6959 191.746 98.7345 191.839 98.8119C191.935 98.8892 191.982 99.007 191.982 99.1652C191.982 99.2713 191.961 99.3738 191.918 99.4727C191.875 99.5716 191.805 99.6795 191.708 99.7964C191.61 99.9114 191.403 100.119 191.085 100.419L190.012 101.42V102ZM187.514 106.832L188.778 110H190L186.007 100H185.014L181 110H182.194L183.444 106.832H187.514ZM185.965 102.704L187.146 105.79H183.861L185.056 102.704C185.245 102.182 185.391 101.703 185.493 101.267C185.655 101.835 185.813 102.314 185.965 102.704Z" fill="white" fill-opacity="0.8"/>
<path fill-rule="evenodd" clip-rule="evenodd" d="M211.514 106.832L212.778 110H214L210.007 100H209.014L205 110H206.194L207.444 106.832H211.514ZM209.965 102.704L211.146 105.79H207.861L209.056 102.704C209.245 102.182 209.391 101.703 209.493 101.267C209.655 101.835 209.813 102.314 209.965 102.704ZM215.012 111H218V110.299H216.137V110.261L216.687 109.784C217.054 109.474 217.309 109.236 217.453 109.069C217.599 108.902 217.707 108.739 217.775 108.581C217.845 108.421 217.88 108.25 217.88 108.068C217.88 107.86 217.824 107.674 217.711 107.512C217.597 107.351 217.439 107.225 217.234 107.135C217.029 107.045 216.793 107 216.526 107C216.324 107 216.14 107.019 215.977 107.057C215.813 107.093 215.662 107.145 215.523 107.213C215.385 107.281 215.211 107.398 215 107.564L215.491 108.1C215.661 107.971 215.824 107.871 215.98 107.801C216.135 107.731 216.296 107.696 216.462 107.696C216.62 107.696 216.746 107.735 216.839 107.812C216.935 107.889 216.982 108.007 216.982 108.165C216.982 108.271 216.961 108.374 216.918 108.473C216.875 108.572 216.805 108.679 216.708 108.796C216.61 108.911 216.403 109.119 216.085 109.419L215.012 110.42V111Z" fill="white" fill-opacity="0.8"/>
<path fill-rule="evenodd" clip-rule="evenodd" d="M240.914 97.4998L241.5 98.0856C242.281 98.8667 242.281 100.133 241.5 100.914L234.914 107.5C234.293 108.121 233.365 108.248 232.618 107.881L231.5 109H228.5L231.118 106.381C230.752 105.635 230.879 104.707 231.5 104.086L238.086 97.4998C238.867 96.7188 240.133 96.7188 240.914 97.4998ZM240.207 98.207C239.817 97.8164 239.183 97.8164 238.793 98.207L238.354 98.6463L240.354 100.646L240.793 100.207C241.183 99.8164 241.183 99.1833 240.793 98.7927L240.207 98.207ZM232.207 104.793L237.646 99.3534L239.646 101.353L234.207 106.793C233.817 107.183 233.183 107.183 232.793 106.793L232.207 106.207C231.817 105.816 231.817 105.183 232.207 104.793Z" fill="white" fill-opacity="0.8"/>
<path d="M253 104L250.5 106.5L248 104" stroke="white" stroke-opacity="0.8"/>
<path d="M271.642 109L270.238 105.832H265.716L264.327 109H263L267.46 99H268.563L273 109H271.642ZM269.829 104.79L268.517 101.704C268.347 101.314 268.172 100.835 267.992 100.267C267.879 100.703 267.717 101.182 267.506 101.704L266.179 104.79H269.829Z" fill="white" fill-opacity="0.8"/>
<path d="M286 104L283.5 106.5L281 104" stroke="white" stroke-opacity="0.8"/>
<path fill-rule="evenodd" clip-rule="evenodd" d="M302.414 111H302H299.414C298.884 111 298.375 110.789 298 110.414L296.5 108.914C295.719 108.133 295.719 106.867 296.5 106.086L303.086 99.5001C303.867 98.719 305.133 98.719 305.914 99.5001L308.5 102.086C309.281 102.867 309.281 104.133 308.5 104.914L303.414 110H308V111H302.414ZM302 110L306.001 105.999L302.001 101.999L297.207 106.793C296.816 107.184 296.816 107.817 297.207 108.207L298.707 109.707C298.894 109.895 299.149 110 299.414 110L302 110ZM305.207 100.207C304.816 99.8167 304.183 99.8167 303.793 100.207L302.708 101.292L306.708 105.292L307.793 104.207C308.183 103.817 308.183 103.184 307.793 102.793L305.207 100.207Z" fill="white" fill-opacity="0.8"/>
<rect x="323" y="64" width="1" height="52" fill="#505050"/>
<path d="M339.5 73C340.328 73 341 72.3284 341 71.5C341 70.6716 340.328 70 339.5 70C338.672 70 338 70.6716 338 71.5C338 72.3284 338.672 73 339.5 73Z" fill="white" fill-opacity="0.8"/>
<path d="M339.5 78C340.328 78 341 77.3284 341 76.5C341 75.6716 340.328 75 339.5 75C338.672 75 338 75.6716 338 76.5C338 77.3284 338.672 78 339.5 78Z" fill="white" fill-opacity="0.8"/>
<path d="M341 81.5C341 82.3284 340.328 83 339.5 83C338.672 83 338 82.3284 338 81.5C338 80.6716 338.672 80 339.5 80C340.328 80 341 80.6716 341 81.5Z" fill="white" fill-opacity="0.8"/>
<path d="M342 71H350V72H342V71Z" fill="white" fill-opacity="0.8"/>
<path d="M350 76H342V77H350V76Z" fill="white" fill-opacity="0.8"/>
<path d="M342 81H350V82H342V81Z" fill="white" fill-opacity="0.8"/>
<path d="M362 75L359.5 77.5L357 75" stroke="white" stroke-opacity="0.8"/>
<path fill-rule="evenodd" clip-rule="evenodd" d="M370 73H371V69H370H369V70H370V73ZM373 71H381V72H373V71ZM373 76H381V77H373V76ZM381 81H373V82H381V81ZM372 77V78H369V77L371 75H369V74H370H371L372 75L370 77H372ZM369 83V82H371L370.5 81L371 80H370H369V79H371L372 80L371.5 81L372 82L371 83H369Z" fill="white" fill-opacity="0.8"/>
<path d="M393 75L390.5 77.5L388 75" stroke="white" stroke-opacity="0.8"/>
<path d="M413 73H412V70H411V69H413V73Z" fill="white" fill-opacity="0.8"/>
<path d="M399 71H409V72H399V71Z" fill="white" fill-opacity="0.8"/>
<path d="M399 76H406V77H399V76Z" fill="white" fill-opacity="0.8"/>
<path d="M404 81H399V82H404V81Z" fill="white" fill-opacity="0.8"/>
<path d="M407 80H406V79H407V80Z" fill="white" fill-opacity="0.8"/>
<path d="M407 83H406V81H407V83Z" fill="white" fill-opacity="0.8"/>
<path d="M409.5 77.5C410.052 77.5 410.5 77.0523 410.5 76.5C410.5 75.9477 410.052 75.5 409.5 75.5C408.948 75.5 408.5 75.9477 408.5 76.5C408.5 77.0523 408.948 77.5 409.5 77.5Z" fill="white" fill-opacity="0.8"/>
<path d="M424 75L421.5 77.5L419 75" stroke="white" stroke-opacity="0.8"/>
<path d="M443 71H431V72H443V71Z" fill="white" fill-opacity="0.8"/>
<path d="M443 73H437V74H443V73Z" fill="white" fill-opacity="0.8"/>
<path d="M437 75H443V76H437V75Z" fill="white" fill-opacity="0.8"/>
<path d="M443 77H437V78H443V77Z" fill="white" fill-opacity="0.8"/>
<path d="M437 79H443V80H437V79Z" fill="white" fill-opacity="0.8"/>
<path d="M431 81V82H443V81H431Z" fill="white" fill-opacity="0.8"/>
<path d="M434.354 74.3536L432.707 76H436V77H432.707L434.354 78.6465L433.647 79.3536L430.793 76.5L433.647 73.6465L434.354 74.3536Z" fill="white" fill-opacity="0.8"/>
<path d="M474 71H462V72H474V71Z" fill="white" fill-opacity="0.8"/>
<path d="M474 73H468V74H474V73Z" fill="white" fill-opacity="0.8"/>
<path d="M468 75H474V76H468V75Z" fill="white" fill-opacity="0.8"/>
<path d="M474 77H468V78H474V77Z" fill="white" fill-opacity="0.8"/>
<path d="M468 79H474V80H468V79Z" fill="white" fill-opacity="0.8"/>
<path d="M462 81V82H474V81H462Z" fill="white" fill-opacity="0.8"/>
<path d="M463.646 78.6465L465.293 77H462V76H465.293L463.646 74.3536L464.354 73.6465L467.207 76.5L464.354 79.3536L463.646 78.6465Z" fill="white" fill-opacity="0.8"/>
<path fill-rule="evenodd" clip-rule="evenodd" d="M497.5 77C497.67 77 497.837 76.9879 498 76.9646V82H499V71H501V82H502V71H503V70C501.165 70 499.278 70 497.5 70C495.567 70 494 71.567 494 73.5C494 75.433 495.567 77 497.5 77Z" fill="white" fill-opacity="0.8"/>
<path d="M517 75L514.5 77.5L512 75" stroke="white" stroke-opacity="0.8"/>
<path d="M338 99H350V100H338V99Z" fill="white" fill-opacity="0.8"/>
<path d="M338 101H345V102H338V101Z" fill="white" fill-opacity="0.8"/>
<path d="M348 103H338V104H348V103Z" fill="white" fill-opacity="0.8"/>
<path d="M338 105H345V106H338V105Z" fill="white" fill-opacity="0.8"/>
<path d="M345 107H338V108H345V107Z" fill="white" fill-opacity="0.8"/>
<path d="M338 109H350V110H338V109Z" fill="white" fill-opacity="0.8"/>
<path d="M369 99H381V100H369V99Z" fill="white" fill-opacity="0.8"/>
<path d="M372 101H378V102H372V101Z" fill="white" fill-opacity="0.8"/>
<path d="M380 103H370V104H380V103Z" fill="white" fill-opacity="0.8"/>
<path d="M372 105H378V106H372V105Z" fill="white" fill-opacity="0.8"/>
<path d="M378 107H372V108H378V107Z" fill="white" fill-opacity="0.8"/>
<path d="M369 109H381V110H369V109Z" fill="white" fill-opacity="0.8"/>
<path d="M400 99H412V100H400V99Z" fill="white" fill-opacity="0.8"/>
<path d="M405 101H412V102H405V101Z" fill="white" fill-opacity="0.8"/>
<path d="M412 103H402V104H412V103Z" fill="white" fill-opacity="0.8"/>
<path d="M405 105H412V106H405V105Z" fill="white" fill-opacity="0.8"/>
<path d="M412 107H405V108H412V107Z" fill="white" fill-opacity="0.8"/>
<path d="M400 109H412V110H400V109Z" fill="white" fill-opacity="0.8"/>
<path d="M431 99H443V100H431V99Z" fill="white" fill-opacity="0.8"/>
<path d="M443 101H431V102H443V101Z" fill="white" fill-opacity="0.8"/>
<path d="M431 103H443V104H431V103Z" fill="white" fill-opacity="0.8"/>
<path d="M443 105H431V106H443V105Z" fill="white" fill-opacity="0.8"/>
<path d="M431 107H443V108H431V107Z" fill="white" fill-opacity="0.8"/>
<path d="M431 109H443V110H431V109Z" fill="white" fill-opacity="0.8"/>
<path d="M461.646 100.647L464.5 97.793L467.354 100.647L466.646 101.354L465 99.7072V108.293L466.646 106.647L467.354 107.354L464.5 110.207L461.646 107.354L462.354 106.647L464 108.293V99.7072L462.354 101.354L461.646 100.647Z" fill="white" fill-opacity="0.8"/>
<path d="M475 99H468V100H475V99Z" fill="white" fill-opacity="0.8"/>
<path d="M468 102H475V103H468V102Z" fill="white" fill-opacity="0.8"/>
<path d="M475 105H468V106H475V105Z" fill="white" fill-opacity="0.8"/>
<path d="M468 108H475V109H468V108Z" fill="white" fill-opacity="0.8"/>
<path d="M486 103L483.5 105.5L481 103" stroke="white" stroke-opacity="0.8"/>
<path fill-rule="evenodd" clip-rule="evenodd" d="M498.646 102.354L496.646 100.354L493.207 103.793C492.816 104.183 492.816 104.817 493.207 105.207L495.793 107.793C496.183 108.183 496.816 108.183 497.207 107.793L501.793 103.207C502.183 102.817 502.183 102.183 501.793 101.793L499.207 99.2071C498.816 98.8166 498.183 98.8166 497.793 99.2071L497.353 99.6465L499.353 101.646L498.646 102.354ZM492.5 103.086L495.939 99.6465L493.646 97.3536L494.353 96.6465L496.646 98.9394L497.086 98.5C497.867 97.719 499.133 97.719 499.914 98.5L502.5 101.086C503.281 101.867 503.281 103.133 502.5 103.914L497.914 108.5C497.133 109.281 495.867 109.281 495.086 108.5L492.5 105.914C491.719 105.133 491.719 103.867 492.5 103.086ZM505 107.5C505 108.328 504.328 109 503.5 109C502.671 109 502 108.328 502 107.5C502 106.672 503.5 105 503.5 105C503.5 105 505 106.672 505 107.5Z" fill="white" fill-opacity="0.8"/>
<path d="M517 103L514.5 105.5L512 103" stroke="white" stroke-opacity="0.8"/>
<rect x="530" y="64" width="1" height="52" fill="#505050"/>
<g clip-path="url(#clip3_188_21413)">
<g clip-path="url(#clip4_188_21413)">
<rect x="541.5" y="67.5" width="109" height="45" fill="white"/>
<rect x="541.5" y="67.5" width="109" height="45" stroke="#666666"/>
<rect x="543" y="69" width="106" height="42" fill="white"/>
<rect x="543" y="69" width="106" height="42" stroke="#BDBDBD" stroke-width="2"/>
</g>
</g>
<rect x="541.5" y="67.5" width="322" height="45" stroke="#666666"/>
<g clip-path="url(#clip5_188_21413)">
<mask id="path-83-inside-2_188_21413" fill="white">
<path d="M0 124H40V505H0V124Z"/>
</mask>
<path d="M0 124H40V505H0V124Z" fill="#404040"/>
<path d="M39 124V505H41V124H39Z" fill="#616161" mask="url(#path-83-inside-2_188_21413)"/>
<path fill-rule="evenodd" clip-rule="evenodd" d="M23 152.5C23 154.985 20.9853 157 18.5 157C16.0147 157 14 154.985 14 152.5C14 150.015 16.0147 148 18.5 148C20.9853 148 23 150.015 23 152.5ZM22.0195 156.727C21.0658 157.522 19.8387 158 18.5 158C15.4624 158 13 155.538 13 152.5C13 149.462 15.4624 147 18.5 147C21.5376 147 24 149.462 24 152.5C24 153.839 23.5217 155.066 22.7266 156.02L26.8536 160.146L26.1465 160.854L22.0195 156.727Z" fill="white" fill-opacity="0.8"/>
<path fill-rule="evenodd" clip-rule="evenodd" d="M16 195V196V196.919L18.1253 195.219L18.3992 195H18.75H26V187L14 187V195H15H16ZM15.8123 198.35L18.75 196H26C26.5523 196 27 195.552 27 195V187C27 186.448 26.5523 186 26 186H14C13.4477 186 13 186.448 13 187V195C13 195.552 13.4477 196 14 196H15V197V197.96C15 198.379 15.485 198.612 15.8123 198.35ZM16 189H24V190H16V189ZM22 192H16V193H22V192Z" fill="white" fill-opacity="0.8"/>
<path fill-rule="evenodd" clip-rule="evenodd" d="M13 234.667L15 233V232H14.638L14.3598 232.232L13 233.365V225H25V227H26V225C26 224.448 25.5523 224 25 224H13C12.4477 224 12 224.448 12 225V234.198V235.5L13 234.667ZM24 236H17C16.4477 236 16 235.552 16 235V229C16 228.448 16.4477 228 17 228H27C27.5523 228 28 228.448 28 229V238L24 236ZM27 236.382L24.2361 235H17V229H27V236.382ZM20 232C20 232.552 19.5523 233 19 233C18.4477 233 18 232.552 18 232C18 231.448 18.4477 231 19 231C19.5523 231 20 231.448 20 232ZM22 233C22.5523 233 23 232.552 23 232C23 231.448 22.5523 231 22 231C21.4477 231 21 231.448 21 232C21 232.552 21.4477 233 22 233ZM26 232C26 232.552 25.5523 233 25 233C24.4477 233 24 232.552 24 232C24 231.448 24.4477 231 25 231C25.5523 231 26 231.448 26 232Z" fill="white" fill-opacity="0.8"/>
<path fill-rule="evenodd" clip-rule="evenodd" d="M23 263H14V264H23V263ZM25 266H16V267H25V266ZM18 269H27V270H18V269ZM23 272H14V273H23V272Z" fill="white" fill-opacity="0.8"/>
<path fill-rule="evenodd" clip-rule="evenodd" d="M18 303H12V308H15V311H16V308H18L22 312V299L18 303ZM21 301.414L18.4142 304H13V307H18.4142L21 309.586V301.414ZM23 310.793C25.3085 310.14 27 308.018 27 305.5C27 302.982 25.3085 300.86 23 300.207V301.256C24.7478 301.874 26 303.541 26 305.5C26 307.459 24.7478 309.126 23 309.744V310.793ZM25 305.5C25 306.896 24.1825 308.101 23 308.663V307.5C23.6072 307.044 24 306.318 24 305.5C24 304.682 23.6072 303.956 23 303.5V302.337C24.1825 302.899 25 304.104 25 305.5Z" fill="white" fill-opacity="0.8"/>
<rect width="834" height="381" transform="translate(40 124)" fill="#555555"/>
<rect x="59.5" y="144.5" width="795" height="1125" fill="#3A3A3A" stroke="#616161"/>
</g>
</g>
<defs>
<clipPath id="clip0_188_21413">
<rect width="550" height="318" fill="white"/>
</clipPath>
<clipPath id="clip1_188_21413">
<rect x="81" y="65" width="106" height="22" rx="2" fill="white"/>
</clipPath>
<clipPath id="clip2_188_21413">
<rect x="189" y="65" width="45" height="22" rx="2" fill="white"/>
</clipPath>
<clipPath id="clip3_188_21413">
<rect x="541" y="67" width="323" height="46" fill="white"/>
</clipPath>
<clipPath id="clip4_188_21413">
<rect width="293" height="46" fill="white" transform="translate(541 67)"/>
</clipPath>
<clipPath id="clip5_188_21413">
<rect width="914" height="381" fill="white" transform="translate(0 124)"/>
</clipPath>
</defs>
</svg>
