<svg width="550" height="318" viewBox="0 0 550 318" fill="none" xmlns="http://www.w3.org/2000/svg">
<g clip-path="url(#clip0_188_21359)">
<rect width="550" height="318" fill="#333333"/>
<rect width="914" height="530" fill="white"/>
<rect width="914" height="54" fill="#333333"/>
<rect width="882" height="53" transform="translate(16)" fill="#333333"/>
<path d="M26.7358 29.8369C26.7358 31.1904 26.2471 32.2568 25.2695 33.0361C24.2988 33.8154 22.9453 34.2051 21.209 34.2051C19.6094 34.2051 18.1943 33.9043 16.9639 33.3027V30.3496C17.9756 30.8008 18.8301 31.1187 19.5273 31.3032C20.2314 31.4878 20.874 31.5801 21.4551 31.5801C22.1523 31.5801 22.6855 31.4468 23.0547 31.1802C23.4307 30.9136 23.6187 30.5171 23.6187 29.9907C23.6187 29.6968 23.5366 29.437 23.3726 29.2114C23.2085 28.979 22.9658 28.7568 22.6445 28.5449C22.3301 28.333 21.6841 27.9946 20.7065 27.5298C19.7905 27.0991 19.1035 26.6855 18.6455 26.2891C18.1875 25.8926 17.8218 25.4312 17.5483 24.9048C17.2749 24.3784 17.1382 23.7632 17.1382 23.0591C17.1382 21.7329 17.5859 20.6904 18.4814 19.9316C19.3838 19.1729 20.6279 18.7935 22.2139 18.7935C22.9932 18.7935 23.7349 18.8857 24.439 19.0703C25.1499 19.2549 25.8916 19.5146 26.6641 19.8496L25.6387 22.3208C24.8389 21.9927 24.1758 21.7637 23.6494 21.6338C23.1299 21.5039 22.6172 21.439 22.1113 21.439C21.5098 21.439 21.0483 21.5791 20.7271 21.8594C20.4058 22.1396 20.2451 22.5054 20.2451 22.9565C20.2451 23.2368 20.3101 23.4829 20.4399 23.6948C20.5698 23.8999 20.7749 24.1016 21.0552 24.2998C21.3423 24.4912 22.0156 24.8398 23.0752 25.3457C24.4766 26.0156 25.437 26.689 25.9565 27.3657C26.4761 28.0356 26.7358 28.8594 26.7358 29.8369ZM33.9546 24.5459C33.2915 24.5459 32.772 24.7578 32.396 25.1816C32.02 25.5986 31.8047 26.1934 31.75 26.9658H36.1387C36.125 26.1934 35.9233 25.5986 35.5337 25.1816C35.144 24.7578 34.6177 24.5459 33.9546 24.5459ZM34.3955 34.2051C32.5498 34.2051 31.1074 33.6958 30.0684 32.6772C29.0293 31.6587 28.5098 30.2163 28.5098 28.3501C28.5098 26.4292 28.9883 24.9458 29.9453 23.8999C30.9092 22.8472 32.2388 22.3208 33.9341 22.3208C35.5542 22.3208 36.8154 22.7822 37.7178 23.7051C38.6201 24.6279 39.0713 25.9028 39.0713 27.5298V29.0474H31.6782C31.7124 29.936 31.9756 30.6299 32.4678 31.1289C32.96 31.6279 33.6504 31.8774 34.5391 31.8774C35.2295 31.8774 35.8823 31.8057 36.4976 31.6621C37.1128 31.5186 37.7554 31.2896 38.4253 30.9751V33.395C37.8784 33.6685 37.2939 33.8701 36.6719 34C36.0498 34.1367 35.291 34.2051 34.3955 34.2051ZM44.7417 34H41.6143V18.0449H44.7417V34ZM52.7808 24.5459C52.1177 24.5459 51.5981 24.7578 51.2222 25.1816C50.8462 25.5986 50.6309 26.1934 50.5762 26.9658H54.9648C54.9512 26.1934 54.7495 25.5986 54.3599 25.1816C53.9702 24.7578 53.4438 24.5459 52.7808 24.5459ZM53.2217 34.2051C51.376 34.2051 49.9336 33.6958 48.8945 32.6772C47.8555 31.6587 47.3359 30.2163 47.3359 28.3501C47.3359 26.4292 47.8145 24.9458 48.7715 23.8999C49.7354 22.8472 51.0649 22.3208 52.7603 22.3208C54.3804 22.3208 55.6416 22.7822 56.5439 23.7051C57.4463 24.6279 57.8975 25.9028 57.8975 27.5298V29.0474H50.5044C50.5386 29.936 50.8018 30.6299 51.2939 31.1289C51.7861 31.6279 52.4766 31.8774 53.3652 31.8774C54.0557 31.8774 54.7085 31.8057 55.3237 31.6621C55.939 31.5186 56.5815 31.2896 57.2515 30.9751V33.395C56.7046 33.6685 56.1201 33.8701 55.498 34C54.876 34.1367 54.1172 34.2051 53.2217 34.2051ZM65.0957 34.2051C61.5273 34.2051 59.7432 32.2466 59.7432 28.3296C59.7432 26.3813 60.2285 24.8945 61.1992 23.8691C62.1699 22.8369 63.561 22.3208 65.3726 22.3208C66.6987 22.3208 67.8882 22.5806 68.9409 23.1001L68.0181 25.52C67.5259 25.3218 67.0679 25.1611 66.644 25.0381C66.2202 24.9082 65.7964 24.8433 65.3726 24.8433C63.7456 24.8433 62.9321 25.9985 62.9321 28.3091C62.9321 30.5513 63.7456 31.6724 65.3726 31.6724C65.9741 31.6724 66.5312 31.5938 67.0439 31.4365C67.5566 31.2725 68.0693 31.0195 68.582 30.6777V33.354C68.0762 33.6753 67.5635 33.8975 67.0439 34.0205C66.5312 34.1436 65.8818 34.2051 65.0957 34.2051ZM76.0776 31.7134C76.6245 31.7134 77.2808 31.5938 78.0464 31.3545V33.6821C77.2671 34.0308 76.3101 34.2051 75.1753 34.2051C73.9243 34.2051 73.0117 33.8906 72.4375 33.2617C71.8701 32.626 71.5864 31.6758 71.5864 30.4111V24.8843H70.0894V23.5615L71.812 22.5156L72.7144 20.0957H74.7139V22.5361H77.9233V24.8843H74.7139V30.4111C74.7139 30.8555 74.8369 31.1836 75.083 31.3955C75.3359 31.6074 75.6675 31.7134 76.0776 31.7134ZM92.166 24.8843H89.459V34H86.3315V24.8843H84.6089V23.377L86.3315 22.5361V21.6953C86.3315 20.3896 86.6528 19.436 87.2954 18.8345C87.938 18.2329 88.9668 17.9321 90.3818 17.9321C91.4619 17.9321 92.4224 18.0928 93.2632 18.4141L92.4634 20.7109C91.8345 20.5127 91.2534 20.4136 90.7202 20.4136C90.2759 20.4136 89.9546 20.5469 89.7563 20.8135C89.5581 21.0732 89.459 21.4082 89.459 21.8184V22.5361H92.166V24.8843ZM93.8374 19.5728C93.8374 18.5542 94.4048 18.0449 95.5396 18.0449C96.6743 18.0449 97.2417 18.5542 97.2417 19.5728C97.2417 20.0581 97.0981 20.4375 96.811 20.7109C96.5308 20.9775 96.1069 21.1108 95.5396 21.1108C94.4048 21.1108 93.8374 20.5981 93.8374 19.5728ZM97.0981 34H93.9707V22.5361H97.0981V34ZM103.517 34H100.39V18.0449H103.517V34ZM111.556 24.5459C110.893 24.5459 110.374 24.7578 109.998 25.1816C109.622 25.5986 109.406 26.1934 109.352 26.9658H113.74C113.727 26.1934 113.525 25.5986 113.135 25.1816C112.746 24.7578 112.219 24.5459 111.556 24.5459ZM111.997 34.2051C110.151 34.2051 108.709 33.6958 107.67 32.6772C106.631 31.6587 106.111 30.2163 106.111 28.3501C106.111 26.4292 106.59 24.9458 107.547 23.8999C108.511 22.8472 109.84 22.3208 111.536 22.3208C113.156 22.3208 114.417 22.7822 115.319 23.7051C116.222 24.6279 116.673 25.9028 116.673 27.5298V29.0474H109.28C109.314 29.936 109.577 30.6299 110.069 31.1289C110.562 31.6279 111.252 31.8774 112.141 31.8774C112.831 31.8774 113.484 31.8057 114.099 31.6621C114.714 31.5186 115.357 31.2896 116.027 30.9751V33.395C115.48 33.6685 114.896 33.8701 114.273 34C113.651 34.1367 112.893 34.2051 111.997 34.2051Z" fill="white"/>
<rect y="53" width="914" height="1" fill="#474747"/>
<rect width="914" height="54" transform="translate(0 54)" fill="#333333"/>
<path d="M26.7734 81.1797C26.7734 82.4661 26.5339 83.5417 26.0547 84.4062C25.5755 85.2656 24.8802 85.9141 23.9688 86.3516C23.0573 86.7839 21.9583 87 20.6719 87H17.5V75.5781H21.0156C22.1979 75.5781 23.2188 75.7917 24.0781 76.2188C24.9375 76.6406 25.6016 77.2682 26.0703 78.1016C26.5391 78.9297 26.7734 79.9557 26.7734 81.1797ZM24.8203 81.2344C24.8203 80.2969 24.6719 79.526 24.375 78.9219C24.0833 78.3177 23.651 77.8698 23.0781 77.5781C22.5104 77.2812 21.8099 77.1328 20.9766 77.1328H19.375V85.4297H20.7031C22.0833 85.4297 23.1146 85.0781 23.7969 84.375C24.4792 83.6719 24.8203 82.625 24.8203 81.2344ZM36.7031 82.6562C36.7031 83.375 36.6094 84.013 36.4219 84.5703C36.2344 85.1276 35.9609 85.599 35.6016 85.9844C35.2422 86.3646 34.8099 86.6562 34.3047 86.8594C33.7995 87.0573 33.2292 87.1562 32.5938 87.1562C32 87.1562 31.4557 87.0573 30.9609 86.8594C30.4661 86.6562 30.0365 86.3646 29.6719 85.9844C29.3125 85.599 29.0339 85.1276 28.8359 84.5703C28.638 84.013 28.5391 83.375 28.5391 82.6562C28.5391 81.7031 28.7031 80.8958 29.0312 80.2344C29.3646 79.5677 29.8385 79.0599 30.4531 78.7109C31.0677 78.362 31.7995 78.1875 32.6484 78.1875C33.4453 78.1875 34.1484 78.362 34.7578 78.7109C35.3672 79.0599 35.8438 79.5677 36.1875 80.2344C36.5312 80.901 36.7031 81.7083 36.7031 82.6562ZM30.4297 82.6562C30.4297 83.2865 30.5052 83.8255 30.6562 84.2734C30.8125 84.7214 31.0521 85.0651 31.375 85.3047C31.6979 85.5391 32.1146 85.6562 32.625 85.6562C33.1354 85.6562 33.5521 85.5391 33.875 85.3047C34.1979 85.0651 34.4349 84.7214 34.5859 84.2734C34.737 83.8255 34.8125 83.2865 34.8125 82.6562C34.8125 82.026 34.737 81.4922 34.5859 81.0547C34.4349 80.612 34.1979 80.276 33.875 80.0469C33.5521 79.8125 33.1328 79.6953 32.6172 79.6953C31.8568 79.6953 31.3021 79.9505 30.9531 80.4609C30.6042 80.9714 30.4297 81.7031 30.4297 82.6562ZM42.2969 87.1562C41.4792 87.1562 40.7708 86.9974 40.1719 86.6797C39.5729 86.362 39.112 85.875 38.7891 85.2188C38.4661 84.5625 38.3047 83.7292 38.3047 82.7188C38.3047 81.6667 38.4818 80.8073 38.8359 80.1406C39.1901 79.474 39.6797 78.9818 40.3047 78.6641C40.9349 78.3464 41.6562 78.1875 42.4688 78.1875C42.9844 78.1875 43.4505 78.2396 43.8672 78.3438C44.2891 78.4427 44.6458 78.5651 44.9375 78.7109L44.3906 80.1797C44.0729 80.0495 43.7474 79.9401 43.4141 79.8516C43.0807 79.763 42.7604 79.7188 42.4531 79.7188C41.9479 79.7188 41.526 79.8307 41.1875 80.0547C40.8542 80.2786 40.6042 80.612 40.4375 81.0547C40.276 81.4974 40.1953 82.0469 40.1953 82.7031C40.1953 83.3385 40.2786 83.875 40.4453 84.3125C40.612 84.7448 40.8594 85.0729 41.1875 85.2969C41.5156 85.5156 41.9193 85.625 42.3984 85.625C42.8724 85.625 43.2969 85.5677 43.6719 85.4531C44.0469 85.3385 44.401 85.1901 44.7344 85.0078V86.6016C44.4062 86.7891 44.0547 86.9271 43.6797 87.0156C43.3047 87.1094 42.8438 87.1562 42.2969 87.1562ZM53.5469 83.8906C53.5469 84.5677 53.3802 85.151 53.0469 85.6406C52.7188 86.1302 52.2448 86.5052 51.625 86.7656C51.0104 87.026 50.276 87.1562 49.4219 87.1562C49.0052 87.1562 48.6068 87.1328 48.2266 87.0859C47.8464 87.0391 47.487 86.9714 47.1484 86.8828C46.8151 86.7891 46.5104 86.6771 46.2344 86.5469V84.7812C46.6979 84.9844 47.2161 85.1693 47.7891 85.3359C48.362 85.4974 48.9453 85.5781 49.5391 85.5781C50.0234 85.5781 50.4245 85.5156 50.7422 85.3906C51.0651 85.2604 51.3047 85.0781 51.4609 84.8438C51.6172 84.6042 51.6953 84.3255 51.6953 84.0078C51.6953 83.6693 51.6042 83.3828 51.4219 83.1484C51.2396 82.9141 50.9635 82.7005 50.5938 82.5078C50.2292 82.3099 49.7708 82.099 49.2188 81.875C48.8438 81.724 48.4844 81.5521 48.1406 81.3594C47.8021 81.1667 47.5 80.9401 47.2344 80.6797C46.9688 80.4193 46.7578 80.112 46.6016 79.7578C46.4505 79.3984 46.375 78.9766 46.375 78.4922C46.375 77.8464 46.5286 77.2943 46.8359 76.8359C47.1484 76.3776 47.5859 76.026 48.1484 75.7812C48.7161 75.5365 49.3776 75.4141 50.1328 75.4141C50.7318 75.4141 51.2943 75.4766 51.8203 75.6016C52.3516 75.7266 52.8724 75.9036 53.3828 76.1328L52.7891 77.6406C52.3203 77.4479 51.8646 77.2943 51.4219 77.1797C50.9844 77.0651 50.5365 77.0078 50.0781 77.0078C49.6823 77.0078 49.3464 77.0677 49.0703 77.1875C48.7943 77.3073 48.5833 77.4766 48.4375 77.6953C48.2969 77.9089 48.2266 78.1641 48.2266 78.4609C48.2266 78.7943 48.3073 79.0755 48.4688 79.3047C48.6354 79.5286 48.8906 79.7344 49.2344 79.9219C49.5833 80.1094 50.0312 80.3177 50.5781 80.5469C51.2083 80.8073 51.7422 81.0807 52.1797 81.3672C52.6224 81.6536 52.9609 81.9974 53.1953 82.3984C53.4297 82.7943 53.5469 83.2917 53.5469 83.8906ZM60 78.1875C61.026 78.1875 61.849 78.5625 62.4688 79.3125C63.0938 80.0625 63.4062 81.1771 63.4062 82.6562C63.4062 83.6354 63.2604 84.4609 62.9688 85.1328C62.6823 85.7995 62.2786 86.3047 61.7578 86.6484C61.2422 86.987 60.6406 87.1562 59.9531 87.1562C59.5156 87.1562 59.1354 87.099 58.8125 86.9844C58.4896 86.8698 58.2135 86.7214 57.9844 86.5391C57.7552 86.3516 57.5625 86.1484 57.4062 85.9297H57.2969C57.3229 86.138 57.3464 86.3698 57.3672 86.625C57.3932 86.875 57.4062 87.1042 57.4062 87.3125V90.8359H55.5625V78.3516H57.0625L57.3203 79.5469H57.4062C57.5677 79.3021 57.763 79.0755 57.9922 78.8672C58.2266 78.6589 58.5078 78.4948 58.8359 78.375C59.1693 78.25 59.5573 78.1875 60 78.1875ZM59.5078 79.6875C59.0026 79.6875 58.5964 79.7891 58.2891 79.9922C57.987 80.1901 57.7656 80.4896 57.625 80.8906C57.4896 81.2917 57.4167 81.7943 57.4062 82.3984V82.6562C57.4062 83.2969 57.4714 83.8411 57.6016 84.2891C57.737 84.7318 57.9583 85.0703 58.2656 85.3047C58.5781 85.5339 59 85.6484 59.5312 85.6484C59.9792 85.6484 60.349 85.526 60.6406 85.2812C60.9375 85.0365 61.1589 84.6875 61.3047 84.2344C61.4505 83.7812 61.5234 83.2474 61.5234 82.6328C61.5234 81.7005 61.3568 80.9766 61.0234 80.4609C60.6953 79.9453 60.1901 79.6875 59.5078 79.6875ZM68.9219 78.1875C70.0156 78.1875 70.8411 78.4297 71.3984 78.9141C71.9609 79.3984 72.2422 80.1536 72.2422 81.1797V87H70.9375L70.5859 85.7734H70.5234C70.2786 86.0859 70.026 86.3438 69.7656 86.5469C69.5052 86.75 69.2031 86.901 68.8594 87C68.5208 87.1042 68.1068 87.1562 67.6172 87.1562C67.1016 87.1562 66.6406 87.0625 66.2344 86.875C65.8281 86.6823 65.5078 86.3906 65.2734 86C65.0391 85.6094 64.9219 85.1146 64.9219 84.5156C64.9219 83.625 65.2526 82.9557 65.9141 82.5078C66.5807 82.0599 67.5859 81.8125 68.9297 81.7656L70.4297 81.7109V81.2578C70.4297 80.6589 70.2891 80.2318 70.0078 79.9766C69.7318 79.7214 69.3411 79.5938 68.8359 79.5938C68.4036 79.5938 67.9844 79.6562 67.5781 79.7812C67.1719 79.9062 66.776 80.0599 66.3906 80.2422L65.7969 78.9453C66.2188 78.7214 66.6979 78.5391 67.2344 78.3984C67.776 78.2578 68.3385 78.1875 68.9219 78.1875ZM70.4219 82.8672L69.3047 82.9062C68.388 82.9375 67.7448 83.0938 67.375 83.375C67.0052 83.6562 66.8203 84.0417 66.8203 84.5312C66.8203 84.9583 66.9479 85.2708 67.2031 85.4688C67.4583 85.6615 67.7943 85.7578 68.2109 85.7578C68.8464 85.7578 69.3724 85.5781 69.7891 85.2188C70.2109 84.8542 70.4219 84.3203 70.4219 83.6172V82.8672ZM78.2969 87.1562C77.4792 87.1562 76.7708 86.9974 76.1719 86.6797C75.5729 86.362 75.112 85.875 74.7891 85.2188C74.4661 84.5625 74.3047 83.7292 74.3047 82.7188C74.3047 81.6667 74.4818 80.8073 74.8359 80.1406C75.1901 79.474 75.6797 78.9818 76.3047 78.6641C76.9349 78.3464 77.6562 78.1875 78.4688 78.1875C78.9844 78.1875 79.4505 78.2396 79.8672 78.3438C80.2891 78.4427 80.6458 78.5651 80.9375 78.7109L80.3906 80.1797C80.0729 80.0495 79.7474 79.9401 79.4141 79.8516C79.0807 79.763 78.7604 79.7188 78.4531 79.7188C77.9479 79.7188 77.526 79.8307 77.1875 80.0547C76.8542 80.2786 76.6042 80.612 76.4375 81.0547C76.276 81.4974 76.1953 82.0469 76.1953 82.7031C76.1953 83.3385 76.2786 83.875 76.4453 84.3125C76.612 84.7448 76.8594 85.0729 77.1875 85.2969C77.5156 85.5156 77.9193 85.625 78.3984 85.625C78.8724 85.625 79.2969 85.5677 79.6719 85.4531C80.0469 85.3385 80.401 85.1901 80.7344 85.0078V86.6016C80.4062 86.7891 80.0547 86.9271 79.6797 87.0156C79.3047 87.1094 78.8438 87.1562 78.2969 87.1562ZM86.2109 78.1875C86.9818 78.1875 87.6432 78.3464 88.1953 78.6641C88.7474 78.9818 89.1719 79.4323 89.4688 80.0156C89.7656 80.599 89.9141 81.2969 89.9141 82.1094V83.0938H84.1406C84.1615 83.9323 84.3854 84.5781 84.8125 85.0312C85.2448 85.4844 85.849 85.7109 86.625 85.7109C87.1771 85.7109 87.6719 85.6589 88.1094 85.5547C88.5521 85.4453 89.0078 85.2865 89.4766 85.0781V86.5703C89.0443 86.7734 88.6042 86.9219 88.1562 87.0156C87.7083 87.1094 87.1719 87.1562 86.5469 87.1562C85.6979 87.1562 84.9505 86.9922 84.3047 86.6641C83.6641 86.3307 83.1615 85.8359 82.7969 85.1797C82.4375 84.5234 82.2578 83.7083 82.2578 82.7344C82.2578 81.7656 82.4219 80.9427 82.75 80.2656C83.0781 79.5885 83.5391 79.0729 84.1328 78.7188C84.7266 78.3646 85.4193 78.1875 86.2109 78.1875ZM86.2109 79.5703C85.6328 79.5703 85.1641 79.7578 84.8047 80.1328C84.4505 80.5078 84.2422 81.0573 84.1797 81.7812H88.1172C88.112 81.349 88.0391 80.9661 87.8984 80.6328C87.763 80.2995 87.5547 80.0391 87.2734 79.8516C86.9974 79.6641 86.6432 79.5703 86.2109 79.5703Z" fill="#ADADAD"/>
<path fill-rule="evenodd" clip-rule="evenodd" d="M106.586 81.9999L102.293 77.707L103.707 76.2928L108.707 81.2928C109.098 81.6833 109.098 82.3165 108.707 82.707L103.707 87.707L102.293 86.2928L106.586 81.9999Z" fill="#ADADAD"/>
<path d="M123.711 75.5781C124.695 75.5781 125.508 75.6979 126.148 75.9375C126.794 76.1771 127.273 76.5417 127.586 77.0312C127.904 77.5208 128.062 78.1432 128.062 78.8984C128.062 79.4609 127.958 79.9401 127.75 80.3359C127.542 80.7318 127.268 81.0599 126.93 81.3203C126.591 81.5807 126.229 81.7891 125.844 81.9453L129.086 87H126.969L124.211 82.4219H122.375V87H120.5V75.5781H123.711ZM123.586 77.1406H122.375V80.875H123.672C124.542 80.875 125.172 80.7135 125.562 80.3906C125.958 80.0677 126.156 79.5911 126.156 78.9609C126.156 78.2995 125.945 77.8307 125.523 77.5547C125.107 77.2786 124.461 77.1406 123.586 77.1406ZM138.188 82.6562C138.188 83.375 138.094 84.013 137.906 84.5703C137.719 85.1276 137.445 85.599 137.086 85.9844C136.727 86.3646 136.294 86.6562 135.789 86.8594C135.284 87.0573 134.714 87.1562 134.078 87.1562C133.484 87.1562 132.94 87.0573 132.445 86.8594C131.951 86.6562 131.521 86.3646 131.156 85.9844C130.797 85.599 130.518 85.1276 130.32 84.5703C130.122 84.013 130.023 83.375 130.023 82.6562C130.023 81.7031 130.188 80.8958 130.516 80.2344C130.849 79.5677 131.323 79.0599 131.938 78.7109C132.552 78.362 133.284 78.1875 134.133 78.1875C134.93 78.1875 135.633 78.362 136.242 78.7109C136.852 79.0599 137.328 79.5677 137.672 80.2344C138.016 80.901 138.188 81.7083 138.188 82.6562ZM131.914 82.6562C131.914 83.2865 131.99 83.8255 132.141 84.2734C132.297 84.7214 132.536 85.0651 132.859 85.3047C133.182 85.5391 133.599 85.6562 134.109 85.6562C134.62 85.6562 135.036 85.5391 135.359 85.3047C135.682 85.0651 135.919 84.7214 136.07 84.2734C136.221 83.8255 136.297 83.2865 136.297 82.6562C136.297 82.026 136.221 81.4922 136.07 81.0547C135.919 80.612 135.682 80.276 135.359 80.0469C135.036 79.8125 134.617 79.6953 134.102 79.6953C133.341 79.6953 132.786 79.9505 132.438 80.4609C132.089 80.9714 131.914 81.7031 131.914 82.6562ZM147.953 82.6562C147.953 83.375 147.859 84.013 147.672 84.5703C147.484 85.1276 147.211 85.599 146.852 85.9844C146.492 86.3646 146.06 86.6562 145.555 86.8594C145.049 87.0573 144.479 87.1562 143.844 87.1562C143.25 87.1562 142.706 87.0573 142.211 86.8594C141.716 86.6562 141.286 86.3646 140.922 85.9844C140.562 85.599 140.284 85.1276 140.086 84.5703C139.888 84.013 139.789 83.375 139.789 82.6562C139.789 81.7031 139.953 80.8958 140.281 80.2344C140.615 79.5677 141.089 79.0599 141.703 78.7109C142.318 78.362 143.049 78.1875 143.898 78.1875C144.695 78.1875 145.398 78.362 146.008 78.7109C146.617 79.0599 147.094 79.5677 147.438 80.2344C147.781 80.901 147.953 81.7083 147.953 82.6562ZM141.68 82.6562C141.68 83.2865 141.755 83.8255 141.906 84.2734C142.062 84.7214 142.302 85.0651 142.625 85.3047C142.948 85.5391 143.365 85.6562 143.875 85.6562C144.385 85.6562 144.802 85.5391 145.125 85.3047C145.448 85.0651 145.685 84.7214 145.836 84.2734C145.987 83.8255 146.062 83.2865 146.062 82.6562C146.062 82.026 145.987 81.4922 145.836 81.0547C145.685 80.612 145.448 80.276 145.125 80.0469C144.802 79.8125 144.383 79.6953 143.867 79.6953C143.107 79.6953 142.552 79.9505 142.203 80.4609C141.854 80.9714 141.68 81.7031 141.68 82.6562ZM159.836 78.1875C160.805 78.1875 161.534 78.4375 162.023 78.9375C162.518 79.4375 162.766 80.2396 162.766 81.3438V87H160.93V81.6719C160.93 81.0156 160.802 80.5208 160.547 80.1875C160.292 79.8542 159.904 79.6875 159.383 79.6875C158.654 79.6875 158.128 79.9219 157.805 80.3906C157.487 80.8542 157.328 81.5286 157.328 82.4141V87H155.492V81.6719C155.492 81.2344 155.435 80.8698 155.32 80.5781C155.211 80.2812 155.042 80.0599 154.812 79.9141C154.583 79.763 154.294 79.6875 153.945 79.6875C153.44 79.6875 153.036 79.8021 152.734 80.0312C152.438 80.2604 152.224 80.599 152.094 81.0469C151.964 81.4896 151.898 82.0339 151.898 82.6797V87H150.062V78.3516H151.492L151.75 79.5156H151.852C152.029 79.2135 152.247 78.9661 152.508 78.7734C152.773 78.5755 153.068 78.4297 153.391 78.3359C153.714 78.237 154.049 78.1875 154.398 78.1875C155.044 78.1875 155.589 78.3021 156.031 78.5312C156.474 78.7552 156.805 79.099 157.023 79.5625H157.164C157.435 79.0938 157.812 78.7474 158.297 78.5234C158.781 78.2995 159.294 78.1875 159.836 78.1875ZM171.141 84.5312C171.141 85.099 171.003 85.5781 170.727 85.9688C170.451 86.3594 170.047 86.6562 169.516 86.8594C168.99 87.0573 168.344 87.1562 167.578 87.1562C166.974 87.1562 166.453 87.112 166.016 87.0234C165.583 86.9401 165.174 86.8099 164.789 86.6328V85.0469C165.201 85.2396 165.661 85.4062 166.172 85.5469C166.688 85.6875 167.174 85.7578 167.633 85.7578C168.237 85.7578 168.672 85.6641 168.938 85.4766C169.203 85.2839 169.336 85.0286 169.336 84.7109C169.336 84.5234 169.281 84.3568 169.172 84.2109C169.068 84.0599 168.87 83.9062 168.578 83.75C168.292 83.5885 167.87 83.3958 167.312 83.1719C166.766 82.9531 166.305 82.7344 165.93 82.5156C165.555 82.2969 165.271 82.0339 165.078 81.7266C164.885 81.4141 164.789 81.0156 164.789 80.5312C164.789 79.7656 165.091 79.1849 165.695 78.7891C166.305 78.388 167.109 78.1875 168.109 78.1875C168.641 78.1875 169.141 78.2422 169.609 78.3516C170.083 78.4557 170.547 78.6094 171 78.8125L170.422 80.1953C170.031 80.0234 169.638 79.8828 169.242 79.7734C168.852 79.6589 168.453 79.6016 168.047 79.6016C167.573 79.6016 167.211 79.6745 166.961 79.8203C166.716 79.9661 166.594 80.1745 166.594 80.4453C166.594 80.6484 166.654 80.8203 166.773 80.9609C166.893 81.1016 167.099 81.2422 167.391 81.3828C167.688 81.5234 168.099 81.6979 168.625 81.9062C169.141 82.1042 169.586 82.3125 169.961 82.5312C170.341 82.7448 170.633 83.0078 170.836 83.3203C171.039 83.6328 171.141 84.0365 171.141 84.5312Z" fill="#ADADAD"/>
<path fill-rule="evenodd" clip-rule="evenodd" d="M187.586 81.9999L183.293 77.707L184.707 76.2928L189.707 81.2928C190.098 81.6833 190.098 82.3165 189.707 82.707L184.707 87.707L183.293 86.2928L187.586 81.9999Z" fill="#ADADAD"/>
<path d="M210.773 81.1797C210.773 82.4661 210.534 83.5417 210.055 84.4062C209.576 85.2656 208.88 85.9141 207.969 86.3516C207.057 86.7839 205.958 87 204.672 87H201.5V75.5781H205.016C206.198 75.5781 207.219 75.7917 208.078 76.2188C208.938 76.6406 209.602 77.2682 210.07 78.1016C210.539 78.9297 210.773 79.9557 210.773 81.1797ZM208.82 81.2344C208.82 80.2969 208.672 79.526 208.375 78.9219C208.083 78.3177 207.651 77.8698 207.078 77.5781C206.51 77.2812 205.81 77.1328 204.977 77.1328H203.375V85.4297H204.703C206.083 85.4297 207.115 85.0781 207.797 84.375C208.479 83.6719 208.82 82.625 208.82 81.2344ZM216.438 78.1875C217.531 78.1875 218.357 78.4297 218.914 78.9141C219.477 79.3984 219.758 80.1536 219.758 81.1797V87H218.453L218.102 85.7734H218.039C217.794 86.0859 217.542 86.3438 217.281 86.5469C217.021 86.75 216.719 86.901 216.375 87C216.036 87.1042 215.622 87.1562 215.133 87.1562C214.617 87.1562 214.156 87.0625 213.75 86.875C213.344 86.6823 213.023 86.3906 212.789 86C212.555 85.6094 212.438 85.1146 212.438 84.5156C212.438 83.625 212.768 82.9557 213.43 82.5078C214.096 82.0599 215.102 81.8125 216.445 81.7656L217.945 81.7109V81.2578C217.945 80.6589 217.805 80.2318 217.523 79.9766C217.247 79.7214 216.857 79.5938 216.352 79.5938C215.919 79.5938 215.5 79.6562 215.094 79.7812C214.688 79.9062 214.292 80.0599 213.906 80.2422L213.312 78.9453C213.734 78.7214 214.214 78.5391 214.75 78.3984C215.292 78.2578 215.854 78.1875 216.438 78.1875ZM217.938 82.8672L216.82 82.9062C215.904 82.9375 215.26 83.0938 214.891 83.375C214.521 83.6562 214.336 84.0417 214.336 84.5312C214.336 84.9583 214.464 85.2708 214.719 85.4688C214.974 85.6615 215.31 85.7578 215.727 85.7578C216.362 85.7578 216.888 85.5781 217.305 85.2188C217.727 84.8542 217.938 84.3203 217.938 83.6172V82.8672ZM225.547 85.6719C225.786 85.6719 226.023 85.651 226.258 85.6094C226.492 85.5625 226.706 85.5078 226.898 85.4453V86.8359C226.695 86.9245 226.432 87 226.109 87.0625C225.786 87.125 225.451 87.1562 225.102 87.1562C224.612 87.1562 224.172 87.0755 223.781 86.9141C223.391 86.7474 223.081 86.4635 222.852 86.0625C222.622 85.6615 222.508 85.1068 222.508 84.3984V79.75H221.328V78.9297L222.594 78.2812L223.195 76.4297H224.352V78.3516H226.828V79.75H224.352V84.375C224.352 84.8125 224.461 85.138 224.68 85.3516C224.898 85.5651 225.188 85.6719 225.547 85.6719ZM232.047 78.1875C233.141 78.1875 233.966 78.4297 234.523 78.9141C235.086 79.3984 235.367 80.1536 235.367 81.1797V87H234.062L233.711 85.7734H233.648C233.404 86.0859 233.151 86.3438 232.891 86.5469C232.63 86.75 232.328 86.901 231.984 87C231.646 87.1042 231.232 87.1562 230.742 87.1562C230.227 87.1562 229.766 87.0625 229.359 86.875C228.953 86.6823 228.633 86.3906 228.398 86C228.164 85.6094 228.047 85.1146 228.047 84.5156C228.047 83.625 228.378 82.9557 229.039 82.5078C229.706 82.0599 230.711 81.8125 232.055 81.7656L233.555 81.7109V81.2578C233.555 80.6589 233.414 80.2318 233.133 79.9766C232.857 79.7214 232.466 79.5938 231.961 79.5938C231.529 79.5938 231.109 79.6562 230.703 79.7812C230.297 79.9062 229.901 80.0599 229.516 80.2422L228.922 78.9453C229.344 78.7214 229.823 78.5391 230.359 78.3984C230.901 78.2578 231.464 78.1875 232.047 78.1875ZM233.547 82.8672L232.43 82.9062C231.513 82.9375 230.87 83.0938 230.5 83.375C230.13 83.6562 229.945 84.0417 229.945 84.5312C229.945 84.9583 230.073 85.2708 230.328 85.4688C230.583 85.6615 230.919 85.7578 231.336 85.7578C231.971 85.7578 232.497 85.5781 232.914 85.2188C233.336 84.8542 233.547 84.3203 233.547 83.6172V82.8672ZM249.164 86.9922L248.07 82.9688C248.018 82.7708 247.956 82.5312 247.883 82.25C247.81 81.9688 247.737 81.6797 247.664 81.3828C247.591 81.0807 247.523 80.8021 247.461 80.5469C247.404 80.2917 247.359 80.0938 247.328 79.9531H247.266C247.24 80.0938 247.198 80.2917 247.141 80.5469C247.083 80.8021 247.018 81.0807 246.945 81.3828C246.872 81.6849 246.799 81.9792 246.727 82.2656C246.659 82.5521 246.596 82.7969 246.539 83L245.391 86.9922H243.375L240.953 78.3438H242.812L243.938 82.6406C244.01 82.9323 244.081 83.2474 244.148 83.5859C244.221 83.9245 244.284 84.2474 244.336 84.5547C244.388 84.862 244.427 85.1146 244.453 85.3125H244.516C244.536 85.1719 244.565 84.9948 244.602 84.7812C244.638 84.5625 244.68 84.3359 244.727 84.1016C244.773 83.862 244.82 83.638 244.867 83.4297C244.914 83.2161 244.958 83.0443 245 82.9141L246.328 78.3438H248.336L249.609 82.9141C249.667 83.112 249.729 83.362 249.797 83.6641C249.865 83.9609 249.924 84.2604 249.977 84.5625C250.034 84.8594 250.07 85.1068 250.086 85.3047H250.148C250.169 85.1276 250.206 84.888 250.258 84.5859C250.315 84.2786 250.38 83.9531 250.453 83.6094C250.526 83.2604 250.602 82.9375 250.68 82.6406L251.828 78.3438H253.656L251.219 86.9922H249.164ZM262.797 82.6562C262.797 83.375 262.703 84.013 262.516 84.5703C262.328 85.1276 262.055 85.599 261.695 85.9844C261.336 86.3646 260.904 86.6562 260.398 86.8594C259.893 87.0573 259.323 87.1562 258.688 87.1562C258.094 87.1562 257.549 87.0573 257.055 86.8594C256.56 86.6562 256.13 86.3646 255.766 85.9844C255.406 85.599 255.128 85.1276 254.93 84.5703C254.732 84.013 254.633 83.375 254.633 82.6562C254.633 81.7031 254.797 80.8958 255.125 80.2344C255.458 79.5677 255.932 79.0599 256.547 78.7109C257.161 78.362 257.893 78.1875 258.742 78.1875C259.539 78.1875 260.242 78.362 260.852 78.7109C261.461 79.0599 261.938 79.5677 262.281 80.2344C262.625 80.901 262.797 81.7083 262.797 82.6562ZM256.523 82.6562C256.523 83.2865 256.599 83.8255 256.75 84.2734C256.906 84.7214 257.146 85.0651 257.469 85.3047C257.792 85.5391 258.208 85.6562 258.719 85.6562C259.229 85.6562 259.646 85.5391 259.969 85.3047C260.292 85.0651 260.529 84.7214 260.68 84.2734C260.831 83.8255 260.906 83.2865 260.906 82.6562C260.906 82.026 260.831 81.4922 260.68 81.0547C260.529 80.612 260.292 80.276 259.969 80.0469C259.646 79.8125 259.227 79.6953 258.711 79.6953C257.951 79.6953 257.396 79.9505 257.047 80.4609C256.698 80.9714 256.523 81.7031 256.523 82.6562ZM269.289 78.1875C269.435 78.1875 269.594 78.1953 269.766 78.2109C269.938 78.2266 270.086 78.2474 270.211 78.2734L270.039 79.9922C269.93 79.9609 269.794 79.9375 269.633 79.9219C269.477 79.9062 269.336 79.8984 269.211 79.8984C268.883 79.8984 268.57 79.9531 268.273 80.0625C267.977 80.1667 267.714 80.3281 267.484 80.5469C267.255 80.7604 267.076 81.0286 266.945 81.3516C266.815 81.6745 266.75 82.0495 266.75 82.4766V87H264.906V78.3516H266.344L266.594 79.875H266.68C266.852 79.5677 267.065 79.2865 267.32 79.0312C267.576 78.776 267.867 78.5729 268.195 78.4219C268.529 78.2656 268.893 78.1875 269.289 78.1875ZM273.648 74.8438V80.7188C273.648 80.9844 273.638 81.276 273.617 81.5938C273.596 81.9062 273.576 82.2005 273.555 82.4766H273.594C273.729 82.2943 273.891 82.0807 274.078 81.8359C274.271 81.5911 274.453 81.3776 274.625 81.1953L277.266 78.3516H279.375L275.914 82.0703L279.602 87H277.445L274.68 83.2031L273.648 84.0859V87H271.812V74.8438H273.648Z" fill="white"/>
<rect width="914" height="44" transform="translate(0 108)" fill="#333333"/>
<g clip-path="url(#clip1_188_21359)">
<rect x="16" y="108" width="882" height="32" rx="3" fill="#282828"/>
<path d="M30.5762 126.474C30.5762 127.024 30.4408 127.498 30.1699 127.896C29.9033 128.293 29.5182 128.598 29.0146 128.81C28.5153 129.021 27.9186 129.127 27.2246 129.127C26.8861 129.127 26.5623 129.108 26.2534 129.07C25.9445 129.032 25.6525 128.977 25.3774 128.905C25.1066 128.829 24.859 128.738 24.6348 128.632V127.197C25.0114 127.362 25.4325 127.513 25.8979 127.648C26.3634 127.779 26.8374 127.845 27.3198 127.845C27.7134 127.845 28.0392 127.794 28.2974 127.692C28.5597 127.587 28.7544 127.438 28.8813 127.248C29.0083 127.053 29.0718 126.827 29.0718 126.569C29.0718 126.294 28.9977 126.061 28.8496 125.871C28.7015 125.68 28.4772 125.507 28.1768 125.35C27.8805 125.189 27.5081 125.018 27.0596 124.836C26.7549 124.713 26.4629 124.574 26.1836 124.417C25.9085 124.26 25.6631 124.076 25.4473 123.865C25.2314 123.653 25.0601 123.403 24.9331 123.116C24.8104 122.824 24.749 122.481 24.749 122.087C24.749 121.563 24.8739 121.114 25.1235 120.742C25.3774 120.369 25.7329 120.084 26.1899 119.885C26.6512 119.686 27.1886 119.586 27.8022 119.586C28.2889 119.586 28.7459 119.637 29.1733 119.739C29.605 119.84 30.0282 119.984 30.4429 120.17L29.9604 121.396C29.5796 121.239 29.2093 121.114 28.8496 121.021C28.4941 120.928 28.1302 120.881 27.7578 120.881C27.4362 120.881 27.1632 120.93 26.939 121.027C26.7147 121.125 26.5433 121.262 26.4248 121.44C26.3105 121.613 26.2534 121.821 26.2534 122.062C26.2534 122.333 26.319 122.561 26.4502 122.748C26.5856 122.93 26.793 123.097 27.0723 123.249C27.3558 123.401 27.7197 123.571 28.1641 123.757C28.6761 123.968 29.1099 124.191 29.4653 124.423C29.825 124.656 30.1001 124.935 30.2905 125.261C30.481 125.583 30.5762 125.987 30.5762 126.474ZM35.0132 121.84C35.6395 121.84 36.1769 121.969 36.6255 122.227C37.0741 122.485 37.4189 122.851 37.6602 123.325C37.9014 123.799 38.022 124.366 38.022 125.026V125.826H33.3311C33.348 126.507 33.5299 127.032 33.877 127.4C34.2282 127.769 34.7191 127.953 35.3496 127.953C35.7982 127.953 36.2002 127.91 36.5557 127.826C36.9154 127.737 37.2856 127.608 37.6665 127.438V128.651C37.3153 128.816 36.9577 128.937 36.5938 129.013C36.2298 129.089 35.7939 129.127 35.2861 129.127C34.5964 129.127 33.9891 128.994 33.4644 128.727C32.9438 128.456 32.5355 128.054 32.2393 127.521C31.9473 126.988 31.8013 126.326 31.8013 125.534C31.8013 124.747 31.9346 124.078 32.2012 123.528C32.4678 122.978 32.8423 122.559 33.3247 122.271C33.8071 121.984 34.37 121.84 35.0132 121.84ZM35.0132 122.963C34.5435 122.963 34.1626 123.116 33.8706 123.42C33.5828 123.725 33.4136 124.172 33.3628 124.76H36.562C36.5578 124.409 36.4985 124.097 36.3843 123.827C36.2743 123.556 36.105 123.344 35.8765 123.192C35.6522 123.04 35.3644 122.963 35.0132 122.963ZM42.459 121.84C43.3477 121.84 44.0184 122.037 44.4712 122.43C44.9282 122.824 45.1567 123.437 45.1567 124.271V129H44.0967L43.811 128.003H43.7603C43.5614 128.257 43.3561 128.467 43.1445 128.632C42.9329 128.797 42.6875 128.92 42.4082 129C42.1331 129.085 41.7967 129.127 41.3989 129.127C40.98 129.127 40.6055 129.051 40.2754 128.898C39.9453 128.742 39.6851 128.505 39.4946 128.188C39.3042 127.87 39.209 127.468 39.209 126.981C39.209 126.258 39.4777 125.714 40.0151 125.35C40.5568 124.986 41.3735 124.785 42.4653 124.747L43.6841 124.703V124.334C43.6841 123.848 43.5698 123.501 43.3413 123.293C43.117 123.086 42.7996 122.982 42.3892 122.982C42.0379 122.982 41.6973 123.033 41.3672 123.135C41.0371 123.236 40.7155 123.361 40.4023 123.509L39.9199 122.456C40.2627 122.274 40.652 122.125 41.0879 122.011C41.528 121.897 41.985 121.84 42.459 121.84ZM43.6777 125.642L42.77 125.674C42.0252 125.699 41.5026 125.826 41.2021 126.055C40.9017 126.283 40.7515 126.596 40.7515 126.994C40.7515 127.341 40.8551 127.595 41.0625 127.756C41.2699 127.912 41.5428 127.991 41.8813 127.991C42.3976 127.991 42.825 127.845 43.1636 127.553C43.5063 127.257 43.6777 126.823 43.6777 126.251V125.642ZM50.8062 121.84C50.9246 121.84 51.0537 121.846 51.1934 121.859C51.333 121.872 51.4536 121.889 51.5552 121.91L51.4155 123.306C51.3267 123.281 51.2166 123.262 51.0854 123.249C50.9585 123.236 50.8442 123.23 50.7427 123.23C50.4761 123.23 50.2222 123.274 49.981 123.363C49.7397 123.448 49.526 123.579 49.3398 123.757C49.1536 123.93 49.0076 124.148 48.9019 124.411C48.7961 124.673 48.7432 124.978 48.7432 125.325V129H47.2451V121.973H48.4131L48.6162 123.211H48.686C48.8257 122.961 48.9992 122.733 49.2065 122.525C49.4139 122.318 49.6509 122.153 49.9175 122.03C50.1883 121.903 50.4845 121.84 50.8062 121.84ZM55.6875 129.127C55.0231 129.127 54.4476 128.998 53.9609 128.74C53.4743 128.482 53.0998 128.086 52.8374 127.553C52.575 127.02 52.4438 126.342 52.4438 125.521C52.4438 124.667 52.5877 123.968 52.8755 123.427C53.1632 122.885 53.561 122.485 54.0688 122.227C54.5809 121.969 55.167 121.84 55.8271 121.84C56.2461 121.84 56.6248 121.882 56.9634 121.967C57.3062 122.047 57.596 122.147 57.833 122.265L57.3887 123.458C57.1305 123.353 56.866 123.264 56.5952 123.192C56.3244 123.12 56.0641 123.084 55.8145 123.084C55.404 123.084 55.0612 123.175 54.7861 123.357C54.5153 123.539 54.3122 123.81 54.1768 124.169C54.0456 124.529 53.98 124.976 53.98 125.509C53.98 126.025 54.0477 126.461 54.1831 126.816C54.3185 127.168 54.5195 127.434 54.7861 127.616C55.0527 127.794 55.3807 127.883 55.77 127.883C56.1551 127.883 56.5 127.836 56.8047 127.743C57.1094 127.65 57.3971 127.529 57.668 127.381V128.676C57.4014 128.829 57.1157 128.941 56.811 129.013C56.5063 129.089 56.1318 129.127 55.6875 129.127ZM60.8101 119.123V121.605C60.8101 121.863 60.8016 122.115 60.7847 122.36C60.772 122.606 60.7572 122.796 60.7402 122.932H60.8228C60.9709 122.686 61.1528 122.485 61.3687 122.329C61.5845 122.168 61.8257 122.047 62.0923 121.967C62.3631 121.886 62.6509 121.846 62.9556 121.846C63.493 121.846 63.95 121.937 64.3267 122.119C64.7033 122.297 64.991 122.574 65.1899 122.951C65.3931 123.327 65.4946 123.816 65.4946 124.417V129H64.0029V124.696C64.0029 124.15 63.8908 123.742 63.6665 123.471C63.4422 123.196 63.0952 123.059 62.6255 123.059C62.1727 123.059 61.813 123.154 61.5464 123.344C61.284 123.53 61.0957 123.808 60.9814 124.176C60.8672 124.54 60.8101 124.984 60.8101 125.509V129H59.3184V119.123H60.8101Z" fill="#5C5C5C"/>
</g>
<rect x="16.5" y="108.5" width="881" height="31" rx="2.5" stroke="#474747"/>
<rect width="914" height="378" transform="translate(0 152)" fill="#333333"/>
<rect width="914" height="48" transform="translate(0 152)" fill="#333333"/>
<g clip-path="url(#clip2_188_21359)">
<path d="M18 166C18 164.896 18.8954 164 20 164H28C29.1046 164 30 164.896 30 166V168H44C45.1046 168 46 168.896 46 170V172C46 170.896 45.1046 170 44 170H20C18.8954 170 18 170.896 18 172V166Z" fill="#788790"/>
<rect x="18" y="170" width="28" height="18" rx="2" fill="#B2BBC0"/>
</g>
<path d="M63.082 178.279C63.082 178.872 62.9362 179.382 62.6445 179.811C62.3574 180.239 61.9427 180.567 61.4004 180.795C60.8626 181.023 60.2201 181.137 59.4727 181.137C59.1081 181.137 58.7594 181.116 58.4268 181.075C58.0941 181.034 57.7796 180.975 57.4834 180.897C57.1917 180.815 56.9251 180.717 56.6836 180.604V179.059C57.0892 179.236 57.5426 179.398 58.0439 179.544C58.5452 179.685 59.0557 179.756 59.5752 179.756C59.999 179.756 60.3499 179.701 60.6279 179.592C60.9105 179.478 61.1201 179.318 61.2568 179.113C61.3936 178.904 61.4619 178.66 61.4619 178.382C61.4619 178.086 61.3822 177.835 61.2227 177.63C61.0632 177.425 60.8216 177.238 60.498 177.069C60.179 176.896 59.778 176.712 59.2949 176.516C58.9668 176.383 58.6523 176.233 58.3516 176.064C58.0553 175.896 57.791 175.698 57.5586 175.47C57.3262 175.242 57.1416 174.973 57.0049 174.663C56.8727 174.349 56.8066 173.979 56.8066 173.556C56.8066 172.991 56.9411 172.507 57.21 172.106C57.4834 171.705 57.8662 171.398 58.3584 171.184C58.8551 170.969 59.4339 170.862 60.0947 170.862C60.6188 170.862 61.111 170.917 61.5713 171.026C62.0361 171.136 62.4919 171.291 62.9385 171.491L62.4189 172.811C62.0088 172.642 61.61 172.507 61.2227 172.407C60.8398 172.307 60.4479 172.257 60.0469 172.257C59.7005 172.257 59.4066 172.309 59.165 172.414C58.9235 172.519 58.7389 172.667 58.6113 172.858C58.4883 173.045 58.4268 173.269 58.4268 173.528C58.4268 173.82 58.4974 174.066 58.6387 174.267C58.7845 174.463 59.0078 174.643 59.3086 174.807C59.6139 174.971 60.0059 175.153 60.4844 175.354C61.0358 175.581 61.5029 175.821 61.8857 176.071C62.2731 176.322 62.5693 176.623 62.7744 176.974C62.9795 177.32 63.082 177.755 63.082 178.279ZM71.4424 173.433V181H70.1777L69.959 179.981H69.8701C69.7106 180.241 69.5078 180.458 69.2617 180.631C69.0156 180.799 68.7422 180.925 68.4414 181.007C68.1406 181.093 67.8239 181.137 67.4912 181.137C66.9215 181.137 66.4339 181.041 66.0283 180.85C65.6273 180.654 65.3197 180.353 65.1055 179.947C64.8913 179.542 64.7842 179.018 64.7842 178.375V173.433H66.3975V178.074C66.3975 178.662 66.516 179.102 66.7529 179.394C66.9945 179.685 67.3682 179.831 67.874 179.831C68.3617 179.831 68.749 179.731 69.0361 179.53C69.3232 179.33 69.526 179.034 69.6445 178.642C69.7676 178.25 69.8291 177.769 69.8291 177.199V173.433H71.4424ZM75.3525 170.363V172.927C75.3525 173.223 75.3434 173.515 75.3252 173.802C75.3115 174.084 75.2979 174.305 75.2842 174.465H75.3525C75.5576 174.137 75.8424 173.861 76.207 173.638C76.5762 173.41 77.0479 173.296 77.6221 173.296C78.5199 173.296 79.2422 173.626 79.7891 174.287C80.3359 174.943 80.6094 175.916 80.6094 177.206C80.6094 178.063 80.484 178.783 80.2334 179.366C79.9827 179.95 79.6296 180.392 79.1738 180.692C78.7227 180.989 78.1917 181.137 77.5811 181.137C77.0068 181.137 76.542 181.032 76.1865 180.822C75.8356 180.608 75.5599 180.36 75.3594 180.077H75.2432L74.9492 181H73.7461V170.363H75.3525ZM77.1982 174.602C76.7425 174.602 76.3802 174.693 76.1113 174.875C75.847 175.057 75.6556 175.331 75.5371 175.695C75.4186 176.055 75.3571 176.513 75.3525 177.069V177.213C75.3525 178.056 75.4847 178.701 75.749 179.147C76.0179 179.594 76.5055 179.817 77.2119 179.817C77.7725 179.817 78.2031 179.592 78.5039 179.141C78.8047 178.685 78.9551 178.033 78.9551 177.186C78.9551 176.329 78.8047 175.684 78.5039 175.251C78.2077 174.818 77.7725 174.602 77.1982 174.602ZM86.249 174.656H84.4102V181H82.8037V174.656H81.5664V173.884L82.8037 173.412V172.886C82.8037 172.243 82.904 171.733 83.1045 171.354C83.3096 170.976 83.6012 170.705 83.9795 170.541C84.3623 170.372 84.818 170.288 85.3467 170.288C85.693 170.288 86.0098 170.318 86.2969 170.377C86.584 170.432 86.8255 170.495 87.0215 170.568L86.6045 171.785C86.4495 171.735 86.2764 171.689 86.085 171.648C85.8936 171.603 85.6885 171.58 85.4697 171.58C85.1051 171.58 84.8363 171.694 84.6631 171.922C84.4945 172.15 84.4102 172.482 84.4102 172.92V173.433H86.249V174.656ZM94.2402 177.199C94.2402 177.828 94.1582 178.386 93.9941 178.874C93.8301 179.362 93.5908 179.774 93.2764 180.111C92.9619 180.444 92.5837 180.699 92.1416 180.877C91.6995 181.05 91.2005 181.137 90.6445 181.137C90.125 181.137 89.6488 181.05 89.2158 180.877C88.7829 180.699 88.4069 180.444 88.0879 180.111C87.7734 179.774 87.5296 179.362 87.3564 178.874C87.1833 178.386 87.0967 177.828 87.0967 177.199C87.0967 176.365 87.2402 175.659 87.5273 175.08C87.819 174.497 88.2337 174.052 88.7715 173.747C89.3092 173.442 89.9495 173.289 90.6924 173.289C91.3896 173.289 92.0049 173.442 92.5381 173.747C93.0713 174.052 93.4883 174.497 93.7891 175.08C94.0898 175.663 94.2402 176.37 94.2402 177.199ZM88.751 177.199C88.751 177.751 88.8171 178.222 88.9492 178.614C89.0859 179.006 89.2956 179.307 89.5781 179.517C89.8607 179.722 90.2253 179.824 90.6719 179.824C91.1185 179.824 91.4831 179.722 91.7656 179.517C92.0482 179.307 92.2555 179.006 92.3877 178.614C92.5199 178.222 92.5859 177.751 92.5859 177.199C92.5859 176.648 92.5199 176.181 92.3877 175.798C92.2555 175.41 92.0482 175.117 91.7656 174.916C91.4831 174.711 91.1162 174.608 90.665 174.608C89.9997 174.608 89.5143 174.832 89.209 175.278C88.9036 175.725 88.751 176.365 88.751 177.199ZM97.6992 181H96.0859V170.363H97.6992V181ZM102.539 181.137C101.637 181.137 100.912 180.809 100.365 180.152C99.8229 179.492 99.5518 178.519 99.5518 177.233C99.5518 175.935 99.8275 174.952 100.379 174.287C100.935 173.622 101.666 173.289 102.573 173.289C102.956 173.289 103.291 173.341 103.578 173.446C103.865 173.547 104.111 173.683 104.316 173.856C104.526 174.03 104.704 174.223 104.85 174.438H104.925C104.902 174.296 104.875 174.093 104.843 173.829C104.815 173.56 104.802 173.312 104.802 173.084V170.363H106.415V181H105.157L104.87 179.968H104.802C104.665 180.187 104.492 180.385 104.282 180.562C104.077 180.736 103.831 180.875 103.544 180.979C103.261 181.084 102.926 181.137 102.539 181.137ZM102.99 179.831C103.678 179.831 104.164 179.633 104.446 179.236C104.729 178.84 104.875 178.245 104.884 177.452V177.24C104.884 176.393 104.747 175.743 104.474 175.292C104.2 174.836 103.701 174.608 102.977 174.608C102.398 174.608 101.956 174.843 101.65 175.312C101.35 175.777 101.199 176.427 101.199 177.261C101.199 178.095 101.35 178.733 101.65 179.175C101.956 179.612 102.402 179.831 102.99 179.831ZM111.733 173.289C112.408 173.289 112.987 173.428 113.47 173.706C113.953 173.984 114.324 174.378 114.584 174.889C114.844 175.399 114.974 176.01 114.974 176.721V177.582H109.922C109.94 178.316 110.136 178.881 110.51 179.277C110.888 179.674 111.417 179.872 112.096 179.872C112.579 179.872 113.012 179.826 113.395 179.735C113.782 179.64 114.181 179.501 114.591 179.318V180.624C114.213 180.802 113.827 180.932 113.436 181.014C113.044 181.096 112.574 181.137 112.027 181.137C111.285 181.137 110.631 180.993 110.065 180.706C109.505 180.414 109.065 179.981 108.746 179.407C108.432 178.833 108.274 178.12 108.274 177.268C108.274 176.42 108.418 175.7 108.705 175.107C108.992 174.515 109.396 174.064 109.915 173.754C110.435 173.444 111.041 173.289 111.733 173.289ZM111.733 174.499C111.228 174.499 110.817 174.663 110.503 174.991C110.193 175.319 110.011 175.8 109.956 176.434H113.401C113.397 176.055 113.333 175.72 113.21 175.429C113.091 175.137 112.909 174.909 112.663 174.745C112.422 174.581 112.112 174.499 111.733 174.499ZM120.62 173.289C120.748 173.289 120.887 173.296 121.037 173.31C121.188 173.323 121.317 173.341 121.427 173.364L121.276 174.868C121.181 174.841 121.062 174.82 120.921 174.807C120.784 174.793 120.661 174.786 120.552 174.786C120.265 174.786 119.991 174.834 119.731 174.93C119.472 175.021 119.242 175.162 119.041 175.354C118.84 175.54 118.683 175.775 118.569 176.058C118.455 176.34 118.398 176.668 118.398 177.042V181H116.785V173.433H118.043L118.262 174.766H118.337C118.487 174.497 118.674 174.251 118.897 174.027C119.121 173.804 119.376 173.626 119.663 173.494C119.955 173.357 120.274 173.289 120.62 173.289Z" fill="white"/>
<rect width="914" height="48" transform="translate(0 200)" fill="#333333"/>
<g clip-path="url(#clip3_188_21359)">
<path d="M18 214C18 212.896 18.8954 212 20 212H28C29.1046 212 30 212.896 30 214V216H44C45.1046 216 46 216.896 46 218V220C46 218.896 45.1046 218 44 218H20C18.8954 218 18 218.896 18 220V214Z" fill="#788790"/>
<rect x="18" y="218" width="28" height="18" rx="2" fill="#B2BBC0"/>
</g>
<path d="M63.082 226.279C63.082 226.872 62.9362 227.382 62.6445 227.811C62.3574 228.239 61.9427 228.567 61.4004 228.795C60.8626 229.023 60.2201 229.137 59.4727 229.137C59.1081 229.137 58.7594 229.116 58.4268 229.075C58.0941 229.034 57.7796 228.975 57.4834 228.897C57.1917 228.815 56.9251 228.717 56.6836 228.604V227.059C57.0892 227.236 57.5426 227.398 58.0439 227.544C58.5452 227.685 59.0557 227.756 59.5752 227.756C59.999 227.756 60.3499 227.701 60.6279 227.592C60.9105 227.478 61.1201 227.318 61.2568 227.113C61.3936 226.904 61.4619 226.66 61.4619 226.382C61.4619 226.086 61.3822 225.835 61.2227 225.63C61.0632 225.425 60.8216 225.238 60.498 225.069C60.179 224.896 59.778 224.712 59.2949 224.516C58.9668 224.383 58.6523 224.233 58.3516 224.064C58.0553 223.896 57.791 223.698 57.5586 223.47C57.3262 223.242 57.1416 222.973 57.0049 222.663C56.8727 222.349 56.8066 221.979 56.8066 221.556C56.8066 220.991 56.9411 220.507 57.21 220.106C57.4834 219.705 57.8662 219.398 58.3584 219.184C58.8551 218.969 59.4339 218.862 60.0947 218.862C60.6188 218.862 61.111 218.917 61.5713 219.026C62.0361 219.136 62.4919 219.291 62.9385 219.491L62.4189 220.811C62.0088 220.642 61.61 220.507 61.2227 220.407C60.8398 220.307 60.4479 220.257 60.0469 220.257C59.7005 220.257 59.4066 220.309 59.165 220.414C58.9235 220.519 58.7389 220.667 58.6113 220.858C58.4883 221.045 58.4268 221.269 58.4268 221.528C58.4268 221.82 58.4974 222.066 58.6387 222.267C58.7845 222.463 59.0078 222.643 59.3086 222.807C59.6139 222.971 60.0059 223.153 60.4844 223.354C61.0358 223.581 61.5029 223.821 61.8857 224.071C62.2731 224.322 62.5693 224.623 62.7744 224.974C62.9795 225.32 63.082 225.755 63.082 226.279ZM71.4424 221.433V229H70.1777L69.959 227.981H69.8701C69.7106 228.241 69.5078 228.458 69.2617 228.631C69.0156 228.799 68.7422 228.925 68.4414 229.007C68.1406 229.093 67.8239 229.137 67.4912 229.137C66.9215 229.137 66.4339 229.041 66.0283 228.85C65.6273 228.654 65.3197 228.353 65.1055 227.947C64.8913 227.542 64.7842 227.018 64.7842 226.375V221.433H66.3975V226.074C66.3975 226.662 66.516 227.102 66.7529 227.394C66.9945 227.685 67.3682 227.831 67.874 227.831C68.3617 227.831 68.749 227.731 69.0361 227.53C69.3232 227.33 69.526 227.034 69.6445 226.642C69.7676 226.25 69.8291 225.769 69.8291 225.199V221.433H71.4424ZM75.3525 218.363V220.927C75.3525 221.223 75.3434 221.515 75.3252 221.802C75.3115 222.084 75.2979 222.305 75.2842 222.465H75.3525C75.5576 222.137 75.8424 221.861 76.207 221.638C76.5762 221.41 77.0479 221.296 77.6221 221.296C78.5199 221.296 79.2422 221.626 79.7891 222.287C80.3359 222.943 80.6094 223.916 80.6094 225.206C80.6094 226.063 80.484 226.783 80.2334 227.366C79.9827 227.95 79.6296 228.392 79.1738 228.692C78.7227 228.989 78.1917 229.137 77.5811 229.137C77.0068 229.137 76.542 229.032 76.1865 228.822C75.8356 228.608 75.5599 228.36 75.3594 228.077H75.2432L74.9492 229H73.7461V218.363H75.3525ZM77.1982 222.602C76.7425 222.602 76.3802 222.693 76.1113 222.875C75.847 223.057 75.6556 223.331 75.5371 223.695C75.4186 224.055 75.3571 224.513 75.3525 225.069V225.213C75.3525 226.056 75.4847 226.701 75.749 227.147C76.0179 227.594 76.5055 227.817 77.2119 227.817C77.7725 227.817 78.2031 227.592 78.5039 227.141C78.8047 226.685 78.9551 226.033 78.9551 225.186C78.9551 224.329 78.8047 223.684 78.5039 223.251C78.2077 222.818 77.7725 222.602 77.1982 222.602ZM86.249 222.656H84.4102V229H82.8037V222.656H81.5664V221.884L82.8037 221.412V220.886C82.8037 220.243 82.904 219.733 83.1045 219.354C83.3096 218.976 83.6012 218.705 83.9795 218.541C84.3623 218.372 84.818 218.288 85.3467 218.288C85.693 218.288 86.0098 218.318 86.2969 218.377C86.584 218.432 86.8255 218.495 87.0215 218.568L86.6045 219.785C86.4495 219.735 86.2764 219.689 86.085 219.648C85.8936 219.603 85.6885 219.58 85.4697 219.58C85.1051 219.58 84.8363 219.694 84.6631 219.922C84.4945 220.15 84.4102 220.482 84.4102 220.92V221.433H86.249V222.656ZM94.2402 225.199C94.2402 225.828 94.1582 226.386 93.9941 226.874C93.8301 227.362 93.5908 227.774 93.2764 228.111C92.9619 228.444 92.5837 228.699 92.1416 228.877C91.6995 229.05 91.2005 229.137 90.6445 229.137C90.125 229.137 89.6488 229.05 89.2158 228.877C88.7829 228.699 88.4069 228.444 88.0879 228.111C87.7734 227.774 87.5296 227.362 87.3564 226.874C87.1833 226.386 87.0967 225.828 87.0967 225.199C87.0967 224.365 87.2402 223.659 87.5273 223.08C87.819 222.497 88.2337 222.052 88.7715 221.747C89.3092 221.442 89.9495 221.289 90.6924 221.289C91.3896 221.289 92.0049 221.442 92.5381 221.747C93.0713 222.052 93.4883 222.497 93.7891 223.08C94.0898 223.663 94.2402 224.37 94.2402 225.199ZM88.751 225.199C88.751 225.751 88.8171 226.222 88.9492 226.614C89.0859 227.006 89.2956 227.307 89.5781 227.517C89.8607 227.722 90.2253 227.824 90.6719 227.824C91.1185 227.824 91.4831 227.722 91.7656 227.517C92.0482 227.307 92.2555 227.006 92.3877 226.614C92.5199 226.222 92.5859 225.751 92.5859 225.199C92.5859 224.648 92.5199 224.181 92.3877 223.798C92.2555 223.41 92.0482 223.117 91.7656 222.916C91.4831 222.711 91.1162 222.608 90.665 222.608C89.9997 222.608 89.5143 222.832 89.209 223.278C88.9036 223.725 88.751 224.365 88.751 225.199ZM97.6992 229H96.0859V218.363H97.6992V229ZM102.539 229.137C101.637 229.137 100.912 228.809 100.365 228.152C99.8229 227.492 99.5518 226.519 99.5518 225.233C99.5518 223.935 99.8275 222.952 100.379 222.287C100.935 221.622 101.666 221.289 102.573 221.289C102.956 221.289 103.291 221.341 103.578 221.446C103.865 221.547 104.111 221.683 104.316 221.856C104.526 222.03 104.704 222.223 104.85 222.438H104.925C104.902 222.296 104.875 222.093 104.843 221.829C104.815 221.56 104.802 221.312 104.802 221.084V218.363H106.415V229H105.157L104.87 227.968H104.802C104.665 228.187 104.492 228.385 104.282 228.562C104.077 228.736 103.831 228.875 103.544 228.979C103.261 229.084 102.926 229.137 102.539 229.137ZM102.99 227.831C103.678 227.831 104.164 227.633 104.446 227.236C104.729 226.84 104.875 226.245 104.884 225.452V225.24C104.884 224.393 104.747 223.743 104.474 223.292C104.2 222.836 103.701 222.608 102.977 222.608C102.398 222.608 101.956 222.843 101.65 223.312C101.35 223.777 101.199 224.427 101.199 225.261C101.199 226.095 101.35 226.733 101.65 227.175C101.956 227.612 102.402 227.831 102.99 227.831ZM111.733 221.289C112.408 221.289 112.987 221.428 113.47 221.706C113.953 221.984 114.324 222.378 114.584 222.889C114.844 223.399 114.974 224.01 114.974 224.721V225.582H109.922C109.94 226.316 110.136 226.881 110.51 227.277C110.888 227.674 111.417 227.872 112.096 227.872C112.579 227.872 113.012 227.826 113.395 227.735C113.782 227.64 114.181 227.501 114.591 227.318V228.624C114.213 228.802 113.827 228.932 113.436 229.014C113.044 229.096 112.574 229.137 112.027 229.137C111.285 229.137 110.631 228.993 110.065 228.706C109.505 228.414 109.065 227.981 108.746 227.407C108.432 226.833 108.274 226.12 108.274 225.268C108.274 224.42 108.418 223.7 108.705 223.107C108.992 222.515 109.396 222.064 109.915 221.754C110.435 221.444 111.041 221.289 111.733 221.289ZM111.733 222.499C111.228 222.499 110.817 222.663 110.503 222.991C110.193 223.319 110.011 223.8 109.956 224.434H113.401C113.397 224.055 113.333 223.72 113.21 223.429C113.091 223.137 112.909 222.909 112.663 222.745C112.422 222.581 112.112 222.499 111.733 222.499ZM120.62 221.289C120.748 221.289 120.887 221.296 121.037 221.31C121.188 221.323 121.317 221.341 121.427 221.364L121.276 222.868C121.181 222.841 121.062 222.82 120.921 222.807C120.784 222.793 120.661 222.786 120.552 222.786C120.265 222.786 119.991 222.834 119.731 222.93C119.472 223.021 119.242 223.162 119.041 223.354C118.84 223.54 118.683 223.775 118.569 224.058C118.455 224.34 118.398 224.668 118.398 225.042V229H116.785V221.433H118.043L118.262 222.766H118.337C118.487 222.497 118.674 222.251 118.897 222.027C119.121 221.804 119.376 221.626 119.663 221.494C119.955 221.357 120.274 221.289 120.62 221.289Z" fill="white"/>
<rect width="914" height="48" transform="translate(0 248)" fill="#333333"/>
<g clip-path="url(#clip4_188_21359)">
<g clip-path="url(#clip5_188_21359)">
<path d="M21 258H35L43 266V286H21V258Z" fill="white"/>
<path fill-rule="evenodd" clip-rule="evenodd" d="M21 286H43V266L35 258H21V286ZM35 257H20V287H44V266L35 257Z" fill="url(#paint0_linear_188_21359)"/>
<path fill-rule="evenodd" clip-rule="evenodd" d="M23 276C23 275.448 23.4477 275 24 275H40C40.5523 275 41 275.448 41 276V283C41 283.552 40.5523 284 40 284H24C23.4477 284 23 283.552 23 283V276ZM31 281V282H29V277H30V281H31ZM26 277L26.5 278.528L27 277H28L27.0831 279.5L28 282H27L26.5 280.472L26 282H25L25.9169 279.5L25 277H26ZM37.5 278.528L37 277H36L36.9169 279.5L36 282H37L37.5 280.472L38 282H39L38.0831 279.5L39 277H38L37.5 278.528ZM32.6582 280.555C32.6582 280.555 33.2754 281 33.5918 281C33.9355 281 34.1094 280.773 34.1094 280.555C34.1094 280.353 33.788 280.161 33.3961 279.927C32.784 279.56 32 279.091 32 278.324C32 277.534 32.7407 277 33.5312 277C34.4375 277 34.9219 277.625 34.9219 277.625L34.2812 278.367C34.2812 278.367 34.0645 278 33.6172 278C33.3105 278 33.0195 278.078 33.0195 278.344C33.0195 278.524 33.3234 278.715 33.6975 278.95C34.2961 279.326 35.0746 279.816 35.0746 280.555C35.0746 281.42 34.416 282.004 33.5357 282.004C32.8301 282.004 32.0684 281.324 32.0684 281.324L32.6582 280.555Z" fill="#6AAA1E"/>
<path fill-rule="evenodd" clip-rule="evenodd" d="M23 260H35V261H30V263H35V264H30V266H41V273H23V260ZM29 266V264H24V266H29ZM24 267H29V269H24V267ZM24 270V272H29V270H24ZM30 270V272H35V270H30ZM36 270V272H40V270H36ZM40 269H36V267H40V269ZM35 267V269H30V267H35ZM24 263H29V261H24V263Z" fill="#BFBFBF"/>
<path opacity="0.3" d="M34 267V258H35V266H43V267H34Z" fill="black"/>
</g>
</g>
<path d="M63.5059 277L62.5283 274.225H58.707L57.7295 277H56L59.7188 266.965H61.5371L65.249 277H63.5059ZM62.1045 272.816L61.1543 270.082C61.1178 269.964 61.0654 269.797 60.9971 269.583C60.9287 269.364 60.8604 269.143 60.792 268.92C60.7236 268.692 60.6667 268.501 60.6211 268.346C60.5755 268.533 60.5186 268.742 60.4502 268.975C60.3864 269.202 60.3226 269.417 60.2588 269.617C60.1995 269.818 60.154 269.973 60.1221 270.082L59.165 272.816H62.1045ZM68.0176 277H66.4043V266.363H68.0176V277ZM71.9277 277H70.3145V266.363H71.9277V277ZM80.4043 277.137C79.502 277.137 78.7773 276.809 78.2305 276.152C77.6882 275.492 77.417 274.519 77.417 273.233C77.417 271.935 77.6927 270.952 78.2441 270.287C78.8001 269.622 79.5316 269.289 80.4385 269.289C80.8213 269.289 81.1562 269.341 81.4434 269.446C81.7305 269.547 81.9766 269.683 82.1816 269.856C82.3913 270.03 82.569 270.223 82.7148 270.438H82.79C82.7673 270.296 82.7399 270.093 82.708 269.829C82.6807 269.56 82.667 269.312 82.667 269.084V266.363H84.2803V277H83.0225L82.7354 275.968H82.667C82.5303 276.187 82.3571 276.385 82.1475 276.562C81.9424 276.736 81.6963 276.875 81.4092 276.979C81.1266 277.084 80.7917 277.137 80.4043 277.137ZM80.8555 275.831C81.5436 275.831 82.029 275.633 82.3115 275.236C82.5941 274.84 82.7399 274.245 82.749 273.452V273.24C82.749 272.393 82.6123 271.743 82.3389 271.292C82.0654 270.836 81.5664 270.608 80.8418 270.608C80.263 270.608 79.821 270.843 79.5156 271.312C79.2148 271.777 79.0645 272.427 79.0645 273.261C79.0645 274.095 79.2148 274.733 79.5156 275.175C79.821 275.612 80.2676 275.831 80.8555 275.831ZM89.5508 269.289C90.5078 269.289 91.2301 269.501 91.7178 269.925C92.21 270.349 92.4561 271.009 92.4561 271.907V277H91.3145L91.0068 275.927H90.9521C90.738 276.2 90.5169 276.426 90.2891 276.604C90.0612 276.781 89.7969 276.913 89.4961 277C89.1999 277.091 88.8376 277.137 88.4092 277.137C87.958 277.137 87.5547 277.055 87.1992 276.891C86.8438 276.722 86.5635 276.467 86.3584 276.125C86.1533 275.783 86.0508 275.35 86.0508 274.826C86.0508 274.047 86.3402 273.461 86.9189 273.069C87.5023 272.677 88.3818 272.461 89.5576 272.42L90.8701 272.372V271.976C90.8701 271.451 90.7471 271.078 90.501 270.854C90.2594 270.631 89.9176 270.52 89.4756 270.52C89.0973 270.52 88.7305 270.574 88.375 270.684C88.0195 270.793 87.6732 270.927 87.3359 271.087L86.8164 269.952C87.1855 269.756 87.6048 269.597 88.0742 269.474C88.5482 269.351 89.0404 269.289 89.5508 269.289ZM90.8633 273.384L89.8857 273.418C89.0837 273.445 88.5208 273.582 88.1973 273.828C87.8737 274.074 87.7119 274.411 87.7119 274.84C87.7119 275.214 87.8236 275.487 88.0469 275.66C88.2702 275.829 88.5641 275.913 88.9287 275.913C89.4847 275.913 89.945 275.756 90.3096 275.441C90.6787 275.122 90.8633 274.655 90.8633 274.04V273.384ZM97.5215 275.838C97.7311 275.838 97.9385 275.82 98.1436 275.783C98.3486 275.742 98.5355 275.694 98.7041 275.64V276.856C98.5264 276.934 98.2962 277 98.0137 277.055C97.7311 277.109 97.4372 277.137 97.1318 277.137C96.7035 277.137 96.3184 277.066 95.9766 276.925C95.6348 276.779 95.3636 276.531 95.1631 276.18C94.9626 275.829 94.8623 275.343 94.8623 274.724V270.656H93.8301V269.938L94.9375 269.371L95.4639 267.751H96.4756V269.433H98.6426V270.656H96.4756V274.703C96.4756 275.086 96.5713 275.371 96.7627 275.558C96.9541 275.744 97.207 275.838 97.5215 275.838ZM103.209 269.289C104.166 269.289 104.888 269.501 105.376 269.925C105.868 270.349 106.114 271.009 106.114 271.907V277H104.973L104.665 275.927H104.61C104.396 276.2 104.175 276.426 103.947 276.604C103.719 276.781 103.455 276.913 103.154 277C102.858 277.091 102.496 277.137 102.067 277.137C101.616 277.137 101.213 277.055 100.857 276.891C100.502 276.722 100.222 276.467 100.017 276.125C99.8115 275.783 99.709 275.35 99.709 274.826C99.709 274.047 99.9984 273.461 100.577 273.069C101.16 272.677 102.04 272.461 103.216 272.42L104.528 272.372V271.976C104.528 271.451 104.405 271.078 104.159 270.854C103.918 270.631 103.576 270.52 103.134 270.52C102.756 270.52 102.389 270.574 102.033 270.684C101.678 270.793 101.331 270.927 100.994 271.087L100.475 269.952C100.844 269.756 101.263 269.597 101.732 269.474C102.206 269.351 102.699 269.289 103.209 269.289ZM104.521 273.384L103.544 273.418C102.742 273.445 102.179 273.582 101.855 273.828C101.532 274.074 101.37 274.411 101.37 274.84C101.37 275.214 101.482 275.487 101.705 275.66C101.928 275.829 102.222 275.913 102.587 275.913C103.143 275.913 103.603 275.756 103.968 275.441C104.337 275.122 104.521 274.655 104.521 274.04V273.384Z" fill="white"/>
<rect width="914" height="48" transform="translate(0 296)" fill="#333333"/>
<g clip-path="url(#clip6_188_21359)">
<g clip-path="url(#clip7_188_21359)">
<path d="M21 306H35L43 314V334H21V306Z" fill="white"/>
<path fill-rule="evenodd" clip-rule="evenodd" d="M21 334H43V314L35 306H21V334ZM35 305H20V335H44V314L35 305Z" fill="url(#paint1_linear_188_21359)"/>
<path d="M23 310H35V312H23V310Z" fill="#BFBFBF"/>
<path d="M23 316H41V318H23V316Z" fill="#BFBFBF"/>
<path d="M23 319H36V321H23V319Z" fill="#BFBFBF"/>
<path d="M23 313H35V314H41V315H23V313Z" fill="#BFBFBF"/>
<path opacity="0.3" d="M34 315V306H35V314H43V315H34Z" fill="black"/>
</g>
</g>
<path d="M65.4268 319.907C65.4268 321.033 65.2171 321.974 64.7979 322.73C64.3786 323.482 63.7702 324.05 62.9727 324.433C62.1751 324.811 61.2135 325 60.0879 325H57.3125V315.006H60.3887C61.4232 315.006 62.3164 315.193 63.0684 315.566C63.8203 315.936 64.4014 316.485 64.8115 317.214C65.2217 317.938 65.4268 318.836 65.4268 319.907ZM63.7178 319.955C63.7178 319.135 63.5879 318.46 63.3281 317.932C63.0729 317.403 62.6947 317.011 62.1934 316.756C61.6966 316.496 61.0837 316.366 60.3545 316.366H58.9531V323.626H60.1152C61.3229 323.626 62.2253 323.318 62.8223 322.703C63.4193 322.088 63.7178 321.172 63.7178 319.955ZM74.1152 321.199C74.1152 321.828 74.0332 322.386 73.8691 322.874C73.7051 323.362 73.4658 323.774 73.1514 324.111C72.8369 324.444 72.4587 324.699 72.0166 324.877C71.5745 325.05 71.0755 325.137 70.5195 325.137C70 325.137 69.5238 325.05 69.0908 324.877C68.6579 324.699 68.2819 324.444 67.9629 324.111C67.6484 323.774 67.4046 323.362 67.2314 322.874C67.0583 322.386 66.9717 321.828 66.9717 321.199C66.9717 320.365 67.1152 319.659 67.4023 319.08C67.694 318.497 68.1087 318.052 68.6465 317.747C69.1842 317.442 69.8245 317.289 70.5674 317.289C71.2646 317.289 71.8799 317.442 72.4131 317.747C72.9463 318.052 73.3633 318.497 73.6641 319.08C73.9648 319.663 74.1152 320.37 74.1152 321.199ZM68.626 321.199C68.626 321.751 68.6921 322.222 68.8242 322.614C68.9609 323.006 69.1706 323.307 69.4531 323.517C69.7357 323.722 70.1003 323.824 70.5469 323.824C70.9935 323.824 71.3581 323.722 71.6406 323.517C71.9232 323.307 72.1305 323.006 72.2627 322.614C72.3949 322.222 72.4609 321.751 72.4609 321.199C72.4609 320.648 72.3949 320.181 72.2627 319.798C72.1305 319.41 71.9232 319.117 71.6406 318.916C71.3581 318.711 70.9912 318.608 70.54 318.608C69.8747 318.608 69.3893 318.832 69.084 319.278C68.7786 319.725 68.626 320.365 68.626 321.199ZM79.0098 325.137C78.2943 325.137 77.6745 324.998 77.1504 324.72C76.6263 324.442 76.223 324.016 75.9404 323.441C75.6579 322.867 75.5166 322.138 75.5166 321.254C75.5166 320.333 75.6715 319.581 75.9814 318.998C76.2913 318.415 76.7197 317.984 77.2666 317.706C77.818 317.428 78.4492 317.289 79.1602 317.289C79.6113 317.289 80.0192 317.335 80.3838 317.426C80.7529 317.512 81.0651 317.619 81.3203 317.747L80.8418 319.032C80.5638 318.918 80.279 318.823 79.9873 318.745C79.6956 318.668 79.4154 318.629 79.1465 318.629C78.7044 318.629 78.3353 318.727 78.0391 318.923C77.7474 319.119 77.5286 319.41 77.3828 319.798C77.2415 320.185 77.1709 320.666 77.1709 321.24C77.1709 321.796 77.2438 322.266 77.3896 322.648C77.5355 323.027 77.752 323.314 78.0391 323.51C78.3262 323.701 78.6794 323.797 79.0986 323.797C79.5133 323.797 79.8848 323.747 80.2129 323.646C80.541 323.546 80.8509 323.416 81.1426 323.257V324.651C80.8555 324.815 80.5479 324.936 80.2197 325.014C79.8916 325.096 79.4883 325.137 79.0098 325.137ZM89.5166 317.433V325H88.252L88.0332 323.981H87.9443C87.7848 324.241 87.582 324.458 87.3359 324.631C87.0898 324.799 86.8164 324.925 86.5156 325.007C86.2148 325.093 85.8981 325.137 85.5654 325.137C84.9958 325.137 84.5081 325.041 84.1025 324.85C83.7015 324.654 83.3939 324.353 83.1797 323.947C82.9655 323.542 82.8584 323.018 82.8584 322.375V317.433H84.4717V322.074C84.4717 322.662 84.5902 323.102 84.8271 323.394C85.0687 323.685 85.4424 323.831 85.9482 323.831C86.4359 323.831 86.8232 323.731 87.1104 323.53C87.3975 323.33 87.6003 323.034 87.7188 322.642C87.8418 322.25 87.9033 321.769 87.9033 321.199V317.433H89.5166ZM100.372 317.289C101.22 317.289 101.858 317.508 102.286 317.945C102.719 318.383 102.936 319.085 102.936 320.051V325H101.329V320.338C101.329 319.764 101.217 319.331 100.994 319.039C100.771 318.747 100.431 318.602 99.9756 318.602C99.3376 318.602 98.8773 318.807 98.5947 319.217C98.3167 319.622 98.1777 320.213 98.1777 320.987V325H96.5713V320.338C96.5713 319.955 96.5212 319.636 96.4209 319.381C96.3252 319.121 96.1771 318.927 95.9766 318.8C95.776 318.668 95.5231 318.602 95.2178 318.602C94.7757 318.602 94.4225 318.702 94.1582 318.902C93.8984 319.103 93.7116 319.399 93.5977 319.791C93.4837 320.178 93.4268 320.655 93.4268 321.22V325H91.8203V317.433H93.0713L93.2969 318.451H93.3857C93.5407 318.187 93.7321 317.97 93.96 317.802C94.1924 317.629 94.4499 317.501 94.7324 317.419C95.015 317.332 95.3089 317.289 95.6143 317.289C96.1794 317.289 96.6556 317.389 97.043 317.59C97.4303 317.786 97.7197 318.087 97.9111 318.492H98.0342C98.2712 318.082 98.6016 317.779 99.0254 317.583C99.4492 317.387 99.8981 317.289 100.372 317.289ZM108.192 317.289C108.867 317.289 109.446 317.428 109.929 317.706C110.412 317.984 110.783 318.378 111.043 318.889C111.303 319.399 111.433 320.01 111.433 320.721V321.582H106.381C106.399 322.316 106.595 322.881 106.969 323.277C107.347 323.674 107.876 323.872 108.555 323.872C109.038 323.872 109.471 323.826 109.854 323.735C110.241 323.64 110.64 323.501 111.05 323.318V324.624C110.672 324.802 110.286 324.932 109.895 325.014C109.503 325.096 109.033 325.137 108.486 325.137C107.743 325.137 107.09 324.993 106.524 324.706C105.964 324.414 105.524 323.981 105.205 323.407C104.891 322.833 104.733 322.12 104.733 321.268C104.733 320.42 104.877 319.7 105.164 319.107C105.451 318.515 105.854 318.064 106.374 317.754C106.894 317.444 107.5 317.289 108.192 317.289ZM108.192 318.499C107.687 318.499 107.276 318.663 106.962 318.991C106.652 319.319 106.47 319.8 106.415 320.434H109.86C109.856 320.055 109.792 319.72 109.669 319.429C109.55 319.137 109.368 318.909 109.122 318.745C108.881 318.581 108.571 318.499 108.192 318.499ZM117.188 317.289C118.041 317.289 118.704 317.51 119.178 317.952C119.656 318.39 119.896 319.094 119.896 320.064V325H118.289V320.365C118.289 319.777 118.168 319.338 117.927 319.046C117.685 318.75 117.312 318.602 116.806 318.602C116.072 318.602 115.562 318.827 115.274 319.278C114.992 319.729 114.851 320.383 114.851 321.24V325H113.244V317.433H114.495L114.721 318.458H114.81C114.974 318.194 115.176 317.977 115.418 317.809C115.664 317.635 115.938 317.506 116.238 317.419C116.544 317.332 116.86 317.289 117.188 317.289ZM124.961 323.838C125.171 323.838 125.378 323.82 125.583 323.783C125.788 323.742 125.975 323.694 126.144 323.64V324.856C125.966 324.934 125.736 325 125.453 325.055C125.171 325.109 124.877 325.137 124.571 325.137C124.143 325.137 123.758 325.066 123.416 324.925C123.074 324.779 122.803 324.531 122.603 324.18C122.402 323.829 122.302 323.343 122.302 322.724V318.656H121.27V317.938L122.377 317.371L122.903 315.751H123.915V317.433H126.082V318.656H123.915V322.703C123.915 323.086 124.011 323.371 124.202 323.558C124.394 323.744 124.646 323.838 124.961 323.838ZM135.099 318.656H133.26V325H131.653V318.656H130.416V317.884L131.653 317.412V316.886C131.653 316.243 131.754 315.733 131.954 315.354C132.159 314.976 132.451 314.705 132.829 314.541C133.212 314.372 133.668 314.288 134.196 314.288C134.543 314.288 134.859 314.318 135.146 314.377C135.434 314.432 135.675 314.495 135.871 314.568L135.454 315.785C135.299 315.735 135.126 315.689 134.935 315.648C134.743 315.603 134.538 315.58 134.319 315.58C133.955 315.58 133.686 315.694 133.513 315.922C133.344 316.15 133.26 316.482 133.26 316.92V317.433H135.099V318.656ZM143.09 321.199C143.09 321.828 143.008 322.386 142.844 322.874C142.68 323.362 142.44 323.774 142.126 324.111C141.812 324.444 141.433 324.699 140.991 324.877C140.549 325.05 140.05 325.137 139.494 325.137C138.975 325.137 138.498 325.05 138.065 324.877C137.632 324.699 137.257 324.444 136.938 324.111C136.623 323.774 136.379 323.362 136.206 322.874C136.033 322.386 135.946 321.828 135.946 321.199C135.946 320.365 136.09 319.659 136.377 319.08C136.669 318.497 137.083 318.052 137.621 317.747C138.159 317.442 138.799 317.289 139.542 317.289C140.239 317.289 140.854 317.442 141.388 317.747C141.921 318.052 142.338 318.497 142.639 319.08C142.939 319.663 143.09 320.37 143.09 321.199ZM137.601 321.199C137.601 321.751 137.667 322.222 137.799 322.614C137.936 323.006 138.145 323.307 138.428 323.517C138.71 323.722 139.075 323.824 139.521 323.824C139.968 323.824 140.333 323.722 140.615 323.517C140.898 323.307 141.105 323.006 141.237 322.614C141.369 322.222 141.436 321.751 141.436 321.199C141.436 320.648 141.369 320.181 141.237 319.798C141.105 319.41 140.898 319.117 140.615 318.916C140.333 318.711 139.966 318.608 139.515 318.608C138.849 318.608 138.364 318.832 138.059 319.278C137.753 319.725 137.601 320.365 137.601 321.199ZM148.771 317.289C148.898 317.289 149.037 317.296 149.188 317.31C149.338 317.323 149.468 317.341 149.577 317.364L149.427 318.868C149.331 318.841 149.213 318.82 149.071 318.807C148.935 318.793 148.812 318.786 148.702 318.786C148.415 318.786 148.142 318.834 147.882 318.93C147.622 319.021 147.392 319.162 147.191 319.354C146.991 319.54 146.834 319.775 146.72 320.058C146.606 320.34 146.549 320.668 146.549 321.042V325H144.936V317.433H146.193L146.412 318.766H146.487C146.638 318.497 146.825 318.251 147.048 318.027C147.271 317.804 147.526 317.626 147.813 317.494C148.105 317.357 148.424 317.289 148.771 317.289ZM163.167 317.289C164.015 317.289 164.653 317.508 165.081 317.945C165.514 318.383 165.73 319.085 165.73 320.051V325H164.124V320.338C164.124 319.764 164.012 319.331 163.789 319.039C163.566 318.747 163.226 318.602 162.771 318.602C162.132 318.602 161.672 318.807 161.39 319.217C161.112 319.622 160.973 320.213 160.973 320.987V325H159.366V320.338C159.366 319.955 159.316 319.636 159.216 319.381C159.12 319.121 158.972 318.927 158.771 318.8C158.571 318.668 158.318 318.602 158.013 318.602C157.571 318.602 157.217 318.702 156.953 318.902C156.693 319.103 156.507 319.399 156.393 319.791C156.279 320.178 156.222 320.655 156.222 321.22V325H154.615V317.433H155.866L156.092 318.451H156.181C156.336 318.187 156.527 317.97 156.755 317.802C156.987 317.629 157.245 317.501 157.527 317.419C157.81 317.332 158.104 317.289 158.409 317.289C158.974 317.289 159.451 317.389 159.838 317.59C160.225 317.786 160.515 318.087 160.706 318.492H160.829C161.066 318.082 161.396 317.779 161.82 317.583C162.244 317.387 162.693 317.289 163.167 317.289ZM170.939 317.289C171.896 317.289 172.619 317.501 173.106 317.925C173.599 318.349 173.845 319.009 173.845 319.907V325H172.703L172.396 323.927H172.341C172.127 324.2 171.906 324.426 171.678 324.604C171.45 324.781 171.186 324.913 170.885 325C170.589 325.091 170.226 325.137 169.798 325.137C169.347 325.137 168.943 325.055 168.588 324.891C168.232 324.722 167.952 324.467 167.747 324.125C167.542 323.783 167.439 323.35 167.439 322.826C167.439 322.047 167.729 321.461 168.308 321.069C168.891 320.677 169.771 320.461 170.946 320.42L172.259 320.372V319.976C172.259 319.451 172.136 319.078 171.89 318.854C171.648 318.631 171.306 318.52 170.864 318.52C170.486 318.52 170.119 318.574 169.764 318.684C169.408 318.793 169.062 318.927 168.725 319.087L168.205 317.952C168.574 317.756 168.993 317.597 169.463 317.474C169.937 317.351 170.429 317.289 170.939 317.289ZM172.252 321.384L171.274 321.418C170.472 321.445 169.91 321.582 169.586 321.828C169.262 322.074 169.101 322.411 169.101 322.84C169.101 323.214 169.212 323.487 169.436 323.66C169.659 323.829 169.953 323.913 170.317 323.913C170.873 323.913 171.334 323.756 171.698 323.441C172.067 323.122 172.252 322.655 172.252 322.04V321.384ZM180.038 317.289C180.89 317.289 181.553 317.51 182.027 317.952C182.506 318.39 182.745 319.094 182.745 320.064V325H181.139V320.365C181.139 319.777 181.018 319.338 180.776 319.046C180.535 318.75 180.161 318.602 179.655 318.602C178.922 318.602 178.411 318.827 178.124 319.278C177.841 319.729 177.7 320.383 177.7 321.24V325H176.094V317.433H177.345L177.57 318.458H177.659C177.823 318.194 178.026 317.977 178.268 317.809C178.514 317.635 178.787 317.506 179.088 317.419C179.393 317.332 179.71 317.289 180.038 317.289ZM187.961 317.289C188.918 317.289 189.64 317.501 190.128 317.925C190.62 318.349 190.866 319.009 190.866 319.907V325H189.725L189.417 323.927H189.362C189.148 324.2 188.927 324.426 188.699 324.604C188.471 324.781 188.207 324.913 187.906 325C187.61 325.091 187.248 325.137 186.819 325.137C186.368 325.137 185.965 325.055 185.609 324.891C185.254 324.722 184.974 324.467 184.769 324.125C184.563 323.783 184.461 323.35 184.461 322.826C184.461 322.047 184.75 321.461 185.329 321.069C185.912 320.677 186.792 320.461 187.968 320.42L189.28 320.372V319.976C189.28 319.451 189.157 319.078 188.911 318.854C188.67 318.631 188.328 318.52 187.886 318.52C187.507 318.52 187.141 318.574 186.785 318.684C186.43 318.793 186.083 318.927 185.746 319.087L185.227 317.952C185.596 317.756 186.015 317.597 186.484 317.474C186.958 317.351 187.451 317.289 187.961 317.289ZM189.273 321.384L188.296 321.418C187.494 321.445 186.931 321.582 186.607 321.828C186.284 322.074 186.122 322.411 186.122 322.84C186.122 323.214 186.234 323.487 186.457 323.66C186.68 323.829 186.974 323.913 187.339 323.913C187.895 323.913 188.355 323.756 188.72 323.441C189.089 323.122 189.273 322.655 189.273 322.04V321.384ZM195.275 328.363C194.25 328.363 193.464 328.179 192.917 327.81C192.37 327.44 192.097 326.923 192.097 326.258C192.097 325.793 192.243 325.399 192.534 325.075C192.826 324.756 193.243 324.535 193.785 324.412C193.58 324.321 193.402 324.18 193.252 323.988C193.106 323.792 193.033 323.576 193.033 323.339C193.033 323.056 193.113 322.815 193.272 322.614C193.432 322.414 193.671 322.22 193.99 322.033C193.594 321.865 193.275 321.591 193.033 321.213C192.796 320.83 192.678 320.381 192.678 319.866C192.678 319.319 192.794 318.854 193.026 318.472C193.259 318.084 193.598 317.79 194.045 317.59C194.492 317.385 195.032 317.282 195.665 317.282C195.802 317.282 195.95 317.291 196.109 317.31C196.273 317.323 196.424 317.341 196.561 317.364C196.702 317.382 196.809 317.403 196.882 317.426H199.5V318.321L198.215 318.561C198.338 318.734 198.436 318.932 198.509 319.155C198.582 319.374 198.618 319.613 198.618 319.873C198.618 320.657 198.347 321.274 197.805 321.726C197.267 322.172 196.524 322.396 195.576 322.396C195.348 322.386 195.127 322.368 194.913 322.341C194.749 322.441 194.624 322.553 194.537 322.676C194.451 322.794 194.407 322.929 194.407 323.079C194.407 323.202 194.451 323.302 194.537 323.38C194.624 323.453 194.751 323.507 194.92 323.544C195.093 323.58 195.303 323.599 195.549 323.599H196.854C197.684 323.599 198.317 323.774 198.755 324.125C199.192 324.476 199.411 324.991 199.411 325.67C199.411 326.531 199.056 327.194 198.345 327.659C197.634 328.129 196.611 328.363 195.275 328.363ZM195.337 327.235C195.897 327.235 196.369 327.181 196.752 327.071C197.135 326.962 197.424 326.805 197.62 326.6C197.816 326.399 197.914 326.16 197.914 325.882C197.914 325.636 197.853 325.447 197.729 325.314C197.606 325.182 197.422 325.091 197.176 325.041C196.93 324.991 196.624 324.966 196.26 324.966H195.07C194.774 324.966 194.512 325.011 194.284 325.103C194.056 325.198 193.879 325.335 193.751 325.513C193.628 325.69 193.566 325.905 193.566 326.155C193.566 326.502 193.719 326.768 194.024 326.955C194.334 327.142 194.772 327.235 195.337 327.235ZM195.651 321.343C196.121 321.343 196.469 321.215 196.697 320.96C196.925 320.7 197.039 320.336 197.039 319.866C197.039 319.356 196.921 318.973 196.684 318.718C196.451 318.463 196.105 318.335 195.645 318.335C195.193 318.335 194.849 318.465 194.612 318.725C194.38 318.984 194.264 319.369 194.264 319.88C194.264 320.34 194.38 320.7 194.612 320.96C194.849 321.215 195.196 321.343 195.651 321.343ZM203.896 317.289C204.57 317.289 205.149 317.428 205.632 317.706C206.115 317.984 206.486 318.378 206.746 318.889C207.006 319.399 207.136 320.01 207.136 320.721V321.582H202.084C202.102 322.316 202.298 322.881 202.672 323.277C203.05 323.674 203.579 323.872 204.258 323.872C204.741 323.872 205.174 323.826 205.557 323.735C205.944 323.64 206.343 323.501 206.753 323.318V324.624C206.375 324.802 205.99 324.932 205.598 325.014C205.206 325.096 204.736 325.137 204.189 325.137C203.447 325.137 202.793 324.993 202.228 324.706C201.667 324.414 201.227 323.981 200.908 323.407C200.594 322.833 200.437 322.12 200.437 321.268C200.437 320.42 200.58 319.7 200.867 319.107C201.154 318.515 201.558 318.064 202.077 317.754C202.597 317.444 203.203 317.289 203.896 317.289ZM203.896 318.499C203.39 318.499 202.979 318.663 202.665 318.991C202.355 319.319 202.173 319.8 202.118 320.434H205.563C205.559 320.055 205.495 319.72 205.372 319.429C205.254 319.137 205.071 318.909 204.825 318.745C204.584 318.581 204.274 318.499 203.896 318.499ZM212.782 317.289C212.91 317.289 213.049 317.296 213.199 317.31C213.35 317.323 213.479 317.341 213.589 317.364L213.438 318.868C213.343 318.841 213.224 318.82 213.083 318.807C212.946 318.793 212.823 318.786 212.714 318.786C212.427 318.786 212.153 318.834 211.894 318.93C211.634 319.021 211.404 319.162 211.203 319.354C211.003 319.54 210.845 319.775 210.731 320.058C210.618 320.34 210.561 320.668 210.561 321.042V325H208.947V317.433H210.205L210.424 318.766H210.499C210.649 318.497 210.836 318.251 211.06 318.027C211.283 317.804 211.538 317.626 211.825 317.494C212.117 317.357 212.436 317.289 212.782 317.289Z" fill="white"/>
</g>
<defs>
<linearGradient id="paint0_linear_188_21359" x1="32" y1="286" x2="32" y2="257" gradientUnits="userSpaceOnUse">
<stop stop-color="#A8A8A8"/>
<stop offset="1" stop-color="#DADADA"/>
</linearGradient>
<linearGradient id="paint1_linear_188_21359" x1="32" y1="334" x2="32" y2="305" gradientUnits="userSpaceOnUse">
<stop stop-color="#A8A8A8"/>
<stop offset="1" stop-color="#DADADA"/>
</linearGradient>
<clipPath id="clip0_188_21359">
<rect width="550" height="318" fill="white"/>
</clipPath>
<clipPath id="clip1_188_21359">
<rect x="16" y="108" width="882" height="32" rx="3" fill="white"/>
</clipPath>
<clipPath id="clip2_188_21359">
<rect width="32" height="32" fill="white" transform="translate(16 160)"/>
</clipPath>
<clipPath id="clip3_188_21359">
<rect width="32" height="32" fill="white" transform="translate(16 208)"/>
</clipPath>
<clipPath id="clip4_188_21359">
<rect width="32" height="32" fill="white" transform="translate(16 256)"/>
</clipPath>
<clipPath id="clip5_188_21359">
<rect width="32" height="32" fill="white" transform="translate(16 256)"/>
</clipPath>
<clipPath id="clip6_188_21359">
<rect width="32" height="32" fill="white" transform="translate(16 304)"/>
</clipPath>
<clipPath id="clip7_188_21359">
<rect width="32" height="32" fill="white" transform="translate(16 304)"/>
</clipPath>
</defs>
</svg>
