<svg width="550" height="318" viewBox="0 0 550 318" fill="none" xmlns="http://www.w3.org/2000/svg">
<g clip-path="url(#clip0_188_21296)">
<rect width="550" height="318" fill="#333333"/>
<g clip-path="url(#clip1_188_21296)">
<rect width="251" height="69" fill="#282828"/>
<path fill-rule="evenodd" clip-rule="evenodd" d="M31.411 45.7059L20.6853 40.7649C19.7716 40.3335 19.7716 39.6669 20.6853 39.2747L24.4194 37.5493L31.3713 40.7649C32.285 41.1963 33.7548 41.1963 34.6287 40.7649L41.5806 37.5493L45.3147 39.2747C46.2284 39.7061 46.2284 40.3727 45.3147 40.7649L34.589 45.7059C33.7548 46.098 32.285 46.098 31.411 45.7059Z" fill="#FF6F3D"/>
<path fill-rule="evenodd" clip-rule="evenodd" d="M31.3762 39.5916L20.6832 34.6449C19.7723 34.213 19.7723 33.5456 20.6832 33.153L24.3267 31.4648L31.3762 34.7234C32.2871 35.1553 33.7525 35.1553 34.6238 34.7234L41.6733 31.4648L45.3168 33.153C46.2277 33.5849 46.2277 34.2523 45.3168 34.6449L34.6238 39.5916C33.7129 40.0235 32.2475 40.0235 31.3762 39.5916Z" fill="#95C038"/>
<path fill-rule="evenodd" clip-rule="evenodd" d="M31.3762 33.5408L20.6832 28.6652C19.7723 28.2396 19.7723 27.5817 20.6832 27.1948L31.3762 22.3192C32.2871 21.8936 33.7525 21.8936 34.6238 22.3192L45.3168 27.1948C46.2277 27.6204 46.2277 28.2783 45.3168 28.6652L34.6238 33.5408C33.7129 33.9277 32.2475 33.9277 31.3762 33.5408Z" fill="#5DC0E8"/>
<path fill-rule="evenodd" clip-rule="evenodd" d="M191.944 39.1235C192.718 38.5259 193.106 37.693 193.106 36.625C193.106 35.7949 192.865 35.1198 192.384 34.5996C191.908 34.0794 191.033 33.5924 189.76 33.1387C189.002 32.8675 188.438 32.6213 188.067 32.3999C187.702 32.173 187.442 31.9268 187.287 31.6611C187.132 31.39 187.054 31.0441 187.054 30.6235C187.054 30.0535 187.265 29.6081 187.685 29.2871C188.106 28.9661 188.69 28.8057 189.437 28.8057C190.383 28.8057 191.357 29.016 192.359 29.4365L192.799 28.208C191.786 27.7653 190.676 27.5439 189.47 27.5439C188.313 27.5439 187.384 27.8206 186.681 28.374C185.978 28.9274 185.627 29.6717 185.627 30.6069C185.627 31.4979 185.867 32.2201 186.349 32.7734C186.836 33.3268 187.644 33.8055 188.773 34.2095C189.581 34.4972 190.181 34.7546 190.574 34.9814C190.972 35.2083 191.255 35.4574 191.421 35.7285C191.592 35.9941 191.678 36.3372 191.678 36.7578C191.678 37.3942 191.44 37.8923 190.964 38.252C190.488 38.6061 189.78 38.7832 188.839 38.7832C188.264 38.7832 187.683 38.7223 187.096 38.6006C186.509 38.4788 185.967 38.3128 185.469 38.1025V39.4639C186.244 39.8346 187.351 40.02 188.789 40.02C190.117 40.02 191.169 39.7212 191.944 39.1235ZM164.04 38.2686C165.13 37.2061 165.675 35.6732 165.675 33.6699C165.675 31.7939 165.152 30.333 164.106 29.2871C163.061 28.2412 161.594 27.7183 159.707 27.7183H155.988V39.854H159.35C161.392 39.854 162.955 39.3255 164.04 38.2686ZM162.986 30.1421C163.783 30.9445 164.181 32.137 164.181 33.7197C164.181 35.3411 163.758 36.5669 162.911 37.397C162.064 38.2215 160.8 38.6338 159.118 38.6338H157.399V28.9385H159.45C161.016 28.9385 162.194 29.3397 162.986 30.1421ZM174.744 38.7749C175.491 37.9393 175.865 36.7799 175.865 35.2969C175.865 33.8525 175.488 32.707 174.736 31.8604C173.989 31.0137 172.979 30.5903 171.706 30.5903C170.389 30.5903 169.36 31.0054 168.618 31.8354C167.877 32.66 167.506 33.8138 167.506 35.2969C167.506 36.2542 167.677 37.0898 168.02 37.8037C168.364 38.5176 168.851 39.0654 169.481 39.4473C170.112 39.8291 170.834 40.02 171.648 40.02C172.965 40.02 173.997 39.605 174.744 38.7749ZM169.631 37.9531C169.166 37.3444 168.934 36.459 168.934 35.2969C168.934 34.1237 169.163 33.241 169.622 32.6489C170.082 32.0568 170.762 31.7607 171.664 31.7607C172.578 31.7607 173.267 32.0623 173.731 32.6655C174.202 33.2632 174.437 34.1403 174.437 35.2969C174.437 36.4645 174.202 37.3527 173.731 37.9614C173.267 38.5646 172.583 38.8662 171.681 38.8662C170.779 38.8662 170.096 38.5618 169.631 37.9531ZM181.754 40.02C180.437 40.02 179.416 39.616 178.691 38.8081C177.972 37.9946 177.612 36.8464 177.612 35.3633C177.612 33.8415 177.977 32.6655 178.708 31.8354C179.444 31.0054 180.49 30.5903 181.846 30.5903C182.283 30.5903 182.72 30.6374 183.157 30.7314C183.594 30.8255 183.937 30.9362 184.186 31.0635L183.763 32.2339C183.459 32.1121 183.127 32.0125 182.767 31.9351C182.407 31.8521 182.089 31.8105 181.812 31.8105C179.964 31.8105 179.04 32.9893 179.04 35.3467C179.04 36.4645 179.264 37.3223 179.712 37.9199C180.166 38.5176 180.836 38.8164 181.721 38.8164C182.479 38.8164 183.257 38.6532 184.054 38.3267V39.5469C183.445 39.8623 182.678 40.02 181.754 40.02ZM199.444 40.02C198.851 40.02 198.309 39.9121 197.817 39.6963C197.33 39.4749 196.92 39.1374 196.588 38.6836H196.488C196.555 39.2148 196.588 39.7184 196.588 40.1943V43.938H195.21V30.7563H196.331L196.522 32.0015H196.588C196.942 31.5034 197.355 31.1437 197.825 30.9224C198.295 30.701 198.835 30.5903 199.444 30.5903C200.65 30.5903 201.58 31.0026 202.233 31.8271C202.891 32.6517 203.22 33.8083 203.22 35.2969C203.22 36.791 202.886 37.9531 202.216 38.7832C201.552 39.6077 200.628 40.02 199.444 40.02ZM199.244 31.7607C198.315 31.7607 197.642 32.0181 197.227 32.5327C196.812 33.0474 196.599 33.8664 196.588 34.9897V35.2969C196.588 36.5752 196.801 37.491 197.227 38.0444C197.653 38.5923 198.337 38.8662 199.278 38.8662C200.063 38.8662 200.678 38.548 201.12 37.9116C201.569 37.2752 201.793 36.3981 201.793 35.2803C201.793 34.1458 201.569 33.277 201.12 32.6738C200.678 32.0651 200.052 31.7607 199.244 31.7607ZM210.787 38.5591L211.061 39.854H212.082V33.645C212.082 32.5825 211.819 31.8105 211.293 31.3291C210.773 30.8477 209.97 30.6069 208.886 30.6069C208.349 30.6069 207.812 30.6761 207.275 30.8145C206.744 30.9528 206.254 31.1437 205.806 31.3872L206.23 32.4414C207.187 31.9766 208.045 31.7441 208.803 31.7441C209.478 31.7441 209.968 31.9157 210.272 32.2588C210.582 32.5964 210.737 33.1221 210.737 33.8359V34.4004L209.193 34.4502C206.254 34.5387 204.785 35.5016 204.785 37.3389C204.785 38.1966 205.04 38.8579 205.549 39.3228C206.064 39.7876 206.772 40.02 207.674 40.02C208.349 40.02 208.911 39.9204 209.359 39.7212C209.813 39.5164 210.267 39.1291 210.72 38.5591H210.787ZM209.965 38.1772C209.478 38.6476 208.806 38.8828 207.948 38.8828C207.406 38.8828 206.982 38.7528 206.678 38.4927C206.379 38.2326 206.23 37.8535 206.23 37.3555C206.23 36.7191 206.47 36.2515 206.952 35.9526C207.439 35.6483 208.23 35.4767 209.326 35.438L210.704 35.3799V36.2017C210.704 37.0483 210.457 37.7069 209.965 38.1772ZM218.395 40.02C217.077 40.02 216.057 39.616 215.332 38.8081C214.612 37.9946 214.252 36.8464 214.252 35.3633C214.252 33.8415 214.618 32.6655 215.348 31.8354C216.084 31.0054 217.13 30.5903 218.486 30.5903C218.923 30.5903 219.36 30.6374 219.797 30.7314C220.235 30.8255 220.578 30.9362 220.827 31.0635L220.403 32.2339C220.099 32.1121 219.767 32.0125 219.407 31.9351C219.048 31.8521 218.729 31.8105 218.453 31.8105C216.604 31.8105 215.68 32.9893 215.68 35.3467C215.68 36.4645 215.904 37.3223 216.353 37.9199C216.806 38.5176 217.476 38.8164 218.361 38.8164C219.119 38.8164 219.897 38.6532 220.694 38.3267V39.5469C220.085 39.8623 219.319 40.02 218.395 40.02ZM223.346 38.7915C224.126 39.6105 225.189 40.02 226.534 40.02C227.148 40.02 227.671 39.973 228.102 39.8789C228.54 39.7904 229.002 39.641 229.489 39.4307V38.2021C228.531 38.6117 227.563 38.8164 226.583 38.8164C225.654 38.8164 224.932 38.5397 224.417 37.9863C223.908 37.4329 223.639 36.6222 223.612 35.5542H229.879V34.6826C229.879 33.4541 229.547 32.4663 228.883 31.7192C228.219 30.9666 227.317 30.5903 226.177 30.5903C224.959 30.5903 223.988 31.022 223.263 31.8853C222.544 32.7485 222.184 33.9134 222.184 35.3799C222.184 36.8353 222.571 37.9725 223.346 38.7915ZM224.409 32.458C224.846 31.9821 225.43 31.7441 226.16 31.7441C226.88 31.7441 227.433 31.9766 227.82 32.4414C228.208 32.9007 228.401 33.5648 228.401 34.4336H223.645C223.722 33.5924 223.977 32.9339 224.409 32.458ZM52.2354 34C52.2354 29.6484 55.202 27.8667 58.2211 27.8667C61.2401 27.8667 64.2068 29.6484 64.2068 34C64.2068 38.3516 61.2401 40.1333 58.2211 40.1333C55.202 40.1333 52.2354 38.3516 52.2354 34ZM61.5891 34C61.5891 29.9397 59.146 29.5799 58.2211 29.5799C57.2962 29.5799 54.853 29.9397 54.853 34C54.853 38.0603 57.2962 38.4201 58.2211 38.4201C59.146 38.4201 61.5891 38.0603 61.5891 34ZM68.6982 39.9963H66.2201V28.0037H69.4311L73.6543 35.559L74.3 37.1866H74.3523L74.3 35.0622V28.0037H76.778V39.9963H73.567L69.3089 32.1497L68.6982 30.8134H68.6458L68.6982 32.9378V39.9963ZM79.2232 39.9963H86.5527V37.9747H81.7013V28.0037H79.2232V39.9963ZM88.9609 35.0965L84.4585 28.0037H87.3205L89.8335 32.2182L90.2174 33.0406H90.2698L90.6886 32.2182L93.219 28.0037H95.8367L91.439 35.1307V39.9963H88.9609V35.0965ZM101.61 27.8667C98.5912 27.8667 95.6245 29.6484 95.6245 34C95.6245 38.3516 98.5912 40.1333 101.61 40.1333C104.629 40.1333 107.596 38.3516 107.596 34C107.596 29.6484 104.629 27.8667 101.61 27.8667ZM101.61 29.5799C102.535 29.5799 104.978 29.9397 104.978 34C104.978 38.0603 102.535 38.4201 101.61 38.4201C100.685 38.4201 98.2422 38.0603 98.2422 34C98.2422 29.9397 100.685 29.5799 101.61 29.5799ZM112.087 39.9963H109.609V28.0037H116.45V30.0253H112.087V32.9378H116.241V34.908H112.087V39.9963ZM118.198 39.9963H120.677V34.908H124.83V32.9378H120.677V30.0253H125.039V28.0037H118.198V39.9963ZM129.266 39.9963H126.788V28.0037H129.266V39.9963ZM140.63 37.5806C140.02 37.8547 139.164 38.1117 138.083 38.1117C135.884 38.1117 133.894 36.9296 133.894 34.0343C133.894 31.5844 135.517 29.8883 138.257 29.8883C139.182 29.8883 139.967 30.0596 140.683 30.3337L140.787 28.2778C139.863 27.9866 139.042 27.8667 138.083 27.8667C134.243 27.8667 131.277 29.9397 131.277 34.0685C131.277 38.4372 134.592 40.1333 137.629 40.1333C138.606 40.1333 139.705 39.9791 140.787 39.6194L140.63 37.5806ZM150 39.9963H142.705V28.0037H150V30.1281H145.183V32.835H149.563V34.8052H145.183V37.8719H150V39.9963Z" fill="white"/>
<rect width="251" height="48" transform="translate(0 69)" fill="#282828"/>
<rect x="20" y="69" width="211" height="32" rx="3" fill="#4781D1"/>
<path d="M40.4297 91L39.6016 88.2812H35.4375L34.6094 91H32L36.0312 79.5312H38.9922L43.0391 91H40.4297ZM39.0234 86.25C38.2578 83.7865 37.8255 82.3932 37.7266 82.0703C37.6328 81.7474 37.5651 81.4922 37.5234 81.3047C37.3516 81.9714 36.8594 83.6198 36.0469 86.25H39.0234ZM47.8438 91.1562C45.125 91.1562 43.7656 89.6641 43.7656 86.6797C43.7656 85.1953 44.1354 84.0625 44.875 83.2812C45.6146 82.4948 46.6745 82.1016 48.0547 82.1016C49.0651 82.1016 49.9714 82.2995 50.7734 82.6953L50.0703 84.5391C49.6953 84.388 49.3464 84.2656 49.0234 84.1719C48.7005 84.0729 48.3776 84.0234 48.0547 84.0234C46.8151 84.0234 46.1953 84.9036 46.1953 86.6641C46.1953 88.3724 46.8151 89.2266 48.0547 89.2266C48.513 89.2266 48.9375 89.1667 49.3281 89.0469C49.7188 88.9219 50.1094 88.7292 50.5 88.4688V90.5078C50.1146 90.7526 49.724 90.9219 49.3281 91.0156C48.9375 91.1094 48.4427 91.1562 47.8438 91.1562ZM56.2109 89.2578C56.6276 89.2578 57.1276 89.1667 57.7109 88.9844V90.7578C57.1172 91.0234 56.388 91.1562 55.5234 91.1562C54.5703 91.1562 53.875 90.9167 53.4375 90.4375C53.0052 89.9531 52.7891 89.2292 52.7891 88.2656V84.0547H51.6484V83.0469L52.9609 82.25L53.6484 80.4062H55.1719V82.2656H57.6172V84.0547H55.1719V88.2656C55.1719 88.6042 55.2656 88.8542 55.4531 89.0156C55.6458 89.1771 55.8984 89.2578 56.2109 89.2578ZM59.3828 80.0078C59.3828 79.2318 59.8151 78.8438 60.6797 78.8438C61.5443 78.8438 61.9766 79.2318 61.9766 80.0078C61.9766 80.3776 61.8672 80.6667 61.6484 80.875C61.4349 81.0781 61.112 81.1797 60.6797 81.1797C59.8151 81.1797 59.3828 80.7891 59.3828 80.0078ZM61.8672 91H59.4844V82.2656H61.8672V91ZM66.2734 86.6172C66.2734 87.4818 66.4141 88.1354 66.6953 88.5781C66.9818 89.0208 67.4453 89.2422 68.0859 89.2422C68.7214 89.2422 69.1771 89.0234 69.4531 88.5859C69.7344 88.1432 69.875 87.487 69.875 86.6172C69.875 85.7526 69.7344 85.1042 69.4531 84.6719C69.1719 84.2396 68.7109 84.0234 68.0703 84.0234C67.4349 84.0234 66.9766 84.2396 66.6953 84.6719C66.4141 85.099 66.2734 85.7474 66.2734 86.6172ZM72.3125 86.6172C72.3125 88.0391 71.9375 89.151 71.1875 89.9531C70.4375 90.7552 69.3932 91.1562 68.0547 91.1562C67.2161 91.1562 66.4766 90.974 65.8359 90.6094C65.1953 90.2396 64.7031 89.7109 64.3594 89.0234C64.0156 88.3359 63.8438 87.5339 63.8438 86.6172C63.8438 85.1901 64.2161 84.0807 64.9609 83.2891C65.7057 82.4974 66.7526 82.1016 68.1016 82.1016C68.9401 82.1016 69.6797 82.2839 70.3203 82.6484C70.9609 83.013 71.4531 83.5365 71.7969 84.2188C72.1406 84.901 72.3125 85.7005 72.3125 86.6172ZM82.3438 91H79.9609V85.8984C79.9609 85.2682 79.849 84.7969 79.625 84.4844C79.401 84.1667 79.0443 84.0078 78.5547 84.0078C77.888 84.0078 77.4062 84.2318 77.1094 84.6797C76.8125 85.1224 76.6641 85.8594 76.6641 86.8906V91H74.2812V82.2656H76.1016L76.4219 83.3828H76.5547C76.8203 82.9609 77.1849 82.6432 77.6484 82.4297C78.1172 82.2109 78.6484 82.1016 79.2422 82.1016C80.2578 82.1016 81.0286 82.3776 81.5547 82.9297C82.0807 83.4766 82.3438 84.2682 82.3438 85.3047V91ZM90.8906 88.4062C90.8906 89.3021 90.5781 89.9844 89.9531 90.4531C89.3333 90.9219 88.4036 91.1562 87.1641 91.1562C86.5286 91.1562 85.987 91.112 85.5391 91.0234C85.0911 90.9401 84.6719 90.8151 84.2812 90.6484V88.6797C84.724 88.888 85.2214 89.0625 85.7734 89.2031C86.3307 89.3438 86.8203 89.4141 87.2422 89.4141C88.1068 89.4141 88.5391 89.1641 88.5391 88.6641C88.5391 88.4766 88.4818 88.3255 88.3672 88.2109C88.2526 88.0911 88.0547 87.9583 87.7734 87.8125C87.4922 87.6615 87.1172 87.487 86.6484 87.2891C85.9766 87.0078 85.4818 86.7474 85.1641 86.5078C84.8516 86.2682 84.6224 85.9948 84.4766 85.6875C84.3359 85.375 84.2656 84.9922 84.2656 84.5391C84.2656 83.763 84.5651 83.1641 85.1641 82.7422C85.7682 82.3151 86.6224 82.1016 87.7266 82.1016C88.7786 82.1016 89.8021 82.3307 90.7969 82.7891L90.0781 84.5078C89.6406 84.3203 89.2318 84.1667 88.8516 84.0469C88.4714 83.9271 88.0833 83.8672 87.6875 83.8672C86.9844 83.8672 86.6328 84.0573 86.6328 84.4375C86.6328 84.651 86.7448 84.8359 86.9688 84.9922C87.1979 85.1484 87.6953 85.3802 88.4609 85.6875C89.1432 85.9635 89.6432 86.2214 89.9609 86.4609C90.2786 86.7005 90.513 86.9766 90.6641 87.2891C90.8151 87.6016 90.8906 87.974 90.8906 88.4062Z" fill="white"/>
<path d="M213.754 87.6845C213.356 88.1052 212.644 88.1052 212.246 87.6845L209.245 84.5118C208.686 83.9201 209.145 83 210 83L216 83C216.855 83 217.314 83.9201 216.755 84.5118L213.754 87.6845Z" fill="white"/>
<rect width="251" height="340" transform="translate(0 117)" fill="#282828"/>
<rect width="251" height="36" transform="translate(0 117)" fill="#282828"/>
<path fill-rule="evenodd" clip-rule="evenodd" d="M35 127C33.8954 127 33 127.895 33 129V141C33 142.105 33.8954 143 35 143H45C46.1046 143 47 142.105 47 141V131.111C47 130.852 46.8996 130.603 46.7198 130.417L43.7198 127.306C43.5314 127.11 43.2715 127 43 127H35ZM35 129L42.5751 129L45 131.515V141H35V129ZM36 133H42V131H36V133ZM36 136H44V134H36V136ZM36 139H44V137H36V139Z" fill="#ADADAD"/>
<path d="M64.7534 135.271C64.7534 136.316 64.5588 137.19 64.1694 137.893C63.7801 138.591 63.2152 139.118 62.4746 139.473C61.734 139.824 60.8411 140 59.7959 140H57.2188V130.72H60.0752C61.0358 130.72 61.8652 130.893 62.5635 131.24C63.2617 131.583 63.8013 132.093 64.1821 132.77C64.563 133.443 64.7534 134.277 64.7534 135.271ZM63.1665 135.315C63.1665 134.554 63.0459 133.927 62.8047 133.437C62.5677 132.946 62.2165 132.582 61.751 132.345C61.2897 132.104 60.7205 131.983 60.0435 131.983H58.7422V138.724H59.8213C60.9427 138.724 61.7806 138.438 62.335 137.867C62.8893 137.296 63.1665 136.445 63.1665 135.315ZM72.8213 136.471C72.8213 137.055 72.7451 137.573 72.5928 138.026C72.4404 138.479 72.2183 138.862 71.9263 139.175C71.6343 139.484 71.283 139.721 70.8726 139.886C70.4621 140.047 69.9987 140.127 69.4824 140.127C69 140.127 68.5578 140.047 68.1558 139.886C67.7537 139.721 67.4046 139.484 67.1084 139.175C66.8164 138.862 66.59 138.479 66.4292 138.026C66.2684 137.573 66.188 137.055 66.188 136.471C66.188 135.696 66.3213 135.04 66.5879 134.503C66.8587 133.961 67.2438 133.549 67.7432 133.265C68.2425 132.982 68.8371 132.84 69.5269 132.84C70.1743 132.84 70.7456 132.982 71.2407 133.265C71.7358 133.549 72.123 133.961 72.4023 134.503C72.6816 135.045 72.8213 135.701 72.8213 136.471ZM67.7241 136.471C67.7241 136.983 67.7855 137.421 67.9082 137.785C68.0352 138.149 68.2298 138.428 68.4922 138.623C68.7546 138.813 69.0931 138.908 69.5078 138.908C69.9225 138.908 70.2611 138.813 70.5234 138.623C70.7858 138.428 70.9784 138.149 71.1011 137.785C71.2238 137.421 71.2852 136.983 71.2852 136.471C71.2852 135.959 71.2238 135.525 71.1011 135.169C70.9784 134.81 70.7858 134.537 70.5234 134.351C70.2611 134.16 69.9204 134.065 69.5015 134.065C68.8836 134.065 68.4329 134.272 68.1494 134.687C67.8659 135.102 67.7241 135.696 67.7241 136.471ZM77.3662 140.127C76.7018 140.127 76.1263 139.998 75.6396 139.74C75.153 139.482 74.7785 139.086 74.5161 138.553C74.2537 138.02 74.1226 137.342 74.1226 136.521C74.1226 135.667 74.2664 134.968 74.5542 134.427C74.842 133.885 75.2397 133.485 75.7476 133.227C76.2596 132.969 76.8457 132.84 77.5059 132.84C77.9248 132.84 78.3035 132.882 78.6421 132.967C78.9849 133.047 79.2747 133.147 79.5117 133.265L79.0674 134.458C78.8092 134.353 78.5448 134.264 78.2739 134.192C78.0031 134.12 77.7428 134.084 77.4932 134.084C77.0827 134.084 76.7399 134.175 76.4648 134.357C76.194 134.539 75.9909 134.81 75.8555 135.169C75.7243 135.529 75.6587 135.976 75.6587 136.509C75.6587 137.025 75.7264 137.461 75.8618 137.816C75.9972 138.168 76.1982 138.434 76.4648 138.616C76.7314 138.794 77.0594 138.883 77.4487 138.883C77.8338 138.883 78.1787 138.836 78.4834 138.743C78.7881 138.65 79.0758 138.529 79.3467 138.381V139.676C79.0801 139.829 78.7944 139.941 78.4897 140.013C78.1851 140.089 77.8105 140.127 77.3662 140.127ZM87.1226 132.973V140H85.9482L85.7451 139.054H85.6626C85.5145 139.295 85.3262 139.496 85.0977 139.657C84.8691 139.814 84.6152 139.93 84.3359 140.006C84.0566 140.087 83.7625 140.127 83.4536 140.127C82.9246 140.127 82.4718 140.038 82.0952 139.86C81.7228 139.678 81.4372 139.399 81.2383 139.022C81.0394 138.646 80.9399 138.159 80.9399 137.562V132.973H82.438V137.283C82.438 137.829 82.548 138.237 82.7681 138.508C82.9924 138.779 83.3394 138.915 83.8091 138.915C84.2619 138.915 84.6216 138.821 84.8882 138.635C85.1548 138.449 85.3431 138.174 85.4531 137.81C85.5674 137.446 85.6245 137 85.6245 136.471V132.973H87.1226ZM97.2026 132.84C97.9897 132.84 98.5822 133.043 98.98 133.449C99.382 133.855 99.583 134.507 99.583 135.404V140H98.0913V135.671C98.0913 135.138 97.9876 134.736 97.7803 134.465C97.5729 134.194 97.2576 134.059 96.8345 134.059C96.242 134.059 95.8146 134.249 95.5522 134.63C95.2941 135.007 95.165 135.555 95.165 136.274V140H93.6733V135.671C93.6733 135.315 93.6268 135.019 93.5337 134.782C93.4448 134.541 93.3073 134.361 93.1211 134.243C92.9349 134.12 92.7 134.059 92.4165 134.059C92.006 134.059 91.6781 134.152 91.4326 134.338C91.1914 134.524 91.0179 134.799 90.9121 135.163C90.8063 135.523 90.7534 135.965 90.7534 136.49V140H89.2617V132.973H90.4233L90.6328 133.919H90.7153C90.8592 133.674 91.0369 133.472 91.2485 133.316C91.4644 133.155 91.7035 133.037 91.9658 132.96C92.2282 132.88 92.5011 132.84 92.7847 132.84C93.3094 132.84 93.7516 132.933 94.1113 133.119C94.471 133.301 94.7397 133.58 94.9175 133.957H95.0317C95.2518 133.576 95.5586 133.295 95.9521 133.113C96.3457 132.931 96.7625 132.84 97.2026 132.84ZM104.464 132.84C105.091 132.84 105.628 132.969 106.077 133.227C106.525 133.485 106.87 133.851 107.111 134.325C107.353 134.799 107.473 135.366 107.473 136.026V136.826H102.782C102.799 137.507 102.981 138.032 103.328 138.4C103.679 138.769 104.17 138.953 104.801 138.953C105.249 138.953 105.651 138.91 106.007 138.826C106.367 138.737 106.737 138.608 107.118 138.438V139.651C106.766 139.816 106.409 139.937 106.045 140.013C105.681 140.089 105.245 140.127 104.737 140.127C104.048 140.127 103.44 139.994 102.916 139.727C102.395 139.456 101.987 139.054 101.69 138.521C101.398 137.988 101.252 137.326 101.252 136.534C101.252 135.747 101.386 135.078 101.652 134.528C101.919 133.978 102.293 133.559 102.776 133.271C103.258 132.984 103.821 132.84 104.464 132.84ZM104.464 133.963C103.995 133.963 103.614 134.116 103.322 134.42C103.034 134.725 102.865 135.172 102.814 135.76H106.013C106.009 135.409 105.95 135.097 105.835 134.827C105.725 134.556 105.556 134.344 105.328 134.192C105.103 134.04 104.816 133.963 104.464 133.963ZM112.818 132.84C113.609 132.84 114.225 133.045 114.665 133.456C115.109 133.862 115.332 134.516 115.332 135.417V140H113.84V135.696C113.84 135.15 113.728 134.742 113.503 134.471C113.279 134.196 112.932 134.059 112.462 134.059C111.781 134.059 111.307 134.268 111.041 134.687C110.778 135.106 110.647 135.713 110.647 136.509V140H109.155V132.973H110.317L110.526 133.925H110.609C110.761 133.68 110.95 133.479 111.174 133.322C111.402 133.161 111.656 133.041 111.936 132.96C112.219 132.88 112.513 132.84 112.818 132.84ZM120.035 138.921C120.23 138.921 120.422 138.904 120.613 138.87C120.803 138.832 120.977 138.788 121.133 138.737V139.867C120.968 139.939 120.755 140 120.492 140.051C120.23 140.102 119.957 140.127 119.673 140.127C119.276 140.127 118.918 140.061 118.601 139.93C118.283 139.795 118.031 139.564 117.845 139.238C117.659 138.912 117.566 138.462 117.566 137.886V134.109H116.607V133.443L117.636 132.916L118.125 131.412H119.064V132.973H121.076V134.109H119.064V137.867C119.064 138.223 119.153 138.487 119.331 138.661C119.508 138.834 119.743 138.921 120.035 138.921ZM127.284 137.994C127.284 138.455 127.172 138.845 126.948 139.162C126.723 139.479 126.396 139.721 125.964 139.886C125.536 140.047 125.012 140.127 124.39 140.127C123.899 140.127 123.476 140.091 123.12 140.019C122.769 139.951 122.437 139.846 122.124 139.702V138.413C122.458 138.57 122.832 138.705 123.247 138.819C123.666 138.934 124.062 138.991 124.434 138.991C124.925 138.991 125.278 138.915 125.494 138.762C125.71 138.606 125.818 138.398 125.818 138.14C125.818 137.988 125.773 137.852 125.685 137.734C125.6 137.611 125.439 137.486 125.202 137.359C124.969 137.228 124.627 137.072 124.174 136.89C123.729 136.712 123.355 136.534 123.05 136.356C122.746 136.179 122.515 135.965 122.358 135.715C122.202 135.461 122.124 135.138 122.124 134.744C122.124 134.122 122.369 133.65 122.86 133.329C123.355 133.003 124.009 132.84 124.821 132.84C125.253 132.84 125.659 132.884 126.04 132.973C126.425 133.058 126.802 133.183 127.17 133.348L126.7 134.471C126.383 134.332 126.063 134.217 125.742 134.128C125.424 134.035 125.101 133.989 124.771 133.989C124.385 133.989 124.091 134.048 123.888 134.167C123.689 134.285 123.59 134.454 123.59 134.674C123.59 134.839 123.639 134.979 123.736 135.093C123.833 135.208 124 135.322 124.237 135.436C124.479 135.55 124.813 135.692 125.24 135.861C125.659 136.022 126.021 136.191 126.326 136.369C126.635 136.543 126.872 136.756 127.037 137.01C127.202 137.264 127.284 137.592 127.284 137.994Z" fill="#ADADAD"/>
<rect width="251" height="36" transform="translate(0 153)" fill="#282828"/>
<path fill-rule="evenodd" clip-rule="evenodd" d="M32 167C32 165.343 33.3431 164 35 164H44C45.6569 164 47 165.343 47 167V176C47 177.657 45.6569 179 44 179H35C33.3431 179 32 177.657 32 176V167ZM35 166C34.4477 166 34 166.448 34 167V176C34 176.552 34.4477 177 35 177H44C44.5523 177 45 176.552 45 176V167C45 166.448 44.5523 166 44 166H35ZM36 169C36 168.448 36.4477 168 37 168H38C38.5523 168 39 168.448 39 169V170C39 170.552 38.5523 171 38 171H37C36.4477 171 36 170.552 36 170V169ZM37 172C36.4477 172 36 172.448 36 173V174C36 174.552 36.4477 175 37 175H38C38.5523 175 39 174.552 39 174V173C39 172.448 38.5523 172 38 172H37ZM40 169C40 168.448 40.4477 168 41 168H42C42.5523 168 43 168.448 43 169V170C43 170.552 42.5523 171 42 171H41C40.4477 171 40 170.552 40 170V169ZM41 172C40.4477 172 40 172.448 40 173V174C40 174.552 40.4477 175 41 175H42C42.5523 175 43 174.552 43 174V173C43 172.448 42.5523 172 42 172H41Z" fill="#ADADAD"/>
<path d="M59.8276 166.72C60.6274 166.72 61.2876 166.817 61.8081 167.012C62.3328 167.206 62.7222 167.503 62.9761 167.9C63.2342 168.298 63.3633 168.804 63.3633 169.417C63.3633 169.875 63.2786 170.264 63.1094 170.585C62.9401 170.907 62.7179 171.174 62.4429 171.385C62.1678 171.597 61.8737 171.766 61.5605 171.893L64.1948 176H62.4746L60.2339 172.28H58.7422V176H57.2188V166.72H59.8276ZM59.7261 167.989H58.7422V171.023H59.7959C60.5026 171.023 61.0146 170.892 61.332 170.63C61.6536 170.368 61.8145 169.98 61.8145 169.468C61.8145 168.931 61.6431 168.55 61.3003 168.326C60.9618 168.101 60.437 167.989 59.7261 167.989ZM71.5898 172.471C71.5898 173.055 71.5137 173.573 71.3613 174.026C71.209 174.479 70.9868 174.862 70.6948 175.175C70.4028 175.484 70.0516 175.721 69.6411 175.886C69.2306 176.047 68.7673 176.127 68.251 176.127C67.7686 176.127 67.3263 176.047 66.9243 175.886C66.5223 175.721 66.1732 175.484 65.877 175.175C65.585 174.862 65.3586 174.479 65.1978 174.026C65.0369 173.573 64.9565 173.055 64.9565 172.471C64.9565 171.696 65.0898 171.04 65.3564 170.503C65.6273 169.961 66.0124 169.549 66.5117 169.265C67.0111 168.982 67.6056 168.84 68.2954 168.84C68.9429 168.84 69.5142 168.982 70.0093 169.265C70.5044 169.549 70.8916 169.961 71.1709 170.503C71.4502 171.045 71.5898 171.701 71.5898 172.471ZM66.4927 172.471C66.4927 172.983 66.554 173.421 66.6768 173.785C66.8037 174.149 66.9984 174.428 67.2607 174.623C67.5231 174.813 67.8617 174.908 68.2764 174.908C68.6911 174.908 69.0296 174.813 69.292 174.623C69.5544 174.428 69.7469 174.149 69.8696 173.785C69.9924 173.421 70.0537 172.983 70.0537 172.471C70.0537 171.959 69.9924 171.525 69.8696 171.169C69.7469 170.81 69.5544 170.537 69.292 170.351C69.0296 170.16 68.689 170.065 68.27 170.065C67.6522 170.065 67.2015 170.272 66.918 170.687C66.6344 171.102 66.4927 171.696 66.4927 172.471ZM79.5244 172.471C79.5244 173.055 79.4482 173.573 79.2959 174.026C79.1436 174.479 78.9214 174.862 78.6294 175.175C78.3374 175.484 77.9862 175.721 77.5757 175.886C77.1652 176.047 76.7018 176.127 76.1855 176.127C75.7031 176.127 75.2609 176.047 74.8589 175.886C74.4569 175.721 74.1077 175.484 73.8115 175.175C73.5195 174.862 73.2931 174.479 73.1323 174.026C72.9715 173.573 72.8911 173.055 72.8911 172.471C72.8911 171.696 73.0244 171.04 73.291 170.503C73.5618 169.961 73.9469 169.549 74.4463 169.265C74.9456 168.982 75.5402 168.84 76.23 168.84C76.8774 168.84 77.4487 168.982 77.9438 169.265C78.439 169.549 78.8262 169.961 79.1055 170.503C79.3848 171.045 79.5244 171.701 79.5244 172.471ZM74.4272 172.471C74.4272 172.983 74.4886 173.421 74.6113 173.785C74.7383 174.149 74.9329 174.428 75.1953 174.623C75.4577 174.813 75.7962 174.908 76.2109 174.908C76.6257 174.908 76.9642 174.813 77.2266 174.623C77.4889 174.428 77.6815 174.149 77.8042 173.785C77.9269 173.421 77.9883 172.983 77.9883 172.471C77.9883 171.959 77.9269 171.525 77.8042 171.169C77.6815 170.81 77.4889 170.537 77.2266 170.351C76.9642 170.16 76.6235 170.065 76.2046 170.065C75.5868 170.065 75.1361 170.272 74.8525 170.687C74.569 171.102 74.4272 171.696 74.4272 172.471ZM89.1792 168.84C89.9663 168.84 90.5588 169.043 90.9565 169.449C91.3586 169.855 91.5596 170.507 91.5596 171.404V176H90.0679V171.671C90.0679 171.138 89.9642 170.736 89.7568 170.465C89.5495 170.194 89.2342 170.059 88.811 170.059C88.2186 170.059 87.7912 170.249 87.5288 170.63C87.2707 171.007 87.1416 171.555 87.1416 172.274V176H85.6499V171.671C85.6499 171.315 85.6034 171.019 85.5103 170.782C85.4214 170.541 85.2839 170.361 85.0977 170.243C84.9115 170.12 84.6766 170.059 84.3931 170.059C83.9826 170.059 83.6546 170.152 83.4092 170.338C83.168 170.524 82.9945 170.799 82.8887 171.163C82.7829 171.523 82.73 171.965 82.73 172.49V176H81.2383V168.973H82.3999L82.6094 169.919H82.6919C82.8358 169.674 83.0135 169.472 83.2251 169.316C83.4409 169.155 83.68 169.037 83.9424 168.96C84.2048 168.88 84.4777 168.84 84.7612 168.84C85.286 168.84 85.7282 168.933 86.0879 169.119C86.4476 169.301 86.7163 169.58 86.894 169.957H87.0083C87.2284 169.576 87.5352 169.295 87.9287 169.113C88.3223 168.931 88.7391 168.84 89.1792 168.84ZM98.3643 173.994C98.3643 174.455 98.2521 174.845 98.0278 175.162C97.8035 175.479 97.4756 175.721 97.0439 175.886C96.6165 176.047 96.0918 176.127 95.4697 176.127C94.9788 176.127 94.5557 176.091 94.2002 176.019C93.849 175.951 93.5168 175.846 93.2036 175.702V174.413C93.5379 174.57 93.9124 174.705 94.3271 174.819C94.7461 174.934 95.1418 174.991 95.5142 174.991C96.005 174.991 96.3584 174.915 96.5742 174.762C96.79 174.606 96.8979 174.398 96.8979 174.14C96.8979 173.988 96.8535 173.852 96.7646 173.734C96.68 173.611 96.5192 173.486 96.2822 173.359C96.0495 173.228 95.7067 173.072 95.2539 172.89C94.8096 172.712 94.4351 172.534 94.1304 172.356C93.8257 172.179 93.5951 171.965 93.4385 171.715C93.2819 171.461 93.2036 171.138 93.2036 170.744C93.2036 170.122 93.4491 169.65 93.9399 169.329C94.4351 169.003 95.0889 168.84 95.9014 168.84C96.333 168.84 96.7393 168.884 97.1201 168.973C97.5052 169.058 97.8818 169.183 98.25 169.348L97.7803 170.471C97.4629 170.332 97.1434 170.217 96.8218 170.128C96.5044 170.035 96.1807 169.989 95.8506 169.989C95.4655 169.989 95.1714 170.048 94.9683 170.167C94.7694 170.285 94.6699 170.454 94.6699 170.674C94.6699 170.839 94.7186 170.979 94.8159 171.093C94.9132 171.208 95.0804 171.322 95.3174 171.436C95.5586 171.55 95.8929 171.692 96.3203 171.861C96.7393 172.022 97.1011 172.191 97.4058 172.369C97.7147 172.543 97.9517 172.756 98.1167 173.01C98.2817 173.264 98.3643 173.592 98.3643 173.994Z" fill="#ADADAD"/>
<rect width="251" height="36" transform="translate(0 189)" fill="#282828"/>
<path fill-rule="evenodd" clip-rule="evenodd" d="M33 204C32.4477 204 32 203.552 32 203V201C32 200.448 32.4477 200 33 200H47C47.5523 200 48 200.448 48 201V203C48 203.552 47.5523 204 47 204V213C47 213.552 46.5523 214 46 214H34C33.4477 214 33 213.552 33 213V204ZM35 205V212H45V205H35ZM37 208C37 207.448 37.4477 207 38 207H42C42.5523 207 43 207.448 43 208C43 208.552 42.5523 209 42 209H38C37.4477 209 37 208.552 37 208ZM35.5 202C35.2239 202 35 202.224 35 202.5C35 202.776 35.2239 203 35.5 203H44.5C44.7761 203 45 202.776 45 202.5C45 202.224 44.7761 202 44.5 202H35.5Z" fill="#ADADAD"/>
<path d="M62.9697 212L62.062 209.423H58.5137L57.606 212H56L59.4531 202.682H61.1416L64.5884 212H62.9697ZM61.6685 208.115L60.7861 205.576C60.7523 205.466 60.7036 205.312 60.6401 205.113C60.5767 204.91 60.5132 204.704 60.4497 204.497C60.3862 204.285 60.3333 204.108 60.291 203.964C60.2487 204.137 60.1958 204.332 60.1323 204.548C60.0731 204.759 60.0138 204.958 59.9546 205.145C59.8996 205.331 59.8573 205.475 59.8276 205.576L58.939 208.115H61.6685ZM69.2222 204.84C69.3407 204.84 69.4697 204.846 69.6094 204.859C69.749 204.872 69.8696 204.889 69.9712 204.91L69.8315 206.306C69.7427 206.281 69.6326 206.262 69.5015 206.249C69.3745 206.236 69.2603 206.23 69.1587 206.23C68.8921 206.23 68.6382 206.274 68.397 206.363C68.1558 206.448 67.9421 206.579 67.7559 206.757C67.5697 206.93 67.4237 207.148 67.3179 207.411C67.2121 207.673 67.1592 207.978 67.1592 208.325V212H65.6611V204.973H66.8291L67.0322 206.211H67.1021C67.2417 205.961 67.4152 205.733 67.6226 205.525C67.8299 205.318 68.0669 205.153 68.3335 205.03C68.6043 204.903 68.9006 204.84 69.2222 204.84ZM74.1035 212.127C73.4391 212.127 72.8636 211.998 72.377 211.74C71.8903 211.482 71.5158 211.086 71.2534 210.553C70.991 210.02 70.8599 209.342 70.8599 208.521C70.8599 207.667 71.0037 206.968 71.2915 206.427C71.5793 205.885 71.9771 205.485 72.4849 205.227C72.9969 204.969 73.583 204.84 74.2432 204.84C74.6621 204.84 75.0409 204.882 75.3794 204.967C75.7222 205.047 76.012 205.147 76.249 205.265L75.8047 206.458C75.5465 206.353 75.2821 206.264 75.0112 206.192C74.7404 206.12 74.4801 206.084 74.2305 206.084C73.82 206.084 73.4772 206.175 73.2021 206.357C72.9313 206.539 72.7282 206.81 72.5928 207.169C72.4616 207.529 72.396 207.976 72.396 208.509C72.396 209.025 72.4637 209.461 72.5991 209.816C72.7345 210.168 72.9355 210.434 73.2021 210.616C73.4688 210.794 73.7967 210.883 74.186 210.883C74.5711 210.883 74.916 210.836 75.2207 210.743C75.5254 210.65 75.8132 210.529 76.084 210.381V211.676C75.8174 211.829 75.5317 211.941 75.2271 212.013C74.9224 212.089 74.5479 212.127 74.1035 212.127ZM79.2261 202.123V204.605C79.2261 204.863 79.2176 205.115 79.2007 205.36C79.188 205.606 79.1732 205.796 79.1562 205.932H79.2388C79.3869 205.686 79.5688 205.485 79.7847 205.329C80.0005 205.168 80.2417 205.047 80.5083 204.967C80.7791 204.886 81.0669 204.846 81.3716 204.846C81.909 204.846 82.366 204.937 82.7427 205.119C83.1193 205.297 83.4071 205.574 83.606 205.951C83.8091 206.327 83.9106 206.816 83.9106 207.417V212H82.4189V207.696C82.4189 207.15 82.3068 206.742 82.0825 206.471C81.8582 206.196 81.5112 206.059 81.0415 206.059C80.5887 206.059 80.229 206.154 79.9624 206.344C79.7 206.53 79.5117 206.808 79.3975 207.176C79.2832 207.54 79.2261 207.984 79.2261 208.509V212H77.7344V202.123H79.2261ZM87.4907 204.973V212H85.999V204.973H87.4907ZM86.7544 202.282C86.9829 202.282 87.1797 202.343 87.3447 202.466C87.514 202.589 87.5986 202.8 87.5986 203.101C87.5986 203.397 87.514 203.608 87.3447 203.735C87.1797 203.858 86.9829 203.919 86.7544 203.919C86.5174 203.919 86.3164 203.858 86.1514 203.735C85.9906 203.608 85.9102 203.397 85.9102 203.101C85.9102 202.8 85.9906 202.589 86.1514 202.466C86.3164 202.343 86.5174 202.282 86.7544 202.282ZM91.2358 212L88.5635 204.973H90.144L91.5913 209.099C91.6844 209.361 91.769 209.645 91.8452 209.95C91.9214 210.254 91.9743 210.51 92.0039 210.718H92.0547C92.0843 210.502 92.1414 210.244 92.2261 209.943C92.3107 209.639 92.3975 209.357 92.4863 209.099L93.9336 204.973H95.5078L92.8354 212H91.2358ZM99.3735 204.84C99.9998 204.84 100.537 204.969 100.986 205.227C101.434 205.485 101.779 205.851 102.021 206.325C102.262 206.799 102.382 207.366 102.382 208.026V208.826H97.6914C97.7083 209.507 97.8903 210.032 98.2373 210.4C98.5885 210.769 99.0794 210.953 99.71 210.953C100.159 210.953 100.561 210.91 100.916 210.826C101.276 210.737 101.646 210.608 102.027 210.438V211.651C101.676 211.816 101.318 211.937 100.954 212.013C100.59 212.089 100.154 212.127 99.6465 212.127C98.9567 212.127 98.3494 211.994 97.8247 211.727C97.3042 211.456 96.8958 211.054 96.5996 210.521C96.3076 209.988 96.1616 209.326 96.1616 208.534C96.1616 207.747 96.2949 207.078 96.5615 206.528C96.8281 205.978 97.2026 205.559 97.6851 205.271C98.1675 204.984 98.7303 204.84 99.3735 204.84ZM99.3735 205.963C98.9038 205.963 98.5229 206.116 98.231 206.42C97.9432 206.725 97.7739 207.172 97.7231 207.76H100.922C100.918 207.409 100.859 207.097 100.745 206.827C100.635 206.556 100.465 206.344 100.237 206.192C100.013 206.04 99.7248 205.963 99.3735 205.963Z" fill="#ADADAD"/>
<rect width="251" height="16" transform="translate(0 225)" fill="#282828"/>
<rect width="251" height="36" transform="translate(0 241)" fill="#282828"/>
<path fill-rule="evenodd" clip-rule="evenodd" d="M40.0005 254C39.4482 254 39.0005 254.448 39.0005 255V255.5C39.0005 256.14 39.1942 256.69 39.4475 257.056C39.719 257.448 39.9516 257.5 40 257.5C40.0486 257.5 40.2815 257.448 40.5532 257.055C40.8067 256.689 41.0004 256.14 41.0005 255.5V255.5V255.5L41.0004 255C41.0003 254.448 40.5526 254 40.0005 254ZM37.0005 255C37.0005 253.343 38.3437 252 40.0005 252C41.6571 252 43 253.343 43.0004 254.999L43.0005 255.5V255.5C43.0005 256.527 42.694 257.477 42.1973 258.194C41.7188 258.885 40.9514 259.5 40 259.5C39.0484 259.5 38.2812 258.885 37.803 258.194C37.3066 257.477 37.0005 256.526 37.0005 255.5V255ZM37.9102 262.075C37.8518 262.137 37.7708 262.244 37.6784 262.425C37.5266 262.723 37.3943 263.119 37.2877 263.575C37.0744 264.487 37 265.476 37 266H35C35 265.349 35.0867 264.204 35.3403 263.119C35.4671 262.577 35.6447 262.01 35.8973 261.516C36.1412 261.038 36.514 260.512 37.0921 260.218C37.8407 259.837 38.5765 260.17 38.8695 260.316L39.5528 260.658C39.8343 260.799 40.1657 260.799 40.4472 260.658L41.1305 260.316C41.4235 260.17 42.1593 259.837 42.9079 260.218C43.486 260.512 43.8588 261.038 44.1027 261.516C44.3553 262.01 44.5329 262.577 44.6597 263.119C44.9133 264.204 45 265.349 45 266H43C43 265.476 42.9256 264.487 42.7123 263.575C42.6057 263.119 42.4734 262.723 42.3216 262.425C42.2292 262.244 42.1482 262.137 42.0898 262.075C42.0703 262.083 42.0488 262.093 42.0249 262.105L41.3416 262.447C40.4971 262.869 39.5029 262.869 38.6584 262.447L37.9751 262.105C37.9512 262.093 37.9297 262.083 37.9102 262.075ZM36.0005 255C36.0005 254.656 36.0439 254.322 36.1256 254.004C36.084 254.001 36.0421 254 35.9999 254C34.8954 254 34 254.895 33.9999 255.999L33.9998 256.599V256.6C33.9998 257.561 34.3504 258.257 34.7317 258.715C34.9175 258.938 35.1052 259.098 35.2524 259.206C35.3264 259.26 35.3913 259.302 35.4426 259.333C35.4682 259.348 35.4906 259.361 35.5091 259.371L35.534 259.384L35.5442 259.39L35.5487 259.392L35.5508 259.393L35.5518 259.394C35.5523 259.394 35.5528 259.394 36 258.5L35.5528 259.394C35.8344 259.535 36.1658 259.535 36.4473 259.394L36 258.5C36.4473 259.394 36.4478 259.394 36.4483 259.394L36.4493 259.393L36.4514 259.392L36.4559 259.39L36.4661 259.384L36.491 259.371C36.5095 259.361 36.5319 259.348 36.5575 259.333C36.6088 259.302 36.6737 259.26 36.7477 259.206C36.8471 259.133 36.9651 259.036 37.0884 258.912C37.051 258.862 37.0151 258.813 36.9808 258.763C36.3628 257.87 36.0005 256.719 36.0005 255.5V255ZM43.0194 258.764C42.9851 258.813 42.9492 258.863 42.9118 258.913C43.0351 259.036 43.153 259.133 43.2524 259.206C43.3264 259.26 43.3913 259.302 43.4426 259.333C43.4682 259.348 43.4906 259.361 43.5091 259.371L43.534 259.384L43.5442 259.39L43.5487 259.392L43.5508 259.393L43.5518 259.394C43.5523 259.394 43.5528 259.394 44 258.5L43.5528 259.394C43.8344 259.535 44.1658 259.535 44.4473 259.394L44 258.5C44.4473 259.394 44.4478 259.394 44.4483 259.394L44.4493 259.393L44.4514 259.392L44.4559 259.39L44.4661 259.384L44.491 259.371C44.5095 259.361 44.5319 259.348 44.5575 259.333C44.6088 259.302 44.6737 259.26 44.7477 259.206C44.8949 259.098 45.0825 258.938 45.2683 258.715C45.6495 258.257 46 257.561 46 256.6V256C46 254.895 45.1045 254 43.9999 254C43.9581 254 43.9165 254.001 43.8753 254.003C43.9569 254.322 44.0003 254.655 44.0004 254.999L44.0005 255.5V255.5C44.0005 256.72 43.6377 257.871 43.0194 258.764ZM45.6286 262.946C45.7137 263.299 45.7815 263.655 45.8347 264H47.5C47.5 263.484 47.433 262.735 47.2243 262.039C47.0365 261.413 46.6307 260.482 45.7089 260.129C45.1679 259.922 44.6681 260.072 44.3727 260.2C44.638 260.516 44.8388 260.849 44.9913 261.149C45.2886 261.735 45.4894 262.369 45.6286 262.946ZM35.0087 261.149C35.1612 260.849 35.362 260.516 35.6273 260.2C35.3319 260.072 34.8321 259.922 34.2911 260.129C33.3693 260.482 32.9635 261.413 32.7757 262.039C32.567 262.735 32.5 263.484 32.5 264H34.1653C34.2185 263.655 34.2863 263.299 34.3714 262.946C34.5106 262.369 34.7114 261.735 35.0087 261.149ZM35.9999 256L36 256V256.6L35.9999 256.62L35.9998 256.6V256.6V256.6L35.9999 256L35.9999 256ZM43.9999 256L44 256V256.6L43.9999 256.62L43.9998 256.6V256.6V256.6L43.9999 256L43.9999 256Z" fill="#ADADAD"/>
<path d="M62.9697 264L62.062 261.423H58.5137L57.606 264H56L59.4531 254.682H61.1416L64.5884 264H62.9697ZM61.6685 260.115L60.7861 257.576C60.7523 257.466 60.7036 257.312 60.6401 257.113C60.5767 256.91 60.5132 256.704 60.4497 256.497C60.3862 256.285 60.3333 256.108 60.291 255.964C60.2487 256.137 60.1958 256.332 60.1323 256.548C60.0731 256.759 60.0138 256.958 59.9546 257.145C59.8996 257.331 59.8573 257.475 59.8276 257.576L58.939 260.115H61.6685ZM68.4922 264.127C67.8278 264.127 67.2523 263.998 66.7656 263.74C66.279 263.482 65.9045 263.086 65.6421 262.553C65.3797 262.02 65.2485 261.342 65.2485 260.521C65.2485 259.667 65.3924 258.968 65.6802 258.427C65.9679 257.885 66.3657 257.485 66.8735 257.227C67.3856 256.969 67.9717 256.84 68.6318 256.84C69.0508 256.84 69.4295 256.882 69.7681 256.967C70.1108 257.047 70.4007 257.147 70.6377 257.265L70.1934 258.458C69.9352 258.353 69.6707 258.264 69.3999 258.192C69.1291 258.12 68.8688 258.084 68.6191 258.084C68.2087 258.084 67.8659 258.175 67.5908 258.357C67.32 258.539 67.1169 258.81 66.9814 259.169C66.8503 259.529 66.7847 259.976 66.7847 260.509C66.7847 261.025 66.8524 261.461 66.9878 261.816C67.1232 262.168 67.3242 262.434 67.5908 262.616C67.8574 262.794 68.1854 262.883 68.5747 262.883C68.9598 262.883 69.3047 262.836 69.6094 262.743C69.9141 262.65 70.2018 262.529 70.4727 262.381V263.676C70.2061 263.829 69.9204 263.941 69.6157 264.013C69.311 264.089 68.9365 264.127 68.4922 264.127ZM74.9541 264.127C74.2897 264.127 73.7142 263.998 73.2275 263.74C72.7409 263.482 72.3664 263.086 72.104 262.553C71.8416 262.02 71.7104 261.342 71.7104 260.521C71.7104 259.667 71.8543 258.968 72.1421 258.427C72.4299 257.885 72.8276 257.485 73.3354 257.227C73.8475 256.969 74.4336 256.84 75.0938 256.84C75.5127 256.84 75.8914 256.882 76.23 256.967C76.5728 257.047 76.8626 257.147 77.0996 257.265L76.6553 258.458C76.3971 258.353 76.1326 258.264 75.8618 258.192C75.591 258.12 75.3307 258.084 75.0811 258.084C74.6706 258.084 74.3278 258.175 74.0527 258.357C73.7819 258.539 73.5788 258.81 73.4434 259.169C73.3122 259.529 73.2466 259.976 73.2466 260.509C73.2466 261.025 73.3143 261.461 73.4497 261.816C73.5851 262.168 73.7861 262.434 74.0527 262.616C74.3193 262.794 74.6473 262.883 75.0366 262.883C75.4217 262.883 75.7666 262.836 76.0713 262.743C76.376 262.65 76.6637 262.529 76.9346 262.381V263.676C76.668 263.829 76.3823 263.941 76.0776 264.013C75.7729 264.089 75.3984 264.127 74.9541 264.127ZM84.8057 260.471C84.8057 261.055 84.7295 261.573 84.5771 262.026C84.4248 262.479 84.2026 262.862 83.9106 263.175C83.6187 263.484 83.2674 263.721 82.8569 263.886C82.4465 264.047 81.9831 264.127 81.4668 264.127C80.9844 264.127 80.5422 264.047 80.1401 263.886C79.7381 263.721 79.389 263.484 79.0928 263.175C78.8008 262.862 78.5744 262.479 78.4136 262.026C78.2528 261.573 78.1724 261.055 78.1724 260.471C78.1724 259.696 78.3057 259.04 78.5723 258.503C78.8431 257.961 79.2282 257.549 79.7275 257.265C80.2269 256.982 80.8215 256.84 81.5112 256.84C82.1587 256.84 82.73 256.982 83.2251 257.265C83.7202 257.549 84.1074 257.961 84.3867 258.503C84.666 259.045 84.8057 259.701 84.8057 260.471ZM79.7085 260.471C79.7085 260.983 79.7699 261.421 79.8926 261.785C80.0195 262.149 80.2142 262.428 80.4766 262.623C80.7389 262.813 81.0775 262.908 81.4922 262.908C81.9069 262.908 82.2454 262.813 82.5078 262.623C82.7702 262.428 82.9627 262.149 83.0854 261.785C83.2082 261.421 83.2695 260.983 83.2695 260.471C83.2695 259.959 83.2082 259.525 83.0854 259.169C82.9627 258.81 82.7702 258.537 82.5078 258.351C82.2454 258.16 81.9048 258.065 81.4858 258.065C80.868 258.065 80.4173 258.272 80.1338 258.687C79.8503 259.102 79.7085 259.696 79.7085 260.471ZM92.645 256.973V264H91.4707L91.2676 263.054H91.1851C91.0369 263.295 90.8486 263.496 90.6201 263.657C90.3916 263.814 90.1377 263.93 89.8584 264.006C89.5791 264.087 89.285 264.127 88.9761 264.127C88.4471 264.127 87.9943 264.038 87.6177 263.86C87.2453 263.678 86.9596 263.399 86.7607 263.022C86.5618 262.646 86.4624 262.159 86.4624 261.562V256.973H87.9604V261.283C87.9604 261.829 88.0705 262.237 88.2905 262.508C88.5148 262.779 88.8618 262.915 89.3315 262.915C89.7843 262.915 90.144 262.821 90.4106 262.635C90.6772 262.449 90.8656 262.174 90.9756 261.81C91.0898 261.446 91.147 261 91.147 260.471V256.973H92.645ZM98.4468 256.84C99.2381 256.84 99.8538 257.045 100.294 257.456C100.738 257.862 100.96 258.516 100.96 259.417V264H99.4688V259.696C99.4688 259.15 99.3566 258.742 99.1323 258.471C98.908 258.196 98.561 258.059 98.0913 258.059C97.41 258.059 96.936 258.268 96.6694 258.687C96.4071 259.106 96.2759 259.713 96.2759 260.509V264H94.7842V256.973H95.9458L96.1553 257.925H96.2378C96.3901 257.68 96.5785 257.479 96.8027 257.322C97.0312 257.161 97.2852 257.041 97.5645 256.96C97.848 256.88 98.1421 256.84 98.4468 256.84ZM105.664 262.921C105.859 262.921 106.051 262.904 106.242 262.87C106.432 262.832 106.606 262.788 106.762 262.737V263.867C106.597 263.939 106.383 264 106.121 264.051C105.859 264.102 105.586 264.127 105.302 264.127C104.904 264.127 104.547 264.061 104.229 263.93C103.912 263.795 103.66 263.564 103.474 263.238C103.288 262.912 103.195 262.462 103.195 261.886V258.109H102.236V257.443L103.265 256.916L103.753 255.412H104.693V256.973H106.705V258.109H104.693V261.867C104.693 262.223 104.782 262.487 104.959 262.661C105.137 262.834 105.372 262.921 105.664 262.921ZM112.913 261.994C112.913 262.455 112.801 262.845 112.577 263.162C112.352 263.479 112.024 263.721 111.593 263.886C111.165 264.047 110.641 264.127 110.019 264.127C109.528 264.127 109.104 264.091 108.749 264.019C108.398 263.951 108.066 263.846 107.752 263.702V262.413C108.087 262.57 108.461 262.705 108.876 262.819C109.295 262.934 109.691 262.991 110.063 262.991C110.554 262.991 110.907 262.915 111.123 262.762C111.339 262.606 111.447 262.398 111.447 262.14C111.447 261.988 111.402 261.852 111.313 261.734C111.229 261.611 111.068 261.486 110.831 261.359C110.598 261.228 110.256 261.072 109.803 260.89C109.358 260.712 108.984 260.534 108.679 260.356C108.375 260.179 108.144 259.965 107.987 259.715C107.831 259.461 107.752 259.138 107.752 258.744C107.752 258.122 107.998 257.65 108.489 257.329C108.984 257.003 109.638 256.84 110.45 256.84C110.882 256.84 111.288 256.884 111.669 256.973C112.054 257.058 112.431 257.183 112.799 257.348L112.329 258.471C112.012 258.332 111.692 258.217 111.371 258.128C111.053 258.035 110.729 257.989 110.399 257.989C110.014 257.989 109.72 258.048 109.517 258.167C109.318 258.285 109.219 258.454 109.219 258.674C109.219 258.839 109.267 258.979 109.365 259.093C109.462 259.208 109.629 259.322 109.866 259.436C110.107 259.55 110.442 259.692 110.869 259.861C111.288 260.022 111.65 260.191 111.955 260.369C112.264 260.543 112.5 260.756 112.666 261.01C112.831 261.264 112.913 261.592 112.913 261.994Z" fill="#ADADAD"/>
<rect width="251" height="36" transform="translate(0 277)" fill="#282828"/>
<g clip-path="url(#clip2_188_21296)">
<path fill-rule="evenodd" clip-rule="evenodd" d="M39.4997 287H40.4997C41.3281 287 41.9997 287.672 41.9997 288.5V289H42.0007H45.0007C46.1056 289 47.0007 289.896 47.0007 291H45.0007V291H42.0007H40.4997H39.4997H38.0007H35.0007V291H33.0007C33.0007 289.896 33.8959 289 35.0007 289H37.9997V288.5C37.9997 287.672 38.6713 287 39.4997 287ZM35.0007 292V300C35.0007 301.657 36.3439 303 38.0007 303H42.0007C43.6576 303 45.0007 301.657 45.0007 300V292H43.0007V300C43.0007 300.553 42.553 301 42.0007 301H38.0007C37.4484 301 37.0007 300.553 37.0007 300V292H35.0007ZM39.0007 293V301H41.0007V293H39.0007Z" fill="#ADADAD"/>
</g>
<path d="M60.437 300H58.9072V292.015H56.1904V290.72H63.1475V292.015H60.437V300ZM67.978 292.84C68.0965 292.84 68.2256 292.846 68.3652 292.859C68.5049 292.872 68.6255 292.889 68.7271 292.91L68.5874 294.306C68.4985 294.281 68.3885 294.262 68.2573 294.249C68.1304 294.236 68.0161 294.23 67.9146 294.23C67.6479 294.23 67.394 294.274 67.1528 294.363C66.9116 294.448 66.6979 294.579 66.5117 294.757C66.3255 294.93 66.1795 295.148 66.0737 295.411C65.9679 295.673 65.915 295.978 65.915 296.325V300H64.417V292.973H65.585L65.7881 294.211H65.8579C65.9976 293.961 66.1711 293.733 66.3784 293.525C66.5858 293.318 66.8228 293.153 67.0894 293.03C67.3602 292.903 67.6564 292.84 67.978 292.84ZM72.7832 292.84C73.6719 292.84 74.3426 293.037 74.7954 293.43C75.2524 293.824 75.481 294.437 75.481 295.271V300H74.4209L74.1353 299.003H74.0845C73.8856 299.257 73.6803 299.467 73.4688 299.632C73.2572 299.797 73.0117 299.92 72.7324 300C72.4574 300.085 72.1209 300.127 71.7231 300.127C71.3042 300.127 70.9297 300.051 70.5996 299.898C70.2695 299.742 70.0093 299.505 69.8188 299.188C69.6284 298.87 69.5332 298.468 69.5332 297.981C69.5332 297.258 69.8019 296.714 70.3394 296.35C70.881 295.986 71.6978 295.785 72.7896 295.747L74.0083 295.703V295.334C74.0083 294.848 73.894 294.501 73.6655 294.293C73.4412 294.086 73.1239 293.982 72.7134 293.982C72.3621 293.982 72.0215 294.033 71.6914 294.135C71.3613 294.236 71.0397 294.361 70.7266 294.509L70.2441 293.456C70.5869 293.274 70.9762 293.125 71.4121 293.011C71.8522 292.897 72.3092 292.84 72.7832 292.84ZM74.002 296.642L73.0942 296.674C72.3494 296.699 71.8268 296.826 71.5264 297.055C71.2259 297.283 71.0757 297.596 71.0757 297.994C71.0757 298.341 71.1794 298.595 71.3867 298.756C71.5941 298.912 71.867 298.991 72.2056 298.991C72.7218 298.991 73.1493 298.845 73.4878 298.553C73.8306 298.257 74.002 297.823 74.002 297.251V296.642ZM82.292 297.994C82.292 298.455 82.1799 298.845 81.9556 299.162C81.7313 299.479 81.4033 299.721 80.9717 299.886C80.5443 300.047 80.0195 300.127 79.3975 300.127C78.9066 300.127 78.4834 300.091 78.1279 300.019C77.7767 299.951 77.4445 299.846 77.1313 299.702V298.413C77.4657 298.57 77.8402 298.705 78.2549 298.819C78.6738 298.934 79.0695 298.991 79.4419 298.991C79.9328 298.991 80.2861 298.915 80.502 298.762C80.7178 298.606 80.8257 298.398 80.8257 298.14C80.8257 297.988 80.7812 297.852 80.6924 297.734C80.6077 297.611 80.4469 297.486 80.21 297.359C79.9772 297.228 79.6344 297.072 79.1816 296.89C78.7373 296.712 78.3628 296.534 78.0581 296.356C77.7534 296.179 77.5228 295.965 77.3662 295.715C77.2096 295.461 77.1313 295.138 77.1313 294.744C77.1313 294.122 77.3768 293.65 77.8677 293.329C78.3628 293.003 79.0166 292.84 79.8291 292.84C80.2607 292.84 80.667 292.884 81.0479 292.973C81.4329 293.058 81.8096 293.183 82.1777 293.348L81.708 294.471C81.3906 294.332 81.0711 294.217 80.7495 294.128C80.4321 294.035 80.1084 293.989 79.7783 293.989C79.3932 293.989 79.0991 294.048 78.896 294.167C78.6971 294.285 78.5977 294.454 78.5977 294.674C78.5977 294.839 78.6463 294.979 78.7437 295.093C78.841 295.208 79.0081 295.322 79.2451 295.436C79.4863 295.55 79.8206 295.692 80.248 295.861C80.667 296.022 81.0288 296.191 81.3335 296.369C81.6424 296.543 81.8794 296.756 82.0444 297.01C82.2095 297.264 82.292 297.592 82.292 297.994ZM85.396 290.123V292.605C85.396 292.863 85.3875 293.115 85.3706 293.36C85.3579 293.606 85.3431 293.796 85.3262 293.932H85.4087C85.5568 293.686 85.7388 293.485 85.9546 293.329C86.1704 293.168 86.4116 293.047 86.6782 292.967C86.9491 292.886 87.2368 292.846 87.5415 292.846C88.0789 292.846 88.536 292.937 88.9126 293.119C89.2892 293.297 89.577 293.574 89.7759 293.951C89.979 294.327 90.0806 294.816 90.0806 295.417V300H88.5889V295.696C88.5889 295.15 88.4767 294.742 88.2524 294.471C88.0282 294.196 87.6812 294.059 87.2114 294.059C86.7586 294.059 86.3989 294.154 86.1323 294.344C85.87 294.53 85.6816 294.808 85.5674 295.176C85.4531 295.54 85.396 295.984 85.396 296.509V300H83.9043V290.123H85.396Z" fill="#ADADAD"/>
<rect width="251" height="4" transform="translate(0 313)" fill="#282828"/>
<rect width="251" height="16" transform="translate(0 317)" fill="#282828"/>
<rect x="251" width="1" height="530" fill="#474747"/>
</g>
<rect width="662" height="69" transform="translate(252)" fill="#333333"/>
<rect width="61" height="69" transform="translate(272)" fill="#333333"/>
<path d="M276.342 33.8545H277.221C278.082 33.8545 278.718 33.7109 279.128 33.4238C279.538 33.1367 279.743 32.6855 279.743 32.0703C279.743 31.4609 279.532 31.0273 279.11 30.7695C278.694 30.5117 278.047 30.3828 277.168 30.3828H276.342V33.8545ZM276.342 36.0693V41H273.617V28.1504H277.361C279.107 28.1504 280.399 28.4697 281.237 29.1084C282.075 29.7412 282.494 30.7051 282.494 32C282.494 32.7559 282.286 33.4297 281.87 34.0215C281.454 34.6074 280.865 35.0674 280.104 35.4014C282.037 38.29 283.297 40.1562 283.883 41H280.859L277.792 36.0693H276.342ZM287.425 36.0693C287.425 37.042 287.583 37.7773 287.899 38.2754C288.222 38.7734 288.743 39.0225 289.464 39.0225C290.179 39.0225 290.691 38.7764 291.002 38.2842C291.318 37.7861 291.477 37.0479 291.477 36.0693C291.477 35.0967 291.318 34.3672 291.002 33.8809C290.686 33.3945 290.167 33.1514 289.446 33.1514C288.731 33.1514 288.216 33.3945 287.899 33.8809C287.583 34.3613 287.425 35.0908 287.425 36.0693ZM294.219 36.0693C294.219 37.6689 293.797 38.9199 292.953 39.8223C292.109 40.7246 290.935 41.1758 289.429 41.1758C288.485 41.1758 287.653 40.9707 286.933 40.5605C286.212 40.1445 285.658 39.5498 285.271 38.7764C284.885 38.0029 284.691 37.1006 284.691 36.0693C284.691 34.4639 285.11 33.2158 285.948 32.3252C286.786 31.4346 287.964 30.9893 289.481 30.9893C290.425 30.9893 291.257 31.1943 291.978 31.6045C292.698 32.0146 293.252 32.6035 293.639 33.3711C294.025 34.1387 294.219 35.0381 294.219 36.0693ZM298.569 36.0693C298.569 37.042 298.728 37.7773 299.044 38.2754C299.366 38.7734 299.888 39.0225 300.608 39.0225C301.323 39.0225 301.836 38.7764 302.146 38.2842C302.463 37.7861 302.621 37.0479 302.621 36.0693C302.621 35.0967 302.463 34.3672 302.146 33.8809C301.83 33.3945 301.312 33.1514 300.591 33.1514C299.876 33.1514 299.36 33.3945 299.044 33.8809C298.728 34.3613 298.569 35.0908 298.569 36.0693ZM305.363 36.0693C305.363 37.6689 304.941 38.9199 304.098 39.8223C303.254 40.7246 302.079 41.1758 300.573 41.1758C299.63 41.1758 298.798 40.9707 298.077 40.5605C297.356 40.1445 296.803 39.5498 296.416 38.7764C296.029 38.0029 295.836 37.1006 295.836 36.0693C295.836 34.4639 296.255 33.2158 297.093 32.3252C297.931 31.4346 299.108 30.9893 300.626 30.9893C301.569 30.9893 302.401 31.1943 303.122 31.6045C303.843 32.0146 304.396 32.6035 304.783 33.3711C305.17 34.1387 305.363 35.0381 305.363 36.0693ZM316.376 41H313.695V35.2607C313.695 34.5518 313.575 34.0215 313.335 33.6699C313.101 33.3125 312.729 33.1338 312.219 33.1338C311.533 33.1338 311.035 33.3857 310.725 33.8896C310.414 34.3936 310.259 35.2227 310.259 36.377V41H307.578V31.1738H309.626L309.986 32.4307H310.136C310.399 31.9795 310.78 31.6279 311.278 31.376C311.776 31.1182 312.348 30.9893 312.992 30.9893C314.463 30.9893 315.459 31.4697 315.98 32.4307H316.218C316.481 31.9736 316.868 31.6191 317.378 31.3672C317.894 31.1152 318.474 30.9893 319.118 30.9893C320.231 30.9893 321.072 31.2764 321.641 31.8506C322.215 32.4189 322.502 33.333 322.502 34.5928V41H319.812V35.2607C319.812 34.5518 319.692 34.0215 319.452 33.6699C319.218 33.3125 318.846 33.1338 318.336 33.1338C317.68 33.1338 317.188 33.3682 316.859 33.8369C316.537 34.3057 316.376 35.0498 316.376 36.0693V41ZM332.117 38.082C332.117 39.0898 331.766 39.8574 331.062 40.3848C330.365 40.9121 329.319 41.1758 327.925 41.1758C327.21 41.1758 326.601 41.126 326.097 41.0264C325.593 40.9326 325.121 40.792 324.682 40.6045V38.3896C325.18 38.624 325.739 38.8203 326.36 38.9785C326.987 39.1367 327.538 39.2158 328.013 39.2158C328.985 39.2158 329.472 38.9346 329.472 38.3721C329.472 38.1611 329.407 37.9912 329.278 37.8623C329.149 37.7275 328.927 37.5781 328.61 37.4141C328.294 37.2441 327.872 37.0479 327.345 36.8252C326.589 36.5088 326.032 36.2158 325.675 35.9463C325.323 35.6768 325.065 35.3691 324.901 35.0234C324.743 34.6719 324.664 34.2412 324.664 33.7314C324.664 32.8584 325.001 32.1846 325.675 31.71C326.354 31.2295 327.315 30.9893 328.558 30.9893C329.741 30.9893 330.893 31.2471 332.012 31.7627L331.203 33.6963C330.711 33.4854 330.251 33.3125 329.823 33.1777C329.396 33.043 328.959 32.9756 328.514 32.9756C327.723 32.9756 327.327 33.1895 327.327 33.6172C327.327 33.8574 327.453 34.0654 327.705 34.2412C327.963 34.417 328.522 34.6777 329.384 35.0234C330.151 35.334 330.714 35.624 331.071 35.8936C331.429 36.1631 331.692 36.4736 331.862 36.8252C332.032 37.1768 332.117 37.5957 332.117 38.082Z" fill="white"/>
<rect width="509" height="69" transform="translate(333)" fill="#333333"/>
<path fill-rule="evenodd" clip-rule="evenodd" d="M357.5 27C356.672 27 356 27.6716 356 28.5V33H351.5C350.672 33 350 33.6716 350 34.5C350 35.3284 350.672 36 351.5 36H356V40.5C356 41.3284 356.672 42 357.5 42C358.328 42 359 41.3284 359 40.5V36H363.5C364.328 36 365 35.3284 365 34.5C365 33.6716 364.328 33 363.5 33H359V28.5C359 27.6716 358.328 27 357.5 27Z" fill="#858585"/>
<path fill-rule="evenodd" clip-rule="evenodd" d="M392.5 28.5C392.5 29.6046 391.605 30.5 390.5 30.5C389.395 30.5 388.5 29.6046 388.5 28.5C388.5 27.3954 389.395 26.5 390.5 26.5C391.605 26.5 392.5 27.3954 392.5 28.5ZM390.5 36.5C391.605 36.5 392.5 35.6046 392.5 34.5C392.5 33.3954 391.605 32.5 390.5 32.5C389.395 32.5 388.5 33.3954 388.5 34.5C388.5 35.6046 389.395 36.5 390.5 36.5ZM390.5 42.5C391.605 42.5 392.5 41.6046 392.5 40.5C392.5 39.3954 391.605 38.5 390.5 38.5C389.395 38.5 388.5 39.3954 388.5 40.5C388.5 41.6046 389.395 42.5 390.5 42.5Z" fill="#858585"/>
<rect width="662" height="32" transform="translate(252 69)" fill="#333333"/>
<g clip-path="url(#clip3_188_21296)">
<rect x="272" y="69" width="502" height="32" rx="3" fill="#282828"/>
<path d="M286.576 87.4736C286.576 88.0238 286.441 88.4977 286.17 88.8955C285.903 89.2933 285.518 89.598 285.015 89.8096C284.515 90.0212 283.919 90.127 283.225 90.127C282.886 90.127 282.562 90.1079 282.253 90.0698C281.944 90.0317 281.653 89.9767 281.377 89.9048C281.107 89.8286 280.859 89.7376 280.635 89.6318V88.1973C281.011 88.3623 281.432 88.5125 281.898 88.6479C282.363 88.7791 282.837 88.8447 283.32 88.8447C283.713 88.8447 284.039 88.7939 284.297 88.6924C284.56 88.5866 284.754 88.4385 284.881 88.248C285.008 88.0534 285.072 87.827 285.072 87.5688C285.072 87.2938 284.998 87.061 284.85 86.8706C284.701 86.6802 284.477 86.5067 284.177 86.3501C283.881 86.1893 283.508 86.0179 283.06 85.8359C282.755 85.7132 282.463 85.5736 282.184 85.417C281.909 85.2604 281.663 85.0763 281.447 84.8647C281.231 84.6532 281.06 84.4035 280.933 84.1157C280.81 83.8237 280.749 83.481 280.749 83.0874C280.749 82.5627 280.874 82.1141 281.124 81.7417C281.377 81.3693 281.733 81.0837 282.19 80.8848C282.651 80.6859 283.189 80.5864 283.802 80.5864C284.289 80.5864 284.746 80.6372 285.173 80.7388C285.605 80.8403 286.028 80.9842 286.443 81.1704L285.96 82.3955C285.58 82.2389 285.209 82.1141 284.85 82.021C284.494 81.9279 284.13 81.8813 283.758 81.8813C283.436 81.8813 283.163 81.93 282.939 82.0273C282.715 82.1247 282.543 82.2622 282.425 82.4399C282.311 82.6134 282.253 82.8208 282.253 83.062C282.253 83.3328 282.319 83.5614 282.45 83.7476C282.586 83.9295 282.793 84.0967 283.072 84.249C283.356 84.4014 283.72 84.5706 284.164 84.7568C284.676 84.9684 285.11 85.1906 285.465 85.4233C285.825 85.6561 286.1 85.9354 286.291 86.2612C286.481 86.5828 286.576 86.987 286.576 87.4736ZM291.013 82.8398C291.639 82.8398 292.177 82.9689 292.625 83.2271C293.074 83.4852 293.419 83.8512 293.66 84.3252C293.901 84.7992 294.022 85.3662 294.022 86.0264V86.8262H289.331C289.348 87.5075 289.53 88.0322 289.877 88.4004C290.228 88.7686 290.719 88.9526 291.35 88.9526C291.798 88.9526 292.2 88.9103 292.556 88.8257C292.915 88.7368 293.286 88.6077 293.667 88.4385V89.6509C293.315 89.8159 292.958 89.9365 292.594 90.0127C292.23 90.0889 291.794 90.127 291.286 90.127C290.596 90.127 289.989 89.9937 289.464 89.7271C288.944 89.4562 288.535 89.0542 288.239 88.521C287.947 87.9878 287.801 87.3255 287.801 86.5342C287.801 85.7471 287.935 85.0785 288.201 84.5283C288.468 83.9782 288.842 83.5592 289.325 83.2715C289.807 82.9837 290.37 82.8398 291.013 82.8398ZM291.013 83.9634C290.543 83.9634 290.163 84.1157 289.871 84.4204C289.583 84.7251 289.414 85.1715 289.363 85.7598H292.562C292.558 85.4085 292.499 85.0975 292.384 84.8267C292.274 84.5558 292.105 84.3442 291.876 84.1919C291.652 84.0396 291.364 83.9634 291.013 83.9634ZM298.459 82.8398C299.348 82.8398 300.018 83.0366 300.471 83.4302C300.928 83.8237 301.157 84.4373 301.157 85.271V90H300.097L299.811 89.0034H299.76C299.561 89.2573 299.356 89.4668 299.145 89.6318C298.933 89.7969 298.688 89.9196 298.408 90C298.133 90.0846 297.797 90.127 297.399 90.127C296.98 90.127 296.605 90.0508 296.275 89.8984C295.945 89.7419 295.685 89.5049 295.495 89.1875C295.304 88.8701 295.209 88.4681 295.209 87.9814C295.209 87.2578 295.478 86.714 296.015 86.3501C296.557 85.9862 297.374 85.7852 298.465 85.7471L299.684 85.7026V85.3345C299.684 84.8478 299.57 84.5008 299.341 84.2935C299.117 84.0861 298.8 83.9824 298.389 83.9824C298.038 83.9824 297.697 84.0332 297.367 84.1348C297.037 84.2363 296.715 84.3612 296.402 84.5093L295.92 83.4556C296.263 83.2736 296.652 83.1255 297.088 83.0112C297.528 82.897 297.985 82.8398 298.459 82.8398ZM299.678 86.6421L298.77 86.6738C298.025 86.6992 297.503 86.8262 297.202 87.0547C296.902 87.2832 296.751 87.5964 296.751 87.9941C296.751 88.3411 296.855 88.5951 297.062 88.7559C297.27 88.9124 297.543 88.9907 297.881 88.9907C298.398 88.9907 298.825 88.8447 299.164 88.5527C299.506 88.2565 299.678 87.8228 299.678 87.2515V86.6421ZM306.806 82.8398C306.925 82.8398 307.054 82.8462 307.193 82.8589C307.333 82.8716 307.454 82.8885 307.555 82.9097L307.416 84.3062C307.327 84.2808 307.217 84.2617 307.085 84.249C306.958 84.2363 306.844 84.23 306.743 84.23C306.476 84.23 306.222 84.2744 305.981 84.3633C305.74 84.4479 305.526 84.5791 305.34 84.7568C305.154 84.9303 305.008 85.1483 304.902 85.4106C304.796 85.673 304.743 85.9777 304.743 86.3247V90H303.245V82.9731H304.413L304.616 84.2109H304.686C304.826 83.9613 304.999 83.7327 305.207 83.5254C305.414 83.318 305.651 83.153 305.917 83.0303C306.188 82.9033 306.485 82.8398 306.806 82.8398ZM311.688 90.127C311.023 90.127 310.448 89.9979 309.961 89.7397C309.474 89.4816 309.1 89.0859 308.837 88.5527C308.575 88.0195 308.444 87.3424 308.444 86.5215C308.444 85.6667 308.588 84.9684 308.875 84.4268C309.163 83.8851 309.561 83.4852 310.069 83.2271C310.581 82.9689 311.167 82.8398 311.827 82.8398C312.246 82.8398 312.625 82.8822 312.963 82.9668C313.306 83.0472 313.596 83.1466 313.833 83.2651L313.389 84.4585C313.131 84.3527 312.866 84.2638 312.595 84.1919C312.324 84.12 312.064 84.084 311.814 84.084C311.404 84.084 311.061 84.175 310.786 84.3569C310.515 84.5389 310.312 84.8097 310.177 85.1694C310.046 85.5291 309.98 85.9756 309.98 86.5088C309.98 87.0251 310.048 87.4609 310.183 87.8164C310.319 88.1676 310.52 88.4342 310.786 88.6162C311.053 88.7939 311.381 88.8828 311.77 88.8828C312.155 88.8828 312.5 88.8363 312.805 88.7432C313.109 88.6501 313.397 88.5295 313.668 88.3813V89.6763C313.401 89.8286 313.116 89.9408 312.811 90.0127C312.506 90.0889 312.132 90.127 311.688 90.127ZM316.81 80.123V82.605C316.81 82.8631 316.802 83.1149 316.785 83.3604C316.772 83.6058 316.757 83.7962 316.74 83.9316H316.823C316.971 83.6862 317.153 83.4852 317.369 83.3286C317.584 83.1678 317.826 83.0472 318.092 82.9668C318.363 82.8864 318.651 82.8462 318.956 82.8462C319.493 82.8462 319.95 82.9372 320.327 83.1191C320.703 83.2969 320.991 83.5741 321.19 83.9507C321.393 84.3273 321.495 84.8161 321.495 85.417V90H320.003V85.6963C320.003 85.1504 319.891 84.742 319.667 84.4712C319.442 84.1961 319.095 84.0586 318.625 84.0586C318.173 84.0586 317.813 84.1538 317.546 84.3442C317.284 84.5304 317.096 84.8076 316.981 85.1758C316.867 85.5397 316.81 85.984 316.81 86.5088V90H315.318V80.123H316.81Z" fill="#5C5C5C"/>
</g>
<rect x="272.5" y="69.5" width="501" height="31" rx="2.5" stroke="#474747"/>
<g clip-path="url(#clip4_188_21296)">
<rect x="272" y="125" width="303" height="121" rx="12" fill="#282828"/>
<rect x="288" y="141" width="32" height="32" rx="6" fill="#FF6680" fill-opacity="0.09"/>
<path d="M302.373 156.907C302.373 158.552 301.904 159.812 300.965 160.688C300.031 161.562 298.679 162 296.911 162H294.081V152.006H297.219C298.85 152.006 300.117 152.437 301.02 153.298C301.922 154.159 302.373 155.362 302.373 156.907ZM300.172 156.962C300.172 154.815 299.224 153.742 297.328 153.742H296.2V160.25H297.109C299.151 160.25 300.172 159.154 300.172 156.962ZM310.562 162L309.975 159.327L309.182 155.95H309.134L307.739 162H305.497L303.323 154.357H305.401L306.283 157.741C306.424 158.347 306.568 159.184 306.714 160.25H306.755C306.773 159.904 306.853 159.354 306.994 158.603L307.104 158.021L308.047 154.357H310.344L311.239 158.021C311.257 158.122 311.285 158.27 311.321 158.466C311.362 158.662 311.401 158.871 311.438 159.095C311.474 159.313 311.506 159.53 311.533 159.744C311.565 159.954 311.583 160.122 311.588 160.25H311.629C311.67 159.922 311.743 159.473 311.848 158.903C311.952 158.329 312.028 157.942 312.073 157.741L312.989 154.357H315.033L312.832 162H310.562Z" fill="#FF6680"/>
<path d="M342.773 157.18C342.773 158.466 342.534 159.542 342.055 160.406C341.576 161.266 340.88 161.914 339.969 162.352C339.057 162.784 337.958 163 336.672 163H333.5V151.578H337.016C338.198 151.578 339.219 151.792 340.078 152.219C340.938 152.641 341.602 153.268 342.07 154.102C342.539 154.93 342.773 155.956 342.773 157.18ZM340.82 157.234C340.82 156.297 340.672 155.526 340.375 154.922C340.083 154.318 339.651 153.87 339.078 153.578C338.51 153.281 337.81 153.133 336.977 153.133H335.375V161.43H336.703C338.083 161.43 339.115 161.078 339.797 160.375C340.479 159.672 340.82 158.625 340.82 157.234ZM348.438 154.188C349.531 154.188 350.357 154.43 350.914 154.914C351.477 155.398 351.758 156.154 351.758 157.18V163H350.453L350.102 161.773H350.039C349.794 162.086 349.542 162.344 349.281 162.547C349.021 162.75 348.719 162.901 348.375 163C348.036 163.104 347.622 163.156 347.133 163.156C346.617 163.156 346.156 163.062 345.75 162.875C345.344 162.682 345.023 162.391 344.789 162C344.555 161.609 344.438 161.115 344.438 160.516C344.438 159.625 344.768 158.956 345.43 158.508C346.096 158.06 347.102 157.812 348.445 157.766L349.945 157.711V157.258C349.945 156.659 349.805 156.232 349.523 155.977C349.247 155.721 348.857 155.594 348.352 155.594C347.919 155.594 347.5 155.656 347.094 155.781C346.688 155.906 346.292 156.06 345.906 156.242L345.312 154.945C345.734 154.721 346.214 154.539 346.75 154.398C347.292 154.258 347.854 154.188 348.438 154.188ZM349.938 158.867L348.82 158.906C347.904 158.938 347.26 159.094 346.891 159.375C346.521 159.656 346.336 160.042 346.336 160.531C346.336 160.958 346.464 161.271 346.719 161.469C346.974 161.661 347.31 161.758 347.727 161.758C348.362 161.758 348.888 161.578 349.305 161.219C349.727 160.854 349.938 160.32 349.938 159.617V158.867ZM357.547 161.672C357.786 161.672 358.023 161.651 358.258 161.609C358.492 161.562 358.706 161.508 358.898 161.445V162.836C358.695 162.924 358.432 163 358.109 163.062C357.786 163.125 357.451 163.156 357.102 163.156C356.612 163.156 356.172 163.076 355.781 162.914C355.391 162.747 355.081 162.464 354.852 162.062C354.622 161.661 354.508 161.107 354.508 160.398V155.75H353.328V154.93L354.594 154.281L355.195 152.43H356.352V154.352H358.828V155.75H356.352V160.375C356.352 160.812 356.461 161.138 356.68 161.352C356.898 161.565 357.188 161.672 357.547 161.672ZM364.047 154.188C365.141 154.188 365.966 154.43 366.523 154.914C367.086 155.398 367.367 156.154 367.367 157.18V163H366.062L365.711 161.773H365.648C365.404 162.086 365.151 162.344 364.891 162.547C364.63 162.75 364.328 162.901 363.984 163C363.646 163.104 363.232 163.156 362.742 163.156C362.227 163.156 361.766 163.062 361.359 162.875C360.953 162.682 360.633 162.391 360.398 162C360.164 161.609 360.047 161.115 360.047 160.516C360.047 159.625 360.378 158.956 361.039 158.508C361.706 158.06 362.711 157.812 364.055 157.766L365.555 157.711V157.258C365.555 156.659 365.414 156.232 365.133 155.977C364.857 155.721 364.466 155.594 363.961 155.594C363.529 155.594 363.109 155.656 362.703 155.781C362.297 155.906 361.901 156.06 361.516 156.242L360.922 154.945C361.344 154.721 361.823 154.539 362.359 154.398C362.901 154.258 363.464 154.188 364.047 154.188ZM365.547 158.867L364.43 158.906C363.513 158.938 362.87 159.094 362.5 159.375C362.13 159.656 361.945 160.042 361.945 160.531C361.945 160.958 362.073 161.271 362.328 161.469C362.583 161.661 362.919 161.758 363.336 161.758C363.971 161.758 364.497 161.578 364.914 161.219C365.336 160.854 365.547 160.32 365.547 159.617V158.867ZM381.164 162.992L380.07 158.969C380.018 158.771 379.956 158.531 379.883 158.25C379.81 157.969 379.737 157.68 379.664 157.383C379.591 157.081 379.523 156.802 379.461 156.547C379.404 156.292 379.359 156.094 379.328 155.953H379.266C379.24 156.094 379.198 156.292 379.141 156.547C379.083 156.802 379.018 157.081 378.945 157.383C378.872 157.685 378.799 157.979 378.727 158.266C378.659 158.552 378.596 158.797 378.539 159L377.391 162.992H375.375L372.953 154.344H374.812L375.938 158.641C376.01 158.932 376.081 159.247 376.148 159.586C376.221 159.924 376.284 160.247 376.336 160.555C376.388 160.862 376.427 161.115 376.453 161.312H376.516C376.536 161.172 376.565 160.995 376.602 160.781C376.638 160.562 376.68 160.336 376.727 160.102C376.773 159.862 376.82 159.638 376.867 159.43C376.914 159.216 376.958 159.044 377 158.914L378.328 154.344H380.336L381.609 158.914C381.667 159.112 381.729 159.362 381.797 159.664C381.865 159.961 381.924 160.26 381.977 160.562C382.034 160.859 382.07 161.107 382.086 161.305H382.148C382.169 161.128 382.206 160.888 382.258 160.586C382.315 160.279 382.38 159.953 382.453 159.609C382.526 159.26 382.602 158.938 382.68 158.641L383.828 154.344H385.656L383.219 162.992H381.164ZM394.797 158.656C394.797 159.375 394.703 160.013 394.516 160.57C394.328 161.128 394.055 161.599 393.695 161.984C393.336 162.365 392.904 162.656 392.398 162.859C391.893 163.057 391.323 163.156 390.688 163.156C390.094 163.156 389.549 163.057 389.055 162.859C388.56 162.656 388.13 162.365 387.766 161.984C387.406 161.599 387.128 161.128 386.93 160.57C386.732 160.013 386.633 159.375 386.633 158.656C386.633 157.703 386.797 156.896 387.125 156.234C387.458 155.568 387.932 155.06 388.547 154.711C389.161 154.362 389.893 154.188 390.742 154.188C391.539 154.188 392.242 154.362 392.852 154.711C393.461 155.06 393.938 155.568 394.281 156.234C394.625 156.901 394.797 157.708 394.797 158.656ZM388.523 158.656C388.523 159.286 388.599 159.826 388.75 160.273C388.906 160.721 389.146 161.065 389.469 161.305C389.792 161.539 390.208 161.656 390.719 161.656C391.229 161.656 391.646 161.539 391.969 161.305C392.292 161.065 392.529 160.721 392.68 160.273C392.831 159.826 392.906 159.286 392.906 158.656C392.906 158.026 392.831 157.492 392.68 157.055C392.529 156.612 392.292 156.276 391.969 156.047C391.646 155.812 391.227 155.695 390.711 155.695C389.951 155.695 389.396 155.951 389.047 156.461C388.698 156.971 388.523 157.703 388.523 158.656ZM401.289 154.188C401.435 154.188 401.594 154.195 401.766 154.211C401.938 154.227 402.086 154.247 402.211 154.273L402.039 155.992C401.93 155.961 401.794 155.938 401.633 155.922C401.477 155.906 401.336 155.898 401.211 155.898C400.883 155.898 400.57 155.953 400.273 156.062C399.977 156.167 399.714 156.328 399.484 156.547C399.255 156.76 399.076 157.029 398.945 157.352C398.815 157.674 398.75 158.049 398.75 158.477V163H396.906V154.352H398.344L398.594 155.875H398.68C398.852 155.568 399.065 155.286 399.32 155.031C399.576 154.776 399.867 154.573 400.195 154.422C400.529 154.266 400.893 154.188 401.289 154.188ZM405.648 150.844V156.719C405.648 156.984 405.638 157.276 405.617 157.594C405.596 157.906 405.576 158.201 405.555 158.477H405.594C405.729 158.294 405.891 158.081 406.078 157.836C406.271 157.591 406.453 157.378 406.625 157.195L409.266 154.352H411.375L407.914 158.07L411.602 163H409.445L406.68 159.203L405.648 160.086V163H403.812V150.844H405.648Z" fill="white"/>
<rect x="487" y="149" width="16" height="16" rx="8" fill="#4781D1"/>
<path d="M492.746 157.271C492.746 156 493.014 155.053 493.55 154.432C494.089 153.811 494.895 153.5 495.967 153.5C496.333 153.5 496.62 153.522 496.828 153.566V154.652C496.567 154.593 496.31 154.564 496.055 154.564C495.589 154.564 495.208 154.634 494.912 154.775C494.619 154.916 494.399 155.124 494.253 155.399C494.106 155.674 494.02 156.065 493.994 156.572H494.051C494.341 156.074 494.805 155.825 495.444 155.825C496.018 155.825 496.468 156.005 496.793 156.366C497.118 156.726 497.281 157.224 497.281 157.86C497.281 158.545 497.087 159.089 496.701 159.49C496.314 159.889 495.778 160.088 495.092 160.088C494.618 160.088 494.203 159.978 493.849 159.758C493.497 159.539 493.225 159.218 493.031 158.796C492.841 158.374 492.746 157.866 492.746 157.271ZM495.066 159.002C495.356 159.002 495.579 158.906 495.734 158.712C495.889 158.516 495.967 158.238 495.967 157.877C495.967 157.564 495.894 157.318 495.747 157.139C495.604 156.958 495.385 156.867 495.092 156.867C494.817 156.867 494.581 156.956 494.385 157.135C494.191 157.313 494.095 157.521 494.095 157.759C494.095 158.107 494.186 158.402 494.367 158.642C494.552 158.882 494.785 159.002 495.066 159.002Z" fill="white"/>
<g clip-path="url(#clip5_188_21296)">
<path fill-rule="evenodd" clip-rule="evenodd" d="M526.576 149L519.418 149C519.159 149 518.949 149.21 518.949 149.468L518.949 149.499C518.949 149.937 519.12 150.35 519.431 150.661C519.63 150.861 519.873 151.002 520.138 151.077L519.607 156.276C519.064 156.306 518.558 156.532 518.17 156.919C517.753 157.337 517.523 157.892 517.523 158.483L517.523 158.527C517.523 158.786 517.732 158.996 517.991 158.996L521.998 158.996L521.997 162.51C521.999 162.595 522.168 164.026 522.19 164.219C522.211 164.412 522.361 164.549 522.362 164.563C522.378 164.808 522.753 164.999 523 165C523.129 165 523.415 164.948 523.5 164.863C523.578 164.785 523.628 164.68 523.636 164.563C523.637 164.552 523.793 164.37 523.809 164.219C523.826 164.068 524 162.595 524.001 162.504V158.996L528.003 158.996C528.132 158.996 528.25 158.943 528.334 158.859C528.419 158.774 528.471 158.657 528.471 158.528V158.483C528.471 157.892 528.241 157.337 527.824 156.92C527.436 156.532 526.93 156.306 526.387 156.276L525.856 151.078C526.121 151.002 526.364 150.861 526.564 150.661C526.874 150.35 527.045 149.938 527.045 149.499L527.045 149.468C527.045 149.21 526.835 149 526.576 149Z" fill="#333333"/>
<path fill-rule="evenodd" clip-rule="evenodd" d="M526.576 149L519.418 149C519.159 149 518.949 149.21 518.949 149.468L518.949 149.499C518.949 149.937 519.12 150.35 519.431 150.661C519.63 150.861 519.873 151.002 520.138 151.077L519.607 156.276C519.064 156.306 518.558 156.532 518.17 156.919C517.753 157.337 517.523 157.892 517.523 158.483L517.523 158.527C517.523 158.786 517.732 158.996 517.991 158.996L521.998 158.996L521.997 162.51C521.999 162.595 522.168 164.026 522.19 164.219C522.211 164.412 522.361 164.549 522.362 164.563C522.378 164.808 522.753 164.999 523 165C523.129 165 523.415 164.948 523.5 164.863C523.578 164.785 523.628 164.68 523.636 164.563C523.637 164.552 523.793 164.37 523.809 164.219C523.826 164.068 524 162.595 524.001 162.504V158.996L528.003 158.996C528.132 158.996 528.25 158.943 528.334 158.859C528.419 158.774 528.471 158.657 528.471 158.528V158.483C528.471 157.892 528.241 157.337 527.824 156.92C527.436 156.532 526.93 156.306 526.387 156.276L525.856 151.078C526.121 151.002 526.364 150.861 526.564 150.661C526.874 150.35 527.045 149.938 527.045 149.499L527.045 149.468C527.045 149.21 526.835 149 526.576 149Z" fill="white" fill-opacity="0.88"/>
</g>
<path fill-rule="evenodd" clip-rule="evenodd" d="M549 151C549 149.895 549.895 149 551 149C552.105 149 553 149.895 553 151C553 152.105 552.105 153 551 153C549.895 153 549 152.105 549 151ZM549 157C549 155.895 549.895 155 551 155C552.105 155 553 155.895 553 157C553 158.105 552.105 159 551 159C549.895 159 549 158.105 549 157ZM551 161C549.895 161 549 161.895 549 163C549 164.105 549.895 165 551 165C552.105 165 553 164.105 553 163C553 161.895 552.105 161 551 161Z" fill="#858585"/>
<rect x="272" y="189" width="303" height="1" fill="#474747"/>
<g filter="url(#filter0_b_188_21296)">
<rect x="288" y="206" width="53" height="24" rx="6" fill="#474747"/>
<path d="M308.684 218.271C308.684 219.803 308.267 220.975 307.433 221.788C306.604 222.596 305.408 223 303.847 223H301.276V213.72H304.12C305.563 213.72 306.684 214.12 307.484 214.919C308.284 215.719 308.684 216.836 308.684 218.271ZM307.541 218.309C307.541 217.099 307.236 216.187 306.627 215.573C306.022 214.96 305.12 214.653 303.923 214.653H302.355V222.067H303.669C304.955 222.067 305.922 221.752 306.57 221.121C307.217 220.486 307.541 219.549 307.541 218.309ZM314.879 223L314.669 222.01H314.619C314.272 222.446 313.925 222.742 313.578 222.898C313.235 223.051 312.805 223.127 312.289 223.127C311.599 223.127 311.058 222.949 310.664 222.594C310.275 222.238 310.08 221.733 310.08 221.077C310.08 219.672 311.204 218.935 313.451 218.868L314.631 218.83V218.398C314.631 217.852 314.513 217.45 314.276 217.192C314.043 216.93 313.669 216.798 313.152 216.798C312.573 216.798 311.917 216.976 311.185 217.332L310.861 216.525C311.204 216.339 311.578 216.193 311.984 216.087C312.395 215.982 312.805 215.929 313.216 215.929C314.045 215.929 314.659 216.113 315.057 216.481C315.459 216.849 315.66 217.439 315.66 218.252V223H314.879ZM312.499 222.257C313.154 222.257 313.669 222.077 314.041 221.718C314.418 221.358 314.606 220.854 314.606 220.207V219.579L313.552 219.623C312.714 219.653 312.109 219.784 311.737 220.017C311.369 220.245 311.185 220.603 311.185 221.089C311.185 221.47 311.299 221.76 311.527 221.959C311.76 222.158 312.084 222.257 312.499 222.257ZM320.084 222.257C320.27 222.257 320.45 222.245 320.624 222.219C320.797 222.19 320.935 222.16 321.036 222.13V222.937C320.922 222.992 320.753 223.036 320.528 223.07C320.308 223.108 320.109 223.127 319.932 223.127C318.586 223.127 317.913 222.418 317.913 221V216.862H316.917V216.354L317.913 215.916L318.357 214.431H318.967V216.043H320.985V216.862H318.967V220.956C318.967 221.375 319.066 221.697 319.265 221.921C319.464 222.145 319.737 222.257 320.084 222.257ZM326.711 223L326.501 222.01H326.451C326.104 222.446 325.757 222.742 325.41 222.898C325.067 223.051 324.637 223.127 324.121 223.127C323.431 223.127 322.89 222.949 322.496 222.594C322.107 222.238 321.912 221.733 321.912 221.077C321.912 219.672 323.036 218.935 325.283 218.868L326.463 218.83V218.398C326.463 217.852 326.345 217.45 326.108 217.192C325.875 216.93 325.501 216.798 324.984 216.798C324.405 216.798 323.749 216.976 323.017 217.332L322.693 216.525C323.036 216.339 323.41 216.193 323.816 216.087C324.227 215.982 324.637 215.929 325.048 215.929C325.877 215.929 326.491 216.113 326.889 216.481C327.291 216.849 327.492 217.439 327.492 218.252V223H326.711ZM324.331 222.257C324.986 222.257 325.501 222.077 325.873 221.718C326.25 221.358 326.438 220.854 326.438 220.207V219.579L325.384 219.623C324.546 219.653 323.941 219.784 323.569 220.017C323.201 220.245 323.017 220.603 323.017 221.089C323.017 221.47 323.131 221.76 323.359 221.959C323.592 222.158 323.916 222.257 324.331 222.257Z" fill="white"/>
</g>
<g filter="url(#filter1_b_188_21296)">
<rect x="345" y="206" width="58" height="24" rx="6" fill="#474747"/>
<path d="M361.132 223H360.053V214.678H357.114V213.72H364.071V214.678H361.132V223ZM368.254 223.127C367.226 223.127 366.414 222.814 365.817 222.188C365.224 221.561 364.928 220.692 364.928 219.579C364.928 218.457 365.203 217.566 365.753 216.906C366.308 216.246 367.05 215.916 367.981 215.916C368.853 215.916 369.543 216.204 370.051 216.779C370.559 217.351 370.812 218.106 370.812 219.045V219.712H366.02C366.041 220.529 366.246 221.149 366.636 221.572C367.029 221.995 367.582 222.207 368.292 222.207C369.042 222.207 369.782 222.05 370.514 221.737V222.676C370.142 222.837 369.788 222.951 369.454 223.019C369.124 223.091 368.724 223.127 368.254 223.127ZM367.969 216.798C367.41 216.798 366.964 216.98 366.629 217.344C366.299 217.708 366.105 218.212 366.045 218.855H369.683C369.683 218.191 369.535 217.683 369.238 217.332C368.942 216.976 368.519 216.798 367.969 216.798ZM376.894 223L376.684 222.01H376.633C376.286 222.446 375.939 222.742 375.592 222.898C375.25 223.051 374.82 223.127 374.304 223.127C373.614 223.127 373.072 222.949 372.679 222.594C372.289 222.238 372.095 221.733 372.095 221.077C372.095 219.672 373.218 218.935 375.465 218.868L376.646 218.83V218.398C376.646 217.852 376.528 217.45 376.291 217.192C376.058 216.93 375.683 216.798 375.167 216.798C374.587 216.798 373.931 216.976 373.199 217.332L372.875 216.525C373.218 216.339 373.593 216.193 373.999 216.087C374.41 215.982 374.82 215.929 375.23 215.929C376.06 215.929 376.674 216.113 377.071 216.481C377.473 216.849 377.674 217.439 377.674 218.252V223H376.894ZM374.513 222.257C375.169 222.257 375.683 222.077 376.056 221.718C376.432 221.358 376.621 220.854 376.621 220.207V219.579L375.567 219.623C374.729 219.653 374.124 219.784 373.751 220.017C373.383 220.245 373.199 220.603 373.199 221.089C373.199 221.47 373.313 221.76 373.542 221.959C373.775 222.158 374.098 222.257 374.513 222.257ZM388.719 223V218.474C388.719 217.92 388.601 217.505 388.364 217.23C388.127 216.951 387.759 216.811 387.259 216.811C386.603 216.811 386.119 216.999 385.806 217.376C385.493 217.753 385.336 218.332 385.336 219.115V223H384.282V218.474C384.282 217.92 384.164 217.505 383.927 217.23C383.69 216.951 383.319 216.811 382.816 216.811C382.156 216.811 381.671 217.01 381.362 217.408C381.058 217.801 380.905 218.449 380.905 219.35V223H379.852V216.043H380.708L380.88 216.995H380.931C381.13 216.657 381.409 216.392 381.769 216.202C382.132 216.011 382.539 215.916 382.987 215.916C384.075 215.916 384.786 216.31 385.12 217.097H385.171C385.378 216.733 385.679 216.445 386.072 216.233C386.466 216.022 386.914 215.916 387.418 215.916C388.205 215.916 388.793 216.119 389.183 216.525C389.576 216.927 389.773 217.573 389.773 218.461V223H388.719Z" fill="white"/>
</g>
</g>
<rect x="272.5" y="125.5" width="302" height="120" rx="11.5" stroke="#474747"/>
<g clip-path="url(#clip6_188_21296)">
<rect x="272" y="262" width="303" height="121" rx="12" fill="#282828"/>
<rect x="288" y="278" width="32" height="32" rx="6" fill="#1FCECB" fill-opacity="0.09"/>
<path d="M302.756 293.442H303.439C304.109 293.442 304.604 293.331 304.923 293.107C305.242 292.884 305.401 292.533 305.401 292.055C305.401 291.581 305.237 291.243 304.909 291.043C304.586 290.842 304.082 290.742 303.398 290.742H302.756V293.442ZM302.756 295.165V299H300.637V289.006H303.549C304.907 289.006 305.912 289.254 306.563 289.751C307.215 290.243 307.541 290.993 307.541 292C307.541 292.588 307.379 293.112 307.056 293.572C306.732 294.028 306.274 294.386 305.682 294.646C307.186 296.892 308.165 298.344 308.621 299H306.27L303.884 295.165H302.756Z" fill="#1FCECB"/>
<path d="M336.711 288.578C337.695 288.578 338.508 288.698 339.148 288.938C339.794 289.177 340.273 289.542 340.586 290.031C340.904 290.521 341.062 291.143 341.062 291.898C341.062 292.461 340.958 292.94 340.75 293.336C340.542 293.732 340.268 294.06 339.93 294.32C339.591 294.581 339.229 294.789 338.844 294.945L342.086 300H339.969L337.211 295.422H335.375V300H333.5V288.578H336.711ZM336.586 290.141H335.375V293.875H336.672C337.542 293.875 338.172 293.714 338.562 293.391C338.958 293.068 339.156 292.591 339.156 291.961C339.156 291.299 338.945 290.831 338.523 290.555C338.107 290.279 337.461 290.141 336.586 290.141ZM351.188 295.656C351.188 296.375 351.094 297.013 350.906 297.57C350.719 298.128 350.445 298.599 350.086 298.984C349.727 299.365 349.294 299.656 348.789 299.859C348.284 300.057 347.714 300.156 347.078 300.156C346.484 300.156 345.94 300.057 345.445 299.859C344.951 299.656 344.521 299.365 344.156 298.984C343.797 298.599 343.518 298.128 343.32 297.57C343.122 297.013 343.023 296.375 343.023 295.656C343.023 294.703 343.188 293.896 343.516 293.234C343.849 292.568 344.323 292.06 344.938 291.711C345.552 291.362 346.284 291.188 347.133 291.188C347.93 291.188 348.633 291.362 349.242 291.711C349.852 292.06 350.328 292.568 350.672 293.234C351.016 293.901 351.188 294.708 351.188 295.656ZM344.914 295.656C344.914 296.286 344.99 296.826 345.141 297.273C345.297 297.721 345.536 298.065 345.859 298.305C346.182 298.539 346.599 298.656 347.109 298.656C347.62 298.656 348.036 298.539 348.359 298.305C348.682 298.065 348.919 297.721 349.07 297.273C349.221 296.826 349.297 296.286 349.297 295.656C349.297 295.026 349.221 294.492 349.07 294.055C348.919 293.612 348.682 293.276 348.359 293.047C348.036 292.812 347.617 292.695 347.102 292.695C346.341 292.695 345.786 292.951 345.438 293.461C345.089 293.971 344.914 294.703 344.914 295.656ZM355.141 300H353.297V287.844H355.141V300ZM359.609 300H357.766V287.844H359.609V300ZM364.07 291.352V300H362.234V291.352H364.07ZM363.164 288.039C363.445 288.039 363.688 288.115 363.891 288.266C364.099 288.417 364.203 288.677 364.203 289.047C364.203 289.411 364.099 289.672 363.891 289.828C363.688 289.979 363.445 290.055 363.164 290.055C362.872 290.055 362.625 289.979 362.422 289.828C362.224 289.672 362.125 289.411 362.125 289.047C362.125 288.677 362.224 288.417 362.422 288.266C362.625 288.115 362.872 288.039 363.164 288.039ZM371.211 291.188C372.185 291.188 372.943 291.44 373.484 291.945C374.031 292.445 374.305 293.25 374.305 294.359V300H372.469V294.703C372.469 294.031 372.331 293.529 372.055 293.195C371.779 292.857 371.352 292.688 370.773 292.688C369.935 292.688 369.352 292.945 369.023 293.461C368.701 293.977 368.539 294.724 368.539 295.703V300H366.703V291.352H368.133L368.391 292.523H368.492C368.68 292.221 368.911 291.974 369.188 291.781C369.469 291.583 369.781 291.435 370.125 291.336C370.474 291.237 370.836 291.188 371.211 291.188ZM379.344 303.844C378.172 303.844 377.273 303.633 376.648 303.211C376.023 302.789 375.711 302.198 375.711 301.438C375.711 300.906 375.878 300.456 376.211 300.086C376.544 299.721 377.021 299.469 377.641 299.328C377.406 299.224 377.203 299.062 377.031 298.844C376.865 298.62 376.781 298.372 376.781 298.102C376.781 297.779 376.872 297.503 377.055 297.273C377.237 297.044 377.51 296.823 377.875 296.609C377.422 296.417 377.057 296.104 376.781 295.672C376.51 295.234 376.375 294.721 376.375 294.133C376.375 293.508 376.508 292.977 376.773 292.539C377.039 292.096 377.427 291.76 377.938 291.531C378.448 291.297 379.065 291.18 379.789 291.18C379.945 291.18 380.115 291.19 380.297 291.211C380.484 291.227 380.656 291.247 380.812 291.273C380.974 291.294 381.096 291.318 381.18 291.344H384.172V292.367L382.703 292.641C382.844 292.839 382.956 293.065 383.039 293.32C383.122 293.57 383.164 293.844 383.164 294.141C383.164 295.036 382.854 295.742 382.234 296.258C381.62 296.768 380.771 297.023 379.688 297.023C379.427 297.013 379.174 296.992 378.93 296.961C378.742 297.076 378.599 297.203 378.5 297.344C378.401 297.479 378.352 297.633 378.352 297.805C378.352 297.945 378.401 298.06 378.5 298.148C378.599 298.232 378.745 298.294 378.938 298.336C379.135 298.378 379.375 298.398 379.656 298.398H381.148C382.096 298.398 382.82 298.599 383.32 299C383.82 299.401 384.07 299.99 384.07 300.766C384.07 301.75 383.664 302.508 382.852 303.039C382.039 303.576 380.87 303.844 379.344 303.844ZM379.414 302.555C380.055 302.555 380.594 302.492 381.031 302.367C381.469 302.242 381.799 302.062 382.023 301.828C382.247 301.599 382.359 301.326 382.359 301.008C382.359 300.727 382.289 300.51 382.148 300.359C382.008 300.208 381.797 300.104 381.516 300.047C381.234 299.99 380.885 299.961 380.469 299.961H379.109C378.771 299.961 378.471 300.013 378.211 300.117C377.951 300.227 377.747 300.383 377.602 300.586C377.461 300.789 377.391 301.034 377.391 301.32C377.391 301.716 377.565 302.021 377.914 302.234C378.268 302.448 378.768 302.555 379.414 302.555ZM379.773 295.82C380.31 295.82 380.708 295.674 380.969 295.383C381.229 295.086 381.359 294.669 381.359 294.133C381.359 293.549 381.224 293.112 380.953 292.82C380.688 292.529 380.292 292.383 379.766 292.383C379.25 292.383 378.857 292.531 378.586 292.828C378.32 293.125 378.188 293.565 378.188 294.148C378.188 294.674 378.32 295.086 378.586 295.383C378.857 295.674 379.253 295.82 379.773 295.82Z" fill="white"/>
<path fill-rule="evenodd" clip-rule="evenodd" d="M549 288C549 286.895 549.895 286 551 286C552.105 286 553 286.895 553 288C553 289.105 552.105 290 551 290C549.895 290 549 289.105 549 288ZM549 294C549 292.895 549.895 292 551 292C552.105 292 553 292.895 553 294C553 295.105 552.105 296 551 296C549.895 296 549 295.105 549 294ZM551 298C549.895 298 549 298.895 549 300C549 301.105 549.895 302 551 302C552.105 302 553 301.105 553 300C553 298.895 552.105 298 551 298Z" fill="#858585"/>
</g>
<rect x="272.5" y="262.5" width="302" height="120" rx="11.5" stroke="#474747"/>
</g>
<defs>
<filter id="filter0_b_188_21296" x="233.634" y="151.634" width="161.731" height="132.731" filterUnits="userSpaceOnUse" color-interpolation-filters="sRGB">
<feFlood flood-opacity="0" result="BackgroundImageFix"/>
<feGaussianBlur in="BackgroundImageFix" stdDeviation="27.1828"/>
<feComposite in2="SourceAlpha" operator="in" result="effect1_backgroundBlur_188_21296"/>
<feBlend mode="normal" in="SourceGraphic" in2="effect1_backgroundBlur_188_21296" result="shape"/>
</filter>
<filter id="filter1_b_188_21296" x="290.634" y="151.634" width="166.731" height="132.731" filterUnits="userSpaceOnUse" color-interpolation-filters="sRGB">
<feFlood flood-opacity="0" result="BackgroundImageFix"/>
<feGaussianBlur in="BackgroundImageFix" stdDeviation="27.1828"/>
<feComposite in2="SourceAlpha" operator="in" result="effect1_backgroundBlur_188_21296"/>
<feBlend mode="normal" in="SourceGraphic" in2="effect1_backgroundBlur_188_21296" result="shape"/>
</filter>
<clipPath id="clip0_188_21296">
<rect width="550" height="318" fill="white"/>
</clipPath>
<clipPath id="clip1_188_21296">
<rect width="252" height="530" fill="white"/>
</clipPath>
<clipPath id="clip2_188_21296">
<rect width="16" height="16" fill="white" transform="translate(32 287)"/>
</clipPath>
<clipPath id="clip3_188_21296">
<rect x="272" y="69" width="502" height="32" rx="3" fill="white"/>
</clipPath>
<clipPath id="clip4_188_21296">
<rect x="272" y="125" width="303" height="121" rx="12" fill="white"/>
</clipPath>
<clipPath id="clip5_188_21296">
<rect width="16" height="16" fill="white" transform="translate(515 149)"/>
</clipPath>
<clipPath id="clip6_188_21296">
<rect x="272" y="262" width="303" height="121" rx="12" fill="white"/>
</clipPath>
</defs>
</svg>
