<svg width="550" height="318" viewBox="0 0 550 318" fill="none" xmlns="http://www.w3.org/2000/svg">
<g clip-path="url(#clip0_188_21340)">
<rect width="550" height="318" fill="#333333"/>
<rect width="914" height="530" fill="#333333"/>
<rect width="914" height="54" fill="#333333"/>
<rect width="882" height="53" transform="translate(16)" fill="#333333"/>
<path d="M21.0654 25.6636H22.0908C23.0957 25.6636 23.8374 25.4961 24.3159 25.1611C24.7944 24.8262 25.0337 24.2998 25.0337 23.582C25.0337 22.8711 24.7876 22.3652 24.2954 22.0645C23.8101 21.7637 23.0547 21.6133 22.0293 21.6133H21.0654V25.6636ZM21.0654 28.2476V34H17.8867V19.0088H22.2549C24.292 19.0088 25.7993 19.3813 26.7769 20.1265C27.7544 20.8647 28.2432 21.9893 28.2432 23.5C28.2432 24.3818 28.0005 25.168 27.5151 25.8584C27.0298 26.542 26.3428 27.0786 25.4541 27.4683C27.71 30.8384 29.1797 33.0156 29.8633 34H26.3359L22.7573 28.2476H21.0654ZM33.9956 28.2476C33.9956 29.3823 34.1802 30.2402 34.5493 30.8213C34.9253 31.4023 35.5337 31.6929 36.3745 31.6929C37.2085 31.6929 37.8066 31.4058 38.1689 30.8315C38.5381 30.2505 38.7227 29.3892 38.7227 28.2476C38.7227 27.1128 38.5381 26.2617 38.1689 25.6943C37.7998 25.127 37.1948 24.8433 36.354 24.8433C35.52 24.8433 34.9185 25.127 34.5493 25.6943C34.1802 26.2549 33.9956 27.106 33.9956 28.2476ZM41.9219 28.2476C41.9219 30.1138 41.4297 31.5732 40.4453 32.626C39.4609 33.6787 38.0903 34.2051 36.3335 34.2051C35.2329 34.2051 34.2622 33.9658 33.4214 33.4873C32.5806 33.002 31.9346 32.3081 31.4834 31.4058C31.0322 30.5034 30.8066 29.4507 30.8066 28.2476C30.8066 26.3745 31.2954 24.9185 32.2729 23.8794C33.2505 22.8403 34.6245 22.3208 36.395 22.3208C37.4956 22.3208 38.4663 22.5601 39.3071 23.0386C40.1479 23.5171 40.7939 24.2041 41.2451 25.0996C41.6963 25.9951 41.9219 27.0444 41.9219 28.2476ZM46.9976 28.2476C46.9976 29.3823 47.1821 30.2402 47.5513 30.8213C47.9272 31.4023 48.5356 31.6929 49.3765 31.6929C50.2104 31.6929 50.8086 31.4058 51.1709 30.8315C51.54 30.2505 51.7246 29.3892 51.7246 28.2476C51.7246 27.1128 51.54 26.2617 51.1709 25.6943C50.8018 25.127 50.1968 24.8433 49.356 24.8433C48.522 24.8433 47.9204 25.127 47.5513 25.6943C47.1821 26.2549 46.9976 27.106 46.9976 28.2476ZM54.9238 28.2476C54.9238 30.1138 54.4316 31.5732 53.4473 32.626C52.4629 33.6787 51.0923 34.2051 49.3354 34.2051C48.2349 34.2051 47.2642 33.9658 46.4233 33.4873C45.5825 33.002 44.9365 32.3081 44.4854 31.4058C44.0342 30.5034 43.8086 29.4507 43.8086 28.2476C43.8086 26.3745 44.2974 24.9185 45.2749 23.8794C46.2524 22.8403 47.6265 22.3208 49.397 22.3208C50.4976 22.3208 51.4683 22.5601 52.3091 23.0386C53.1499 23.5171 53.7959 24.2041 54.2471 25.0996C54.6982 25.9951 54.9238 27.0444 54.9238 28.2476ZM67.772 34H64.6445V27.3042C64.6445 26.4771 64.5044 25.8584 64.2241 25.4482C63.9507 25.0312 63.5166 24.8228 62.9219 24.8228C62.1221 24.8228 61.541 25.1167 61.1787 25.7046C60.8164 26.2925 60.6353 27.2598 60.6353 28.6064V34H57.5078V22.5361H59.897L60.3174 24.0024H60.4917C60.7993 23.4761 61.2437 23.0659 61.8247 22.772C62.4058 22.4712 63.0723 22.3208 63.8242 22.3208C65.54 22.3208 66.7021 22.8813 67.3105 24.0024H67.5874C67.895 23.4692 68.3462 23.0557 68.9409 22.7617C69.5425 22.4678 70.2192 22.3208 70.9712 22.3208C72.27 22.3208 73.251 22.6558 73.9141 23.3257C74.584 23.9888 74.9189 25.0552 74.9189 26.5249V34H71.7812V27.3042C71.7812 26.4771 71.6411 25.8584 71.3608 25.4482C71.0874 25.0312 70.6533 24.8228 70.0586 24.8228C69.293 24.8228 68.7188 25.0962 68.3359 25.6431C67.96 26.1899 67.772 27.0581 67.772 28.2476V34ZM86.7212 34H83.5938V18.0449H86.7212V34ZM89.8794 19.5728C89.8794 18.5542 90.4468 18.0449 91.5815 18.0449C92.7163 18.0449 93.2837 18.5542 93.2837 19.5728C93.2837 20.0581 93.1401 20.4375 92.853 20.7109C92.5728 20.9775 92.1489 21.1108 91.5815 21.1108C90.4468 21.1108 89.8794 20.5981 89.8794 19.5728ZM93.1401 34H90.0127V22.5361H93.1401V34ZM104.43 30.5957C104.43 31.7715 104.02 32.667 103.199 33.2822C102.386 33.8975 101.166 34.2051 99.5386 34.2051C98.7046 34.2051 97.9937 34.147 97.4058 34.0308C96.8179 33.9214 96.2676 33.7573 95.7549 33.5386V30.9546C96.3359 31.228 96.9888 31.457 97.7134 31.6416C98.4448 31.8262 99.0874 31.9185 99.6411 31.9185C100.776 31.9185 101.343 31.5903 101.343 30.9341C101.343 30.688 101.268 30.4897 101.118 30.3394C100.967 30.1821 100.708 30.0078 100.338 29.8164C99.9692 29.6182 99.4771 29.3892 98.8618 29.1294C97.98 28.7603 97.3306 28.4185 96.9136 28.104C96.5034 27.7896 96.2026 27.4307 96.0112 27.0273C95.8267 26.6172 95.7344 26.1147 95.7344 25.52C95.7344 24.5015 96.1274 23.7153 96.9136 23.1616C97.7065 22.6011 98.8276 22.3208 100.277 22.3208C101.658 22.3208 103.001 22.6216 104.307 23.2231L103.363 25.479C102.789 25.2329 102.252 25.0312 101.753 24.874C101.254 24.7168 100.745 24.6382 100.226 24.6382C99.3027 24.6382 98.8413 24.8877 98.8413 25.3867C98.8413 25.667 98.9883 25.9097 99.2822 26.1147C99.583 26.3198 100.236 26.624 101.241 27.0273C102.136 27.3896 102.792 27.728 103.209 28.0425C103.626 28.3569 103.934 28.7192 104.132 29.1294C104.331 29.5396 104.43 30.0283 104.43 30.5957ZM111.7 31.7134C112.247 31.7134 112.903 31.5938 113.668 31.3545V33.6821C112.889 34.0308 111.932 34.2051 110.797 34.2051C109.546 34.2051 108.634 33.8906 108.06 33.2617C107.492 32.626 107.208 31.6758 107.208 30.4111V24.8843H105.711V23.5615L107.434 22.5156L108.336 20.0957H110.336V22.5361H113.545V24.8843H110.336V30.4111C110.336 30.8555 110.459 31.1836 110.705 31.3955C110.958 31.6074 111.29 31.7134 111.7 31.7134Z" fill="white"/>
<rect y="53" width="914" height="1" fill="#474747"/>
<rect width="914" height="60" transform="translate(0 54)" fill="#333333"/>
<g clip-path="url(#clip1_188_21340)">
<rect x="16" y="70" width="882" height="32" rx="3" fill="#282828"/>
<path d="M30.5762 88.4736C30.5762 89.0238 30.4408 89.4977 30.1699 89.8955C29.9033 90.2933 29.5182 90.598 29.0146 90.8096C28.5153 91.0212 27.9186 91.127 27.2246 91.127C26.8861 91.127 26.5623 91.1079 26.2534 91.0698C25.9445 91.0317 25.6525 90.9767 25.3774 90.9048C25.1066 90.8286 24.859 90.7376 24.6348 90.6318V89.1973C25.0114 89.3623 25.4325 89.5125 25.8979 89.6479C26.3634 89.7791 26.8374 89.8447 27.3198 89.8447C27.7134 89.8447 28.0392 89.7939 28.2974 89.6924C28.5597 89.5866 28.7544 89.4385 28.8813 89.248C29.0083 89.0534 29.0718 88.827 29.0718 88.5688C29.0718 88.2938 28.9977 88.061 28.8496 87.8706C28.7015 87.6802 28.4772 87.5067 28.1768 87.3501C27.8805 87.1893 27.5081 87.0179 27.0596 86.8359C26.7549 86.7132 26.4629 86.5736 26.1836 86.417C25.9085 86.2604 25.6631 86.0763 25.4473 85.8647C25.2314 85.6532 25.0601 85.4035 24.9331 85.1157C24.8104 84.8237 24.749 84.481 24.749 84.0874C24.749 83.5627 24.8739 83.1141 25.1235 82.7417C25.3774 82.3693 25.7329 82.0837 26.1899 81.8848C26.6512 81.6859 27.1886 81.5864 27.8022 81.5864C28.2889 81.5864 28.7459 81.6372 29.1733 81.7388C29.605 81.8403 30.0282 81.9842 30.4429 82.1704L29.9604 83.3955C29.5796 83.2389 29.2093 83.1141 28.8496 83.021C28.4941 82.9279 28.1302 82.8813 27.7578 82.8813C27.4362 82.8813 27.1632 82.93 26.939 83.0273C26.7147 83.1247 26.5433 83.2622 26.4248 83.4399C26.3105 83.6134 26.2534 83.8208 26.2534 84.062C26.2534 84.3328 26.319 84.5614 26.4502 84.7476C26.5856 84.9295 26.793 85.0967 27.0723 85.249C27.3558 85.4014 27.7197 85.5706 28.1641 85.7568C28.6761 85.9684 29.1099 86.1906 29.4653 86.4233C29.825 86.6561 30.1001 86.9354 30.2905 87.2612C30.481 87.5828 30.5762 87.987 30.5762 88.4736ZM35.0132 83.8398C35.6395 83.8398 36.1769 83.9689 36.6255 84.2271C37.0741 84.4852 37.4189 84.8512 37.6602 85.3252C37.9014 85.7992 38.022 86.3662 38.022 87.0264V87.8262H33.3311C33.348 88.5075 33.5299 89.0322 33.877 89.4004C34.2282 89.7686 34.7191 89.9526 35.3496 89.9526C35.7982 89.9526 36.2002 89.9103 36.5557 89.8257C36.9154 89.7368 37.2856 89.6077 37.6665 89.4385V90.6509C37.3153 90.8159 36.9577 90.9365 36.5938 91.0127C36.2298 91.0889 35.7939 91.127 35.2861 91.127C34.5964 91.127 33.9891 90.9937 33.4644 90.7271C32.9438 90.4562 32.5355 90.0542 32.2393 89.521C31.9473 88.9878 31.8013 88.3255 31.8013 87.5342C31.8013 86.7471 31.9346 86.0785 32.2012 85.5283C32.4678 84.9782 32.8423 84.5592 33.3247 84.2715C33.8071 83.9837 34.37 83.8398 35.0132 83.8398ZM35.0132 84.9634C34.5435 84.9634 34.1626 85.1157 33.8706 85.4204C33.5828 85.7251 33.4136 86.1715 33.3628 86.7598H36.562C36.5578 86.4085 36.4985 86.0975 36.3843 85.8267C36.2743 85.5558 36.105 85.3442 35.8765 85.1919C35.6522 85.0396 35.3644 84.9634 35.0132 84.9634ZM42.459 83.8398C43.3477 83.8398 44.0184 84.0366 44.4712 84.4302C44.9282 84.8237 45.1567 85.4373 45.1567 86.271V91H44.0967L43.811 90.0034H43.7603C43.5614 90.2573 43.3561 90.4668 43.1445 90.6318C42.9329 90.7969 42.6875 90.9196 42.4082 91C42.1331 91.0846 41.7967 91.127 41.3989 91.127C40.98 91.127 40.6055 91.0508 40.2754 90.8984C39.9453 90.7419 39.6851 90.5049 39.4946 90.1875C39.3042 89.8701 39.209 89.4681 39.209 88.9814C39.209 88.2578 39.4777 87.714 40.0151 87.3501C40.5568 86.9862 41.3735 86.7852 42.4653 86.7471L43.6841 86.7026V86.3345C43.6841 85.8478 43.5698 85.5008 43.3413 85.2935C43.117 85.0861 42.7996 84.9824 42.3892 84.9824C42.0379 84.9824 41.6973 85.0332 41.3672 85.1348C41.0371 85.2363 40.7155 85.3612 40.4023 85.5093L39.9199 84.4556C40.2627 84.2736 40.652 84.1255 41.0879 84.0112C41.528 83.897 41.985 83.8398 42.459 83.8398ZM43.6777 87.6421L42.77 87.6738C42.0252 87.6992 41.5026 87.8262 41.2021 88.0547C40.9017 88.2832 40.7515 88.5964 40.7515 88.9941C40.7515 89.3411 40.8551 89.5951 41.0625 89.7559C41.2699 89.9124 41.5428 89.9907 41.8813 89.9907C42.3976 89.9907 42.825 89.8447 43.1636 89.5527C43.5063 89.2565 43.6777 88.8228 43.6777 88.2515V87.6421ZM50.8062 83.8398C50.9246 83.8398 51.0537 83.8462 51.1934 83.8589C51.333 83.8716 51.4536 83.8885 51.5552 83.9097L51.4155 85.3062C51.3267 85.2808 51.2166 85.2617 51.0854 85.249C50.9585 85.2363 50.8442 85.23 50.7427 85.23C50.4761 85.23 50.2222 85.2744 49.981 85.3633C49.7397 85.4479 49.526 85.5791 49.3398 85.7568C49.1536 85.9303 49.0076 86.1483 48.9019 86.4106C48.7961 86.673 48.7432 86.9777 48.7432 87.3247V91H47.2451V83.9731H48.4131L48.6162 85.2109H48.686C48.8257 84.9613 48.9992 84.7327 49.2065 84.5254C49.4139 84.318 49.6509 84.153 49.9175 84.0303C50.1883 83.9033 50.4845 83.8398 50.8062 83.8398ZM55.6875 91.127C55.0231 91.127 54.4476 90.9979 53.9609 90.7397C53.4743 90.4816 53.0998 90.0859 52.8374 89.5527C52.575 89.0195 52.4438 88.3424 52.4438 87.5215C52.4438 86.6667 52.5877 85.9684 52.8755 85.4268C53.1632 84.8851 53.561 84.4852 54.0688 84.2271C54.5809 83.9689 55.167 83.8398 55.8271 83.8398C56.2461 83.8398 56.6248 83.8822 56.9634 83.9668C57.3062 84.0472 57.596 84.1466 57.833 84.2651L57.3887 85.4585C57.1305 85.3527 56.866 85.2638 56.5952 85.1919C56.3244 85.12 56.0641 85.084 55.8145 85.084C55.404 85.084 55.0612 85.175 54.7861 85.3569C54.5153 85.5389 54.3122 85.8097 54.1768 86.1694C54.0456 86.5291 53.98 86.9756 53.98 87.5088C53.98 88.0251 54.0477 88.4609 54.1831 88.8164C54.3185 89.1676 54.5195 89.4342 54.7861 89.6162C55.0527 89.7939 55.3807 89.8828 55.77 89.8828C56.1551 89.8828 56.5 89.8363 56.8047 89.7432C57.1094 89.6501 57.3971 89.5295 57.668 89.3813V90.6763C57.4014 90.8286 57.1157 90.9408 56.811 91.0127C56.5063 91.0889 56.1318 91.127 55.6875 91.127ZM60.8101 81.123V83.605C60.8101 83.8631 60.8016 84.1149 60.7847 84.3604C60.772 84.6058 60.7572 84.7962 60.7402 84.9316H60.8228C60.9709 84.6862 61.1528 84.4852 61.3687 84.3286C61.5845 84.1678 61.8257 84.0472 62.0923 83.9668C62.3631 83.8864 62.6509 83.8462 62.9556 83.8462C63.493 83.8462 63.95 83.9372 64.3267 84.1191C64.7033 84.2969 64.991 84.5741 65.1899 84.9507C65.3931 85.3273 65.4946 85.8161 65.4946 86.417V91H64.0029V86.6963C64.0029 86.1504 63.8908 85.742 63.6665 85.4712C63.4422 85.1961 63.0952 85.0586 62.6255 85.0586C62.1727 85.0586 61.813 85.1538 61.5464 85.3442C61.284 85.5304 61.0957 85.8076 60.9814 86.1758C60.8672 86.5397 60.8101 86.984 60.8101 87.5088V91H59.3184V81.123H60.8101Z" fill="#5C5C5C"/>
</g>
<rect x="16.5" y="70.5" width="881" height="31" rx="2.5" stroke="#474747"/>
<rect width="914" height="336" transform="translate(0 114)" fill="white"/>
<rect width="914" height="48" transform="translate(0 114)" fill="#333333"/>
<rect x="16" y="122" width="32" height="32" rx="6" fill="#5CC3F7" fill-opacity="0.09"/>
<path d="M29.9424 143L29.2178 140.621H25.5742L24.8496 143H22.5664L26.0938 132.965H28.6846L32.2256 143H29.9424ZM28.7119 138.844C28.042 136.688 27.6637 135.469 27.5771 135.187C27.4951 134.904 27.4359 134.681 27.3994 134.517C27.249 135.1 26.8184 136.542 26.1074 138.844H28.7119ZM40.3809 143H38.2959V138.536C38.2959 137.985 38.1979 137.572 38.002 137.299C37.806 137.021 37.4938 136.882 37.0654 136.882C36.4821 136.882 36.0605 137.078 35.8008 137.47C35.541 137.857 35.4111 138.502 35.4111 139.404V143H33.3262V135.357H34.9189L35.1992 136.335H35.3154C35.5479 135.966 35.8669 135.688 36.2725 135.501C36.6826 135.31 37.1475 135.214 37.667 135.214C38.5557 135.214 39.2301 135.455 39.6904 135.938C40.1507 136.417 40.3809 137.11 40.3809 138.017V143Z" fill="#5CC3F7"/>
<path d="M63.5059 143L62.5283 140.225H58.707L57.7295 143H56L59.7188 132.965H61.5371L65.249 143H63.5059ZM62.1045 138.816L61.1543 136.082C61.1178 135.964 61.0654 135.797 60.9971 135.583C60.9287 135.364 60.8604 135.143 60.792 134.92C60.7236 134.692 60.6667 134.501 60.6211 134.346C60.5755 134.533 60.5186 134.742 60.4502 134.975C60.3864 135.202 60.3226 135.417 60.2588 135.617C60.1995 135.818 60.154 135.973 60.1221 136.082L59.165 138.816H62.1045ZM68.5645 146.363C67.5391 146.363 66.7529 146.179 66.2061 145.81C65.6592 145.44 65.3857 144.923 65.3857 144.258C65.3857 143.793 65.5316 143.399 65.8232 143.075C66.1149 142.756 66.5319 142.535 67.0742 142.412C66.8691 142.321 66.6914 142.18 66.541 141.988C66.3952 141.792 66.3223 141.576 66.3223 141.339C66.3223 141.056 66.402 140.815 66.5615 140.614C66.721 140.414 66.9603 140.22 67.2793 140.033C66.8828 139.865 66.5638 139.591 66.3223 139.213C66.0853 138.83 65.9668 138.381 65.9668 137.866C65.9668 137.319 66.083 136.854 66.3154 136.472C66.5479 136.084 66.8874 135.79 67.334 135.59C67.7806 135.385 68.3206 135.282 68.9541 135.282C69.0908 135.282 69.2389 135.291 69.3984 135.31C69.5625 135.323 69.7129 135.341 69.8496 135.364C69.9909 135.382 70.098 135.403 70.1709 135.426H72.7891V136.321L71.5039 136.561C71.627 136.734 71.7249 136.932 71.7979 137.155C71.8708 137.374 71.9072 137.613 71.9072 137.873C71.9072 138.657 71.6361 139.274 71.0938 139.726C70.556 140.172 69.8132 140.396 68.8652 140.396C68.6374 140.386 68.4163 140.368 68.2021 140.341C68.0381 140.441 67.9128 140.553 67.8262 140.676C67.7396 140.794 67.6963 140.929 67.6963 141.079C67.6963 141.202 67.7396 141.302 67.8262 141.38C67.9128 141.453 68.0404 141.507 68.209 141.544C68.3822 141.58 68.5918 141.599 68.8379 141.599H70.1436C70.973 141.599 71.6064 141.774 72.0439 142.125C72.4814 142.476 72.7002 142.991 72.7002 143.67C72.7002 144.531 72.3447 145.194 71.6338 145.659C70.9229 146.129 69.8997 146.363 68.5645 146.363ZM68.626 145.235C69.1865 145.235 69.6582 145.181 70.041 145.071C70.4238 144.962 70.7132 144.805 70.9092 144.6C71.1051 144.399 71.2031 144.16 71.2031 143.882C71.2031 143.636 71.1416 143.447 71.0186 143.314C70.8955 143.182 70.7109 143.091 70.4648 143.041C70.2188 142.991 69.9134 142.966 69.5488 142.966H68.3594C68.0632 142.966 67.8011 143.011 67.5732 143.103C67.3454 143.198 67.1676 143.335 67.04 143.513C66.917 143.69 66.8555 143.905 66.8555 144.155C66.8555 144.502 67.0081 144.768 67.3135 144.955C67.6234 145.142 68.0609 145.235 68.626 145.235ZM68.9404 139.343C69.4098 139.343 69.7585 139.215 69.9863 138.96C70.2142 138.7 70.3281 138.336 70.3281 137.866C70.3281 137.356 70.2096 136.973 69.9727 136.718C69.7402 136.463 69.3939 136.335 68.9336 136.335C68.4824 136.335 68.1383 136.465 67.9014 136.725C67.6689 136.984 67.5527 137.369 67.5527 137.88C67.5527 138.34 67.6689 138.7 67.9014 138.96C68.1383 139.215 68.4847 139.343 68.9404 139.343ZM78.0049 135.289C78.1325 135.289 78.2715 135.296 78.4219 135.31C78.5723 135.323 78.7021 135.341 78.8115 135.364L78.6611 136.868C78.5654 136.841 78.4469 136.82 78.3057 136.807C78.1689 136.793 78.0459 136.786 77.9365 136.786C77.6494 136.786 77.376 136.834 77.1162 136.93C76.8564 137.021 76.6263 137.162 76.4258 137.354C76.2253 137.54 76.068 137.775 75.9541 138.058C75.8402 138.34 75.7832 138.668 75.7832 139.042V143H74.1699V135.433H75.4277L75.6465 136.766H75.7217C75.8721 136.497 76.0589 136.251 76.2822 136.027C76.5055 135.804 76.7607 135.626 77.0479 135.494C77.3395 135.357 77.6585 135.289 78.0049 135.289ZM83.2275 135.289C83.902 135.289 84.4808 135.428 84.9639 135.706C85.4469 135.984 85.8184 136.378 86.0781 136.889C86.3379 137.399 86.4678 138.01 86.4678 138.721V139.582H81.416C81.4342 140.316 81.6302 140.881 82.0039 141.277C82.3822 141.674 82.9108 141.872 83.5898 141.872C84.0729 141.872 84.5059 141.826 84.8887 141.735C85.276 141.64 85.6748 141.501 86.085 141.318V142.624C85.7067 142.802 85.3216 142.932 84.9297 143.014C84.5378 143.096 84.0684 143.137 83.5215 143.137C82.7786 143.137 82.1247 142.993 81.5596 142.706C80.999 142.414 80.5592 141.981 80.2402 141.407C79.9258 140.833 79.7686 140.12 79.7686 139.268C79.7686 138.42 79.9121 137.7 80.1992 137.107C80.4863 136.515 80.8896 136.064 81.4092 135.754C81.9287 135.444 82.5348 135.289 83.2275 135.289ZM83.2275 136.499C82.7217 136.499 82.3115 136.663 81.9971 136.991C81.6872 137.319 81.5049 137.8 81.4502 138.434H84.8955C84.891 138.055 84.8271 137.72 84.7041 137.429C84.5856 137.137 84.4033 136.909 84.1572 136.745C83.9157 136.581 83.6058 136.499 83.2275 136.499ZM91.2939 135.289C91.9684 135.289 92.5472 135.428 93.0303 135.706C93.5133 135.984 93.8848 136.378 94.1445 136.889C94.4043 137.399 94.5342 138.01 94.5342 138.721V139.582H89.4824C89.5007 140.316 89.6966 140.881 90.0703 141.277C90.4486 141.674 90.9772 141.872 91.6562 141.872C92.1393 141.872 92.5723 141.826 92.9551 141.735C93.3424 141.64 93.7412 141.501 94.1514 141.318V142.624C93.7731 142.802 93.388 142.932 92.9961 143.014C92.6042 143.096 92.1348 143.137 91.5879 143.137C90.8451 143.137 90.1911 142.993 89.626 142.706C89.0654 142.414 88.6257 141.981 88.3066 141.407C87.9922 140.833 87.835 140.12 87.835 139.268C87.835 138.42 87.9785 137.7 88.2656 137.107C88.5527 136.515 88.9561 136.064 89.4756 135.754C89.9951 135.444 90.6012 135.289 91.2939 135.289ZM91.2939 136.499C90.7881 136.499 90.3779 136.663 90.0635 136.991C89.7536 137.319 89.5713 137.8 89.5166 138.434H92.9619C92.9574 138.055 92.8936 137.72 92.7705 137.429C92.652 137.137 92.4697 136.909 92.2236 136.745C91.9821 136.581 91.6722 136.499 91.2939 136.499ZM104.897 135.289C105.745 135.289 106.383 135.508 106.812 135.945C107.244 136.383 107.461 137.085 107.461 138.051V143H105.854V138.338C105.854 137.764 105.743 137.331 105.52 137.039C105.296 136.747 104.957 136.602 104.501 136.602C103.863 136.602 103.403 136.807 103.12 137.217C102.842 137.622 102.703 138.213 102.703 138.987V143H101.097V138.338C101.097 137.955 101.047 137.636 100.946 137.381C100.851 137.121 100.702 136.927 100.502 136.8C100.301 136.668 100.049 136.602 99.7432 136.602C99.3011 136.602 98.9479 136.702 98.6836 136.902C98.4238 137.103 98.237 137.399 98.123 137.791C98.0091 138.178 97.9521 138.655 97.9521 139.22V143H96.3457V135.433H97.5967L97.8223 136.451H97.9111C98.0661 136.187 98.2575 135.97 98.4854 135.802C98.7178 135.629 98.9753 135.501 99.2578 135.419C99.5404 135.332 99.8343 135.289 100.14 135.289C100.705 135.289 101.181 135.389 101.568 135.59C101.956 135.786 102.245 136.087 102.437 136.492H102.56C102.797 136.082 103.127 135.779 103.551 135.583C103.975 135.387 104.424 135.289 104.897 135.289ZM112.718 135.289C113.392 135.289 113.971 135.428 114.454 135.706C114.937 135.984 115.309 136.378 115.568 136.889C115.828 137.399 115.958 138.01 115.958 138.721V139.582H110.906C110.924 140.316 111.12 140.881 111.494 141.277C111.872 141.674 112.401 141.872 113.08 141.872C113.563 141.872 113.996 141.826 114.379 141.735C114.766 141.64 115.165 141.501 115.575 141.318V142.624C115.197 142.802 114.812 142.932 114.42 143.014C114.028 143.096 113.559 143.137 113.012 143.137C112.269 143.137 111.615 142.993 111.05 142.706C110.489 142.414 110.049 141.981 109.73 141.407C109.416 140.833 109.259 140.12 109.259 139.268C109.259 138.42 109.402 137.7 109.689 137.107C109.977 136.515 110.38 136.064 110.899 135.754C111.419 135.444 112.025 135.289 112.718 135.289ZM112.718 136.499C112.212 136.499 111.802 136.663 111.487 136.991C111.177 137.319 110.995 137.8 110.94 138.434H114.386C114.381 138.055 114.317 137.72 114.194 137.429C114.076 137.137 113.894 136.909 113.647 136.745C113.406 136.581 113.096 136.499 112.718 136.499ZM121.714 135.289C122.566 135.289 123.229 135.51 123.703 135.952C124.182 136.39 124.421 137.094 124.421 138.064V143H122.814V138.365C122.814 137.777 122.694 137.338 122.452 137.046C122.211 136.75 121.837 136.602 121.331 136.602C120.597 136.602 120.087 136.827 119.8 137.278C119.517 137.729 119.376 138.383 119.376 139.24V143H117.77V135.433H119.021L119.246 136.458H119.335C119.499 136.194 119.702 135.977 119.943 135.809C120.189 135.635 120.463 135.506 120.764 135.419C121.069 135.332 121.386 135.289 121.714 135.289ZM129.486 141.838C129.696 141.838 129.903 141.82 130.108 141.783C130.313 141.742 130.5 141.694 130.669 141.64V142.856C130.491 142.934 130.261 143 129.979 143.055C129.696 143.109 129.402 143.137 129.097 143.137C128.668 143.137 128.283 143.066 127.941 142.925C127.6 142.779 127.328 142.531 127.128 142.18C126.927 141.829 126.827 141.343 126.827 140.724V136.656H125.795V135.938L126.902 135.371L127.429 133.751H128.44V135.433H130.607V136.656H128.44V140.703C128.44 141.086 128.536 141.371 128.728 141.558C128.919 141.744 129.172 141.838 129.486 141.838ZM142.543 139.199C142.543 139.828 142.461 140.386 142.297 140.874C142.133 141.362 141.894 141.774 141.579 142.111C141.265 142.444 140.886 142.699 140.444 142.877C140.002 143.05 139.503 143.137 138.947 143.137C138.428 143.137 137.951 143.05 137.519 142.877C137.086 142.699 136.71 142.444 136.391 142.111C136.076 141.774 135.832 141.362 135.659 140.874C135.486 140.386 135.399 139.828 135.399 139.199C135.399 138.365 135.543 137.659 135.83 137.08C136.122 136.497 136.536 136.052 137.074 135.747C137.612 135.442 138.252 135.289 138.995 135.289C139.692 135.289 140.308 135.442 140.841 135.747C141.374 136.052 141.791 136.497 142.092 137.08C142.393 137.663 142.543 138.37 142.543 139.199ZM137.054 139.199C137.054 139.751 137.12 140.222 137.252 140.614C137.389 141.006 137.598 141.307 137.881 141.517C138.163 141.722 138.528 141.824 138.975 141.824C139.421 141.824 139.786 141.722 140.068 141.517C140.351 141.307 140.558 141.006 140.69 140.614C140.823 140.222 140.889 139.751 140.889 139.199C140.889 138.648 140.823 138.181 140.69 137.798C140.558 137.41 140.351 137.117 140.068 136.916C139.786 136.711 139.419 136.608 138.968 136.608C138.302 136.608 137.817 136.832 137.512 137.278C137.206 137.725 137.054 138.365 137.054 139.199ZM148.169 136.656H146.33V143H144.724V136.656H143.486V135.884L144.724 135.412V134.886C144.724 134.243 144.824 133.733 145.024 133.354C145.229 132.976 145.521 132.705 145.899 132.541C146.282 132.372 146.738 132.288 147.267 132.288C147.613 132.288 147.93 132.318 148.217 132.377C148.504 132.432 148.745 132.495 148.941 132.568L148.524 133.785C148.369 133.735 148.196 133.689 148.005 133.648C147.813 133.603 147.608 133.58 147.39 133.58C147.025 133.58 146.756 133.694 146.583 133.922C146.414 134.15 146.33 134.482 146.33 134.92V135.433H148.169V136.656ZM157.042 135.289C157.894 135.289 158.557 135.51 159.031 135.952C159.51 136.39 159.749 137.094 159.749 138.064V143H158.143V138.365C158.143 137.777 158.022 137.338 157.78 137.046C157.539 136.75 157.165 136.602 156.659 136.602C155.925 136.602 155.415 136.827 155.128 137.278C154.845 137.729 154.704 138.383 154.704 139.24V143H153.098V135.433H154.349L154.574 136.458H154.663C154.827 136.194 155.03 135.977 155.271 135.809C155.518 135.635 155.791 135.506 156.092 135.419C156.397 135.332 156.714 135.289 157.042 135.289ZM165.013 135.289C165.687 135.289 166.266 135.428 166.749 135.706C167.232 135.984 167.604 136.378 167.863 136.889C168.123 137.399 168.253 138.01 168.253 138.721V139.582H163.201C163.219 140.316 163.415 140.881 163.789 141.277C164.167 141.674 164.696 141.872 165.375 141.872C165.858 141.872 166.291 141.826 166.674 141.735C167.061 141.64 167.46 141.501 167.87 141.318V142.624C167.492 142.802 167.107 142.932 166.715 143.014C166.323 143.096 165.854 143.137 165.307 143.137C164.564 143.137 163.91 142.993 163.345 142.706C162.784 142.414 162.344 141.981 162.025 141.407C161.711 140.833 161.554 140.12 161.554 139.268C161.554 138.42 161.697 137.7 161.984 137.107C162.271 136.515 162.675 136.064 163.194 135.754C163.714 135.444 164.32 135.289 165.013 135.289ZM165.013 136.499C164.507 136.499 164.097 136.663 163.782 136.991C163.472 137.319 163.29 137.8 163.235 138.434H166.681C166.676 138.055 166.612 137.72 166.489 137.429C166.371 137.137 166.188 136.909 165.942 136.745C165.701 136.581 165.391 136.499 165.013 136.499ZM176.251 142.993L175.294 139.473C175.248 139.299 175.194 139.09 175.13 138.844C175.066 138.598 175.002 138.345 174.938 138.085C174.875 137.821 174.815 137.577 174.761 137.354C174.711 137.13 174.672 136.957 174.645 136.834H174.59C174.567 136.957 174.531 137.13 174.48 137.354C174.43 137.577 174.373 137.821 174.31 138.085C174.246 138.349 174.182 138.607 174.118 138.857C174.059 139.108 174.004 139.322 173.954 139.5L172.949 142.993H171.186L169.066 135.426H170.693L171.678 139.186C171.742 139.441 171.803 139.716 171.862 140.013C171.926 140.309 171.981 140.591 172.026 140.86C172.072 141.129 172.106 141.35 172.129 141.523H172.184C172.202 141.4 172.227 141.245 172.259 141.059C172.291 140.867 172.327 140.669 172.368 140.464C172.409 140.254 172.45 140.058 172.491 139.876C172.532 139.689 172.571 139.539 172.607 139.425L173.77 135.426H175.526L176.641 139.425C176.691 139.598 176.745 139.817 176.805 140.081C176.864 140.341 176.916 140.603 176.962 140.867C177.012 141.127 177.044 141.343 177.058 141.517H177.112C177.131 141.362 177.162 141.152 177.208 140.888C177.258 140.619 177.315 140.334 177.379 140.033C177.443 139.728 177.509 139.445 177.577 139.186L178.582 135.426H180.182L178.049 142.993H176.251Z" fill="white"/>
<rect width="914" height="48" transform="translate(0 162)" fill="#333333"/>
<rect x="16" y="170" width="32" height="32" rx="6" fill="#FF6680" fill-opacity="0.09"/>
<path d="M30.373 185.907C30.373 187.552 29.9036 188.812 28.9648 189.688C28.0306 190.562 26.6794 191 24.9111 191H22.0811V181.006H25.2188C26.8503 181.006 28.1172 181.437 29.0195 182.298C29.9219 183.159 30.373 184.362 30.373 185.907ZM28.1719 185.962C28.1719 183.815 27.224 182.742 25.3281 182.742H24.2002V189.25H25.1094C27.151 189.25 28.1719 188.154 28.1719 185.962ZM38.5625 191L37.9746 188.327L37.1816 184.95H37.1338L35.7393 191H33.4971L31.3232 183.357H33.4014L34.2832 186.741C34.4245 187.347 34.568 188.184 34.7139 189.25H34.7549C34.7731 188.904 34.8529 188.354 34.9941 187.603L35.1035 187.021L36.0469 183.357H38.3438L39.2393 187.021C39.2575 187.122 39.2848 187.27 39.3213 187.466C39.3623 187.662 39.401 187.871 39.4375 188.095C39.474 188.313 39.5059 188.53 39.5332 188.744C39.5651 188.954 39.5833 189.122 39.5879 189.25H39.6289C39.6699 188.922 39.7428 188.473 39.8477 187.903C39.9525 187.329 40.0277 186.942 40.0732 186.741L40.9893 183.357H43.0332L40.832 191H38.5625Z" fill="#FF6680"/>
<path d="M65.4268 185.907C65.4268 187.033 65.2171 187.974 64.7979 188.73C64.3786 189.482 63.7702 190.05 62.9727 190.433C62.1751 190.811 61.2135 191 60.0879 191H57.3125V181.006H60.3887C61.4232 181.006 62.3164 181.193 63.0684 181.566C63.8203 181.936 64.4014 182.485 64.8115 183.214C65.2217 183.938 65.4268 184.836 65.4268 185.907ZM63.7178 185.955C63.7178 185.135 63.5879 184.46 63.3281 183.932C63.0729 183.403 62.6947 183.011 62.1934 182.756C61.6966 182.496 61.0837 182.366 60.3545 182.366H58.9531V189.626H60.1152C61.3229 189.626 62.2253 189.318 62.8223 188.703C63.4193 188.088 63.7178 187.172 63.7178 185.955ZM70.3828 183.289C71.3398 183.289 72.0622 183.501 72.5498 183.925C73.042 184.349 73.2881 185.009 73.2881 185.907V191H72.1465L71.8389 189.927H71.7842C71.57 190.2 71.349 190.426 71.1211 190.604C70.8932 190.781 70.6289 190.913 70.3281 191C70.0319 191.091 69.6696 191.137 69.2412 191.137C68.79 191.137 68.3867 191.055 68.0312 190.891C67.6758 190.722 67.3955 190.467 67.1904 190.125C66.9854 189.783 66.8828 189.35 66.8828 188.826C66.8828 188.047 67.1722 187.461 67.751 187.069C68.3343 186.677 69.2139 186.461 70.3896 186.42L71.7021 186.372V185.976C71.7021 185.451 71.5791 185.078 71.333 184.854C71.0915 184.631 70.7497 184.52 70.3076 184.52C69.9294 184.52 69.5625 184.574 69.207 184.684C68.8516 184.793 68.5052 184.927 68.168 185.087L67.6484 183.952C68.0176 183.756 68.4368 183.597 68.9062 183.474C69.3802 183.351 69.8724 183.289 70.3828 183.289ZM71.6953 187.384L70.7178 187.418C69.9157 187.445 69.3529 187.582 69.0293 187.828C68.7057 188.074 68.5439 188.411 68.5439 188.84C68.5439 189.214 68.6556 189.487 68.8789 189.66C69.1022 189.829 69.3962 189.913 69.7607 189.913C70.3167 189.913 70.777 189.756 71.1416 189.441C71.5107 189.122 71.6953 188.655 71.6953 188.04V187.384ZM78.3535 189.838C78.5632 189.838 78.7705 189.82 78.9756 189.783C79.1807 189.742 79.3675 189.694 79.5361 189.64V190.856C79.3584 190.934 79.1283 191 78.8457 191.055C78.5632 191.109 78.2692 191.137 77.9639 191.137C77.5355 191.137 77.1504 191.066 76.8086 190.925C76.4668 190.779 76.1956 190.531 75.9951 190.18C75.7946 189.829 75.6943 189.343 75.6943 188.724V184.656H74.6621V183.938L75.7695 183.371L76.2959 181.751H77.3076V183.433H79.4746V184.656H77.3076V188.703C77.3076 189.086 77.4033 189.371 77.5947 189.558C77.7861 189.744 78.0391 189.838 78.3535 189.838ZM84.041 183.289C84.998 183.289 85.7204 183.501 86.208 183.925C86.7002 184.349 86.9463 185.009 86.9463 185.907V191H85.8047L85.4971 189.927H85.4424C85.2282 190.2 85.0072 190.426 84.7793 190.604C84.5514 190.781 84.2871 190.913 83.9863 191C83.6901 191.091 83.3278 191.137 82.8994 191.137C82.4482 191.137 82.0449 191.055 81.6895 190.891C81.334 190.722 81.0537 190.467 80.8486 190.125C80.6436 189.783 80.541 189.35 80.541 188.826C80.541 188.047 80.8304 187.461 81.4092 187.069C81.9925 186.677 82.8721 186.461 84.0479 186.42L85.3604 186.372V185.976C85.3604 185.451 85.2373 185.078 84.9912 184.854C84.7497 184.631 84.4079 184.52 83.9658 184.52C83.5876 184.52 83.2207 184.574 82.8652 184.684C82.5098 184.793 82.1634 184.927 81.8262 185.087L81.3066 183.952C81.6758 183.756 82.0951 183.597 82.5645 183.474C83.0384 183.351 83.5306 183.289 84.041 183.289ZM85.3535 187.384L84.376 187.418C83.5739 187.445 83.0111 187.582 82.6875 187.828C82.3639 188.074 82.2021 188.411 82.2021 188.84C82.2021 189.214 82.3138 189.487 82.5371 189.66C82.7604 189.829 83.0544 189.913 83.4189 189.913C83.9749 189.913 84.4352 189.756 84.7998 189.441C85.1689 189.122 85.3535 188.655 85.3535 188.04V187.384ZM99.0186 190.993L98.0615 187.473C98.016 187.299 97.9613 187.09 97.8975 186.844C97.8337 186.598 97.7699 186.345 97.7061 186.085C97.6423 185.821 97.583 185.577 97.5283 185.354C97.4782 185.13 97.4395 184.957 97.4121 184.834H97.3574C97.3346 184.957 97.2982 185.13 97.248 185.354C97.1979 185.577 97.141 185.821 97.0771 186.085C97.0133 186.349 96.9495 186.607 96.8857 186.857C96.8265 187.108 96.7718 187.322 96.7217 187.5L95.7168 190.993H93.9531L91.834 183.426H93.4609L94.4453 187.186C94.5091 187.441 94.5706 187.716 94.6299 188.013C94.6937 188.309 94.7484 188.591 94.7939 188.86C94.8395 189.129 94.8737 189.35 94.8965 189.523H94.9512C94.9694 189.4 94.9945 189.245 95.0264 189.059C95.0583 188.867 95.0947 188.669 95.1357 188.464C95.1768 188.254 95.2178 188.058 95.2588 187.876C95.2998 187.689 95.3385 187.539 95.375 187.425L96.5371 183.426H98.2939L99.4082 187.425C99.4583 187.598 99.513 187.817 99.5723 188.081C99.6315 188.341 99.6839 188.603 99.7295 188.867C99.7796 189.127 99.8115 189.343 99.8252 189.517H99.8799C99.8981 189.362 99.93 189.152 99.9756 188.888C100.026 188.619 100.083 188.334 100.146 188.033C100.21 187.728 100.276 187.445 100.345 187.186L101.35 183.426H102.949L100.816 190.993H99.0186ZM110.947 187.199C110.947 187.828 110.865 188.386 110.701 188.874C110.537 189.362 110.298 189.774 109.983 190.111C109.669 190.444 109.291 190.699 108.849 190.877C108.407 191.05 107.908 191.137 107.352 191.137C106.832 191.137 106.356 191.05 105.923 190.877C105.49 190.699 105.114 190.444 104.795 190.111C104.48 189.774 104.237 189.362 104.063 188.874C103.89 188.386 103.804 187.828 103.804 187.199C103.804 186.365 103.947 185.659 104.234 185.08C104.526 184.497 104.941 184.052 105.479 183.747C106.016 183.442 106.657 183.289 107.399 183.289C108.097 183.289 108.712 183.442 109.245 183.747C109.778 184.052 110.195 184.497 110.496 185.08C110.797 185.663 110.947 186.37 110.947 187.199ZM105.458 187.199C105.458 187.751 105.524 188.222 105.656 188.614C105.793 189.006 106.003 189.307 106.285 189.517C106.568 189.722 106.932 189.824 107.379 189.824C107.826 189.824 108.19 189.722 108.473 189.517C108.755 189.307 108.963 189.006 109.095 188.614C109.227 188.222 109.293 187.751 109.293 187.199C109.293 186.648 109.227 186.181 109.095 185.798C108.963 185.41 108.755 185.117 108.473 184.916C108.19 184.711 107.823 184.608 107.372 184.608C106.707 184.608 106.221 184.832 105.916 185.278C105.611 185.725 105.458 186.365 105.458 187.199ZM116.628 183.289C116.756 183.289 116.895 183.296 117.045 183.31C117.195 183.323 117.325 183.341 117.435 183.364L117.284 184.868C117.188 184.841 117.07 184.82 116.929 184.807C116.792 184.793 116.669 184.786 116.56 184.786C116.272 184.786 115.999 184.834 115.739 184.93C115.479 185.021 115.249 185.162 115.049 185.354C114.848 185.54 114.691 185.775 114.577 186.058C114.463 186.34 114.406 186.668 114.406 187.042V191H112.793V183.433H114.051L114.27 184.766H114.345C114.495 184.497 114.682 184.251 114.905 184.027C115.129 183.804 115.384 183.626 115.671 183.494C115.963 183.357 116.282 183.289 116.628 183.289ZM120.442 180.363V185.504C120.442 185.736 120.433 185.992 120.415 186.27C120.397 186.543 120.379 186.8 120.36 187.042H120.395C120.513 186.882 120.654 186.696 120.818 186.481C120.987 186.267 121.146 186.08 121.297 185.921L123.607 183.433H125.453L122.425 186.687L125.651 191H123.765L121.345 187.678L120.442 188.45V191H118.836V180.363H120.442Z" fill="white"/>
<rect width="914" height="48" transform="translate(0 210)" fill="#333333"/>
<rect x="16" y="218" width="32" height="32" rx="6" fill="#B679F2" fill-opacity="0.09"/>
<path d="M31.501 239H29.416V229.006H35.1445V230.742H31.501V233.319H34.8916V235.049H31.501V239Z" fill="#B679F2"/>
<path d="M58.9395 239H57.3125V229.006H62.959V230.387H58.9395V233.504H62.6992V234.878H58.9395V239ZM71.3125 235.199C71.3125 235.828 71.2305 236.386 71.0664 236.874C70.9023 237.362 70.6631 237.774 70.3486 238.111C70.0342 238.444 69.6559 238.699 69.2139 238.877C68.7718 239.05 68.2728 239.137 67.7168 239.137C67.1973 239.137 66.721 239.05 66.2881 238.877C65.8551 238.699 65.4792 238.444 65.1602 238.111C64.8457 237.774 64.6019 237.362 64.4287 236.874C64.2555 236.386 64.1689 235.828 64.1689 235.199C64.1689 234.365 64.3125 233.659 64.5996 233.08C64.8913 232.497 65.306 232.052 65.8438 231.747C66.3815 231.442 67.0218 231.289 67.7646 231.289C68.4619 231.289 69.0771 231.442 69.6104 231.747C70.1436 232.052 70.5605 232.497 70.8613 233.08C71.1621 233.663 71.3125 234.37 71.3125 235.199ZM65.8232 235.199C65.8232 235.751 65.8893 236.222 66.0215 236.614C66.1582 237.006 66.3678 237.307 66.6504 237.517C66.9329 237.722 67.2975 237.824 67.7441 237.824C68.1908 237.824 68.5553 237.722 68.8379 237.517C69.1204 237.307 69.3278 237.006 69.46 236.614C69.5921 236.222 69.6582 235.751 69.6582 235.199C69.6582 234.648 69.5921 234.181 69.46 233.798C69.3278 233.41 69.1204 233.117 68.8379 232.916C68.5553 232.711 68.1885 232.608 67.7373 232.608C67.0719 232.608 66.5866 232.832 66.2812 233.278C65.9759 233.725 65.8232 234.365 65.8232 235.199ZM76.9932 231.289C77.1208 231.289 77.2598 231.296 77.4102 231.31C77.5605 231.323 77.6904 231.341 77.7998 231.364L77.6494 232.868C77.5537 232.841 77.4352 232.82 77.2939 232.807C77.1572 232.793 77.0342 232.786 76.9248 232.786C76.6377 232.786 76.3643 232.834 76.1045 232.93C75.8447 233.021 75.6146 233.162 75.4141 233.354C75.2135 233.54 75.0563 233.775 74.9424 234.058C74.8285 234.34 74.7715 234.668 74.7715 235.042V239H73.1582V231.433H74.416L74.6348 232.766H74.71C74.8604 232.497 75.0472 232.251 75.2705 232.027C75.4938 231.804 75.749 231.626 76.0361 231.494C76.3278 231.357 76.6468 231.289 76.9932 231.289ZM87.7529 231.289C88.6006 231.289 89.2386 231.508 89.667 231.945C90.0999 232.383 90.3164 233.085 90.3164 234.051V239H88.71V234.338C88.71 233.764 88.5983 233.331 88.375 233.039C88.1517 232.747 87.8122 232.602 87.3564 232.602C86.7184 232.602 86.2581 232.807 85.9756 233.217C85.6976 233.622 85.5586 234.213 85.5586 234.987V239H83.9521V234.338C83.9521 233.955 83.902 233.636 83.8018 233.381C83.7061 233.121 83.5579 232.927 83.3574 232.8C83.1569 232.668 82.904 232.602 82.5986 232.602C82.1566 232.602 81.8034 232.702 81.5391 232.902C81.2793 233.103 81.0924 233.399 80.9785 233.791C80.8646 234.178 80.8076 234.655 80.8076 235.22V239H79.2012V231.433H80.4521L80.6777 232.451H80.7666C80.9215 232.187 81.113 231.97 81.3408 231.802C81.5732 231.629 81.8307 231.501 82.1133 231.419C82.3958 231.332 82.6898 231.289 82.9951 231.289C83.5602 231.289 84.0365 231.389 84.4238 231.59C84.8112 231.786 85.1006 232.087 85.292 232.492H85.415C85.652 232.082 85.9824 231.779 86.4062 231.583C86.8301 231.387 87.279 231.289 87.7529 231.289ZM97.6445 236.84C97.6445 237.337 97.5238 237.756 97.2822 238.098C97.0407 238.439 96.6875 238.699 96.2227 238.877C95.7624 239.05 95.1973 239.137 94.5273 239.137C93.9987 239.137 93.543 239.098 93.1602 239.021C92.7819 238.948 92.4242 238.834 92.0869 238.679V237.291C92.4469 237.46 92.8503 237.605 93.2969 237.729C93.748 237.852 94.1742 237.913 94.5752 237.913C95.1038 237.913 95.4844 237.831 95.7168 237.667C95.9492 237.498 96.0654 237.275 96.0654 236.997C96.0654 236.833 96.0176 236.687 95.9219 236.56C95.8307 236.427 95.6576 236.293 95.4023 236.156C95.1517 236.015 94.7826 235.846 94.2949 235.65C93.8164 235.459 93.4131 235.268 93.085 235.076C92.7568 234.885 92.5085 234.655 92.3398 234.386C92.1712 234.112 92.0869 233.764 92.0869 233.34C92.0869 232.67 92.3512 232.162 92.8799 231.815C93.4131 231.465 94.1172 231.289 94.9922 231.289C95.457 231.289 95.8945 231.337 96.3047 231.433C96.7194 231.524 97.125 231.658 97.5215 231.836L97.0156 233.046C96.6738 232.896 96.3298 232.772 95.9834 232.677C95.6416 232.576 95.293 232.526 94.9375 232.526C94.5228 232.526 94.2061 232.59 93.9873 232.718C93.7731 232.845 93.666 233.028 93.666 233.265C93.666 233.442 93.7184 233.593 93.8232 233.716C93.9281 233.839 94.1081 233.962 94.3633 234.085C94.623 234.208 94.9831 234.361 95.4434 234.543C95.8945 234.716 96.2842 234.898 96.6123 235.09C96.945 235.277 97.2002 235.507 97.3779 235.78C97.5557 236.054 97.6445 236.407 97.6445 236.84Z" fill="white"/>
<rect width="914" height="48" transform="translate(0 258)" fill="#333333"/>
<rect x="16" y="266" width="32" height="32" rx="6" fill="#6191F2" fill-opacity="0.09"/>
<path d="M27.6455 281.388H31.6104V286.569C30.9678 286.779 30.3617 286.925 29.792 287.007C29.2269 287.093 28.6481 287.137 28.0557 287.137C26.5472 287.137 25.3942 286.695 24.5967 285.811C23.8037 284.922 23.4072 283.648 23.4072 281.989C23.4072 280.376 23.8675 279.118 24.7881 278.216C25.7132 277.313 26.9938 276.862 28.6299 276.862C29.6553 276.862 30.6442 277.067 31.5967 277.478L30.8926 279.173C30.1634 278.808 29.4046 278.626 28.6162 278.626C27.7002 278.626 26.9665 278.934 26.415 279.549C25.8636 280.164 25.5879 280.991 25.5879 282.03C25.5879 283.115 25.8089 283.944 26.251 284.519C26.6976 285.088 27.3447 285.373 28.1924 285.373C28.6344 285.373 29.0833 285.327 29.5391 285.236V283.151H27.6455V281.388ZM35.4932 283.165C35.4932 283.922 35.6162 284.493 35.8623 284.881C36.113 285.268 36.5186 285.462 37.0791 285.462C37.6351 285.462 38.0339 285.271 38.2754 284.888C38.5215 284.5 38.6445 283.926 38.6445 283.165C38.6445 282.409 38.5215 281.841 38.2754 281.463C38.0293 281.085 37.626 280.896 37.0654 280.896C36.5094 280.896 36.1084 281.085 35.8623 281.463C35.6162 281.837 35.4932 282.404 35.4932 283.165ZM40.7773 283.165C40.7773 284.409 40.4492 285.382 39.793 286.084C39.1367 286.786 38.223 287.137 37.0518 287.137C36.318 287.137 35.6709 286.977 35.1104 286.658C34.5498 286.335 34.1191 285.872 33.8184 285.271C33.5176 284.669 33.3672 283.967 33.3672 283.165C33.3672 281.916 33.693 280.946 34.3447 280.253C34.9964 279.56 35.9124 279.214 37.0928 279.214C37.8265 279.214 38.4736 279.373 39.0342 279.692C39.5947 280.011 40.0254 280.469 40.3262 281.066C40.627 281.663 40.7773 282.363 40.7773 283.165Z" fill="#6191F2"/>
<path d="M61.3457 281.572H65.0781V286.59C64.554 286.763 64.0117 286.897 63.4512 286.993C62.8906 287.089 62.2617 287.137 61.5645 287.137C60.5482 287.137 59.6868 286.936 58.9805 286.535C58.2786 286.13 57.7454 285.544 57.3809 284.778C57.0163 284.008 56.834 283.081 56.834 281.996C56.834 280.952 57.0368 280.048 57.4424 279.282C57.848 278.512 58.4382 277.917 59.2129 277.498C59.9876 277.074 60.9264 276.862 62.0293 276.862C62.5716 276.862 63.0957 276.917 63.6016 277.026C64.112 277.131 64.5791 277.277 65.0029 277.464L64.4287 278.817C64.0915 278.658 63.7132 278.523 63.2939 278.414C62.8747 278.305 62.4395 278.25 61.9883 278.25C61.2728 278.25 60.6553 278.405 60.1357 278.715C59.6208 279.025 59.2243 279.462 58.9463 280.027C58.6683 280.588 58.5293 281.251 58.5293 282.017C58.5293 282.759 58.641 283.411 58.8643 283.972C59.0876 284.532 59.4362 284.97 59.9102 285.284C60.3887 285.594 61.0062 285.749 61.7627 285.749C62.141 285.749 62.4622 285.729 62.7266 285.688C62.9909 285.646 63.2347 285.601 63.458 285.551V282.974H61.3457V281.572ZM70.3213 279.289C70.9958 279.289 71.5745 279.428 72.0576 279.706C72.5407 279.984 72.9121 280.378 73.1719 280.889C73.4316 281.399 73.5615 282.01 73.5615 282.721V283.582H68.5098C68.528 284.316 68.724 284.881 69.0977 285.277C69.4759 285.674 70.0046 285.872 70.6836 285.872C71.1667 285.872 71.5996 285.826 71.9824 285.735C72.3698 285.64 72.7686 285.501 73.1787 285.318V286.624C72.8005 286.802 72.4154 286.932 72.0234 287.014C71.6315 287.096 71.1621 287.137 70.6152 287.137C69.8724 287.137 69.2184 286.993 68.6533 286.706C68.0928 286.414 67.653 285.981 67.334 285.407C67.0195 284.833 66.8623 284.12 66.8623 283.268C66.8623 282.42 67.0059 281.7 67.293 281.107C67.5801 280.515 67.9834 280.064 68.5029 279.754C69.0225 279.444 69.6286 279.289 70.3213 279.289ZM70.3213 280.499C69.8154 280.499 69.4053 280.663 69.0908 280.991C68.7809 281.319 68.5986 281.8 68.5439 282.434H71.9893C71.9847 282.055 71.9209 281.72 71.7979 281.429C71.6794 281.137 71.4971 280.909 71.251 280.745C71.0094 280.581 70.6995 280.499 70.3213 280.499ZM78.1895 285.838C78.3991 285.838 78.6064 285.82 78.8115 285.783C79.0166 285.742 79.2035 285.694 79.3721 285.64V286.856C79.1943 286.934 78.9642 287 78.6816 287.055C78.3991 287.109 78.1051 287.137 77.7998 287.137C77.3714 287.137 76.9863 287.066 76.6445 286.925C76.3027 286.779 76.0316 286.531 75.8311 286.18C75.6305 285.829 75.5303 285.343 75.5303 284.724V280.656H74.498V279.938L75.6055 279.371L76.1318 277.751H77.1436V279.433H79.3105V280.656H77.1436V284.703C77.1436 285.086 77.2393 285.371 77.4307 285.558C77.6221 285.744 77.875 285.838 78.1895 285.838ZM88.3818 279.289C88.5094 279.289 88.6484 279.296 88.7988 279.31C88.9492 279.323 89.0791 279.341 89.1885 279.364L89.0381 280.868C88.9424 280.841 88.8239 280.82 88.6826 280.807C88.5459 280.793 88.4229 280.786 88.3135 280.786C88.0264 280.786 87.7529 280.834 87.4932 280.93C87.2334 281.021 87.0033 281.162 86.8027 281.354C86.6022 281.54 86.445 281.775 86.3311 282.058C86.2171 282.34 86.1602 282.668 86.1602 283.042V287H84.5469V279.433H85.8047L86.0234 280.766H86.0986C86.249 280.497 86.4359 280.251 86.6592 280.027C86.8825 279.804 87.1377 279.626 87.4248 279.494C87.7165 279.357 88.0355 279.289 88.3818 279.289ZM92.1963 279.433V287H90.5898V279.433H92.1963ZM91.4033 276.534C91.6494 276.534 91.8613 276.6 92.0391 276.732C92.2214 276.865 92.3125 277.092 92.3125 277.416C92.3125 277.735 92.2214 277.963 92.0391 278.1C91.8613 278.232 91.6494 278.298 91.4033 278.298C91.1481 278.298 90.9316 278.232 90.7539 278.1C90.5807 277.963 90.4941 277.735 90.4941 277.416C90.4941 277.092 90.5807 276.865 90.7539 276.732C90.9316 276.6 91.1481 276.534 91.4033 276.534ZM97.043 287.137C96.1406 287.137 95.416 286.809 94.8691 286.152C94.3268 285.492 94.0557 284.519 94.0557 283.233C94.0557 281.935 94.3314 280.952 94.8828 280.287C95.4388 279.622 96.1702 279.289 97.0771 279.289C97.46 279.289 97.7949 279.341 98.082 279.446C98.3691 279.547 98.6152 279.683 98.8203 279.856C99.0299 280.03 99.2077 280.223 99.3535 280.438H99.4287C99.4059 280.296 99.3786 280.093 99.3467 279.829C99.3193 279.56 99.3057 279.312 99.3057 279.084V276.363H100.919V287H99.6611L99.374 285.968H99.3057C99.1689 286.187 98.9958 286.385 98.7861 286.562C98.5811 286.736 98.335 286.875 98.0479 286.979C97.7653 287.084 97.4303 287.137 97.043 287.137ZM97.4941 285.831C98.1823 285.831 98.6676 285.633 98.9502 285.236C99.2327 284.84 99.3786 284.245 99.3877 283.452V283.24C99.3877 282.393 99.251 281.743 98.9775 281.292C98.7041 280.836 98.2051 280.608 97.4805 280.608C96.9017 280.608 96.4596 280.843 96.1543 281.312C95.8535 281.777 95.7031 282.427 95.7031 283.261C95.7031 284.095 95.8535 284.733 96.1543 285.175C96.4596 285.612 96.9062 285.831 97.4941 285.831ZM113.559 283.199C113.559 283.828 113.477 284.386 113.312 284.874C113.148 285.362 112.909 285.774 112.595 286.111C112.28 286.444 111.902 286.699 111.46 286.877C111.018 287.05 110.519 287.137 109.963 287.137C109.443 287.137 108.967 287.05 108.534 286.877C108.101 286.699 107.725 286.444 107.406 286.111C107.092 285.774 106.848 285.362 106.675 284.874C106.502 284.386 106.415 283.828 106.415 283.199C106.415 282.365 106.559 281.659 106.846 281.08C107.137 280.497 107.552 280.052 108.09 279.747C108.628 279.442 109.268 279.289 110.011 279.289C110.708 279.289 111.323 279.442 111.856 279.747C112.39 280.052 112.807 280.497 113.107 281.08C113.408 281.663 113.559 282.37 113.559 283.199ZM108.069 283.199C108.069 283.751 108.135 284.222 108.268 284.614C108.404 285.006 108.614 285.307 108.896 285.517C109.179 285.722 109.544 285.824 109.99 285.824C110.437 285.824 110.801 285.722 111.084 285.517C111.367 285.307 111.574 285.006 111.706 284.614C111.838 284.222 111.904 283.751 111.904 283.199C111.904 282.648 111.838 282.181 111.706 281.798C111.574 281.41 111.367 281.117 111.084 280.916C110.801 280.711 110.435 280.608 109.983 280.608C109.318 280.608 108.833 280.832 108.527 281.278C108.222 281.725 108.069 282.365 108.069 283.199ZM119.185 280.656H117.346V287H115.739V280.656H114.502V279.884L115.739 279.412V278.886C115.739 278.243 115.84 277.733 116.04 277.354C116.245 276.976 116.537 276.705 116.915 276.541C117.298 276.372 117.754 276.288 118.282 276.288C118.629 276.288 118.945 276.318 119.232 276.377C119.52 276.432 119.761 276.495 119.957 276.568L119.54 277.785C119.385 277.735 119.212 277.689 119.021 277.648C118.829 277.603 118.624 277.58 118.405 277.58C118.041 277.58 117.772 277.694 117.599 277.922C117.43 278.15 117.346 278.482 117.346 278.92V279.433H119.185V280.656Z" fill="white"/>
<rect width="914" height="48" transform="translate(0 306)" fill="#333333"/>
<rect x="16" y="314" width="32" height="32" rx="6" fill="#1FCECB" fill-opacity="0.09"/>
</g>
<defs>
<clipPath id="clip0_188_21340">
<rect width="550" height="318" fill="white"/>
</clipPath>
<clipPath id="clip1_188_21340">
<rect x="16" y="70" width="882" height="32" rx="3" fill="white"/>
</clipPath>
</defs>
</svg>
