<svg width="624" height="444" viewBox="0 0 624 444" fill="none" xmlns="http://www.w3.org/2000/svg">
<g clip-path="url(#clip0_188_16613)">
<rect width="624" height="444" fill="white"/>
<rect width="624" height="530" fill="white"/>
<rect width="624" height="530" fill="#333333"/>
<rect width="624" height="54" fill="#333333"/>
<rect width="592" height="53" transform="translate(16)" fill="#333333"/>
<path d="M26.7358 29.8369C26.7358 31.1904 26.2471 32.2568 25.2695 33.0361C24.2988 33.8154 22.9453 34.2051 21.209 34.2051C19.6094 34.2051 18.1943 33.9043 16.9639 33.3027V30.3496C17.9756 30.8008 18.8301 31.1187 19.5273 31.3032C20.2314 31.4878 20.874 31.5801 21.4551 31.5801C22.1523 31.5801 22.6855 31.4468 23.0547 31.1802C23.4307 30.9136 23.6187 30.5171 23.6187 29.9907C23.6187 29.6968 23.5366 29.437 23.3726 29.2114C23.2085 28.979 22.9658 28.7568 22.6445 28.5449C22.3301 28.333 21.6841 27.9946 20.7065 27.5298C19.7905 27.0991 19.1035 26.6855 18.6455 26.2891C18.1875 25.8926 17.8218 25.4312 17.5483 24.9048C17.2749 24.3784 17.1382 23.7632 17.1382 23.0591C17.1382 21.7329 17.5859 20.6904 18.4814 19.9316C19.3838 19.1729 20.6279 18.7935 22.2139 18.7935C22.9932 18.7935 23.7349 18.8857 24.439 19.0703C25.1499 19.2549 25.8916 19.5146 26.6641 19.8496L25.6387 22.3208C24.8389 21.9927 24.1758 21.7637 23.6494 21.6338C23.1299 21.5039 22.6172 21.439 22.1113 21.439C21.5098 21.439 21.0483 21.5791 20.7271 21.8594C20.4058 22.1396 20.2451 22.5054 20.2451 22.9565C20.2451 23.2368 20.3101 23.4829 20.4399 23.6948C20.5698 23.8999 20.7749 24.1016 21.0552 24.2998C21.3423 24.4912 22.0156 24.8398 23.0752 25.3457C24.4766 26.0156 25.437 26.689 25.9565 27.3657C26.4761 28.0356 26.7358 28.8594 26.7358 29.8369ZM33.9546 24.5459C33.2915 24.5459 32.772 24.7578 32.396 25.1816C32.02 25.5986 31.8047 26.1934 31.75 26.9658H36.1387C36.125 26.1934 35.9233 25.5986 35.5337 25.1816C35.144 24.7578 34.6177 24.5459 33.9546 24.5459ZM34.3955 34.2051C32.5498 34.2051 31.1074 33.6958 30.0684 32.6772C29.0293 31.6587 28.5098 30.2163 28.5098 28.3501C28.5098 26.4292 28.9883 24.9458 29.9453 23.8999C30.9092 22.8472 32.2388 22.3208 33.9341 22.3208C35.5542 22.3208 36.8154 22.7822 37.7178 23.7051C38.6201 24.6279 39.0713 25.9028 39.0713 27.5298V29.0474H31.6782C31.7124 29.936 31.9756 30.6299 32.4678 31.1289C32.96 31.6279 33.6504 31.8774 34.5391 31.8774C35.2295 31.8774 35.8823 31.8057 36.4976 31.6621C37.1128 31.5186 37.7554 31.2896 38.4253 30.9751V33.395C37.8784 33.6685 37.2939 33.8701 36.6719 34C36.0498 34.1367 35.291 34.2051 34.3955 34.2051ZM44.7417 34H41.6143V18.0449H44.7417V34ZM52.7808 24.5459C52.1177 24.5459 51.5981 24.7578 51.2222 25.1816C50.8462 25.5986 50.6309 26.1934 50.5762 26.9658H54.9648C54.9512 26.1934 54.7495 25.5986 54.3599 25.1816C53.9702 24.7578 53.4438 24.5459 52.7808 24.5459ZM53.2217 34.2051C51.376 34.2051 49.9336 33.6958 48.8945 32.6772C47.8555 31.6587 47.3359 30.2163 47.3359 28.3501C47.3359 26.4292 47.8145 24.9458 48.7715 23.8999C49.7354 22.8472 51.0649 22.3208 52.7603 22.3208C54.3804 22.3208 55.6416 22.7822 56.5439 23.7051C57.4463 24.6279 57.8975 25.9028 57.8975 27.5298V29.0474H50.5044C50.5386 29.936 50.8018 30.6299 51.2939 31.1289C51.7861 31.6279 52.4766 31.8774 53.3652 31.8774C54.0557 31.8774 54.7085 31.8057 55.3237 31.6621C55.939 31.5186 56.5815 31.2896 57.2515 30.9751V33.395C56.7046 33.6685 56.1201 33.8701 55.498 34C54.876 34.1367 54.1172 34.2051 53.2217 34.2051ZM65.0957 34.2051C61.5273 34.2051 59.7432 32.2466 59.7432 28.3296C59.7432 26.3813 60.2285 24.8945 61.1992 23.8691C62.1699 22.8369 63.561 22.3208 65.3726 22.3208C66.6987 22.3208 67.8882 22.5806 68.9409 23.1001L68.0181 25.52C67.5259 25.3218 67.0679 25.1611 66.644 25.0381C66.2202 24.9082 65.7964 24.8433 65.3726 24.8433C63.7456 24.8433 62.9321 25.9985 62.9321 28.3091C62.9321 30.5513 63.7456 31.6724 65.3726 31.6724C65.9741 31.6724 66.5312 31.5938 67.0439 31.4365C67.5566 31.2725 68.0693 31.0195 68.582 30.6777V33.354C68.0762 33.6753 67.5635 33.8975 67.0439 34.0205C66.5312 34.1436 65.8818 34.2051 65.0957 34.2051ZM76.0776 31.7134C76.6245 31.7134 77.2808 31.5938 78.0464 31.3545V33.6821C77.2671 34.0308 76.3101 34.2051 75.1753 34.2051C73.9243 34.2051 73.0117 33.8906 72.4375 33.2617C71.8701 32.626 71.5864 31.6758 71.5864 30.4111V24.8843H70.0894V23.5615L71.812 22.5156L72.7144 20.0957H74.7139V22.5361H77.9233V24.8843H74.7139V30.4111C74.7139 30.8555 74.8369 31.1836 75.083 31.3955C75.3359 31.6074 75.6675 31.7134 76.0776 31.7134ZM92.166 24.8843H89.459V34H86.3315V24.8843H84.6089V23.377L86.3315 22.5361V21.6953C86.3315 20.3896 86.6528 19.436 87.2954 18.8345C87.938 18.2329 88.9668 17.9321 90.3818 17.9321C91.4619 17.9321 92.4224 18.0928 93.2632 18.4141L92.4634 20.7109C91.8345 20.5127 91.2534 20.4136 90.7202 20.4136C90.2759 20.4136 89.9546 20.5469 89.7563 20.8135C89.5581 21.0732 89.459 21.4082 89.459 21.8184V22.5361H92.166V24.8843ZM93.8374 19.5728C93.8374 18.5542 94.4048 18.0449 95.5396 18.0449C96.6743 18.0449 97.2417 18.5542 97.2417 19.5728C97.2417 20.0581 97.0981 20.4375 96.811 20.7109C96.5308 20.9775 96.1069 21.1108 95.5396 21.1108C94.4048 21.1108 93.8374 20.5981 93.8374 19.5728ZM97.0981 34H93.9707V22.5361H97.0981V34ZM103.517 34H100.39V18.0449H103.517V34ZM111.556 24.5459C110.893 24.5459 110.374 24.7578 109.998 25.1816C109.622 25.5986 109.406 26.1934 109.352 26.9658H113.74C113.727 26.1934 113.525 25.5986 113.135 25.1816C112.746 24.7578 112.219 24.5459 111.556 24.5459ZM111.997 34.2051C110.151 34.2051 108.709 33.6958 107.67 32.6772C106.631 31.6587 106.111 30.2163 106.111 28.3501C106.111 26.4292 106.59 24.9458 107.547 23.8999C108.511 22.8472 109.84 22.3208 111.536 22.3208C113.156 22.3208 114.417 22.7822 115.319 23.7051C116.222 24.6279 116.673 25.9028 116.673 27.5298V29.0474H109.28C109.314 29.936 109.577 30.6299 110.069 31.1289C110.562 31.6279 111.252 31.8774 112.141 31.8774C112.831 31.8774 113.484 31.8057 114.099 31.6621C114.714 31.5186 115.357 31.2896 116.027 30.9751V33.395C115.48 33.6685 114.896 33.8701 114.273 34C113.651 34.1367 112.893 34.2051 111.997 34.2051Z" fill="white"/>
<rect y="53" width="624" height="1" fill="#474747"/>
<rect width="624" height="46" transform="translate(0 54)" fill="#333333"/>
<path d="M26.7734 77.1797C26.7734 78.4661 26.5339 79.5417 26.0547 80.4062C25.5755 81.2656 24.8802 81.9141 23.9688 82.3516C23.0573 82.7839 21.9583 83 20.6719 83H17.5V71.5781H21.0156C22.1979 71.5781 23.2188 71.7917 24.0781 72.2188C24.9375 72.6406 25.6016 73.2682 26.0703 74.1016C26.5391 74.9297 26.7734 75.9557 26.7734 77.1797ZM24.8203 77.2344C24.8203 76.2969 24.6719 75.526 24.375 74.9219C24.0833 74.3177 23.651 73.8698 23.0781 73.5781C22.5104 73.2812 21.8099 73.1328 20.9766 73.1328H19.375V81.4297H20.7031C22.0833 81.4297 23.1146 81.0781 23.7969 80.375C24.4792 79.6719 24.8203 78.625 24.8203 77.2344ZM36.7031 78.6562C36.7031 79.375 36.6094 80.013 36.4219 80.5703C36.2344 81.1276 35.9609 81.599 35.6016 81.9844C35.2422 82.3646 34.8099 82.6562 34.3047 82.8594C33.7995 83.0573 33.2292 83.1562 32.5938 83.1562C32 83.1562 31.4557 83.0573 30.9609 82.8594C30.4661 82.6562 30.0365 82.3646 29.6719 81.9844C29.3125 81.599 29.0339 81.1276 28.8359 80.5703C28.638 80.013 28.5391 79.375 28.5391 78.6562C28.5391 77.7031 28.7031 76.8958 29.0312 76.2344C29.3646 75.5677 29.8385 75.0599 30.4531 74.7109C31.0677 74.362 31.7995 74.1875 32.6484 74.1875C33.4453 74.1875 34.1484 74.362 34.7578 74.7109C35.3672 75.0599 35.8438 75.5677 36.1875 76.2344C36.5312 76.901 36.7031 77.7083 36.7031 78.6562ZM30.4297 78.6562C30.4297 79.2865 30.5052 79.8255 30.6562 80.2734C30.8125 80.7214 31.0521 81.0651 31.375 81.3047C31.6979 81.5391 32.1146 81.6562 32.625 81.6562C33.1354 81.6562 33.5521 81.5391 33.875 81.3047C34.1979 81.0651 34.4349 80.7214 34.5859 80.2734C34.737 79.8255 34.8125 79.2865 34.8125 78.6562C34.8125 78.026 34.737 77.4922 34.5859 77.0547C34.4349 76.612 34.1979 76.276 33.875 76.0469C33.5521 75.8125 33.1328 75.6953 32.6172 75.6953C31.8568 75.6953 31.3021 75.9505 30.9531 76.4609C30.6042 76.9714 30.4297 77.7031 30.4297 78.6562ZM42.2969 83.1562C41.4792 83.1562 40.7708 82.9974 40.1719 82.6797C39.5729 82.362 39.112 81.875 38.7891 81.2188C38.4661 80.5625 38.3047 79.7292 38.3047 78.7188C38.3047 77.6667 38.4818 76.8073 38.8359 76.1406C39.1901 75.474 39.6797 74.9818 40.3047 74.6641C40.9349 74.3464 41.6562 74.1875 42.4688 74.1875C42.9844 74.1875 43.4505 74.2396 43.8672 74.3438C44.2891 74.4427 44.6458 74.5651 44.9375 74.7109L44.3906 76.1797C44.0729 76.0495 43.7474 75.9401 43.4141 75.8516C43.0807 75.763 42.7604 75.7188 42.4531 75.7188C41.9479 75.7188 41.526 75.8307 41.1875 76.0547C40.8542 76.2786 40.6042 76.612 40.4375 77.0547C40.276 77.4974 40.1953 78.0469 40.1953 78.7031C40.1953 79.3385 40.2786 79.875 40.4453 80.3125C40.612 80.7448 40.8594 81.0729 41.1875 81.2969C41.5156 81.5156 41.9193 81.625 42.3984 81.625C42.8724 81.625 43.2969 81.5677 43.6719 81.4531C44.0469 81.3385 44.401 81.1901 44.7344 81.0078V82.6016C44.4062 82.7891 44.0547 82.9271 43.6797 83.0156C43.3047 83.1094 42.8438 83.1562 42.2969 83.1562ZM53.5469 79.8906C53.5469 80.5677 53.3802 81.151 53.0469 81.6406C52.7188 82.1302 52.2448 82.5052 51.625 82.7656C51.0104 83.026 50.276 83.1562 49.4219 83.1562C49.0052 83.1562 48.6068 83.1328 48.2266 83.0859C47.8464 83.0391 47.487 82.9714 47.1484 82.8828C46.8151 82.7891 46.5104 82.6771 46.2344 82.5469V80.7812C46.6979 80.9844 47.2161 81.1693 47.7891 81.3359C48.362 81.4974 48.9453 81.5781 49.5391 81.5781C50.0234 81.5781 50.4245 81.5156 50.7422 81.3906C51.0651 81.2604 51.3047 81.0781 51.4609 80.8438C51.6172 80.6042 51.6953 80.3255 51.6953 80.0078C51.6953 79.6693 51.6042 79.3828 51.4219 79.1484C51.2396 78.9141 50.9635 78.7005 50.5938 78.5078C50.2292 78.3099 49.7708 78.099 49.2188 77.875C48.8438 77.724 48.4844 77.5521 48.1406 77.3594C47.8021 77.1667 47.5 76.9401 47.2344 76.6797C46.9688 76.4193 46.7578 76.112 46.6016 75.7578C46.4505 75.3984 46.375 74.9766 46.375 74.4922C46.375 73.8464 46.5286 73.2943 46.8359 72.8359C47.1484 72.3776 47.5859 72.026 48.1484 71.7812C48.7161 71.5365 49.3776 71.4141 50.1328 71.4141C50.7318 71.4141 51.2943 71.4766 51.8203 71.6016C52.3516 71.7266 52.8724 71.9036 53.3828 72.1328L52.7891 73.6406C52.3203 73.4479 51.8646 73.2943 51.4219 73.1797C50.9844 73.0651 50.5365 73.0078 50.0781 73.0078C49.6823 73.0078 49.3464 73.0677 49.0703 73.1875C48.7943 73.3073 48.5833 73.4766 48.4375 73.6953C48.2969 73.9089 48.2266 74.1641 48.2266 74.4609C48.2266 74.7943 48.3073 75.0755 48.4688 75.3047C48.6354 75.5286 48.8906 75.7344 49.2344 75.9219C49.5833 76.1094 50.0312 76.3177 50.5781 76.5469C51.2083 76.8073 51.7422 77.0807 52.1797 77.3672C52.6224 77.6536 52.9609 77.9974 53.1953 78.3984C53.4297 78.7943 53.5469 79.2917 53.5469 79.8906ZM60 74.1875C61.026 74.1875 61.849 74.5625 62.4688 75.3125C63.0938 76.0625 63.4062 77.1771 63.4062 78.6562C63.4062 79.6354 63.2604 80.4609 62.9688 81.1328C62.6823 81.7995 62.2786 82.3047 61.7578 82.6484C61.2422 82.987 60.6406 83.1562 59.9531 83.1562C59.5156 83.1562 59.1354 83.099 58.8125 82.9844C58.4896 82.8698 58.2135 82.7214 57.9844 82.5391C57.7552 82.3516 57.5625 82.1484 57.4062 81.9297H57.2969C57.3229 82.138 57.3464 82.3698 57.3672 82.625C57.3932 82.875 57.4062 83.1042 57.4062 83.3125V86.8359H55.5625V74.3516H57.0625L57.3203 75.5469H57.4062C57.5677 75.3021 57.763 75.0755 57.9922 74.8672C58.2266 74.6589 58.5078 74.4948 58.8359 74.375C59.1693 74.25 59.5573 74.1875 60 74.1875ZM59.5078 75.6875C59.0026 75.6875 58.5964 75.7891 58.2891 75.9922C57.987 76.1901 57.7656 76.4896 57.625 76.8906C57.4896 77.2917 57.4167 77.7943 57.4062 78.3984V78.6562C57.4062 79.2969 57.4714 79.8411 57.6016 80.2891C57.737 80.7318 57.9583 81.0703 58.2656 81.3047C58.5781 81.5339 59 81.6484 59.5312 81.6484C59.9792 81.6484 60.349 81.526 60.6406 81.2812C60.9375 81.0365 61.1589 80.6875 61.3047 80.2344C61.4505 79.7812 61.5234 79.2474 61.5234 78.6328C61.5234 77.7005 61.3568 76.9766 61.0234 76.4609C60.6953 75.9453 60.1901 75.6875 59.5078 75.6875ZM68.9219 74.1875C70.0156 74.1875 70.8411 74.4297 71.3984 74.9141C71.9609 75.3984 72.2422 76.1536 72.2422 77.1797V83H70.9375L70.5859 81.7734H70.5234C70.2786 82.0859 70.026 82.3438 69.7656 82.5469C69.5052 82.75 69.2031 82.901 68.8594 83C68.5208 83.1042 68.1068 83.1562 67.6172 83.1562C67.1016 83.1562 66.6406 83.0625 66.2344 82.875C65.8281 82.6823 65.5078 82.3906 65.2734 82C65.0391 81.6094 64.9219 81.1146 64.9219 80.5156C64.9219 79.625 65.2526 78.9557 65.9141 78.5078C66.5807 78.0599 67.5859 77.8125 68.9297 77.7656L70.4297 77.7109V77.2578C70.4297 76.6589 70.2891 76.2318 70.0078 75.9766C69.7318 75.7214 69.3411 75.5938 68.8359 75.5938C68.4036 75.5938 67.9844 75.6562 67.5781 75.7812C67.1719 75.9062 66.776 76.0599 66.3906 76.2422L65.7969 74.9453C66.2188 74.7214 66.6979 74.5391 67.2344 74.3984C67.776 74.2578 68.3385 74.1875 68.9219 74.1875ZM70.4219 78.8672L69.3047 78.9062C68.388 78.9375 67.7448 79.0938 67.375 79.375C67.0052 79.6562 66.8203 80.0417 66.8203 80.5312C66.8203 80.9583 66.9479 81.2708 67.2031 81.4688C67.4583 81.6615 67.7943 81.7578 68.2109 81.7578C68.8464 81.7578 69.3724 81.5781 69.7891 81.2188C70.2109 80.8542 70.4219 80.3203 70.4219 79.6172V78.8672ZM78.2969 83.1562C77.4792 83.1562 76.7708 82.9974 76.1719 82.6797C75.5729 82.362 75.112 81.875 74.7891 81.2188C74.4661 80.5625 74.3047 79.7292 74.3047 78.7188C74.3047 77.6667 74.4818 76.8073 74.8359 76.1406C75.1901 75.474 75.6797 74.9818 76.3047 74.6641C76.9349 74.3464 77.6562 74.1875 78.4688 74.1875C78.9844 74.1875 79.4505 74.2396 79.8672 74.3438C80.2891 74.4427 80.6458 74.5651 80.9375 74.7109L80.3906 76.1797C80.0729 76.0495 79.7474 75.9401 79.4141 75.8516C79.0807 75.763 78.7604 75.7188 78.4531 75.7188C77.9479 75.7188 77.526 75.8307 77.1875 76.0547C76.8542 76.2786 76.6042 76.612 76.4375 77.0547C76.276 77.4974 76.1953 78.0469 76.1953 78.7031C76.1953 79.3385 76.2786 79.875 76.4453 80.3125C76.612 80.7448 76.8594 81.0729 77.1875 81.2969C77.5156 81.5156 77.9193 81.625 78.3984 81.625C78.8724 81.625 79.2969 81.5677 79.6719 81.4531C80.0469 81.3385 80.401 81.1901 80.7344 81.0078V82.6016C80.4062 82.7891 80.0547 82.9271 79.6797 83.0156C79.3047 83.1094 78.8438 83.1562 78.2969 83.1562ZM86.2109 74.1875C86.9818 74.1875 87.6432 74.3464 88.1953 74.6641C88.7474 74.9818 89.1719 75.4323 89.4688 76.0156C89.7656 76.599 89.9141 77.2969 89.9141 78.1094V79.0938H84.1406C84.1615 79.9323 84.3854 80.5781 84.8125 81.0312C85.2448 81.4844 85.849 81.7109 86.625 81.7109C87.1771 81.7109 87.6719 81.6589 88.1094 81.5547C88.5521 81.4453 89.0078 81.2865 89.4766 81.0781V82.5703C89.0443 82.7734 88.6042 82.9219 88.1562 83.0156C87.7083 83.1094 87.1719 83.1562 86.5469 83.1562C85.6979 83.1562 84.9505 82.9922 84.3047 82.6641C83.6641 82.3307 83.1615 81.8359 82.7969 81.1797C82.4375 80.5234 82.2578 79.7083 82.2578 78.7344C82.2578 77.7656 82.4219 76.9427 82.75 76.2656C83.0781 75.5885 83.5391 75.0729 84.1328 74.7188C84.7266 74.3646 85.4193 74.1875 86.2109 74.1875ZM86.2109 75.5703C85.6328 75.5703 85.1641 75.7578 84.8047 76.1328C84.4505 76.5078 84.2422 77.0573 84.1797 77.7812H88.1172C88.112 77.349 88.0391 76.9661 87.8984 76.6328C87.763 76.2995 87.5547 76.0391 87.2734 75.8516C86.9974 75.6641 86.6432 75.5703 86.2109 75.5703Z" fill="#ADADAD"/>
<path fill-rule="evenodd" clip-rule="evenodd" d="M106.586 78L102.293 73.7071L103.707 72.2928L108.707 77.2928C109.098 77.6834 109.098 78.3165 108.707 78.7071L103.707 83.7071L102.293 82.2928L106.586 78Z" fill="#ADADAD"/>
<path d="M123.711 71.5781C124.695 71.5781 125.508 71.6979 126.148 71.9375C126.794 72.1771 127.273 72.5417 127.586 73.0312C127.904 73.5208 128.062 74.1432 128.062 74.8984C128.062 75.4609 127.958 75.9401 127.75 76.3359C127.542 76.7318 127.268 77.0599 126.93 77.3203C126.591 77.5807 126.229 77.7891 125.844 77.9453L129.086 83H126.969L124.211 78.4219H122.375V83H120.5V71.5781H123.711ZM123.586 73.1406H122.375V76.875H123.672C124.542 76.875 125.172 76.7135 125.562 76.3906C125.958 76.0677 126.156 75.5911 126.156 74.9609C126.156 74.2995 125.945 73.8307 125.523 73.5547C125.107 73.2786 124.461 73.1406 123.586 73.1406ZM138.188 78.6562C138.188 79.375 138.094 80.013 137.906 80.5703C137.719 81.1276 137.445 81.599 137.086 81.9844C136.727 82.3646 136.294 82.6562 135.789 82.8594C135.284 83.0573 134.714 83.1562 134.078 83.1562C133.484 83.1562 132.94 83.0573 132.445 82.8594C131.951 82.6562 131.521 82.3646 131.156 81.9844C130.797 81.599 130.518 81.1276 130.32 80.5703C130.122 80.013 130.023 79.375 130.023 78.6562C130.023 77.7031 130.188 76.8958 130.516 76.2344C130.849 75.5677 131.323 75.0599 131.938 74.7109C132.552 74.362 133.284 74.1875 134.133 74.1875C134.93 74.1875 135.633 74.362 136.242 74.7109C136.852 75.0599 137.328 75.5677 137.672 76.2344C138.016 76.901 138.188 77.7083 138.188 78.6562ZM131.914 78.6562C131.914 79.2865 131.99 79.8255 132.141 80.2734C132.297 80.7214 132.536 81.0651 132.859 81.3047C133.182 81.5391 133.599 81.6562 134.109 81.6562C134.62 81.6562 135.036 81.5391 135.359 81.3047C135.682 81.0651 135.919 80.7214 136.07 80.2734C136.221 79.8255 136.297 79.2865 136.297 78.6562C136.297 78.026 136.221 77.4922 136.07 77.0547C135.919 76.612 135.682 76.276 135.359 76.0469C135.036 75.8125 134.617 75.6953 134.102 75.6953C133.341 75.6953 132.786 75.9505 132.438 76.4609C132.089 76.9714 131.914 77.7031 131.914 78.6562ZM147.953 78.6562C147.953 79.375 147.859 80.013 147.672 80.5703C147.484 81.1276 147.211 81.599 146.852 81.9844C146.492 82.3646 146.06 82.6562 145.555 82.8594C145.049 83.0573 144.479 83.1562 143.844 83.1562C143.25 83.1562 142.706 83.0573 142.211 82.8594C141.716 82.6562 141.286 82.3646 140.922 81.9844C140.562 81.599 140.284 81.1276 140.086 80.5703C139.888 80.013 139.789 79.375 139.789 78.6562C139.789 77.7031 139.953 76.8958 140.281 76.2344C140.615 75.5677 141.089 75.0599 141.703 74.7109C142.318 74.362 143.049 74.1875 143.898 74.1875C144.695 74.1875 145.398 74.362 146.008 74.7109C146.617 75.0599 147.094 75.5677 147.438 76.2344C147.781 76.901 147.953 77.7083 147.953 78.6562ZM141.68 78.6562C141.68 79.2865 141.755 79.8255 141.906 80.2734C142.062 80.7214 142.302 81.0651 142.625 81.3047C142.948 81.5391 143.365 81.6562 143.875 81.6562C144.385 81.6562 144.802 81.5391 145.125 81.3047C145.448 81.0651 145.685 80.7214 145.836 80.2734C145.987 79.8255 146.062 79.2865 146.062 78.6562C146.062 78.026 145.987 77.4922 145.836 77.0547C145.685 76.612 145.448 76.276 145.125 76.0469C144.802 75.8125 144.383 75.6953 143.867 75.6953C143.107 75.6953 142.552 75.9505 142.203 76.4609C141.854 76.9714 141.68 77.7031 141.68 78.6562ZM159.836 74.1875C160.805 74.1875 161.534 74.4375 162.023 74.9375C162.518 75.4375 162.766 76.2396 162.766 77.3438V83H160.93V77.6719C160.93 77.0156 160.802 76.5208 160.547 76.1875C160.292 75.8542 159.904 75.6875 159.383 75.6875C158.654 75.6875 158.128 75.9219 157.805 76.3906C157.487 76.8542 157.328 77.5286 157.328 78.4141V83H155.492V77.6719C155.492 77.2344 155.435 76.8698 155.32 76.5781C155.211 76.2812 155.042 76.0599 154.812 75.9141C154.583 75.763 154.294 75.6875 153.945 75.6875C153.44 75.6875 153.036 75.8021 152.734 76.0312C152.438 76.2604 152.224 76.599 152.094 77.0469C151.964 77.4896 151.898 78.0339 151.898 78.6797V83H150.062V74.3516H151.492L151.75 75.5156H151.852C152.029 75.2135 152.247 74.9661 152.508 74.7734C152.773 74.5755 153.068 74.4297 153.391 74.3359C153.714 74.237 154.049 74.1875 154.398 74.1875C155.044 74.1875 155.589 74.3021 156.031 74.5312C156.474 74.7552 156.805 75.099 157.023 75.5625H157.164C157.435 75.0938 157.812 74.7474 158.297 74.5234C158.781 74.2995 159.294 74.1875 159.836 74.1875ZM171.141 80.5312C171.141 81.099 171.003 81.5781 170.727 81.9688C170.451 82.3594 170.047 82.6562 169.516 82.8594C168.99 83.0573 168.344 83.1562 167.578 83.1562C166.974 83.1562 166.453 83.112 166.016 83.0234C165.583 82.9401 165.174 82.8099 164.789 82.6328V81.0469C165.201 81.2396 165.661 81.4062 166.172 81.5469C166.688 81.6875 167.174 81.7578 167.633 81.7578C168.237 81.7578 168.672 81.6641 168.938 81.4766C169.203 81.2839 169.336 81.0286 169.336 80.7109C169.336 80.5234 169.281 80.3568 169.172 80.2109C169.068 80.0599 168.87 79.9062 168.578 79.75C168.292 79.5885 167.87 79.3958 167.312 79.1719C166.766 78.9531 166.305 78.7344 165.93 78.5156C165.555 78.2969 165.271 78.0339 165.078 77.7266C164.885 77.4141 164.789 77.0156 164.789 76.5312C164.789 75.7656 165.091 75.1849 165.695 74.7891C166.305 74.388 167.109 74.1875 168.109 74.1875C168.641 74.1875 169.141 74.2422 169.609 74.3516C170.083 74.4557 170.547 74.6094 171 74.8125L170.422 76.1953C170.031 76.0234 169.638 75.8828 169.242 75.7734C168.852 75.6589 168.453 75.6016 168.047 75.6016C167.573 75.6016 167.211 75.6745 166.961 75.8203C166.716 75.9661 166.594 76.1745 166.594 76.4453C166.594 76.6484 166.654 76.8203 166.773 76.9609C166.893 77.1016 167.099 77.2422 167.391 77.3828C167.688 77.5234 168.099 77.6979 168.625 77.9062C169.141 78.1042 169.586 78.3125 169.961 78.5312C170.341 78.7448 170.633 79.0078 170.836 79.3203C171.039 79.6328 171.141 80.0365 171.141 80.5312Z" fill="white"/>
<rect width="624" height="56" transform="translate(0 100)" fill="#333333"/>
<g clip-path="url(#clip1_188_16613)">
<rect x="16" y="112" width="592" height="32" rx="3" fill="#282828"/>
<path d="M30.5762 130.474C30.5762 131.024 30.4408 131.498 30.1699 131.896C29.9033 132.293 29.5182 132.598 29.0146 132.81C28.5153 133.021 27.9186 133.127 27.2246 133.127C26.8861 133.127 26.5623 133.108 26.2534 133.07C25.9445 133.032 25.6525 132.977 25.3774 132.905C25.1066 132.829 24.859 132.738 24.6348 132.632V131.197C25.0114 131.362 25.4325 131.513 25.8979 131.648C26.3634 131.779 26.8374 131.845 27.3198 131.845C27.7134 131.845 28.0392 131.794 28.2974 131.692C28.5597 131.587 28.7544 131.438 28.8813 131.248C29.0083 131.053 29.0718 130.827 29.0718 130.569C29.0718 130.294 28.9977 130.061 28.8496 129.871C28.7015 129.68 28.4772 129.507 28.1768 129.35C27.8805 129.189 27.5081 129.018 27.0596 128.836C26.7549 128.713 26.4629 128.574 26.1836 128.417C25.9085 128.26 25.6631 128.076 25.4473 127.865C25.2314 127.653 25.0601 127.403 24.9331 127.116C24.8104 126.824 24.749 126.481 24.749 126.087C24.749 125.563 24.8739 125.114 25.1235 124.742C25.3774 124.369 25.7329 124.084 26.1899 123.885C26.6512 123.686 27.1886 123.586 27.8022 123.586C28.2889 123.586 28.7459 123.637 29.1733 123.739C29.605 123.84 30.0282 123.984 30.4429 124.17L29.9604 125.396C29.5796 125.239 29.2093 125.114 28.8496 125.021C28.4941 124.928 28.1302 124.881 27.7578 124.881C27.4362 124.881 27.1632 124.93 26.939 125.027C26.7147 125.125 26.5433 125.262 26.4248 125.44C26.3105 125.613 26.2534 125.821 26.2534 126.062C26.2534 126.333 26.319 126.561 26.4502 126.748C26.5856 126.93 26.793 127.097 27.0723 127.249C27.3558 127.401 27.7197 127.571 28.1641 127.757C28.6761 127.968 29.1099 128.191 29.4653 128.423C29.825 128.656 30.1001 128.935 30.2905 129.261C30.481 129.583 30.5762 129.987 30.5762 130.474ZM35.0132 125.84C35.6395 125.84 36.1769 125.969 36.6255 126.227C37.0741 126.485 37.4189 126.851 37.6602 127.325C37.9014 127.799 38.022 128.366 38.022 129.026V129.826H33.3311C33.348 130.507 33.5299 131.032 33.877 131.4C34.2282 131.769 34.7191 131.953 35.3496 131.953C35.7982 131.953 36.2002 131.91 36.5557 131.826C36.9154 131.737 37.2856 131.608 37.6665 131.438V132.651C37.3153 132.816 36.9577 132.937 36.5938 133.013C36.2298 133.089 35.7939 133.127 35.2861 133.127C34.5964 133.127 33.9891 132.994 33.4644 132.727C32.9438 132.456 32.5355 132.054 32.2393 131.521C31.9473 130.988 31.8013 130.326 31.8013 129.534C31.8013 128.747 31.9346 128.078 32.2012 127.528C32.4678 126.978 32.8423 126.559 33.3247 126.271C33.8071 125.984 34.37 125.84 35.0132 125.84ZM35.0132 126.963C34.5435 126.963 34.1626 127.116 33.8706 127.42C33.5828 127.725 33.4136 128.172 33.3628 128.76H36.562C36.5578 128.409 36.4985 128.097 36.3843 127.827C36.2743 127.556 36.105 127.344 35.8765 127.192C35.6522 127.04 35.3644 126.963 35.0132 126.963ZM42.459 125.84C43.3477 125.84 44.0184 126.037 44.4712 126.43C44.9282 126.824 45.1567 127.437 45.1567 128.271V133H44.0967L43.811 132.003H43.7603C43.5614 132.257 43.3561 132.467 43.1445 132.632C42.9329 132.797 42.6875 132.92 42.4082 133C42.1331 133.085 41.7967 133.127 41.3989 133.127C40.98 133.127 40.6055 133.051 40.2754 132.898C39.9453 132.742 39.6851 132.505 39.4946 132.188C39.3042 131.87 39.209 131.468 39.209 130.981C39.209 130.258 39.4777 129.714 40.0151 129.35C40.5568 128.986 41.3735 128.785 42.4653 128.747L43.6841 128.703V128.334C43.6841 127.848 43.5698 127.501 43.3413 127.293C43.117 127.086 42.7996 126.982 42.3892 126.982C42.0379 126.982 41.6973 127.033 41.3672 127.135C41.0371 127.236 40.7155 127.361 40.4023 127.509L39.9199 126.456C40.2627 126.274 40.652 126.125 41.0879 126.011C41.528 125.897 41.985 125.84 42.459 125.84ZM43.6777 129.642L42.77 129.674C42.0252 129.699 41.5026 129.826 41.2021 130.055C40.9017 130.283 40.7515 130.596 40.7515 130.994C40.7515 131.341 40.8551 131.595 41.0625 131.756C41.2699 131.912 41.5428 131.991 41.8813 131.991C42.3976 131.991 42.825 131.845 43.1636 131.553C43.5063 131.257 43.6777 130.823 43.6777 130.251V129.642ZM50.8062 125.84C50.9246 125.84 51.0537 125.846 51.1934 125.859C51.333 125.872 51.4536 125.889 51.5552 125.91L51.4155 127.306C51.3267 127.281 51.2166 127.262 51.0854 127.249C50.9585 127.236 50.8442 127.23 50.7427 127.23C50.4761 127.23 50.2222 127.274 49.981 127.363C49.7397 127.448 49.526 127.579 49.3398 127.757C49.1536 127.93 49.0076 128.148 48.9019 128.411C48.7961 128.673 48.7432 128.978 48.7432 129.325V133H47.2451V125.973H48.4131L48.6162 127.211H48.686C48.8257 126.961 48.9992 126.733 49.2065 126.525C49.4139 126.318 49.6509 126.153 49.9175 126.03C50.1883 125.903 50.4845 125.84 50.8062 125.84ZM55.6875 133.127C55.0231 133.127 54.4476 132.998 53.9609 132.74C53.4743 132.482 53.0998 132.086 52.8374 131.553C52.575 131.02 52.4438 130.342 52.4438 129.521C52.4438 128.667 52.5877 127.968 52.8755 127.427C53.1632 126.885 53.561 126.485 54.0688 126.227C54.5809 125.969 55.167 125.84 55.8271 125.84C56.2461 125.84 56.6248 125.882 56.9634 125.967C57.3062 126.047 57.596 126.147 57.833 126.265L57.3887 127.458C57.1305 127.353 56.866 127.264 56.5952 127.192C56.3244 127.12 56.0641 127.084 55.8145 127.084C55.404 127.084 55.0612 127.175 54.7861 127.357C54.5153 127.539 54.3122 127.81 54.1768 128.169C54.0456 128.529 53.98 128.976 53.98 129.509C53.98 130.025 54.0477 130.461 54.1831 130.816C54.3185 131.168 54.5195 131.434 54.7861 131.616C55.0527 131.794 55.3807 131.883 55.77 131.883C56.1551 131.883 56.5 131.836 56.8047 131.743C57.1094 131.65 57.3971 131.529 57.668 131.381V132.676C57.4014 132.829 57.1157 132.941 56.811 133.013C56.5063 133.089 56.1318 133.127 55.6875 133.127ZM60.8101 123.123V125.605C60.8101 125.863 60.8016 126.115 60.7847 126.36C60.772 126.606 60.7572 126.796 60.7402 126.932H60.8228C60.9709 126.686 61.1528 126.485 61.3687 126.329C61.5845 126.168 61.8257 126.047 62.0923 125.967C62.3631 125.886 62.6509 125.846 62.9556 125.846C63.493 125.846 63.95 125.937 64.3267 126.119C64.7033 126.297 64.991 126.574 65.1899 126.951C65.3931 127.327 65.4946 127.816 65.4946 128.417V133H64.0029V128.696C64.0029 128.15 63.8908 127.742 63.6665 127.471C63.4422 127.196 63.0952 127.059 62.6255 127.059C62.1727 127.059 61.813 127.154 61.5464 127.344C61.284 127.53 61.0957 127.808 60.9814 128.176C60.8672 128.54 60.8101 128.984 60.8101 129.509V133H59.3184V123.123H60.8101Z" fill="#5C5C5C"/>
<path fill-rule="evenodd" clip-rule="evenodd" d="M591 123C588.791 123 587 124.791 587 127C587 129.209 588.791 131 591 131C592.119 131 593.129 130.542 593.857 129.8C594.565 129.077 595 128.091 595 127C595 124.791 593.209 123 591 123ZM585 127C585 123.686 587.686 121 591 121C594.314 121 597 123.686 597 127C597 128.28 596.599 129.467 595.916 130.441L599.713 134.299L598.287 135.701L594.512 131.865C593.525 132.579 592.311 133 591 133C587.686 133 585 130.314 585 127Z" fill="#474747"/>
</g>
<rect x="16.5" y="112.5" width="591" height="31" rx="2.5" stroke="#474747"/>
<rect x="16" y="164" width="32" height="32" rx="6" fill="#7757D9" fill-opacity="0.09"/>
<path d="M30.1201 182.225C30.1201 183.127 29.7943 183.838 29.1426 184.357C28.4954 184.877 27.5931 185.137 26.4355 185.137C25.3691 185.137 24.4258 184.936 23.6055 184.535V182.566C24.2799 182.867 24.8496 183.079 25.3145 183.202C25.7839 183.325 26.2122 183.387 26.5996 183.387C27.0645 183.387 27.4199 183.298 27.666 183.12C27.9167 182.942 28.042 182.678 28.042 182.327C28.042 182.131 27.9873 181.958 27.8779 181.808C27.7686 181.653 27.6068 181.505 27.3926 181.363C27.1829 181.222 26.7523 180.996 26.1006 180.687C25.4899 180.399 25.0319 180.124 24.7266 179.859C24.4212 179.595 24.1774 179.287 23.9951 178.937C23.8128 178.586 23.7217 178.175 23.7217 177.706C23.7217 176.822 24.0202 176.127 24.6172 175.621C25.2188 175.115 26.0482 174.862 27.1055 174.862C27.625 174.862 28.1195 174.924 28.5889 175.047C29.0628 175.17 29.5573 175.343 30.0723 175.566L29.3887 177.214C28.8555 176.995 28.4134 176.842 28.0625 176.756C27.7161 176.669 27.3743 176.626 27.0371 176.626C26.6361 176.626 26.3285 176.719 26.1143 176.906C25.9001 177.093 25.793 177.337 25.793 177.638C25.793 177.825 25.8363 177.989 25.9229 178.13C26.0094 178.267 26.1462 178.401 26.333 178.533C26.5244 178.661 26.9733 178.893 27.6797 179.23C28.6139 179.677 29.2542 180.126 29.6006 180.577C29.9469 181.024 30.1201 181.573 30.1201 182.225ZM40.2236 179.907C40.2236 181.552 39.7542 182.812 38.8154 183.688C37.8812 184.562 36.5299 185 34.7617 185H31.9316V175.006H35.0693C36.7008 175.006 37.9678 175.437 38.8701 176.298C39.7725 177.159 40.2236 178.362 40.2236 179.907ZM38.0225 179.962C38.0225 177.815 37.0745 176.742 35.1787 176.742H34.0508V183.25H34.96C37.0016 183.25 38.0225 182.154 38.0225 179.962Z" fill="#7757D9"/>
<path d="M63.082 182.279C63.082 182.872 62.9362 183.382 62.6445 183.811C62.3574 184.239 61.9427 184.567 61.4004 184.795C60.8626 185.023 60.2201 185.137 59.4727 185.137C59.1081 185.137 58.7594 185.116 58.4268 185.075C58.0941 185.034 57.7796 184.975 57.4834 184.897C57.1917 184.815 56.9251 184.717 56.6836 184.604V183.059C57.0892 183.236 57.5426 183.398 58.0439 183.544C58.5452 183.685 59.0557 183.756 59.5752 183.756C59.999 183.756 60.3499 183.701 60.6279 183.592C60.9105 183.478 61.1201 183.318 61.2568 183.113C61.3936 182.904 61.4619 182.66 61.4619 182.382C61.4619 182.086 61.3822 181.835 61.2227 181.63C61.0632 181.425 60.8216 181.238 60.498 181.069C60.179 180.896 59.778 180.712 59.2949 180.516C58.9668 180.383 58.6523 180.233 58.3516 180.064C58.0553 179.896 57.791 179.698 57.5586 179.47C57.3262 179.242 57.1416 178.973 57.0049 178.663C56.8727 178.349 56.8066 177.979 56.8066 177.556C56.8066 176.991 56.9411 176.507 57.21 176.106C57.4834 175.705 57.8662 175.398 58.3584 175.184C58.8551 174.969 59.4339 174.862 60.0947 174.862C60.6188 174.862 61.111 174.917 61.5713 175.026C62.0361 175.136 62.4919 175.291 62.9385 175.491L62.4189 176.811C62.0088 176.642 61.61 176.507 61.2227 176.407C60.8398 176.307 60.4479 176.257 60.0469 176.257C59.7005 176.257 59.4066 176.309 59.165 176.414C58.9235 176.519 58.7389 176.667 58.6113 176.858C58.4883 177.045 58.4268 177.269 58.4268 177.528C58.4268 177.82 58.4974 178.066 58.6387 178.267C58.7845 178.463 59.0078 178.643 59.3086 178.807C59.6139 178.971 60.0059 179.153 60.4844 179.354C61.0358 179.581 61.5029 179.821 61.8857 180.071C62.2731 180.322 62.5693 180.623 62.7744 180.974C62.9795 181.32 63.082 181.755 63.082 182.279ZM67.8125 177.289C68.7695 177.289 69.4919 177.501 69.9795 177.925C70.4717 178.349 70.7178 179.009 70.7178 179.907V185H69.5762L69.2686 183.927H69.2139C68.9997 184.2 68.7786 184.426 68.5508 184.604C68.3229 184.781 68.0586 184.913 67.7578 185C67.4616 185.091 67.0993 185.137 66.6709 185.137C66.2197 185.137 65.8164 185.055 65.4609 184.891C65.1055 184.722 64.8252 184.467 64.6201 184.125C64.415 183.783 64.3125 183.35 64.3125 182.826C64.3125 182.047 64.6019 181.461 65.1807 181.069C65.764 180.677 66.6436 180.461 67.8193 180.42L69.1318 180.372V179.976C69.1318 179.451 69.0088 179.078 68.7627 178.854C68.5212 178.631 68.1794 178.52 67.7373 178.52C67.359 178.52 66.9922 178.574 66.6367 178.684C66.2812 178.793 65.9349 178.927 65.5977 179.087L65.0781 177.952C65.4473 177.756 65.8665 177.597 66.3359 177.474C66.8099 177.351 67.3021 177.289 67.8125 177.289ZM69.125 181.384L68.1475 181.418C67.3454 181.445 66.7826 181.582 66.459 181.828C66.1354 182.074 65.9736 182.411 65.9736 182.84C65.9736 183.214 66.0853 183.487 66.3086 183.66C66.5319 183.829 66.8258 183.913 67.1904 183.913C67.7464 183.913 68.2067 183.756 68.5713 183.441C68.9404 183.122 69.125 182.655 69.125 182.04V181.384ZM81.5186 177.289C82.3662 177.289 83.0042 177.508 83.4326 177.945C83.8656 178.383 84.082 179.085 84.082 180.051V185H82.4756V180.338C82.4756 179.764 82.3639 179.331 82.1406 179.039C81.9173 178.747 81.5778 178.602 81.1221 178.602C80.484 178.602 80.0238 178.807 79.7412 179.217C79.4632 179.622 79.3242 180.213 79.3242 180.987V185H77.7178V180.338C77.7178 179.955 77.6676 179.636 77.5674 179.381C77.4717 179.121 77.3236 178.927 77.123 178.8C76.9225 178.668 76.6696 178.602 76.3643 178.602C75.9222 178.602 75.569 178.702 75.3047 178.902C75.0449 179.103 74.8581 179.399 74.7441 179.791C74.6302 180.178 74.5732 180.655 74.5732 181.22V185H72.9668V177.433H74.2178L74.4434 178.451H74.5322C74.6872 178.187 74.8786 177.97 75.1064 177.802C75.3389 177.629 75.5964 177.501 75.8789 177.419C76.1615 177.332 76.4554 177.289 76.7607 177.289C77.3258 177.289 77.8021 177.389 78.1895 177.59C78.5768 177.786 78.8662 178.087 79.0576 178.492H79.1807C79.4176 178.082 79.748 177.779 80.1719 177.583C80.5957 177.387 81.0446 177.289 81.5186 177.289ZM90.207 177.289C91.1048 177.289 91.8249 177.617 92.3672 178.273C92.9141 178.93 93.1875 179.905 93.1875 181.199C93.1875 182.056 93.0599 182.778 92.8047 183.366C92.554 183.95 92.2008 184.392 91.7451 184.692C91.2939 184.989 90.7676 185.137 90.166 185.137C89.7832 185.137 89.4505 185.087 89.168 184.986C88.8854 184.886 88.6439 184.756 88.4434 184.597C88.2428 184.433 88.0742 184.255 87.9375 184.063H87.8418C87.8646 184.246 87.8851 184.449 87.9033 184.672C87.9261 184.891 87.9375 185.091 87.9375 185.273V188.356H86.3242V177.433H87.6367L87.8623 178.479H87.9375C88.0788 178.264 88.2497 178.066 88.4502 177.884C88.6553 177.701 88.9014 177.558 89.1885 177.453C89.4801 177.344 89.8197 177.289 90.207 177.289ZM89.7764 178.602C89.3343 178.602 88.9788 178.69 88.71 178.868C88.4456 179.041 88.252 179.303 88.1289 179.654C88.0104 180.005 87.9466 180.445 87.9375 180.974V181.199C87.9375 181.76 87.9945 182.236 88.1084 182.628C88.2269 183.015 88.4206 183.312 88.6895 183.517C88.9629 183.717 89.332 183.817 89.7969 183.817C90.1888 183.817 90.5124 183.71 90.7676 183.496C91.0273 183.282 91.221 182.977 91.3486 182.58C91.4762 182.184 91.54 181.716 91.54 181.179C91.54 180.363 91.3942 179.729 91.1025 179.278C90.8154 178.827 90.3734 178.602 89.7764 178.602ZM96.6602 185H95.0469V174.363H96.6602V185ZM101.972 177.289C102.646 177.289 103.225 177.428 103.708 177.706C104.191 177.984 104.562 178.378 104.822 178.889C105.082 179.399 105.212 180.01 105.212 180.721V181.582H100.16C100.178 182.316 100.374 182.881 100.748 183.277C101.126 183.674 101.655 183.872 102.334 183.872C102.817 183.872 103.25 183.826 103.633 183.735C104.02 183.64 104.419 183.501 104.829 183.318V184.624C104.451 184.802 104.066 184.932 103.674 185.014C103.282 185.096 102.812 185.137 102.266 185.137C101.523 185.137 100.869 184.993 100.304 184.706C99.7432 184.414 99.3034 183.981 98.9844 183.407C98.6699 182.833 98.5127 182.12 98.5127 181.268C98.5127 180.42 98.6562 179.7 98.9434 179.107C99.2305 178.515 99.6338 178.064 100.153 177.754C100.673 177.444 101.279 177.289 101.972 177.289ZM101.972 178.499C101.466 178.499 101.056 178.663 100.741 178.991C100.431 179.319 100.249 179.8 100.194 180.434H103.64C103.635 180.055 103.571 179.72 103.448 179.429C103.33 179.137 103.147 178.909 102.901 178.745C102.66 178.581 102.35 178.499 101.972 178.499ZM113.203 185.137C112.301 185.137 111.576 184.809 111.029 184.152C110.487 183.492 110.216 182.519 110.216 181.233C110.216 179.935 110.492 178.952 111.043 178.287C111.599 177.622 112.33 177.289 113.237 177.289C113.62 177.289 113.955 177.341 114.242 177.446C114.529 177.547 114.775 177.683 114.98 177.856C115.19 178.03 115.368 178.223 115.514 178.438H115.589C115.566 178.296 115.539 178.093 115.507 177.829C115.479 177.56 115.466 177.312 115.466 177.084V174.363H117.079V185H115.821L115.534 183.968H115.466C115.329 184.187 115.156 184.385 114.946 184.562C114.741 184.736 114.495 184.875 114.208 184.979C113.925 185.084 113.59 185.137 113.203 185.137ZM113.654 183.831C114.342 183.831 114.828 183.633 115.11 183.236C115.393 182.84 115.539 182.245 115.548 181.452V181.24C115.548 180.393 115.411 179.743 115.138 179.292C114.864 178.836 114.365 178.608 113.641 178.608C113.062 178.608 112.62 178.843 112.314 179.312C112.014 179.777 111.863 180.427 111.863 181.261C111.863 182.095 112.014 182.733 112.314 183.175C112.62 183.612 113.066 183.831 113.654 183.831ZM126.082 181.199C126.082 181.828 126 182.386 125.836 182.874C125.672 183.362 125.433 183.774 125.118 184.111C124.804 184.444 124.425 184.699 123.983 184.877C123.541 185.05 123.042 185.137 122.486 185.137C121.967 185.137 121.491 185.05 121.058 184.877C120.625 184.699 120.249 184.444 119.93 184.111C119.615 183.774 119.371 183.362 119.198 182.874C119.025 182.386 118.938 181.828 118.938 181.199C118.938 180.365 119.082 179.659 119.369 179.08C119.661 178.497 120.076 178.052 120.613 177.747C121.151 177.442 121.791 177.289 122.534 177.289C123.231 177.289 123.847 177.442 124.38 177.747C124.913 178.052 125.33 178.497 125.631 179.08C125.932 179.663 126.082 180.37 126.082 181.199ZM120.593 181.199C120.593 181.751 120.659 182.222 120.791 182.614C120.928 183.006 121.137 183.307 121.42 183.517C121.702 183.722 122.067 183.824 122.514 183.824C122.96 183.824 123.325 183.722 123.607 183.517C123.89 183.307 124.097 183.006 124.229 182.614C124.362 182.222 124.428 181.751 124.428 181.199C124.428 180.648 124.362 180.181 124.229 179.798C124.097 179.41 123.89 179.117 123.607 178.916C123.325 178.711 122.958 178.608 122.507 178.608C121.841 178.608 121.356 178.832 121.051 179.278C120.745 179.725 120.593 180.365 120.593 181.199ZM130.977 185.137C130.261 185.137 129.641 184.998 129.117 184.72C128.593 184.442 128.19 184.016 127.907 183.441C127.625 182.867 127.483 182.138 127.483 181.254C127.483 180.333 127.638 179.581 127.948 178.998C128.258 178.415 128.687 177.984 129.233 177.706C129.785 177.428 130.416 177.289 131.127 177.289C131.578 177.289 131.986 177.335 132.351 177.426C132.72 177.512 133.032 177.619 133.287 177.747L132.809 179.032C132.531 178.918 132.246 178.823 131.954 178.745C131.662 178.668 131.382 178.629 131.113 178.629C130.671 178.629 130.302 178.727 130.006 178.923C129.714 179.119 129.495 179.41 129.35 179.798C129.208 180.185 129.138 180.666 129.138 181.24C129.138 181.796 129.211 182.266 129.356 182.648C129.502 183.027 129.719 183.314 130.006 183.51C130.293 183.701 130.646 183.797 131.065 183.797C131.48 183.797 131.852 183.747 132.18 183.646C132.508 183.546 132.818 183.416 133.109 183.257V184.651C132.822 184.815 132.515 184.936 132.187 185.014C131.858 185.096 131.455 185.137 130.977 185.137ZM141.483 177.433V185H140.219L140 183.981H139.911C139.752 184.241 139.549 184.458 139.303 184.631C139.057 184.799 138.783 184.925 138.482 185.007C138.182 185.093 137.865 185.137 137.532 185.137C136.963 185.137 136.475 185.041 136.069 184.85C135.668 184.654 135.361 184.353 135.146 183.947C134.932 183.542 134.825 183.018 134.825 182.375V177.433H136.438V182.074C136.438 182.662 136.557 183.102 136.794 183.394C137.035 183.685 137.409 183.831 137.915 183.831C138.403 183.831 138.79 183.731 139.077 183.53C139.364 183.33 139.567 183.034 139.686 182.642C139.809 182.25 139.87 181.769 139.87 181.199V177.433H141.483ZM152.339 177.289C153.187 177.289 153.825 177.508 154.253 177.945C154.686 178.383 154.902 179.085 154.902 180.051V185H153.296V180.338C153.296 179.764 153.184 179.331 152.961 179.039C152.738 178.747 152.398 178.602 151.942 178.602C151.304 178.602 150.844 178.807 150.562 179.217C150.284 179.622 150.145 180.213 150.145 180.987V185H148.538V180.338C148.538 179.955 148.488 179.636 148.388 179.381C148.292 179.121 148.144 178.927 147.943 178.8C147.743 178.668 147.49 178.602 147.185 178.602C146.743 178.602 146.389 178.702 146.125 178.902C145.865 179.103 145.678 179.399 145.564 179.791C145.451 180.178 145.394 180.655 145.394 181.22V185H143.787V177.433H145.038L145.264 178.451H145.353C145.507 178.187 145.699 177.97 145.927 177.802C146.159 177.629 146.417 177.501 146.699 177.419C146.982 177.332 147.276 177.289 147.581 177.289C148.146 177.289 148.622 177.389 149.01 177.59C149.397 177.786 149.687 178.087 149.878 178.492H150.001C150.238 178.082 150.568 177.779 150.992 177.583C151.416 177.387 151.865 177.289 152.339 177.289ZM160.159 177.289C160.834 177.289 161.412 177.428 161.896 177.706C162.379 177.984 162.75 178.378 163.01 178.889C163.27 179.399 163.399 180.01 163.399 180.721V181.582H158.348C158.366 182.316 158.562 182.881 158.936 183.277C159.314 183.674 159.842 183.872 160.521 183.872C161.005 183.872 161.438 183.826 161.82 183.735C162.208 183.64 162.606 183.501 163.017 183.318V184.624C162.638 184.802 162.253 184.932 161.861 185.014C161.469 185.096 161 185.137 160.453 185.137C159.71 185.137 159.056 184.993 158.491 184.706C157.931 184.414 157.491 183.981 157.172 183.407C156.857 182.833 156.7 182.12 156.7 181.268C156.7 180.42 156.844 179.7 157.131 179.107C157.418 178.515 157.821 178.064 158.341 177.754C158.86 177.444 159.466 177.289 160.159 177.289ZM160.159 178.499C159.653 178.499 159.243 178.663 158.929 178.991C158.619 179.319 158.437 179.8 158.382 180.434H161.827C161.823 180.055 161.759 179.72 161.636 179.429C161.517 179.137 161.335 178.909 161.089 178.745C160.847 178.581 160.537 178.499 160.159 178.499ZM169.155 177.289C170.007 177.289 170.671 177.51 171.145 177.952C171.623 178.39 171.862 179.094 171.862 180.064V185H170.256V180.365C170.256 179.777 170.135 179.338 169.894 179.046C169.652 178.75 169.278 178.602 168.772 178.602C168.039 178.602 167.528 178.827 167.241 179.278C166.959 179.729 166.817 180.383 166.817 181.24V185H165.211V177.433H166.462L166.688 178.458H166.776C166.94 178.194 167.143 177.977 167.385 177.809C167.631 177.635 167.904 177.506 168.205 177.419C168.51 177.332 168.827 177.289 169.155 177.289ZM176.928 183.838C177.137 183.838 177.345 183.82 177.55 183.783C177.755 183.742 177.942 183.694 178.11 183.64V184.856C177.933 184.934 177.702 185 177.42 185.055C177.137 185.109 176.843 185.137 176.538 185.137C176.11 185.137 175.725 185.066 175.383 184.925C175.041 184.779 174.77 184.531 174.569 184.18C174.369 183.829 174.269 183.343 174.269 182.724V178.656H173.236V177.938L174.344 177.371L174.87 175.751H175.882V177.433H178.049V178.656H175.882V182.703C175.882 183.086 175.978 183.371 176.169 183.558C176.36 183.744 176.613 183.838 176.928 183.838ZM184.734 182.84C184.734 183.337 184.614 183.756 184.372 184.098C184.131 184.439 183.777 184.699 183.312 184.877C182.852 185.05 182.287 185.137 181.617 185.137C181.089 185.137 180.633 185.098 180.25 185.021C179.872 184.948 179.514 184.834 179.177 184.679V183.291C179.537 183.46 179.94 183.605 180.387 183.729C180.838 183.852 181.264 183.913 181.665 183.913C182.194 183.913 182.574 183.831 182.807 183.667C183.039 183.498 183.155 183.275 183.155 182.997C183.155 182.833 183.107 182.687 183.012 182.56C182.921 182.427 182.747 182.293 182.492 182.156C182.242 182.015 181.872 181.846 181.385 181.65C180.906 181.459 180.503 181.268 180.175 181.076C179.847 180.885 179.598 180.655 179.43 180.386C179.261 180.112 179.177 179.764 179.177 179.34C179.177 178.67 179.441 178.162 179.97 177.815C180.503 177.465 181.207 177.289 182.082 177.289C182.547 177.289 182.984 177.337 183.395 177.433C183.809 177.524 184.215 177.658 184.611 177.836L184.105 179.046C183.764 178.896 183.42 178.772 183.073 178.677C182.731 178.576 182.383 178.526 182.027 178.526C181.613 178.526 181.296 178.59 181.077 178.718C180.863 178.845 180.756 179.028 180.756 179.265C180.756 179.442 180.808 179.593 180.913 179.716C181.018 179.839 181.198 179.962 181.453 180.085C181.713 180.208 182.073 180.361 182.533 180.543C182.984 180.716 183.374 180.898 183.702 181.09C184.035 181.277 184.29 181.507 184.468 181.78C184.646 182.054 184.734 182.407 184.734 182.84Z" fill="white"/>
<g style="mix-blend-mode:darken">
<rect x="624" width="210" height="624" transform="rotate(90 624 0)" fill="url(#paint0_linear_188_16613)"/>
</g>
<path d="M313.5 81C313.5 80.1716 312.828 79.5 312 79.5C311.172 79.5 310.5 80.1716 310.5 81L313.5 81ZM310.939 188.061C311.525 188.646 312.475 188.646 313.061 188.061L322.607 178.515C323.192 177.929 323.192 176.979 322.607 176.393C322.021 175.808 321.071 175.808 320.485 176.393L312 184.879L303.515 176.393C302.929 175.808 301.979 175.808 301.393 176.393C300.808 176.979 300.808 177.929 301.393 178.515L310.939 188.061ZM310.5 81L310.5 187L313.5 187L313.5 81L310.5 81Z" fill="#F58D31"/>
<g filter="url(#filter0_d_188_16613)">
<rect width="624" height="530" transform="translate(0 210)" fill="#333333"/>
<rect width="624" height="54" transform="translate(0 210)" fill="#333333"/>
<rect width="592" height="53" transform="translate(16 210)" fill="#333333"/>
<path d="M26.7358 239.837C26.7358 241.19 26.2471 242.257 25.2695 243.036C24.2988 243.815 22.9453 244.205 21.209 244.205C19.6094 244.205 18.1943 243.904 16.9639 243.303V240.35C17.9756 240.801 18.8301 241.119 19.5273 241.303C20.2314 241.488 20.874 241.58 21.4551 241.58C22.1523 241.58 22.6855 241.447 23.0547 241.18C23.4307 240.914 23.6187 240.517 23.6187 239.991C23.6187 239.697 23.5366 239.437 23.3726 239.211C23.2085 238.979 22.9658 238.757 22.6445 238.545C22.3301 238.333 21.6841 237.995 20.7065 237.53C19.7905 237.099 19.1035 236.686 18.6455 236.289C18.1875 235.893 17.8218 235.431 17.5483 234.905C17.2749 234.378 17.1382 233.763 17.1382 233.059C17.1382 231.733 17.5859 230.69 18.4814 229.932C19.3838 229.173 20.6279 228.793 22.2139 228.793C22.9932 228.793 23.7349 228.886 24.439 229.07C25.1499 229.255 25.8916 229.515 26.6641 229.85L25.6387 232.321C24.8389 231.993 24.1758 231.764 23.6494 231.634C23.1299 231.504 22.6172 231.439 22.1113 231.439C21.5098 231.439 21.0483 231.579 20.7271 231.859C20.4058 232.14 20.2451 232.505 20.2451 232.957C20.2451 233.237 20.3101 233.483 20.4399 233.695C20.5698 233.9 20.7749 234.102 21.0552 234.3C21.3423 234.491 22.0156 234.84 23.0752 235.346C24.4766 236.016 25.437 236.689 25.9565 237.366C26.4761 238.036 26.7358 238.859 26.7358 239.837ZM33.9546 234.546C33.2915 234.546 32.772 234.758 32.396 235.182C32.02 235.599 31.8047 236.193 31.75 236.966H36.1387C36.125 236.193 35.9233 235.599 35.5337 235.182C35.144 234.758 34.6177 234.546 33.9546 234.546ZM34.3955 244.205C32.5498 244.205 31.1074 243.696 30.0684 242.677C29.0293 241.659 28.5098 240.216 28.5098 238.35C28.5098 236.429 28.9883 234.946 29.9453 233.9C30.9092 232.847 32.2388 232.321 33.9341 232.321C35.5542 232.321 36.8154 232.782 37.7178 233.705C38.6201 234.628 39.0713 235.903 39.0713 237.53V239.047H31.6782C31.7124 239.936 31.9756 240.63 32.4678 241.129C32.96 241.628 33.6504 241.877 34.5391 241.877C35.2295 241.877 35.8823 241.806 36.4976 241.662C37.1128 241.519 37.7554 241.29 38.4253 240.975V243.395C37.8784 243.668 37.2939 243.87 36.6719 244C36.0498 244.137 35.291 244.205 34.3955 244.205ZM44.7417 244H41.6143V228.045H44.7417V244ZM52.7808 234.546C52.1177 234.546 51.5981 234.758 51.2222 235.182C50.8462 235.599 50.6309 236.193 50.5762 236.966H54.9648C54.9512 236.193 54.7495 235.599 54.3599 235.182C53.9702 234.758 53.4438 234.546 52.7808 234.546ZM53.2217 244.205C51.376 244.205 49.9336 243.696 48.8945 242.677C47.8555 241.659 47.3359 240.216 47.3359 238.35C47.3359 236.429 47.8145 234.946 48.7715 233.9C49.7354 232.847 51.0649 232.321 52.7603 232.321C54.3804 232.321 55.6416 232.782 56.5439 233.705C57.4463 234.628 57.8975 235.903 57.8975 237.53V239.047H50.5044C50.5386 239.936 50.8018 240.63 51.2939 241.129C51.7861 241.628 52.4766 241.877 53.3652 241.877C54.0557 241.877 54.7085 241.806 55.3237 241.662C55.939 241.519 56.5815 241.29 57.2515 240.975V243.395C56.7046 243.668 56.1201 243.87 55.498 244C54.876 244.137 54.1172 244.205 53.2217 244.205ZM65.0957 244.205C61.5273 244.205 59.7432 242.247 59.7432 238.33C59.7432 236.381 60.2285 234.895 61.1992 233.869C62.1699 232.837 63.561 232.321 65.3726 232.321C66.6987 232.321 67.8882 232.581 68.9409 233.1L68.0181 235.52C67.5259 235.322 67.0679 235.161 66.644 235.038C66.2202 234.908 65.7964 234.843 65.3726 234.843C63.7456 234.843 62.9321 235.999 62.9321 238.309C62.9321 240.551 63.7456 241.672 65.3726 241.672C65.9741 241.672 66.5312 241.594 67.0439 241.437C67.5566 241.272 68.0693 241.02 68.582 240.678V243.354C68.0762 243.675 67.5635 243.897 67.0439 244.021C66.5312 244.144 65.8818 244.205 65.0957 244.205ZM76.0776 241.713C76.6245 241.713 77.2808 241.594 78.0464 241.354V243.682C77.2671 244.031 76.3101 244.205 75.1753 244.205C73.9243 244.205 73.0117 243.891 72.4375 243.262C71.8701 242.626 71.5864 241.676 71.5864 240.411V234.884H70.0894V233.562L71.812 232.516L72.7144 230.096H74.7139V232.536H77.9233V234.884H74.7139V240.411C74.7139 240.855 74.8369 241.184 75.083 241.396C75.3359 241.607 75.6675 241.713 76.0776 241.713ZM92.166 234.884H89.459V244H86.3315V234.884H84.6089V233.377L86.3315 232.536V231.695C86.3315 230.39 86.6528 229.436 87.2954 228.834C87.938 228.233 88.9668 227.932 90.3818 227.932C91.4619 227.932 92.4224 228.093 93.2632 228.414L92.4634 230.711C91.8345 230.513 91.2534 230.414 90.7202 230.414C90.2759 230.414 89.9546 230.547 89.7563 230.813C89.5581 231.073 89.459 231.408 89.459 231.818V232.536H92.166V234.884ZM93.8374 229.573C93.8374 228.554 94.4048 228.045 95.5396 228.045C96.6743 228.045 97.2417 228.554 97.2417 229.573C97.2417 230.058 97.0981 230.438 96.811 230.711C96.5308 230.978 96.1069 231.111 95.5396 231.111C94.4048 231.111 93.8374 230.598 93.8374 229.573ZM97.0981 244H93.9707V232.536H97.0981V244ZM103.517 244H100.39V228.045H103.517V244ZM111.556 234.546C110.893 234.546 110.374 234.758 109.998 235.182C109.622 235.599 109.406 236.193 109.352 236.966H113.74C113.727 236.193 113.525 235.599 113.135 235.182C112.746 234.758 112.219 234.546 111.556 234.546ZM111.997 244.205C110.151 244.205 108.709 243.696 107.67 242.677C106.631 241.659 106.111 240.216 106.111 238.35C106.111 236.429 106.59 234.946 107.547 233.9C108.511 232.847 109.84 232.321 111.536 232.321C113.156 232.321 114.417 232.782 115.319 233.705C116.222 234.628 116.673 235.903 116.673 237.53V239.047H109.28C109.314 239.936 109.577 240.63 110.069 241.129C110.562 241.628 111.252 241.877 112.141 241.877C112.831 241.877 113.484 241.806 114.099 241.662C114.714 241.519 115.357 241.29 116.027 240.975V243.395C115.48 243.668 114.896 243.87 114.273 244C113.651 244.137 112.893 244.205 111.997 244.205Z" fill="white"/>
<rect y="263" width="624" height="1" fill="#474747"/>
<rect width="624" height="54" transform="translate(0 264)" fill="#333333"/>
<path d="M26.7734 291.18C26.7734 292.466 26.5339 293.542 26.0547 294.406C25.5755 295.266 24.8802 295.914 23.9688 296.352C23.0573 296.784 21.9583 297 20.6719 297H17.5V285.578H21.0156C22.1979 285.578 23.2188 285.792 24.0781 286.219C24.9375 286.641 25.6016 287.268 26.0703 288.102C26.5391 288.93 26.7734 289.956 26.7734 291.18ZM24.8203 291.234C24.8203 290.297 24.6719 289.526 24.375 288.922C24.0833 288.318 23.651 287.87 23.0781 287.578C22.5104 287.281 21.8099 287.133 20.9766 287.133H19.375V295.43H20.7031C22.0833 295.43 23.1146 295.078 23.7969 294.375C24.4792 293.672 24.8203 292.625 24.8203 291.234ZM36.7031 292.656C36.7031 293.375 36.6094 294.013 36.4219 294.57C36.2344 295.128 35.9609 295.599 35.6016 295.984C35.2422 296.365 34.8099 296.656 34.3047 296.859C33.7995 297.057 33.2292 297.156 32.5938 297.156C32 297.156 31.4557 297.057 30.9609 296.859C30.4661 296.656 30.0365 296.365 29.6719 295.984C29.3125 295.599 29.0339 295.128 28.8359 294.57C28.638 294.013 28.5391 293.375 28.5391 292.656C28.5391 291.703 28.7031 290.896 29.0312 290.234C29.3646 289.568 29.8385 289.06 30.4531 288.711C31.0677 288.362 31.7995 288.188 32.6484 288.188C33.4453 288.188 34.1484 288.362 34.7578 288.711C35.3672 289.06 35.8438 289.568 36.1875 290.234C36.5312 290.901 36.7031 291.708 36.7031 292.656ZM30.4297 292.656C30.4297 293.286 30.5052 293.826 30.6562 294.273C30.8125 294.721 31.0521 295.065 31.375 295.305C31.6979 295.539 32.1146 295.656 32.625 295.656C33.1354 295.656 33.5521 295.539 33.875 295.305C34.1979 295.065 34.4349 294.721 34.5859 294.273C34.737 293.826 34.8125 293.286 34.8125 292.656C34.8125 292.026 34.737 291.492 34.5859 291.055C34.4349 290.612 34.1979 290.276 33.875 290.047C33.5521 289.812 33.1328 289.695 32.6172 289.695C31.8568 289.695 31.3021 289.951 30.9531 290.461C30.6042 290.971 30.4297 291.703 30.4297 292.656ZM42.2969 297.156C41.4792 297.156 40.7708 296.997 40.1719 296.68C39.5729 296.362 39.112 295.875 38.7891 295.219C38.4661 294.562 38.3047 293.729 38.3047 292.719C38.3047 291.667 38.4818 290.807 38.8359 290.141C39.1901 289.474 39.6797 288.982 40.3047 288.664C40.9349 288.346 41.6562 288.188 42.4688 288.188C42.9844 288.188 43.4505 288.24 43.8672 288.344C44.2891 288.443 44.6458 288.565 44.9375 288.711L44.3906 290.18C44.0729 290.049 43.7474 289.94 43.4141 289.852C43.0807 289.763 42.7604 289.719 42.4531 289.719C41.9479 289.719 41.526 289.831 41.1875 290.055C40.8542 290.279 40.6042 290.612 40.4375 291.055C40.276 291.497 40.1953 292.047 40.1953 292.703C40.1953 293.339 40.2786 293.875 40.4453 294.312C40.612 294.745 40.8594 295.073 41.1875 295.297C41.5156 295.516 41.9193 295.625 42.3984 295.625C42.8724 295.625 43.2969 295.568 43.6719 295.453C44.0469 295.339 44.401 295.19 44.7344 295.008V296.602C44.4062 296.789 44.0547 296.927 43.6797 297.016C43.3047 297.109 42.8438 297.156 42.2969 297.156ZM53.5469 293.891C53.5469 294.568 53.3802 295.151 53.0469 295.641C52.7188 296.13 52.2448 296.505 51.625 296.766C51.0104 297.026 50.276 297.156 49.4219 297.156C49.0052 297.156 48.6068 297.133 48.2266 297.086C47.8464 297.039 47.487 296.971 47.1484 296.883C46.8151 296.789 46.5104 296.677 46.2344 296.547V294.781C46.6979 294.984 47.2161 295.169 47.7891 295.336C48.362 295.497 48.9453 295.578 49.5391 295.578C50.0234 295.578 50.4245 295.516 50.7422 295.391C51.0651 295.26 51.3047 295.078 51.4609 294.844C51.6172 294.604 51.6953 294.326 51.6953 294.008C51.6953 293.669 51.6042 293.383 51.4219 293.148C51.2396 292.914 50.9635 292.701 50.5938 292.508C50.2292 292.31 49.7708 292.099 49.2188 291.875C48.8438 291.724 48.4844 291.552 48.1406 291.359C47.8021 291.167 47.5 290.94 47.2344 290.68C46.9688 290.419 46.7578 290.112 46.6016 289.758C46.4505 289.398 46.375 288.977 46.375 288.492C46.375 287.846 46.5286 287.294 46.8359 286.836C47.1484 286.378 47.5859 286.026 48.1484 285.781C48.7161 285.536 49.3776 285.414 50.1328 285.414C50.7318 285.414 51.2943 285.477 51.8203 285.602C52.3516 285.727 52.8724 285.904 53.3828 286.133L52.7891 287.641C52.3203 287.448 51.8646 287.294 51.4219 287.18C50.9844 287.065 50.5365 287.008 50.0781 287.008C49.6823 287.008 49.3464 287.068 49.0703 287.188C48.7943 287.307 48.5833 287.477 48.4375 287.695C48.2969 287.909 48.2266 288.164 48.2266 288.461C48.2266 288.794 48.3073 289.076 48.4688 289.305C48.6354 289.529 48.8906 289.734 49.2344 289.922C49.5833 290.109 50.0312 290.318 50.5781 290.547C51.2083 290.807 51.7422 291.081 52.1797 291.367C52.6224 291.654 52.9609 291.997 53.1953 292.398C53.4297 292.794 53.5469 293.292 53.5469 293.891ZM60 288.188C61.026 288.188 61.849 288.562 62.4688 289.312C63.0938 290.062 63.4062 291.177 63.4062 292.656C63.4062 293.635 63.2604 294.461 62.9688 295.133C62.6823 295.799 62.2786 296.305 61.7578 296.648C61.2422 296.987 60.6406 297.156 59.9531 297.156C59.5156 297.156 59.1354 297.099 58.8125 296.984C58.4896 296.87 58.2135 296.721 57.9844 296.539C57.7552 296.352 57.5625 296.148 57.4062 295.93H57.2969C57.3229 296.138 57.3464 296.37 57.3672 296.625C57.3932 296.875 57.4062 297.104 57.4062 297.312V300.836H55.5625V288.352H57.0625L57.3203 289.547H57.4062C57.5677 289.302 57.763 289.076 57.9922 288.867C58.2266 288.659 58.5078 288.495 58.8359 288.375C59.1693 288.25 59.5573 288.188 60 288.188ZM59.5078 289.688C59.0026 289.688 58.5964 289.789 58.2891 289.992C57.987 290.19 57.7656 290.49 57.625 290.891C57.4896 291.292 57.4167 291.794 57.4062 292.398V292.656C57.4062 293.297 57.4714 293.841 57.6016 294.289C57.737 294.732 57.9583 295.07 58.2656 295.305C58.5781 295.534 59 295.648 59.5312 295.648C59.9792 295.648 60.349 295.526 60.6406 295.281C60.9375 295.036 61.1589 294.688 61.3047 294.234C61.4505 293.781 61.5234 293.247 61.5234 292.633C61.5234 291.701 61.3568 290.977 61.0234 290.461C60.6953 289.945 60.1901 289.688 59.5078 289.688ZM68.9219 288.188C70.0156 288.188 70.8411 288.43 71.3984 288.914C71.9609 289.398 72.2422 290.154 72.2422 291.18V297H70.9375L70.5859 295.773H70.5234C70.2786 296.086 70.026 296.344 69.7656 296.547C69.5052 296.75 69.2031 296.901 68.8594 297C68.5208 297.104 68.1068 297.156 67.6172 297.156C67.1016 297.156 66.6406 297.062 66.2344 296.875C65.8281 296.682 65.5078 296.391 65.2734 296C65.0391 295.609 64.9219 295.115 64.9219 294.516C64.9219 293.625 65.2526 292.956 65.9141 292.508C66.5807 292.06 67.5859 291.812 68.9297 291.766L70.4297 291.711V291.258C70.4297 290.659 70.2891 290.232 70.0078 289.977C69.7318 289.721 69.3411 289.594 68.8359 289.594C68.4036 289.594 67.9844 289.656 67.5781 289.781C67.1719 289.906 66.776 290.06 66.3906 290.242L65.7969 288.945C66.2188 288.721 66.6979 288.539 67.2344 288.398C67.776 288.258 68.3385 288.188 68.9219 288.188ZM70.4219 292.867L69.3047 292.906C68.388 292.938 67.7448 293.094 67.375 293.375C67.0052 293.656 66.8203 294.042 66.8203 294.531C66.8203 294.958 66.9479 295.271 67.2031 295.469C67.4583 295.661 67.7943 295.758 68.2109 295.758C68.8464 295.758 69.3724 295.578 69.7891 295.219C70.2109 294.854 70.4219 294.32 70.4219 293.617V292.867ZM78.2969 297.156C77.4792 297.156 76.7708 296.997 76.1719 296.68C75.5729 296.362 75.112 295.875 74.7891 295.219C74.4661 294.562 74.3047 293.729 74.3047 292.719C74.3047 291.667 74.4818 290.807 74.8359 290.141C75.1901 289.474 75.6797 288.982 76.3047 288.664C76.9349 288.346 77.6562 288.188 78.4688 288.188C78.9844 288.188 79.4505 288.24 79.8672 288.344C80.2891 288.443 80.6458 288.565 80.9375 288.711L80.3906 290.18C80.0729 290.049 79.7474 289.94 79.4141 289.852C79.0807 289.763 78.7604 289.719 78.4531 289.719C77.9479 289.719 77.526 289.831 77.1875 290.055C76.8542 290.279 76.6042 290.612 76.4375 291.055C76.276 291.497 76.1953 292.047 76.1953 292.703C76.1953 293.339 76.2786 293.875 76.4453 294.312C76.612 294.745 76.8594 295.073 77.1875 295.297C77.5156 295.516 77.9193 295.625 78.3984 295.625C78.8724 295.625 79.2969 295.568 79.6719 295.453C80.0469 295.339 80.401 295.19 80.7344 295.008V296.602C80.4062 296.789 80.0547 296.927 79.6797 297.016C79.3047 297.109 78.8438 297.156 78.2969 297.156ZM86.2109 288.188C86.9818 288.188 87.6432 288.346 88.1953 288.664C88.7474 288.982 89.1719 289.432 89.4688 290.016C89.7656 290.599 89.9141 291.297 89.9141 292.109V293.094H84.1406C84.1615 293.932 84.3854 294.578 84.8125 295.031C85.2448 295.484 85.849 295.711 86.625 295.711C87.1771 295.711 87.6719 295.659 88.1094 295.555C88.5521 295.445 89.0078 295.286 89.4766 295.078V296.57C89.0443 296.773 88.6042 296.922 88.1562 297.016C87.7083 297.109 87.1719 297.156 86.5469 297.156C85.6979 297.156 84.9505 296.992 84.3047 296.664C83.6641 296.331 83.1615 295.836 82.7969 295.18C82.4375 294.523 82.2578 293.708 82.2578 292.734C82.2578 291.766 82.4219 290.943 82.75 290.266C83.0781 289.589 83.5391 289.073 84.1328 288.719C84.7266 288.365 85.4193 288.188 86.2109 288.188ZM86.2109 289.57C85.6328 289.57 85.1641 289.758 84.8047 290.133C84.4505 290.508 84.2422 291.057 84.1797 291.781H88.1172C88.112 291.349 88.0391 290.966 87.8984 290.633C87.763 290.299 87.5547 290.039 87.2734 289.852C86.9974 289.664 86.6432 289.57 86.2109 289.57Z" fill="#ADADAD"/>
<path fill-rule="evenodd" clip-rule="evenodd" d="M106.586 292L102.293 287.707L103.707 286.293L108.707 291.293C109.098 291.683 109.098 292.317 108.707 292.707L103.707 297.707L102.293 296.293L106.586 292Z" fill="#ADADAD"/>
<path d="M123.711 285.578C124.695 285.578 125.508 285.698 126.148 285.938C126.794 286.177 127.273 286.542 127.586 287.031C127.904 287.521 128.062 288.143 128.062 288.898C128.062 289.461 127.958 289.94 127.75 290.336C127.542 290.732 127.268 291.06 126.93 291.32C126.591 291.581 126.229 291.789 125.844 291.945L129.086 297H126.969L124.211 292.422H122.375V297H120.5V285.578H123.711ZM123.586 287.141H122.375V290.875H123.672C124.542 290.875 125.172 290.714 125.562 290.391C125.958 290.068 126.156 289.591 126.156 288.961C126.156 288.299 125.945 287.831 125.523 287.555C125.107 287.279 124.461 287.141 123.586 287.141ZM138.188 292.656C138.188 293.375 138.094 294.013 137.906 294.57C137.719 295.128 137.445 295.599 137.086 295.984C136.727 296.365 136.294 296.656 135.789 296.859C135.284 297.057 134.714 297.156 134.078 297.156C133.484 297.156 132.94 297.057 132.445 296.859C131.951 296.656 131.521 296.365 131.156 295.984C130.797 295.599 130.518 295.128 130.32 294.57C130.122 294.013 130.023 293.375 130.023 292.656C130.023 291.703 130.188 290.896 130.516 290.234C130.849 289.568 131.323 289.06 131.938 288.711C132.552 288.362 133.284 288.188 134.133 288.188C134.93 288.188 135.633 288.362 136.242 288.711C136.852 289.06 137.328 289.568 137.672 290.234C138.016 290.901 138.188 291.708 138.188 292.656ZM131.914 292.656C131.914 293.286 131.99 293.826 132.141 294.273C132.297 294.721 132.536 295.065 132.859 295.305C133.182 295.539 133.599 295.656 134.109 295.656C134.62 295.656 135.036 295.539 135.359 295.305C135.682 295.065 135.919 294.721 136.07 294.273C136.221 293.826 136.297 293.286 136.297 292.656C136.297 292.026 136.221 291.492 136.07 291.055C135.919 290.612 135.682 290.276 135.359 290.047C135.036 289.812 134.617 289.695 134.102 289.695C133.341 289.695 132.786 289.951 132.438 290.461C132.089 290.971 131.914 291.703 131.914 292.656ZM147.953 292.656C147.953 293.375 147.859 294.013 147.672 294.57C147.484 295.128 147.211 295.599 146.852 295.984C146.492 296.365 146.06 296.656 145.555 296.859C145.049 297.057 144.479 297.156 143.844 297.156C143.25 297.156 142.706 297.057 142.211 296.859C141.716 296.656 141.286 296.365 140.922 295.984C140.562 295.599 140.284 295.128 140.086 294.57C139.888 294.013 139.789 293.375 139.789 292.656C139.789 291.703 139.953 290.896 140.281 290.234C140.615 289.568 141.089 289.06 141.703 288.711C142.318 288.362 143.049 288.188 143.898 288.188C144.695 288.188 145.398 288.362 146.008 288.711C146.617 289.06 147.094 289.568 147.438 290.234C147.781 290.901 147.953 291.708 147.953 292.656ZM141.68 292.656C141.68 293.286 141.755 293.826 141.906 294.273C142.062 294.721 142.302 295.065 142.625 295.305C142.948 295.539 143.365 295.656 143.875 295.656C144.385 295.656 144.802 295.539 145.125 295.305C145.448 295.065 145.685 294.721 145.836 294.273C145.987 293.826 146.062 293.286 146.062 292.656C146.062 292.026 145.987 291.492 145.836 291.055C145.685 290.612 145.448 290.276 145.125 290.047C144.802 289.812 144.383 289.695 143.867 289.695C143.107 289.695 142.552 289.951 142.203 290.461C141.854 290.971 141.68 291.703 141.68 292.656ZM159.836 288.188C160.805 288.188 161.534 288.438 162.023 288.938C162.518 289.438 162.766 290.24 162.766 291.344V297H160.93V291.672C160.93 291.016 160.802 290.521 160.547 290.188C160.292 289.854 159.904 289.688 159.383 289.688C158.654 289.688 158.128 289.922 157.805 290.391C157.487 290.854 157.328 291.529 157.328 292.414V297H155.492V291.672C155.492 291.234 155.435 290.87 155.32 290.578C155.211 290.281 155.042 290.06 154.812 289.914C154.583 289.763 154.294 289.688 153.945 289.688C153.44 289.688 153.036 289.802 152.734 290.031C152.438 290.26 152.224 290.599 152.094 291.047C151.964 291.49 151.898 292.034 151.898 292.68V297H150.062V288.352H151.492L151.75 289.516H151.852C152.029 289.214 152.247 288.966 152.508 288.773C152.773 288.576 153.068 288.43 153.391 288.336C153.714 288.237 154.049 288.188 154.398 288.188C155.044 288.188 155.589 288.302 156.031 288.531C156.474 288.755 156.805 289.099 157.023 289.562H157.164C157.435 289.094 157.812 288.747 158.297 288.523C158.781 288.299 159.294 288.188 159.836 288.188ZM171.141 294.531C171.141 295.099 171.003 295.578 170.727 295.969C170.451 296.359 170.047 296.656 169.516 296.859C168.99 297.057 168.344 297.156 167.578 297.156C166.974 297.156 166.453 297.112 166.016 297.023C165.583 296.94 165.174 296.81 164.789 296.633V295.047C165.201 295.24 165.661 295.406 166.172 295.547C166.688 295.688 167.174 295.758 167.633 295.758C168.237 295.758 168.672 295.664 168.938 295.477C169.203 295.284 169.336 295.029 169.336 294.711C169.336 294.523 169.281 294.357 169.172 294.211C169.068 294.06 168.87 293.906 168.578 293.75C168.292 293.589 167.87 293.396 167.312 293.172C166.766 292.953 166.305 292.734 165.93 292.516C165.555 292.297 165.271 292.034 165.078 291.727C164.885 291.414 164.789 291.016 164.789 290.531C164.789 289.766 165.091 289.185 165.695 288.789C166.305 288.388 167.109 288.188 168.109 288.188C168.641 288.188 169.141 288.242 169.609 288.352C170.083 288.456 170.547 288.609 171 288.812L170.422 290.195C170.031 290.023 169.638 289.883 169.242 289.773C168.852 289.659 168.453 289.602 168.047 289.602C167.573 289.602 167.211 289.674 166.961 289.82C166.716 289.966 166.594 290.174 166.594 290.445C166.594 290.648 166.654 290.82 166.773 290.961C166.893 291.102 167.099 291.242 167.391 291.383C167.688 291.523 168.099 291.698 168.625 291.906C169.141 292.104 169.586 292.312 169.961 292.531C170.341 292.745 170.633 293.008 170.836 293.32C171.039 293.633 171.141 294.036 171.141 294.531Z" fill="white"/>
<rect width="624" height="44" transform="translate(0 318)" fill="#333333"/>
<g clip-path="url(#clip2_188_16613)">
<rect x="16" y="318" width="592" height="32" rx="3" fill="#282828"/>
<path d="M30.5762 336.474C30.5762 337.024 30.4408 337.498 30.1699 337.896C29.9033 338.293 29.5182 338.598 29.0146 338.81C28.5153 339.021 27.9186 339.127 27.2246 339.127C26.8861 339.127 26.5623 339.108 26.2534 339.07C25.9445 339.032 25.6525 338.977 25.3774 338.905C25.1066 338.829 24.859 338.738 24.6348 338.632V337.197C25.0114 337.362 25.4325 337.513 25.8979 337.648C26.3634 337.779 26.8374 337.845 27.3198 337.845C27.7134 337.845 28.0392 337.794 28.2974 337.692C28.5597 337.587 28.7544 337.438 28.8813 337.248C29.0083 337.053 29.0718 336.827 29.0718 336.569C29.0718 336.294 28.9977 336.061 28.8496 335.871C28.7015 335.68 28.4772 335.507 28.1768 335.35C27.8805 335.189 27.5081 335.018 27.0596 334.836C26.7549 334.713 26.4629 334.574 26.1836 334.417C25.9085 334.26 25.6631 334.076 25.4473 333.865C25.2314 333.653 25.0601 333.403 24.9331 333.116C24.8104 332.824 24.749 332.481 24.749 332.087C24.749 331.563 24.8739 331.114 25.1235 330.742C25.3774 330.369 25.7329 330.084 26.1899 329.885C26.6512 329.686 27.1886 329.586 27.8022 329.586C28.2889 329.586 28.7459 329.637 29.1733 329.739C29.605 329.84 30.0282 329.984 30.4429 330.17L29.9604 331.396C29.5796 331.239 29.2093 331.114 28.8496 331.021C28.4941 330.928 28.1302 330.881 27.7578 330.881C27.4362 330.881 27.1632 330.93 26.939 331.027C26.7147 331.125 26.5433 331.262 26.4248 331.44C26.3105 331.613 26.2534 331.821 26.2534 332.062C26.2534 332.333 26.319 332.561 26.4502 332.748C26.5856 332.93 26.793 333.097 27.0723 333.249C27.3558 333.401 27.7197 333.571 28.1641 333.757C28.6761 333.968 29.1099 334.191 29.4653 334.423C29.825 334.656 30.1001 334.935 30.2905 335.261C30.481 335.583 30.5762 335.987 30.5762 336.474ZM35.0132 331.84C35.6395 331.84 36.1769 331.969 36.6255 332.227C37.0741 332.485 37.4189 332.851 37.6602 333.325C37.9014 333.799 38.022 334.366 38.022 335.026V335.826H33.3311C33.348 336.507 33.5299 337.032 33.877 337.4C34.2282 337.769 34.7191 337.953 35.3496 337.953C35.7982 337.953 36.2002 337.91 36.5557 337.826C36.9154 337.737 37.2856 337.608 37.6665 337.438V338.651C37.3153 338.816 36.9577 338.937 36.5938 339.013C36.2298 339.089 35.7939 339.127 35.2861 339.127C34.5964 339.127 33.9891 338.994 33.4644 338.727C32.9438 338.456 32.5355 338.054 32.2393 337.521C31.9473 336.988 31.8013 336.326 31.8013 335.534C31.8013 334.747 31.9346 334.078 32.2012 333.528C32.4678 332.978 32.8423 332.559 33.3247 332.271C33.8071 331.984 34.37 331.84 35.0132 331.84ZM35.0132 332.963C34.5435 332.963 34.1626 333.116 33.8706 333.42C33.5828 333.725 33.4136 334.172 33.3628 334.76H36.562C36.5578 334.409 36.4985 334.097 36.3843 333.827C36.2743 333.556 36.105 333.344 35.8765 333.192C35.6522 333.04 35.3644 332.963 35.0132 332.963ZM42.459 331.84C43.3477 331.84 44.0184 332.037 44.4712 332.43C44.9282 332.824 45.1567 333.437 45.1567 334.271V339H44.0967L43.811 338.003H43.7603C43.5614 338.257 43.3561 338.467 43.1445 338.632C42.9329 338.797 42.6875 338.92 42.4082 339C42.1331 339.085 41.7967 339.127 41.3989 339.127C40.98 339.127 40.6055 339.051 40.2754 338.898C39.9453 338.742 39.6851 338.505 39.4946 338.188C39.3042 337.87 39.209 337.468 39.209 336.981C39.209 336.258 39.4777 335.714 40.0151 335.35C40.5568 334.986 41.3735 334.785 42.4653 334.747L43.6841 334.703V334.334C43.6841 333.848 43.5698 333.501 43.3413 333.293C43.117 333.086 42.7996 332.982 42.3892 332.982C42.0379 332.982 41.6973 333.033 41.3672 333.135C41.0371 333.236 40.7155 333.361 40.4023 333.509L39.9199 332.456C40.2627 332.274 40.652 332.125 41.0879 332.011C41.528 331.897 41.985 331.84 42.459 331.84ZM43.6777 335.642L42.77 335.674C42.0252 335.699 41.5026 335.826 41.2021 336.055C40.9017 336.283 40.7515 336.596 40.7515 336.994C40.7515 337.341 40.8551 337.595 41.0625 337.756C41.2699 337.912 41.5428 337.991 41.8813 337.991C42.3976 337.991 42.825 337.845 43.1636 337.553C43.5063 337.257 43.6777 336.823 43.6777 336.251V335.642ZM50.8062 331.84C50.9246 331.84 51.0537 331.846 51.1934 331.859C51.333 331.872 51.4536 331.889 51.5552 331.91L51.4155 333.306C51.3267 333.281 51.2166 333.262 51.0854 333.249C50.9585 333.236 50.8442 333.23 50.7427 333.23C50.4761 333.23 50.2222 333.274 49.981 333.363C49.7397 333.448 49.526 333.579 49.3398 333.757C49.1536 333.93 49.0076 334.148 48.9019 334.411C48.7961 334.673 48.7432 334.978 48.7432 335.325V339H47.2451V331.973H48.4131L48.6162 333.211H48.686C48.8257 332.961 48.9992 332.733 49.2065 332.525C49.4139 332.318 49.6509 332.153 49.9175 332.03C50.1883 331.903 50.4845 331.84 50.8062 331.84ZM55.6875 339.127C55.0231 339.127 54.4476 338.998 53.9609 338.74C53.4743 338.482 53.0998 338.086 52.8374 337.553C52.575 337.02 52.4438 336.342 52.4438 335.521C52.4438 334.667 52.5877 333.968 52.8755 333.427C53.1632 332.885 53.561 332.485 54.0688 332.227C54.5809 331.969 55.167 331.84 55.8271 331.84C56.2461 331.84 56.6248 331.882 56.9634 331.967C57.3062 332.047 57.596 332.147 57.833 332.265L57.3887 333.458C57.1305 333.353 56.866 333.264 56.5952 333.192C56.3244 333.12 56.0641 333.084 55.8145 333.084C55.404 333.084 55.0612 333.175 54.7861 333.357C54.5153 333.539 54.3122 333.81 54.1768 334.169C54.0456 334.529 53.98 334.976 53.98 335.509C53.98 336.025 54.0477 336.461 54.1831 336.816C54.3185 337.168 54.5195 337.434 54.7861 337.616C55.0527 337.794 55.3807 337.883 55.77 337.883C56.1551 337.883 56.5 337.836 56.8047 337.743C57.1094 337.65 57.3971 337.529 57.668 337.381V338.676C57.4014 338.829 57.1157 338.941 56.811 339.013C56.5063 339.089 56.1318 339.127 55.6875 339.127ZM60.8101 329.123V331.605C60.8101 331.863 60.8016 332.115 60.7847 332.36C60.772 332.606 60.7572 332.796 60.7402 332.932H60.8228C60.9709 332.686 61.1528 332.485 61.3687 332.329C61.5845 332.168 61.8257 332.047 62.0923 331.967C62.3631 331.886 62.6509 331.846 62.9556 331.846C63.493 331.846 63.95 331.937 64.3267 332.119C64.7033 332.297 64.991 332.574 65.1899 332.951C65.3931 333.327 65.4946 333.816 65.4946 334.417V339H64.0029V334.696C64.0029 334.15 63.8908 333.742 63.6665 333.471C63.4422 333.196 63.0952 333.059 62.6255 333.059C62.1727 333.059 61.813 333.154 61.5464 333.344C61.284 333.53 61.0957 333.808 60.9814 334.176C60.8672 334.54 60.8101 334.984 60.8101 335.509V339H59.3184V329.123H60.8101Z" fill="#5C5C5C"/>
<path fill-rule="evenodd" clip-rule="evenodd" d="M591 329C588.791 329 587 330.791 587 333C587 335.209 588.791 337 591 337C592.119 337 593.129 336.542 593.857 335.8C594.565 335.077 595 334.091 595 333C595 330.791 593.209 329 591 329ZM585 333C585 329.686 587.686 327 591 327C594.314 327 597 329.686 597 333C597 334.28 596.599 335.467 595.916 336.441L599.713 340.299L598.287 341.701L594.512 337.865C593.525 338.579 592.311 339 591 339C587.686 339 585 336.314 585 333Z" fill="#474747"/>
</g>
<rect x="16.5" y="318.5" width="591" height="31" rx="2.5" stroke="#474747"/>
<path d="M26.0703 372.668C26.0703 373.176 25.9453 373.613 25.6953 373.98C25.4492 374.348 25.0938 374.629 24.6289 374.824C24.168 375.02 23.6172 375.117 22.9766 375.117C22.6641 375.117 22.3652 375.1 22.0801 375.064C21.7949 375.029 21.5254 374.979 21.2715 374.912C21.0215 374.842 20.793 374.758 20.5859 374.66V373.336C20.9336 373.488 21.3223 373.627 21.752 373.752C22.1816 373.873 22.6191 373.934 23.0645 373.934C23.4277 373.934 23.7285 373.887 23.9668 373.793C24.209 373.695 24.3887 373.559 24.5059 373.383C24.623 373.203 24.6816 372.994 24.6816 372.756C24.6816 372.502 24.6133 372.287 24.4766 372.111C24.3398 371.936 24.1328 371.775 23.8555 371.631C23.582 371.482 23.2383 371.324 22.8242 371.156C22.543 371.043 22.2734 370.914 22.0156 370.77C21.7617 370.625 21.5352 370.455 21.3359 370.26C21.1367 370.064 20.9785 369.834 20.8613 369.568C20.748 369.299 20.6914 368.982 20.6914 368.619C20.6914 368.135 20.8066 367.721 21.0371 367.377C21.2715 367.033 21.5996 366.77 22.0215 366.586C22.4473 366.402 22.9434 366.311 23.5098 366.311C23.959 366.311 24.3809 366.357 24.7754 366.451C25.1738 366.545 25.5645 366.678 25.9473 366.85L25.502 367.98C25.1504 367.836 24.8086 367.721 24.4766 367.635C24.1484 367.549 23.8125 367.506 23.4688 367.506C23.1719 367.506 22.9199 367.551 22.7129 367.641C22.5059 367.73 22.3477 367.857 22.2383 368.021C22.1328 368.182 22.0801 368.373 22.0801 368.596C22.0801 368.846 22.1406 369.057 22.2617 369.229C22.3867 369.396 22.5781 369.551 22.8359 369.691C23.0977 369.832 23.4336 369.988 23.8438 370.16C24.3164 370.355 24.7168 370.561 25.0449 370.775C25.377 370.99 25.6309 371.248 25.8066 371.549C25.9824 371.846 26.0703 372.219 26.0703 372.668ZM30.166 368.391C30.7441 368.391 31.2402 368.51 31.6543 368.748C32.0684 368.986 32.3867 369.324 32.6094 369.762C32.832 370.199 32.9434 370.723 32.9434 371.332V372.07H28.6133C28.6289 372.699 28.7969 373.184 29.1172 373.523C29.4414 373.863 29.8945 374.033 30.4766 374.033C30.8906 374.033 31.2617 373.994 31.5898 373.916C31.9219 373.834 32.2637 373.715 32.6152 373.559V374.678C32.291 374.83 31.9609 374.941 31.625 375.012C31.2891 375.082 30.8867 375.117 30.418 375.117C29.7812 375.117 29.2207 374.994 28.7363 374.748C28.2559 374.498 27.8789 374.127 27.6055 373.635C27.3359 373.143 27.2012 372.531 27.2012 371.801C27.2012 371.074 27.3242 370.457 27.5703 369.949C27.8164 369.441 28.1621 369.055 28.6074 368.789C29.0527 368.523 29.5723 368.391 30.166 368.391ZM30.166 369.428C29.7324 369.428 29.3809 369.568 29.1113 369.85C28.8457 370.131 28.6895 370.543 28.6426 371.086H31.5957C31.5918 370.762 31.5371 370.475 31.4316 370.225C31.3301 369.975 31.1738 369.779 30.9629 369.639C30.7559 369.498 30.4902 369.428 30.166 369.428ZM35.8789 375H34.4961V365.883H35.8789V375ZM40.4316 368.391C41.0098 368.391 41.5059 368.51 41.9199 368.748C42.334 368.986 42.6523 369.324 42.875 369.762C43.0977 370.199 43.209 370.723 43.209 371.332V372.07H38.8789C38.8945 372.699 39.0625 373.184 39.3828 373.523C39.707 373.863 40.1602 374.033 40.7422 374.033C41.1562 374.033 41.5273 373.994 41.8555 373.916C42.1875 373.834 42.5293 373.715 42.8809 373.559V374.678C42.5566 374.83 42.2266 374.941 41.8906 375.012C41.5547 375.082 41.1523 375.117 40.6836 375.117C40.0469 375.117 39.4863 374.994 39.002 374.748C38.5215 374.498 38.1445 374.127 37.8711 373.635C37.6016 373.143 37.4668 372.531 37.4668 371.801C37.4668 371.074 37.5898 370.457 37.8359 369.949C38.082 369.441 38.4277 369.055 38.873 368.789C39.3184 368.523 39.8379 368.391 40.4316 368.391ZM40.4316 369.428C39.998 369.428 39.6465 369.568 39.377 369.85C39.1113 370.131 38.9551 370.543 38.9082 371.086H41.8613C41.8574 370.762 41.8027 370.475 41.6973 370.225C41.5957 369.975 41.4395 369.779 41.2285 369.639C41.0215 369.498 40.7559 369.428 40.4316 369.428ZM47.375 375.117C46.7617 375.117 46.2305 374.998 45.7812 374.76C45.332 374.521 44.9863 374.156 44.7441 373.664C44.502 373.172 44.3809 372.547 44.3809 371.789C44.3809 371 44.5137 370.355 44.7793 369.855C45.0449 369.355 45.4121 368.986 45.8809 368.748C46.3535 368.51 46.8945 368.391 47.5039 368.391C47.8906 368.391 48.2402 368.43 48.5527 368.508C48.8691 368.582 49.1367 368.674 49.3555 368.783L48.9453 369.885C48.707 369.787 48.4629 369.705 48.2129 369.639C47.9629 369.572 47.7227 369.539 47.4922 369.539C47.1133 369.539 46.7969 369.623 46.543 369.791C46.293 369.959 46.1055 370.209 45.9805 370.541C45.8594 370.873 45.7988 371.285 45.7988 371.777C45.7988 372.254 45.8613 372.656 45.9863 372.984C46.1113 373.309 46.2969 373.555 46.543 373.723C46.7891 373.887 47.0918 373.969 47.4512 373.969C47.8066 373.969 48.125 373.926 48.4062 373.84C48.6875 373.754 48.9531 373.643 49.2031 373.506V374.701C48.957 374.842 48.6934 374.945 48.4121 375.012C48.1309 375.082 47.7852 375.117 47.375 375.117ZM53.1406 374.004C53.3203 374.004 53.498 373.988 53.6738 373.957C53.8496 373.922 54.0098 373.881 54.1543 373.834V374.877C54.002 374.943 53.8047 375 53.5625 375.047C53.3203 375.094 53.0684 375.117 52.8066 375.117C52.4395 375.117 52.1094 375.057 51.8164 374.936C51.5234 374.811 51.291 374.598 51.1191 374.297C50.9473 373.996 50.8613 373.58 50.8613 373.049V369.562H49.9766V368.947L50.9258 368.461L51.377 367.072H52.2441V368.514H54.1016V369.562H52.2441V373.031C52.2441 373.359 52.3262 373.604 52.4902 373.764C52.6543 373.924 52.8711 374.004 53.1406 374.004ZM61.8301 369.562H60.2539V375H58.877V369.562H57.8164V368.9L58.877 368.496V368.045C58.877 367.494 58.9629 367.057 59.1348 366.732C59.3105 366.408 59.5605 366.176 59.8848 366.035C60.2129 365.891 60.6035 365.818 61.0566 365.818C61.3535 365.818 61.625 365.844 61.8711 365.895C62.1172 365.941 62.3242 365.996 62.4922 366.059L62.1348 367.102C62.002 367.059 61.8535 367.02 61.6895 366.984C61.5254 366.945 61.3496 366.926 61.1621 366.926C60.8496 366.926 60.6191 367.023 60.4707 367.219C60.3262 367.414 60.2539 367.699 60.2539 368.074V368.514H61.8301V369.562ZM68.6797 371.742C68.6797 372.281 68.6094 372.76 68.4688 373.178C68.3281 373.596 68.123 373.949 67.8535 374.238C67.584 374.523 67.2598 374.742 66.8809 374.895C66.502 375.043 66.0742 375.117 65.5977 375.117C65.1523 375.117 64.7441 375.043 64.373 374.895C64.002 374.742 63.6797 374.523 63.4062 374.238C63.1367 373.949 62.9277 373.596 62.7793 373.178C62.6309 372.76 62.5566 372.281 62.5566 371.742C62.5566 371.027 62.6797 370.422 62.9258 369.926C63.1758 369.426 63.5312 369.045 63.9922 368.783C64.4531 368.521 65.002 368.391 65.6387 368.391C66.2363 368.391 66.7637 368.521 67.2207 368.783C67.6777 369.045 68.0352 369.426 68.293 369.926C68.5508 370.426 68.6797 371.031 68.6797 371.742ZM63.9746 371.742C63.9746 372.215 64.0312 372.619 64.1445 372.955C64.2617 373.291 64.4414 373.549 64.6836 373.729C64.9258 373.904 65.2383 373.992 65.6211 373.992C66.0039 373.992 66.3164 373.904 66.5586 373.729C66.8008 373.549 66.9785 373.291 67.0918 372.955C67.2051 372.619 67.2617 372.215 67.2617 371.742C67.2617 371.27 67.2051 370.869 67.0918 370.541C66.9785 370.209 66.8008 369.957 66.5586 369.785C66.3164 369.609 66.002 369.521 65.6152 369.521C65.0449 369.521 64.6289 369.713 64.3672 370.096C64.1055 370.479 63.9746 371.027 63.9746 371.742ZM73.5488 368.391C73.6582 368.391 73.7773 368.396 73.9062 368.408C74.0352 368.42 74.1465 368.436 74.2402 368.455L74.1113 369.744C74.0293 369.721 73.9277 369.703 73.8066 369.691C73.6895 369.68 73.584 369.674 73.4902 369.674C73.2441 369.674 73.0098 369.715 72.7871 369.797C72.5645 369.875 72.3672 369.996 72.1953 370.16C72.0234 370.32 71.8887 370.521 71.791 370.764C71.6934 371.006 71.6445 371.287 71.6445 371.607V375H70.2617V368.514H71.3398L71.5273 369.656H71.5918C71.7207 369.426 71.8809 369.215 72.0723 369.023C72.2637 368.832 72.4824 368.68 72.7285 368.566C72.9785 368.449 73.252 368.391 73.5488 368.391ZM82.7715 368.391C83.498 368.391 84.0449 368.578 84.4121 368.953C84.7832 369.328 84.9688 369.93 84.9688 370.758V375H83.5918V371.004C83.5918 370.512 83.4961 370.141 83.3047 369.891C83.1133 369.641 82.8223 369.516 82.4316 369.516C81.8848 369.516 81.4902 369.691 81.248 370.043C81.0098 370.391 80.8906 370.896 80.8906 371.561V375H79.5137V371.004C79.5137 370.676 79.4707 370.402 79.3848 370.184C79.3027 369.961 79.1758 369.795 79.0039 369.686C78.832 369.572 78.6152 369.516 78.3535 369.516C77.9746 369.516 77.6719 369.602 77.4453 369.773C77.2227 369.945 77.0625 370.199 76.9648 370.535C76.8672 370.867 76.8184 371.275 76.8184 371.76V375H75.4414V368.514H76.5137L76.707 369.387H76.7832C76.916 369.16 77.0801 368.975 77.2754 368.83C77.4746 368.682 77.6953 368.572 77.9375 368.502C78.1797 368.428 78.4316 368.391 78.6934 368.391C79.1777 368.391 79.5859 368.477 79.918 368.648C80.25 368.816 80.498 369.074 80.6621 369.422H80.7676C80.9707 369.07 81.2539 368.811 81.6172 368.643C81.9805 368.475 82.3652 368.391 82.7715 368.391ZM91.25 373.148C91.25 373.574 91.1465 373.934 90.9395 374.227C90.7324 374.52 90.4297 374.742 90.0312 374.895C89.6367 375.043 89.1523 375.117 88.5781 375.117C88.125 375.117 87.7344 375.084 87.4062 375.018C87.082 374.955 86.7754 374.857 86.4863 374.725V373.535C86.7949 373.68 87.1406 373.805 87.5234 373.91C87.9102 374.016 88.2754 374.068 88.6191 374.068C89.0723 374.068 89.3984 373.998 89.5977 373.857C89.7969 373.713 89.8965 373.521 89.8965 373.283C89.8965 373.143 89.8555 373.018 89.7734 372.908C89.6953 372.795 89.5469 372.68 89.3281 372.562C89.1133 372.441 88.7969 372.297 88.3789 372.129C87.9688 371.965 87.623 371.801 87.3418 371.637C87.0605 371.473 86.8477 371.275 86.7031 371.045C86.5586 370.811 86.4863 370.512 86.4863 370.148C86.4863 369.574 86.7129 369.139 87.166 368.842C87.623 368.541 88.2266 368.391 88.9766 368.391C89.375 368.391 89.75 368.432 90.1016 368.514C90.457 368.592 90.8047 368.707 91.1445 368.859L90.7109 369.896C90.418 369.768 90.123 369.662 89.8262 369.58C89.5332 369.494 89.2344 369.451 88.9297 369.451C88.5742 369.451 88.3027 369.506 88.1152 369.615C87.9316 369.725 87.8398 369.881 87.8398 370.084C87.8398 370.236 87.8848 370.365 87.9746 370.471C88.0645 370.576 88.2188 370.682 88.4375 370.787C88.6602 370.893 88.9688 371.023 89.3633 371.18C89.75 371.328 90.084 371.484 90.3652 371.648C90.6504 371.809 90.8691 372.006 91.0215 372.24C91.1738 372.475 91.25 372.777 91.25 373.148Z" fill="#A3A9AE"/>
<rect x="16" y="398" width="32" height="32" rx="6" fill="#7757D9" fill-opacity="0.09"/>
<path d="M30.1201 416.225C30.1201 417.127 29.7943 417.838 29.1426 418.357C28.4954 418.877 27.5931 419.137 26.4355 419.137C25.3691 419.137 24.4258 418.936 23.6055 418.535V416.566C24.2799 416.867 24.8496 417.079 25.3145 417.202C25.7839 417.325 26.2122 417.387 26.5996 417.387C27.0645 417.387 27.4199 417.298 27.666 417.12C27.9167 416.942 28.042 416.678 28.042 416.327C28.042 416.131 27.9873 415.958 27.8779 415.808C27.7686 415.653 27.6068 415.505 27.3926 415.363C27.1829 415.222 26.7523 414.996 26.1006 414.687C25.4899 414.399 25.0319 414.124 24.7266 413.859C24.4212 413.595 24.1774 413.287 23.9951 412.937C23.8128 412.586 23.7217 412.175 23.7217 411.706C23.7217 410.822 24.0202 410.127 24.6172 409.621C25.2188 409.115 26.0482 408.862 27.1055 408.862C27.625 408.862 28.1195 408.924 28.5889 409.047C29.0628 409.17 29.5573 409.343 30.0723 409.566L29.3887 411.214C28.8555 410.995 28.4134 410.842 28.0625 410.756C27.7161 410.669 27.3743 410.626 27.0371 410.626C26.6361 410.626 26.3285 410.719 26.1143 410.906C25.9001 411.093 25.793 411.337 25.793 411.638C25.793 411.825 25.8363 411.989 25.9229 412.13C26.0094 412.267 26.1462 412.401 26.333 412.533C26.5244 412.661 26.9733 412.893 27.6797 413.23C28.6139 413.677 29.2542 414.126 29.6006 414.577C29.9469 415.024 30.1201 415.573 30.1201 416.225ZM40.2236 413.907C40.2236 415.552 39.7542 416.812 38.8154 417.688C37.8812 418.562 36.5299 419 34.7617 419H31.9316V409.006H35.0693C36.7008 409.006 37.9678 409.437 38.8701 410.298C39.7725 411.159 40.2236 412.362 40.2236 413.907ZM38.0225 413.962C38.0225 411.815 37.0745 410.742 35.1787 410.742H34.0508V417.25H34.96C37.0016 417.25 38.0225 416.154 38.0225 413.962Z" fill="#7757D9"/>
<path d="M63.082 416.279C63.082 416.872 62.9362 417.382 62.6445 417.811C62.3574 418.239 61.9427 418.567 61.4004 418.795C60.8626 419.023 60.2201 419.137 59.4727 419.137C59.1081 419.137 58.7594 419.116 58.4268 419.075C58.0941 419.034 57.7796 418.975 57.4834 418.897C57.1917 418.815 56.9251 418.717 56.6836 418.604V417.059C57.0892 417.236 57.5426 417.398 58.0439 417.544C58.5452 417.685 59.0557 417.756 59.5752 417.756C59.999 417.756 60.3499 417.701 60.6279 417.592C60.9105 417.478 61.1201 417.318 61.2568 417.113C61.3936 416.904 61.4619 416.66 61.4619 416.382C61.4619 416.086 61.3822 415.835 61.2227 415.63C61.0632 415.425 60.8216 415.238 60.498 415.069C60.179 414.896 59.778 414.712 59.2949 414.516C58.9668 414.383 58.6523 414.233 58.3516 414.064C58.0553 413.896 57.791 413.698 57.5586 413.47C57.3262 413.242 57.1416 412.973 57.0049 412.663C56.8727 412.349 56.8066 411.979 56.8066 411.556C56.8066 410.991 56.9411 410.507 57.21 410.106C57.4834 409.705 57.8662 409.398 58.3584 409.184C58.8551 408.969 59.4339 408.862 60.0947 408.862C60.6188 408.862 61.111 408.917 61.5713 409.026C62.0361 409.136 62.4919 409.291 62.9385 409.491L62.4189 410.811C62.0088 410.642 61.61 410.507 61.2227 410.407C60.8398 410.307 60.4479 410.257 60.0469 410.257C59.7005 410.257 59.4066 410.309 59.165 410.414C58.9235 410.519 58.7389 410.667 58.6113 410.858C58.4883 411.045 58.4268 411.269 58.4268 411.528C58.4268 411.82 58.4974 412.066 58.6387 412.267C58.7845 412.463 59.0078 412.643 59.3086 412.807C59.6139 412.971 60.0059 413.153 60.4844 413.354C61.0358 413.581 61.5029 413.821 61.8857 414.071C62.2731 414.322 62.5693 414.623 62.7744 414.974C62.9795 415.32 63.082 415.755 63.082 416.279ZM67.8125 411.289C68.7695 411.289 69.4919 411.501 69.9795 411.925C70.4717 412.349 70.7178 413.009 70.7178 413.907V419H69.5762L69.2686 417.927H69.2139C68.9997 418.2 68.7786 418.426 68.5508 418.604C68.3229 418.781 68.0586 418.913 67.7578 419C67.4616 419.091 67.0993 419.137 66.6709 419.137C66.2197 419.137 65.8164 419.055 65.4609 418.891C65.1055 418.722 64.8252 418.467 64.6201 418.125C64.415 417.783 64.3125 417.35 64.3125 416.826C64.3125 416.047 64.6019 415.461 65.1807 415.069C65.764 414.677 66.6436 414.461 67.8193 414.42L69.1318 414.372V413.976C69.1318 413.451 69.0088 413.078 68.7627 412.854C68.5212 412.631 68.1794 412.52 67.7373 412.52C67.359 412.52 66.9922 412.574 66.6367 412.684C66.2812 412.793 65.9349 412.927 65.5977 413.087L65.0781 411.952C65.4473 411.756 65.8665 411.597 66.3359 411.474C66.8099 411.351 67.3021 411.289 67.8125 411.289ZM69.125 415.384L68.1475 415.418C67.3454 415.445 66.7826 415.582 66.459 415.828C66.1354 416.074 65.9736 416.411 65.9736 416.84C65.9736 417.214 66.0853 417.487 66.3086 417.66C66.5319 417.829 66.8258 417.913 67.1904 417.913C67.7464 417.913 68.2067 417.756 68.5713 417.441C68.9404 417.122 69.125 416.655 69.125 416.04V415.384ZM81.5186 411.289C82.3662 411.289 83.0042 411.508 83.4326 411.945C83.8656 412.383 84.082 413.085 84.082 414.051V419H82.4756V414.338C82.4756 413.764 82.3639 413.331 82.1406 413.039C81.9173 412.747 81.5778 412.602 81.1221 412.602C80.484 412.602 80.0238 412.807 79.7412 413.217C79.4632 413.622 79.3242 414.213 79.3242 414.987V419H77.7178V414.338C77.7178 413.955 77.6676 413.636 77.5674 413.381C77.4717 413.121 77.3236 412.927 77.123 412.8C76.9225 412.668 76.6696 412.602 76.3643 412.602C75.9222 412.602 75.569 412.702 75.3047 412.902C75.0449 413.103 74.8581 413.399 74.7441 413.791C74.6302 414.178 74.5732 414.655 74.5732 415.22V419H72.9668V411.433H74.2178L74.4434 412.451H74.5322C74.6872 412.187 74.8786 411.97 75.1064 411.802C75.3389 411.629 75.5964 411.501 75.8789 411.419C76.1615 411.332 76.4554 411.289 76.7607 411.289C77.3258 411.289 77.8021 411.389 78.1895 411.59C78.5768 411.786 78.8662 412.087 79.0576 412.492H79.1807C79.4176 412.082 79.748 411.779 80.1719 411.583C80.5957 411.387 81.0446 411.289 81.5186 411.289ZM90.207 411.289C91.1048 411.289 91.8249 411.617 92.3672 412.273C92.9141 412.93 93.1875 413.905 93.1875 415.199C93.1875 416.056 93.0599 416.778 92.8047 417.366C92.554 417.95 92.2008 418.392 91.7451 418.692C91.2939 418.989 90.7676 419.137 90.166 419.137C89.7832 419.137 89.4505 419.087 89.168 418.986C88.8854 418.886 88.6439 418.756 88.4434 418.597C88.2428 418.433 88.0742 418.255 87.9375 418.063H87.8418C87.8646 418.246 87.8851 418.449 87.9033 418.672C87.9261 418.891 87.9375 419.091 87.9375 419.273V422.356H86.3242V411.433H87.6367L87.8623 412.479H87.9375C88.0788 412.264 88.2497 412.066 88.4502 411.884C88.6553 411.701 88.9014 411.558 89.1885 411.453C89.4801 411.344 89.8197 411.289 90.207 411.289ZM89.7764 412.602C89.3343 412.602 88.9788 412.69 88.71 412.868C88.4456 413.041 88.252 413.303 88.1289 413.654C88.0104 414.005 87.9466 414.445 87.9375 414.974V415.199C87.9375 415.76 87.9945 416.236 88.1084 416.628C88.2269 417.015 88.4206 417.312 88.6895 417.517C88.9629 417.717 89.332 417.817 89.7969 417.817C90.1888 417.817 90.5124 417.71 90.7676 417.496C91.0273 417.282 91.221 416.977 91.3486 416.58C91.4762 416.184 91.54 415.716 91.54 415.179C91.54 414.363 91.3942 413.729 91.1025 413.278C90.8154 412.827 90.3734 412.602 89.7764 412.602ZM96.6602 419H95.0469V408.363H96.6602V419ZM101.972 411.289C102.646 411.289 103.225 411.428 103.708 411.706C104.191 411.984 104.562 412.378 104.822 412.889C105.082 413.399 105.212 414.01 105.212 414.721V415.582H100.16C100.178 416.316 100.374 416.881 100.748 417.277C101.126 417.674 101.655 417.872 102.334 417.872C102.817 417.872 103.25 417.826 103.633 417.735C104.02 417.64 104.419 417.501 104.829 417.318V418.624C104.451 418.802 104.066 418.932 103.674 419.014C103.282 419.096 102.812 419.137 102.266 419.137C101.523 419.137 100.869 418.993 100.304 418.706C99.7432 418.414 99.3034 417.981 98.9844 417.407C98.6699 416.833 98.5127 416.12 98.5127 415.268C98.5127 414.42 98.6562 413.7 98.9434 413.107C99.2305 412.515 99.6338 412.064 100.153 411.754C100.673 411.444 101.279 411.289 101.972 411.289ZM101.972 412.499C101.466 412.499 101.056 412.663 100.741 412.991C100.431 413.319 100.249 413.8 100.194 414.434H103.64C103.635 414.055 103.571 413.72 103.448 413.429C103.33 413.137 103.147 412.909 102.901 412.745C102.66 412.581 102.35 412.499 101.972 412.499ZM113.203 419.137C112.301 419.137 111.576 418.809 111.029 418.152C110.487 417.492 110.216 416.519 110.216 415.233C110.216 413.935 110.492 412.952 111.043 412.287C111.599 411.622 112.33 411.289 113.237 411.289C113.62 411.289 113.955 411.341 114.242 411.446C114.529 411.547 114.775 411.683 114.98 411.856C115.19 412.03 115.368 412.223 115.514 412.438H115.589C115.566 412.296 115.539 412.093 115.507 411.829C115.479 411.56 115.466 411.312 115.466 411.084V408.363H117.079V419H115.821L115.534 417.968H115.466C115.329 418.187 115.156 418.385 114.946 418.562C114.741 418.736 114.495 418.875 114.208 418.979C113.925 419.084 113.59 419.137 113.203 419.137ZM113.654 417.831C114.342 417.831 114.828 417.633 115.11 417.236C115.393 416.84 115.539 416.245 115.548 415.452V415.24C115.548 414.393 115.411 413.743 115.138 413.292C114.864 412.836 114.365 412.608 113.641 412.608C113.062 412.608 112.62 412.843 112.314 413.312C112.014 413.777 111.863 414.427 111.863 415.261C111.863 416.095 112.014 416.733 112.314 417.175C112.62 417.612 113.066 417.831 113.654 417.831ZM126.082 415.199C126.082 415.828 126 416.386 125.836 416.874C125.672 417.362 125.433 417.774 125.118 418.111C124.804 418.444 124.425 418.699 123.983 418.877C123.541 419.05 123.042 419.137 122.486 419.137C121.967 419.137 121.491 419.05 121.058 418.877C120.625 418.699 120.249 418.444 119.93 418.111C119.615 417.774 119.371 417.362 119.198 416.874C119.025 416.386 118.938 415.828 118.938 415.199C118.938 414.365 119.082 413.659 119.369 413.08C119.661 412.497 120.076 412.052 120.613 411.747C121.151 411.442 121.791 411.289 122.534 411.289C123.231 411.289 123.847 411.442 124.38 411.747C124.913 412.052 125.33 412.497 125.631 413.08C125.932 413.663 126.082 414.37 126.082 415.199ZM120.593 415.199C120.593 415.751 120.659 416.222 120.791 416.614C120.928 417.006 121.137 417.307 121.42 417.517C121.702 417.722 122.067 417.824 122.514 417.824C122.96 417.824 123.325 417.722 123.607 417.517C123.89 417.307 124.097 417.006 124.229 416.614C124.362 416.222 124.428 415.751 124.428 415.199C124.428 414.648 124.362 414.181 124.229 413.798C124.097 413.41 123.89 413.117 123.607 412.916C123.325 412.711 122.958 412.608 122.507 412.608C121.841 412.608 121.356 412.832 121.051 413.278C120.745 413.725 120.593 414.365 120.593 415.199ZM130.977 419.137C130.261 419.137 129.641 418.998 129.117 418.72C128.593 418.442 128.19 418.016 127.907 417.441C127.625 416.867 127.483 416.138 127.483 415.254C127.483 414.333 127.638 413.581 127.948 412.998C128.258 412.415 128.687 411.984 129.233 411.706C129.785 411.428 130.416 411.289 131.127 411.289C131.578 411.289 131.986 411.335 132.351 411.426C132.72 411.512 133.032 411.619 133.287 411.747L132.809 413.032C132.531 412.918 132.246 412.823 131.954 412.745C131.662 412.668 131.382 412.629 131.113 412.629C130.671 412.629 130.302 412.727 130.006 412.923C129.714 413.119 129.495 413.41 129.35 413.798C129.208 414.185 129.138 414.666 129.138 415.24C129.138 415.796 129.211 416.266 129.356 416.648C129.502 417.027 129.719 417.314 130.006 417.51C130.293 417.701 130.646 417.797 131.065 417.797C131.48 417.797 131.852 417.747 132.18 417.646C132.508 417.546 132.818 417.416 133.109 417.257V418.651C132.822 418.815 132.515 418.936 132.187 419.014C131.858 419.096 131.455 419.137 130.977 419.137ZM141.483 411.433V419H140.219L140 417.981H139.911C139.752 418.241 139.549 418.458 139.303 418.631C139.057 418.799 138.783 418.925 138.482 419.007C138.182 419.093 137.865 419.137 137.532 419.137C136.963 419.137 136.475 419.041 136.069 418.85C135.668 418.654 135.361 418.353 135.146 417.947C134.932 417.542 134.825 417.018 134.825 416.375V411.433H136.438V416.074C136.438 416.662 136.557 417.102 136.794 417.394C137.035 417.685 137.409 417.831 137.915 417.831C138.403 417.831 138.79 417.731 139.077 417.53C139.364 417.33 139.567 417.034 139.686 416.642C139.809 416.25 139.87 415.769 139.87 415.199V411.433H141.483ZM152.339 411.289C153.187 411.289 153.825 411.508 154.253 411.945C154.686 412.383 154.902 413.085 154.902 414.051V419H153.296V414.338C153.296 413.764 153.184 413.331 152.961 413.039C152.738 412.747 152.398 412.602 151.942 412.602C151.304 412.602 150.844 412.807 150.562 413.217C150.284 413.622 150.145 414.213 150.145 414.987V419H148.538V414.338C148.538 413.955 148.488 413.636 148.388 413.381C148.292 413.121 148.144 412.927 147.943 412.8C147.743 412.668 147.49 412.602 147.185 412.602C146.743 412.602 146.389 412.702 146.125 412.902C145.865 413.103 145.678 413.399 145.564 413.791C145.451 414.178 145.394 414.655 145.394 415.22V419H143.787V411.433H145.038L145.264 412.451H145.353C145.507 412.187 145.699 411.97 145.927 411.802C146.159 411.629 146.417 411.501 146.699 411.419C146.982 411.332 147.276 411.289 147.581 411.289C148.146 411.289 148.622 411.389 149.01 411.59C149.397 411.786 149.687 412.087 149.878 412.492H150.001C150.238 412.082 150.568 411.779 150.992 411.583C151.416 411.387 151.865 411.289 152.339 411.289ZM160.159 411.289C160.834 411.289 161.412 411.428 161.896 411.706C162.379 411.984 162.75 412.378 163.01 412.889C163.27 413.399 163.399 414.01 163.399 414.721V415.582H158.348C158.366 416.316 158.562 416.881 158.936 417.277C159.314 417.674 159.842 417.872 160.521 417.872C161.005 417.872 161.438 417.826 161.82 417.735C162.208 417.64 162.606 417.501 163.017 417.318V418.624C162.638 418.802 162.253 418.932 161.861 419.014C161.469 419.096 161 419.137 160.453 419.137C159.71 419.137 159.056 418.993 158.491 418.706C157.931 418.414 157.491 417.981 157.172 417.407C156.857 416.833 156.7 416.12 156.7 415.268C156.7 414.42 156.844 413.7 157.131 413.107C157.418 412.515 157.821 412.064 158.341 411.754C158.86 411.444 159.466 411.289 160.159 411.289ZM160.159 412.499C159.653 412.499 159.243 412.663 158.929 412.991C158.619 413.319 158.437 413.8 158.382 414.434H161.827C161.823 414.055 161.759 413.72 161.636 413.429C161.517 413.137 161.335 412.909 161.089 412.745C160.847 412.581 160.537 412.499 160.159 412.499ZM169.155 411.289C170.007 411.289 170.671 411.51 171.145 411.952C171.623 412.39 171.862 413.094 171.862 414.064V419H170.256V414.365C170.256 413.777 170.135 413.338 169.894 413.046C169.652 412.75 169.278 412.602 168.772 412.602C168.039 412.602 167.528 412.827 167.241 413.278C166.959 413.729 166.817 414.383 166.817 415.24V419H165.211V411.433H166.462L166.688 412.458H166.776C166.94 412.194 167.143 411.977 167.385 411.809C167.631 411.635 167.904 411.506 168.205 411.419C168.51 411.332 168.827 411.289 169.155 411.289ZM176.928 417.838C177.137 417.838 177.345 417.82 177.55 417.783C177.755 417.742 177.942 417.694 178.11 417.64V418.856C177.933 418.934 177.702 419 177.42 419.055C177.137 419.109 176.843 419.137 176.538 419.137C176.11 419.137 175.725 419.066 175.383 418.925C175.041 418.779 174.77 418.531 174.569 418.18C174.369 417.829 174.269 417.343 174.269 416.724V412.656H173.236V411.938L174.344 411.371L174.87 409.751H175.882V411.433H178.049V412.656H175.882V416.703C175.882 417.086 175.978 417.371 176.169 417.558C176.36 417.744 176.613 417.838 176.928 417.838ZM184.734 416.84C184.734 417.337 184.614 417.756 184.372 418.098C184.131 418.439 183.777 418.699 183.312 418.877C182.852 419.05 182.287 419.137 181.617 419.137C181.089 419.137 180.633 419.098 180.25 419.021C179.872 418.948 179.514 418.834 179.177 418.679V417.291C179.537 417.46 179.94 417.605 180.387 417.729C180.838 417.852 181.264 417.913 181.665 417.913C182.194 417.913 182.574 417.831 182.807 417.667C183.039 417.498 183.155 417.275 183.155 416.997C183.155 416.833 183.107 416.687 183.012 416.56C182.921 416.427 182.747 416.293 182.492 416.156C182.242 416.015 181.872 415.846 181.385 415.65C180.906 415.459 180.503 415.268 180.175 415.076C179.847 414.885 179.598 414.655 179.43 414.386C179.261 414.112 179.177 413.764 179.177 413.34C179.177 412.67 179.441 412.162 179.97 411.815C180.503 411.465 181.207 411.289 182.082 411.289C182.547 411.289 182.984 411.337 183.395 411.433C183.809 411.524 184.215 411.658 184.611 411.836L184.105 413.046C183.764 412.896 183.42 412.772 183.073 412.677C182.731 412.576 182.383 412.526 182.027 412.526C181.613 412.526 181.296 412.59 181.077 412.718C180.863 412.845 180.756 413.028 180.756 413.265C180.756 413.442 180.808 413.593 180.913 413.716C181.018 413.839 181.198 413.962 181.453 414.085C181.713 414.208 182.073 414.361 182.533 414.543C182.984 414.716 183.374 414.898 183.702 415.09C184.035 415.277 184.29 415.507 184.468 415.78C184.646 416.054 184.734 416.407 184.734 416.84Z" fill="white"/>
</g>
<rect x="-1.5" y="-1.5" width="35" height="135" rx="2.5" transform="matrix(-4.37114e-08 -1 -1 4.37114e-08 145 387)" stroke="#F58D31" stroke-width="3" stroke-linejoin="round"/>
</g>
<defs>
<filter id="filter0_d_188_16613" x="-10" y="196" width="644" height="550" filterUnits="userSpaceOnUse" color-interpolation-filters="sRGB">
<feFlood flood-opacity="0" result="BackgroundImageFix"/>
<feColorMatrix in="SourceAlpha" type="matrix" values="0 0 0 0 0 0 0 0 0 0 0 0 0 0 0 0 0 0 127 0" result="hardAlpha"/>
<feOffset dy="-4"/>
<feGaussianBlur stdDeviation="5"/>
<feComposite in2="hardAlpha" operator="out"/>
<feColorMatrix type="matrix" values="0 0 0 0 0 0 0 0 0 0 0 0 0 0 0 0 0 0 0.15 0"/>
<feBlend mode="normal" in2="BackgroundImageFix" result="effect1_dropShadow_188_16613"/>
<feBlend mode="normal" in="SourceGraphic" in2="effect1_dropShadow_188_16613" result="shape"/>
</filter>
<linearGradient id="paint0_linear_188_16613" x1="527.571" y1="104.849" x2="933.607" y2="132.572" gradientUnits="userSpaceOnUse">
<stop stop-color="#292929" stop-opacity="0"/>
<stop offset="0.909525" stop-color="#292929"/>
</linearGradient>
<clipPath id="clip0_188_16613">
<rect width="624" height="444" fill="white"/>
</clipPath>
<clipPath id="clip1_188_16613">
<rect x="16" y="112" width="592" height="32" rx="3" fill="white"/>
</clipPath>
<clipPath id="clip2_188_16613">
<rect x="16" y="318" width="592" height="32" rx="3" fill="white"/>
</clipPath>
</defs>
</svg>
