<svg width="550" height="318" viewBox="0 0 550 318" fill="none" xmlns="http://www.w3.org/2000/svg">
<g clip-path="url(#clip0_188_21455)">
<rect width="550" height="318" fill="white"/>
<mask id="path-1-inside-1_188_21455" fill="white">
<path d="M0 0H914V40H0V0Z"/>
</mask>
<path d="M0 0H914V40H0V0Z" fill="#2A2A2A"/>
<path d="M0 1H914V-1H0V1ZM914 39H0V41H914V39Z" fill="#2A2A2A" mask="url(#path-1-inside-1_188_21455)"/>
<path fill-rule="evenodd" clip-rule="evenodd" d="M30.2105 17.0031C29.3947 17.6552 29 18.6583 29 19.9875C29 21.3166 29.3947 22.3197 30.2105 22.9969C31.0263 23.674 31.9474 24 33.0263 24C34.0789 24 35.0263 23.674 35.8158 22.9969C36.6053 22.3448 37 21.3417 37 20.0125C37 18.6583 36.6053 17.6803 35.8158 17.0031C35.0263 16.326 34.1053 16 33.0263 16C31.9474 16 31 16.326 30.2105 17.0031ZM31.2632 21.9937C30.9211 21.5674 30.7368 20.9154 30.7368 19.9875C30.7368 19.0846 30.9211 18.4326 31.2632 18.0313C31.6316 17.605 32.0263 17.3292 32.4474 17.2288L32.4474 17.2288C32.5526 17.2038 32.6579 17.1787 32.7368 17.1787C32.8158 17.1536 32.8947 17.1536 33 17.1536H33C33.0526 17.1536 33.0987 17.1599 33.1447 17.1661C33.1908 17.1724 33.2368 17.1787 33.2895 17.1787C33.3684 17.1787 33.4737 17.2038 33.5789 17.2288C34 17.3292 34.3947 17.605 34.7368 18.0313C35.0789 18.4577 35.2632 19.1348 35.2632 20.0125C35.2632 20.8903 35.0789 21.5674 34.7368 21.9937C34.3947 22.4201 34 22.6959 33.5789 22.7962C33.5609 22.8005 33.5436 22.8048 33.5268 22.809C33.4458 22.8292 33.3767 22.8464 33.2895 22.8464C33.1842 22.8715 33.1053 22.8715 33 22.8715C32.9605 22.8715 32.9145 22.8652 32.8684 22.8589L32.8684 22.8589C32.8224 22.8527 32.7763 22.8464 32.7368 22.8464C32.6496 22.8464 32.5805 22.8292 32.4995 22.809L32.4995 22.809L32.4994 22.809L32.4993 22.809C32.4826 22.8048 32.4654 22.8005 32.4474 22.7962C32.0263 22.6959 31.6316 22.4201 31.2632 21.9937ZM40.1338 16H38V24H39.6394V19.2821L39.6134 17.8718H39.6394L40.0558 18.7692L42.8662 24H45V16H43.3606V20.7179L43.3866 22.1282H43.3606L42.9442 21.0513L40.1338 16ZM46.32 16H48V22.641H51.5V24H46.32V16ZM52.0069 16H50L53.1615 20.7436V24H54.8935V20.7436L58 16H56.1581L54.3711 18.8205L54.0962 19.359H54.0412L53.7663 18.8205L52.0069 16ZM58 19.9875C58 18.6583 58.3947 17.6552 59.2105 17.0031C60 16.326 60.9474 16 62.0263 16C63.1053 16 64.0263 16.326 64.8158 17.0031C65.6053 17.6803 66 18.6583 66 20.0125C66 21.3417 65.6053 22.3448 64.8158 22.9969C64.0263 23.674 63.0789 24 62.0263 24C60.9474 24 60.0263 23.674 59.2105 22.9969C58.4211 22.3197 58 21.3166 58 19.9875ZM59.7368 19.9875C59.7368 20.9154 59.9211 21.5674 60.2632 21.9937C60.6316 22.4201 61 22.6959 61.4474 22.7962C61.5526 22.8213 61.6579 22.8464 61.7368 22.8464C61.7763 22.8464 61.8224 22.8527 61.8684 22.8589C61.9145 22.8652 61.9605 22.8715 62 22.8715C62.1053 22.8715 62.1842 22.8715 62.2895 22.8464C62.3767 22.8464 62.4458 22.8292 62.5268 22.809L62.5644 22.7997L62.5789 22.7962C63 22.6959 63.3947 22.4201 63.7368 21.9937C64.0789 21.5674 64.2632 20.8903 64.2632 20.0125C64.2632 19.1348 64.0789 18.4577 63.7368 18.0313C63.3947 17.605 63 17.3292 62.5789 17.2288C62.4737 17.2038 62.3684 17.1787 62.2895 17.1787C62.2368 17.1787 62.1908 17.1724 62.1447 17.1661C62.0987 17.1599 62.0526 17.1536 62 17.1536C61.8947 17.1536 61.8158 17.1536 61.7368 17.1787C61.6579 17.1787 61.5526 17.2038 61.4474 17.2288C61.0263 17.3292 60.6316 17.605 60.2632 18.0313C59.9211 18.4326 59.7368 19.0846 59.7368 19.9875ZM72 16H67.37V24H69V20.641H71.8707V19.2821H69V17.359H72V16ZM73.37 16H78V17.359H75V19.2821H77.8707V20.641H75V24H73.37V16ZM79.5 16V24H81.1376V16H79.5ZM88.5 16.2019V17.5647C88.2273 17.4637 87.9545 17.388 87.657 17.3375C87.3595 17.2871 87.0372 17.2618 86.6901 17.2618C85.8719 17.2618 85.2521 17.5142 84.8058 18.0442C84.3595 18.5489 84.1364 19.205 84.1364 19.9874C84.1364 20.7445 84.3347 21.3754 84.7562 21.8801C85.1777 22.3849 85.7727 22.6625 86.5413 22.6625C86.777 22.6625 87.0127 22.6436 87.2804 22.6222L87.2804 22.6222L87.4091 22.612C87.7314 22.5615 88.0537 22.4858 88.4008 22.3344L88.5 23.6719C88.4504 23.6972 88.376 23.7224 88.3017 23.7476C88.2025 23.7729 88.1033 23.7981 87.9793 23.8233C87.8513 23.8559 87.7025 23.878 87.5331 23.9031L87.533 23.9032C87.4401 23.9169 87.3409 23.9317 87.2355 23.9495C86.938 23.9748 86.6405 24 86.3182 24H86.1942H86.0703C85.1777 23.9495 84.3595 23.5962 83.6157 22.9905C82.8719 22.3596 82.5 21.3754 82.5 20.0631C82.5 18.776 82.8719 17.7666 83.5909 17.0599C84.3099 16.3533 85.3017 16 86.5165 16C86.8388 16 87.1364 16 87.3843 16.0252C87.6203 16.0471 87.8378 16.0878 88.0688 16.1311L88.1777 16.1514C88.2025 16.164 88.2335 16.1703 88.2645 16.1767C88.2955 16.183 88.3264 16.1893 88.3512 16.2019C88.3666 16.1863 88.3914 16.19 88.4256 16.1951C88.4468 16.1982 88.4716 16.2019 88.5 16.2019ZM95 16H90V24H95V22.7436H91.6636V20.5128H94.5489V19.2564H91.6636V17.2564H95V16Z" fill="white" fill-opacity="0.8"/>
<path opacity="0.5" fill-rule="evenodd" clip-rule="evenodd" d="M11.6047 22.5078L16.5631 24.8254C17.0657 25.0543 17.9111 25.0543 18.4366 24.8254L23.3723 22.5184L24.5602 23.0753C25.0857 23.327 25.0857 23.716 24.5602 23.9449L18.3912 26.8284C17.9114 27.0572 17.066 27.0572 16.5633 26.8284L10.3944 23.9449C9.86887 23.6932 9.86887 23.3041 10.3944 23.0753L11.6047 22.5078Z" fill="white" fill-opacity="0.8"/>
<path opacity="0.75" fill-rule="evenodd" clip-rule="evenodd" d="M11.5553 18.9846L16.5631 21.3254C17.0657 21.5542 17.9111 21.5542 18.4366 21.3254L23.4447 18.9845L24.6058 19.5281C25.1314 19.7798 25.1314 20.1689 24.6058 20.3977L18.4369 23.2812C17.9114 23.5329 17.066 23.5329 16.5633 23.2812L10.3944 20.3977C9.86887 20.146 9.86887 19.7569 10.3944 19.5281L11.5553 18.9846Z" fill="white" fill-opacity="0.8"/>
<path fill-rule="evenodd" clip-rule="evenodd" d="M16.5631 19.8254L10.3941 16.9419C9.86862 16.6902 9.86862 16.3011 10.3941 16.0723L16.5631 13.1888C17.0886 12.9371 17.934 12.9371 18.4366 13.1888L24.6056 16.0723C25.1311 16.324 25.1311 16.713 24.6056 16.9419L18.4366 19.8254C17.9111 20.0542 17.0658 20.0542 16.5631 19.8254Z" fill="white" fill-opacity="0.8"/>
<path d="M418.223 24V15.4102H421.182C421.85 15.4102 422.359 15.4512 422.711 15.5332C423.203 15.6465 423.623 15.8516 423.971 16.1484C424.424 16.5312 424.762 17.0215 424.984 17.6191C425.211 18.2129 425.324 18.8926 425.324 19.6582C425.324 20.3105 425.248 20.8887 425.096 21.3926C424.943 21.8965 424.748 22.3145 424.51 22.6465C424.271 22.9746 424.01 23.2344 423.725 23.4258C423.443 23.6133 423.102 23.7559 422.699 23.8535C422.301 23.9512 421.842 24 421.322 24H418.223ZM419.359 22.9863H421.193C421.76 22.9863 422.203 22.9336 422.523 22.8281C422.848 22.7227 423.105 22.5742 423.297 22.3828C423.566 22.1133 423.775 21.752 423.924 21.2988C424.076 20.8418 424.152 20.2891 424.152 19.6406C424.152 18.7422 424.004 18.0527 423.707 17.5723C423.414 17.0879 423.057 16.7637 422.635 16.5996C422.33 16.4824 421.84 16.4238 421.164 16.4238H419.359V22.9863ZM426.367 20.8887C426.367 19.7363 426.688 18.8828 427.328 18.3281C427.863 17.8672 428.516 17.6367 429.285 17.6367C430.141 17.6367 430.84 17.918 431.383 18.4805C431.926 19.0391 432.197 19.8125 432.197 20.8008C432.197 21.6016 432.076 22.2324 431.834 22.6934C431.596 23.1504 431.246 23.5059 430.785 23.7598C430.328 24.0137 429.828 24.1406 429.285 24.1406C428.414 24.1406 427.709 23.8613 427.17 23.3027C426.635 22.7441 426.367 21.9395 426.367 20.8887ZM427.451 20.8887C427.451 21.6855 427.625 22.2832 427.973 22.6816C428.32 23.0762 428.758 23.2734 429.285 23.2734C429.809 23.2734 430.244 23.0742 430.592 22.6758C430.939 22.2773 431.113 21.6699 431.113 20.8535C431.113 20.084 430.938 19.502 430.586 19.1074C430.238 18.709 429.805 18.5098 429.285 18.5098C428.758 18.5098 428.32 18.707 427.973 19.1016C427.625 19.4961 427.451 20.0918 427.451 20.8887ZM437.5 21.7207L438.537 21.8555C438.424 22.5703 438.133 23.1309 437.664 23.5371C437.199 23.9395 436.627 24.1406 435.947 24.1406C435.096 24.1406 434.41 23.8633 433.891 23.3086C433.375 22.75 433.117 21.9512 433.117 20.9121C433.117 20.2402 433.229 19.6523 433.451 19.1484C433.674 18.6445 434.012 18.2676 434.465 18.0176C434.922 17.7637 435.418 17.6367 435.953 17.6367C436.629 17.6367 437.182 17.8086 437.611 18.1523C438.041 18.4922 438.316 18.9766 438.438 19.6055L437.412 19.7637C437.314 19.3457 437.141 19.0312 436.891 18.8203C436.645 18.6094 436.346 18.5039 435.994 18.5039C435.463 18.5039 435.031 18.6953 434.699 19.0781C434.367 19.457 434.201 20.0586 434.201 20.8828C434.201 21.7188 434.361 22.3262 434.682 22.7051C435.002 23.084 435.42 23.2734 435.936 23.2734C436.35 23.2734 436.695 23.1465 436.973 22.8926C437.25 22.6387 437.426 22.248 437.5 21.7207ZM443.518 24V23.0859C443.033 23.7891 442.375 24.1406 441.543 24.1406C441.176 24.1406 440.832 24.0703 440.512 23.9297C440.195 23.7891 439.959 23.6133 439.803 23.4023C439.65 23.1875 439.543 22.9258 439.48 22.6172C439.438 22.4102 439.416 22.082 439.416 21.6328V17.7773H440.471V21.2285C440.471 21.7793 440.492 22.1504 440.535 22.3418C440.602 22.6191 440.742 22.8379 440.957 22.998C441.172 23.1543 441.438 23.2324 441.754 23.2324C442.07 23.2324 442.367 23.1523 442.645 22.9922C442.922 22.8281 443.117 22.6074 443.23 22.3301C443.348 22.0488 443.406 21.6426 443.406 21.1113V17.7773H444.461V24H443.518ZM446.119 24V17.7773H447.062V18.6504C447.258 18.3457 447.518 18.1016 447.842 17.918C448.166 17.7305 448.535 17.6367 448.949 17.6367C449.41 17.6367 449.787 17.7324 450.08 17.9238C450.377 18.1152 450.586 18.3828 450.707 18.7266C451.199 18 451.84 17.6367 452.629 17.6367C453.246 17.6367 453.721 17.8086 454.053 18.1523C454.385 18.4922 454.551 19.0176 454.551 19.7285V24H453.502V20.0801C453.502 19.6582 453.467 19.3555 453.396 19.1719C453.33 18.9844 453.207 18.834 453.027 18.7207C452.848 18.6074 452.637 18.5508 452.395 18.5508C451.957 18.5508 451.594 18.6973 451.305 18.9902C451.016 19.2793 450.871 19.7441 450.871 20.3848V24H449.816V19.957C449.816 19.4883 449.73 19.1367 449.559 18.9023C449.387 18.668 449.105 18.5508 448.715 18.5508C448.418 18.5508 448.143 18.6289 447.889 18.7852C447.639 18.9414 447.457 19.1699 447.344 19.4707C447.23 19.7715 447.174 20.2051 447.174 20.7715V24H446.119ZM460.375 21.9961L461.465 22.1309C461.293 22.7676 460.975 23.2617 460.51 23.6133C460.045 23.9648 459.451 24.1406 458.729 24.1406C457.818 24.1406 457.096 23.8613 456.561 23.3027C456.029 22.7402 455.764 21.9531 455.764 20.9414C455.764 19.8945 456.033 19.082 456.572 18.5039C457.111 17.9258 457.811 17.6367 458.67 17.6367C459.502 17.6367 460.182 17.9199 460.709 18.4863C461.236 19.0527 461.5 19.8496 461.5 20.877C461.5 20.9395 461.498 21.0332 461.494 21.1582H456.854C456.893 21.8418 457.086 22.3652 457.434 22.7285C457.781 23.0918 458.215 23.2734 458.734 23.2734C459.121 23.2734 459.451 23.1719 459.725 22.9688C459.998 22.7656 460.215 22.4414 460.375 21.9961ZM456.912 20.291H460.387C460.34 19.7676 460.207 19.375 459.988 19.1133C459.652 18.707 459.217 18.5039 458.682 18.5039C458.197 18.5039 457.789 18.666 457.457 18.9902C457.129 19.3145 456.947 19.748 456.912 20.291ZM462.795 24V17.7773H463.744V18.6621C464.201 17.9785 464.861 17.6367 465.725 17.6367C466.1 17.6367 466.443 17.7051 466.756 17.8418C467.072 17.9746 467.309 18.1504 467.465 18.3691C467.621 18.5879 467.73 18.8477 467.793 19.1484C467.832 19.3438 467.852 19.6855 467.852 20.1738V24H466.797V20.2148C466.797 19.7852 466.756 19.4648 466.674 19.2539C466.592 19.0391 466.445 18.8691 466.234 18.7441C466.027 18.6152 465.783 18.5508 465.502 18.5508C465.053 18.5508 464.664 18.6934 464.336 18.9785C464.012 19.2637 463.85 19.8047 463.85 20.6016V24H462.795ZM471.777 23.0566L471.93 23.9883C471.633 24.0508 471.367 24.082 471.133 24.082C470.75 24.082 470.453 24.0215 470.242 23.9004C470.031 23.7793 469.883 23.6211 469.797 23.4258C469.711 23.2266 469.668 22.8105 469.668 22.1777V18.5977H468.895V17.7773H469.668V16.2363L470.717 15.6035V17.7773H471.777V18.5977H470.717V22.2363C470.717 22.5371 470.734 22.7305 470.77 22.8164C470.809 22.9023 470.869 22.9707 470.951 23.0215C471.037 23.0723 471.158 23.0977 471.314 23.0977C471.432 23.0977 471.586 23.084 471.777 23.0566ZM476.494 24H475.439V17.2793C475.186 17.5215 474.852 17.7637 474.438 18.0059C474.027 18.248 473.658 18.4297 473.33 18.5508V17.5312C473.92 17.2539 474.436 16.918 474.877 16.5234C475.318 16.1289 475.631 15.7461 475.814 15.375H476.494V24Z" fill="white" fill-opacity="0.8"/>
<path d="M480.42 24V22.7988H481.621V24H480.42Z" fill="white" fill-opacity="0.8"/>
<path d="M488.148 24V23.2148C487.754 23.832 487.174 24.1406 486.408 24.1406C485.912 24.1406 485.455 24.0039 485.037 23.7305C484.623 23.457 484.301 23.0762 484.07 22.5879C483.844 22.0957 483.73 21.5312 483.73 20.8945C483.73 20.2734 483.834 19.7109 484.041 19.207C484.248 18.6992 484.559 18.3105 484.973 18.041C485.387 17.7715 485.85 17.6367 486.361 17.6367C486.736 17.6367 487.07 17.7168 487.363 17.877C487.656 18.0332 487.895 18.2383 488.078 18.4922V15.4102H489.127V24H488.148ZM484.814 20.8945C484.814 21.6914 484.982 22.2871 485.318 22.6816C485.654 23.0762 486.051 23.2734 486.508 23.2734C486.969 23.2734 487.359 23.0859 487.68 22.7109C488.004 22.332 488.166 21.7559 488.166 20.9824C488.166 20.1309 488.002 19.5059 487.674 19.1074C487.346 18.709 486.941 18.5098 486.461 18.5098C485.992 18.5098 485.6 18.7012 485.283 19.084C484.971 19.4668 484.814 20.0703 484.814 20.8945ZM490.398 20.8887C490.398 19.7363 490.719 18.8828 491.359 18.3281C491.895 17.8672 492.547 17.6367 493.316 17.6367C494.172 17.6367 494.871 17.918 495.414 18.4805C495.957 19.0391 496.229 19.8125 496.229 20.8008C496.229 21.6016 496.107 22.2324 495.865 22.6934C495.627 23.1504 495.277 23.5059 494.816 23.7598C494.359 24.0137 493.859 24.1406 493.316 24.1406C492.445 24.1406 491.74 23.8613 491.201 23.3027C490.666 22.7441 490.398 21.9395 490.398 20.8887ZM491.482 20.8887C491.482 21.6855 491.656 22.2832 492.004 22.6816C492.352 23.0762 492.789 23.2734 493.316 23.2734C493.84 23.2734 494.275 23.0742 494.623 22.6758C494.971 22.2773 495.145 21.6699 495.145 20.8535C495.145 20.084 494.969 19.502 494.617 19.1074C494.27 18.709 493.836 18.5098 493.316 18.5098C492.789 18.5098 492.352 18.707 492.004 19.1016C491.656 19.4961 491.482 20.0918 491.482 20.8887ZM501.531 21.7207L502.568 21.8555C502.455 22.5703 502.164 23.1309 501.695 23.5371C501.23 23.9395 500.658 24.1406 499.979 24.1406C499.127 24.1406 498.441 23.8633 497.922 23.3086C497.406 22.75 497.148 21.9512 497.148 20.9121C497.148 20.2402 497.26 19.6523 497.482 19.1484C497.705 18.6445 498.043 18.2676 498.496 18.0176C498.953 17.7637 499.449 17.6367 499.984 17.6367C500.66 17.6367 501.213 17.8086 501.643 18.1523C502.072 18.4922 502.348 18.9766 502.469 19.6055L501.443 19.7637C501.346 19.3457 501.172 19.0312 500.922 18.8203C500.676 18.6094 500.377 18.5039 500.025 18.5039C499.494 18.5039 499.062 18.6953 498.73 19.0781C498.398 19.457 498.232 20.0586 498.232 20.8828C498.232 21.7188 498.393 22.3262 498.713 22.7051C499.033 23.084 499.451 23.2734 499.967 23.2734C500.381 23.2734 500.727 23.1465 501.004 22.8926C501.281 22.6387 501.457 22.248 501.531 21.7207ZM502.768 24L505.041 20.7656L502.938 17.7773H504.256L505.211 19.2363C505.391 19.5137 505.535 19.7461 505.645 19.9336C505.816 19.6758 505.975 19.4473 506.119 19.248L507.168 17.7773H508.428L506.277 20.707L508.592 24H507.297L506.02 22.0664L505.68 21.5449L504.045 24H502.768Z" fill="white" fill-opacity="0.8"/>
<g clip-path="url(#clip1_188_21455)">
<rect width="914" height="490" transform="translate(0 40)" fill="#555555"/>
<rect x="59.5" y="60.5" width="795" height="1125" fill="#3A3A3A" stroke="#616161"/>
</g>
</g>
<defs>
<clipPath id="clip0_188_21455">
<rect width="550" height="318" fill="white"/>
</clipPath>
<clipPath id="clip1_188_21455">
<rect width="914" height="490" fill="white" transform="translate(0 40)"/>
</clipPath>
</defs>
</svg>
