<svg width="24" height="24" viewBox="0 0 24 24" fill="none" xmlns="http://www.w3.org/2000/svg">
<path d="M4 4C3.44772 4 3 4.44775 3 5V9C3 8.44775 3.44772 8 4 8H21C21.5523 8 22 8.44775 22 9V8C22 7.44775 21.5523 7 21 7H11V5C11 4.44775 10.5523 4 10 4H4Z" fill="#99E0C8"/>
<rect x="3" y="8" width="19" height="12" rx="1" fill="#C2F1E1"/>
<path d="M15.9697 17.0303L16.5 17.5607L17.0303 17.0303L21.2168 12.8438C21.3145 12.7462 21.4727 12.7462 21.5704 12.8438L22.0925 12.3217L21.5704 12.8438L23.1562 14.4296C23.2538 14.5272 23.2538 14.6855 23.1562 14.7832L17.2071 20.7322C16.8166 21.1228 16.1834 21.1228 15.7929 20.7322L12.8315 17.7708C12.7338 17.6732 12.7338 17.5149 12.8315 17.4173L14.4173 15.8315C14.5149 15.7338 14.6732 15.7338 14.7708 15.8315L15.9697 17.0303Z" stroke="#39BD86" stroke-width="1.5"/>
</svg>
