<svg width="24" height="24" viewBox="0 0 24 24" fill="none" xmlns="http://www.w3.org/2000/svg">
<path d="M21 7H2C0.89543 7 0 7.89543 0 9V19C0 20.1046 0.89543 21 2 21H21C22.1046 21 23 20.1046 23 19V9C23 7.89543 22.1046 7 21 7Z" fill="#C2F1E1" style="fill:#C2F1E1;fill:color(display-p3 0.7608 0.9451 0.8824);fill-opacity:1;"/>
<path d="M2 2C0.895447 2 0 2.89551 0 4V9C0 7.89551 0.895447 7 2 7H21C22.1046 7 23 7.89551 23 9V7C23 5.89551 22.1046 5 21 5H10V4C10 2.89551 9.10455 2 8 2H2Z" fill="#99E0C8" style="fill:#99E0C8;fill:color(display-p3 0.6000 0.8784 0.7843);fill-opacity:1;"/>
<path d="M15.9697 18.0303L16.5 18.5607L17.0303 18.0303L21.2168 13.8438C21.3145 13.7462 21.4728 13.7462 21.5704 13.8438L22.0926 13.3217L21.5704 13.8438L23.1562 15.4296C23.2538 15.5272 23.2538 15.6855 23.1562 15.7832L17.2071 21.7322C16.8166 22.1228 16.1834 22.1228 15.7929 21.7322L12.8315 18.7708C12.7339 18.6732 12.7339 18.5149 12.8315 18.4173L14.4173 16.8315C14.5149 16.7338 14.6732 16.7338 14.7708 16.8315L15.9697 18.0303Z" stroke="#39BD86" style="stroke:#39BD86;stroke:color(display-p3 0.2220 0.7400 0.5242);stroke-opacity:1;" stroke-width="1.5"/>
</svg>
