<svg width="24" height="24" viewBox="0 0 24 24" fill="none" xmlns="http://www.w3.org/2000/svg">
<path d="M4 4C3.44772 4 3 4.44775 3 5V9C3 8.44775 3.44772 8 4 8H21C21.5523 8 22 8.44775 22 9V8C22 7.44775 21.5523 7 21 7H11V5C11 4.44775 10.5523 4 10 4H4Z" fill="#788790"/>
<rect x="3" y="8" width="19" height="12" rx="1" fill="#B2BBC0"/>
<path d="M13.3536 10.6464L14.1464 9.85355C14.3417 9.65829 14.6583 9.65829 14.8536 9.85355L16.1464 11.1464C16.3417 11.3417 16.3417 11.6583 16.1464 11.8536L15.3536 12.6464C15.1583 12.8417 14.8417 12.8417 14.6464 12.6464L13.3536 11.3536C13.1583 11.1583 13.1583 10.8417 13.3536 10.6464Z" fill="#788790"/>
<path d="M14.1464 13.1464L12.8536 11.8536C12.6583 11.6583 12.3417 11.6583 12.1464 11.8536L9.10705 14.893C9.03725 14.9628 8.98967 15.0517 8.97031 15.1484L8.5 17.5L10.8516 17.0297C10.9483 17.0103 11.0372 16.9628 11.107 16.893L14.1464 13.8536C14.3417 13.6583 14.3417 13.3417 14.1464 13.1464Z" fill="#788790"/>
</svg>
