<svg width="24" height="24" viewBox="0 0 24 24" fill="none" xmlns="http://www.w3.org/2000/svg">
<rect width="24" height="24" rx="4" fill="#FFAC59" fill-opacity="0.2"/>
<g clip-path="url(#clip0_1312_210753)">
<path fill-rule="evenodd" clip-rule="evenodd" d="M17.3778 8.24264L15.9636 6.82843L15.2565 7.53553L14.5494 8.24264L15.9636 9.65685L16.6707 8.94975L17.3778 8.24264ZM17.3778 11.0711L18.7921 9.65685C19.5731 8.87581 19.5731 7.60948 18.7921 6.82843L17.3778 5.41421C16.5968 4.63317 15.3305 4.63316 14.5494 5.41421L13.1352 6.82843L12.4281 7.53553L11.721 8.24264L6.29983 13.6638C5.68784 14.2758 5.29086 15.0698 5.16846 15.9265L4.83848 18.2364C4.7442 18.8964 5.30988 19.4621 5.96985 19.3678L8.27973 19.0378C9.13651 18.9154 9.93048 18.5184 10.5425 17.9064L15.9636 12.4853L16.6707 11.7782L17.3778 11.0711ZM13.1352 9.65685L14.5494 11.0711L9.12826 16.4922C8.82226 16.7982 8.42528 16.9967 7.99689 17.0579L7.00694 17.1993L7.14836 16.2094C7.20956 15.781 7.40805 15.384 7.71404 15.078L13.1352 9.65685Z" fill="#FFAC59"/>
</g>
<defs>
<clipPath id="clip0_1312_210753">
<rect width="16" height="16" fill="white" transform="translate(4 4)"/>
</clipPath>
</defs>
</svg>
