<svg width="24" height="24" viewBox="0 0 24 24" fill="none" xmlns="http://www.w3.org/2000/svg">
<path d="M21 7H2C0.89543 7 0 7.89543 0 9V19C0 20.1046 0.89543 21 2 21H21C22.1046 21 23 20.1046 23 19V9C23 7.89543 22.1046 7 21 7Z" fill="#FFE2C2" style="fill:#FFE2C2;fill:color(display-p3 1.0000 0.8863 0.7608);fill-opacity:1;"/>
<path d="M2 2C0.895447 2 0 2.89551 0 4V9C0 7.89551 0.895447 7 2 7H21C22.1046 7 23 7.89551 23 9V7C23 5.89551 22.1046 5 21 5H10V4C10 2.89551 9.10455 2 8 2H2Z" fill="#FFD6B0" style="fill:#FFD6B0;fill:color(display-p3 1.0000 0.8398 0.6900);fill-opacity:1;"/>
<path d="M21.5876 13.8266L23.1734 15.4124C23.271 15.51 23.271 15.6683 23.1734 15.7659L17.7054 21.234C17.6671 21.2722 17.6175 21.297 17.564 21.3047L15.3839 21.6161L15.6953 19.436C15.703 19.3825 15.7278 19.3329 15.766 19.2946L21.2341 13.8266C21.3317 13.729 21.49 13.729 21.5876 13.8266ZM15.0539 21.6633C15.054 21.6632 15.0541 21.6632 15.0542 21.6632L15.0539 21.6633Z" fill="#FFE2C2" stroke="#FF9142" style="fill:#FFE2C2;fill:color(display-p3 1.0000 0.8863 0.7608);fill-opacity:1;stroke:#FF9142;stroke:color(display-p3 1.0000 0.5683 0.2600);stroke-opacity:1;" stroke-width="1.5"/>
<path d="M20 16L21 17" stroke="#FF9142" style="stroke:#FF9142;stroke:color(display-p3 1.0000 0.5683 0.2600);stroke-opacity:1;" stroke-width="1.5"/>
</svg>
