<svg width="24" height="24" viewBox="0 0 24 24" fill="none" xmlns="http://www.w3.org/2000/svg">
<path d="M4 4C3.44772 4 3 4.44775 3 5V9C3 8.44775 3.44772 8 4 8H21C21.5523 8 22 8.44775 22 9V8C22 7.44775 21.5523 7 21 7H11V5C11 4.44775 10.5523 4 10 4H4Z" fill="#FFD6B0"/>
<rect x="3" y="8" width="19" height="12" rx="1" fill="#FFE2C2"/>
<path d="M21.5876 12.8266L23.1734 14.4124C23.271 14.51 23.271 14.6683 23.1734 14.7659L17.7054 20.234C17.6671 20.2722 17.6175 20.297 17.564 20.3047L15.3839 20.6161L15.6953 18.436C15.703 18.3825 15.7278 18.3329 15.766 18.2946L21.2341 12.8266C21.3317 12.729 21.49 12.729 21.5876 12.8266ZM15.0539 20.6633C15.054 20.6632 15.0541 20.6632 15.0542 20.6632L15.0539 20.6633Z" fill="#FFE2C2" stroke="#FF9142" stroke-width="1.5"/>
<path d="M20 15L21 16" stroke="#FF9142" stroke-width="1.5"/>
</svg>
