<svg width="24" height="24" viewBox="0 0 24 24" fill="none" xmlns="http://www.w3.org/2000/svg">
<rect y="7" width="23" height="14" rx="2" fill="#B2BBC0"/>
<path d="M2 2C0.895447 2 0 2.89551 0 4V9C0 7.89551 0.895447 7 2 7H21C22.1046 7 23 7.89551 23 9V7C23 5.89551 22.1046 5 21 5H10V4C10 2.89551 9.10455 2 8 2H2Z" fill="#788790"/>
<path d="M12.8536 11.1464L13.6464 10.3536C13.8417 10.1583 14.1583 10.1583 14.3536 10.3536L15.6464 11.6464C15.8417 11.8417 15.8417 12.1583 15.6464 12.3536L14.8536 13.1464C14.6583 13.3417 14.3417 13.3417 14.1464 13.1464L12.8536 11.8536C12.6583 11.6583 12.6583 11.3417 12.8536 11.1464Z" fill="#788790"/>
<path d="M13.6464 13.6464L12.3536 12.3536C12.1583 12.1583 11.8417 12.1583 11.6464 12.3536L8.60705 15.393C8.53725 15.4628 8.48967 15.5517 8.47031 15.6484L8 18L10.3516 17.5297C10.4483 17.5103 10.5372 17.4628 10.607 17.393L13.6464 14.3536C13.8417 14.1583 13.8417 13.8417 13.6464 13.6464Z" fill="#788790"/>
</svg>
