<svg width="32" height="32" viewBox="0 0 32 32" fill="none" xmlns="http://www.w3.org/2000/svg">
<g clip-path="url(#clip0_19191_1958)">
<path d="M5.5 3C5.5 2.17157 6.17157 1.5 7 1.5H20.5858C20.7184 1.5 20.8456 1.55268 20.9393 1.64645L26.3536 7.06066C26.4473 7.15443 26.5 7.2816 26.5 7.41421V29C26.5 29.8284 25.8284 30.5 25 30.5H7C6.17157 30.5 5.5 29.8284 5.5 29V3Z" fill="white" stroke="#BBBBBB"/>
<path d="M20.5 2V5.1C20.5 5.94008 20.5 6.36012 20.6635 6.68099C20.8073 6.96323 21.0368 7.1927 21.319 7.33651C21.6399 7.5 22.0599 7.5 22.9 7.5H26" stroke="#BBBBBB"/>
<path fill-rule="evenodd" clip-rule="evenodd" d="M13.8 21C13.9105 21 14 20.9105 14 20.8V20C14 19.4477 13.5523 19 13 19C12.4477 19 12 19.4477 12 20V20.8C12 20.9105 12.0895 21 12.2 21H13.8ZM13 17C11.3431 17 10 18.3431 10 20V22C10 22.5523 10.4477 23 11 23H15C15.5523 23 16 22.5523 16 22V20C16 18.3431 14.6569 17 13 17Z" fill="#A1A1A1"/>
<path fill-rule="evenodd" clip-rule="evenodd" d="M12.25 23C12.1119 23 12 23.1119 12 23.25V25.75C12 25.8881 12.1119 26 12.25 26H13.75C13.8881 26 14 25.8881 14 25.75V23.25C14 23.1119 13.8881 23 13.75 23H12.25ZM11 21C10.4477 21 10 21.4477 10 22V27C10 27.5523 10.4477 28 11 28H15C15.5523 28 16 27.5523 16 27V22C16 21.4477 15.5523 21 15 21H11Z" fill="#A1A1A1"/>
<path fill-rule="evenodd" clip-rule="evenodd" d="M16 4.5C16 4.22386 15.7761 4 15.5 4H13.5C13.2239 4 13 4.22386 13 4.5V5.5C13 5.77614 13.2239 6 13.5 6L15.5 6C15.7761 6 16 5.77614 16 5.5V4.5ZM12.5 6C12.7761 6 13 6.22386 13 6.5V7.5C13 7.77614 12.7761 8 12.5 8H10.5C10.2239 8 10 7.77614 10 7.5V6.5C10 6.22386 10.2239 6 10.5 6L12.5 6ZM13 10.5C13 10.2239 12.7761 10 12.5 10H10.5C10.2239 10 10 10.2239 10 10.5V11.5C10 11.7761 10.2239 12 10.5 12H12.5C12.7761 12 13 11.7761 13 11.5V10.5ZM13 14.5C13 14.2239 12.7761 14 12.5 14H10.5C10.2239 14 10 14.2239 10 14.5V15.5C10 15.7761 10.2239 16 10.5 16H12.5C12.7761 16 13 15.7761 13 15.5V14.5ZM16 12.5C16 12.2239 15.7761 12 15.5 12H13.5C13.2239 12 13 12.2239 13 12.5V13.5C13 13.7761 13.2239 14 13.5 14H15.5C15.7761 14 16 13.7761 16 13.5V12.5ZM15.5 8C15.7761 8 16 8.22386 16 8.5V9.5C16 9.77614 15.7761 10 15.5 10H13.5C13.2239 10 13 9.77614 13 9.5V8.5C13 8.22386 13.2239 8 13.5 8H15.5Z" fill="#BBBBBB"/>
</g>
<defs>
<clipPath id="clip0_19191_1958">
<rect width="32" height="32" fill="white"/>
</clipPath>
</defs>
</svg>
