<svg width="32" height="32" viewBox="0 0 32 32" fill="none" xmlns="http://www.w3.org/2000/svg">
<g clip-path="url(#clip0_19191_2007)">
<path d="M5.5 3C5.5 2.17157 6.17157 1.5 7 1.5H20.5858C20.7184 1.5 20.8456 1.55268 20.9393 1.64645L26.3536 7.06066C26.4473 7.15443 26.5 7.2816 26.5 7.41421V29C26.5 29.8284 25.8284 30.5 25 30.5H7C6.17157 30.5 5.5 29.8284 5.5 29V3Z" fill="white" stroke="#BBBBBB"/>
<path d="M20.5 2V5.1C20.5 5.94008 20.5 6.36012 20.6635 6.68099C20.8073 6.96323 21.0368 7.1927 21.319 7.33651C21.6399 7.5 22.0599 7.5 22.9 7.5H26" stroke="#BBBBBB"/>
<mask id="path-3-inside-1_19191_2007" fill="white">
<rect x="8" y="11" width="16" height="13" rx="1"/>
</mask>
<rect x="8" y="11" width="16" height="13" rx="1" stroke="#FC7462" stroke-width="4" mask="url(#path-3-inside-1_19191_2007)"/>
<path fill-rule="evenodd" clip-rule="evenodd" d="M10 13V15.5C10 15.7761 9.77614 16 9.5 16H8.5C8.22386 16 8 15.7761 8 15.5V12.01C8 11.4522 8.45219 11 9.01 11H22.99C23.5478 11 24 11.4522 24 12.01V15.5C24 15.7761 23.7761 16 23.5 16H22.5C22.2239 16 22 15.7761 22 15.5V13H10Z" fill="#E52910"/>
<rect x="12" y="10" width="2" height="4" rx="0.5" fill="#E52910"/>
<rect x="18" y="10" width="2" height="4" rx="0.5" fill="#E52910"/>
<path d="M17.6472 21C17.3499 21 17.1565 20.6871 17.2894 20.4211L19 17H16.4C16.1791 17 16 16.8209 16 16.6V15.4C16 15.1791 16.1791 15 16.4 15H20.6C20.8209 15 21 15.1791 21 15.4V16.9056C21 16.9677 20.9855 17.0289 20.9578 17.0845L19.1106 20.7789C19.0428 20.9144 18.9043 21 18.7528 21H17.6472Z" fill="#E52910"/>
<path d="M13.4 21.0001H14.6C14.8209 21.0001 15 20.821 15 20.6001V15.4C15 15.1791 14.8209 15 14.6 15H13.1657C13.0596 15 12.9579 15.0421 12.8828 15.1172L12.1172 15.8828C12.0421 15.9579 12 16.0596 12 16.1657V17.0343C12 17.3907 12.4309 17.5691 12.6828 17.3172L13 17V18V20.6001C13 20.821 13.1791 21.0001 13.4 21.0001Z" fill="#E52910"/>
</g>
<defs>
<clipPath id="clip0_19191_2007">
<rect width="32" height="32" fill="white"/>
</clipPath>
</defs>
</svg>
