<svg width="32" height="32" viewBox="0 0 32 32" fill="none" xmlns="http://www.w3.org/2000/svg">
<g clip-path="url(#clip0_19051_10334)">
<path d="M5.5 3C5.5 2.17157 6.17157 1.5 7 1.5H20.5858C20.7184 1.5 20.8456 1.55268 20.9393 1.64645L26.3536 7.06066C26.4473 7.15443 26.5 7.2816 26.5 7.41421V29C26.5 29.8284 25.8284 30.5 25 30.5H7C6.17157 30.5 5.5 29.8284 5.5 29V3Z" fill="white" stroke="#BBBBBB"/>
<path d="M20.5 2V5.1C20.5 5.94008 20.5 6.36012 20.6635 6.68099C20.8073 6.96323 21.0368 7.1927 21.319 7.33651C21.6399 7.5 22.0599 7.5 22.9 7.5H26" stroke="#BBBBBB"/>
<path fill-rule="evenodd" clip-rule="evenodd" d="M10 16C9.44772 16 9 16.4477 9 17C9 17.5523 9.44772 18 10 18H14C14.5523 18 15 17.5523 15 17C15 16.4477 14.5523 16 14 16H10ZM18 16C17.4477 16 17 16.4477 17 17C17 17.5523 17.4477 18 18 18H22C22.5523 18 23 17.5523 23 17C23 16.4477 22.5523 16 22 16H18ZM9 21C9 20.4477 9.44772 20 10 20H14C14.5523 20 15 20.4477 15 21C15 21.5523 14.5523 22 14 22H10C9.44772 22 9 21.5523 9 21ZM18 20C17.4477 20 17 20.4477 17 21C17 21.5523 17.4477 22 18 22H22C22.5523 22 23 21.5523 23 21C23 20.4477 22.5523 20 22 20H18Z" fill="#B0D9AD"/>
<path fill-rule="evenodd" clip-rule="evenodd" d="M10 12C9.44772 12 9 12.4477 9 13C9 13.5523 9.44772 14 10 14H14C14.5523 14 15 13.5523 15 13C15 12.4477 14.5523 12 14 12H10ZM18 12C17.4477 12 17 12.4477 17 13C17 13.5523 17.4477 14 18 14H22C22.5523 14 23 13.5523 23 13C23 12.4477 22.5523 12 22 12H18Z" fill="#3AA133"/>
</g>
<defs>
<clipPath id="clip0_19051_10334">
<rect width="32" height="32" fill="white"/>
</clipPath>
</defs>
</svg>
