<svg width="32" height="32" viewBox="0 0 32 32" fill="none" xmlns="http://www.w3.org/2000/svg">
<rect width="32" height="32" rx="6" fill="#4781D1" fill-opacity="0.1"/>
<g clip-path="url(#clip0_2604_25127)">
<path d="M16 8C20.4183 8 24 11.5817 24 16C24 20.4183 20.4183 24 16 24C11.5817 24 8 20.4183 8 16C8 11.5817 11.5817 8 16 8ZM16 10C12.6863 10 10 12.6863 10 16C10 19.3137 12.6863 22 16 22C19.3137 22 22 19.3137 22 16C22 12.6863 19.3137 10 16 10ZM17 16H19V18H16C15.4477 18 15 17.5523 15 17V11.5H17V16Z" fill="#4781D1"/>
</g>
<defs>
<clipPath id="clip0_2604_25127">
<rect width="16" height="16" fill="white" transform="translate(8 8)"/>
</clipPath>
</defs>
</svg>