<svg width="32" height="32" viewBox="0 0 32 32" fill="none" xmlns="http://www.w3.org/2000/svg">
<rect width="32" height="32" rx="6" fill="#4781D1" fill-opacity="0.1"/>
<path fill-rule="evenodd" clip-rule="evenodd" d="M13.4957 12.9474C12.9838 13.5199 12.6863 14.308 12.6217 15.1048L12.5472 16.024H11.5556C10.671 16.024 10 16.7153 10 17.512C10 18.2823 10.6265 18.9534 11.4677 18.9977L20.0917 18.998C21.1771 18.9514 22 18.087 22 17.0793C22 16.0437 21.13 15.1587 20 15.1587H19.1198L18.8948 14.4687C18.6703 13.7806 18.3598 13.1694 17.897 12.7333C17.4607 12.3222 16.8194 12 15.7778 12C14.7147 12 13.9873 12.3976 13.4957 12.9474ZM12.0048 11.6143C12.8764 10.6395 14.1464 10 15.7778 10C17.2917 10 18.4347 10.492 19.2686 11.2777C19.8734 11.8475 20.2752 12.5337 20.5542 13.1962C22.4826 13.4596 24 15.0772 24 17.0793C24 19.2204 22.264 20.9224 20.1465 20.9974L20.1288 20.998L11.4236 20.9977L11.4028 20.9968C9.53353 20.919 8 19.4118 8 17.512C8 15.8376 9.19078 14.4686 10.7533 14.1137C10.9507 13.2238 11.3558 12.3401 12.0048 11.6143Z" fill="#4781D1"/>
</svg>
