<svg width="32" height="32" viewBox="0 0 32 32" fill="none" xmlns="http://www.w3.org/2000/svg">
<g clip-path="url(#clip0_19051_10390)">
<path d="M7 1.5H20.5859C20.7185 1.50004 20.8457 1.55275 20.9395 1.64648L26.3535 7.06055C26.4472 7.15428 26.5 7.28151 26.5 7.41406V29C26.5 29.8284 25.8284 30.5 25 30.5H7C6.17157 30.5 5.5 29.8284 5.5 29V3C5.5 2.17157 6.17157 1.5 7 1.5Z" fill="white" stroke="#BBBBBB"/>
<path d="M20.5 2V5.1C20.5 5.94008 20.5 6.36012 20.6635 6.68099C20.8073 6.96323 21.0368 7.1927 21.319 7.33651C21.6399 7.5 22.0599 7.5 22.9 7.5H26" stroke="#BBBBBB"/>
<path d="M16 19.2C16 18.0799 16 17.5198 16.218 17.092C16.4097 16.7157 16.7157 16.4097 17.092 16.218C17.5198 16 18.0799 16 19.2 16H24.8C25.9201 16 26.4802 16 26.908 16.218C27.2843 16.4097 27.5903 16.7157 27.782 17.092C28 17.5198 28 18.0799 28 19.2V24.8C28 25.9201 28 26.4802 27.782 26.908C27.5903 27.2843 27.2843 27.5903 26.908 27.782C26.4802 28 25.9201 28 24.8 28H19.2C18.0799 28 17.5198 28 17.092 27.782C16.7157 27.5903 16.4097 27.2843 16.218 26.908C16 26.4802 16 25.9201 16 24.8V19.2Z" fill="#705CED"/>
<path d="M23 25L25 19H23L22 23L21 19H19L21 25H23Z" fill="white"/>
<path fill-rule="evenodd" clip-rule="evenodd" d="M11 14V12H13V14H12H11ZM11 16L11 18.1707C9.83481 18.5825 9 19.6938 9 21C9 22.6569 10.3431 24 12 24C13.6569 24 15 22.6569 15 21C15 19.6938 14.1652 18.5825 13 18.1707V16H14C14.5523 16 15 15.5523 15 15V14H22C22.5523 14 23 13.5523 23 13C23 12.4477 22.5523 12 22 12H15V11C15 10.4477 14.5523 10 14 10H10C9.44772 10 9 10.4477 9 11V15C9 15.5523 9.44772 16 10 16H11ZM11 21C11 20.4477 11.4477 20 12 20C12.5523 20 13 20.4477 13 21C13 21.5523 12.5523 22 12 22C11.4477 22 11 21.5523 11 21Z" fill="#C6BEF8"/>
</g>
<defs>
<clipPath id="clip0_19051_10390">
<rect width="32" height="32" fill="white"/>
</clipPath>
</defs>
</svg>
