<svg width="32" height="32" viewBox="0 0 32 32" fill="none" xmlns="http://www.w3.org/2000/svg">
<path d="M4 5C4 4.44772 4.44772 4 5 4H12.5858C12.851 4 13.1054 4.10536 13.2929 4.29289L15.7071 6.70711C15.8946 6.89464 16.149 7 16.4142 7H27C27.5523 7 28 7.44772 28 8V21C28 21.5523 27.5523 22 27 22H5C4.44772 22 4 21.5523 4 21V5Z" fill="#D3F3E7"/>
<path fill-rule="evenodd" clip-rule="evenodd" d="M27 21V8H16.4142C15.8838 8 15.3751 7.78929 15 7.41421L12.5858 5H5V21H27ZM5 4C4.44772 4 4 4.44772 4 5V21C4 21.5523 4.44772 22 5 22H27C27.5523 22 28 21.5523 28 21V8C28 7.44772 27.5523 7 27 7H16.4142C16.149 7 15.8946 6.89464 15.7071 6.70711L13.2929 4.29289C13.1054 4.10536 12.851 4 12.5858 4H5Z" fill="#22C386"/>
<path d="M3 11C3 10.4477 3.44772 10 4 10H28C28.5523 10 29 10.4477 29 11V27C29 27.5523 28.5523 28 28 28H4C3.44772 28 3 27.5523 3 27V11Z" fill="#F2FBF8"/>
<path fill-rule="evenodd" clip-rule="evenodd" d="M28 11H4V27H28V11ZM4 10C3.44772 10 3 10.4477 3 11V27C3 27.5523 3.44772 28 4 28H28C28.5523 28 29 27.5523 29 27V11C29 10.4477 28.5523 10 28 10H4Z" fill="#22C386"/>
<path d="M30.4483 22.3793C31.2101 21.5795 31.1792 20.3135 30.3793 19.5517C29.5795 18.79 28.3135 18.8208 27.5517 19.6207L22.2505 25.1869L20.3646 23.4268C19.5571 22.6731 18.2916 22.7168 17.5379 23.5243C16.7842 24.3318 16.8279 25.5973 17.6354 26.351L20.9687 29.4621C21.7705 30.2104 23.0253 30.1735 23.7816 29.3793L30.4483 22.3793Z" fill="white" stroke="#22C386" stroke-width="2" stroke-linecap="round" stroke-linejoin="round"/>
</svg>
