<svg width="32" height="32" viewBox="0 0 32 32" fill="none" xmlns="http://www.w3.org/2000/svg">
<path d="M4 5C4 4.44772 4.44772 4 5 4H12.5858C12.851 4 13.1054 4.10536 13.2929 4.29289L15.7071 6.70711C15.8946 6.89464 16.149 7 16.4142 7H27C27.5523 7 28 7.44772 28 8V21C28 21.5523 27.5523 22 27 22H5C4.44772 22 4 21.5523 4 21V5Z" fill="#FFEBD6"/>
<path fill-rule="evenodd" clip-rule="evenodd" d="M27 21V8H16.4142C15.8838 8 15.3751 7.78929 15 7.41421L12.5858 5H5V21H27ZM5 4C4.44772 4 4 4.44772 4 5V21C4 21.5523 4.44772 22 5 22H27C27.5523 22 28 21.5523 28 21V8C28 7.44772 27.5523 7 27 7H16.4142C16.149 7 15.8946 6.89464 15.7071 6.70711L13.2929 4.29289C13.1054 4.10536 12.851 4 12.5858 4H5Z" fill="#FF9933"/>
<path d="M3 11C3 10.4477 3.44772 10 4 10H28C28.5523 10 29 10.4477 29 11V27C29 27.5523 28.5523 28 28 28H4C3.44772 28 3 27.5523 3 27V11Z" fill="#FFF9F3"/>
<path fill-rule="evenodd" clip-rule="evenodd" d="M28 11H4V27H28V11ZM4 10C3.44772 10 3 10.4477 3 11V27C3 27.5523 3.44772 28 4 28H28C28.5523 28 29 27.5523 29 27V11C29 10.4477 28.5523 10 28 10H4Z" fill="#FF9933"/>
<g clip-path="url(#clip0_19269_290877)">
<path d="M26.6785 17.1213C27.8501 15.9497 29.7496 15.9497 30.9211 17.1213C32.0927 18.2929 32.0927 20.1924 30.9211 21.364L22.1205 30.1646C21.8641 30.421 21.543 30.6028 21.1913 30.6907L17.6888 31.5663C16.9564 31.7494 16.293 31.086 16.4761 30.3537L17.3517 26.8511C17.4397 26.4995 17.6215 26.1783 17.8778 25.922L26.6785 17.1213Z" fill="white"/>
<path fill-rule="evenodd" clip-rule="evenodd" d="M27.3856 22.0711L20.7062 28.7504L18.8206 29.2218L19.292 27.3362L25.9714 20.6569L27.3856 22.0711ZM30.214 22.0711L28.7998 23.4853L22.1205 30.1646C21.8641 30.421 21.543 30.6028 21.1913 30.6907L17.6888 31.5663C16.9564 31.7494 16.293 31.086 16.4761 30.3537L17.3517 26.8511C17.4397 26.4995 17.6215 26.1783 17.8778 25.922L24.5572 19.2426L25.9714 17.8284L26.6785 17.1213C27.8501 15.9497 29.7496 15.9497 30.9211 17.1213C32.0927 18.2929 32.0927 20.1924 30.9211 21.364L30.214 22.0711ZM27.3856 19.2426L28.0927 18.5355C28.4832 18.145 29.1164 18.145 29.5069 18.5355C29.8974 18.9261 29.8974 19.5592 29.5069 19.9497L28.7998 20.6569L27.3856 19.2426Z" fill="#FF9933"/>
</g>
<defs>
<clipPath id="clip0_19269_290877">
<rect width="16" height="16" fill="white" transform="translate(16 16)"/>
</clipPath>
</defs>
</svg>
