<svg width="32" height="32" viewBox="0 0 32 32" fill="none" xmlns="http://www.w3.org/2000/svg">
<rect width="32" height="32" rx="6" fill="#4781D1" fill-opacity="0.1"/>
<g clip-path="url(#clip0_2604_25171)">
<path d="M16 8C20.4183 8 24 11.5817 24 16C24 20.4183 20.4183 24 16 24C11.5817 24 8 20.4183 8 16H10C10 19.3137 12.6863 22 16 22C19.3137 22 22 19.3137 22 16C22 12.6863 19.3137 10 16 10C14.3429 10 12.8447 10.6709 11.7578 11.7578L11.75 11.7646L11.7412 11.7734C11.7388 11.7758 11.7343 11.7794 11.7285 11.7852C11.7161 11.7974 11.696 11.8182 11.6689 11.8457C11.6322 11.8831 11.5835 11.9353 11.5225 12H13V14H9C8.44772 14 8 13.5523 8 13V9H10V10.6982C10.1004 10.5901 10.1821 10.5045 10.2422 10.4434L10.3535 10.332C10.3545 10.3311 10.3558 10.3307 10.3564 10.3301L10.3574 10.3291C11.8029 8.89078 13.7983 8 16 8ZM20.208 14.2061L16.207 18.207C16.0196 18.3945 15.7651 18.4999 15.5 18.5C15.2349 18.5 14.9805 18.3945 14.793 18.207L12.793 16.207L14.207 14.793L15.5 16.0859L18.7939 12.792L20.208 14.2061Z" fill="#4781D1"/>
</g>
<defs>
<clipPath id="clip0_2604_25171">
<rect width="16.0001" height="15.9997" fill="white" transform="translate(8 8)"/>
</clipPath>
</defs>
</svg>