<svg width="32" height="32" viewBox="0 0 32 32" fill="none" xmlns="http://www.w3.org/2000/svg">
<g clip-path="url(#clip0_19051_10379)">
<path d="M5.5 3C5.5 2.17157 6.17157 1.5 7 1.5H20.5858C20.7184 1.5 20.8456 1.55268 20.9393 1.64645L26.3536 7.06066C26.4473 7.15443 26.5 7.2816 26.5 7.41421V29C26.5 29.8284 25.8284 30.5 25 30.5H7C6.17157 30.5 5.5 29.8284 5.5 29V3Z" fill="white" stroke="#BBBBBB"/>
<path d="M20.5 2V5.1C20.5 5.94008 20.5 6.36012 20.6635 6.68099C20.8073 6.96323 21.0368 7.1927 21.319 7.33651C21.6399 7.5 22.0599 7.5 22.9 7.5H26" stroke="#BBBBBB"/>
<path fill-rule="evenodd" clip-rule="evenodd" d="M18.2929 19.2929C17.9024 19.6834 17.9024 20.3166 18.2929 20.7071C18.6834 21.0976 19.3166 21.0976 19.7071 20.7071L22.7071 17.7071C22.8946 17.5196 23 17.2652 23 17C23 16.7348 22.8946 16.4804 22.7071 16.2929L19.7071 13.2929C19.3166 12.9024 18.6834 12.9024 18.2929 13.2929C17.9024 13.6834 17.9024 14.3166 18.2929 14.7071L20.5858 17L18.2929 19.2929ZM13.7071 14.7071C14.0976 14.3166 14.0976 13.6834 13.7071 13.2929C13.3166 12.9024 12.6834 12.9024 12.2929 13.2929L9.29289 16.2929C8.90237 16.6834 8.90237 17.3166 9.29289 17.7071L12.2929 20.7071C12.6834 21.0976 13.3166 21.0976 13.7071 20.7071C14.0976 20.3166 14.0976 19.6834 13.7071 19.2929L11.4142 17L13.7071 14.7071Z" fill="#A1A1A1"/>
</g>
<defs>
<clipPath id="clip0_19051_10379">
<rect width="32" height="32" fill="white"/>
</clipPath>
</defs>
</svg>
