<svg width="32" height="32" viewBox="0 0 32 32" fill="none" xmlns="http://www.w3.org/2000/svg">
<rect width="32" height="32" rx="6" fill="#4781D1" fill-opacity="0.1"/>
<g clip-path="url(#clip0_3321_31919)">
<path fill-rule="evenodd" clip-rule="evenodd" d="M10 8C8.89543 8 8 8.89543 8 10V22C8 23.1046 8.89543 24 10 24H22C23.1046 24 24 23.1046 24 22V10C24 8.89543 23.1046 8 22 8H10ZM11 10C10.4477 10 10 10.4477 10 11V21C10 21.2039 10.061 21.3935 10.1657 21.5516C10.362 20.7891 10.7046 19.9307 11.1341 19.1873C11.4361 18.6647 11.81 18.1476 12.2529 17.7489C12.6892 17.3563 13.2827 17.0001 13.9999 17C14.6355 17 15.1401 17.1216 15.5745 17.345C15.9319 17.5288 16.2122 17.7725 16.3977 17.9339C16.4211 17.9542 16.443 17.9733 16.4633 17.9907C16.6615 18.1606 16.7998 18.2645 16.9877 18.3432C17.176 18.422 17.477 18.5 18 18.5C18.2033 18.5 18.5477 18.3665 19.0271 17.8414C19.487 17.3377 19.9395 16.615 20.36 15.7941C21.0592 14.4289 21.5892 12.9596 21.9013 12.0942L21.9014 12.094C21.9372 11.9949 21.97 11.9037 22 11.8215V11C22 10.4477 21.5523 10 21 10H11ZM22 16.974C21.5744 17.7728 21.0742 18.5655 20.5041 19.1899C19.8898 19.8627 19.0467 20.5 18 20.5C17.273 20.5 16.699 20.3905 16.2154 20.188C15.7314 19.9854 15.401 19.7143 15.1617 19.5092L15.098 19.4545L15.098 19.4545C14.8878 19.274 14.7917 19.1914 14.6599 19.1236C14.5474 19.0658 14.3645 19 14.0001 19C13.9673 19 13.8317 19.0188 13.5908 19.2355C13.3567 19.4463 13.1056 19.7729 12.8659 20.1878C12.523 20.7812 12.2623 21.4506 12.1156 22H21C21.5523 22 22 21.5523 22 21V16.974ZM15 13C15 14.1046 14.1046 15 13 15C11.8954 15 11 14.1046 11 13C11 11.8954 11.8954 11 13 11C14.1046 11 15 11.8954 15 13Z" fill="#4781D1"/>
</g>
<defs>
<clipPath id="clip0_3321_31919">
<rect width="16" height="16" fill="white" transform="translate(8 8)"/>
</clipPath>
</defs>
</svg>
