<svg width="32" height="32" viewBox="0 0 32 32" fill="none" xmlns="http://www.w3.org/2000/svg">
<rect width="32" height="32" rx="6" fill="#4781D1" fill-opacity="0.1"/>
<path d="M10 20C11.1046 20 12 20.8954 12 22C12 23.1046 11.1046 24 10 24C8.89543 24 8 23.1046 8 22C8 20.8954 8.89543 20 10 20ZM23 21C23.5523 21 24 21.4477 24 22C24 22.5523 23.5523 23 23 23H15C14.4477 23 14 22.5523 14 22C14 21.4477 14.4477 21 15 21H23ZM10 14C11.1046 14 12 14.8954 12 16C12 17.1046 11.1046 18 10 18C8.89543 18 8 17.1046 8 16C8 14.8954 8.89543 14 10 14ZM23 15C23.5523 15 24 15.4477 24 16C24 16.5523 23.5523 17 23 17H15C14.4477 17 14 16.5523 14 16C14 15.4477 14.4477 15 15 15H23ZM13 9L10 12L8 10L9 9L10 10L12 8L13 9ZM23 9C23.5523 9 24 9.44772 24 10C24 10.5523 23.5523 11 23 11H15C14.4477 11 14 10.5523 14 10C14 9.44772 14.4477 9 15 9H23Z" fill="#4781D1"/>
</svg>
