<svg width="32" height="32" viewBox="0 0 32 32" fill="none" xmlns="http://www.w3.org/2000/svg">
<path d="M4 1H19L28 9L28.1676 31H4V1Z" fill="white" style="fill:white;fill:white;fill-opacity:1;"/>
<path fill-rule="evenodd" clip-rule="evenodd" d="M4 31H28.148L28 9L19 1L4.08333 1.06667L4 31ZM19 0H3V32H29V9L19 0Z" fill="#BFBFBF" style="fill:#BFBFBF;fill:color(display-p3 0.7490 0.7490 0.7490);fill-opacity:1;"/>
<path d="M9 23H8V24H9V23Z" fill="#5E93A2" style="fill:#5E93A2;fill:color(display-p3 0.3686 0.5765 0.6353);fill-opacity:1;"/>
<path d="M12 23H13V24H12V23Z" fill="#5E93A2" style="fill:#5E93A2;fill:color(display-p3 0.3686 0.5765 0.6353);fill-opacity:1;"/>
<path fill-rule="evenodd" clip-rule="evenodd" d="M6 21C6 20.4477 6.44771 20 7 20H25C25.5523 20 26 20.4477 26 21V28C26 28.5523 25.5523 29 25 29H7C6.44772 29 6 28.5523 6 28V21ZM22 22H21V24H22V25H21V27H22V25H24V27H25V25H24V24H25V22H24V24H22V22ZM15 22H20V23H18V27H17V23H15V22ZM7 22V27H8V25H10V22H7ZM11 27V22H14V25H12V27H11Z" fill="#5E93A2" style="fill:#5E93A2;fill:color(display-p3 0.3686 0.5765 0.6353);fill-opacity:1;"/>
<path d="M10 7H14V9H12V11H10V13H12V15H14V17H10V15H8V13H6V11H8V9H10V7Z" fill="#BFBFBF" style="fill:#BFBFBF;fill:color(display-p3 0.7490 0.7490 0.7490);fill-opacity:1;"/>
<path d="M13 13V11H15V13H13Z" fill="#BFBFBF" style="fill:#BFBFBF;fill:color(display-p3 0.7490 0.7490 0.7490);fill-opacity:1;"/>
<path d="M19 13V11H17V13H19Z" fill="#BFBFBF" style="fill:#BFBFBF;fill:color(display-p3 0.7490 0.7490 0.7490);fill-opacity:1;"/>
<path d="M24 10H20V11H22V13H20V15H18V17H22V15H24V13H26V11H24V10Z" fill="#BFBFBF" style="fill:#BFBFBF;fill:color(display-p3 0.7490 0.7490 0.7490);fill-opacity:1;"/>
<path opacity="0.3" d="M17 11V1H18V10H28V11H17Z" fill="black" style="fill:black;fill:black;fill-opacity:1;"/>
<rect x="6" y="22" width="20" height="5" fill="#5E93A2" style="fill:#5E93A2;fill:color(display-p3 0.3686 0.5765 0.6353);fill-opacity:1;"/>
<rect x="7" y="22" width="1" height="5" fill="white" style="fill:white;fill:white;fill-opacity:1;"/>
<rect x="9" y="22" width="1" height="5" fill="white" style="fill:white;fill:white;fill-opacity:1;"/>
<path d="M7.5 22C7.5 22.6667 8.5 24 8.5 24C8.5 24 9.5 22.6667 9.5 22" stroke="white" style="stroke:white;stroke:white;stroke-opacity:1;"/>
<rect x="11" y="22" width="1" height="5" fill="white" style="fill:white;fill:white;fill-opacity:1;"/>
<rect x="13" y="22" width="1" height="5" fill="white" style="fill:white;fill:white;fill-opacity:1;"/>
<rect x="11" y="24" width="3" height="1" fill="white" style="fill:white;fill:white;fill-opacity:1;"/>
<rect x="15" y="22" width="3" height="1" fill="white" style="fill:white;fill:white;fill-opacity:1;"/>
<rect x="16" y="22" width="1" height="5" fill="white" style="fill:white;fill:white;fill-opacity:1;"/>
<rect x="19" y="22" width="1" height="5" fill="white" style="fill:white;fill:white;fill-opacity:1;"/>
<rect x="21" y="22" width="1" height="5" fill="white" style="fill:white;fill:white;fill-opacity:1;"/>
<path d="M19.5 22C19.5 22.6667 20.5 24 20.5 24C20.5 24 21.5 22.6667 21.5 22" stroke="white" style="stroke:white;stroke:white;stroke-opacity:1;"/>
<path d="M23.5 22L23.5 26.5C23.5 26.5 24.5 26.5 25 26.5" stroke="white" style="stroke:white;stroke:white;stroke-opacity:1;"/>
</svg>
