<svg width="32" height="32" viewBox="0 0 32 32" fill="none" xmlns="http://www.w3.org/2000/svg">
<rect width="32" height="32" rx="6" fill="#4781D1" fill-opacity="0.1"/>
<path d="M14.5859 9C15.1163 9.00004 15.625 9.2109 16 9.58594L18.4141 12H22C23.1046 12 24 12.8954 24 14V21C24 22.1046 23.1046 23 22 23H10C8.89543 23 8 22.1046 8 21V19H10V21H22V14H18.4141C17.8837 14 17.375 13.7891 17 13.4141L14.5859 11H10V13H8V11C8 9.89543 8.89543 9 10 9H14.5859ZM15.707 15.293C16.0976 15.6835 16.0976 16.3165 15.707 16.707L12.707 19.707L11.293 18.293L12.5859 17H8V15H12.5859L11.293 13.707L12.707 12.293L15.707 15.293Z" fill="#4781D1"/>
</svg>
