<svg width="32" height="32" viewBox="0 0 32 32" fill="none" xmlns="http://www.w3.org/2000/svg">
<rect width="32" height="32" rx="6" fill="#4781D1" fill-opacity="0.1"/>
<path d="M23 21C23.5523 21 24 21.4477 24 22C24 22.5523 23.5523 23 23 23H15C14.4477 23 14 22.5523 14 22C14 21.4477 14.4477 21 15 21H23ZM23 17C23.5523 17 24 17.4477 24 18C24 18.5523 23.5523 19 23 19H9C8.44772 19 8 18.5523 8 18C8 17.4477 8.44772 17 9 17H23ZM23 9C23.5523 9 24 9.44772 24 10V14C24 14.5523 23.5523 15 23 15H9C8.44772 15 8 14.5523 8 14V10C8 9.44772 8.44772 9 9 9H23ZM10.5 11C10.2239 11 10 11.2239 10 11.5V12.5C10 12.7761 10.2239 13 10.5 13H21.5C21.7761 13 22 12.7761 22 12.5V11.5C22 11.2239 21.7761 11 21.5 11H10.5Z" fill="#4781D1"/>
</svg>
