<svg width="32" height="32" viewBox="0 0 32 32" fill="none" xmlns="http://www.w3.org/2000/svg">
<g clip-path="url(#clip0_19051_10356)">
<path d="M5.5 3C5.5 2.17157 6.17157 1.5 7 1.5H20.5858C20.7184 1.5 20.8456 1.55268 20.9393 1.64645L26.3536 7.06066C26.4473 7.15443 26.5 7.2816 26.5 7.41421V29C26.5 29.8284 25.8284 30.5 25 30.5H7C6.17157 30.5 5.5 29.8284 5.5 29V3Z" fill="white" stroke="#BBBBBB"/>
<path d="M20.5 2V5.1C20.5 5.94008 20.5 6.36012 20.6635 6.68099C20.8073 6.96323 21.0368 7.1927 21.319 7.33651C21.6399 7.5 22.0599 7.5 22.9 7.5H26" stroke="#BBBBBB"/>
<path fill-rule="evenodd" clip-rule="evenodd" d="M10 12C9.44772 12 9 12.4477 9 13C9 13.5523 9.44772 14 10 14H22C22.5523 14 23 13.5523 23 13C23 12.4477 22.5523 12 22 12H10ZM9 17C9 16.4477 9.44772 16 10 16H13C13.5523 16 14 16.4477 14 17C14 17.5523 13.5523 18 13 18H10C9.44772 18 9 17.5523 9 17ZM9 21C9 20.4477 9.44772 20 10 20H13C13.5523 20 14 20.4477 14 21C14 21.5523 13.5523 22 13 22H10C9.44772 22 9 21.5523 9 21Z" fill="#F5A99F"/>
<path d="M16 19.2C16 18.0799 16 17.5198 16.218 17.092C16.4097 16.7157 16.7157 16.4097 17.092 16.218C17.5198 16 18.0799 16 19.2 16H24.8C25.9201 16 26.4802 16 26.908 16.218C27.2843 16.4097 27.5903 16.7157 27.782 17.092C28 17.5198 28 18.0799 28 19.2V24.8C28 25.9201 28 26.4802 27.782 26.908C27.5903 27.2843 27.2843 27.5903 26.908 27.782C26.4802 28 25.9201 28 24.8 28H19.2C18.0799 28 17.5198 28 17.092 27.782C16.7157 27.5903 16.4097 27.2843 16.218 26.908C16 26.4802 16 25.9201 16 24.8V19.2Z" fill="#E52910"/>
<path fill-rule="evenodd" clip-rule="evenodd" d="M21.0154 18C21.0154 19.1647 20.6828 20.5384 20.1205 21.8058C19.556 23.0783 18.7941 24.1669 18 24.8087L18.8628 26C21.003 24.5583 23.3728 23.5702 25.6658 23.901L26 22.469C24.0462 21.8117 22.4786 19.839 22.4786 18H21.0154ZM21.9697 21.0495C21.8234 21.5126 21.6501 21.9697 21.4542 22.4106C21.3484 22.6494 21.2358 22.8848 21.1149 23.1167C21.7956 22.8449 22.499 22.6315 23.2171 22.5015C22.7386 22.0763 22.319 21.5879 21.9697 21.0495Z" fill="white"/>
</g>
<defs>
<clipPath id="clip0_19051_10356">
<rect width="32" height="32" fill="white"/>
</clipPath>
</defs>
</svg>
