<svg width="32" height="32" viewBox="0 0 32 32" fill="none" xmlns="http://www.w3.org/2000/svg">
<rect width="32" height="32" rx="6" fill="#6D4EC2" fill-opacity="0.1" style="fill:#6D4EC2;fill-opacity:0.1;"/>
<path fill-rule="evenodd" clip-rule="evenodd" d="M9 9L10 10L12 8L13 9L10 12L8 10L9 9ZM15 9C14.4477 9 14 9.44772 14 10C14 10.5523 14.4477 11 15 11H23C23.5523 11 24 10.5523 24 10C24 9.44772 23.5523 9 23 9H15ZM14 16C14 15.4477 14.4477 15 15 15H23C23.5523 15 24 15.4477 24 16C24 16.5523 23.5523 17 23 17H15C14.4477 17 14 16.5523 14 16ZM15 21C14.4477 21 14 21.4477 14 22C14 22.5523 14.4477 23 15 23H23C23.5523 23 24 22.5523 24 22C24 21.4477 23.5523 21 23 21H15ZM8 16C8 14.8954 8.89543 14 10 14C11.1046 14 12 14.8954 12 16C12 17.1046 11.1046 18 10 18C8.89543 18 8 17.1046 8 16ZM10 20C8.89543 20 8 20.8954 8 22C8 23.1046 8.89543 24 10 24C11.1046 24 12 23.1046 12 22C12 20.8954 11.1046 20 10 20Z" fill="#6D4EC2" style="fill:#6D4EC2;fill-opacity:1;"/>
</svg>
