<svg width="32" height="32" viewBox="0 0 32 32" fill="none" xmlns="http://www.w3.org/2000/svg">
<rect width="32" height="32" rx="6" fill="#4781D1" fill-opacity="0.1"/>
<path fill-rule="evenodd" clip-rule="evenodd" d="M8 12C8 10.3431 9.34315 9 11 9H20C21.6569 9 23 10.3431 23 12V21C23 22.6569 21.6569 24 20 24H11C9.34315 24 8 22.6569 8 21V12ZM11 11C10.4477 11 10 11.4477 10 12V21C10 21.5523 10.4477 22 11 22H20C20.5523 22 21 21.5523 21 21V12C21 11.4477 20.5523 11 20 11H11ZM12 14C12 13.4477 12.4477 13 13 13H14C14.5523 13 15 13.4477 15 14V15C15 15.5523 14.5523 16 14 16H13C12.4477 16 12 15.5523 12 15V14ZM13 17C12.4477 17 12 17.4477 12 18V19C12 19.5523 12.4477 20 13 20H14C14.5523 20 15 19.5523 15 19V18C15 17.4477 14.5523 17 14 17H13ZM16 14C16 13.4477 16.4477 13 17 13H18C18.5523 13 19 13.4477 19 14V15C19 15.5523 18.5523 16 18 16H17C16.4477 16 16 15.5523 16 15V14ZM17 17C16.4477 17 16 17.4477 16 18V19C16 19.5523 16.4477 20 17 20H18C18.5523 20 19 19.5523 19 19V18C19 17.4477 18.5523 17 18 17H17Z" fill="#4781D1"/>
</svg>