<svg width="32" height="32" viewBox="0 0 32 32" fill="none" xmlns="http://www.w3.org/2000/svg">
<rect width="32" height="32" rx="6" fill="#EB7B0C" fill-opacity="0.1"/>
<g clip-path="url(#clip0_5499_61143)">
<path fill-rule="evenodd" clip-rule="evenodd" d="M16.0004 10.0002C15.4483 10.0002 15.0007 10.4478 15.0007 10.9999V11.5001C15.0007 12.4115 15.156 13.1039 15.383 13.5296C15.5901 13.9179 15.7945 14.0001 16.0007 14.0001C16.2068 14.0001 16.411 13.918 16.618 13.5297C16.8449 13.104 17.0001 12.4116 17.0001 11.5001V10.9999C17.0001 10.4478 16.5526 10.0002 16.0004 10.0002ZM13.0007 10.9999C13.0007 9.34318 14.3437 8.00015 16.0005 8.00018C17.6571 8.00022 19.0001 9.34323 19.0001 10.9999V11.5001C19.0001 12.5887 18.8223 13.6462 18.3828 14.4706C17.9234 15.3323 17.1279 16.0001 16.0007 16.0001C14.8735 16.0001 14.0779 15.3324 13.6183 14.4707C13.1787 13.6464 13.0007 12.5888 13.0007 11.5001V10.9999ZM10.1958 18.6851C10.818 17.647 11.8545 16.6429 13.4296 16.6429C13.7233 16.6429 13.9735 16.7431 14.109 16.8025C14.2533 16.8656 14.4054 16.9472 14.5275 17.0127L14.5448 17.0219C15.0236 17.2785 15.4646 17.5 16.001 17.5C16.5372 17.5 16.9781 17.2786 17.4568 17.022C17.4625 17.019 17.4682 17.0159 17.4741 17.0127C17.5963 16.9472 17.7485 16.8656 17.893 16.8023C18.0286 16.743 18.2792 16.6426 18.5734 16.6429C20.1478 16.6444 21.184 17.6482 21.8061 18.686C22.4253 19.719 22.7461 20.9473 22.8923 21.8464C23.0947 23.0911 22.0735 24.0002 21.001 24.0002H11.001C9.92857 24.0002 8.90749 23.0911 9.10977 21.8464C9.25593 20.9471 9.57661 19.7183 10.1958 18.6851ZM11.1127 22.0002H20.8893C20.7546 21.2638 20.498 20.3937 20.0907 19.7143C19.6794 19.0283 19.2155 18.683 18.6692 18.6462C18.6457 18.6572 18.6165 18.6716 18.5797 18.6905C18.5278 18.7171 18.4712 18.7474 18.4015 18.7848C18.3906 18.7906 18.3795 18.7966 18.3682 18.8027C17.8992 19.0544 17.0688 19.5 16.001 19.5C14.933 19.5 14.1025 19.0544 13.6335 18.8026C13.6221 18.7966 13.611 18.7906 13.6001 18.7847C13.5305 18.7474 13.4739 18.7171 13.4221 18.6905C13.3852 18.6715 13.3559 18.6571 13.3323 18.6461C12.7864 18.6823 12.3227 19.0269 11.9113 19.7133C11.5041 20.3928 11.2474 21.2634 11.1127 22.0002Z" fill="#EB7B0C"/>
</g>
<defs>
<clipPath id="clip0_5499_61143">
<rect width="16" height="16" fill="white" transform="translate(8 8)"/>
</clipPath>
</defs>
</svg>
