<svg width="32" height="32" viewBox="0 0 32 32" fill="none" xmlns="http://www.w3.org/2000/svg">
<rect width="32" height="32" rx="6" fill="#2DB482" fill-opacity="0.1"/>
<g clip-path="url(#clip0_4774_20011)">
<path fill-rule="evenodd" clip-rule="evenodd" d="M15.9994 10C15.4473 9.99999 14.9997 10.4476 14.9997 10.9997V11.5C14.9997 12.4113 15.155 13.1037 15.382 13.5294C15.5892 13.9177 15.7935 14 15.9997 14C16.2058 14 16.41 13.9178 16.617 13.5295C16.8439 13.1038 16.9992 12.4114 16.9992 11.5V10.9997C16.9992 10.4476 16.5516 10 15.9994 10ZM12.9997 10.9997C12.9997 9.343 14.3428 7.99996 15.9995 8C17.6562 8.00004 18.9992 9.34305 18.9992 10.9997V11.5C18.9992 12.5885 18.8213 13.6461 18.3819 14.4704C17.9225 15.3321 17.1269 16 15.9997 16C14.8725 16 14.0769 15.3322 13.6173 14.4705C13.1777 13.6462 12.9997 12.5886 12.9997 11.5V10.9997ZM10.1949 18.6849C10.817 17.6468 11.8536 16.6427 13.4286 16.6427C13.7223 16.6427 13.9725 16.7429 14.1081 16.8023C14.2523 16.8654 14.4045 16.947 14.5266 17.0125L14.5438 17.0217C15.0226 17.2783 15.4636 17.4999 16.0001 17.4999C16.5362 17.4999 16.9771 17.2784 17.4558 17.0218L17.4731 17.0125C17.5953 16.947 17.7476 16.8654 17.892 16.8022C18.0277 16.7428 18.2782 16.6424 18.5725 16.6427C19.8316 16.6439 20.7466 17.2863 21.3807 18.0744L19.9533 19.5019C19.5763 18.9565 19.155 18.6788 18.6682 18.646C18.6447 18.657 18.6155 18.6714 18.5787 18.6903C18.5268 18.717 18.4702 18.7473 18.4005 18.7846L18.3672 18.8025C17.8982 19.0542 17.0678 19.4999 16.0001 19.4999C14.9321 19.4999 14.1016 19.0542 13.6325 18.8024L13.5991 18.7846C13.5295 18.7472 13.4729 18.717 13.4211 18.6903C13.3842 18.6713 13.3549 18.6569 13.3314 18.6459C12.7854 18.6821 12.3217 19.0267 11.9104 19.7131C11.5031 20.3926 11.2464 21.2632 11.1118 22H15.4468L17.233 24H11.0001C9.92759 24 8.90652 23.091 9.1088 21.8463C9.25495 20.9469 9.57564 19.7181 10.1949 18.6849ZM23.7081 19.7071L19.7071 23.7081C19.5195 23.8956 19.2652 24.001 19 24.001C18.7348 24.001 18.4804 23.8956 18.2929 23.7081L16.2928 21.7081L17.7071 20.2939L19 21.5868L22.2939 18.2929L23.7081 19.7071Z" fill="#2DB482"/>
</g>
<defs>
<clipPath id="clip0_4774_20011">
<rect width="15.9999" height="16" fill="white" transform="translate(8 8)"/>
</clipPath>
</defs>
</svg>
