<svg width="32" height="32" viewBox="0 0 32 32" fill="none" xmlns="http://www.w3.org/2000/svg">
<g clip-path="url(#clip0_19051_10352)">
<path d="M5.5 3C5.5 2.17157 6.17157 1.5 7 1.5H20.5858C20.7184 1.5 20.8456 1.55268 20.9393 1.64645L26.3536 7.06066C26.4473 7.15443 26.5 7.2816 26.5 7.41421V29C26.5 29.8284 25.8284 30.5 25 30.5H7C6.17157 30.5 5.5 29.8284 5.5 29V3Z" fill="white" stroke="#BBBBBB"/>
<path d="M20.5 2V5.1C20.5 5.94008 20.5 6.36012 20.6635 6.68099C20.8073 6.96323 21.0368 7.1927 21.319 7.33651C21.6399 7.5 22.0599 7.5 22.9 7.5H26" stroke="#BBBBBB"/>
<path d="M9.5 15C9.22386 15 8.99741 14.7756 9.02498 14.5008C9.07368 14.0155 9.19324 13.5389 9.3806 13.0866C9.63188 12.48 10.0002 11.9288 10.4645 11.4645C10.9288 11.0002 11.48 10.6319 12.0866 10.3806C12.5389 10.1932 13.0155 10.0737 13.5008 10.025C13.7756 9.99741 14 10.2239 14 10.5V14.5C14 14.7761 13.7761 15 13.5 15H9.5Z" fill="#ED771C"/>
<path d="M10.5 17C10.2239 17 9.99784 17.2243 10.0208 17.4994C10.1052 18.51 10.4448 19.4857 11.0112 20.3334C11.6705 21.3201 12.6075 22.0892 13.7039 22.5433C14.8003 22.9974 16.0067 23.1162 17.1705 22.8847C18.3344 22.6532 19.4035 22.0818 20.2426 21.2426C21.0818 20.4035 21.6532 19.3344 21.8847 18.1705C22.1162 17.0067 21.9974 15.8003 21.5433 14.7039C21.0892 13.6075 20.3201 12.6705 19.3334 12.0112C18.4857 11.4448 17.51 11.1052 16.4994 11.0208C16.2243 10.9978 16 11.2239 16 11.5V16.5C16 16.7761 15.7761 17 15.5 17H10.5Z" fill="#F8C9A4"/>
</g>
<defs>
<clipPath id="clip0_19051_10352">
<rect width="32" height="32" fill="white"/>
</clipPath>
</defs>
</svg>
