<svg width="32" height="32" viewBox="0 0 32 32" fill="none" xmlns="http://www.w3.org/2000/svg">
<g clip-path="url(#clip0_19191_1960)">
<path d="M5.5 3C5.5 2.17157 6.17157 1.5 7 1.5H20.5858C20.7184 1.5 20.8456 1.55268 20.9393 1.64645L26.3536 7.06066C26.4473 7.15443 26.5 7.2816 26.5 7.41421V29C26.5 29.8284 25.8284 30.5 25 30.5H7C6.17157 30.5 5.5 29.8284 5.5 29V3Z" fill="white" stroke="#BBBBBB"/>
<path d="M20.5 2V5.1C20.5 5.94008 20.5 6.36012 20.6635 6.68099C20.8073 6.96323 21.0368 7.1927 21.319 7.33651C21.6399 7.5 22.0599 7.5 22.9 7.5H26" stroke="#BBBBBB"/>
<rect opacity="0.5" x="13" y="15" width="1" height="8" fill="#D56DB6"/>
<rect opacity="0.5" x="20" y="13" width="1" height="8" fill="#D56DB6"/>
<circle cx="12" cy="23" r="2" fill="#D56DB6"/>
<circle cx="19" cy="21" r="2" fill="#D56DB6"/>
<path d="M14 15.557V14.693L20 12.443V13.307L14 15.557ZM20.6756 12.1897C20.6754 12.1897 20.6753 12.1898 20.6752 12.1898L20.6756 12.1897Z" stroke="#D56DB6" stroke-width="2" stroke-linecap="round" stroke-linejoin="round"/>
</g>
<defs>
<clipPath id="clip0_19191_1960">
<rect width="32" height="32" fill="white"/>
</clipPath>
</defs>
</svg>
