<svg width="32" height="32" viewBox="0 0 32 32" fill="none" xmlns="http://www.w3.org/2000/svg">
<rect width="32" height="32" rx="6" fill="#4781D1" fill-opacity="0.1"/>
<path fill-rule="evenodd" clip-rule="evenodd" d="M11 8C9.89543 8 9 8.89543 9 10V22C9 23.1046 9.89543 24 11 24H21C22.1046 24 23 23.1046 23 22V12.1111C23 11.8522 22.8996 11.6034 22.7198 11.417L19.7198 8.30586C19.5314 8.11041 19.2715 8 19 8H11ZM11 10L18.5751 10L21 12.5147V22H11V10ZM12 14H18V12H12V14ZM12 17H20V15H12V17ZM12 20H20V18H12V20Z" fill="#4781D1"/>
</svg>
