<svg width="32" height="32" viewBox="0 0 32 32" fill="none" xmlns="http://www.w3.org/2000/svg">
<g clip-path="url(#clip0_19191_1961)">
<path d="M5.5 3C5.5 2.17157 6.17157 1.5 7 1.5H20.5858C20.7184 1.5 20.8456 1.55268 20.9393 1.64645L26.3536 7.06066C26.4473 7.15443 26.5 7.2816 26.5 7.41421V29C26.5 29.8284 25.8284 30.5 25 30.5H7C6.17157 30.5 5.5 29.8284 5.5 29V3Z" fill="white" stroke="#BBBBBB"/>
<path d="M20.5 2V5.1C20.5 5.94008 20.5 6.36012 20.6635 6.68099C20.8073 6.96323 21.0368 7.1927 21.319 7.33651C21.6399 7.5 22.0599 7.5 22.9 7.5H26" stroke="#BBBBBB"/>
<path d="M9 16L23 16" stroke="#CAAAE8" stroke-width="2" stroke-linecap="round"/>
<path d="M21.4961 21.9957C21.4961 18.6844 19.0337 16 15.9961 16C12.9585 16 10.4961 18.6844 10.4961 21.9957" stroke="#CAAAE8"/>
<mask id="path-5-inside-1_19191_1961" fill="white">
<rect x="13" y="13" width="6" height="6" rx="1"/>
</mask>
<rect x="13" y="13" width="6" height="6" rx="1" fill="white" stroke="#A671D8" stroke-width="4" mask="url(#path-5-inside-1_19191_1961)"/>
<rect x="9.74951" y="21.7495" width="1.49902" height="1.49902" rx="0.749512" fill="white" stroke="#A671D8" stroke-width="1.49902"/>
<rect x="20.7515" y="21.7495" width="1.49902" height="1.49902" rx="0.749512" fill="white" stroke="#A671D8" stroke-width="1.49902"/>
</g>
<defs>
<clipPath id="clip0_19191_1961">
<rect width="32" height="32" fill="white"/>
</clipPath>
</defs>
</svg>
