<svg width="32" height="32" viewBox="0 0 32 32" fill="none" xmlns="http://www.w3.org/2000/svg">
<path d="M4 1H19L28 9L28.1676 31H4V1Z" fill="white" style="fill:white;fill:white;fill-opacity:1;"/>
<path fill-rule="evenodd" clip-rule="evenodd" d="M4 31H28.148L28 9L19 1L4.08333 1.06667L4 31ZM19 0H3V32H29V9L19 0Z" fill="#BFBFBF" style="fill:#BFBFBF;fill:color(display-p3 0.7490 0.7490 0.7490);fill-opacity:1;"/>
<path fill-rule="evenodd" clip-rule="evenodd" d="M6 21C6 20.4477 6.44772 20 7 20H25C25.5523 20 26 20.4477 26 21V28C26 28.5523 25.5523 29 25 29H7C6.44772 29 6 28.5523 6 28V21ZM13 22H12V27H15V26H13V22ZM17 22H19V23H17V22ZM17 24H16V23H17V24ZM19 25H17V24H19V25ZM19 26V25H20V26H19ZM19 26V27H16V26H19ZM11 22H10V24H8V22H7V24H8V25H7V27H8V25H10V27H11V25H10V24H11V22ZM24 22H25V24H24V22ZM24 25V24H22V22H21V24H22V25H21V27H22V25H24ZM24 25H25V27H24V25Z" fill="#6AAA1E" style="fill:#6AAA1E;fill:color(display-p3 0.4157 0.6667 0.1176);fill-opacity:1;"/>
<path fill-rule="evenodd" clip-rule="evenodd" d="M6 18H26V10H25V13H20V10H19V13H13V10H18V9H13V6H18V5H6V18ZM12 6V9H7V6H12ZM7 10H12V13H7V10ZM7 14H12V17H7V14ZM19 14H13V17H19V14ZM20 17V14H25V17H20Z" fill="#BFBFBF" style="fill:#BFBFBF;fill:color(display-p3 0.7490 0.7490 0.7490);fill-opacity:1;"/>
<path opacity="0.3" d="M17 11V1H18V10H28V11H17Z" fill="black" style="fill:black;fill:black;fill-opacity:1;"/>
<rect x="6" y="22" width="20" height="5" fill="#6AAA1E" style="fill:#6AAA1E;fill:color(display-p3 0.4157 0.6667 0.1176);fill-opacity:1;"/>
<rect x="10" y="22" width="2" height="1" fill="white" style="fill:white;fill:white;fill-opacity:1;"/>
<rect x="10" y="24" width="2" height="1" fill="white" style="fill:white;fill:white;fill-opacity:1;"/>
<rect x="9" y="26" width="3" height="1" fill="white" style="fill:white;fill:white;fill-opacity:1;"/>
<rect x="12" y="25" width="1" height="1" fill="white" style="fill:white;fill:white;fill-opacity:1;"/>
<rect x="9" y="23" width="1" height="1" fill="white" style="fill:white;fill:white;fill-opacity:1;"/>
<rect x="14" y="22" width="1" height="2" fill="white" style="fill:white;fill:white;fill-opacity:1;"/>
<rect x="17" y="22" width="1" height="2" fill="white" style="fill:white;fill:white;fill-opacity:1;"/>
<rect x="17" y="25" width="1" height="2" fill="white" style="fill:white;fill:white;fill-opacity:1;"/>
<rect x="14" y="25" width="1" height="2" fill="white" style="fill:white;fill:white;fill-opacity:1;"/>
<rect x="15" y="24" width="2" height="1" fill="white" style="fill:white;fill:white;fill-opacity:1;"/>
<rect x="20" y="22" width="2" height="1" fill="white" style="fill:white;fill:white;fill-opacity:1;"/>
<rect x="20" y="26" width="2" height="1" fill="white" style="fill:white;fill:white;fill-opacity:1;"/>
<rect x="19" y="23" width="1" height="3" fill="white" style="fill:white;fill:white;fill-opacity:1;"/>
<rect x="22" y="23" width="1" height="1" fill="white" style="fill:white;fill:white;fill-opacity:1;"/>
<rect x="22" y="25" width="1" height="1" fill="white" style="fill:white;fill:white;fill-opacity:1;"/>
</svg>
