<svg width="32" height="32" viewBox="0 0 32 32" fill="none" xmlns="http://www.w3.org/2000/svg">
<rect width="32" height="32" rx="6" fill="#4781D1" fill-opacity="0.1"/>
<path d="M20.4473 14.5059L20.4844 14.6035L23.5605 22.8066H21.8965L21.8594 22.709L21.1465 20.8066H18.1973L17.4844 22.709L17.4473 22.8066H15.7832L18.8594 14.6035L18.8965 14.5059H20.4473ZM14.8066 9.19336V10.5059H19.4941V12.1504H17.4824C16.9457 13.7582 16.1462 15.1639 15.084 16.3672L16.6982 17.9229L16.7695 17.9922L16.7334 18.085L16.1191 19.6748L15.9561 19.5127L13.998 17.5547L10.7617 20.7627L10.6553 20.8682L9.6123 19.8252L9.50586 19.7178L9.61328 19.6113L12.918 16.3662C12.1196 15.4671 11.4752 14.4806 10.9883 13.4053L10.8926 13.1934H12.5596L12.6016 13.2744C13.005 14.0427 13.4718 14.728 13.999 15.333C14.8391 14.3726 15.475 13.3126 15.9082 12.1504H8.50586V10.5059H13.1934V9.19336H14.8066ZM18.8086 19.1934H20.5332L19.6572 16.8682L18.8086 19.1934Z" fill="#4781D1" stroke="#4781D1" stroke-width="0.3"/>
</svg>
