<svg width="32" height="32" viewBox="0 0 32 32" fill="none" xmlns="http://www.w3.org/2000/svg">
<path fill-rule="evenodd" clip-rule="evenodd" d="M4 31H28V9.15393L18.6628 1H4V31ZM19 0H3V32H29V9L19 0Z" fill="#BFBFBE"/>
<path d="M4 1H18.5L28 9.23792V31H4V1Z" fill="white"/>
<path fill-rule="evenodd" clip-rule="evenodd" d="M18 5H6V18H26V10H25V13H20V10H19V13H13V10H18V9H13V6H18V5ZM12 10V13H7V10H12ZM12 14H7V17H12V14ZM20 17H25V14H20V17ZM19 17V14H13V17H19ZM12 9H7V6H12V9Z" fill="#BFBFBF"/>
<path fill-rule="evenodd" clip-rule="evenodd" d="M7 20C6.44772 20 6 20.4477 6 21V28C6 28.5523 6.44772 29 7 29H25C25.5523 29 26 28.5523 26 28V21C26 20.4477 25.5523 20 25 20H7ZM13 22H12V27H15V26H13V22ZM7 25H8V27H7V25ZM8 24V25H10V27H11V25H10V24H11V22H10V24H8ZM8 24H7V22H8V24ZM19 24H17V23H19V22H17V23H16V24H17V25H19V26H16V27H19V26H20V25H19V24ZM24 22H21V27H24V26H25V25H24V24H25V23H24V22ZM24 23H22V24H24V23ZM24 25H22V26H24V25Z" fill="#6BAA1C"/>
<path opacity="0.3" d="M17 11V1H18V10H28V11H17Z" fill="black"/>
</svg>
