<svg width="64" height="64" viewBox="0 0 64 64" fill="none" xmlns="http://www.w3.org/2000/svg">
<g clip-path="url(#clip0_19208_7080)">
<path d="M10.5 5C10.5 3.61929 11.6193 2.5 13 2.5H41.1716C41.5694 2.5 41.9509 2.65803 42.2322 2.93934L53.0607 13.7678C53.342 14.0491 53.5 14.4306 53.5 14.8284V59C53.5 60.3807 52.3807 61.5 51 61.5H13C11.6193 61.5 10.5 60.3807 10.5 59V5Z" fill="white" stroke="#BBBBBB"/>
<path d="M41.502 2.99609V11.298C41.502 12.4182 41.502 12.9782 41.7199 13.406C41.9117 13.7824 42.2176 14.0883 42.594 14.2801C43.0218 14.498 43.5818 14.498 44.702 14.498H53.0039" stroke="#BBBBBB"/>
<path fill-rule="evenodd" clip-rule="evenodd" d="M32 9C32 8.44772 31.5523 8 31 8H27C26.4477 8 26 8.44772 26 9V11C26 11.5523 26.4477 12 27 12L31 12C31.5523 12 32 11.5523 32 11V9ZM25 12C25.5523 12 26 12.4477 26 13V15C26 15.5523 25.5523 16 25 16H21C20.4477 16 20 15.5523 20 15V13C20 12.4477 20.4477 12 21 12L25 12ZM26 21C26 20.4477 25.5523 20 25 20H21C20.4477 20 20 20.4477 20 21V23C20 23.5523 20.4477 24 21 24H25C25.5523 24 26 23.5523 26 23V21ZM26 29C26 28.4477 25.5523 28 25 28H21C20.4477 28 20 28.4477 20 29V31C20 31.5523 20.4477 32 21 32H25C25.5523 32 26 31.5523 26 31V29ZM32 25C32 24.4477 31.5523 24 31 24H27C26.4477 24 26 24.4477 26 25V27C26 27.5523 26.4477 28 27 28H31C31.5523 28 32 27.5523 32 27V25ZM31 16C31.5523 16 32 16.4477 32 17V19C32 19.5523 31.5523 20 31 20H27C26.4477 20 26 19.5523 26 19V17C26 16.4477 26.4477 16 27 16H31Z" fill="#BBBBBB"/>
<path fill-rule="evenodd" clip-rule="evenodd" d="M28 41.6C28 41.8209 27.8209 42 27.6 42H24.4C24.1791 42 24 41.8209 24 41.6V40C24 38.8954 24.8954 38 26 38C27.1046 38 28 38.8954 28 40V41.6ZM20 44V40C20 36.6863 22.6863 34 26 34C29.3137 34 32 36.6863 32 40V44V54C32 55.1046 31.1046 56 30 56H22C20.8954 56 20 55.1046 20 54V44ZM27.5 46H24.5C24.2239 46 24 46.2239 24 46.5V51.5C24 51.7761 24.2239 52 24.5 52H27.5C27.7761 52 28 51.7761 28 51.5V46.5C28 46.2239 27.7761 46 27.5 46Z" fill="#A1A1A1"/>
</g>
<defs>
<clipPath id="clip0_19208_7080">
<rect width="64" height="64" fill="white"/>
</clipPath>
</defs>
</svg>
