<svg width="64" height="64" viewBox="0 0 64 64" fill="none" xmlns="http://www.w3.org/2000/svg">
<g clip-path="url(#clip0_19213_7208)">
<path d="M10.5 5C10.5 3.61929 11.6193 2.5 13 2.5H41.1716C41.5694 2.5 41.9509 2.65803 42.2322 2.93934L53.0607 13.7678C53.342 14.0491 53.5 14.4306 53.5 14.8284V59C53.5 60.3807 52.3807 61.5 51 61.5H13C11.6193 61.5 10.5 60.3807 10.5 59V5Z" fill="white" stroke="#BBBBBB"/>
<path d="M41.502 2.99609V11.298C41.502 12.4182 41.502 12.9782 41.7199 13.406C41.9117 13.7824 42.2176 14.0883 42.594 14.2801C43.0218 14.498 43.5818 14.498 44.702 14.498H53.0039" stroke="#BBBBBB"/>
<mask id="path-3-inside-1_19213_7208" fill="white">
<rect x="16" y="22" width="32" height="26" rx="2"/>
</mask>
<rect x="16" y="22" width="32" height="26" rx="2" stroke="#FC7462" stroke-width="8" mask="url(#path-3-inside-1_19213_7208)"/>
<rect x="24" y="20" width="4" height="8" rx="1" fill="#E52910"/>
<rect x="36" y="20" width="4" height="8" rx="1" fill="#E52910"/>
<path d="M33.6576 42C33.3577 42 33.1645 41.6823 33.3024 41.4161L37.1426 33.9999L31.4 33.9999C31.1791 33.9999 31 33.8209 31 33.5999V30.4C31 30.1791 31.1791 30 31.4 30H40.5998C40.8207 30 40.9998 30.1791 40.9998 30.4V33.9055C40.9998 33.9676 40.9853 34.0289 40.9576 34.0844L37.1106 41.7789C37.0428 41.9144 36.9043 42 36.7528 42H33.6576Z" fill="#E52910"/>
<path d="M25.4 42H28.6C28.8209 42 29 41.8209 29 41.6V30.4C29 30.1791 28.8209 30 28.6 30H25.1657C25.0596 30 24.9579 30.0421 24.8828 30.1172L23.1172 31.8828C23.0421 31.9579 23 32.0596 23 32.1657V35.0343C23 35.3907 23.4309 35.5691 23.6828 35.3172L25 34V36.6667V41.6C25 41.8209 25.1791 42 25.4 42Z" fill="#E52910"/>
<path fill-rule="evenodd" clip-rule="evenodd" d="M16 24C16 22.8954 16.8954 22 18 22H46C47.1046 22 48 22.8954 48 24V26V29C48 29.5523 47.5523 30 47 30H45C44.4477 30 44 29.5523 44 29V27C44 26.4477 43.5523 26 43 26H21C20.4477 26 20 26.4477 20 27V29C20 29.5523 19.5523 30 19 30H17C16.4477 30 16 29.5523 16 29V26V24Z" fill="#E52910"/>
</g>
<defs>
<clipPath id="clip0_19213_7208">
<rect width="64" height="64" fill="white"/>
</clipPath>
</defs>
</svg>
