<svg width="64" height="64" viewBox="0 0 64 64" fill="none" xmlns="http://www.w3.org/2000/svg">
<g clip-path="url(#clip0_19204_7153)">
<path d="M10.5 5C10.5 3.61929 11.6193 2.5 13 2.5H41.1716C41.5694 2.5 41.9509 2.65803 42.2322 2.93934L53.0607 13.7678C53.342 14.0491 53.5 14.4306 53.5 14.8284V59C53.5 60.3807 52.3807 61.5 51 61.5H13C11.6193 61.5 10.5 60.3807 10.5 59V5Z" fill="white" stroke="#BBBBBB"/>
<path d="M41.502 2.99609V11.298C41.502 12.4182 41.502 12.9782 41.7199 13.406C41.9117 13.7824 42.2176 14.0883 42.594 14.2801C43.0218 14.498 43.5818 14.498 44.702 14.498H53.0039" stroke="#BBBBBB"/>
<path d="M32 38.4C32 36.1598 32 35.0397 32.436 34.184C32.8195 33.4314 33.4314 32.8195 34.184 32.436C35.0397 32 36.1598 32 38.4 32H49.6C51.8402 32 52.9603 32 53.816 32.436C54.5686 32.8195 55.1805 33.4314 55.564 34.184C56 35.0397 56 36.1598 56 38.4V49.6C56 51.8402 56 52.9603 55.564 53.816C55.1805 54.5686 54.5686 55.1805 53.816 55.564C52.9603 56 51.8402 56 49.6 56H38.4C36.1598 56 35.0397 56 34.184 55.564C33.4314 55.1805 32.8195 54.5686 32.436 53.816C32 52.9603 32 51.8402 32 49.6V38.4Z" fill="#3AA133"/>
<path d="M50 50H46.5913L43.9304 45.8319L41.2696 50H38L42.1217 43.8319L38 38H41.287L44.0174 42.0336L46.713 38H50L45.8087 44.0336L50 50Z" fill="white"/>
<path fill-rule="evenodd" clip-rule="evenodd" d="M18 26C18 24.8954 18.8954 24 20 24H28C29.1046 24 30 24.8954 30 26C30 27.1046 29.1046 28 28 28H20C18.8954 28 18 27.1046 18 26ZM20 32C18.8954 32 18 32.8954 18 34C18 35.1046 18.8954 36 20 36H28C29.1046 36 30 35.1046 30 34C30 32.8954 29.1046 32 28 32H20ZM20 40C18.8954 40 18 40.8954 18 42C18 43.1046 18.8954 44 20 44H28C29.1046 44 30 43.1046 30 42C30 40.8954 29.1046 40 28 40H20ZM36 24C34.8954 24 34 24.8954 34 26C34 27.1046 34.8954 28 36 28H44C45.1046 28 46 27.1046 46 26C46 24.8954 45.1046 24 44 24H36Z" fill="#B0D9AD"/>
</g>
<defs>
<clipPath id="clip0_19204_7153">
<rect width="64" height="64" fill="white"/>
</clipPath>
</defs>
</svg>
