<svg width="64" height="64" viewBox="0 0 64 64" fill="none" xmlns="http://www.w3.org/2000/svg">
<g clip-path="url(#clip0_19204_7218)">
<path d="M13 2.5H41.1719C41.5696 2.50008 41.9512 2.65822 42.2324 2.93945L53.0605 13.7676C53.3418 14.0488 53.4999 14.4304 53.5 14.8281V59C53.5 60.3807 52.3807 61.5 51 61.5H13C11.6193 61.5 10.5 60.3807 10.5 59V5L10.5127 4.74414C10.6408 3.48361 11.7057 2.5 13 2.5Z" fill="white" stroke="#BBBBBB"/>
<path d="M41.502 2.99609V11.298C41.502 12.4182 41.502 12.9782 41.7199 13.406C41.9117 13.7824 42.2176 14.0883 42.594 14.2801C43.0218 14.498 43.5818 14.498 44.702 14.498H53.0039" stroke="#BBBBBB"/>
<path fill-rule="evenodd" clip-rule="evenodd" d="M22 28V24H26V28H24H22ZM22 32L22 36.3414C19.6696 37.1651 18 39.3876 18 42C18 45.3137 20.6863 48 24 48C27.3137 48 30 45.3137 30 42C30 39.3876 28.3304 37.1651 26 36.3414V32H28C29.1046 32 30 31.1046 30 30V28H44C45.1046 28 46 27.1046 46 26C46 24.8954 45.1046 24 44 24H30V22C30 20.8954 29.1046 20 28 20H20C18.8954 20 18 20.8954 18 22V30C18 31.1046 18.8954 32 20 32H22ZM22 42C22 40.8954 22.8954 40 24 40C25.1046 40 26 40.8954 26 42C26 43.1046 25.1046 44 24 44C22.8954 44 22 43.1046 22 42Z" fill="#C6BEF8"/>
<path d="M32 38.4C32 36.1598 32 35.0397 32.436 34.184C32.8195 33.4314 33.4314 32.8195 34.184 32.436C35.0397 32 36.1598 32 38.4 32H49.6C51.8402 32 52.9603 32 53.816 32.436C54.5686 32.8195 55.1805 33.4314 55.564 34.184C56 35.0397 56 36.1598 56 38.4V49.6C56 51.8402 56 52.9603 55.564 53.816C55.1805 54.5686 54.5686 55.1805 53.816 55.564C52.9603 56 51.8402 56 49.6 56H38.4C36.1598 56 35.0397 56 34.184 55.564C33.4314 55.1805 32.8195 54.5686 32.436 53.816C32 52.9603 32 51.8402 32 49.6V38.4Z" fill="#705CED"/>
<path d="M46 50L50 38H46L44 46L42 38H38L42 50L46 50Z" fill="white"/>
</g>
<defs>
<clipPath id="clip0_19204_7218">
<rect width="64" height="64" fill="white"/>
</clipPath>
</defs>
</svg>
