<svg width="64" height="64" viewBox="0 0 64 64" fill="none" xmlns="http://www.w3.org/2000/svg">
<path d="M7 1H38L57 20V63H7V1Z" fill="white" style="fill:white;fill:white;fill-opacity:1;"/>
<path fill-rule="evenodd" clip-rule="evenodd" d="M7 63H57V20L38 1H7V63ZM38 0H6V64H58V20L38 0Z" fill="url(#paint0_linear_3999_19063)" style=""/>
<path fill-rule="evenodd" clip-rule="evenodd" d="M15 39C13.8954 39 13 39.8954 13 41V57C13 58.1046 13.8954 59 15 59H49C50.1046 59 51 58.1046 51 57V41C51 39.8954 50.1046 39 49 39H15Z" fill="#F36700" style="fill:#F36700;fill:color(display-p3 0.9529 0.4039 0.0000);fill-opacity:1;"/>
<path fill-rule="evenodd" clip-rule="evenodd" d="M13 9H38V11H15V33H49V19H51V35H13V9Z" fill="#BFBFBF" style="fill:#BFBFBF;fill:color(display-p3 0.7490 0.7490 0.7490);fill-opacity:1;"/>
<path d="M17 31V27H21V31H17Z" fill="#BFBFBF" style="fill:#BFBFBF;fill:color(display-p3 0.7490 0.7490 0.7490);fill-opacity:1;"/>
<path d="M21 24H17V20H21V24Z" fill="#BFBFBF" style="fill:#BFBFBF;fill:color(display-p3 0.7490 0.7490 0.7490);fill-opacity:1;"/>
<path d="M17 13V17H21V13H17Z" fill="#BFBFBF" style="fill:#BFBFBF;fill:color(display-p3 0.7490 0.7490 0.7490);fill-opacity:1;"/>
<path d="M23 13V17H34V15H30V13H23Z" fill="#BFBFBF" style="fill:#BFBFBF;fill:color(display-p3 0.7490 0.7490 0.7490);fill-opacity:1;"/>
<path d="M41 20H23V24H33V22H41V20Z" fill="#BFBFBF" style="fill:#BFBFBF;fill:color(display-p3 0.7490 0.7490 0.7490);fill-opacity:1;"/>
<path d="M23 31V27H47V29H39V31H23Z" fill="#BFBFBF" style="fill:#BFBFBF;fill:color(display-p3 0.7490 0.7490 0.7490);fill-opacity:1;"/>
<path opacity="0.3" d="M37 20V1H38V19H57L58 20H37Z" fill="black" style="fill:black;fill:black;fill-opacity:1;"/>
<path d="M20.2213 44.6943H23.6554C24.4298 44.6943 25.0201 44.7536 25.4264 44.8721C25.9723 45.0329 26.4399 45.3185 26.8292 45.729C27.2185 46.1395 27.5147 46.6431 27.7179 47.2397C27.921 47.8322 28.0226 48.5643 28.0226 49.436C28.0226 50.202 27.9273 50.8621 27.7369 51.4165C27.5042 52.0936 27.172 52.6416 26.7403 53.0605C26.4145 53.3779 25.9744 53.6255 25.42 53.8032C25.0053 53.9344 24.4509 54 23.7569 54H20.2213V44.6943ZM22.1002 46.2686V52.4321H23.503C24.0278 52.4321 24.4065 52.4025 24.6393 52.3433C24.9439 52.2671 25.1957 52.138 25.3946 51.9561C25.5978 51.7741 25.7628 51.4757 25.8897 51.061C26.0167 50.6421 26.0802 50.0729 26.0802 49.3535C26.0802 48.6341 26.0167 48.0819 25.8897 47.6968C25.7628 47.3117 25.5851 47.0112 25.3565 46.7954C25.128 46.5796 24.8382 46.4336 24.4869 46.3574C24.2245 46.2982 23.7104 46.2686 22.9444 46.2686H22.1002ZM28.9722 54V44.6943H31.9873C33.1299 44.6943 33.8747 44.7409 34.2217 44.834C34.7549 44.9736 35.2013 45.2783 35.561 45.748C35.9207 46.2135 36.1006 46.8166 36.1006 47.5571C36.1006 48.1284 35.9969 48.6087 35.7896 48.998C35.5822 49.3874 35.3177 49.6942 34.9961 49.9185C34.6787 50.1385 34.355 50.2845 34.0249 50.3564C33.5763 50.4453 32.9268 50.4897 32.0762 50.4897H30.8511V54H28.9722ZM30.8511 46.2686V48.9092H31.8794C32.62 48.9092 33.1151 48.8605 33.3647 48.7632C33.6144 48.6659 33.8091 48.5135 33.9487 48.3062C34.0926 48.0988 34.1646 47.8576 34.1646 47.5825C34.1646 47.244 34.0651 46.9647 33.8662 46.7446C33.6673 46.5246 33.4155 46.387 33.1108 46.332C32.8866 46.2897 32.4359 46.2686 31.7588 46.2686H30.8511ZM36.517 50.9722L38.3451 50.7944C38.4551 51.408 38.6773 51.8587 39.0116 52.1465C39.3502 52.4342 39.8051 52.5781 40.3764 52.5781C40.9815 52.5781 41.4364 52.4512 41.7411 52.1973C42.05 51.9391 42.2045 51.6387 42.2045 51.2959C42.2045 51.0758 42.1389 50.8896 42.0077 50.7373C41.8808 50.5807 41.6565 50.4453 41.3349 50.3311C41.1148 50.2549 40.6133 50.1195 39.8305 49.9248C38.8233 49.6751 38.1166 49.3683 37.7104 49.0044C37.1391 48.4924 36.8534 47.8682 36.8534 47.1318C36.8534 46.6579 36.9867 46.2157 37.2533 45.8052C37.5242 45.3905 37.9114 45.0752 38.4149 44.8594C38.9228 44.6436 39.5342 44.5356 40.2494 44.5356C41.4174 44.5356 42.2955 44.7917 42.8837 45.3037C43.4761 45.8158 43.7872 46.4992 43.8168 47.354L41.9379 47.4365C41.8575 46.9583 41.684 46.6156 41.4174 46.4082C41.155 46.1966 40.7593 46.0908 40.2304 46.0908C39.6845 46.0908 39.2571 46.203 38.9481 46.4272C38.7493 46.5711 38.6498 46.7637 38.6498 47.0049C38.6498 47.2249 38.7429 47.4132 38.9291 47.5698C39.1661 47.7687 39.7416 47.9761 40.6557 48.1919C41.5697 48.4077 42.2447 48.632 42.6806 48.8647C43.1207 49.0933 43.4634 49.4085 43.7089 49.8105C43.9586 50.2083 44.0834 50.7013 44.0834 51.2896C44.0834 51.8228 43.9353 52.3221 43.6391 52.7876C43.3428 53.2531 42.9239 53.6001 42.3822 53.8286C41.8406 54.0529 41.1656 54.165 40.3573 54.165C39.1809 54.165 38.2774 53.8942 37.6469 53.3525C37.0163 52.8066 36.6397 52.0132 36.517 50.9722Z" fill="white" style="fill:white;fill:white;fill-opacity:1;"/>
<defs>
<linearGradient id="paint0_linear_3999_19063" x1="32" y1="62.8333" x2="32" y2="8.08663e-07" gradientUnits="userSpaceOnUse">
<stop stop-color="#A8A8A8" style="stop-color:#A8A8A8;stop-color:color(display-p3 0.6588 0.6588 0.6588);stop-opacity:1;"/>
<stop offset="1" stop-color="#DADADA" style="stop-color:#DADADA;stop-color:color(display-p3 0.8549 0.8549 0.8549);stop-opacity:1;"/>
</linearGradient>
</defs>
</svg>
