<svg width="64" height="64" viewBox="0 0 64 64" fill="none" xmlns="http://www.w3.org/2000/svg">
<path d="M7 1H38L57 20V63H7V1Z" fill="white" style="fill:white;fill:white;fill-opacity:1;"/>
<path fill-rule="evenodd" clip-rule="evenodd" d="M7 63H57V20L38 1H7V63ZM38 0H6V64H58V20L38 0Z" fill="url(#paint0_linear_3999_19165)" style=""/>
<path fill-rule="evenodd" clip-rule="evenodd" d="M15 39C13.8954 39 13 39.8954 13 41V57C13 58.1046 13.8954 59 15 59H49C50.1046 59 51 58.1046 51 57V41C51 39.8954 50.1046 39 49 39H15Z" fill="#F36700" style="fill:#F36700;fill:color(display-p3 0.9529 0.4039 0.0000);fill-opacity:1;"/>
<path fill-rule="evenodd" clip-rule="evenodd" d="M13 9H38V11H15V33H49V19H51V35H13V9Z" fill="#BFBFBF" style="fill:#BFBFBF;fill:color(display-p3 0.7490 0.7490 0.7490);fill-opacity:1;"/>
<path d="M17 31V27H21V31H17Z" fill="#BFBFBF" style="fill:#BFBFBF;fill:color(display-p3 0.7490 0.7490 0.7490);fill-opacity:1;"/>
<path d="M21 24H17V20H21V24Z" fill="#BFBFBF" style="fill:#BFBFBF;fill:color(display-p3 0.7490 0.7490 0.7490);fill-opacity:1;"/>
<path d="M17 13V17H21V13H17Z" fill="#BFBFBF" style="fill:#BFBFBF;fill:color(display-p3 0.7490 0.7490 0.7490);fill-opacity:1;"/>
<path d="M23 13V17H34V15H30V13H23Z" fill="#BFBFBF" style="fill:#BFBFBF;fill:color(display-p3 0.7490 0.7490 0.7490);fill-opacity:1;"/>
<path d="M41 20H23V24H33V22H41V20Z" fill="#BFBFBF" style="fill:#BFBFBF;fill:color(display-p3 0.7490 0.7490 0.7490);fill-opacity:1;"/>
<path d="M23 31V27H47V29H39V31H23Z" fill="#BFBFBF" style="fill:#BFBFBF;fill:color(display-p3 0.7490 0.7490 0.7490);fill-opacity:1;"/>
<path opacity="0.3" d="M37 20V1H38V19H57L58 20H37Z" fill="black" style="fill:black;fill:black;fill-opacity:1;"/>
<path d="M20.5831 44.6943H24.0172C24.7916 44.6943 25.3819 44.7536 25.7882 44.8721C26.3341 45.0329 26.8017 45.3185 27.191 45.729C27.5803 46.1395 27.8766 46.6431 28.0797 47.2397C28.2828 47.8322 28.3844 48.5643 28.3844 49.436C28.3844 50.202 28.2892 50.8621 28.0987 51.4165C27.866 52.0936 27.5338 52.6416 27.1021 53.0605C26.7763 53.3779 26.3362 53.6255 25.7818 53.8032C25.3671 53.9344 24.8128 54 24.1187 54H20.5831V44.6943ZM22.462 46.2686V52.4321H23.8648C24.3896 52.4321 24.7683 52.4025 25.0011 52.3433C25.3058 52.2671 25.5576 52.138 25.7564 51.9561C25.9596 51.7741 26.1246 51.4757 26.2516 51.061C26.3785 50.6421 26.442 50.0729 26.442 49.3535C26.442 48.6341 26.3785 48.0819 26.2516 47.6968C26.1246 47.3117 25.9469 47.0112 25.7184 46.7954C25.4898 46.5796 25.2 46.4336 24.8487 46.3574C24.5864 46.2982 24.0722 46.2686 23.3062 46.2686H22.462ZM29.334 54V44.6943H32.3491C33.4917 44.6943 34.2365 44.7409 34.5835 44.834C35.1167 44.9736 35.5632 45.2783 35.9229 45.748C36.2826 46.2135 36.4624 46.8166 36.4624 47.5571C36.4624 48.1284 36.3587 48.6087 36.1514 48.998C35.944 49.3874 35.6795 49.6942 35.3579 49.9185C35.0405 50.1385 34.7168 50.2845 34.3867 50.3564C33.9382 50.4453 33.2886 50.4897 32.438 50.4897H31.2129V54H29.334ZM31.2129 46.2686V48.9092H32.2412C32.9818 48.9092 33.4769 48.8605 33.7266 48.7632C33.9762 48.6659 34.1709 48.5135 34.3105 48.3062C34.4544 48.0988 34.5264 47.8576 34.5264 47.5825C34.5264 47.244 34.4269 46.9647 34.228 46.7446C34.0291 46.5246 33.7773 46.387 33.4727 46.332C33.2484 46.2897 32.7977 46.2686 32.1206 46.2686H31.2129ZM39.4496 54V46.2686H36.6884V44.6943H44.0834V46.2686H41.3285V54H39.4496Z" fill="white" style="fill:white;fill:white;fill-opacity:1;"/>
<defs>
<linearGradient id="paint0_linear_3999_19165" x1="32" y1="62.8333" x2="32" y2="8.08663e-07" gradientUnits="userSpaceOnUse">
<stop stop-color="#A8A8A8" style="stop-color:#A8A8A8;stop-color:color(display-p3 0.6588 0.6588 0.6588);stop-opacity:1;"/>
<stop offset="1" stop-color="#DADADA" style="stop-color:#DADADA;stop-color:color(display-p3 0.8549 0.8549 0.8549);stop-opacity:1;"/>
</linearGradient>
</defs>
</svg>
