<svg width="64" height="64" viewBox="0 0 64 64" fill="none" xmlns="http://www.w3.org/2000/svg">
<path d="M7 1H38L57 20V63H7V1Z" fill="white" style="fill:white;fill:white;fill-opacity:1;"/>
<path fill-rule="evenodd" clip-rule="evenodd" d="M7 63H57V20L38 1H7V63ZM38 0H6V64H58V20L38 0Z" fill="url(#paint0_linear_3999_18974)" style=""/>
<path fill-rule="evenodd" clip-rule="evenodd" d="M15 39C13.8954 39 13 39.8954 13 41V57C13 58.1046 13.8954 59 15 59H49C50.1046 59 51 58.1046 51 57V41C51 39.8954 50.1046 39 49 39H15Z" fill="#6AAA1E" style="fill:#6AAA1E;fill:color(display-p3 0.4157 0.6667 0.1176);fill-opacity:1;"/>
<path fill-rule="evenodd" clip-rule="evenodd" d="M13 7H38V19H51V34H13V7ZM49 21H39V25H49V21ZM49 27H39V32H49V27ZM37 32V27H28V32H37ZM26 32V27H15V32H26ZM15 25H26V21H15V25ZM15 19H26V15H15V19ZM15 13H26V9H15V13ZM28 9V13H37V9H28ZM37 15H28V19H37V15ZM37 21H28V25H37V21Z" fill="#BFBFBF" style="fill:#BFBFBF;fill:color(display-p3 0.7490 0.7490 0.7490);fill-opacity:1;"/>
<path opacity="0.3" d="M37 20V1H38V19H57L58 20H37Z" fill="black" style="fill:black;fill:black;fill-opacity:1;"/>
<path d="M21.3131 54V44.6943H28.213V46.2686H23.192V48.3315H27.8639V49.8994H23.192V52.4321H28.3907V54H21.3131ZM31.4287 54V46.2686H28.6675V44.6943H36.0625V46.2686H33.3076V54H31.4287ZM38.726 54V46.2686H35.9647V44.6943H43.3598V46.2686H40.6049V54H38.726Z" fill="white" style="fill:white;fill:white;fill-opacity:1;"/>
<defs>
<linearGradient id="paint0_linear_3999_18974" x1="32" y1="62.8333" x2="32" y2="8.08663e-07" gradientUnits="userSpaceOnUse">
<stop stop-color="#A8A8A8" style="stop-color:#A8A8A8;stop-color:color(display-p3 0.6588 0.6588 0.6588);stop-opacity:1;"/>
<stop offset="1" stop-color="#DADADA" style="stop-color:#DADADA;stop-color:color(display-p3 0.8549 0.8549 0.8549);stop-opacity:1;"/>
</linearGradient>
</defs>
</svg>
