<svg width="64" height="64" viewBox="0 0 64 64" fill="none" xmlns="http://www.w3.org/2000/svg">
<path d="M26.684 9.03972L26.684 9.03972C26.399 8.69774 25.9768 8.5 25.5316 8.5H10C9.17157 8.5 8.5 9.17157 8.5 10V21.5C8.5 22.3284 9.17157 23 10 23H54C54.8284 23 55.5 22.3284 55.5 21.5V16C55.5 15.1716 54.8284 14.5 54 14.5H31.4684C31.32 14.5 31.1793 14.4341 31.0843 14.3201L26.684 9.03972Z" fill="#D3F3E7" stroke="#22C386"/>
<rect x="6.5" y="20.5" width="51" height="35" rx="1.5" fill="#F2FBF8" stroke="#22C386"/>
<path d="M60.8966 44.7586C62.4201 43.1589 62.3583 40.627 60.7586 39.1035C59.1589 37.5799 56.627 37.6417 55.1035 39.2414L44.5011 50.3739L40.7293 46.8536C39.1143 45.3462 36.5831 45.4335 35.0758 47.0485C33.5685 48.6635 33.6557 51.1947 35.2707 52.702L41.9374 58.9242C43.5409 60.4208 46.0505 60.347 47.5632 58.7586L60.8966 44.7586Z" fill="white" stroke="#22C386" stroke-width="4" stroke-linecap="round" stroke-linejoin="round"/>
</svg>
