<svg width="64" height="64" viewBox="0 0 64 64" fill="none" xmlns="http://www.w3.org/2000/svg">
<path d="M26.684 9.03972L26.684 9.03972C26.399 8.69774 25.9768 8.5 25.5316 8.5H10C9.17157 8.5 8.5 9.17157 8.5 10V21.5C8.5 22.3284 9.17157 23 10 23H54C54.8284 23 55.5 22.3284 55.5 21.5V16C55.5 15.1716 54.8284 14.5 54 14.5H31.4684C31.32 14.5 31.1793 14.4341 31.0843 14.3201L26.684 9.03972Z" fill="#FFEBD6" stroke="#FF9933"/>
<rect x="6.5" y="20.5" width="51" height="35" rx="1.5" fill="#FFF9F3" stroke="#FF9933"/>
<g clip-path="url(#clip0_19272_290977)">
<path d="M53.357 34.2426C55.7001 31.8995 59.4991 31.8995 61.8422 34.2426C64.1854 36.5858 64.1854 40.3848 61.8422 42.7279L44.2409 60.3293C43.7283 60.8419 43.0859 61.2056 42.3826 61.3814L35.3776 63.1327C33.9128 63.4989 32.586 62.1721 32.9522 60.7073L34.7035 53.7023C34.8793 52.9989 35.243 52.3566 35.7556 51.844L53.357 34.2426Z" fill="white"/>
<path fill-rule="evenodd" clip-rule="evenodd" d="M54.7718 44.1425L41.413 57.5013L37.6417 58.4441L38.5845 54.6729L51.9434 41.3141L54.7718 44.1425ZM57.6002 41.3141L59.0143 39.9C59.7954 39.1189 59.7954 37.8526 59.0143 37.0716C58.2333 36.2905 56.9669 36.2905 56.1859 37.0716L54.7718 38.4857L57.6002 41.3141ZM51.9434 35.6572L53.3575 34.2431C55.7006 31.9 59.4996 31.9 61.8427 34.2431C64.1859 36.5863 64.1859 40.3853 61.8427 42.7284L44.2414 60.3298C43.7288 60.8424 43.0864 61.2061 42.3831 61.3819L35.3781 63.1332C33.9133 63.4994 32.5865 62.1726 32.9527 60.7078L34.704 53.7028C34.8798 52.9994 35.2435 52.3571 35.7561 51.8445L49.1149 38.4857L49.1144 38.4852L51.9429 35.6567L51.9434 35.6572Z" fill="#FF9933"/>
</g>
<defs>
<clipPath id="clip0_19272_290977">
<rect width="32" height="32" fill="white" transform="translate(32 32)"/>
</clipPath>
</defs>
</svg>
