<svg width="64" height="64" viewBox="0 0 64 64" fill="none" xmlns="http://www.w3.org/2000/svg">
<g clip-path="url(#clip0_19204_7207)">
<path d="M10.5 5C10.5 3.61929 11.6193 2.5 13 2.5H41.1716C41.5694 2.5 41.9509 2.65803 42.2322 2.93934L53.0607 13.7678C53.342 14.0491 53.5 14.4306 53.5 14.8284V59C53.5 60.3807 52.3807 61.5 51 61.5H13C11.6193 61.5 10.5 60.3807 10.5 59V5Z" fill="white" stroke="#BBBBBB"/>
<path d="M41.502 2.99609V11.298C41.502 12.4182 41.502 12.9782 41.7199 13.406C41.9117 13.7824 42.2176 14.0883 42.594 14.2801C43.0218 14.498 43.5818 14.498 44.702 14.498H53.0039" stroke="#BBBBBB"/>
<path fill-rule="evenodd" clip-rule="evenodd" d="M27.4142 29.4142C28.1953 28.6332 28.1953 27.3668 27.4142 26.5858C26.6332 25.8047 25.3668 25.8047 24.5858 26.5858L18.5858 32.5858C17.8047 33.3668 17.8047 34.6332 18.5858 35.4142L24.5858 41.4142C25.3668 42.1953 26.6332 42.1953 27.4142 41.4142C28.1953 40.6332 28.1953 39.3668 27.4142 38.5858L22.8284 34L27.4142 29.4142ZM36.5858 38.5858C35.8047 39.3668 35.8047 40.6332 36.5858 41.4142C37.3668 42.1953 38.6332 42.1953 39.4142 41.4142L45.4142 35.4142C45.7893 35.0391 46 34.5304 46 34C46 33.4696 45.7893 32.9609 45.4142 32.5858L39.4142 26.5858C38.6332 25.8047 37.3668 25.8047 36.5858 26.5858C35.8047 27.3668 35.8047 28.6332 36.5858 29.4142L41.1716 34L36.5858 38.5858Z" fill="#A1A1A1"/>
</g>
<defs>
<clipPath id="clip0_19204_7207">
<rect width="64" height="64" fill="white"/>
</clipPath>
</defs>
</svg>
