<svg width="64" height="64" viewBox="0 0 64 64" fill="none" xmlns="http://www.w3.org/2000/svg">
<g clip-path="url(#clip0_19210_7111)">
<path d="M10.5 5C10.5 3.61929 11.6193 2.5 13 2.5H41.1716C41.5694 2.5 41.9509 2.65803 42.2322 2.93934L53.0607 13.7678C53.342 14.0491 53.5 14.4306 53.5 14.8284V59C53.5 60.3807 52.3807 61.5 51 61.5H13C11.6193 61.5 10.5 60.3807 10.5 59V5Z" fill="white" stroke="#BBBBBB"/>
<path d="M41.502 2.99609V11.298C41.502 12.4182 41.502 12.9782 41.7199 13.406C41.9117 13.7824 42.2176 14.0883 42.594 14.2801C43.0218 14.498 43.5818 14.498 44.702 14.498H53.0039" stroke="#BBBBBB"/>
<path opacity="0.6" d="M39.1616 34.4545C39.5342 33.8485 40.4658 33.8485 40.8384 34.4545L45.8689 42.6364C46.2415 43.2424 45.7757 44 45.0304 44H34.9696C34.2243 44 33.7585 43.2424 34.1311 42.6364L39.1616 34.4545Z" fill="#A671D8"/>
<path fill-rule="evenodd" clip-rule="evenodd" d="M29.7748 26.4865C29.3861 25.8378 28.4144 25.8378 28.0257 26.4865L18.1368 42.5405C17.7481 43.1892 18.234 44 19.0113 44H38.5218C39.2992 44 39.785 43.1892 39.3964 42.5405L29.7748 26.4865ZM38 31C39.1046 31 40 30.1046 40 29C40 27.8954 39.1046 27 38 27C36.8954 27 36 27.8954 36 29C36 30.1046 36.8954 31 38 31Z" fill="#A671D8"/>
</g>
<defs>
<clipPath id="clip0_19210_7111">
<rect width="64" height="64" fill="white"/>
</clipPath>
</defs>
</svg>
