<svg width="64" height="64" viewBox="0 0 64 64" fill="none" xmlns="http://www.w3.org/2000/svg">
<path d="M7 1H38L57 20V63H7V1Z" fill="white" style="fill:white;fill:white;fill-opacity:1;"/>
<path fill-rule="evenodd" clip-rule="evenodd" d="M7 63H57V20L38 1H7V63ZM38 0H6V64H58V20L38 0Z" fill="url(#paint0_linear_4003_292)" style=""/>
<path fill-rule="evenodd" clip-rule="evenodd" d="M15 39C13.8954 39 13 39.8954 13 41V57C13 58.1046 13.8954 59 15 59H49C50.1046 59 51 58.1046 51 57V41C51 39.8954 50.1046 39 49 39H15Z" fill="#5E93A2" style="fill:#5E93A2;fill:color(display-p3 0.3686 0.5765 0.6353);fill-opacity:1;"/>
<path fill-rule="evenodd" clip-rule="evenodd" d="M24 33H27L19 25L27 17H24L16 25L24 33ZM43 19H40L46 25L38 33H41L49 25L43 19ZM30 24H28V26H30V24ZM36 24H34V26H36V24Z" fill="#BFBFBF" style="fill:#BFBFBF;fill:color(display-p3 0.7490 0.7490 0.7490);fill-opacity:1;"/>
<path opacity="0.3" d="M37 20V1H38V19H57L58 20H37Z" fill="black" style="fill:black;fill:black;fill-opacity:1;"/>
<path d="M14.0165 53V45.126H16.3959L17.8246 50.4971L19.2372 45.126H21.622V53H20.1449V46.8018L18.5819 53H17.0512L15.4936 46.8018V53H14.0165ZM22.6564 53V45.126H24.2463V48.2251H27.3615V45.126H28.9514V53H27.3615V49.5571H24.2463V53H22.6564ZM31.8228 53V46.458H29.4863V45.126H35.7437V46.458H33.4126V53H31.8228ZM36.2034 53V45.126H38.5828L40.0115 50.4971L41.4241 45.126H43.8089V53H42.3318V46.8018L40.7688 53H39.2381L37.6805 46.8018V53H36.2034ZM44.881 53V45.1904H46.4708V51.6733H50.4239V53H44.881Z" fill="white" style="fill:white;fill:white;fill-opacity:1;"/>
<defs>
<linearGradient id="paint0_linear_4003_292" x1="32" y1="62.8333" x2="32" y2="8.08663e-07" gradientUnits="userSpaceOnUse">
<stop stop-color="#A8A8A8" style="stop-color:#A8A8A8;stop-color:color(display-p3 0.6588 0.6588 0.6588);stop-opacity:1;"/>
<stop offset="1" stop-color="#DADADA" style="stop-color:#DADADA;stop-color:color(display-p3 0.8549 0.8549 0.8549);stop-opacity:1;"/>
</linearGradient>
</defs>
</svg>
