<svg width="64" height="64" viewBox="0 0 64 64" fill="none" xmlns="http://www.w3.org/2000/svg">
<g clip-path="url(#clip0_19204_7184)">
<path d="M10.5 5C10.5 3.61929 11.6193 2.5 13 2.5H41.1716C41.5694 2.5 41.9509 2.65803 42.2322 2.93934L53.0607 13.7678C53.342 14.0491 53.5 14.4306 53.5 14.8284V59C53.5 60.3807 52.3807 61.5 51 61.5H13C11.6193 61.5 10.5 60.3807 10.5 59V5Z" fill="white" stroke="#BBBBBB"/>
<path d="M41.502 2.99609V11.298C41.502 12.4182 41.502 12.9782 41.7199 13.406C41.9117 13.7824 42.2176 14.0883 42.594 14.2801C43.0218 14.498 43.5818 14.498 44.702 14.498H53.0039" stroke="#BBBBBB"/>
<path fill-rule="evenodd" clip-rule="evenodd" d="M20 24C18.8954 24 18 24.8954 18 26C18 27.1046 18.8954 28 20 28H44C45.1046 28 46 27.1046 46 26C46 24.8954 45.1046 24 44 24H20ZM18 34C18 32.8954 18.8954 32 20 32H26C27.1046 32 28 32.8954 28 34C28 35.1046 27.1046 36 26 36H20C18.8954 36 18 35.1046 18 34ZM18 42C18 40.8954 18.8954 40 20 40H26C27.1046 40 28 40.8954 28 42C28 43.1046 27.1046 44 26 44H20C18.8954 44 18 43.1046 18 42Z" fill="#F5A99F"/>
<path d="M32 38.4C32 36.1598 32 35.0397 32.436 34.184C32.8195 33.4314 33.4314 32.8195 34.184 32.436C35.0397 32 36.1598 32 38.4 32H49.6C51.8402 32 52.9603 32 53.816 32.436C54.5686 32.8195 55.1805 33.4314 55.564 34.184C56 35.0397 56 36.1598 56 38.4V49.6C56 51.8402 56 52.9603 55.564 53.816C55.1805 54.5686 54.5686 55.1805 53.816 55.564C52.9603 56 51.8402 56 49.6 56H38.4C36.1598 56 35.0397 56 34.184 55.564C33.4314 55.1805 32.8195 54.5686 32.436 53.816C32 52.9603 32 51.8402 32 49.6V38.4Z" fill="#E52910"/>
<path fill-rule="evenodd" clip-rule="evenodd" d="M41.8904 35.4287C41.8904 37.9245 41.1775 40.8681 39.9726 43.5839C38.763 46.3108 37.1303 48.6435 35.4287 50.0188L37.2776 52.5716C41.8637 49.4823 46.9419 47.3648 51.8555 48.0738L52.5716 45.0051C48.385 43.5966 45.0256 39.3694 45.0256 35.4287H41.8904ZM43.9351 41.9633C43.6217 42.9556 43.2504 43.9353 42.8305 44.8801C42.6038 45.3918 42.3625 45.8961 42.1035 46.393C43.5622 45.8106 45.0695 45.3533 46.6082 45.0747C45.5828 44.1636 44.6837 43.117 43.9351 41.9633Z" fill="white"/>
</g>
<defs>
<clipPath id="clip0_19204_7184">
<rect width="64" height="64" fill="white"/>
</clipPath>
</defs>
</svg>
