<svg width="64" height="64" viewBox="0 0 64 64" fill="none" xmlns="http://www.w3.org/2000/svg">
<g clip-path="url(#clip0_19204_7180)">
<path d="M10.5 5C10.5 3.61929 11.6193 2.5 13 2.5H41.1716C41.5694 2.5 41.9509 2.65803 42.2322 2.93934L53.0607 13.7678C53.342 14.0491 53.5 14.4306 53.5 14.8284V59C53.5 60.3807 52.3807 61.5 51 61.5H13C11.6193 61.5 10.5 60.3807 10.5 59V5Z" fill="white" stroke="#BBBBBB"/>
<path d="M41.502 2.99609V11.298C41.502 12.4182 41.502 12.9782 41.7199 13.406C41.9117 13.7824 42.2176 14.0883 42.594 14.2801C43.0218 14.498 43.5818 14.498 44.702 14.498H53.0039" stroke="#BBBBBB"/>
<path d="M18.5 30C18.2239 30 17.9987 29.776 18.0125 29.5002C18.0697 28.3577 18.3225 27.2323 18.7612 26.1732C19.2638 24.9599 20.0003 23.8575 20.9289 22.9289C21.8575 22.0003 22.9599 21.2638 24.1732 20.7612C25.2323 20.3225 26.3577 20.0697 27.5002 20.0125C27.776 19.9987 28 20.2239 28 20.5V29.5C28 29.7761 27.7761 30 27.5 30H18.5Z" fill="#ED771C"/>
<path d="M20.5 34C20.2239 34 19.9989 34.224 20.0104 34.4999C20.102 36.698 20.7965 38.8322 22.0224 40.6668C23.3409 42.6402 25.2151 44.1783 27.4078 45.0866C29.6005 45.9948 32.0133 46.2324 34.3411 45.7694C36.6689 45.3064 38.8071 44.1635 40.4853 42.4853C42.1635 40.8071 43.3064 38.6689 43.7694 36.3411C44.2324 34.0133 43.9948 31.6005 43.0866 29.4078C42.1783 27.2151 40.6402 25.3409 38.6668 24.0224C36.8322 22.7965 34.698 22.102 32.4999 22.0104C32.224 21.9989 32 22.2239 32 22.5V33.5C32 33.7761 31.7761 34 31.5 34H20.5Z" fill="#F8C9A4"/>
</g>
<defs>
<clipPath id="clip0_19204_7180">
<rect width="64" height="64" fill="white"/>
</clipPath>
</defs>
</svg>
