<svg width="64" height="64" viewBox="0 0 64 64" fill="none" xmlns="http://www.w3.org/2000/svg">
<g clip-path="url(#clip0_19204_7173)">
<path d="M10.5 5C10.5 3.61929 11.6193 2.5 13 2.5H41.1716C41.5694 2.5 41.9509 2.65803 42.2322 2.93934L53.0607 13.7678C53.342 14.0491 53.5 14.4306 53.5 14.8284V59C53.5 60.3807 52.3807 61.5 51 61.5H13C11.6193 61.5 10.5 60.3807 10.5 59V5Z" fill="white" stroke="#BBBBBB"/>
<path d="M41.502 2.99609V11.298C41.502 12.4182 41.502 12.9782 41.7199 13.406C41.9117 13.7824 42.2176 14.0883 42.594 14.2801C43.0218 14.498 43.5818 14.498 44.702 14.498H53.0039" stroke="#BBBBBB"/>
<path d="M18.5 28C18.2239 28 17.9987 27.776 18.0125 27.5002C18.0697 26.3577 18.3225 25.2323 18.7612 24.1732C19.2638 22.9599 20.0003 21.8575 20.9289 20.9289C21.8575 20.0003 22.9599 19.2638 24.1732 18.7612C25.2323 18.3225 26.3577 18.0697 27.5002 18.0125C27.776 17.9987 28 18.2239 28 18.5V27.5C28 27.7761 27.7761 28 27.5 28H18.5Z" fill="#F8C9A4"/>
<path d="M20.5 32C20.2239 32 19.9989 32.224 20.0104 32.4999C20.102 34.698 20.7965 36.8322 22.0224 38.6668C23.3409 40.6402 25.2151 42.1783 27.4078 43.0866C29.6005 43.9948 32.0133 44.2324 34.3411 43.7694C36.6689 43.3064 38.8071 42.1635 40.4853 40.4853C42.1635 38.8071 43.3064 36.6689 43.7694 34.3411C44.2324 32.0133 43.9948 29.6005 43.0866 27.4078C42.1783 25.2151 40.6402 23.3409 38.6668 22.0224C36.8322 20.7965 34.698 20.102 32.4999 20.0104C32.224 19.9989 32 20.2239 32 20.5V31.5C32 31.7761 31.7761 32 31.5 32H20.5Z" fill="#F8C9A4"/>
<path d="M32 38.4C32 36.1598 32 35.0397 32.436 34.184C32.8195 33.4314 33.4314 32.8195 34.184 32.436C35.0397 32 36.1598 32 38.4 32H49.6C51.8402 32 52.9603 32 53.816 32.436C54.5686 32.8195 55.1805 33.4314 55.564 34.184C56 35.0397 56 36.1598 56 38.4V49.6C56 51.8402 56 52.9603 55.564 53.816C55.1805 54.5686 54.5686 55.1805 53.816 55.564C52.9603 56 51.8402 56 49.6 56H38.4C36.1598 56 35.0397 56 34.184 55.564C33.4314 55.1805 32.8195 54.5686 32.436 53.816C32 52.9603 32 51.8402 32 49.6V38.4Z" fill="#ED771C"/>
<path d="M44.6931 38C46.5016 38 47.835 38.3361 48.6931 39.0084C49.5644 39.6695 50 40.3647 50 41.5523C50 42.0901 49.9076 42.6056 49.7228 43.0985C49.538 43.5803 49.2277 44.0117 48.7921 44.3927C48.3696 44.7736 47.8086 45.0761 47.1089 45.3002C46.4224 45.5243 45.571 45.6364 44.5545 45.6364H43.3663V50H40V38H44.6931ZM44.5743 40.3361H43.3663V43.5294H44.2574C44.7195 43.5294 45.1221 43.4734 45.4653 43.3613C45.8218 43.2493 46.099 43.07 46.297 42.8235C46.495 42.577 46.5941 42.2577 46.5941 41.8655C46.5941 41.3725 46.429 40.9972 46.099 40.7395C45.769 40.4706 45.2607 40.3361 44.5743 40.3361Z" fill="white"/>
</g>
<defs>
<clipPath id="clip0_19204_7173">
<rect width="64" height="64" fill="white"/>
</clipPath>
</defs>
</svg>
