<svg width="64" height="64" viewBox="0 0 64 64" fill="none" xmlns="http://www.w3.org/2000/svg">
<path d="M7 1H38L57 20V63H7V1Z" fill="white" style="fill:white;fill:white;fill-opacity:1;"/>
<path fill-rule="evenodd" clip-rule="evenodd" d="M7 63H57V20L38 1H7V63ZM38 0H6V64H58V20L38 0Z" fill="url(#paint0_linear_3999_18446)" style=""/>
<path fill-rule="evenodd" clip-rule="evenodd" d="M15 39C13.8954 39 13 39.8954 13 41V57C13 58.1046 13.8954 59 15 59H49C50.1046 59 51 58.1046 51 57V41C51 39.8954 50.1046 39 49 39H15Z" fill="#1E7AAA" style="fill:#1E7AAA;fill:color(display-p3 0.1176 0.4784 0.6667);fill-opacity:1;"/>
<path d="M18.6725 50.9722L20.5006 50.7944C20.6106 51.408 20.8328 51.8587 21.1671 52.1465C21.5056 52.4342 21.9605 52.5781 22.5318 52.5781C23.137 52.5781 23.5919 52.4512 23.8966 52.1973C24.2055 51.9391 24.36 51.6387 24.36 51.2959C24.36 51.0758 24.2944 50.8896 24.1632 50.7373C24.0362 50.5807 23.8119 50.4453 23.4903 50.3311C23.2703 50.2549 22.7688 50.1195 21.9859 49.9248C20.9788 49.6751 20.2721 49.3683 19.8658 49.0044C19.2945 48.4924 19.0089 47.8682 19.0089 47.1318C19.0089 46.6579 19.1422 46.2157 19.4088 45.8052C19.6796 45.3905 20.0668 45.0752 20.5704 44.8594C21.0782 44.6436 21.6897 44.5356 22.4049 44.5356C23.5729 44.5356 24.4509 44.7917 25.0392 45.3037C25.6316 45.8158 25.9426 46.4992 25.9723 47.354L24.0934 47.4365C24.013 46.9583 23.8395 46.6156 23.5729 46.4082C23.3105 46.1966 22.9148 46.0908 22.3858 46.0908C21.8399 46.0908 21.4125 46.203 21.1036 46.4272C20.9047 46.5711 20.8053 46.7637 20.8053 47.0049C20.8053 47.2249 20.8984 47.4132 21.0846 47.5698C21.3215 47.7687 21.8971 47.9761 22.8111 48.1919C23.7252 48.4077 24.4002 48.632 24.836 48.8647C25.2761 49.0933 25.6189 49.4085 25.8644 49.8105C26.114 50.2083 26.2389 50.7013 26.2389 51.2896C26.2389 51.8228 26.0908 52.3221 25.7945 52.7876C25.4983 53.2531 25.0794 53.6001 24.5377 53.8286C23.996 54.0529 23.3211 54.165 22.5128 54.165C21.3364 54.165 20.4329 53.8942 19.8023 53.3525C19.1718 52.8066 18.7952 52.0132 18.6725 50.9722ZM29.2642 54V46.2686H26.5029V44.6943H33.8979V46.2686H31.1431V54H29.2642ZM35.787 54L33.5653 44.6943H35.4887L36.8915 51.0864L38.5927 44.6943H40.827L42.4584 51.1943L43.8866 44.6943H45.7782L43.5185 54H41.5253L39.6718 47.043L37.8246 54H35.787Z" fill="white" style="fill:white;fill:white;fill-opacity:1;"/>
<path d="M13 9H38V14H13V9Z" fill="#BFBFBF" style="fill:#BFBFBF;fill:color(display-p3 0.7490 0.7490 0.7490);fill-opacity:1;"/>
<path d="M13 16H38V19H51V21H13V16Z" fill="#BFBFBF" style="fill:#BFBFBF;fill:color(display-p3 0.7490 0.7490 0.7490);fill-opacity:1;"/>
<path d="M13 23H51V28H13V23Z" fill="#BFBFBF" style="fill:#BFBFBF;fill:color(display-p3 0.7490 0.7490 0.7490);fill-opacity:1;"/>
<path d="M13 30H40V35H13V30Z" fill="#BFBFBF" style="fill:#BFBFBF;fill:color(display-p3 0.7490 0.7490 0.7490);fill-opacity:1;"/>
<path opacity="0.3" d="M37 20V1H38V19H57L58 20H37Z" fill="black" style="fill:black;fill:black;fill-opacity:1;"/>
<defs>
<linearGradient id="paint0_linear_3999_18446" x1="32" y1="62.8333" x2="32" y2="8.08663e-07" gradientUnits="userSpaceOnUse">
<stop stop-color="#A8A8A8" style="stop-color:#A8A8A8;stop-color:color(display-p3 0.6588 0.6588 0.6588);stop-opacity:1;"/>
<stop offset="1" stop-color="#DADADA" style="stop-color:#DADADA;stop-color:color(display-p3 0.8549 0.8549 0.8549);stop-opacity:1;"/>
</linearGradient>
</defs>
</svg>
