<svg width="64" height="64" viewBox="0 0 64 64" fill="none" xmlns="http://www.w3.org/2000/svg">
<g clip-path="url(#clip0_19210_7161)">
<path d="M10.5 5C10.5 3.61929 11.6193 2.5 13 2.5H41.1716C41.5694 2.5 41.9509 2.65803 42.2322 2.93934L53.0607 13.7678C53.342 14.0491 53.5 14.4306 53.5 14.8284V59C53.5 60.3807 52.3807 61.5 51 61.5H13C11.6193 61.5 10.5 60.3807 10.5 59V5Z" fill="white" stroke="#BBBBBB"/>
<path d="M41.502 2.99609V11.298C41.502 12.4182 41.502 12.9782 41.7199 13.406C41.9117 13.7824 42.2176 14.0883 42.594 14.2801C43.0218 14.498 43.5818 14.498 44.702 14.498H53.0039" stroke="#BBBBBB"/>
<path fill-rule="evenodd" clip-rule="evenodd" d="M16 32C16 30.8954 16.8954 30 18 30H30V34H34V30L46 30C47.1046 30 48 30.8954 48 32C48 33.1046 47.1046 34 46 34L39.6635 34C42.3197 36.3986 43.9922 40.0109 43.9922 44H41.9922C41.9922 39.5133 39.5735 35.7258 36.1559 34L27.8285 34C24.4108 35.7258 21.9922 39.5133 21.9922 44H19.9922C19.9922 40.0109 21.6647 36.3986 24.3209 34L18 34C16.8954 34 16 33.1046 16 32Z" fill="#CAAAE8"/>
<path fill-rule="evenodd" clip-rule="evenodd" d="M30 30V34H34V30H30ZM28 26C26.8954 26 26 26.8954 26 28V36C26 37.1046 26.8954 38 28 38H36C37.1046 38 38 37.1046 38 36V28C38 26.8954 37.1046 26 36 26H28ZM22 44.998C22 44.4447 21.5514 43.9961 20.998 43.9961C20.4447 43.9961 19.9961 44.4447 19.9961 44.998C19.9961 45.5514 20.4447 46 20.998 46C21.5514 46 22 45.5514 22 44.998ZM20.998 42C19.3423 42 18 43.3423 18 44.998C18 46.6538 19.3423 47.9961 20.998 47.9961C22.6538 47.9961 23.9961 46.6538 23.9961 44.998C23.9961 43.3423 22.6538 42 20.998 42ZM43.002 43.9961C43.5553 43.9961 44.0039 44.4447 44.0039 44.998C44.0039 45.5514 43.5553 46 43.002 46C42.4486 46 42 45.5514 42 44.998C42 44.4447 42.4486 43.9961 43.002 43.9961ZM40.0039 44.998C40.0039 43.3423 41.3462 42 43.002 42C44.6577 42 46 43.3423 46 44.998C46 46.6538 44.6577 47.9961 43.002 47.9961C41.3462 47.9961 40.0039 46.6538 40.0039 44.998Z" fill="#A671D8"/>
</g>
<defs>
<clipPath id="clip0_19210_7161">
<rect width="64" height="64" fill="white"/>
</clipPath>
</defs>
</svg>
