<svg width="64" height="64" viewBox="0 0 64 64" fill="none" xmlns="http://www.w3.org/2000/svg">
<path d="M7 1H38L57 20V63H7V1Z" fill="white" style="fill:white;fill:white;fill-opacity:1;"/>
<path fill-rule="evenodd" clip-rule="evenodd" d="M7 63H57V20L38 1H7V63ZM38 0H6V64H58V20L38 0Z" fill="url(#paint0_linear_3999_18691)" style=""/>
<path fill-rule="evenodd" clip-rule="evenodd" d="M15 39C13.8954 39 13 39.8954 13 41V57C13 58.1046 13.8954 59 15 59H49C50.1046 59 51 58.1046 51 57V41C51 39.8954 50.1046 39 49 39H15Z" fill="#6AAA1E" style="fill:#6AAA1E;fill:color(display-p3 0.4157 0.6667 0.1176);fill-opacity:1;"/>
<path fill-rule="evenodd" clip-rule="evenodd" d="M13 7H38V19H51V34H13V7ZM49 21H39V25H49V21ZM49 27H39V32H49V27ZM37 32V27H28V32H37ZM26 32V27H15V32H26ZM15 25H26V21H15V25ZM15 19H26V15H15V19ZM15 13H26V9H15V13ZM28 9V13H37V9H28ZM37 15H28V19H37V15ZM37 21H28V25H37V21Z" fill="#BFBFBF" style="fill:#BFBFBF;fill:color(display-p3 0.7490 0.7490 0.7490);fill-opacity:1;"/>
<path opacity="0.3" d="M37 20V1H38V19H57L58 20H37Z" fill="black" style="fill:black;fill:black;fill-opacity:1;"/>
<path d="M19.7516 50.9722L21.5797 50.7944C21.6897 51.408 21.9119 51.8587 22.2462 52.1465C22.5847 52.4342 23.0396 52.5781 23.6109 52.5781C24.2161 52.5781 24.671 52.4512 24.9757 52.1973C25.2846 51.9391 25.4391 51.6387 25.4391 51.2959C25.4391 51.0758 25.3735 50.8896 25.2423 50.7373C25.1153 50.5807 24.891 50.4453 24.5694 50.3311C24.3494 50.2549 23.8479 50.1195 23.065 49.9248C22.0579 49.6751 21.3512 49.3683 20.9449 49.0044C20.3736 48.4924 20.088 47.8682 20.088 47.1318C20.088 46.6579 20.2213 46.2157 20.4879 45.8052C20.7587 45.3905 21.1459 45.0752 21.6495 44.8594C22.1573 44.6436 22.7688 44.5356 23.484 44.5356C24.652 44.5356 25.53 44.7917 26.1183 45.3037C26.7107 45.8158 27.0217 46.4992 27.0514 47.354L25.1725 47.4365C25.0921 46.9583 24.9186 46.6156 24.652 46.4082C24.3896 46.1966 23.9939 46.0908 23.4649 46.0908C22.919 46.0908 22.4916 46.203 22.1827 46.4272C21.9838 46.5711 21.8844 46.7637 21.8844 47.0049C21.8844 47.2249 21.9775 47.4132 22.1637 47.5698C22.4007 47.7687 22.9762 47.9761 23.8902 48.1919C24.8043 48.4077 25.4793 48.632 25.9151 48.8647C26.3552 49.0933 26.698 49.4085 26.9435 49.8105C27.1931 50.2083 27.318 50.7013 27.318 51.2896C27.318 51.8228 27.1699 52.3221 26.8736 52.7876C26.5774 53.2531 26.1585 53.6001 25.6168 53.8286C25.0751 54.0529 24.4002 54.165 23.5919 54.165C22.4155 54.165 21.512 53.8942 20.8814 53.3525C20.2509 52.8066 19.8743 52.0132 19.7516 50.9722ZM27.3027 54L30.4829 49.144L27.6011 44.6943H29.7974L31.6636 47.6841L33.4917 44.6943H35.6689L32.7744 49.2139L35.9546 54H33.6885L31.6255 50.7817L29.5562 54H27.3027ZM42.2235 50.5786L44.0453 51.1562C43.766 52.1719 43.3005 52.9272 42.6488 53.4224C42.0014 53.9132 41.1783 54.1587 40.1796 54.1587C38.9439 54.1587 37.9283 53.7376 37.1327 52.8955C36.3371 52.0492 35.9394 50.8939 35.9394 49.4297C35.9394 47.8809 36.3393 46.679 37.1391 45.8242C37.9389 44.9652 38.9905 44.5356 40.2938 44.5356C41.4322 44.5356 42.3568 44.8721 43.0678 45.5449C43.491 45.9427 43.8083 46.514 44.0199 47.2588L42.1601 47.7031C42.05 47.2207 41.8194 46.8398 41.4682 46.5605C41.1212 46.2812 40.698 46.1416 40.1986 46.1416C39.5089 46.1416 38.9481 46.3892 38.5165 46.8843C38.0891 47.3794 37.8754 48.1813 37.8754 49.29C37.8754 50.4665 38.087 51.3044 38.5102 51.8037C38.9333 52.3031 39.4835 52.5527 40.1605 52.5527C40.6599 52.5527 41.0894 52.394 41.4491 52.0767C41.8088 51.7593 42.067 51.2599 42.2235 50.5786Z" fill="white" style="fill:white;fill:white;fill-opacity:1;"/>
<defs>
<linearGradient id="paint0_linear_3999_18691" x1="32" y1="62.8333" x2="32" y2="8.08663e-07" gradientUnits="userSpaceOnUse">
<stop stop-color="#A8A8A8" style="stop-color:#A8A8A8;stop-color:color(display-p3 0.6588 0.6588 0.6588);stop-opacity:1;"/>
<stop offset="1" stop-color="#DADADA" style="stop-color:#DADADA;stop-color:color(display-p3 0.8549 0.8549 0.8549);stop-opacity:1;"/>
</linearGradient>
</defs>
</svg>
