<svg width="64" height="64" viewBox="0 0 64 64" fill="none" xmlns="http://www.w3.org/2000/svg">
<path d="M7 1H38L57 20V63H7V1Z" fill="white" style="fill:white;fill:white;fill-opacity:1;"/>
<path fill-rule="evenodd" clip-rule="evenodd" d="M7 63H57V20L38 1H7V63ZM38 0H6V64H58V20L38 0Z" fill="url(#paint0_linear_3999_18703)" style=""/>
<path fill-rule="evenodd" clip-rule="evenodd" d="M15 39C13.8954 39 13 39.8954 13 41V57C13 58.1046 13.8954 59 15 59H49C50.1046 59 51 58.1046 51 57V41C51 39.8954 50.1046 39 49 39H15Z" fill="#F36700" style="fill:#F36700;fill:color(display-p3 0.9529 0.4039 0.0000);fill-opacity:1;"/>
<path fill-rule="evenodd" clip-rule="evenodd" d="M13 9H38V11H15V33H49V19H51V35H13V9Z" fill="#BFBFBF" style="fill:#BFBFBF;fill:color(display-p3 0.7490 0.7490 0.7490);fill-opacity:1;"/>
<path d="M17 31V27H21V31H17Z" fill="#BFBFBF" style="fill:#BFBFBF;fill:color(display-p3 0.7490 0.7490 0.7490);fill-opacity:1;"/>
<path d="M21 24H17V20H21V24Z" fill="#BFBFBF" style="fill:#BFBFBF;fill:color(display-p3 0.7490 0.7490 0.7490);fill-opacity:1;"/>
<path d="M17 13V17H21V13H17Z" fill="#BFBFBF" style="fill:#BFBFBF;fill:color(display-p3 0.7490 0.7490 0.7490);fill-opacity:1;"/>
<path d="M23 13V17H34V15H30V13H23Z" fill="#BFBFBF" style="fill:#BFBFBF;fill:color(display-p3 0.7490 0.7490 0.7490);fill-opacity:1;"/>
<path d="M41 20H23V24H33V22H41V20Z" fill="#BFBFBF" style="fill:#BFBFBF;fill:color(display-p3 0.7490 0.7490 0.7490);fill-opacity:1;"/>
<path d="M23 31V27H47V29H39V31H23Z" fill="#BFBFBF" style="fill:#BFBFBF;fill:color(display-p3 0.7490 0.7490 0.7490);fill-opacity:1;"/>
<path opacity="0.3" d="M37 20V1H38V19H57L58 20H37Z" fill="black" style="fill:black;fill:black;fill-opacity:1;"/>
<path d="M22.6397 50.9722L24.4679 50.7944C24.5779 51.408 24.8001 51.8587 25.1344 52.1465C25.4729 52.4342 25.9278 52.5781 26.4991 52.5781C27.1043 52.5781 27.5592 52.4512 27.8639 52.1973C28.1728 51.9391 28.3272 51.6387 28.3272 51.2959C28.3272 51.0758 28.2617 50.8896 28.1305 50.7373C28.0035 50.5807 27.7792 50.4453 27.4576 50.3311C27.2376 50.2549 26.7361 50.1195 25.9532 49.9248C24.9461 49.6751 24.2394 49.3683 23.8331 49.0044C23.2618 48.4924 22.9762 47.8682 22.9762 47.1318C22.9762 46.6579 23.1095 46.2157 23.3761 45.8052C23.6469 45.3905 24.0341 45.0752 24.5377 44.8594C25.0455 44.6436 25.657 44.5356 26.3722 44.5356C27.5401 44.5356 28.4182 44.7917 29.0064 45.3037C29.5989 45.8158 29.9099 46.4992 29.9396 47.354L28.0606 47.4365C27.9802 46.9583 27.8067 46.6156 27.5401 46.4082C27.2778 46.1966 26.8821 46.0908 26.3531 46.0908C25.8072 46.0908 25.3798 46.203 25.0709 46.4272C24.872 46.5711 24.7726 46.7637 24.7726 47.0049C24.7726 47.2249 24.8657 47.4132 25.0519 47.5698C25.2888 47.7687 25.8644 47.9761 26.7784 48.1919C27.6925 48.4077 28.3674 48.632 28.8033 48.8647C29.2434 49.0933 29.5862 49.4085 29.8316 49.8105C30.0813 50.2083 30.2062 50.7013 30.2062 51.2896C30.2062 51.8228 30.058 52.3221 29.7618 52.7876C29.4656 53.2531 29.0466 53.6001 28.505 53.8286C27.9633 54.0529 27.2883 54.165 26.4801 54.165C25.3036 54.165 24.4002 53.8942 23.7696 53.3525C23.1391 52.8066 22.7625 52.0132 22.6397 50.9722ZM30.1909 54L33.3711 49.144L30.4893 44.6943H32.6855L34.5518 47.6841L36.3799 44.6943H38.5571L35.6626 49.2139L38.8428 54H36.5767L34.5137 50.7817L32.4443 54H30.1909ZM39.1005 54V44.6943H40.9794V54H39.1005Z" fill="white" style="fill:white;fill:white;fill-opacity:1;"/>
<defs>
<linearGradient id="paint0_linear_3999_18703" x1="32" y1="62.8333" x2="32" y2="8.08663e-07" gradientUnits="userSpaceOnUse">
<stop stop-color="#A8A8A8" style="stop-color:#A8A8A8;stop-color:color(display-p3 0.6588 0.6588 0.6588);stop-opacity:1;"/>
<stop offset="1" stop-color="#DADADA" style="stop-color:#DADADA;stop-color:color(display-p3 0.8549 0.8549 0.8549);stop-opacity:1;"/>
</linearGradient>
</defs>
</svg>
