<svg width="64" height="64" viewBox="0 0 64 64" fill="none" xmlns="http://www.w3.org/2000/svg">
<path d="M7 1H38L57 20V63H7V1Z" fill="white" style="fill:white;fill:white;fill-opacity:1;"/>
<path fill-rule="evenodd" clip-rule="evenodd" d="M7 63H57V20L38 1H7V63ZM38 0H6V64H58V20L38 0Z" fill="url(#paint0_linear_3999_18461)" style=""/>
<path fill-rule="evenodd" clip-rule="evenodd" d="M15 39C13.8954 39 13 39.8954 13 41V57C13 58.1046 13.8954 59 15 59H49C50.1046 59 51 58.1046 51 57V41C51 39.8954 50.1046 39 49 39H15Z" fill="#1E7AAA" style="fill:#1E7AAA;fill:color(display-p3 0.1176 0.4784 0.6667);fill-opacity:1;"/>
<path d="M18.3106 50.9722L20.1388 50.7944C20.2488 51.408 20.471 51.8587 20.8053 52.1465C21.1438 52.4342 21.5987 52.5781 22.17 52.5781C22.7752 52.5781 23.2301 52.4512 23.5348 52.1973C23.8437 51.9391 23.9981 51.6387 23.9981 51.2959C23.9981 51.0758 23.9326 50.8896 23.8014 50.7373C23.6744 50.5807 23.4501 50.4453 23.1285 50.3311C22.9085 50.2549 22.407 50.1195 21.6241 49.9248C20.617 49.6751 19.9103 49.3683 19.504 49.0044C18.9327 48.4924 18.6471 47.8682 18.6471 47.1318C18.6471 46.6579 18.7804 46.2157 19.047 45.8052C19.3178 45.3905 19.705 45.0752 20.2086 44.8594C20.7164 44.6436 21.3279 44.5356 22.0431 44.5356C23.211 44.5356 24.0891 44.7917 24.6773 45.3037C25.2698 45.8158 25.5808 46.4992 25.6104 47.354L23.7315 47.4365C23.6511 46.9583 23.4776 46.6156 23.211 46.4082C22.9487 46.1966 22.553 46.0908 22.024 46.0908C21.4781 46.0908 21.0507 46.203 20.7418 46.4272C20.5429 46.5711 20.4435 46.7637 20.4435 47.0049C20.4435 47.2249 20.5366 47.4132 20.7228 47.5698C20.9597 47.7687 21.5353 47.9761 22.4493 48.1919C23.3634 48.4077 24.0383 48.632 24.4742 48.8647C24.9143 49.0933 25.2571 49.4085 25.5025 49.8105C25.7522 50.2083 25.8771 50.7013 25.8771 51.2896C25.8771 51.8228 25.7289 52.3221 25.4327 52.7876C25.1365 53.2531 24.7175 53.6001 24.1759 53.8286C23.6342 54.0529 22.9592 54.165 22.151 54.165C20.9745 54.165 20.0711 53.8942 19.4405 53.3525C18.81 52.8066 18.4334 52.0132 18.3106 50.9722ZM25.8618 54L29.042 49.144L26.1602 44.6943H28.3564L30.2227 47.6841L32.0508 44.6943H34.228L31.3335 49.2139L34.5137 54H32.2476L30.1846 50.7817L28.1152 54H25.8618ZM36.1488 54L33.9271 44.6943H35.8505L37.2533 51.0864L38.9545 44.6943H41.1889L42.8202 51.1943L44.2484 44.6943H46.14L43.8803 54H41.8871L40.0336 47.043L38.1864 54H36.1488Z" fill="white" style="fill:white;fill:white;fill-opacity:1;"/>
<path d="M13 9H38V14H13V9Z" fill="#BFBFBF" style="fill:#BFBFBF;fill:color(display-p3 0.7490 0.7490 0.7490);fill-opacity:1;"/>
<path d="M13 16H38V19H51V21H13V16Z" fill="#BFBFBF" style="fill:#BFBFBF;fill:color(display-p3 0.7490 0.7490 0.7490);fill-opacity:1;"/>
<path d="M13 23H51V28H13V23Z" fill="#BFBFBF" style="fill:#BFBFBF;fill:color(display-p3 0.7490 0.7490 0.7490);fill-opacity:1;"/>
<path d="M13 30H40V35H13V30Z" fill="#BFBFBF" style="fill:#BFBFBF;fill:color(display-p3 0.7490 0.7490 0.7490);fill-opacity:1;"/>
<path opacity="0.3" d="M37 20V1H38V19H57L58 20H37Z" fill="black" style="fill:black;fill:black;fill-opacity:1;"/>
<defs>
<linearGradient id="paint0_linear_3999_18461" x1="32" y1="62.8333" x2="32" y2="8.08663e-07" gradientUnits="userSpaceOnUse">
<stop stop-color="#A8A8A8" style="stop-color:#A8A8A8;stop-color:color(display-p3 0.6588 0.6588 0.6588);stop-opacity:1;"/>
<stop offset="1" stop-color="#DADADA" style="stop-color:#DADADA;stop-color:color(display-p3 0.8549 0.8549 0.8549);stop-opacity:1;"/>
</linearGradient>
</defs>
</svg>
