<svg width="64" height="64" viewBox="0 0 64 64" fill="none" xmlns="http://www.w3.org/2000/svg">
<g clip-path="url(#clip0_19204_7138)">
<path d="M10.5 5C10.5 3.61929 11.6193 2.5 13 2.5H41.1716C41.5694 2.5 41.9509 2.65803 42.2322 2.93934L53.0607 13.7678C53.342 14.0491 53.5 14.4306 53.5 14.8284V59C53.5 60.3807 52.3807 61.5 51 61.5H13C11.6193 61.5 10.5 60.3807 10.5 59V5Z" fill="white" stroke="#BBBBBB"/>
<path d="M41.502 2.99609V11.298C41.502 12.4182 41.502 12.9782 41.7199 13.406C41.9117 13.7824 42.2176 14.0883 42.594 14.2801C43.0218 14.498 43.5818 14.498 44.702 14.498H53.0039" stroke="#BBBBBB"/>
<path fill-rule="evenodd" clip-rule="evenodd" d="M20 24C18.8954 24 18 24.8954 18 26C18 27.1046 18.8954 28 20 28H44C45.1046 28 46 27.1046 46 26C46 24.8954 45.1046 24 44 24H20ZM18 34C18 32.8954 18.8954 32 20 32H26C27.1046 32 28 32.8954 28 34C28 35.1046 27.1046 36 26 36H20C18.8954 36 18 35.1046 18 34ZM18 42C18 40.8954 18.8954 40 20 40H26C27.1046 40 28 40.8954 28 42C28 43.1046 27.1046 44 26 44H20C18.8954 44 18 43.1046 18 42Z" fill="#A9CBDD"/>
<path d="M32 38.4C32 36.1598 32 35.0397 32.436 34.184C32.8195 33.4314 33.4314 32.8195 34.184 32.436C35.0397 32 36.1598 32 38.4 32H49.6C51.8402 32 52.9603 32 53.816 32.436C54.5686 32.8195 55.1805 33.4314 55.564 34.184C56 35.0397 56 36.1598 56 38.4V49.6C56 51.8402 56 52.9603 55.564 53.816C55.1805 54.5686 54.5686 55.1805 53.816 55.564C52.9603 56 51.8402 56 49.6 56H38.4C36.1598 56 35.0397 56 34.184 55.564C33.4314 55.1805 32.8195 54.5686 32.436 53.816C32 52.9603 32 51.8402 32 49.6V38.4Z" fill="#287CA9"/>
<path d="M52 38L49.0953 50H45.8824L44.5355 44.2017C44.503 44.0784 44.4652 43.8992 44.4219 43.6639C44.3786 43.4174 44.3245 43.1485 44.2596 42.8571C44.2055 42.5546 44.1569 42.2689 44.1136 42C44.0703 41.7199 44.0379 41.4958 44.0162 41.3277C43.9946 41.4958 43.9567 41.7199 43.9026 42C43.8594 42.2689 43.8107 42.5546 43.7566 42.8571C43.7025 43.1485 43.6484 43.4174 43.5943 43.6639C43.551 43.8992 43.5132 44.0784 43.4807 44.2017L42.1176 50H38.9209L36 38H38.6937L40.073 44.3025C40.1163 44.4706 40.165 44.6947 40.2191 44.9748C40.2732 45.2437 40.3272 45.535 40.3813 45.8487C40.4354 46.1513 40.4841 46.4482 40.5274 46.7395C40.5815 47.0196 40.6193 47.2605 40.641 47.4622C40.6734 47.1933 40.7167 46.8852 40.7708 46.5378C40.8357 46.1905 40.9006 45.8375 40.9655 45.479C41.0304 45.1204 41.0953 44.7843 41.1602 44.4706C41.2252 44.1569 41.2847 43.9048 41.3387 43.7143L42.7181 38H45.2982L46.6775 43.7143C46.7099 43.9048 46.7586 44.1569 46.8235 44.4706C46.8993 44.7843 46.9696 45.126 47.0345 45.4958C47.1102 45.8543 47.1751 46.2073 47.2292 46.5546C47.2833 46.902 47.3266 47.2045 47.359 47.4622C47.3915 47.1821 47.4402 46.8459 47.5051 46.4538C47.5808 46.0504 47.6565 45.6527 47.7323 45.2605C47.808 44.8571 47.8729 44.5434 47.927 44.3193L49.3063 38H52Z" fill="white"/>
</g>
<defs>
<clipPath id="clip0_19204_7138">
<rect width="64" height="64" fill="white"/>
</clipPath>
</defs>
</svg>
