<svg width="64" height="64" viewBox="0 0 64 64" fill="none" xmlns="http://www.w3.org/2000/svg">
<g clip-path="url(#clip0_19204_7147)">
<path d="M10.5 5C10.5 3.61929 11.6193 2.5 13 2.5H41.1716C41.5694 2.5 41.9509 2.65803 42.2322 2.93934L53.0607 13.7678C53.342 14.0491 53.5 14.4306 53.5 14.8284V59C53.5 60.3807 52.3807 61.5 51 61.5H13C11.6193 61.5 10.5 60.3807 10.5 59V5Z" fill="white" stroke="#BBBBBB"/>
<path d="M41.502 2.99609V11.298C41.502 12.4182 41.502 12.9782 41.7199 13.406C41.9117 13.7824 42.2176 14.0883 42.594 14.2801C43.0218 14.498 43.5818 14.498 44.702 14.498H53.0039" stroke="#BBBBBB"/>
<path fill-rule="evenodd" clip-rule="evenodd" d="M20 32C18.8954 32 18 32.8954 18 34C18 35.1046 18.8954 36 20 36H44C45.1046 36 46 35.1046 46 34C46 32.8954 45.1046 32 44 32H20ZM20 40C18.8954 40 18 40.8954 18 42C18 43.1046 18.8954 44 20 44H34C35.1046 44 36 43.1046 36 42C36 40.8954 35.1046 40 34 40H20Z" fill="#A9CBDD"/>
<path d="M18 26C18 24.8954 18.8954 24 20 24H44C45.1046 24 46 24.8954 46 26C46 27.1046 45.1046 28 44 28H20C18.8954 28 18 27.1046 18 26Z" fill="#287CA9"/>
</g>
<defs>
<clipPath id="clip0_19204_7147">
<rect width="64" height="64" fill="white"/>
</clipPath>
</defs>
</svg>
