<svg width="64" height="64" viewBox="0 0 64 64" fill="none" xmlns="http://www.w3.org/2000/svg">
<path d="M7 1H38L57 20V63H7V1Z" fill="white" style="fill:white;fill:white;fill-opacity:1;"/>
<path fill-rule="evenodd" clip-rule="evenodd" d="M7 63H57V20L38 1H7V63ZM38 0H6V64H58V20L38 0Z" fill="url(#paint0_linear_3999_18537)" style=""/>
<path fill-rule="evenodd" clip-rule="evenodd" d="M15 39C13.8954 39 13 39.8954 13 41V57C13 58.1046 13.8954 59 15 59H49C50.1046 59 51 58.1046 51 57V41C51 39.8954 50.1046 39 49 39H15Z" fill="#1E7AAA" style="fill:#1E7AAA;fill:color(display-p3 0.1176 0.4784 0.6667);fill-opacity:1;"/>
<path d="M20.107 54L17.8854 44.6943H19.8087L21.2115 51.0864L22.9127 44.6943H25.1471L26.7784 51.1943L28.2066 44.6943H30.0982L27.8385 54H25.8453L23.9918 47.043L22.1446 54H20.107ZM30.4131 54V44.6943H33.4282C34.5708 44.6943 35.3156 44.7409 35.6626 44.834C36.1958 44.9736 36.6423 45.2783 37.002 45.748C37.3617 46.2135 37.5415 46.8166 37.5415 47.5571C37.5415 48.1284 37.4378 48.6087 37.2305 48.998C37.0231 49.3874 36.7586 49.6942 36.437 49.9185C36.1196 50.1385 35.7959 50.2845 35.4658 50.3564C35.0173 50.4453 34.3677 50.4897 33.5171 50.4897H32.292V54H30.4131ZM32.292 46.2686V48.9092H33.3203C34.0609 48.9092 34.556 48.8605 34.8057 48.7632C35.0553 48.6659 35.25 48.5135 35.3896 48.3062C35.5335 48.0988 35.6055 47.8576 35.6055 47.5825C35.6055 47.244 35.506 46.9647 35.3071 46.7446C35.1082 46.5246 34.8564 46.387 34.5518 46.332C34.3275 46.2897 33.8768 46.2686 33.1997 46.2686H32.292ZM37.9579 50.9722L39.786 50.7944C39.8961 51.408 40.1182 51.8587 40.4525 52.1465C40.7911 52.4342 41.246 52.5781 41.8173 52.5781C42.4224 52.5781 42.8773 52.4512 43.182 52.1973C43.491 51.9391 43.6454 51.6387 43.6454 51.2959C43.6454 51.0758 43.5798 50.8896 43.4486 50.7373C43.3217 50.5807 43.0974 50.4453 42.7758 50.3311C42.5557 50.2549 42.0543 50.1195 41.2714 49.9248C40.2642 49.6751 39.5575 49.3683 39.1513 49.0044C38.58 48.4924 38.2943 47.8682 38.2943 47.1318C38.2943 46.6579 38.4276 46.2157 38.6942 45.8052C38.9651 45.3905 39.3523 45.0752 39.8559 44.8594C40.3637 44.6436 40.9752 44.5356 41.6903 44.5356C42.8583 44.5356 43.7364 44.7917 44.3246 45.3037C44.9171 45.8158 45.2281 46.4992 45.2577 47.354L43.3788 47.4365C43.2984 46.9583 43.1249 46.6156 42.8583 46.4082C42.5959 46.1966 42.2003 46.0908 41.6713 46.0908C41.1254 46.0908 40.698 46.203 40.3891 46.4272C40.1902 46.5711 40.0907 46.7637 40.0907 47.0049C40.0907 47.2249 40.1838 47.4132 40.37 47.5698C40.607 47.7687 41.1825 47.9761 42.0966 48.1919C43.0106 48.4077 43.6856 48.632 44.1215 48.8647C44.5616 49.0933 44.9044 49.4085 45.1498 49.8105C45.3995 50.2083 45.5243 50.7013 45.5243 51.2896C45.5243 51.8228 45.3762 52.3221 45.08 52.7876C44.7838 53.2531 44.3648 53.6001 43.8231 53.8286C43.2815 54.0529 42.6065 54.165 41.7982 54.165C40.6218 54.165 39.7183 53.8942 39.0878 53.3525C38.4573 52.8066 38.0806 52.0132 37.9579 50.9722Z" fill="white" style="fill:white;fill:white;fill-opacity:1;"/>
<path d="M13 9H38V14H13V9Z" fill="#BFBFBF" style="fill:#BFBFBF;fill:color(display-p3 0.7490 0.7490 0.7490);fill-opacity:1;"/>
<path d="M13 16H38V19H51V21H13V16Z" fill="#BFBFBF" style="fill:#BFBFBF;fill:color(display-p3 0.7490 0.7490 0.7490);fill-opacity:1;"/>
<path d="M13 23H51V28H13V23Z" fill="#BFBFBF" style="fill:#BFBFBF;fill:color(display-p3 0.7490 0.7490 0.7490);fill-opacity:1;"/>
<path d="M13 30H40V35H13V30Z" fill="#BFBFBF" style="fill:#BFBFBF;fill:color(display-p3 0.7490 0.7490 0.7490);fill-opacity:1;"/>
<path opacity="0.3" d="M37 20V1H38V19H57L58 20H37Z" fill="black" style="fill:black;fill:black;fill-opacity:1;"/>
<defs>
<linearGradient id="paint0_linear_3999_18537" x1="32" y1="62.8333" x2="32" y2="8.08663e-07" gradientUnits="userSpaceOnUse">
<stop stop-color="#A8A8A8" style="stop-color:#A8A8A8;stop-color:color(display-p3 0.6588 0.6588 0.6588);stop-opacity:1;"/>
<stop offset="1" stop-color="#DADADA" style="stop-color:#DADADA;stop-color:color(display-p3 0.8549 0.8549 0.8549);stop-opacity:1;"/>
</linearGradient>
</defs>
</svg>
