<svg width="64" height="64" viewBox="0 0 64 64" fill="none" xmlns="http://www.w3.org/2000/svg">
<path d="M7 1H38L57 20V63H7V1Z" fill="white" style="fill:white;fill:white;fill-opacity:1;"/>
<path fill-rule="evenodd" clip-rule="evenodd" d="M7 63H57V20L38 1H7V63ZM38 0H6V64H58V20L38 0Z" fill="url(#paint0_linear_3999_18617)" style=""/>
<path fill-rule="evenodd" clip-rule="evenodd" d="M15 39C13.8954 39 13 39.8954 13 41V57C13 58.1046 13.8954 59 15 59H49C50.1046 59 51 58.1046 51 57V41C51 39.8954 50.1046 39 49 39H15Z" fill="#1E7AAA" style="fill:#1E7AAA;fill:color(display-p3 0.1176 0.4784 0.6667);fill-opacity:1;"/>
<path d="M20.4688 54L18.2472 44.6943H20.1705L21.5733 51.0864L23.2745 44.6943H25.5089L27.1402 51.1943L28.5685 44.6943H30.4601L28.2003 54H26.2071L24.3536 47.043L22.5064 54H20.4688ZM30.7749 54V44.6943H33.79C34.9326 44.6943 35.6774 44.7409 36.0244 44.834C36.5576 44.9736 37.0041 45.2783 37.3638 45.748C37.7235 46.2135 37.9033 46.8166 37.9033 47.5571C37.9033 48.1284 37.7996 48.6087 37.5923 48.998C37.3849 49.3874 37.1204 49.6942 36.7988 49.9185C36.4814 50.1385 36.1577 50.2845 35.8276 50.3564C35.3791 50.4453 34.7295 50.4897 33.8789 50.4897H32.6538V54H30.7749ZM32.6538 46.2686V48.9092H33.6821C34.4227 48.9092 34.9178 48.8605 35.1675 48.7632C35.4172 48.6659 35.6118 48.5135 35.7515 48.3062C35.8953 48.0988 35.9673 47.8576 35.9673 47.5825C35.9673 47.244 35.8678 46.9647 35.6689 46.7446C35.4701 46.5246 35.2183 46.387 34.9136 46.332C34.6893 46.2897 34.2386 46.2686 33.5615 46.2686H32.6538ZM40.8905 54V46.2686H38.1293V44.6943H45.5243V46.2686H42.7694V54H40.8905Z" fill="white" style="fill:white;fill:white;fill-opacity:1;"/>
<path d="M13 9H38V14H13V9Z" fill="#BFBFBF" style="fill:#BFBFBF;fill:color(display-p3 0.7490 0.7490 0.7490);fill-opacity:1;"/>
<path d="M13 16H38V19H51V21H13V16Z" fill="#BFBFBF" style="fill:#BFBFBF;fill:color(display-p3 0.7490 0.7490 0.7490);fill-opacity:1;"/>
<path d="M13 23H51V28H13V23Z" fill="#BFBFBF" style="fill:#BFBFBF;fill:color(display-p3 0.7490 0.7490 0.7490);fill-opacity:1;"/>
<path d="M13 30H40V35H13V30Z" fill="#BFBFBF" style="fill:#BFBFBF;fill:color(display-p3 0.7490 0.7490 0.7490);fill-opacity:1;"/>
<path opacity="0.3" d="M37 20V1H38V19H57L58 20H37Z" fill="black" style="fill:black;fill:black;fill-opacity:1;"/>
<defs>
<linearGradient id="paint0_linear_3999_18617" x1="32" y1="62.8333" x2="32" y2="8.08663e-07" gradientUnits="userSpaceOnUse">
<stop stop-color="#A8A8A8" style="stop-color:#A8A8A8;stop-color:color(display-p3 0.6588 0.6588 0.6588);stop-opacity:1;"/>
<stop offset="1" stop-color="#DADADA" style="stop-color:#DADADA;stop-color:color(display-p3 0.8549 0.8549 0.8549);stop-opacity:1;"/>
</linearGradient>
</defs>
</svg>
