<svg width="64" height="64" viewBox="0 0 64 64" fill="none" xmlns="http://www.w3.org/2000/svg">
<path d="M38.5858 4L54 19.4142V60H10V4H38.5858Z" fill="white"/>
<path d="M30 32H46V30H30V32Z" fill="#BFBFBF"/>
<path d="M24 32H18V30H24V32Z" fill="#BFBFBF"/>
<path d="M18 24H24V22H18V24Z" fill="#BFBFBF"/>
<path d="M18 16H24V14H18V16Z" fill="#BFBFBF"/>
<path fill-rule="evenodd" clip-rule="evenodd" d="M38 10H14V36H50V20H48V26H28V20H38V18H28V12H38V10ZM48 28H28V34H48V28ZM26 34V28H16V34H26ZM26 26V20H16V26H26ZM16 18H26V12H16V18Z" fill="#BFBFBF"/>
<path d="M38 14H30V16H38V14Z" fill="#BFBFBF"/>
<path d="M30 24H46V22H30V24Z" fill="#BFBFBF"/>
<path fill-rule="evenodd" clip-rule="evenodd" d="M38 2H8V62H56V20L38 2ZM54 60V21L37 4H10V60H54Z" fill="url(#paint0_linear_4104_4868)"/>
<path opacity="0.25" d="M38 4H36V22H54V20H38V4Z" fill="black"/>
<path d="M14 40C14 38.8954 14.8954 38 16 38H48C49.1046 38 50 38.8954 50 40V54C50 55.1046 49.1046 56 48 56H16C14.8954 56 14 55.1046 14 54V40Z" fill="#6AAA1E"/>
<path d="M18.3162 51L21.0071 46.8911L18.5686 43.126H20.427L22.0061 45.6558L23.553 43.126H25.3953L22.9461 46.9502L25.637 51H23.7195L21.9739 48.2769L20.2229 51H18.3162ZM25.8363 51V43.1904H27.4262V49.6733H31.3793V51H25.8363ZM31.4552 48.438L33.002 48.2876C33.0951 48.8068 33.2831 49.1882 33.566 49.4316C33.8525 49.6751 34.2374 49.7969 34.7208 49.7969C35.2328 49.7969 35.6178 49.6895 35.8756 49.4746C36.137 49.2562 36.2677 49.002 36.2677 48.7119C36.2677 48.5257 36.2122 48.3682 36.1012 48.2393C35.9937 48.1068 35.804 47.9922 35.5318 47.8955C35.3456 47.8311 34.9213 47.7165 34.2589 47.5518C33.4067 47.3405 32.8087 47.0809 32.4649 46.7729C31.9815 46.3397 31.7398 45.8115 31.7398 45.1885C31.7398 44.7874 31.8526 44.4132 32.0782 44.0659C32.3074 43.715 32.635 43.4482 33.0611 43.2656C33.4908 43.083 34.0082 42.9917 34.6134 42.9917C35.6016 42.9917 36.3446 43.2083 36.8424 43.6416C37.3437 44.0749 37.6068 44.6532 37.6319 45.3765L36.0421 45.4463C35.974 45.0417 35.8272 44.7516 35.6016 44.5762C35.3796 44.3971 35.0448 44.3076 34.5972 44.3076C34.1353 44.3076 33.7737 44.4025 33.5123 44.5923C33.344 44.714 33.2598 44.877 33.2598 45.0811C33.2598 45.2673 33.3386 45.4266 33.4962 45.5591C33.6967 45.7274 34.1837 45.9028 34.9571 46.0854C35.7305 46.2681 36.3017 46.4578 36.6705 46.6548C37.0429 46.8481 37.3329 47.1149 37.5406 47.4551C37.7519 47.7917 37.8575 48.2088 37.8575 48.7065C37.8575 49.1577 37.7322 49.5802 37.4815 49.9741C37.2309 50.368 36.8764 50.6616 36.418 50.855C35.9597 51.0448 35.3886 51.1396 34.7047 51.1396C33.7092 51.1396 32.9447 50.9105 32.4112 50.4521C31.8777 49.9902 31.559 49.3188 31.4552 48.438ZM38.5403 43.126H41.6877C42.3108 43.126 42.7745 43.1528 43.0788 43.2065C43.3868 43.2567 43.6607 43.3641 43.9006 43.5288C44.1441 43.6935 44.3464 43.9137 44.5076 44.1895C44.6687 44.4616 44.7493 44.7677 44.7493 45.1079C44.7493 45.4767 44.649 45.8151 44.4485 46.123C44.2515 46.431 43.983 46.6619 43.6428 46.8159C44.1226 46.9556 44.4914 47.1937 44.7493 47.5303C45.0071 47.8669 45.136 48.2625 45.136 48.7173C45.136 49.0754 45.0518 49.4245 44.8835 49.7646C44.7188 50.1012 44.4914 50.3716 44.2014 50.5757C43.9149 50.7762 43.5605 50.8997 43.1379 50.9463C42.873 50.9749 42.2338 50.9928 41.2204 51H38.5403V43.126ZM40.1301 44.4365V46.2573H41.1721C41.7916 46.2573 42.1765 46.2484 42.3269 46.2305C42.599 46.1982 42.8121 46.1051 42.9661 45.9512C43.1236 45.7936 43.2024 45.5877 43.2024 45.3335C43.2024 45.09 43.1343 44.8931 42.9983 44.7427C42.8658 44.5887 42.6671 44.4956 42.4021 44.4634C42.2445 44.4455 41.7916 44.4365 41.0432 44.4365H40.1301ZM40.1301 47.5679V49.6733H41.6018C42.1747 49.6733 42.5382 49.6572 42.6921 49.625C42.9285 49.582 43.12 49.4782 43.2668 49.3135C43.4172 49.1452 43.4924 48.9214 43.4924 48.6421C43.4924 48.4058 43.4351 48.2052 43.3205 48.0405C43.206 47.8758 43.0395 47.7559 42.821 47.6807C42.6062 47.6055 42.1371 47.5679 41.4138 47.5679H40.1301Z" fill="white"/>
<defs>
<linearGradient id="paint0_linear_4104_4868" x1="29" y1="2" x2="29" y2="62" gradientUnits="userSpaceOnUse">
<stop stop-color="#DCDCDC"/>
<stop offset="1" stop-color="#ADADAD"/>
</linearGradient>
</defs>
</svg>
