<svg width="57" height="56" viewBox="0 0 57 56" fill="none" xmlns="http://www.w3.org/2000/svg">
<path fill-rule="evenodd" clip-rule="evenodd" d="M25.322 51.4118L3.87051 41.5298C2.04316 40.6671 2.04316 39.3338 3.87051 38.5495L11.3388 35.0986L25.2426 41.5298C27.0699 42.3925 30.0096 42.3925 31.7574 41.5298L45.6612 35.0986L53.1295 38.5495C54.9568 39.4122 54.9568 40.7455 53.1295 41.5298L31.678 51.4118C30.0096 52.1961 27.0699 52.1961 25.322 51.4118Z" fill="#FF6F3D"/>
<path fill-rule="evenodd" clip-rule="evenodd" d="M25.2525 39.1833L3.86634 29.2898C2.04455 28.4261 2.04455 27.0912 3.86634 26.306L11.1535 22.9297L25.2525 29.4468C27.0743 30.3106 30.005 30.3106 31.7475 29.4468L45.8465 22.9297L53.1337 26.306C54.9554 27.1698 54.9554 28.5046 53.1337 29.2898L31.7475 39.1833C29.9257 40.047 26.9951 40.047 25.2525 39.1833Z" fill="#95C038"/>
<path fill-rule="evenodd" clip-rule="evenodd" d="M25.2525 27.0815L3.86634 17.3304C2.04455 16.4791 2.04455 15.1635 3.86634 14.3896L25.2525 4.63847C27.0743 3.78718 30.005 3.78718 31.7475 4.63847L53.1337 14.3896C54.9554 15.2409 54.9554 16.5565 53.1337 17.3304L31.7475 27.0815C29.9257 27.8554 26.9951 27.8554 25.2525 27.0815Z" fill="#5DC0E8"/>
</svg>
