<svg width="173" height="40" viewBox="0 0 173 40" fill="none" xmlns="http://www.w3.org/2000/svg">
<g clip-path="url(#clip0_4809_21055)">
<path fill-rule="evenodd" clip-rule="evenodd" d="M21.1983 32.6693L10.2025 27.1157C9.26583 26.6309 9.26583 25.8816 10.2025 25.4408L14.0307 23.5015L21.1576 27.1157C22.0942 27.6006 23.6011 27.6006 24.497 27.1157L31.6239 23.5015L35.4521 25.4408C36.3887 25.9257 36.3887 26.675 35.4521 27.1157L24.4563 32.6693C23.6011 33.1101 22.0942 33.1101 21.1983 32.6693Z" fill="#333333" fill-opacity="0.5"/>
<path fill-rule="evenodd" clip-rule="evenodd" d="M21.1983 25.8372L10.2025 20.2836C9.26583 19.7987 9.26583 19.0494 10.2025 18.6087L13.9492 16.7134L21.1983 20.3717C22.135 20.8565 23.6418 20.8565 24.5377 20.3717L31.7868 16.7134L35.5335 18.6087C36.4702 19.0935 36.4702 19.8428 35.5335 20.2836L24.5377 25.8372C23.6011 26.322 22.0942 26.322 21.1983 25.8372Z" fill="#333333" fill-opacity="0.75"/>
<path fill-rule="evenodd" clip-rule="evenodd" d="M21.1983 19.1457L10.2025 13.5921C9.26583 13.1073 9.26583 12.358 10.2025 11.9172L21.1983 6.36363C22.135 5.87879 23.6418 5.87879 24.5377 6.36363L35.5335 11.9172C36.4702 12.4021 36.4702 13.1514 35.5335 13.5921L24.5377 19.1457C23.6011 19.5865 22.0942 19.5865 21.1983 19.1457Z" fill="#333333"/>
</g>
<g clip-path="url(#clip1_4809_21055)">
<path d="M45.3789 19.4761C45.3789 16.964 46.0872 15.0681 47.551 13.8358C48.9676 12.5561 50.6675 11.9399 52.6035 11.9399C54.5395 11.9399 56.1922 12.5561 57.6088 13.8358C59.0254 15.1155 59.7337 16.964 59.7337 19.5235C59.7337 22.0355 59.0254 23.9314 57.6088 25.1637C56.1922 26.4434 54.4923 27.0596 52.6035 27.0596C50.6675 27.0596 49.0148 26.4434 47.551 25.1637C46.0872 23.884 45.3789 21.9881 45.3789 19.4761ZM48.4954 19.4761C48.4954 21.2298 48.8259 22.4621 49.4398 23.2678C50.1009 24.0736 50.8092 24.595 51.5647 24.7846C51.7536 24.8319 51.8952 24.8793 52.0841 24.8793C52.2258 24.8793 52.4146 24.9267 52.5563 24.9267C52.7452 24.9267 52.8868 24.9267 53.0757 24.8793C53.2646 24.8793 53.4063 24.8319 53.5951 24.7846C54.3507 24.595 55.059 24.0736 55.6728 23.2678C56.2867 22.4621 56.6172 21.1824 56.6172 19.5235C56.6172 17.8172 56.2867 16.5849 55.6728 15.7791C55.059 14.9734 54.3507 14.452 53.5951 14.2624C53.4063 14.215 53.2174 14.1676 53.0757 14.1676C52.8868 14.1676 52.7452 14.1202 52.5563 14.1202C52.3674 14.1202 52.2258 14.1202 52.0841 14.1676C51.9425 14.1676 51.7536 14.215 51.5647 14.2624C50.8092 14.452 50.1009 14.9734 49.4398 15.7791C48.8259 16.4901 48.4954 17.7698 48.4954 19.4761Z" fill="#333333"/>
<path d="M61.8984 11.9399H65.8087L70.9589 21.4382L71.7219 23.522H71.7696L71.7219 20.8082V11.9399H74.7261V27.0596H70.8158L65.6657 17.1737L64.9027 15.4776H64.855L64.9027 18.1429V27.0596H61.8984V11.9399Z" fill="#333333"/>
<path d="M77.5078 11.9399H80.4918V24.4912H86.365V27.0596H77.5078V11.9399Z" fill="#333333"/>
<path d="M85.0859 11.9399H88.5337L91.5565 17.1121L92.0288 18.156H92.1232L92.5955 17.1121L95.6655 11.9399H98.8299L93.4929 20.7184V26.7446H90.5174V20.6709L85.0859 11.9399Z" fill="#333333"/>
<path d="M98.5215 19.4761C98.5215 16.964 99.2298 15.0681 100.694 13.8358C102.11 12.5561 103.81 11.9399 105.746 11.9399C107.682 11.9399 109.335 12.5561 110.751 13.8358C112.168 15.1155 112.876 16.964 112.876 19.5235C112.876 22.0355 112.168 23.9314 110.751 25.1637C109.335 26.4434 107.635 27.0596 105.746 27.0596C103.81 27.0596 102.157 26.4434 100.694 25.1637C99.277 23.884 98.5215 21.9881 98.5215 19.4761ZM101.638 19.4761C101.638 21.2298 101.969 22.4621 102.582 23.2678C103.243 24.0736 103.905 24.595 104.707 24.7846C104.896 24.8319 105.038 24.8793 105.227 24.8793C105.368 24.8793 105.557 24.9267 105.699 24.9267C105.888 24.9267 106.029 24.9267 106.218 24.8793C106.407 24.8793 106.549 24.8319 106.738 24.7846C107.493 24.595 108.202 24.0736 108.815 23.2678C109.429 22.4621 109.76 21.1824 109.76 19.5235C109.76 17.8172 109.429 16.5849 108.815 15.7791C108.202 14.9734 107.493 14.452 106.738 14.2624C106.549 14.215 106.36 14.1676 106.218 14.1676C106.029 14.1676 105.888 14.1202 105.699 14.1202C105.51 14.1202 105.368 14.1202 105.227 14.1676C105.085 14.1676 104.896 14.215 104.707 14.2624C103.952 14.452 103.243 14.9734 102.582 15.7791C101.969 16.4901 101.638 17.7698 101.638 19.4761Z" fill="#333333"/>
<path d="M115.039 11.9399H123.285V14.4074H118.025V18.0137H123.048V20.5286H118.025V26.7446H115.039V11.9399Z" fill="#333333"/>
<path d="M125.395 11.9399H133.641V14.4074H128.38V18.0137H133.404V20.5286H128.38V26.7446H125.395V11.9399Z" fill="#333333"/>
<path d="M135.82 26.7446V11.9399H138.875V26.7446H135.82Z" fill="#333333"/>
<path d="M152.61 12.3215V14.8971C152.085 14.7063 151.559 14.5632 150.986 14.4678C150.413 14.3724 149.744 14.3247 149.076 14.3247C147.499 14.3247 146.305 14.8017 145.446 15.8033C144.586 16.7572 144.156 17.9973 144.156 19.4759C144.156 20.9068 144.538 22.0992 145.35 23.0531C146.162 24.0071 147.308 24.5317 148.789 24.5317C149.314 24.5317 149.84 24.484 150.461 24.4363C151.082 24.3409 151.702 24.1978 152.371 23.9117L152.562 26.4396C152.467 26.4873 152.323 26.535 152.18 26.5826C151.989 26.6303 151.798 26.678 151.559 26.7257C151.177 26.8211 150.699 26.8688 150.126 26.9642C149.553 27.0119 148.98 27.0596 148.359 27.0596C148.264 27.0596 148.168 27.0596 148.12 27.0596C148.025 27.0596 147.929 27.0596 147.882 27.0596C146.162 26.9642 144.586 26.2965 143.153 25.1518C141.72 23.9594 141.004 22.0992 141.004 19.619C141.004 17.1865 141.72 15.2787 143.105 13.9432C144.49 12.6077 146.401 11.9399 148.741 11.9399C149.362 11.9399 149.935 11.9399 150.413 11.9876C150.938 12.0353 151.416 12.1307 151.941 12.2261C152.037 12.2738 152.18 12.2738 152.276 12.3215C152.371 12.2738 152.467 12.3215 152.61 12.3215Z" fill="#333333"/>
<path d="M154.734 11.9399H163.286V14.265H157.661V17.9662H162.737V20.2438H157.661V24.4195H163.286V26.7446H154.734V11.9399Z" fill="#333333"/>
</g>
<defs>
<clipPath id="clip0_4809_21055">
<rect width="26.7367" height="26.9996" fill="white" transform="translate(9.5 6)"/>
</clipPath>
<clipPath id="clip1_4809_21055">
<rect width="117.906" height="15.1197" fill="white" transform="translate(45.3789 11.9399)"/>
</clipPath>
</defs>
</svg>
