<svg width="172" height="40" viewBox="0 0 172 40" fill="none" xmlns="http://www.w3.org/2000/svg">
<g clip-path="url(#clip0_0_21)">
<path fill-rule="evenodd" clip-rule="evenodd" d="M20.6983 32.669L9.70251 27.1154C8.76583 26.6306 8.76583 25.8813 9.70251 25.4405L13.5307 23.5012L20.6576 27.1154C21.5942 27.6003 23.1011 27.6003 23.997 27.1154L31.1239 23.5012L34.9521 25.4405C35.8887 25.9254 35.8887 26.6747 34.9521 27.1154L23.9563 32.669C23.1011 33.1098 21.5942 33.1098 20.6983 32.669Z" fill="white" fill-opacity="0.5"/>
<path fill-rule="evenodd" clip-rule="evenodd" d="M20.6983 25.8371L9.70251 20.2835C8.76583 19.7987 8.76583 19.0494 9.70251 18.6086L13.4492 16.7133L20.6983 20.3717C21.635 20.8565 23.1418 20.8565 24.0377 20.3717L31.2868 16.7133L35.0335 18.6086C35.9702 19.0934 35.9702 19.8427 35.0335 20.2835L24.0377 25.8371C23.1011 26.3219 21.5942 26.3219 20.6983 25.8371Z" fill="white" fill-opacity="0.75"/>
<path fill-rule="evenodd" clip-rule="evenodd" d="M20.6989 19.1457L9.70316 13.5921C8.76648 13.1073 8.76648 12.358 9.70316 11.9172L20.6989 6.36363C21.6356 5.87879 23.1424 5.87879 24.0384 6.36363L35.0342 11.9172C35.9708 12.4021 35.9708 13.1514 35.0342 13.5921L24.0384 19.1457C23.1017 19.5865 21.5949 19.5865 20.6989 19.1457Z" fill="white"/>
</g>
<g clip-path="url(#clip1_0_21)">
<path d="M44.8799 19.4761C44.8799 16.9641 45.5882 15.0682 47.052 13.8359C48.4686 12.5562 50.1685 11.94 52.1045 11.94C54.0405 11.94 55.6932 12.5562 57.1098 13.8359C58.5264 15.1156 59.2347 16.9641 59.2347 19.5235C59.2347 22.0356 58.5264 23.9315 57.1098 25.1638C55.6932 26.4435 53.9933 27.0597 52.1045 27.0597C50.1685 27.0597 48.5158 26.4435 47.052 25.1638C45.5882 23.8841 44.8799 21.9882 44.8799 19.4761ZM47.9964 19.4761C47.9964 21.2298 48.327 22.4622 48.9408 23.2679C49.6019 24.0737 50.3102 24.595 51.0657 24.7846C51.2546 24.832 51.3962 24.8794 51.5851 24.8794C51.7268 24.8794 51.9157 24.9268 52.0573 24.9268C52.2462 24.9268 52.3879 24.9268 52.5767 24.8794C52.7656 24.8794 52.9073 24.832 53.0962 24.7846C53.8517 24.595 54.56 24.0737 55.1738 23.2679C55.7877 22.4622 56.1182 21.1824 56.1182 19.5235C56.1182 17.8172 55.7877 16.5849 55.1738 15.7792C54.56 14.9734 53.8517 14.452 53.0962 14.2625C52.9073 14.2151 52.7184 14.1677 52.5767 14.1677C52.3879 14.1677 52.2462 14.1203 52.0573 14.1203C51.8684 14.1203 51.7268 14.1203 51.5851 14.1677C51.4435 14.1677 51.2546 14.2151 51.0657 14.2625C50.3102 14.452 49.6019 14.9734 48.9408 15.7792C48.327 16.4901 47.9964 17.7698 47.9964 19.4761Z" fill="white"/>
<path d="M61.3993 11.94H65.3096L70.4598 21.4382L71.2228 23.522H71.2704L71.2228 20.8082V11.94H74.227V27.0596H70.3167L65.1666 17.1737L64.4036 15.4776H64.3559L64.4036 18.1429V27.0596H61.3993V11.94Z" fill="white"/>
<path d="M77.0082 11.94H79.9922V24.4912H85.8654V27.0596H77.0082V11.94Z" fill="white"/>
<path d="M84.5852 11.94H88.033L91.0558 17.1121L91.5281 18.156H91.6225L92.0948 17.1121L95.1648 11.94H98.3292L92.9922 20.7184V26.7446H90.0167V20.6709L84.5852 11.94Z" fill="white"/>
<path d="M98.0204 19.4761C98.0204 16.9641 98.7287 15.0682 100.192 13.8358C101.609 12.5561 103.309 11.94 105.245 11.94C107.181 11.94 108.834 12.5561 110.25 13.8358C111.667 15.1156 112.375 16.9641 112.375 19.5235C112.375 22.0355 111.667 23.9314 110.25 25.1638C108.834 26.4435 107.134 27.0596 105.245 27.0596C103.309 27.0596 101.656 26.4435 100.192 25.1638C98.7759 23.884 98.0204 21.9881 98.0204 19.4761ZM101.137 19.4761C101.137 21.2298 101.467 22.4621 102.081 23.2679C102.742 24.0736 103.403 24.595 104.206 24.7846C104.395 24.832 104.537 24.8794 104.726 24.8794C104.867 24.8794 105.056 24.9268 105.198 24.9268C105.387 24.9268 105.528 24.9268 105.717 24.8794C105.906 24.8794 106.048 24.832 106.237 24.7846C106.992 24.595 107.7 24.0736 108.314 23.2679C108.928 22.4621 109.259 21.1824 109.259 19.5235C109.259 17.8172 108.928 16.5849 108.314 15.7791C107.7 14.9734 106.992 14.452 106.237 14.2624C106.048 14.215 105.859 14.1676 105.717 14.1676C105.528 14.1676 105.387 14.1202 105.198 14.1202C105.009 14.1202 104.867 14.1202 104.726 14.1676C104.584 14.1676 104.395 14.215 104.206 14.2624C103.451 14.452 102.742 14.9734 102.081 15.7791C101.467 16.4901 101.137 17.7698 101.137 19.4761Z" fill="white"/>
<path d="M114.54 11.94H122.786V14.4074H117.526V18.0137H122.549V20.5286H117.526V26.7446H114.54V11.94Z" fill="white"/>
<path d="M124.894 11.94H133.14V14.4074H127.88V18.0137H132.903V20.5286H127.88V26.7446H124.894V11.94Z" fill="white"/>
<path d="M135.321 26.7446V11.94H138.375V26.7446H135.321Z" fill="white"/>
<path d="M152.109 12.3215V14.8971C151.584 14.7063 151.059 14.5633 150.486 14.4679C149.912 14.3725 149.244 14.3248 148.575 14.3248C146.999 14.3248 145.805 14.8017 144.945 15.8034C144.086 16.7573 143.656 17.9974 143.656 19.476C143.656 20.9068 144.038 22.0992 144.85 23.0532C145.662 24.0071 146.808 24.5317 148.289 24.5317C148.814 24.5317 149.339 24.484 149.96 24.4364C150.581 24.341 151.202 24.1979 151.871 23.9117L152.062 26.4396C151.966 26.4873 151.823 26.535 151.68 26.5827C151.489 26.6304 151.298 26.6781 151.059 26.7258C150.677 26.8212 150.199 26.8689 149.626 26.9642C149.053 27.0119 148.48 27.0596 147.859 27.0596C147.763 27.0596 147.668 27.0596 147.62 27.0596C147.524 27.0596 147.429 27.0596 147.381 27.0596C145.662 26.9642 144.086 26.2965 142.653 25.1518C141.22 23.9594 140.503 22.0992 140.503 19.619C140.503 17.1865 141.22 15.2787 142.605 13.9432C143.99 12.6077 145.9 11.94 148.241 11.94C148.862 11.94 149.435 11.94 149.912 11.9877C150.438 12.0354 150.915 12.1308 151.441 12.2261C151.536 12.2738 151.68 12.2738 151.775 12.3215C151.871 12.2738 151.966 12.3215 152.109 12.3215Z" fill="white"/>
<path d="M154.234 11.94H162.786V14.2651H157.161V17.9662H162.237V20.2439H157.161V24.4196H162.786V26.7446H154.234V11.94Z" fill="white"/>
</g>
<defs>
<clipPath id="clip0_0_21">
<rect width="26.7367" height="26.9996" fill="white" transform="translate(9 6)"/>
</clipPath>
<clipPath id="clip1_0_21">
<rect width="117.906" height="15.1197" fill="white" transform="translate(44.8799 11.94)"/>
</clipPath>
</defs>
</svg>
