<svg width="423" height="48" viewBox="0 0 423 48" fill="none" xmlns="http://www.w3.org/2000/svg">
<path fill-rule="evenodd" clip-rule="evenodd" d="M23.322 47.4118L1.87051 37.5298C0.0431628 36.6671 0.0431628 35.3338 1.87051 34.5495L9.33881 31.0986L23.2426 37.5298C25.0699 38.3925 28.0096 38.3925 29.7574 37.5298L43.6612 31.0986L51.1295 34.5495C52.9568 35.4122 52.9568 36.7455 51.1295 37.5298L29.678 47.4118C28.0096 48.1961 25.0699 48.1961 23.322 47.4118Z" fill="#FF6F3D"/>
<path fill-rule="evenodd" clip-rule="evenodd" d="M23.2525 35.1833L1.86634 25.2898C0.0445544 24.4261 0.0445544 23.0912 1.86634 22.306L9.15347 18.9297L23.2525 25.4468C25.0743 26.3105 28.005 26.3105 29.7475 25.4468L43.8465 18.9297L51.1337 22.306C52.9554 23.1698 52.9554 24.5046 51.1337 25.2898L29.7475 35.1833C27.9257 36.047 24.9951 36.047 23.2525 35.1833Z" fill="#95C038"/>
<path fill-rule="evenodd" clip-rule="evenodd" d="M23.2525 23.0815L1.86634 13.3304C0.0445544 12.4791 0.0445544 11.1635 1.86634 10.3896L23.2525 0.638466C25.0743 -0.212822 28.005 -0.212822 29.7475 0.638466L51.1337 10.3896C52.9554 11.2409 52.9554 12.5565 51.1337 13.3304L29.7475 23.0815C27.9257 23.8554 24.9951 23.8554 23.2525 23.0815Z" fill="#5DC0E8"/>
<path fill-rule="evenodd" clip-rule="evenodd" d="M344.385 34.2471C345.935 33.0518 346.709 31.3861 346.709 29.25C346.709 27.5898 346.228 26.2396 345.265 25.1992C344.313 24.1589 342.565 23.1849 340.019 22.2773C338.503 21.735 337.374 21.2425 336.632 20.7998C335.902 20.346 335.382 19.8535 335.072 19.3223C334.762 18.7799 334.607 18.0882 334.607 17.2471C334.607 16.1071 335.028 15.2161 335.869 14.5742C336.71 13.9323 337.877 13.6113 339.372 13.6113C341.264 13.6113 343.212 14.0319 345.215 14.873L346.095 12.416C344.07 11.5306 341.851 11.0879 339.438 11.0879C337.125 11.0879 335.265 11.6413 333.86 12.748C332.454 13.8548 331.751 15.3434 331.751 17.2139C331.751 18.9958 332.233 20.4401 333.196 21.5469C334.17 22.6536 335.786 23.611 338.043 24.4189C339.659 24.9945 340.86 25.5091 341.646 25.9629C342.443 26.4167 343.007 26.9147 343.339 27.457C343.682 27.9883 343.854 28.6745 343.854 29.5156C343.854 30.7884 343.378 31.7845 342.426 32.5039C341.474 33.2122 340.058 33.5664 338.176 33.5664C337.025 33.5664 335.863 33.4447 334.69 33.2012C333.517 32.9577 332.432 32.6257 331.436 32.2051V34.9277C332.986 35.6693 335.199 36.04 338.077 36.04C340.733 36.04 342.836 35.4424 344.385 34.2471ZM288.578 32.5371C290.758 30.4121 291.849 27.3464 291.849 23.3398C291.849 19.5879 290.803 16.666 288.711 14.5742C286.619 12.4824 283.686 11.4365 279.912 11.4365H272.475V35.708H279.198C283.282 35.708 286.409 34.651 288.578 32.5371ZM286.47 16.2842C288.063 17.889 288.86 20.2741 288.86 23.4395C288.86 26.6823 288.014 29.1338 286.32 30.7939C284.627 32.443 282.098 33.2676 278.733 33.2676H275.297V13.877H279.397C282.53 13.877 284.887 14.6794 286.47 16.2842ZM309.986 33.5498C311.48 31.8786 312.227 29.5599 312.227 26.5938C312.227 23.7051 311.475 21.4141 309.97 19.7207C308.475 18.0273 306.456 17.1807 303.91 17.1807C301.276 17.1807 299.217 18.0107 297.734 19.6709C296.251 21.32 295.51 23.6276 295.51 26.5938C295.51 28.5085 295.853 30.1797 296.539 31.6074C297.225 33.0352 298.199 34.1309 299.461 34.8945C300.723 35.6582 302.167 36.04 303.794 36.04C306.428 36.04 308.492 35.21 309.986 33.5498ZM299.76 31.9062C298.83 30.6888 298.365 28.918 298.365 26.5938C298.365 24.2474 298.824 22.4821 299.743 21.2979C300.662 20.1136 302.023 19.5215 303.827 19.5215C305.653 19.5215 307.031 20.1247 307.961 21.3311C308.902 22.5264 309.372 24.2806 309.372 26.5938C309.372 28.929 308.902 30.7054 307.961 31.9229C307.031 33.1292 305.664 33.7324 303.86 33.7324C302.056 33.7324 300.689 33.1237 299.76 31.9062ZM324.007 36.04C321.372 36.04 319.33 35.2321 317.881 33.6162C316.442 31.9893 315.722 29.6927 315.722 26.7266C315.722 23.6829 316.453 21.3311 317.914 19.6709C319.386 18.0107 321.478 17.1807 324.189 17.1807C325.063 17.1807 325.938 17.2747 326.812 17.4629C327.687 17.651 328.373 17.8724 328.871 18.127L328.024 20.4678C327.415 20.2243 326.751 20.0251 326.032 19.8701C325.312 19.7041 324.676 19.6211 324.123 19.6211C320.426 19.6211 318.578 21.9785 318.578 26.6934C318.578 28.929 319.026 30.6445 319.923 31.8398C320.83 33.0352 322.169 33.6328 323.94 33.6328C325.456 33.6328 327.011 33.3063 328.605 32.6533V35.0938C327.388 35.7246 325.855 36.04 324.007 36.04ZM359.385 36.04C358.201 36.04 357.116 35.8242 356.131 35.3926C355.157 34.9499 354.338 34.2747 353.674 33.3672H353.475C353.608 34.4297 353.674 35.4368 353.674 36.3887V43.876H350.918V17.5127H353.16L353.541 20.0029H353.674C354.383 19.0068 355.207 18.2874 356.148 17.8447C357.089 17.402 358.168 17.1807 359.385 17.1807C361.798 17.1807 363.657 18.0052 364.963 19.6543C366.28 21.3034 366.939 23.6165 366.939 26.5938C366.939 29.582 366.269 31.9062 364.93 33.5664C363.602 35.2155 361.754 36.04 359.385 36.04ZM358.987 19.5215C357.127 19.5215 355.783 20.0361 354.953 21.0654C354.122 22.0947 353.696 23.7327 353.674 25.9795V26.5938C353.674 29.1504 354.1 30.9821 354.953 32.0889C355.805 33.1846 357.172 33.7324 359.053 33.7324C360.625 33.7324 361.853 33.096 362.739 31.8232C363.635 30.5505 364.083 28.7962 364.083 26.5605C364.083 24.2917 363.635 22.554 362.739 21.3477C361.853 20.1302 360.603 19.5215 358.987 19.5215ZM382.071 33.1182L382.619 35.708H384.661V23.29C384.661 21.165 384.136 19.6211 383.084 18.6582C382.044 17.6953 380.439 17.2139 378.27 17.2139C377.196 17.2139 376.123 17.3522 375.049 17.6289C373.987 17.9056 373.007 18.2874 372.111 18.7744L372.957 20.8828C374.872 19.9531 376.587 19.4883 378.104 19.4883C379.454 19.4883 380.433 19.8314 381.042 20.5176C381.662 21.1927 381.972 22.2441 381.972 23.6719V24.8008L378.884 24.9004C373.007 25.0775 370.069 27.0033 370.069 30.6777C370.069 32.3932 370.578 33.7158 371.596 34.6455C372.625 35.5752 374.042 36.04 375.846 36.04C377.196 36.04 378.32 35.8408 379.216 35.4424C380.124 35.0329 381.031 34.2581 381.939 33.1182H382.071ZM380.428 32.3545C379.454 33.2952 378.109 33.7656 376.394 33.7656C375.309 33.7656 374.462 33.5055 373.854 32.9854C373.256 32.4652 372.957 31.707 372.957 30.7109C372.957 29.4382 373.439 28.5029 374.402 27.9053C375.376 27.2965 376.958 26.9535 379.15 26.876L381.905 26.7598V28.4033C381.905 30.0967 381.413 31.4137 380.428 32.3545ZM397.287 36.04C394.653 36.04 392.611 35.2321 391.161 33.6162C389.722 31.9893 389.003 29.6927 389.003 26.7266C389.003 23.6829 389.733 21.3311 391.194 19.6709C392.666 18.0107 394.758 17.1807 397.47 17.1807C398.344 17.1807 399.218 17.2747 400.093 17.4629C400.967 17.651 401.653 17.8724 402.151 18.127L401.305 20.4678C400.696 20.2243 400.032 20.0251 399.313 19.8701C398.593 19.7041 397.957 19.6211 397.403 19.6211C393.707 19.6211 391.858 21.9785 391.858 26.6934C391.858 28.929 392.307 30.6445 393.203 31.8398C394.111 33.0352 395.45 33.6328 397.221 33.6328C398.737 33.6328 400.292 33.3063 401.886 32.6533V35.0938C400.668 35.7246 399.135 36.04 397.287 36.04ZM407.19 33.583C408.751 35.221 410.876 36.04 413.565 36.04C414.794 36.04 415.84 35.946 416.703 35.7578C417.577 35.5807 418.501 35.2819 419.475 34.8613V32.4043C417.561 33.2233 415.624 33.6328 413.665 33.6328C411.806 33.6328 410.361 33.0794 409.332 31.9727C408.314 30.8659 407.777 29.2445 407.722 27.1084H420.256V25.3652C420.256 22.9082 419.592 20.9326 418.264 19.4385C416.935 17.9333 415.131 17.1807 412.851 17.1807C410.417 17.1807 408.474 18.0439 407.024 19.7705C405.585 21.4971 404.866 23.8268 404.866 26.7598C404.866 29.6706 405.641 31.945 407.19 33.583ZM409.315 20.916C410.19 19.9642 411.357 19.4883 412.818 19.4883C414.257 19.4883 415.364 19.9531 416.139 20.8828C416.913 21.8014 417.301 23.1296 417.301 24.8672H407.788C407.943 23.1849 408.452 21.8678 409.315 20.916ZM64.9688 24C64.9688 15.2968 70.9021 11.7333 76.9402 11.7333C82.9783 11.7333 88.9117 15.2968 88.9117 24C88.9117 32.7031 82.9783 36.2666 76.9402 36.2666C70.9021 36.2666 64.9688 32.7031 64.9688 24ZM83.6763 24C83.6763 15.8793 78.79 15.1598 76.9402 15.1598C75.0904 15.1598 70.2041 15.8793 70.2041 24C70.2041 32.1207 75.0904 32.8402 76.9402 32.8402C78.79 32.8402 83.6763 32.1207 83.6763 24ZM97.8943 35.9925H92.9382V12.0075H99.3602L107.807 27.1181L109.098 30.3732H109.203L109.098 26.1244V12.0075H114.054V35.9925H107.632L99.1159 20.2994L97.8943 17.6268H97.7896L97.8943 21.8756V35.9925ZM118.944 35.9925H133.603V31.9493H123.901V12.0075H118.944V35.9925ZM138.42 26.1929L129.415 12.0075H135.139L140.165 20.4365L140.933 22.0812H141.038L141.875 20.4365L146.936 12.0075H152.171L143.376 26.2614V35.9925H138.42V26.1929ZM163.719 11.7333C157.68 11.7333 151.747 15.2968 151.747 24C151.747 32.7031 157.68 36.2666 163.719 36.2666C169.757 36.2666 175.69 32.7031 175.69 24C175.69 15.2968 169.757 11.7333 163.719 11.7333ZM163.719 15.1598C165.568 15.1598 170.455 15.8793 170.455 24C170.455 32.1207 165.568 32.8402 163.719 32.8402C161.869 32.8402 156.982 32.1207 156.982 24C156.982 15.8793 161.869 15.1598 163.719 15.1598ZM184.673 35.9925H179.717V12.0075H193.398V16.0507H184.673V21.8756H192.979V25.816H184.673V35.9925ZM196.895 35.9925H201.851V25.816H210.158V21.8756H201.851V16.0507H210.577V12.0075H196.895V35.9925ZM219.03 35.9925H214.073V12.0075H219.03V35.9925ZM241.759 31.1612C240.537 31.7095 238.827 32.2234 236.663 32.2234C232.265 32.2234 228.287 29.8592 228.287 24.0685C228.287 19.1687 231.532 15.7765 237.012 15.7765C238.862 15.7765 240.433 16.1192 241.864 16.6674L242.073 12.5557C240.223 11.9732 238.583 11.7333 236.663 11.7333C228.985 11.7333 223.051 15.8793 223.051 24.137C223.051 32.8745 229.683 36.2666 235.756 36.2666C237.71 36.2666 239.909 35.9583 242.073 35.2387L241.759 31.1612ZM260.497 35.9925H245.908V12.0075H260.497V16.2562H250.864V21.67H259.625V25.6104H250.864V31.7437H260.497V35.9925Z" fill="#333333"/>
</svg>
