<svg width="310" height="59" viewBox="0 0 310 59" fill="none" xmlns="http://www.w3.org/2000/svg">
<g clip-path="url(#clip0_4847_21069)">
<rect width="310" height="59" fill="#E2E2E2"/>
<path d="M0 0H310V25H0V0Z" fill="#F1F1F1"/>
<path fill-rule="evenodd" clip-rule="evenodd" d="M0 24V25H310V24H0Z" fill="#CBCBCB"/>
<path d="M0 25H15V150H0V25Z" fill="#F1F1F1"/>
<path fill-rule="evenodd" clip-rule="evenodd" d="M14 150H15V25H14V150Z" fill="#CBCBCB"/>
<path d="M15 25H56V150H15V25Z" fill="#F1F1F1"/>
<path fill-rule="evenodd" clip-rule="evenodd" d="M55 150H56V25H55V150Z" fill="#CBCBCB"/>
<path d="M295 25H310V150H295V25Z" fill="#F1F1F1"/>
<path fill-rule="evenodd" clip-rule="evenodd" d="M296 25V150H295V25H296Z" fill="#CBCBCB"/>
<path opacity="0.3" d="M4 5C4 4.44772 4.44772 4 5 4H18C18.5523 4 19 4.44772 19 5V10C19 10.5523 18.5523 11 18 11H5C4.44772 11 4 10.5523 4 10V5Z" fill="#7D858C"/>
<path opacity="0.3" d="M23 5C23 4.44772 23.4477 4 24 4H64C64.5523 4 65 4.44772 65 5V10C65 10.5523 64.5523 11 64 11H24C23.4477 11 23 10.5523 23 10V5Z" fill="#7D858C"/>
<path opacity="0.3" d="M69 5C69 4.44772 69.4477 4 70 4H99C99.5523 4 100 4.44772 100 5V10C100 10.5523 99.5523 11 99 11H70C69.4477 11 69 10.5523 69 10V5Z" fill="#7D858C"/>
<path opacity="0.3" d="M20 32C20 31.4477 20.4477 31 21 31H50C50.5523 31 51 31.4477 51 32V52C51 52.5523 50.5523 53 50 53H21C20.4477 53 20 52.5523 20 52V32Z" fill="#7D858C"/>
<path opacity="0.3" d="M104 5C104 4.44772 104.448 4 105 4H172C172.552 4 173 4.44772 173 5V10C173 10.5523 172.552 11 172 11H105C104.448 11 104 10.5523 104 10V5Z" fill="#7D858C"/>
<path opacity="0.3" d="M177 5C177 4.44772 177.448 4 178 4H305C305.552 4 306 4.44772 306 5V20C306 20.5523 305.552 21 305 21H178C177.448 21 177 20.5523 177 20V5Z" fill="#7D858C"/>
<path opacity="0.3" d="M4 15C4 14.4477 4.44772 14 5 14H18C18.5523 14 19 14.4477 19 15V20C19 20.5523 18.5523 21 18 21H5C4.44772 21 4 20.5523 4 20V15Z" fill="#7D858C"/>
<path opacity="0.3" d="M4 32C4 31.4477 4.44772 31 5 31H10C10.5523 31 11 31.4477 11 32V37C11 37.5523 10.5523 38 10 38H5C4.44772 38 4 37.5523 4 37V32Z" fill="#7D858C"/>
<path opacity="0.3" d="M4 43C4 42.4477 4.44772 42 5 42H10C10.5523 42 11 42.4477 11 43V48C11 48.5523 10.5523 49 10 49H5C4.44772 49 4 48.5523 4 48V43Z" fill="#7D858C"/>
<path opacity="0.3" d="M4 54C4 53.4477 4.44772 53 5 53H10C10.5523 53 11 53.4477 11 54V59C11 59.5523 10.5523 60 10 60H5C4.44772 60 4 59.5523 4 59V54Z" fill="#7D858C"/>
<path opacity="0.3" d="M299 32C299 31.4477 299.448 31 300 31H305C305.552 31 306 31.4477 306 32V37C306 37.5523 305.552 38 305 38H300C299.448 38 299 37.5523 299 37V32Z" fill="#7D858C"/>
<path opacity="0.3" d="M299 43C299 42.4477 299.448 42 300 42H305C305.552 42 306 42.4477 306 43V48C306 48.5523 305.552 49 305 49H300C299.448 49 299 48.5523 299 48V43Z" fill="#7D858C"/>
<path opacity="0.3" d="M299 54C299 53.4477 299.448 53 300 53H305C305.552 53 306 53.4477 306 54V59C306 59.5523 305.552 60 305 60H300C299.448 60 299 59.5523 299 59V54Z" fill="#7D858C"/>
<path opacity="0.3" d="M23 15C23 14.4477 23.4477 14 24 14H64C64.5523 14 65 14.4477 65 15V20C65 20.5523 64.5523 21 64 21H24C23.4477 21 23 20.5523 23 20V15Z" fill="#7D858C"/>
<path opacity="0.3" d="M69 15C69 14.4477 69.4477 14 70 14H99C99.5523 14 100 14.4477 100 15V20C100 20.5523 99.5523 21 99 21H70C69.4477 21 69 20.5523 69 20V15Z" fill="#7D858C"/>
<path opacity="0.3" d="M104 15C104 14.4477 104.448 14 105 14H172C172.552 14 173 14.4477 173 15V20C173 20.5523 172.552 21 172 21H105C104.448 21 104 20.5523 104 20V15Z" fill="#7D858C"/>
<path d="M66 31H285V145H66V31Z" fill="white"/>
<path fill-rule="evenodd" clip-rule="evenodd" d="M284 32H67V144H284V32ZM66 31V145H285V31H66Z" fill="#BBBEC2"/>
<path d="M0 50H310V59H0V50Z" fill="#F1F1F1"/>
<path fill-rule="evenodd" clip-rule="evenodd" d="M310 51H0V50H310V51Z" fill="#CBCBCB"/>
</g>
<defs>
<clipPath id="clip0_4847_21069">
<rect width="310" height="59" fill="white"/>
</clipPath>
</defs>
</svg>
