<svg width="232" height="40" viewBox="0 0 232 40" fill="none" xmlns="http://www.w3.org/2000/svg">
<path fill-rule="evenodd" clip-rule="evenodd" d="M9.3248 29.7549L0.559975 25.6374C-0.186658 25.2779 -0.186658 24.7224 0.559975 24.3956L3.61143 22.9577L9.29234 25.6374C10.039 25.9968 11.2401 25.9968 11.9542 25.6374L17.6352 22.9577L20.6866 24.3956C21.4332 24.7551 21.4332 25.3106 20.6866 25.6374L11.9218 29.7549C11.2401 30.0817 10.039 30.0817 9.3248 29.7549Z" fill="#FF6F3D"/>
<path fill-rule="evenodd" clip-rule="evenodd" d="M9.29639 24.6596L0.558269 20.5374C-0.18609 20.1775 -0.18609 19.6213 0.558269 19.2941L3.5357 17.8873L9.29639 20.6028C10.0408 20.9627 11.2382 20.9627 11.9502 20.6028L17.7109 17.8873L20.6883 19.2941C21.4327 19.654 21.4327 20.2102 20.6883 20.5374L11.9502 24.6596C11.2058 25.0195 10.0084 25.0195 9.29639 24.6596Z" fill="#95C038"/>
<path fill-rule="evenodd" clip-rule="evenodd" d="M9.29639 19.6173L0.558269 15.5543C-0.18609 15.1996 -0.18609 14.6515 0.558269 14.329L9.29639 10.266C10.0408 9.91132 11.2382 9.91132 11.9502 10.266L20.6883 14.329C21.4327 14.6837 21.4327 15.2319 20.6883 15.5543L11.9502 19.6173C11.2058 19.9398 10.0084 19.9398 9.29639 19.6173Z" fill="#5DC0E8"/>
<path d="M31.5719 14.8889C29.0431 14.8889 26.5582 16.3737 26.5582 20C26.5582 23.6263 29.0431 25.1111 31.5719 25.1111C34.1007 25.1111 36.5856 23.6263 36.5856 20C36.5856 16.3737 34.1007 14.8889 31.5719 14.8889ZM31.5719 16.3166C32.3466 16.3166 34.393 16.6164 34.393 20C34.393 23.3836 32.3466 23.6834 31.5719 23.6834C30.7972 23.6834 28.7508 23.3836 28.7508 20C28.7508 16.6164 30.7972 16.3166 31.5719 16.3166Z" fill="#333333"/>
<path d="M38.2719 15.0031V24.9969H40.3476V19.1148L40.3037 17.3445H40.3476L40.8592 18.4581L44.4257 24.9969H47.1153V15.0031H45.0397V20.8852L45.0835 22.6555H45.0397L44.4988 21.2992L40.9615 15.0031H38.2719Z" fill="#333333"/>
<path d="M49.1634 15.0031V24.9969H55.3026V23.3122H51.239V15.0031H49.1634Z" fill="#333333"/>
<path d="M53.5486 15.0031L57.3198 20.9137V24.9969H59.3954V20.9423L63.0789 15.0031H60.8864L58.7669 18.5152L58.4161 19.2005H58.3722L58.0506 18.5152L55.9458 15.0031H53.5486Z" fill="#333333"/>
<path d="M67.9149 14.8889C65.3862 14.8889 62.9012 16.3737 62.9012 20C62.9012 23.6263 65.3862 25.1111 67.9149 25.1111C70.4437 25.1111 72.9286 23.6263 72.9286 20C72.9286 16.3737 70.4437 14.8889 67.9149 14.8889ZM67.9149 16.3166C68.6896 16.3166 70.736 16.6164 70.736 20C70.736 23.3836 68.6896 23.6834 67.9149 23.6834C67.1402 23.6834 65.0938 23.3836 65.0938 20C65.0938 16.6164 67.1402 16.3166 67.9149 16.3166Z" fill="#333333"/>
<path d="M74.615 15.0031V24.9969H76.6906V20.7567H80.1695V19.1148H76.6906V16.6878H80.3449V15.0031H74.615Z" fill="#333333"/>
<path d="M81.8093 15.0031V24.9969H83.885V20.7567H87.3638V19.1148H83.885V16.6878H87.5392V15.0031H81.8093Z" fill="#333333"/>
<path d="M89.0037 24.9969H91.0793V15.0031H89.0037V24.9969Z" fill="#333333"/>
<path d="M100.598 22.9839C100.087 23.2123 99.3706 23.4264 98.4643 23.4264C96.6226 23.4264 94.9562 22.4413 94.9562 20.0286C94.9562 17.987 96.3156 16.5736 98.6105 16.5736C99.3852 16.5736 100.043 16.7163 100.642 16.9448L100.73 15.2315C99.9553 14.9888 99.2683 14.8889 98.4643 14.8889C95.2485 14.8889 92.7636 16.6164 92.7636 20.0571C92.7636 23.6977 95.5409 25.1111 98.0843 25.1111C98.9028 25.1111 99.8237 24.9826 100.73 24.6828L100.598 22.9839Z" fill="#333333"/>
<path d="M102.336 15.0031V24.9969H108.446V23.2266H104.412V20.671H108.081V19.0292H104.412V16.7734H108.446V15.0031H102.336Z" fill="#333333"/>
<path d="M120.869 25.322H119.996L118.463 20.4355C118.39 20.2192 118.309 19.9464 118.219 19.617C118.128 19.2875 118.082 19.0895 118.078 19.023C118.002 19.4622 117.881 19.9431 117.714 20.4655L116.228 25.322H115.355L113.333 18.0247H114.269L115.469 22.5319C115.636 23.1641 115.757 23.7365 115.833 24.2489C115.927 23.64 116.065 23.0443 116.249 22.462L117.61 18.0247H118.546L119.975 22.5019C120.142 23.0177 120.282 23.6 120.396 24.2489C120.462 23.7764 120.587 23.2007 120.77 22.5219L121.966 18.0247H122.901L120.869 25.322Z" fill="#333333"/>
<path d="M128.665 22.5818C128.665 23.4736 128.431 24.1707 127.964 24.6732C127.496 25.1723 126.85 25.4219 126.025 25.4219C125.516 25.4219 125.063 25.3071 124.668 25.0775C124.273 24.8479 123.969 24.5184 123.754 24.0892C123.539 23.6599 123.432 23.1575 123.432 22.5818C123.432 21.69 123.664 20.9962 124.128 20.5004C124.592 20.0013 125.237 19.7517 126.061 19.7517C126.858 19.7517 127.491 20.0063 127.958 20.5154C128.43 21.0245 128.665 21.7133 128.665 22.5818ZM124.325 22.5818C124.325 23.2806 124.471 23.813 124.762 24.179C125.053 24.545 125.481 24.7281 126.046 24.7281C126.611 24.7281 127.038 24.5467 127.329 24.184C127.624 23.818 127.771 23.2839 127.771 22.5818C127.771 21.8863 127.624 21.3589 127.329 20.9995C127.038 20.6368 126.607 20.4555 126.035 20.4555C125.471 20.4555 125.044 20.6335 124.757 20.9896C124.469 21.3456 124.325 21.8764 124.325 22.5818Z" fill="#333333"/>
<path d="M132.568 19.7517C132.821 19.7517 133.048 19.7717 133.249 19.8116L133.13 20.5803C132.894 20.5304 132.686 20.5054 132.506 20.5054C132.045 20.5054 131.65 20.6851 131.321 21.0445C130.995 21.4038 130.833 21.8514 130.833 22.3871V25.322H129.97V19.8515H130.682L130.781 20.8648H130.822C131.034 20.5087 131.288 20.2342 131.586 20.0412C131.884 19.8482 132.212 19.7517 132.568 19.7517Z" fill="#333333"/>
<path d="M134.954 22.5219C135.103 22.3189 135.33 22.0527 135.635 21.7233L137.475 19.8515H138.499L136.191 22.1825L138.66 25.322H137.615L135.604 22.7365L134.954 23.2756V25.322H134.102V17.5555H134.954V21.6734C134.954 21.8564 134.94 22.1392 134.913 22.5219H134.954Z" fill="#333333"/>
<path d="M143.156 23.8296C143.156 24.3387 142.958 24.7314 142.563 25.0076C142.168 25.2838 141.614 25.4219 140.9 25.4219C140.145 25.4219 139.556 25.3071 139.133 25.0775V24.3088C139.407 24.4419 139.699 24.5467 140.011 24.6232C140.327 24.6998 140.63 24.738 140.921 24.738C141.371 24.738 141.718 24.6698 141.96 24.5334C142.203 24.3936 142.324 24.1823 142.324 23.8995C142.324 23.6865 142.227 23.5052 142.033 23.3554C141.842 23.2024 141.468 23.0227 140.91 22.8164C140.38 22.6267 140.003 22.462 139.777 22.3222C139.556 22.1792 139.389 22.0178 139.278 21.8381C139.171 21.6584 139.117 21.4438 139.117 21.1942C139.117 20.7483 139.306 20.3973 139.684 20.141C140.061 19.8815 140.579 19.7517 141.238 19.7517C141.851 19.7517 142.45 19.8715 143.036 20.1111L142.729 20.7849C142.158 20.5586 141.64 20.4455 141.175 20.4455C140.767 20.4455 140.458 20.5071 140.25 20.6302C140.042 20.7533 139.938 20.923 139.938 21.1393C139.938 21.2857 139.977 21.4105 140.053 21.5137C140.133 21.6168 140.259 21.715 140.432 21.8081C140.605 21.9013 140.938 22.0361 141.43 22.2124C142.106 22.4487 142.561 22.6866 142.797 22.9262C143.036 23.1658 143.156 23.4669 143.156 23.8296Z" fill="#333333"/>
<path d="M147.002 25.4219C146.631 25.4219 146.291 25.357 145.983 25.2272C145.678 25.0941 145.422 24.8911 145.214 24.6182H145.151C145.193 24.9377 145.214 25.2405 145.214 25.5267V27.7778H144.351V19.8515H145.053L145.172 20.6002H145.214C145.436 20.3008 145.694 20.0845 145.988 19.9514C146.283 19.8183 146.621 19.7517 147.002 19.7517C147.757 19.7517 148.339 19.9996 148.748 20.4954C149.16 20.9912 149.366 21.6867 149.366 22.5818C149.366 23.4802 149.157 24.179 148.738 24.6781C148.322 25.1739 147.743 25.4219 147.002 25.4219ZM146.877 20.4555C146.295 20.4555 145.874 20.6102 145.614 20.9197C145.354 21.2291 145.221 21.7216 145.214 22.3971V22.5818C145.214 23.3505 145.347 23.9012 145.614 24.2339C145.881 24.5633 146.309 24.7281 146.898 24.7281C147.39 24.7281 147.774 24.5367 148.052 24.1541C148.332 23.7714 148.472 23.244 148.472 22.5718C148.472 21.8897 148.332 21.3672 148.052 21.0045C147.774 20.6385 147.383 20.4555 146.877 20.4555Z" fill="#333333"/>
<path d="M154.169 25.322L153.997 24.5434H153.956C153.672 24.8861 153.388 25.119 153.103 25.2422C152.823 25.362 152.471 25.4219 152.048 25.4219C151.484 25.4219 151.04 25.2821 150.718 25.0026C150.399 24.7231 150.24 24.3254 150.24 23.8097C150.24 22.7049 151.16 22.1259 152.999 22.0727L153.966 22.0427V21.7033C153.966 21.2741 153.869 20.958 153.675 20.755C153.485 20.5487 153.178 20.4455 152.755 20.4455C152.28 20.4455 151.743 20.5853 151.144 20.8648L150.879 20.2309C151.16 20.0845 151.466 19.9697 151.799 19.8865C152.135 19.8033 152.471 19.7617 152.807 19.7617C153.486 19.7617 153.989 19.9065 154.314 20.1959C154.643 20.4854 154.808 20.9496 154.808 21.5885V25.322H154.169ZM152.22 24.738C152.757 24.738 153.178 24.5966 153.483 24.3138C153.791 24.0309 153.945 23.635 153.945 23.1258V22.6317L153.083 22.6666C152.397 22.6899 151.901 22.7931 151.596 22.9761C151.295 23.1558 151.144 23.437 151.144 23.8196C151.144 24.1191 151.238 24.3471 151.425 24.5034C151.615 24.6598 151.88 24.738 152.22 24.738Z" fill="#333333"/>
<path d="M158.654 25.4219C157.83 25.4219 157.19 25.1789 156.736 24.6931C156.286 24.204 156.061 23.5135 156.061 22.6217C156.061 21.7067 156.289 20.9995 156.747 20.5004C157.208 20.0013 157.862 19.7517 158.711 19.7517C158.985 19.7517 159.259 19.78 159.533 19.8366C159.806 19.8931 160.021 19.9597 160.177 20.0362L159.912 20.74C159.721 20.6668 159.513 20.6069 159.288 20.5603C159.063 20.5104 158.864 20.4854 158.691 20.4854C157.533 20.4854 156.955 21.1942 156.955 22.6117C156.955 23.2839 157.095 23.7997 157.376 24.159C157.66 24.5184 158.079 24.6981 158.633 24.6981C159.108 24.6981 159.595 24.5999 160.094 24.4036V25.1373C159.713 25.327 159.233 25.4219 158.654 25.4219Z" fill="#333333"/>
<path d="M163.644 25.4219C162.802 25.4219 162.137 25.1756 161.648 24.6831C161.163 24.1907 160.92 23.5069 160.92 22.6317C160.92 21.7499 161.146 21.0495 161.596 20.5304C162.05 20.0113 162.658 19.7517 163.42 19.7517C164.134 19.7517 164.699 19.978 165.115 20.4305C165.53 20.8798 165.738 21.4737 165.738 22.2124V22.7365H161.814C161.832 23.3787 162 23.8662 162.318 24.199C162.641 24.5317 163.093 24.6981 163.675 24.6981C164.288 24.6981 164.895 24.575 165.494 24.3288V25.0675C165.189 25.1939 164.9 25.2838 164.626 25.337C164.356 25.3936 164.028 25.4219 163.644 25.4219ZM163.41 20.4455C162.952 20.4455 162.587 20.5886 162.313 20.8748C162.043 21.1609 161.884 21.5569 161.835 22.0627H164.813C164.813 21.5403 164.692 21.141 164.449 20.8648C164.207 20.5853 163.86 20.4455 163.41 20.4455Z" fill="#333333"/>
</svg>
