<svg width="386" height="45" viewBox="0 0 386 45" fill="none" xmlns="http://www.w3.org/2000/svg">
<g clip-path="url(#clip0_22322_6346)">
<path fill-rule="evenodd" clip-rule="evenodd" d="M20.5526 43.9606L1.23423 34.9021C-0.411411 34.1112 -0.411411 32.8891 1.23423 32.1701L7.9599 29.0068L20.4811 34.9021C22.1267 35.6929 24.7741 35.6929 26.3482 34.9021L38.8694 29.0068L45.595 32.1701C47.2407 32.961 47.2407 34.1831 45.595 34.9021L26.2766 43.9606C24.7741 44.6795 22.1267 44.6795 20.5526 43.9606Z" fill="#FF6F3D"/>
<path fill-rule="evenodd" clip-rule="evenodd" d="M20.49 32.7512L1.23047 23.6821C-0.410157 22.8904 -0.410157 21.6668 1.23047 20.947L7.79299 17.8521L20.49 23.8261C22.1307 24.6178 24.7699 24.6178 26.3392 23.8261L39.0363 17.8521L45.5988 20.947C47.2394 21.7388 47.2394 22.9624 45.5988 23.6821L26.3392 32.7512C24.6986 33.5429 22.0593 33.5429 20.49 32.7512Z" fill="#95C038"/>
<path fill-rule="evenodd" clip-rule="evenodd" d="M20.49 21.6581L1.23047 12.7195C-0.410157 11.9392 -0.410157 10.7332 1.23047 10.0238L20.49 1.08526C22.1307 0.304913 24.7699 0.304913 26.3392 1.08526L45.5988 10.0238C47.2394 10.8041 47.2394 12.0101 45.5988 12.7195L26.3392 21.6581C24.6986 22.3675 22.0593 22.3675 20.49 21.6581Z" fill="#5DC0E8"/>
<path d="M69.5867 11.2554C64.0131 11.2554 58.5361 14.5219 58.5361 22.4998C58.5361 30.4777 64.0131 33.7442 69.5867 33.7442C75.1603 33.7442 80.6373 30.4777 80.6373 22.4998C80.6373 14.5219 75.1603 11.2554 69.5867 11.2554ZM69.5867 14.3963C71.2942 14.3963 75.8047 15.0559 75.8047 22.4998C75.8047 29.9437 71.2942 30.6033 69.5867 30.6033C67.8792 30.6033 63.3687 29.9437 63.3687 22.4998C63.3687 15.0559 67.8792 14.3963 69.5867 14.3963Z" fill="#333333"/>
<path d="M84.3541 11.5066V33.493H88.929V20.5524L88.8323 16.6577H88.929L90.0566 19.1076L97.9177 33.493H103.846V11.5066H99.2708V24.4472L99.3674 28.3419H99.2708L98.0787 25.358L90.2821 11.5066H84.3541Z" fill="#333333"/>
<path d="M108.36 11.5066V33.493H121.891V29.7867H112.935V11.5066H108.36Z" fill="#333333"/>
<path d="M118.025 11.5066L126.337 24.51V33.493H130.912V24.5728L139.031 11.5066H134.198L129.527 19.2333L128.754 20.7409H128.657L127.948 19.2333L123.309 11.5066H118.025Z" fill="#333333"/>
<path d="M149.69 11.2554C144.116 11.2554 138.639 14.5219 138.639 22.4998C138.639 30.4777 144.116 33.7442 149.69 33.7442C155.263 33.7442 160.74 30.4777 160.74 22.4998C160.74 14.5219 155.263 11.2554 149.69 11.2554ZM149.69 14.3963C151.397 14.3963 155.908 15.0559 155.908 22.4998C155.908 29.9437 151.397 30.6033 149.69 30.6033C147.982 30.6033 143.472 29.9437 143.472 22.4998C143.472 15.0559 147.982 14.3963 149.69 14.3963Z" fill="#333333"/>
<path d="M164.457 11.5066V33.493H169.032V24.1645H176.7V20.5524H169.032V15.2129H177.086V11.5066H164.457Z" fill="#333333"/>
<path d="M180.314 11.5066V33.493H184.889V24.1645H192.557V20.5524H184.889V15.2129H192.943V11.5066H180.314Z" fill="#333333"/>
<path d="M196.171 33.493H200.746V11.5066H196.171V33.493Z" fill="#333333"/>
<path d="M221.727 29.0643C220.599 29.5668 219.021 30.038 217.023 30.038C212.964 30.038 209.291 27.8707 209.291 22.5626C209.291 18.0711 212.287 14.9616 217.345 14.9616C219.053 14.9616 220.503 15.2757 221.824 15.7783L222.017 12.0092C220.309 11.4752 218.795 11.2554 217.023 11.2554C209.935 11.2554 204.458 15.0559 204.458 22.6254C204.458 30.6347 210.58 33.7442 216.186 33.7442C217.99 33.7442 220.019 33.4615 222.017 32.802L221.727 29.0643Z" fill="#333333"/>
<path d="M225.557 11.5066V33.493H239.024V29.5982H230.132V23.976H238.218V20.364H230.132V15.4014H239.024V11.5066H225.557Z" fill="#333333"/>
<path d="M250 16.9731H257.392V18.708H250V16.9731ZM252.851 11.1487H254.668V33.9256H252.851V11.1487ZM258.149 15.8578H268.695V17.667H258.149V15.8578ZM267.964 15.8578H269.78C269.78 15.8578 269.78 16.5517 269.78 16.7996C269.503 27.8782 269.276 31.5711 268.393 32.6864C267.888 33.3804 267.358 33.5787 266.551 33.6778C265.769 33.7522 264.406 33.7274 263.069 33.653C263.019 33.1325 262.817 32.3642 262.489 31.8685C263.927 31.9677 265.264 31.9925 265.794 31.9925C266.248 31.9925 266.5 31.9181 266.753 31.5959C267.459 30.8028 267.711 26.9612 267.964 16.3039V15.8578ZM258.553 20.2198L260.243 20.5668C259.714 23.1692 258.73 25.7716 257.569 27.5065C257.266 27.2338 256.56 26.7629 256.131 26.5151C257.266 24.9289 258.074 22.5991 258.553 20.2198ZM269.957 20.6164L271.546 20.2942C272.278 22.5744 273.06 25.5485 273.312 27.2834L271.572 27.7047C271.37 25.945 270.663 22.9213 269.957 20.6164ZM262.665 11.3966H264.457V15.833C264.457 21.3351 263.927 28.5722 257.317 34C257.014 33.5787 256.333 33.0086 255.879 32.736C262.211 27.6304 262.665 20.9138 262.665 15.833V11.3966Z" fill="#333333"/>
<path d="M285.827 15.3125H297.786V17.097H284.943L285.827 15.3125ZM288.98 20.6907H297.205V22.4009H288.98V20.6907ZM288.955 26.1433H297.558V27.903H288.955V26.1433ZM288.022 15.8825H289.964V33.9504H288.022V15.8825ZM286.785 11.4461L288.627 11.917C287.189 15.8578 284.994 19.7489 282.673 22.3017C282.395 21.9795 281.638 21.3103 281.209 21.0129C283.505 18.708 285.549 15.0894 286.785 11.4461ZM280.73 11.2478L282.547 11.8179C280.881 16.0065 278.283 20.2446 275.533 23.0205C275.356 22.5744 274.776 21.583 274.423 21.1369C276.946 18.7328 279.292 15.0151 280.73 11.2478ZM278.03 17.6422L279.898 15.7834L279.948 15.8082V33.9256H278.03V17.6422Z" fill="#333333"/>
<path d="M309.845 24.5571H311.839V32.2651H309.845V24.5571ZM300.157 14.1724H321.628V19.1789H319.685V15.9073H302.049V19.7737H300.157V14.1724ZM302.832 23.4666H319.054V25.1519H302.832V23.4666ZM300.208 31.4224H321.628V33.1325H300.208V31.4224ZM312.495 18.6832L313.655 17.444C316.178 18.6584 319.635 20.5172 321.426 21.6821L320.19 23.1444C318.474 21.9547 315.043 19.972 312.495 18.6832ZM307.928 17.3696L309.265 18.4849C307.247 20.2446 304.446 22.1282 301.52 23.3675L300.409 21.7565C303.387 20.6907 305.985 19.0054 307.928 17.3696ZM308.937 11.5453L310.93 11C311.536 12.1153 312.293 13.6272 312.646 14.569L310.577 15.2381C310.249 14.2963 309.568 12.7101 308.937 11.5453Z" fill="#333333"/>
<path d="M325.286 16.75H327.204V33.9752H325.286V16.75ZM325.639 12.3631L327.103 11.4957C328.289 12.5119 329.651 13.9989 330.282 15.0151L328.692 16.0312C328.137 15.0151 326.8 13.4784 325.639 12.3631ZM331.846 12.5614H345.142V14.2963H331.846V12.5614ZM344.057 12.5614H346V31.695C346 32.736 345.798 33.2317 345.142 33.5291C344.461 33.8265 343.376 33.8513 341.812 33.8513C341.736 33.3804 341.484 32.6121 341.232 32.1164C342.291 32.1659 343.326 32.1412 343.628 32.1412C343.982 32.1412 344.057 32.0172 344.057 31.695V12.5614ZM332.527 24.6562V28.0022H338.608V24.6562H332.527ZM332.527 19.7985V23.1196H338.608V19.7985H332.527ZM330.812 18.2619H340.399V29.5636H330.812V18.2619Z" fill="#333333"/>
</g>
<defs>
<clipPath id="clip0_22322_6346">
<rect width="386" height="44" fill="white" transform="translate(0 0.5)"/>
</clipPath>
</defs>
</svg>
