<svg width="56" height="56" viewBox="0 0 56 56" fill="none" xmlns="http://www.w3.org/2000/svg">
<path fill-rule="evenodd" clip-rule="evenodd" d="M24.822 51.4118L3.37051 41.5298C1.54316 40.6671 1.54316 39.3338 3.37051 38.5495L10.8388 35.0986L24.7426 41.5298C26.5699 42.3925 29.5096 42.3925 31.2574 41.5298L45.1612 35.0986L52.6295 38.5495C54.4568 39.4122 54.4568 40.7455 52.6295 41.5298L31.178 51.4118C29.5096 52.1961 26.5699 52.1961 24.822 51.4118Z" fill="#FF6F3D"/>
<path fill-rule="evenodd" clip-rule="evenodd" d="M24.7525 39.1833L3.36634 29.2898C1.54455 28.4261 1.54455 27.0912 3.36634 26.306L10.6535 22.9297L24.7525 29.4468C26.5743 30.3106 29.505 30.3106 31.2475 29.4468L45.3465 22.9297L52.6337 26.306C54.4554 27.1698 54.4554 28.5046 52.6337 29.2898L31.2475 39.1833C29.4257 40.047 26.4951 40.047 24.7525 39.1833Z" fill="#95C038"/>
<path fill-rule="evenodd" clip-rule="evenodd" d="M24.7525 27.0815L3.36634 17.3304C1.54455 16.4791 1.54455 15.1635 3.36634 14.3896L24.7525 4.63847C26.5743 3.78718 29.505 3.78718 31.2475 4.63847L52.6337 14.3896C54.4554 15.2409 54.4554 16.5565 52.6337 17.3304L31.2475 27.0815C29.4257 27.8554 26.4951 27.8554 24.7525 27.0815Z" fill="#5DC0E8"/>
</svg>
