<svg width="422" height="48" viewBox="0 0 422 48" fill="none" xmlns="http://www.w3.org/2000/svg">
<path fill-rule="evenodd" clip-rule="evenodd" d="M22.4211 47.4113L1.34644 37.5293C-0.448812 36.6666 -0.448812 35.3333 1.34644 34.549L8.68353 31.0981L22.343 37.5293C24.1383 38.392 27.0263 38.392 28.7435 37.5293L42.403 31.0981L49.74 34.549C51.5353 35.4117 51.5353 36.745 49.74 37.5293L28.6654 47.4113C27.0263 48.1956 24.1383 48.1956 22.4211 47.4113Z" fill="#FF6F3D"/>
<path fill-rule="evenodd" clip-rule="evenodd" d="M22.3528 35.1833L1.34233 25.2898C-0.447444 24.4261 -0.447444 23.0912 1.34233 22.306L8.50144 18.9297L22.3528 25.4468C24.1425 26.3105 27.0218 26.3105 28.7337 25.4468L42.585 18.9297L49.7441 22.306C51.5339 23.1698 51.5339 24.5046 49.7441 25.2898L28.7337 35.1833C26.9439 36.047 24.0647 36.047 22.3528 35.1833Z" fill="#95C038"/>
<path fill-rule="evenodd" clip-rule="evenodd" d="M22.3528 23.0815L1.34233 13.3304C-0.447444 12.4791 -0.447444 11.1635 1.34233 10.3896L22.3528 0.638466C24.1425 -0.212822 27.0218 -0.212822 28.7337 0.638466L49.7441 10.3896C51.5339 11.2409 51.5339 12.5565 49.7441 13.3304L28.7337 23.0815C26.9439 23.8554 24.0647 23.8554 22.3528 23.0815Z" fill="#5DC0E8"/>
<path d="M75.9146 11.7329C69.8342 11.7329 63.8594 15.2964 63.8594 23.9996C63.8594 32.7027 69.8342 36.2662 75.9146 36.2662C81.9949 36.2662 87.9697 32.7027 87.9697 23.9996C87.9697 15.2964 81.9949 11.7329 75.9146 11.7329ZM75.9146 15.1593C77.7773 15.1593 82.6978 15.8789 82.6978 23.9996C82.6978 32.1202 77.7773 32.8398 75.9146 32.8398C74.0518 32.8398 69.1313 32.1202 69.1313 23.9996C69.1313 15.8789 74.0518 15.1593 75.9146 15.1593Z" fill="white"/>
<path d="M92.0245 12.007V35.9921H97.0152V21.8752L96.9098 17.6264H97.0152L98.2453 20.299L106.821 35.9921H113.288V12.007H108.297V26.124L108.403 30.3727H108.297L106.997 27.1176L98.4914 12.007H92.0245Z" fill="white"/>
<path d="M118.213 12.007V35.9921H132.974V31.9489H123.203V12.007H118.213Z" fill="white"/>
<path d="M128.756 12.007L137.824 26.1925V35.9921H142.815V26.261L151.672 12.007H146.4L141.304 20.4361L140.46 22.0808H140.355L139.581 20.4361L134.52 12.007H128.756Z" fill="white"/>
<path d="M163.3 11.7329C157.219 11.7329 151.245 15.2964 151.245 23.9996C151.245 32.7027 157.219 36.2662 163.3 36.2662C169.38 36.2662 175.355 32.7027 175.355 23.9996C175.355 15.2964 169.38 11.7329 163.3 11.7329ZM163.3 15.1593C165.162 15.1593 170.083 15.8789 170.083 23.9996C170.083 32.1202 165.162 32.8398 163.3 32.8398C161.437 32.8398 156.517 32.1202 156.517 23.9996C156.517 15.8789 161.437 15.1593 163.3 15.1593Z" fill="white"/>
<path d="M179.41 12.007V35.9921H184.4V25.8156H192.765V21.8752H184.4V16.0502H193.187V12.007H179.41Z" fill="white"/>
<path d="M196.708 12.007V35.9921H201.699V25.8156H210.064V21.8752H201.699V16.0502H210.486V12.007H196.708Z" fill="white"/>
<path d="M214.007 35.9921H218.998V12.007H214.007V35.9921Z" fill="white"/>
<path d="M241.886 31.1608C240.656 31.709 238.933 32.223 236.754 32.223C232.326 32.223 228.319 29.8588 228.319 24.0681C228.319 19.1683 231.588 15.7761 237.106 15.7761C238.969 15.7761 240.55 16.1188 241.991 16.667L242.202 12.5553C240.339 11.9728 238.687 11.7329 236.754 11.7329C229.022 11.7329 223.047 15.8789 223.047 24.1366C223.047 32.874 229.725 36.2662 235.841 36.2662C237.809 36.2662 240.023 35.9578 242.202 35.2383L241.886 31.1608Z" fill="white"/>
<path d="M246.064 12.007V35.9921H260.755V31.7433H251.055V25.61H259.876V21.6696H251.055V16.2558H260.755V12.007H246.064Z" fill="white"/>
<path d="M272.727 17.9707H280.791V19.8633H272.727V17.9707ZM275.837 11.6168H277.818V36.4644H275.837V11.6168ZM281.617 16.754H293.122V18.7277H281.617V16.754ZM292.323 16.754H294.305C294.305 16.754 294.305 17.511 294.305 17.7814C294.002 29.8672 293.755 33.8958 292.791 35.1125C292.241 35.8696 291.663 36.0859 290.782 36.194C289.929 36.2751 288.443 36.2481 286.984 36.167C286.929 35.5992 286.709 34.761 286.351 34.2203C287.92 34.3284 289.378 34.3555 289.956 34.3555C290.452 34.3555 290.727 34.2743 291.002 33.9228C291.773 33.0576 292.048 28.8668 292.323 17.2406V16.754ZM282.057 21.5126L283.901 21.8911C283.323 24.7301 282.25 27.569 280.984 29.4616C280.653 29.1642 279.883 28.6505 279.415 28.3801C280.653 26.6497 281.534 24.1082 282.057 21.5126ZM294.498 21.9452L296.232 21.5937C297.03 24.0812 297.883 27.3257 298.158 29.2183L296.259 29.6779C296.039 27.7583 295.268 24.4597 294.498 21.9452ZM286.543 11.8872H288.498V16.7269C288.498 22.7293 287.92 30.6243 280.708 36.5455C280.378 36.0859 279.635 35.464 279.14 35.1666C286.048 29.5968 286.543 22.2696 286.543 16.7269V11.8872Z" fill="white"/>
<path d="M311.81 16.1591H324.856V18.1058H310.847L311.81 16.1591ZM315.251 22.0263H324.223V23.8919H315.251V22.0263ZM315.223 27.9746H324.609V29.8942H315.223V27.9746ZM314.205 16.781H316.324V36.4914H314.205V16.781ZM312.856 11.9413L314.865 12.455C313.296 16.754 310.902 20.9989 308.37 23.7837C308.067 23.4323 307.241 22.7022 306.773 22.3778C309.278 19.8633 311.507 15.9158 312.856 11.9413ZM306.25 11.725L308.232 12.3468C306.415 16.9162 303.581 21.5396 300.58 24.5678C300.388 24.0812 299.755 22.9997 299.369 22.513C302.122 19.8903 304.681 15.8347 306.25 11.725ZM303.305 18.7007L305.342 16.6728L305.397 16.6999V36.4644H303.305V18.7007Z" fill="white"/>
<path d="M338.013 26.2442H340.187V34.6529H338.013V26.2442ZM327.443 14.9154H350.866V20.377H348.747V16.808H329.508V21.0259H327.443V14.9154ZM330.361 25.0545H348.059V26.8931H330.361V25.0545ZM327.499 33.7336H350.866V35.5992H327.499V33.7336ZM340.903 19.8363L342.169 18.4844C344.921 19.8092 348.692 21.837 350.646 23.1078L349.297 24.703C347.426 23.4052 343.682 21.2422 340.903 19.8363ZM335.921 18.4033L337.379 19.6199C335.178 21.5396 332.122 23.5945 328.93 24.9464L327.719 23.1889C330.966 22.0263 333.801 20.1877 335.921 18.4033ZM337.022 12.0494L339.196 11.4546C339.857 12.6713 340.682 14.3206 341.068 15.348L338.811 16.078C338.453 15.0506 337.71 13.3202 337.022 12.0494Z" fill="white"/>
<path d="M354.857 17.7273H356.949V36.5185H354.857V17.7273ZM355.242 12.9417L356.839 11.9953C358.132 13.1039 359.619 14.7261 360.307 15.8347L358.573 16.9432C357.967 15.8347 356.508 14.1584 355.242 12.9417ZM362.013 13.158H376.518V15.0506H362.013V13.158ZM375.335 13.158H377.454V34.031C377.454 35.1666 377.234 35.7073 376.518 36.0318C375.775 36.3562 374.591 36.3833 372.885 36.3833C372.802 35.8696 372.527 35.0314 372.252 34.4906C373.408 34.5447 374.536 34.5177 374.867 34.5177C375.252 34.5177 375.335 34.3825 375.335 34.031V13.158ZM362.756 26.3523V30.0024H369.389V26.3523H362.756ZM362.756 21.0529V24.676H369.389V21.0529H362.756ZM360.885 19.3766H371.344V31.7058H360.885V19.3766Z" fill="white"/>
</svg>
