<svg width="172" height="40" viewBox="0 0 172 40" fill="none" xmlns="http://www.w3.org/2000/svg">
<g clip-path="url(#clip0_4906_26286)">
<path fill-rule="evenodd" clip-rule="evenodd" d="M20.6983 32.6693L9.70251 27.1157C8.76583 26.6309 8.76583 25.8816 9.70251 25.4408L13.5307 23.5015L20.6576 27.1157C21.5942 27.6006 23.1011 27.6006 23.997 27.1157L31.1239 23.5015L34.9521 25.4408C35.8887 25.9257 35.8887 26.675 34.9521 27.1157L23.9563 32.6693C23.1011 33.1101 21.5942 33.1101 20.6983 32.6693Z" fill="#333333" fill-opacity="0.5"/>
<path fill-rule="evenodd" clip-rule="evenodd" d="M20.6983 25.8372L9.70251 20.2836C8.76583 19.7987 8.76583 19.0494 9.70251 18.6087L13.4492 16.7134L20.6983 20.3717C21.635 20.8565 23.1418 20.8565 24.0377 20.3717L31.2868 16.7134L35.0335 18.6087C35.9702 19.0935 35.9702 19.8428 35.0335 20.2836L24.0377 25.8372C23.1011 26.322 21.5942 26.322 20.6983 25.8372Z" fill="#333333" fill-opacity="0.75"/>
<path fill-rule="evenodd" clip-rule="evenodd" d="M20.6983 19.1457L9.70251 13.5921C8.76583 13.1073 8.76583 12.358 9.70251 11.9172L20.6983 6.36363C21.635 5.87879 23.1418 5.87879 24.0377 6.36363L35.0335 11.9172C35.9702 12.4021 35.9702 13.1514 35.0335 13.5921L24.0377 19.1457C23.1011 19.5865 21.5942 19.5865 20.6983 19.1457Z" fill="#333333"/>
</g>
<g clip-path="url(#clip1_4906_26286)">
<path d="M44.8789 19.4761C44.8789 16.964 45.5872 15.0681 47.051 13.8358C48.4676 12.5561 50.1675 11.9399 52.1035 11.9399C54.0395 11.9399 55.6922 12.5561 57.1088 13.8358C58.5254 15.1155 59.2337 16.964 59.2337 19.5235C59.2337 22.0355 58.5254 23.9314 57.1088 25.1637C55.6922 26.4434 53.9923 27.0596 52.1035 27.0596C50.1675 27.0596 48.5148 26.4434 47.051 25.1637C45.5872 23.884 44.8789 21.9881 44.8789 19.4761ZM47.9954 19.4761C47.9954 21.2298 48.3259 22.4621 48.9398 23.2678C49.6009 24.0736 50.3092 24.595 51.0647 24.7846C51.2536 24.8319 51.3952 24.8793 51.5841 24.8793C51.7258 24.8793 51.9146 24.9267 52.0563 24.9267C52.2452 24.9267 52.3868 24.9267 52.5757 24.8793C52.7646 24.8793 52.9063 24.8319 53.0951 24.7846C53.8507 24.595 54.559 24.0736 55.1728 23.2678C55.7867 22.4621 56.1172 21.1824 56.1172 19.5235C56.1172 17.8172 55.7867 16.5849 55.1728 15.7791C54.559 14.9734 53.8507 14.452 53.0951 14.2624C52.9063 14.215 52.7174 14.1676 52.5757 14.1676C52.3868 14.1676 52.2452 14.1202 52.0563 14.1202C51.8674 14.1202 51.7258 14.1202 51.5841 14.1676C51.4425 14.1676 51.2536 14.215 51.0647 14.2624C50.3092 14.452 49.6009 14.9734 48.9398 15.7791C48.3259 16.4901 47.9954 17.7698 47.9954 19.4761Z" fill="#333333"/>
<path d="M61.3984 11.9399H65.3087L70.4589 21.4382L71.2219 23.522H71.2696L71.2219 20.8082V11.9399H74.2261V27.0596H70.3158L65.1657 17.1737L64.4027 15.4776H64.355L64.4027 18.1429V27.0596H61.3984V11.9399Z" fill="#333333"/>
<path d="M77.0078 11.9399H79.9918V24.4912H85.865V27.0596H77.0078V11.9399Z" fill="#333333"/>
<path d="M84.5859 11.9399H88.0337L91.0565 17.1121L91.5288 18.156H91.6232L92.0955 17.1121L95.1655 11.9399H98.3299L92.9929 20.7184V26.7446H90.0174V20.6709L84.5859 11.9399Z" fill="#333333"/>
<path d="M98.0215 19.4761C98.0215 16.964 98.7298 15.0681 100.194 13.8358C101.61 12.5561 103.31 11.9399 105.246 11.9399C107.182 11.9399 108.835 12.5561 110.251 13.8358C111.668 15.1155 112.376 16.964 112.376 19.5235C112.376 22.0355 111.668 23.9314 110.251 25.1637C108.835 26.4434 107.135 27.0596 105.246 27.0596C103.31 27.0596 101.657 26.4434 100.194 25.1637C98.777 23.884 98.0215 21.9881 98.0215 19.4761ZM101.138 19.4761C101.138 21.2298 101.469 22.4621 102.082 23.2678C102.743 24.0736 103.405 24.595 104.207 24.7846C104.396 24.8319 104.538 24.8793 104.727 24.8793C104.868 24.8793 105.057 24.9267 105.199 24.9267C105.388 24.9267 105.529 24.9267 105.718 24.8793C105.907 24.8793 106.049 24.8319 106.238 24.7846C106.993 24.595 107.702 24.0736 108.315 23.2678C108.929 22.4621 109.26 21.1824 109.26 19.5235C109.26 17.8172 108.929 16.5849 108.315 15.7791C107.702 14.9734 106.993 14.452 106.238 14.2624C106.049 14.215 105.86 14.1676 105.718 14.1676C105.529 14.1676 105.388 14.1202 105.199 14.1202C105.01 14.1202 104.868 14.1202 104.727 14.1676C104.585 14.1676 104.396 14.215 104.207 14.2624C103.452 14.452 102.743 14.9734 102.082 15.7791C101.469 16.4901 101.138 17.7698 101.138 19.4761Z" fill="#333333"/>
<path d="M114.539 11.9399H122.785V14.4074H117.525V18.0137H122.548V20.5286H117.525V26.7446H114.539V11.9399Z" fill="#333333"/>
<path d="M124.895 11.9399H133.141V14.4074H127.88V18.0137H132.904V20.5286H127.88V26.7446H124.895V11.9399Z" fill="#333333"/>
<path d="M135.32 26.7446V11.9399H138.375V26.7446H135.32Z" fill="#333333"/>
<path d="M152.11 12.3215V14.8971C151.585 14.7063 151.059 14.5632 150.486 14.4678C149.913 14.3724 149.244 14.3247 148.576 14.3247C146.999 14.3247 145.805 14.8017 144.946 15.8033C144.086 16.7572 143.656 17.9973 143.656 19.4759C143.656 20.9068 144.038 22.0992 144.85 23.0531C145.662 24.0071 146.808 24.5317 148.289 24.5317C148.814 24.5317 149.34 24.484 149.961 24.4363C150.582 24.3409 151.202 24.1978 151.871 23.9117L152.062 26.4396C151.967 26.4873 151.823 26.535 151.68 26.5826C151.489 26.6303 151.298 26.678 151.059 26.7257C150.677 26.8211 150.199 26.8688 149.626 26.9642C149.053 27.0119 148.48 27.0596 147.859 27.0596C147.764 27.0596 147.668 27.0596 147.62 27.0596C147.525 27.0596 147.429 27.0596 147.382 27.0596C145.662 26.9642 144.086 26.2965 142.653 25.1518C141.22 23.9594 140.504 22.0992 140.504 19.619C140.504 17.1865 141.22 15.2787 142.605 13.9432C143.99 12.6077 145.901 11.9399 148.241 11.9399C148.862 11.9399 149.435 11.9399 149.913 11.9876C150.438 12.0353 150.916 12.1307 151.441 12.2261C151.537 12.2738 151.68 12.2738 151.776 12.3215C151.871 12.2738 151.967 12.3215 152.11 12.3215Z" fill="#333333"/>
<path d="M154.234 11.9399H162.786V14.265H157.161V17.9662H162.237V20.2438H157.161V24.4195H162.786V26.7446H154.234V11.9399Z" fill="#333333"/>
</g>
<defs>
<clipPath id="clip0_4906_26286">
<rect width="26.7367" height="26.9996" fill="white" transform="translate(9 6)"/>
</clipPath>
<clipPath id="clip1_4906_26286">
<rect width="117.906" height="15.1197" fill="white" transform="translate(44.8789 11.9399)"/>
</clipPath>
</defs>
</svg>
