<svg width="211" height="24" viewBox="0 0 211 24" fill="none" xmlns="http://www.w3.org/2000/svg">
<path fill-rule="evenodd" clip-rule="evenodd" d="M11.1327 23.7059L0.668542 18.7649C-0.222847 18.3335 -0.222847 17.6669 0.668542 17.2747L4.31161 15.5493L11.0939 18.7649C11.9853 19.1963 13.4193 19.1963 14.2719 18.7649L21.0542 15.5493L24.6973 17.2747C25.5887 17.7061 25.5887 18.3727 24.6973 18.7649L14.2332 23.7059C13.4193 24.098 11.9853 24.098 11.1327 23.7059Z" fill="#FF6F3D"/>
<path fill-rule="evenodd" clip-rule="evenodd" d="M11.0988 17.5916L0.666506 12.6449C-0.222169 12.213 -0.222169 11.5456 0.666506 11.153L4.2212 9.46484L11.0988 12.7234C11.9874 13.1553 13.4171 13.1553 14.2671 12.7234L21.1447 9.46484L24.6993 11.153C25.588 11.5849 25.588 12.2523 24.6993 12.6449L14.2671 17.5916C13.3784 18.0235 11.9488 18.0235 11.0988 17.5916Z" fill="#95C038"/>
<path fill-rule="evenodd" clip-rule="evenodd" d="M11.0988 11.5408L0.666506 6.6652C-0.222169 6.23956 -0.222169 5.58174 0.666506 5.19479L11.0988 0.319233C11.9874 -0.106411 13.4171 -0.106411 14.2671 0.319233L24.6993 5.19479C25.588 5.62044 25.588 6.27825 24.6993 6.6652L14.2671 11.5408C13.3784 11.9277 11.9488 11.9277 11.0988 11.5408Z" fill="#5DC0E8"/>
<path d="M37.6928 5.8667C34.6737 5.8667 31.707 7.64845 31.707 12C31.707 16.3516 34.6737 18.1334 37.6928 18.1334C40.7118 18.1334 43.6785 16.3516 43.6785 12C43.6785 7.64845 40.7118 5.8667 37.6928 5.8667ZM37.6928 7.57992C38.6177 7.57992 41.0608 7.9397 41.0608 12C41.0608 16.0604 38.6177 16.4201 37.6928 16.4201C36.7679 16.4201 34.3247 16.0604 34.3247 12C34.3247 7.9397 36.7679 7.57992 37.6928 7.57992Z" fill="#333333"/>
<path d="M45.6918 6.00376V17.9963H48.1698V10.9378L48.1175 8.81344H48.1698L48.7806 10.1497L53.0387 17.9963H56.2497V6.00376H53.7716V13.0622L53.824 15.1866H53.7716L53.1259 13.5591L48.9028 6.00376H45.6918Z" fill="#333333"/>
<path d="M58.6949 6.00376V17.9963H66.0244V15.9747H61.1729V6.00376H58.6949Z" fill="#333333"/>
<path d="M63.9302 6.00376L68.4326 13.0965V17.9963H70.9107V13.1308L75.3083 6.00376H72.6907L70.1603 10.2183L69.7414 11.0406H69.6891L69.3052 10.2183L66.7922 6.00376H63.9302Z" fill="#333333"/>
<path d="M81.0819 5.8667C78.0629 5.8667 75.0962 7.64845 75.0962 12C75.0962 16.3516 78.0629 18.1334 81.0819 18.1334C84.101 18.1334 87.0677 16.3516 87.0677 12C87.0677 7.64845 84.101 5.8667 81.0819 5.8667ZM81.0819 7.57992C82.0068 7.57992 84.45 7.9397 84.45 12C84.45 16.0604 82.0068 16.4201 81.0819 16.4201C80.157 16.4201 77.7139 16.0604 77.7139 12C77.7139 7.9397 80.157 7.57992 81.0819 7.57992Z" fill="#333333"/>
<path d="M89.0809 6.00376V17.9963H91.559V12.908H95.7124V10.9378H91.559V8.02536H95.9218V6.00376H89.0809Z" fill="#333333"/>
<path d="M97.6702 6.00376V17.9963H100.148V12.908H104.302V10.9378H100.148V8.02536H104.511V6.00376H97.6702Z" fill="#333333"/>
<path d="M106.259 17.9963H108.737V6.00376H106.259V17.9963Z" fill="#333333"/>
<path d="M120.102 15.5807C119.491 15.8548 118.636 16.1118 117.554 16.1118C115.355 16.1118 113.366 14.9296 113.366 12.0343C113.366 9.58439 114.989 7.8883 117.729 7.8883C118.654 7.8883 119.439 8.05962 120.154 8.33374L120.259 6.27787C119.334 5.98662 118.514 5.8667 117.554 5.8667C113.715 5.8667 110.748 7.9397 110.748 12.0686C110.748 16.4373 114.064 18.1334 117.1 18.1334C118.078 18.1334 119.177 17.9792 120.259 17.6194L120.102 15.5807Z" fill="#333333"/>
<path d="M122.177 6.00376V17.9963H129.471V15.8719H124.655V12.8052H129.035V10.835H124.655V8.12815H129.471V6.00376H122.177Z" fill="#333333"/>
<path d="M137 9.11638H140.789V10.0216H137V9.11638ZM138.461 6.07759H139.392V17.9612H138.461V6.07759ZM141.177 8.53448H146.582V9.47845H141.177V8.53448ZM146.207 8.53448H147.138C147.138 8.53448 147.138 8.89655 147.138 9.02586C146.996 14.806 146.879 16.7328 146.427 17.3147C146.168 17.6767 145.897 17.7802 145.483 17.8319C145.082 17.8707 144.384 17.8578 143.698 17.819C143.672 17.5474 143.569 17.1466 143.401 16.8879C144.138 16.9397 144.823 16.9526 145.095 16.9526C145.328 16.9526 145.457 16.9138 145.586 16.7457C145.948 16.3319 146.078 14.3276 146.207 8.76724V8.53448ZM141.384 10.8103L142.25 10.9914C141.978 12.3491 141.474 13.7069 140.879 14.6121C140.724 14.4698 140.362 14.2241 140.142 14.0948C140.724 13.2672 141.138 12.0517 141.384 10.8103ZM147.228 11.0172L148.043 10.8491C148.418 12.0388 148.819 13.5905 148.948 14.4957L148.056 14.7155C147.953 13.7974 147.591 12.2198 147.228 11.0172ZM143.491 6.2069H144.409V8.52155C144.409 11.3922 144.138 15.1681 140.75 18C140.595 17.7802 140.246 17.4828 140.013 17.3405C143.259 14.6767 143.491 11.1724 143.491 8.52155V6.2069Z" fill="#333333"/>
<path d="M155.491 8.25H161.621V9.18103H155.039L155.491 8.25ZM157.108 11.056H161.323V11.9483H157.108V11.056ZM157.095 13.9009H161.504V14.819H157.095V13.9009ZM156.616 8.54741H157.612V17.9741H156.616V8.54741ZM155.983 6.23276L156.927 6.47845C156.19 8.53448 155.065 10.5647 153.875 11.8966C153.733 11.7284 153.345 11.3793 153.125 11.2241C154.302 10.0216 155.349 8.13362 155.983 6.23276ZM152.879 6.12931L153.81 6.42672C152.957 8.61207 151.625 10.8233 150.216 12.2716C150.125 12.0388 149.828 11.5216 149.647 11.2888C150.94 10.0345 152.142 8.09483 152.879 6.12931ZM151.496 9.46552L152.453 8.49569L152.478 8.50862V17.9612H151.496V9.46552Z" fill="#333333"/>
<path d="M167.931 13.0733H168.953V17.0948H167.931V13.0733ZM162.966 7.65517H173.97V10.2672H172.974V8.56034H163.935V10.5776H162.966V7.65517ZM164.336 12.5043H172.651V13.3836H164.336V12.5043ZM162.991 16.6552H173.97V17.5474H162.991V16.6552ZM169.289 10.0086L169.884 9.36207C171.177 9.99569 172.948 10.9655 173.866 11.5733L173.233 12.3362C172.353 11.7155 170.595 10.681 169.289 10.0086ZM166.948 9.32328L167.634 9.90517C166.599 10.8233 165.164 11.806 163.664 12.4526L163.095 11.6121C164.621 11.056 165.953 10.1767 166.948 9.32328ZM167.466 6.28448L168.487 6C168.797 6.5819 169.185 7.37069 169.366 7.86207L168.306 8.21121C168.138 7.71983 167.789 6.89224 167.466 6.28448Z" fill="#333333"/>
<path d="M175.974 9H176.957V17.9871H175.974V9ZM176.155 6.71121L176.905 6.25862C177.513 6.78879 178.211 7.56466 178.534 8.09483L177.72 8.625C177.435 8.09483 176.75 7.2931 176.155 6.71121ZM179.336 6.81465H186.151V7.71983H179.336V6.81465ZM185.595 6.81465H186.591V16.7974C186.591 17.3405 186.487 17.5991 186.151 17.7543C185.802 17.9095 185.246 17.9224 184.444 17.9224C184.405 17.6767 184.276 17.2759 184.147 17.0172C184.69 17.0431 185.22 17.0302 185.375 17.0302C185.556 17.0302 185.595 16.9655 185.595 16.7974V6.81465ZM179.685 13.125V14.8707H182.802V13.125H179.685ZM179.685 10.5905V12.3233H182.802V10.5905H179.685ZM178.806 9.78879H183.72V15.6853H178.806V9.78879Z" fill="#333333"/>
</svg>
