<svg width="772" height="88" viewBox="0 0 772 88" fill="none" xmlns="http://www.w3.org/2000/svg">
<path fill-rule="evenodd" clip-rule="evenodd" d="M41.1053 86.9212L2.46846 68.8041C-0.822821 67.2225 -0.822821 64.7781 2.46846 63.3403L15.9198 57.0137L40.9622 68.8041C44.2535 70.3858 49.5482 70.3858 52.6963 68.8041L77.7387 57.0137L91.1901 63.3403C94.4814 64.9219 94.4814 67.3663 91.1901 68.8041L52.5533 86.9212C49.5482 88.359 44.2535 88.359 41.1053 86.9212Z" fill="#FF6F3D"/>
<path fill-rule="evenodd" clip-rule="evenodd" d="M40.9801 64.5023L2.46094 46.3643C-0.820315 44.7808 -0.820315 42.3336 2.46094 40.8941L15.586 34.7041L40.9801 46.6522C44.2613 48.2357 49.5399 48.2357 52.6785 46.6522L78.0726 34.7041L91.1976 40.8941C94.4789 42.4776 94.4789 44.9248 91.1976 46.3643L52.6785 64.5023C49.3972 66.0858 44.1187 66.0858 40.9801 64.5023Z" fill="#95C038"/>
<path fill-rule="evenodd" clip-rule="evenodd" d="M40.9801 42.3161L2.46094 24.4391C-0.820315 22.8784 -0.820315 20.4664 2.46094 19.0476L40.9801 1.17052C44.2613 -0.390174 49.5399 -0.390174 52.6785 1.17052L91.1976 19.0476C94.4789 20.6083 94.4789 23.0203 91.1976 24.4391L52.6785 42.3161C49.3972 43.7349 44.1187 43.7349 40.9801 42.3161Z" fill="#5DC0E8"/>
<path d="M139.175 21.5107C128.028 21.5107 117.074 28.0438 117.074 43.9996C117.074 59.9554 128.028 66.4885 139.175 66.4885C150.323 66.4885 161.277 59.9554 161.277 43.9996C161.277 28.0438 150.323 21.5107 139.175 21.5107ZM139.175 27.7925C142.59 27.7925 151.611 29.1117 151.611 43.9996C151.611 58.8875 142.59 60.2067 139.175 60.2067C135.76 60.2067 126.739 58.8875 126.739 43.9996C126.739 29.1117 135.76 27.7925 139.175 27.7925Z" fill="#333333"/>
<path d="M168.71 22.0133V65.9859H177.86V40.1049L177.667 32.3154H177.86L180.115 37.2152L195.837 65.9859H207.693V22.0133H198.544V47.8943L198.737 55.6838H198.544L196.159 49.716L180.566 22.0133H168.71Z" fill="#333333"/>
<path d="M216.722 22.0133V65.9859H243.784V58.5734H225.871V22.0133H216.722Z" fill="#333333"/>
<path d="M236.052 22.0133L252.676 48.02V65.9859H261.826V48.1456L278.064 22.0133H268.398L259.055 37.4665L257.509 40.4818H257.316L255.898 37.4665L246.619 22.0133H236.052Z" fill="#333333"/>
<path d="M299.382 21.5107C288.234 21.5107 277.28 28.0438 277.28 43.9996C277.28 59.9554 288.234 66.4885 299.382 66.4885C310.529 66.4885 321.483 59.9554 321.483 43.9996C321.483 28.0438 310.529 21.5107 299.382 21.5107ZM299.382 27.7925C302.797 27.7925 311.817 29.1117 311.817 43.9996C311.817 58.8875 302.797 60.2067 299.382 60.2067C295.967 60.2067 286.946 58.8875 286.946 43.9996C286.946 29.1117 295.967 27.7925 299.382 27.7925Z" fill="#333333"/>
<path d="M328.916 22.0133V65.9859H338.066V47.329H353.402V40.1049H338.066V29.4258H354.175V22.0133H328.916Z" fill="#333333"/>
<path d="M360.63 22.0133V65.9859H369.78V47.329H385.116V40.1049H369.78V29.4258H385.889V22.0133H360.63Z" fill="#333333"/>
<path d="M392.344 65.9859H401.494V22.0133H392.344V65.9859Z" fill="#333333"/>
<path d="M443.456 57.1286C441.201 58.1337 438.043 59.0759 434.048 59.0759C425.93 59.0759 418.584 54.7415 418.584 44.1252C418.584 35.1423 424.576 28.9233 434.693 28.9233C438.108 28.9233 441.007 29.5514 443.649 30.5565L444.036 23.0184C440.621 21.9505 437.592 21.5107 434.048 21.5107C419.873 21.5107 408.919 29.1117 408.919 44.2509C408.919 60.2695 421.161 66.4885 432.373 66.4885C435.981 66.4885 440.041 65.9231 444.036 64.6039L443.456 57.1286Z" fill="#333333"/>
<path d="M451.116 22.0133V65.9859H478.05V58.1965H460.266V46.952H476.439V39.728H460.266V29.8027H478.05V22.0133H451.116Z" fill="#333333"/>
<path d="M500 32.9461H514.785V36.4159H500V32.9461ZM505.702 21.2974H509.335V66.8513H505.702V21.2974ZM516.299 30.7155H537.391V34.3341H516.299V30.7155ZM535.927 30.7155H539.561C539.561 30.7155 539.561 32.1034 539.561 32.5991C539.006 54.7565 538.551 62.1422 536.785 64.3728C535.776 65.7608 534.716 66.1573 533.102 66.3556C531.537 66.5043 528.813 66.4547 526.138 66.306C526.037 65.2651 525.634 63.7284 524.978 62.7371C527.854 62.9353 530.528 62.9849 531.588 62.9849C532.496 62.9849 533.001 62.8362 533.505 62.1918C534.918 60.6056 535.423 52.9224 535.927 31.6078V30.7155ZM517.106 39.4397L520.487 40.1336C519.427 45.3384 517.459 50.5431 515.138 54.0129C514.532 53.4677 513.12 52.5259 512.262 52.0302C514.532 48.8578 516.147 44.1983 517.106 39.4397ZM539.914 40.2328L543.093 39.5884C544.556 44.1487 546.12 50.097 546.625 53.5668L543.143 54.4095C542.74 50.8901 541.327 44.8427 539.914 40.2328ZM525.331 21.7931H528.914V30.6659C528.914 41.6703 527.854 56.1444 514.633 67C514.028 66.1573 512.665 65.0172 511.757 64.472C524.423 54.2608 525.331 40.8276 525.331 30.6659V21.7931Z" fill="#333333"/>
<path d="M571.653 29.625H595.571V33.194H569.887L571.653 29.625ZM577.961 40.3815H594.411V43.8017H577.961V40.3815ZM577.91 51.2866H595.117V54.806H577.91V51.2866ZM576.043 30.7651H579.929V66.9009H576.043V30.7651ZM573.571 21.8922L577.254 22.8341C574.378 30.7155 569.988 38.4978 565.346 43.6034C564.791 42.9591 563.277 41.6207 562.419 41.0259C567.011 36.4159 571.098 29.1789 573.571 21.8922ZM561.46 21.4957L565.093 22.6358C561.763 31.0129 556.566 39.4892 551.065 45.0409C550.712 44.1487 549.552 42.1659 548.845 41.2737C553.891 36.4655 558.584 29.0302 561.46 21.4957ZM556.061 34.2845L559.795 30.5668L559.896 30.6164V66.8513H556.061V34.2845Z" fill="#333333"/>
<path d="M619.691 48.1142H623.677V63.5302H619.691V48.1142ZM600.314 27.3448H643.256V37.3578H639.37V30.8147H604.099V38.5474H600.314V27.3448ZM605.663 45.9332H638.109V49.3039H605.663V45.9332ZM600.415 61.8448H643.256V65.2651H600.415V61.8448ZM624.989 36.3664L627.31 33.8879C632.356 36.3168 639.269 40.0345 642.852 42.3642L640.379 45.2888C636.948 42.9095 630.086 38.944 624.989 36.3664ZM615.856 33.7392L618.53 35.9698C614.494 39.4892 608.893 43.2565 603.039 45.7349L600.819 42.5129C606.773 40.3815 611.971 37.0108 615.856 33.7392ZM617.874 22.0905L621.861 21C623.072 23.2306 624.586 26.2543 625.292 28.1379L621.154 29.4763C620.498 27.5927 619.136 24.4203 617.874 22.0905Z" fill="#333333"/>
<path d="M650.572 32.5H654.407V66.9504H650.572V32.5ZM651.279 23.7263L654.206 21.9914C656.577 24.0237 659.302 26.9978 660.563 29.0302L657.384 31.0625C656.274 29.0302 653.6 25.9569 651.279 23.7263ZM663.692 24.1228H690.284V27.5927H663.692V24.1228ZM688.115 24.1228H692V62.3901C692 64.472 691.596 65.4634 690.284 66.0582C688.922 66.653 686.752 66.7026 683.624 66.7026C683.472 65.7608 682.968 64.2241 682.463 63.2328C684.582 63.3319 686.651 63.2823 687.257 63.2823C687.963 63.2823 688.115 63.0345 688.115 62.3901V24.1228ZM665.054 48.3125V55.0043H677.215V48.3125H665.054ZM665.054 38.597V45.2392H677.215V38.597H665.054ZM661.623 35.5237H680.798V58.1272H661.623V35.5237Z" fill="#333333"/>
</svg>
