<svg width="150" height="105" viewBox="0 0 150 105" fill="none" xmlns="http://www.w3.org/2000/svg">
<path d="M111.5 84H41.5V35.5C41.5 33.9841 42.5 32 45 32H69.0725C70.372 32 71.444 33.0929 71.574 34.503V36.9787H109.596C110.505 36.9787 111.5 38.2047 111.5 39.1918V84Z" fill="#333333" stroke="#AAAAAA" stroke-width="2"/>
<path d="M111.475 92H40.8296C39.589 92 38.5552 91.0088 38.4862 89.699L36.005 50.5454C35.9017 49.0939 37.4053 47.9646 38.7838 48H78.1124L84.3474 43H114.563C115.976 43 117.127 44.6333 116.989 46.0848L113.784 89.7343C113.715 91.0088 112.681 92 111.475 92Z" fill="#444444" stroke="#AAAAAA" stroke-width="2"/>
<path d="M116.118 65C120.263 67.3813 128.78 72.2232 126.669 77.3033C125.503 80.1104 120.017 80.2289 117.112 79.8529C116.56 79.7816 116.014 80.1304 116.001 80.6865C115.973 81.9573 116.429 83.4722 118.756 82.8596" stroke="#AAAAAA" stroke-width="2" stroke-linecap="round"/>
<path d="M52.207 71L55.0642 75.9487L36.3297 86.765C34.9632 87.554 33.2158 87.0858 32.4268 85.7193C31.6378 84.3527 32.1061 82.6053 33.4726 81.8163L52.207 71Z" fill="#808080" stroke="#AAAAAA" stroke-width="2"/>
<circle cx="82.5" cy="66.5" r="1.5" fill="#AAAAAA"/>
<circle cx="63.5" cy="68.5" r="13.5" fill="#444444" stroke="#AAAAAA" stroke-width="2"/>
<circle cx="63.5" cy="68.5" r="9.5" fill="#666666" stroke="#AAAAAA" stroke-width="2"/>
<circle cx="67.5" cy="67.5" r="2.5" fill="#AAAAAA"/>
<path d="M36.7 65C31.3572 68.0544 26.5 72.0093 26.5 75.5C26.5 79.3532 30.0427 80.4136 33.252 80.5087C33.8921 80.5277 34.3955 81.11 34.4889 81.7435C34.5627 82.2449 34.7459 82.7638 35.1286 83.118C35.8829 83.8161 36.4905 83.6998 36.7 83.5543" stroke="#AAAAAA" stroke-width="2" stroke-linecap="round"/>
<path d="M83.3351 75.9402C80.7646 77.1665 79.5947 78.2633 80.6915 79.4332" stroke="#AAAAAA" stroke-width="2" stroke-linecap="round"/>
</svg>
