<svg width="150" height="105" viewBox="0 0 150 105" fill="none" xmlns="http://www.w3.org/2000/svg">
<g clip-path="url(#clip0_1760_80125)">
<path d="M43.7246 77L48.1555 81.4309L32.6473 96.9392C31.4237 98.1627 29.4399 98.1627 28.2164 96.9392C26.9928 95.7156 26.9928 93.7318 28.2164 92.5082L43.7246 77Z" fill="#E2E2E2" stroke="#AAAAAA" stroke-width="2"/>
<circle cx="55.5" cy="68" r="19" fill="#F5F5F5" stroke="#AAAAAA" stroke-width="2"/>
<circle cx="55.5" cy="68" r="14" fill="#F5F5F5" stroke="#AAAAAA" stroke-width="2"/>
<circle cx="100.5" cy="68" r="18" fill="#E2E2E2" stroke="#AAAAAA" stroke-width="2"/>
<path fill-rule="evenodd" clip-rule="evenodd" d="M100.5 51.0353C99.9642 51.0353 99.4351 51.0626 98.9138 51.1158C98.1878 51.1899 97.5168 50.8304 97.1344 50.2387C96.9957 50.9383 96.5063 51.5388 95.8084 51.7606C94.7879 52.0849 93.8098 52.5126 92.8852 53.0322C92.2421 53.3936 91.4908 53.3323 90.9208 52.9401C91.0492 53.6426 90.8167 54.3948 90.2529 54.8808C89.4349 55.5859 88.684 56.3737 88.0119 57.2319C87.5486 57.8235 86.8316 58.0674 86.162 57.9327C86.5358 58.5306 86.5942 59.3188 86.2498 59.9935C85.7545 60.9636 85.3469 61.9897 85.0377 63.0604C84.8263 63.7925 84.254 64.306 83.587 64.4515C84.1511 64.8527 84.4938 65.5565 84.4231 66.3182C84.3724 66.8652 84.3464 67.4203 84.3464 67.9824C84.3464 69.0967 83.4853 70 82.4232 70C81.361 70 80.5 69.0967 80.5 67.9824C80.5 67.2895 80.5321 66.604 80.5948 65.9273C80.6785 65.0258 81.3154 64.3209 82.1187 64.1466C81.4391 63.6642 81.1061 62.7574 81.3565 61.8903C81.7401 60.5622 82.2456 59.29 82.8591 58.0882C83.2667 57.29 84.1128 56.8962 84.918 57.059C84.4677 56.3403 84.4921 55.3698 85.0399 54.6702C85.8711 53.609 86.7995 52.6349 87.8111 51.7629C88.4779 51.1882 89.403 51.1626 90.0881 51.635C89.9329 50.7902 90.3082 49.9026 91.0691 49.475C92.2146 48.8313 93.4272 48.301 94.6932 47.8986C95.5197 47.6359 96.384 47.9852 96.8438 48.6982C97.01 47.8555 97.6819 47.1872 98.5412 47.0995C99.1862 47.0336 99.8396 47 100.5 47C101.16 47 101.814 47.0336 102.459 47.0995C103.318 47.1872 103.99 47.8555 104.156 48.6982C104.616 47.9852 105.48 47.6359 106.307 47.8986C107.573 48.301 108.785 48.8313 109.931 49.475C110.692 49.9026 111.067 50.7902 110.912 51.635C111.597 51.1626 112.522 51.1882 113.189 51.7629C114.2 52.6349 115.129 53.609 115.96 54.6702C116.508 55.3698 116.532 56.3403 116.082 57.059C116.887 56.8962 117.733 57.29 118.141 58.0882C118.754 59.29 119.26 60.5622 119.643 61.8903C119.894 62.7574 119.561 63.6642 118.881 64.1466C119.685 64.3209 120.322 65.0258 120.405 65.9273C120.468 66.604 120.5 67.2895 120.5 67.9824C120.5 69.0967 119.639 70 118.577 70C117.515 70 116.654 69.0967 116.654 67.9824C116.654 67.4203 116.628 66.8652 116.577 66.3182C116.506 65.5565 116.849 64.8527 117.413 64.4515C116.746 64.306 116.174 63.7925 115.962 63.0603C115.653 61.9897 115.245 60.9636 114.75 59.9935C114.406 59.3188 114.464 58.5306 114.838 57.9327C114.168 58.0674 113.451 57.8235 112.988 57.2319C112.316 56.3737 111.565 55.5859 110.747 54.8808C110.183 54.3948 109.951 53.6426 110.079 52.9401C109.509 53.3323 108.758 53.3936 108.115 53.0322C107.19 52.5126 106.212 52.0849 105.192 51.7606C104.494 51.5388 104.004 50.9383 103.866 50.2387C103.483 50.8304 102.812 51.1899 102.086 51.1158C101.565 51.0626 101.036 51.0353 100.5 51.0353Z" fill="#666666"/>
<path fill-rule="evenodd" clip-rule="evenodd" d="M100.5 51.0249C99.956 51.0249 99.4214 51.0637 98.8983 51.1387C98.1351 51.2481 97.4119 50.9031 96.9955 50.3069C96.9586 51.0367 96.529 51.7203 95.8255 52.0408C94.8455 52.4872 93.9286 53.0714 93.0967 53.7733C92.4975 54.2788 91.6914 54.3669 91.0227 54.0694C91.3697 54.7215 91.3465 55.5437 90.8948 56.189C90.2728 57.0774 89.7538 58.0557 89.358 59.1033C89.0774 59.8461 88.4094 60.3234 87.6764 60.3895C88.2955 60.7937 88.6674 61.532 88.5735 62.3223C88.5088 62.8667 88.4754 63.4225 88.4754 63.9875C88.4754 65.099 87.5855 66 86.4877 66C85.3899 66 84.5 65.099 84.5 63.9875C84.5 63.2615 84.543 62.5452 84.6266 61.8415C84.741 60.8793 85.5082 60.1578 86.4253 60.0768C85.65 59.5726 85.3028 58.5713 85.645 57.6654C86.16 56.3021 86.837 55.0251 87.6515 53.8616C88.2074 53.0674 89.2281 52.8046 90.0747 53.1833C89.6336 52.3579 89.8122 51.3052 90.5517 50.6813C91.6538 49.7514 92.8769 48.9705 94.1943 48.3703C95.0772 47.9681 96.0968 48.2722 96.6342 49.0449C96.6801 48.1003 97.3819 47.291 98.3411 47.1535C99.0481 47.0522 99.7688 47 100.5 47C101.231 47 101.952 47.0522 102.659 47.1535C103.618 47.291 104.32 48.1003 104.366 49.0449C104.903 48.2722 105.923 47.9681 106.806 48.3703C108.123 48.9705 109.346 49.7514 110.448 50.6813C111.188 51.3052 111.366 52.3579 110.925 53.1833C111.772 52.8046 112.793 53.0674 113.349 53.8616C114.163 55.025 114.84 56.3021 115.355 57.6654C115.697 58.5713 115.35 59.5726 114.575 60.0768C115.492 60.1578 116.259 60.8793 116.373 61.8415C116.457 62.5452 116.5 63.2615 116.5 63.9875C116.5 65.099 115.61 66 114.512 66C113.415 66 112.525 65.099 112.525 63.9875C112.525 63.4225 112.491 62.8667 112.426 62.3223C112.333 61.532 112.705 60.7937 113.324 60.3895C112.591 60.3234 111.923 59.8461 111.642 59.1033C111.246 58.0557 110.727 57.0774 110.105 56.189C109.653 55.5437 109.63 54.7215 109.977 54.0694C109.309 54.3669 108.502 54.2788 107.903 53.7733C107.071 53.0714 106.155 52.4872 105.175 52.0408C104.471 51.7203 104.041 51.0367 104.005 50.3069C103.588 50.9031 102.865 51.2481 102.102 51.1387C101.579 51.0637 101.044 51.0249 100.5 51.0249Z" fill="#666666"/>
<path fill-rule="evenodd" clip-rule="evenodd" d="M100.5 50.9485C100.018 50.9485 99.5485 51.0046 99.096 51.1113C98.4219 51.2701 97.7461 51.0711 97.2731 50.6386C97.3365 51.2788 97.0824 51.9371 96.5373 52.3706C95.789 52.9658 95.1347 53.7324 94.626 54.6333C94.2673 55.2684 93.6064 55.6317 92.9199 55.6457C93.4526 56.0786 93.7437 56.7724 93.6233 57.493C93.5407 57.9879 93.4972 58.5001 93.4972 59.0258C93.4972 60.1161 92.6024 61 91.4986 61C90.3948 61 89.5 60.1161 89.5 59.0258C89.5 58.2846 89.5614 57.5574 89.6795 56.8504C89.8389 55.8958 90.6666 55.2148 91.612 55.1975C90.8777 54.6033 90.6565 53.5573 91.1352 52.7097C91.8827 51.386 92.8646 50.2224 94.0306 49.2951C94.8139 48.6722 95.9277 48.7281 96.6431 49.3851C96.545 48.4171 97.184 47.5025 98.1685 47.2705C98.9212 47.0932 99.7016 47 100.5 47C101.298 47 102.079 47.0932 102.831 47.2705C103.816 47.5025 104.455 48.4171 104.357 49.3851C105.072 48.7281 106.186 48.6722 106.969 49.2951C108.135 50.2224 109.117 51.386 109.865 52.7097C110.343 53.5573 110.122 54.6033 109.388 55.1975C110.333 55.2148 111.161 55.8958 111.321 56.8504C111.439 57.5574 111.5 58.2846 111.5 59.0258C111.5 60.1161 110.605 61 109.501 61C108.398 61 107.503 60.1161 107.503 59.0258C107.503 58.5001 107.459 57.9879 107.377 57.493C107.256 56.7724 107.547 56.0786 108.08 55.6457C107.394 55.6317 106.733 55.2684 106.374 54.6333C105.865 53.7324 105.211 52.9658 104.463 52.3706C103.918 51.9371 103.663 51.2788 103.727 50.6386C103.254 51.0711 102.578 51.2701 101.904 51.1113C101.452 51.0046 100.982 50.9485 100.5 50.9485Z" fill="#666666"/>
<path d="M96.1787 73.3206C97.2246 74.9614 98.7726 76 100.5 76C102.227 76 103.775 74.9614 104.821 73.3206C105.203 72.7219 104.723 72 104.013 72H96.9865C96.2765 72 95.7971 72.7219 96.1787 73.3206Z" fill="white" stroke="#AAAAAA" stroke-width="2" stroke-linecap="round" stroke-linejoin="round"/>
<circle cx="95" cy="66.5" r="1.5" fill="#AAAAAA"/>
<circle cx="106" cy="66.5" r="1.5" fill="#AAAAAA"/>
<path d="M53.4284 70.5748V69.7907C53.4284 69.3104 53.4971 68.8865 53.6345 68.5192C53.7719 68.1448 53.9924 67.7916 54.2961 67.4596C54.5998 67.1205 55.0011 66.7744 55.5 66.4212C55.9483 66.1104 56.3062 65.8313 56.5738 65.5841C56.8485 65.3369 57.0474 65.0932 57.1703 64.853C57.3004 64.6057 57.3655 64.3267 57.3655 64.0159C57.3655 63.5567 57.192 63.2071 56.8449 62.9669C56.4978 62.7267 56.0134 62.6066 55.3915 62.6066C54.7697 62.6066 54.1515 62.702 53.5369 62.8927C52.9295 63.0834 52.3113 63.3342 51.6822 63.645L50.5 61.3245C51.2231 60.9289 52.0076 60.611 52.8536 60.3709C53.6996 60.1236 54.6251 60 55.6302 60C57.1775 60 58.3742 60.3638 59.2202 61.0914C60.0734 61.8119 60.5 62.7302 60.5 63.8464C60.5 64.4397 60.4024 64.9554 60.2072 65.3934C60.0192 65.8243 59.7299 66.2269 59.3395 66.6013C58.9563 66.9687 58.4754 67.3572 57.897 67.7669C57.4631 68.0777 57.1305 68.3391 56.8991 68.551C56.6678 68.7629 56.5087 68.9748 56.4219 69.1868C56.3424 69.3916 56.3026 69.6424 56.3026 69.9391V70.5748H53.4284ZM53.0813 74.1987C53.0813 73.5347 53.2657 73.0684 53.6345 72.8C54.0105 72.5316 54.4624 72.3974 54.9902 72.3974C55.5036 72.3974 55.9447 72.5316 56.3134 72.8C56.6894 73.0684 56.8774 73.5347 56.8774 74.1987C56.8774 74.8344 56.6894 75.2936 56.3134 75.5762C55.9447 75.8587 55.5036 76 54.9902 76C54.4624 76 54.0105 75.8587 53.6345 75.5762C53.2657 75.2936 53.0813 74.8344 53.0813 74.1987Z" fill="#FF6F3D"/>
<g filter="url(#filter0_d_1760_80125)">
<circle cx="100.5" cy="24" r="18" fill="white" stroke="#AAAAAA" stroke-width="2"/>
<path d="M117.478 24H83.5218C83.1306 30.6579 87.9835 41 100.5 41C113.017 41 117.869 31.0496 117.478 24Z" fill="#CCCCCC"/>
<circle cx="94" cy="19.5" r="1.5" fill="#AAAAAA"/>
<circle cx="107" cy="19.5" r="1.5" fill="#AAAAAA"/>
<path d="M96.1787 28.3206C97.2246 29.9614 98.7726 31 100.5 31C102.227 31 103.775 29.9614 104.821 28.3206C105.203 27.7219 104.723 27 104.013 27H96.9865C96.2765 27 95.7971 27.7219 96.1787 28.3206Z" fill="white" stroke="#AAAAAA" stroke-width="2" stroke-linecap="round" stroke-linejoin="round"/>
<circle cx="93.5" cy="19" r="5" stroke="#AAAAAA" stroke-width="2"/>
<circle cx="107.5" cy="19" r="5" stroke="#AAAAAA" stroke-width="2"/>
<path d="M98.5 19H102.633" stroke="#AAAAAA" stroke-width="2"/>
</g>
<circle cx="55.5" cy="24" r="18" fill="white" stroke="#AAAAAA" stroke-width="2"/>
<path d="M51 23C51 21.8954 49.8807 21 48.5 21C47.1193 21 46 21.8954 46 23" stroke="#AAAAAA" stroke-width="2" stroke-linecap="round"/>
<path d="M66 23C66 21.8954 64.8807 21 63.5 21C62.1193 21 61 21.8954 61 23" stroke="#AAAAAA" stroke-width="2" stroke-linecap="round"/>
<path d="M51.1787 31.3206C52.2246 32.9614 53.7726 34 55.5 34C57.2274 34 58.7754 32.9614 59.8213 31.3206C60.2029 30.7219 59.7235 30 59.0135 30H51.9865C51.2765 30 50.7971 30.7219 51.1787 31.3206Z" fill="#AAAAAA"/>
<path d="M47 21H36.5C36.5 16 43.5156 5 55.2649 5C67.0142 5 74 15 74.5 21H54L52.1317 13.2245L51.5 21H50L49.7819 13.2245L47 21Z" fill="#666666"/>
</g>
<defs>
<filter id="filter0_d_1760_80125" x="66.5" y="-3" width="68" height="68" filterUnits="userSpaceOnUse" color-interpolation-filters="sRGB">
<feFlood flood-opacity="0" result="BackgroundImageFix"/>
<feColorMatrix in="SourceAlpha" type="matrix" values="0 0 0 0 0 0 0 0 0 0 0 0 0 0 0 0 0 0 127 0" result="hardAlpha"/>
<feOffset dy="7"/>
<feGaussianBlur stdDeviation="7.5"/>
<feColorMatrix type="matrix" values="0 0 0 0 0.333333 0 0 0 0 0.333333 0 0 0 0 0.333333 0 0 0 0.1 0"/>
<feBlend mode="normal" in2="BackgroundImageFix" result="effect1_dropShadow_1760_80125"/>
<feBlend mode="normal" in="SourceGraphic" in2="effect1_dropShadow_1760_80125" result="shape"/>
</filter>
<clipPath id="clip0_1760_80125">
<rect width="150" height="105" fill="white"/>
</clipPath>
</defs>
</svg>
