<svg width="150" height="105" viewBox="0 0 150 105" fill="none" xmlns="http://www.w3.org/2000/svg">
<g clip-path="url(#clip0_1757_69329)">
<g filter="url(#filter0_d_1757_69329)">
<path d="M44.5 21C44.5 19.8954 45.3954 19 46.5 19H92.3246L102.5 29V92C102.5 93.1046 101.605 94 100.5 94H46.5C45.3954 94 44.5 93.1046 44.5 92V21Z" fill="#444444"/>
<path d="M46.5 20H91.916L101.5 29.4189V92C101.5 92.5523 101.052 93 100.5 93H46.5C45.9477 93 45.5 92.5523 45.5 92V21C45.5 20.4477 45.9477 20 46.5 20Z" stroke="#AAAAAA" stroke-width="2"/>
</g>
<path d="M101.5 50C105.645 52.3813 113.78 57.2232 111.669 62.3033C110.503 65.1104 105.017 65.2289 102.112 64.8529C101.56 64.7816 101.014 65.1304 101.001 65.6865C100.973 66.9573 101.429 68.4722 103.756 67.8596" stroke="#AAAAAA" stroke-width="2" stroke-linecap="round"/>
<path d="M53.7578 53L57.4309 57.3774L40.8593 71.2826C39.6505 72.2969 37.8484 72.1392 36.8341 70.9304C35.8198 69.7217 35.9775 67.9195 37.1862 66.9052L53.7578 53Z" fill="#808080" stroke="#AAAAAA" stroke-width="2"/>
<circle cx="83" cy="41.5" r="1.5" fill="#AAAAAA"/>
<circle cx="64.5" cy="45.5" r="13.5" fill="#444444" stroke="#AAAAAA" stroke-width="2"/>
<circle cx="64.5" cy="45.5" r="9.5" fill="#666666" stroke="#AAAAAA" stroke-width="2"/>
<circle cx="66" cy="42.5" r="2.5" fill="#AAAAAA"/>
<path d="M45 50C39.6572 53.0544 34 56.9813 34 60.472C34 64.3231 37.4275 64.8885 40.6092 64.8682C41.2496 64.8641 41.7526 65.4453 41.846 66.0789C41.9199 66.5802 42.103 67.0991 42.4857 67.4533C43.24 68.1515 43.8476 68.0351 44.0571 67.8897" stroke="#AAAAAA" stroke-width="2" stroke-linecap="round"/>
<path d="M83.757 51.5477C81.1865 52.7739 80.0166 53.8707 81.1134 55.0406" stroke="#AAAAAA" stroke-width="2" stroke-linecap="round"/>
<path d="M92 19L102 29H93C92.4477 29 92 28.5523 92 28V19Z" fill="#AAAAAA"/>
</g>
<defs>
<filter id="filter0_d_1757_69329" x="34.5" y="14" width="78" height="95" filterUnits="userSpaceOnUse" color-interpolation-filters="sRGB">
<feFlood flood-opacity="0" result="BackgroundImageFix"/>
<feColorMatrix in="SourceAlpha" type="matrix" values="0 0 0 0 0 0 0 0 0 0 0 0 0 0 0 0 0 0 127 0" result="hardAlpha"/>
<feOffset dy="5"/>
<feGaussianBlur stdDeviation="5"/>
<feColorMatrix type="matrix" values="0 0 0 0 0.333333 0 0 0 0 0.333333 0 0 0 0 0.333333 0 0 0 0.1 0"/>
<feBlend mode="normal" in2="BackgroundImageFix" result="effect1_dropShadow_1757_69329"/>
<feBlend mode="normal" in="SourceGraphic" in2="effect1_dropShadow_1757_69329" result="shape"/>
</filter>
<clipPath id="clip0_1757_69329">
<rect width="150" height="105" fill="white"/>
</clipPath>
</defs>
</svg>
