<svg width="200" height="140" viewBox="0 0 200 140" fill="none" xmlns="http://www.w3.org/2000/svg">
<path d="M148 99H53V33.6488C53 31.6373 54.4919 30 56.3788 30H90.6928C92.448 30 93.8961 31.4501 94.0716 33.3213V37H145.209C147 37 148 38.2332 148 39.543V99Z" fill="#EFEFEF" stroke="#AAAAAA" stroke-width="2"/>
<path d="M147.564 110H52.5004C50.831 110 49.4398 108.702 49.3471 106.988L46.0083 55.7321C45.8691 53.832 47.4995 52 49.9992 52H101.999L110.999 46H151.296C153.197 46 155.169 47.9927 154.984 49.8928L150.671 107.034C150.578 108.702 149.187 110 147.564 110Z" fill="#F9F9F9" stroke="#AAAAAA" stroke-width="2"/>
<path d="M154.149 76C159.425 78.9105 168.685 84.291 166 90.5C164.478 94.0181 157.527 94.1546 153.978 93.6674C153.434 93.5927 152.897 93.9343 152.862 94.483C152.761 96.0763 153.24 98.1686 156.357 97.3806" stroke="#AAAAAA" stroke-width="2" stroke-linecap="round"/>
<path d="M70.9805 83L74.4805 89.0622L51.5308 102.312C49.8568 103.279 47.7162 102.705 46.7497 101.031C45.7832 99.3571 46.3568 97.2165 48.0308 96.25L70.9805 83Z" fill="#E2E2E2" stroke="#AAAAAA" stroke-width="2"/>
<circle cx="85" cy="78" r="16" fill="#F5F5F5" stroke="#AAAAAA" stroke-width="2"/>
<circle cx="85" cy="78" r="12" fill="#EFEFEF" stroke="#AAAAAA" stroke-width="2"/>
<circle cx="110" cy="76" r="2" fill="#AAAAAA"/>
<circle cx="91.5" cy="77.5" r="3.5" fill="#AAAAAA"/>
<path d="M47 80C42.1429 83.7331 39.5 86.7336 39.5 91C39.5 95.7151 44.4695 95.7492 47.7932 95.571C48.4202 95.5373 48.9265 96.0812 48.9637 96.708C49.0053 97.4094 49.1639 98.1927 49.5714 98.6998C50.2571 99.5531 50.8095 99.4108 51 99.2331" stroke="#AAAAAA" stroke-width="2" stroke-linecap="round"/>
<path d="M107.987 87.6709C104.838 89.173 103.405 90.5166 104.749 91.9498" stroke="#AAAAAA" stroke-width="2" stroke-linecap="round"/>
</svg>
