<svg width="64" height="64" viewBox="0 0 64 64" fill="none" xmlns="http://www.w3.org/2000/svg">
<rect width="64" height="64" rx="8" fill="#FFAC59" fill-opacity="0.2"/>
<g clip-path="url(#clip0_1665_117266)">
<path fill-rule="evenodd" clip-rule="evenodd" d="M42.7557 24.4853L39.9272 21.6569L38.513 23.0711L41.3415 25.8995L42.7557 24.4853ZM42.7557 18.8284C41.1936 17.2663 38.6609 17.2663 37.0988 18.8284L34.2704 21.6569L32.8562 23.0711L31.442 24.4853L20.5997 35.3276C19.3757 36.5516 18.5817 38.1395 18.3369 39.8531L17.677 44.4728C17.4884 45.7928 18.6198 46.9241 19.9397 46.7356L24.5595 46.0756C26.273 45.8308 27.861 45.0368 29.0849 43.8129L39.9272 32.9706L41.3415 31.5563L42.7557 30.1421L45.5841 27.3137C47.1462 25.7516 47.1462 23.219 45.5841 21.6569L42.7557 18.8284ZM39.9272 27.3137L41.3415 25.8995L38.513 23.0711L37.0988 24.4853L39.9272 27.3137ZM23.4281 38.156L34.2704 27.3137L37.0988 30.1421L26.2565 40.9844C25.6445 41.5964 24.8506 41.9934 23.9938 42.1158L22.0139 42.3987L22.2967 40.4188C22.4191 39.562 22.8161 38.768 23.4281 38.156Z" fill="#FFAC59"/>
</g>
<defs>
<clipPath id="clip0_1665_117266">
<rect width="32" height="32" fill="white" transform="translate(16 16)"/>
</clipPath>
</defs>
</svg>
