<svg width="96" height="96" viewBox="0 0 96 96" fill="none" xmlns="http://www.w3.org/2000/svg">
<path d="M15.5 7C15.5 5.067 17.067 3.5 19 3.5H61.7574C62.4204 3.5 63.0563 3.76339 63.5251 4.23223L79.7678 20.4749C80.2366 20.9437 80.5 21.5796 80.5 22.2426V89C80.5 90.933 78.933 92.5 77 92.5H19C17.067 92.5 15.5 90.933 15.5 89V7Z" fill="white" stroke="#BBBBBB"/>
<path d="M62.5039 4V16.7039C62.5039 18.3841 62.5039 19.2241 62.8309 19.8659C63.1185 20.4304 63.5774 20.8893 64.1419 21.1769C64.7837 21.5039 65.6237 21.5039 67.3039 21.5039H80.0078" stroke="#BBBBBB"/>
<path fill-rule="evenodd" clip-rule="evenodd" d="M48 13.5C48 12.6716 47.3284 12 46.5 12H40.5C39.6716 12 39 12.6716 39 13.5V16.5C39 17.3284 39.6716 18 40.5 18H46.5C47.3284 18 48 17.3284 48 16.5V13.5ZM37.5 18C38.3284 18 39 18.6716 39 19.5V22.5C39 23.3284 38.3284 24 37.5 24H31.5C30.6716 24 30 23.3284 30 22.5V19.5C30 18.6716 30.6716 18 31.5 18L37.5 18ZM39 31.5C39 30.6716 38.3284 30 37.5 30H31.5C30.6716 30 30 30.6716 30 31.5V34.5C30 35.3284 30.6716 36 31.5 36H37.5C38.3284 36 39 35.3284 39 34.5V31.5ZM39 43.5C39 42.6716 38.3284 42 37.5 42H31.5C30.6716 42 30 42.6716 30 43.5V46.5C30 47.3284 30.6716 48 31.5 48H37.5C38.3284 48 39 47.3284 39 46.5V43.5ZM48 37.5C48 36.6716 47.3284 36 46.5 36H40.5C39.6716 36 39 36.6716 39 37.5V40.5C39 41.3284 39.6716 42 40.5 42H46.5C47.3284 42 48 41.3284 48 40.5V37.5ZM46.5 24C47.3284 24 48 24.6716 48 25.5V28.5C48 29.3284 47.3284 30 46.5 30H40.5C39.6716 30 39 29.3284 39 28.5V25.5C39 24.6716 39.6716 24 40.5 24H46.5Z" fill="#BBBBBB"/>
<path fill-rule="evenodd" clip-rule="evenodd" d="M42 62.4C42 62.7314 41.7314 63 41.4 63H36.6C36.2686 63 36 62.7314 36 62.4V60C36 58.3431 37.3431 57 39 57C40.6569 57 42 58.3431 42 60V62.4ZM30 66V60C30 55.0294 34.0294 51 39 51C43.9706 51 48 55.0294 48 60V66V81C48 82.6569 46.6569 84 45 84H33C31.3431 84 30 82.6569 30 81V66ZM41.25 69H36.75C36.3358 69 36 69.3358 36 69.75V77.25C36 77.6642 36.3358 78 36.75 78H41.25C41.6642 78 42 77.6642 42 77.25V69.75C42 69.3358 41.6642 69 41.25 69Z" fill="#A1A1A1"/>
</svg>
