<svg width="96" height="96" viewBox="0 0 96 96" fill="none" xmlns="http://www.w3.org/2000/svg">
<path d="M15.5 7C15.5 5.067 17.067 3.5 19 3.5H61.7574C62.4204 3.5 63.0563 3.76339 63.5251 4.23223L79.7678 20.4749C80.2366 20.9437 80.5 21.5796 80.5 22.2426V89C80.5 90.933 78.933 92.5 77 92.5H19C17.067 92.5 15.5 90.933 15.5 89V7Z" fill="white" stroke="#BBBBBB"/>
<path d="M62.5039 4V16.7039C62.5039 18.3841 62.5039 19.2241 62.8309 19.8659C63.1185 20.4304 63.5774 20.8893 64.1419 21.1769C64.7837 21.5039 65.6237 21.5039 67.3039 21.5039H80.0078" stroke="#BBBBBB"/>
<mask id="path-3-inside-1_19262_290846" fill="white">
<rect x="24" y="33" width="48" height="39" rx="3"/>
</mask>
<rect x="24" y="33" width="48" height="39" rx="3" stroke="#FC7462" stroke-width="12" mask="url(#path-3-inside-1_19262_290846)"/>
<rect x="36" y="30" width="6" height="12" rx="1" fill="#E52910"/>
<rect x="54" y="30" width="6" height="12" rx="1" fill="#E52910"/>
<path d="M50.6472 63C50.3499 63 50.1565 62.6871 50.2894 62.4211L56 50.9999H47.4C47.1791 50.9999 47 50.8208 47 50.5999V45.4C47 45.1791 47.1791 45 47.4 45H61.5997C61.8206 45 61.9997 45.1791 61.9997 45.4V50.9055C61.9997 50.9676 61.9852 51.0288 61.9575 51.0844L56.1106 62.7789C56.0428 62.9144 55.9043 63 55.7528 63H50.6472Z" fill="#E52910"/>
<path d="M38.4 63H43.6C43.8209 63 44 62.8209 44 62.6V45.4C44 45.1791 43.8209 45 43.6 45H38.1657C38.0596 45 37.9579 45.0421 37.8828 45.1172L35.1172 47.8828C35.0421 47.9579 35 48.0596 35 48.1657V53.0343C35 53.3907 35.4309 53.5691 35.6828 53.3172L38 51V55V62.6C38 62.8209 38.1791 63 38.4 63Z" fill="#E52910"/>
<path fill-rule="evenodd" clip-rule="evenodd" d="M24 36C24 34.3431 25.3431 33 27 33H69C70.6569 33 72 34.3431 72 36V39V43.5C72 44.3284 71.3284 45 70.5 45H67.5C66.6716 45 66 44.3284 66 43.5V40C66 39.4477 65.5523 39 65 39H31C30.4477 39 30 39.4477 30 40V43.5C30 44.3284 29.3284 45 28.5 45H25.5C24.6716 45 24 44.3284 24 43.5V39V36Z" fill="#E52910"/>
</svg>
