<svg width="96" height="96" viewBox="0 0 96 96" fill="none" xmlns="http://www.w3.org/2000/svg">
<path d="M15.5 7C15.5 5.067 17.067 3.5 19 3.5H61.7574C62.4204 3.5 63.0563 3.76339 63.5251 4.23223L79.7678 20.4749C80.2366 20.9437 80.5 21.5796 80.5 22.2426V89C80.5 90.933 78.933 92.5 77 92.5H19C17.067 92.5 15.5 90.933 15.5 89V7Z" fill="white" stroke="#BBBBBB"/>
<path d="M62.5039 4V16.7039C62.5039 18.3841 62.5039 19.2241 62.8309 19.8659C63.1185 20.4304 63.5774 20.8893 64.1419 21.1769C64.7837 21.5039 65.6237 21.5039 67.3039 21.5039H80.0078" stroke="#BBBBBB"/>
<path fill-rule="evenodd" clip-rule="evenodd" d="M30 36C28.3431 36 27 37.3431 27 39C27 40.6569 28.3431 42 30 42H42C43.6569 42 45 40.6569 45 39C45 37.3431 43.6569 36 42 36H30ZM30 48C28.3431 48 27 49.3431 27 51C27 52.6569 28.3431 54 30 54H42C43.6569 54 45 52.6569 45 51C45 49.3431 43.6569 48 42 48H30ZM27 63C27 61.3431 28.3431 60 30 60H42C43.6569 60 45 61.3431 45 63C45 64.6569 43.6569 66 42 66H30C28.3431 66 27 64.6569 27 63ZM54 36C52.3431 36 51 37.3431 51 39C51 40.6569 52.3431 42 54 42H66C67.6569 42 69 40.6569 69 39C69 37.3431 67.6569 36 66 36H54Z" fill="#B0D9AD"/>
<path d="M48 57.6C48 54.2397 48 52.5595 48.654 51.2761C49.2292 50.1471 50.1471 49.2292 51.2761 48.654C52.5595 48 54.2397 48 57.6 48H74.4C77.7603 48 79.4405 48 80.7239 48.654C81.8529 49.2292 82.7708 50.1471 83.346 51.2761C84 52.5595 84 54.2397 84 57.6V74.4C84 77.7603 84 79.4405 83.346 80.7239C82.7708 81.8529 81.8529 82.7708 80.7239 83.346C79.4405 84 77.7603 84 74.4 84H57.6C54.2397 84 52.5595 84 51.2761 83.346C50.1471 82.7708 49.2292 81.8529 48.654 80.7239C48 79.4405 48 77.7603 48 74.4V57.6Z" fill="#3AA133"/>
<path d="M75 75H69.887L65.8957 68.7479L61.9043 75H57L63.1826 65.7479L57 57H61.9304L66.0261 63.0504L70.0696 57H75L68.713 66.0504L75 75Z" fill="white"/>
</svg>
