<svg width="96" height="96" viewBox="0 0 96 96" fill="none" xmlns="http://www.w3.org/2000/svg">
<path d="M15.5 7C15.5 5.067 17.067 3.5 19 3.5H61.7574C62.4204 3.5 63.0563 3.76339 63.5251 4.23223L79.7678 20.4749C80.2366 20.9437 80.5 21.5796 80.5 22.2426V89C80.5 90.933 78.933 92.5 77 92.5H19C17.067 92.5 15.5 90.933 15.5 89V7Z" fill="white" stroke="#BBBBBB"/>
<path d="M62.5039 4V16.7039C62.5039 18.3841 62.5039 19.2241 62.8309 19.8659C63.1185 20.4304 63.5774 20.8893 64.1419 21.1769C64.7837 21.5039 65.6237 21.5039 67.3039 21.5039H80.0078" stroke="#BBBBBB"/>
<path fill-rule="evenodd" clip-rule="evenodd" d="M30 48C28.3431 48 27 49.3431 27 51C27 52.6569 28.3431 54 30 54H42C43.6569 54 45 52.6569 45 51C45 49.3431 43.6569 48 42 48H30ZM54 48C52.3431 48 51 49.3431 51 51C51 52.6569 52.3431 54 54 54H66C67.6569 54 69 52.6569 69 51C69 49.3431 67.6569 48 66 48H54ZM27 63C27 61.3431 28.3431 60 30 60H42C43.6569 60 45 61.3431 45 63C45 64.6569 43.6569 66 42 66H30C28.3431 66 27 64.6569 27 63ZM54 60C52.3431 60 51 61.3431 51 63C51 64.6569 52.3431 66 54 66H66C67.6569 66 69 64.6569 69 63C69 61.3431 67.6569 60 66 60H54Z" fill="#B0D9AD"/>
<path fill-rule="evenodd" clip-rule="evenodd" d="M30 36C28.3431 36 27 37.3431 27 39C27 40.6569 28.3431 42 30 42H42C43.6569 42 45 40.6569 45 39C45 37.3431 43.6569 36 42 36H30ZM54 36C52.3431 36 51 37.3431 51 39C51 40.6569 52.3431 42 54 42H66C67.6569 42 69 40.6569 69 39C69 37.3431 67.6569 36 66 36H54Z" fill="#3AA133"/>
</svg>
