<svg width="96" height="96" viewBox="0 0 96 96" fill="none" xmlns="http://www.w3.org/2000/svg">
<path d="M19 3.5H61.7578C62.4207 3.50012 63.0567 3.76369 63.5254 4.23242L79.7676 20.4746C80.2363 20.9433 80.4999 21.5793 80.5 22.2422V89C80.5 90.933 78.933 92.5 77 92.5H19C17.067 92.5 15.5 90.933 15.5 89V7C15.5 5.067 17.067 3.5 19 3.5Z" fill="white" stroke="#BBBBBB"/>
<path d="M62.5039 4V16.7039C62.5039 18.3841 62.5039 19.2241 62.8309 19.8659C63.1185 20.4304 63.5774 20.8893 64.1419 21.1769C64.7837 21.5039 65.6237 21.5039 67.3039 21.5039H80.0078" stroke="#BBBBBB"/>
<path d="M48 57.6C48 54.2397 48 52.5595 48.654 51.2761C49.2292 50.1471 50.1471 49.2292 51.2761 48.654C52.5595 48 54.2397 48 57.6 48H74.4C77.7603 48 79.4405 48 80.7239 48.654C81.8529 49.2292 82.7708 50.1471 83.346 51.2761C84 52.5595 84 54.2397 84 57.6V74.4C84 77.7603 84 79.4405 83.346 80.7239C82.7708 81.8529 81.8529 82.7708 80.7239 83.346C79.4405 84 77.7603 84 74.4 84H57.6C54.2397 84 52.5595 84 51.2761 83.346C50.1471 82.7708 49.2292 81.8529 48.654 80.7239C48 79.4405 48 77.7603 48 74.4V57.6Z" fill="#705CED"/>
<path d="M69 75L75 57H69L66 69L63 57H57L63 75H69Z" fill="white"/>
<path fill-rule="evenodd" clip-rule="evenodd" d="M33 42V36H39V42H36H33ZM33 48L33 54.5121C29.5044 55.7476 27 59.0813 27 63C27 67.9706 31.0294 72 36 72C40.9706 72 45 67.9706 45 63C45 59.0813 42.4956 55.7476 39 54.5121L39 48H42C43.6569 48 45 46.6569 45 45V42H66C67.6569 42 69 40.6569 69 39C69 37.3431 67.6569 36 66 36H45V33C45 31.3431 43.6569 30 42 30H30C28.3431 30 27 31.3431 27 33V45C27 46.6569 28.3431 48 30 48H33ZM33 63C33 61.3431 34.3431 60 36 60C37.6569 60 39 61.3431 39 63C39 64.6569 37.6569 66 36 66C34.3431 66 33 64.6569 33 63Z" fill="#C6BEF8"/>
</svg>
