<svg width="96" height="96" viewBox="0 0 96 96" fill="none" xmlns="http://www.w3.org/2000/svg">
<g clip-path="url(#clip0_3999_19056)">
<path d="M10 1H57L86 30V95H10V1Z" fill="white" style="fill:white;fill:white;fill-opacity:1;"/>
<path fill-rule="evenodd" clip-rule="evenodd" d="M10 95H86V30L57 1H10V95ZM57 0H9V96H87V30L57 0Z" fill="url(#paint0_linear_3999_19056)" style=""/>
<path fill-rule="evenodd" clip-rule="evenodd" d="M23 58C21.3431 58 20 59.3431 20 61V86C20 87.6569 21.3431 89 23 89H73C74.6569 89 76 87.6569 76 86V61C76 59.3431 74.6569 58 73 58H23Z" fill="#F36700" style="fill:#F36700;fill:color(display-p3 0.9529 0.4039 0.0000);fill-opacity:1;"/>
<path d="M57 11H20V51H76V29H73V48H23V14H57V11Z" fill="#BFBFBF" style="fill:#BFBFBF;fill:color(display-p3 0.7490 0.7490 0.7490);fill-opacity:1;"/>
<path d="M32 17H26V23H32V17Z" fill="#BFBFBF" style="fill:#BFBFBF;fill:color(display-p3 0.7490 0.7490 0.7490);fill-opacity:1;"/>
<path d="M26 28H32V34H26V28Z" fill="#BFBFBF" style="fill:#BFBFBF;fill:color(display-p3 0.7490 0.7490 0.7490);fill-opacity:1;"/>
<path d="M32 39H26V45H32V39Z" fill="#BFBFBF" style="fill:#BFBFBF;fill:color(display-p3 0.7490 0.7490 0.7490);fill-opacity:1;"/>
<path d="M35 17H46V20H52V23H35V17Z" fill="#BFBFBF" style="fill:#BFBFBF;fill:color(display-p3 0.7490 0.7490 0.7490);fill-opacity:1;"/>
<path d="M57 28V29H62V31H50V34H35V28H57Z" fill="#BFBFBF" style="fill:#BFBFBF;fill:color(display-p3 0.7490 0.7490 0.7490);fill-opacity:1;"/>
<path d="M70 39H35V45H59V42H70V39Z" fill="#BFBFBF" style="fill:#BFBFBF;fill:color(display-p3 0.7490 0.7490 0.7490);fill-opacity:1;"/>
<path opacity="0.3" d="M56 30V1H57V29H86L87 30H56Z" fill="black" style="fill:black;fill:black;fill-opacity:1;"/>
<path d="M29.8789 66.6836H35.1621C36.3535 66.6836 37.2617 66.7747 37.8867 66.957C38.7266 67.2044 39.446 67.6439 40.0449 68.2754C40.6439 68.9069 41.0996 69.6816 41.4121 70.5996C41.7246 71.5111 41.8809 72.6374 41.8809 73.9785C41.8809 75.1569 41.7344 76.1725 41.4414 77.0254C41.0833 78.0671 40.5723 78.9102 39.9082 79.5547C39.4069 80.043 38.7298 80.4238 37.877 80.6973C37.2389 80.8991 36.3861 81 35.3184 81H29.8789V66.6836ZM32.7695 69.1055V78.5879H34.9277C35.735 78.5879 36.3177 78.5423 36.6758 78.4512C37.1445 78.334 37.5319 78.1354 37.8379 77.8555C38.1504 77.5755 38.4043 77.1165 38.5996 76.4785C38.7949 75.834 38.8926 74.9583 38.8926 73.8516C38.8926 72.7448 38.7949 71.8952 38.5996 71.3027C38.4043 70.7103 38.1309 70.248 37.7793 69.916C37.4277 69.584 36.9818 69.3594 36.4414 69.2422C36.0378 69.151 35.2467 69.1055 34.0684 69.1055H32.7695ZM43.3418 81V66.6836H47.9805C49.7383 66.6836 50.8841 66.7552 51.418 66.8984C52.2383 67.1133 52.9251 67.582 53.4785 68.3047C54.0319 69.0208 54.3086 69.9486 54.3086 71.0879C54.3086 71.9668 54.1491 72.7057 53.8301 73.3047C53.5111 73.9036 53.1042 74.3757 52.6094 74.7207C52.1211 75.0592 51.623 75.2839 51.1152 75.3945C50.4251 75.5312 49.4258 75.5996 48.1172 75.5996H46.2324V81H43.3418ZM46.2324 69.1055V73.168H47.8145C48.9538 73.168 49.7155 73.0931 50.0996 72.9434C50.4837 72.7936 50.7832 72.5592 50.998 72.2402C51.2194 71.9212 51.3301 71.5501 51.3301 71.127C51.3301 70.6061 51.1771 70.1764 50.8711 69.8379C50.5651 69.4993 50.1777 69.2878 49.709 69.2031C49.3639 69.138 48.6706 69.1055 47.6289 69.1055H46.2324ZM54.9492 76.3418L57.7617 76.0684C57.931 77.0124 58.2728 77.7057 58.7871 78.1484C59.3079 78.5911 60.0078 78.8125 60.8867 78.8125C61.8177 78.8125 62.5176 78.6172 62.9863 78.2266C63.4616 77.8294 63.6992 77.3672 63.6992 76.8398C63.6992 76.5013 63.5983 76.2148 63.3965 75.9805C63.2012 75.7396 62.8561 75.5312 62.3613 75.3555C62.0228 75.2383 61.2513 75.0299 60.0469 74.7305C58.4974 74.3464 57.4102 73.8743 56.7852 73.3145C55.9062 72.5267 55.4668 71.5664 55.4668 70.4336C55.4668 69.7044 55.6719 69.0241 56.082 68.3926C56.4987 67.7546 57.0944 67.2695 57.8691 66.9375C58.6504 66.6055 59.5911 66.4395 60.6914 66.4395C62.4883 66.4395 63.8392 66.8333 64.7441 67.6211C65.6556 68.4089 66.1341 69.4603 66.1797 70.7754L63.2891 70.9023C63.1654 70.1667 62.8984 69.6393 62.4883 69.3203C62.0846 68.9948 61.4759 68.832 60.6621 68.832C59.8223 68.832 59.1647 69.0046 58.6895 69.3496C58.3835 69.571 58.2305 69.8672 58.2305 70.2383C58.2305 70.5768 58.3737 70.8665 58.6602 71.1074C59.0247 71.4134 59.9102 71.7324 61.3164 72.0645C62.7227 72.3965 63.7611 72.7415 64.4316 73.0996C65.1087 73.4512 65.6361 73.9362 66.0137 74.5547C66.3978 75.1667 66.5898 75.9251 66.5898 76.8301C66.5898 77.6504 66.362 78.4186 65.9062 79.1348C65.4505 79.8509 64.806 80.3848 63.9727 80.7363C63.1393 81.0814 62.1009 81.2539 60.8574 81.2539C59.0475 81.2539 57.6576 80.8372 56.6875 80.0039C55.7174 79.1641 55.138 77.9434 54.9492 76.3418Z" fill="white" style="fill:white;fill:white;fill-opacity:1;"/>
</g>
<defs>
<linearGradient id="paint0_linear_3999_19056" x1="48" y1="94.25" x2="48" y2="1.21299e-06" gradientUnits="userSpaceOnUse">
<stop stop-color="#A8A8A8" style="stop-color:#A8A8A8;stop-color:color(display-p3 0.6588 0.6588 0.6588);stop-opacity:1;"/>
<stop offset="1" stop-color="#DADADA" style="stop-color:#DADADA;stop-color:color(display-p3 0.8549 0.8549 0.8549);stop-opacity:1;"/>
</linearGradient>
<clipPath id="clip0_3999_19056">
<rect width="96" height="96" fill="white" style="fill:white;fill:white;fill-opacity:1;"/>
</clipPath>
</defs>
</svg>
