<svg width="96" height="96" viewBox="0 0 96 96" fill="none" xmlns="http://www.w3.org/2000/svg">
<g clip-path="url(#clip0_3999_19158)">
<path d="M10 1H57L86 30V95H10V1Z" fill="white" style="fill:white;fill:white;fill-opacity:1;"/>
<path fill-rule="evenodd" clip-rule="evenodd" d="M10 95H86V30L57 1H10V95ZM57 0H9V96H87V30L57 0Z" fill="url(#paint0_linear_3999_19158)" style=""/>
<path fill-rule="evenodd" clip-rule="evenodd" d="M23 58C21.3431 58 20 59.3431 20 61V86C20 87.6569 21.3431 89 23 89H73C74.6569 89 76 87.6569 76 86V61C76 59.3431 74.6569 58 73 58H23Z" fill="#F36700" style="fill:#F36700;fill:color(display-p3 0.9529 0.4039 0.0000);fill-opacity:1;"/>
<path d="M57 11H20V51H76V29H73V48H23V14H57V11Z" fill="#BFBFBF" style="fill:#BFBFBF;fill:color(display-p3 0.7490 0.7490 0.7490);fill-opacity:1;"/>
<path d="M32 17H26V23H32V17Z" fill="#BFBFBF" style="fill:#BFBFBF;fill:color(display-p3 0.7490 0.7490 0.7490);fill-opacity:1;"/>
<path d="M26 28H32V34H26V28Z" fill="#BFBFBF" style="fill:#BFBFBF;fill:color(display-p3 0.7490 0.7490 0.7490);fill-opacity:1;"/>
<path d="M32 39H26V45H32V39Z" fill="#BFBFBF" style="fill:#BFBFBF;fill:color(display-p3 0.7490 0.7490 0.7490);fill-opacity:1;"/>
<path d="M35 17H46V20H52V23H35V17Z" fill="#BFBFBF" style="fill:#BFBFBF;fill:color(display-p3 0.7490 0.7490 0.7490);fill-opacity:1;"/>
<path d="M57 28V29H62V31H50V34H35V28H57Z" fill="#BFBFBF" style="fill:#BFBFBF;fill:color(display-p3 0.7490 0.7490 0.7490);fill-opacity:1;"/>
<path d="M70 39H35V45H59V42H70V39Z" fill="#BFBFBF" style="fill:#BFBFBF;fill:color(display-p3 0.7490 0.7490 0.7490);fill-opacity:1;"/>
<path opacity="0.3" d="M56 30V1H57V29H86L87 30H56Z" fill="black" style="fill:black;fill:black;fill-opacity:1;"/>
<path d="M30.4355 66.6836H35.7188C36.9102 66.6836 37.8184 66.7747 38.4434 66.957C39.2832 67.2044 40.0026 67.6439 40.6016 68.2754C41.2005 68.9069 41.6562 69.6816 41.9688 70.5996C42.2812 71.5111 42.4375 72.6374 42.4375 73.9785C42.4375 75.1569 42.291 76.1725 41.998 77.0254C41.64 78.0671 41.1289 78.9102 40.4648 79.5547C39.9635 80.043 39.2865 80.4238 38.4336 80.6973C37.7956 80.8991 36.9427 81 35.875 81H30.4355V66.6836ZM33.3262 69.1055V78.5879H35.4844C36.2917 78.5879 36.8743 78.5423 37.2324 78.4512C37.7012 78.334 38.0885 78.1354 38.3945 77.8555C38.707 77.5755 38.9609 77.1165 39.1562 76.4785C39.3516 75.834 39.4492 74.9583 39.4492 73.8516C39.4492 72.7448 39.3516 71.8952 39.1562 71.3027C38.9609 70.7103 38.6875 70.248 38.3359 69.916C37.9844 69.584 37.5384 69.3594 36.998 69.2422C36.5944 69.151 35.8034 69.1055 34.625 69.1055H33.3262ZM43.8984 81V66.6836H48.5371C50.2949 66.6836 51.4408 66.7552 51.9746 66.8984C52.7949 67.1133 53.4818 67.582 54.0352 68.3047C54.5885 69.0208 54.8652 69.9486 54.8652 71.0879C54.8652 71.9668 54.7057 72.7057 54.3867 73.3047C54.0677 73.9036 53.6608 74.3757 53.166 74.7207C52.6777 75.0592 52.1797 75.2839 51.6719 75.3945C50.9818 75.5312 49.9824 75.5996 48.6738 75.5996H46.7891V81H43.8984ZM46.7891 69.1055V73.168H48.3711C49.5104 73.168 50.2721 73.0931 50.6562 72.9434C51.0404 72.7936 51.3398 72.5592 51.5547 72.2402C51.776 71.9212 51.8867 71.5501 51.8867 71.127C51.8867 70.6061 51.7337 70.1764 51.4277 69.8379C51.1217 69.4993 50.7344 69.2878 50.2656 69.2031C49.9206 69.138 49.2272 69.1055 48.1855 69.1055H46.7891ZM59.4609 81V69.1055H55.2129V66.6836H66.5898V69.1055H62.3516V81H59.4609Z" fill="white" style="fill:white;fill:white;fill-opacity:1;"/>
</g>
<defs>
<linearGradient id="paint0_linear_3999_19158" x1="48" y1="94.25" x2="48" y2="1.21299e-06" gradientUnits="userSpaceOnUse">
<stop stop-color="#A8A8A8" style="stop-color:#A8A8A8;stop-color:color(display-p3 0.6588 0.6588 0.6588);stop-opacity:1;"/>
<stop offset="1" stop-color="#DADADA" style="stop-color:#DADADA;stop-color:color(display-p3 0.8549 0.8549 0.8549);stop-opacity:1;"/>
</linearGradient>
<clipPath id="clip0_3999_19158">
<rect width="96" height="96" fill="white" style="fill:white;fill:white;fill-opacity:1;"/>
</clipPath>
</defs>
</svg>
