<svg width="96" height="96" viewBox="0 0 96 96" fill="none" xmlns="http://www.w3.org/2000/svg">
<g clip-path="url(#clip0_3999_18967)">
<path d="M10 1H57L86 30V95H10V1Z" fill="white" style="fill:white;fill:white;fill-opacity:1;"/>
<path fill-rule="evenodd" clip-rule="evenodd" d="M10 95H86V30L57 1H10V95ZM57 0H9V96H87V30L57 0Z" fill="url(#paint0_linear_3999_18967)" style=""/>
<path fill-rule="evenodd" clip-rule="evenodd" d="M23 58C21.3431 58 20 59.3431 20 61V86C20 87.6569 21.3431 89 23 89H73C74.6569 89 76 87.6569 76 86V61C76 59.3431 74.6569 58 73 58H23Z" fill="#6AAA1E" style="fill:#6AAA1E;fill:color(display-p3 0.4157 0.6667 0.1176);fill-opacity:1;"/>
<path fill-rule="evenodd" clip-rule="evenodd" d="M57 11H20V50H76V29H57V11ZM73 41V47H58V41H73ZM73 32V38H58V32H73ZM55 14H41V20H55V14ZM55 23H41V29H55V23ZM55 32H41V38H55V32ZM55 41H41V47H55V41ZM23 14H38V20H23V14ZM23 23H38V29H23V23ZM23 32H38V38H23V32ZM23 41H38V47H23V41Z" fill="#BFBFBF" style="fill:#BFBFBF;fill:color(display-p3 0.7490 0.7490 0.7490);fill-opacity:1;"/>
<path opacity="0.3" d="M56 30V1H57V29H86L87 30H56Z" fill="black" style="fill:black;fill:black;fill-opacity:1;"/>
<path d="M31.5586 81V66.6836H42.1738V69.1055H34.4492V72.2793H41.6367V74.6914H34.4492V78.5879H42.4473V81H31.5586ZM47.1211 81V69.1055H42.873V66.6836H54.25V69.1055H50.0117V81H47.1211ZM58.3477 81V69.1055H54.0996V66.6836H65.4766V69.1055H61.2383V81H58.3477Z" fill="white" style="fill:white;fill:white;fill-opacity:1;"/>
</g>
<defs>
<linearGradient id="paint0_linear_3999_18967" x1="48" y1="94.25" x2="48" y2="1.21299e-06" gradientUnits="userSpaceOnUse">
<stop stop-color="#A8A8A8" style="stop-color:#A8A8A8;stop-color:color(display-p3 0.6588 0.6588 0.6588);stop-opacity:1;"/>
<stop offset="1" stop-color="#DADADA" style="stop-color:#DADADA;stop-color:color(display-p3 0.8549 0.8549 0.8549);stop-opacity:1;"/>
</linearGradient>
<clipPath id="clip0_3999_18967">
<rect width="96" height="96" fill="white" style="fill:white;fill:white;fill-opacity:1;"/>
</clipPath>
</defs>
</svg>
