<svg width="96" height="96" viewBox="0 0 96 96" fill="none" xmlns="http://www.w3.org/2000/svg">
<path d="M15.5 13.5C14.3954 13.5 13.5 14.3954 13.5 15.5V34.5C13.5 35.6046 14.3954 36.5 15.5 36.5H80.5C81.6046 36.5 82.5 35.6046 82.5 34.5V25.2778C82.5 24.1732 81.6046 23.2778 80.5 23.2778H47.2682C46.9548 23.2778 46.6595 23.1308 46.4705 22.8808L39.9794 14.294C39.6014 13.7939 39.0108 13.5 38.384 13.5H15.5Z" fill="#FFEBD6" stroke="#FF9933"/>
<rect x="10.5" y="32.5" width="75" height="50" rx="2" fill="#FFF9F3" stroke="#FF9933"/>
<g clip-path="url(#clip0_19272_291060)">
<path d="M80.0355 51.364C83.5502 47.8492 89.2487 47.8492 92.7634 51.364C96.2781 54.8787 96.2781 60.5772 92.7634 64.0919L66.3614 90.4939C65.5924 91.2629 64.6289 91.8084 63.5739 92.0721L53.0664 94.699C50.8692 95.2483 48.879 93.2581 49.4283 91.061L52.0552 80.5534C52.319 79.4984 52.8645 78.5349 53.6334 77.766L80.0355 51.364Z" fill="white"/>
<path fill-rule="evenodd" clip-rule="evenodd" d="M82.1567 66.2128L62.1185 86.251L56.4616 87.6652L57.8758 82.0084L77.9141 61.9701L82.1567 66.2128ZM86.3993 61.9701L88.5205 59.849C89.6921 58.6774 89.6921 56.7779 88.5205 55.6064C87.3489 54.4348 85.4494 54.4348 84.2778 55.6064L82.1567 57.7275L86.3993 61.9701ZM77.9141 53.4849L80.0352 51.3637C83.5499 47.849 89.2484 47.849 92.7631 51.3637C96.2778 54.8784 96.2778 60.5769 92.7631 64.0916L66.3611 90.4937C65.5922 91.2626 64.6287 91.8081 63.5737 92.0719L53.0661 94.6988C50.869 95.2481 48.8788 93.2579 49.4281 91.0607L52.055 80.5532C52.3187 79.4982 52.8642 78.5347 53.6332 77.7657L73.6714 57.7275L73.6707 57.7268L77.9133 53.4841L77.9141 53.4849Z" fill="#FF9933"/>
</g>
<defs>
<clipPath id="clip0_19272_291060">
<rect width="48" height="48" fill="white" transform="translate(48 48)"/>
</clipPath>
</defs>
</svg>
