<svg width="96" height="96" viewBox="0 0 96 96" fill="none" xmlns="http://www.w3.org/2000/svg">
<path d="M15.5 13.5C14.3954 13.5 13.5 14.3954 13.5 15.5V34.5C13.5 35.6046 14.3954 36.5 15.5 36.5H80.5C81.6046 36.5 82.5 35.6046 82.5 34.5V25.2778C82.5 24.1732 81.6046 23.2778 80.5 23.2778H47.2682C46.9548 23.2778 46.6595 23.1308 46.4705 22.8808L39.9794 14.294C39.6014 13.7939 39.0108 13.5 38.384 13.5H15.5Z" fill="#D3F3E7" stroke="#22C386"/>
<rect x="10.5" y="32.5" width="75" height="50" rx="2" fill="#F2FBF8" stroke="#22C386"/>
<path d="M91.3448 67.1379C93.6302 64.7384 93.5375 60.9405 91.1379 58.6552C88.7384 56.3699 84.9405 56.4625 82.6552 58.8621L66.7516 75.5608L61.0939 70.2803C58.6714 68.0193 54.8747 68.1503 52.6137 70.5728C50.3527 72.9953 50.4836 76.792 52.9061 79.053L62.9061 88.3863C65.3114 90.6312 69.0758 90.5204 71.3448 88.1379L91.3448 67.1379Z" fill="white" stroke="#22C386" stroke-width="6" stroke-linecap="round" stroke-linejoin="round"/>
</svg>
