<svg width="96" height="96" viewBox="0 0 96 96" fill="none" xmlns="http://www.w3.org/2000/svg">
<path d="M15.5 7C15.5 5.067 17.067 3.5 19 3.5H61.7574C62.4204 3.5 63.0563 3.76339 63.5251 4.23223L79.7678 20.4749C80.2366 20.9437 80.5 21.5796 80.5 22.2426V89C80.5 90.933 78.933 92.5 77 92.5H19C17.067 92.5 15.5 90.933 15.5 89V7Z" fill="white" stroke="#BBBBBB"/>
<path d="M62.5039 4V16.7039C62.5039 18.3841 62.5039 19.2241 62.8309 19.8659C63.1185 20.4304 63.5774 20.8893 64.1419 21.1769C64.7837 21.5039 65.6237 21.5039 67.3039 21.5039H80.0078" stroke="#BBBBBB"/>
<path d="M27 39C27 37.3431 28.3431 36 30 36H54C55.6569 36 57 37.3431 57 39C57 40.6569 55.6569 42 54 42H30C28.3431 42 27 40.6569 27 39Z" fill="#A9DDDA"/>
<mask id="path-4-inside-1_19262_290690" fill="white">
<rect x="27" y="48" width="42" height="18" rx="3"/>
</mask>
<rect x="27" y="48" width="42" height="18" rx="3" stroke="#28ABA3" stroke-width="12" mask="url(#path-4-inside-1_19262_290690)"/>
</svg>
