<svg width="96" height="96" viewBox="0 0 96 96" fill="none" xmlns="http://www.w3.org/2000/svg">
<path d="M15.5 7C15.5 5.067 17.067 3.5 19 3.5H61.7574C62.4204 3.5 63.0563 3.76339 63.5251 4.23223L79.7678 20.4749C80.2366 20.9437 80.5 21.5796 80.5 22.2426V89C80.5 90.933 78.933 92.5 77 92.5H19C17.067 92.5 15.5 90.933 15.5 89V7Z" fill="white" stroke="#BBBBBB"/>
<path d="M62.5039 4V16.7039C62.5039 18.3841 62.5039 19.2241 62.8309 19.8659C63.1185 20.4304 63.5774 20.8893 64.1419 21.1769C64.7837 21.5039 65.6237 21.5039 67.3039 21.5039H80.0078" stroke="#BBBBBB"/>
<path fill-rule="evenodd" clip-rule="evenodd" d="M54.8787 57.8787C53.7071 59.0503 53.7071 60.9497 54.8787 62.1213C56.0502 63.2929 57.9497 63.2929 59.1213 62.1213L68.1213 53.1213C68.6839 52.5587 69 51.7956 69 51C69 50.2044 68.6839 49.4413 68.1213 48.8787L59.1213 39.8787C57.9497 38.7071 56.0503 38.7071 54.8787 39.8787C53.7071 41.0503 53.7071 42.9497 54.8787 44.1213L61.7574 51L54.8787 57.8787ZM41.1213 44.1213C42.2929 42.9497 42.2929 41.0503 41.1213 39.8787C39.9497 38.7071 38.0503 38.7071 36.8787 39.8787L27.8787 48.8787C26.7071 50.0503 26.7071 51.9497 27.8787 53.1213L36.8787 62.1213C38.0503 63.2929 39.9497 63.2929 41.1213 62.1213C42.2929 60.9497 42.2929 59.0503 41.1213 57.8787L34.2426 51L41.1213 44.1213Z" fill="#A1A1A1"/>
</svg>
