<svg width="96" height="96" viewBox="0 0 96 96" fill="none" xmlns="http://www.w3.org/2000/svg">
<path d="M15.5 7C15.5 5.067 17.067 3.5 19 3.5H61.7574C62.4204 3.5 63.0563 3.76339 63.5251 4.23223L79.7678 20.4749C80.2366 20.9437 80.5 21.5796 80.5 22.2426V89C80.5 90.933 78.933 92.5 77 92.5H19C17.067 92.5 15.5 90.933 15.5 89V7Z" fill="white" stroke="#BBBBBB"/>
<path d="M62.5039 4V16.7039C62.5039 18.3841 62.5039 19.2241 62.8309 19.8659C63.1185 20.4304 63.5774 20.8893 64.1419 21.1769C64.7837 21.5039 65.6237 21.5039 67.3039 21.5039H80.0078" stroke="#BBBBBB"/>
<path opacity="0.6" d="M58.7424 51.6818C59.3013 50.7727 60.6987 50.7727 61.2576 51.6818L68.8033 63.9545C69.3622 64.8636 68.6635 66 67.5457 66H52.4543C51.3365 66 50.6378 64.8636 51.1967 63.9545L58.7424 51.6818Z" fill="#A671D8"/>
<path d="M42.3646 39.7297C42.9603 38.7568 44.4495 38.7568 45.0451 39.7297L59.7904 63.8108C60.386 64.7838 59.6414 66 58.4501 66H28.5499C27.3586 66 26.614 64.7838 27.2096 63.8108L42.3646 39.7297Z" fill="#A671D8"/>
<circle cx="57" cy="44" r="3" fill="#A671D8"/>
</svg>
