<svg width="96" height="96" viewBox="0 0 96 96" fill="none" xmlns="http://www.w3.org/2000/svg">
<g clip-path="url(#clip0_4003_285)">
<path d="M10 1H57L86 30V95H10V1Z" fill="white" style="fill:white;fill:white;fill-opacity:1;"/>
<path fill-rule="evenodd" clip-rule="evenodd" d="M10 95H86V30L57 1H10V95ZM57 0H9V96H87V30L57 0Z" fill="url(#paint0_linear_4003_285)" style=""/>
<path fill-rule="evenodd" clip-rule="evenodd" d="M23 58C21.3431 58 20 59.3431 20 61V86C20 87.6569 21.3431 89 23 89H73C74.6569 89 76 87.6569 76 86V61C76 59.3431 74.6569 58 73 58H23Z" fill="#5E93A2" style="fill:#5E93A2;fill:color(display-p3 0.3686 0.5765 0.6353);fill-opacity:1;"/>
<path d="M59 29L68 38L56 50H61L73 38L64 29H59Z" fill="#BFBFBF" style="fill:#BFBFBF;fill:color(display-p3 0.7490 0.7490 0.7490);fill-opacity:1;"/>
<path d="M40 50H35L23 38L35 26H40L28 38L40 50Z" fill="#BFBFBF" style="fill:#BFBFBF;fill:color(display-p3 0.7490 0.7490 0.7490);fill-opacity:1;"/>
<path d="M41 36H45V40H41V36Z" fill="#BFBFBF" style="fill:#BFBFBF;fill:color(display-p3 0.7490 0.7490 0.7490);fill-opacity:1;"/>
<path d="M51 36H55V40H51V36Z" fill="#BFBFBF" style="fill:#BFBFBF;fill:color(display-p3 0.7490 0.7490 0.7490);fill-opacity:1;"/>
<path opacity="0.3" d="M56 30V1H57V29H86L87 30H56Z" fill="black" style="fill:black;fill:black;fill-opacity:1;"/>
<path d="M21.8422 80V68.5469H25.3031L27.3813 76.3594L29.4359 68.5469H32.9047V80H30.7563V70.9844L28.4828 80H26.2563L23.9906 70.9844V80H21.8422ZM34.4094 80V68.5469H36.7219V73.0547H41.2531V68.5469H43.5656V80H41.2531V74.9922H36.7219V80H34.4094ZM47.7422 80V70.4844H44.3438V68.5469H53.4453V70.4844H50.0547V80H47.7422ZM54.1141 80V68.5469H57.575L59.6531 76.3594L61.7078 68.5469H65.1766V80H63.0281V70.9844L60.7547 80H58.5281L56.2625 70.9844V80H54.1141ZM66.7359 80V68.6406H69.0484V78.0703H74.7984V80H66.7359Z" fill="white" style="fill:white;fill:white;fill-opacity:1;"/>
</g>
<defs>
<linearGradient id="paint0_linear_4003_285" x1="48" y1="94.25" x2="48" y2="1.21299e-06" gradientUnits="userSpaceOnUse">
<stop stop-color="#A8A8A8" style="stop-color:#A8A8A8;stop-color:color(display-p3 0.6588 0.6588 0.6588);stop-opacity:1;"/>
<stop offset="1" stop-color="#DADADA" style="stop-color:#DADADA;stop-color:color(display-p3 0.8549 0.8549 0.8549);stop-opacity:1;"/>
</linearGradient>
<clipPath id="clip0_4003_285">
<rect width="96" height="96" fill="white" style="fill:white;fill:white;fill-opacity:1;"/>
</clipPath>
</defs>
</svg>
