<svg width="96" height="96" viewBox="0 0 96 96" fill="none" xmlns="http://www.w3.org/2000/svg">
<path d="M15.5 7C15.5 5.067 17.067 3.5 19 3.5H61.7574C62.4204 3.5 63.0563 3.76339 63.5251 4.23223L79.7678 20.4749C80.2366 20.9437 80.5 21.5796 80.5 22.2426V89C80.5 90.933 78.933 92.5 77 92.5H19C17.067 92.5 15.5 90.933 15.5 89V7Z" fill="white" stroke="#BBBBBB"/>
<path d="M62.5039 4V16.7039C62.5039 18.3841 62.5039 19.2241 62.8309 19.8659C63.1185 20.4304 63.5774 20.8893 64.1419 21.1769C64.7837 21.5039 65.6237 21.5039 67.3039 21.5039H80.0078" stroke="#BBBBBB"/>
<path fill-rule="evenodd" clip-rule="evenodd" d="M30 36C28.3431 36 27 37.3431 27 39C27 40.6569 28.3431 42 30 42H66C67.6569 42 69 40.6569 69 39C69 37.3431 67.6569 36 66 36H30ZM27 51C27 49.3431 28.3431 48 30 48H39C40.6569 48 42 49.3431 42 51C42 52.6569 40.6569 54 39 54H30C28.3431 54 27 52.6569 27 51ZM27 63C27 61.3431 28.3431 60 30 60H39C40.6569 60 42 61.3431 42 63C42 64.6569 40.6569 66 39 66H30C28.3431 66 27 64.6569 27 63Z" fill="#F5A99F"/>
<path d="M48 57.6C48 54.2397 48 52.5595 48.654 51.2761C49.2292 50.1471 50.1471 49.2292 51.2761 48.654C52.5595 48 54.2397 48 57.6 48H74.4C77.7603 48 79.4405 48 80.7239 48.654C81.8529 49.2292 82.7708 50.1471 83.346 51.2761C84 52.5595 84 54.2397 84 57.6V74.4C84 77.7603 84 79.4405 83.346 80.7239C82.7708 81.8529 81.8529 82.7708 80.7239 83.346C79.4405 84 77.7603 84 74.4 84H57.6C54.2397 84 52.5595 84 51.2761 83.346C50.1471 82.7708 49.2292 81.8529 48.654 80.7239C48 79.4405 48 77.7603 48 74.4V57.6Z" fill="#E52910"/>
<path fill-rule="evenodd" clip-rule="evenodd" d="M63.0463 54C63.0463 57.4941 62.0483 61.6152 60.3614 65.4173C58.6679 69.2349 56.3822 72.5007 54 74.4261L56.5884 78C63.009 73.675 70.1185 70.7105 76.9975 71.7031L78 67.4069C72.1387 65.435 67.4357 59.517 67.4357 54H63.0463ZM65.909 63.1484C65.4702 64.5377 64.9504 65.9092 64.3625 67.2319C64.0452 67.9483 63.7073 68.6544 63.3447 69.3501C65.3869 68.5347 67.4971 67.8944 69.6512 67.5044C68.2157 66.2289 66.957 64.7637 65.909 63.1484Z" fill="white"/>
</svg>
