<svg width="96" height="96" viewBox="0 0 96 96" fill="none" xmlns="http://www.w3.org/2000/svg">
<path d="M15.5 7C15.5 5.067 17.067 3.5 19 3.5H61.7574C62.4204 3.5 63.0563 3.76339 63.5251 4.23223L79.7678 20.4749C80.2366 20.9437 80.5 21.5796 80.5 22.2426V89C80.5 90.933 78.933 92.5 77 92.5H19C17.067 92.5 15.5 90.933 15.5 89V7Z" fill="white" stroke="#BBBBBB"/>
<path d="M62.5039 4V16.7039C62.5039 18.3841 62.5039 19.2241 62.8309 19.8659C63.1185 20.4304 63.5774 20.8893 64.1419 21.1769C64.7837 21.5039 65.6237 21.5039 67.3039 21.5039H80.0078" stroke="#BBBBBB"/>
<path d="M27.5 42C27.2239 42 26.9991 41.7761 27.0083 41.5001C27.0683 39.7008 27.4518 37.9255 28.1418 36.2597C28.8956 34.4399 30.0005 32.7863 31.3934 31.3934C32.7863 30.0005 34.4399 28.8956 36.2597 28.1418C37.9255 27.4518 39.7008 27.0683 41.5001 27.0083C41.7761 26.9991 42 27.2239 42 27.5L42 41.5C42 41.7761 41.7761 42 41.5 42H27.5Z" fill="#F8C9A4"/>
<path d="M30.5 48C30.2239 48 29.9993 48.224 30.0069 48.5C30.101 51.8851 31.1484 55.1789 33.0335 58.0003C35.0114 60.9603 37.8226 63.2675 41.1117 64.6298C44.4008 65.9922 48.02 66.3487 51.5116 65.6541C55.0033 64.9596 58.2106 63.2453 60.7279 60.7279C63.2453 58.2106 64.9596 55.0033 65.6541 51.5116C66.3487 48.02 65.9922 44.4008 64.6298 41.1117C63.2675 37.8226 60.9603 35.0114 58.0003 33.0335C55.1789 31.1484 51.8851 30.101 48.5 30.0069C48.224 29.9993 48 30.2239 48 30.5V47.5C48 47.7761 47.7761 48 47.5 48H30.5Z" fill="#F8C9A4"/>
<path d="M48 57.6C48 54.2397 48 52.5595 48.654 51.2761C49.2292 50.1471 50.1471 49.2292 51.2761 48.654C52.5595 48 54.2397 48 57.6 48H74.4C77.7603 48 79.4405 48 80.7239 48.654C81.8529 49.2292 82.7708 50.1471 83.346 51.2761C84 52.5595 84 54.2397 84 57.6V74.4C84 77.7603 84 79.4405 83.346 80.7239C82.7708 81.8529 81.8529 82.7708 80.7239 83.346C79.4405 84 77.7603 84 74.4 84H57.6C54.2397 84 52.5595 84 51.2761 83.346C50.1471 82.7708 49.2292 81.8529 48.654 80.7239C48 79.4405 48 77.7603 48 74.4V57.6Z" fill="#ED771C"/>
<path d="M66.0396 57C68.7525 57 70.7525 57.5042 72.0396 58.5126C73.3465 59.5042 74 60.547 74 62.3285C74 63.1352 73.8614 63.9083 73.5842 64.6478C73.3069 65.3705 72.8416 66.0176 72.1881 66.589C71.5545 67.1604 70.7129 67.6142 69.6634 67.9503C68.6337 68.2865 67.3564 68.4545 65.8317 68.4545H64.0495V75H59V57H66.0396ZM65.8614 60.5042H64.0495V65.2941H65.3861C66.0792 65.2941 66.6832 65.2101 67.198 65.042C67.7327 64.874 68.1485 64.605 68.4455 64.2353C68.7426 63.8655 68.8911 63.3866 68.8911 62.7983C68.8911 62.0588 68.6436 61.4958 68.1485 61.1092C67.6535 60.7059 66.8911 60.5042 65.8614 60.5042Z" fill="white"/>
</svg>
