<svg width="96" height="96" viewBox="0 0 96 96" fill="none" xmlns="http://www.w3.org/2000/svg">
<path d="M15.5 7C15.5 5.067 17.067 3.5 19 3.5H61.7574C62.4204 3.5 63.0563 3.76339 63.5251 4.23223L79.7678 20.4749C80.2366 20.9437 80.5 21.5796 80.5 22.2426V89C80.5 90.933 78.933 92.5 77 92.5H19C17.067 92.5 15.5 90.933 15.5 89V7Z" fill="white" stroke="#BBBBBB"/>
<path d="M62.5039 4V16.7039C62.5039 18.3841 62.5039 19.2241 62.8309 19.8659C63.1185 20.4304 63.5774 20.8893 64.1419 21.1769C64.7837 21.5039 65.6237 21.5039 67.3039 21.5039H80.0078" stroke="#BBBBBB"/>
<path d="M27.5 45C27.2239 45 26.9991 44.7761 27.0083 44.5001C27.0683 42.7008 27.4518 40.9255 28.1418 39.2597C28.8956 37.4399 30.0005 35.7863 31.3934 34.3934C32.7863 33.0005 34.4399 31.8956 36.2597 31.1418C37.9255 30.4518 39.7008 30.0683 41.5001 30.0083C41.7761 29.9991 42 30.2239 42 30.5L42 44.5C42 44.7761 41.7761 45 41.5 45H27.5Z" fill="#ED771C"/>
<path d="M30.5 51C30.2239 51 29.9993 51.224 30.0069 51.5C30.101 54.8851 31.1484 58.1789 33.0335 61.0003C35.0114 63.9603 37.8226 66.2675 41.1117 67.6298C44.4008 68.9922 48.02 69.3487 51.5116 68.6541C55.0033 67.9596 58.2106 66.2453 60.7279 63.7279C63.2453 61.2106 64.9596 58.0033 65.6541 54.5116C66.3487 51.02 65.9922 47.4008 64.6298 44.1117C63.2675 40.8226 60.9603 38.0114 58.0003 36.0335C55.1789 34.1484 51.8851 33.101 48.5 33.0069C48.224 32.9993 48 33.2239 48 33.5V50.5C48 50.7761 47.7761 51 47.5 51H30.5Z" fill="#F8C9A4"/>
</svg>
