<svg width="96" height="96" viewBox="0 0 96 96" fill="none" xmlns="http://www.w3.org/2000/svg">
<path d="M15.5 7C15.5 5.067 17.067 3.5 19 3.5H61.7574C62.4204 3.5 63.0563 3.76339 63.5251 4.23223L79.7678 20.4749C80.2366 20.9437 80.5 21.5796 80.5 22.2426V89C80.5 90.933 78.933 92.5 77 92.5H19C17.067 92.5 15.5 90.933 15.5 89V7Z" fill="white" stroke="#BBBBBB"/>
<path d="M62.5039 4V16.7039C62.5039 18.3841 62.5039 19.2241 62.8309 19.8659C63.1185 20.4304 63.5774 20.8893 64.1419 21.1769C64.7837 21.5039 65.6237 21.5039 67.3039 21.5039H80.0078" stroke="#BBBBBB"/>
<path d="M42 46.671V44.079L60 37.329V39.921L42 46.671Z" stroke="#D56DB6" stroke-width="6" stroke-linecap="round" stroke-linejoin="round"/>
<path opacity="0.5" fill-rule="evenodd" clip-rule="evenodd" d="M63 39H60V63H63V39ZM42 45H39V69H42V45Z" fill="#D56DB6"/>
<path d="M42 69C42 72.3137 39.3137 75 36 75C32.6863 75 30 72.3137 30 69C30 65.6863 32.6863 63 36 63C39.3137 63 42 65.6863 42 69Z" fill="#D56DB6"/>
<path d="M51 63C51 59.6863 53.6863 57 57 57C60.3137 57 63 59.6863 63 63C63 66.3137 60.3137 69 57 69C53.6863 69 51 66.3137 51 63Z" fill="#D56DB6"/>
</svg>
