<svg width="96" height="96" viewBox="0 0 96 96" fill="none" xmlns="http://www.w3.org/2000/svg">
<g clip-path="url(#clip0_3999_18439)">
<path d="M10 1H57L86 30V95H10V1Z" fill="white" style="fill:white;fill:white;fill-opacity:1;"/>
<path fill-rule="evenodd" clip-rule="evenodd" d="M10 95H86V30L57 1H10V95ZM57 0H9V96H87V30L57 0Z" fill="url(#paint0_linear_3999_18439)" style=""/>
<path fill-rule="evenodd" clip-rule="evenodd" d="M23 58C21.3431 58 20 59.3431 20 61V86C20 87.6569 21.3431 89 23 89H73C74.6569 89 76 87.6569 76 86V61C76 59.3431 74.6569 58 73 58H23Z" fill="#1E7AAA" style="fill:#1E7AAA;fill:color(display-p3 0.1176 0.4784 0.6667);fill-opacity:1;"/>
<path d="M27.4961 76.3418L30.3086 76.0684C30.4779 77.0124 30.8197 77.7057 31.334 78.1484C31.8548 78.5911 32.5547 78.8125 33.4336 78.8125C34.3646 78.8125 35.0645 78.6172 35.5332 78.2266C36.0085 77.8294 36.2461 77.3672 36.2461 76.8398C36.2461 76.5013 36.1452 76.2148 35.9434 75.9805C35.748 75.7396 35.403 75.5312 34.9082 75.3555C34.5697 75.2383 33.7982 75.0299 32.5938 74.7305C31.0443 74.3464 29.957 73.8743 29.332 73.3145C28.4531 72.5267 28.0137 71.5664 28.0137 70.4336C28.0137 69.7044 28.2188 69.0241 28.6289 68.3926C29.0456 67.7546 29.6413 67.2695 30.416 66.9375C31.1973 66.6055 32.138 66.4395 33.2383 66.4395C35.0352 66.4395 36.3861 66.8333 37.291 67.6211C38.2025 68.4089 38.681 69.4603 38.7266 70.7754L35.8359 70.9023C35.7122 70.1667 35.4453 69.6393 35.0352 69.3203C34.6315 68.9948 34.0228 68.832 33.209 68.832C32.3691 68.832 31.7116 69.0046 31.2363 69.3496C30.9303 69.571 30.7773 69.8672 30.7773 70.2383C30.7773 70.5768 30.9206 70.8665 31.207 71.1074C31.5716 71.4134 32.457 71.7324 33.8633 72.0645C35.2695 72.3965 36.3079 72.7415 36.9785 73.0996C37.6556 73.4512 38.1829 73.9362 38.5605 74.5547C38.9447 75.1667 39.1367 75.9251 39.1367 76.8301C39.1367 77.6504 38.9089 78.4186 38.4531 79.1348C37.9974 79.8509 37.3529 80.3848 36.5195 80.7363C35.6862 81.0814 34.6478 81.2539 33.4043 81.2539C31.5944 81.2539 30.2044 80.8372 29.2344 80.0039C28.2643 79.1641 27.6849 77.9434 27.4961 76.3418ZM43.791 81V69.1055H39.543V66.6836H50.9199V69.1055H46.6816V81H43.791ZM53.8262 81L50.4082 66.6836H53.3672L55.5254 76.5176L58.1426 66.6836H61.5801L64.0898 76.6836L66.2871 66.6836H69.1973L65.7207 81H62.6543L59.8027 70.2969L56.9609 81H53.8262Z" fill="white" style="fill:white;fill:white;fill-opacity:1;"/>
<path d="M57 11H20V18H57V11Z" fill="#BFBFBF" style="fill:#BFBFBF;fill:color(display-p3 0.7490 0.7490 0.7490);fill-opacity:1;"/>
<path d="M57 22H20V29H57V22Z" fill="#BFBFBF" style="fill:#BFBFBF;fill:color(display-p3 0.7490 0.7490 0.7490);fill-opacity:1;"/>
<path d="M76 33H20V40H76V33Z" fill="#BFBFBF" style="fill:#BFBFBF;fill:color(display-p3 0.7490 0.7490 0.7490);fill-opacity:1;"/>
<path d="M20 44H61V51H20V44Z" fill="#BFBFBF" style="fill:#BFBFBF;fill:color(display-p3 0.7490 0.7490 0.7490);fill-opacity:1;"/>
<path opacity="0.3" d="M56 30V1H57V29H86L87 30H56Z" fill="black" style="fill:black;fill:black;fill-opacity:1;"/>
</g>
<defs>
<linearGradient id="paint0_linear_3999_18439" x1="48" y1="94.25" x2="48" y2="1.21299e-06" gradientUnits="userSpaceOnUse">
<stop stop-color="#A8A8A8" style="stop-color:#A8A8A8;stop-color:color(display-p3 0.6588 0.6588 0.6588);stop-opacity:1;"/>
<stop offset="1" stop-color="#DADADA" style="stop-color:#DADADA;stop-color:color(display-p3 0.8549 0.8549 0.8549);stop-opacity:1;"/>
</linearGradient>
<clipPath id="clip0_3999_18439">
<rect width="96" height="96" fill="white" style="fill:white;fill:white;fill-opacity:1;"/>
</clipPath>
</defs>
</svg>
