<svg width="96" height="96" viewBox="0 0 96 96" fill="none" xmlns="http://www.w3.org/2000/svg">
<path d="M15.5 7C15.5 5.067 17.067 3.5 19 3.5H61.7574C62.4204 3.5 63.0563 3.76339 63.5251 4.23223L79.7678 20.4749C80.2366 20.9437 80.5 21.5796 80.5 22.2426V89C80.5 90.933 78.933 92.5 77 92.5H19C17.067 92.5 15.5 90.933 15.5 89V7Z" fill="white" stroke="#BBBBBB"/>
<path d="M62.5039 4V16.7039C62.5039 18.3841 62.5039 19.2241 62.8309 19.8659C63.1185 20.4304 63.5774 20.8893 64.1419 21.1769C64.7837 21.5039 65.6237 21.5039 67.3039 21.5039H80.0078" stroke="#BBBBBB"/>
<path fill-rule="evenodd" clip-rule="evenodd" d="M24 48C24 46.3431 25.3431 45 27 45H45V51H51V45L69 45C70.6569 45 72 46.3431 72 48C72 49.6569 70.6569 51 69 51L59.5143 51C63.5011 54.5977 66.0117 60.016 66.0117 66H63.0117C63.0117 59.2705 59.3813 53.5889 54.2506 51L41.7494 51C36.6187 53.5889 32.9883 59.2705 32.9883 66H29.9883C29.9883 60.016 32.4989 54.5977 36.4857 51L27 51C25.3431 51 24 49.6569 24 48Z" fill="#CAAAE8"/>
<path fill-rule="evenodd" clip-rule="evenodd" d="M45 45V51H51V45H45ZM42 39C40.3431 39 39 40.3431 39 42V54C39 55.6569 40.3431 57 42 57H54C55.6569 57 57 55.6569 57 54V42C57 40.3431 55.6569 39 54 39H42ZM33 67.5C33 66.6716 32.3284 66 31.5 66C30.6716 66 30 66.6716 30 67.5C30 68.3284 30.6716 69 31.5 69C32.3284 69 33 68.3284 33 67.5ZM31.5 63C29.0147 63 27 65.0147 27 67.5C27 69.9853 29.0147 72 31.5 72C33.9853 72 36 69.9853 36 67.5C36 65.0147 33.9853 63 31.5 63ZM64.5 66C65.3284 66 66 66.6716 66 67.5C66 68.3284 65.3284 69 64.5 69C63.6716 69 63 68.3284 63 67.5C63 66.6716 63.6716 66 64.5 66ZM60 67.5C60 65.0147 62.0147 63 64.5 63C66.9853 63 69 65.0147 69 67.5C69 69.9853 66.9853 72 64.5 72C62.0147 72 60 69.9853 60 67.5Z" fill="#A671D8"/>
</svg>
