<svg width="96" height="96" viewBox="0 0 96 96" fill="none" xmlns="http://www.w3.org/2000/svg">
<g clip-path="url(#clip0_3999_18685)">
<path d="M10 1H57L86 30V95H10V1Z" fill="white" style="fill:white;fill:white;fill-opacity:1;"/>
<path fill-rule="evenodd" clip-rule="evenodd" d="M10 95H86V30L57 1H10V95ZM57 0H9V96H87V30L57 0Z" fill="url(#paint0_linear_3999_18685)" style=""/>
<path fill-rule="evenodd" clip-rule="evenodd" d="M23 58C21.3431 58 20 59.3431 20 61V86C20 87.6569 21.3431 89 23 89H73C74.6569 89 76 87.6569 76 86V61C76 59.3431 74.6569 58 73 58H23Z" fill="#6AAA1E" style="fill:#6AAA1E;fill:color(display-p3 0.4157 0.6667 0.1176);fill-opacity:1;"/>
<path fill-rule="evenodd" clip-rule="evenodd" d="M57 11H20V50H76V29H57V11ZM73 41V47H58V41H73ZM73 32V38H58V32H73ZM55 14H41V20H55V14ZM55 23H41V29H55V23ZM55 32H41V38H55V32ZM55 41H41V47H55V41ZM23 14H38V20H23V14ZM23 23H38V29H23V23ZM23 32H38V38H23V32ZM23 41H38V47H23V41Z" fill="#BFBFBF" style="fill:#BFBFBF;fill:color(display-p3 0.7490 0.7490 0.7490);fill-opacity:1;"/>
<path opacity="0.3" d="M56 30V1H57V29H86L87 30H56Z" fill="black" style="fill:black;fill:black;fill-opacity:1;"/>
<path d="M29.1562 76.3418L31.9688 76.0684C32.138 77.0124 32.4798 77.7057 32.9941 78.1484C33.515 78.5911 34.2148 78.8125 35.0938 78.8125C36.0247 78.8125 36.7246 78.6172 37.1934 78.2266C37.6686 77.8294 37.9062 77.3672 37.9062 76.8398C37.9062 76.5013 37.8053 76.2148 37.6035 75.9805C37.4082 75.7396 37.0632 75.5312 36.5684 75.3555C36.2298 75.2383 35.4583 75.0299 34.2539 74.7305C32.7044 74.3464 31.6172 73.8743 30.9922 73.3145C30.1133 72.5267 29.6738 71.5664 29.6738 70.4336C29.6738 69.7044 29.8789 69.0241 30.2891 68.3926C30.7057 67.7546 31.3014 67.2695 32.0762 66.9375C32.8574 66.6055 33.7982 66.4395 34.8984 66.4395C36.6953 66.4395 38.0462 66.8333 38.9512 67.6211C39.8626 68.4089 40.3411 69.4603 40.3867 70.7754L37.4961 70.9023C37.3724 70.1667 37.1055 69.6393 36.6953 69.3203C36.2917 68.9948 35.6829 68.832 34.8691 68.832C34.0293 68.832 33.3717 69.0046 32.8965 69.3496C32.5905 69.571 32.4375 69.8672 32.4375 70.2383C32.4375 70.5768 32.5807 70.8665 32.8672 71.1074C33.2318 71.4134 34.1172 71.7324 35.5234 72.0645C36.9297 72.3965 37.9681 72.7415 38.6387 73.0996C39.3158 73.4512 39.8431 73.9362 40.2207 74.5547C40.6048 75.1667 40.7969 75.9251 40.7969 76.8301C40.7969 77.6504 40.569 78.4186 40.1133 79.1348C39.6576 79.8509 39.013 80.3848 38.1797 80.7363C37.3464 81.0814 36.3079 81.2539 35.0645 81.2539C33.2546 81.2539 31.8646 80.8372 30.8945 80.0039C29.9245 79.1641 29.3451 77.9434 29.1562 76.3418ZM40.7734 81L45.666 73.5293L41.2324 66.6836H44.6113L47.4824 71.2832L50.2949 66.6836H53.6445L49.1914 73.6367L54.084 81H50.5977L47.4238 76.0488L44.2402 81H40.7734ZM63.7285 75.7363L66.5312 76.625C66.1016 78.1875 65.3854 79.3496 64.3828 80.1113C63.3867 80.8665 62.1204 81.2441 60.584 81.2441C58.6829 81.2441 57.1204 80.5964 55.8965 79.3008C54.6725 77.9987 54.0605 76.2214 54.0605 73.9688C54.0605 71.5859 54.6758 69.737 55.9062 68.4219C57.1367 67.1003 58.7546 66.4395 60.7598 66.4395C62.5111 66.4395 63.9336 66.957 65.0273 67.9922C65.6784 68.6042 66.1667 69.4831 66.4922 70.6289L63.6309 71.3125C63.4616 70.5703 63.1068 69.9844 62.5664 69.5547C62.0326 69.125 61.3815 68.9102 60.6133 68.9102C59.5521 68.9102 58.6895 69.291 58.0254 70.0527C57.3678 70.8145 57.0391 72.0482 57.0391 73.7539C57.0391 75.5638 57.3646 76.8529 58.0156 77.6211C58.6667 78.3893 59.513 78.7734 60.5547 78.7734C61.3229 78.7734 61.9837 78.5293 62.5371 78.041C63.0905 77.5527 63.4876 76.7845 63.7285 75.7363Z" fill="white" style="fill:white;fill:white;fill-opacity:1;"/>
</g>
<defs>
<linearGradient id="paint0_linear_3999_18685" x1="48" y1="94.25" x2="48" y2="1.21299e-06" gradientUnits="userSpaceOnUse">
<stop stop-color="#A8A8A8" style="stop-color:#A8A8A8;stop-color:color(display-p3 0.6588 0.6588 0.6588);stop-opacity:1;"/>
<stop offset="1" stop-color="#DADADA" style="stop-color:#DADADA;stop-color:color(display-p3 0.8549 0.8549 0.8549);stop-opacity:1;"/>
</linearGradient>
<clipPath id="clip0_3999_18685">
<rect width="96" height="96" fill="white" style="fill:white;fill:white;fill-opacity:1;"/>
</clipPath>
</defs>
</svg>
