<svg width="96" height="96" viewBox="0 0 96 96" fill="none" xmlns="http://www.w3.org/2000/svg">
<g clip-path="url(#clip0_3999_18697)">
<path d="M10 1H57L86 30V95H10V1Z" fill="white" style="fill:white;fill:white;fill-opacity:1;"/>
<path fill-rule="evenodd" clip-rule="evenodd" d="M10 95H86V30L57 1H10V95ZM57 0H9V96H87V30L57 0Z" fill="url(#paint0_linear_3999_18697)" style=""/>
<path fill-rule="evenodd" clip-rule="evenodd" d="M23 58C21.3431 58 20 59.3431 20 61V86C20 87.6569 21.3431 89 23 89H73C74.6569 89 76 87.6569 76 86V61C76 59.3431 74.6569 58 73 58H23Z" fill="#F36700" style="fill:#F36700;fill:color(display-p3 0.9529 0.4039 0.0000);fill-opacity:1;"/>
<path d="M57 11H20V51H76V29H73V48H23V14H57V11Z" fill="#BFBFBF" style="fill:#BFBFBF;fill:color(display-p3 0.7490 0.7490 0.7490);fill-opacity:1;"/>
<path d="M32 17H26V23H32V17Z" fill="#BFBFBF" style="fill:#BFBFBF;fill:color(display-p3 0.7490 0.7490 0.7490);fill-opacity:1;"/>
<path d="M26 28H32V34H26V28Z" fill="#BFBFBF" style="fill:#BFBFBF;fill:color(display-p3 0.7490 0.7490 0.7490);fill-opacity:1;"/>
<path d="M32 39H26V45H32V39Z" fill="#BFBFBF" style="fill:#BFBFBF;fill:color(display-p3 0.7490 0.7490 0.7490);fill-opacity:1;"/>
<path d="M35 17H46V20H52V23H35V17Z" fill="#BFBFBF" style="fill:#BFBFBF;fill:color(display-p3 0.7490 0.7490 0.7490);fill-opacity:1;"/>
<path d="M57 28V29H62V31H50V34H35V28H57Z" fill="#BFBFBF" style="fill:#BFBFBF;fill:color(display-p3 0.7490 0.7490 0.7490);fill-opacity:1;"/>
<path d="M70 39H35V45H59V42H70V39Z" fill="#BFBFBF" style="fill:#BFBFBF;fill:color(display-p3 0.7490 0.7490 0.7490);fill-opacity:1;"/>
<path opacity="0.3" d="M56 30V1H57V29H86L87 30H56Z" fill="black" style="fill:black;fill:black;fill-opacity:1;"/>
<path d="M33.5996 76.3418L36.4121 76.0684C36.5814 77.0124 36.9232 77.7057 37.4375 78.1484C37.9583 78.5911 38.6582 78.8125 39.5371 78.8125C40.4681 78.8125 41.168 78.6172 41.6367 78.2266C42.112 77.8294 42.3496 77.3672 42.3496 76.8398C42.3496 76.5013 42.2487 76.2148 42.0469 75.9805C41.8516 75.7396 41.5065 75.5312 41.0117 75.3555C40.6732 75.2383 39.9017 75.0299 38.6973 74.7305C37.1478 74.3464 36.0605 73.8743 35.4355 73.3145C34.5566 72.5267 34.1172 71.5664 34.1172 70.4336C34.1172 69.7044 34.3223 69.0241 34.7324 68.3926C35.1491 67.7546 35.7448 67.2695 36.5195 66.9375C37.3008 66.6055 38.2415 66.4395 39.3418 66.4395C41.1387 66.4395 42.4896 66.8333 43.3945 67.6211C44.306 68.4089 44.7845 69.4603 44.8301 70.7754L41.9395 70.9023C41.8158 70.1667 41.5488 69.6393 41.1387 69.3203C40.735 68.9948 40.1263 68.832 39.3125 68.832C38.4727 68.832 37.8151 69.0046 37.3398 69.3496C37.0339 69.571 36.8809 69.8672 36.8809 70.2383C36.8809 70.5768 37.0241 70.8665 37.3105 71.1074C37.6751 71.4134 38.5605 71.7324 39.9668 72.0645C41.373 72.3965 42.4115 72.7415 43.082 73.0996C43.7591 73.4512 44.2865 73.9362 44.6641 74.5547C45.0482 75.1667 45.2402 75.9251 45.2402 76.8301C45.2402 77.6504 45.0124 78.4186 44.5566 79.1348C44.1009 79.8509 43.4564 80.3848 42.623 80.7363C41.7897 81.0814 40.7513 81.2539 39.5078 81.2539C37.6979 81.2539 36.3079 80.8372 35.3379 80.0039C34.3678 79.1641 33.7884 77.9434 33.5996 76.3418ZM45.2168 81L50.1094 73.5293L45.6758 66.6836H49.0547L51.9258 71.2832L54.7383 66.6836H58.0879L53.6348 73.6367L58.5273 81H55.041L51.8672 76.0488L48.6836 81H45.2168ZM58.9238 81V66.6836H61.8145V81H58.9238Z" fill="white" style="fill:white;fill:white;fill-opacity:1;"/>
</g>
<defs>
<linearGradient id="paint0_linear_3999_18697" x1="48" y1="94.25" x2="48" y2="1.21299e-06" gradientUnits="userSpaceOnUse">
<stop stop-color="#A8A8A8" style="stop-color:#A8A8A8;stop-color:color(display-p3 0.6588 0.6588 0.6588);stop-opacity:1;"/>
<stop offset="1" stop-color="#DADADA" style="stop-color:#DADADA;stop-color:color(display-p3 0.8549 0.8549 0.8549);stop-opacity:1;"/>
</linearGradient>
<clipPath id="clip0_3999_18697">
<rect width="96" height="96" fill="white" style="fill:white;fill:white;fill-opacity:1;"/>
</clipPath>
</defs>
</svg>
