<svg width="96" height="96" viewBox="0 0 96 96" fill="none" xmlns="http://www.w3.org/2000/svg">
<g clip-path="url(#clip0_3999_18454)">
<path d="M10 1H57L86 30V95H10V1Z" fill="white" style="fill:white;fill:white;fill-opacity:1;"/>
<path fill-rule="evenodd" clip-rule="evenodd" d="M10 95H86V30L57 1H10V95ZM57 0H9V96H87V30L57 0Z" fill="url(#paint0_linear_3999_18454)" style=""/>
<path fill-rule="evenodd" clip-rule="evenodd" d="M23 58C21.3431 58 20 59.3431 20 61V86C20 87.6569 21.3431 89 23 89H73C74.6569 89 76 87.6569 76 86V61C76 59.3431 74.6569 58 73 58H23Z" fill="#1E7AAA" style="fill:#1E7AAA;fill:color(display-p3 0.1176 0.4784 0.6667);fill-opacity:1;"/>
<path d="M26.9395 76.3418L29.752 76.0684C29.9212 77.0124 30.263 77.7057 30.7773 78.1484C31.2982 78.5911 31.998 78.8125 32.877 78.8125C33.8079 78.8125 34.5078 78.6172 34.9766 78.2266C35.4518 77.8294 35.6895 77.3672 35.6895 76.8398C35.6895 76.5013 35.5885 76.2148 35.3867 75.9805C35.1914 75.7396 34.8464 75.5312 34.3516 75.3555C34.013 75.2383 33.2415 75.0299 32.0371 74.7305C30.4876 74.3464 29.4004 73.8743 28.7754 73.3145C27.8965 72.5267 27.457 71.5664 27.457 70.4336C27.457 69.7044 27.6621 69.0241 28.0723 68.3926C28.4889 67.7546 29.0846 67.2695 29.8594 66.9375C30.6406 66.6055 31.5814 66.4395 32.6816 66.4395C34.4785 66.4395 35.8294 66.8333 36.7344 67.6211C37.6458 68.4089 38.1243 69.4603 38.1699 70.7754L35.2793 70.9023C35.1556 70.1667 34.8887 69.6393 34.4785 69.3203C34.0749 68.9948 33.4661 68.832 32.6523 68.832C31.8125 68.832 31.1549 69.0046 30.6797 69.3496C30.3737 69.571 30.2207 69.8672 30.2207 70.2383C30.2207 70.5768 30.3639 70.8665 30.6504 71.1074C31.015 71.4134 31.9004 71.7324 33.3066 72.0645C34.7129 72.3965 35.7513 72.7415 36.4219 73.0996C37.099 73.4512 37.6263 73.9362 38.0039 74.5547C38.388 75.1667 38.5801 75.9251 38.5801 76.8301C38.5801 77.6504 38.3522 78.4186 37.8965 79.1348C37.4408 79.8509 36.7962 80.3848 35.9629 80.7363C35.1296 81.0814 34.0911 81.2539 32.8477 81.2539C31.0378 81.2539 29.6478 80.8372 28.6777 80.0039C27.7077 79.1641 27.1283 77.9434 26.9395 76.3418ZM38.5566 81L43.4492 73.5293L39.0156 66.6836H42.3945L45.2656 71.2832L48.0781 66.6836H51.4277L46.9746 73.6367L51.8672 81H48.3809L45.207 76.0488L42.0234 81H38.5566ZM54.3828 81L50.9648 66.6836H53.9238L56.082 76.5176L58.6992 66.6836H62.1367L64.6465 76.6836L66.8438 66.6836H69.7539L66.2773 81H63.2109L60.3594 70.2969L57.5176 81H54.3828Z" fill="white" style="fill:white;fill:white;fill-opacity:1;"/>
<path d="M57 11H20V18H57V11Z" fill="#BFBFBF" style="fill:#BFBFBF;fill:color(display-p3 0.7490 0.7490 0.7490);fill-opacity:1;"/>
<path d="M57 22H20V29H57V22Z" fill="#BFBFBF" style="fill:#BFBFBF;fill:color(display-p3 0.7490 0.7490 0.7490);fill-opacity:1;"/>
<path d="M76 33H20V40H76V33Z" fill="#BFBFBF" style="fill:#BFBFBF;fill:color(display-p3 0.7490 0.7490 0.7490);fill-opacity:1;"/>
<path d="M20 44H61V51H20V44Z" fill="#BFBFBF" style="fill:#BFBFBF;fill:color(display-p3 0.7490 0.7490 0.7490);fill-opacity:1;"/>
<path opacity="0.3" d="M56 30V1H57V29H86L87 30H56Z" fill="black" style="fill:black;fill:black;fill-opacity:1;"/>
</g>
<defs>
<linearGradient id="paint0_linear_3999_18454" x1="48" y1="94.25" x2="48" y2="1.21299e-06" gradientUnits="userSpaceOnUse">
<stop stop-color="#A8A8A8" style="stop-color:#A8A8A8;stop-color:color(display-p3 0.6588 0.6588 0.6588);stop-opacity:1;"/>
<stop offset="1" stop-color="#DADADA" style="stop-color:#DADADA;stop-color:color(display-p3 0.8549 0.8549 0.8549);stop-opacity:1;"/>
</linearGradient>
<clipPath id="clip0_3999_18454">
<rect width="96" height="96" fill="white" style="fill:white;fill:white;fill-opacity:1;"/>
</clipPath>
</defs>
</svg>
