<svg width="96" height="96" viewBox="0 0 96 96" fill="none" xmlns="http://www.w3.org/2000/svg">
<path d="M15.5 7C15.5 5.067 17.067 3.5 19 3.5H61.7574C62.4204 3.5 63.0563 3.76339 63.5251 4.23223L79.7678 20.4749C80.2366 20.9437 80.5 21.5796 80.5 22.2426V89C80.5 90.933 78.933 92.5 77 92.5H19C17.067 92.5 15.5 90.933 15.5 89V7Z" fill="white" stroke="#BBBBBB"/>
<path d="M62.5039 4V16.7039C62.5039 18.3841 62.5039 19.2241 62.8309 19.8659C63.1185 20.4304 63.5774 20.8893 64.1419 21.1769C64.7837 21.5039 65.6237 21.5039 67.3039 21.5039H80.0078" stroke="#BBBBBB"/>
<path fill-rule="evenodd" clip-rule="evenodd" d="M27 39C27 37.3431 28.3431 36 30 36H66C67.6569 36 69 37.3431 69 39C69 40.6569 67.6569 42 66 42H30C28.3431 42 27 40.6569 27 39ZM27 51C27 49.3431 28.3431 48 30 48H66C67.6569 48 69 49.3431 69 51C69 52.6569 67.6569 54 66 54H30C28.3431 54 27 52.6569 27 51ZM30 60C28.3431 60 27 61.3431 27 63C27 64.6569 28.3431 66 30 66H51C52.6569 66 54 64.6569 54 63C54 61.3431 52.6569 60 51 60H30Z" fill="#A1A1A1"/>
</svg>
