<svg width="96" height="96" viewBox="0 0 96 96" fill="none" xmlns="http://www.w3.org/2000/svg">
<path d="M15.5 7C15.5 5.067 17.067 3.5 19 3.5H61.7574C62.4204 3.5 63.0563 3.76339 63.5251 4.23223L79.7678 20.4749C80.2366 20.9437 80.5 21.5796 80.5 22.2426V89C80.5 90.933 78.933 92.5 77 92.5H19C17.067 92.5 15.5 90.933 15.5 89V7Z" fill="white" stroke="#BBBBBB"/>
<path d="M62.5039 4V16.7039C62.5039 18.3841 62.5039 19.2241 62.8309 19.8659C63.1185 20.4304 63.5774 20.8893 64.1419 21.1769C64.7837 21.5039 65.6237 21.5039 67.3039 21.5039H80.0078" stroke="#BBBBBB"/>
<mask id="path-3-inside-1_19262_290812" fill="white">
<rect x="24" y="33" width="48" height="39" rx="3"/>
</mask>
<rect x="24" y="33" width="48" height="39" rx="3" stroke="#80C3E6" stroke-width="12" mask="url(#path-3-inside-1_19262_290812)"/>
<path d="M45 47.762L51.7686 52.5L45 57.238L45 47.762ZM42.6398 58.8902C42.6404 58.8897 42.6411 58.8893 42.6417 58.8888L42.6398 58.8902Z" fill="#0087CD" stroke="#0087CD" stroke-width="6"/>
</svg>
