<svg width="96" height="96" viewBox="0 0 96 96" fill="none" xmlns="http://www.w3.org/2000/svg">
<path d="M15.5 7C15.5 5.067 17.067 3.5 19 3.5H61.7574C62.4204 3.5 63.0563 3.76339 63.5251 4.23223L79.7678 20.4749C80.2366 20.9437 80.5 21.5796 80.5 22.2426V89C80.5 90.933 78.933 92.5 77 92.5H19C17.067 92.5 15.5 90.933 15.5 89V7Z" fill="white" stroke="#BBBBBB"/>
<path d="M62.5039 4V16.7039C62.5039 18.3841 62.5039 19.2241 62.8309 19.8659C63.1185 20.4304 63.5774 20.8893 64.1419 21.1769C64.7837 21.5039 65.6237 21.5039 67.3039 21.5039H80.0078" stroke="#BBBBBB"/>
<path d="M48 57.6C48 54.2397 48 52.5595 48.654 51.2761C49.2292 50.1471 50.1471 49.2292 51.2761 48.654C52.5595 48 54.2397 48 57.6 48H74.4C77.7603 48 79.4405 48 80.7239 48.654C81.8529 49.2292 82.7708 50.1471 83.346 51.2761C84 52.5595 84 54.2397 84 57.6V74.4C84 77.7603 84 79.4405 83.346 80.7239C82.7708 81.8529 81.8529 82.7708 80.7239 83.346C79.4405 84 77.7603 84 74.4 84H57.6C54.2397 84 52.5595 84 51.2761 83.346C50.1471 82.7708 49.2292 81.8529 48.654 80.7239C48 79.4405 48 77.7603 48 74.4V57.6Z" fill="#287CA9"/>
<path d="M78 57L73.643 75H68.8235L66.8032 66.3025C66.7546 66.1176 66.6978 65.8487 66.6329 65.4958C66.568 65.1261 66.4868 64.7227 66.3895 64.2857C66.3083 63.8319 66.2353 63.4034 66.1704 63C66.1055 62.5798 66.0568 62.2437 66.0243 61.9916C65.9919 62.2437 65.9351 62.5798 65.854 63C65.789 63.4034 65.716 63.8319 65.6349 64.2857C65.5538 64.7227 65.4726 65.1261 65.3915 65.4958C65.3266 65.8487 65.2698 66.1176 65.2211 66.3025L63.1765 75H58.3813L54 57H58.0406L60.1095 66.4538C60.1744 66.7059 60.2475 67.042 60.3286 67.4622C60.4097 67.8655 60.4909 68.3025 60.572 68.7731C60.6531 69.2269 60.7262 69.6723 60.7911 70.1092C60.8722 70.5294 60.929 70.8908 60.9615 71.1933C61.0101 70.7899 61.0751 70.3277 61.1562 69.8067C61.2535 69.2857 61.3509 68.7563 61.4483 68.2185C61.5456 67.6807 61.643 67.1765 61.7404 66.7059C61.8377 66.2353 61.927 65.8571 62.0081 65.5714L64.0771 57H67.9473L70.0162 65.5714C70.0649 65.8571 70.1379 66.2353 70.2353 66.7059C70.3489 67.1765 70.4544 67.6891 70.5517 68.2437C70.6653 68.7815 70.7627 69.3109 70.8438 69.8319C70.9249 70.3529 70.9899 70.8067 71.0385 71.1933C71.0872 70.7731 71.1602 70.2689 71.2576 69.6807C71.3712 69.0756 71.4848 68.479 71.5984 67.8908C71.712 67.2857 71.8093 66.8151 71.8905 66.479L73.9594 57H78Z" fill="white"/>
<path fill-rule="evenodd" clip-rule="evenodd" d="M30 36C28.3431 36 27 37.3431 27 39C27 40.6569 28.3431 42 30 42H66C67.6569 42 69 40.6569 69 39C69 37.3431 67.6569 36 66 36H30ZM27 51C27 49.3431 28.3431 48 30 48H39C40.6569 48 42 49.3431 42 51C42 52.6569 40.6569 54 39 54H30C28.3431 54 27 52.6569 27 51ZM27 63C27 61.3431 28.3431 60 30 60H39C40.6569 60 42 61.3431 42 63C42 64.6569 40.6569 66 39 66H30C28.3431 66 27 64.6569 27 63Z" fill="#A9CBDD"/>
</svg>
