<svg width="96" height="96" viewBox="0 0 96 96" fill="none" xmlns="http://www.w3.org/2000/svg">
<g clip-path="url(#clip0_3999_18530)">
<path d="M10 1H57L86 30V95H10V1Z" fill="white" style="fill:white;fill:white;fill-opacity:1;"/>
<path fill-rule="evenodd" clip-rule="evenodd" d="M10 95H86V30L57 1H10V95ZM57 0H9V96H87V30L57 0Z" fill="url(#paint0_linear_3999_18530)" style=""/>
<path fill-rule="evenodd" clip-rule="evenodd" d="M23 58C21.3431 58 20 59.3431 20 61V86C20 87.6569 21.3431 89 23 89H73C74.6569 89 76 87.6569 76 86V61C76 59.3431 74.6569 58 73 58H23Z" fill="#1E7AAA" style="fill:#1E7AAA;fill:color(display-p3 0.1176 0.4784 0.6667);fill-opacity:1;"/>
<path d="M29.7031 81L26.2852 66.6836H29.2441L31.4023 76.5176L34.0195 66.6836H37.457L39.9668 76.6836L42.1641 66.6836H45.0742L41.5977 81H38.5312L35.6797 70.2969L32.8379 81H29.7031ZM45.5586 81V66.6836H50.1973C51.9551 66.6836 53.1009 66.7552 53.6348 66.8984C54.4551 67.1133 55.1419 67.582 55.6953 68.3047C56.2487 69.0208 56.5254 69.9486 56.5254 71.0879C56.5254 71.9668 56.3659 72.7057 56.0469 73.3047C55.7279 73.9036 55.321 74.3757 54.8262 74.7207C54.3379 75.0592 53.8398 75.2839 53.332 75.3945C52.6419 75.5312 51.6426 75.5996 50.334 75.5996H48.4492V81H45.5586ZM48.4492 69.1055V73.168H50.0312C51.1706 73.168 51.9323 73.0931 52.3164 72.9434C52.7005 72.7936 53 72.5592 53.2148 72.2402C53.4362 71.9212 53.5469 71.5501 53.5469 71.127C53.5469 70.6061 53.3939 70.1764 53.0879 69.8379C52.7819 69.4993 52.3945 69.2878 51.9258 69.2031C51.5807 69.138 50.8874 69.1055 49.8457 69.1055H48.4492ZM57.166 76.3418L59.9785 76.0684C60.1478 77.0124 60.4896 77.7057 61.0039 78.1484C61.5247 78.5911 62.2246 78.8125 63.1035 78.8125C64.0345 78.8125 64.7344 78.6172 65.2031 78.2266C65.6784 77.8294 65.916 77.3672 65.916 76.8398C65.916 76.5013 65.8151 76.2148 65.6133 75.9805C65.418 75.7396 65.0729 75.5312 64.5781 75.3555C64.2396 75.2383 63.4681 75.0299 62.2637 74.7305C60.7142 74.3464 59.627 73.8743 59.002 73.3145C58.123 72.5267 57.6836 71.5664 57.6836 70.4336C57.6836 69.7044 57.8887 69.0241 58.2988 68.3926C58.7155 67.7546 59.3112 67.2695 60.0859 66.9375C60.8672 66.6055 61.8079 66.4395 62.9082 66.4395C64.7051 66.4395 66.056 66.8333 66.9609 67.6211C67.8724 68.4089 68.3509 69.4603 68.3965 70.7754L65.5059 70.9023C65.3822 70.1667 65.1152 69.6393 64.7051 69.3203C64.3014 68.9948 63.6927 68.832 62.8789 68.832C62.0391 68.832 61.3815 69.0046 60.9062 69.3496C60.6003 69.571 60.4473 69.8672 60.4473 70.2383C60.4473 70.5768 60.5905 70.8665 60.877 71.1074C61.2415 71.4134 62.127 71.7324 63.5332 72.0645C64.9395 72.3965 65.9779 72.7415 66.6484 73.0996C67.3255 73.4512 67.8529 73.9362 68.2305 74.5547C68.6146 75.1667 68.8066 75.9251 68.8066 76.8301C68.8066 77.6504 68.5788 78.4186 68.123 79.1348C67.6673 79.8509 67.0228 80.3848 66.1895 80.7363C65.3561 81.0814 64.3177 81.2539 63.0742 81.2539C61.2643 81.2539 59.8743 80.8372 58.9043 80.0039C57.9342 79.1641 57.3548 77.9434 57.166 76.3418Z" fill="white" style="fill:white;fill:white;fill-opacity:1;"/>
<path d="M57 11H20V18H57V11Z" fill="#BFBFBF" style="fill:#BFBFBF;fill:color(display-p3 0.7490 0.7490 0.7490);fill-opacity:1;"/>
<path d="M57 22H20V29H57V22Z" fill="#BFBFBF" style="fill:#BFBFBF;fill:color(display-p3 0.7490 0.7490 0.7490);fill-opacity:1;"/>
<path d="M76 33H20V40H76V33Z" fill="#BFBFBF" style="fill:#BFBFBF;fill:color(display-p3 0.7490 0.7490 0.7490);fill-opacity:1;"/>
<path d="M20 44H61V51H20V44Z" fill="#BFBFBF" style="fill:#BFBFBF;fill:color(display-p3 0.7490 0.7490 0.7490);fill-opacity:1;"/>
<path opacity="0.3" d="M56 30V1H57V29H86L87 30H56Z" fill="black" style="fill:black;fill:black;fill-opacity:1;"/>
</g>
<defs>
<linearGradient id="paint0_linear_3999_18530" x1="48" y1="94.25" x2="48" y2="1.21299e-06" gradientUnits="userSpaceOnUse">
<stop stop-color="#A8A8A8" style="stop-color:#A8A8A8;stop-color:color(display-p3 0.6588 0.6588 0.6588);stop-opacity:1;"/>
<stop offset="1" stop-color="#DADADA" style="stop-color:#DADADA;stop-color:color(display-p3 0.8549 0.8549 0.8549);stop-opacity:1;"/>
</linearGradient>
<clipPath id="clip0_3999_18530">
<rect width="96" height="96" fill="white" style="fill:white;fill:white;fill-opacity:1;"/>
</clipPath>
</defs>
</svg>
