<svg width="96" height="96" viewBox="0 0 96 96" fill="none" xmlns="http://www.w3.org/2000/svg">
<g clip-path="url(#clip0_3999_18610)">
<path d="M10 1H57L86 30V95H10V1Z" fill="white" style="fill:white;fill:white;fill-opacity:1;"/>
<path fill-rule="evenodd" clip-rule="evenodd" d="M10 95H86V30L57 1H10V95ZM57 0H9V96H87V30L57 0Z" fill="url(#paint0_linear_3999_18610)" style=""/>
<path fill-rule="evenodd" clip-rule="evenodd" d="M23 58C21.3431 58 20 59.3431 20 61V86C20 87.6569 21.3431 89 23 89H73C74.6569 89 76 87.6569 76 86V61C76 59.3431 74.6569 58 73 58H23Z" fill="#1E7AAA" style="fill:#1E7AAA;fill:color(display-p3 0.1176 0.4784 0.6667);fill-opacity:1;"/>
<path d="M30.2598 81L26.8418 66.6836H29.8008L31.959 76.5176L34.5762 66.6836H38.0137L40.5234 76.6836L42.7207 66.6836H45.6309L42.1543 81H39.0879L36.2363 70.2969L33.3945 81H30.2598ZM46.1152 81V66.6836H50.7539C52.5117 66.6836 53.6576 66.7552 54.1914 66.8984C55.0117 67.1133 55.6986 67.582 56.252 68.3047C56.8053 69.0208 57.082 69.9486 57.082 71.0879C57.082 71.9668 56.9225 72.7057 56.6035 73.3047C56.2845 73.9036 55.8776 74.3757 55.3828 74.7207C54.8945 75.0592 54.3965 75.2839 53.8887 75.3945C53.1986 75.5312 52.1992 75.5996 50.8906 75.5996H49.0059V81H46.1152ZM49.0059 69.1055V73.168H50.5879C51.7272 73.168 52.4889 73.0931 52.873 72.9434C53.2572 72.7936 53.5566 72.5592 53.7715 72.2402C53.9928 71.9212 54.1035 71.5501 54.1035 71.127C54.1035 70.6061 53.9505 70.1764 53.6445 69.8379C53.3385 69.4993 52.9512 69.2878 52.4824 69.2031C52.1374 69.138 51.444 69.1055 50.4023 69.1055H49.0059ZM61.6777 81V69.1055H57.4297V66.6836H68.8066V69.1055H64.5684V81H61.6777Z" fill="white" style="fill:white;fill:white;fill-opacity:1;"/>
<path d="M57 11H20V18H57V11Z" fill="#BFBFBF" style="fill:#BFBFBF;fill:color(display-p3 0.7490 0.7490 0.7490);fill-opacity:1;"/>
<path d="M57 22H20V29H57V22Z" fill="#BFBFBF" style="fill:#BFBFBF;fill:color(display-p3 0.7490 0.7490 0.7490);fill-opacity:1;"/>
<path d="M76 33H20V40H76V33Z" fill="#BFBFBF" style="fill:#BFBFBF;fill:color(display-p3 0.7490 0.7490 0.7490);fill-opacity:1;"/>
<path d="M20 44H61V51H20V44Z" fill="#BFBFBF" style="fill:#BFBFBF;fill:color(display-p3 0.7490 0.7490 0.7490);fill-opacity:1;"/>
<path opacity="0.3" d="M56 30V1H57V29H86L87 30H56Z" fill="black" style="fill:black;fill:black;fill-opacity:1;"/>
</g>
<defs>
<linearGradient id="paint0_linear_3999_18610" x1="48" y1="94.25" x2="48" y2="1.21299e-06" gradientUnits="userSpaceOnUse">
<stop stop-color="#A8A8A8" style="stop-color:#A8A8A8;stop-color:color(display-p3 0.6588 0.6588 0.6588);stop-opacity:1;"/>
<stop offset="1" stop-color="#DADADA" style="stop-color:#DADADA;stop-color:color(display-p3 0.8549 0.8549 0.8549);stop-opacity:1;"/>
</linearGradient>
<clipPath id="clip0_3999_18610">
<rect width="96" height="96" fill="white" style="fill:white;fill:white;fill-opacity:1;"/>
</clipPath>
</defs>
</svg>
