<svg width="96" height="96" viewBox="0 0 96 96" fill="none" xmlns="http://www.w3.org/2000/svg">
<g clip-path="url(#clip0_1_17710)">
<path d="M10 1H57L86 30V95H10V1Z" fill="white"/>
<path fill-rule="evenodd" clip-rule="evenodd" d="M10 95H86V30L57 1H10V95ZM57 0H9V96H87V30L57 0Z" fill="url(#paint0_linear_1_17710)"/>
<path fill-rule="evenodd" clip-rule="evenodd" d="M57 11H20V50H76V29H57V11ZM73 41V47H58V41H73ZM73 32V38H58V32H73ZM55 14H41V20H55V14ZM55 23H41V29H55V23ZM55 32H41V38H55V32ZM55 41H41V47H55V41ZM23 14H38V20H23V14ZM23 23H38V29H23V23ZM23 32H38V38H23V32ZM23 41H38V47H23V41Z" fill="#BFBFBF"/>
<path opacity="0.3" d="M56 30V1H57V29H86L87 30H56Z" fill="black"/>
<path d="M65.9111 68.4697V71.9458H67.9004C69.083 71.9458 69.8179 71.9287 70.105 71.8945C70.6245 71.833 71.0312 71.6553 71.3252 71.3613C71.626 71.0605 71.7764 70.6675 71.7764 70.1821C71.7764 69.7173 71.6465 69.3413 71.3867 69.0542C71.1338 68.7603 70.7544 68.5825 70.2485 68.521C69.9478 68.4868 69.083 68.4697 67.6543 68.4697H65.9111Z" fill="#6AAA1E"/>
<path d="M65.9111 74.4478V78.4673H68.7207C69.8145 78.4673 70.5083 78.4365 70.8022 78.375C71.2534 78.293 71.6191 78.0947 71.8994 77.7803C72.1865 77.459 72.3301 77.0317 72.3301 76.4985C72.3301 76.0474 72.2207 75.6646 72.002 75.3501C71.7832 75.0356 71.4653 74.8066 71.0483 74.6631C70.6382 74.5195 69.7427 74.4478 68.3618 74.4478H65.9111Z" fill="#6AAA1E"/>
<path fill-rule="evenodd" clip-rule="evenodd" d="M20 61C20 59.3431 21.3431 58 23 58H73C74.6569 58 76 59.3431 76 61V86C76 87.6569 74.6569 89 73 89H23C21.3431 89 20 87.6569 20 86V61ZM48.0898 76.1089L51.043 75.8218C51.2207 76.813 51.5796 77.541 52.1196 78.0059C52.6665 78.4707 53.4014 78.7031 54.3242 78.7031C55.3018 78.7031 56.0366 78.498 56.5288 78.0879C57.0278 77.6709 57.2773 77.1855 57.2773 76.6318C57.2773 76.2764 57.1714 75.9756 56.9595 75.7295C56.7544 75.4766 56.3921 75.2578 55.8726 75.0732C55.5171 74.9502 54.707 74.7314 53.4424 74.417C51.8154 74.0137 50.6738 73.5181 50.0176 72.9302C49.0947 72.103 48.6333 71.0947 48.6333 69.9053C48.6333 69.1396 48.8486 68.4253 49.2793 67.7622C49.7168 67.0923 50.3423 66.583 51.1558 66.2344C51.9761 65.8857 52.9639 65.7114 54.1191 65.7114C56.0059 65.7114 57.4243 66.125 58.3745 66.9521C59.3315 67.7793 59.834 68.8833 59.8818 70.2642L56.8467 70.3975C56.7168 69.625 56.4365 69.0713 56.0059 68.7363C55.582 68.3945 54.9429 68.2236 54.0884 68.2236C53.2065 68.2236 52.5161 68.4048 52.0171 68.7671C51.6958 68.9995 51.5352 69.3105 51.5352 69.7002C51.5352 70.0557 51.6855 70.3599 51.9863 70.6128C52.3691 70.9341 53.2988 71.269 54.7754 71.6177C56.252 71.9663 57.3423 72.3286 58.0464 72.7046C58.7573 73.0737 59.311 73.583 59.7075 74.2324C60.1108 74.875 60.3125 75.6714 60.3125 76.6216C60.3125 77.4829 60.0732 78.2896 59.5947 79.0415C59.1162 79.7935 58.4395 80.354 57.5645 80.7231C56.6895 81.0854 55.5991 81.2666 54.2935 81.2666C52.3931 81.2666 50.9336 80.8291 49.915 79.9541C48.8965 79.0723 48.2881 77.7905 48.0898 76.1089ZM62.876 65.9678H68.8848C70.0742 65.9678 70.9595 66.019 71.5405 66.1216C72.1284 66.2173 72.6514 66.4224 73.1094 66.7368C73.5742 67.0513 73.9604 67.4717 74.2681 67.998C74.5757 68.5176 74.7295 69.1021 74.7295 69.7515C74.7295 70.4556 74.5381 71.1016 74.1553 71.6895C73.7793 72.2773 73.2666 72.7183 72.6172 73.0122C73.5332 73.2788 74.2373 73.7334 74.7295 74.376C75.2217 75.0186 75.4678 75.7739 75.4678 76.6421C75.4678 77.3257 75.3071 77.9922 74.9858 78.6416C74.6714 79.2842 74.2373 79.8003 73.6836 80.1899C73.1367 80.5728 72.46 80.8086 71.6533 80.8975C71.1475 80.9521 69.9272 80.9863 67.9927 81H62.876V65.9678ZM36.103 81V66.0908H39.1382V78.4673H46.6851V81H36.103ZM20.4863 81L25.6235 73.1558L20.9683 65.9678H24.5161L27.5308 70.7974L30.4839 65.9678H34.001L29.3252 73.2686L34.4624 81H30.8018L27.4692 75.8013L24.1265 81H20.4863Z" fill="#6AAA1E"/>
</g>
<defs>
<linearGradient id="paint0_linear_1_17710" x1="48" y1="94.25" x2="48" y2="1.21299e-06" gradientUnits="userSpaceOnUse">
<stop stop-color="#A8A8A8"/>
<stop offset="1" stop-color="#DADADA"/>
</linearGradient>
<clipPath id="clip0_1_17710">
<rect width="96" height="96" fill="white"/>
</clipPath>
</defs>
</svg>
