<svg width="48" height="48" viewBox="0 0 48 48" fill="none" xmlns="http://www.w3.org/2000/svg">
<rect width="48" height="48" rx="4" fill="white"/>
<g clip-path="url(#clip0_1841_73555)">
<path fill-rule="evenodd" clip-rule="evenodd" d="M16.2921 4.16812C16.6987 4.32652 17.0658 4.58742 17.3989 4.93219C17.9542 5.50244 18.4229 6.31869 18.7806 7.28588C19.1401 8.25867 19.3735 9.33582 19.462 10.4167C20.6472 9.7529 21.9624 9.34871 23.319 9.23146L23.415 9.224C25.0526 9.09355 26.6715 9.38614 28.0832 10.1073C28.2733 10.2061 28.4597 10.3123 28.6423 10.4241C28.7364 9.36377 28.9661 8.31085 29.3199 7.36043C29.6776 6.39137 30.1463 5.57698 30.6997 5.00487C31.009 4.67364 31.3873 4.41293 31.8084 4.2408C32.2922 4.05444 32.8061 4.0209 33.3068 4.16253C34.0616 4.37498 34.7091 4.84833 35.2193 5.53599C35.6861 6.16401 36.0362 6.96908 36.2753 7.93441C36.7082 9.67499 36.7835 11.9653 36.4917 14.7271L36.5915 14.8017L36.6404 14.8371C38.0654 15.9105 39.0574 17.4405 39.5826 19.2165C40.4014 21.9876 39.9892 25.0961 38.5774 26.8348L38.5435 26.8739L38.5473 26.8795C39.3322 28.2996 39.8085 29.7998 39.9101 31.3521L39.9139 31.408C40.0344 33.3927 39.5374 35.3905 38.3816 37.3528L38.3685 37.3715L38.3873 37.4162C39.2758 39.5723 39.5543 41.7434 39.2118 43.9126L39.2005 43.9853C39.1474 44.3022 38.9695 44.5853 38.706 44.7725C38.4424 44.9597 38.1145 45.0359 37.7943 44.9842C37.6358 44.9597 37.4837 44.9044 37.3467 44.8216C37.2098 44.7388 37.0907 44.6301 36.9963 44.5016C36.9018 44.3732 36.8339 44.2275 36.7965 44.0731C36.759 43.9186 36.7527 43.7583 36.7779 43.6014C37.0922 41.6763 36.7967 39.7457 35.8743 37.7815C35.7883 37.599 35.7501 37.398 35.7632 37.197C35.7764 36.996 35.8405 36.8016 35.9496 36.6316L35.9571 36.6204C37.0941 34.8985 37.5647 33.2101 37.463 31.5515C37.3765 30.0998 36.8513 28.6742 35.9571 27.3156C35.7832 27.0515 35.7213 26.7302 35.7847 26.4213C35.8481 26.1123 36.0318 25.8405 36.296 25.6645L36.3129 25.6533C36.7703 25.357 37.192 24.6004 37.4047 23.5661C37.6394 22.3431 37.5781 21.0824 37.2259 19.8874C36.84 18.5829 36.1341 17.4946 35.1459 16.751C34.0258 15.9049 32.5425 15.4968 30.6658 15.6142C30.4204 15.63 30.1759 15.5726 29.9638 15.4493C29.7517 15.3261 29.5819 15.1427 29.4762 14.9228C28.8851 13.6835 28.023 12.7965 26.9482 12.2467C25.9163 11.7368 24.761 11.5226 23.6126 11.628C21.2691 11.8125 19.2022 13.1207 18.5867 14.77C18.4996 15.0021 18.343 15.2024 18.1378 15.3439C17.9326 15.4855 17.6886 15.5616 17.4385 15.562C15.43 15.5658 13.8751 16.0316 12.7382 16.8721C11.7556 17.5989 11.0855 18.6146 10.7316 19.8315C10.4114 20.9769 10.3675 22.1809 10.6036 23.3462C10.8144 24.3861 11.2267 25.247 11.6991 25.7111L11.7142 25.7241C12.1133 26.1099 12.198 26.7118 11.9194 27.187C11.2417 28.3462 10.7354 30.0737 10.6525 31.7341C10.5584 33.6313 11.0027 35.2787 12.006 36.4602L12.0361 36.4956C12.1875 36.6703 12.2849 36.8844 12.3166 37.1125C12.3483 37.3405 12.313 37.5728 12.2149 37.7815C11.1307 40.0848 10.7975 41.9782 11.157 43.4691C11.2216 43.7791 11.1615 44.1018 10.9894 44.3686C10.8173 44.6354 10.5469 44.8252 10.2356 44.8976C9.92435 44.9699 9.59685 44.9192 9.3228 44.7561C9.04876 44.593 8.84981 44.3305 8.7683 44.0244C8.31088 42.1273 8.62147 39.9544 9.65866 37.5056L9.68501 37.4404L9.66995 37.4181C9.16019 36.6726 8.77974 35.8481 8.5443 34.9786L8.53489 34.9432C8.24917 33.8584 8.13675 32.736 8.20171 31.6167C8.28453 29.9209 8.725 28.184 9.37254 26.7901L9.39513 26.7416L9.39136 26.7379C8.83983 25.9589 8.43136 24.9619 8.20547 23.8587L8.19606 23.8139C7.88484 22.2751 7.94482 20.6852 8.37112 19.1736C8.8643 17.4685 9.83372 16.0037 11.2624 14.9452C11.3754 14.8613 11.494 14.7775 11.6125 14.6992C11.3133 11.9169 11.3885 9.61163 11.8234 7.85987C12.0624 6.89453 12.4144 6.08947 12.8813 5.46144C13.3895 4.77565 14.037 4.3023 14.7919 4.08799C15.2926 3.94635 15.8083 3.97804 16.2921 4.16626V4.16812ZM24.0399 21.108C25.8018 21.108 27.4282 21.6913 28.6442 22.7014C29.8301 23.6835 30.5359 25.0029 30.5359 26.3167C30.5359 27.9716 29.7717 29.2612 28.4032 30.0849C27.2362 30.7837 25.6719 31.1229 23.8799 31.1229C21.9806 31.1229 20.358 30.6402 19.1872 29.755C18.0258 28.8791 17.3745 27.6492 17.3745 26.3167C17.3745 24.9992 18.1236 23.676 19.3622 22.6902C20.6197 21.6895 22.2799 21.108 24.0399 21.108ZM24.0399 22.7778C22.734 22.7665 21.4627 23.1935 20.4333 23.9891C19.5655 24.6786 19.0742 25.5452 19.0742 26.3186C19.0742 27.1162 19.4695 27.8635 20.2225 28.4319C21.079 29.0786 22.3383 29.4531 23.8799 29.4531C25.3839 29.4531 26.6526 29.1792 27.5166 28.6592C28.3882 28.1374 28.8343 27.3808 28.8343 26.3167C28.8343 25.5284 28.3712 24.6581 27.5486 23.9761C26.6376 23.2213 25.4027 22.7778 24.0399 22.7778ZM25.286 25.0327L25.2936 25.0402C25.5194 25.3216 25.4724 25.7297 25.1882 25.9533L24.6385 26.382V27.2131C24.6375 27.3981 24.5624 27.5752 24.4298 27.7055C24.2971 27.8358 24.1176 27.9087 23.9307 27.9082C23.7438 27.9087 23.5644 27.8358 23.4317 27.7055C23.299 27.5752 23.224 27.3981 23.223 27.2131V26.3559L22.7128 25.9496C22.6456 25.8962 22.5896 25.8302 22.5482 25.7553C22.5069 25.6804 22.4809 25.5981 22.4718 25.5132C22.4627 25.4283 22.4706 25.3425 22.4952 25.2607C22.5198 25.1788 22.5605 25.1026 22.615 25.0365C22.7261 24.9025 22.8861 24.8175 23.0602 24.7997C23.2343 24.7819 23.4085 24.8328 23.5448 24.9414L23.9496 25.2619L24.3637 24.9377C24.4996 24.8314 24.6721 24.7818 24.8444 24.7996C25.0167 24.8173 25.1751 24.901 25.286 25.0327ZM15.7989 21.4565C16.6987 21.4565 17.4309 22.1833 17.4309 23.0797C17.4314 23.5094 17.2596 23.9217 16.9533 24.226C16.6469 24.5304 16.231 24.7019 15.797 24.7029C15.3637 24.7014 14.9486 24.5299 14.6427 24.226C14.3368 23.9221 14.165 23.5106 14.165 23.0816C14.164 22.6519 14.3354 22.2394 14.6414 21.9347C14.9474 21.63 15.3649 21.458 15.7989 21.4565ZM32.1868 21.4565C33.0903 21.4565 33.8207 22.1833 33.8207 23.0797C33.8212 23.5094 33.6494 23.9217 33.343 24.226C33.0366 24.5304 32.6208 24.7019 32.1868 24.7029C31.7534 24.7014 31.3383 24.5299 31.0324 24.226C30.7265 23.9221 30.5548 23.5106 30.5548 23.0816C30.5538 22.6519 30.7251 22.2394 31.0311 21.9347C31.3371 21.63 31.7528 21.458 32.1868 21.4565ZM15.4168 6.42305L15.4112 6.42677C15.1931 6.52066 15.0069 6.67461 14.8747 6.87031L14.8653 6.88149C14.6055 7.2337 14.3796 7.75178 14.2102 8.43198C13.8902 9.72158 13.8036 11.4715 13.9768 13.6165C14.7862 13.3779 15.669 13.2288 16.6196 13.1748L16.6385 13.1729L16.6742 13.1096C16.7608 12.9567 16.853 12.8095 16.9528 12.6642C17.1843 11.2273 16.9942 9.51099 16.4766 8.10958C16.2243 7.43124 15.9175 6.89826 15.6239 6.5945C15.5632 6.53134 15.4957 6.47509 15.4225 6.42677L15.4168 6.42305ZM32.6856 6.49759L32.6818 6.49945C32.6086 6.54777 32.541 6.60402 32.4804 6.66718C32.1868 6.97094 31.8781 7.50579 31.6277 8.18413C31.0818 9.66381 30.8992 11.4938 31.1948 12.9772L31.3039 13.158L31.319 13.1841H31.3755C32.3097 13.1843 33.239 13.3174 34.135 13.5792C34.2969 11.4845 34.2066 9.7719 33.8941 8.50653C33.7247 7.82632 33.4988 7.30825 33.2371 6.95603L33.2296 6.94485C33.0977 6.74847 32.9114 6.59384 32.6931 6.49945H32.6856V6.49759Z" fill="black"/>
</g>
<defs>
<clipPath id="clip0_1841_73555">
<rect width="32" height="41" fill="white" transform="translate(8 4)"/>
</clipPath>
</defs>
</svg>
