<svg width="48" height="48" viewBox="0 0 48 48" fill="none" xmlns="http://www.w3.org/2000/svg">
<rect width="48" height="48" rx="4" fill="white"/>
<g clip-path="url(#clip0_5202_55361)">
<mask id="mask0_5202_55361" style="mask-type:luminance" maskUnits="userSpaceOnUse" x="8" y="8" width="32" height="32">
<path d="M8 8H40V40H8V8Z" fill="white"/>
</mask>
<g mask="url(#mask0_5202_55361)">
<path fill-rule="evenodd" clip-rule="evenodd" d="M30.4053 10.6094L40.032 16.0827V16.1988L30.3067 21.6134L30.3293 18.7908L29.2347 18.7507C27.8227 18.7134 27.0867 18.7534 26.2107 18.8974C24.792 19.1307 23.4933 19.6667 22.0147 20.7001L19.1267 22.7068C18.748 22.9668 18.4667 23.1548 18.22 23.3134L17.5333 23.7428L17.004 24.0548L17.5173 24.3614L18.224 24.8121C18.8587 25.2308 19.784 25.8734 21.8253 27.3001C23.3053 28.3334 24.6027 28.8694 26.0213 29.1028L26.4213 29.1628C27.3467 29.2841 28.2547 29.2881 30.188 29.2068L30.2173 26.3281L39.844 31.8014V31.9174L30.1187 37.3334L30.1373 34.8507L29.2907 34.8801C27.4427 34.9361 26.4413 34.8827 25.1067 34.6641C22.848 34.2908 20.76 33.4294 18.5987 31.9188L15.7213 29.9188C15.3904 29.6905 15.0548 29.4691 14.7147 29.2548L14.092 28.8814C13.7558 28.6876 13.4179 28.4966 13.0787 28.3081C11.8773 27.6401 8.75063 26.8214 8 26.8214V21.1841L8.18669 21.1894C8.93869 21.1801 12.0667 20.3601 13.2653 19.6908L14.62 18.9174L15.204 18.5521C15.7747 18.1788 16.6333 17.5841 18.7853 16.0814C20.9467 14.5707 23.0333 13.7081 25.2933 13.3361C26.8293 13.0827 27.9253 13.0521 30.3787 13.1521L30.4053 10.6094Z" fill="black"/>
</g>
</g>
<defs>
<clipPath id="clip0_5202_55361">
<rect width="32" height="32" fill="white" transform="translate(8 8)"/>
</clipPath>
</defs>
</svg>
