<svg width="48" height="48" viewBox="0 0 48 48" fill="none" xmlns="http://www.w3.org/2000/svg">
<rect width="48" height="48" rx="4" fill="white"/>
<g clip-path="url(#clip0_1841_73530)">
<path d="M37.7096 21.0948C38.0674 20.0173 38.1911 18.8758 38.0725 17.7467C37.954 16.6175 37.5958 15.5267 37.022 14.547C36.1713 13.0663 34.8723 11.8939 33.3124 11.199C31.7524 10.504 30.0121 10.3224 28.3422 10.6804C27.3936 9.62512 26.184 8.83806 24.8349 8.39825C23.4858 7.95844 22.0447 7.88135 20.6564 8.17474C19.268 8.46812 17.9814 9.12165 16.9255 10.0697C15.8697 11.0177 15.0819 12.2269 14.6413 13.5757C13.5289 13.8038 12.4779 14.2667 11.5587 14.9336C10.6395 15.6004 9.87322 16.4557 9.31105 17.4424C8.4511 18.9207 8.08356 20.6341 8.26157 22.3351C8.43958 24.036 9.15392 25.6363 10.3013 26.9045C9.9422 27.9815 9.81722 29.1227 9.93472 30.2519C10.0522 31.3811 10.4095 32.4721 10.9827 33.4521C11.8344 34.9334 13.1345 36.106 14.6956 36.801C16.2566 37.4959 17.998 37.6773 19.6688 37.3189C20.4225 38.1676 21.3485 38.8458 22.3852 39.3081C23.4218 39.7705 24.5452 40.0063 25.6803 40C27.3918 40.0015 29.0595 39.4592 30.4427 38.4513C31.826 37.4433 32.8531 36.0219 33.376 34.3922C34.4883 34.1637 35.5391 33.7006 36.4582 33.0338C37.3774 32.367 38.1438 31.5119 38.7062 30.5254C39.556 29.0493 39.9173 27.3423 39.7382 25.6484C39.5592 23.9546 38.8492 22.3606 37.7096 21.0948ZM25.6803 37.9056C24.2785 37.9078 22.9208 37.4165 21.845 36.5178L22.0343 36.4106L28.4053 32.733C28.5639 32.64 28.6955 32.5074 28.7873 32.3481C28.8791 32.1889 28.9279 32.0085 28.9289 31.8246V22.8421L31.6222 24.4002C31.6356 24.407 31.6471 24.4168 31.6559 24.4288C31.6647 24.4409 31.6705 24.4548 31.6729 24.4696V31.913C31.6695 33.5013 31.0371 35.0236 29.914 36.1467C28.7908 37.2698 27.2686 37.9022 25.6803 37.9056ZM12.7993 32.405C12.0963 31.1912 11.8439 29.7683 12.0865 28.3868L12.2758 28.5004L18.6532 32.178C18.811 32.2706 18.9906 32.3194 19.1736 32.3194C19.3565 32.3194 19.5362 32.2706 19.694 32.178L27.4844 27.6866V30.7965C27.4837 30.8126 27.4793 30.8284 27.4716 30.8426C27.464 30.8568 27.4532 30.869 27.4401 30.8785L20.9871 34.6002C19.6099 35.3936 17.9742 35.608 16.4391 35.1964C14.9039 34.7848 13.5949 33.7809 12.7993 32.405ZM11.1214 18.5274C11.8293 17.3058 12.9466 16.374 14.2754 15.897V23.4666C14.2731 23.6495 14.3198 23.8297 14.4108 23.9883C14.5017 24.147 14.6336 24.2783 14.7926 24.3686L22.5452 28.841L19.8517 30.399C19.8371 30.4068 19.8209 30.4108 19.8044 30.4108C19.7879 30.4108 19.7716 30.4068 19.7571 30.399L13.3166 26.6837C11.9421 25.8869 10.9392 24.5779 10.5278 23.0433C10.1164 21.5087 10.3298 19.8735 11.1214 18.496V18.5274ZM33.2498 23.6685L25.4721 19.152L28.1593 17.6C28.1739 17.5922 28.1901 17.5882 28.2066 17.5882C28.2232 17.5882 28.2394 17.5922 28.254 17.6L34.6944 21.3217C35.6791 21.8899 36.4819 22.7265 37.009 23.7338C37.5361 24.7412 37.7658 25.8777 37.6712 27.0106C37.5766 28.1436 37.1617 29.2263 36.4749 30.1323C35.7881 31.0383 34.8577 31.7302 33.7924 32.1273V24.5577C33.7868 24.3751 33.7338 24.1972 33.6387 24.0412C33.5436 23.8853 33.4096 23.757 33.2498 23.6685ZM35.9308 19.6377L35.7414 19.5241L29.3768 15.815C29.218 15.7219 29.0373 15.6727 28.8532 15.6727C28.6691 15.6727 28.4883 15.7219 28.3296 15.815L20.5457 20.3062V17.1965C20.5441 17.1807 20.5467 17.1647 20.5534 17.1503C20.56 17.1359 20.5705 17.1235 20.5836 17.1145L27.024 13.399C28.0111 12.8304 29.1397 12.5546 30.2778 12.6038C31.4158 12.653 32.5164 13.0253 33.4507 13.677C34.385 14.3288 35.1144 15.2331 35.5536 16.2841C35.9928 17.3352 36.1237 18.4896 35.9309 19.6124L35.9308 19.6377ZM19.0757 25.1506L16.3824 23.5989C16.3689 23.5908 16.3574 23.5798 16.3486 23.5667C16.3399 23.5537 16.3341 23.5388 16.3317 23.5233V16.0989C16.3332 14.9599 16.6589 13.8449 17.2707 12.8842C17.8825 11.9235 18.7552 11.1569 19.7867 10.6739C20.8182 10.1909 21.9659 10.0115 23.0955 10.1567C24.2252 10.302 25.2902 10.7658 26.166 11.494L25.9766 11.6013L19.6057 15.2786C19.4472 15.3716 19.3155 15.5043 19.2237 15.6635C19.1319 15.8228 19.0831 16.0032 19.0821 16.187L19.0757 25.1506ZM20.5392 21.9968L24.0085 19.997L27.4844 21.9968V25.996L24.0212 27.9956L20.5456 25.996L20.5392 21.9968Z" fill="black"/>
</g>
<defs>
<clipPath id="clip0_1841_73530">
<rect width="32" height="32" fill="white" transform="translate(8 8)"/>
</clipPath>
</defs>
</svg>
