<svg width="48" height="48" viewBox="0 0 48 48" fill="none" xmlns="http://www.w3.org/2000/svg">
<rect width="48" height="48" rx="4" fill="white"/>
<g clip-path="url(#clip0_1841_73541)">
<path opacity="0.2" fill-rule="evenodd" clip-rule="evenodd" d="M32.616 22.768C34.5744 22.768 36.4525 21.99 37.8373 20.6053C39.222 19.2205 40 17.3424 40 15.384C40 13.4256 39.222 11.5475 37.8373 10.1627C36.4525 8.77795 34.5744 8 32.616 8C30.6576 8 28.7795 8.77795 27.3947 10.1627C26.01 11.5475 25.232 13.4256 25.232 15.384C25.232 17.3424 26.01 19.2205 27.3947 20.6053C28.7795 21.99 30.6576 22.768 32.616 22.768ZM32.616 40C34.5744 40 36.4525 39.222 37.8373 37.8373C39.222 36.4525 40 34.5744 40 32.616C40 30.6576 39.222 28.7795 37.8373 27.3947C36.4525 26.01 34.5744 25.232 32.616 25.232C30.6576 25.232 28.7795 26.01 27.3947 27.3947C26.01 28.7795 25.232 30.6576 25.232 32.616C25.232 34.5744 26.01 36.4525 27.3947 37.8373C28.7795 39.222 30.6576 40 32.616 40ZM15.384 40C17.3424 40 19.2205 39.222 20.6053 37.8373C21.99 36.4525 22.768 34.5744 22.768 32.616C22.768 30.6576 21.99 28.7795 20.6053 27.3947C19.2205 26.01 17.3424 25.232 15.384 25.232C13.4256 25.232 11.5475 26.01 10.1627 27.3947C8.77795 28.7795 8 30.6576 8 32.616C8 34.5744 8.77795 36.4525 10.1627 37.8373C11.5475 39.222 13.4256 40 15.384 40Z" fill="black"/>
<path d="M15.384 22.768C19.4621 22.768 22.768 19.4621 22.768 15.384C22.768 11.3059 19.4621 8 15.384 8C11.3059 8 8 11.3059 8 15.384C8 19.4621 11.3059 22.768 15.384 22.768Z" fill="#0F6FFF"/>
</g>
<defs>
<clipPath id="clip0_1841_73541">
<rect width="32" height="32" fill="white" transform="translate(8 8)"/>
</clipPath>
</defs>
</svg>
