<svg width="24" height="24" viewBox="0 0 24 24" fill="none" xmlns="http://www.w3.org/2000/svg">
<path d="M24 3H0V21H24V3Z" fill="#006C35"/>
<path fill-rule="evenodd" clip-rule="evenodd" d="M10.1375 7.25392C10.1236 7.25351 10.1027 7.2613 10.0734 7.27867C10.0076 7.32279 9.87717 7.45869 9.87318 7.61505C9.86919 7.70326 9.85253 7.70291 9.9103 7.75905C9.95203 7.81921 9.9937 7.8133 10.0779 7.76917C10.1263 7.73354 10.1426 7.71081 10.1589 7.65105C10.179 7.55083 10.0535 7.69847 10.0374 7.58693C10.0094 7.48337 10.0895 7.44077 10.1657 7.34055C10.1674 7.29335 10.1683 7.25483 10.1375 7.25393L10.1375 7.25392ZM11.3638 7.26067C11.3403 7.26384 11.3115 7.29398 11.2715 7.36642C11.2429 7.4423 11.1194 7.55712 11.2085 7.79392C11.2814 7.94407 11.3114 8.18809 11.2783 8.45992C11.2278 8.53717 11.2163 8.5638 11.15 8.64105C11.057 8.74109 10.9562 8.71551 10.8789 8.67817C10.8067 8.62947 10.7499 8.60448 10.7169 8.44979C10.7229 8.20323 10.7372 7.79967 10.6922 7.71402C10.6257 7.5814 10.5162 7.62896 10.4694 7.66902C10.2445 7.87466 10.1334 8.22188 10.0655 8.49814C10.0032 8.69949 9.93669 8.64126 9.89002 8.56002C9.77642 8.45355 9.76843 7.62103 9.63127 7.7579C9.4116 8.38574 9.75734 9.07352 9.99689 9.00667C10.1697 9.07822 10.2794 8.74925 10.3501 8.38905C10.3985 8.28796 10.4355 8.27634 10.4604 8.3283C10.454 8.80732 10.4947 8.91417 10.6179 9.05953C10.8926 9.27148 11.1198 9.08639 11.1377 9.06853C11.1555 9.05072 11.3514 8.85478 11.3514 8.85478C11.399 8.80471 11.4619 8.80166 11.5292 8.84578C11.5945 8.90518 11.5861 9.0075 11.726 9.07866C11.8438 9.12576 12.0952 9.09012 12.1535 8.98866C12.232 8.85415 12.2511 8.80793 12.2874 8.75691C12.3434 8.68234 12.4393 8.71536 12.4393 8.73891C12.4304 8.7805 12.374 8.82152 12.4123 8.89641C12.4789 8.94638 12.4944 8.91426 12.5338 8.90316C12.6732 8.83654 12.7779 8.53416 12.7779 8.53416C12.7841 8.42138 12.7199 8.42994 12.6789 8.45316C12.6254 8.48585 12.6221 8.49697 12.5687 8.52966C12.5005 8.53979 12.3685 8.58474 12.3032 8.48354C12.2364 8.36187 12.2361 8.19225 12.185 8.06954C12.185 8.06061 12.0959 7.87658 12.1783 7.86479C12.2199 7.87252 12.3093 7.89563 12.3234 7.82091C12.367 7.74809 12.2293 7.5415 12.1355 7.4373C12.0541 7.34796 11.9418 7.33707 11.8329 7.4283C11.7567 7.49843 11.768 7.57677 11.753 7.65105C11.7336 7.73635 11.7373 7.84202 11.8239 7.9548C11.9 8.10484 12.0382 8.29734 11.9927 8.56903C11.9927 8.56903 11.9123 8.69833 11.771 8.68153C11.7121 8.66868 11.6162 8.64319 11.5652 8.26641C11.5266 7.98121 11.5748 7.58162 11.4538 7.39453C11.4265 7.32393 11.403 7.25537 11.3638 7.26065L11.3638 7.26067ZM10.9757 7.29091C10.9391 7.29411 10.8985 7.33676 10.8655 7.41916C10.8371 7.48183 10.8024 7.80955 10.8081 7.80955C10.7854 7.90708 10.91 7.94841 10.9667 7.82305C11.0517 7.59321 11.0521 7.49529 11.0578 7.39781C11.0446 7.32356 11.0123 7.28774 10.9757 7.29094L10.9757 7.29091ZM12.4089 7.31679C12.3713 7.3202 12.3414 7.34222 12.3302 7.39779C12.3152 7.52845 12.3229 7.5995 12.3448 7.70829C12.3616 7.78082 12.4672 7.90227 12.5192 7.97266C12.7674 8.30636 13.0063 8.64165 13.237 8.98855C13.2732 9.24613 13.2998 9.49809 13.3168 9.74905C13.3542 10.2993 13.3656 10.9842 13.3315 11.5637C13.4345 11.5677 13.5997 11.3972 13.6577 11.1474C13.6954 10.8019 13.6443 10.097 13.6408 9.89305C13.6384 9.8084 13.6332 9.7074 13.6273 9.60167C13.8956 10.0401 14.1559 10.5046 14.4114 11.0147C14.5046 10.9704 14.4839 10.4459 14.4294 10.3723C14.2249 9.93211 13.9424 9.49763 13.8523 9.33052C13.8198 9.27017 13.7091 9.10175 13.5778 8.90752C13.5537 8.63037 13.5274 8.39564 13.5103 8.32475C13.4681 8.03178 13.6307 8.35779 13.6082 8.1875C13.5554 7.89493 13.394 7.6961 13.2032 7.42812C13.1417 7.34096 13.1429 7.32318 13.048 7.44949C12.9912 7.57826 12.992 7.68539 13.0086 7.78587C12.9836 7.74957 12.9527 7.70653 12.9085 7.65312C12.7437 7.51179 12.7336 7.50406 12.5968 7.38874C12.5537 7.35815 12.4716 7.31106 12.409 7.31674L12.4089 7.31679ZM16.6569 7.36066C16.6386 7.35782 16.6187 7.36682 16.5962 7.40004C16.5532 7.4377 16.507 7.50591 16.5084 7.59354C16.5189 7.74794 16.5464 7.90602 16.5568 8.06042C16.5605 8.08109 16.5644 8.10164 16.5681 8.1223C16.5515 8.10113 16.537 8.08461 16.5287 8.07618C16.2277 7.76002 16.667 8.02451 16.4713 7.7803C16.3058 7.59862 16.2574 7.54081 16.1158 7.43155C16.0448 7.38565 16.0019 7.29795 15.9786 7.4473C15.9693 7.57851 15.9596 7.73045 15.9684 7.84107C15.9679 7.90254 16.0316 8.01825 16.0866 8.08632C16.2873 8.33298 16.4924 8.59543 16.6986 8.86932C16.7419 9.4279 16.7535 9.93992 16.7976 10.4994C16.7913 10.7387 16.7177 11.0566 16.6479 11.0867C16.6479 11.0867 16.5414 11.1479 16.4702 11.0799C16.4184 11.0591 16.2114 10.7345 16.2114 10.7345C16.1055 10.6374 16.0348 10.6652 15.9594 10.7345C15.7515 10.9353 15.6575 11.3114 15.5162 11.5704C15.4798 11.6282 15.3772 11.6774 15.2631 11.5659C14.9733 11.1701 15.1428 10.6066 15.1067 10.7514C14.8486 11.0423 14.9629 11.5242 15.0212 11.6278C15.1063 11.798 15.1751 11.907 15.3407 11.9912C15.4915 12.1022 15.6089 12.0329 15.6737 11.9552C15.8254 11.7979 15.8275 11.3958 15.8987 11.3162C15.9487 11.17 16.0739 11.1952 16.1349 11.2599C16.1941 11.345 16.264 11.4004 16.3509 11.4467C16.4925 11.5716 16.6614 11.5942 16.8279 11.4804C16.9417 11.4166 17.0156 11.3337 17.0822 11.1699C17.1537 10.9788 17.1183 9.97683 17.1024 9.41944C17.2094 9.57003 17.3149 9.72389 17.4197 9.87956C17.4657 10.3688 17.4866 10.8507 17.4714 11.3128C17.4606 11.4047 17.7921 11.0385 17.7898 10.865C17.7883 10.7133 17.7901 10.5757 17.7898 10.4476C17.9506 10.7043 18.1062 10.9653 18.2533 11.2295C18.3445 11.1812 18.3132 10.6651 18.2556 10.5939C18.1016 10.3355 17.9043 10.0562 17.7516 9.84014C17.7214 9.56744 17.6803 9.24571 17.6616 9.14714C17.6324 8.99343 17.6033 8.76255 17.5592 8.58014C17.5471 8.50891 17.5106 8.28139 17.5221 8.25952C17.54 8.20861 17.6079 8.26114 17.6413 8.20214C17.6914 8.1476 17.4679 7.56861 17.3544 7.40337C17.3137 7.32931 17.2399 7.35494 17.1486 7.47537C17.0639 7.55462 17.0949 7.73541 17.1272 7.90737C17.2112 8.34563 17.2861 8.79196 17.3454 9.23714C17.2356 9.0739 17.1016 8.87638 16.9697 8.68591C16.9661 8.66754 16.9528 8.60022 16.9528 8.59928C16.9528 8.59141 16.9346 8.24076 16.9191 8.15717C16.9163 8.12324 16.9082 8.11347 16.9438 8.11779C16.9815 8.1495 16.9866 8.15121 17.0102 8.16167C17.0482 8.16863 17.0815 8.10428 17.0586 8.04467C16.9408 7.8275 16.8231 7.60936 16.7053 7.39217C16.6911 7.37822 16.6752 7.36352 16.6569 7.36067L16.6569 7.36066ZM5.69385 7.37191C5.62861 7.37005 5.55663 7.41049 5.58473 7.48891C5.56837 7.53166 5.71244 7.67615 5.73773 7.75554C5.76041 7.81207 5.71524 7.99411 5.76248 8.01091C5.80591 8.02975 5.86573 7.8849 5.88848 7.75104C5.90107 7.6777 5.89154 7.42674 5.72086 7.37527C5.71211 7.37329 5.70318 7.37216 5.69386 7.3719L5.69385 7.37191ZM18.1826 7.37335C18.1677 7.37483 18.1496 7.39886 18.1219 7.45773C18.0551 7.5671 18.0321 7.76292 18.0589 7.93585C18.2196 9.02315 18.3391 10.076 18.3637 11.0397C18.3499 11.1312 18.3459 11.1799 18.303 11.2951C18.2081 11.4167 18.1035 11.5692 18.0049 11.6427C17.9063 11.7162 17.6966 11.7863 17.628 11.8407C17.4104 11.9665 17.4093 12.1111 17.5852 12.1164C17.8884 12.0812 18.2471 12.0563 18.4942 11.6832C18.5603 11.5787 18.6382 11.2953 18.6416 11.1219C18.6647 10.105 18.6286 9.11068 18.4762 8.37574C18.4665 8.30414 18.4349 8.13959 18.447 8.11811C18.4666 8.06779 18.5658 8.12315 18.6011 8.06524C18.6529 8.01233 18.3446 7.61754 18.2366 7.44874C18.215 7.40634 18.2017 7.37146 18.1826 7.37336L18.1826 7.37335ZM15.0034 7.39023C14.9909 7.39239 14.9724 7.41144 14.9381 7.45661C14.8534 7.7335 14.8237 7.95963 14.856 8.13161C15.0735 9.26683 15.2964 10.3011 15.261 11.3817C15.3642 11.3824 15.4834 11.1457 15.5344 10.9115C15.5623 10.5888 15.5158 10.3924 15.5074 10.2027C15.499 10.0131 15.2927 8.47422 15.2509 8.33072C15.2004 8.05938 15.4515 8.29503 15.4241 8.13722C15.3373 7.93827 15.1207 7.64856 15.0529 7.47572C15.0274 7.42943 15.0243 7.38662 15.0034 7.39022L15.0034 7.39023ZM7.2623 7.4116C7.23557 7.41623 7.20977 7.43826 7.20042 7.4746C7.19455 7.49841 7.21073 7.538 7.18917 7.54998C7.1768 7.56246 7.12984 7.55407 7.1318 7.4881C7.1318 7.46709 7.11637 7.44517 7.10705 7.43185C7.09769 7.42572 7.09137 7.42398 7.07442 7.42398C7.05378 7.42481 7.05424 7.43026 7.04292 7.4476C7.03788 7.46524 7.0314 7.48252 7.0314 7.50268C7.02883 7.52616 7.01942 7.53411 7.00215 7.53756C6.98285 7.53756 6.98742 7.53966 6.97178 7.52968C6.96249 7.51952 6.95153 7.51553 6.95153 7.49818C6.95153 7.48022 6.94681 7.45155 6.9414 7.43968C6.9332 7.42887 6.92024 7.42324 6.9054 7.41943C6.82452 7.41972 6.81863 7.51267 6.82328 7.54768C6.81722 7.55429 6.81422 7.71902 6.92453 7.76481C7.07261 7.83542 7.3503 7.80557 7.33853 7.56681C7.33853 7.54569 7.33388 7.47477 7.33178 7.45543C7.31667 7.42023 7.28876 7.40692 7.26203 7.41155L7.2623 7.4116ZM9.24907 7.41385C9.19789 7.41646 9.15271 7.43113 9.11407 7.45098C9.01592 7.54496 8.9929 7.69562 9.07019 7.7896C9.14541 7.82512 9.22046 7.90084 9.17032 7.9426C8.9576 8.1698 8.40398 8.54945 8.37608 8.61872C8.37587 8.61928 8.37508 8.62045 8.37496 8.62097C8.37489 8.62146 8.37497 8.62277 8.37496 8.62322C8.37498 8.62343 8.37493 8.62414 8.37496 8.62434C8.37514 8.62491 8.37573 8.62612 8.37608 8.62659C8.37623 8.62673 8.37705 8.62758 8.37721 8.62771C8.37739 8.62782 8.37813 8.6276 8.37833 8.62771C8.37855 8.62782 8.37921 8.62876 8.37945 8.62884C8.37971 8.62891 8.38029 8.62876 8.38058 8.62884C8.38065 8.62891 8.38161 8.62988 8.3817 8.62996C8.40983 8.64883 8.75624 8.64838 8.79458 8.63108C8.79487 8.63094 8.79548 8.63011 8.79571 8.62996C8.79581 8.62989 8.79674 8.63003 8.79683 8.62996C8.7969 8.62989 8.79676 8.62891 8.79683 8.62884C8.91588 8.58497 9.48083 7.93922 9.48083 7.93922C9.45155 7.91415 9.42458 7.89567 9.39533 7.8706C9.36398 7.84346 9.36714 7.81677 9.39533 7.7896C9.53525 7.70817 9.49091 7.52902 9.41783 7.4476C9.35725 7.42044 9.30026 7.41124 9.24908 7.41385L9.24907 7.41385ZM14.4421 7.4161C14.4272 7.41758 14.4091 7.44049 14.3813 7.49935C14.3146 7.60872 14.2692 7.79917 14.2744 7.97747C14.4191 8.97877 14.4634 9.85501 14.5579 10.8564C14.5656 10.9532 14.5514 11.0939 14.4871 11.15C14.249 11.3986 13.9056 11.7052 13.532 11.8464C13.4917 11.8915 13.6319 12.0839 13.8132 12.0837C14.1164 12.0485 14.3828 11.8784 14.63 11.4301C14.696 11.3256 14.8122 11.1018 14.8156 10.9284C14.8387 9.91146 14.7643 9.12083 14.612 8.38585C14.6022 8.31426 14.6088 8.22958 14.621 8.2081C14.6406 8.18466 14.7072 8.20864 14.7425 8.15073C14.7943 8.09782 14.6041 7.65915 14.4961 7.49034C14.4745 7.44795 14.4612 7.4142 14.4421 7.41609L14.4421 7.4161ZM6.39715 7.4467C6.35531 7.4516 6.31594 7.48566 6.29703 7.53108C6.29002 7.69168 6.28908 7.8522 6.30715 8.0002C6.3802 8.25979 6.40333 8.4881 6.43877 8.75396C6.44861 9.11004 6.23315 8.90799 6.24302 8.73146C6.29277 8.50217 6.27935 8.14121 6.23515 8.0497C6.2001 7.95822 6.15951 7.93564 6.07427 7.9507C6.0066 7.94656 5.83177 8.13705 5.7829 8.45246C5.7829 8.45246 5.74218 8.61434 5.7244 8.75846C5.70048 8.92135 5.59258 9.0367 5.5174 8.73596C5.45241 8.51738 5.41247 7.97881 5.30365 8.10485C5.27248 8.52536 5.23547 9.26531 5.59277 9.34123C6.02495 9.38278 5.78622 8.61065 5.94265 8.47046C5.97222 8.40119 6.02702 8.39996 6.03152 8.48734V9.14322C6.02757 9.35644 6.16788 9.4198 6.27677 9.46385C6.39009 9.4551 6.46523 9.4582 6.50965 9.56847C6.52736 9.94654 6.54594 10.3255 6.56365 10.7036C6.56365 10.7036 6.82563 10.7789 6.83815 10.0657C6.85071 9.64695 6.75476 9.29555 6.81115 9.21409C6.81314 9.13404 6.91575 9.13008 6.98665 9.16909C7.09961 9.24877 7.14972 9.34683 7.32527 9.30746C7.59241 9.23388 7.75331 9.10421 7.75727 8.89908C7.74167 8.70415 7.71912 8.50902 7.63465 8.31408C7.64644 8.27863 7.58352 8.1864 7.59527 8.15096C7.64328 8.22614 7.7159 8.2199 7.73252 8.15096C7.68705 8.00113 7.61627 7.85758 7.5019 7.79546C7.40737 7.71218 7.26906 7.72979 7.2184 7.90346C7.19492 8.10357 7.29093 8.34075 7.43665 8.53457C7.4676 8.6103 7.5109 8.73625 7.49177 8.84957C7.41423 8.8938 7.33735 8.8754 7.2724 8.80682C7.2724 8.80682 7.05977 8.64765 7.05977 8.6122C7.1162 8.25094 7.07193 8.20957 7.04065 8.10931C7.0188 7.97092 6.95322 7.92709 6.90002 7.83256C6.84683 7.77618 6.77467 7.77618 6.74027 7.83256C6.64629 7.99549 6.69039 8.34528 6.75827 8.50195C6.80733 8.64604 6.88256 8.73595 6.84715 8.73595C6.81798 8.81737 6.75714 8.79843 6.71327 8.70445C6.65065 8.51021 6.6379 8.22072 6.6379 8.09022C6.6191 7.92842 6.59815 7.5828 6.49165 7.4951C6.46323 7.4564 6.42969 7.44292 6.39715 7.44672L6.39715 7.4467ZM7.91477 7.44895C7.89332 7.45166 7.86961 7.46387 7.84164 7.47033C7.74977 7.49958 7.66375 7.579 7.69089 7.73358C7.7995 8.39353 7.87029 8.89721 7.97889 9.55719C7.99558 9.63448 7.9308 9.73636 7.84727 9.72594C7.70525 9.62986 7.67 9.43526 7.42765 9.44357C7.25221 9.44567 7.05214 9.63658 7.02715 9.82045C6.99791 9.96658 6.98749 10.125 7.02715 10.2525C7.15045 10.4007 7.29815 10.3849 7.42765 10.3515C7.53415 10.3076 7.62178 10.2027 7.6594 10.2277C7.65951 10.2278 7.66043 10.2276 7.66053 10.2277C7.66063 10.2278 7.66042 10.2287 7.66053 10.2288C7.68375 10.2694 7.65834 10.6127 7.15876 10.8779C6.85175 11.0158 6.60738 11.0487 6.47587 10.7981C6.39441 10.6414 6.4818 10.0448 6.28125 10.1827C5.68815 11.7115 7.67078 11.9249 7.89225 10.2457C7.9066 10.1983 7.95029 10.1508 7.98113 10.1624C7.99466 10.1682 8.00705 10.1866 8.0115 10.2209C7.96553 11.7414 6.47769 11.8456 6.225 11.3673C6.16237 11.2546 6.14353 11.0036 6.13725 10.8532C6.1258 10.7622 6.10297 10.7097 6.0765 10.6889C6.01622 10.6437 5.93521 10.7618 5.91788 10.9668C5.89281 11.1318 5.89988 11.1771 5.89988 11.3358C5.97924 12.5367 7.89385 12.0208 8.205 11.0287C8.35903 10.5158 8.20186 10.129 8.25337 10.0815C8.25382 10.0811 8.25515 10.0807 8.25562 10.0803C8.25611 10.0801 8.25735 10.0795 8.25787 10.0792C8.25841 10.079 8.25955 10.0783 8.26012 10.0781C8.26188 10.0776 8.26482 10.077 8.26687 10.077C8.45694 10.2817 8.72364 10.103 8.7821 10.032C8.80718 9.99645 8.8699 9.97366 8.91373 10.0196C9.06199 10.1262 9.32186 10.0759 9.37611 9.88798C9.40746 9.70419 9.43396 9.51498 9.44024 9.31875C9.34366 9.34873 9.26572 9.37118 9.23436 9.40425C9.22689 9.4124 9.22136 9.42145 9.21973 9.43125C9.21135 9.48557 9.20336 9.54005 9.19498 9.59437C9.19409 9.59886 9.19264 9.60301 9.19048 9.60675C9.18637 9.61341 9.17956 9.61956 9.17248 9.62362C9.13834 9.64226 9.0788 9.6316 9.07573 9.582C9.0298 9.37314 8.84074 9.34597 8.72586 9.66975C8.64857 9.73238 8.50764 9.7446 8.49298 9.65062C8.51178 9.43342 8.42426 9.40426 8.24886 9.50662C8.19247 9.07639 8.13653 8.66563 8.08011 8.23539C8.15322 8.23328 8.22027 8.28629 8.28711 8.20276C8.21478 7.97781 8.06172 7.5201 7.97548 7.47715C7.97481 7.47682 7.9739 7.47629 7.97323 7.47603C7.96932 7.47133 7.96468 7.467 7.96086 7.46365C7.95927 7.4623 7.95682 7.46029 7.95523 7.45915C7.95365 7.45805 7.95118 7.45668 7.94961 7.45578C7.94614 7.45388 7.94182 7.45233 7.93836 7.45128C7.9305 7.44905 7.92286 7.448 7.91473 7.44903L7.91477 7.44895ZM13.831 7.45233C13.7551 7.45008 13.6712 7.49789 13.7039 7.59295C13.6848 7.6448 13.8669 7.82069 13.8963 7.91695C13.9491 8.06485 13.8559 8.20593 13.9109 8.22633C13.9615 8.24915 14.0318 8.07363 14.0583 7.91133C14.0888 7.78012 13.9952 7.51122 13.8625 7.45571C13.8523 7.45332 13.8419 7.45266 13.831 7.45234L13.831 7.45233ZM9.22193 7.61433C9.25648 7.61081 9.29823 7.64255 9.31868 7.68745C9.34049 7.73534 9.32955 7.7811 9.29393 7.78983C9.2583 7.79855 9.21224 7.76684 9.19043 7.71895C9.16861 7.67106 9.17955 7.62418 9.21518 7.61545C9.2174 7.6149 9.21962 7.61456 9.22193 7.61433ZM17.7719 7.83595C17.7028 7.83353 17.6274 7.88605 17.6572 7.98895C17.6398 8.04508 17.8048 8.23574 17.8316 8.33995C17.8556 8.41412 17.7949 8.65314 17.8451 8.6752C17.8912 8.69991 17.956 8.51006 17.9801 8.33432C17.9934 8.23813 17.9221 7.90056 17.8012 7.84044C17.7919 7.83785 17.7818 7.83629 17.7719 7.83594V7.83595ZM13.0448 7.95295C13.0511 7.98116 13.0574 8.00956 13.0616 8.03845C13.0758 8.10079 13.088 8.16272 13.101 8.22407C13.0464 8.14888 13.0012 8.08813 12.9818 8.06657C12.8582 7.91973 12.9845 7.97014 13.0448 7.95295H13.0448ZM14.1338 8.48845C14.107 8.49308 14.0812 8.51624 14.0719 8.55257C14.066 8.57638 14.0833 8.61485 14.0618 8.62682C14.0494 8.63931 14.0013 8.63204 14.0033 8.56607C14.0033 8.54506 13.9878 8.52202 13.9785 8.5087C13.9692 8.50256 13.9628 8.50082 13.9459 8.50082C13.9252 8.50166 13.9257 8.5071 13.9144 8.52445C13.9096 8.54212 13.9031 8.55954 13.9031 8.57957C13.9006 8.60305 13.8923 8.611 13.875 8.61444C13.8557 8.61444 13.8592 8.61655 13.8435 8.60657C13.8342 8.59641 13.8233 8.59241 13.8233 8.57507C13.8233 8.55711 13.8185 8.52844 13.8131 8.51657C13.8049 8.50576 13.792 8.50125 13.7771 8.49744C13.6963 8.49773 13.6915 8.58955 13.6961 8.62457C13.6901 8.63117 13.686 8.79703 13.7963 8.84282C13.9443 8.91343 14.2231 8.88245 14.2114 8.64369C14.2114 8.62258 14.2056 8.55166 14.2035 8.53232C14.1884 8.49712 14.1605 8.48381 14.1338 8.48844L14.1338 8.48845ZM9.16144 8.53795C9.14319 8.53609 9.11925 8.54279 9.09169 8.55933C8.96074 8.63016 8.91004 8.84027 8.99157 8.96321C9.06774 9.07149 9.18816 9.03183 9.20419 9.03183C9.3325 9.04787 9.40894 8.79108 9.40894 8.79108C9.40894 8.79108 9.41281 8.71888 9.26044 8.85521C9.19633 8.86722 9.18761 8.84406 9.17157 8.80796C9.15822 8.74115 9.16108 8.67342 9.19182 8.60658C9.20602 8.56651 9.19189 8.54106 9.16144 8.53796L9.16144 8.53795ZM16.1904 8.57058C16.1177 8.56704 16.0404 8.61412 16.0206 8.71345C16.0209 8.77205 16.047 8.80426 16.0419 8.85745C16.0344 8.88786 16.003 8.90786 15.9283 8.87208C15.94 8.86134 15.8799 8.77645 15.8799 8.77645C15.8217 8.74097 15.7438 8.77838 15.6932 8.81133C15.6653 8.86198 15.6447 8.94881 15.6763 9.03745C15.76 9.19199 16.0469 9.4557 16.1837 9.45822C16.1862 9.31888 16.1998 9.13359 16.2073 9.01834C16.2106 8.97483 16.2208 8.92688 16.2624 8.91596C16.3041 8.90507 16.3764 8.95787 16.3772 8.91259C16.3696 8.82394 16.3519 8.69313 16.3018 8.63134C16.2762 8.59333 16.2341 8.57271 16.1904 8.57059L16.1904 8.57058ZM10.3721 9.05546C10.3702 9.05617 10.3683 9.05782 10.3665 9.05883C10.3656 9.05936 10.364 9.06045 10.3631 9.06108C10.3486 9.07195 10.3316 9.09704 10.2934 9.12408C10.229 9.19734 10.2174 9.24836 10.2214 9.39521C10.225 9.41074 10.3437 9.74051 10.4441 9.97232C10.5119 10.2133 10.5745 10.4891 10.5285 10.7497C10.3699 11.0942 10.051 11.4031 9.74327 11.5709C9.58647 11.6212 9.45105 11.6041 9.41477 11.5698C9.41448 11.5695 9.41391 11.569 9.41365 11.5687C9.3236 11.5081 9.32153 11.4004 9.32703 11.3819C9.32702 11.3818 9.32703 11.3809 9.32703 11.3808C9.32724 11.3806 9.32794 11.3799 9.32815 11.3797C9.58785 11.1988 9.88449 11.0524 10.1168 10.5641C10.1853 10.3775 10.2063 10.2654 10.1381 9.97685C10.1116 9.86932 10.0788 9.78084 10.0054 9.7046C10.0056 9.70438 10.0063 9.70367 10.0065 9.70347C10.0507 9.68232 10.1654 9.76682 10.1831 9.7136C10.156 9.57582 10.0627 9.39086 9.95701 9.29621C9.86449 9.21218 9.76383 9.20245 9.67914 9.27934C9.58374 9.33242 9.56345 9.52308 9.60939 9.68996C9.66041 9.81558 9.79815 9.83762 9.89626 10.0905C9.89626 10.0907 9.89625 10.0915 9.89626 10.0916C9.89831 10.1074 9.92994 10.2803 9.88051 10.3503C9.84041 10.4754 9.32525 10.8817 9.28874 10.9061C9.28834 10.9065 9.28576 10.908 9.28537 10.9083C9.28516 10.9086 9.28444 10.9093 9.28425 10.9095C9.28414 10.9095 9.28336 10.9104 9.28313 10.9106C9.28302 10.9107 9.2821 10.9116 9.282 10.9117C9.28189 10.9117 9.281 10.9117 9.28088 10.9117C9.28081 10.9117 9.28001 10.9117 9.27976 10.9117C9.27954 10.9115 9.27883 10.9108 9.27863 10.9106C9.27864 10.9105 9.27863 10.9096 9.27863 10.9095C9.27842 10.9091 9.27771 10.9076 9.27751 10.9072C9.27596 10.8971 9.27868 10.8713 9.27751 10.8296C9.27413 10.7535 9.30563 10.5813 9.30338 10.5517C9.30339 10.5516 9.30338 10.5507 9.30338 10.5506C9.30317 10.5504 9.30247 10.5497 9.30226 10.5495C9.30226 10.5494 9.30226 10.5485 9.30226 10.5484C9.30201 10.5484 9.30117 10.5484 9.30114 10.5484C9.13085 10.6583 9.07461 10.9953 9.04351 11.0951C8.61241 11.393 8.12285 11.6146 7.8409 11.9163C7.69405 12.1457 8.85264 11.653 8.98728 11.5935C8.98844 11.5943 8.98959 11.5957 8.99066 11.5968C9.01625 11.625 9.01843 11.7232 9.09528 11.8117C9.21571 11.9749 9.4717 12.0753 9.72078 12.0131C10.1385 11.8621 10.3791 11.5774 10.6242 11.2616C10.6592 11.2107 10.7141 11.1705 10.7648 11.2099C10.9332 11.5868 11.4186 11.855 12.0462 11.8826C12.1914 11.706 12.1219 11.6192 12.063 11.5822C12.0449 11.5702 11.7509 11.4556 11.7053 11.3415C11.6766 11.2353 11.7464 11.1412 11.8864 11.0704C12.2894 11.0216 12.6855 10.9675 13.0688 10.8442C13.0727 10.7155 13.1485 10.5229 13.1993 10.4392C13.2346 10.3812 13.2572 10.3755 13.2657 10.3672C13.266 10.367 13.2666 10.3664 13.2668 10.3661C13.2669 10.366 13.2678 10.3652 13.2679 10.365C13.2681 10.3648 13.2688 10.3641 13.269 10.3639C13.2691 10.3635 13.2691 10.362 13.269 10.3616C13.2693 10.3591 13.269 10.3547 13.2679 10.3504L13.2027 10.3121L11.9168 10.3065C11.9009 10.3004 11.8891 10.2942 11.8819 10.2885C11.8814 10.288 11.8802 10.2867 11.8797 10.2863C11.8795 10.286 11.8788 10.2854 11.8785 10.2851C11.8783 10.2849 11.8776 10.2842 11.8774 10.284C11.8772 10.2836 11.8765 10.2821 11.8763 10.2818C11.8762 10.2816 11.8753 10.2807 11.8752 10.2806C11.8752 10.2805 11.8752 10.2796 11.8752 10.2795C11.8751 10.2794 11.8742 10.2785 11.8741 10.2784C11.8741 10.2783 11.874 10.2774 11.8741 10.2773C11.8741 10.2772 11.874 10.2763 11.8741 10.2761C11.8741 10.276 11.874 10.2751 11.8741 10.275C11.874 10.2748 11.8741 10.2741 11.8741 10.2739C11.8741 10.2738 11.8741 10.273 11.8741 10.2728C11.874 10.2727 11.8741 10.2718 11.8741 10.2716C11.874 10.2715 11.8741 10.2706 11.8741 10.2705C11.874 10.2704 11.8741 10.2695 11.8741 10.2694C11.8743 10.2692 11.875 10.2685 11.8752 10.2683C11.8755 10.2677 11.8759 10.2666 11.8763 10.266C11.8826 10.2576 11.8978 10.2496 11.9168 10.2424C12.2238 10.2006 12.7693 10.1111 12.8056 9.58652C12.7999 9.31325 12.6886 9.13432 12.3533 9.08475C12.107 9.1038 11.9312 9.34212 11.9596 9.60452C11.9478 9.67516 11.9835 9.81381 11.9112 9.82952C11.4386 9.87269 10.9227 10.1688 10.9054 10.3807C10.9053 10.3807 10.9044 10.3808 10.9043 10.3807C10.9041 10.381 10.9034 10.3817 10.9032 10.3819C10.9028 10.3821 10.9015 10.3827 10.9009 10.383C10.9005 10.383 10.8991 10.383 10.8987 10.383C10.8979 10.3832 10.8961 10.3839 10.8953 10.3841C10.8951 10.3841 10.8945 10.3841 10.8942 10.3841C10.8935 10.3841 10.8924 10.3841 10.8919 10.3841C10.8917 10.3841 10.8911 10.3841 10.8908 10.3841C10.8903 10.3841 10.8889 10.3841 10.8886 10.3841C10.8873 10.3839 10.8851 10.3833 10.8841 10.383C10.8533 10.3745 10.8137 10.3237 10.8199 10.2525C10.8019 9.88612 10.6827 9.47155 10.4959 9.15226C10.4293 9.08563 10.4002 9.05863 10.3812 9.05551C10.3806 9.05544 10.3795 9.05554 10.3789 9.05551C10.3781 9.05551 10.3766 9.05552 10.3756 9.05551C10.3754 9.05552 10.3746 9.0555 10.3744 9.05551C10.3743 9.05551 10.3734 9.05552 10.3733 9.05551C10.3732 9.05555 10.3723 9.05548 10.3722 9.05551L10.3721 9.05546ZM11.6029 9.24896C11.5762 9.25359 11.5504 9.27562 11.541 9.31196C11.5351 9.33576 11.5524 9.37536 11.5309 9.38734C11.5185 9.39982 11.4704 9.39255 11.4724 9.32659C11.4724 9.30558 11.457 9.28253 11.4476 9.26921C11.4383 9.26308 11.4331 9.26133 11.4161 9.26133C11.3955 9.26217 11.3948 9.26761 11.3835 9.28496C11.3787 9.30263 11.3723 9.32005 11.3723 9.34008C11.3697 9.36356 11.3614 9.37151 11.3441 9.37496C11.3248 9.37496 11.3294 9.37706 11.3138 9.36708C11.3045 9.35692 11.2924 9.35293 11.2924 9.33558C11.2924 9.31762 11.2888 9.28895 11.2834 9.27708C11.2752 9.26627 11.2611 9.26177 11.2463 9.25796C11.1654 9.25825 11.1606 9.35007 11.1653 9.38508C11.1592 9.39168 11.1551 9.55754 11.2654 9.60333C11.4135 9.67394 11.7664 9.63237 11.6805 9.40421C11.6805 9.38309 11.6747 9.31217 11.6726 9.29283C11.6575 9.25763 11.6296 9.24432 11.6029 9.24895L11.6029 9.24896ZM16.5698 9.45258C16.5661 9.45191 16.5618 9.45217 16.5574 9.45371C16.5574 9.45371 15.8713 9.94183 15.8543 9.95882C15.7863 10.0193 15.8203 10.232 15.8543 10.2074C15.9035 10.2263 16.5943 9.75824 16.5811 9.70344C16.6112 9.70521 16.6257 9.46263 16.5698 9.45257L16.5698 9.45258ZM12.2513 9.52494C12.2793 9.52197 12.316 9.53147 12.3514 9.55194C12.4026 9.58157 12.4342 9.62631 12.4301 9.65882C12.43 9.6597 12.4303 9.66133 12.4301 9.66219C12.4299 9.66305 12.4281 9.66473 12.4279 9.66557C12.4276 9.66639 12.4271 9.66813 12.4268 9.66894C12.4265 9.66947 12.4259 9.67067 12.4256 9.67119C12.4254 9.67171 12.4248 9.67293 12.4245 9.67344C12.4228 9.67619 12.4201 9.67907 12.4178 9.68131C12.3931 9.70431 12.3363 9.70104 12.2828 9.67006C12.232 9.64071 12.2006 9.59562 12.204 9.56319C12.2041 9.5623 12.205 9.56068 12.2051 9.55981C12.206 9.55579 12.2076 9.55212 12.2096 9.54856C12.2104 9.54729 12.211 9.54523 12.2119 9.54406C12.2121 9.54385 12.2128 9.54316 12.213 9.54294C12.2145 9.54118 12.2168 9.53882 12.2186 9.53732C12.2268 9.5309 12.2384 9.52631 12.2513 9.52494V9.52494ZM6.24249 9.64869C5.88696 9.65519 5.36633 10.1147 5.35261 10.3698C5.72777 10.1896 6.09626 10.0162 6.47761 9.82981C6.41607 9.73793 6.47388 9.65514 6.24249 9.64869L6.24249 9.64869ZM7.39449 9.80844C7.42934 9.80883 7.4661 9.82604 7.48562 9.87482C7.50318 9.91956 7.48645 9.96635 7.46537 9.98957C7.46526 9.98975 7.46547 9.99052 7.46537 9.99069C7.46504 9.99121 7.46459 9.99246 7.46424 9.99294C7.44932 10.0122 7.39693 10.0042 7.35962 10.0042C7.31448 10.0022 7.29222 9.99479 7.26512 9.95807C7.25217 9.91725 7.29161 9.87714 7.309 9.84669C7.30918 9.8464 7.30994 9.84585 7.31012 9.84557C7.31201 9.84273 7.31509 9.83933 7.318 9.83657C7.3315 9.8242 7.35484 9.81265 7.37987 9.80957C7.38474 9.80897 7.38952 9.80839 7.3945 9.80845L7.39449 9.80844ZM16.4363 9.94992C16.373 9.95772 16.3129 10.0175 16.3406 10.113C16.3233 10.1692 16.4264 10.3655 16.4531 10.4697C16.4772 10.5438 16.4221 10.7536 16.4723 10.7757C16.5184 10.8004 16.6397 10.6511 16.6354 10.464C16.6487 10.3679 16.6011 10.0134 16.4801 9.95328C16.4662 9.94939 16.4508 9.9481 16.4363 9.9499L16.4363 9.94992ZM8.75709 10.2964C8.70122 10.3003 8.65136 10.3302 8.67384 10.4089C8.67047 10.466 8.83171 10.5355 8.84147 10.6677C8.86451 10.7222 8.807 10.8967 8.85497 10.9129C8.89902 10.9311 8.96014 10.7923 8.98322 10.6632C8.99599 10.5925 8.9279 10.3451 8.81222 10.3009C8.79446 10.2971 8.77572 10.2951 8.75709 10.2964V10.2964ZM11.0555 10.6103C11.0597 10.61 11.0635 10.6103 11.0679 10.6103C11.0686 10.6103 11.0694 10.6103 11.0701 10.6103C11.2134 10.6492 11.4245 10.6533 11.6079 10.6722C11.7572 10.6816 11.831 10.7985 11.6911 10.8477C11.5532 10.8949 11.4206 10.9318 11.42 11.1312C11.4381 11.2299 11.4343 11.2817 11.4189 11.3056C11.4177 11.3073 11.4157 11.3097 11.4144 11.3112C11.4142 11.3114 11.4134 11.3121 11.4133 11.3123C11.413 11.3125 11.4123 11.3132 11.4121 11.3134C11.4119 11.3136 11.4112 11.3144 11.411 11.3145L11.4099 11.3157C11.4095 11.3159 11.408 11.3166 11.4076 11.3168C11.4056 11.318 11.4031 11.3194 11.4009 11.3202C11.399 11.3208 11.3962 11.3209 11.3941 11.3213C11.3613 11.3261 11.3137 11.2948 11.2783 11.2763C11.1932 11.2152 10.9545 11.0673 10.9205 10.7498C10.9157 10.6781 10.9693 10.6164 11.0555 10.6103L11.0555 10.6103ZM5.44164 10.8544C5.43269 10.8547 5.41478 10.8814 5.39101 10.9118C5.1795 11.2487 5.16069 11.7517 5.27739 11.9018C5.33941 11.9727 5.44165 12.0039 5.51701 11.9817C5.64989 11.9241 5.7083 11.6549 5.67676 11.5564C5.63242 11.487 5.59728 11.476 5.55301 11.5351C5.45951 11.7249 5.42059 11.595 5.41239 11.4889C5.39806 11.2877 5.41755 11.1024 5.43939 10.9557C5.45102 10.8805 5.45059 10.8542 5.44164 10.8545L5.44164 10.8544ZM12.6474 11.2969C12.6317 11.296 12.6149 11.2985 12.5979 11.307C12.5946 11.307 12.4465 11.4071 12.3988 11.4769C12.3697 11.499 12.373 11.5182 12.3819 11.5567C12.4046 11.6089 12.4445 11.5925 12.4899 11.568C12.5501 11.5598 12.5792 11.5992 12.5743 11.6715C12.5465 11.7616 12.5867 11.7952 12.5867 11.8009C12.5867 11.8065 12.6446 11.8563 12.7127 11.8166C12.8563 11.7618 12.9458 11.7085 13.1469 11.6647C13.1997 11.6637 13.1966 11.5224 13.1131 11.5174C13.0042 11.5228 12.9037 11.5284 12.7948 11.6141C12.7277 11.6296 12.7163 11.5888 12.7014 11.5522C12.6844 11.4615 12.7397 11.3975 12.7284 11.3295C12.7314 11.3325 12.6946 11.2994 12.6474 11.2969H12.6474ZM17.2612 11.469C17.2344 11.4698 17.2063 11.4735 17.1655 11.4769C17.1214 11.4862 17.1061 11.5055 17.098 11.559C17.1012 11.64 17.1508 11.636 17.2015 11.6681C17.2309 11.7055 17.25 11.7394 17.1993 11.8009C17.1512 11.8449 17.1169 11.8693 17.0688 11.9134C17.0461 11.9521 17.0319 12.0116 17.1014 12.0304C17.2297 12.0664 17.5266 11.8735 17.5266 11.8695C17.5748 11.8334 17.5588 11.7649 17.5548 11.7649C17.5267 11.7328 17.4634 11.752 17.4209 11.7469C17.4006 11.7469 17.3342 11.737 17.3658 11.6782C17.3921 11.6417 17.4019 11.6198 17.4198 11.5747C17.4398 11.5306 17.4222 11.5009 17.35 11.4769C17.3133 11.4702 17.2879 11.4681 17.2611 11.469L17.2612 11.469ZM15.3337 15.3714C15.3334 15.3715 15.3329 15.3723 15.3326 15.3725C15.1192 15.4273 15.1258 15.6488 15.2628 15.746C13.0095 15.746 9.55144 15.7078 8.80984 15.7078C8.39494 15.7078 7.08231 15.6583 7.05708 15.6583C7.33858 16.07 7.74637 16.1538 8.27996 16.1623C9.28083 16.1623 13.9183 16.1499 15.238 16.1499C15.1442 16.3165 15.2466 16.5845 15.3202 16.6337C15.3217 16.6347 15.3243 16.6362 15.3258 16.637C15.3285 16.6384 15.3322 16.6397 15.3348 16.6404C15.3357 16.6406 15.3373 16.6403 15.3382 16.6404C15.4255 16.661 15.464 16.5978 15.4934 16.5515C15.6352 16.564 16.4329 16.5756 16.5059 16.5504C16.5062 16.5503 16.5068 16.5494 16.507 16.5493C16.5564 16.622 16.6054 16.6906 16.6994 16.6787C16.8639 16.6434 16.9934 16.6255 16.9975 16.2917C16.9975 16.2917 16.9807 15.7228 16.6072 15.7584C16.5188 15.7718 16.2708 15.7967 16.2708 15.7967C15.9838 15.7625 15.7733 15.759 15.4507 15.7472C15.4804 15.7094 15.533 15.5562 15.4687 15.5008C15.4519 15.4868 15.4268 15.4791 15.3922 15.4817C15.3919 15.4817 15.3913 15.4817 15.391 15.4817C15.3905 15.4816 15.3893 15.4817 15.3888 15.4817C15.3885 15.4816 15.3879 15.4806 15.3877 15.4805C15.3867 15.4802 15.3852 15.48 15.3843 15.4794C15.3825 15.4782 15.3803 15.4757 15.3787 15.4738C15.3783 15.4733 15.3768 15.4721 15.3764 15.4715C15.3601 15.4478 15.3512 15.3895 15.3404 15.3748C15.3403 15.3747 15.3394 15.3738 15.3393 15.3737C15.3391 15.3736 15.3383 15.3727 15.3382 15.3725C15.3378 15.3723 15.3363 15.3716 15.3359 15.3714C15.3358 15.3714 15.3349 15.3714 15.3348 15.3714C15.3346 15.3715 15.3338 15.3714 15.3337 15.3714L15.3337 15.3714ZM15.4867 16.1848C15.4871 16.1846 15.4874 16.1849 15.4878 16.1848C15.8166 16.2008 16.1255 16.1879 16.4542 16.2039C16.5063 16.2482 16.4803 16.3496 16.4463 16.3681C16.4448 16.3689 16.4423 16.37 16.4407 16.3704C16.4395 16.3707 16.4375 16.3704 16.4362 16.3704C16.435 16.3704 16.433 16.3707 16.4317 16.3704C16.3248 16.3677 16.263 16.3652 16.1561 16.3625C16.1559 16.3572 16.1553 16.3515 16.1539 16.3468C16.1285 16.2717 15.945 16.2767 15.9019 16.3355C15.9013 16.3364 15.9001 16.338 15.8996 16.3389C15.8989 16.3401 15.8979 16.3422 15.8974 16.3434C15.8967 16.3449 15.8956 16.3474 15.8951 16.349C15.8944 16.3512 15.8943 16.3546 15.894 16.3569C15.8937 16.3596 15.8926 16.3631 15.8929 16.3659C15.7485 16.3832 15.6187 16.3611 15.4744 16.3558C15.432 16.3031 15.437 16.2077 15.4867 16.1848L15.4867 16.1848Z" fill="white"/>
</svg>
