<svg width="16" height="16" viewBox="0 0 16 16" fill="none" xmlns="http://www.w3.org/2000/svg">
<path d="M16 2H0V14H16V2Z" fill="#FFB700"/>
<path d="M1 8L3 3H6V13H3L1 8Z" fill="#FF5B00"/>
<path d="M3 3H1V13H3V3Z" fill="#005641"/>
<path d="M15.5 3H6V13H15.5V3Z" fill="#8D2029"/>
<path d="M9.22353 11.5915L9.28892 11.5412L9.31689 11.5916C9.35416 11.6588 9.45728 11.658 9.52571 11.59L9.57803 11.5381L9.62184 11.59C9.67944 11.6584 9.78702 11.6585 9.85571 11.5903C9.9038 11.5425 9.9105 11.5416 9.9423 11.5779C9.96125 11.5996 10.0169 11.6242 10.0658 11.6327C10.1541 11.648 10.1554 11.6471 10.2071 11.5439C10.2503 11.4574 10.2571 11.4224 10.2467 11.3385C10.2399 11.2829 10.2325 11.1934 10.2304 11.1396C10.2264 11.0422 10.2269 11.0416 10.3333 10.9922C10.392 10.9649 10.46 10.9283 10.4844 10.9109C10.5269 10.8805 10.644 10.6969 10.644 10.6607C10.644 10.6511 10.5983 10.6364 10.5423 10.6281C10.3199 10.5948 10.2822 10.4355 10.4268 10.1396C10.6627 9.65705 10.805 9.18711 10.806 8.88775C10.8064 8.75394 10.8121 8.70901 10.825 8.73811C10.8777 8.85703 10.7833 9.35565 10.6403 9.71371L10.5827 9.85789L10.6376 9.84102C10.6679 9.83175 10.8456 9.73179 11.0325 9.61888C11.5442 9.30986 11.72 9.2493 12.0512 9.2679C12.3286 9.28349 12.4468 9.35576 12.6427 9.6297C12.7465 9.77483 12.8464 9.87868 13.0293 10.0313C13.4189 10.3565 13.4352 10.3846 13.4537 10.7671C13.4725 11.1545 13.4631 11.1755 13.2434 11.2403C13.0555 11.2956 12.9377 11.4124 12.9061 11.5746C12.8893 11.6613 12.9248 11.6638 13.0195 11.5826L13.0889 11.5231L13.1198 11.5826C13.1603 11.6608 13.2466 11.6611 13.3182 11.5833L13.3723 11.5245L13.4276 11.5833C13.5135 11.6746 13.6278 11.6525 13.6601 11.5383C13.6663 11.5163 13.6828 11.5233 13.7163 11.5622C13.7791 11.6349 13.94 11.6661 13.9574 11.6089C13.964 11.5871 13.9514 11.5332 13.9294 11.4891C13.8358 11.302 13.8065 11.2127 13.8053 11.1108C13.8036 10.9691 13.8353 10.9007 13.9562 10.7854C14.103 10.6454 14.1484 10.4648 14.0367 10.4648C13.9678 10.4648 13.8983 10.3835 13.8539 10.251C13.7638 9.98183 13.7815 9.68001 13.9167 9.17791C14.0541 8.66791 14.0694 8.57387 14.0699 8.23279C14.0703 7.95701 14.0651 7.90931 14.0181 7.75811C13.9893 7.66566 13.9309 7.52801 13.8883 7.45223L13.8109 7.31442L13.9103 7.20462C14.2138 6.86936 14.1517 6.32066 13.7864 6.10924C13.6746 6.04457 13.6467 6.03885 13.4508 6.04061C13.3333 6.04166 13.1541 6.06228 13.0526 6.08643C12.9491 6.11105 12.774 6.13084 12.6538 6.13148C12.463 6.13251 12.4306 6.12624 12.357 6.07403C12.2803 6.0196 12.2671 5.99375 12.2521 5.86793C12.249 5.84207 12.2355 5.81627 12.222 5.8106C12.1959 5.79963 12.0754 5.93904 12.0576 6.0008C12.0488 6.03127 12.0417 6.02916 12.0159 5.98853C11.9988 5.96156 11.9749 5.89956 11.9628 5.85077C11.9324 5.72806 11.9698 5.63607 12.0779 5.56715L12.1619 5.51367L12.1124 5.47272C12.0102 5.38822 11.8366 5.44603 11.7738 5.58542C11.756 5.62485 11.7366 5.65718 11.7307 5.65727C11.7248 5.65733 11.691 5.61974 11.6557 5.57368C11.5238 5.40189 11.5692 5.14774 11.7456 5.07014C11.8396 5.02876 11.9228 5.06032 11.9401 5.14394C11.9666 5.27159 12.0487 5.10379 12.034 4.95226C12.0242 4.85151 12.0257 4.84802 12.078 4.84802C12.1507 4.84802 12.3054 4.97525 12.3533 5.0744C12.4089 5.18954 12.4049 5.37086 12.3437 5.506L12.2956 5.61211L12.3585 5.59533C12.4506 5.57072 12.5402 5.49442 12.5854 5.40189C12.6333 5.30406 12.6385 5.11357 12.596 5.01079C12.5549 4.91117 12.5596 4.89535 12.6204 4.92902C12.7239 4.98627 12.7792 5.04942 12.8207 5.15764C12.858 5.25509 12.8601 5.27931 12.8399 5.38076C12.8274 5.44334 12.7996 5.52568 12.7782 5.56373C12.7448 5.62298 12.7436 5.63291 12.7702 5.63291C12.8198 5.63291 12.9233 5.57035 12.9601 5.51817C12.9787 5.4918 13.0058 5.42689 13.0203 5.37391L13.0467 5.27759L13.0771 5.35101C13.12 5.45483 13.2034 5.54826 13.3051 5.60641C13.4145 5.66894 13.4601 5.67246 13.4029 5.61397C13.3643 5.57452 13.2932 5.29641 13.3147 5.26921C13.3274 5.2532 13.4759 5.40558 13.6455 5.60857C13.806 5.80059 13.9068 5.86349 14.0541 5.86349C14.2423 5.86349 14.3519 5.64503 14.2673 5.43847C14.218 5.31804 14.1081 5.30131 14.0439 5.40445C14.0143 5.45187 14.0062 5.4896 14.0149 5.53935C14.0255 5.60029 14.0213 5.60841 13.9797 5.60841C13.925 5.60841 13.8171 5.51508 13.6256 5.30199C13.3335 4.97703 12.9787 4.70159 12.7224 4.60099C12.558 4.53642 12.2067 4.51122 12.0395 4.552C11.8585 4.59614 11.6445 4.7342 11.528 4.88198C11.3214 5.14386 11.3181 5.49234 11.5192 5.80968L11.5769 5.90059L11.5379 5.98137C11.4811 6.0989 11.486 6.25707 11.5499 6.37357C11.5781 6.42489 11.6065 6.46685 11.613 6.46682C11.6196 6.4668 11.6268 6.4338 11.629 6.39351C11.6347 6.29158 11.6675 6.22329 11.7238 6.19625C11.7745 6.1719 11.8073 6.1834 12.0395 6.307C12.2839 6.43703 12.6857 6.44597 13.113 6.33088C13.3224 6.27445 13.5694 6.27777 13.6781 6.33847C13.8773 6.44973 13.9234 6.73919 13.777 6.95891C13.7136 7.05403 13.6525 7.09276 13.4473 7.16787C13.2911 7.22502 13.2541 7.22881 12.8991 7.22409C12.5958 7.22005 12.4869 7.22782 12.3631 7.26228C12.2287 7.29969 12.146 7.30347 11.7512 7.2902L11.2947 7.27486L11.3454 7.33075C11.3732 7.36149 11.4125 7.3993 11.4328 7.41479C11.4672 7.44114 11.4661 7.44468 11.4149 7.46998C11.3848 7.48484 11.3181 7.49701 11.2666 7.49701H11.1729L11.1603 7.60312C11.1534 7.66149 11.1539 7.72963 11.1615 7.75454C11.1726 7.7913 11.1685 7.79658 11.1394 7.7825C11.1197 7.77295 11.0649 7.75418 11.0175 7.74078C10.9702 7.72738 10.9064 7.7001 10.8759 7.68015C10.8245 7.64661 10.8188 7.64751 10.7999 7.69216C10.783 7.73203 10.6244 7.88944 10.6011 7.88944C10.5973 7.88944 10.5925 7.85909 10.5903 7.82199C10.5881 7.78489 10.5653 7.68832 10.5395 7.60737C10.5136 7.52643 10.4867 7.43813 10.4796 7.41115C10.4688 7.37045 10.464 7.36837 10.451 7.39889C10.4424 7.41913 10.4299 7.47431 10.4231 7.52153C10.4164 7.56874 10.3925 7.64544 10.37 7.69198L10.3291 7.77658L10.3031 7.70424C10.2751 7.62658 10.2286 7.54605 10.2118 7.54605C10.2062 7.54605 10.1965 7.57089 10.1904 7.60124C10.1775 7.66462 10.0674 7.84038 10.0405 7.84038C10.0306 7.84038 10.0225 7.79071 10.0225 7.73001C10.0225 7.6693 10.0137 7.61963 10.0031 7.61963C9.99238 7.61963 9.98364 7.63534 9.98364 7.65454C9.98364 7.70121 9.88958 7.84038 9.85804 7.84038C9.84427 7.84038 9.82213 7.85694 9.80883 7.87717C9.77415 7.92993 9.74578 7.92253 9.76036 7.86452C9.7672 7.83733 9.76275 7.77386 9.75049 7.72349C9.73822 7.67311 9.72517 7.6195 9.7215 7.60434C9.71687 7.58526 9.68316 7.59032 9.61182 7.62082C9.49655 7.67009 9.45791 7.66137 9.51719 7.59946C9.53887 7.57683 9.57183 7.49844 9.59045 7.42525C9.60907 7.35206 9.63654 7.28713 9.6515 7.28095C9.67244 7.27229 9.67133 7.28299 9.64664 7.32749C9.62901 7.35927 9.61453 7.40213 9.61447 7.42274C9.61447 7.44335 9.60114 7.4922 9.58499 7.5313C9.56884 7.57041 9.55868 7.60627 9.56243 7.61099C9.56617 7.61572 9.61003 7.5935 9.65989 7.56163L9.75056 7.50367L9.75093 7.55552C9.75114 7.58403 9.76206 7.65927 9.7752 7.7227L9.79911 7.83803L9.86082 7.80021C9.9239 7.76156 9.98364 7.62377 9.98364 7.51693C9.98364 7.46412 10.0063 7.47223 10.0156 7.52836C10.0183 7.54483 10.0326 7.60665 10.0473 7.66574L10.074 7.77318L10.1162 7.70534C10.1395 7.66804 10.1686 7.59486 10.181 7.54272C10.2024 7.45222 10.2361 7.41331 10.2361 7.47903C10.2361 7.52639 10.3331 7.69625 10.3518 7.68165C10.3608 7.6746 10.3788 7.61085 10.3918 7.53999C10.4187 7.39262 10.4622 7.29239 10.4898 7.31395C10.5002 7.32206 10.5043 7.33779 10.4988 7.34891C10.4934 7.36004 10.5157 7.45585 10.5484 7.56183C10.5812 7.66781 10.614 7.77451 10.6215 7.79895C10.6334 7.83822 10.6442 7.83251 10.7144 7.7499C10.7581 7.69848 10.7977 7.64092 10.8025 7.62199C10.8097 7.59337 10.8194 7.59442 10.8602 7.6282C10.9173 7.67545 11.1093 7.75157 11.1241 7.73285C11.1297 7.72583 11.1354 7.65861 11.1368 7.58346L11.1393 7.44682L11.1946 7.46208C11.2249 7.47048 11.2888 7.46996 11.3364 7.46093L11.4231 7.44452L11.3459 7.37387C11.3034 7.33501 11.2604 7.28472 11.2504 7.26212C11.2397 7.23804 11.2019 7.21759 11.1591 7.21274C11.0434 7.19963 10.8383 7.04625 10.8383 6.97282C10.8383 6.95903 10.8667 6.98247 10.9014 7.0249C10.9784 7.11904 11.0854 7.17812 11.1789 7.17812H11.2488L11.2056 7.10141C11.1807 7.05734 11.1584 6.97374 11.1532 6.90497C11.1448 6.79535 11.1362 6.77792 11.0503 6.69835C10.9988 6.65055 10.9349 6.57891 10.9084 6.53914L10.8602 6.46684L10.8356 6.55269C10.8221 6.5999 10.8056 6.63853 10.7989 6.63853C10.7922 6.63853 10.7662 6.61094 10.7412 6.57721C10.7161 6.54349 10.6905 6.51602 10.6844 6.51618C10.6782 6.51632 10.656 6.56176 10.635 6.61712L10.5968 6.71779L10.5672 6.65977C10.551 6.62785 10.5126 6.57139 10.482 6.53429C10.4513 6.49719 10.4352 6.46684 10.4462 6.46684C10.4571 6.46684 10.4949 6.50548 10.5302 6.55272L10.5944 6.6386L10.6205 6.57568C10.636 6.53834 10.6418 6.48099 10.6348 6.43461C10.6245 6.36702 10.626 6.36309 10.6454 6.40552C10.6578 6.4325 10.6953 6.48423 10.7288 6.52047L10.7897 6.58636L10.8318 6.48368C10.8736 6.38149 10.8739 6.38129 10.8929 6.44231C10.9184 6.52392 11.1026 6.72529 11.2595 6.84295C11.2837 6.86109 11.2735 6.79873 11.2288 6.65533C11.217 6.61736 11.2073 6.5489 11.2073 6.5032C11.2073 6.4354 11.1926 6.40522 11.1276 6.33923C11.0337 6.24397 11.0034 6.17623 10.9857 6.02253C10.9785 5.96028 10.9621 5.89104 10.9492 5.86866C10.93 5.83547 10.9268 5.85405 10.932 5.96959C10.9354 6.04748 10.9278 6.14431 10.9151 6.18477L10.8919 6.25835L10.874 6.19704C10.8642 6.16331 10.8206 6.10466 10.7772 6.06671C10.7338 6.02875 10.7033 5.99132 10.7095 5.98353C10.7157 5.97574 10.7603 6.01033 10.8087 6.0604C10.8824 6.13668 10.8987 6.14494 10.9089 6.11134C10.9209 6.07186 10.9089 5.9001 10.8857 5.78008C10.8741 5.72015 10.8751 5.72047 10.9306 5.79439C10.9715 5.84892 10.9941 5.91395 11.0116 6.02739C11.0339 6.17153 11.0451 6.19553 11.1451 6.31255C11.2051 6.38283 11.2573 6.43638 11.2612 6.43156C11.265 6.42674 11.2726 6.24494 11.278 6.02758C11.2884 5.61076 11.2766 5.51158 11.2013 5.3828L11.1627 5.31663L11.2235 5.22917C11.3028 5.11508 11.3392 5.02363 11.355 4.89887L11.3679 4.79737L11.2993 4.88403C11.2431 4.95499 11.2162 4.97069 11.1511 4.97069C11.0867 4.97069 11.0615 4.95629 11.0181 4.89459C10.966 4.82055 10.8736 4.74932 10.7848 4.71465C10.752 4.70184 10.7411 4.70742 10.7411 4.73701C10.7411 4.75869 10.723 4.82127 10.7009 4.87608L10.6606 4.97574L10.5763 4.86456C10.5245 4.79637 10.4631 4.74329 10.4174 4.72728C10.3007 4.68635 10.2944 4.69042 10.2944 4.80636C10.2944 4.98222 10.2381 5.01498 10.1367 4.89809C10.0595 4.80898 9.99538 4.78961 9.84887 4.81108L9.73571 4.82767L9.75607 4.89577C9.77308 4.95267 9.76925 4.97662 9.73281 5.04124C9.67371 5.14604 9.59688 5.19143 9.47859 5.19143C9.42411 5.19143 9.35594 5.20647 9.32709 5.22484C9.29824 5.24321 9.22657 5.26437 9.16781 5.27187C9.10905 5.27937 9.04642 5.29275 9.02864 5.30161C9.00081 5.31547 8.99775 5.30405 9.00672 5.21965C9.02044 5.09049 8.95277 4.99521 8.84731 4.99521C8.71049 4.99521 8.64738 5.15839 8.70096 5.37365C8.71127 5.41508 8.72477 5.48041 8.73095 5.51883C8.73736 5.5587 8.79899 5.66448 8.87448 5.76519C8.94724 5.86227 9.01601 5.96328 9.0273 5.98965C9.03859 6.01604 9.07591 6.05837 9.11023 6.08373L9.17265 6.12985L9.16441 6.04081C9.15537 5.94296 9.17136 5.9276 9.21041 5.99666C9.22436 6.02134 9.25982 6.06124 9.2892 6.08532C9.33548 6.12326 9.34262 6.12403 9.34262 6.09109C9.34262 6.07018 9.35205 6.02201 9.36358 5.98403L9.38455 5.91498L9.42092 6.00893C9.44093 6.0606 9.50599 6.17803 9.56551 6.26989C9.68099 6.44812 9.75134 6.64731 9.71503 6.69315C9.7003 6.71175 9.66049 6.71031 9.57797 6.68819C9.514 6.67105 9.43488 6.66199 9.40214 6.66806C9.33528 6.68045 9.33002 6.66894 9.37113 6.6003C9.41453 6.52784 9.40763 6.51589 9.32237 6.51589C9.22374 6.51589 8.97886 6.45285 8.88485 6.40326C8.79345 6.35503 8.77236 6.36704 8.74546 6.48263C8.73335 6.53465 8.71118 6.62891 8.69619 6.69211L8.66895 6.807L8.76784 6.7943C8.82223 6.78731 8.89218 6.77144 8.9233 6.75901C8.95441 6.74659 8.98268 6.73999 8.98613 6.74434C8.98958 6.7487 8.97571 6.79359 8.95531 6.8441L8.91823 6.93595L8.97989 6.91919C9.0138 6.90997 9.06482 6.88742 9.09326 6.86907C9.14276 6.83714 9.14674 6.83946 9.18578 6.92302C9.23379 7.02577 9.27219 7.02155 9.28072 6.91258C9.28953 6.79993 9.31732 6.81659 9.3696 6.96587C9.41987 7.10941 9.47218 7.16009 9.48223 7.075C9.48556 7.04675 9.51264 7.00076 9.54241 6.9728C9.60261 6.91625 9.64798 6.93321 9.67399 7.022C9.70092 7.11391 9.64086 7.20865 9.46619 7.34982C9.11629 7.63262 8.91291 8.0194 8.85484 8.51238C8.80247 8.95704 8.96604 9.41652 9.29419 9.74654C9.45123 9.90448 9.70069 10.0712 9.68484 10.0076C9.61751 9.73746 9.61973 9.22208 9.68859 9.13514C9.69892 9.1221 9.69537 9.17587 9.68069 9.25465C9.62602 9.54809 9.64977 9.78191 9.78992 10.3299C9.91668 10.8255 9.89913 11.0374 9.71973 11.1774C9.66211 11.2224 9.62501 11.2298 9.47008 11.2273C9.30198 11.2245 9.28366 11.2291 9.22969 11.2864C9.17737 11.342 9.10953 11.5245 9.10953 11.6097C9.10953 11.6558 9.14796 11.6497 9.22348 11.5916L9.22353 11.5915Z" fill="#FFB700"/>
<path d="M11.9524 11.5835L12.0229 11.5231L12.0707 11.5835C12.1334 11.6627 12.2069 11.6609 12.2671 11.5788C12.2935 11.5429 12.3171 11.5181 12.3196 11.5236C12.3222 11.5291 12.3339 11.5556 12.3457 11.5826C12.3606 11.6168 12.3912 11.6339 12.4465 11.6391C12.5132 11.6454 12.531 11.6368 12.5575 11.5858L12.5891 11.525L12.6585 11.5845C12.8485 11.7473 12.9498 11.5765 12.8649 11.2362C12.8217 11.0632 12.8454 10.966 12.9846 10.7458C13.0433 10.653 13.0914 10.5539 13.0914 10.5256C13.0914 10.4805 13.0806 10.4745 13.0025 10.4765C12.9277 10.4785 12.9058 10.4678 12.8665 10.4101C12.8025 10.3161 12.8063 10.2086 12.8778 10.0892L12.935 9.99383L12.8336 9.90209C12.7778 9.85162 12.6773 9.73224 12.6101 9.63679C12.4593 9.42241 12.311 9.32075 12.1155 9.29769L11.9844 9.28223L11.9846 9.41454C11.9848 9.58488 12.0448 9.74874 12.2084 10.0263C12.3945 10.3419 12.4075 10.3907 12.415 10.8032L12.4214 11.1521L12.3676 11.2202C12.3189 11.2817 12.297 11.2896 12.14 11.3016C11.9905 11.3131 11.9591 11.3234 11.9152 11.3752C11.857 11.444 11.8396 11.4815 11.8216 11.5765C11.8111 11.6319 11.8153 11.6439 11.8453 11.6439C11.8654 11.6439 11.9136 11.6167 11.9523 11.5835L11.9524 11.5835Z" fill="#FFB700"/>
<path d="M7.95254 10.684C7.96917 10.654 7.98278 10.6056 7.98278 10.5764C7.98278 10.5323 7.99756 10.5206 8.07025 10.5068L8.15772 10.4902L8.09939 10.4283C8.03008 10.3546 8.02367 10.2971 8.08475 10.297C8.14559 10.297 8.24863 10.2127 8.26429 10.1504C8.27157 10.1214 8.26699 10.0827 8.25393 10.0629C8.21983 10.011 8.1557 10.0188 8.14379 10.0763C8.13099 10.1381 8.10956 10.1383 8.06096 10.0769C7.98787 9.98461 7.98622 9.79354 8.05757 9.68228C8.0912 9.62984 8.0909 9.6264 8.04803 9.57227C8.00191 9.51403 7.96898 9.39877 7.99064 9.37141C7.99753 9.3627 8.03397 9.36964 8.07161 9.38683C8.12509 9.41125 8.14621 9.41162 8.16824 9.38852C8.23499 9.31858 8.16267 9.22864 8.05564 9.24847C8.01256 9.25646 7.99477 9.24847 7.98858 9.21868C7.9839 9.19608 7.94622 9.16658 7.90377 9.15227C7.82792 9.1267 7.82738 9.12702 7.82738 9.1967C7.82738 9.27306 7.79469 9.28746 7.73257 9.23847C7.6821 9.19867 7.63314 9.22957 7.63314 9.30124C7.63314 9.36811 7.68358 9.40109 7.77397 9.39332C7.8433 9.38736 7.84588 9.4561 7.78003 9.55491L7.73268 9.62597L7.77019 9.69783C7.82575 9.80425 7.82107 9.98099 7.76038 10.0688L7.7128 10.1376L7.68158 10.0824C7.6382 10.0057 7.57887 10.0108 7.5626 10.0927C7.55194 10.1463 7.56075 10.1708 7.61109 10.2276C7.64493 10.2658 7.69432 10.297 7.72086 10.297C7.78654 10.297 7.78397 10.3659 7.7157 10.4354L7.66228 10.4899L7.74483 10.507C7.79024 10.5163 7.82738 10.534 7.82738 10.5462C7.82738 10.593 7.8846 10.7385 7.90299 10.7385C7.91361 10.7385 7.93591 10.714 7.95254 10.684L7.95254 10.684Z" fill="#FFB700"/>
<path d="M9.02738 10.0632C9.10238 10.0238 9.2647 9.84054 9.2647 9.79526C9.2647 9.78102 9.21989 9.71532 9.16513 9.64926C9.0499 9.51024 8.92455 9.27612 8.89207 9.13924C8.87514 9.06786 8.79331 8.94568 8.56281 8.64762L8.25609 8.25098L8.16769 8.28083C8.11907 8.29725 8.05975 8.31108 8.03586 8.31157C7.9947 8.3124 7.99545 8.31556 8.05017 8.37202L8.1079 8.43159L8.18884 8.3717C8.26729 8.31364 8.27009 8.31328 8.27976 8.36001C8.28543 8.38736 8.27321 8.43476 8.25152 8.46959C8.23049 8.50334 8.21851 8.54163 8.22489 8.55468C8.23128 8.56772 8.21108 8.595 8.18 8.61529C8.12241 8.6529 8.08243 8.7767 8.12788 8.7767C8.16877 8.7767 8.25894 8.62837 8.24855 8.57819C8.24323 8.5525 8.24581 8.52607 8.25427 8.51947C8.28939 8.49206 8.28719 8.60852 8.25152 8.6658C8.23049 8.69956 8.21851 8.73785 8.22489 8.75089C8.23128 8.76394 8.21108 8.79121 8.18 8.81151C8.12278 8.84887 8.0824 8.97292 8.12746 8.97292C8.17162 8.97292 8.26031 8.83117 8.24933 8.77814C8.24358 8.7504 8.2458 8.72229 8.25427 8.71568C8.27792 8.69722 8.29068 8.78916 8.27072 8.83421C8.26002 8.85834 8.26012 8.89128 8.27097 8.91741C8.29061 8.96473 8.2707 9.05562 8.23449 9.08387C8.21898 9.09598 8.22949 9.11974 8.26712 9.15764C8.32159 9.21249 8.32265 9.21825 8.32265 9.46024C8.32265 9.66248 8.32877 9.71468 8.35664 9.74988C8.38791 9.78939 8.39063 9.78953 8.39063 9.75165C8.39063 9.71027 8.44511 9.65969 8.48967 9.65969C8.50282 9.65969 8.58495 9.75249 8.67218 9.86593C8.75994 9.98004 8.85177 10.0771 8.87778 10.0833C8.90363 10.0895 8.93161 10.096 8.93997 10.0978C8.94832 10.0997 8.98765 10.0841 9.02737 10.0632L9.02738 10.0632Z" fill="#FFB700"/>
<path d="M8.09003 9.08335C8.09003 9.01815 7.98917 8.94856 7.86853 8.93051C7.77113 8.91595 7.76953 8.91677 7.76953 8.98165C7.76953 9.03535 7.78485 9.05647 7.85208 9.0955C7.96012 9.15821 8.09003 9.15158 8.09003 9.08335L8.09003 9.08335Z" fill="#FFB700"/>
<path d="M8.20063 9.07953C8.24983 9.02001 8.27314 8.94922 8.24354 8.94922C8.20949 8.94922 8.11914 9.05732 8.11914 9.09805C8.11914 9.16162 8.13592 9.15781 8.20063 9.07953V9.07953Z" fill="#FFB700"/>
<path d="M8.09515 8.88442C8.09932 8.84764 8.08226 8.82309 8.03111 8.79229C7.92077 8.72585 7.78886 8.69507 7.75709 8.72837C7.69857 8.78969 7.73756 8.87203 7.83213 8.88684C7.8702 8.8928 7.92183 8.90828 7.94685 8.92124C8.01954 8.95888 8.08866 8.94172 8.09515 8.88442Z" fill="#FFB700"/>
<path d="M8.09526 8.68546C8.1012 8.63299 8.07604 8.61421 7.87059 8.51779C7.71722 8.44582 7.64931 8.47976 7.69833 8.60391C7.71541 8.64716 7.74407 8.66692 7.80834 8.67975C7.85615 8.68929 7.92148 8.70796 7.95353 8.72122C8.03915 8.75666 8.08862 8.74418 8.09526 8.68546L8.09526 8.68546Z" fill="#FFB700"/>
<path d="M8.19842 8.50355C8.22942 8.46166 8.25478 8.41221 8.25478 8.39368C8.25478 8.33356 8.13236 8.43992 8.11675 8.5136C8.09803 8.60197 8.12838 8.59824 8.19842 8.50355L8.19842 8.50355Z" fill="#FFB700"/>
<path d="M8.09564 8.48909C8.1024 8.42932 8.02784 8.37534 7.88123 8.33385C7.77366 8.30341 7.72622 8.32067 7.73427 8.38732C7.73867 8.4237 7.77449 8.45028 7.87612 8.49257C8.03877 8.56025 8.08768 8.55947 8.09563 8.48909L8.09564 8.48909Z" fill="#FFB700"/>
<path d="M8.23879 8.21184C8.42666 8.10033 8.44291 7.81914 8.26575 7.74532C8.19219 7.71466 8.14524 7.73118 8.11708 7.79761C8.09552 7.84848 8.10994 7.94096 8.13943 7.94096C8.14939 7.94096 8.15754 7.95808 8.15754 7.979C8.15754 8.07664 7.8707 8.12088 7.75307 8.04138C7.71174 8.01346 7.69375 7.94096 7.72815 7.94096C7.75385 7.94096 7.77162 7.86709 7.75848 7.81484C7.74059 7.74366 7.68679 7.719 7.60874 7.74621C7.43264 7.80761 7.43759 8.08351 7.61688 8.20059C7.7639 8.29659 8.08619 8.30243 8.23878 8.21185L8.23879 8.21184Z" fill="#FFB700"/>
<path d="M8.12214 7.9958C8.13302 7.98207 8.12829 7.96095 8.11005 7.94184C8.07011 7.89998 8.07224 7.83773 8.11605 7.76646C8.14895 7.71294 8.15306 7.63285 8.16439 6.82498C8.1839 5.43276 8.26155 4.38558 8.36389 4.13438C8.40463 4.03436 8.39892 4.03397 8.29363 4.12948C8.158 4.25253 8.05474 4.41274 7.96324 4.6421C7.7905 5.07512 7.73047 5.6577 7.73047 6.9013C7.73047 7.6074 7.73408 7.69978 7.76424 7.76616C7.7929 7.82921 7.79442 7.85249 7.77429 7.91983C7.76124 7.96348 7.75532 8.00519 7.76113 8.01253C7.7997 8.06123 8.08066 8.04831 8.12214 7.99593V7.9958Z" fill="#FFB700"/>
<path d="M9.7008 6.66959C9.70669 6.65756 9.69368 6.59686 9.67191 6.53469C9.63795 6.43775 9.62428 6.42165 9.57591 6.42165C9.42438 6.42165 9.18079 6.33136 8.92966 6.18213C8.78465 6.09595 8.73456 6.07614 8.71717 6.0981C8.6728 6.15413 8.74655 6.28712 8.86074 6.35702C8.96205 6.41904 9.24527 6.49524 9.37446 6.49524C9.44941 6.49524 9.45118 6.49975 9.40853 6.58194L9.37716 6.6424L9.46195 6.6453C9.50858 6.6469 9.57295 6.65663 9.60501 6.66693C9.68824 6.69367 9.68902 6.6937 9.70082 6.66959L9.7008 6.66959Z" fill="#FFB700"/>
<path d="M10.5857 7.29333C10.5857 7.25734 10.5065 7.15982 10.4262 7.09699C10.3631 7.04764 10.3527 7.04614 10.3525 7.08639C10.3523 7.14749 10.3116 7.30101 10.2956 7.30101C10.2865 7.30101 10.2732 7.27101 10.2659 7.23434C10.2586 7.19768 10.228 7.12542 10.198 7.07377L10.1433 6.97986L10.1007 7.06687C10.061 7.14798 9.99221 7.22743 9.96169 7.22743C9.9544 7.22743 9.95298 7.18471 9.95852 7.1325C9.96455 7.07577 9.9599 7.03077 9.94696 7.02068C9.93506 7.01139 9.92532 7.01463 9.92532 7.02788C9.92532 7.05844 9.82981 7.2029 9.80961 7.2029C9.80128 7.2029 9.78962 7.16151 9.7837 7.11092C9.77778 7.06033 9.76772 6.98031 9.76134 6.9331C9.75496 6.88588 9.76856 6.9179 9.79156 7.00425L9.83339 7.16125L9.87926 7.06557C9.90448 7.01294 9.92517 6.95544 9.92522 6.93778C9.92522 6.92012 9.93381 6.9123 9.94418 6.9204C9.95455 6.92849 9.96899 6.99175 9.97626 7.06096L9.98948 7.18681L10.04 7.11303C10.0677 7.07246 10.1002 7.01813 10.1122 6.99231C10.1336 6.94624 10.1349 6.94627 10.1774 6.99442C10.2013 7.0214 10.238 7.08593 10.2589 7.13783C10.2799 7.18972 10.2999 7.22835 10.3033 7.22367C10.3068 7.21899 10.3144 7.1655 10.3204 7.10479C10.3264 7.04409 10.3317 6.99217 10.3322 6.98941C10.3352 6.97437 10.4843 7.10356 10.5394 7.16897C10.5749 7.21101 10.6085 7.23953 10.6142 7.23233C10.6199 7.22514 10.6246 7.16311 10.6246 7.09449C10.6246 6.98816 10.6161 6.95966 10.5674 6.90152C10.5113 6.83468 10.5097 6.83431 10.489 6.8832C10.4621 6.94666 10.4303 6.94758 10.4303 6.8849C10.4303 6.83915 10.3244 6.6633 10.2968 6.6633C10.2896 6.6633 10.2673 6.70193 10.2472 6.74914C10.227 6.79636 10.2054 6.83494 10.1991 6.83489C10.1719 6.83467 10.0224 6.61255 10.0225 6.57245C10.0225 6.54056 10.0326 6.54871 10.0588 6.60197C10.0787 6.64244 10.1185 6.70286 10.1471 6.73623C10.2052 6.8038 10.2264 6.78737 10.2488 6.65716C10.2552 6.62006 10.2663 6.58971 10.2734 6.58971C10.2983 6.58971 10.4284 6.7739 10.4467 6.83499L10.465 6.89631L10.4789 6.82886C10.4959 6.74638 10.5147 6.74331 10.5419 6.81857C10.5532 6.85001 10.6092 6.91538 10.6664 6.96383L10.7703 7.05193L10.7911 6.96332C10.8026 6.91459 10.8178 6.88658 10.8249 6.90109C10.8355 6.92272 10.8085 7.06954 10.7881 7.10113C10.785 7.10586 10.7514 7.07972 10.7133 7.04303L10.644 6.97632L10.6437 7.09574C10.6436 7.16142 10.6382 7.23999 10.6318 7.27034C10.6192 7.32969 10.5857 7.34638 10.5857 7.29333L10.5857 7.29333Z" fill="black"/>
<path d="M10.0675 6.34225C9.94399 6.2048 9.92524 6.17335 9.92798 6.10821L9.93089 6.03888L9.93894 6.10585C9.94365 6.14495 9.97653 6.20355 10.018 6.24669L10.0889 6.32056L10.1326 6.2533C10.1566 6.21631 10.1765 6.17224 10.1769 6.15538C10.1779 6.11141 10.1838 6.1151 10.2674 6.21181C10.3417 6.29774 10.3428 6.29815 10.3539 6.24247C10.36 6.21144 10.3578 6.153 10.349 6.11262C10.3248 6.00162 10.3295 5.98487 10.3663 6.05182C10.3846 6.08517 10.4141 6.13232 10.4317 6.1566C10.4625 6.19885 10.4644 6.19833 10.4759 6.14433C10.4824 6.11331 10.4879 6.05654 10.4881 6.01816L10.4884 5.94839L10.5553 6.04961C10.6179 6.14415 10.6236 6.14764 10.6427 6.10259C10.654 6.07607 10.6633 6.01225 10.6635 5.96078C10.6637 5.89428 10.6689 5.8775 10.6816 5.90282C10.7028 5.9451 10.6881 6.06022 10.649 6.15832L10.6209 6.22872L10.5841 6.15219C10.5369 6.05434 10.5213 6.05591 10.491 6.16151C10.4624 6.26131 10.4439 6.2689 10.416 6.19217C10.398 6.14251 10.3946 6.1486 10.3818 6.25292L10.3675 6.36885L10.2824 6.28072L10.1972 6.19258L10.1589 6.25063C10.1378 6.28255 10.1203 6.32247 10.12 6.33933C10.1192 6.37588 10.0987 6.37702 10.0675 6.34226L10.0675 6.34225Z" fill="black"/>
<path d="M11.1655 5.83325C11.1206 5.77927 11.0896 5.72776 11.0967 5.71879C11.1038 5.70982 11.1118 5.70726 11.1145 5.71308C11.1172 5.71891 11.1539 5.77042 11.1961 5.82754C11.2934 5.95907 11.2734 5.9628 11.1655 5.83325V5.83325Z" fill="black"/>
<path d="M9.70316 5.62808C9.66228 5.55438 9.6651 5.50555 9.71487 5.42566C9.75083 5.36793 9.76726 5.3601 9.83005 5.37074C9.87033 5.37756 9.95701 5.42501 10.0227 5.47619C10.0985 5.53529 10.1769 5.57488 10.2377 5.58473C10.2903 5.59325 10.3333 5.59646 10.3333 5.59187C10.3333 5.58727 10.3115 5.5398 10.2848 5.48638C10.2214 5.35951 10.2235 5.3459 10.2951 5.4219C10.3685 5.49993 10.4563 5.52275 10.6526 5.51479L10.7485 5.51091L10.6929 5.43758C10.6151 5.33503 10.639 5.32584 10.7249 5.42527C10.8055 5.51852 10.8005 5.52509 10.6309 5.54766C10.5588 5.55725 10.4813 5.55029 10.4168 5.52845C10.3205 5.49577 10.3167 5.49627 10.335 5.53935C10.3455 5.56417 10.3625 5.58449 10.3729 5.58449C10.3832 5.58449 10.3916 5.59707 10.3916 5.61245C10.3916 5.65973 10.1834 5.61815 10.0839 5.55099C9.85666 5.39757 9.82806 5.38428 9.77397 5.40701C9.74387 5.41966 9.71374 5.45668 9.70336 5.49377C9.66872 5.61752 9.80034 5.71371 9.85463 5.60432C9.87037 5.57261 9.86669 5.55093 9.83904 5.51234C9.80116 5.4595 9.80472 5.45197 9.85584 5.47674C9.89214 5.49433 9.89703 5.61052 9.86326 5.65316C9.82462 5.70195 9.73646 5.68814 9.70315 5.62808L9.70316 5.62808Z" fill="black"/>
<path d="M10.5979 5.32651C10.5695 5.29063 10.5917 5.28184 10.7191 5.27867C10.8768 5.27475 10.9725 5.23973 11.0854 5.14466C11.1759 5.06848 11.2005 5.08347 11.1146 5.16246C11.0362 5.23451 10.914 5.2899 10.796 5.30684C10.7389 5.31504 10.6737 5.3264 10.6513 5.33209C10.6288 5.33777 10.6048 5.33526 10.5979 5.32651L10.5979 5.32651Z" fill="black"/>
<path d="M16 2H0V13H16V2Z" fill="#FFB700"/>
<path d="M1 8L3 3H5V13H3L1 8Z" fill="#FF5B00"/>
<path d="M3 3H1V13H3V3Z" fill="#005641"/>
<path d="M15 3H6V13H15V3Z" fill="#8D2029"/>
<path d="M14 11.8008C14 11.8008 14.0906 11.9853 14.1908 12.0605C14.3392 12.1719 14.6434 12.1639 14.7725 12.2938C14.9272 12.4471 14.7605 12.6496 14.7619 12.6672L14.7704 12.7741C14.7704 12.7741 14.6661 12.7754 14.6221 12.7822C14.5561 12.7925 14.5303 12.8463 14.4073 12.8383C14.0982 12.8182 14.1106 12.5397 14.0931 12.3016C14.0776 12.211 14.0417 12.0928 14.0212 12.0022C14.0037 11.9245 14 11.8008 14 11.8008L14 11.8008Z" fill="#FFB700" stroke="black" stroke-width="0.01"/>
<path d="M7 11.8008C7 11.8008 6.90936 11.9853 6.80921 12.0605C6.66084 12.1719 6.35661 12.1639 6.22749 12.2938C6.07277 12.4471 6.2395 12.6496 6.23811 12.6672L6.22962 12.7741C6.22962 12.7741 6.33395 12.7754 6.37787 12.7822C6.44393 12.7925 6.46969 12.8463 6.59266 12.8383C6.90185 12.8182 6.88938 12.5397 6.90687 12.3016C6.9224 12.211 6.95833 12.0928 6.97875 12.0022C6.99626 11.9245 7 11.8008 7 11.8008L7 11.8008Z" fill="#FFB700" stroke="black" stroke-width="0.01"/>
<path d="M14 4.24023C14 4.24023 14.0906 4.05569 14.1908 3.9805C14.3392 3.86909 14.6434 3.87714 14.7725 3.74717C14.9272 3.5939 14.7605 3.39141 14.7619 3.37383L14.7704 3.26689C14.7704 3.26689 14.6661 3.26564 14.6221 3.25879C14.5561 3.24849 14.5303 3.19474 14.4073 3.20273C14.0982 3.2228 14.1106 3.50135 14.0931 3.73939C14.0776 3.83004 14.0417 3.94822 14.0212 4.03883C14.0037 4.11654 14 4.24023 14 4.24023L14 4.24023Z" fill="#FFB700" stroke="black" stroke-width="0.01"/>
<path d="M7 4.24023C7 4.24023 6.90936 4.05569 6.80921 3.9805C6.66084 3.86909 6.35661 3.87714 6.22749 3.74717C6.07277 3.5939 6.2395 3.39141 6.23811 3.37383L6.22962 3.26689C6.22962 3.26689 6.33395 3.26564 6.37787 3.25879C6.44393 3.24849 6.46969 3.19474 6.59266 3.20273C6.90185 3.2228 6.88938 3.50135 6.90687 3.73939C6.9224 3.83004 6.95833 3.94822 6.97875 4.03883C6.99626 4.11654 7 4.24023 7 4.24023L7 4.24023Z" fill="#FFB700" stroke="black" stroke-width="0.01"/>
<mask id="path-31-inside-1_15022_703" fill="white">
<path d="M9.08769 10.3947L9.14581 10.3611L9.17068 10.3947C9.20381 10.4395 9.29547 10.439 9.35629 10.3937L9.4028 10.359L9.44175 10.3937C9.49295 10.4392 9.58857 10.4393 9.64963 10.3938C9.69237 10.362 9.69833 10.3614 9.7266 10.3856C9.74345 10.4 9.79287 10.4165 9.83642 10.4221C9.91485 10.4323 9.91604 10.4317 9.96194 10.3629C10.0004 10.3052 10.0064 10.2819 9.99721 10.226C9.99113 10.1889 9.98458 10.1292 9.98266 10.0934C9.97917 10.0284 9.97955 10.028 10.0741 9.99511C10.1263 9.97692 10.1868 9.95253 10.2085 9.94091C10.2462 9.92064 10.3504 9.79825 10.3504 9.77413C10.3504 9.76774 10.3097 9.75795 10.26 9.75237C10.0622 9.73019 10.0287 9.62399 10.1573 9.42673C10.3669 9.10503 10.4935 8.79173 10.4943 8.59216C10.4947 8.50295 10.4998 8.473 10.5112 8.4924C10.5581 8.57168 10.4742 8.90409 10.347 9.1428L10.2958 9.23892L10.3447 9.22767C10.3715 9.22149 10.5295 9.15485 10.6957 9.07958C11.1506 8.87357 11.3068 8.83319 11.6012 8.84559C11.8478 8.85598 11.9528 8.90416 12.1269 9.08679C12.2192 9.18355 12.3081 9.25278 12.4706 9.35453C12.8169 9.57131 12.8314 9.59009 12.8479 9.84503C12.8645 10.1033 12.8562 10.1174 12.6609 10.1605C12.4939 10.1974 12.3892 10.2753 12.3611 10.3834C12.3461 10.4412 12.3777 10.4428 12.4619 10.3887L12.5236 10.3491L12.551 10.3887C12.5871 10.4409 12.6637 10.4411 12.7274 10.3892L12.7755 10.35L12.8247 10.3892C12.901 10.4501 13.0026 10.4353 13.0313 10.3592C13.0368 10.3445 13.0515 10.3492 13.0813 10.3751C13.1371 10.4236 13.2801 10.4444 13.2956 10.4063C13.3015 10.3917 13.2903 10.3558 13.2707 10.3264C13.1875 10.2016 13.1614 10.1421 13.1603 10.0742C13.1588 9.9797 13.187 9.93412 13.2945 9.85728C13.425 9.76393 13.4654 9.6435 13.3661 9.6435C13.3048 9.6435 13.243 9.58933 13.2036 9.50102C13.1235 9.32154 13.1392 9.12033 13.2594 8.7856C13.3815 8.4456 13.3951 8.3829 13.3956 8.15552C13.396 7.97166 13.3913 7.93986 13.3495 7.83906C13.3239 7.77743 13.272 7.68566 13.2342 7.63514L13.1654 7.54327L13.2537 7.47007C13.5235 7.24657 13.4683 6.88077 13.1436 6.73982C13.0442 6.6967 13.0194 6.6929 12.8453 6.69407C12.7408 6.69477 12.5815 6.70851 12.4913 6.72461C12.3993 6.74103 12.2436 6.75422 12.1368 6.75465C11.9672 6.75533 11.9384 6.75115 11.873 6.71635C11.8048 6.68006 11.7931 6.66283 11.7798 6.57895C11.777 6.5617 11.765 6.5445 11.753 6.54072C11.7298 6.53341 11.6227 6.62636 11.6069 6.66752C11.5991 6.68784 11.5927 6.68643 11.5698 6.65935C11.5546 6.64136 11.5334 6.60003 11.5226 6.5675C11.4956 6.4857 11.5288 6.42437 11.6249 6.37842L11.6995 6.34277L11.6555 6.31547C11.5648 6.25914 11.4104 6.29768 11.3546 6.3906C11.3388 6.41689 11.3216 6.43845 11.3163 6.4385C11.3111 6.43854 11.281 6.41348 11.2496 6.38278C11.1324 6.26825 11.1727 6.09882 11.3295 6.04708C11.4131 6.0195 11.4871 6.04054 11.5025 6.09628C11.5259 6.18138 11.599 6.06952 11.5859 5.9685C11.5772 5.90133 11.5785 5.899 11.625 5.899C11.6896 5.899 11.8272 5.98383 11.8697 6.04992C11.9191 6.12669 11.9155 6.24756 11.8612 6.33766L11.8185 6.4084L11.8743 6.39721C11.9562 6.38081 12.0358 6.32994 12.0761 6.26825C12.1186 6.20303 12.1232 6.07604 12.0855 6.00752C12.0489 5.9411 12.0531 5.93056 12.1071 5.953C12.1991 5.99117 12.2483 6.03327 12.2851 6.10542C12.3184 6.17039 12.3202 6.18653 12.3022 6.25416C12.2911 6.29588 12.2665 6.35078 12.2474 6.37614C12.2177 6.41565 12.2167 6.42227 12.2403 6.42227C12.2844 6.42227 12.3764 6.38056 12.4091 6.34577C12.4256 6.32819 12.4497 6.28492 12.4626 6.2496L12.4861 6.18538L12.513 6.23433C12.5512 6.30355 12.6253 6.36583 12.7158 6.4046C12.813 6.44629 12.8535 6.44863 12.8027 6.40964C12.7684 6.38334 12.7052 6.19793 12.7243 6.1798C12.7356 6.16913 12.8676 6.27071 13.0184 6.40604C13.161 6.53405 13.2506 6.57598 13.3815 6.57598C13.5488 6.57599 13.6463 6.43034 13.5711 6.29264C13.5272 6.21235 13.4295 6.2012 13.3724 6.26996C13.3462 6.30157 13.339 6.32673 13.3467 6.35989C13.3561 6.40052 13.3524 6.40593 13.3154 6.40593C13.2668 6.40593 13.1709 6.34371 13.0006 6.20165C12.741 5.98501 12.4256 5.80138 12.1978 5.73432C12.0516 5.69127 11.7394 5.67447 11.5908 5.70166C11.4299 5.73109 11.2397 5.82313 11.1361 5.92165C10.9524 6.09623 10.9495 6.32855 11.1283 6.54011L11.1795 6.60072L11.1449 6.65457C11.0944 6.73293 11.0987 6.83838 11.1556 6.91604C11.1806 6.95025 11.2059 6.97822 11.2117 6.97821C11.2175 6.97819 11.2239 6.95619 11.2259 6.92933C11.2309 6.86138 11.2601 6.81585 11.3101 6.79782C11.3552 6.78159 11.3844 6.78926 11.5908 6.87166C11.808 6.95835 12.1652 6.9643 12.545 6.88758C12.7312 6.84996 12.9507 6.85217 13.0473 6.89264C13.2243 6.96681 13.2654 7.15978 13.1352 7.30626C13.0789 7.36968 13.0245 7.3955 12.8421 7.44557C12.7033 7.48367 12.6704 7.4862 12.3549 7.48305C12.0853 7.48036 11.9884 7.48554 11.8784 7.50851C11.7589 7.53345 11.6854 7.53597 11.3345 7.52713L10.9288 7.5169L10.9738 7.55416C10.9985 7.57465 11.0335 7.59986 11.0515 7.61019C11.0821 7.62775 11.081 7.63011 11.0356 7.64698C11.0088 7.65689 10.9495 7.665 10.9037 7.665H10.8205L10.8093 7.73574C10.8031 7.77465 10.8036 7.82008 10.8103 7.83669C10.8202 7.86119 10.8165 7.86471 10.7907 7.85532C10.7732 7.84896 10.7244 7.83645 10.6824 7.82751C10.6403 7.81858 10.5836 7.80039 10.5565 7.78709C10.5108 7.76473 10.5057 7.76533 10.4889 7.7951C10.4739 7.82168 10.3329 7.92662 10.3122 7.92662C10.3088 7.92662 10.3045 7.90639 10.3026 7.88165C10.3007 7.85692 10.2803 7.79254 10.2574 7.73857C10.2345 7.68461 10.2105 7.62575 10.2042 7.60776C10.1946 7.58063 10.1903 7.57924 10.1788 7.59959C10.1711 7.61308 10.16 7.64987 10.154 7.68134C10.148 7.71282 10.1267 7.76395 10.1068 7.79498L10.0704 7.85138L10.0473 7.80315C10.0224 7.75138 9.98113 7.69769 9.96618 7.69769C9.96114 7.69769 9.95254 7.71425 9.94709 7.73448C9.9357 7.77674 9.8378 7.89391 9.81389 7.89391C9.80508 7.89391 9.79788 7.8608 9.79788 7.82033C9.79788 7.77986 9.79011 7.74675 9.78061 7.74675C9.77111 7.74675 9.76335 7.75722 9.76335 7.77002C9.76335 7.80113 9.67974 7.89391 9.6517 7.89391C9.63946 7.89391 9.61978 7.90495 9.60795 7.91844C9.57713 7.95361 9.55192 7.94868 9.56487 7.91001C9.57095 7.89188 9.567 7.84957 9.5561 7.81598C9.54519 7.7824 9.5336 7.74666 9.53033 7.73655C9.52621 7.72383 9.49625 7.72721 9.43284 7.74754C9.33037 7.78039 9.29603 7.77458 9.34872 7.7333C9.36799 7.71821 9.39729 7.66595 9.41384 7.61716C9.43039 7.56837 9.45481 7.52508 9.46811 7.52096C9.48672 7.51519 9.48573 7.52232 9.46379 7.55199C9.44812 7.57317 9.43525 7.60175 9.43519 7.61548C9.43519 7.62922 9.42334 7.66179 9.40898 7.68786C9.39463 7.71393 9.38561 7.73784 9.38893 7.74099C9.39226 7.74414 9.43125 7.72933 9.47557 7.70808L9.55616 7.66944L9.55649 7.704C9.55668 7.72302 9.56638 7.77317 9.57807 7.81546L9.59932 7.89235L9.65417 7.86713C9.71024 7.84137 9.76334 7.7495 9.76334 7.67828C9.76334 7.64307 9.78351 7.64848 9.79177 7.6859C9.79419 7.69688 9.80685 7.73809 9.8199 7.77749L9.84363 7.84911L9.88119 7.80389C9.90184 7.77902 9.92774 7.73023 9.93874 7.69548C9.95782 7.63514 9.98779 7.6092 9.98779 7.65302C9.98779 7.68459 10.074 7.79783 10.0906 7.7881C10.0986 7.78339 10.1146 7.74089 10.1261 7.69365C10.1501 7.5954 10.1887 7.52858 10.2133 7.54296C10.2225 7.54836 10.2261 7.55885 10.2213 7.56627C10.2164 7.57368 10.2363 7.63756 10.2654 7.70821C10.2945 7.77887 10.3237 7.85 10.3303 7.86629C10.3409 7.89247 10.3505 7.88867 10.4129 7.83359C10.4517 7.79931 10.4869 7.76094 10.4912 7.74832C10.4976 7.72924 10.5063 7.72994 10.5425 7.75246C10.5933 7.78396 10.7639 7.83471 10.7771 7.82222C10.7821 7.81755 10.7871 7.77273 10.7884 7.72263L10.7906 7.63154L10.8397 7.64171C10.8667 7.64731 10.9234 7.64697 10.9658 7.64095L11.0429 7.63001L10.9742 7.5829C10.9364 7.557 10.8983 7.52347 10.8894 7.5084C10.8799 7.49235 10.8463 7.47872 10.8082 7.47548C10.7053 7.46674 10.523 7.36449 10.523 7.31554C10.523 7.30635 10.5483 7.32197 10.5791 7.35026C10.6476 7.41302 10.7427 7.45241 10.8258 7.45241H10.8879L10.8495 7.40126C10.8274 7.37188 10.8076 7.31615 10.8029 7.27031C10.7955 7.19723 10.7878 7.18561 10.7115 7.13256C10.6657 7.10069 10.6089 7.05293 10.5853 7.02642L10.5425 6.97822L10.5207 7.03545C10.5086 7.06693 10.494 7.09268 10.488 7.09268C10.4821 7.09268 10.459 7.07428 10.4367 7.0518C10.4144 7.02932 10.3917 7.011 10.3862 7.01111C10.3807 7.0112 10.361 7.0415 10.3423 7.07841L10.3083 7.14552L10.2821 7.10684C10.2676 7.08556 10.2336 7.04792 10.2063 7.02318C10.1791 6.99845 10.1647 6.97822 10.1745 6.97822C10.1842 6.97822 10.2178 7.00398 10.2492 7.03547L10.3062 7.09272L10.3294 7.05078C10.3432 7.02589 10.3483 6.98765 10.3421 6.95673C10.333 6.91167 10.3343 6.90905 10.3516 6.93734C10.3626 6.95533 10.3959 6.98981 10.4257 7.01397L10.4799 7.0579L10.5172 6.98944C10.5544 6.92132 10.5547 6.92118 10.5716 6.96187C10.5942 7.01627 10.758 7.15052 10.8974 7.22896C10.9189 7.24105 10.9099 7.19948 10.8702 7.10388C10.8597 7.07856 10.8511 7.03292 10.8511 7.00246C10.8511 6.95726 10.838 6.93714 10.7802 6.89315C10.6968 6.82964 10.6698 6.78448 10.654 6.68201C10.6477 6.64051 10.6331 6.59435 10.6216 6.57943C10.6045 6.55731 10.6017 6.56969 10.6063 6.64672C10.6094 6.69864 10.6026 6.7632 10.5913 6.79017L10.5707 6.83923L10.5548 6.79835C10.546 6.77587 10.5073 6.73677 10.4687 6.71146C10.4302 6.68616 10.4031 6.6612 10.4086 6.65601C10.4141 6.65082 10.4537 6.67388 10.4967 6.70726C10.5623 6.75811 10.5767 6.76362 10.5858 6.74122C10.5965 6.7149 10.5858 6.60039 10.5652 6.52038C10.5549 6.48042 10.5558 6.48064 10.6051 6.52992C10.6414 6.56627 10.6615 6.60962 10.6771 6.68526C10.6969 6.78135 10.7069 6.79734 10.7957 6.87536C10.8491 6.92221 10.8955 6.95791 10.8989 6.9547C10.9023 6.95148 10.909 6.83029 10.9139 6.68538C10.9232 6.4075 10.9127 6.34138 10.8458 6.25552L10.8114 6.21141L10.8654 6.15311C10.9359 6.07705 10.9683 6.01608 10.9824 5.93291L10.9938 5.86524L10.9328 5.92301C10.8828 5.97032 10.859 5.98079 10.8011 5.98079C10.7438 5.98079 10.7215 5.97119 10.6829 5.93005C10.6365 5.88069 10.5545 5.8332 10.4755 5.81009C10.4464 5.80155 10.4367 5.80527 10.4367 5.825C10.4367 5.83945 10.4206 5.88117 10.4009 5.91771L10.3651 5.98415L10.2901 5.91004C10.2441 5.86457 10.1895 5.82919 10.1489 5.81851C10.0452 5.79123 10.0396 5.79394 10.0396 5.87123C10.0396 5.98847 9.98951 6.01031 9.89943 5.93239C9.83075 5.87298 9.77378 5.86007 9.64354 5.87438L9.54297 5.88544L9.56106 5.93084C9.57618 5.96877 9.57277 5.98474 9.54038 6.02782C9.48785 6.09768 9.41955 6.12795 9.31441 6.12795C9.26599 6.12795 9.20539 6.13797 9.17975 6.15022C9.1541 6.16246 9.09039 6.17657 9.03816 6.18157C8.98593 6.18657 8.93026 6.19549 8.91445 6.2014C8.88972 6.21064 8.887 6.20302 8.89497 6.14676C8.90717 6.06065 8.84702 5.99713 8.75328 5.99713C8.63165 5.99713 8.57556 6.10592 8.62319 6.24942C8.63235 6.27704 8.64435 6.3206 8.64984 6.34621C8.65554 6.37279 8.71032 6.44331 8.77742 6.51045C8.8421 6.57517 8.90323 6.64251 8.91326 6.66009C8.9233 6.67768 8.95647 6.70591 8.98698 6.72281L9.04246 6.75356L9.03514 6.6942C9.0271 6.62896 9.04132 6.61873 9.07603 6.66476C9.08843 6.68122 9.11995 6.70782 9.14607 6.72387C9.1872 6.74916 9.19355 6.74968 9.19355 6.72772C9.19355 6.71378 9.20193 6.68166 9.21218 6.65635L9.23082 6.61032L9.26315 6.67294C9.28094 6.70739 9.33877 6.78568 9.39167 6.84692C9.49432 6.96574 9.55686 7.09853 9.52458 7.12909C9.51149 7.14149 9.4761 7.14053 9.40275 7.12579C9.34589 7.11436 9.27556 7.10832 9.24645 7.11236C9.18703 7.12062 9.18234 7.11295 9.21889 7.06719C9.25747 7.01889 9.25133 7.01092 9.17555 7.01092C9.08787 7.01092 8.8702 6.96889 8.78664 6.93583C8.7054 6.90368 8.68665 6.91169 8.66274 6.98874C8.65198 7.02342 8.63227 7.08627 8.61895 7.1284L8.59473 7.20499L8.68263 7.19652C8.73098 7.19187 8.79316 7.18128 8.82082 7.173C8.84847 7.16472 8.8736 7.16032 8.87667 7.16322C8.87973 7.16612 8.86741 7.19605 8.84928 7.22973L8.81632 7.29096L8.87112 7.27978C8.90126 7.27364 8.94661 7.2586 8.9719 7.24637C9.0159 7.22509 9.01943 7.22663 9.05413 7.28234C9.09681 7.35084 9.13095 7.34802 9.13852 7.27538C9.14635 7.20028 9.17106 7.21139 9.21753 7.31091C9.26222 7.4066 9.30871 7.44039 9.31764 7.38366C9.32061 7.36482 9.34468 7.33416 9.37114 7.31552C9.42465 7.27782 9.46498 7.28913 9.4881 7.34833C9.51203 7.4096 9.45865 7.47276 9.30339 7.56687C8.99237 7.75541 8.81158 8.01326 8.75997 8.34192C8.71341 8.63836 8.85881 8.94467 9.1505 9.16469C9.29009 9.26998 9.51183 9.3811 9.49774 9.3387C9.4379 9.15863 9.43987 8.81505 9.50108 8.75709C9.51026 8.74839 9.5071 8.78424 9.49406 8.83676C9.44546 9.03238 9.46657 9.18826 9.59115 9.5536C9.70382 9.88402 9.68823 10.0252 9.52876 10.1186C9.47754 10.1486 9.44456 10.1535 9.30685 10.1518C9.15742 10.15 9.14114 10.153 9.09317 10.1913C9.04666 10.2283 8.98636 10.35 8.98636 10.4068C8.98636 10.4375 9.02056 10.4334 9.08769 10.3947Z"/>
</mask>
<path d="M9.08769 10.3947L9.14581 10.3611L9.17068 10.3947C9.20381 10.4395 9.29547 10.439 9.35629 10.3937L9.4028 10.359L9.44175 10.3937C9.49295 10.4392 9.58857 10.4393 9.64963 10.3938C9.69237 10.362 9.69833 10.3614 9.7266 10.3856C9.74345 10.4 9.79287 10.4165 9.83642 10.4221C9.91485 10.4323 9.91604 10.4317 9.96194 10.3629C10.0004 10.3052 10.0064 10.2819 9.99721 10.226C9.99113 10.1889 9.98458 10.1292 9.98266 10.0934C9.97917 10.0284 9.97955 10.028 10.0741 9.99511C10.1263 9.97692 10.1868 9.95253 10.2085 9.94091C10.2462 9.92064 10.3504 9.79825 10.3504 9.77413C10.3504 9.76774 10.3097 9.75795 10.26 9.75237C10.0622 9.73019 10.0287 9.62399 10.1573 9.42673C10.3669 9.10503 10.4935 8.79173 10.4943 8.59216C10.4947 8.50295 10.4998 8.473 10.5112 8.4924C10.5581 8.57168 10.4742 8.90409 10.347 9.1428L10.2958 9.23892L10.3447 9.22767C10.3715 9.22149 10.5295 9.15485 10.6957 9.07958C11.1506 8.87357 11.3068 8.83319 11.6012 8.84559C11.8478 8.85598 11.9528 8.90416 12.1269 9.08679C12.2192 9.18355 12.3081 9.25278 12.4706 9.35453C12.8169 9.57131 12.8314 9.59009 12.8479 9.84503C12.8645 10.1033 12.8562 10.1174 12.6609 10.1605C12.4939 10.1974 12.3892 10.2753 12.3611 10.3834C12.3461 10.4412 12.3777 10.4428 12.4619 10.3887L12.5236 10.3491L12.551 10.3887C12.5871 10.4409 12.6637 10.4411 12.7274 10.3892L12.7755 10.35L12.8247 10.3892C12.901 10.4501 13.0026 10.4353 13.0313 10.3592C13.0368 10.3445 13.0515 10.3492 13.0813 10.3751C13.1371 10.4236 13.2801 10.4444 13.2956 10.4063C13.3015 10.3917 13.2903 10.3558 13.2707 10.3264C13.1875 10.2016 13.1614 10.1421 13.1603 10.0742C13.1588 9.9797 13.187 9.93412 13.2945 9.85728C13.425 9.76393 13.4654 9.6435 13.3661 9.6435C13.3048 9.6435 13.243 9.58933 13.2036 9.50102C13.1235 9.32154 13.1392 9.12033 13.2594 8.7856C13.3815 8.4456 13.3951 8.3829 13.3956 8.15552C13.396 7.97166 13.3913 7.93986 13.3495 7.83906C13.3239 7.77743 13.272 7.68566 13.2342 7.63514L13.1654 7.54327L13.2537 7.47007C13.5235 7.24657 13.4683 6.88077 13.1436 6.73982C13.0442 6.6967 13.0194 6.6929 12.8453 6.69407C12.7408 6.69477 12.5815 6.70851 12.4913 6.72461C12.3993 6.74103 12.2436 6.75422 12.1368 6.75465C11.9672 6.75533 11.9384 6.75115 11.873 6.71635C11.8048 6.68006 11.7931 6.66283 11.7798 6.57895C11.777 6.5617 11.765 6.5445 11.753 6.54072C11.7298 6.53341 11.6227 6.62636 11.6069 6.66752C11.5991 6.68784 11.5927 6.68643 11.5698 6.65935C11.5546 6.64136 11.5334 6.60003 11.5226 6.5675C11.4956 6.4857 11.5288 6.42437 11.6249 6.37842L11.6995 6.34277L11.6555 6.31547C11.5648 6.25914 11.4104 6.29768 11.3546 6.3906C11.3388 6.41689 11.3216 6.43845 11.3163 6.4385C11.3111 6.43854 11.281 6.41348 11.2496 6.38278C11.1324 6.26825 11.1727 6.09882 11.3295 6.04708C11.4131 6.0195 11.4871 6.04054 11.5025 6.09628C11.5259 6.18138 11.599 6.06952 11.5859 5.9685C11.5772 5.90133 11.5785 5.899 11.625 5.899C11.6896 5.899 11.8272 5.98383 11.8697 6.04992C11.9191 6.12669 11.9155 6.24756 11.8612 6.33766L11.8185 6.4084L11.8743 6.39721C11.9562 6.38081 12.0358 6.32994 12.0761 6.26825C12.1186 6.20303 12.1232 6.07604 12.0855 6.00752C12.0489 5.9411 12.0531 5.93056 12.1071 5.953C12.1991 5.99117 12.2483 6.03327 12.2851 6.10542C12.3184 6.17039 12.3202 6.18653 12.3022 6.25416C12.2911 6.29588 12.2665 6.35078 12.2474 6.37614C12.2177 6.41565 12.2167 6.42227 12.2403 6.42227C12.2844 6.42227 12.3764 6.38056 12.4091 6.34577C12.4256 6.32819 12.4497 6.28492 12.4626 6.2496L12.4861 6.18538L12.513 6.23433C12.5512 6.30355 12.6253 6.36583 12.7158 6.4046C12.813 6.44629 12.8535 6.44863 12.8027 6.40964C12.7684 6.38334 12.7052 6.19793 12.7243 6.1798C12.7356 6.16913 12.8676 6.27071 13.0184 6.40604C13.161 6.53405 13.2506 6.57598 13.3815 6.57598C13.5488 6.57599 13.6463 6.43034 13.5711 6.29264C13.5272 6.21235 13.4295 6.2012 13.3724 6.26996C13.3462 6.30157 13.339 6.32673 13.3467 6.35989C13.3561 6.40052 13.3524 6.40593 13.3154 6.40593C13.2668 6.40593 13.1709 6.34371 13.0006 6.20165C12.741 5.98501 12.4256 5.80138 12.1978 5.73432C12.0516 5.69127 11.7394 5.67447 11.5908 5.70166C11.4299 5.73109 11.2397 5.82313 11.1361 5.92165C10.9524 6.09623 10.9495 6.32855 11.1283 6.54011L11.1795 6.60072L11.1449 6.65457C11.0944 6.73293 11.0987 6.83838 11.1556 6.91604C11.1806 6.95025 11.2059 6.97822 11.2117 6.97821C11.2175 6.97819 11.2239 6.95619 11.2259 6.92933C11.2309 6.86138 11.2601 6.81585 11.3101 6.79782C11.3552 6.78159 11.3844 6.78926 11.5908 6.87166C11.808 6.95835 12.1652 6.9643 12.545 6.88758C12.7312 6.84996 12.9507 6.85217 13.0473 6.89264C13.2243 6.96681 13.2654 7.15978 13.1352 7.30626C13.0789 7.36968 13.0245 7.3955 12.8421 7.44557C12.7033 7.48367 12.6704 7.4862 12.3549 7.48305C12.0853 7.48036 11.9884 7.48554 11.8784 7.50851C11.7589 7.53345 11.6854 7.53597 11.3345 7.52713L10.9288 7.5169L10.9738 7.55416C10.9985 7.57465 11.0335 7.59986 11.0515 7.61019C11.0821 7.62775 11.081 7.63011 11.0356 7.64698C11.0088 7.65689 10.9495 7.665 10.9037 7.665H10.8205L10.8093 7.73574C10.8031 7.77465 10.8036 7.82008 10.8103 7.83669C10.8202 7.86119 10.8165 7.86471 10.7907 7.85532C10.7732 7.84896 10.7244 7.83645 10.6824 7.82751C10.6403 7.81858 10.5836 7.80039 10.5565 7.78709C10.5108 7.76473 10.5057 7.76533 10.4889 7.7951C10.4739 7.82168 10.3329 7.92662 10.3122 7.92662C10.3088 7.92662 10.3045 7.90639 10.3026 7.88165C10.3007 7.85692 10.2803 7.79254 10.2574 7.73857C10.2345 7.68461 10.2105 7.62575 10.2042 7.60776C10.1946 7.58063 10.1903 7.57924 10.1788 7.59959C10.1711 7.61308 10.16 7.64987 10.154 7.68134C10.148 7.71282 10.1267 7.76395 10.1068 7.79498L10.0704 7.85138L10.0473 7.80315C10.0224 7.75138 9.98113 7.69769 9.96618 7.69769C9.96114 7.69769 9.95254 7.71425 9.94709 7.73448C9.9357 7.77674 9.8378 7.89391 9.81389 7.89391C9.80508 7.89391 9.79788 7.8608 9.79788 7.82033C9.79788 7.77986 9.79011 7.74675 9.78061 7.74675C9.77111 7.74675 9.76335 7.75722 9.76335 7.77002C9.76335 7.80113 9.67974 7.89391 9.6517 7.89391C9.63946 7.89391 9.61978 7.90495 9.60795 7.91844C9.57713 7.95361 9.55192 7.94868 9.56487 7.91001C9.57095 7.89188 9.567 7.84957 9.5561 7.81598C9.54519 7.7824 9.5336 7.74666 9.53033 7.73655C9.52621 7.72383 9.49625 7.72721 9.43284 7.74754C9.33037 7.78039 9.29603 7.77458 9.34872 7.7333C9.36799 7.71821 9.39729 7.66595 9.41384 7.61716C9.43039 7.56837 9.45481 7.52508 9.46811 7.52096C9.48672 7.51519 9.48573 7.52232 9.46379 7.55199C9.44812 7.57317 9.43525 7.60175 9.43519 7.61548C9.43519 7.62922 9.42334 7.66179 9.40898 7.68786C9.39463 7.71393 9.38561 7.73784 9.38893 7.74099C9.39226 7.74414 9.43125 7.72933 9.47557 7.70808L9.55616 7.66944L9.55649 7.704C9.55668 7.72302 9.56638 7.77317 9.57807 7.81546L9.59932 7.89235L9.65417 7.86713C9.71024 7.84137 9.76334 7.7495 9.76334 7.67828C9.76334 7.64307 9.78351 7.64848 9.79177 7.6859C9.79419 7.69688 9.80685 7.73809 9.8199 7.77749L9.84363 7.84911L9.88119 7.80389C9.90184 7.77902 9.92774 7.73023 9.93874 7.69548C9.95782 7.63514 9.98779 7.6092 9.98779 7.65302C9.98779 7.68459 10.074 7.79783 10.0906 7.7881C10.0986 7.78339 10.1146 7.74089 10.1261 7.69365C10.1501 7.5954 10.1887 7.52858 10.2133 7.54296C10.2225 7.54836 10.2261 7.55885 10.2213 7.56627C10.2164 7.57368 10.2363 7.63756 10.2654 7.70821C10.2945 7.77887 10.3237 7.85 10.3303 7.86629C10.3409 7.89247 10.3505 7.88867 10.4129 7.83359C10.4517 7.79931 10.4869 7.76094 10.4912 7.74832C10.4976 7.72924 10.5063 7.72994 10.5425 7.75246C10.5933 7.78396 10.7639 7.83471 10.7771 7.82222C10.7821 7.81755 10.7871 7.77273 10.7884 7.72263L10.7906 7.63154L10.8397 7.64171C10.8667 7.64731 10.9234 7.64697 10.9658 7.64095L11.0429 7.63001L10.9742 7.5829C10.9364 7.557 10.8983 7.52347 10.8894 7.5084C10.8799 7.49235 10.8463 7.47872 10.8082 7.47548C10.7053 7.46674 10.523 7.36449 10.523 7.31554C10.523 7.30635 10.5483 7.32197 10.5791 7.35026C10.6476 7.41302 10.7427 7.45241 10.8258 7.45241H10.8879L10.8495 7.40126C10.8274 7.37188 10.8076 7.31615 10.8029 7.27031C10.7955 7.19723 10.7878 7.18561 10.7115 7.13256C10.6657 7.10069 10.6089 7.05293 10.5853 7.02642L10.5425 6.97822L10.5207 7.03545C10.5086 7.06693 10.494 7.09268 10.488 7.09268C10.4821 7.09268 10.459 7.07428 10.4367 7.0518C10.4144 7.02932 10.3917 7.011 10.3862 7.01111C10.3807 7.0112 10.361 7.0415 10.3423 7.07841L10.3083 7.14552L10.2821 7.10684C10.2676 7.08556 10.2336 7.04792 10.2063 7.02318C10.1791 6.99845 10.1647 6.97822 10.1745 6.97822C10.1842 6.97822 10.2178 7.00398 10.2492 7.03547L10.3062 7.09272L10.3294 7.05078C10.3432 7.02589 10.3483 6.98765 10.3421 6.95673C10.333 6.91167 10.3343 6.90905 10.3516 6.93734C10.3626 6.95533 10.3959 6.98981 10.4257 7.01397L10.4799 7.0579L10.5172 6.98944C10.5544 6.92132 10.5547 6.92118 10.5716 6.96187C10.5942 7.01627 10.758 7.15052 10.8974 7.22896C10.9189 7.24105 10.9099 7.19948 10.8702 7.10388C10.8597 7.07856 10.8511 7.03292 10.8511 7.00246C10.8511 6.95726 10.838 6.93714 10.7802 6.89315C10.6968 6.82964 10.6698 6.78448 10.654 6.68201C10.6477 6.64051 10.6331 6.59435 10.6216 6.57943C10.6045 6.55731 10.6017 6.56969 10.6063 6.64672C10.6094 6.69864 10.6026 6.7632 10.5913 6.79017L10.5707 6.83923L10.5548 6.79835C10.546 6.77587 10.5073 6.73677 10.4687 6.71146C10.4302 6.68616 10.4031 6.6612 10.4086 6.65601C10.4141 6.65082 10.4537 6.67388 10.4967 6.70726C10.5623 6.75811 10.5767 6.76362 10.5858 6.74122C10.5965 6.7149 10.5858 6.60039 10.5652 6.52038C10.5549 6.48042 10.5558 6.48064 10.6051 6.52992C10.6414 6.56627 10.6615 6.60962 10.6771 6.68526C10.6969 6.78135 10.7069 6.79734 10.7957 6.87536C10.8491 6.92221 10.8955 6.95791 10.8989 6.9547C10.9023 6.95148 10.909 6.83029 10.9139 6.68538C10.9232 6.4075 10.9127 6.34138 10.8458 6.25552L10.8114 6.21141L10.8654 6.15311C10.9359 6.07705 10.9683 6.01608 10.9824 5.93291L10.9938 5.86524L10.9328 5.92301C10.8828 5.97032 10.859 5.98079 10.8011 5.98079C10.7438 5.98079 10.7215 5.97119 10.6829 5.93005C10.6365 5.88069 10.5545 5.8332 10.4755 5.81009C10.4464 5.80155 10.4367 5.80527 10.4367 5.825C10.4367 5.83945 10.4206 5.88117 10.4009 5.91771L10.3651 5.98415L10.2901 5.91004C10.2441 5.86457 10.1895 5.82919 10.1489 5.81851C10.0452 5.79123 10.0396 5.79394 10.0396 5.87123C10.0396 5.98847 9.98951 6.01031 9.89943 5.93239C9.83075 5.87298 9.77378 5.86007 9.64354 5.87438L9.54297 5.88544L9.56106 5.93084C9.57618 5.96877 9.57277 5.98474 9.54038 6.02782C9.48785 6.09768 9.41955 6.12795 9.31441 6.12795C9.26599 6.12795 9.20539 6.13797 9.17975 6.15022C9.1541 6.16246 9.09039 6.17657 9.03816 6.18157C8.98593 6.18657 8.93026 6.19549 8.91445 6.2014C8.88972 6.21064 8.887 6.20302 8.89497 6.14676C8.90717 6.06065 8.84702 5.99713 8.75328 5.99713C8.63165 5.99713 8.57556 6.10592 8.62319 6.24942C8.63235 6.27704 8.64435 6.3206 8.64984 6.34621C8.65554 6.37279 8.71032 6.44331 8.77742 6.51045C8.8421 6.57517 8.90323 6.64251 8.91326 6.66009C8.9233 6.67768 8.95647 6.70591 8.98698 6.72281L9.04246 6.75356L9.03514 6.6942C9.0271 6.62896 9.04132 6.61873 9.07603 6.66476C9.08843 6.68122 9.11995 6.70782 9.14607 6.72387C9.1872 6.74916 9.19355 6.74968 9.19355 6.72772C9.19355 6.71378 9.20193 6.68166 9.21218 6.65635L9.23082 6.61032L9.26315 6.67294C9.28094 6.70739 9.33877 6.78568 9.39167 6.84692C9.49432 6.96574 9.55686 7.09853 9.52458 7.12909C9.51149 7.14149 9.4761 7.14053 9.40275 7.12579C9.34589 7.11436 9.27556 7.10832 9.24645 7.11236C9.18703 7.12062 9.18234 7.11295 9.21889 7.06719C9.25747 7.01889 9.25133 7.01092 9.17555 7.01092C9.08787 7.01092 8.8702 6.96889 8.78664 6.93583C8.7054 6.90368 8.68665 6.91169 8.66274 6.98874C8.65198 7.02342 8.63227 7.08627 8.61895 7.1284L8.59473 7.20499L8.68263 7.19652C8.73098 7.19187 8.79316 7.18128 8.82082 7.173C8.84847 7.16472 8.8736 7.16032 8.87667 7.16322C8.87973 7.16612 8.86741 7.19605 8.84928 7.22973L8.81632 7.29096L8.87112 7.27978C8.90126 7.27364 8.94661 7.2586 8.9719 7.24637C9.0159 7.22509 9.01943 7.22663 9.05413 7.28234C9.09681 7.35084 9.13095 7.34802 9.13852 7.27538C9.14635 7.20028 9.17106 7.21139 9.21753 7.31091C9.26222 7.4066 9.30871 7.44039 9.31764 7.38366C9.32061 7.36482 9.34468 7.33416 9.37114 7.31552C9.42465 7.27782 9.46498 7.28913 9.4881 7.34833C9.51203 7.4096 9.45865 7.47276 9.30339 7.56687C8.99237 7.75541 8.81158 8.01326 8.75997 8.34192C8.71341 8.63836 8.85881 8.94467 9.1505 9.16469C9.29009 9.26998 9.51183 9.3811 9.49774 9.3387C9.4379 9.15863 9.43987 8.81505 9.50108 8.75709C9.51026 8.74839 9.5071 8.78424 9.49406 8.83676C9.44546 9.03238 9.46657 9.18826 9.59115 9.5536C9.70382 9.88402 9.68823 10.0252 9.52876 10.1186C9.47754 10.1486 9.44456 10.1535 9.30685 10.1518C9.15742 10.15 9.14114 10.153 9.09317 10.1913C9.04666 10.2283 8.98636 10.35 8.98636 10.4068C8.98636 10.4375 9.02056 10.4334 9.08769 10.3947Z" fill="#FFB700" stroke="black" stroke-width="0.02" mask="url(#path-31-inside-1_15022_703)"/>
<path d="M11.5125 10.3877L11.5751 10.3474L11.6177 10.3877C11.6734 10.4405 11.7387 10.4393 11.7923 10.3845C11.8156 10.3607 11.8366 10.3441 11.8389 10.3478C11.8412 10.3514 11.8516 10.3691 11.8621 10.3871C11.8753 10.4099 11.9026 10.4213 11.9517 10.4248C12.0109 10.429 12.0268 10.4232 12.0504 10.3892L12.0784 10.3487L12.1401 10.3883C12.309 10.4969 12.3991 10.383 12.3236 10.1562C12.2852 10.0409 12.3063 9.97603 12.43 9.82924C12.4822 9.76734 12.5249 9.70128 12.525 9.68243C12.525 9.65238 12.5153 9.64835 12.4459 9.64972C12.3794 9.65105 12.36 9.64391 12.325 9.60541C12.2681 9.54279 12.2715 9.47108 12.3351 9.39149L12.3859 9.32792L12.2958 9.26676C12.2462 9.23311 12.1568 9.15352 12.0971 9.08989C11.9631 8.94697 11.8313 8.8792 11.6574 8.86382L11.5409 8.85352L11.5411 8.94173C11.5413 9.05528 11.5946 9.16453 11.7401 9.34957C11.9055 9.55995 11.917 9.59253 11.9237 9.86751L11.9294 10.1001L11.8815 10.1455C11.8383 10.1865 11.8188 10.1917 11.6792 10.1998C11.5464 10.2075 11.5184 10.2143 11.4795 10.2489C11.4277 10.2947 11.4122 10.3197 11.3962 10.383C11.3869 10.4199 11.3907 10.428 11.4173 10.428C11.4352 10.428 11.478 10.4099 11.5124 10.3877L11.5125 10.3877Z" fill="#FFB700"/>
<path d="M7.9576 9.7874C7.97238 9.76741 7.98448 9.73514 7.98448 9.71568C7.98448 9.68627 7.99761 9.67843 8.06223 9.66925L8.13998 9.65821L8.08813 9.61688C8.02652 9.56779 8.02082 9.52944 8.07512 9.52935C8.1292 9.52935 8.22079 9.4732 8.23471 9.43165C8.24118 9.41234 8.23711 9.38654 8.2255 9.37329C8.19518 9.3387 8.13819 9.34391 8.1276 9.38225C8.11622 9.42346 8.09717 9.42357 8.05397 9.38266C7.989 9.32112 7.98754 9.19374 8.05096 9.11957C8.08085 9.08461 8.08058 9.08232 8.04248 9.04623C8.00148 9.0074 7.97221 8.93056 7.99146 8.91232C7.99759 8.90652 8.02998 8.91114 8.06344 8.9226C8.11098 8.93888 8.12975 8.93913 8.14933 8.92373C8.20866 8.8771 8.14438 8.81714 8.04924 8.83036C8.01095 8.83568 7.99513 8.83036 7.98963 8.8105C7.98547 8.79544 7.95198 8.77577 7.91425 8.76623C7.84682 8.74918 7.84635 8.74939 7.84635 8.79584C7.84635 8.84675 7.81729 8.85635 7.76207 8.8237C7.7172 8.79716 7.67369 8.81776 7.67369 8.86554C7.67369 8.91012 7.71852 8.9321 7.79887 8.92693C7.86049 8.92296 7.86278 8.96878 7.80426 9.03466L7.76217 9.08203L7.79551 9.12993C7.84489 9.20088 7.84074 9.31871 7.78679 9.37723L7.74449 9.4231L7.71674 9.38631C7.67819 9.33518 7.62544 9.33861 7.61098 9.39319C7.60151 9.42892 7.60934 9.44525 7.65409 9.48312C7.68416 9.50857 7.72807 9.52939 7.75166 9.52939C7.81004 9.52939 7.80775 9.5753 7.74707 9.62168L7.69959 9.65797L7.77297 9.66935C7.81333 9.67561 7.84635 9.68739 7.84635 9.69552C7.84635 9.7267 7.8972 9.82372 7.91355 9.82372C7.92299 9.82372 7.94281 9.80736 7.95759 9.78737L7.9576 9.7874Z" fill="#FFB700"/>
<path d="M8.91301 9.3732C8.97968 9.34692 9.12396 9.22475 9.12396 9.19456C9.12396 9.18507 9.08413 9.14127 9.03546 9.09723C8.93303 9.00455 8.8216 8.84847 8.79274 8.75721C8.77769 8.70963 8.70495 8.62817 8.50006 8.42947L8.22742 8.16504L8.14884 8.18494C8.10562 8.19589 8.05289 8.20511 8.03166 8.20543C7.99507 8.20599 7.99574 8.20809 8.04438 8.24574L8.0957 8.28545L8.16764 8.24552C8.23738 8.20682 8.23986 8.20658 8.24846 8.23773C8.2535 8.25596 8.24263 8.28756 8.22335 8.31078C8.20466 8.33328 8.19401 8.35881 8.19969 8.36751C8.20536 8.3762 8.18741 8.39439 8.15979 8.40792C8.10859 8.43299 8.07306 8.51552 8.11346 8.51552C8.14981 8.51552 8.22995 8.41663 8.22072 8.38318C8.21599 8.36606 8.21828 8.34844 8.2258 8.34403C8.25702 8.32576 8.25507 8.4034 8.22335 8.44159C8.20466 8.46409 8.19401 8.48962 8.19969 8.49832C8.20536 8.50701 8.18741 8.5252 8.15979 8.53873C8.10892 8.56364 8.07303 8.64634 8.11308 8.64634C8.15233 8.64634 8.23117 8.55184 8.22141 8.51648C8.2163 8.49799 8.21828 8.47925 8.2258 8.47484C8.24683 8.46254 8.25817 8.52383 8.24042 8.55386C8.23091 8.56995 8.231 8.59191 8.24064 8.60933C8.25811 8.64088 8.2404 8.70147 8.20822 8.7203C8.19443 8.72838 8.20377 8.74422 8.23723 8.76948C8.28564 8.80605 8.28658 8.80989 8.28658 8.97122C8.28658 9.10604 8.29202 9.14084 8.31679 9.16431C8.34459 9.19065 8.34701 9.19074 8.34701 9.16549C8.34701 9.1379 8.39543 9.10418 8.43505 9.10418C8.44673 9.10418 8.51974 9.16605 8.59727 9.24167C8.67528 9.31775 8.75691 9.38249 8.78003 9.38661C8.80301 9.3907 8.82788 9.39506 8.83531 9.39628C8.84274 9.39751 8.8777 9.38713 8.913 9.37321L8.91301 9.3732Z" fill="#FFB700"/>
<path d="M8.07981 8.72028C8.07981 8.67681 7.99016 8.63042 7.88292 8.61839C7.79634 8.60868 7.79492 8.60923 7.79492 8.65248C7.79492 8.68828 7.80854 8.70236 7.8683 8.72838C7.96433 8.77019 8.07981 8.76577 8.07981 8.72028L8.07981 8.72028Z" fill="#FFB700"/>
<path d="M8.1779 8.71676C8.22163 8.67708 8.24235 8.62988 8.21604 8.62988C8.18578 8.62988 8.10547 8.70195 8.10547 8.72911C8.10547 8.77149 8.12039 8.76894 8.1779 8.71676V8.71676Z" fill="#FFB700"/>
<path d="M8.0848 8.58864C8.0885 8.56411 8.07334 8.54775 8.02787 8.52722C7.92979 8.48292 7.81254 8.46241 7.7843 8.4846C7.73228 8.52548 7.76694 8.58037 7.851 8.59025C7.88484 8.59422 7.93073 8.60454 7.95298 8.61318C8.01758 8.63828 8.07903 8.62684 8.0848 8.58864Z" fill="#FFB700"/>
<path d="M8.08457 8.45697C8.08985 8.42199 8.06748 8.40947 7.88486 8.3452C7.74853 8.29721 7.68817 8.31984 7.73174 8.40261C7.74692 8.43144 7.7724 8.44461 7.82953 8.45317C7.87202 8.45953 7.9301 8.47197 7.95859 8.48082C8.03469 8.50444 8.07866 8.49612 8.08457 8.45698L8.08457 8.45697Z" fill="#FFB700"/>
<path d="M8.17605 8.33407C8.2036 8.30614 8.22614 8.27318 8.22614 8.26082C8.22614 8.22074 8.11732 8.29165 8.10345 8.34077C8.08682 8.39969 8.11379 8.3972 8.17605 8.33407L8.17605 8.33407Z" fill="#FFB700"/>
<path d="M8.08469 8.32509C8.09069 8.28524 8.02442 8.24925 7.8941 8.22159C7.79849 8.2013 7.75631 8.21281 7.76347 8.25724C7.76738 8.28149 7.79922 8.29921 7.88956 8.32741C8.03413 8.37252 8.07761 8.372 8.08468 8.32509L8.08469 8.32509Z" fill="#FFB700"/>
<path d="M8.21204 8.14025C8.37904 8.06591 8.39348 7.87845 8.23601 7.82923C8.17062 7.8088 8.12888 7.81981 8.10386 7.8641C8.08469 7.89801 8.09751 7.95967 8.12372 7.95967C8.13258 7.95967 8.13982 7.97108 8.13982 7.98503C8.13982 8.05012 7.88485 8.07961 7.78029 8.02661C7.74356 8.00799 7.72756 7.95967 7.75813 7.95967C7.78098 7.95967 7.79678 7.91042 7.7851 7.87559C7.7692 7.82813 7.72137 7.81169 7.65199 7.82983C7.49546 7.87076 7.49986 8.0547 7.65923 8.13275C7.78992 8.19675 8.07639 8.20064 8.21203 8.14026L8.21204 8.14025Z" fill="#FFB700"/>
<path d="M8.10792 7.9959C8.11759 7.98674 8.11339 7.97267 8.09717 7.95992C8.06167 7.93202 8.06356 7.89052 8.10251 7.84301C8.13175 7.80733 8.1354 7.75393 8.14547 7.21535C8.16281 6.28721 8.23184 5.58909 8.3228 5.42162C8.35902 5.35494 8.35394 5.35468 8.26035 5.41835C8.1398 5.50038 8.04801 5.60719 7.96667 5.7601C7.81313 6.04878 7.75977 6.43717 7.75977 7.26623C7.75977 7.73697 7.76297 7.79855 7.78979 7.84281C7.81526 7.88484 7.81661 7.90036 7.79872 7.94525C7.78712 7.97435 7.78186 8.00216 7.78702 8.00705C7.82131 8.03952 8.07105 8.03091 8.10792 7.99599V7.9959Z" fill="#FFB700"/>
<path d="M9.51096 7.1111C9.51619 7.10309 9.50463 7.06262 9.48527 7.02117C9.45509 6.95655 9.44293 6.94581 9.39994 6.94581C9.26524 6.94581 9.04872 6.88562 8.8255 6.78613C8.6966 6.72868 8.65207 6.71547 8.63662 6.73012C8.59718 6.76747 8.66273 6.85613 8.76424 6.90273C8.85429 6.94407 9.10604 6.99487 9.22088 6.99487C9.2875 6.99487 9.28907 6.99788 9.25116 7.05268L9.22328 7.09298L9.29864 7.09491C9.34009 7.09598 9.39731 7.10247 9.4258 7.10933C9.49979 7.12716 9.50049 7.12718 9.51097 7.11111L9.51096 7.1111Z" fill="#FFB700"/>
<path d="M10.2977 7.52921C10.2977 7.50522 10.2272 7.44021 10.1558 7.39832C10.0998 7.36542 10.0905 7.36442 10.0904 7.39125C10.0902 7.43199 10.054 7.53433 10.0397 7.53433C10.0317 7.53433 10.0199 7.51433 10.0134 7.48989C10.0069 7.46545 9.97973 7.41727 9.95299 7.38284L9.90437 7.32023L9.86652 7.37824C9.83123 7.43232 9.7701 7.48528 9.74297 7.48528C9.73649 7.48528 9.73522 7.4568 9.74015 7.42199C9.7455 7.38417 9.74138 7.35417 9.72987 7.34744C9.71929 7.34125 9.71064 7.34341 9.71064 7.35224C9.71064 7.37262 9.62574 7.46892 9.60778 7.46892C9.60038 7.46892 9.59002 7.44133 9.58475 7.40761C9.57949 7.37388 9.57054 7.32053 9.56488 7.28906C9.55921 7.25758 9.57129 7.27893 9.59174 7.33649L9.62892 7.44116L9.66969 7.37737C9.69211 7.34229 9.7105 7.30395 9.71055 7.29218C9.71055 7.28041 9.71818 7.27519 9.7274 7.28059C9.73662 7.28599 9.74946 7.32816 9.75592 7.3743L9.76767 7.4582L9.81253 7.40901C9.83721 7.38196 9.86612 7.34574 9.87678 7.32853C9.89581 7.29782 9.89689 7.29784 9.93473 7.32994C9.95594 7.34792 9.98855 7.39095 10.0072 7.42554C10.0258 7.46014 10.0436 7.48589 10.0466 7.48277C10.0497 7.47965 10.0565 7.44399 10.0618 7.40352C10.0671 7.36305 10.0719 7.32844 10.0723 7.3266C10.075 7.31657 10.2075 7.4027 10.2565 7.44631C10.288 7.47433 10.3179 7.49334 10.323 7.48855C10.3281 7.48375 10.3322 7.4424 10.3322 7.39665C10.3322 7.32576 10.3247 7.30676 10.2813 7.26801C10.2315 7.22344 10.2301 7.2232 10.2117 7.25579C10.1878 7.2981 10.1595 7.29871 10.1595 7.25692C10.1595 7.22642 10.0653 7.10919 10.0408 7.10919C10.0345 7.10919 10.0146 7.13494 9.99673 7.16642C9.97883 7.1979 9.95959 7.22362 9.95396 7.22359C9.92979 7.22344 9.79697 7.07536 9.79704 7.04863C9.79704 7.02737 9.80599 7.0328 9.82927 7.06831C9.84697 7.09529 9.88231 7.13556 9.90781 7.15781C9.95945 7.20286 9.97823 7.19191 9.99816 7.1051C10.0038 7.08037 10.0137 7.06013 10.0201 7.06013C10.0422 7.06013 10.1578 7.18293 10.174 7.22365L10.1904 7.26453L10.2027 7.21956C10.2179 7.16458 10.2345 7.16253 10.2587 7.21271C10.2688 7.23367 10.3186 7.27725 10.3694 7.30955L10.4617 7.36828L10.4802 7.3092C10.4904 7.27672 10.5039 7.25805 10.5102 7.26772C10.5197 7.28214 10.4957 7.38002 10.4775 7.40108C10.4748 7.40423 10.4449 7.3868 10.411 7.36235L10.3495 7.31787L10.3492 7.39748C10.3491 7.44127 10.3443 7.49365 10.3386 7.51389C10.3274 7.55345 10.2977 7.56458 10.2977 7.52921L10.2977 7.52921Z" fill="black"/>
<path d="M9.83807 6.89418C9.72831 6.80255 9.71165 6.78158 9.71408 6.73816L9.71667 6.69193L9.72383 6.73658C9.72801 6.76265 9.75724 6.80172 9.79408 6.83048L9.85717 6.87973L9.89594 6.83488C9.91726 6.81022 9.93499 6.78084 9.93533 6.7696C9.93623 6.74029 9.94149 6.74275 10.0158 6.80723C10.0818 6.86451 10.0828 6.86478 10.0927 6.82767C10.0981 6.80697 10.0962 6.76802 10.0883 6.7411C10.0668 6.6671 10.071 6.65593 10.1037 6.70056C10.12 6.7228 10.1462 6.75423 10.1619 6.77041C10.1892 6.79858 10.1909 6.79824 10.2011 6.76224C10.2069 6.74156 10.2118 6.70371 10.212 6.67812L10.2122 6.63161L10.2717 6.69909C10.3273 6.76212 10.3325 6.76444 10.3494 6.73441C10.3594 6.71673 10.3677 6.67418 10.3679 6.63987C10.3681 6.59554 10.3727 6.58435 10.384 6.60123C10.4028 6.62942 10.3898 6.70617 10.355 6.77157L10.33 6.8185L10.2973 6.76748C10.2554 6.70224 10.2414 6.70329 10.2146 6.77369C10.1892 6.84022 10.1726 6.84528 10.1479 6.79413C10.1319 6.76102 10.1288 6.76508 10.1174 6.83463L10.1048 6.91192L10.0291 6.85316L9.95338 6.7944L9.91935 6.8331C9.90063 6.85438 9.88505 6.881 9.88473 6.89224C9.88405 6.9166 9.86583 6.91736 9.83807 6.89419L9.83807 6.89418Z" fill="black"/>
<path d="M10.814 6.5529C10.7741 6.51691 10.7465 6.48257 10.7529 6.47659C10.7592 6.47061 10.7663 6.4689 10.7686 6.47279C10.771 6.47667 10.8037 6.51101 10.8412 6.54909C10.9276 6.63678 10.9099 6.63926 10.814 6.5529V6.5529Z" fill="black"/>
<path d="M9.51349 6.41905C9.47715 6.36991 9.47966 6.33736 9.52389 6.2841C9.55586 6.24561 9.57046 6.24039 9.62628 6.24748C9.66208 6.25203 9.73913 6.28367 9.79749 6.31778C9.8649 6.35719 9.93462 6.38358 9.98862 6.39014C10.0354 6.39582 10.0736 6.39797 10.0736 6.3949C10.0736 6.39184 10.0542 6.36019 10.0305 6.32458C9.9741 6.24 9.97603 6.23092 10.0396 6.28159C10.1049 6.33361 10.183 6.34882 10.3574 6.34352L10.4427 6.34093L10.3932 6.29204C10.3241 6.22368 10.3453 6.21755 10.4217 6.28384C10.4933 6.34601 10.4889 6.35038 10.3381 6.36543C10.274 6.37183 10.2051 6.36719 10.1479 6.35263C10.0622 6.33084 10.0589 6.33117 10.0751 6.35989C10.0845 6.37644 10.0996 6.38998 10.1088 6.38998C10.1179 6.38998 10.1254 6.39837 10.1254 6.40862C10.1254 6.44015 9.94037 6.41243 9.85195 6.36765C9.64993 6.26537 9.62451 6.25651 9.57643 6.27166C9.54967 6.2801 9.52289 6.30478 9.51366 6.32951C9.48287 6.412 9.59987 6.47613 9.64813 6.4032C9.66211 6.38207 9.65885 6.36761 9.63427 6.34189C9.6006 6.30666 9.60376 6.30164 9.64921 6.31815C9.68147 6.32988 9.68581 6.40734 9.6558 6.43577C9.62145 6.46829 9.54308 6.45908 9.51348 6.41905L9.51349 6.41905Z" fill="black"/>
<path d="M10.3095 6.21507C10.2843 6.19115 10.3041 6.18529 10.4173 6.18318C10.5574 6.18056 10.6425 6.15722 10.7429 6.09383C10.8234 6.04305 10.8452 6.05304 10.7688 6.1057C10.6992 6.15374 10.5905 6.19066 10.4857 6.20196C10.4349 6.20742 10.377 6.215 10.357 6.21879C10.3371 6.22258 10.3157 6.2209 10.3095 6.21507L10.3095 6.21507Z" fill="black"/>
</svg>
