<?xml version="1.0" encoding="UTF-8"?>
<svg xmlns="http://www.w3.org/2000/svg" xmlns:xlink="http://www.w3.org/1999/xlink" width="22px" height="16px" viewBox="0 0 22 16" version="1.1">
<g id="surface1">
<rect x="0" y="0" width="22" height="16" style="fill:rgb(100%,0%,0%);fill-opacity:1;stroke:none;"/>
<path style=" stroke:none;fill-rule:nonzero;fill:rgb(0%,0%,0%);fill-opacity:1;" d="M 9.429688 3.109375 C 9.277344 3.109375 9.023438 3.160156 9.03125 3.28125 C 8.605469 3.207031 8.5625 3.382812 8.585938 3.542969 C 8.625 3.480469 8.675781 3.445312 8.714844 3.441406 C 8.769531 3.429688 8.828125 3.449219 8.890625 3.488281 C 8.949219 3.523438 9.019531 3.585938 9.046875 3.625 C 8.898438 3.660156 8.78125 3.636719 8.664062 3.617188 C 8.605469 3.605469 8.523438 3.570312 8.476562 3.539062 C 8.425781 3.503906 8.414062 3.472656 8.335938 3.390625 C 8.246094 3.296875 8.152344 3.324219 8.179688 3.46875 C 8.25 3.605469 8.363281 3.664062 8.507812 3.6875 C 8.578125 3.699219 8.683594 3.726562 8.800781 3.726562 C 8.917969 3.726562 9.050781 3.707031 9.121094 3.722656 C 9.078125 3.75 9.027344 3.796875 8.933594 3.816406 C 8.835938 3.835938 8.683594 3.757812 8.59375 3.738281 C 8.605469 3.816406 8.703125 3.886719 8.890625 3.925781 C 9.207031 3.996094 9.464844 4.046875 9.636719 4.140625 C 9.808594 4.238281 9.917969 4.355469 9.996094 4.449219 C 10.148438 4.636719 10.15625 4.777344 10.167969 4.808594 C 10.199219 5.105469 10.097656 5.269531 9.90625 5.324219 C 9.8125 5.347656 9.644531 5.300781 9.585938 5.226562 C 9.523438 5.152344 9.464844 5.027344 9.480469 4.828125 C 9.496094 4.753906 9.585938 4.550781 9.511719 4.507812 C 9.167969 4.316406 8.753906 4.121094 8.453125 4.007812 C 8.371094 3.976562 8.304688 4.089844 8.277344 4.132812 C 7.769531 4.070312 7.308594 3.71875 7.101562 3.34375 C 6.960938 3.089844 6.730469 3.34375 6.769531 3.585938 C 6.832031 3.855469 7.03125 4.046875 7.273438 4.183594 C 7.519531 4.324219 7.832031 4.460938 8.144531 4.453125 C 8.3125 4.484375 8.308594 4.707031 8.109375 4.75 C 7.710938 4.753906 7.398438 4.742188 7.097656 4.449219 C 6.871094 4.238281 6.746094 4.488281 6.8125 4.632812 C 6.921875 5.070312 7.535156 5.191406 8.152344 5.050781 C 8.394531 5.007812 8.25 5.269531 8.183594 5.273438 C 7.921875 5.460938 7.460938 5.648438 7.050781 5.273438 C 6.863281 5.125 6.738281 5.25 6.808594 5.457031 C 6.988281 6.007812 7.683594 5.890625 8.15625 5.621094 C 8.28125 5.550781 8.390625 5.714844 8.242188 5.835938 C 7.652344 6.257812 7.355469 6.261719 7.089844 6.101562 C 6.753906 5.964844 6.726562 6.34375 6.921875 6.46875 C 7.144531 6.605469 7.703125 6.503906 8.117188 6.238281 C 8.292969 6.105469 8.300781 6.3125 8.1875 6.398438 C 7.699219 6.828125 7.507812 6.941406 7 6.871094 C 6.746094 6.847656 6.75 7.167969 6.949219 7.289062 C 7.21875 7.460938 7.75 7.179688 8.160156 6.832031 C 8.332031 6.738281 8.363281 6.890625 8.277344 7.074219 C 8.023438 7.398438 7.789062 7.585938 7.5625 7.675781 C 7.335938 7.761719 7.117188 7.75 6.960938 7.695312 C 6.773438 7.628906 6.75 7.828125 6.855469 8.011719 C 6.917969 8.121094 7.175781 8.15625 7.457031 8.054688 C 7.738281 7.953125 8.039062 7.714844 8.246094 7.433594 C 8.429688 7.273438 8.40625 7.492188 8.324219 7.640625 C 7.910156 8.308594 7.53125 8.558594 7.03125 8.515625 C 6.808594 8.476562 6.757812 8.652344 6.898438 8.816406 C 7.148438 9.023438 7.457031 9.015625 7.726562 8.808594 C 7.96875 8.574219 8.429688 8.066406 8.671875 7.792969 C 8.84375 7.652344 8.898438 7.789062 8.847656 8.070312 C 8.800781 8.230469 8.6875 8.402344 8.378906 8.523438 C 8.164062 8.648438 8.324219 8.816406 8.484375 8.820312 C 8.570312 8.820312 8.75 8.71875 8.882812 8.5625 C 9.0625 8.359375 9.074219 8.21875 9.171875 7.902344 C 9.265625 7.746094 9.429688 7.820312 9.429688 7.980469 C 9.351562 8.300781 9.285156 8.359375 9.121094 8.488281 C 8.96875 8.636719 9.230469 8.683594 9.316406 8.625 C 9.574219 8.449219 9.664062 8.222656 9.75 8.015625 C 9.8125 7.867188 9.992188 7.941406 9.90625 8.183594 C 9.710938 8.761719 9.386719 8.992188 8.816406 9.109375 C 8.761719 9.117188 8.726562 9.152344 8.746094 9.222656 C 8.820312 9.300781 8.898438 9.375 8.972656 9.457031 C 8.621094 9.558594 8.335938 9.617188 7.984375 9.722656 C 7.8125 9.605469 7.675781 9.507812 7.5 9.394531 C 7.457031 9.285156 7.433594 9.121094 7.179688 9.238281 C 7.007812 9.15625 6.929688 9.1875 6.832031 9.265625 C 6.972656 9.273438 7.03125 9.308594 7.085938 9.375 C 7.15625 9.5625 7.320312 9.582031 7.484375 9.527344 C 7.59375 9.621094 7.652344 9.691406 7.761719 9.785156 C 7.558594 9.78125 7.417969 9.777344 7.214844 9.769531 C 7.023438 9.558594 6.867188 9.570312 6.730469 9.734375 C 6.625 9.753906 6.578125 9.753906 6.507812 9.882812 C 6.621094 9.835938 6.691406 9.824219 6.742188 9.875 C 6.945312 9.996094 7.082031 9.96875 7.183594 9.875 C 7.378906 9.886719 7.558594 9.898438 7.757812 9.910156 C 7.683594 9.972656 7.585938 10.007812 7.511719 10.070312 C 7.214844 9.984375 7.058594 10.101562 7.007812 10.347656 C 6.964844 10.445312 6.949219 10.550781 6.964844 10.65625 C 6.996094 10.558594 7.039062 10.476562 7.125 10.421875 C 7.390625 10.492188 7.488281 10.382812 7.503906 10.21875 C 7.632812 10.113281 7.824219 10.089844 7.953125 9.984375 C 8.101562 10.03125 8.171875 10.0625 8.324219 10.109375 C 8.378906 10.273438 8.496094 10.339844 8.695312 10.296875 C 8.925781 10.304688 8.886719 10.402344 8.90625 10.480469 C 8.96875 10.367188 8.964844 10.257812 8.820312 10.160156 C 8.769531 10.015625 8.652344 9.949219 8.5 10.035156 C 8.359375 9.992188 8.320312 9.933594 8.179688 9.890625 C 8.539062 9.773438 8.792969 9.75 9.15625 9.632812 C 9.246094 9.71875 9.316406 9.78125 9.40625 9.859375 C 9.453125 9.886719 9.5 9.894531 9.527344 9.859375 C 9.753906 9.523438 9.855469 9.230469 10.066406 9.011719 C 10.144531 8.921875 10.246094 8.800781 10.359375 8.769531 C 10.414062 8.753906 10.484375 8.765625 10.527344 8.8125 C 10.570312 8.863281 10.605469 8.953125 10.589844 9.085938 C 10.570312 9.277344 10.523438 9.339844 10.472656 9.453125 C 10.417969 9.570312 10.355469 9.640625 10.285156 9.730469 C 10.152344 9.90625 9.976562 10.007812 9.875 10.078125 C 9.664062 10.21875 9.578125 10.15625 9.414062 10.148438 C 9.207031 10.171875 9.152344 10.273438 9.324219 10.417969 C 9.480469 10.503906 9.625 10.511719 9.742188 10.492188 C 9.84375 10.472656 9.960938 10.339844 10.042969 10.269531 C 10.136719 10.160156 10.292969 10.289062 10.1875 10.417969 C 9.992188 10.652344 9.800781 10.804688 9.5625 10.800781 C 9.3125 10.835938 9.359375 10.980469 9.523438 11.050781 C 9.824219 11.175781 10.09375 10.941406 10.230469 10.785156 C 10.335938 10.667969 10.410156 10.664062 10.390625 10.84375 C 10.289062 11.175781 10.144531 11.304688 9.910156 11.320312 C 9.71875 11.300781 9.71875 11.449219 9.855469 11.550781 C 10.171875 11.773438 10.402344 11.394531 10.507812 11.164062 C 10.585938 10.957031 10.703125 11.058594 10.714844 11.226562 C 10.714844 11.457031 10.613281 11.640625 10.34375 11.875 C 10.550781 12.210938 10.792969 12.550781 11 12.890625 L 11.628906 5.757812 L 11 4.632812 C 10.933594 4.570312 10.714844 4.304688 10.65625 4.269531 C 10.632812 4.246094 10.621094 4.230469 10.652344 4.21875 C 10.683594 4.207031 10.753906 4.195312 10.800781 4.183594 C 10.667969 4.050781 10.550781 4.003906 10.300781 3.929688 C 10.363281 3.90625 10.421875 3.921875 10.601562 3.910156 C 10.53125 3.808594 10.371094 3.648438 10.164062 3.570312 C 10.300781 3.472656 10.324219 3.464844 10.460938 3.347656 C 10.226562 3.332031 10.027344 3.285156 9.824219 3.222656 C 9.695312 3.164062 9.519531 3.113281 9.433594 3.109375 Z M 9.453125 3.390625 C 9.578125 3.390625 9.65625 3.433594 9.65625 3.484375 C 9.65625 3.539062 9.578125 3.582031 9.453125 3.582031 C 9.332031 3.582031 9.25 3.535156 9.25 3.480469 C 9.25 3.429688 9.332031 3.390625 9.453125 3.390625 Z M 9.453125 3.390625 "/>
<path style=" stroke:none;fill-rule:nonzero;fill:rgb(0%,0%,0%);fill-opacity:1;" d="M 12.570312 3.109375 C 12.722656 3.109375 12.976562 3.160156 12.96875 3.28125 C 13.394531 3.207031 13.4375 3.382812 13.414062 3.542969 C 13.375 3.480469 13.324219 3.445312 13.285156 3.441406 C 13.230469 3.429688 13.171875 3.449219 13.109375 3.488281 C 13.050781 3.523438 12.980469 3.585938 12.953125 3.625 C 13.101562 3.660156 13.21875 3.636719 13.335938 3.617188 C 13.394531 3.605469 13.476562 3.570312 13.523438 3.539062 C 13.574219 3.503906 13.585938 3.472656 13.664062 3.390625 C 13.753906 3.296875 13.847656 3.324219 13.820312 3.46875 C 13.75 3.605469 13.636719 3.664062 13.492188 3.6875 C 13.421875 3.699219 13.316406 3.726562 13.199219 3.726562 C 13.082031 3.726562 12.949219 3.707031 12.878906 3.722656 C 12.921875 3.75 12.972656 3.796875 13.066406 3.816406 C 13.164062 3.835938 13.316406 3.757812 13.40625 3.738281 C 13.394531 3.816406 13.296875 3.886719 13.109375 3.925781 C 12.792969 3.996094 12.535156 4.046875 12.363281 4.140625 C 12.191406 4.238281 12.082031 4.355469 12.003906 4.449219 C 11.851562 4.636719 11.84375 4.777344 11.832031 4.808594 C 11.800781 5.105469 11.902344 5.269531 12.09375 5.324219 C 12.1875 5.347656 12.355469 5.300781 12.414062 5.226562 C 12.476562 5.152344 12.535156 5.027344 12.519531 4.828125 C 12.503906 4.753906 12.414062 4.550781 12.488281 4.507812 C 12.832031 4.316406 13.246094 4.121094 13.546875 4.007812 C 13.628906 3.976562 13.695312 4.089844 13.722656 4.132812 C 14.230469 4.070312 14.691406 3.71875 14.898438 3.34375 C 15.039062 3.089844 15.269531 3.34375 15.230469 3.585938 C 15.167969 3.855469 14.96875 4.046875 14.726562 4.183594 C 14.480469 4.324219 14.167969 4.460938 13.855469 4.453125 C 13.6875 4.484375 13.691406 4.707031 13.890625 4.75 C 14.289062 4.753906 14.601562 4.742188 14.902344 4.449219 C 15.128906 4.238281 15.253906 4.488281 15.1875 4.632812 C 15.078125 5.070312 14.464844 5.191406 13.847656 5.050781 C 13.605469 5.007812 13.75 5.269531 13.816406 5.273438 C 14.078125 5.460938 14.539062 5.648438 14.949219 5.273438 C 15.136719 5.125 15.261719 5.25 15.191406 5.457031 C 15.011719 6.007812 14.316406 5.890625 13.84375 5.621094 C 13.71875 5.550781 13.609375 5.714844 13.757812 5.835938 C 14.347656 6.257812 14.644531 6.261719 14.910156 6.101562 C 15.246094 5.964844 15.273438 6.34375 15.078125 6.46875 C 14.855469 6.605469 14.296875 6.503906 13.882812 6.238281 C 13.707031 6.105469 13.699219 6.3125 13.8125 6.398438 C 14.300781 6.828125 14.492188 6.941406 15 6.871094 C 15.253906 6.847656 15.25 7.167969 15.050781 7.289062 C 14.78125 7.460938 14.25 7.179688 13.839844 6.832031 C 13.667969 6.738281 13.636719 6.890625 13.722656 7.074219 C 13.976562 7.398438 14.210938 7.585938 14.4375 7.675781 C 14.664062 7.761719 14.882812 7.75 15.039062 7.695312 C 15.226562 7.628906 15.25 7.828125 15.144531 8.011719 C 15.082031 8.121094 14.824219 8.15625 14.542969 8.054688 C 14.261719 7.953125 13.960938 7.714844 13.753906 7.433594 C 13.570312 7.273438 13.59375 7.492188 13.675781 7.640625 C 14.089844 8.308594 14.46875 8.558594 14.96875 8.515625 C 15.191406 8.476562 15.242188 8.652344 15.101562 8.816406 C 14.851562 9.023438 14.542969 9.015625 14.273438 8.808594 C 14.03125 8.574219 13.570312 8.066406 13.328125 7.792969 C 13.15625 7.652344 13.101562 7.789062 13.152344 8.070312 C 13.199219 8.230469 13.3125 8.402344 13.621094 8.523438 C 13.835938 8.648438 13.675781 8.816406 13.515625 8.820312 C 13.429688 8.820312 13.25 8.71875 13.117188 8.5625 C 12.9375 8.359375 12.925781 8.21875 12.828125 7.902344 C 12.734375 7.746094 12.570312 7.820312 12.570312 7.980469 C 12.648438 8.300781 12.714844 8.359375 12.878906 8.488281 C 13.03125 8.636719 12.769531 8.683594 12.683594 8.625 C 12.425781 8.449219 12.335938 8.222656 12.25 8.015625 C 12.1875 7.867188 12.007812 7.941406 12.09375 8.183594 C 12.289062 8.761719 12.613281 8.992188 13.183594 9.109375 C 13.238281 9.117188 13.273438 9.152344 13.253906 9.222656 C 13.179688 9.300781 13.101562 9.375 13.027344 9.457031 C 13.378906 9.558594 13.664062 9.617188 14.015625 9.722656 C 14.1875 9.605469 14.324219 9.507812 14.5 9.394531 C 14.542969 9.285156 14.566406 9.121094 14.820312 9.238281 C 14.992188 9.15625 15.070312 9.1875 15.167969 9.265625 C 15.027344 9.273438 14.96875 9.308594 14.914062 9.375 C 14.84375 9.5625 14.679688 9.582031 14.515625 9.527344 C 14.40625 9.621094 14.347656 9.691406 14.238281 9.785156 C 14.441406 9.78125 14.582031 9.777344 14.785156 9.769531 C 14.976562 9.558594 15.132812 9.570312 15.269531 9.734375 C 15.375 9.753906 15.421875 9.753906 15.492188 9.882812 C 15.378906 9.835938 15.308594 9.824219 15.257812 9.875 C 15.054688 9.996094 14.917969 9.96875 14.816406 9.875 C 14.621094 9.886719 14.441406 9.898438 14.242188 9.910156 C 14.316406 9.972656 14.414062 10.007812 14.488281 10.070312 C 14.785156 9.984375 14.941406 10.101562 14.992188 10.347656 C 15.035156 10.445312 15.050781 10.550781 15.035156 10.65625 C 15.003906 10.558594 14.960938 10.476562 14.875 10.421875 C 14.609375 10.492188 14.511719 10.382812 14.496094 10.21875 C 14.367188 10.113281 14.175781 10.089844 14.046875 9.984375 C 13.898438 10.03125 13.828125 10.0625 13.675781 10.109375 C 13.621094 10.273438 13.503906 10.339844 13.304688 10.296875 C 13.074219 10.304688 13.113281 10.402344 13.09375 10.480469 C 13.03125 10.367188 13.035156 10.257812 13.179688 10.160156 C 13.230469 10.015625 13.347656 9.949219 13.5 10.035156 C 13.640625 9.992188 13.679688 9.933594 13.820312 9.890625 C 13.460938 9.773438 13.207031 9.75 12.84375 9.632812 C 12.753906 9.71875 12.683594 9.78125 12.59375 9.859375 C 12.546875 9.886719 12.5 9.894531 12.472656 9.859375 C 12.246094 9.523438 12.144531 9.230469 11.933594 9.011719 C 11.855469 8.921875 11.753906 8.800781 11.640625 8.769531 C 11.585938 8.753906 11.515625 8.765625 11.472656 8.8125 C 11.429688 8.863281 11.394531 8.953125 11.410156 9.085938 C 11.429688 9.277344 11.476562 9.339844 11.527344 9.453125 C 11.582031 9.570312 11.644531 9.640625 11.714844 9.730469 C 11.847656 9.90625 12.023438 10.007812 12.125 10.078125 C 12.335938 10.21875 12.421875 10.15625 12.585938 10.148438 C 12.792969 10.171875 12.847656 10.273438 12.675781 10.417969 C 12.519531 10.503906 12.375 10.511719 12.257812 10.492188 C 12.15625 10.472656 12.039062 10.339844 11.957031 10.269531 C 11.863281 10.160156 11.707031 10.289062 11.8125 10.417969 C 12.007812 10.652344 12.199219 10.804688 12.4375 10.800781 C 12.6875 10.835938 12.640625 10.980469 12.476562 11.050781 C 12.175781 11.175781 11.90625 10.941406 11.769531 10.785156 C 11.664062 10.667969 11.589844 10.664062 11.609375 10.84375 C 11.710938 11.175781 11.855469 11.304688 12.089844 11.320312 C 12.28125 11.300781 12.28125 11.449219 12.144531 11.550781 C 11.828125 11.773438 11.597656 11.394531 11.492188 11.164062 C 11.414062 10.957031 11.296875 11.058594 11.285156 11.226562 C 11.285156 11.457031 11.386719 11.640625 11.65625 11.875 C 11.449219 12.210938 11.207031 12.550781 11 12.890625 L 10.371094 5.757812 L 11 4.632812 C 11.066406 4.570312 11.285156 4.304688 11.34375 4.269531 C 11.367188 4.246094 11.378906 4.230469 11.347656 4.21875 C 11.316406 4.207031 11.246094 4.195312 11.199219 4.183594 C 11.332031 4.050781 11.449219 4.003906 11.699219 3.929688 C 11.636719 3.90625 11.578125 3.921875 11.398438 3.910156 C 11.46875 3.808594 11.628906 3.648438 11.835938 3.570312 C 11.699219 3.472656 11.675781 3.464844 11.539062 3.347656 C 11.773438 3.332031 11.972656 3.285156 12.175781 3.222656 C 12.304688 3.164062 12.480469 3.113281 12.566406 3.109375 Z M 12.546875 3.390625 C 12.421875 3.390625 12.34375 3.433594 12.34375 3.484375 C 12.34375 3.539062 12.421875 3.582031 12.546875 3.582031 C 12.667969 3.582031 12.75 3.535156 12.75 3.480469 C 12.75 3.429688 12.667969 3.390625 12.546875 3.390625 Z M 12.546875 3.390625 "/>
</g>
</svg>
