<svg width="16" height="16" viewBox="0 0 16 16" fill="none" xmlns="http://www.w3.org/2000/svg">
<g clip-path="url(#clip0_23026_13958)">
<path d="M16 2H0V14H16V2Z" fill="#FF0000"/>
<path d="M6.60547 4C6.682 4.00322 6.83838 4.04487 6.95312 4.09277C7.13399 4.14389 7.31182 4.18253 7.52051 4.19531C7.39879 4.29115 7.37756 4.29711 7.25586 4.37695C7.44019 4.44085 7.5829 4.57221 7.64551 4.65527C7.48584 4.66484 7.43345 4.6519 7.37793 4.6709C7.6003 4.73155 7.70504 4.77033 7.82324 4.87891C7.7815 4.88849 7.71826 4.89764 7.69043 4.90723C7.66274 4.91681 7.67349 4.93008 7.69434 4.94922C7.747 4.97872 7.94094 5.19501 8 5.24609C8.05913 5.19498 8.25447 4.97797 8.30664 4.94922C8.32751 4.93005 8.3374 4.91681 8.30957 4.90723C8.28161 4.89768 8.21932 4.88845 8.17773 4.87891C8.29599 4.77028 8.40044 4.7316 8.62305 4.6709C8.56744 4.65174 8.51516 4.66481 8.35547 4.65527C8.41808 4.57221 8.56077 4.44085 8.74512 4.37695C8.62348 4.29715 8.60194 4.29093 8.48047 4.19531C8.68896 4.18253 8.86618 4.14383 9.04688 4.09277C9.16166 4.04485 9.31899 4.00319 9.39551 4H9.39844C9.53409 4 9.75989 4.04158 9.75293 4.14062C10.132 4.07993 10.1703 4.22352 10.1494 4.35449C10.1147 4.3036 10.0699 4.27471 10.0352 4.27148C9.98658 4.26192 9.9344 4.27778 9.87891 4.30957C9.82673 4.33832 9.76361 4.38993 9.73926 4.42188C9.87136 4.45061 9.97578 4.43101 10.0801 4.41504C10.1322 4.40547 10.2053 4.37709 10.2471 4.35156C10.2922 4.32287 10.3029 4.29726 10.3721 4.23047C10.4521 4.15379 10.5361 4.17575 10.5117 4.29395C10.4492 4.40567 10.3483 4.45345 10.2197 4.47266C10.1572 4.48223 10.0632 4.50482 9.95898 4.50488C9.85464 4.50488 9.73546 4.48917 9.67285 4.50195C9.71104 4.52428 9.75666 4.5621 9.83984 4.57812C9.92667 4.59408 10.0625 4.53074 10.1426 4.51465C10.1319 4.57838 10.0454 4.63606 9.87891 4.66797C9.59717 4.72548 9.36691 4.76707 9.21387 4.84375C9.06121 4.9235 8.96402 5.01913 8.89453 5.0957C8.7591 5.24882 8.75162 5.36385 8.74121 5.38965C8.71339 5.63246 8.80418 5.76679 8.97461 5.81152C9.05816 5.83049 9.20767 5.79206 9.25977 5.73145C9.31532 5.67071 9.36741 5.56797 9.35352 5.40527C9.33935 5.34428 9.25954 5.1788 9.3252 5.14355C9.63128 4.98701 10.0007 4.82703 10.2686 4.73438C10.3413 4.70946 10.4005 4.80185 10.4248 4.83691C10.8769 4.78574 11.2874 4.49807 11.4717 4.19141C11.5969 3.98424 11.8022 4.19171 11.7676 4.38965C11.7119 4.6101 11.534 4.76708 11.3184 4.87891C11.0993 4.99386 10.8211 5.105 10.543 5.09863C10.3934 5.12419 10.3968 5.30665 10.5742 5.3418C10.9289 5.34499 11.2068 5.33517 11.4746 5.0957C11.6763 4.92318 11.7876 5.12788 11.7285 5.24609C11.631 5.60372 11.0855 5.70282 10.5361 5.58789C10.3209 5.55281 10.4485 5.7656 10.5078 5.76953C10.7409 5.92289 11.1514 6.07624 11.5166 5.76953C11.6834 5.64827 11.7949 5.75073 11.7324 5.91992C11.5724 6.3704 10.9531 6.27513 10.5322 6.05469C10.4209 5.99721 10.3239 6.13143 10.4561 6.23047C10.9811 6.57533 11.2459 6.57823 11.4824 6.44727C11.7812 6.33585 11.8057 6.64585 11.6318 6.74805C11.4336 6.85984 10.936 6.77668 10.5674 6.55957C10.4109 6.45094 10.404 6.62014 10.5049 6.69043C10.9393 7.04152 11.1099 7.1345 11.5615 7.07715C11.7876 7.05798 11.7848 7.3199 11.6074 7.41895C11.3675 7.55946 10.8945 7.32915 10.5293 7.04492C10.3763 6.96824 10.3483 7.093 10.4248 7.24316C10.6508 7.50816 10.8599 7.66092 11.0615 7.73438C11.2631 7.80456 11.4576 7.79565 11.5967 7.75098C11.7636 7.69666 11.7843 7.85961 11.6904 8.00977C11.6345 8.099 11.4054 8.1278 11.1553 8.04492C10.9049 7.96186 10.6365 7.76711 10.4521 7.53711C10.2887 7.40614 10.3098 7.58465 10.3828 7.70605C10.7515 8.25238 11.089 8.45702 11.5342 8.42188C11.7324 8.38993 11.7776 8.53378 11.6523 8.66797C11.4298 8.83717 11.155 8.83042 10.915 8.66113C10.6994 8.46944 10.2889 8.0547 10.0732 7.83105C9.9202 7.71604 9.87178 7.82759 9.91699 8.05762C9.95875 8.18852 10.0595 8.32874 10.334 8.42773C10.5253 8.52997 10.3828 8.6677 10.2402 8.6709C10.1637 8.67087 10.004 8.5877 9.88574 8.45996C9.72574 8.29383 9.71488 8.17871 9.62793 7.91992C9.54443 7.79243 9.39844 7.85346 9.39844 7.98438C9.46792 8.24592 9.52704 8.29417 9.67285 8.39941C9.8085 8.52082 9.57554 8.55867 9.49902 8.51074C9.26983 8.36702 9.18975 8.1819 9.11328 8.0127C9.05759 7.89141 8.89811 7.95236 8.97461 8.15039C9.1485 8.6229 9.43683 8.81138 9.94434 8.90723C9.99303 8.91362 10.0242 8.94249 10.0068 9C9.94089 9.06375 9.87161 9.12447 9.80566 9.19141C10.1187 9.27446 10.3725 9.32293 10.6855 9.40918C10.8386 9.31333 10.9607 9.23328 11.1172 9.14062C11.1554 9.05117 11.1763 8.91689 11.4023 9.0127C11.5552 8.94578 11.625 8.9713 11.7119 9.03516C11.5867 9.04155 11.534 9.07069 11.4854 9.125C11.4227 9.27796 11.2768 9.29368 11.1309 9.24902C11.0335 9.32568 10.9811 9.38331 10.8838 9.45996C11.0646 9.45677 11.1902 9.45366 11.3711 9.44727C11.5414 9.27496 11.6801 9.28481 11.8018 9.41895C11.8957 9.43492 11.9374 9.43464 12 9.54004C11.8995 9.50187 11.8372 9.49213 11.792 9.5332C11.6111 9.63225 11.4889 9.60988 11.3984 9.5332C11.2247 9.54278 11.0649 9.55293 10.8877 9.5625C10.9537 9.61343 11.0405 9.64234 11.1064 9.69336C11.3706 9.62314 11.5094 9.71885 11.5547 9.91992C11.5929 9.99979 11.6077 10.0866 11.5938 10.1729C11.5659 10.093 11.5276 10.0252 11.4512 9.98047C11.2147 10.038 11.1272 9.94864 11.1133 9.81445C10.9985 9.72828 10.8276 9.70928 10.7129 9.62305C10.581 9.66132 10.5183 9.68729 10.3828 9.72559C10.3341 9.85945 10.2298 9.91389 10.0527 9.87891C9.84785 9.88529 9.88145 9.96447 9.86426 10.0283C9.80891 9.93584 9.81294 9.84633 9.94141 9.7666C9.98667 9.64856 10.091 9.59385 10.2266 9.66406C10.3515 9.62893 10.3866 9.58101 10.5117 9.5459C10.1917 9.45005 9.96507 9.43178 9.6416 9.33594C9.56183 9.40601 9.49879 9.45674 9.41895 9.52051C9.3773 9.54276 9.33582 9.5492 9.31152 9.52051C9.10991 9.24586 9.01977 9.00601 8.83203 8.82715C8.76247 8.75367 8.67118 8.65447 8.57031 8.62891C8.52173 8.61634 8.45903 8.62594 8.4209 8.66406C8.3827 8.70553 8.35149 8.77935 8.36523 8.8877C8.38262 9.0442 8.42452 9.09587 8.46973 9.18848C8.51837 9.28422 8.57419 9.34167 8.63672 9.41504C8.75486 9.55866 8.91148 9.64172 9.00195 9.69922C9.18963 9.81414 9.26625 9.76329 9.41211 9.75684C9.59645 9.776 9.64523 9.85933 9.49219 9.97754C9.35313 10.0477 9.22442 10.0541 9.12012 10.0381C9.02979 10.022 8.92551 9.91394 8.85254 9.85645C8.7691 9.76703 8.62995 9.87215 8.72363 9.97754C8.89753 10.1692 9.06812 10.2942 9.28027 10.291C9.50269 10.3198 9.46124 10.4376 9.31543 10.4951C9.04775 10.5973 8.80734 10.4061 8.68555 10.2783C8.59164 10.1825 8.52558 10.1792 8.54297 10.3262C8.63339 10.5975 8.7621 10.703 8.9707 10.7158C9.14113 10.6998 9.14127 10.8212 9.01953 10.9043C8.7378 11.0864 8.53239 10.7764 8.43848 10.5879C8.36896 10.4187 8.26446 10.5015 8.25391 10.6387C8.25391 10.8272 8.34497 10.9773 8.58496 11.1689C8.49291 11.3062 8.39284 11.4446 8.29297 11.583L8 12L7.70801 11.583C7.60808 11.4445 7.50812 11.3062 7.41602 11.1689C7.65578 10.9774 7.74609 10.8271 7.74609 10.6387C7.73552 10.5015 7.63104 10.4187 7.56152 10.5879C7.46761 10.7763 7.26291 11.0859 6.98145 10.9043C6.85981 10.8213 6.85929 10.7001 7.0293 10.7158C7.23796 10.703 7.36758 10.5976 7.45801 10.3262C7.4754 10.1792 7.40931 10.1825 7.31543 10.2783C7.19371 10.4061 6.95333 10.5973 6.68555 10.4951C6.53957 10.4377 6.49767 10.3199 6.71973 10.291C6.93186 10.2942 7.10249 10.1692 7.27637 9.97754C7.37024 9.87215 7.23192 9.76717 7.14844 9.85645C7.0754 9.91395 6.97032 10.0221 6.87988 10.0381C6.77558 10.054 6.64683 10.0478 6.50781 9.97754C6.355 9.85942 6.40368 9.77601 6.58789 9.75684C6.73395 9.76322 6.81028 9.81417 6.99805 9.69922C7.08848 9.64171 7.24502 9.55881 7.36328 9.41504C7.42586 9.34159 7.48159 9.28425 7.53027 9.18848C7.57549 9.09583 7.61737 9.04424 7.63477 8.8877C7.64853 8.77932 7.61731 8.70554 7.5791 8.66406C7.54083 8.62602 7.47823 8.61619 7.42969 8.62891C7.32892 8.65444 7.23848 8.75369 7.16895 8.82715C6.98112 9.00606 6.89021 9.24575 6.68848 9.52051C6.66412 9.54921 6.62277 9.54286 6.58105 9.52051C6.50119 9.45671 6.43826 9.4061 6.3584 9.33594C6.03517 9.43169 5.80896 9.45018 5.48926 9.5459C5.61429 9.58104 5.64927 9.62894 5.77441 9.66406C5.90983 9.59413 6.01439 9.64856 6.05957 9.7666C6.18804 9.84638 6.19121 9.93579 6.13574 10.0283C6.11863 9.96452 6.15274 9.88533 5.94824 9.87891C5.77093 9.91403 5.66591 9.85964 5.61719 9.72559C5.48174 9.68729 5.41919 9.66136 5.28711 9.62305C5.17233 9.70927 5.00148 9.72821 4.88672 9.81445C4.87281 9.94864 4.78632 10.038 4.5498 9.98047C4.47328 10.0252 4.43505 10.093 4.40723 10.1729C4.39331 10.0866 4.40705 9.99979 4.44531 9.91992C4.49057 9.71876 4.63026 9.62309 4.89453 9.69336C4.96056 9.64237 5.04728 9.61352 5.11328 9.5625C4.93589 9.55292 4.77547 9.54279 4.60156 9.5332C4.51114 9.60984 4.38981 9.63222 4.20898 9.5332C4.16378 9.49182 4.10076 9.50174 4 9.54004C4.06254 9.43472 4.10455 9.43487 4.19824 9.41895C4.31998 9.28476 4.45945 9.27474 4.62988 9.44727C4.8107 9.45365 4.93635 9.45677 5.11719 9.45996C5.01984 9.38332 4.96743 9.32565 4.87012 9.24902C4.7241 9.29373 4.5773 9.27815 4.51465 9.125C4.46597 9.07071 4.41418 9.04156 4.28906 9.03516C4.37598 8.9713 4.44564 8.94562 4.59863 9.0127C4.82457 8.91698 4.84554 9.05119 4.88379 9.14062C5.04026 9.23325 5.16242 9.31335 5.31543 9.40918C5.62831 9.32298 5.88239 9.27444 6.19531 9.19141C6.12923 9.12431 6.05925 9.0639 5.99316 9C5.97581 8.94257 6.00707 8.91366 6.05566 8.90723C6.56342 8.81139 6.85245 8.62311 7.02637 8.15039C7.10289 7.95231 6.94237 7.89129 6.88672 8.0127C6.81023 8.18197 6.73039 8.36701 6.50098 8.51074C6.42446 8.55866 6.19155 8.5208 6.32715 8.39941C6.47315 8.29404 6.53205 8.24599 6.60156 7.98438C6.60156 7.85339 6.45555 7.79214 6.37207 7.91992C6.28515 8.17861 6.27506 8.29393 6.11523 8.45996C5.99698 8.58776 5.83629 8.6709 5.75977 8.6709C5.61732 8.66743 5.47499 8.52986 5.66602 8.42773C5.94079 8.3287 6.04224 8.18861 6.08398 8.05762C6.1292 7.82759 6.0798 7.71604 5.92676 7.83105C5.71101 8.05479 5.30048 8.46955 5.08496 8.66113C4.84502 8.83031 4.57019 8.83725 4.34766 8.66797C4.22252 8.5338 4.26858 8.38993 4.4668 8.42188C4.91171 8.45683 5.24868 8.25205 5.61719 7.70605C5.69023 7.58465 5.71133 7.40612 5.54785 7.53711C5.36356 7.76695 5.09597 7.96186 4.8457 8.04492C4.5953 8.12798 4.36525 8.0992 4.30957 8.00977C4.21571 7.85969 4.23664 7.69695 4.40332 7.75098C4.54245 7.79571 4.73772 7.80466 4.93945 7.73438C5.1411 7.66086 5.35019 7.50821 5.57617 7.24316C5.65268 7.09302 5.62467 6.9683 5.47168 7.04492C5.10667 7.32911 4.63367 7.55904 4.39355 7.41895C4.21617 7.3199 4.21239 7.05798 4.43848 7.07715C4.8906 7.13464 5.06135 7.04184 5.49609 6.69043C5.59696 6.62014 5.5901 6.45096 5.43359 6.55957C5.06512 6.77669 4.56763 6.85957 4.36914 6.74805C4.19523 6.64581 4.21943 6.33545 4.51855 6.44727C4.75506 6.57823 5.01975 6.57549 5.54492 6.23047C5.67705 6.13143 5.57907 5.99718 5.46777 6.05469C5.04692 6.275 4.42753 6.37027 4.26758 5.91992C4.20529 5.75093 4.31678 5.64867 4.4834 5.76953C4.84861 6.07624 5.25915 5.92289 5.49219 5.76953C5.55129 5.76634 5.6801 5.55298 5.46484 5.58789C4.91532 5.7029 4.36893 5.60386 4.27148 5.24609C4.21237 5.1279 4.32372 4.92333 4.52539 5.0957C4.79321 5.33532 5.07198 5.34499 5.42676 5.3418C5.60356 5.30646 5.60711 5.12438 5.45801 5.09863C5.17975 5.10502 4.90077 4.99392 4.68164 4.87891C4.46605 4.76709 4.28904 4.61005 4.2334 4.38965C4.19871 4.19161 4.4041 3.98385 4.5293 4.19141C4.71364 4.49812 5.12401 4.7858 5.57617 4.83691C5.60061 4.8016 5.6596 4.70899 5.73242 4.73438C6.00018 4.82701 6.36877 4.98704 6.6748 5.14355C6.7407 5.1786 6.66171 5.34414 6.64746 5.40527C6.63355 5.56819 6.68557 5.67074 6.74121 5.73145C6.79338 5.79215 6.94289 5.83069 7.02637 5.81152C7.19674 5.76677 7.28759 5.63242 7.25977 5.38965C7.24933 5.36409 7.24209 5.24905 7.10645 5.0957C7.03688 5.01903 6.93916 4.92362 6.78613 4.84375C6.63312 4.76709 6.40372 4.72546 6.12207 4.66797C5.95532 4.63606 5.86803 4.57845 5.85742 4.51465C5.93742 4.53062 6.0732 4.59409 6.16016 4.57812C6.24352 4.56217 6.28892 4.52433 6.32715 4.50195C6.26455 4.48918 6.14632 4.50488 6.04199 4.50488C5.93773 4.50488 5.84386 4.48225 5.78125 4.47266C5.65262 4.4535 5.55187 4.40565 5.48926 4.29395C5.46491 4.17573 5.54793 4.15379 5.62793 4.23047C5.69726 4.29736 5.70789 4.32287 5.75293 4.35156C5.79458 4.37707 5.86777 4.4054 5.91992 4.41504C6.02418 4.431 6.12873 4.45052 6.26074 4.42188C6.23636 4.38992 6.17421 4.33831 6.12207 4.30957C6.06659 4.27773 6.01439 4.26207 5.96582 4.27148C5.93105 4.27468 5.88536 4.30342 5.85059 4.35449C5.82977 4.22355 5.86815 4.07997 6.24707 4.14062C6.24012 4.04167 6.46587 4.00007 6.60156 4H6.60547ZM6.62305 4.23047C6.51522 4.23047 6.44238 4.26218 6.44238 4.30371C6.4426 4.34835 6.51538 4.38672 6.62305 4.38672C6.7342 4.38667 6.80371 4.35133 6.80371 4.30664C6.80363 4.26517 6.73414 4.23052 6.62305 4.23047ZM9.37793 4.23047C9.26669 4.23047 9.19734 4.26514 9.19727 4.30664C9.19727 4.35137 9.26663 4.38672 9.37793 4.38672C9.48546 4.38666 9.55838 4.34832 9.55859 4.30371C9.55859 4.26221 9.48562 4.23052 9.37793 4.23047Z" fill="black"/>
</g>
<defs>
<clipPath id="clip0_23026_13958">
<rect width="16" height="12" fill="white" transform="translate(0 2)"/>
</clipPath>
</defs>
</svg>
