<svg width="24" height="24" viewBox="0 0 24 24" fill="none" xmlns="http://www.w3.org/2000/svg">
<path d="M24 15L0 15L0 20.55C0 20.85 0.15 21 0.45 21L23.55 21C23.85 21 24 20.85 24 20.55V15Z" fill="#F5F5F5"/>
<path d="M23.55 3L0.45 3C0.15 3 0 3.14998 0 3.44998L0 9L24 9V3.44998C24 3.14998 23.85 3 23.55 3Z" fill="#FF4B55"/>
<path d="M24 9L0 9L0 15L24 15V9Z" fill="#41479B"/>
<path d="M3.99968 9V14.0099C3.99968 14.0099 3.91892 15.1304 4.89375 16.0981C5.75379 16.9519 6.76574 17.0012 6.99213 17.0009C7.2227 17.0012 8.25243 16.9519 9.11248 16.0981C10.0873 15.1304 10.0065 14.0099 10.0065 14.0099V9H3.99968Z" fill="#DA444D"/>
<path d="M5.76318 9.64439L6.18579 9.8104L5.76318 9.16895L5.49621 9.2468C5.38689 9.35611 5.39645 9.53607 5.51673 9.63318L5.68015 9.76514L5.76318 9.64439Z" fill="#FAB446"/>
<path d="M5.43862 9.76514L5.5444 9.86585C5.73938 10.0515 6.02091 10.1144 6.27634 10.0293L6.18579 9.87242L5.86125 9.90389L5.43862 9.76514Z" fill="#FAB446"/>
<path d="M5.32541 14.3387L5.03108 14.8282L4.57031 14.7764L4.40625 14.8519L4.57031 14.965L4.92188 14.9845L4.57031 15.0556V15.3673L4.70312 15.2423L5.03108 15.0556L4.76562 15.3907L4.85753 15.6971L5.03108 15.4845L5.16797 14.965L5.51172 14.8868L5.74053 14.7764L5.55859 14.6564L5.19141 14.8126L5.49148 14.3387H5.32541Z" fill="#FAB446"/>
<path d="M5.14921 15.809L5.1712 15.832C5.21252 15.7559 5.31618 15.7424 5.37559 15.8055L5.40062 15.832V15.9864L5.34769 16.0349H5.25505L5.34769 16.1408L5.53297 16.2996L5.71823 16.1408L5.81087 16.0349H5.71823L5.66529 15.9864V15.832L5.69033 15.8055C5.74974 15.7424 5.85339 15.7559 5.89471 15.832L5.9167 15.809C6.00294 15.7188 5.99274 15.5739 5.89471 15.4967H5.71823C5.74083 15.3922 5.72111 15.2829 5.66338 15.1929L5.53294 14.9894L5.40253 15.1929C5.3448 15.2829 5.32508 15.3922 5.34769 15.4967H5.1712C5.07317 15.5739 5.06297 15.7188 5.14921 15.809Z" fill="#FAB446"/>
<path d="M8.836 15.832L8.85799 15.809C8.94423 15.7188 8.93403 15.5739 8.836 15.4967H8.65952C8.68212 15.3922 8.6624 15.2829 8.60467 15.1929L8.47426 14.9894L8.34382 15.1929C8.28609 15.2829 8.26637 15.3922 8.28898 15.4967H8.11249C8.01446 15.5739 8.00426 15.7188 8.0905 15.809L8.11249 15.832C8.15381 15.7559 8.25747 15.7424 8.31688 15.8055L8.34191 15.832V15.9864L8.28898 16.0349H8.19634L8.28898 16.1408L8.47423 16.2996L8.65952 16.1408L8.75216 16.0349H8.65952L8.60658 15.9864V15.832L8.63162 15.8055C8.69103 15.7424 8.79468 15.7559 8.836 15.832Z" fill="#FAB446"/>
<path d="M8.24402 9.64439L7.82141 9.8104L8.24402 9.16895L8.511 9.2468C8.62031 9.35611 8.61075 9.53607 8.49047 9.63318L8.32705 9.76514L8.24402 9.64439Z" fill="#FAB446"/>
<path d="M8.56858 9.76514L8.4628 9.86585C8.26782 10.0515 7.9863 10.1144 7.73086 10.0293L7.82141 9.87242L8.14595 9.90389L8.56858 9.76514Z" fill="#FAB446"/>
<path d="M8.68179 14.3387L8.97612 14.8282L9.43689 14.7764L9.60095 14.8519L9.43689 14.965L9.08533 14.9845L9.43689 15.0556V15.3673L9.30408 15.2423L8.97612 15.0556L9.24158 15.3907L9.14968 15.6971L8.97612 15.4845L8.83923 14.965L8.49548 14.8868L8.26667 14.7764L8.44861 14.6564L8.8158 14.8126L8.51573 14.3387H8.68179Z" fill="#FAB446"/>
<path d="M5.05572 10.0562L5.64125 10.8724C5.72083 10.9833 5.8857 10.9837 5.96576 10.8731L6.37721 10.3048L5.76123 9.15625H6.1783C6.27061 9.15625 6.36112 9.18181 6.4398 9.23009L6.78742 9.44339V9.52543H6.47293L6.60529 9.59777C6.72188 9.66148 6.80832 9.76899 6.84552 9.89654L7.01269 10.4698L7.16355 9.90437C7.19884 9.77214 7.28678 9.66015 7.40688 9.59452L7.5333 9.52543H7.21881V9.44339L7.56642 9.23009C7.6451 9.18181 7.73561 9.15625 7.82793 9.15625H8.24499L7.62901 10.3048L8.04047 10.8731C8.12053 10.9837 8.2854 10.9833 8.36497 10.8724L8.9505 10.0562C9.04751 9.92099 9.07088 9.74637 9.01285 9.5904L8.88692 9.25196L8.97605 9.28239C9.27297 9.38378 9.50509 9.61865 9.60298 9.91673L9.71486 10.2574C9.83514 10.6237 9.8837 11.0097 9.85789 11.3943L9.7484 13.0258V14.35C9.7484 14.5194 9.55095 14.6121 9.42062 14.5038L8.9731 14.1322C8.91644 14.0851 8.87159 14.0255 8.84215 13.958L8.5409 13.267C8.48415 13.1369 8.32869 13.0825 8.20321 13.1489L8.69554 14.3248L8.08024 14.6667L7.8966 14.3328C7.80774 14.1712 7.56508 14.2116 7.5333 14.3932L8.07675 16.1233C8.11259 16.2374 8.04095 16.3573 7.92349 16.3797L6.9956 16.5548L6.08274 16.3797C5.96527 16.3573 5.89363 16.2374 5.92947 16.1233L6.47293 14.3932C6.44114 14.2116 6.19848 14.1712 6.10963 14.3328L5.92599 14.6667L5.31068 14.3248L5.80301 13.1489C5.67753 13.0825 5.52207 13.1369 5.46533 13.267L5.16407 13.958C5.13463 14.0255 5.08979 14.0851 5.03313 14.1322L4.5856 14.5038C4.45527 14.6121 4.25783 14.5194 4.25783 14.35V13.0258L4.14833 11.3943C4.12252 11.0097 4.17108 10.6237 4.29136 10.2574L4.40324 9.91673C4.50114 9.61865 4.73325 9.38378 5.03017 9.28239L5.1193 9.25196L4.99338 9.5904C4.93535 9.74637 4.95872 9.92099 5.05572 10.0562Z" fill="white"/>
<path d="M5.77897 11.124L5.77898 12.9728C5.77898 12.9728 5.74611 13.5128 6.14288 13.9792C6.53964 14.4455 7.00001 14.4138 7.00001 14.4138H7.00695C7.00695 14.4138 7.46732 14.4455 7.86408 13.9792C8.26084 13.5128 8.22797 12.9728 8.22797 12.9728L8.22798 11.124H5.77897Z" fill="#DA444D"/>
<path d="M6.73328 12.8104V14.4142H7.27271V12.8104H8.22815V12.3087H7.27271V11.124H6.73328V12.3087H5.76758V12.8104H6.73328Z" fill="white"/>
<path d="M6.30496 11.2865C6.27547 11.2729 6.24121 11.2745 6.21308 11.2907L6.0178 11.4034C5.98825 11.4205 5.96943 11.4514 5.96788 11.4855C5.96633 11.5196 5.98226 11.5521 6.01014 11.5717L6.16272 11.6794L6.278 11.5159L6.25324 11.4985L6.26817 11.4898L6.38138 11.5421L6.31762 11.7148L6.30496 11.7438L6.3176 11.7778L6.37793 11.9229L6.26817 11.9736L6.25324 11.965L6.278 11.9475L6.16272 11.7841L6.01014 11.8917C5.98226 11.9114 5.96633 11.9439 5.96788 11.978C5.96943 12.012 5.98825 12.043 6.0178 12.06L6.21308 12.1727C6.24121 12.1889 6.27547 12.1905 6.30496 12.1769L6.54911 12.0642C6.5979 12.0417 6.62018 11.9846 6.59955 11.935L6.52008 11.7438L6.60102 11.5247C6.61909 11.4757 6.59649 11.4211 6.54911 11.3992L6.30496 11.2865Z" fill="white"/>
<path d="M7.79388 11.2907C7.76575 11.2745 7.73149 11.2729 7.702 11.2865L7.45784 11.3992C7.41047 11.4211 7.38786 11.4757 7.40594 11.5247L7.48688 11.7438L7.40741 11.935C7.38678 11.9846 7.40906 12.0417 7.45784 12.0642L7.702 12.1769C7.73149 12.1905 7.76575 12.1889 7.79388 12.1727L7.98916 12.06C8.01871 12.043 8.03753 12.012 8.03908 11.978C8.04063 11.9439 8.0247 11.9114 7.99682 11.8917L7.84423 11.7841L7.72896 11.9475L7.75372 11.965L7.73878 11.9736L7.62902 11.9229L7.68936 11.7778L7.702 11.7438L7.68934 11.7148L7.62557 11.5421L7.73878 11.4898L7.75372 11.4985L7.72896 11.5159L7.84423 11.6794L7.99682 11.5717C8.0247 11.5521 8.04063 11.5196 8.03908 11.4855C8.03753 11.4514 8.01871 11.4205 7.98916 11.4034L7.79388 11.2907Z" fill="white"/>
<path d="M7.79388 12.947C7.76575 12.9307 7.73149 12.9292 7.702 12.9428L7.45784 13.0555C7.41047 13.0773 7.38786 13.132 7.40594 13.1809L7.48688 13.4001L7.40741 13.5913C7.38678 13.6409 7.40906 13.6979 7.45784 13.7205L7.702 13.8331C7.73149 13.8467 7.76575 13.8452 7.79388 13.8289L7.98916 13.7163C8.01871 13.6992 8.03753 13.6683 8.03908 13.6342C8.04063 13.6001 8.0247 13.5676 7.99682 13.5479L7.84423 13.4403L7.72896 13.6038L7.75372 13.6212L7.73878 13.6298L7.62902 13.5792L7.68936 13.434L7.702 13.4001L7.68934 13.371L7.62557 13.1983L7.73878 13.1461L7.75372 13.1547L7.72896 13.1722L7.84423 13.3356L7.99682 13.228C8.0247 13.2083 8.04063 13.1758 8.03908 13.1417C8.03753 13.1076 8.01871 13.0767 7.98916 13.0597L7.79388 12.947Z" fill="white"/>
<path d="M6.21308 12.947C6.24121 12.9307 6.27547 12.9292 6.30496 12.9428L6.54911 13.0555C6.59649 13.0773 6.61909 13.132 6.60102 13.1809L6.52008 13.4001L6.59955 13.5913C6.62018 13.6409 6.5979 13.6979 6.54911 13.7205L6.30496 13.8331C6.27547 13.8467 6.24121 13.8452 6.21308 13.8289L6.0178 13.7163C5.98825 13.6992 5.96943 13.6683 5.96788 13.6342C5.96633 13.6001 5.98226 13.5676 6.01014 13.5479L6.16272 13.4403L6.278 13.6038L6.25324 13.6212L6.26817 13.6298L6.37793 13.5792L6.3176 13.434L6.30496 13.4001L6.31762 13.371L6.38138 13.1983L6.26817 13.1461L6.25324 13.1547L6.278 13.1722L6.16272 13.3356L6.01014 13.228C5.98226 13.2083 5.96633 13.1758 5.96788 13.1417C5.96943 13.1076 5.98825 13.0767 6.0178 13.0597L6.21308 12.947Z" fill="white"/>
<ellipse cx="6.11365" cy="8.55978" rx="0.191772" ry="0.161346" fill="#DA444D"/>
<path d="M5.69202 8.51294C5.72903 8.51294 5.75903 8.48293 5.75903 8.44592C5.75903 8.40891 5.72903 8.37891 5.69202 8.37891C5.655 8.37891 5.625 8.40891 5.625 8.44592C5.625 8.48293 5.655 8.51294 5.69202 8.51294Z" fill="white"/>
<path d="M5.69202 8.78821C5.72903 8.78821 5.75903 8.7582 5.75903 8.72119C5.75903 8.68418 5.72903 8.65417 5.69202 8.65417C5.655 8.65417 5.625 8.68418 5.625 8.72119C5.625 8.7582 5.655 8.78821 5.69202 8.78821Z" fill="white"/>
<path d="M6.57092 8.44556C6.60794 8.44556 6.63794 8.41555 6.63794 8.37854C6.63794 8.34153 6.60794 8.31152 6.57092 8.31152C6.53391 8.31152 6.50391 8.34153 6.50391 8.37854C6.50391 8.41555 6.53391 8.44556 6.57092 8.44556Z" fill="white"/>
<path d="M6.57092 8.72083C6.60794 8.72083 6.63794 8.69082 6.63794 8.65381C6.63794 8.6168 6.60794 8.58679 6.57092 8.58679C6.53391 8.58679 6.50391 8.6168 6.50391 8.65381C6.50391 8.69082 6.53391 8.72083 6.57092 8.72083Z" fill="white"/>
<ellipse cx="6.99939" cy="8.51291" rx="0.191772" ry="0.161346" fill="#175294"/>
<path d="M5.17285 8.26562L5.28154 8.95807H8.70626L8.81494 8.26562H5.17285Z" fill="#FAB446"/>
<ellipse cx="0.191772" cy="0.161346" rx="0.191772" ry="0.161346" transform="matrix(-1 0 0 1 8.06641 8.39844)" fill="#DA444D"/>
<ellipse cx="6.11365" cy="8.55978" rx="0.191772" ry="0.161346" fill="#DA444D"/>
<path d="M6.8354 7.42039V6.11033C6.79855 6.11231 6.76047 6.11415 6.7218 6.11602C6.68121 6.11798 6.63997 6.11997 6.59879 6.12219C6.4527 6.13006 6.30055 6.14101 6.15476 6.16316C5.85183 6.20918 5.62457 6.29717 5.51949 6.45236C5.48474 6.50368 5.47264 6.57962 5.49443 6.6882C5.51606 6.79602 5.56753 6.91612 5.63166 7.03284C5.69507 7.14827 5.76693 7.25336 5.82346 7.33011C5.8516 7.3683 5.87561 7.39903 5.89242 7.42001C5.90082 7.4305 5.9074 7.43852 5.91178 7.4438L5.91663 7.44962L5.91772 7.45091L5.68963 7.64578L5.68885 7.64487L5.68707 7.64276L5.68077 7.63521C5.67541 7.62874 5.66779 7.61944 5.65829 7.60758C5.63931 7.58389 5.61279 7.54993 5.58193 7.50804C5.52048 7.42463 5.44054 7.30802 5.36873 7.1773C5.29762 7.04786 5.23041 6.89737 5.20029 6.74722C5.18718 6.68187 5.18039 6.6127 5.18508 6.54347C5.15346 6.55267 5.11976 6.56314 5.0853 6.57487C5.00629 6.60176 4.92683 6.63406 4.86016 6.67096C4.79085 6.70932 4.74897 6.7453 4.72982 6.77358C4.69528 6.8246 4.68352 6.89956 4.70586 7.00682C4.72808 7.11348 4.78034 7.23226 4.84543 7.34774C4.90979 7.46193 4.9826 7.56579 5.03987 7.64163C5.06837 7.67937 5.09269 7.70972 5.10971 7.73044C5.11821 7.7408 5.12487 7.74872 5.1293 7.75393L5.13421 7.75967L5.13531 7.76094L4.90964 7.95862L4.90886 7.95771L4.90705 7.95562L4.90067 7.94816C4.89523 7.94177 4.8875 7.93257 4.87788 7.92085C4.85865 7.89744 4.83176 7.86386 4.80048 7.82243C4.73818 7.73995 4.65708 7.62456 4.58408 7.49504C4.51182 7.36683 4.44329 7.21745 4.41216 7.06799C4.38116 6.91912 4.38351 6.74997 4.48141 6.60538C4.53956 6.51949 4.62967 6.45565 4.71488 6.40848C4.80273 6.35986 4.90029 6.32093 4.98865 6.29086C5.07761 6.26059 5.16087 6.23808 5.22168 6.22315C5.2522 6.21566 5.27734 6.21001 5.29505 6.20619L5.31586 6.20183L5.32165 6.20067L5.32406 6.2002L5.32648 6.2128C5.51808 5.99629 5.82906 5.9092 6.1097 5.86656C6.2702 5.84218 6.43402 5.83064 6.58264 5.82263C6.6287 5.82014 6.67274 5.81802 6.71473 5.81599C6.81142 5.81133 6.89725 5.80718 6.97186 5.80042C6.97915 5.79976 6.98643 5.79963 6.99365 5.80003C7.00087 5.79963 7.00816 5.79976 7.01545 5.80042C7.09005 5.80718 7.17589 5.81133 7.27257 5.81599C7.31456 5.81802 7.35861 5.82014 7.40466 5.82263C7.55329 5.83064 7.7171 5.84218 7.8776 5.86656C8.15825 5.9092 8.46923 5.99629 8.66082 6.2128L8.66324 6.2002L8.66566 6.20067L8.67145 6.20183L8.69226 6.20619C8.70997 6.21001 8.73511 6.21566 8.76562 6.22315C8.82644 6.23808 8.9097 6.26059 8.99865 6.29086C9.08701 6.32093 9.18458 6.35986 9.27243 6.40848C9.35763 6.45565 9.44774 6.51949 9.50589 6.60538C9.6038 6.74997 9.60615 6.91912 9.57514 7.06799C9.54401 7.21745 9.47548 7.36683 9.40322 7.49504C9.33022 7.62456 9.24912 7.73995 9.18683 7.82243C9.15554 7.86386 9.12866 7.89744 9.10942 7.92085C9.0998 7.93257 9.09207 7.94177 9.08664 7.94816L9.08026 7.95562L9.07845 7.95771L9.07766 7.95862L8.85199 7.76094L8.8531 7.75967L8.858 7.75393C8.86243 7.74872 8.86909 7.7408 8.8776 7.73044C8.89462 7.70972 8.91893 7.67937 8.94743 7.64163C9.00471 7.56579 9.07752 7.46193 9.14187 7.34774C9.20696 7.23226 9.25923 7.11348 9.28144 7.00682C9.30378 6.89956 9.29203 6.8246 9.25748 6.77358C9.23833 6.7453 9.19645 6.70932 9.12714 6.67096C9.06048 6.63406 8.98101 6.60176 8.902 6.57487C8.86754 6.56314 8.83385 6.55267 8.80223 6.54347C8.80692 6.6127 8.80013 6.68187 8.78702 6.74722C8.75689 6.89737 8.68969 7.04786 8.61858 7.1773C8.54676 7.30802 8.46682 7.42463 8.40538 7.50804C8.37452 7.54993 8.34799 7.58389 8.32901 7.60758C8.31952 7.61944 8.31189 7.62874 8.30653 7.63521L8.30024 7.64276L8.29845 7.64487L8.29768 7.64578L8.06959 7.45091L8.07068 7.44962L8.07553 7.4438C8.0799 7.43852 8.08648 7.4305 8.09488 7.42001C8.1117 7.39903 8.13571 7.3683 8.16384 7.33011C8.22038 7.25336 8.29223 7.14827 8.35565 7.03284C8.41977 6.91612 8.47125 6.79602 8.49288 6.6882C8.51466 6.57962 8.50257 6.50368 8.46781 6.45236C8.36274 6.29717 8.13548 6.20918 7.83255 6.16316C7.68676 6.14101 7.5346 6.13006 7.38852 6.12219C7.34734 6.11997 7.30609 6.11798 7.26551 6.11602C7.22684 6.11415 7.18876 6.11231 7.1519 6.11033V7.42039H6.8354Z" fill="#FEFEFE"/>
<path d="M6.98584 8.67426C7.09175 8.67426 7.17761 8.60202 7.17761 8.51291C7.17761 8.4238 7.09175 8.35156 6.98584 8.35156C6.87993 8.35156 6.79407 8.4238 6.79407 8.51291C6.79407 8.60202 6.87993 8.67426 6.98584 8.67426Z" fill="#175294"/>
<path d="M5.49878 8.59103C5.49878 8.68014 5.41292 8.75238 5.30701 8.75238C5.20109 8.75238 5.11523 8.68014 5.11523 8.59103C5.11523 8.50192 5.20109 8.42969 5.30701 8.42969C5.41292 8.42969 5.49878 8.50192 5.49878 8.59103Z" fill="#175294"/>
<path d="M8.48926 8.59103C8.48926 8.68014 8.57512 8.75238 8.68103 8.75238C8.78694 8.75238 8.8728 8.68014 8.8728 8.59103C8.8728 8.50192 8.78694 8.42969 8.68103 8.42969C8.57512 8.42969 8.48926 8.50192 8.48926 8.59103Z" fill="#175294"/>
<path fill-rule="evenodd" clip-rule="evenodd" d="M9.05711 8.0568C9.06611 8.05872 9.07542 8.05941 9.08477 8.05878C9.11127 8.05699 9.13598 8.04473 9.15343 8.02469L9.15443 8.02355L9.15662 8.02102L9.16322 8.0133C9.16899 8.00651 9.17707 7.99689 9.18707 7.98472C9.20704 7.9604 9.23478 7.92575 9.267 7.88309C9.33096 7.79839 9.41483 7.67916 9.49071 7.54453C9.56536 7.41207 9.63931 7.25249 9.67341 7.08877C9.70728 6.92617 9.70815 6.72556 9.58907 6.5497C9.51793 6.44464 9.41176 6.3715 9.32122 6.32138C9.22632 6.26885 9.12272 6.22772 9.03124 6.19659C8.93877 6.16512 8.85257 6.14183 8.78984 6.12642C8.75829 6.11868 8.73167 6.1127 8.71315 6.10871L8.6965 6.10522C8.47931 5.89161 8.16021 5.80868 7.89299 5.76809C7.72759 5.74296 7.55989 5.73122 7.41041 5.72316C7.36408 5.72066 7.31969 5.71852 7.27776 5.7165C7.18045 5.7118 7.09692 5.70775 7.02485 5.70122C7.01454 5.70028 7.00425 5.69999 6.99402 5.70033C6.98379 5.69999 6.9735 5.70028 6.96319 5.70122C6.89112 5.70775 6.80757 5.7118 6.71025 5.7165C6.66833 5.71852 6.62396 5.72066 6.57763 5.72316C6.42815 5.73122 6.26045 5.74296 6.09505 5.76809C5.82782 5.80868 5.50873 5.89161 5.29154 6.10522L5.27489 6.10871C5.25636 6.1127 5.22975 6.11868 5.1982 6.12642C5.13547 6.14183 5.04927 6.16512 4.9568 6.19659C4.86532 6.22772 4.76172 6.26885 4.66681 6.32138C4.57628 6.3715 4.47011 6.44464 4.39897 6.5497C4.27989 6.72556 4.28076 6.92617 4.31463 7.08877C4.34873 7.25249 4.42267 7.41207 4.49733 7.54453C4.57321 7.67916 4.65707 7.79839 4.72104 7.88309C4.75326 7.92575 4.781 7.9604 4.80097 7.98472C4.81097 7.99689 4.81905 8.00651 4.82482 8.0133L4.83142 8.02102L4.83361 8.02355L4.8346 8.02469C4.85206 8.04473 4.87676 8.05699 4.90327 8.05878C4.91262 8.05941 4.92191 8.05872 4.93091 8.0568L4.94722 8.06967C5.0683 8.16522 5.21853 8.21624 5.37275 8.21419L6.99401 8.19267L8.61526 8.21419C8.76948 8.21624 8.91972 8.16522 9.04079 8.06967L9.05711 8.0568ZM6.9862 7.52982C6.98558 7.53392 6.98558 7.53834 6.98617 7.54302C6.98263 7.5693 6.95993 7.60407 6.925 7.63902C6.95355 7.64602 6.97941 7.66391 6.99401 7.69129C7.00642 7.66803 7.02695 7.65162 7.05035 7.64291C7.01314 7.60666 6.98962 7.57027 6.98617 7.54302C6.9868 7.53834 6.98682 7.53392 6.9862 7.52982ZM7.25227 7.30011C7.28754 7.29266 7.31476 7.29637 7.32628 7.3131C7.32782 7.31534 7.42516 7.52657 7.42516 7.52982C7.42516 7.53308 7.32782 7.7443 7.32628 7.74654C7.31093 7.76884 7.26769 7.76802 7.21468 7.74846L7.2174 7.75128L7.22125 7.75495L7.25987 7.79C7.34425 7.8666 7.47745 7.84777 7.53729 7.75079L7.6142 7.62615C7.6734 7.53021 7.81949 7.5563 7.84182 7.66681C7.8513 7.71369 7.88349 7.74577 7.92198 7.75932C7.89721 7.6966 7.86461 7.61334 7.86461 7.61131C7.86461 7.60805 7.94807 7.39683 7.94939 7.39458C7.95782 7.38031 7.97604 7.37551 7.99999 7.37904L8.01721 7.35788C8.02497 7.34819 8.03439 7.33627 8.04511 7.32238C8.03791 7.28551 8.04083 7.25694 8.05562 7.24506C8.05562 7.24506 8.08549 7.23333 8.12048 7.22012C8.16766 7.15314 8.22066 7.07192 8.26837 6.98508C8.33018 6.87259 8.3764 6.76262 8.3952 6.66892C8.41421 6.5742 8.39926 6.52931 8.38538 6.50881C8.30609 6.39172 8.11862 6.3081 7.8179 6.26242C7.67702 6.24102 7.52874 6.23026 7.38351 6.22244C7.34265 6.22024 7.30168 6.21826 7.26105 6.21629L7.25227 6.21587V7.30011ZM8.49715 7.37793C8.47398 7.37785 8.44302 7.3879 8.40952 7.40658C8.44344 7.33215 8.4521 7.26502 8.42724 7.24506C8.42724 7.24506 8.31561 7.20235 8.2656 7.18399C8.29599 7.13708 8.32689 7.08625 8.35602 7.03323C8.42014 6.91651 8.47162 6.79641 8.49325 6.68859C8.51503 6.58001 8.50294 6.50407 8.46818 6.45275C8.36311 6.29757 8.13584 6.20957 7.83292 6.16355C7.68713 6.14141 7.53497 6.13045 7.38889 6.12258C7.34771 6.12036 7.30646 6.11837 7.26588 6.11641L7.23576 6.11495V5.9502C7.23576 5.9008 7.22115 5.85301 7.19444 5.81252L7.27294 5.81638C7.31493 5.81841 7.35898 5.82053 7.40503 5.82302C7.55366 5.83103 7.71747 5.84257 7.87797 5.86695C8.12396 5.90432 8.39325 5.97585 8.58503 6.13874C8.60663 6.15709 8.62725 6.17659 8.64674 6.19734C8.65162 6.20253 8.65642 6.20781 8.66116 6.21316L8.66361 6.20059L8.66603 6.20106L8.67182 6.20222L8.69263 6.20658C8.70941 6.2102 8.73287 6.21546 8.76126 6.22238L8.76599 6.22354C8.82681 6.23847 8.91007 6.26098 8.99902 6.29125C9.08738 6.32132 9.18495 6.36025 9.27279 6.40887C9.358 6.45604 9.44811 6.51989 9.50626 6.60577C9.60417 6.75036 9.60652 6.91951 9.57551 7.06838C9.54438 7.21784 9.47585 7.36722 9.40359 7.49543C9.34474 7.59985 9.28063 7.69507 9.22535 7.77128C9.20651 7.66839 9.08612 7.59545 8.97896 7.66023L8.92507 7.69281C8.91717 7.69759 8.90881 7.70106 8.90027 7.70328C8.914 7.68607 8.93009 7.66547 8.9478 7.64202C9.00508 7.56618 9.07789 7.46232 9.14224 7.34814C9.20733 7.23265 9.2596 7.11387 9.28181 7.00721C9.30415 6.89995 9.2924 6.82499 9.25785 6.77397C9.2387 6.74569 9.19682 6.70971 9.12751 6.67135C9.0613 6.6347 8.98246 6.60258 8.90398 6.57581L8.90237 6.57526C8.86791 6.56353 8.83422 6.55306 8.8026 6.54386C8.80496 6.57871 8.80441 6.61355 8.80161 6.64789C8.79885 6.68177 8.7939 6.71516 8.78739 6.74761C8.75726 6.89776 8.69006 7.04826 8.61895 7.17769C8.57933 7.2498 8.53724 7.31761 8.49715 7.37793ZM8.5553 7.47055C8.57289 7.53227 8.59459 7.61131 8.59459 7.61131C8.59459 7.61353 8.56415 7.72134 8.54615 7.78405C8.55543 7.77808 8.56421 7.77064 8.57224 7.76164L8.65918 7.66422C8.69744 7.62134 8.76475 7.6231 8.80083 7.66719C8.81711 7.64737 8.84052 7.61815 8.868 7.58176C8.92361 7.50813 8.99365 7.40811 9.05513 7.29904C9.11783 7.18778 9.16467 7.07921 9.18391 6.98682C9.20331 6.89371 9.18859 6.85003 9.17505 6.83004C9.16892 6.82099 9.14315 6.7943 9.07908 6.75884C9.02707 6.73005 8.96452 6.70346 8.899 6.68C8.89575 6.70988 8.89109 6.73907 8.88543 6.76728C8.85248 6.93153 8.78004 7.09216 8.70659 7.22584C8.657 7.3161 8.60387 7.39957 8.5553 7.47055ZM4.76267 7.77126C4.70739 7.69506 4.64329 7.59984 4.58445 7.49543C4.51219 7.36722 4.44366 7.21784 4.41253 7.06838C4.38152 6.91951 4.38387 6.75036 4.48177 6.60577C4.53993 6.51989 4.63004 6.45604 4.71524 6.40887C4.80309 6.36025 4.90066 6.32132 4.98902 6.29125C5.07797 6.26098 5.16123 6.23847 5.22204 6.22354L5.22678 6.22238C5.25517 6.21546 5.27862 6.2102 5.29541 6.20658L5.31622 6.20222L5.32201 6.20106L5.32442 6.20059L5.32688 6.21316C5.33161 6.20781 5.33642 6.20253 5.3413 6.19734C5.36079 6.17659 5.38141 6.15709 5.40301 6.13874C5.59478 5.97585 5.86408 5.90432 6.11007 5.86695C6.27057 5.84257 6.43438 5.83103 6.58301 5.82302C6.62906 5.82053 6.6731 5.81841 6.71509 5.81638L6.79359 5.81252C6.76688 5.85301 6.75227 5.9008 6.75227 5.9502V6.11495L6.72216 6.11641C6.68158 6.11837 6.64033 6.12036 6.59915 6.12258C6.45307 6.13045 6.30091 6.14141 6.15512 6.16355C5.85219 6.20957 5.62493 6.29757 5.51986 6.45275C5.4851 6.50407 5.473 6.58001 5.49479 6.68859C5.51642 6.79641 5.5679 6.91651 5.63202 7.03323C5.66114 7.08624 5.69205 7.13707 5.72243 7.18398C5.67243 7.20233 5.56078 7.24506 5.56078 7.24506C5.53592 7.26502 5.54458 7.33214 5.5785 7.40657C5.545 7.38789 5.51405 7.37786 5.49089 7.37793C5.45079 7.31761 5.40871 7.2498 5.36909 7.17769C5.29798 7.04826 5.23078 6.89776 5.20065 6.74761C5.19414 6.71516 5.18919 6.68177 5.18643 6.64789C5.18363 6.61355 5.18308 6.57871 5.18544 6.54386C5.15382 6.55306 5.12013 6.56353 5.08566 6.57526L5.08406 6.57581C5.00558 6.60258 4.92674 6.6347 4.86053 6.67135C4.79122 6.70971 4.74933 6.74569 4.73019 6.77397C4.69564 6.82499 4.68388 6.89995 4.70622 7.00721C4.72844 7.11387 4.78071 7.23265 4.8458 7.34814C4.91015 7.46232 4.98296 7.56618 5.04024 7.64202C5.05795 7.66547 5.07404 7.68608 5.08778 7.70329C5.07922 7.70107 5.07086 7.69759 5.06294 7.69281L5.00906 7.66023C4.9019 7.59545 4.78152 7.66838 4.76267 7.77126ZM5.18719 7.66718C5.17091 7.64735 5.14751 7.61814 5.12004 7.58176C5.06443 7.50813 4.99438 7.40811 4.93291 7.29904C4.87021 7.18778 4.82336 7.07921 4.80412 6.98682C4.78473 6.89371 4.79945 6.85003 4.81299 6.83004C4.81911 6.82099 4.84488 6.7943 4.90895 6.75884C4.96097 6.73005 5.02352 6.70346 5.08904 6.68C5.09229 6.70988 5.09694 6.73907 5.1026 6.76728C5.13556 6.93153 5.208 7.09216 5.28145 7.22584C5.33103 7.31609 5.38415 7.39956 5.43273 7.47053C5.41513 7.53225 5.39342 7.61131 5.39342 7.61131C5.39342 7.61353 5.42387 7.72134 5.44187 7.78405C5.43258 7.77807 5.4238 7.77064 5.41578 7.76164L5.32884 7.66422C5.29058 7.62135 5.22327 7.62309 5.18719 7.66718ZM5.94291 7.32236C5.95011 7.2855 5.94718 7.25693 5.9324 7.24506C5.9324 7.24506 5.90254 7.23334 5.86756 7.22014C5.82039 7.15315 5.76738 7.07193 5.71966 6.98508C5.65786 6.87259 5.61163 6.76262 5.59284 6.66892C5.57383 6.5742 5.58878 6.52931 5.60266 6.50881C5.68195 6.39172 5.86941 6.3081 6.17014 6.26242C6.31102 6.24102 6.45929 6.23026 6.60453 6.22244C6.64539 6.22024 6.68636 6.21826 6.72699 6.21629L6.73576 6.21587V7.30428C6.69252 7.29183 6.6584 7.29383 6.64514 7.3131C6.64366 7.31525 6.5736 7.52671 6.5736 7.52982C6.5736 7.53294 6.64366 7.7444 6.64514 7.74654C6.66284 7.77226 6.71767 7.76722 6.78178 7.73813C6.7774 7.74423 6.77237 7.74987 6.76676 7.75495L6.72815 7.79C6.64377 7.8666 6.51057 7.84777 6.45072 7.75079L6.37381 7.62615C6.31461 7.53021 6.16852 7.5563 6.14619 7.66681C6.13672 7.71369 6.10452 7.74577 6.06603 7.75932C6.09081 7.6966 6.1234 7.61334 6.1234 7.61131C6.1234 7.60805 6.03995 7.39683 6.03862 7.39458C6.0302 7.38031 6.01198 7.37551 5.98804 7.37904L5.97083 7.35788C5.96306 7.34819 5.95364 7.33626 5.94291 7.32236ZM7.13576 7.14156C7.0728 7.12115 6.98568 7.09393 6.98568 7.09393C6.98568 7.09393 6.9126 7.11667 6.85227 7.13617V5.9502C6.85227 5.90806 6.87 5.86786 6.90111 5.83944C6.92681 5.81597 6.9597 5.80231 6.99402 5.80042C7.02834 5.80231 7.06122 5.81597 7.08693 5.83944C7.11804 5.86786 7.13576 5.90806 7.13576 5.9502V7.14156Z" fill="#FAB446"/>
<path d="M6.45672 7.42923C6.45672 7.55249 6.41004 7.6524 6.35247 7.6524C6.29489 7.6524 6.24822 7.55249 6.24822 7.42923C6.24822 7.30597 6.29489 7.20605 6.35247 7.20605C6.41004 7.20605 6.45672 7.30597 6.45672 7.42923Z" fill="#FEFEFE"/>
<path d="M5.37982 7.58329C5.40487 7.70397 5.37949 7.8113 5.32312 7.823C5.26674 7.83471 5.20073 7.74636 5.17567 7.62568C5.15062 7.505 5.176 7.39768 5.23237 7.38597C5.28874 7.37427 5.35476 7.46261 5.37982 7.58329Z" fill="#FEFEFE"/>
<path d="M7.5324 7.42923C7.5324 7.55249 7.57907 7.6524 7.63665 7.6524C7.69422 7.6524 7.7409 7.55249 7.7409 7.42923C7.7409 7.30597 7.69422 7.20605 7.63665 7.20605C7.57907 7.20605 7.5324 7.30597 7.5324 7.42923Z" fill="#FEFEFE"/>
<path d="M8.6093 7.58329C8.58424 7.70397 8.60963 7.8113 8.666 7.823C8.72237 7.83471 8.78839 7.74636 8.81345 7.62568C8.8385 7.505 8.81312 7.39768 8.75675 7.38597C8.70037 7.37427 8.63436 7.46261 8.6093 7.58329Z" fill="#FEFEFE"/>
<path d="M7.41821 8.44562C7.3812 8.44562 7.3512 8.41561 7.3512 8.3786C7.3512 8.34159 7.3812 8.31158 7.41821 8.31158C7.45523 8.31158 7.48523 8.34159 7.48523 8.3786C7.48523 8.41561 7.45523 8.44562 7.41821 8.44562Z" fill="#FEFEFE"/>
<path d="M7.41821 8.72089C7.3812 8.72089 7.3512 8.69088 7.3512 8.65387C7.3512 8.61686 7.3812 8.58685 7.41821 8.58685C7.45523 8.58685 7.48523 8.61686 7.48523 8.65387C7.48523 8.69088 7.45523 8.72089 7.41821 8.72089Z" fill="#FEFEFE"/>
<path d="M8.29712 8.51263C8.26011 8.51263 8.2301 8.48263 8.2301 8.44562C8.2301 8.40861 8.26011 8.3786 8.29712 8.3786C8.33413 8.3786 8.36414 8.40861 8.36414 8.44562C8.36414 8.48263 8.33413 8.51263 8.29712 8.51263Z" fill="#FEFEFE"/>
<path d="M8.29712 8.7879C8.26011 8.7879 8.2301 8.7579 8.2301 8.72089C8.2301 8.68387 8.26011 8.65387 8.29712 8.65387C8.33413 8.65387 8.36414 8.68387 8.36414 8.72089C8.36414 8.7579 8.33413 8.7879 8.29712 8.7879Z" fill="#FEFEFE"/>
<path d="M5.75891 8.44562C5.75891 8.48263 5.72891 8.51263 5.69189 8.51263C5.65488 8.51263 5.62488 8.48263 5.62488 8.44562C5.62488 8.40861 5.65488 8.3786 5.69189 8.3786C5.72891 8.3786 5.75891 8.40861 5.75891 8.44562Z" fill="#FEFEFE"/>
<path d="M5.75891 8.72089C5.75891 8.7579 5.72891 8.7879 5.69189 8.7879C5.65488 8.7879 5.62488 8.7579 5.62488 8.72089C5.62488 8.68387 5.65488 8.65387 5.69189 8.65387C5.72891 8.65387 5.75891 8.68387 5.75891 8.72089Z" fill="#FEFEFE"/>
<path d="M6.5708 8.44562C6.60781 8.44562 6.63782 8.41561 6.63782 8.3786C6.63782 8.34159 6.60781 8.31158 6.5708 8.31158C6.53379 8.31158 6.50378 8.34159 6.50378 8.3786C6.50378 8.41561 6.53379 8.44562 6.5708 8.44562Z" fill="#FEFEFE"/>
<path d="M6.5708 8.72089C6.60781 8.72089 6.63782 8.69088 6.63782 8.65387C6.63782 8.61686 6.60781 8.58685 6.5708 8.58685C6.53379 8.58685 6.50378 8.61686 6.50378 8.65387C6.50378 8.69088 6.53379 8.72089 6.5708 8.72089Z" fill="#FEFEFE"/>
<path d="M6.98608 7.65234C7.05404 7.65234 7.10913 7.59725 7.10913 7.5293C7.10913 7.46134 7.05404 7.40625 6.98608 7.40625C6.91813 7.40625 6.86304 7.46134 6.86304 7.5293C6.86304 7.59725 6.91813 7.65234 6.98608 7.65234Z" fill="#175294"/>
<path d="M5.85259 7.61078C5.85259 7.67874 5.80536 7.73383 5.7471 7.73383C5.68883 7.73383 5.6416 7.67874 5.6416 7.61078C5.6416 7.54282 5.68883 7.48773 5.7471 7.48773C5.80536 7.48773 5.85259 7.54282 5.85259 7.61078Z" fill="#175294"/>
<path d="M8.13618 7.61078C8.13618 7.67874 8.18341 7.73383 8.24167 7.73383C8.29994 7.73383 8.34717 7.67874 8.34717 7.61078C8.34717 7.54282 8.29994 7.48773 8.24167 7.48773C8.18341 7.48773 8.13618 7.54282 8.13618 7.61078Z" fill="#175294"/>
<path d="M7.1451 6.11703C7.24798 6.0607 7.31775 5.95143 7.31775 5.82587C7.31775 5.64266 7.16923 5.49414 6.98602 5.49414C6.80282 5.49414 6.6543 5.64266 6.6543 5.82587C6.6543 5.95148 6.72411 6.06078 6.82706 6.1171C6.83652 6.03766 6.90411 5.97607 6.98608 5.97607C7.06804 5.97607 7.13562 6.03763 7.1451 6.11703Z" fill="#175294"/>
<path d="M7.03809 5.05026C7.06813 5.06081 7.08826 5.08019 7.08826 5.10236C7.08826 5.12452 7.06813 5.1439 7.03809 5.15445C7.03707 5.15736 7.03597 5.16018 7.03479 5.16289V5.29688H7.14454C7.15019 5.29368 7.15645 5.29086 7.16322 5.28849C7.17377 5.25843 7.19316 5.23828 7.21533 5.23828C7.23752 5.23828 7.25692 5.25845 7.26746 5.28854C7.2975 5.29909 7.31763 5.31847 7.31763 5.34064C7.31763 5.3628 7.2975 5.38218 7.26746 5.39273C7.25692 5.42282 7.23752 5.44299 7.21533 5.44299C7.19359 5.44299 7.17453 5.42362 7.16385 5.39453H7.03479V5.77753H7.32629V5.87518H6.64551V5.77753H6.93713V5.39453H6.80795C6.79728 5.42362 6.77821 5.44299 6.75647 5.44299C6.73428 5.44299 6.71488 5.42282 6.70434 5.39273C6.67431 5.38218 6.65417 5.3628 6.65417 5.34064C6.65417 5.31847 6.67431 5.29909 6.70434 5.28854C6.71488 5.25845 6.73428 5.23828 6.75647 5.23828C6.77864 5.23828 6.79803 5.25843 6.80858 5.28849C6.81535 5.29086 6.82162 5.29368 6.82727 5.29688H6.93713V5.16289C6.93596 5.16019 6.93486 5.15739 6.93385 5.1545C6.90374 5.14396 6.88354 5.12455 6.88354 5.10236C6.88354 5.08016 6.90374 5.06075 6.93385 5.05021C6.9444 5.02015 6.96379 5 6.98596 5C7.00815 5 7.02755 5.02017 7.03809 5.05026Z" fill="#FAB446"/>
</svg>
