<svg width="17" height="17" viewBox="0 0 17 17" fill="none" xmlns="http://www.w3.org/2000/svg">
<path fill-rule="evenodd" clip-rule="evenodd" d="M10.5 2.5C10.5 3.60457 9.60457 4.5 8.5 4.5C7.39543 4.5 6.5 3.60457 6.5 2.5C6.5 1.39543 7.39543 0.5 8.5 0.5C9.60457 0.5 10.5 1.39543 10.5 2.5ZM8.5 10.5C9.60457 10.5 10.5 9.60457 10.5 8.5C10.5 7.39543 9.60457 6.5 8.5 6.5C7.39543 6.5 6.5 7.39543 6.5 8.5C6.5 9.60457 7.39543 10.5 8.5 10.5ZM8.5 16.5C9.60457 16.5 10.5 15.6046 10.5 14.5C10.5 13.3954 9.60457 12.5 8.5 12.5C7.39543 12.5 6.5 13.3954 6.5 14.5C6.5 15.6046 7.39543 16.5 8.5 16.5Z" fill="#A3A9AE"/>
</svg>
