<svg width="32" height="32" viewBox="0 0 32 32" fill="none" xmlns="http://www.w3.org/2000/svg">
<rect width="32" height="32" rx="6" fill="#FF7FD4" fill-opacity="0.1"/>
<g clip-path="url(#clip0_978_5997)">
<mask id="path-2-inside-1_978_5997" fill="white">
<path d="M14 12C17.3137 12 20 14.6863 20 18C20 21.3137 17.3137 24 14 24C13.2387 24 12.5111 23.8569 11.8411 23.598C11.6663 23.5304 11.4778 23.5024 11.2923 23.5289L9.3201 23.8111C8.66009 23.9055 8.09425 23.3399 8.18849 22.6798L8.47025 20.7065C8.49671 20.5211 8.46865 20.3328 8.40121 20.1582C8.1426 19.4884 8 18.761 8 18C8 14.6863 10.6863 12 14 12Z"/>
</mask>
<path d="M8.47025 20.7065L6.49033 20.4238L8.47025 20.7065ZM8.40121 20.1582L10.267 19.4378L8.40121 20.1582ZM11.8411 23.598L11.1201 25.4635L11.8411 23.598ZM11.2923 23.5289L11.5756 25.5087L11.2923 23.5289ZM14 12V14C16.2091 14 18 15.7909 18 18H20H22C22 13.5817 18.4183 10 14 10V12ZM20 18H18C18 20.2091 16.2091 22 14 22V24V26C18.4183 26 22 22.4183 22 18H20ZM14 24V22C13.4913 22 13.0078 21.9047 12.5621 21.7325L11.8411 23.598L11.1201 25.4635C12.0143 25.8091 12.9861 26 14 26V24ZM11.2923 23.5289L11.009 21.5491L9.0368 21.8313L9.3201 23.8111L9.6034 25.7909L11.5756 25.5087L11.2923 23.5289ZM8.18849 22.6798L10.1684 22.9625L10.4502 20.9892L8.47025 20.7065L6.49033 20.4238L6.20857 22.3972L8.18849 22.6798ZM8.40121 20.1582L10.267 19.4378C10.0951 18.9927 10 18.5091 10 18H8H6C6 19.0128 6.19011 19.9842 6.53547 20.8786L8.40121 20.1582ZM8 18H10C10 15.7909 11.7909 14 14 14V12V10C9.58172 10 6 13.5817 6 18H8ZM8.47025 20.7065L10.4502 20.9892C10.5317 20.4184 10.4394 19.8844 10.267 19.4378L8.40121 20.1582L6.53547 20.8786C6.49789 20.7813 6.46177 20.6238 6.49033 20.4238L8.47025 20.7065ZM9.3201 23.8111L9.0368 21.8313C9.69681 21.7368 10.2627 22.3025 10.1684 22.9625L8.18849 22.6798L6.20857 22.3972C5.92585 24.3773 7.62338 26.0743 9.6034 25.7909L9.3201 23.8111ZM11.8411 23.598L12.5621 21.7325C12.1149 21.5596 11.5802 21.4673 11.009 21.5491L11.2923 23.5289L11.5756 25.5087C11.3754 25.5374 11.2177 25.5012 11.1201 25.4635L11.8411 23.598Z" fill="#FF7FD4" mask="url(#path-2-inside-1_978_5997)"/>
<path d="M19 8C21.7614 8 24 10.2386 24 13C24 13.617 23.8873 14.2074 23.6826 14.7529C23.6169 14.9281 23.5879 15.1166 23.6143 15.3018L23.8115 16.6797C23.8999 17.2983 23.4082 17.8343 22.8027 17.8213L22.6797 17.8105L21.3037 17.6143C21.1182 17.5877 20.9294 17.6157 20.7539 17.6816C20.2081 17.8867 19.6174 18 19 18C19 17.2765 18.8448 16.5896 18.5684 15.9688C18.7093 15.9891 18.8534 16 19 16C19.2783 16 19.5462 15.9615 19.8008 15.8906L20.0508 15.8096L20.2178 15.752C20.6171 15.6259 21.085 15.5619 21.5869 15.6338L21.6436 15.6416L21.6348 15.585C21.5529 15.0119 21.6473 14.4833 21.8096 14.0508C21.932 13.7245 22 13.3716 22 13C22 11.3431 20.6569 10 19 10C17.3431 10 16 11.3431 16 13C16 13.1462 16.0101 13.29 16.0303 13.4307C15.4097 13.1545 14.723 13 14 13C14 10.2386 16.2386 8 19 8Z" fill="#FF7FD4"/>
<rect x="12" y="17" width="4" height="2" rx="1" fill="#FF7FD4"/>
</g>
<defs>
<clipPath id="clip0_978_5997">
<rect width="16" height="16" fill="white" transform="translate(8 8)"/>
</clipPath>
</defs>
</svg>
