<svg width="32" height="32" viewBox="0 0 32 32" fill="none" xmlns="http://www.w3.org/2000/svg">
<rect width="32" height="32" rx="6" fill="#F2557C" fill-opacity="0.1"/>
<g clip-path="url(#clip0_15158_11954)">
<path fill-rule="evenodd" clip-rule="evenodd" d="M16.0002 8C16.3903 8 16.7449 8.22689 16.9083 8.58115L18.6488 12.3546L22.7753 12.8438C23.1628 12.8898 23.4881 13.1568 23.6087 13.5279C23.7292 13.8989 23.623 14.3062 23.3366 14.5711L20.2857 17.3924L21.0955 21.4682C21.1716 21.8509 21.0181 22.2428 20.7025 22.4721C20.3869 22.7015 19.9667 22.7263 19.6263 22.5357L16.0002 20.506L12.3741 22.5357C12.0337 22.7263 11.6135 22.7015 11.2979 22.4721C10.9823 22.2428 10.8288 21.8509 10.9049 21.4682L11.7147 17.3924L8.66386 14.5711C8.37743 14.3062 8.27119 13.8989 8.39175 13.5279C8.51231 13.1568 8.83764 12.8898 9.22507 12.8438L13.3516 12.3546L15.0921 8.58115C15.2556 8.22689 15.6101 8 16.0002 8ZM16.0002 11.3875L14.9333 13.7005C14.7876 14.0164 14.4883 14.2338 14.143 14.2747L11.6135 14.5747L13.4836 16.3041C13.7389 16.5402 13.8533 16.8921 13.7855 17.2332L13.2891 19.7316L15.5118 18.4874C15.8152 18.3175 16.1852 18.3175 16.4886 18.4874L18.7114 19.7316L18.2149 17.2332C18.1472 16.8921 18.2615 16.5402 18.5168 16.3041L20.3869 14.5747L17.8574 14.2747C17.5121 14.2338 17.2128 14.0164 17.0671 13.7005L16.0002 11.3875Z" fill="#F2557C"/>
</g>
<defs>
<clipPath id="clip0_15158_11954">
<rect width="16" height="16" fill="white" transform="translate(8 8)"/>
</clipPath>
</defs>
</svg>
