<svg width="32" height="32" viewBox="0 0 32 32" fill="none" xmlns="http://www.w3.org/2000/svg">
<rect width="32" height="32" rx="6" fill="#35AD17" fill-opacity="0.1"/>
<g clip-path="url(#clip0_2202_5794)">
<path fill-rule="evenodd" clip-rule="evenodd" d="M9.42935 9.80702L15.86 8.01865C15.9518 7.99313 16.0486 7.99313 16.1403 8.01865L22.571 9.80702C22.7716 9.8628 22.92 10.0325 22.9488 10.2388C22.9861 10.507 23.8369 16.844 21.6545 19.9964C19.4746 23.1451 16.2588 23.952 16.1229 23.9848C16.0826 23.9945 16.0414 23.9994 16.0002 23.9994C15.9589 23.9994 15.9177 23.9946 15.8774 23.9848C15.7416 23.952 12.5257 23.1451 10.3458 19.9964C8.16336 16.844 9.01425 10.507 9.05155 10.2388C9.08028 10.0324 9.2287 9.8628 9.42935 9.80702ZM16.0002 10.0556L21.0656 11.4643C21.1162 12.098 21.162 12.9933 21.1348 13.981C21.0809 15.9381 20.7465 17.7943 20.0101 18.858L20.0101 18.858C18.6482 20.8252 16.7677 21.6579 16.0002 21.9307C15.2325 21.6579 13.3521 20.8251 11.9902 18.858C11.2538 17.7943 10.9194 15.938 10.8655 13.9809C10.8383 12.9932 10.8841 12.098 10.9347 11.4643L16.0002 10.0556ZM19.8536 14.5607C20.0489 14.3655 20.0489 14.0489 19.8536 13.8536L19.1465 13.1465C18.9513 12.9513 18.6347 12.9513 18.4394 13.1465L15.5001 16.0859L14.5607 15.1465C14.3655 14.9513 14.0489 14.9513 13.8536 15.1465L13.1465 15.8536C12.9513 16.0489 12.9513 16.3655 13.1465 16.5607L15.1465 18.5607C15.3418 18.756 15.6584 18.756 15.8536 18.5607L19.8536 14.5607Z" fill="#35AD17"/>
</g>
<defs>
<clipPath id="clip0_2202_5794">
<rect width="16" height="16" fill="white" transform="translate(8 8)"/>
</clipPath>
</defs>
</svg>
