<svg width="32" height="32" viewBox="0 0 32 32" fill="none" xmlns="http://www.w3.org/2000/svg">
<rect x="1" y="1" width="30" height="30" rx="5" stroke="#22C386" stroke-width="2"/>
<g clip-path="url(#clip0_4152_179192)">
<path fill-rule="evenodd" clip-rule="evenodd" d="M10.3372 21.6372C9.61662 20.9134 9.04754 20.071 8.63 19.11C8.21 18.1433 8 17.1067 8 16C8 14.8933 8.21 13.8567 8.63 12.89C9.05 11.9233 9.62333 11.0767 10.35 10.35C11.0767 9.62333 11.9267 9.05 12.9 8.63C13.8733 8.21 14.9067 8 16 8C17.1067 8 18.1433 8.21 19.11 8.63C20.0767 9.05 20.9233 9.62333 21.65 10.35C22.3767 11.0767 22.95 11.9233 23.37 12.89C23.79 13.8567 24 14.8933 24 16C24 17.1067 23.79 18.1433 23.37 19.11C22.95 20.0767 22.3767 20.9233 21.65 21.65C20.9233 22.3767 20.0733 22.95 19.1 23.37C18.1267 23.79 17.0933 24 16 24C14.8933 24 13.8567 23.79 12.89 23.37C11.929 22.9525 11.0866 22.3834 10.3628 21.6628C10.3585 21.6585 10.3543 21.6543 10.35 21.65C10.3457 21.6457 10.3415 21.6415 10.3372 21.6372ZM13.29 20.67C13.47 21.1433 13.68 21.6 13.92 22.04C13.8733 22.025 13.827 22.0095 13.781 21.9935C13.0907 21.7537 12.4738 21.4025 11.93 20.94C11.8575 20.8783 11.7865 20.8153 11.717 20.7509C11.2307 20.3003 10.8183 19.7833 10.48 19.2H12.84C12.96 19.7067 13.11 20.1967 13.29 20.67ZM12.43 16.81C12.45 17.07 12.48 17.3333 12.52 17.6H9.8C9.73333 17.3333 9.68333 17.07 9.65 16.81C9.64583 16.7775 9.64193 16.7448 9.63828 16.712C9.61276 16.4823 9.6 16.245 9.6 16C9.6 15.7975 9.60872 15.6002 9.62616 15.4081C9.63466 15.3397 9.64594 15.2703 9.66 15.2H9.64873C9.64915 15.1967 9.64957 15.1933 9.65 15.19C9.68333 14.93 9.73333 14.6667 9.8 14.4H12.52C12.48 14.6667 12.45 14.93 12.43 15.19C12.4297 15.1933 12.4295 15.1967 12.4292 15.2H12.42C12.4067 15.3333 12.4 15.4633 12.4 15.59L12.4 16C12.4 16.28 12.41 16.55 12.43 16.81ZM16.8 21.0595C16.8341 20.9933 16.8674 20.9268 16.9 20.86C17.1533 20.34 17.36 19.7867 17.52 19.2H14.48C14.62 19.7133 14.7957 20.2011 15.0072 20.6634C15.0374 20.7295 15.0683 20.795 15.1 20.86C15.3217 21.315 15.5791 21.7547 15.8722 22.1791C15.9141 22.2397 15.9567 22.3 16 22.36C16 22.36 16 22.36 16 22.36C16.1467 22.1467 16.2867 21.93 16.42 21.71C16.5533 21.49 16.68 21.2667 16.8 21.04V21.0595ZM17.88 17.6C17.92 17.3333 17.95 17.07 17.97 16.81C17.99 16.55 18 16.28 18 16C18 15.72 17.99 15.45 17.97 15.19C17.95 14.93 17.92 14.6667 17.88 14.4H14.12C14.08 14.6667 14.05 14.93 14.03 15.19C14.01 15.45 14 15.72 14 16C14 16.245 14.0077 16.4823 14.023 16.712C14.0252 16.7448 14.0275 16.7775 14.03 16.81C14.05 17.07 14.08 17.3333 14.12 17.6H17.88ZM17.52 12.8C17.36 12.2133 17.1533 11.66 16.9 11.14C16.6467 10.62 16.3467 10.12 16 9.64C15.8533 9.85333 15.7133 10.07 15.58 10.29C15.4467 10.51 15.32 10.7333 15.2 10.96V10.9405C15.1659 11.0067 15.1326 11.0732 15.1 11.14C14.8467 11.66 14.64 12.2133 14.48 12.8H17.52ZM19.5708 16.8C19.5705 16.8033 19.5703 16.8067 19.57 16.81C19.55 17.07 19.52 17.3333 19.48 17.6H22.2C22.2667 17.3333 22.3167 17.07 22.35 16.81C22.3504 16.8067 22.3509 16.8033 22.3513 16.8H22.34C22.3541 16.7297 22.3653 16.6603 22.3738 16.5919C22.3913 16.3998 22.4 16.2025 22.4 16C22.4 15.72 22.3833 15.45 22.35 15.19C22.3167 14.93 22.2667 14.6667 22.2 14.4H19.48C19.515 14.6333 19.5423 14.8641 19.562 15.0923C19.5648 15.1249 19.5675 15.1575 19.57 15.19C19.59 15.45 19.6 15.72 19.6 16V16.41C19.6 16.5367 19.5933 16.6667 19.58 16.8H19.5708ZM12.84 12.8H10.48C10.8667 12.1333 11.35 11.5533 11.93 11.06C12.51 10.5667 13.1733 10.2 13.92 9.96C13.68 10.4 13.47 10.8567 13.29 11.33C13.11 11.8033 12.96 12.2933 12.84 12.8ZM20.07 11.06C20.65 11.5533 21.1333 12.1333 21.52 12.8H19.16C19.04 12.2933 18.89 11.8033 18.71 11.33C18.6987 11.3004 18.6874 11.2709 18.6759 11.2414C18.5036 10.7996 18.305 10.3725 18.08 9.96C18.8267 10.2 19.49 10.5667 20.07 11.06ZM19.16 19.2H21.52C21.1333 19.8667 20.65 20.4467 20.07 20.94C19.49 21.4333 18.8267 21.8 18.08 22.04C18.32 21.6 18.53 21.1433 18.71 20.67C18.89 20.1967 19.04 19.7067 19.16 19.2Z" fill="#22C386"/>
</g>
<defs>
<clipPath id="clip0_4152_179192">
<rect width="16" height="16" fill="white" transform="translate(8 8)"/>
</clipPath>
</defs>
</svg>
