<svg width="32" height="32" viewBox="0 0 32 32" fill="none" xmlns="http://www.w3.org/2000/svg">
<path fill-rule="evenodd" clip-rule="evenodd" d="M13 9.5C13 8.67157 13.6716 8 14.5 8H17.5C18.3284 8 19 8.67157 19 9.5V10H22C23.1046 10 24 10.8954 24 12V15V16H23H18V14H22V12H19H17H15H13H10V14H14V16H9H8V15V12C8 10.8954 8.89543 10 10 10H13V9.5ZM11 20V17H9V20C9 21.1046 9.89543 22 11 22H21C22.1046 22 23 21.1046 23 20V17H21V20H11ZM17 14H15V17C15 17.5523 15.4477 18 16 18C16.5523 18 17 17.5523 17 17V14Z" fill="#509ADE"/>
<rect x="1" y="1" width="30" height="30" rx="5" stroke="#509ADE" stroke-width="2"/>
</svg>
