<svg width="96" height="96" viewBox="0 0 96 96" fill="none" xmlns="http://www.w3.org/2000/svg">
<g clip-path="url(#clip0_4805_67099)">
<path d="M85 24H6C2.68629 24 0 26.6863 0 30V76C0 79.3137 2.68629 82 6 82H85C88.3137 82 91 79.3137 91 76V30C91 26.6863 88.3137 24 85 24Z" fill="#C2F1E1" style="fill:#C2F1E1;fill:color(display-p3 0.7608 0.9451 0.8824);fill-opacity:1;"/>
<path d="M0 11C0 7.68629 2.68629 5 6 5H33C36.3137 5 39 7.68629 39 11V18H85C88.3137 18 91 20.6863 91 24V30C91 26.6863 88.3137 24 85 24H6C2.68629 24 0 26.6863 0 30V11Z" fill="#99E0C8" style="fill:#99E0C8;fill:color(display-p3 0.6000 0.8784 0.7843);fill-opacity:1;"/>
<path d="M91.5857 56.5966L89.8887 54.8996C88.0142 53.0251 84.975 53.0251 83.1004 54.8996L74.1214 63.8787L65.6644 72.3356L64.4236 71.0948L64.4236 71.0948L60.9236 67.5948C59.0491 65.7203 56.0099 65.7203 54.1354 67.5948L52.4383 69.2919C50.5638 71.1664 50.5638 74.2056 52.4383 76.0801L59.3005 82.9422C62.8152 86.4569 68.5137 86.4569 72.0284 82.9422L91.5857 63.3848C93.4602 61.5103 93.4602 58.4711 91.5857 56.5966Z" fill="#C2F1E1" stroke="#39BD86" style="fill:#C2F1E1;fill:color(display-p3 0.7608 0.9451 0.8824);fill-opacity:1;stroke:#39BD86;stroke:color(display-p3 0.2220 0.7400 0.5242);stroke-opacity:1;" stroke-width="6"/>
</g>
<defs>
<clipPath id="clip0_4805_67099">
<rect width="96" height="96" fill="white" style="fill:white;fill-opacity:1;"/>
</clipPath>
</defs>
</svg>
