<svg width="96" height="96" viewBox="0 0 96 96" fill="none" xmlns="http://www.w3.org/2000/svg">
<g clip-path="url(#clip0_4805_67099)">
<path d="M6 18C6 14.6865 8.68629 12 12 12H36C39.3137 12 42 14.6865 42 18V24H84C87.3137 24 90 26.6865 90 30V36C90 32.6865 87.3137 30 84 30H12C8.68629 30 6 32.6865 6 36V18Z" fill="#99E0C8"/>
<rect x="6" y="30" width="84" height="54" rx="6" fill="#C2F1E1"/>
<path d="M64.4236 74.0948L64.4236 74.0948L60.9236 70.5948C59.0491 68.7203 56.0099 68.7203 54.1354 70.5948L52.4383 72.2919C50.5638 74.1664 50.5638 77.2056 52.4383 79.0801L59.3005 85.9422C62.8152 89.4569 68.5137 89.4569 72.0284 85.9422L91.5857 66.3848C93.4602 64.5103 93.4602 61.4711 91.5857 59.5966L89.8887 57.8996C88.0142 56.0251 84.975 56.0251 83.1004 57.8996L74.1214 66.8787L65.6644 75.3356L64.4236 74.0948Z" fill="#C2F1E1" stroke="#39BD86" stroke-width="6"/>
</g>
<defs>
<clipPath id="clip0_4805_67099">
<rect width="96" height="96" fill="white"/>
</clipPath>
</defs>
</svg>
