<svg width="96" height="96" viewBox="0 0 96 96" fill="none" xmlns="http://www.w3.org/2000/svg">
<rect width="96" height="96" rx="4" fill="#FFAC59" fill-opacity="0.2"/>
<g clip-path="url(#clip0_1312_210893)">
<path fill-rule="evenodd" clip-rule="evenodd" d="M58.7557 40.4853L55.9272 37.6569L54.513 39.0711L53.0988 40.4853L55.9272 43.3137L57.3415 41.8995L58.7557 40.4853ZM58.7557 46.1421L61.5841 43.3137C63.1462 41.7516 63.1462 39.219 61.5841 37.6569L58.7557 34.8284C57.1936 33.2663 54.6609 33.2663 53.0988 34.8284L50.2704 37.6569L48.8562 39.0711L47.442 40.4853L36.5997 51.3276C35.3757 52.5516 34.5817 54.1395 34.3369 55.8531L33.677 60.4728C33.4884 61.7928 34.6198 62.9241 35.9397 62.7356L40.5595 62.0756C42.273 61.8308 43.861 61.0368 45.0849 59.8129L55.9272 48.9706L57.3415 47.5563L58.7557 46.1421ZM50.2704 43.3137L53.0988 46.1421L42.2565 56.9844C41.6445 57.5964 40.8506 57.9934 39.9938 58.1158L38.0139 58.3987L38.2967 56.4188C38.4191 55.562 38.8161 54.768 39.4281 54.156L50.2704 43.3137Z" fill="#FFAC59"/>
</g>
<defs>
<clipPath id="clip0_1312_210893">
<rect width="32" height="32" fill="white" transform="translate(32 32)"/>
</clipPath>
</defs>
</svg>
