<svg width="96" height="96" viewBox="0 0 96 96" fill="none" xmlns="http://www.w3.org/2000/svg">
<path d="M3 13C3 10.7908 4.79083 9 7 9H38C40.2092 9 42 10.7908 42 13V23H89C91.2092 23 93 24.7908 93 27V33C93 30.7908 91.2092 29 89 29H7C4.79083 29 3 30.7908 3 33V13Z" fill="#788790"/>
<rect x="3" y="29" width="90" height="57" rx="4" fill="#B2BBC0"/>
<path d="M50.6036 45.3964L56.6464 39.3536C56.8417 39.1583 57.1583 39.1583 57.3536 39.3536L65.6464 47.6464C65.8417 47.8417 65.8417 48.1583 65.6464 48.3536L59.6036 54.3964C59.4083 54.5917 59.0917 54.5917 58.8964 54.3964L50.6036 46.1036C50.4083 45.9083 50.4083 45.5917 50.6036 45.3964Z" fill="#788790"/>
<path d="M56.6464 56.6464L48.3536 48.3536C48.1583 48.1583 47.8417 48.1583 47.6464 48.3536L32.357 63.643C32.2872 63.7128 32.2397 63.8017 32.2203 63.8984L30 75L41.1016 72.7797C41.1983 72.7603 41.2872 72.7128 41.357 72.643L56.6464 57.3536C56.8417 57.1583 56.8417 56.8417 56.6464 56.6464Z" fill="#788790"/>
</svg>
