<svg width="96" height="96" viewBox="0 0 96 96" fill="none" xmlns="http://www.w3.org/2000/svg">
<g clip-path="url(#clip0_4805_67105)">
<path d="M6 18C6 14.6865 8.68629 12 12 12H36C39.3137 12 42 14.6865 42 18V24H84C87.3137 24 90 26.6865 90 30V36C90 32.6865 87.3137 30 84 30H12C8.68629 30 6 32.6865 6 36V18Z" fill="#FFD6B0"/>
<rect x="6" y="30" width="84" height="54" rx="6" fill="#FFE2C2"/>
<g clip-path="url(#clip1_4805_67105)">
<path d="M53.9999 78V87H63L90 60V57L84 51H81L53.9999 78Z" fill="#FFE2C2"/>
<path fill-rule="evenodd" clip-rule="evenodd" d="M88.1335 57.7279L83.8909 53.4853L81.7695 55.6066L79.6482 57.7279L83.8909 61.9706L86.0122 59.8492L88.1335 57.7279ZM88.1335 66.2132L92.3762 61.9706C94.7193 59.6274 94.7193 55.8284 92.3762 53.4853L88.1335 49.2426C85.7904 46.8995 81.9914 46.8995 79.6482 49.2426L75.4056 53.4853L73.2843 55.6066L71.1629 57.7279L54.8995 73.9914C53.0635 75.8273 51.8726 78.2093 51.5054 80.7796L50.5154 87.7092C50.2326 89.6891 51.9296 91.3862 53.9095 91.1034L60.8392 90.1134C63.4095 89.7462 65.7914 88.5553 67.6274 86.7193L83.8909 70.4558L86.0122 68.3345L88.1335 66.2132ZM75.4056 61.9706L79.6482 66.2132L63.3848 82.4767C62.4668 83.3946 61.2758 83.9901 59.9907 84.1737L57.0208 84.598L57.4451 81.6281C57.6287 80.343 58.2241 79.152 59.1421 78.234L75.4056 61.9706Z" fill="#FF9142"/>
</g>
</g>
<defs>
<clipPath id="clip0_4805_67105">
<rect width="96" height="96" fill="white"/>
</clipPath>
<clipPath id="clip1_4805_67105">
<rect width="48" height="48" fill="white" transform="translate(48 45)"/>
</clipPath>
</defs>
</svg>
