<svg width="96" height="96" viewBox="0 0 96 96" fill="none" xmlns="http://www.w3.org/2000/svg">
<g clip-path="url(#clip0_4805_67105)">
<path d="M85 24H6C2.68629 24 0 26.6863 0 30V76C0 79.3137 2.68629 82 6 82H85C88.3137 82 91 79.3137 91 76V30C91 26.6863 88.3137 24 85 24Z" fill="#FFE2C2" style="fill:#FFE2C2;fill:color(display-p3 1.0000 0.8863 0.7608);fill-opacity:1;"/>
<path d="M0 11C0 7.68629 2.68629 5 6 5H33C36.3137 5 39 7.68629 39 11V18H85C88.3137 18 91 20.6863 91 24V30C91 26.6863 88.3137 24 85 24H6C2.68629 24 0 26.6863 0 30V11Z" fill="#FFD6B0" style="fill:#FFD6B0;fill:color(display-p3 1.0000 0.8398 0.6900);fill-opacity:1;"/>
<g clip-path="url(#clip1_4805_67105)">
<path d="M53.9999 75V84H63L90 57V54L84 48H81L53.9999 75Z" fill="#FFE2C2" style="fill:#FFE2C2;fill:color(display-p3 1.0000 0.8863 0.7608);fill-opacity:1;"/>
<path fill-rule="evenodd" clip-rule="evenodd" d="M88.1335 54.7279L83.8909 50.4853L81.7695 52.6066L79.6482 54.7279L83.8909 58.9706L86.0122 56.8492L88.1335 54.7279ZM88.1335 63.2132L92.3762 58.9706C94.7193 56.6274 94.7193 52.8284 92.3762 50.4853L88.1335 46.2426C85.7904 43.8995 81.9914 43.8995 79.6482 46.2426L75.4056 50.4853L73.2843 52.6066L71.1629 54.7279L54.8995 70.9914C53.0635 72.8273 51.8726 75.2093 51.5054 77.7796L50.5154 84.7092C50.2326 86.6891 51.9296 88.3862 53.9095 88.1034L60.8392 87.1134C63.4095 86.7462 65.7914 85.5553 67.6274 83.7193L83.8909 67.4558L86.0122 65.3345L88.1335 63.2132ZM75.4056 58.9706L79.6482 63.2132L63.3848 79.4767C62.4668 80.3946 61.2758 80.9901 59.9907 81.1737L57.0208 81.598L57.4451 78.6281C57.6287 77.343 58.2241 76.152 59.1421 75.234L75.4056 58.9706Z" fill="#FF9142" style="fill:#FF9142;fill:color(display-p3 1.0000 0.5683 0.2600);fill-opacity:1;"/>
</g>
</g>
<defs>
<clipPath id="clip0_4805_67105">
<rect width="96" height="96" fill="white" style="fill:white;fill-opacity:1;"/>
</clipPath>
<clipPath id="clip1_4805_67105">
<rect width="48" height="48" fill="white" style="fill:white;fill-opacity:1;" transform="translate(48 42)"/>
</clipPath>
</defs>
</svg>
