<svg width="96" height="96" viewBox="0 0 96 96" fill="none" xmlns="http://www.w3.org/2000/svg">
<rect y="24" width="91" height="58" rx="6" fill="#B2BBC0"/>
<path d="M0 11C0 7.68629 2.68629 5 6 5H33C36.3137 5 39 7.68629 39 11V18H85C88.3137 18 91 20.6863 91 24V30C91 26.6863 88.3137 24 85 24H6C2.68629 24 0 26.6863 0 30V11Z" fill="#788790"/>
<path d="M49.6036 40.3964L55.6464 34.3536C55.8417 34.1583 56.1583 34.1583 56.3536 34.3536L64.6464 42.6464C64.8417 42.8417 64.8417 43.1583 64.6464 43.3536L58.6036 49.3964C58.4083 49.5917 58.0917 49.5917 57.8964 49.3964L49.6036 41.1036C49.4083 40.9083 49.4083 40.5917 49.6036 40.3964Z" fill="#788790"/>
<path d="M55.6464 51.6464L47.3536 43.3536C47.1583 43.1583 46.8417 43.1583 46.6464 43.3536L31.357 58.643C31.2872 58.7128 31.2397 58.8017 31.2203 58.8984L29 70L40.1016 67.7797C40.1983 67.7603 40.2872 67.7128 40.357 67.643L55.6464 52.3536C55.8417 52.1583 55.8417 51.8417 55.6464 51.6464Z" fill="#788790"/>
</svg>
