<svg width="36" height="36" viewBox="0 0 36 36" fill="none" xmlns="http://www.w3.org/2000/svg">
<rect width="36" height="36" rx="6" fill="currentColor" fill-opacity="0.1"/>
<path fill-rule="evenodd" clip-rule="evenodd" d="M16 11V16H11V18H16V25H18V18H25V16H18V11H16ZM11 13C11 11.8954 11.8954 11 13 11H15V13H13V15H11V13ZM19 13V11H23C24.1046 11 25 11.8954 25 13V15H23V13L19 13ZM23 19H25V23C25 24.1046 24.1046 25 23 25H19V23H23V19ZM15 23V25H13C11.8954 25 11 24.1046 11 23V19H13V23H15Z" fill="currentColor"/>
</svg>
