<svg width="36" height="36" viewBox="0 0 36 36" fill="none" xmlns="http://www.w3.org/2000/svg">
<rect width="36" height="36" rx="6" fill="#F97A0B" fill-opacity="0.1"/>
<g clip-path="url(#clip0_656_26011)">
<mask id="path-2-inside-1_656_26011" fill="white">
<path d="M16 14C19.3137 14 22 16.6863 22 20C22 23.3137 19.3137 26 16 26C15.2387 26 14.5111 25.8569 13.8411 25.598C13.6663 25.5304 13.4778 25.5024 13.2923 25.5289L11.3201 25.8111C10.6601 25.9055 10.0943 25.3399 10.1885 24.6798L10.4702 22.7065C10.4967 22.5211 10.4687 22.3328 10.4012 22.1582C10.1426 21.4884 10 20.761 10 20C10 16.6863 12.6863 14 16 14Z"/>
</mask>
<path d="M10.4702 22.7065L8.49033 22.4238L10.4702 22.7065ZM10.4012 22.1582L12.267 21.4378L10.4012 22.1582ZM13.8411 25.598L13.1201 27.4635L13.8411 25.598ZM13.2923 25.5289L13.5756 27.5087L13.2923 25.5289ZM16 14V16C18.2091 16 20 17.7909 20 20H22H24C24 15.5817 20.4183 12 16 12V14ZM22 20H20C20 22.2091 18.2091 24 16 24V26V28C20.4183 28 24 24.4183 24 20H22ZM16 26V24C15.4913 24 15.0078 23.9047 14.5621 23.7325L13.8411 25.598L13.1201 27.4635C14.0143 27.8091 14.9861 28 16 28V26ZM13.2923 25.5289L13.009 23.5491L11.0368 23.8313L11.3201 25.8111L11.6034 27.7909L13.5756 27.5087L13.2923 25.5289ZM10.1885 24.6798L12.1684 24.9625L12.4502 22.9892L10.4702 22.7065L8.49033 22.4238L8.20857 24.3972L10.1885 24.6798ZM10.4012 22.1582L12.267 21.4378C12.0951 20.9927 12 20.5091 12 20H10H8C8 21.0128 8.19011 21.9842 8.53547 22.8786L10.4012 22.1582ZM10 20H12C12 17.7909 13.7909 16 16 16V14V12C11.5817 12 8 15.5817 8 20H10ZM10.4702 22.7065L12.4502 22.9892C12.5317 22.4184 12.4394 21.8844 12.267 21.4378L10.4012 22.1582L8.53547 22.8786C8.49789 22.7813 8.46177 22.6238 8.49033 22.4238L10.4702 22.7065ZM11.3201 25.8111L11.0368 23.8313C11.6968 23.7368 12.2627 24.3025 12.1684 24.9625L10.1885 24.6798L8.20857 24.3972C7.92585 26.3773 9.62338 28.0743 11.6034 27.7909L11.3201 25.8111ZM13.8411 25.598L14.5621 23.7325C14.1149 23.5596 13.5802 23.4673 13.009 23.5491L13.2923 25.5289L13.5756 27.5087C13.3754 27.5374 13.2177 27.5012 13.1201 27.4635L13.8411 25.598Z" fill="#F97A0B" mask="url(#path-2-inside-1_656_26011)"/>
<path d="M21 10C23.7614 10 26 12.2386 26 15C26 15.617 25.8873 16.2074 25.6826 16.7529C25.6169 16.9281 25.5879 17.1166 25.6143 17.3018L25.8115 18.6797C25.8999 19.2983 25.4082 19.8343 24.8027 19.8213L24.6797 19.8105L23.3037 19.6143C23.1182 19.5877 22.9294 19.6157 22.7539 19.6816C22.2081 19.8867 21.6174 20 21 20C21 19.2765 20.8448 18.5896 20.5684 17.9688C20.7093 17.9891 20.8534 18 21 18C21.2783 18 21.5462 17.9615 21.8008 17.8906L22.0508 17.8096L22.2178 17.752C22.6171 17.6259 23.085 17.5619 23.5869 17.6338L23.6436 17.6416L23.6348 17.585C23.5529 17.0119 23.6473 16.4833 23.8096 16.0508C23.932 15.7245 24 15.3716 24 15C24 13.3431 22.6569 12 21 12C19.3431 12 18 13.3431 18 15C18 15.1462 18.0101 15.29 18.0303 15.4307C17.4097 15.1545 16.723 15 16 15C16 12.2386 18.2386 10 21 10Z" fill="#F97A0B"/>
<rect x="14" y="19" width="4" height="2" rx="1" fill="#F97A0B"/>
</g>
<defs>
<clipPath id="clip0_656_26011">
<rect width="16" height="16" fill="white" transform="translate(10 10)"/>
</clipPath>
</defs>
</svg>
