<svg width="36" height="36" viewBox="0 0 36 36" fill="none" xmlns="http://www.w3.org/2000/svg">
<rect width="36" height="36" rx="6" fill="currentColor" fill-opacity="0.1"/>
<path fill-rule="evenodd" clip-rule="evenodd" d="M11 13C11 11.8954 11.8954 11 13 11H18H20C20.2652 11 20.5196 11.1054 20.7071 11.2929L24.7071 15.2929C24.8946 15.4804 25 15.7348 25 16V18V23C25 24.1046 24.1046 25 23 25H13C11.8954 25 11 24.1046 11 23V13ZM22.5858 16L20 13.4142V16L22.5858 16ZM18 16V13L13 13V23H23V18L18 18V17V16Z" fill="currentColor"/>
</svg>
