<svg width="36" height="36" viewBox="0 0 36 36" fill="none" xmlns="http://www.w3.org/2000/svg">
<rect width="36" height="36" rx="6" fill="currentColor" fill-opacity="0.1"/>
<path fill-rule="evenodd" clip-rule="evenodd" d="M10 14C10 12.3431 11.3431 11 13 11H22C23.6569 11 25 12.3431 25 14V23C25 24.6569 23.6569 26 22 26H13C11.3431 26 10 24.6569 10 23V14ZM13 13C12.4477 13 12 13.4477 12 14V23C12 23.5523 12.4477 24 13 24H22C22.5523 24 23 23.5523 23 23V14C23 13.4477 22.5523 13 22 13H13ZM14 16C14 15.4477 14.4477 15 15 15H16C16.5523 15 17 15.4477 17 16V17C17 17.5523 16.5523 18 16 18H15C14.4477 18 14 17.5523 14 17V16ZM15 19C14.4477 19 14 19.4477 14 20V21C14 21.5523 14.4477 22 15 22H16C16.5523 22 17 21.5523 17 21V20C17 19.4477 16.5523 19 16 19H15ZM18 16C18 15.4477 18.4477 15 19 15H20C20.5523 15 21 15.4477 21 16V17C21 17.5523 20.5523 18 20 18H19C18.4477 18 18 17.5523 18 17V16ZM19 19C18.4477 19 18 19.4477 18 20V21C18 21.5523 18.4477 22 19 22H20C20.5523 22 21 21.5523 21 21V20C21 19.4477 20.5523 19 20 19H19Z" fill="currentColor"/>
</svg>
