<svg width="200" height="147" viewBox="0 0 200 147" fill="none" xmlns="http://www.w3.org/2000/svg">
<g filter="url(#filter0_d_838_73163)">
<path d="M63 31C63 29.8954 63.8954 29 65 29H123L135 41V123C135 124.105 134.105 125 133 125H65C63.8954 125 63 124.105 63 123V31Z" fill="#444444"/>
<path d="M64 31C64 30.4477 64.4477 30 65 30H122.586L134 41.4142V123C134 123.552 133.552 124 133 124H65C64.4477 124 64 123.552 64 123V31Z" stroke="#AAAAAA" stroke-width="2"/>
</g>
<rect x="97" y="90" width="28" height="2" rx="1" fill="#808080"/>
<rect x="73" y="84" width="21" height="2" rx="1" fill="#5FC1E8"/>
<rect x="97" y="96" width="28" height="2" rx="1" fill="#808080"/>
<rect x="97" y="102" width="28" height="2" rx="1" fill="#808080"/>
<rect x="73" y="108" width="52" height="2" rx="1" fill="#808080"/>
<rect x="73" y="114" width="52" height="2" rx="1" fill="#5FC1E8"/>
<path d="M80 98L74 104H94L87 95L83 100L80 98Z" fill="#5FC1E8"/>
<circle cx="78.5" cy="92.5" r="1.5" fill="#5FC1E8"/>
<path d="M123 29L135 41H124C123.448 41 123 40.5523 123 40V29Z" fill="#AAAAAA"/>
<path d="M63.9998 72.4998C61.5396 75.9402 54.6729 80.1907 49.7382 78.5617C46.6351 77.5373 44.9726 75.6155 44.4185 74.6193" stroke="#AAAAAA" stroke-width="2" stroke-linecap="round"/>
<path d="M40.2162 72.4952C40.2168 73.0482 40.55 73.9686 41.3739 74.5004C42.4758 75.2117 43.532 74.8839 44.421 74.6197" stroke="#AAAAAA" stroke-width="2" stroke-linecap="round"/>
<path d="M134 70.5001C135.5 73.5001 141.881 73.857 144 71.4999C147.764 67.3133 146.424 61.8462 145.999 60.9997" stroke="#AAAAAA" stroke-width="2" stroke-linecap="round"/>
<path d="M33.6949 19.7837C33.1608 19.6856 32.9238 19.0537 33.2617 18.6286L36.9451 13.9946C37.293 13.5568 37.9854 13.666 38.1818 14.1896L40.3206 19.8929C40.5169 20.4164 40.067 20.954 39.5171 20.853L33.6949 19.7837Z" fill="#F36700"/>
<path d="M33 97.0261C32.6284 96.63 32.8129 95.9808 33.3372 95.8394L39.0523 94.2971C39.5922 94.1514 40.0845 94.6504 39.9317 95.1882L38.2668 101.047C38.114 101.585 37.4329 101.751 37.0503 101.343L33 97.0261Z" fill="#95C03D"/>
<path d="M162.019 16.3328C161.616 16.6971 160.97 16.501 160.838 15.9743L159.399 10.2324C159.263 9.68999 159.771 9.20667 160.306 9.36915L166.134 11.1391C166.669 11.3015 166.823 11.9856 166.408 12.3607L162.019 16.3328Z" fill="#95C03D"/>
<path d="M176.876 77.1C176.79 77.6362 176.164 77.8878 175.731 77.5598L171.013 73.9849C170.567 73.6472 170.66 72.9525 171.179 72.7441L176.831 70.4736C177.35 70.2651 177.898 70.7024 177.81 71.2546L176.876 77.1Z" fill="#5FC1E8"/>
<path d="M93 55C93 52.7909 90.9853 51 88.5 51C86.0147 51 84 52.7909 84 55" stroke="#AAAAAA" stroke-width="2" stroke-linecap="round"/>
<path d="M114.893 55C114.893 52.7909 112.878 51 110.393 51C107.907 51 105.893 52.7909 105.893 55" stroke="#AAAAAA" stroke-width="2" stroke-linecap="round"/>
<rect x="129.066" y="52.3713" width="9" height="6" rx="3" transform="rotate(-24 129.066 52.3713)" fill="#5EA3BE" stroke="#9ADAF3" stroke-width="2"/>
<rect x="138" y="53.0337" width="5" height="18" rx="2.5" transform="rotate(-24 138 53.0337)" fill="#5EA3BE" stroke="#9ADAF3" stroke-width="2"/>
<path d="M134.512 46.848L152.023 32.6325L161.537 54.0006L139.255 57.5024C137.915 57.713 136.6 56.9982 136.049 55.759L133.662 50.3974C133.11 49.1582 133.458 47.7029 134.512 46.848Z" fill="#5EA3BE" stroke="#9ADAF3" stroke-width="2"/>
<path d="M161.347 41.2828C162.771 44.4795 163.541 47.5549 163.663 49.9211C163.725 51.1078 163.62 52.0616 163.394 52.7473C163.167 53.4326 162.859 53.7456 162.574 53.8723C162.289 53.9991 161.85 54.019 161.19 53.7287C160.528 53.4382 159.75 52.8776 158.909 52.0379C157.232 50.3636 155.462 47.7334 154.039 44.5367C152.616 41.3401 151.846 38.2647 151.723 35.8985C151.662 34.7118 151.766 33.758 151.993 33.0723C152.219 32.3869 152.528 32.074 152.812 31.9472C153.097 31.8205 153.536 31.8006 154.197 32.0909C154.858 32.3814 155.637 32.942 156.478 33.7817C158.154 35.456 159.924 38.0862 161.347 41.2828Z" fill="#5EA3BE" stroke="#9ADAF3" stroke-width="2"/>
<path d="M152.82 41.7961L153.734 41.3894C155.247 40.7155 157.021 41.3962 157.695 42.9098C158.369 44.4234 157.688 46.1968 156.174 46.8707L155.261 47.2774L152.82 41.7961Z" fill="#9ADAF3"/>
<path d="M145.001 59.0891C145.458 58.778 146.501 58.7179 147.001 59.089C148.054 59.8705 148.218 60.3347 148.5 61.218" stroke="#AAAAAA" stroke-width="2" stroke-linecap="round"/>
<path d="M103.78 66H95.2198C94.5888 66 94.133 66.576 94.3698 67.161C94.9676 68.6381 96.4071 71 99.5 71C102.593 71 104.032 68.6381 104.63 67.161C104.867 66.576 104.411 66 103.78 66Z" fill="#AAAAAA"/>
<circle cx="27" cy="50" r="10" fill="#5EA3BE" stroke="#9ADAF3" stroke-width="2"/>
<rect x="23" y="49" width="8" height="2" rx="1" fill="#9ADAF3"/>
<rect x="26" y="54" width="8" height="2" rx="1" transform="rotate(-90 26 54)" fill="#9ADAF3"/>
<defs>
<filter id="filter0_d_838_73163" x="48" y="21" width="102" height="126" filterUnits="userSpaceOnUse" color-interpolation-filters="sRGB">
<feFlood flood-opacity="0" result="BackgroundImageFix"/>
<feColorMatrix in="SourceAlpha" type="matrix" values="0 0 0 0 0 0 0 0 0 0 0 0 0 0 0 0 0 0 127 0" result="hardAlpha"/>
<feOffset dy="7"/>
<feGaussianBlur stdDeviation="7.5"/>
<feColorMatrix type="matrix" values="0 0 0 0 0.333333 0 0 0 0 0.333333 0 0 0 0 0.333333 0 0 0 0.1 0"/>
<feBlend mode="normal" in2="BackgroundImageFix" result="effect1_dropShadow_838_73163"/>
<feBlend mode="normal" in="SourceGraphic" in2="effect1_dropShadow_838_73163" result="shape"/>
</filter>
</defs>
</svg>
