<svg width="200" height="140" viewBox="0 0 200 140" fill="none" xmlns="http://www.w3.org/2000/svg">
<path d="M141.1 104.163H60V48C60 46.2909 61.1381 45 62.7516 45H92.0946C93.5955 45 94.8338 46.2321 94.9839 47.8219V51H139C140.051 51 141 51.8871 141 53L141.1 104.163Z" fill="#333333" stroke="#AAAAAA" stroke-width="2"/>
<path d="M140.622 112H59.545C58.1212 112 56.9347 110.896 56.8556 109.438L54.0005 66C53.8818 64.3838 55.4186 62.9606 57.0006 63H102.001L109.001 57H143.501C146.001 57 147.108 59.2575 146.95 60.8737L143.272 109.477C143.192 110.896 142.006 112 140.622 112Z" fill="#444444" stroke="#AAAAAA" stroke-width="2"/>
<path d="M84 85C84.4091 86.5 86.4545 88 88.5 88C90.5455 88 92.5909 86.5 93 85" stroke="#AAAAAA" stroke-width="2" stroke-linecap="round"/>
<path d="M107 85C107.409 86.5 109.455 88 111.5 88C113.545 88 115.591 86.5 116 85" stroke="#AAAAAA" stroke-width="2" stroke-linecap="round"/>
<circle cx="94.5" cy="97.5" r="2.5" fill="#AAAAAA"/>
<path d="M19.5 19H26.5L21 28H27.5" stroke="#9ADAF3" stroke-width="2" stroke-linecap="round"/>
<path d="M32 28H37.25L33.125 35H38" stroke="#9ADAF3" stroke-width="2" stroke-linecap="round"/>
<path d="M43 34H48.25L44.125 41H49" stroke="#9ADAF3" stroke-width="2" stroke-linecap="round"/>
<path d="M54.8822 84.9141C47.3076 93.7879 45.7174 100.522 50.1367 102.292C54.556 104.061 61.3433 100.42 64.1846 98.3776" stroke="#AAAAAA" stroke-width="2" stroke-linecap="round"/>
<path d="M64.5078 98.1187C65.3667 98.4629 66.7057 98.4266 68.0331 97.5917" stroke="#AAAAAA" stroke-width="2" stroke-linecap="round"/>
<path d="M145.621 85.5038C153.196 94.3776 153.836 100.703 149.417 102.473C144.998 104.242 138.21 100.601 135.369 98.5587" stroke="#AAAAAA" stroke-width="2" stroke-linecap="round"/>
<path d="M135.045 98.2998C134.186 98.6441 132.847 98.6078 131.52 97.7729" stroke="#AAAAAA" stroke-width="2" stroke-linecap="round"/>
</svg>
