<svg width="200" height="140" viewBox="0 0 200 140" fill="none" xmlns="http://www.w3.org/2000/svg">
<path d="M71 51C71 50.4477 71.4477 50 72 50H119.586L129 59.4142V127C129 127.552 128.552 128 128 128H72C71.4477 128 71 127.552 71 127V51Z" fill="white" stroke="#AAAAAA" stroke-width="2"/>
<rect x="100" y="96" width="24" height="2" rx="1" fill="#CCCCCC"/>
<rect x="76" y="90" width="21" height="2" rx="1" fill="#FF6F3D"/>
<rect x="100" y="102" width="24" height="2" rx="1" fill="#CCCCCC"/>
<rect x="100" y="108" width="24" height="2" rx="1" fill="#CCCCCC"/>
<rect x="76" y="114" width="48" height="2" rx="1" fill="#CCCCCC"/>
<rect x="76" y="120" width="48" height="2" rx="1" fill="#FF6F3D"/>
<path d="M83 103L77 110H97L90 101L86 106L83 103Z" fill="#FF6F3D"/>
<circle cx="81" cy="98" r="2" fill="#FF6F3D"/>
<path d="M70.9995 84.0002C70.3663 88.2782 67.2049 94.3878 61.9898 95.229C58.7105 95.7579 56.3186 94.7954 55.3568 94.1518" stroke="#AAAAAA" stroke-width="2" stroke-linecap="round"/>
<path d="M50.5716 94.2007C50.8278 94.7022 51.5548 95.3807 52.5457 95.476C53.8709 95.6036 54.6743 94.8098 55.3558 94.1522" stroke="#AAAAAA" stroke-width="2" stroke-linecap="round"/>
<path d="M129.562 86.5453C133.884 86.6889 140.461 84.6733 142.223 79.6933C143.331 76.5618 142.812 74.0361 142.352 72.9746" stroke="#AAAAAA" stroke-width="2" stroke-linecap="round"/>
<path d="M144.346 69C144.701 69.4369 145.028 70.3759 144.716 71.3209C144.297 72.5849 143.247 72.9995 142.37 73.3576" stroke="#AAAAAA" stroke-width="2" stroke-linecap="round"/>
<path d="M94 71C94 69.3431 92.433 68 90.5 68C88.567 68 87 69.3431 87 71" stroke="#AAAAAA" stroke-width="2" stroke-linecap="round"/>
<path d="M113 71C113 69.3431 111.433 68 109.5 68C107.567 68 106 69.3431 106 71" stroke="#AAAAAA" stroke-width="2" stroke-linecap="round"/>
<path d="M94.6231 81.3238C95.8764 83.5627 97.8191 85 100 85C102.181 85 104.124 83.5627 105.377 81.3238C105.721 80.7095 105.24 80 104.536 80H95.4642C94.7602 80 94.2792 80.7095 94.6231 81.3238Z" fill="#AAAAAA"/>
<path d="M119 50L129 60H120C119.448 60 119 59.5523 119 59V50Z" fill="#AAAAAA"/>
<rect x="12" y="43" width="36" height="36" rx="18" fill="white"/>
<rect x="12" y="43" width="36" height="36" rx="18" stroke="#9ADAF3" stroke-width="2"/>
<path d="M20 74.9001C20 71.0893 23.0893 68 26.9001 68H33.0999C36.9107 68 40 71.0893 40 74.9001C40 75.7695 39.4567 76.5462 38.6401 76.8445L35.4889 77.9954C31.9441 79.29 28.0559 79.29 24.5111 77.9954L21.3599 76.8445C20.5433 76.5462 20 75.7695 20 74.9001Z" fill="#9ADAF3"/>
<circle cx="30" cy="58" r="6" fill="#9ADAF3"/>
<circle cx="46" cy="45" r="10" fill="#FF6F3D"/>
<rect x="45" y="40" width="2" height="10" rx="1" fill="white"/>
<rect x="41" y="46" width="2" height="10" rx="1" transform="rotate(-90 41 46)" fill="white"/>
<path d="M156.624 106.834C156.435 107.353 156.702 107.927 157.221 108.116L169.988 112.763L175.646 110.124L182.344 91.7197C182.533 91.2007 182.266 90.6268 181.747 90.438L165.772 84.6236C165.253 84.4347 164.679 84.7023 164.49 85.2213L156.624 106.834Z" fill="white" stroke="#9ADAF3" stroke-width="2"/>
<path d="M169.096 113.502L176.786 109.916L171.148 107.864L169.096 113.502Z" fill="#9ADAF3"/>
<path d="M69.913 19.1106C69.8325 19.6476 69.2087 19.9052 68.7727 19.5815L64.0203 16.0522C63.5714 15.7188 63.6578 15.0232 64.1747 14.8097L69.8047 12.4849C70.3215 12.2715 70.8736 12.7035 70.7907 13.2565L69.913 19.1106Z" fill="#95C03D"/>
<path d="M187.913 52.1106C187.832 52.6476 187.209 52.9052 186.773 52.5815L182.02 49.0522C181.571 48.7188 181.658 48.0232 182.175 47.8097L187.805 45.4849C188.322 45.2715 188.874 45.7035 188.791 46.2565L187.913 52.1106Z" fill="#5FC1E8"/>
<path d="M99.8962 30.7289C100.088 31.2371 99.6683 31.766 99.1298 31.6956L93.2602 30.9287C92.7057 30.8563 92.4423 30.2067 92.7896 29.7686L96.5738 24.9954C96.9211 24.5573 97.6137 24.6656 97.8107 25.1889L99.8962 30.7289Z" fill="#5FC1E8"/>
<path d="M164.876 17.1002C164.79 17.6365 164.164 17.888 163.731 17.5601L159.013 13.9852C158.567 13.6475 158.66 12.9527 159.179 12.7443L164.831 10.4738C165.35 10.2654 165.898 10.7027 165.81 11.2548L164.876 17.1002Z" fill="#F36700"/>
<path d="M135 41L145 77" stroke="#9ADAF3" stroke-width="2" stroke-linecap="round"/>
<path d="M136 44.1411L151.455 40L150.161 46.5584L154.561 51.5911L139.106 55.7322L136 44.1411Z" fill="#D9F4FF" stroke="#9ADAF3" stroke-width="2" stroke-linejoin="round"/>
</svg>
