<svg width="200" height="147" viewBox="0 0 200 147" fill="none" xmlns="http://www.w3.org/2000/svg">
<g filter="url(#filter0_d_171_51851)">
<path d="M63 31C63 29.8954 63.8954 29 65 29H123L135 41V123C135 124.105 134.105 125 133 125H65C63.8954 125 63 124.105 63 123V31Z" fill="white"/>
<path d="M64 31C64 30.4477 64.4477 30 65 30H122.586L134 41.4142V123C134 123.552 133.552 124 133 124H65C64.4477 124 64 123.552 64 123V31Z" stroke="#AAAAAA" stroke-width="2"/>
</g>
<path d="M123 29L135 41H124C123.448 41 123 40.5523 123 40V29Z" fill="#AAAAAA"/>
<path d="M93.2275 56C93.2275 53.7909 91.2128 52 88.7275 52C86.2423 52 84.2275 53.7909 84.2275 56" stroke="#AAAAAA" stroke-width="2" stroke-linecap="round"/>
<path d="M115.12 56C115.12 53.7909 113.105 52 110.62 52C108.135 52 106.12 53.7909 106.12 56" stroke="#AAAAAA" stroke-width="2" stroke-linecap="round"/>
<path d="M93.0343 66.3417C94.5941 69.1692 97.0867 71 99.8955 71C102.704 71 105.197 69.1692 106.757 66.3417C107.1 65.72 106.619 65 105.909 65H93.882C93.172 65 92.6914 65.72 93.0343 66.3417Z" fill="#AAAAAA"/>
<rect x="72.3955" y="82" width="8" height="8" rx="2" fill="#27ABA3"/>
<rect x="84.3955" y="82" width="42" height="8" rx="2" fill="#E2E2E2"/>
<rect x="84.3955" y="95" width="42" height="8" rx="2" fill="#E2E2E2"/>
<rect x="84.3955" y="108" width="42" height="8" rx="2" fill="#94D5D2"/>
<rect x="72.3955" y="95" width="8" height="8" rx="2" fill="#27ABA3"/>
<path fill-rule="evenodd" clip-rule="evenodd" d="M102.207 110.406L102.33 110.047C102.822 109.093 103.436 107.66 103.314 106.705C103.314 106.228 102.945 105.87 101.838 105.87C101.346 105.87 100.855 106.108 100.486 106.347C100.117 106.586 99.8709 106.825 99.625 107.183C99.5021 107.541 99.3791 107.899 99.3791 108.376C99.3791 108.854 99.625 109.331 99.8709 109.809C99.9939 109.928 100.24 110.286 100.609 110.644C101.346 111.48 102.33 112.674 102.945 113.748C103.436 113.39 103.805 113.032 104.051 112.793C104.42 112.435 104.666 112.196 105.035 112.435C105.527 112.674 105.527 113.39 105.527 114.225C105.527 114.703 105.404 115.18 105.527 115.18C105.527 115.18 105.65 114.822 106.141 113.628C106.141 113.509 106.141 113.27 106.141 113.151C106.264 112.912 106.387 112.674 106.51 112.435C107.125 111.599 107.617 111.599 107.617 112.554C107.986 111.957 108.477 111.241 108.6 110.883C109.092 107.302 109.953 103.721 111.059 103.124C111.674 102.885 112.043 103.005 112.289 103.363C112.904 104.437 110.445 109.689 109.953 110.764L109.707 111.122C109.584 111.838 109.461 112.554 109.461 113.27C109.584 113.151 109.707 113.032 109.953 113.032C110.322 112.793 110.691 112.674 111.059 112.554C111.92 112.196 112.781 111.838 113.396 111.122C113.273 112.077 113.027 112.793 111.551 113.509C111.182 113.628 110.814 113.867 110.568 113.987C110.076 114.225 109.707 114.703 109.461 115.18V115.3L109.338 116.135C109.092 117.806 109.092 119 108.477 119C108.109 119 107.863 118.403 107.863 117.09C107.863 116.493 107.986 115.777 108.355 115.061L108.6 113.39C108.109 113.987 107.617 114.464 107.125 114.345C106.264 115.777 105.65 116.135 105.281 116.016C104.789 115.777 104.666 114.942 104.666 114.106C104.666 113.987 104.666 113.867 104.666 113.748C104.42 113.987 104.051 114.345 103.559 114.583C103.928 115.538 103.805 116.374 103.191 116.971C102.33 117.806 101.1 117.806 100.24 117.568C99.748 117.448 99.3791 117.09 99.1332 116.732C98.8873 116.374 98.7644 115.896 99.0103 115.419C99.2562 114.942 100.117 114.464 101.469 114.225C101.715 114.225 101.838 114.106 102.084 114.106C101.469 113.151 100.609 111.957 99.8709 111.241C99.5021 110.764 99.2562 110.406 99.1332 110.286C98.7644 109.57 98.5185 108.973 98.3955 108.376C98.3955 107.78 98.5185 107.183 98.7644 106.586C99.0103 106.108 99.5021 105.631 99.9939 105.392C100.486 105.034 101.1 104.915 101.838 104.795C103.682 104.676 104.42 105.392 104.543 106.586C104.543 108.018 103.805 110.167 102.207 110.406ZM102.33 116.374C102.576 116.135 102.576 115.658 102.453 115.18C102.207 115.3 101.838 115.3 101.592 115.419C100.486 115.538 99.9939 115.896 99.8709 116.135C99.8709 116.255 99.8709 116.255 99.8709 116.374C99.9939 116.493 100.24 116.613 100.486 116.732C101.1 116.851 101.838 116.851 102.33 116.374ZM110.691 106.944C111.059 105.87 111.428 104.915 111.551 104.318C111.182 104.795 110.936 105.75 110.691 106.944Z" fill="#333333"/>
<path d="M64.0355 77.6777C63.0152 81.7823 58.9869 88.0376 53.7991 88.3405C50.5369 88.5311 48.2835 87.3566 47.4014 86.6345" stroke="#AAAAAA" stroke-width="2" stroke-linecap="round"/>
<path d="M42.7103 86.208C42.9145 86.7219 43.5633 87.4548 44.5251 87.6459C45.8115 87.9013 46.6728 87.2076 47.4019 86.6345" stroke="#AAAAAA" stroke-width="2" stroke-linecap="round"/>
<path d="M134.465 76.8719C138.626 77.6307 145.984 76.5326 148.395 71.9288C149.911 69.0338 149.767 66.4968 149.472 65.3957" stroke="#AAAAAA" stroke-width="2" stroke-linecap="round"/>
<path d="M151.013 60.9445C151.398 61.3421 151.799 62.235 151.577 63.1902C151.281 64.4678 150.294 64.9674 149.472 65.3962" stroke="#AAAAAA" stroke-width="2" stroke-linecap="round"/>
<path d="M166.595 104.168C166.637 104.709 166.087 105.101 165.59 104.884L160.164 102.516C159.652 102.292 159.579 101.595 160.035 101.27L164.996 97.737C165.452 97.4126 166.087 97.7091 166.131 98.2666L166.595 104.168Z" fill="#F36700"/>
<path d="M30.5945 28.1679C30.6371 28.7093 30.0873 29.1008 29.5896 28.8836L24.1643 26.5157C23.6518 26.2921 23.5793 25.5948 24.0347 25.2705L28.9963 21.737C29.4517 21.4126 30.0869 21.7091 30.1307 22.2666L30.5945 28.1679Z" fill="#F36700"/>
<path d="M23.7439 70.834C23.2625 71.0853 22.6869 70.733 22.6917 70.19L22.744 64.2706C22.749 63.7115 23.362 63.3715 23.8389 63.6635L29.0341 66.8434C29.511 67.1353 29.4871 67.8359 28.9914 68.0946L23.7439 70.834Z" fill="#95C03D"/>
<path d="M159.595 17.1679C159.637 17.7093 159.087 18.1008 158.59 17.8836L153.164 15.5157C152.652 15.2921 152.579 14.5948 153.035 14.2705L157.996 10.737C158.452 10.4126 159.087 10.7091 159.131 11.2666L159.595 17.1679Z" fill="#95C03D"/>
<path d="M182.876 41.1002C182.79 41.6365 182.164 41.888 181.731 41.5601L177.013 37.9852C176.567 37.6475 176.66 36.9527 177.179 36.7443L182.831 34.4738C183.35 34.2654 183.898 34.7027 183.81 35.2548L182.876 41.1002Z" fill="#5FC1E8"/>
<defs>
<filter id="filter0_d_171_51851" x="48" y="21" width="102" height="126" filterUnits="userSpaceOnUse" color-interpolation-filters="sRGB">
<feFlood flood-opacity="0" result="BackgroundImageFix"/>
<feColorMatrix in="SourceAlpha" type="matrix" values="0 0 0 0 0 0 0 0 0 0 0 0 0 0 0 0 0 0 127 0" result="hardAlpha"/>
<feOffset dy="7"/>
<feGaussianBlur stdDeviation="7.5"/>
<feColorMatrix type="matrix" values="0 0 0 0 0.333333 0 0 0 0 0.333333 0 0 0 0 0.333333 0 0 0 0.1 0"/>
<feBlend mode="normal" in2="BackgroundImageFix" result="effect1_dropShadow_171_51851"/>
<feBlend mode="normal" in="SourceGraphic" in2="effect1_dropShadow_171_51851" result="shape"/>
</filter>
</defs>
</svg>
