<svg width="151" height="105" viewBox="0 0 151 105" fill="none" xmlns="http://www.w3.org/2000/svg">
<g clip-path="url(#clip0_328_16198)">
<g filter="url(#filter0_d_328_16198)">
<path d="M47 12C47 10.8954 47.8954 10 49 10H93.6667L103 19.75V86C103 87.1046 102.105 88 101 88H49C47.8954 88 47 87.1046 47 86V12Z" fill="#444444"/>
<path d="M48 12C48 11.4477 48.4477 11 49 11H93.2396L102 20.1515V86C102 86.5523 101.552 87 101 87H49C48.4477 87 48 86.5523 48 86V12Z" stroke="#AAAAAA" stroke-width="2"/>
</g>
<path d="M92.9995 10L103 20H93.9995C93.4472 20 92.9995 19.5523 92.9995 19V10Z" fill="#AAAAAA"/>
<path d="M69 31C69 29.3431 67.433 28 65.5 28C63.567 28 62 29.3431 62 31" stroke="#AAAAAA" stroke-width="2" stroke-linecap="round"/>
<path d="M88 31C88 29.3431 86.433 28 84.5 28C82.567 28 81 29.3431 81 31" stroke="#AAAAAA" stroke-width="2" stroke-linecap="round"/>
<path d="M69.6231 39.3238C70.8764 41.5627 72.8191 43 75 43C77.1809 43 79.1236 41.5627 80.3769 39.3238C80.7208 38.7095 80.2398 38 79.5358 38H70.4642C69.7602 38 69.2792 38.7095 69.6231 39.3238Z" fill="#AAAAAA"/>
<rect x="53.9995" y="55" width="6" height="6" rx="2" fill="#27ABA3"/>
<rect x="62.9995" y="55" width="33" height="6" rx="2" fill="#666666"/>
<rect x="62.9995" y="65" width="33" height="6" rx="2" fill="#666666"/>
<rect x="62.9995" y="75" width="33" height="6" rx="2" fill="#27ABA3"/>
<rect x="53.9995" y="65" width="6" height="6" rx="2" fill="#27ABA3"/>
<path fill-rule="evenodd" clip-rule="evenodd" d="M77.3033 76.578L77.3995 76.2978C77.7844 75.5504 78.2655 74.4294 78.1693 73.682C78.1693 73.3083 77.8806 73.0281 77.0146 73.0281C76.6297 73.0281 76.2448 73.2149 75.9561 73.4018C75.6675 73.5886 75.475 73.7754 75.2826 74.0557C75.1863 74.336 75.0901 74.6162 75.0901 74.9899C75.0901 75.3636 75.2826 75.7372 75.475 76.1109C75.5712 76.2043 75.7637 76.4846 76.0523 76.7649C76.6297 77.4188 77.3995 78.353 77.8806 79.1938C78.2655 78.9135 78.5542 78.6333 78.7466 78.4464C79.0353 78.1662 79.2278 77.9793 79.5164 78.1662C79.9013 78.353 79.9013 78.9135 79.9013 79.5674C79.9013 79.9411 79.8051 80.3148 79.9013 80.3148C79.9013 80.3148 79.9975 80.0345 80.3824 79.1003C80.3824 79.0069 80.3824 78.8201 80.3824 78.7267C80.4787 78.5398 80.5749 78.353 80.6711 78.1662C81.1522 77.5122 81.5371 77.5122 81.5371 78.2596C81.8258 77.7925 82.2107 77.232 82.3069 76.9517C82.6918 74.1491 83.3654 71.3465 84.2314 70.8794C84.7125 70.6926 85.0012 70.786 85.1937 71.0663C85.6748 71.907 83.7503 76.0175 83.3654 76.8583L83.173 77.1385C83.0767 77.6991 82.9805 78.2596 82.9805 78.8201C83.0767 78.7267 83.1729 78.6332 83.3654 78.6332C83.6541 78.4464 83.9427 78.353 84.2314 78.2596C84.905 77.9793 85.5786 77.6991 86.0597 77.1385C85.9635 77.8859 85.771 78.4464 84.6163 79.0069C84.3276 79.1003 84.039 79.2872 83.8465 79.3806C83.4616 79.5674 83.173 79.9411 82.9805 80.3148V80.4082L82.8843 81.0622C82.6918 82.37 82.6918 83.3042 82.2107 83.3042C81.922 83.3042 81.7296 82.8371 81.7296 81.8095C81.7296 81.3424 81.8258 80.7819 82.1145 80.2214L82.3069 78.9135C81.922 79.3806 81.5371 79.7543 81.1522 79.6609C80.4787 80.7819 79.9976 81.0622 79.7089 80.9687C79.324 80.7819 79.2278 80.128 79.2278 79.474C79.2278 79.3806 79.2278 79.2872 79.2278 79.1938C79.0353 79.3806 78.7466 79.6609 78.3617 79.8477C78.6504 80.5951 78.5542 81.249 78.0731 81.7161C77.3995 82.37 76.4372 82.37 75.7637 82.1832C75.3788 82.0898 75.0901 81.8095 74.8977 81.5293C74.7052 81.249 74.609 80.8753 74.8014 80.5016C74.9939 80.128 75.6675 79.7543 76.7259 79.5674C76.9184 79.5674 77.0146 79.474 77.207 79.474C76.7259 78.7267 76.0523 77.7925 75.475 77.232C75.1863 76.8583 74.9939 76.578 74.8977 76.4846C74.609 75.9241 74.4165 75.457 74.3203 74.9899C74.3203 74.5228 74.4165 74.0557 74.609 73.5886C74.8014 73.2149 75.1863 72.8412 75.5712 72.6544C75.9561 72.3741 76.4372 72.2807 77.0146 72.1873C78.458 72.0939 79.0353 72.6544 79.1315 73.5886C79.1315 74.7096 78.5542 76.3912 77.3033 76.578ZM77.3995 81.249C77.5919 81.0622 77.5919 80.6885 77.4957 80.3148C77.3033 80.4082 77.0146 80.4082 76.8221 80.5016C75.9561 80.5951 75.5712 80.8753 75.475 81.0622C75.475 81.1556 75.475 81.1556 75.475 81.249C75.5712 81.3424 75.7637 81.4358 75.9561 81.5293C76.4372 81.6227 77.0146 81.6227 77.3995 81.249ZM83.9428 73.8689C84.2314 73.0281 84.5201 72.2807 84.6163 71.8136C84.3276 72.1873 84.1352 72.9347 83.9428 73.8689Z" fill="#CCCCCC"/>
<path d="M48 49.5C47.2015 52.7124 43.2945 57.3337 39.2344 57.5708C36.6813 57.7199 34.9177 56.8007 34.2274 56.2356" stroke="#AAAAAA" stroke-width="2" stroke-linecap="round"/>
<path d="M30.5558 55.9025C30.7157 56.3047 31.2234 56.8783 31.9762 57.0278C32.9829 57.2278 33.657 56.6849 34.2277 56.2364" stroke="#AAAAAA" stroke-width="2" stroke-linecap="round"/>
<path d="M102.534 49.3324C105.791 49.9263 111.55 49.0668 113.436 45.4638C114.622 43.1981 114.51 41.2126 114.279 40.3508" stroke="#AAAAAA" stroke-width="2" stroke-linecap="round"/>
<path d="M115.483 36.8679C115.783 37.179 116.097 37.8778 115.924 38.6254C115.692 39.6253 114.92 40.0163 114.276 40.3519" stroke="#AAAAAA" stroke-width="2" stroke-linecap="round"/>
<path d="M127.923 73.3502C127.966 73.8916 127.416 74.2831 126.918 74.0659L123.164 72.4275C122.652 72.2038 122.579 71.5066 123.035 71.1822L126.468 68.7372C126.923 68.4129 127.558 68.7094 127.602 69.2668L127.923 73.3502Z" fill="#F36700"/>
<path d="M20.9232 13.3502C20.9657 13.8916 20.416 14.2831 19.9183 14.0659L16.1643 12.4275C15.6518 12.2038 15.5793 11.5066 16.0347 11.1822L19.4678 8.73724C19.9233 8.41287 20.5584 8.70939 20.6022 9.26681L20.9232 13.3502Z" fill="#F36700"/>
<path d="M15.9435 47.0103C15.4621 47.2616 14.8865 46.9093 14.8913 46.3663L14.9275 42.2704C14.9325 41.7113 15.5455 41.3714 16.0224 41.6633L19.6172 43.8636C20.0941 44.1555 20.0702 44.8561 19.5745 45.1148L15.9435 47.0103Z" fill="#95C03D"/>
<path d="M122.923 6.35023C122.966 6.89161 122.416 7.28311 121.918 7.06588L118.164 5.42746C117.652 5.2038 117.579 4.50658 118.035 4.18222L121.468 1.73724C121.923 1.41287 122.558 1.70939 122.602 2.26681L122.923 6.35023Z" fill="#95C03D"/>
<path d="M141.422 24.2993C141.336 24.8356 140.71 25.0871 140.277 24.7592L137.012 22.2855C136.567 21.9479 136.66 21.2531 137.179 21.0447L141.09 19.4736C141.609 19.2652 142.156 19.7025 142.068 20.2546L141.422 24.2993Z" fill="#5FC1E8"/>
</g>
<defs>
<filter id="filter0_d_328_16198" x="32" y="2" width="86" height="108" filterUnits="userSpaceOnUse" color-interpolation-filters="sRGB">
<feFlood flood-opacity="0" result="BackgroundImageFix"/>
<feColorMatrix in="SourceAlpha" type="matrix" values="0 0 0 0 0 0 0 0 0 0 0 0 0 0 0 0 0 0 127 0" result="hardAlpha"/>
<feOffset dy="7"/>
<feGaussianBlur stdDeviation="7.5"/>
<feColorMatrix type="matrix" values="0 0 0 0 0.333333 0 0 0 0 0.333333 0 0 0 0 0.333333 0 0 0 0.1 0"/>
<feBlend mode="normal" in2="BackgroundImageFix" result="effect1_dropShadow_328_16198"/>
<feBlend mode="normal" in="SourceGraphic" in2="effect1_dropShadow_328_16198" result="shape"/>
</filter>
<clipPath id="clip0_328_16198">
<rect width="150" height="105" fill="white" transform="translate(0.5)"/>
</clipPath>
</defs>
</svg>
