<svg width="200" height="145" viewBox="0 0 200 145" fill="none" xmlns="http://www.w3.org/2000/svg">
<path d="M141.128 127.625H59.8906V72.1002C59.8906 70.3911 61.1664 69 62.7799 69H92.1229C93.6239 69 94.8621 70.2321 95.0122 71.8219L95.2749 75.0811H139.214C140.265 75.0811 141.128 75.9952 141.128 77.1081V127.625Z" fill="#333333" stroke="#AAAAAA" stroke-width="2"/>
<path d="M140.65 136H59.5727C58.149 136 56.9625 134.896 56.8834 133.438L54.0358 89.8405C53.9172 88.2243 55.2223 86.8447 56.8043 86.8841H101.772L109.287 81.5625L144.249 81.8385C145.87 81.8385 147.136 83.2575 146.977 84.8737L143.299 133.477C143.22 134.896 142.034 136 140.65 136Z" fill="#444444" stroke="#AAAAAA" stroke-width="2"/>
<path d="M93 120C93.3182 121 94.9091 122 96.5 122C98.0909 122 99.6818 121 100 120" stroke="#AAAAAA" stroke-width="2" stroke-linecap="round"/>
<path d="M85.0155 110.037C85.4343 111.294 87.528 112.55 89.6218 112.55C91.7155 112.55 93.8093 111.294 94.228 110.037" stroke="#AAAAAA" stroke-width="2" stroke-linecap="round"/>
<path d="M107.628 110.037C108.047 111.294 110.141 112.55 112.235 112.55C114.328 112.55 116.422 111.294 116.841 110.037" stroke="#AAAAAA" stroke-width="2" stroke-linecap="round"/>
<path d="M145.334 110.882C160.335 120.382 155.916 126.527 149.834 126.882C146.01 127.105 141.334 125.882 138.835 125.382" stroke="#AAAAAA" stroke-width="2" stroke-linecap="round"/>
<path d="M133.701 125.201C133.94 125.803 134.707 126.158 135.834 126.382C137.343 126.681 137.98 126.054 138.834 125.382" stroke="#AAAAAA" stroke-width="2" stroke-linecap="round"/>
<g filter="url(#filter0_d_180_16610)">
<path d="M80 10C80 9.44772 80.4477 9 81 9H111.586L120 17.4142V61C120 61.5523 119.552 62 119 62H81C80.4477 62 80 61.5523 80 61V10Z" fill="#444444" stroke="#AAAAAA" stroke-width="2"/>
<rect width="6" height="6" rx="1" transform="matrix(-1 0 0 1 90 26)" fill="#27ABA3"/>
<rect width="23" height="6" rx="1" transform="matrix(-1 0 0 1 116 26)" fill="#666666"/>
<rect width="23" height="6" rx="1" transform="matrix(-1 0 0 1 116 35)" fill="#666666"/>
<rect width="23" height="6" rx="1" transform="matrix(-1 0 0 1 116 44)" fill="#27ABA3"/>
<rect width="6" height="6" rx="1" transform="matrix(-1 0 0 1 90 35)" fill="#27ABA3"/>
<path d="M112 8L121 17H113C112.448 17 112 16.5523 112 16V8Z" fill="#AAAAAA"/>
<path fill-rule="evenodd" clip-rule="evenodd" d="M102.303 48.4799L102.41 48.1665C102.836 47.331 103.369 46.0776 103.262 45.2421C103.262 44.8243 102.943 44.5109 101.984 44.5109C101.557 44.5109 101.131 44.7198 100.811 44.9287C100.492 45.1376 100.279 45.3465 100.066 45.6598C99.959 45.9732 99.8525 46.2865 99.8525 46.7043C99.8525 47.1221 100.066 47.5399 100.279 47.9577C100.385 48.0621 100.598 48.3754 100.918 48.6888C101.557 49.4199 102.41 50.4644 102.943 51.4044C103.369 51.091 103.689 50.7777 103.902 50.5688C104.221 50.2555 104.434 50.0466 104.754 50.2555C105.18 50.4644 105.18 51.091 105.18 51.8222C105.18 52.2399 105.074 52.6577 105.18 52.6577C105.18 52.6577 105.287 52.3444 105.713 51.2999C105.713 51.1955 105.713 50.9866 105.713 50.8821C105.82 50.6733 105.926 50.4644 106.033 50.2555C106.566 49.5243 106.992 49.5243 106.992 50.3599C107.311 49.8377 107.738 49.211 107.844 48.8977C108.27 45.7643 109.016 42.6309 109.975 42.1087C110.508 41.8998 110.828 42.0042 111.041 42.3176C111.574 43.2576 109.443 47.8532 109.016 48.7932L108.803 49.1066C108.697 49.7332 108.59 50.3599 108.59 50.9866C108.697 50.8821 108.803 50.7777 109.016 50.7777C109.336 50.5688 109.656 50.4644 109.975 50.3599C110.721 50.0466 111.467 49.7332 112 49.1066C111.893 49.9421 111.68 50.5688 110.402 51.1955C110.082 51.2999 109.762 51.5088 109.549 51.6133C109.123 51.8222 108.803 52.2399 108.59 52.6577V52.7622L108.484 53.4933C108.27 54.9555 108.27 56 107.738 56C107.418 56 107.205 55.4778 107.205 54.3289C107.205 53.8066 107.311 53.18 107.631 52.5533L107.844 51.091C107.418 51.6133 106.992 52.031 106.566 51.9266C105.82 53.18 105.287 53.4933 104.967 53.3889C104.541 53.18 104.434 52.4488 104.434 51.7177C104.434 51.6133 104.434 51.5088 104.434 51.4044C104.221 51.6133 103.902 51.9266 103.475 52.1355C103.795 52.9711 103.689 53.7022 103.156 54.2244C102.41 54.9555 101.344 54.9555 100.598 54.7467C100.172 54.6422 99.8525 54.3289 99.6393 54.0155C99.4262 53.7022 99.3197 53.2844 99.5328 52.8666C99.7459 52.4488 100.492 52.0311 101.664 51.8222C101.877 51.8222 101.984 51.7177 102.197 51.7177C101.664 50.8821 100.918 49.8377 100.279 49.211C99.959 48.7932 99.7459 48.4799 99.6393 48.3754C99.3197 47.7488 99.1066 47.2265 99 46.7043C99 46.1821 99.1066 45.6598 99.3197 45.1376C99.5328 44.7198 99.959 44.302 100.385 44.0932C100.811 43.7798 101.344 43.6754 101.984 43.5709C103.582 43.4665 104.221 44.0932 104.328 45.1376C104.328 46.391 103.689 48.271 102.303 48.4799ZM102.41 53.7022C102.623 53.4933 102.623 53.0755 102.516 52.6577C102.303 52.7622 101.984 52.7622 101.77 52.8666C100.811 52.9711 100.385 53.2844 100.279 53.4933C100.279 53.5977 100.279 53.5977 100.279 53.7022C100.385 53.8066 100.598 53.9111 100.811 54.0155C101.344 54.12 101.984 54.12 102.41 53.7022ZM109.656 45.451C109.975 44.5109 110.295 43.6754 110.402 43.1531C110.082 43.5709 109.869 44.4065 109.656 45.451Z" fill="white"/>
</g>
<ellipse cx="44" cy="68" rx="6" ry="5" fill="#5EA3BE" stroke="#9ADAF3" stroke-width="2"/>
<ellipse cx="55" cy="45" rx="14" ry="10" fill="#5EA3BE" stroke="#9ADAF3" stroke-width="2"/>
<path d="M49.7622 95.4683C45.3956 97.215 41.4662 102.455 44.959 105.948C47.3244 108.314 52.3404 109.366 54.5655 109.441" stroke="#AAAAAA" stroke-width="2" stroke-linecap="round"/>
<path d="M50.5639 95.2451C50.2786 94.663 50.5313 93.8572 51.1232 92.8718C51.9149 91.5537 52.8079 91.5037 53.8798 91.3222" stroke="#AAAAAA" stroke-width="2" stroke-linecap="round"/>
<defs>
<filter id="filter0_d_180_16610" x="64" y="0" width="72" height="85" filterUnits="userSpaceOnUse" color-interpolation-filters="sRGB">
<feFlood flood-opacity="0" result="BackgroundImageFix"/>
<feColorMatrix in="SourceAlpha" type="matrix" values="0 0 0 0 0 0 0 0 0 0 0 0 0 0 0 0 0 0 127 0" result="hardAlpha"/>
<feOffset dy="7"/>
<feGaussianBlur stdDeviation="7.5"/>
<feColorMatrix type="matrix" values="0 0 0 0 0.333333 0 0 0 0 0.333333 0 0 0 0 0.333333 0 0 0 0.1 0"/>
<feBlend mode="normal" in2="BackgroundImageFix" result="effect1_dropShadow_180_16610"/>
<feBlend mode="normal" in="SourceGraphic" in2="effect1_dropShadow_180_16610" result="shape"/>
</filter>
</defs>
</svg>
