<svg width="200" height="140" viewBox="0 0 200 140" fill="none" xmlns="http://www.w3.org/2000/svg">
<g clip-path="url(#clip0_1637_71017)">
<path d="M141 123H60V67.12C60 65.4 61.2721 64 62.8808 64H92.1381C93.6346 64 94.8693 65.24 95.0189 66.84V70.12H139.092C140.139 70.12 141 71.04 141 72.16V123Z" fill="#333333" stroke="#AAAAAA" stroke-width="2"/>
<path d="M140.656 131H59.579C58.1552 131 56.9688 129.896 56.8897 128.438L54.0065 85C53.8878 83.3838 55.4241 81.9606 57.0061 82H101.006L109.006 76H143.506C146.006 76 147.142 78.2575 146.984 79.8737L143.306 128.477C143.227 129.896 142.04 131 140.656 131Z" fill="#444444" stroke="#AAAAAA" stroke-width="2"/>
<path d="M92 116C92.3182 117 93.9091 118 95.5 118C97.0909 118 98.6818 117 99 116" stroke="#AAAAAA" stroke-width="2" stroke-linecap="round"/>
<path d="M85.016 105.037C85.4348 106.294 87.5285 107.55 89.6223 107.55C91.716 107.55 93.8098 106.294 94.2285 105.037" stroke="#AAAAAA" stroke-width="2" stroke-linecap="round"/>
<path d="M107.629 105.037C108.048 106.294 110.142 107.55 112.236 107.55C114.329 107.55 116.423 106.294 116.842 105.037" stroke="#AAAAAA" stroke-width="2" stroke-linecap="round"/>
<ellipse cx="55" cy="40" rx="14" ry="10" fill="#5EA3BE" stroke="#9ADAF3" stroke-width="2"/>
<ellipse cx="44" cy="63" rx="6" ry="5" fill="#5EA3BE" stroke="#9ADAF3" stroke-width="2"/>
<g filter="url(#filter0_d_1637_71017)">
<path d="M80 5C80 4.44772 80.4477 4 81 4H111.586L120 12.4142V56C120 56.5523 119.552 57 119 57H81C80.4477 57 80 56.5523 80 56V5Z" fill="#444444" stroke="#AAAAAA" stroke-width="2"/>
<path d="M112 3L121 12H113C112.448 12 112 11.5523 112 11V3Z" fill="#AAAAAA"/>
</g>
<path d="M112.637 35.4399L112.484 36.8134L113.876 36.4252L114 37.3658L112.731 37.4553L113.563 38.5638L112.716 39.0154L112.133 37.8472L111.622 39.0079L110.741 38.5638L111.566 37.4553L110.305 37.3583L110.45 36.4252L111.813 36.8134L111.659 35.4399H112.637Z" fill="#AAAAAA"/>
<path d="M106.559 35.4399L106.406 36.8134L107.798 36.4252L107.921 37.3658L106.653 37.4553L107.485 38.5638L106.638 39.0154L106.055 37.8472L105.544 39.0079L104.663 38.5638L105.488 37.4553L104.227 37.3583L104.372 36.4252L105.734 36.8134L105.581 35.4399H106.559Z" fill="#AAAAAA"/>
<path d="M100.483 35.4399L100.33 36.8134L101.722 36.4252L101.845 37.3658L100.576 37.4553L101.409 38.5638L100.561 39.0154L99.9792 37.8472L99.4679 39.0079L98.5871 38.5638L99.4119 37.4553L98.1504 37.3583L98.2959 36.4252L99.6582 36.8134L99.5052 35.4399H100.483Z" fill="#AAAAAA"/>
<path d="M94.4088 35.4399L94.2558 36.8134L95.6479 36.4252L95.7711 37.3658L94.5021 37.4553L95.3344 38.5638L94.4872 39.0154L93.905 37.8472L93.3936 39.0079L92.5128 38.5638L93.3377 37.4553L92.0762 37.3583L92.2217 36.4252L93.584 36.8134L93.431 35.4399H94.4088Z" fill="#AAAAAA"/>
<path d="M88.3326 35.4399L88.1796 36.8134L89.5717 36.4252L89.6949 37.3658L88.4259 37.4553L89.2582 38.5638L88.411 39.0154L87.8288 37.8472L87.3175 39.0079L86.4367 38.5638L87.2615 37.4553L86 37.3583L86.1456 36.4252L87.5078 36.8134L87.3548 35.4399H88.3326Z" fill="#AAAAAA"/>
<path d="M112.637 29L112.484 30.3735L113.876 29.9853L114 30.9258L112.731 31.0154L113.563 32.1239L112.716 32.5755L112.133 31.4073L111.622 32.568L110.741 32.1239L111.566 31.0154L110.305 30.9184L110.45 29.9853L111.813 30.3735L111.659 29H112.637Z" fill="#AAAAAA"/>
<path d="M106.559 29L106.406 30.3735L107.798 29.9853L107.921 30.9258L106.653 31.0154L107.485 32.1239L106.638 32.5755L106.055 31.4073L105.544 32.568L104.663 32.1239L105.488 31.0154L104.227 30.9184L104.372 29.9853L105.734 30.3735L105.581 29H106.559Z" fill="#AAAAAA"/>
<path d="M100.483 29L100.33 30.3735L101.722 29.9853L101.845 30.9258L100.576 31.0154L101.409 32.1239L100.561 32.5755L99.9792 31.4073L99.4679 32.568L98.5871 32.1239L99.4119 31.0154L98.1504 30.9184L98.2959 29.9853L99.6582 30.3735L99.5052 29H100.483Z" fill="#AAAAAA"/>
<path d="M94.4088 29L94.2558 30.3735L95.6479 29.9853L95.7711 30.9258L94.5021 31.0154L95.3344 32.1239L94.4872 32.5755L93.905 31.4073L93.3936 32.568L92.5128 32.1239L93.3377 31.0154L92.0762 30.9184L92.2217 29.9853L93.584 30.3735L93.431 29H94.4088Z" fill="#AAAAAA"/>
<path d="M88.3326 29L88.1796 30.3735L89.5717 29.9853L89.6949 30.9258L88.4259 31.0154L89.2582 32.1239L88.411 32.5755L87.8288 31.4073L87.3175 32.568L86.4367 32.1239L87.2615 31.0154L86 30.9184L86.1456 29.9853L87.5078 30.3735L87.3548 29H88.3326Z" fill="#AAAAAA"/>
<path d="M112.637 41.8838L112.484 43.2572L113.876 42.8691L114 43.8096L112.731 43.8992L113.563 45.0077L112.716 45.4593L112.133 44.2911L111.622 45.4518L110.741 45.0077L111.566 43.8992L110.305 43.8022L110.45 42.8691L111.813 43.2572L111.659 41.8838H112.637Z" fill="#AAAAAA"/>
<path d="M106.559 41.8838L106.406 43.2572L107.798 42.8691L107.921 43.8096L106.653 43.8992L107.485 45.0077L106.638 45.4593L106.055 44.2911L105.544 45.4518L104.663 45.0077L105.488 43.8992L104.227 43.8022L104.372 42.8691L105.734 43.2572L105.581 41.8838H106.559Z" fill="#AAAAAA"/>
<path d="M100.483 41.8838L100.33 43.2572L101.722 42.8691L101.845 43.8096L100.576 43.8992L101.409 45.0077L100.561 45.4593L99.9792 44.2911L99.4679 45.4518L98.5871 45.0077L99.4119 43.8992L98.1504 43.8022L98.2959 42.8691L99.6582 43.2572L99.5052 41.8838H100.483Z" fill="#AAAAAA"/>
<path d="M94.4088 41.8838L94.2558 43.2572L95.6479 42.8691L95.7711 43.8096L94.5021 43.8992L95.3344 45.0077L94.4872 45.4593L93.905 44.2911L93.3936 45.4518L92.5128 45.0077L93.3377 43.8992L92.0762 43.8022L92.2217 42.8691L93.584 43.2572L93.431 41.8838H94.4088Z" fill="#AAAAAA"/>
<path d="M88.3326 41.8838L88.1796 43.2572L89.5717 42.8691L89.6949 43.8096L88.4259 43.8992L89.2582 45.0077L88.411 45.4593L87.8288 44.2911L87.3175 45.4518L86.4367 45.0077L87.2615 43.8992L86 43.8022L86.1456 42.8691L87.5078 43.2572L87.3548 41.8838H88.3326Z" fill="#AAAAAA"/>
<path d="M112.637 48.3286L112.484 49.7021L113.876 49.3139L114 50.2544L112.731 50.344L113.563 51.4525L112.716 51.9041L112.133 50.7359L111.622 51.8966L110.741 51.4525L111.566 50.344L110.305 50.247L110.45 49.3139L111.813 49.7021L111.659 48.3286H112.637Z" fill="#AAAAAA"/>
<path d="M106.559 48.3286L106.406 49.7021L107.798 49.3139L107.921 50.2544L106.653 50.344L107.485 51.4525L106.638 51.9041L106.055 50.7359L105.544 51.8966L104.663 51.4525L105.488 50.344L104.227 50.247L104.372 49.3139L105.734 49.7021L105.581 48.3286H106.559Z" fill="#AAAAAA"/>
<path d="M100.483 48.3286L100.33 49.7021L101.722 49.3139L101.845 50.2544L100.576 50.344L101.409 51.4525L100.561 51.9041L99.9792 50.7359L99.4679 51.8966L98.5871 51.4525L99.4119 50.344L98.1504 50.247L98.2959 49.3139L99.6582 49.7021L99.5052 48.3286H100.483Z" fill="#AAAAAA"/>
<path d="M94.4088 48.3286L94.2558 49.7021L95.6479 49.3139L95.7711 50.2544L94.5021 50.344L95.3344 51.4525L94.4872 51.9041L93.905 50.7359L93.3936 51.8966L92.5128 51.4525L93.3377 50.344L92.0762 50.247L92.2217 49.3139L93.584 49.7021L93.431 48.3286H94.4088Z" fill="#AAAAAA"/>
<path d="M88.3326 48.3286L88.1796 49.7021L89.5717 49.3139L89.6949 50.2544L88.4259 50.344L89.2582 51.4525L88.411 51.9041L87.8288 50.7359L87.3175 51.8966L86.4367 51.4525L87.2615 50.344L86 50.247L86.1456 49.3139L87.5078 49.7021L87.3548 48.3286H88.3326Z" fill="#AAAAAA"/>
<path d="M145.332 105.881C160.332 115.381 155.914 121.526 149.832 121.881C146.008 122.105 141.332 120.881 138.832 120.381" stroke="#AAAAAA" stroke-width="2" stroke-linecap="round"/>
<path d="M133.698 120.2C133.937 120.803 134.704 121.157 135.831 121.381C137.339 121.681 137.976 121.053 138.831 120.381" stroke="#AAAAAA" stroke-width="2" stroke-linecap="round"/>
<path d="M48.7633 88.4684C44.3968 90.2151 41.0082 96.0068 44.501 99.5C46.8664 101.866 52.7759 102.925 55.001 103" stroke="#AAAAAA" stroke-width="2" stroke-linecap="round"/>
<path d="M49.5644 88.2451C49.2791 87.663 49.5318 86.8572 50.1237 85.8718C50.9154 84.5537 51.8084 84.5037 52.8803 84.3222" stroke="#AAAAAA" stroke-width="2" stroke-linecap="round"/>
</g>
<defs>
<filter id="filter0_d_1637_71017" x="64" y="-5" width="72" height="85" filterUnits="userSpaceOnUse" color-interpolation-filters="sRGB">
<feFlood flood-opacity="0" result="BackgroundImageFix"/>
<feColorMatrix in="SourceAlpha" type="matrix" values="0 0 0 0 0 0 0 0 0 0 0 0 0 0 0 0 0 0 127 0" result="hardAlpha"/>
<feOffset dy="7"/>
<feGaussianBlur stdDeviation="7.5"/>
<feColorMatrix type="matrix" values="0 0 0 0 0.333333 0 0 0 0 0.333333 0 0 0 0 0.333333 0 0 0 0.1 0"/>
<feBlend mode="normal" in2="BackgroundImageFix" result="effect1_dropShadow_1637_71017"/>
<feBlend mode="normal" in="SourceGraphic" in2="effect1_dropShadow_1637_71017" result="shape"/>
</filter>
<clipPath id="clip0_1637_71017">
<rect width="200" height="140" fill="white"/>
</clipPath>
</defs>
</svg>
