<svg width="150" height="105" viewBox="0 0 150 105" fill="none" xmlns="http://www.w3.org/2000/svg">
<path d="M111.5 71H41.5V22.5C41.5 20.9841 42.5 19 45 19H69.0725C70.372 19 71.444 20.0929 71.574 21.503V23.9787H109.596C110.505 23.9787 111.5 25.2047 111.5 26.1918V71Z" fill="#EFEFEF" stroke="#AAAAAA" stroke-width="2"/>
<path d="M111.475 79H40.8296C39.589 79 38.5552 78.0088 38.4862 76.699L36.005 37.5454C35.9017 36.0939 37.4053 34.9646 38.7838 35H78.1124L84.3474 30H114.563C115.976 30 117.127 31.6333 116.989 33.0848L113.784 76.7343C113.715 78.0088 112.681 79 111.475 79Z" fill="#F9F9F9" stroke="#AAAAAA" stroke-width="2"/>
<path d="M116.147 52.814C118.873 54.8677 123.903 56.7424 127.509 53.322C129.776 51.1711 130.691 48.8052 130.918 47.7021" stroke="#AAAAAA" stroke-width="2" stroke-linecap="round"/>
<path d="M134.009 45.1257C134.153 45.5168 134.156 46.2541 133.712 46.844C133.117 47.6331 132.285 47.6758 131.588 47.7198" stroke="#AAAAAA" stroke-width="2" stroke-linecap="round"/>
<path d="M52.209 58L55.0661 62.9487L36.3317 73.765C34.9651 74.554 33.2177 74.0858 32.4288 72.7193C31.6398 71.3527 32.108 69.6053 33.4746 68.8163L52.209 58Z" fill="#E2E2E2" stroke="#AAAAAA" stroke-width="2"/>
<circle cx="82.5" cy="53.5" r="1.5" fill="#AAAAAA"/>
<circle cx="63.5" cy="55.5" r="13.5" fill="white" stroke="#AAAAAA" stroke-width="2"/>
<circle cx="63.5" cy="55.5" r="9.5" fill="#F5F5F5" stroke="#AAAAAA" stroke-width="2"/>
<circle cx="67.5" cy="54.5" r="2.5" fill="#AAAAAA"/>
<path d="M36.7 52C31.3572 55.0544 26.5 59.0093 26.5 62.5C26.5 66.3532 30.0427 67.4136 33.252 67.5087C33.8921 67.5277 34.3955 68.11 34.4889 68.7435C34.5627 69.2449 34.7459 69.7638 35.1286 70.118C35.8829 70.8161 36.4905 70.6998 36.7 70.5543" stroke="#AAAAAA" stroke-width="2" stroke-linecap="round"/>
<circle cx="106.5" cy="77.5" r="15.5" fill="#95C03D" stroke="white" stroke-width="2"/>
<path d="M108.784 76.2404C108.784 76.9612 108.597 78.0833 108.224 79.6068C107.851 81.114 107.664 82.0969 107.664 82.5556C107.664 83.0142 107.746 83.2436 107.91 83.2436C108.075 83.2436 108.373 83.1617 108.806 82.9979L109.007 82.8996L109.41 84.1282C108.903 84.5541 108.269 84.9309 107.507 85.2585C106.761 85.5862 106.082 85.75 105.47 85.75C104.858 85.75 104.373 85.5616 104.015 85.1848C103.672 84.8081 103.5 84.2675 103.5 83.563C103.5 82.8422 103.679 81.7528 104.037 80.2949C104.41 78.8205 104.597 77.8868 104.597 77.4936C104.597 76.8875 104.403 76.3141 104.015 75.7735L103.836 75.5032L103.903 75.0855C104.679 74.8234 106.187 74.6923 108.425 74.6923C108.664 74.9872 108.784 75.5032 108.784 76.2404ZM107.104 72.7756C106.433 72.7756 105.903 72.5791 105.515 72.1859C105.142 71.7927 104.955 71.2931 104.955 70.687C104.955 70.0645 105.187 69.5484 105.649 69.1389C106.127 68.713 106.701 68.5 107.373 68.5C108.045 68.5 108.567 68.672 108.94 69.016C109.313 69.36 109.5 69.8433 109.5 70.4658C109.5 71.0883 109.269 71.6289 108.806 72.0876C108.358 72.5463 107.791 72.7756 107.104 72.7756Z" fill="white"/>
<path d="M83.9879 63H79C79 64.6667 79.0831 68 81.0783 68C83.0734 68 84.1264 64.6667 83.9879 63Z" stroke="#AAAAAA" stroke-width="2" stroke-linejoin="round"/>
</svg>
