<svg width="200" height="140" viewBox="0 0 200 140" fill="none" xmlns="http://www.w3.org/2000/svg">
<g filter="url(#filter0_d_2363_70006)">
<path d="M64 22C64 20.8954 64.8954 20 66 20H124L136 32V114C136 115.105 135.105 116 134 116H66C64.8954 116 64 115.105 64 114V22Z" fill="#444444"/>
<path d="M66 21H123.586L135 32.4141V114C135 114.552 134.552 115 134 115H66C65.4477 115 65 114.552 65 114V22C65 21.4477 65.4477 21 66 21Z" stroke="#AAAAAA" stroke-width="2"/>
</g>
<rect x="98" y="80" width="28" height="2" rx="1" fill="#808080"/>
<rect x="74" y="74" width="21" height="2" rx="1" fill="#FF6F3D"/>
<rect x="98" y="86" width="28" height="2" rx="1" fill="#808080"/>
<rect x="98" y="92" width="28" height="2" rx="1" fill="#808080"/>
<rect x="74" y="98" width="52" height="2" rx="1" fill="#808080"/>
<rect x="74" y="104" width="52" height="2" rx="1" fill="#FF6F3D"/>
<path d="M81 88L75 94H95L88 85L84 90L81 88Z" fill="#FF6F3D"/>
<circle cx="79.5" cy="82.5" r="1.5" fill="#FF6F3D"/>
<path d="M65 65.4995C62.5398 68.9399 56.6718 73.1904 51.7371 71.5614C48.634 70.5371 46.9715 68.6153 46.4174 67.619" stroke="#AAAAAA" stroke-width="2" stroke-linecap="round"/>
<path d="M42.2142 65.4952C42.2148 66.0482 42.5481 66.9686 43.3719 67.5004C44.4738 68.2117 45.5301 67.8839 46.419 67.6197" stroke="#AAAAAA" stroke-width="2" stroke-linecap="round"/>
<path d="M135.188 65.4995C137.648 68.9399 143.516 73.1904 148.45 71.5614C151.554 70.5371 153.216 68.6153 153.77 67.619" stroke="#AAAAAA" stroke-width="2" stroke-linecap="round"/>
<path d="M157.973 65.4952C157.973 66.0482 157.639 66.9686 156.816 67.5004C155.714 68.2117 154.657 67.8839 153.768 67.6197" stroke="#AAAAAA" stroke-width="2" stroke-linecap="round"/>
<path d="M93.9316 48C93.9316 45.7909 91.9169 44 89.4316 44C86.9464 44 84.9316 45.7909 84.9316 48" stroke="#AAAAAA" stroke-width="2" stroke-linecap="round"/>
<path d="M115.893 48C115.893 45.7909 113.878 44 111.393 44C108.907 44 106.893 45.7909 106.893 48" stroke="#AAAAAA" stroke-width="2" stroke-linecap="round"/>
<path d="M124 20L136 32H125C124.448 32 124 31.5523 124 31V20Z" fill="#AAAAAA"/>
<circle cx="104" cy="60" r="2" fill="#AAAAAA"/>
<path d="M19.5 19H26.5L21 28H27.5" stroke="#9ADAF3" stroke-width="2" stroke-linecap="round"/>
<path d="M32 28H37.25L33.125 35H38" stroke="#9ADAF3" stroke-width="2" stroke-linecap="round"/>
<path d="M43 34H48.25L44.125 41H49" stroke="#9ADAF3" stroke-width="2" stroke-linecap="round"/>
<path d="M34.1429 106.506L32.7287 107.921C30.3855 110.264 26.5865 110.264 24.2434 107.921V107.921C21.9002 105.577 21.9002 101.778 24.2434 99.4353L27.0718 96.6069C29.415 94.2638 33.2139 94.2638 35.5571 96.6069V96.6069" stroke="#95C03D" stroke-width="2" stroke-linecap="round"/>
<path d="M30.6067 101.556V101.556C32.9498 103.899 36.7488 103.899 39.0919 101.556L41.9204 98.7279C44.2635 96.3848 44.2635 92.5858 41.9204 90.2426V90.2426C39.5772 87.8995 35.7782 87.8995 33.4351 90.2426L32.0209 91.6569" stroke="#95C03D" stroke-width="2" stroke-linecap="round"/>
<rect x="157" y="21" width="26" height="26" rx="13" fill="#444444"/>
<rect x="157" y="21" width="26" height="26" rx="13" stroke="#5FC1E8" stroke-width="2"/>
<circle cx="170" cy="31" r="5" fill="#5FC1E8"/>
<path d="M162 43.8107C162 41.1538 164.154 39 166.811 39H173.189C175.846 39 178 41.1538 178 43.8107C178 44.5396 177.588 45.2059 176.936 45.5319L176.111 45.9443C172.264 47.8679 167.736 47.8679 163.889 45.9443L163.064 45.5319C162.412 45.2059 162 44.5396 162 43.8107Z" fill="#5FC1E8"/>
<defs>
<filter id="filter0_d_2363_70006" x="49" y="12" width="102" height="126" filterUnits="userSpaceOnUse" color-interpolation-filters="sRGB">
<feFlood flood-opacity="0" result="BackgroundImageFix"/>
<feColorMatrix in="SourceAlpha" type="matrix" values="0 0 0 0 0 0 0 0 0 0 0 0 0 0 0 0 0 0 127 0" result="hardAlpha"/>
<feOffset dy="7"/>
<feGaussianBlur stdDeviation="7.5"/>
<feColorMatrix type="matrix" values="0 0 0 0 0.333333 0 0 0 0 0.333333 0 0 0 0 0.333333 0 0 0 0.1 0"/>
<feBlend mode="normal" in2="BackgroundImageFix" result="effect1_dropShadow_2363_70006"/>
<feBlend mode="normal" in="SourceGraphic" in2="effect1_dropShadow_2363_70006" result="shape"/>
</filter>
</defs>
</svg>
