<svg width="150" height="105" viewBox="0 0 150 105" fill="none" xmlns="http://www.w3.org/2000/svg">
<g filter="url(#filter0_d_2016_88970)">
<path d="M44.5 13C44.5 11.8954 45.3954 11 46.5 11H92.3246L102.5 21V84C102.5 85.1046 101.605 86 100.5 86H46.5C45.3954 86 44.5 85.1046 44.5 84V13Z" fill="#444444"/>
<path d="M46.5 12H91.916L101.5 21.4189V84C101.5 84.5523 101.052 85 100.5 85H46.5C45.9477 85 45.5 84.5523 45.5 84V13C45.5 12.4477 45.9477 12 46.5 12Z" stroke="#AAAAAA" stroke-width="2"/>
</g>
<path d="M53.7578 45L57.4309 49.3774L40.8593 63.2826C39.6505 64.2969 37.8484 64.1392 36.8341 62.9304C35.8198 61.7217 35.9775 59.9195 37.1862 58.9052L53.7578 45Z" fill="#808080" stroke="#AAAAAA" stroke-width="2"/>
<circle cx="83" cy="33.5" r="1.5" fill="#AAAAAA"/>
<circle cx="64.5" cy="37.5" r="13.5" fill="#444444" stroke="#AAAAAA" stroke-width="2"/>
<circle cx="64.5" cy="37.5" r="9.5" fill="#666666" stroke="#AAAAAA" stroke-width="2"/>
<circle cx="66" cy="34.5" r="2.5" fill="#AAAAAA"/>
<path d="M45 42C39.6572 45.0544 34 48.9813 34 52.472C34 56.3231 37.4275 56.8885 40.6092 56.8682C41.2496 56.8641 41.7526 57.4453 41.846 58.0789C41.9199 58.5802 42.103 59.0991 42.4857 59.4533C43.24 60.1515 43.8476 60.0351 44.0571 59.8897" stroke="#AAAAAA" stroke-width="2" stroke-linecap="round"/>
<path d="M92 11L102 21H93C92.4477 21 92 20.5523 92 20V11Z" fill="#AAAAAA"/>
<circle cx="106.5" cy="81.5" r="15.5" fill="#95C03D" stroke="#444444" stroke-width="2"/>
<path d="M108.784 80.2404C108.784 80.9612 108.597 82.0833 108.224 83.6068C107.851 85.114 107.664 86.0969 107.664 86.5556C107.664 87.0142 107.746 87.2436 107.91 87.2436C108.075 87.2436 108.373 87.1617 108.806 86.9979L109.007 86.8996L109.41 88.1282C108.903 88.5541 108.269 88.9309 107.507 89.2585C106.761 89.5862 106.082 89.75 105.47 89.75C104.858 89.75 104.373 89.5616 104.015 89.1848C103.672 88.8081 103.5 88.2675 103.5 87.563C103.5 86.8422 103.679 85.7528 104.037 84.2949C104.41 82.8205 104.597 81.8868 104.597 81.4936C104.597 80.8875 104.403 80.3141 104.015 79.7735L103.836 79.5032L103.903 79.0855C104.679 78.8234 106.187 78.6923 108.425 78.6923C108.664 78.9872 108.784 79.5032 108.784 80.2404ZM107.104 76.7756C106.433 76.7756 105.903 76.5791 105.515 76.1859C105.142 75.7927 104.955 75.2931 104.955 74.687C104.955 74.0645 105.187 73.5484 105.649 73.1389C106.127 72.713 106.701 72.5 107.373 72.5C108.045 72.5 108.567 72.672 108.94 73.016C109.313 73.36 109.5 73.8433 109.5 74.4658C109.5 75.0883 109.269 75.6289 108.806 76.0876C108.358 76.5463 107.791 76.7756 107.104 76.7756Z" fill="#444444"/>
<path d="M102.149 42.9331C104.875 44.9868 109.905 46.8615 113.511 43.4411C115.778 41.2903 116.693 38.9243 116.92 37.8213" stroke="#AAAAAA" stroke-width="2" stroke-linecap="round"/>
<path d="M120.009 35.2448C120.153 35.6359 120.156 36.3732 119.712 36.9632C119.117 37.7523 118.285 37.7949 117.588 37.839" stroke="#AAAAAA" stroke-width="2" stroke-linecap="round"/>
<path d="M84.9879 44H80C80 45.6667 80.0831 49 82.0783 49C84.0734 49 85.1264 45.6667 84.9879 44Z" stroke="#AAAAAA" stroke-width="2" stroke-linejoin="round"/>
<defs>
<filter id="filter0_d_2016_88970" x="34.5" y="6" width="78" height="95" filterUnits="userSpaceOnUse" color-interpolation-filters="sRGB">
<feFlood flood-opacity="0" result="BackgroundImageFix"/>
<feColorMatrix in="SourceAlpha" type="matrix" values="0 0 0 0 0 0 0 0 0 0 0 0 0 0 0 0 0 0 127 0" result="hardAlpha"/>
<feOffset dy="5"/>
<feGaussianBlur stdDeviation="5"/>
<feColorMatrix type="matrix" values="0 0 0 0 0.333333 0 0 0 0 0.333333 0 0 0 0 0.333333 0 0 0 0.1 0"/>
<feBlend mode="normal" in2="BackgroundImageFix" result="effect1_dropShadow_2016_88970"/>
<feBlend mode="normal" in="SourceGraphic" in2="effect1_dropShadow_2016_88970" result="shape"/>
</filter>
</defs>
</svg>
