<svg width="200" height="140" viewBox="0 0 200 140" fill="none" xmlns="http://www.w3.org/2000/svg">
<g clip-path="url(#clip0_1629_105758)">
<circle cx="126" cy="48" r="24" stroke="#9ADAF3" stroke-width="2" stroke-linecap="round" stroke-dasharray="5 7"/>
<circle cx="69" cy="74" r="42" stroke="#9ADAF3" stroke-width="2" stroke-linecap="round" stroke-dasharray="5 7"/>
<g filter="url(#filter0_d_1629_105758)">
<path d="M67 43C67 41.8954 67.8954 41 69 41H117L127 51V119C127 120.105 126.105 121 125 121H69C67.8954 121 67 120.105 67 119V43Z" fill="white"/>
<path d="M68 43C68 42.4477 68.4477 42 69 42H116.586L126 51.4142V119C126 119.552 125.552 120 125 120H69C68.4477 120 68 119.552 68 119V43Z" stroke="#AAAAAA" stroke-width="2"/>
</g>
<path d="M116.818 86.8828L116.578 89.0391L118.764 88.4297L118.957 89.9062L116.965 90.0469L118.271 91.7871L116.941 92.4961L116.027 90.6621L115.225 92.4844L113.842 91.7871L115.137 90.0469L113.156 89.8945L113.385 88.4297L115.523 89.0391L115.283 86.8828H116.818Z" fill="#CCCCCC"/>
<path d="M107.279 86.8828L107.039 89.0391L109.225 88.4297L109.418 89.9062L107.426 90.0469L108.732 91.7871L107.402 92.4961L106.488 90.6621L105.686 92.4844L104.303 91.7871L105.598 90.0469L103.617 89.8945L103.846 88.4297L105.984 89.0391L105.744 86.8828H107.279Z" fill="#CCCCCC"/>
<path d="M97.7402 86.8828L97.5 89.0391L99.6855 88.4297L99.8789 89.9062L97.8867 90.0469L99.1934 91.7871L97.8633 92.4961L96.9492 90.6621L96.1465 92.4844L94.7637 91.7871L96.0586 90.0469L94.0781 89.8945L94.3066 88.4297L96.4453 89.0391L96.2051 86.8828H97.7402Z" fill="#CCCCCC"/>
<path d="M88.2012 86.8828L87.9609 89.0391L90.1465 88.4297L90.3398 89.9062L88.3477 90.0469L89.6543 91.7871L88.3242 92.4961L87.4102 90.6621L86.6074 92.4844L85.2246 91.7871L86.5195 90.0469L84.5391 89.8945L84.7676 88.4297L86.9062 89.0391L86.666 86.8828H88.2012Z" fill="#CCCCCC"/>
<path d="M78.6621 86.8828L78.4219 89.0391L80.6074 88.4297L80.8008 89.9062L78.8086 90.0469L80.1152 91.7871L78.7852 92.4961L77.8711 90.6621L77.0684 92.4844L75.6855 91.7871L76.9805 90.0469L75 89.8945L75.2285 88.4297L77.3672 89.0391L77.127 86.8828H78.6621Z" fill="#CCCCCC"/>
<path d="M116.818 97L116.578 99.1562L118.764 98.5469L118.957 100.023L116.965 100.164L118.271 101.904L116.941 102.613L116.027 100.779L115.225 102.602L113.842 101.904L115.137 100.164L113.156 100.012L113.385 98.5469L115.523 99.1562L115.283 97H116.818Z" fill="#CCCCCC"/>
<path d="M107.279 97L107.039 99.1562L109.225 98.5469L109.418 100.023L107.426 100.164L108.732 101.904L107.402 102.613L106.488 100.779L105.686 102.602L104.303 101.904L105.598 100.164L103.617 100.012L103.846 98.5469L105.984 99.1562L105.744 97H107.279Z" fill="#CCCCCC"/>
<path d="M97.7402 97L97.5 99.1562L99.6855 98.5469L99.8789 100.023L97.8867 100.164L99.1934 101.904L97.8633 102.613L96.9492 100.779L96.1465 102.602L94.7637 101.904L96.0586 100.164L94.0781 100.012L94.3066 98.5469L96.4453 99.1562L96.2051 97H97.7402Z" fill="#CCCCCC"/>
<path d="M88.2012 97L87.9609 99.1562L90.1465 98.5469L90.3398 100.023L88.3477 100.164L89.6543 101.904L88.3242 102.613L87.4102 100.779L86.6074 102.602L85.2246 101.904L86.5195 100.164L84.5391 100.012L84.7676 98.5469L86.9062 99.1562L86.666 97H88.2012Z" fill="#CCCCCC"/>
<path d="M78.6621 97L78.4219 99.1562L80.6074 98.5469L80.8008 100.023L78.8086 100.164L80.1152 101.904L78.7852 102.613L77.8711 100.779L77.0684 102.602L75.6855 101.904L76.9805 100.164L75 100.012L75.2285 98.5469L77.3672 99.1562L77.127 97H78.6621Z" fill="#CCCCCC"/>
<path d="M116.818 107.117L116.578 109.273L118.764 108.664L118.957 110.141L116.965 110.281L118.271 112.021L116.941 112.73L116.027 110.896L115.225 112.719L113.842 112.021L115.137 110.281L113.156 110.129L113.385 108.664L115.523 109.273L115.283 107.117H116.818Z" fill="#CCCCCC"/>
<path d="M107.279 107.117L107.039 109.273L109.225 108.664L109.418 110.141L107.426 110.281L108.732 112.021L107.402 112.73L106.488 110.896L105.686 112.719L104.303 112.021L105.598 110.281L103.617 110.129L103.846 108.664L105.984 109.273L105.744 107.117H107.279Z" fill="#CCCCCC"/>
<path d="M97.7402 107.117L97.5 109.273L99.6855 108.664L99.8789 110.141L97.8867 110.281L99.1934 112.021L97.8633 112.73L96.9492 110.896L96.1465 112.719L94.7637 112.021L96.0586 110.281L94.0781 110.129L94.3066 108.664L96.4453 109.273L96.2051 107.117H97.7402Z" fill="#CCCCCC"/>
<path d="M88.2012 107.117L87.9609 109.273L90.1465 108.664L90.3398 110.141L88.3477 110.281L89.6543 112.021L88.3242 112.73L87.4102 110.896L86.6074 112.719L85.2246 112.021L86.5195 110.281L84.5391 110.129L84.7676 108.664L86.9062 109.273L86.666 107.117H88.2012Z" fill="#CCCCCC"/>
<path d="M78.6621 107.117L78.4219 109.273L80.6074 108.664L80.8008 110.141L78.8086 110.281L80.1152 112.021L78.7852 112.73L77.8711 110.896L77.0684 112.719L75.6855 112.021L76.9805 110.281L75 110.129L75.2285 108.664L77.3672 109.273L77.127 107.117H78.6621Z" fill="#CCCCCC"/>
<path d="M68 75.4998C66.2487 79.4539 60.9597 84.0926 55.7092 83.5122C52.4076 83.1473 50.3591 81.5817 49.6038 80.7049" stroke="#AAAAAA" stroke-width="2" stroke-linecap="round"/>
<path d="M44.9794 79.4758C45.0927 80.0275 45.6123 80.8753 46.5418 81.2315C47.785 81.7079 48.7711 81.1572 49.6033 80.7052" stroke="#AAAAAA" stroke-width="2" stroke-linecap="round"/>
<path d="M126.144 77.4864C129.324 80.4182 135.62 83.1879 140.207 80.5678C143.092 78.9201 144.349 76.6691 144.693 75.5643" stroke="#AAAAAA" stroke-width="2" stroke-linecap="round"/>
<path d="M148.448 72.5975C148.564 73.1487 148.424 74.1332 147.713 74.8296C146.761 75.7611 145.638 75.6478 144.694 75.564" stroke="#AAAAAA" stroke-width="2" stroke-linecap="round"/>
<path fill-rule="evenodd" clip-rule="evenodd" d="M97 56.2951C98.5878 56.1899 102.589 56 107.257 56C112.099 56 115.103 56.4087 116 56.613C116 59.9846 114.638 67.0373 111.292 67.6473C107.929 68.2603 102.212 68.2603 100.867 66.1148C99.7911 64.3983 98.6254 60.4955 98.177 58.7586L97 58.2222L95.823 58.7586C95.3746 60.4955 94.2089 64.3983 93.1327 66.1148C91.7876 68.2603 86.0708 68.2603 82.708 67.6473C79.3617 67.0373 78 59.9846 78 56.613C78.8968 56.4087 81.9009 56 86.7434 56C91.411 56 95.4122 56.1899 97 56.2951Z" fill="#AAAAAA"/>
<path d="M116 42L126 52H117C116.448 52 116 51.5523 116 51V42Z" fill="#AAAAAA"/>
<path d="M34.366 119.651C34.6422 120.129 35.2538 120.293 35.7321 120.017L47.4977 113.224L49.1134 107.194L39.3205 90.2319C39.0444 89.7536 38.4328 89.5898 37.9545 89.8659L23.2321 98.3659C22.7538 98.6421 22.5899 99.2536 22.866 99.7319L34.366 119.651Z" fill="white" stroke="#9ADAF3" stroke-width="2"/>
<path d="M47.4902 114.383L49.6864 106.186L44.4902 109.186L47.4902 114.383Z" fill="#9ADAF3"/>
<path fill-rule="evenodd" clip-rule="evenodd" d="M111.162 55H82.8379C86.3169 53.7725 91.3727 53 96.9999 53C102.627 53 107.683 53.7725 111.162 55Z" fill="white"/>
<path d="M175 53L177 55" stroke="#FF6F3D" stroke-width="2" stroke-linecap="round"/>
<path d="M183 61L181 59" stroke="#FF6F3D" stroke-width="2" stroke-linecap="round"/>
<path d="M183 53L181 55" stroke="#FF6F3D" stroke-width="2" stroke-linecap="round"/>
<path d="M175 61L177 59" stroke="#FF6F3D" stroke-width="2" stroke-linecap="round"/>
<path d="M154 15L156 17" stroke="#5FC1E8" stroke-width="2" stroke-linecap="round"/>
<path d="M162 23L160 21" stroke="#5FC1E8" stroke-width="2" stroke-linecap="round"/>
<path d="M162 15L160 17" stroke="#5FC1E8" stroke-width="2" stroke-linecap="round"/>
<path d="M154 23L156 21" stroke="#5FC1E8" stroke-width="2" stroke-linecap="round"/>
<path d="M41 12L43 14" stroke="#95C03D" stroke-width="2" stroke-linecap="round"/>
<path d="M49 20L47 18" stroke="#95C03D" stroke-width="2" stroke-linecap="round"/>
<path d="M49 12L47 14" stroke="#95C03D" stroke-width="2" stroke-linecap="round"/>
<path d="M41 20L43 18" stroke="#95C03D" stroke-width="2" stroke-linecap="round"/>
<path d="M94 73C94 73 97.7605 73.6891 100 73C101.252 72.6148 103 71.5 103 71.5" stroke="#AAAAAA" stroke-width="2" stroke-linecap="round"/>
<path fill-rule="evenodd" clip-rule="evenodd" d="M44.7526 45.7379C42.3896 43.326 38.8688 42.8157 36.03 44.2144L23.923 32.3276C23.4962 31.8923 22.8071 31.8905 22.382 32.324L21.6142 33.1072C21.1909 33.5389 20.2902 34.5719 20.7169 35.0072L21.7856 36.0829L19.3177 38.6001C18.8927 39.0336 18.8944 39.7366 19.3212 40.1719L20.6977 41.5758C21.1245 42.0111 21.8101 42.0076 22.2351 41.5758L24.8482 39.1692L32.824 47.2062C31.0714 50.189 31.465 54.1245 33.9976 56.7078C36.9833 59.7531 41.8107 59.7655 44.7806 56.7363C47.7505 53.7071 47.7383 48.7814 44.7526 45.7379ZM39.5282 47.5433C37.5972 47.5433 36.03 49.1418 36.03 51.1113C36.03 53.0827 37.5972 54.6793 39.5282 54.6793C41.4609 54.6793 43.0263 53.0827 43.0263 51.1113C43.0263 49.1418 41.4609 47.5433 39.5282 47.5433Z" fill="#FF6F3D"/>
<path d="M161.965 94.1962C163.622 91.3264 167.291 90.3431 170.161 92V92C173.031 93.6569 174.014 97.3264 172.357 100.196L169.357 105.392L158.965 99.3923L161.965 94.1962Z" stroke="#9ADAF3" stroke-width="2"/>
<path d="M164.709 117.72L150.612 109.581C149.721 109.067 149.371 108.008 149.83 107.213L156.17 96.2317C156.629 95.4373 157.721 95.2104 158.612 95.7247L172.709 103.864C173.6 104.378 173.949 105.437 173.491 106.232L167.15 117.213C166.692 118.008 165.6 118.234 164.709 117.72Z" fill="white" stroke="#9ADAF3" stroke-width="2"/>
<circle cx="162.66" cy="104.99" r="2" transform="rotate(30 162.66 104.99)" fill="#9ADAF3"/>
<path d="M161.295 105.356L163.027 106.356L161.027 109.821C160.751 110.299 160.139 110.463 159.661 110.187C159.183 109.91 159.019 109.299 159.295 108.821L161.295 105.356Z" fill="#9ADAF3"/>
</g>
<defs>
<filter id="filter0_d_1629_105758" x="52" y="33" width="90" height="110" filterUnits="userSpaceOnUse" color-interpolation-filters="sRGB">
<feFlood flood-opacity="0" result="BackgroundImageFix"/>
<feColorMatrix in="SourceAlpha" type="matrix" values="0 0 0 0 0 0 0 0 0 0 0 0 0 0 0 0 0 0 127 0" result="hardAlpha"/>
<feOffset dy="7"/>
<feGaussianBlur stdDeviation="7.5"/>
<feColorMatrix type="matrix" values="0 0 0 0 0.333333 0 0 0 0 0.333333 0 0 0 0 0.333333 0 0 0 0.1 0"/>
<feBlend mode="normal" in2="BackgroundImageFix" result="effect1_dropShadow_1629_105758"/>
<feBlend mode="normal" in="SourceGraphic" in2="effect1_dropShadow_1629_105758" result="shape"/>
</filter>
<clipPath id="clip0_1629_105758">
<rect width="200" height="140" fill="white"/>
</clipPath>
</defs>
</svg>
