<svg width="36" height="36" viewBox="0 0 36 36" fill="none" xmlns="http://www.w3.org/2000/svg">
<rect width="36" height="36" rx="6" fill="currentColor" fill-opacity="0.1"/>
<path fill-rule="evenodd" clip-rule="evenodd" d="M21.7071 10.2929C21.5196 10.1054 21.2652 10 21 10H15C13.8954 10 13 10.8954 13 12V15H15V12H20.5858L23 14.4142V24H15V21H13V24C13 25.1046 13.8954 26 15 26H23C24.1046 26 25 25.1046 25 24V14C25 13.7348 24.8946 13.4804 24.7071 13.2929L21.7071 10.2929ZM16.2929 15.7071L17.5858 17H11L11 19H17.5858L16.2929 20.2929L17.7071 21.7071L20.7071 18.7071C21.0976 18.3166 21.0976 17.6834 20.7071 17.2929L17.7071 14.2929L16.2929 15.7071Z" fill="currentColor"/>
</svg>
