<svg width="150" height="105" viewBox="0 0 150 105" fill="none" xmlns="http://www.w3.org/2000/svg">
<g clip-path="url(#clip0_1757_69244)">
<path d="M123.5 89H54.5V39.503C54.5 37.9871 55.2601 37 56.6371 37H81.6786C82.9595 37 84.3719 38.0898 84.5 39.5V42H121.21C122.106 42 123.5 43.2047 123.5 44.1918V89Z" fill="#EFEFEF" stroke="#AAAAAA" stroke-width="2"/>
<path d="M123.475 97H52.8297C51.5891 97 50.5552 96.0088 50.4863 94.699L47.5 56C47.3966 54.5486 49.4054 52.9646 50.7839 53H90.1124L96.3475 48H126.563C127.976 48 129.127 49.6333 128.989 51.0848L125.784 94.7343C125.715 96.0088 124.681 97 123.475 97Z" fill="#F9F9F9" stroke="#AAAAAA" stroke-width="2"/>
<path d="M41 63.4995C40.1595 68.9622 37.2881 72.9135 40.5874 75.4335C42.8218 77.1401 47.1209 76.2687 48.9828 76.0827" stroke="#AAAAAA" stroke-width="2" stroke-linecap="round"/>
<path d="M137.378 64.5265C138.218 69.9891 139.416 72.932 136.117 75.452C133.883 77.1586 129.584 76.2871 127.722 76.1011" stroke="#AAAAAA" stroke-width="2" stroke-linecap="round"/>
<path d="M137.168 64.2327C137.359 64.7429 137.997 65.0535 138.941 65.2605C140.203 65.5373 140.749 65.0205 141.478 64.4703" stroke="#AAAAAA" stroke-width="2" stroke-linecap="round"/>
<path d="M135.307 19.2347L130.494 17.9452C129.278 17.6192 128.508 16.4216 128.718 15.1795L128.734 15.0838C128.883 14.1951 129.54 13.4765 130.411 13.2471C131.48 12.9658 132.598 13.4871 133.069 14.487L135.307 19.2347Z" fill="#D9F4FF" stroke="#9ADAF3" stroke-width="2"/>
<path d="M135.307 20.9997L130.494 22.2892C129.278 22.6152 128.508 23.8128 128.718 25.0549L128.734 25.1505C128.883 26.0392 129.54 26.7579 130.411 26.9873C131.48 27.2686 132.598 26.7473 133.069 25.7474L135.307 20.9997Z" fill="#D9F4FF" stroke="#9ADAF3" stroke-width="2"/>
<ellipse cx="138" cy="20" rx="2" ry="2" transform="rotate(90 138 20)" fill="#D9F4FF" stroke="#9ADAF3" stroke-width="2"/>
<path d="M21.4122 29.0036C24.8974 25.913 29.9635 23.7171 32.9072 22.5632C33.458 22.3472 34.0696 22.6632 34.2227 23.2346L39.4428 42.7162C39.6479 43.4817 38.917 44.1824 38.1412 44.0206C30.7438 42.4781 23.961 46.1417 17.0212 46.7116C11.8756 47.1342 6.7989 45.363 3.21958 43.4678C2.27146 42.9658 2.87104 40.9941 3.92386 40.7879C5.18196 40.5415 6.61381 40.1401 8.13409 39.522C14.4109 36.9701 16.4909 33.3675 21.4122 29.0036Z" fill="#D9F4FF" stroke="#9ADAF3" stroke-width="2"/>
<ellipse cx="36.8729" cy="33.1263" rx="2.94151" ry="11.7661" transform="rotate(-15 36.8729 33.1263)" fill="#D9F4FF" stroke="#9ADAF3" stroke-width="2"/>
<path d="M28.9865 24.798C28.7088 26.4676 28.4144 30.7808 29.4585 34.6774C30.5026 38.5741 32.8877 42.6044 33.5836 43.5781" stroke="#9ADAF3" stroke-width="2" stroke-linecap="round" stroke-dasharray="3 3"/>
<path d="M24.1172 27.4088C23.9748 29.0421 24.0582 32.3841 25.1023 36.2807C26.1464 40.1773 27.9616 43.0552 28.5764 44.0506" stroke="#9ADAF3" stroke-width="2" stroke-linecap="round" stroke-dasharray="3 3"/>
<path d="M20.0064 30.2505C19.864 31.8838 19.4052 34.501 20.4493 38.3976C21.4933 42.2942 22.9823 43.9545 23.597 44.9498" stroke="#9ADAF3" stroke-width="2" stroke-linecap="round" stroke-dasharray="3 3"/>
<path d="M15.8973 34.3964C15.4118 35.8316 15.441 37.5639 16.2023 40.4052C17.2464 44.3018 18.4366 45.172 19.0514 46.1674" stroke="#9ADAF3" stroke-width="2" stroke-linecap="round" stroke-dasharray="3 3"/>
<path d="M11.8116 37.6661C10.8989 44.0012 13.1751 46.0015 14.2044 46.5958" stroke="#9ADAF3" stroke-width="2" stroke-linecap="round" stroke-dasharray="3 3"/>
<rect x="37" y="43.2988" width="2" height="28" rx="1" transform="rotate(-8.59855 37 43.2988)" fill="#9ADAF3"/>
<path d="M39.6467 62.728C39.4724 62.2118 39.6053 61.6237 39.9313 60.9598C40.3673 60.0717 40.8824 60.2065 41.4988 60.2722" stroke="#AAAAAA" stroke-width="2" stroke-linecap="round"/>
<path d="M65 27.0249C65 16.3308 75.5357 5.20876 92.8143 8.63076C110.093 12.0528 112 33.5 101.664 32C95.9843 31.1757 97.0286 23.0666 101.664 20.5C105.373 18.4467 112.2 18.7167 124 20" stroke="#9ADAF3" stroke-width="2" stroke-linecap="round" stroke-dasharray="4 4"/>
<path d="M75 76H81.2976C81.7966 76 81.9877 75.3493 81.568 75.0794L76.7778 72" stroke="#AAAAAA" stroke-width="2" stroke-linecap="round"/>
<path d="M99 76H92.7024C92.2034 76 92.0123 75.3493 92.432 75.0794L97.2222 72" stroke="#AAAAAA" stroke-width="2" stroke-linecap="round"/>
<path d="M87.9314 83.7151C87.3512 82.7102 87.6955 81.4252 88.7004 80.845C89.7054 80.2648 90.9904 80.6091 91.5706 81.614L92.7399 83.6394L89.1007 85.7404L87.9314 83.7151Z" fill="#CCCCCC"/>
<path d="M82 83C82.5 84.5 85 86 87.5 86C90 86 92.5 84.5 93 83" stroke="#AAAAAA" stroke-width="2" stroke-linecap="round"/>
</g>
<defs>
<clipPath id="clip0_1757_69244">
<rect width="150" height="105" fill="white"/>
</clipPath>
</defs>
</svg>
