<svg width="200" height="140" viewBox="0 0 200 140" fill="none" xmlns="http://www.w3.org/2000/svg">
<ellipse cx="100" cy="68.5" rx="78" ry="38.5" stroke="#9ADAF3" stroke-width="2" stroke-linecap="round" stroke-dasharray="5 5"/>
<path d="M155.797 90.0005C155.797 89.4124 155.762 88.8333 155.695 88.2633L158 86.6361C157.55 84.3512 156.651 82.2266 155.399 80.3593L152.62 80.8385C151.9 79.9265 151.075 79.1013 150.164 78.382L150.643 75.6027C148.776 74.3498 146.652 73.4519 144.366 73.002L142.739 75.3072C142.169 75.2406 141.59 75.2053 141.002 75.2053C140.414 75.2053 139.835 75.2406 139.265 75.3072L137.635 73C135.35 73.4499 133.225 74.3488 131.358 75.6007L131.837 78.38C130.925 79.1003 130.1 79.9255 129.381 80.8365L126.602 80.3573C125.349 82.2266 124.45 84.3501 124 86.6351L126.305 88.2623C126.238 88.8323 126.203 89.4114 126.203 89.9995C126.203 90.5876 126.238 91.1667 126.305 91.7367L124 93.3659C124.45 95.6509 125.349 97.7754 126.601 99.6427L129.38 99.1635C130.1 100.076 130.925 100.901 131.836 101.62L131.357 104.399C133.224 105.652 135.348 106.55 137.634 107L139.261 104.695C139.831 104.761 140.41 104.797 140.998 104.797C141.586 104.797 142.165 104.761 142.735 104.695L144.362 107C146.647 106.55 148.772 105.651 150.639 104.399L150.16 101.62C151.072 100.9 151.897 100.075 152.616 99.1635L155.395 99.6427C156.648 97.7754 157.546 95.6519 157.996 93.3659L155.691 91.7387C155.757 91.1687 155.793 90.5897 155.793 90.0015L155.797 90.0005ZM141 97.4334C136.895 97.4334 133.567 94.1054 133.567 90.0005C133.567 85.8956 136.895 82.5676 141 82.5676C145.105 82.5676 148.433 85.8956 148.433 90.0005C148.433 94.1054 145.105 97.4334 141 97.4334Z" fill="white" stroke="#9ADAF3" stroke-width="2" stroke-miterlimit="10"/>
<path d="M79.9544 85.5007C79.9544 84.6877 79.9056 83.8872 79.8136 83.0993L83 80.8499C82.3781 77.6913 81.1356 74.7544 79.405 72.1731L75.5632 72.8355C74.5675 71.5749 73.4268 70.4341 72.1676 69.4398L72.83 65.5979C70.2488 63.8659 67.3133 62.6248 64.1534 62.0028L61.9041 65.1893C61.1162 65.0973 60.3158 65.0485 59.5028 65.0485C58.6898 65.0485 57.8894 65.0973 57.1015 65.1893L54.848 62C51.6894 62.622 48.7526 63.8645 46.1714 65.5951L46.8338 69.4371C45.5732 70.4328 44.4325 71.5735 43.4382 72.8327L39.5964 72.1703C37.8644 74.7544 36.6219 77.6899 36 80.8485L39.1864 83.0979C39.0944 83.8858 39.0456 84.6863 39.0456 85.4993C39.0456 86.3123 39.0944 87.1128 39.1864 87.9007L36 90.1529C36.6219 93.3115 37.8644 96.2484 39.595 98.8297L43.4368 98.1673C44.4325 99.4279 45.5732 100.569 46.8324 101.563L46.17 105.405C48.7512 107.137 51.6867 108.378 54.8466 109L57.0959 105.813C57.8838 105.906 58.6842 105.954 59.4972 105.954C60.3102 105.954 61.1106 105.906 61.8985 105.813L64.1478 109C67.3064 108.378 70.2432 107.136 72.8244 105.405L72.162 101.563C73.4226 100.567 74.5633 99.4265 75.5576 98.1673L79.3994 98.8297C81.1314 96.2484 82.3725 93.3129 82.9944 90.1529L79.808 87.9035C79.9 87.1156 79.9488 86.3151 79.9488 85.5021L79.9544 85.5007ZM59.5 95.7756C53.8258 95.7756 49.2254 91.1751 49.2254 85.5007C49.2254 79.8263 53.8258 75.2258 59.5 75.2258C65.1742 75.2258 69.7746 79.8263 69.7746 85.5007C69.7746 91.1751 65.1742 95.7756 59.5 95.7756Z" fill="white" stroke="#9ADAF3" stroke-width="2" stroke-miterlimit="10"/>
<rect x="61" y="90" width="30" height="38" rx="2" fill="white" stroke="#CCCCCC" stroke-width="2" stroke-linecap="round" stroke-dasharray="4 4"/>
<rect x="107" y="90" width="30" height="38" rx="2" fill="white" stroke="#CCCCCC" stroke-width="2" stroke-linecap="round" stroke-dasharray="4 4"/>
<path d="M78 75H113.916L121 82.1602V134C121 134.552 120.552 135 120 135H78C77.4477 135 77 134.552 77 134V76C77 75.4477 77.4477 75 78 75Z" fill="white" stroke="#AAAAAA" stroke-width="2"/>
<path d="M114 75L122 83H115C114.448 83 114 82.5523 114 82V75Z" fill="#AAAAAA"/>
<path fill-rule="evenodd" clip-rule="evenodd" d="M107.231 120.75C104.319 120.762 101.849 118.911 100.955 116.321L86.3161 116.102C85.7902 116.104 85.3663 115.682 85.3684 115.158L85.3723 114.212C85.3744 113.69 85.4482 112.511 85.974 112.509L87.2823 112.512L87.2947 109.471C87.2968 108.947 87.7242 108.522 88.2501 108.52L89.9463 108.513C90.4722 108.511 90.8908 108.934 90.8897 109.457L91.0335 112.52L100.802 112.539C101.536 109.655 104.164 107.509 107.285 107.496C110.965 107.481 113.934 110.436 113.919 114.096C113.905 117.756 110.91 120.736 107.231 120.75ZM105.121 116.449C103.936 115.264 103.944 113.333 105.138 112.138C106.334 110.942 108.264 110.936 109.449 112.12C110.635 113.306 110.627 115.235 109.431 116.431C108.237 117.626 106.307 117.635 105.121 116.449Z" fill="#CCCCCC"/>
<path d="M103 90C103 91.1046 104.343 92 106 92C107.657 92 109 91.1046 109 90" stroke="#AAAAAA" stroke-width="2" stroke-linecap="round"/>
<path d="M88 90C88 91.1046 89.3431 92 91 92C92.6569 92 94 91.1046 94 90" stroke="#AAAAAA" stroke-width="2" stroke-linecap="round"/>
<path d="M94 99C94 100.105 96.0147 101 98.5 101C100.985 101 103 100.105 103 99" stroke="#AAAAAA" stroke-width="2" stroke-linecap="round"/>
<path d="M76.9998 105.5C70.9836 112.548 69.2194 117.779 72.7295 119.185C76.2395 120.59 81.6304 117.698 83.8871 116.076" stroke="#AAAAAA" stroke-width="2" stroke-linecap="round"/>
<path d="M84 116.13C84.6822 116.404 86.7456 116.793 87.8 116.13" stroke="#AAAAAA" stroke-width="2" stroke-linecap="round"/>
<path d="M121.065 105.707C127.081 112.755 127.59 117.779 124.08 119.185C120.569 120.59 115.179 117.698 112.922 116.076" stroke="#AAAAAA" stroke-width="2" stroke-linecap="round"/>
<path d="M112.665 115.87C111.983 116.144 110.919 116.115 109.865 115.452" stroke="#AAAAAA" stroke-width="2" stroke-linecap="round"/>
<circle cx="100" cy="32" r="25" fill="#AAAAAA"/>
<path d="M115.327 37.6966L116.381 36.6435C116.427 36.4798 116.47 36.3145 116.512 36.1482L115.145 37.5148L113.434 35.8037L115.145 34.0926L116.642 35.589C116.663 35.4886 116.684 35.3882 116.703 35.2867L115.327 33.9103L117.018 32.2188C117.02 32.1462 117.021 32.0736 117.021 32.0005C117.021 31.9387 117.02 31.8774 117.018 31.8161L115.326 30.1241L116.708 28.7426C116.688 28.6411 116.668 28.5402 116.647 28.4398L115.145 29.9418L113.434 28.2307L115.145 26.5197L116.522 27.8971C116.481 27.7318 116.438 27.567 116.392 27.4033L115.326 26.3374L115.858 25.806C115.824 25.719 115.788 25.633 115.753 25.5465L115.144 26.1556L113.433 24.4445L114.611 23.2664C114.566 23.1907 114.52 23.1155 114.473 23.0403L113.251 24.2622L111.54 22.5511L113.035 21.0563C112.979 20.9904 112.924 20.924 112.868 20.8591L111.358 22.3694L109.647 20.6583L111.158 19.147C111.093 19.0904 111.027 19.0353 110.961 18.9796L109.465 20.476L107.754 18.7649L108.98 17.5389C108.905 17.492 108.83 17.4457 108.755 17.4004L107.572 18.5826L105.861 16.8716L106.477 16.2557C106.391 16.2202 106.305 16.1846 106.218 16.1507L105.679 16.6898L104.597 15.6074C104.433 15.5616 104.268 15.5189 104.103 15.4777L105.497 16.8716L103.786 18.5826L102.074 16.8716L103.587 15.3587C103.487 15.3371 103.386 15.3165 103.285 15.2969L101.892 16.6898L100.185 14.9813C100.123 14.9808 100.062 14.9787 100 14.9787C99.9385 14.9787 99.8772 14.9802 99.816 14.9813L98.1069 16.6903L96.7141 15.2974C96.6131 15.317 96.5122 15.3381 96.4118 15.3592L97.9247 16.8721L96.2136 18.5832L94.5025 16.8721L95.8964 15.4782C95.7311 15.5194 95.5663 15.5621 95.4026 15.6079L94.3202 16.6903L93.7811 16.1512C93.6941 16.1852 93.6081 16.2207 93.5221 16.2562L94.1379 16.8721L92.4268 18.5832L91.2446 17.4009C91.1689 17.4462 91.0937 17.4926 91.019 17.5394L92.2451 18.7654L90.534 20.4765L89.0376 18.9802C88.9717 19.0358 88.9058 19.0909 88.8409 19.1475L90.3522 20.6588L88.6411 22.3699L87.1309 20.8596C87.0747 20.9245 87.0196 20.9909 86.964 21.0568L88.4588 22.5517L86.7477 24.2628L85.5258 23.0408C85.4795 23.116 85.4332 23.1912 85.3878 23.2669L86.566 24.445L84.8549 26.1561L84.2457 25.547C84.2102 25.633 84.1752 25.7195 84.1412 25.8065L84.6726 26.3379L83.6067 27.4038C83.5609 27.5675 83.5182 27.7318 83.477 27.8976L84.8544 26.5202L86.5655 28.2313L84.8544 29.9423L83.3523 28.4403C83.3307 28.5407 83.3106 28.6417 83.2911 28.7431L84.6726 30.1246L82.9811 31.8161C82.9806 31.8774 82.9785 31.9387 82.9785 32.0005C82.9785 32.0736 82.9806 32.1462 82.9811 32.2188L84.6726 33.9103L83.2962 35.2867C83.3158 35.3876 83.3369 35.4886 83.358 35.589L84.8544 34.0926L86.5655 35.8037L84.8544 37.5148L83.4878 36.1482C83.5295 36.314 83.5727 36.4793 83.6191 36.6435L84.6721 37.6966L84.15 38.2187C84.1839 38.3057 84.2195 38.3917 84.255 38.4777L84.8544 37.8783L86.5655 39.5894L85.4002 40.7547C85.4455 40.8304 85.4919 40.9056 85.5387 40.9802L86.7477 39.7712L88.4588 41.4823L86.9789 42.9622C87.0346 43.0281 87.0897 43.094 87.1463 43.1589L88.6406 41.6646L90.3517 43.3756L88.8584 44.8689C88.9233 44.925 88.9897 44.9801 89.0556 45.0357L90.534 43.5574L92.2451 45.2685L91.0396 46.4739C91.1148 46.5203 91.19 46.5666 91.2657 46.6119L92.4268 45.4508L94.1379 47.1619L93.5458 47.754C93.6317 47.7896 93.7183 47.8246 93.8053 47.8586L94.3202 47.3436L95.3567 48.3802C95.5205 48.4265 95.6858 48.4698 95.8521 48.5115L94.5025 47.1619L96.2136 45.4508L97.9247 47.1619L96.4391 48.6474C96.5395 48.669 96.6404 48.6891 96.7419 48.7087L98.1069 47.3436L99.782 49.0187C99.8546 49.0197 99.9272 49.0213 100 49.0213C100.073 49.0213 100.146 49.0192 100.219 49.0187L101.894 47.3436L103.259 48.7087C103.36 48.6891 103.461 48.6685 103.562 48.6474L102.076 47.1619L103.787 45.4508L105.498 47.1619L104.149 48.5115C104.314 48.4698 104.48 48.4265 104.644 48.3802L105.68 47.3436L106.195 47.8586C106.282 47.8246 106.368 47.789 106.455 47.754L105.863 47.1619L107.574 45.4508L108.735 46.6119C108.811 46.5666 108.886 46.5203 108.961 46.4739L107.756 45.2685L109.467 43.5574L110.945 45.0357C111.011 44.9801 111.077 44.925 111.142 44.8689L109.649 43.3756L111.36 41.6646L112.854 43.1589C112.911 43.094 112.966 43.0281 113.022 42.9622L111.542 41.4823L113.253 39.7712L114.462 40.9802C114.509 40.9056 114.555 40.8304 114.6 40.7547L113.435 39.5894L115.146 37.8783L115.746 38.4777C115.781 38.3917 115.817 38.3057 115.851 38.2187L115.329 37.6966H115.327ZM113.252 35.6214L111.541 33.9103L113.252 32.1992L114.963 33.9103L113.252 35.6214ZM94.1389 32.017L92.4279 33.7281L90.7168 32.017L92.4279 30.3059L94.1389 32.017ZM92.6096 30.1241L94.3207 28.413L96.0318 30.1241L94.3207 31.8352L92.6096 30.1241ZM94.3207 32.1992L96.0318 33.9103L94.3207 35.6214L92.6096 33.9103L94.3207 32.1992ZM94.503 32.017L96.2141 30.3059L97.9252 32.017L96.2141 33.7281L94.503 32.017ZM100.182 30.1241L101.893 28.413L103.604 30.1241L101.893 31.8352L100.182 30.1241ZM101.711 32.017L100 33.7281L98.2892 32.017L100 30.3059L101.711 32.017ZM100 29.9418L98.2892 28.2307L100 26.5197L101.711 28.2307L100 29.9418ZM99.818 30.1241L98.1069 31.8352L96.3959 30.1241L98.1069 28.413L99.818 30.1241ZM98.1069 32.1992L99.818 33.9103L98.1069 35.6214L96.3959 33.9103L98.1069 32.1992ZM100 34.0921L101.711 35.8032L100 37.5143L98.2892 35.8032L100 34.0921ZM100.182 33.9103L101.893 32.1992L103.604 33.9103L101.893 35.6214L100.182 33.9103ZM102.075 32.017L103.787 30.3059L105.498 32.017L103.787 33.7281L102.075 32.017ZM103.969 30.1241L105.68 28.413L107.391 30.1241L105.68 31.8352L103.969 30.1241ZM105.68 32.1992L107.391 33.9103L105.68 35.6214L103.969 33.9103L105.68 32.1992ZM105.862 32.017L107.573 30.3059L109.284 32.017L107.573 33.7281L105.862 32.017ZM107.755 30.1241L109.466 28.413L111.177 30.1241L109.466 31.8352L107.755 30.1241ZM107.573 29.9418L105.862 28.2307L107.573 26.5197L109.284 28.2307L107.573 29.9418ZM105.68 28.049L103.969 26.3379L105.68 24.6268L107.391 26.3379L105.68 28.049ZM105.498 28.2307L103.787 29.9418L102.075 28.2307L103.787 26.5197L105.498 28.2307ZM101.893 28.049L100.182 26.3379L101.893 24.6268L103.604 26.3379L101.893 28.049ZM100 26.1556L98.2892 24.4445L100 22.7334L101.711 24.4445L100 26.1556ZM99.818 26.3379L98.1069 28.049L96.3959 26.3379L98.1069 24.6268L99.818 26.3379ZM97.9252 28.2307L96.2141 29.9418L94.503 28.2307L96.2141 26.5197L97.9252 28.2307ZM94.3207 28.049L92.6096 26.3379L94.3207 24.6268L96.0318 26.3379L94.3207 28.049ZM94.1389 28.2307L92.4279 29.9418L90.7168 28.2307L92.4279 26.5197L94.1389 28.2307ZM92.2456 30.1241L90.5345 31.8352L88.8234 30.1241L90.5345 28.413L92.2456 30.1241ZM92.2456 33.9103L90.5345 35.6214L88.8234 33.9103L90.5345 32.1992L92.2456 33.9103ZM92.4273 34.0921L94.1384 35.8032L92.4273 37.5143L90.7163 35.8032L92.4273 34.0921ZM94.3207 35.9855L96.0318 37.6966L94.3207 39.4076L92.6096 37.6966L94.3207 35.9855ZM94.503 35.8037L96.2141 34.0926L97.9252 35.8037L96.2141 37.5148L94.503 35.8037ZM98.1069 35.9855L99.818 37.6966L98.1069 39.4076L96.3959 37.6966L98.1069 35.9855ZM100 37.8788L101.711 39.5899L100 41.301L98.2892 39.5899L100 37.8788ZM100.182 37.6966L101.893 35.9855L103.604 37.6966L101.893 39.4076L100.182 37.6966ZM102.075 35.8037L103.787 34.0926L105.498 35.8037L103.787 37.5148L102.075 35.8037ZM105.68 35.9855L107.391 37.6966L105.68 39.4076L103.969 37.6966L105.68 35.9855ZM105.862 35.8037L107.573 34.0926L109.284 35.8037L107.573 37.5148L105.862 35.8037ZM107.755 33.9103L109.466 32.1992L111.177 33.9103L109.466 35.6214L107.755 33.9103ZM109.648 32.017L111.359 30.3059L113.07 32.017L111.359 33.7281L109.648 32.017ZM109.648 28.2307L111.359 26.5197L113.07 28.2307L111.359 29.9418L109.648 28.2307ZM109.466 28.049L107.755 26.3379L109.466 24.6268L111.177 26.3379L109.466 28.049ZM107.573 26.1556L105.862 24.4445L107.573 22.7334L109.284 24.4445L107.573 26.1556ZM105.68 24.2622L103.969 22.5511L105.68 20.8401L107.391 22.5511L105.68 24.2622ZM105.498 24.4445L103.787 26.1556L102.075 24.4445L103.787 22.7334L105.498 24.4445ZM101.893 24.2622L100.182 22.5511L101.893 20.8401L103.604 22.5511L101.893 24.2622ZM100 22.3694L98.2892 20.6583L100 18.9472L101.711 20.6583L100 22.3694ZM99.818 22.5511L98.1069 24.2622L96.3959 22.5511L98.1069 20.8401L99.818 22.5511ZM97.9252 24.4445L96.2141 26.1556L94.503 24.4445L96.2141 22.7334L97.9252 24.4445ZM94.3207 24.2622L92.6096 22.5511L94.3207 20.8401L96.0318 22.5511L94.3207 24.2622ZM94.1389 24.4445L92.4279 26.1556L90.7168 24.4445L92.4279 22.7334L94.1389 24.4445ZM92.2456 26.3379L90.5345 28.049L88.8234 26.3379L90.5345 24.6268L92.2456 26.3379ZM90.3522 28.2307L88.6411 29.9418L86.93 28.2307L88.6411 26.5197L90.3522 28.2307ZM90.3522 32.017L88.6411 33.7281L86.93 32.017L88.6411 30.3059L90.3522 32.017ZM90.3522 35.8037L88.6411 37.5148L86.93 35.8037L88.6411 34.0926L90.3522 35.8037ZM90.5345 35.9855L92.2456 37.6966L90.5345 39.4076L88.8234 37.6966L90.5345 35.9855ZM92.4273 37.8788L94.1384 39.5899L92.4273 41.301L90.7163 39.5899L92.4273 37.8788ZM94.3207 39.7717L96.0318 41.4828L94.3207 43.1939L92.6096 41.4828L94.3207 39.7717ZM94.503 39.5899L96.2141 37.8788L97.9252 39.5899L96.2141 41.301L94.503 39.5899ZM98.1069 39.7717L99.818 41.4828L98.1069 43.1939L96.3959 41.4828L98.1069 39.7717ZM100 41.6651L101.711 43.3762L100 45.0872L98.2892 43.3762L100 41.6651ZM100.182 41.4828L101.893 39.7717L103.604 41.4828L101.893 43.1939L100.182 41.4828ZM102.075 39.5899L103.787 37.8788L105.498 39.5899L103.787 41.301L102.075 39.5899ZM105.68 39.7717L107.391 41.4828L105.68 43.1939L103.969 41.4828L105.68 39.7717ZM105.862 39.5899L107.573 37.8788L109.284 39.5899L107.573 41.301L105.862 39.5899ZM107.755 37.6966L109.466 35.9855L111.177 37.6966L109.466 39.4076L107.755 37.6966ZM109.648 35.8037L111.359 34.0926L113.07 35.8037L111.359 37.5148L109.648 35.8037ZM116.857 32.017L115.146 33.7281L113.435 32.017L115.146 30.3059L116.857 32.017ZM114.963 30.1241L113.252 31.8352L111.541 30.1241L113.252 28.413L114.963 30.1241ZM114.963 26.3379L113.252 28.049L111.541 26.3379L113.252 24.6268L114.963 26.3379ZM113.07 24.4445L111.359 26.1556L109.648 24.4445L111.359 22.7334L113.07 24.4445ZM111.177 22.5511L109.466 24.2622L107.755 22.5511L109.466 20.8401L111.177 22.5511ZM109.284 20.6583L107.573 22.3694L105.862 20.6583L107.573 18.9472L109.284 20.6583ZM105.68 17.0538L107.391 18.7649L105.68 20.476L103.969 18.7649L105.68 17.0538ZM105.498 20.6583L103.787 22.3694L102.075 20.6583L103.787 18.9472L105.498 20.6583ZM103.604 18.7649L101.893 20.476L100.182 18.7649L101.893 17.0538L103.604 18.7649ZM100 15.161L101.711 16.8721L100 18.5832L98.2892 16.8721L100 15.161ZM98.1069 17.0538L99.818 18.7649L98.1069 20.476L96.3959 18.7649L98.1069 17.0538ZM97.9252 20.6583L96.2141 22.3694L94.503 20.6583L96.2141 18.9472L97.9252 20.6583ZM94.3207 17.0538L96.0318 18.7649L94.3207 20.476L92.6096 18.7649L94.3207 17.0538ZM92.4273 18.9472L94.1384 20.6583L92.4273 22.3694L90.7163 20.6583L92.4273 18.9472ZM90.5345 20.8401L92.2456 22.5511L90.5345 24.2622L88.8234 22.5511L90.5345 20.8401ZM88.6411 22.7334L90.3522 24.4445L88.6411 26.1556L86.93 24.4445L88.6411 22.7334ZM85.0372 26.3379L86.7483 24.6268L88.4594 26.3379L86.7483 28.049L85.0372 26.3379ZM86.7483 28.413L88.4594 30.1241L86.7483 31.8352L85.0372 30.1241L86.7483 28.413ZM83.1438 32.017L84.8549 30.3059L86.566 32.017L84.8549 33.7281L83.1438 32.017ZM85.0372 33.9103L86.7483 32.1992L88.4594 33.9103L86.7483 35.6214L85.0372 33.9103ZM85.0372 37.6966L86.7483 35.9855L88.4594 37.6966L86.7483 39.4076L85.0372 37.6966ZM86.93 39.5899L88.6411 37.8788L90.3522 39.5899L88.6411 41.301L86.93 39.5899ZM88.8234 41.4828L90.5345 39.7717L92.2456 41.4828L90.5345 43.1939L88.8234 41.4828ZM90.7163 43.3762L92.4273 41.6651L94.1384 43.3762L92.4273 45.0872L90.7163 43.3762ZM94.3207 46.9806L92.6096 45.2695L94.3207 43.5584L96.0318 45.2695L94.3207 46.9806ZM94.503 43.3762L96.2141 41.6651L97.9252 43.3762L96.2141 45.0872L94.503 43.3762ZM96.3959 45.2695L98.1069 43.5584L99.818 45.2695L98.1069 46.9806L96.3959 45.2695ZM100 48.8735L98.2892 47.1624L100 45.4513L101.711 47.1624L100 48.8735ZM101.893 46.9806L100.182 45.2695L101.893 43.5584L103.604 45.2695L101.893 46.9806ZM102.075 43.3762L103.787 41.6651L105.498 43.3762L103.787 45.0872L102.075 43.3762ZM105.68 46.9806L103.969 45.2695L105.68 43.5584L107.391 45.2695L105.68 46.9806ZM107.573 45.0872L105.862 43.3762L107.573 41.6651L109.284 43.3762L107.573 45.0872ZM109.466 43.1939L107.755 41.4828L109.466 39.7717L111.177 41.4828L109.466 43.1939ZM111.359 41.301L109.648 39.5899L111.359 37.8788L113.07 39.5899L111.359 41.301ZM113.252 39.4076L111.541 37.6966L113.252 35.9855L114.963 37.6966L113.252 39.4076Z" fill="white"/>
<path d="M103.013 37.1683H97.3572C97.1276 37.885 96.8958 38.609 96.6636 39.333C96.522 39.7738 96.4087 40.2269 96.2311 40.6527C95.7733 41.75 94.7301 42.2258 93.691 41.8417C92.6204 41.4462 92.0849 40.454 92.4268 39.3366C93.3985 36.1647 94.4021 33.0025 95.3984 29.8383C95.8851 28.2931 96.3737 26.7478 96.8799 25.2087C97.2815 23.9863 97.9066 23.5244 99.1739 23.4863C99.7156 23.4698 100.258 23.4765 100.8 23.4842C102.28 23.5048 102.882 23.9327 103.356 25.3523C104.541 28.9043 105.712 32.4608 106.888 36.0159C107.227 37.0426 107.575 38.0668 107.897 39.0992C108.313 40.4303 107.807 41.5168 106.618 41.8942C105.566 42.2279 104.561 41.6471 104.112 40.4262C103.913 39.8829 103.749 39.3263 103.565 38.7774C103.394 38.2687 103.217 37.762 103.014 37.1678L103.013 37.1683Z" fill="white"/>
<mask id="path-19-inside-1_1440_7292" fill="white">
<path fill-rule="evenodd" clip-rule="evenodd" d="M41.4799 24.0139C41.5554 24.0171 41.6313 24.0188 41.7076 24.0188C44.5981 24.0188 46.9414 21.6755 46.9414 18.7849C46.9414 15.8944 44.5981 13.5511 41.7076 13.5511C40.9854 13.5511 40.2973 13.6974 39.6715 13.962C38.6282 11.0685 35.8583 9 32.6052 9C28.5318 9 25.2159 12.2433 25.099 16.2885C25.0227 16.284 24.9458 16.2817 24.8684 16.2817C22.7319 16.2817 21 18.0137 21 20.1502C21 22.2867 22.7319 24.0187 24.8684 24.0187C24.9447 24.0187 25.0205 24.0165 25.0958 24.0121V24.0188H41.4799V24.0139Z"/>
</mask>
<path fill-rule="evenodd" clip-rule="evenodd" d="M41.4799 24.0139C41.5554 24.0171 41.6313 24.0188 41.7076 24.0188C44.5981 24.0188 46.9414 21.6755 46.9414 18.7849C46.9414 15.8944 44.5981 13.5511 41.7076 13.5511C40.9854 13.5511 40.2973 13.6974 39.6715 13.962C38.6282 11.0685 35.8583 9 32.6052 9C28.5318 9 25.2159 12.2433 25.099 16.2885C25.0227 16.284 24.9458 16.2817 24.8684 16.2817C22.7319 16.2817 21 18.0137 21 20.1502C21 22.2867 22.7319 24.0187 24.8684 24.0187C24.9447 24.0187 25.0205 24.0165 25.0958 24.0121V24.0188H41.4799V24.0139Z" fill="white"/>
<path d="M41.4799 24.0139H39.4799V21.9264L41.5654 22.0157L41.4799 24.0139ZM39.6715 13.962L40.4502 15.8041L38.506 16.6259L37.79 14.6403L39.6715 13.962ZM25.099 16.2885L27.0982 16.3462L27.0387 18.406L24.9816 18.285L25.099 16.2885ZM25.0958 24.0121L24.98 22.0155L27.0958 21.8928V24.0121H25.0958ZM25.0958 24.0188V26.0188H23.0958V24.0188H25.0958ZM41.4799 24.0188H43.4799V26.0188H41.4799V24.0188ZM41.5654 22.0157C41.6124 22.0177 41.6598 22.0188 41.7076 22.0188V26.0188C41.6028 26.0188 41.4983 26.0165 41.3943 26.0121L41.5654 22.0157ZM41.7076 22.0188C43.4936 22.0188 44.9414 20.5709 44.9414 18.7849H48.9414C48.9414 22.7801 45.7027 26.0188 41.7076 26.0188V22.0188ZM44.9414 18.7849C44.9414 16.999 43.4936 15.5511 41.7076 15.5511V11.5511C45.7027 11.5511 48.9414 14.7898 48.9414 18.7849H44.9414ZM41.7076 15.5511C41.2577 15.5511 40.8341 15.6419 40.4502 15.8041L38.8928 12.1198C39.7606 11.7529 40.7131 11.5511 41.7076 11.5511V15.5511ZM37.79 14.6403C37.0236 12.5147 34.9887 11 32.6052 11V7C36.7278 7 40.2328 9.62233 41.5529 13.2836L37.79 14.6403ZM32.6052 11C29.617 11 27.1839 13.3796 27.0982 16.3462L23.0998 16.2307C23.2479 11.1071 27.4466 7 32.6052 7V11ZM24.9816 18.285C24.9443 18.2829 24.9066 18.2817 24.8684 18.2817V14.2817C24.9851 14.2817 25.1011 14.2852 25.2164 14.2919L24.9816 18.285ZM24.8684 18.2817C23.8365 18.2817 23 19.1183 23 20.1502H19C19 16.9091 21.6274 14.2817 24.8684 14.2817V18.2817ZM23 20.1502C23 21.1821 23.8365 22.0187 24.8684 22.0187V26.0187C21.6274 26.0187 19 23.3913 19 20.1502H23ZM24.8684 22.0187C24.9061 22.0187 24.9433 22.0176 24.98 22.0155L25.2115 26.0088C25.0977 26.0153 24.9834 26.0187 24.8684 26.0187V22.0187ZM27.0958 24.0121V24.0188H23.0958V24.0121H27.0958ZM25.0958 22.0188H41.4799V26.0188H25.0958V22.0188ZM39.4799 24.0188V24.0139H43.4799V24.0188H39.4799Z" fill="#9ADAF3" mask="url(#path-19-inside-1_1440_7292)"/>
<path d="M176.782 108.831C177.639 105.63 180.929 103.731 184.13 104.588V104.588C187.331 105.446 189.23 108.736 188.373 111.937L186.82 117.732L175.229 114.626L176.782 108.831Z" stroke="#9ADAF3" stroke-width="2"/>
<path d="M185.521 130.843L169.798 126.63C168.804 126.364 168.192 125.431 168.43 124.545L171.712 112.297C171.949 111.411 172.945 110.909 173.939 111.175L189.662 115.388C190.655 115.654 191.267 116.587 191.03 117.473L187.748 129.721C187.511 130.607 186.514 131.109 185.521 130.843Z" fill="white" stroke="#9ADAF3" stroke-width="2"/>
<circle cx="180.248" cy="119.077" r="2" transform="rotate(15 180.248 119.077)" fill="#9ADAF3"/>
<path d="M179.023 119.784L180.955 120.302L179.92 124.166C179.777 124.699 179.228 125.016 178.695 124.873C178.161 124.73 177.845 124.181 177.988 123.648L179.023 119.784Z" fill="#9ADAF3"/>
<path d="M178.759 15.4936L180.466 18.4502L176.432 33.5051L162.909 29.8816L167.568 12.4949L178.759 15.4936Z" fill="white" stroke="#9ADAF3" stroke-width="2"/>
<path d="M177.537 18.2721L178.314 15.3743L180.314 19.0162L177.537 18.2721Z" fill="#9ADAF3"/>
<path d="M23.4159 106.85L26.3725 108.557L30.4064 123.611L16.8835 127.235L12.2247 109.848L23.4159 106.85Z" fill="white" stroke="#9ADAF3" stroke-width="2"/>
<path d="M23.7473 109.867L22.9709 106.969L26.5244 109.123L23.7473 109.867Z" fill="#9ADAF3"/>
</svg>
