<svg width="200" height="140" viewBox="0 0 200 140" fill="none" xmlns="http://www.w3.org/2000/svg">
<path d="M49 41C49 39.3431 50.3431 38 52 38H85C86.6569 38 88 39.3431 88 41V43C88 43.5523 88.4477 44 89 44H149C150.657 44 152 45.3431 152 47V113C152 114.657 150.657 116 149 116H52C50.3431 116 49 114.657 49 113V41Z" fill="#333333" stroke="#AAAAAA" stroke-width="2"/>
<path d="M44 54C44 52.3431 45.3431 51 47 51H102.086C102.351 51 102.605 50.8946 102.793 50.7071L111.207 42.2929C111.395 42.1054 111.649 42 111.914 42H153C154.657 42 156 43.3431 156 45V120C156 121.657 154.657 123 153 123H47C45.3431 123 44 121.657 44 120V54Z" fill="#444444" stroke="#AAAAAA" stroke-width="2"/>
<circle cx="65.5" cy="109.5" r="1.5" fill="white"/>
<rect x="41" y="115" width="15" height="117" rx="2" transform="rotate(-90 41 115)" fill="#5EA3BE" stroke="#9ADAF3" stroke-width="2"/>
<rect x="60" y="117" width="19" height="7" rx="2" transform="rotate(-90 60 117)" fill="#5EA3BE" stroke="#9ADAF3" stroke-width="2"/>
<ellipse cx="77.5" cy="107.5" rx="3.5" ry="3.5" transform="rotate(-90 77.5 107.5)" fill="#79BBD4"/>
<ellipse cx="92.5" cy="107.5" rx="3.5" ry="3.5" transform="rotate(-90 92.5 107.5)" fill="#79BBD4"/>
<path fill-rule="evenodd" clip-rule="evenodd" d="M80 115L80 117C80 118.105 80.8954 119 82 119L103 119C104.105 119 105 118.105 105 117L105 98C105 96.8954 104.105 96 103 96L82 96C80.8954 96 80 96.8954 80 98L80 100L96 100C97.1046 100 98 100.895 98 102L98 113C98 114.105 97.1046 115 96 115L80 115Z" fill="#5EA3BE"/>
<path d="M80 115L80 114L79 114L79 115L80 115ZM80 100L79 100L79 101L80 101L80 100ZM96 100L96 101L96 100ZM96 115L96 116L96 115ZM81 117L81 115L79 115L79 117L81 117ZM82 118C81.4477 118 81 117.552 81 117L79 117C79 118.657 80.3431 120 82 120L82 118ZM103 118L82 118L82 120L103 120L103 118ZM104 117C104 117.552 103.552 118 103 118L103 120C104.657 120 106 118.657 106 117L104 117ZM104 98L104 117L106 117L106 98L104 98ZM103 97C103.552 97 104 97.4477 104 98L106 98C106 96.3431 104.657 95 103 95L103 97ZM82 97L103 97L103 95L82 95L82 97ZM81 98C81 97.4477 81.4477 97 82 97L82 95C80.3431 95 79 96.3431 79 98L81 98ZM81 100L81 98L79 98L79 100L81 100ZM80 101L96 101L96 99L80 99L80 101ZM96 101C96.5523 101 97 101.448 97 102L99 102C99 100.343 97.6569 99 96 99L96 101ZM97 102L97 113L99 113L99 102L97 102ZM97 113C97 113.552 96.5523 114 96 114L96 116C97.6569 116 99 114.657 99 113L97 113ZM96 114L80 114L80 116L96 116L96 114Z" fill="#9ADAF3"/>
<rect x="91" y="109" width="3" height="11" rx="1.5" transform="rotate(-90 91 109)" fill="#5EA3BE" stroke="#9ADAF3" stroke-width="2"/>
<path d="M43.9217 80.9995C39.7102 81.3369 30.7545 84.4306 33.625 91.8091C34.2873 93.5115 37.5909 97.4051 38.4991 97.9994" stroke="#AAAAAA" stroke-width="2" stroke-linecap="round"/>
<path d="M38.2387 101.059C37.9733 100.757 37.6108 100.455 37.6809 99.5363C37.7254 98.9525 38.345 98.3682 38.9557 98.0849" stroke="#AAAAAA" stroke-width="2" stroke-linecap="round"/>
<path d="M156.174 80.9996C160.386 81.3371 169.341 84.4307 166.471 91.8092C165.808 93.5116 162.409 97.4053 161.501 97.9995" stroke="#AAAAAA" stroke-width="2" stroke-linecap="round"/>
<path d="M161.857 101.059C162.122 100.757 162.485 100.455 162.415 99.5363C162.37 98.9525 161.751 98.3682 161.14 98.0849" stroke="#AAAAAA" stroke-width="2" stroke-linecap="round"/>
<path d="M93.7506 82.3599C95.2135 84.5782 97.4693 86 100 86C102.531 86 104.786 84.5782 106.249 82.3599C106.65 81.7524 106.173 81 105.445 81H94.5547C93.827 81 93.35 81.7524 93.7506 82.3599Z" fill="#AAAAAA"/>
<path d="M83 70C83.3636 71 85.1818 72 87 72C88.8182 72 90.6364 71 91 70" stroke="#AAAAAA" stroke-width="2" stroke-linecap="round"/>
<path d="M108 70C108.364 71 110.182 72 112 72C113.818 72 115.636 71 116 70" stroke="#AAAAAA" stroke-width="2" stroke-linecap="round"/>
</svg>
