<svg width="200" height="140" viewBox="0 0 200 140" fill="none" xmlns="http://www.w3.org/2000/svg">
<path d="M67.3897 82.5962L140.162 76.6214L139.653 125.659C139.638 127.144 138.496 128.373 137.017 128.497L66.7794 134.386L67.3897 82.5962Z" fill="#AAAAAA"/>
<path d="M40.6995 28.3382C40.5484 27.9791 40.7105 27.5651 41.0652 27.4041L79.1066 10.1357L88.9793 14.221L112.353 68.3186C112.509 68.68 112.346 69.0996 111.987 69.2605L67.1626 89.3308C66.7942 89.4958 66.3622 89.3254 66.2056 88.9533L40.6995 28.3382Z" fill="#F9F9F9" stroke="#AAAAAA" stroke-width="1.4387"/>
<path d="M50.3196 51.0738C51.039 54.6705 51.039 61.1447 47.0825 63.3027C44.5947 64.6597 41.5675 64.2618 40.6084 64.0221" stroke="#AAAAAA" stroke-width="1.4387" stroke-linecap="round"/>
<path d="M37.3711 65.101C37.7215 65.4284 38.066 66.0962 39.1695 65.8204C40.2729 65.5445 40.2485 64.7413 40.6082 64.022" stroke="#AAAAAA" stroke-width="1.4387" stroke-linecap="round"/>
<path d="M96.3578 31.2919C97.4524 33.0278 100.849 36.8043 105.35 37.0467C108.179 37.1992 110.745 35.608 111.104 34.1693" stroke="#AAAAAA" stroke-width="1.4387" stroke-linecap="round"/>
<path d="M113.622 34.1693C112.576 34.6158 111.826 34.5255 111.105 34.1693" stroke="#AAAAAA" stroke-width="1.4387" stroke-linecap="round"/>
<rect x="60.3906" y="58.9535" width="37.4062" height="1.4387" rx="0.71935" transform="rotate(-23.7636 60.3906 58.9535)" fill="#AAAAAA"/>
<rect x="77.9307" y="55.9467" width="20.1418" height="1.4387" rx="0.71935" transform="rotate(-23.7636 77.9307 55.9467)" fill="#AAAAAA"/>
<rect x="79.6699" y="59.8973" width="20.1418" height="1.4387" rx="0.71935" transform="rotate(-23.7636 79.6699 59.8973)" fill="#AAAAAA"/>
<rect x="65.6084" y="70.8043" width="37.4062" height="1.4387" rx="0.71935" transform="rotate(-23.7636 65.6084 70.8043)" fill="#AAAAAA"/>
<rect x="67.3477" y="74.7541" width="37.4062" height="1.4387" rx="0.71935" transform="rotate(-23.7636 67.3477 74.7541)" fill="#9ADAF3"/>
<path d="M67.3183 62.1913L65.1074 67.8807L78.2746 62.0833L71.0572 58.1871L69.8731 62.6384L67.3183 62.1913Z" fill="#9ADAF3"/>
<path d="M65.3172 34.4757C64.6756 33.0219 62.8296 32.4284 61.194 33.1501C59.5584 33.8719 58.7525 35.6356 59.3941 37.0895" stroke="#AAAAAA" stroke-width="1.4387" stroke-linecap="round"/>
<path d="M77.1634 29.2484C76.5218 27.7946 74.6758 27.2011 73.0402 27.9228C71.4045 28.6446 70.5987 30.4083 71.2403 31.8622" stroke="#AAAAAA" stroke-width="1.4387" stroke-linecap="round"/>
<path d="M66.8459 43.5517C68.9591 44.8158 71.5485 45.0925 73.8735 44.0666C76.1986 43.0406 77.7395 40.9413 78.2301 38.5282C78.3374 38.0004 77.7964 37.6179 77.3036 37.8353L66.9585 42.4004C66.4658 42.6178 66.3836 43.2753 66.8459 43.5517Z" fill="#AAAAAA"/>
<path d="M79.0938 9.35141L89.5243 13.6675L88.4453 14.7465L81.6115 17.9836L79.0938 11.1498V9.35141Z" fill="#AAAAAA"/>
<path d="M46.9631 84.7652C46.6709 83.5275 47.507 82.3067 48.7667 82.1319L72.5628 78.8282C72.77 78.7994 72.9793 78.8622 73.1365 79.0002L77.9813 83.2553C78.752 83.9322 79.7751 84.2478 80.7932 84.1228L121.688 79.1004C122.8 78.9639 123.832 79.7009 124.063 80.7971L133.208 124.162C133.516 125.621 134.312 126.908 135.436 127.83L60.5961 134.465C59.5275 134.56 58.5516 133.856 58.3052 132.812L46.9631 84.7652Z" fill="#EFEFEF" stroke="#AAAAAA" stroke-width="1.4387"/>
<g filter="url(#filter0_d_2136_2298)">
<path d="M122.934 31.8268C123.096 31.4621 123.523 31.2983 123.887 31.4617L162.346 48.7376L166.428 58.262L142.208 112.717C142.047 113.08 141.623 113.243 141.26 113.083L96.5252 93.2886C96.1619 93.1278 95.9977 92.703 96.1585 92.3397L122.934 31.8268Z" fill="white" stroke="#AAAAAA" stroke-width="1.4387"/>
<path d="M111.661 85.4839L104.147 89.0242L121.908 96.8838L119.007 86.1605L113.55 88.8943L111.661 85.4839Z" fill="#FF6F3D"/>
<circle cx="114.067" cy="80.8279" r="2.15805" transform="rotate(23.87 114.067 80.8279)" fill="#FF6F3D"/>
<rect x="111.326" y="72.6543" width="20.3231" height="1.4387" rx="0.71935" transform="rotate(23.87 111.326 72.6543)" fill="#FF6F3D"/>
<rect x="130.146" y="87.1563" width="15.8257" height="1.4387" rx="0.71935" transform="rotate(23.87 130.146 87.1563)" fill="#AAAAAA"/>
<rect x="128.69" y="90.4454" width="15.8257" height="1.4387" rx="0.71935" transform="rotate(23.87 128.69 90.4454)" fill="#AAAAAA"/>
<rect x="127.235" y="93.7344" width="15.8257" height="1.4387" rx="0.71935" transform="rotate(23.87 127.235 93.7344)" fill="#AAAAAA"/>
<rect x="125.779" y="97.0235" width="15.8257" height="1.4387" rx="0.71935" transform="rotate(23.87 125.779 97.0235)" fill="#AAAAAA"/>
<path d="M129.949 61.5969C130.4 64.0177 131.907 66.1419 134.215 67.2056C136.523 68.2694 139.116 68.0349 141.25 66.8054C141.716 66.5365 141.645 65.8778 141.156 65.6524L130.887 60.9193C130.397 60.6938 129.85 61.0674 129.949 61.5969Z" fill="#AAAAAA"/>
<path d="M162.897 48.1964L167.213 58.2673L165.552 58.7024L158.509 55.9486L161.818 49.2754L162.897 48.1964Z" fill="#AAAAAA"/>
<circle cx="133.12" cy="52.4934" r="2.15805" transform="rotate(24.4777 133.12 52.4934)" fill="#AAAAAA"/>
<circle cx="145.254" cy="58.0606" r="2.15805" transform="rotate(24.4777 145.254 58.0606)" fill="#AAAAAA"/>
<path d="M112.217 55.3899C108.86 56.3491 102.649 59.0586 104.663 62.2237C106.678 65.3889 112.696 66.1802 115.454 66.1802" stroke="#AAAAAA" stroke-width="1.4387" stroke-linecap="round"/>
<path d="M115.779 66.1633C116.171 66.7787 117.218 67.8971 118.278 67.4476" stroke="#AAAAAA" stroke-width="1.4387" stroke-linecap="round"/>
<path d="M158.996 75.7529C160.567 78.8706 162.786 85.2726 159.094 85.9382C155.402 86.6038 150.739 82.7166 148.87 80.6897" stroke="#AAAAAA" stroke-width="1.4387" stroke-linecap="round"/>
<path d="M145.992 79.1116C146.384 79.727 147.81 81.0168 148.87 80.5672" stroke="#AAAAAA" stroke-width="1.4387" stroke-linecap="round"/>
</g>
<path d="M163.658 33.0646C163.701 33.6059 163.151 33.9974 162.653 33.7802L157.228 31.4124C156.715 31.1887 156.643 30.4915 157.098 30.1671L162.06 26.6336C162.515 26.3093 163.15 26.6058 163.194 27.1632L163.658 33.0646Z" fill="#F36700"/>
<path d="M26.9812 53.9257C27.0238 54.4671 26.4741 54.8586 25.9763 54.6413L20.551 52.2735C20.0385 52.0498 19.966 51.3526 20.4214 51.0282L25.383 47.4947C25.8384 47.1704 26.4736 47.4669 26.5174 48.0243L26.9812 53.9257Z" fill="#F36700"/>
<path d="M158.65 126.526C158.168 126.778 157.593 126.425 157.597 125.882L157.65 119.963C157.655 119.404 158.268 119.064 158.745 119.356L163.94 122.536C164.417 122.828 164.393 123.528 163.897 123.787L158.65 126.526Z" fill="#95C03D"/>
<path d="M120.497 10.0454C120.539 10.5867 119.99 10.9782 119.492 10.761L114.067 8.39316C113.554 8.1695 113.482 7.47229 113.937 7.14793L118.899 3.61442C119.354 3.29006 119.989 3.58657 120.033 4.144L120.497 10.0454Z" fill="#95C03D"/>
<path d="M146.377 7.856C145.89 8.09525 145.323 7.72871 145.341 7.18597L145.541 1.26977C145.56 0.710946 146.181 0.386344 146.65 0.690028L151.765 3.99827C152.234 4.30195 152.193 5.00171 151.691 5.24805L146.377 7.856Z" fill="#5FC1E8"/>
<path d="M33.4556 107.809C33.3699 108.345 32.7437 108.597 32.3108 108.269L27.5927 104.694C27.147 104.356 27.2401 103.661 27.759 103.453L33.4112 101.182C33.93 100.974 34.4779 101.411 34.3896 101.963L33.4556 107.809Z" fill="#5FC1E8"/>
<path d="M5 75.5317C5 74.7371 5.64413 74.093 6.4387 74.093H26.5805C27.3751 74.093 28.0192 74.7371 28.0192 75.5317V85.6026C28.0192 86.3971 27.3751 87.0413 26.5805 87.0413H22.2644V89.9186L16.5096 87.0413H6.4387C5.64413 87.0413 5 86.3971 5 85.6026V75.5317Z" fill="#E2E2E2"/>
<circle cx="10.7546" cy="80.5671" r="1.4387" fill="white"/>
<circle cx="16.5095" cy="80.5671" r="1.4387" fill="white"/>
<circle cx="22.2644" cy="80.5671" r="1.4387" fill="white"/>
<path d="M195.627 93.5154C195.627 92.7208 194.983 92.0767 194.189 92.0767H174.047C173.252 92.0767 172.608 92.7208 172.608 93.5154V103.586C172.608 104.381 173.252 105.025 174.047 105.025H178.363V107.902L184.118 105.025H194.189C194.983 105.025 195.627 104.381 195.627 103.586V93.5154Z" fill="#E2E2E2"/>
<circle cx="1.4387" cy="1.4387" r="1.4387" transform="matrix(-1 0 0 1 191.312 97.1122)" fill="white"/>
<circle cx="1.4387" cy="1.4387" r="1.4387" transform="matrix(-1 0 0 1 185.557 97.1124)" fill="white"/>
<circle cx="1.4387" cy="1.4387" r="1.4387" transform="matrix(-1 0 0 1 179.802 97.1124)" fill="white"/>
<defs>
<filter id="filter0_d_2136_2298" x="77.3937" y="17.7305" width="107.803" height="119.153" filterUnits="userSpaceOnUse" color-interpolation-filters="sRGB">
<feFlood flood-opacity="0" result="BackgroundImageFix"/>
<feColorMatrix in="SourceAlpha" type="matrix" values="0 0 0 0 0 0 0 0 0 0 0 0 0 0 0 0 0 0 127 0" result="hardAlpha"/>
<feOffset dy="5.03545"/>
<feGaussianBlur stdDeviation="8.99187"/>
<feColorMatrix type="matrix" values="0 0 0 0 0.333333 0 0 0 0 0.333333 0 0 0 0 0.333333 0 0 0 0.15 0"/>
<feBlend mode="normal" in2="BackgroundImageFix" result="effect1_dropShadow_2136_2298"/>
<feBlend mode="normal" in="SourceGraphic" in2="effect1_dropShadow_2136_2298" result="shape"/>
</filter>
</defs>
</svg>
