<svg width="200" height="140" viewBox="0 0 200 140" fill="none" xmlns="http://www.w3.org/2000/svg">
<path d="M68.093 82.5962L139.353 76.6214L138.855 125.665C138.84 127.147 137.702 128.375 136.225 128.501L67.4954 134.386L68.093 82.5962Z" fill="#666666"/>
<path d="M41.9698 28.336C41.8215 27.9761 41.9847 27.5594 42.3381 27.3955L79.5592 10.1409L89.2206 14.2236L112.108 68.3205C112.261 68.6827 112.097 69.1051 111.739 69.2687L67.8932 89.3178C67.5258 89.4858 67.0966 89.3168 66.9427 88.9434L41.9698 28.336Z" fill="#444444" stroke="#AAAAAA" stroke-width="1.4387"/>
<path d="M51.3776 51.074C52.082 54.6707 52.082 61.1449 48.2078 63.3029C45.7716 64.6599 42.8074 64.2621 41.8682 64.0223" stroke="#AAAAAA" stroke-width="1.4387" stroke-linecap="round"/>
<path d="M38.6977 65.1012C39.0408 65.4286 39.3782 66.0964 40.4588 65.8205C41.5393 65.5447 41.5153 64.7415 41.8675 64.0221" stroke="#AAAAAA" stroke-width="1.4387" stroke-linecap="round"/>
<path d="M96.459 31.2919C97.531 33.0278 100.857 36.8043 105.264 37.0467C108.035 37.1992 110.547 35.608 110.899 34.1693" stroke="#AAAAAA" stroke-width="1.4387" stroke-linecap="round"/>
<path d="M113.365 34.1694C112.341 34.6158 111.606 34.5256 110.9 34.1694" stroke="#AAAAAA" stroke-width="1.4387" stroke-linecap="round"/>
<rect width="36.7562" height="1.43389" rx="0.716944" transform="matrix(0.912046 -0.410089 0.395914 0.918288 61.2393 58.9536)" fill="#808080"/>
<rect width="19.7918" height="1.43389" rx="0.716944" transform="matrix(0.912046 -0.410089 0.395914 0.918288 78.4141 55.9469)" fill="#808080"/>
<rect width="19.7918" height="1.43389" rx="0.716944" transform="matrix(0.912046 -0.410089 0.395914 0.918288 80.1172 59.8972)" fill="#808080"/>
<rect width="36.7562" height="1.43389" rx="0.716944" transform="matrix(0.912046 -0.410089 0.395914 0.918288 66.3486 70.8041)" fill="#808080"/>
<rect width="36.7562" height="1.43389" rx="0.716944" transform="matrix(0.912046 -0.410089 0.395914 0.918288 68.0518 74.7542)" fill="#9ADAF3"/>
<path d="M68.0224 62.1913L65.8574 67.8807L78.751 62.0833L71.6836 58.1871L70.5241 62.6384L68.0224 62.1913Z" fill="#9ADAF3"/>
<path d="M66.0635 34.476C65.4353 33.0222 63.6276 32.4287 62.026 33.1504C60.4244 33.8722 59.6353 35.6359 60.2635 37.0898" stroke="#AAAAAA" stroke-width="1.4387" stroke-linecap="round"/>
<path d="M77.6631 29.2485C77.0349 27.7946 75.2272 27.2011 73.6256 27.9229C72.024 28.6446 71.2349 30.4083 71.8631 31.8622" stroke="#AAAAAA" stroke-width="1.4387" stroke-linecap="round"/>
<path d="M67.5608 43.5522C69.6301 44.8159 72.1653 45.0925 74.4418 44.0666C76.7182 43.0408 78.227 40.9418 78.7076 38.5291C78.8133 37.9988 78.2782 37.6202 77.7888 37.8407L67.6822 42.3951C67.1928 42.6157 67.1061 43.2745 67.5608 43.5522Z" fill="#AAAAAA"/>
<path d="M79.5527 9.35156L89.7666 13.6677L88.71 14.7467L82.0181 17.9838L79.5527 11.1499V9.35156Z" fill="#AAAAAA"/>
<path d="M48.1045 84.7604C47.8186 83.5236 48.6571 82.3023 49.9147 82.124L73.1366 78.8316C73.3461 78.8019 73.5575 78.8661 73.7146 79.007L74.1958 78.4695L73.7146 79.007L78.427 83.2336C79.1975 83.9246 80.2303 84.247 81.2601 84.1178L121.206 79.1079C122.319 78.9684 123.348 79.7047 123.574 80.8023L132.534 124.188C132.833 125.634 133.611 126.911 134.714 127.831L61.4944 134.46C60.4256 134.557 59.4526 133.853 59.211 132.807L48.1045 84.7604Z" fill="#333333" stroke="#666666" stroke-width="1.4387"/>
<g filter="url(#filter0_d_413_60700)">
<path d="M122.492 31.8365C122.651 31.4705 123.075 31.308 123.438 31.4743L161.068 48.7366L165.063 58.255L141.347 112.708C141.189 113.071 140.768 113.234 140.406 113.07L96.6465 93.2966C96.2845 93.133 96.119 92.7049 96.277 92.3403L122.492 31.8365Z" fill="#4A4A4A" stroke="#AAAAAA" stroke-width="1.4387"/>
<path d="M110.913 86.9223L103.556 90.4626L120.948 98.3221L118.107 87.5988L112.763 90.3327L110.913 86.9223Z" fill="#FF6F3D"/>
<ellipse cx="2.12061" cy="2.15077" rx="2.12061" ry="2.15077" transform="matrix(0.911271 0.411806 -0.397595 0.917561 112.192 79.4197)" fill="#FF6F3D"/>
<rect width="19.9705" height="1.43385" rx="0.716923" transform="matrix(0.911271 0.411806 -0.397595 0.917561 110.586 74.0928)" fill="#FF6F3D"/>
<rect width="15.5512" height="1.43385" rx="0.716923" transform="matrix(0.911271 0.411806 -0.397595 0.917561 129.015 88.5948)" fill="#808080"/>
<rect width="15.5512" height="1.43385" rx="0.716923" transform="matrix(0.911271 0.411806 -0.397595 0.917561 127.59 91.8839)" fill="#808080"/>
<rect width="15.5512" height="1.43385" rx="0.716923" transform="matrix(0.911271 0.411806 -0.397595 0.917561 126.164 95.1729)" fill="#808080"/>
<rect width="15.5512" height="1.43385" rx="0.716923" transform="matrix(0.911271 0.411806 -0.397595 0.917561 124.739 98.4619)" fill="#808080"/>
<path d="M129.353 61.598C129.795 64.0183 131.27 66.1419 133.53 67.2054C135.79 68.269 138.329 68.0348 140.418 66.8059C140.877 66.5357 140.801 65.8753 140.315 65.6467L130.283 60.9246C129.797 60.696 129.256 61.0659 129.353 61.598Z" fill="#AAAAAA"/>
<path d="M161.616 48.1962L165.843 58.2671L164.216 58.7022L157.32 55.9484L160.56 49.2752L161.616 48.1962Z" fill="#AAAAAA"/>
<ellipse cx="2.12097" cy="2.15042" rx="2.12097" ry="2.15042" transform="matrix(0.90679 0.421583 -0.407169 0.913353 131.41 49.6349)" fill="#AAAAAA"/>
<ellipse cx="2.12097" cy="2.15042" rx="2.12097" ry="2.15042" transform="matrix(0.90679 0.421583 -0.407169 0.913353 143.292 55.2021)" fill="#AAAAAA"/>
<path d="M111.988 55.3899C108.701 56.349 102.62 59.0586 104.592 62.2237C106.565 65.3889 112.458 66.1801 115.158 66.1801" stroke="#AAAAAA" stroke-width="1.4387" stroke-linecap="round"/>
<path d="M115.478 66.1632C115.861 66.7786 116.887 67.897 117.924 67.4474" stroke="#AAAAAA" stroke-width="1.4387" stroke-linecap="round"/>
<path d="M157.796 75.7527C159.335 78.8705 161.508 85.2725 157.892 85.9381C154.277 86.6037 149.711 82.7164 147.881 80.6896" stroke="#AAAAAA" stroke-width="1.4387" stroke-linecap="round"/>
<path d="M145.062 79.1113C145.446 79.7267 146.843 81.0165 147.88 80.567" stroke="#AAAAAA" stroke-width="1.4387" stroke-linecap="round"/>
</g>
<path d="M162.359 33.0458C162.402 33.5939 161.853 33.9927 161.36 33.7727L156.07 31.4151C155.565 31.1899 155.497 30.4879 155.948 30.1596L160.785 26.6413C161.237 26.313 161.864 26.6086 161.907 27.17L162.359 33.0458Z" fill="#F36700"/>
<path d="M28.5235 53.9068C28.5657 54.4549 28.0174 54.8536 27.524 54.6337L22.2344 52.2761C21.729 52.0508 21.6606 51.3488 22.112 51.0205L26.9494 47.5023C27.4009 47.174 28.0281 47.4696 28.0713 48.0309L28.5235 53.9068Z" fill="#F36700"/>
<path d="M157.476 126.517C156.998 126.771 156.423 126.411 156.427 125.861L156.478 119.967C156.483 119.405 157.088 119.067 157.561 119.363L162.627 122.529C163.1 122.825 163.081 123.529 162.592 123.789L157.476 126.517Z" fill="#95C03D"/>
<path d="M120.096 10.0265C120.138 10.5746 119.59 10.9734 119.096 10.7535L113.807 8.39584C113.301 8.1706 113.233 7.4686 113.684 7.14029L118.522 3.62206C118.973 3.29375 119.6 3.58931 119.644 4.15067L120.096 10.0265Z" fill="#95C03D"/>
<path d="M145.457 7.84687C144.973 8.0892 144.407 7.71509 144.425 7.16536L144.62 1.27471C144.638 0.712413 145.252 0.389563 145.717 0.697077L150.704 3.99103C151.169 4.29855 151.133 5.0023 150.638 5.25017L145.457 7.84687Z" fill="#5FC1E8"/>
<path d="M34.8691 107.783C34.784 108.327 34.1533 108.585 33.7232 108.253L29.123 104.693C28.6852 104.354 28.7833 103.659 29.2986 103.448L34.8095 101.187C35.3249 100.976 35.8664 101.408 35.7798 101.962L34.8691 107.783Z" fill="#5FC1E8"/>
<path d="M7 75.5316C7 74.737 7.64413 74.0929 8.4387 74.0929H28.1022C28.8967 74.0929 29.5409 74.737 29.5409 75.5316V85.6025C29.5409 86.3971 28.8967 87.0412 28.1022 87.0412H23.9056V89.9186L18.2704 87.0412H8.4387C7.64413 87.0412 7 86.3971 7 85.6025V75.5316Z" fill="#444444"/>
<ellipse cx="12.6354" cy="80.5671" rx="1.4088" ry="1.4387" fill="#333333"/>
<ellipse cx="18.2701" cy="80.5671" rx="1.4088" ry="1.4387" fill="#333333"/>
<ellipse cx="23.9059" cy="80.5671" rx="1.4088" ry="1.4387" fill="#333333"/>
<path d="M193.667 93.5154C193.667 92.7208 193.023 92.0767 192.228 92.0767H172.565C171.77 92.0767 171.126 92.7208 171.126 93.5154V103.586C171.126 104.381 171.77 105.025 172.565 105.025H176.761V107.902L182.397 105.025H192.228C193.023 105.025 193.667 104.381 193.667 103.586V93.5154Z" fill="#444444"/>
<ellipse cx="1.4088" cy="1.4387" rx="1.4088" ry="1.4387" transform="matrix(-1 0 0 1 189.44 97.1122)" fill="#333333"/>
<ellipse cx="1.4088" cy="1.4387" rx="1.4088" ry="1.4387" transform="matrix(-1 0 0 1 183.806 97.1122)" fill="#333333"/>
<ellipse cx="1.4088" cy="1.4387" rx="1.4088" ry="1.4387" transform="matrix(-1 0 0 1 178.17 97.1122)" fill="#333333"/>
<defs>
<filter id="filter0_d_413_60700" x="77.5182" y="17.7371" width="106.308" height="119.14" filterUnits="userSpaceOnUse" color-interpolation-filters="sRGB">
<feFlood flood-opacity="0" result="BackgroundImageFix"/>
<feColorMatrix in="SourceAlpha" type="matrix" values="0 0 0 0 0 0 0 0 0 0 0 0 0 0 0 0 0 0 127 0" result="hardAlpha"/>
<feOffset dy="5.03545"/>
<feGaussianBlur stdDeviation="8.99187"/>
<feColorMatrix type="matrix" values="0 0 0 0 0 0 0 0 0 0 0 0 0 0 0 0 0 0 0.15 0"/>
<feBlend mode="normal" in2="BackgroundImageFix" result="effect1_dropShadow_413_60700"/>
<feBlend mode="normal" in="SourceGraphic" in2="effect1_dropShadow_413_60700" result="shape"/>
</filter>
</defs>
</svg>
