<svg width="200" height="140" viewBox="0 0 200 140" fill="none" xmlns="http://www.w3.org/2000/svg">
<g clip-path="url(#clip0_836_69133)">
<g filter="url(#filter0_d_836_69133)">
<path d="M63 31.0001C63 29.8955 63.8954 29.0001 65 29.0001H123L135 41.0001V123C135 124.105 134.105 125 133 125H65C63.8954 125 63 124.105 63 123V31.0001Z" fill="white"/>
<path d="M64 31.0001C64 30.4478 64.4477 30.0001 65 30.0001H122.586L134 41.4143V123C134 123.552 133.552 124 133 124H65C64.4477 124 64 123.552 64 123V31.0001Z" stroke="#AAAAAA" stroke-width="2"/>
</g>
<path d="M123 29.0001L135 41.0001H124C123.448 41.0001 123 40.5523 123 40.0001V29.0001Z" fill="#AAAAAA"/>
<path d="M93.2285 56.0001C93.2285 53.7909 91.2138 52.0001 88.7285 52.0001C86.2432 52.0001 84.2285 53.7909 84.2285 56.0001" stroke="#AAAAAA" stroke-width="2" stroke-linecap="round"/>
<path d="M115.121 56.0001C115.121 53.7909 113.106 52.0001 110.621 52.0001C108.136 52.0001 106.121 53.7909 106.121 56.0001" stroke="#AAAAAA" stroke-width="2" stroke-linecap="round"/>
<path d="M93.0353 66.3417C94.5951 69.1692 97.0877 71.0001 99.8965 71.0001C102.705 71.0001 105.198 69.1692 106.758 66.3417C107.101 65.72 106.62 65.0001 105.91 65.0001H93.883C93.173 65.0001 92.6923 65.72 93.0353 66.3417Z" fill="#AAAAAA"/>
<rect x="72" y="82.0001" width="8" height="8" rx="2" fill="#9E1919"/>
<rect x="84" y="82.0001" width="42" height="8" rx="2" fill="#E2E2E2"/>
<rect x="84" y="95.0001" width="42" height="8" rx="2" fill="#E2E2E2"/>
<rect x="84" y="108" width="42" height="8" rx="2" fill="#C57575"/>
<rect x="72" y="95.0001" width="8" height="8" rx="2" fill="#9E1919"/>
<path fill-rule="evenodd" clip-rule="evenodd" d="M102.208 110.406L102.331 110.048C102.823 109.093 103.437 107.66 103.315 106.705C103.315 106.228 102.946 105.87 101.839 105.87C101.347 105.87 100.855 106.108 100.487 106.347C100.118 106.586 99.8719 106.825 99.626 107.183C99.503 107.541 99.3801 107.899 99.3801 108.376C99.3801 108.854 99.626 109.331 99.8719 109.809C99.9948 109.928 100.241 110.286 100.61 110.644C101.347 111.48 102.331 112.674 102.946 113.748C103.437 113.39 103.806 113.032 104.052 112.793C104.421 112.435 104.667 112.196 105.036 112.435C105.528 112.674 105.528 113.39 105.528 114.225C105.528 114.703 105.405 115.18 105.528 115.18C105.528 115.18 105.651 114.822 106.142 113.629C106.142 113.509 106.142 113.27 106.142 113.151C106.265 112.912 106.388 112.674 106.511 112.435C107.126 111.599 107.618 111.599 107.618 112.554C107.987 111.957 108.478 111.241 108.601 110.883C109.093 107.302 109.954 103.721 111.06 103.124C111.675 102.886 112.044 103.005 112.29 103.363C112.905 104.437 110.446 109.689 109.954 110.764L109.708 111.122C109.585 111.838 109.462 112.554 109.462 113.27C109.585 113.151 109.708 113.032 109.954 113.032C110.323 112.793 110.692 112.674 111.06 112.554C111.921 112.196 112.782 111.838 113.396 111.122C113.274 112.077 113.028 112.793 111.552 113.509C111.183 113.629 110.815 113.867 110.569 113.987C110.077 114.225 109.708 114.703 109.462 115.18V115.3L109.339 116.135C109.093 117.806 109.093 119 108.478 119C108.11 119 107.864 118.403 107.864 117.09C107.864 116.493 107.987 115.777 108.356 115.061L108.601 113.39C108.11 113.987 107.618 114.464 107.126 114.345C106.265 115.777 105.651 116.135 105.282 116.016C104.79 115.777 104.667 114.942 104.667 114.106C104.667 113.987 104.667 113.867 104.667 113.748C104.421 113.987 104.052 114.345 103.56 114.583C103.929 115.538 103.806 116.374 103.192 116.971C102.331 117.806 101.101 117.806 100.241 117.568C99.7489 117.448 99.3801 117.09 99.1342 116.732C98.8883 116.374 98.7653 115.897 99.0112 115.419C99.2571 114.942 100.118 114.464 101.47 114.225C101.716 114.225 101.839 114.106 102.085 114.106C101.47 113.151 100.61 111.957 99.8719 111.241C99.503 110.764 99.2571 110.406 99.1342 110.286C98.7653 109.57 98.5194 108.973 98.3965 108.376C98.3965 107.78 98.5194 107.183 98.7653 106.586C99.0112 106.108 99.503 105.631 99.9948 105.392C100.487 105.034 101.101 104.915 101.839 104.795C103.683 104.676 104.421 105.392 104.544 106.586C104.544 108.018 103.806 110.167 102.208 110.406ZM102.331 116.374C102.577 116.135 102.577 115.658 102.454 115.18C102.208 115.3 101.839 115.3 101.593 115.419C100.487 115.538 99.9948 115.897 99.8719 116.135C99.8719 116.255 99.8719 116.255 99.8719 116.374C99.9948 116.493 100.241 116.613 100.487 116.732C101.101 116.851 101.839 116.851 102.331 116.374ZM110.692 106.944C111.06 105.87 111.429 104.915 111.552 104.318C111.183 104.795 110.937 105.75 110.692 106.944Z" fill="#333333"/>
<path d="M64.0345 77.6777C63.0143 81.7823 58.986 88.0376 53.7981 88.3405C50.5359 88.5311 48.2825 87.3566 47.4004 86.6345" stroke="#AAAAAA" stroke-width="2" stroke-linecap="round"/>
<path d="M42.7093 86.208C42.9135 86.7219 43.5623 87.4548 44.5241 87.6459C45.8105 87.9013 46.6718 87.2076 47.401 86.6345" stroke="#AAAAAA" stroke-width="2" stroke-linecap="round"/>
<path d="M134.464 76.8722C138.625 77.631 145.984 76.5328 148.394 71.929C149.91 69.034 149.767 66.497 149.471 65.3959" stroke="#AAAAAA" stroke-width="2" stroke-linecap="round"/>
<path d="M151.013 60.9448C151.397 61.3423 151.798 62.2352 151.577 63.1904C151.28 64.468 150.294 64.9677 149.471 65.3965" stroke="#AAAAAA" stroke-width="2" stroke-linecap="round"/>
<path d="M166.594 104.168C166.636 104.709 166.086 105.101 165.589 104.884L160.163 102.516C159.651 102.292 159.578 101.595 160.034 101.271L164.995 97.737C165.451 97.4127 166.086 97.7092 166.13 98.2666L166.594 104.168Z" fill="#F36700"/>
<path d="M30.5935 28.168C30.6361 28.7094 30.0864 29.1009 29.5887 28.8836L24.1633 26.5158C23.6508 26.2921 23.5783 25.5949 24.0337 25.2705L28.9953 21.737C29.4507 21.4127 30.0859 21.7092 30.1297 22.2666L30.5935 28.168Z" fill="#F36700"/>
<path d="M23.7449 70.8341C23.2634 71.0854 22.6878 70.7331 22.6926 70.19L22.745 64.2707C22.7499 63.7116 23.3629 63.3716 23.8399 63.6635L29.0351 66.8435C29.512 67.1354 29.4881 67.8359 28.9924 68.0947L23.7449 70.8341Z" fill="#95C03D"/>
<path d="M159.594 17.168C159.636 17.7094 159.086 18.1009 158.589 17.8836L153.163 15.5158C152.651 15.2921 152.578 14.5949 153.034 14.2705L157.995 10.737C158.451 10.4127 159.086 10.7092 159.13 11.2666L159.594 17.168Z" fill="#95C03D"/>
<path d="M182.876 41.1003C182.79 41.6365 182.164 41.8881 181.731 41.5601L177.013 37.9852C176.567 37.6475 176.66 36.9528 177.179 36.7444L182.831 34.4739C183.35 34.2654 183.898 34.7027 183.81 35.2549L182.876 41.1003Z" fill="#5FC1E8"/>
</g>
<defs>
<filter id="filter0_d_836_69133" x="48" y="21.0001" width="102" height="126" filterUnits="userSpaceOnUse" color-interpolation-filters="sRGB">
<feFlood flood-opacity="0" result="BackgroundImageFix"/>
<feColorMatrix in="SourceAlpha" type="matrix" values="0 0 0 0 0 0 0 0 0 0 0 0 0 0 0 0 0 0 127 0" result="hardAlpha"/>
<feOffset dy="7"/>
<feGaussianBlur stdDeviation="7.5"/>
<feColorMatrix type="matrix" values="0 0 0 0 0.333333 0 0 0 0 0.333333 0 0 0 0 0.333333 0 0 0 0.1 0"/>
<feBlend mode="normal" in2="BackgroundImageFix" result="effect1_dropShadow_836_69133"/>
<feBlend mode="normal" in="SourceGraphic" in2="effect1_dropShadow_836_69133" result="shape"/>
</filter>
<clipPath id="clip0_836_69133">
<rect width="200" height="140" fill="white"/>
</clipPath>
</defs>
</svg>
