<svg width="150" height="105" viewBox="0 0 150 105" fill="none" xmlns="http://www.w3.org/2000/svg">
<g clip-path="url(#clip0_1757_69269)">
<path d="M123.5 89H54.5V39.503C54.5 37.9871 55.2601 37 56.6371 37H81.6786C82.9595 37 84.3719 38.0898 84.5 39.5V42H121.21C122.106 42 123.5 43.2047 123.5 44.1918V89Z" fill="#333333" stroke="#AAAAAA" stroke-width="2"/>
<path d="M123.475 97H52.8297C51.5891 97 50.5552 96.0088 50.4863 94.699L47.5 56C47.3966 54.5486 49.4054 52.9646 50.7839 53H90.1124L96.3475 48H126.563C127.976 48 129.127 49.6333 128.989 51.0848L125.784 94.7343C125.715 96.0088 124.681 97 123.475 97Z" fill="#444444" stroke="#AAAAAA" stroke-width="2"/>
<path d="M41.002 63.4995C40.1614 68.9622 37.29 72.9135 40.5893 75.4335C42.8237 77.1401 47.1229 76.2687 48.9847 76.0827" stroke="#AAAAAA" stroke-width="2" stroke-linecap="round"/>
<path d="M137.376 64.5265C138.216 69.9891 139.414 72.932 136.115 75.452C133.881 77.1586 129.582 76.2871 127.72 76.1011" stroke="#AAAAAA" stroke-width="2" stroke-linecap="round"/>
<path d="M137.166 64.2327C137.357 64.7429 137.995 65.0535 138.939 65.2605C140.201 65.5373 140.747 65.0205 141.476 64.4703" stroke="#AAAAAA" stroke-width="2" stroke-linecap="round"/>
<path d="M135.305 19.2347L130.493 17.9452C129.276 17.6192 128.506 16.4216 128.716 15.1795L128.732 15.0838C128.881 14.1951 129.538 13.4765 130.409 13.2471C131.478 12.9658 132.596 13.4871 133.067 14.487L135.305 19.2347Z" fill="#5EA3BE" stroke="#9ADAF3" stroke-width="2"/>
<path d="M135.305 20.9997L130.493 22.2892C129.276 22.6152 128.506 23.8128 128.716 25.0549L128.732 25.1505C128.881 26.0392 129.538 26.7579 130.409 26.9873C131.478 27.2686 132.596 26.7473 133.067 25.7474L135.305 20.9997Z" fill="#5EA3BE" stroke="#9ADAF3" stroke-width="2"/>
<ellipse cx="138" cy="20" rx="2" ry="2" transform="rotate(90 138 20)" fill="#5EA3BE" stroke="#9ADAF3" stroke-width="2"/>
<path d="M21.4122 29.0036C24.8974 25.913 29.9635 23.7171 32.9072 22.5632C33.458 22.3472 34.0696 22.6632 34.2227 23.2346L39.4428 42.7162C39.6479 43.4817 38.917 44.1824 38.1412 44.0206C30.7438 42.4781 23.961 46.1417 17.0212 46.7116C11.8756 47.1342 6.7989 45.363 3.21958 43.4678C2.27146 42.9658 2.87104 40.9941 3.92386 40.7879C5.18196 40.5415 6.61381 40.1401 8.13409 39.522C14.4109 36.9701 16.4909 33.3675 21.4122 29.0036Z" fill="#5EA3BE" stroke="#9ADAF3" stroke-width="2"/>
<ellipse cx="36.8709" cy="33.1263" rx="2.94151" ry="11.7661" transform="rotate(-15 36.8709 33.1263)" fill="#5EA3BE" stroke="#9ADAF3" stroke-width="2"/>
<path d="M28.9865 24.798C28.7088 26.4676 28.4144 30.7808 29.4585 34.6774C30.5026 38.5741 32.8877 42.6044 33.5836 43.5781" stroke="#9ADAF3" stroke-width="2" stroke-linecap="round" stroke-dasharray="3 3"/>
<path d="M24.1192 27.4088C23.9768 29.0421 24.0602 32.3841 25.1043 36.2807C26.1484 40.1773 27.9636 43.0552 28.5783 44.0506" stroke="#9ADAF3" stroke-width="2" stroke-linecap="round" stroke-dasharray="3 3"/>
<path d="M20.0064 30.2505C19.864 31.8838 19.4052 34.501 20.4493 38.3976C21.4933 42.2942 22.9823 43.9545 23.597 44.9498" stroke="#9ADAF3" stroke-width="2" stroke-linecap="round" stroke-dasharray="3 3"/>
<path d="M15.8973 34.3964C15.4118 35.8316 15.441 37.5639 16.2023 40.4052C17.2464 44.3018 18.4366 45.172 19.0514 46.1674" stroke="#9ADAF3" stroke-width="2" stroke-linecap="round" stroke-dasharray="3 3"/>
<path d="M11.8097 37.6661C10.8969 44.0012 13.1732 46.0015 14.2025 46.5958" stroke="#9ADAF3" stroke-width="2" stroke-linecap="round" stroke-dasharray="3 3"/>
<rect x="37" y="43.2988" width="2" height="28" rx="1" transform="rotate(-8.59855 37 43.2988)" fill="#9ADAF3"/>
<path d="M39.6467 62.728C39.4724 62.2118 39.6053 61.6237 39.9313 60.9598C40.3673 60.0717 40.8824 60.2065 41.4988 60.2722" stroke="#AAAAAA" stroke-width="2" stroke-linecap="round"/>
<path d="M65 27.0249C65 16.3308 75.5357 5.20876 92.8143 8.63076C110.093 12.0528 112 33.5 101.664 32C95.9843 31.1757 97.0286 23.0666 101.664 20.5C105.373 18.4467 112.2 18.7167 124 20" stroke="#9ADAF3" stroke-width="2" stroke-linecap="round" stroke-dasharray="4 4"/>
<path d="M75 76H81.2976C81.7966 76 81.9877 75.3493 81.568 75.0794L76.7778 72" stroke="#AAAAAA" stroke-width="2" stroke-linecap="round"/>
<path d="M99 76H92.7024C92.2034 76 92.0123 75.3493 92.432 75.0794L97.2222 72" stroke="#AAAAAA" stroke-width="2" stroke-linecap="round"/>
<path d="M87.9334 83.7151C87.3532 82.7102 87.6975 81.4252 88.7024 80.845C89.7073 80.2648 90.9923 80.6091 91.5725 81.614L92.7419 83.6394L89.1027 85.7404L87.9334 83.7151Z" fill="#808080"/>
<path d="M82 83C82.5 84.5 85 86 87.5 86C90 86 92.5 84.5 93 83" stroke="#AAAAAA" stroke-width="2" stroke-linecap="round"/>
</g>
<defs>
<clipPath id="clip0_1757_69269">
<rect width="150" height="105" fill="white"/>
</clipPath>
</defs>
</svg>
