<svg width="200" height="140" viewBox="0 0 200 140" fill="none" xmlns="http://www.w3.org/2000/svg">
<ellipse cx="100" cy="68.5" rx="78" ry="38.5" stroke="#5EA3BE" stroke-width="2" stroke-linecap="round" stroke-dasharray="5 5"/>
<path d="M155.797 90.0005C155.797 89.4124 155.762 88.8333 155.695 88.2633L158 86.6361C157.55 84.3512 156.651 82.2266 155.399 80.3593L152.62 80.8385C151.9 79.9265 151.075 79.1013 150.164 78.382L150.643 75.6027C148.776 74.3498 146.652 73.4519 144.366 73.002L142.739 75.3072C142.169 75.2406 141.59 75.2053 141.002 75.2053C140.414 75.2053 139.835 75.2406 139.265 75.3072L137.635 73C135.35 73.4499 133.225 74.3488 131.358 75.6007L131.837 78.38C130.925 79.1003 130.1 79.9255 129.381 80.8365L126.602 80.3573C125.349 82.2266 124.45 84.3501 124 86.6351L126.305 88.2623C126.238 88.8323 126.203 89.4114 126.203 89.9995C126.203 90.5876 126.238 91.1667 126.305 91.7367L124 93.3659C124.45 95.6509 125.349 97.7754 126.601 99.6427L129.38 99.1635C130.1 100.076 130.925 100.901 131.836 101.62L131.357 104.399C133.224 105.652 135.348 106.55 137.634 107L139.261 104.695C139.831 104.761 140.41 104.797 140.998 104.797C141.586 104.797 142.165 104.761 142.735 104.695L144.362 107C146.647 106.55 148.772 105.651 150.639 104.399L150.16 101.62C151.072 100.9 151.897 100.075 152.616 99.1635L155.395 99.6427C156.648 97.7754 157.546 95.6519 157.996 93.3659L155.691 91.7387C155.757 91.1687 155.793 90.5897 155.793 90.0015L155.797 90.0005ZM141 97.4334C136.895 97.4334 133.567 94.1054 133.567 90.0005C133.567 85.8956 136.895 82.5676 141 82.5676C145.105 82.5676 148.433 85.8956 148.433 90.0005C148.433 94.1054 145.105 97.4334 141 97.4334Z" fill="#444444" stroke="#5EA3BE" stroke-width="2" stroke-miterlimit="10"/>
<path d="M79.9544 85.5007C79.9544 84.6877 79.9056 83.8872 79.8136 83.0993L83 80.8499C82.3781 77.6913 81.1356 74.7544 79.405 72.1731L75.5632 72.8355C74.5675 71.5749 73.4268 70.4341 72.1676 69.4398L72.83 65.5979C70.2488 63.8659 67.3133 62.6248 64.1534 62.0028L61.9041 65.1893C61.1162 65.0973 60.3158 65.0485 59.5028 65.0485C58.6898 65.0485 57.8894 65.0973 57.1015 65.1893L54.848 62C51.6894 62.622 48.7526 63.8645 46.1714 65.5951L46.8338 69.4371C45.5732 70.4328 44.4325 71.5735 43.4382 72.8327L39.5964 72.1703C37.8644 74.7544 36.6219 77.6899 36 80.8485L39.1864 83.0979C39.0944 83.8858 39.0456 84.6863 39.0456 85.4993C39.0456 86.3123 39.0944 87.1128 39.1864 87.9007L36 90.1529C36.6219 93.3115 37.8644 96.2484 39.595 98.8297L43.4368 98.1673C44.4325 99.4279 45.5732 100.569 46.8324 101.563L46.17 105.405C48.7512 107.137 51.6867 108.378 54.8466 109L57.0959 105.813C57.8838 105.906 58.6842 105.954 59.4972 105.954C60.3102 105.954 61.1106 105.906 61.8985 105.813L64.1478 109C67.3064 108.378 70.2432 107.136 72.8244 105.405L72.162 101.563C73.4226 100.567 74.5633 99.4265 75.5576 98.1673L79.3994 98.8297C81.1314 96.2484 82.3725 93.3129 82.9944 90.1529L79.808 87.9035C79.9 87.1156 79.9488 86.3151 79.9488 85.5021L79.9544 85.5007ZM59.5 95.7756C53.8258 95.7756 49.2254 91.1751 49.2254 85.5007C49.2254 79.8263 53.8258 75.2258 59.5 75.2258C65.1742 75.2258 69.7746 79.8263 69.7746 85.5007C69.7746 91.1751 65.1742 95.7756 59.5 95.7756Z" fill="#444444" stroke="#5EA3BE" stroke-width="2" stroke-miterlimit="10"/>
<rect x="61" y="90" width="30" height="38" rx="2" fill="#555555" stroke="#CCCCCC" stroke-width="2" stroke-linecap="round" stroke-dasharray="4 4"/>
<rect x="107" y="90" width="30" height="38" rx="2" fill="#555555" stroke="#CCCCCC" stroke-width="2" stroke-linecap="round" stroke-dasharray="4 4"/>
<path d="M78 75H113.916L121 82.1602V134C121 134.552 120.552 135 120 135H78C77.4477 135 77 134.552 77 134V76C77 75.4477 77.4477 75 78 75Z" fill="#444444" stroke="#AAAAAA" stroke-width="2"/>
<path d="M114 75L122 83H115C114.448 83 114 82.5523 114 82V75Z" fill="#AAAAAA"/>
<path fill-rule="evenodd" clip-rule="evenodd" d="M107.231 120.75C104.319 120.763 101.849 118.912 100.955 116.321L86.3161 116.102C85.7902 116.104 85.3663 115.682 85.3684 115.158L85.3723 114.212C85.3744 113.691 85.4482 112.511 85.974 112.509L87.2823 112.513L87.2947 109.471C87.2968 108.948 87.7242 108.522 88.2501 108.52L89.9463 108.513C90.4722 108.511 90.8908 108.934 90.8897 109.457L91.0335 112.52L100.802 112.539C101.536 109.655 104.164 107.509 107.285 107.497C110.965 107.482 113.934 110.436 113.919 114.096C113.905 117.756 110.91 120.736 107.231 120.75ZM105.121 116.449C103.936 115.264 103.944 113.333 105.138 112.138C106.334 110.943 108.264 110.936 109.449 112.121C110.635 113.307 110.627 115.236 109.431 116.431C108.237 117.626 106.307 117.635 105.121 116.449Z" fill="#E2E2E2"/>
<path d="M103 90C103 91.1046 104.343 92 106 92C107.657 92 109 91.1046 109 90" stroke="#AAAAAA" stroke-width="2" stroke-linecap="round"/>
<path d="M88 90C88 91.1046 89.3431 92 91 92C92.6569 92 94 91.1046 94 90" stroke="#AAAAAA" stroke-width="2" stroke-linecap="round"/>
<path d="M94 99C94 100.105 96.0147 101 98.5 101C100.985 101 103 100.105 103 99" stroke="#AAAAAA" stroke-width="2" stroke-linecap="round"/>
<path d="M76.9993 105.5C70.9831 112.548 69.219 117.779 72.729 119.184C76.239 120.59 81.6299 117.697 83.8866 116.075" stroke="#AAAAAA" stroke-width="2" stroke-linecap="round"/>
<path d="M84 116.13C84.6822 116.403 86.7456 116.793 87.8 116.13" stroke="#AAAAAA" stroke-width="2" stroke-linecap="round"/>
<path d="M121.064 105.707C127.08 112.755 127.589 117.779 124.079 119.184C120.569 120.59 115.178 117.698 112.921 116.076" stroke="#AAAAAA" stroke-width="2" stroke-linecap="round"/>
<path d="M112.664 115.87C111.982 116.144 110.918 116.115 109.864 115.452" stroke="#AAAAAA" stroke-width="2" stroke-linecap="round"/>
<circle cx="100" cy="32" r="25" fill="#666666"/>
<path d="M115.327 37.6964L116.381 36.6434C116.427 36.4796 116.47 36.3143 116.512 36.148L115.145 37.5146L113.434 35.8035L115.145 34.0924L116.642 35.5888C116.663 35.4884 116.684 35.388 116.703 35.2865L115.327 33.9102L117.018 32.2186C117.02 32.146 117.021 32.0734 117.021 32.0003C117.021 31.9385 117.02 31.8772 117.018 31.816L115.326 30.1239L116.708 28.7424C116.688 28.641 116.668 28.54 116.647 28.4396L115.145 29.9416L113.434 28.2306L115.145 26.5195L116.522 27.8969C116.481 27.7316 116.438 27.5668 116.392 27.4031L115.326 26.3372L115.858 25.8058C115.824 25.7188 115.788 25.6328 115.753 25.5463L115.144 26.1554L113.433 24.4443L114.611 23.2662C114.566 23.1905 114.52 23.1153 114.473 23.0401L113.251 24.2621L111.54 22.551L113.035 21.0561C112.979 20.9902 112.924 20.9238 112.868 20.8589L111.358 22.3692L109.647 20.6581L111.158 19.1468C111.093 19.0902 111.027 19.0351 110.961 18.9795L109.465 20.4758L107.754 18.7647L108.98 17.5387C108.905 17.4919 108.83 17.4455 108.755 17.4002L107.572 18.5825L105.861 16.8714L106.477 16.2555C106.391 16.22 106.305 16.1845 106.218 16.1505L105.679 16.6896L104.597 15.6072C104.433 15.5614 104.268 15.5187 104.103 15.4775L105.497 16.8714L103.786 18.5825L102.074 16.8714L103.587 15.3585C103.487 15.3369 103.386 15.3163 103.285 15.2967L101.892 16.6896L100.185 14.9811C100.123 14.9806 100.062 14.9785 100 14.9785C99.9385 14.9785 99.8772 14.9801 99.816 14.9811L98.1069 16.6901L96.7141 15.2973C96.6131 15.3168 96.5122 15.3379 96.4118 15.359L97.9247 16.8719L96.2136 18.583L94.5025 16.8719L95.8964 15.478C95.7311 15.5192 95.5663 15.5619 95.4026 15.6078L94.3202 16.6901L93.7811 16.151C93.6941 16.185 93.6081 16.2205 93.5221 16.256L94.1379 16.8719L92.4268 18.583L91.2446 17.4007C91.1689 17.446 91.0937 17.4924 91.019 17.5392L92.2451 18.7653L90.534 20.4763L89.0376 18.98C88.9717 19.0356 88.9058 19.0907 88.8409 19.1473L90.3522 20.6586L88.6411 22.3697L87.1309 20.8594C87.0747 20.9243 87.0196 20.9908 86.964 21.0567L88.4588 22.5515L86.7477 24.2626L85.5258 23.0407C85.4795 23.1158 85.4332 23.191 85.3878 23.2667L86.566 24.4448L84.8549 26.1559L84.2457 25.5468C84.2102 25.6328 84.1752 25.7193 84.1412 25.8063L84.6726 26.3377L83.6067 27.4036C83.5609 27.5673 83.5182 27.7316 83.477 27.8974L84.8544 26.52L86.5655 28.2311L84.8544 29.9422L83.3523 28.4401C83.3307 28.5405 83.3106 28.6415 83.2911 28.7429L84.6726 30.1244L82.9811 31.816C82.9806 31.8772 82.9785 31.9385 82.9785 32.0003C82.9785 32.0734 82.9806 32.146 82.9811 32.2186L84.6726 33.9102L83.2962 35.2865C83.3158 35.3875 83.3369 35.4884 83.358 35.5888L84.8544 34.0924L86.5655 35.8035L84.8544 37.5146L83.4878 36.148C83.5295 36.3138 83.5727 36.4791 83.6191 36.6434L84.6721 37.6964L84.15 38.2185C84.1839 38.3055 84.2195 38.3915 84.255 38.4775L84.8544 37.8781L86.5655 39.5892L85.4002 40.7545C85.4455 40.8302 85.4919 40.9054 85.5387 40.98L86.7477 39.771L88.4588 41.4821L86.9789 42.962C87.0346 43.0279 87.0897 43.0938 87.1463 43.1587L88.6406 41.6644L90.3517 43.3755L88.8584 44.8687C88.9233 44.9249 88.9897 44.98 89.0556 45.0356L90.534 43.5572L92.2451 45.2683L91.0396 46.4737C91.1148 46.5201 91.19 46.5664 91.2657 46.6117L92.4268 45.4506L94.1379 47.1617L93.5458 47.7538C93.6317 47.7894 93.7183 47.8244 93.8053 47.8584L94.3202 47.3434L95.3567 48.38C95.5205 48.4263 95.6858 48.4696 95.8521 48.5113L94.5025 47.1617L96.2136 45.4506L97.9247 47.1617L96.4391 48.6472C96.5395 48.6689 96.6404 48.6889 96.7419 48.7085L98.1069 47.3434L99.782 49.0185C99.8546 49.0195 99.9272 49.0211 100 49.0211C100.073 49.0211 100.146 49.019 100.219 49.0185L101.894 47.3434L103.259 48.7085C103.36 48.6889 103.461 48.6683 103.562 48.6472L102.076 47.1617L103.787 45.4506L105.498 47.1617L104.149 48.5113C104.314 48.4696 104.48 48.4263 104.644 48.38L105.68 47.3434L106.195 47.8584C106.282 47.8244 106.368 47.7889 106.455 47.7538L105.863 47.1617L107.574 45.4506L108.735 46.6117C108.811 46.5664 108.886 46.5201 108.961 46.4737L107.756 45.2683L109.467 43.5572L110.945 45.0356C111.011 44.98 111.077 44.9249 111.142 44.8687L109.649 43.3755L111.36 41.6644L112.854 43.1587C112.911 43.0938 112.966 43.0279 113.022 42.962L111.542 41.4821L113.253 39.771L114.462 40.98C114.509 40.9054 114.555 40.8302 114.6 40.7545L113.435 39.5892L115.146 37.8781L115.746 38.4775C115.781 38.3915 115.817 38.3055 115.851 38.2185L115.329 37.6964H115.327ZM113.252 35.6212L111.541 33.9102L113.252 32.1991L114.963 33.9102L113.252 35.6212ZM94.1389 32.0168L92.4279 33.7279L90.7168 32.0168L92.4279 30.3057L94.1389 32.0168ZM92.6096 30.1239L94.3207 28.4128L96.0318 30.1239L94.3207 31.835L92.6096 30.1239ZM94.3207 32.1991L96.0318 33.9102L94.3207 35.6212L92.6096 33.9102L94.3207 32.1991ZM94.503 32.0168L96.2141 30.3057L97.9252 32.0168L96.2141 33.7279L94.503 32.0168ZM100.182 30.1239L101.893 28.4128L103.604 30.1239L101.893 31.835L100.182 30.1239ZM101.711 32.0168L100 33.7279L98.2892 32.0168L100 30.3057L101.711 32.0168ZM100 29.9416L98.2892 28.2306L100 26.5195L101.711 28.2306L100 29.9416ZM99.818 30.1239L98.1069 31.835L96.3959 30.1239L98.1069 28.4128L99.818 30.1239ZM98.1069 32.1991L99.818 33.9102L98.1069 35.6212L96.3959 33.9102L98.1069 32.1991ZM100 34.0919L101.711 35.803L100 37.5141L98.2892 35.803L100 34.0919ZM100.182 33.9102L101.893 32.1991L103.604 33.9102L101.893 35.6212L100.182 33.9102ZM102.075 32.0168L103.787 30.3057L105.498 32.0168L103.787 33.7279L102.075 32.0168ZM103.969 30.1239L105.68 28.4128L107.391 30.1239L105.68 31.835L103.969 30.1239ZM105.68 32.1991L107.391 33.9102L105.68 35.6212L103.969 33.9102L105.68 32.1991ZM105.862 32.0168L107.573 30.3057L109.284 32.0168L107.573 33.7279L105.862 32.0168ZM107.755 30.1239L109.466 28.4128L111.177 30.1239L109.466 31.835L107.755 30.1239ZM107.573 29.9416L105.862 28.2306L107.573 26.5195L109.284 28.2306L107.573 29.9416ZM105.68 28.0488L103.969 26.3377L105.68 24.6266L107.391 26.3377L105.68 28.0488ZM105.498 28.2306L103.787 29.9416L102.075 28.2306L103.787 26.5195L105.498 28.2306ZM101.893 28.0488L100.182 26.3377L101.893 24.6266L103.604 26.3377L101.893 28.0488ZM100 26.1554L98.2892 24.4443L100 22.7332L101.711 24.4443L100 26.1554ZM99.818 26.3377L98.1069 28.0488L96.3959 26.3377L98.1069 24.6266L99.818 26.3377ZM97.9252 28.2306L96.2141 29.9416L94.503 28.2306L96.2141 26.5195L97.9252 28.2306ZM94.3207 28.0488L92.6096 26.3377L94.3207 24.6266L96.0318 26.3377L94.3207 28.0488ZM94.1389 28.2306L92.4279 29.9416L90.7168 28.2306L92.4279 26.5195L94.1389 28.2306ZM92.2456 30.1239L90.5345 31.835L88.8234 30.1239L90.5345 28.4128L92.2456 30.1239ZM92.2456 33.9102L90.5345 35.6212L88.8234 33.9102L90.5345 32.1991L92.2456 33.9102ZM92.4273 34.0919L94.1384 35.803L92.4273 37.5141L90.7163 35.803L92.4273 34.0919ZM94.3207 35.9853L96.0318 37.6964L94.3207 39.4075L92.6096 37.6964L94.3207 35.9853ZM94.503 35.8035L96.2141 34.0924L97.9252 35.8035L96.2141 37.5146L94.503 35.8035ZM98.1069 35.9853L99.818 37.6964L98.1069 39.4075L96.3959 37.6964L98.1069 35.9853ZM100 37.8787L101.711 39.5897L100 41.3008L98.2892 39.5897L100 37.8787ZM100.182 37.6964L101.893 35.9853L103.604 37.6964L101.893 39.4075L100.182 37.6964ZM102.075 35.8035L103.787 34.0924L105.498 35.8035L103.787 37.5146L102.075 35.8035ZM105.68 35.9853L107.391 37.6964L105.68 39.4075L103.969 37.6964L105.68 35.9853ZM105.862 35.8035L107.573 34.0924L109.284 35.8035L107.573 37.5146L105.862 35.8035ZM107.755 33.9102L109.466 32.1991L111.177 33.9102L109.466 35.6212L107.755 33.9102ZM109.648 32.0168L111.359 30.3057L113.07 32.0168L111.359 33.7279L109.648 32.0168ZM109.648 28.2306L111.359 26.5195L113.07 28.2306L111.359 29.9416L109.648 28.2306ZM109.466 28.0488L107.755 26.3377L109.466 24.6266L111.177 26.3377L109.466 28.0488ZM107.573 26.1554L105.862 24.4443L107.573 22.7332L109.284 24.4443L107.573 26.1554ZM105.68 24.2621L103.969 22.551L105.68 20.8399L107.391 22.551L105.68 24.2621ZM105.498 24.4443L103.787 26.1554L102.075 24.4443L103.787 22.7332L105.498 24.4443ZM101.893 24.2621L100.182 22.551L101.893 20.8399L103.604 22.551L101.893 24.2621ZM100 22.3692L98.2892 20.6581L100 18.947L101.711 20.6581L100 22.3692ZM99.818 22.551L98.1069 24.2621L96.3959 22.551L98.1069 20.8399L99.818 22.551ZM97.9252 24.4443L96.2141 26.1554L94.503 24.4443L96.2141 22.7332L97.9252 24.4443ZM94.3207 24.2621L92.6096 22.551L94.3207 20.8399L96.0318 22.551L94.3207 24.2621ZM94.1389 24.4443L92.4279 26.1554L90.7168 24.4443L92.4279 22.7332L94.1389 24.4443ZM92.2456 26.3377L90.5345 28.0488L88.8234 26.3377L90.5345 24.6266L92.2456 26.3377ZM90.3522 28.2306L88.6411 29.9416L86.93 28.2306L88.6411 26.5195L90.3522 28.2306ZM90.3522 32.0168L88.6411 33.7279L86.93 32.0168L88.6411 30.3057L90.3522 32.0168ZM90.3522 35.8035L88.6411 37.5146L86.93 35.8035L88.6411 34.0924L90.3522 35.8035ZM90.5345 35.9853L92.2456 37.6964L90.5345 39.4075L88.8234 37.6964L90.5345 35.9853ZM92.4273 37.8787L94.1384 39.5897L92.4273 41.3008L90.7163 39.5897L92.4273 37.8787ZM94.3207 39.7715L96.0318 41.4826L94.3207 43.1937L92.6096 41.4826L94.3207 39.7715ZM94.503 39.5897L96.2141 37.8787L97.9252 39.5897L96.2141 41.3008L94.503 39.5897ZM98.1069 39.7715L99.818 41.4826L98.1069 43.1937L96.3959 41.4826L98.1069 39.7715ZM100 41.6649L101.711 43.376L100 45.0871L98.2892 43.376L100 41.6649ZM100.182 41.4826L101.893 39.7715L103.604 41.4826L101.893 43.1937L100.182 41.4826ZM102.075 39.5897L103.787 37.8787L105.498 39.5897L103.787 41.3008L102.075 39.5897ZM105.68 39.7715L107.391 41.4826L105.68 43.1937L103.969 41.4826L105.68 39.7715ZM105.862 39.5897L107.573 37.8787L109.284 39.5897L107.573 41.3008L105.862 39.5897ZM107.755 37.6964L109.466 35.9853L111.177 37.6964L109.466 39.4075L107.755 37.6964ZM109.648 35.8035L111.359 34.0924L113.07 35.8035L111.359 37.5146L109.648 35.8035ZM116.857 32.0168L115.146 33.7279L113.435 32.0168L115.146 30.3057L116.857 32.0168ZM114.963 30.1239L113.252 31.835L111.541 30.1239L113.252 28.4128L114.963 30.1239ZM114.963 26.3377L113.252 28.0488L111.541 26.3377L113.252 24.6266L114.963 26.3377ZM113.07 24.4443L111.359 26.1554L109.648 24.4443L111.359 22.7332L113.07 24.4443ZM111.177 22.551L109.466 24.2621L107.755 22.551L109.466 20.8399L111.177 22.551ZM109.284 20.6581L107.573 22.3692L105.862 20.6581L107.573 18.947L109.284 20.6581ZM105.68 17.0537L107.391 18.7647L105.68 20.4758L103.969 18.7647L105.68 17.0537ZM105.498 20.6581L103.787 22.3692L102.075 20.6581L103.787 18.947L105.498 20.6581ZM103.604 18.7647L101.893 20.4758L100.182 18.7647L101.893 17.0537L103.604 18.7647ZM100 15.1608L101.711 16.8719L100 18.583L98.2892 16.8719L100 15.1608ZM98.1069 17.0537L99.818 18.7647L98.1069 20.4758L96.3959 18.7647L98.1069 17.0537ZM97.9252 20.6581L96.2141 22.3692L94.503 20.6581L96.2141 18.947L97.9252 20.6581ZM94.3207 17.0537L96.0318 18.7647L94.3207 20.4758L92.6096 18.7647L94.3207 17.0537ZM92.4273 18.947L94.1384 20.6581L92.4273 22.3692L90.7163 20.6581L92.4273 18.947ZM90.5345 20.8399L92.2456 22.551L90.5345 24.2621L88.8234 22.551L90.5345 20.8399ZM88.6411 22.7332L90.3522 24.4443L88.6411 26.1554L86.93 24.4443L88.6411 22.7332ZM85.0372 26.3377L86.7483 24.6266L88.4594 26.3377L86.7483 28.0488L85.0372 26.3377ZM86.7483 28.4128L88.4594 30.1239L86.7483 31.835L85.0372 30.1239L86.7483 28.4128ZM83.1438 32.0168L84.8549 30.3057L86.566 32.0168L84.8549 33.7279L83.1438 32.0168ZM85.0372 33.9102L86.7483 32.1991L88.4594 33.9102L86.7483 35.6212L85.0372 33.9102ZM85.0372 37.6964L86.7483 35.9853L88.4594 37.6964L86.7483 39.4075L85.0372 37.6964ZM86.93 39.5897L88.6411 37.8787L90.3522 39.5897L88.6411 41.3008L86.93 39.5897ZM88.8234 41.4826L90.5345 39.7715L92.2456 41.4826L90.5345 43.1937L88.8234 41.4826ZM90.7163 43.376L92.4273 41.6649L94.1384 43.376L92.4273 45.0871L90.7163 43.376ZM94.3207 46.9804L92.6096 45.2693L94.3207 43.5583L96.0318 45.2693L94.3207 46.9804ZM94.503 43.376L96.2141 41.6649L97.9252 43.376L96.2141 45.0871L94.503 43.376ZM96.3959 45.2693L98.1069 43.5583L99.818 45.2693L98.1069 46.9804L96.3959 45.2693ZM100 48.8733L98.2892 47.1622L100 45.4511L101.711 47.1622L100 48.8733ZM101.893 46.9804L100.182 45.2693L101.893 43.5583L103.604 45.2693L101.893 46.9804ZM102.075 43.376L103.787 41.6649L105.498 43.376L103.787 45.0871L102.075 43.376ZM105.68 46.9804L103.969 45.2693L105.68 43.5583L107.391 45.2693L105.68 46.9804ZM107.573 45.0871L105.862 43.376L107.573 41.6649L109.284 43.376L107.573 45.0871ZM109.466 43.1937L107.755 41.4826L109.466 39.7715L111.177 41.4826L109.466 43.1937ZM111.359 41.3008L109.648 39.5897L111.359 37.8787L113.07 39.5897L111.359 41.3008ZM113.252 39.4075L111.541 37.6964L113.252 35.9853L114.963 37.6964L113.252 39.4075Z" fill="#E2E2E2"/>
<path d="M103.013 37.1678H97.3572C97.1276 37.8845 96.8958 38.6085 96.6636 39.3325C96.522 39.7733 96.4087 40.2264 96.2311 40.6523C95.7733 41.7496 94.7301 42.2253 93.691 41.8412C92.6204 41.4458 92.0849 40.4535 92.4268 39.3361C93.3985 36.1642 94.4021 33.0021 95.3984 29.8379C95.8851 28.2926 96.3737 26.7473 96.8799 25.2082C97.2815 23.9858 97.9066 23.5239 99.1739 23.4858C99.7156 23.4693 100.258 23.476 100.8 23.4837C102.28 23.5043 102.882 23.9322 103.356 25.3519C104.541 28.9038 105.712 32.4604 106.888 36.0154C107.227 37.0421 107.575 38.0663 107.897 39.0987C108.313 40.4298 107.807 41.5163 106.618 41.8937C105.566 42.2274 104.561 41.6466 104.112 40.4257C103.913 39.8824 103.749 39.3258 103.565 38.7769C103.394 38.2682 103.217 37.7615 103.014 37.1673L103.013 37.1678Z" fill="#E2E2E2"/>
<mask id="path-19-inside-1_1485_66728" fill="white">
<path fill-rule="evenodd" clip-rule="evenodd" d="M41.4805 24.0136C41.5558 24.0168 41.6315 24.0184 41.7076 24.0184C44.5981 24.0184 46.9414 21.6751 46.9414 18.7846C46.9414 15.894 44.5981 13.5508 41.7076 13.5508C40.9856 13.5508 40.2977 13.697 39.6719 13.9614C38.6285 11.0682 35.8587 9 32.6059 9C28.5326 9 25.2167 12.2431 25.0997 16.2881C25.023 16.2836 24.9457 16.2812 24.8679 16.2812C22.7314 16.2812 20.9994 18.0132 20.9994 20.1497C20.9994 22.2862 22.7314 24.0182 24.8679 24.0182C24.9446 24.0182 25.0208 24.016 25.0964 24.0116V24.0189H41.4805V24.0136Z"/>
</mask>
<path fill-rule="evenodd" clip-rule="evenodd" d="M41.4805 24.0136C41.5558 24.0168 41.6315 24.0184 41.7076 24.0184C44.5981 24.0184 46.9414 21.6751 46.9414 18.7846C46.9414 15.894 44.5981 13.5508 41.7076 13.5508C40.9856 13.5508 40.2977 13.697 39.6719 13.9614C38.6285 11.0682 35.8587 9 32.6059 9C28.5326 9 25.2167 12.2431 25.0997 16.2881C25.023 16.2836 24.9457 16.2812 24.8679 16.2812C22.7314 16.2812 20.9994 18.0132 20.9994 20.1497C20.9994 22.2862 22.7314 24.0182 24.8679 24.0182C24.9446 24.0182 25.0208 24.016 25.0964 24.0116V24.0189H41.4805V24.0136Z" fill="#444444"/>
<path d="M41.4805 24.0136H39.4805V21.9263L41.5658 22.0154L41.4805 24.0136ZM39.6719 13.9614L40.4504 15.8037L38.5065 16.6251L37.7905 14.6399L39.6719 13.9614ZM25.0997 16.2881L27.0988 16.3459L27.0392 18.4062L24.9817 18.2846L25.0997 16.2881ZM25.0964 24.0116L24.9801 22.0149L27.0964 21.8917V24.0116H25.0964ZM25.0964 24.0189V26.0189H23.0964V24.0189H25.0964ZM41.4805 24.0189H43.4805V26.0189H41.4805V24.0189ZM41.5658 22.0154C41.6127 22.0174 41.66 22.0184 41.7076 22.0184V26.0184C41.603 26.0184 41.4989 26.0162 41.3951 26.0117L41.5658 22.0154ZM41.7076 22.0184C43.4936 22.0184 44.9414 20.5706 44.9414 18.7846H48.9414C48.9414 22.7797 45.7027 26.0184 41.7076 26.0184V22.0184ZM44.9414 18.7846C44.9414 16.9986 43.4936 15.5508 41.7076 15.5508V11.5508C45.7027 11.5508 48.9414 14.7895 48.9414 18.7846H44.9414ZM41.7076 15.5508C41.2578 15.5508 40.8343 15.6415 40.4504 15.8037L38.8934 12.1192C39.7611 11.7525 40.7133 11.5508 41.7076 11.5508V15.5508ZM37.7905 14.6399C37.024 12.5145 34.9892 11 32.6059 11V7C36.7282 7 40.233 9.62201 41.5533 13.2829L37.7905 14.6399ZM32.6059 11C29.6177 11 27.1847 13.3794 27.0988 16.3459L23.1005 16.2302C23.2488 11.1068 27.4474 7 32.6059 7V11ZM24.9817 18.2846C24.9442 18.2824 24.9062 18.2812 24.8679 18.2812V14.2812C24.9851 14.2812 25.1018 14.2847 25.2177 14.2916L24.9817 18.2846ZM24.8679 18.2812C23.8359 18.2812 22.9994 19.1178 22.9994 20.1497H18.9994C18.9994 16.9087 21.6268 14.2812 24.8679 14.2812V18.2812ZM22.9994 20.1497C22.9994 21.1816 23.8359 22.0182 24.8679 22.0182V26.0182C21.6268 26.0182 18.9994 23.3908 18.9994 20.1497H22.9994ZM24.8679 22.0182C24.9058 22.0182 24.9432 22.0171 24.9801 22.0149L25.2127 26.0082C25.0984 26.0148 24.9834 26.0182 24.8679 26.0182V22.0182ZM27.0964 24.0116V24.0189H23.0964V24.0116H27.0964ZM25.0964 22.0189H41.4805V26.0189H25.0964V22.0189ZM39.4805 24.0189V24.0136H43.4805V24.0189H39.4805Z" fill="#5EA3BE" mask="url(#path-19-inside-1_1485_66728)"/>
<path d="M176.781 108.831C177.639 105.63 180.929 103.73 184.13 104.588V104.588C187.33 105.446 189.23 108.736 188.372 111.937L186.819 117.732L175.228 114.626L176.781 108.831Z" stroke="#5EA3BE" stroke-width="2"/>
<path d="M185.521 130.843L169.797 126.63C168.804 126.364 168.192 125.431 168.429 124.545L171.711 112.297C171.948 111.411 172.945 110.909 173.938 111.175L189.662 115.388C190.655 115.654 191.267 116.587 191.03 117.473L187.748 129.721C187.51 130.607 186.514 131.109 185.521 130.843Z" fill="#444444" stroke="#5EA3BE" stroke-width="2"/>
<circle cx="180.248" cy="119.077" r="2" transform="rotate(15 180.248 119.077)" fill="#5EA3BE"/>
<path d="M179.023 119.784L180.955 120.302L179.92 124.166C179.777 124.699 179.229 125.016 178.695 124.873C178.162 124.73 177.845 124.181 177.988 123.648L179.023 119.784Z" fill="#5EA3BE"/>
<path d="M178.76 15.4939L180.467 18.4505L176.433 33.5054L162.91 29.8819L167.568 12.4953L178.76 15.4939Z" fill="#444444" stroke="#5EA3BE" stroke-width="2"/>
<path d="M177.538 18.2726L178.315 15.3748L180.315 19.0167L177.538 18.2726Z" fill="#5EA3BE"/>
<path d="M23.4159 106.849L26.3725 108.556L30.4064 123.611L16.8835 127.234L12.2247 109.848L23.4159 106.849Z" fill="#444444" stroke="#5EA3BE" stroke-width="2"/>
<path d="M23.7473 109.866L22.9709 106.969L26.5244 109.122L23.7473 109.866Z" fill="#5EA3BE"/>
</svg>
