<svg width="200" height="140" viewBox="0 0 200 140" fill="none" xmlns="http://www.w3.org/2000/svg">
<path d="M141 91H60V35.12C60 33.4 61.2721 32 62.8808 32H92.1381C93.6346 32 94.8693 33.24 95.0189 34.84V38H138.682C140 38 141 39.04 141 40.16V91Z" fill="#EFEFEF" stroke="#AAAAAA" stroke-width="2"/>
<path d="M140.622 98.9999H59.5451C58.1213 98.9999 56.9348 97.8962 56.8557 96.4377L54.0006 52.9999C53.8819 51.3837 55.4187 49.9605 57.0007 49.9999H102.001L109 44H143.5C146 44 147.108 46.2574 146.95 47.8736L143.272 96.4771C143.193 97.8962 142.006 98.9999 140.622 98.9999Z" fill="#F9F9F9" stroke="#AAAAAA" stroke-width="2"/>
<path fill-rule="evenodd" clip-rule="evenodd" d="M100 65.2459C101.337 65.1582 104.706 65 108.637 65C112.715 65 115.245 65.3406 116 65.5108C116 68.3205 114.853 74.1978 112.035 74.7061C109.204 75.2169 104.389 75.2169 103.257 73.429C102.35 71.9986 101.369 68.7462 100.991 67.2988L100 66.8518L99.0088 67.2988C98.6313 68.7462 97.6496 71.9986 96.7434 73.429C95.6106 75.2169 90.7965 75.2169 87.9646 74.7061C85.1467 74.1978 84 68.3205 84 65.5108C84.7552 65.3406 87.285 65 91.3628 65C95.2935 65 98.6629 65.1582 100 65.2459Z" fill="#AAAAAA"/>
<path d="M72.3207 112.711L72.3521 112.653L72.3782 112.592L81.5117 91.3364C82.3493 89.3873 81.6098 87.1194 79.7844 86.0386C77.8378 84.886 75.3285 85.4732 74.0956 87.37L69.5 94.44V92V71.5C69.5 69.2909 67.7091 67.5 65.5 67.5C63.2909 67.5 61.5 69.2909 61.5 71.5V67.5C61.5 65.2909 59.7091 63.5 57.5 63.5C55.2909 63.5 53.5 65.2909 53.5 67.5V72.5C53.5 70.2909 51.7091 68.5 49.5 68.5C47.2909 68.5 45.5 70.2909 45.5 72.5V78.5C45.5 76.2909 43.7091 74.5 41.5 74.5C39.2909 74.5 37.5 76.2909 37.5 78.5V92V98V106V106.097L37.5126 106.194L37.6032 106.889C38.516 113.886 43.0403 120.181 50.1362 121.955C51.4466 122.283 53.147 122.393 54.7547 122.377C56.3775 122.36 58.0309 122.214 59.2833 121.973C64.9297 120.887 69.4143 118.109 72.3207 112.711Z" fill="white" stroke="#FF6F3D" stroke-width="3"/>
<path d="M96 81H104" stroke="#AAAAAA" stroke-width="2" stroke-linecap="round"/>
<path d="M106 6L108 8" stroke="#FF6F3D" stroke-width="2" stroke-linecap="round"/>
<path d="M114 14L112 12" stroke="#FF6F3D" stroke-width="2" stroke-linecap="round"/>
<path d="M114 6L112 8" stroke="#FF6F3D" stroke-width="2" stroke-linecap="round"/>
<path d="M106 14L108 12" stroke="#FF6F3D" stroke-width="2" stroke-linecap="round"/>
<path d="M26 36L28 38" stroke="#FF6F3D" stroke-width="2" stroke-linecap="round"/>
<path d="M34 44L32 42" stroke="#FF6F3D" stroke-width="2" stroke-linecap="round"/>
<path d="M34 36L32 38" stroke="#FF6F3D" stroke-width="2" stroke-linecap="round"/>
<path d="M26 44L28 42" stroke="#FF6F3D" stroke-width="2" stroke-linecap="round"/>
<path d="M168 65L170 67" stroke="#FF6F3D" stroke-width="2" stroke-linecap="round"/>
<path d="M176 73L174 71" stroke="#FF6F3D" stroke-width="2" stroke-linecap="round"/>
<path d="M176 65L174 67" stroke="#FF6F3D" stroke-width="2" stroke-linecap="round"/>
<path d="M168 73L170 71" stroke="#FF6F3D" stroke-width="2" stroke-linecap="round"/>
<path d="M124 31.3922L134 28L144 31.3922V38.8006C144 42.745 142.062 46.4375 138.815 48.6776L134.568 51.6081C134.226 51.844 133.774 51.844 133.432 51.6081L129.185 48.6776C125.938 46.4375 124 42.745 124 38.8006V31.3922Z" fill="#808080"/>
<path d="M130 38.75L133.438 42.1875L139.625 36" stroke="white" stroke-width="2" stroke-linecap="round"/>
</svg>
