<svg width="200" height="140" viewBox="0 0 200 140" fill="none" xmlns="http://www.w3.org/2000/svg">
<g filter="url(#filter0_d_838_87117)">
<path d="M64.0684 22C64.0684 20.8954 64.9638 20 66.0684 20H124.068L136.068 32V114C136.068 115.105 135.173 116 134.068 116H66.0684C64.9638 116 64.0684 115.105 64.0684 114V22Z" fill="#444444"/>
<path d="M65.0684 22C65.0684 21.4477 65.5161 21 66.0684 21H123.654L135.068 32.4142V114C135.068 114.552 134.621 115 134.068 115H66.0684C65.5161 115 65.0684 114.552 65.0684 114V22Z" stroke="#AAAAAA" stroke-width="2"/>
</g>
<rect x="98" y="80" width="28" height="2" rx="1" fill="#808080"/>
<rect x="74" y="74" width="21" height="2" rx="1" fill="#FF6F3D"/>
<rect x="98" y="86" width="28" height="2" rx="1" fill="#808080"/>
<rect x="98" y="92" width="28" height="2" rx="1" fill="#808080"/>
<rect x="74" y="98" width="52" height="2" rx="1" fill="#808080"/>
<rect x="74" y="104" width="52" height="2" rx="1" fill="#FF6F3D"/>
<path d="M81 87L75 94H95L88 85L84 90L81 87Z" fill="#FF6F3D"/>
<circle cx="79" cy="82" r="2" fill="#FF6F3D"/>
<path d="M84 44C84.4091 45.5 86.4545 47 88.5 47C90.5455 47 92.5909 45.5 93 44" stroke="#AAAAAA" stroke-width="2" stroke-linecap="round"/>
<path d="M107 44C107.409 45.5 109.455 47 111.5 47C113.545 47 115.591 45.5 116 44" stroke="#AAAAAA" stroke-width="2" stroke-linecap="round"/>
<path d="M124 20L136 32H125C124.448 32 124 31.5523 124 31V20Z" fill="#AAAAAA"/>
<circle cx="97.5" cy="57.5" r="2.5" fill="#AAAAAA"/>
<path d="M19.5 19H26.5L21 28H27.5" stroke="#9ADAF3" stroke-width="2" stroke-linecap="round"/>
<path d="M32 28H37.25L33.125 35H38" stroke="#9ADAF3" stroke-width="2" stroke-linecap="round"/>
<path d="M43 34H48.25L44.125 41H49" stroke="#9ADAF3" stroke-width="2" stroke-linecap="round"/>
<path d="M64.9994 65C57.4248 73.8738 55.8346 80.6079 60.2539 82.3776C64.6732 84.1473 71.4605 80.5056 74.3018 78.4636" stroke="#AAAAAA" stroke-width="2" stroke-linecap="round"/>
<path d="M74.625 78.2046C75.4839 78.5489 76.8228 78.5125 78.1503 77.6777" stroke="#AAAAAA" stroke-width="2" stroke-linecap="round"/>
<path d="M135.621 65.5038C143.196 74.3776 143.836 80.703 139.417 82.4727C134.998 84.2424 128.21 80.6007 125.369 78.5587" stroke="#AAAAAA" stroke-width="2" stroke-linecap="round"/>
<path d="M125.045 78.2998C124.186 78.6441 122.847 78.6078 121.52 77.7729" stroke="#AAAAAA" stroke-width="2" stroke-linecap="round"/>
<defs>
<filter id="filter0_d_838_87117" x="49.0684" y="12" width="102" height="126" filterUnits="userSpaceOnUse" color-interpolation-filters="sRGB">
<feFlood flood-opacity="0" result="BackgroundImageFix"/>
<feColorMatrix in="SourceAlpha" type="matrix" values="0 0 0 0 0 0 0 0 0 0 0 0 0 0 0 0 0 0 127 0" result="hardAlpha"/>
<feOffset dy="7"/>
<feGaussianBlur stdDeviation="7.5"/>
<feColorMatrix type="matrix" values="0 0 0 0 0.333333 0 0 0 0 0.333333 0 0 0 0 0.333333 0 0 0 0.1 0"/>
<feBlend mode="normal" in2="BackgroundImageFix" result="effect1_dropShadow_838_87117"/>
<feBlend mode="normal" in="SourceGraphic" in2="effect1_dropShadow_838_87117" result="shape"/>
</filter>
</defs>
</svg>
