<svg width="200" height="140" viewBox="0 0 200 140" fill="none" xmlns="http://www.w3.org/2000/svg">
<path d="M91 81H109C113.971 81 118 85.0294 118 90V105C118 114.941 109.941 123 100 123C90.0589 123 82 114.941 82 105V90C82 85.0294 86.0294 81 91 81Z" fill="#333333" stroke="#AAAAAA" stroke-width="2"/>
<rect x="68" y="26" width="64" height="50" rx="25" fill="#444444" stroke="#AAAAAA" stroke-width="2"/>
<rect x="75" y="36" width="51" height="34" rx="17" fill="#3A8EAF" stroke="#5FC1E8" stroke-width="2"/>
<path d="M86.0028 81.7918C87.3757 82.5845 88.1967 84.5728 88.0135 87.6256C87.8342 90.6115 86.692 94.301 84.5848 97.9509C82.4775 101.601 79.8531 104.435 77.3567 106.084C74.8045 107.769 72.6721 108.052 71.2992 107.259C69.9263 106.466 69.1061 104.479 69.2893 101.426C69.4686 98.4398 70.6102 94.7494 72.7176 91.0993C74.8249 87.4494 77.4497 84.6161 79.9461 82.9679C82.4982 81.2828 84.6298 80.9992 86.0028 81.7918Z" fill="#444444" stroke="#AAAAAA" stroke-width="2"/>
<path d="M113.3 81.7918C114.673 80.9991 116.805 81.2823 119.357 82.9674C121.853 84.6157 124.478 87.4495 126.585 91.0993C128.692 94.7494 129.835 98.4393 130.014 101.425C130.197 104.478 129.376 106.467 128.003 107.259C126.63 108.052 124.499 107.768 121.947 106.083C119.45 104.435 116.825 101.601 114.718 97.9509C112.61 94.3009 111.469 90.6111 111.29 87.6251C111.107 84.5724 111.927 82.5845 113.3 81.7918Z" fill="#444444" stroke="#AAAAAA" stroke-width="2"/>
<path d="M94 54C94 51.2386 91.7614 49 89 49C86.2386 49 84 51.2386 84 54" stroke="white" stroke-width="2" stroke-linecap="round"/>
<path d="M115 54C115 51.2386 112.761 49 110 49C107.239 49 105 51.2386 105 54" stroke="white" stroke-width="2" stroke-linecap="round"/>
<circle cx="104" cy="62" r="2" fill="white"/>
<path d="M26 15H33L27.5 24H34" stroke="#9ADAF3" stroke-width="2" stroke-linecap="round"/>
<path d="M38.5 24H43.75L39.625 31H44.5" stroke="#9ADAF3" stroke-width="2" stroke-linecap="round"/>
<path d="M49.5 30H54.75L50.625 37H55.5" stroke="#9ADAF3" stroke-width="2" stroke-linecap="round"/>
<path d="M55.929 69C59.429 75 58.429 88.5 47.429 91.9995C33.785 96.3402 23.8382 86 27.929 77C32.9288 65.9999 46.429 72.4998 41.429 81.9993" stroke="#9ADAF3" stroke-width="2" stroke-linecap="round" stroke-dasharray="5 5"/>
<path d="M153.37 44.3327C147.043 41.4656 140.045 29.8778 146.99 20.6573C155.604 9.22061 169.7 11.8957 171.573 21.6027C173.863 33.4669 159.091 35.9802 157.671 25.3396" stroke="#9ADAF3" stroke-width="2" stroke-linecap="round" stroke-dasharray="5 5"/>
</svg>
