<svg width="75" height="75" viewBox="0 0 75 75" fill="none" xmlns="http://www.w3.org/2000/svg">
<path fill-rule="evenodd" clip-rule="evenodd" d="M8 43.7044V64C8 65.996 9.75686 68 11.913 68H58.087C60.2359 68 62 66.3682 62 64.3654V61.6142V18.0602V5.72021V4.63456C62 2.63184 60.2359 1 58.087 1H22L8 15V43.7044Z" fill="#ADADAD"/>
<path d="M22.5 1C22.5 0.797769 22.3782 0.615451 22.1913 0.53806C22.0045 0.46067 21.7894 0.503448 21.6464 0.646447L14.6464 7.64645L7.64645 14.6464C7.50345 14.7894 7.46067 15.0045 7.53806 15.1913C7.61545 15.3782 7.79777 15.5 8 15.5H19C20.933 15.5 22.5 13.933 22.5 12V1Z" fill="#5C5C5C" stroke="#333333" stroke-linejoin="round"/>
<path fill-rule="evenodd" clip-rule="evenodd" d="M61.0325 2.25185C60.6529 1.91005 60.2233 1.62857 59.7538 1.41746C59.1545 1.14603 58.4852 1.00529 57.7959 1.00529H22L7.99895 15V63.5C7.99895 64.4249 8.25868 65.2995 8.69822 66.0333C9.07782 66.6667 9.59728 67.1995 10.2066 67.6116C10.846 68.0339 10.3765 68.9185 9.71716 68.4862C8.95795 67.9937 8.31862 67.3302 7.84911 66.5561C7.30968 65.6614 7 64.6159 7 63.5V14.5898C13.3134 8.22635 15.2725 6.35344 21.5859 0L57.7859 0C58.625 0 59.4242 0.180952 60.1534 0.502645C60.7628 0.774074 61.3122 1.14603 61.7917 1.59841C62.3311 2.10106 61.6518 2.80476 61.0325 2.25185Z" fill="#333333"/>
<path d="M28 6.5H27.7929L27.6464 6.64645L13.9393 20.3536C13.658 20.6349 13.5 21.0164 13.5 21.4142V71C13.5 72.933 15.067 74.5 17 74.5H64C65.933 74.5 67.5 72.933 67.5 71L67.4999 9.99999C67.4999 8.067 65.9329 6.5 63.9999 6.5H28Z" fill="#333333"/>
<path d="M28 6.5H27.7929L27.6464 6.64645L13.9393 20.3536C13.658 20.6349 13.5 21.0164 13.5 21.4142V71C13.5 72.933 15.067 74.5 17 74.5H64C65.933 74.5 67.5 72.933 67.5 71L67.4999 9.99999C67.4999 8.067 65.9329 6.5 63.9999 6.5H28Z" fill="white" fill-opacity="0.88"/>
<path d="M28 6.5H27.7929L27.6464 6.64645L13.9393 20.3536C13.658 20.6349 13.5 21.0164 13.5 21.4142V71C13.5 72.933 15.067 74.5 17 74.5H64C65.933 74.5 67.5 72.933 67.5 71L67.4999 9.99999C67.4999 8.067 65.9329 6.5 63.9999 6.5H28Z" stroke="#333333"/>
<path d="M28.5 7C28.5 6.79777 28.3782 6.61545 28.1913 6.53806C28.0045 6.46067 27.7894 6.50345 27.6464 6.64645L20.6464 13.6464L13.6464 20.6464C13.5034 20.7894 13.4607 21.0045 13.5381 21.1913C13.6155 21.3782 13.7978 21.5 14 21.5H25C26.933 21.5 28.5 19.933 28.5 18V7Z" fill="#E07751" stroke="#333333" stroke-linejoin="round"/>
<path fill-rule="evenodd" clip-rule="evenodd" d="M40.5 66C30.2831 66 22 57.7169 22 47.5C22 37.2831 30.2831 29 40.5 29C50.7169 29 59 37.2831 59 47.5C59.008 57.7169 50.7249 66 40.5 66Z" fill="#333333"/>
<path fill-rule="evenodd" clip-rule="evenodd" d="M40.5 65C30.8354 65 23 57.1646 23 47.5C23 37.8354 30.8354 30 40.5 30C50.1646 30 58 37.8354 58 47.5C58.0076 57.1646 50.1722 65 40.5 65Z" fill="#E07751"/>
<path d="M47.2784 37.2953L47.2532 37.2702L47.2248 37.2489C46.7923 36.9245 46.1472 36.8628 45.7146 37.2953L40.5001 42.5099L35.2856 37.2953C34.8531 36.8628 34.2079 36.9245 33.7754 37.2489L33.747 37.2702L33.7219 37.2953L30.2953 40.7218L30.2702 40.747L30.2489 40.7754C29.9245 41.2079 29.8628 41.8531 30.2953 42.2856L30.6489 41.932L30.2953 42.2856L35.5099 47.5001L30.2953 52.7146L30.2702 52.7397L30.2489 52.7682C29.9245 53.2007 29.8628 53.8458 30.2953 54.2784L33.7219 57.7049L33.747 57.73L33.7754 57.7513C34.2079 58.0757 34.8531 58.1374 35.2856 57.7049L40.5001 52.4903L45.7146 57.7049L45.7398 57.73L45.7682 57.7513C46.2007 58.0757 46.8458 58.1374 47.2784 57.7049L50.7049 54.2784L50.73 54.2532L50.7513 54.2248C51.0757 53.7923 51.1374 53.1471 50.7049 52.7146L45.4903 47.5001L50.7049 42.2856L50.73 42.2605L50.7513 42.232C51.0757 41.7995 51.1374 41.1544 50.7049 40.7218L47.2784 37.2953Z" fill="#333333"/>
<path d="M47.2784 37.2953L47.2532 37.2702L47.2248 37.2489C46.7923 36.9245 46.1472 36.8628 45.7146 37.2953L40.5001 42.5099L35.2856 37.2953C34.8531 36.8628 34.2079 36.9245 33.7754 37.2489L33.747 37.2702L33.7219 37.2953L30.2953 40.7218L30.2702 40.747L30.2489 40.7754C29.9245 41.2079 29.8628 41.8531 30.2953 42.2856L30.6489 41.932L30.2953 42.2856L35.5099 47.5001L30.2953 52.7146L30.2702 52.7397L30.2489 52.7682C29.9245 53.2007 29.8628 53.8458 30.2953 54.2784L33.7219 57.7049L33.747 57.73L33.7754 57.7513C34.2079 58.0757 34.8531 58.1374 35.2856 57.7049L40.5001 52.4903L45.7146 57.7049L45.7398 57.73L45.7682 57.7513C46.2007 58.0757 46.8458 58.1374 47.2784 57.7049L50.7049 54.2784L50.73 54.2532L50.7513 54.2248C51.0757 53.7923 51.1374 53.1471 50.7049 52.7146L45.4903 47.5001L50.7049 42.2856L50.73 42.2605L50.7513 42.232C51.0757 41.7995 51.1374 41.1544 50.7049 40.7218L47.2784 37.2953Z" fill="white" fill-opacity="0.88"/>
<path d="M47.2784 37.2953L47.2532 37.2702L47.2248 37.2489C46.7923 36.9245 46.1472 36.8628 45.7146 37.2953L40.5001 42.5099L35.2856 37.2953C34.8531 36.8628 34.2079 36.9245 33.7754 37.2489L33.747 37.2702L33.7219 37.2953L30.2953 40.7218L30.2702 40.747L30.2489 40.7754C29.9245 41.2079 29.8628 41.8531 30.2953 42.2856L30.6489 41.932L30.2953 42.2856L35.5099 47.5001L30.2953 52.7146L30.2702 52.7397L30.2489 52.7682C29.9245 53.2007 29.8628 53.8458 30.2953 54.2784L33.7219 57.7049L33.747 57.73L33.7754 57.7513C34.2079 58.0757 34.8531 58.1374 35.2856 57.7049L40.5001 52.4903L45.7146 57.7049L45.7398 57.73L45.7682 57.7513C46.2007 58.0757 46.8458 58.1374 47.2784 57.7049L50.7049 54.2784L50.73 54.2532L50.7513 54.2248C51.0757 53.7923 51.1374 53.1471 50.7049 52.7146L45.4903 47.5001L50.7049 42.2856L50.73 42.2605L50.7513 42.232C51.0757 41.7995 51.1374 41.1544 50.7049 40.7218L47.2784 37.2953Z" stroke="#333333"/>
</svg>
