<svg width="200" height="140" viewBox="0 0 200 140" fill="none" xmlns="http://www.w3.org/2000/svg">
<g filter="url(#filter0_d_214_16574)">
<path d="M64.0693 22C64.0693 20.8954 64.9648 20 66.0693 20H124.069L136.069 32V114C136.069 115.105 135.174 116 134.069 116H66.0693C64.9648 116 64.0693 115.105 64.0693 114V22Z" fill="white"/>
<path d="M65.0693 22C65.0693 21.4477 65.5171 21 66.0693 21H123.655L135.069 32.4142V114C135.069 114.552 134.622 115 134.069 115H66.0693C65.5171 115 65.0693 114.552 65.0693 114V22Z" stroke="#AAAAAA" stroke-width="2"/>
</g>
<path d="M83.9999 44C84.4187 45.2562 86.5124 46.5125 88.6062 46.5125C90.6999 46.5125 92.7937 45.2562 93.2124 44" stroke="#AAAAAA" stroke-width="2" stroke-linecap="round"/>
<path d="M106.613 44C107.031 45.2562 109.125 46.5125 111.219 46.5125C113.313 46.5125 115.406 45.2562 115.825 44" stroke="#AAAAAA" stroke-width="2" stroke-linecap="round"/>
<rect x="73" y="71" width="8" height="8" rx="2" fill="#27ABA3"/>
<rect x="85" y="71" width="42" height="8" rx="2" fill="#E2E2E2"/>
<rect x="85" y="84" width="42" height="8" rx="2" fill="#E2E2E2"/>
<rect x="85" y="97" width="42" height="8" rx="2" fill="#94D5D2"/>
<rect x="73" y="84" width="8" height="8" rx="2" fill="#27ABA3"/>
<path fill-rule="evenodd" clip-rule="evenodd" d="M102.811 99.4056L102.934 99.0475C103.426 98.0925 104.041 96.6601 103.918 95.7052C103.918 95.2277 103.549 94.8696 102.443 94.8696C101.951 94.8696 101.459 95.1084 101.09 95.3471C100.721 95.5858 100.475 95.8246 100.23 96.1827C100.107 96.5408 99.9836 96.8989 99.9836 97.3763C99.9836 97.8538 100.23 98.3313 100.475 98.8088C100.598 98.9281 100.844 99.2862 101.213 99.6443C101.951 100.48 102.934 101.674 103.549 102.748C104.041 102.39 104.41 102.032 104.656 101.793C105.025 101.435 105.27 101.196 105.639 101.435C106.131 101.674 106.131 102.39 106.131 103.225C106.131 103.703 106.008 104.18 106.131 104.18C106.131 104.18 106.254 103.822 106.746 102.628C106.746 102.509 106.746 102.27 106.746 102.151C106.869 101.912 106.992 101.674 107.115 101.435C107.73 100.599 108.221 100.599 108.221 101.554C108.59 100.957 109.082 100.241 109.205 99.883C109.697 96.302 110.557 92.721 111.664 92.1242C112.279 91.8855 112.648 92.0048 112.893 92.3629C113.508 93.4372 111.049 98.6894 110.557 99.7637L110.311 100.122C110.189 100.838 110.066 101.554 110.066 102.27C110.189 102.151 110.311 102.032 110.557 102.032C110.926 101.793 111.295 101.674 111.664 101.554C112.525 101.196 113.385 100.838 114 100.122C113.877 101.077 113.631 101.793 112.156 102.509C111.787 102.628 111.418 102.867 111.172 102.987C110.68 103.225 110.311 103.703 110.066 104.18V104.3L109.943 105.135C109.697 106.806 109.697 108 109.082 108C108.713 108 108.467 107.403 108.467 106.09C108.467 105.493 108.59 104.777 108.959 104.061L109.205 102.39C108.713 102.987 108.221 103.464 107.73 103.345C106.869 104.777 106.254 105.135 105.885 105.016C105.393 104.777 105.27 103.942 105.27 103.106C105.27 102.987 105.27 102.867 105.27 102.748C105.025 102.987 104.656 103.345 104.164 103.583C104.533 104.538 104.41 105.374 103.795 105.971C102.934 106.806 101.705 106.806 100.844 106.568C100.352 106.448 99.9836 106.09 99.7377 105.732C99.4918 105.374 99.3689 104.896 99.6148 104.419C99.8607 103.942 100.721 103.464 102.074 103.225C102.32 103.225 102.443 103.106 102.689 103.106C102.074 102.151 101.213 100.957 100.475 100.241C100.107 99.7637 99.8607 99.4056 99.7377 99.2862C99.3689 98.57 99.123 97.9732 99 97.3763C99 96.7795 99.1229 96.1827 99.3688 95.5858C99.6147 95.1084 100.107 94.6309 100.598 94.3922C101.09 94.0341 101.705 93.9147 102.443 93.7953C104.287 93.676 105.025 94.3922 105.148 95.5858C105.148 97.0182 104.41 99.1669 102.811 99.4056ZM102.934 105.374C103.18 105.135 103.18 104.658 103.057 104.18C102.811 104.3 102.443 104.3 102.197 104.419C101.09 104.538 100.598 104.896 100.475 105.135C100.475 105.255 100.475 105.255 100.475 105.374C100.598 105.493 100.844 105.613 101.09 105.732C101.705 105.851 102.443 105.851 102.934 105.374ZM111.295 95.9439C111.664 94.8696 112.033 93.9147 112.156 93.3179C111.787 93.7953 111.541 94.7503 111.295 95.9439Z" fill="#333333"/>
<path d="M124 20L136 32H125C124.448 32 124 31.5523 124 31V20Z" fill="#AAAAAA"/>
<circle cx="97.5" cy="57.5" r="2.5" fill="#AAAAAA"/>
<path d="M19.5 19H26.5L21 28H27.5" stroke="#9ADAF3" stroke-width="2" stroke-linecap="round"/>
<path d="M32 28H37.25L33.125 35H38" stroke="#9ADAF3" stroke-width="2" stroke-linecap="round"/>
<path d="M43 34H48.25L44.125 41H49" stroke="#9ADAF3" stroke-width="2" stroke-linecap="round"/>
<path d="M64.9999 65C57.4253 73.8738 55.8351 80.6079 60.2544 82.3776C64.6737 84.1473 71.461 80.5056 74.3023 78.4636" stroke="#AAAAAA" stroke-width="2" stroke-linecap="round"/>
<path d="M74.6255 78.2047C75.4844 78.549 76.8233 78.5127 78.1508 77.6778" stroke="#AAAAAA" stroke-width="2" stroke-linecap="round"/>
<path d="M135.621 65.5038C143.196 74.3776 143.836 80.703 139.417 82.4727C134.998 84.2424 128.21 80.6007 125.369 78.5587" stroke="#AAAAAA" stroke-width="2" stroke-linecap="round"/>
<path d="M125.046 78.2998C124.187 78.6441 122.848 78.6078 121.521 77.7729" stroke="#AAAAAA" stroke-width="2" stroke-linecap="round"/>
<defs>
<filter id="filter0_d_214_16574" x="49.0693" y="12" width="102" height="126" filterUnits="userSpaceOnUse" color-interpolation-filters="sRGB">
<feFlood flood-opacity="0" result="BackgroundImageFix"/>
<feColorMatrix in="SourceAlpha" type="matrix" values="0 0 0 0 0 0 0 0 0 0 0 0 0 0 0 0 0 0 127 0" result="hardAlpha"/>
<feOffset dy="7"/>
<feGaussianBlur stdDeviation="7.5"/>
<feColorMatrix type="matrix" values="0 0 0 0 0.333333 0 0 0 0 0.333333 0 0 0 0 0.333333 0 0 0 0.1 0"/>
<feBlend mode="normal" in2="BackgroundImageFix" result="effect1_dropShadow_214_16574"/>
<feBlend mode="normal" in="SourceGraphic" in2="effect1_dropShadow_214_16574" result="shape"/>
</filter>
</defs>
</svg>
