<svg width="36" height="36" viewBox="0 0 36 36" fill="none" xmlns="http://www.w3.org/2000/svg">
<rect width="36" height="36" rx="6" fill="currentColor" fill-opacity="0.1"/>
<path d="M24 12.5C24 13.3284 23.5 14.5 22.5 14.5C21.5 14.5 21 13.3284 21 12.5C21 11.6716 21.5 11 22.5 11C23.5 11 24 11.6716 24 12.5Z" fill="#4781D1"/>
<path d="M21.3237 17.5662C21.1187 18.1811 21 19.0659 21 20H19C19 18.9341 19.1313 17.8189 19.4263 16.9338C19.5726 16.4949 19.7801 16.0481 20.0845 15.693C20.4002 15.3247 20.8749 15 21.5 15C21.6308 15 21.7602 15.0256 21.8811 15.0755C22.2916 15.2447 22.4358 15.2627 22.5158 15.2617C22.5984 15.2607 22.7253 15.2391 23.1161 15.0766C23.2378 15.026 23.3683 15 23.5 15C24.1251 15 24.5998 15.3247 24.9155 15.693C25.2199 16.0481 25.4274 16.4949 25.5737 16.9338C25.8687 17.8189 26 18.9341 26 20H24C24 19.0659 23.8813 18.1811 23.6763 17.5662C23.6013 17.3413 23.5257 17.1858 23.4628 17.0858C23.1742 17.185 22.871 17.2576 22.5397 17.2616C22.1907 17.2658 21.864 17.1937 21.5385 17.0838C21.4754 17.1837 21.3992 17.3397 21.3237 17.5662Z" fill="currentColor"/>
<path fill-rule="evenodd" clip-rule="evenodd" d="M12.9848 13.6693C13.5957 13.1602 14.3514 13 15 13C15.6486 13 16.4043 13.1602 17.0152 13.6693C17.6582 14.2051 18 15.0095 18 16C18 16.6698 17.854 17.5841 17.4531 18.369C17.045 19.1682 16.2666 20 15 20C13.7334 20 12.955 19.1682 12.5469 18.369C12.146 17.5841 12 16.6698 12 16C12 15.0095 12.3418 14.2051 12.9848 13.6693ZM14.2652 15.2057C14.1582 15.2949 14 15.4905 14 16C14 16.4348 14.104 17.0205 14.3281 17.4594C14.545 17.8841 14.7666 18 15 18C15.2334 18 15.455 17.8841 15.6719 17.4594C15.896 17.0205 16 16.4348 16 16C16 15.4905 15.8418 15.2949 15.7348 15.2057C15.5957 15.0898 15.3514 15 15 15C14.6486 15 14.4043 15.0898 14.2652 15.2057Z" fill="currentColor"/>
<path d="M16.84 22.9404C16.851 22.9464 16.8664 22.9559 16.8862 22.9705C17.014 23.0651 17.197 23.2797 17.388 23.646C17.7686 24.3759 18 25.3535 18 26H20C20 25.0108 19.681 23.7178 19.1613 22.7213C18.9022 22.2243 18.5477 21.7118 18.0755 21.3626C17.5669 20.9864 16.879 20.7811 16.1394 21.0671C15.6966 21.2383 15.3496 21.3069 15.023 21.3073C14.6943 21.3078 14.3278 21.2394 13.8463 21.0616C13.1078 20.7891 12.4254 20.9974 11.9198 21.3726C11.4488 21.7222 11.0948 22.2327 10.8358 22.729C10.3167 23.7236 10 25.0114 10 26H12C12 25.3529 12.2297 24.3808 12.6088 23.6544C12.7989 23.2902 12.982 23.0749 13.1117 22.9787C13.137 22.9599 13.1557 22.9491 13.1677 22.9431C13.7996 23.175 14.4021 23.3082 15.0259 23.3073C15.6492 23.3064 16.2367 23.1717 16.84 22.9404Z" fill="currentColor"/>
</svg>
