<svg width="36" height="36" viewBox="0 0 36 36" fill="none" xmlns="http://www.w3.org/2000/svg">
<rect width="36" height="36" rx="6" fill="currentColor" fill-opacity="0.1"/>
<g clip-path="url(#clip0_2136_2421)">
<path fill-rule="evenodd" clip-rule="evenodd" d="M16.9997 12.9997C16.9997 12.4476 17.4473 12 17.9994 12C18.5516 12 18.9992 12.4476 18.9992 12.9997V13.5C18.9992 14.4114 18.8439 15.1038 18.617 15.5295C18.41 15.9178 18.2058 16 17.9997 16C17.7935 16 17.5892 15.9177 17.382 15.5294C17.155 15.1037 16.9997 14.4113 16.9997 13.5V12.9997ZM17.9995 10C16.3428 9.99996 14.9997 11.343 14.9997 12.9997V13.5C14.9997 14.5886 15.1777 15.6462 15.6173 16.4705C16.0769 17.3322 16.8725 18 17.9997 18C19.1269 18 19.9225 17.3321 20.3819 16.4704C20.8213 15.6461 20.9992 14.5885 20.9992 13.5V12.9997C20.9992 11.3431 19.6562 10 17.9995 10ZM15.4286 18.6427C13.8536 18.6427 12.817 19.6468 12.1949 20.6849C11.5756 21.7181 11.255 22.9469 11.1088 23.8463C10.9065 25.091 11.9276 26 13.0001 26H20.3542C19.7638 25.4789 19.3284 24.7862 19.126 24H13.1118C13.2464 23.2632 13.5031 22.3926 13.9104 21.7131C14.3217 21.0267 14.7854 20.6821 15.3314 20.6459C15.3549 20.6569 15.3842 20.6713 15.4211 20.6903C15.4729 20.717 15.5295 20.7472 15.5991 20.7846L15.6325 20.8024C16.1016 21.0542 16.9321 21.4999 18.0001 21.4999C18.5319 21.4999 19.0048 21.3893 19.4035 21.2472C19.9449 20.1384 20.9839 19.3171 22.2299 19.0741C21.7603 18.8086 21.2106 18.6433 20.5725 18.6427C20.2782 18.6424 20.0277 18.7428 19.892 18.8022C19.7476 18.8654 19.5953 18.947 19.4731 19.0125L19.4558 19.0218C18.9771 19.2784 18.5362 19.4999 18.0001 19.4999C17.4636 19.4999 17.0226 19.2783 16.5438 19.0217L16.5266 19.0125C16.4045 18.947 16.2523 18.8654 16.1081 18.8023C15.9725 18.7429 15.7223 18.6427 15.4286 18.6427ZM22 20H24V22H26V24H24V26H22V24H20V22H22V20Z" fill="currentColor"/>
</g>
<defs>
<clipPath id="clip0_2136_2421">
<rect width="16" height="16" fill="white" transform="translate(10 10)"/>
</clipPath>
</defs>
</svg>
