<svg width="180" height="88" viewBox="0 0 180 88" fill="none" xmlns="http://www.w3.org/2000/svg">
<g filter="url(#filter0_d_3872_60256)">
<path d="M59.1509 5.89064C59.1509 5.29034 59.6375 4.80371 60.2378 4.80371H103.715L112.411 13.4992V74.3674C112.411 74.9677 111.924 75.4543 111.324 75.4543H60.2378C59.6375 75.4543 59.1509 74.9677 59.1509 74.3674V5.89064Z" fill="#444444"/>
<path d="M111.867 13.7243V74.3674C111.867 74.6675 111.624 74.9109 111.324 74.9109H60.2378C59.9377 74.9109 59.6943 74.6675 59.6943 74.3674V5.89064C59.6943 5.59049 59.9377 5.34718 60.2378 5.34718H103.49L111.867 13.7243Z" stroke="#AAAAAA" stroke-width="1.08693"/>
</g>
<rect x="65.1833" y="51.542" width="3.80426" height="3.80426" rx="1.08693" fill="#27ABA3"/>
<rect x="65.1833" y="61.8682" width="19.0213" height="3.80426" rx="1.08693" fill="#27ABA3"/>
<rect x="87.9545" y="62.1396" width="19.0213" height="3.2608" rx="1.08693" stroke="#27ABA3" stroke-width="0.543466" stroke-linecap="round" stroke-dasharray="1.63 1.63"/>
<rect x="65.1833" y="42.8467" width="19.0213" height="2.17387" rx="1.08693" fill="#27ABA3"/>
<rect x="88.0089" y="51.542" width="3.80426" height="3.80426" rx="1.08693" fill="#27ABA3"/>
<rect x="71.1615" y="51.542" width="13.0432" height="3.80426" rx="1.08693" fill="#666666"/>
<rect x="65.1833" y="47.1943" width="41.8469" height="2.17387" rx="1.08693" fill="#666666"/>
<rect x="65.1833" y="57.5205" width="41.8469" height="2.17387" rx="1.08693" fill="#666666"/>
<rect x="65.1833" y="67.8457" width="41.8469" height="2.17387" rx="1.08693" fill="#666666"/>
<rect x="93.9871" y="51.542" width="13.0432" height="3.80426" rx="1.08693" fill="#666666"/>
<path d="M103.715 4.80371L112.411 13.4992H103.715V4.80371Z" fill="#AAAAAA"/>
<rect x="106.976" y="25.999" width="32.0645" height="6.5216" rx="1.08693" fill="#94D5D2" stroke="#27ABA3" stroke-width="1.08693"/>
<circle cx="78.9873" cy="20.2928" r="1.90213" fill="#AAAAAA"/>
<circle cx="92.0305" cy="20.2928" r="1.90213" fill="#AAAAAA"/>
<path d="M81.9764 28.1733C81.9764 29.674 83.6797 30.8906 85.7807 30.8906C87.8817 30.8906 89.585 29.674 89.585 28.1733" stroke="#AAAAAA" stroke-width="1.08693" stroke-linecap="round"/>
<path d="M111.867 35.7822C114.081 42.1073 124.266 42.2423 128.916 37.0063" stroke="#AAAAAA" stroke-width="1.08693" stroke-linecap="round"/>
<path d="M128.986 36.869C129.284 37.1674 129.547 37.3717 130.294 37.3717C130.888 37.3717 131.321 37.0519 131.659 36.4312" stroke="#AAAAAA" stroke-width="1.08693" stroke-linecap="round"/>
<path d="M59.6944 35.7813C57.4803 42.1064 47.0935 42.2414 42.4443 37.0053" stroke="#AAAAAA" stroke-width="1.08693" stroke-linecap="round"/>
<path d="M42.3736 36.868C42.076 37.1664 41.813 37.3707 41.0657 37.3707C40.4715 37.3707 40.0388 37.051 39.7008 36.4302" stroke="#AAAAAA" stroke-width="1.08693" stroke-linecap="round"/>
<path d="M27.6685 7.97172L25.3628 10.2775C24.9383 10.7019 24.9383 11.3901 25.3628 11.8146L41.0244 27.4762L44.6411 28.6129C45.4792 28.8763 46.2674 28.0882 46.004 27.2501L44.8673 23.6333L29.2056 7.97172C28.7812 7.54725 28.093 7.54725 27.6685 7.97172Z" fill="#333333" stroke="#FF6F3D" stroke-width="1.08693"/>
<path d="M31.8957 9.89355L27.2842 14.505L40.7343 27.9551L45.3458 23.3437L31.8957 9.89355Z" fill="#FF6F3D"/>
<rect width="1.6304" height="16.8475" transform="matrix(-0.707107 0.707107 0.707107 0.707107 30.3585 12.9678)" fill="#333333"/>
<path d="M45.73 25.2646L42.6557 28.339L45.3458 28.7232L46.1143 27.9547L45.73 25.2646Z" fill="#FF6F3D"/>
<rect x="109.693" y="28.1729" width="17.9344" height="2.17387" rx="1.08693" fill="#333333"/>
<path d="M137.953 6.07622C137.953 6.51723 137.902 6.95127 137.798 7.37835C137.695 7.80079 137.537 8.18377 137.325 8.52729C137.114 8.86617 136.848 9.13774 136.528 9.34199C136.212 9.54625 135.838 9.64838 135.406 9.64838C135.01 9.64838 134.681 9.54393 134.417 9.33503C134.154 9.12613 133.982 8.86849 133.902 8.56211H133.81C133.622 8.86385 133.361 9.12149 133.027 9.33503C132.698 9.54393 132.293 9.64838 131.813 9.64838C131.013 9.64838 130.397 9.40234 129.964 8.91027C129.536 8.41356 129.322 7.75901 129.322 6.94663C129.322 6.31529 129.453 5.75823 129.717 5.27544C129.98 4.78802 130.354 4.40504 130.839 4.12651C131.328 3.84798 131.902 3.70871 132.561 3.70871C132.999 3.70871 133.436 3.74817 133.874 3.82709C134.316 3.90136 134.664 3.9826 134.918 4.0708L134.777 6.9327C134.768 7.06732 134.761 7.18338 134.756 7.28086C134.756 7.37371 134.756 7.4387 134.756 7.47584C134.756 7.92613 134.829 8.22787 134.975 8.38106C135.121 8.52961 135.293 8.60389 135.49 8.60389C135.754 8.60389 135.975 8.49015 136.154 8.26269C136.337 8.03058 136.476 7.72419 136.57 7.34353C136.664 6.95823 136.711 6.53347 136.711 6.06926C136.711 5.22902 136.537 4.51181 136.189 3.91761C135.845 3.32341 135.373 2.8708 134.77 2.55977C134.168 2.24875 133.481 2.09323 132.709 2.09323C131.919 2.09323 131.218 2.21625 130.606 2.46229C129.999 2.70832 129.486 3.05416 129.067 3.49981C128.653 3.94546 128.34 4.47467 128.129 5.08744C127.917 5.69556 127.811 6.36636 127.811 7.09982C127.811 8.0004 127.973 8.76636 128.298 9.3977C128.623 10.0244 129.1 10.5002 129.731 10.8252C130.366 11.1501 131.14 11.3126 132.053 11.3126C132.622 11.3126 133.189 11.2522 133.754 11.1316C134.323 11.0062 134.839 10.8577 135.3 10.6859V11.807C134.862 11.988 134.373 12.1343 133.832 12.2457C133.29 12.3571 132.707 12.4128 132.081 12.4128C130.919 12.4128 129.924 12.2039 129.096 11.7861C128.272 11.3683 127.639 10.7648 127.197 9.97565C126.759 9.18648 126.541 8.2418 126.541 7.1416C126.541 6.25959 126.682 5.44721 126.964 4.70446C127.251 3.95707 127.663 3.30716 128.199 2.75474C128.736 2.19768 129.383 1.76596 130.14 1.45958C130.902 1.15319 131.757 1 132.702 1C133.723 1 134.629 1.20658 135.42 1.61973C136.21 2.02824 136.829 2.61084 137.276 3.36751C137.728 4.12418 137.953 5.02709 137.953 6.07622ZM130.663 6.97448C130.663 7.54083 130.78 7.95398 131.015 8.21394C131.251 8.4739 131.571 8.60389 131.975 8.60389C132.493 8.60389 132.865 8.41588 133.09 8.03986C133.316 7.66384 133.448 7.16945 133.486 6.55669L133.57 4.87854C133.448 4.84604 133.305 4.82051 133.14 4.80194C132.975 4.77873 132.799 4.76713 132.611 4.76713C132.14 4.76713 131.761 4.8739 131.474 5.08744C131.192 5.29633 130.985 5.57022 130.853 5.9091C130.726 6.24334 130.663 6.59846 130.663 6.97448Z" fill="#808080"/>
<rect x="166.214" y="22.1953" width="8.15199" height="7.06506" stroke="#808080" stroke-width="1.08693"/>
<rect x="167.301" y="20.5645" width="1.6304" height="2.17387" fill="#808080"/>
<rect x="171.648" y="20.5645" width="1.6304" height="2.17387" fill="#808080"/>
<circle cx="174.366" cy="28.7164" r="3.80426" fill="#333333" stroke="#808080" stroke-width="1.08693"/>
<path d="M174.366 27.0859V28.7163H175.724" stroke="#808080" stroke-width="1.08693" stroke-linecap="round"/>
<path d="M10.9394 50.4543C10.4646 50.4657 9.91272 50.3005 9.37223 50.0838C7.18455 49.2102 5.30191 47.9069 3.77386 46.1061C2.67764 44.8152 1.84832 43.3668 1.26685 41.777C0.724456 40.2971 1.01519 38.9814 2.07996 37.8347C2.46412 37.4213 2.93978 37.1329 3.46788 36.9333C3.89493 36.772 4.29815 36.9143 4.52311 37.3153C4.92919 38.039 5.3305 38.7666 5.73277 39.4932C5.78615 39.5896 5.84239 39.6851 5.89387 39.7825C6.12074 40.2121 6.07117 40.637 5.74993 40.9998C5.39151 41.4056 5.03214 41.8105 4.66896 42.2124C4.61748 42.2697 4.6089 42.3136 4.64036 42.3824C5.54879 44.4094 7.01297 45.8827 9.03479 46.8022C9.13583 46.848 9.19493 46.8289 9.27214 46.7592C9.67059 46.3983 10.0729 46.0421 10.477 45.6869C10.8231 45.3833 11.2511 45.3327 11.6543 45.5542C12.4884 46.0135 13.3196 46.4756 14.1499 46.9416C14.5245 47.1516 14.678 47.5498 14.5321 47.9498C13.9659 49.5033 12.5532 50.439 10.9384 50.4514L10.9394 50.4543Z" stroke="#808080" stroke-width="1.08693"/>
<rect x="140.127" y="58.6074" width="11.4128" height="8.15199" rx="1.08693" stroke="#808080" stroke-width="1.08693"/>
<rect x="140.127" y="60.2383" width="11.4128" height="1.6304" fill="#808080"/>
<path d="M29.2602 70.292H30.8906V71.9224H29.2602" stroke="#808080" stroke-width="1.08693" stroke-linecap="round" stroke-linejoin="round"/>
<path d="M21.1082 75.9982V68.118L27.0863 65.1289L33.0645 68.118V75.9982H21.1082Z" stroke="#808080" stroke-width="1.08693" stroke-linecap="round"/>
<path d="M23.0103 70.292H25.1842L23.0103 73.5528H25.1842" stroke="#808080" stroke-width="1.08693" stroke-linecap="round" stroke-linejoin="round"/>
<path d="M27.0864 70.292V73.5528" stroke="#808080" stroke-width="1.08693" stroke-linecap="round"/>
<path d="M29.2602 70.292V73.5528" stroke="#808080" stroke-width="1.08693" stroke-linecap="round"/>
<defs>
<filter id="filter0_d_3872_60256" x="50.9989" y="0.455981" width="69.5637" height="86.9544" filterUnits="userSpaceOnUse" color-interpolation-filters="sRGB">
<feFlood flood-opacity="0" result="BackgroundImageFix"/>
<feColorMatrix in="SourceAlpha" type="matrix" values="0 0 0 0 0 0 0 0 0 0 0 0 0 0 0 0 0 0 127 0" result="hardAlpha"/>
<feOffset dy="3.80426"/>
<feGaussianBlur stdDeviation="4.076"/>
<feColorMatrix type="matrix" values="0 0 0 0 0.333333 0 0 0 0 0.333333 0 0 0 0 0.333333 0 0 0 0.1 0"/>
<feBlend mode="normal" in2="BackgroundImageFix" result="effect1_dropShadow_3872_60256"/>
<feBlend mode="normal" in="SourceGraphic" in2="effect1_dropShadow_3872_60256" result="shape"/>
</filter>
</defs>
</svg>
