<svg width="180" height="88" viewBox="0 0 180 88" fill="none" xmlns="http://www.w3.org/2000/svg">
<g filter="url(#filter0_d_3723_135643)">
<path d="M59.5652 5.89116C59.5652 5.29085 60.0518 4.8042 60.6521 4.8042H104.13L112.826 13.4999V74.3694C112.826 74.9697 112.339 75.4564 111.739 75.4564H60.6521C60.0518 75.4564 59.5652 74.9697 59.5652 74.3694V5.89116Z" fill="white"/>
<path d="M60.1087 5.89116C60.1087 5.591 60.352 5.34768 60.6521 5.34768H103.905L112.283 13.725V74.3694C112.283 74.6696 112.039 74.9129 111.739 74.9129H60.6521C60.352 74.9129 60.1087 74.6696 60.1087 74.3694V5.89116Z" stroke="#AAAAAA" stroke-width="1.08696"/>
</g>
<rect x="65.5979" y="51.5435" width="3.80435" height="3.80435" rx="1.08696" fill="#27ABA3"/>
<rect x="65.5979" y="61.8696" width="19.0217" height="3.80435" rx="1.08696" fill="#27ABA3"/>
<rect x="88.3696" y="62.1411" width="19.0217" height="3.26087" rx="1.08696" stroke="#27ABA3" stroke-width="0.543478" stroke-linecap="round" stroke-dasharray="1.63 1.63"/>
<rect x="65.5979" y="42.8477" width="19.0217" height="2.17391" rx="1.08696" fill="#27ABA3"/>
<rect x="88.424" y="51.5435" width="3.80435" height="3.80435" rx="1.08696" fill="#27ABA3"/>
<rect x="71.5762" y="51.5435" width="13.0435" height="3.80435" rx="1.08696" fill="#E2E2E2"/>
<rect x="65.5979" y="47.1958" width="41.8478" height="2.17391" rx="1.08696" fill="#E2E2E2"/>
<rect x="65.5979" y="57.522" width="41.8478" height="2.17391" rx="1.08696" fill="#E2E2E2"/>
<rect x="65.5979" y="67.8477" width="41.8478" height="2.17391" rx="1.08696" fill="#E2E2E2"/>
<rect x="94.4022" y="51.5435" width="13.0435" height="3.80435" rx="1.08696" fill="#E2E2E2"/>
<path d="M104.13 4.8042L112.826 13.4999H104.13V4.8042Z" fill="#AAAAAA"/>
<rect x="107.391" y="26" width="32.0652" height="6.52174" rx="1.08696" fill="#94D5D2" stroke="#27ABA3" stroke-width="1.08696"/>
<circle cx="79.4021" cy="20.2943" r="1.90217" fill="#AAAAAA"/>
<circle cx="92.4456" cy="20.2943" r="1.90217" fill="#AAAAAA"/>
<path d="M82.3913 28.1737C82.3913 29.6745 84.0946 30.8911 86.1957 30.8911C88.2967 30.8911 90 29.6745 90 28.1737" stroke="#AAAAAA" stroke-width="1.08696" stroke-linecap="round"/>
<path d="M112.283 35.7827C114.497 42.1079 124.682 42.2429 129.331 37.0068" stroke="#AAAAAA" stroke-width="1.08696" stroke-linecap="round"/>
<path d="M129.402 36.8704C129.7 37.1688 129.963 37.3732 130.71 37.3732C131.304 37.3732 131.737 37.0534 132.075 36.4326" stroke="#AAAAAA" stroke-width="1.08696" stroke-linecap="round"/>
<path d="M60.1088 35.7823C57.8947 42.1075 47.5075 42.2425 42.8583 37.0063" stroke="#AAAAAA" stroke-width="1.08696" stroke-linecap="round"/>
<path d="M42.7877 36.8685C42.49 37.1669 42.227 37.3712 41.4797 37.3712C40.8855 37.3712 40.4528 37.0514 40.1148 36.4307" stroke="#AAAAAA" stroke-width="1.08696" stroke-linecap="round"/>
<path d="M29.6191 7.97127C29.1946 7.54679 28.5064 7.54679 28.0819 7.97127L25.7761 10.2771C25.3517 10.7015 25.3517 11.3898 25.7761 11.8142L41.4381 27.4762L45.055 28.6129C45.8931 28.8763 46.6812 28.0882 46.4178 27.2501L45.2811 23.6332L29.6191 7.97127Z" fill="white" stroke="#FF6F3D" stroke-width="1.08696"/>
<path d="M32.3094 9.89209L27.6978 14.5037L41.1482 27.9541L45.7598 23.3425L32.3094 9.89209Z" fill="#FF6F3D"/>
<rect width="1.63043" height="16.8478" transform="matrix(-0.707107 0.707107 0.707107 0.707107 30.7722 12.9673)" fill="white"/>
<path d="M46.144 25.2642L43.0697 28.3385L45.7597 28.7228L46.5283 27.9542L46.144 25.2642Z" fill="#FF6F3D"/>
<rect x="110.109" y="28.1738" width="17.9348" height="2.17391" rx="1.08696" fill="white"/>
<path d="M138.37 6.07633C138.37 6.51735 138.318 6.9514 138.214 7.37849C138.111 7.80094 137.953 8.18393 137.741 8.52746C137.53 8.86634 137.264 9.13792 136.944 9.34218C136.629 9.54644 136.254 9.64857 135.822 9.64857C135.426 9.64857 135.097 9.54411 134.833 9.33521C134.57 9.12631 134.398 8.86866 134.318 8.56227H134.226C134.038 8.86402 133.777 9.12167 133.443 9.33521C133.114 9.54411 132.709 9.64857 132.229 9.64857C131.429 9.64857 130.813 9.40252 130.38 8.91044C129.952 8.41372 129.737 7.75916 129.737 6.94676C129.737 6.31541 129.869 5.75834 130.133 5.27554C130.396 4.7881 130.77 4.40511 131.255 4.12657C131.744 3.84804 132.318 3.70877 132.977 3.70877C133.415 3.70877 133.852 3.74823 134.29 3.82715C134.732 3.90142 135.08 3.98266 135.335 4.07087L135.193 6.93283C135.184 7.06746 135.177 7.18352 135.172 7.281C135.172 7.37385 135.172 7.43884 135.172 7.47598C135.172 7.92628 135.245 8.22803 135.391 8.38122C135.537 8.52978 135.709 8.60405 135.906 8.60405C136.17 8.60405 136.391 8.49032 136.57 8.26285C136.753 8.03073 136.892 7.72434 136.986 7.34367C137.08 6.95836 137.127 6.5336 137.127 6.06937C137.127 5.22912 136.953 4.51188 136.605 3.91767C136.262 3.32346 135.789 2.87084 135.186 2.55981C134.584 2.24877 133.897 2.09326 133.125 2.09326C132.335 2.09326 131.634 2.21628 131.022 2.46232C130.415 2.70836 129.902 3.05421 129.483 3.49987C129.069 3.94553 128.756 4.47475 128.545 5.08753C128.333 5.69567 128.227 6.36647 128.227 7.09995C128.227 8.00056 128.389 8.76653 128.714 9.39788C129.039 10.0246 129.516 10.5004 130.147 10.8254C130.782 11.1503 131.556 11.3128 132.469 11.3128C133.038 11.3128 133.605 11.2525 134.17 11.1318C134.739 11.0064 135.255 10.8579 135.716 10.6861V11.8072C135.278 11.9883 134.789 12.1345 134.248 12.2459C133.706 12.3573 133.123 12.413 132.497 12.413C131.335 12.413 130.34 12.2041 129.512 11.7863C128.688 11.3685 128.055 10.765 127.613 9.97585C127.175 9.18666 126.957 8.24196 126.957 7.14174C126.957 6.2597 127.098 5.4473 127.38 4.70454C127.667 3.95713 128.079 3.30721 128.615 2.75478C129.152 2.19771 129.799 1.76598 130.556 1.45959C131.318 1.1532 132.173 1 133.118 1C134.139 1 135.045 1.20658 135.836 1.61974C136.626 2.02826 137.245 2.61087 137.692 3.36756C138.144 4.12425 138.37 5.02718 138.37 6.07633ZM131.079 6.97461C131.079 7.54097 131.196 7.95413 131.431 8.2141C131.667 8.47407 131.987 8.60405 132.391 8.60405C132.909 8.60405 133.281 8.41604 133.507 8.04002C133.732 7.66399 133.864 7.16959 133.902 6.55681L133.986 4.87862C133.864 4.84613 133.721 4.8206 133.556 4.80203C133.391 4.77882 133.215 4.76721 133.027 4.76721C132.556 4.76721 132.177 4.87398 131.89 5.08753C131.608 5.29643 131.401 5.57032 131.269 5.90921C131.142 6.24345 131.079 6.59859 131.079 6.97461Z" fill="#CCCCCC"/>
<rect x="166.63" y="22.1963" width="8.15217" height="7.06522" stroke="#CCCCCC" stroke-width="1.08696"/>
<rect x="167.717" y="20.5659" width="1.63043" height="2.17391" fill="#CCCCCC"/>
<rect x="172.065" y="20.5659" width="1.63043" height="2.17391" fill="#CCCCCC"/>
<circle cx="174.783" cy="28.7179" r="3.80435" fill="white" stroke="#CCCCCC" stroke-width="1.08696"/>
<path d="M174.783 27.0879V28.7183H176.141" stroke="#CCCCCC" stroke-width="1.08696" stroke-linecap="round"/>
<path d="M11.3527 50.456C10.8779 50.4675 10.326 50.3023 9.7855 50.0856C7.59777 49.2119 5.71509 47.9086 4.18701 46.1078C3.09076 44.8169 2.26143 43.3684 1.67994 41.7786C1.13754 40.2986 1.42828 38.9829 2.49307 37.8362C2.87723 37.4227 3.35291 37.1344 3.88102 36.9348C4.30808 36.7734 4.7113 36.9157 4.93627 37.3167C5.34236 38.0405 5.74368 38.7681 6.14596 39.4947C6.19934 39.5911 6.25558 39.6866 6.30706 39.784C6.53394 40.2137 6.48437 40.6386 6.16312 41.0014C5.80469 41.4072 5.44531 41.812 5.08212 42.214C5.03065 42.2713 5.02207 42.3152 5.05352 42.384C5.96198 44.4111 7.42619 45.8843 9.44805 46.8038C9.54909 46.8497 9.6082 46.8306 9.68541 46.7609C10.0839 46.3999 10.4861 46.0438 10.8903 45.6886C11.2364 45.385 11.6644 45.3344 12.0676 45.5559C12.9017 46.0152 13.7329 46.4773 14.5632 46.9432C14.9379 47.1533 15.0913 47.5515 14.9455 47.9515C14.3793 49.505 12.9665 50.4407 11.3517 50.4532L11.3527 50.456Z" stroke="#CCCCCC" stroke-width="1.08696"/>
<rect x="140.543" y="58.6079" width="11.413" height="8.15217" rx="1.08696" stroke="#CCCCCC" stroke-width="1.08696"/>
<rect x="140.543" y="60.2383" width="11.413" height="1.63043" fill="#CCCCCC"/>
<path d="M29.6739 70.293H31.3043V71.9234H29.6739" stroke="#CCCCCC" stroke-width="1.08696" stroke-linecap="round" stroke-linejoin="round"/>
<path d="M21.5217 75.9994V68.119L27.5 65.1299L33.4783 68.119V75.9994H21.5217Z" stroke="#CCCCCC" stroke-width="1.08696" stroke-linecap="round"/>
<path d="M23.4239 70.293H25.5978L23.4239 73.5538H25.5978" stroke="#CCCCCC" stroke-width="1.08696" stroke-linecap="round" stroke-linejoin="round"/>
<path d="M27.5 70.293V73.5538" stroke="#CCCCCC" stroke-width="1.08696" stroke-linecap="round"/>
<path d="M29.6739 70.293V73.5538" stroke="#CCCCCC" stroke-width="1.08696" stroke-linecap="round"/>
<defs>
<filter id="filter0_d_3723_135643" x="51.413" y="0.456373" width="69.5652" height="86.9567" filterUnits="userSpaceOnUse" color-interpolation-filters="sRGB">
<feFlood flood-opacity="0" result="BackgroundImageFix"/>
<feColorMatrix in="SourceAlpha" type="matrix" values="0 0 0 0 0 0 0 0 0 0 0 0 0 0 0 0 0 0 127 0" result="hardAlpha"/>
<feOffset dy="3.80435"/>
<feGaussianBlur stdDeviation="4.07609"/>
<feColorMatrix type="matrix" values="0 0 0 0 0.333333 0 0 0 0 0.333333 0 0 0 0 0.333333 0 0 0 0.1 0"/>
<feBlend mode="normal" in2="BackgroundImageFix" result="effect1_dropShadow_3723_135643"/>
<feBlend mode="normal" in="SourceGraphic" in2="effect1_dropShadow_3723_135643" result="shape"/>
</filter>
</defs>
</svg>
