<svg width="36" height="36" viewBox="0 0 36 36" fill="none" xmlns="http://www.w3.org/2000/svg">
<rect width="36" height="36" rx="6" fill="currentColor" fill-opacity="0.1"/>
<g clip-path="url(#clip0_2912_48392)">
<path fill-rule="evenodd" clip-rule="evenodd" d="M21.5002 17.0862L23.2932 15.2932C24.0072 14.5791 24.0072 13.4215 23.2932 12.7074C22.5792 11.9934 21.4215 11.9934 20.7074 12.7074L18.9105 14.5043L18.9117 14.5019L18.9122 14.5003L18.9119 14.4993L18.9105 14.4964L18.9066 14.5003L17.4963 15.9105C16.7175 15.1317 16.7175 13.8689 17.4963 13.0901L19.2932 11.2932C20.7883 9.7981 23.2123 9.7981 24.7074 11.2932C26.2025 12.7883 26.2025 15.2123 24.7074 16.7074L22.9144 18.5004C22.1334 19.2814 20.8672 19.2814 20.0862 18.5004L21.5002 17.0862ZM14.5004 18.9144L12.7074 20.7074C11.9934 21.4215 11.9934 22.5791 12.7074 23.2932C13.4215 24.0072 14.5791 24.0072 15.2932 23.2932L17.0901 21.4963L17.0889 21.4987L17.0884 21.5003L17.0887 21.5013L17.0901 21.5042L17.0941 21.5003L18.5043 20.0901C19.2831 20.8689 19.2831 22.1317 18.5043 22.9105L16.7074 24.7074C15.2123 26.2025 12.7883 26.2025 11.2932 24.7074C9.7981 23.2123 9.7981 20.7883 11.2932 19.2932L13.0862 17.5002C13.8672 16.7192 15.1334 16.7192 15.9144 17.5002L14.5004 18.9144ZM15.7074 21.7074L21.7074 15.7074L20.2932 14.2932L14.2932 20.2932L15.7074 21.7074Z" fill="currentColor"/>
</g>
<defs>
<clipPath id="clip0_2912_48392">
<rect width="16" height="16" fill="white" transform="translate(10 10)"/>
</clipPath>
</defs>
</svg>
