<svg width="36" height="36" viewBox="0 0 36 36" fill="none" xmlns="http://www.w3.org/2000/svg">
<rect width="36" height="36" rx="6" fill="currentColor" fill-opacity="0.1"/>
<path fill-rule="evenodd" clip-rule="evenodd" d="M18 11C18.2919 11 18.5693 11.1276 18.7593 11.3492L24.7593 18.3492C25.0134 18.6457 25.0717 19.0631 24.9085 19.4179C24.7453 19.7727 24.3905 20 24 20H20.994V22H18.994V19C18.994 18.4477 19.4417 18 19.994 18H21.8258L18 13.5366L14.1742 18H15.9938C16.5461 18 16.9938 18.4477 16.9938 19V22H14.9938V20H12C11.6095 20 11.2547 19.7727 11.0915 19.4179C10.9283 19.0631 10.9866 18.6457 11.2407 18.3492L17.2407 11.3492C17.4307 11.1276 17.7081 11 18 11ZM25 23V25H11V23H25Z" fill="currentColor"/>
</svg>
