<svg width="36" height="36" viewBox="0 0 36 36" fill="none" xmlns="http://www.w3.org/2000/svg">
<rect width="36" height="36" rx="6" fill="#F97A0B" fill-opacity="0.1"/>
<g clip-path="url(#clip0_2912_34328)">
<path d="M14 15L17 18L14 21" stroke="#F97A0B" stroke-width="2" stroke-linejoin="round"/>
<path d="M17.0006 18.005C17.0006 18.005 14.6559 17.9596 13.8335 18.0051C13.1223 18.0445 12.4224 18.3359 11.8791 18.8792C10.7076 20.0507 10.7076 21.9502 11.8791 23.1218C12.4649 23.7076 13.2327 24.0005 14.0004 24.0005L17.0004 24.0005" stroke="#F97A0B" stroke-width="2" stroke-linejoin="round"/>
<path fill-rule="evenodd" clip-rule="evenodd" d="M12 11C10.8954 11 10 11.8954 10 13V16.5281C10.5984 15.9922 11.2801 15.5968 12 15.3426V13H16.5858L19 15.4142C19.3751 15.7893 19.8838 16 20.4142 16H24V23H17.0004V25H24C25.1046 25 26 24.1046 26 23V16C26 14.8954 25.1046 14 24 14H20.4142L18 11.5858C17.6249 11.2107 17.1162 11 16.5858 11H12Z" fill="#F97A0B"/>
</g>
<defs>
<clipPath id="clip0_2912_34328">
<rect width="16" height="16" fill="white" transform="translate(10 10)"/>
</clipPath>
</defs>
</svg>
