<svg width="150" height="100" viewBox="0 0 150 100" fill="none" xmlns="http://www.w3.org/2000/svg">
<path d="M53.2214 56.1752L95.3731 52.7145L95.0785 81.1186C95.0696 81.9784 94.4081 82.6903 93.5512 82.7621L52.8679 86.1731L53.2214 56.1752Z" fill="#666666"/>
<path d="M37.7612 24.7476C37.6737 24.5396 37.7676 24.2998 37.973 24.2065L60.0076 14.2042L65.7261 16.5705L79.2648 47.9053C79.3552 48.1146 79.2606 48.3577 79.0526 48.4509L53.0893 60.0762C52.8759 60.1717 52.6257 60.073 52.535 59.8575L37.7612 24.7476Z" fill="#444444" stroke="#AAAAAA" stroke-width="0.833333"/>
<path d="M43.3335 37.9167C43.7502 40.0001 43.7502 43.7501 41.4585 45.0001C40.0175 45.7861 38.2641 45.5556 37.7085 45.4167" stroke="#AAAAAA" stroke-width="0.833333" stroke-linecap="round"/>
<path d="M35.8334 46.0417C36.0363 46.2313 36.2359 46.6181 36.875 46.4583C37.5142 46.2986 37.5 45.8333 37.7084 45.4167" stroke="#AAAAAA" stroke-width="0.833333" stroke-linecap="round"/>
<path d="M70.0002 26.4583C70.6343 27.4638 72.6019 29.6512 75.2086 29.7917C76.8477 29.88 78.3336 28.9583 78.5419 28.125" stroke="#AAAAAA" stroke-width="0.833333" stroke-linecap="round"/>
<path d="M80.0001 28.125C79.3942 28.3836 78.9595 28.3313 78.5418 28.125" stroke="#AAAAAA" stroke-width="0.833333" stroke-linecap="round"/>
<rect x="49.1665" y="42.481" width="21.6667" height="0.833333" rx="0.416667" transform="rotate(-23.7636 49.1665 42.481)" fill="#808080"/>
<rect x="59.3262" y="40.7393" width="11.6667" height="0.833333" rx="0.416667" transform="rotate(-23.7636 59.3262 40.7393)" fill="#808080"/>
<rect x="60.3335" y="43.0273" width="11.6667" height="0.833333" rx="0.416667" transform="rotate(-23.7636 60.3335 43.0273)" fill="#808080"/>
<rect x="52.189" y="49.345" width="21.6667" height="0.833333" rx="0.416667" transform="rotate(-23.7636 52.189 49.345)" fill="#808080"/>
<rect x="53.1963" y="51.6331" width="21.6667" height="0.833333" rx="0.416667" transform="rotate(-23.7636 53.1963 51.6331)" fill="#9ADAF3"/>
<path d="M53.179 44.3563L51.8983 47.6518L59.5251 44.2938L55.3446 42.037L54.6588 44.6153L53.179 44.3563Z" fill="#9ADAF3"/>
<path d="M52.0202 28.3026C51.6486 27.4605 50.5793 27.1167 49.6319 27.5348C48.6845 27.9528 48.2178 28.9744 48.5894 29.8166" stroke="#AAAAAA" stroke-width="0.833333" stroke-linecap="round"/>
<path d="M58.882 25.2748C58.5104 24.4327 57.4411 24.0889 56.4937 24.5069C55.5463 24.925 55.0796 25.9466 55.4512 26.7887" stroke="#AAAAAA" stroke-width="0.833333" stroke-linecap="round"/>
<path d="M52.9058 33.5597C54.1298 34.2918 55.6297 34.4521 56.9764 33.8579C58.3231 33.2636 59.2157 32.0476 59.4998 30.6499C59.562 30.3442 59.2486 30.1226 58.9632 30.2486L52.971 32.8928C52.6856 33.0187 52.6381 33.3995 52.9058 33.5597Z" fill="#AAAAAA"/>
<path d="M60 13.75L66.0417 16.25L65.4167 16.875L61.4583 18.75L60 14.7917V13.75Z" fill="#AAAAAA"/>
<path d="M41.3896 57.4317C41.2204 56.7148 41.7046 56.0077 42.4343 55.9064L56.2177 53.9928C56.3376 53.9762 56.4589 54.0125 56.5499 54.0925L59.3562 56.5571C59.8026 56.9492 60.3952 57.132 60.9849 57.0596L84.6724 54.1505C85.3164 54.0714 85.9139 54.4983 86.0478 55.1332L91.3451 80.2512C91.5233 81.0964 91.9846 81.8419 92.6352 82.3761L49.2862 86.2193C48.6673 86.2742 48.102 85.8661 47.9592 85.2614L41.3896 57.4317Z" fill="#333333" stroke="#666666" stroke-width="0.833333"/>
<g filter="url(#filter0_d_1408_106874)">
<path d="M85.394 26.7682C85.4875 26.5569 85.735 26.462 85.9458 26.5567L108.223 36.5634L110.587 42.0802L96.5581 73.6222C96.4648 73.8322 96.219 73.9269 96.0088 73.8339L70.0972 62.3685C69.8868 62.2754 69.7917 62.0293 69.8848 61.8189L85.394 26.7682Z" fill="#4A4A4A" stroke="#AAAAAA" stroke-width="0.833333"/>
<path d="M78.5499 58.6814L74.1979 60.732L84.4856 65.2845L82.8053 59.0732L79.6442 60.6567L78.5499 58.6814Z" fill="#FF6F3D"/>
<circle cx="79.9439" cy="55.9844" r="1.25" transform="rotate(23.87 79.9439 55.9844)" fill="#FF6F3D"/>
<rect x="78.3564" y="51.25" width="11.7717" height="0.833333" rx="0.416667" transform="rotate(23.87 78.3564 51.25)" fill="#FF6F3D"/>
<rect x="89.2573" y="59.6499" width="9.16667" height="0.833333" rx="0.416667" transform="rotate(23.87 89.2573 59.6499)" fill="#808080"/>
<rect x="88.4141" y="61.5552" width="9.16667" height="0.833333" rx="0.416667" transform="rotate(23.87 88.4141 61.5552)" fill="#808080"/>
<rect x="87.5713" y="63.4602" width="9.16667" height="0.833333" rx="0.416667" transform="rotate(23.87 87.5713 63.4602)" fill="#808080"/>
<rect x="86.728" y="65.3652" width="9.16667" height="0.833333" rx="0.416667" transform="rotate(23.87 86.728 65.3652)" fill="#808080"/>
<path d="M89.457 44.0119C89.7184 45.414 90.591 46.6444 91.9278 47.2606C93.2647 47.8767 94.767 47.7409 96.0028 47.0288C96.2731 46.873 96.2317 46.4915 95.9484 46.3609L90.0002 43.6194C89.7168 43.4888 89.3999 43.7052 89.457 44.0119Z" fill="#AAAAAA"/>
<path d="M108.542 36.25L111.042 42.0833L110.079 42.3354L106 40.7403L107.917 36.875L108.542 36.25Z" fill="#AAAAAA"/>
<circle cx="91.294" cy="38.7388" r="1.25" transform="rotate(24.4777 91.294 38.7388)" fill="#AAAAAA"/>
<circle cx="98.3219" cy="41.9637" r="1.25" transform="rotate(24.4777 98.3219 41.9637)" fill="#AAAAAA"/>
<path d="M79.1858 40.4165C77.2414 40.9721 73.6442 42.5415 74.8108 44.3748C75.9775 46.2082 79.4636 46.6665 81.0608 46.6665" stroke="#AAAAAA" stroke-width="0.833333" stroke-linecap="round"/>
<path d="M81.2495 46.6567C81.4762 47.0132 82.0829 47.661 82.6967 47.4006" stroke="#AAAAAA" stroke-width="0.833333" stroke-linecap="round"/>
<path d="M106.282 52.2115C107.192 54.0174 108.477 57.7256 106.339 58.1112C104.2 58.4967 101.5 56.2451 100.417 55.0711" stroke="#AAAAAA" stroke-width="0.833333" stroke-linecap="round"/>
<path d="M98.75 54.1567C98.9767 54.5132 99.803 55.2603 100.417 54.9999" stroke="#AAAAAA" stroke-width="0.833333" stroke-linecap="round"/>
</g>
<path d="M108.982 27.4852C109.007 27.7988 108.689 28.0256 108.4 27.8998L105.258 26.5282C104.961 26.3987 104.919 25.9948 105.183 25.807L108.057 23.7603C108.321 23.5724 108.688 23.7441 108.714 24.067L108.982 27.4852Z" fill="#F36700"/>
<path d="M29.8155 39.5685C29.8401 39.8821 29.5217 40.1088 29.2334 39.983L26.0909 38.6115C25.7941 38.4819 25.7521 38.0781 26.0159 37.8902L28.8897 35.8435C29.1535 35.6556 29.5214 35.8274 29.5468 36.1503L29.8155 39.5685Z" fill="#F36700"/>
<path d="M106.081 81.6208C105.802 81.7664 105.469 81.5623 105.472 81.2478L105.502 77.8191C105.505 77.4953 105.86 77.2983 106.136 77.4674L109.145 79.3093C109.421 79.4784 109.408 79.8842 109.121 80.0341L106.081 81.6208Z" fill="#95C03D"/>
<path d="M83.9825 14.152C84.0071 14.4656 83.6887 14.6923 83.4004 14.5665L80.2579 13.195C79.9611 13.0654 79.9191 12.6616 80.1829 12.4737L83.0567 10.427C83.3205 10.2391 83.6884 10.4109 83.7138 10.7338L83.9825 14.152Z" fill="#95C03D"/>
<path d="M98.9725 12.8839C98.6901 13.0224 98.3619 12.8101 98.3725 12.4958L98.4881 9.06894C98.4991 8.74525 98.8589 8.55723 99.1309 8.73313L102.093 10.6494C102.365 10.8253 102.341 11.2306 102.051 11.3733L98.9725 12.8839Z" fill="#5FC1E8"/>
<path d="M33.5656 70.7791C33.516 71.0897 33.1533 71.2354 32.9025 71.0454L30.1697 68.9748C29.9115 68.7792 29.9654 68.3767 30.266 68.256L33.5399 66.9409C33.8404 66.8202 34.1577 67.0735 34.1066 67.3933L33.5656 70.7791Z" fill="#5FC1E8"/>
<path d="M17.0835 52.0833C17.0835 51.6231 17.4566 51.25 17.9168 51.25H29.5835C30.0437 51.25 30.4168 51.6231 30.4168 52.0833V57.9167C30.4168 58.3769 30.0437 58.75 29.5835 58.75H27.0835V60.4167L23.7502 58.75H17.9168C17.4566 58.75 17.0835 58.3769 17.0835 57.9167V52.0833Z" fill="#444444"/>
<circle cx="20.4168" cy="55.0001" r="0.833333" fill="#333333"/>
<circle cx="23.7503" cy="55.0001" r="0.833333" fill="#333333"/>
<circle cx="27.0833" cy="55.0001" r="0.833333" fill="#333333"/>
<path d="M127.5 62.5001C127.5 62.0398 127.127 61.6667 126.667 61.6667H115C114.54 61.6667 114.167 62.0398 114.167 62.5001V68.3334C114.167 68.7937 114.54 69.1667 115 69.1667H117.5V70.8334L120.833 69.1667H126.667C127.127 69.1667 127.5 68.7937 127.5 68.3334V62.5001Z" fill="#444444"/>
<circle cx="0.833333" cy="0.833333" r="0.833333" transform="matrix(-1 0 0 1 125 64.5835)" fill="#333333"/>
<circle cx="0.833333" cy="0.833333" r="0.833333" transform="matrix(-1 0 0 1 121.667 64.5835)" fill="#333333"/>
<circle cx="0.833333" cy="0.833333" r="0.833333" transform="matrix(-1 0 0 1 118.333 64.5835)" fill="#333333"/>
<defs>
<filter id="filter0_d_1408_106874" x="59.0155" y="18.6033" width="62.4427" height="69.0164" filterUnits="userSpaceOnUse" color-interpolation-filters="sRGB">
<feFlood flood-opacity="0" result="BackgroundImageFix"/>
<feColorMatrix in="SourceAlpha" type="matrix" values="0 0 0 0 0 0 0 0 0 0 0 0 0 0 0 0 0 0 127 0" result="hardAlpha"/>
<feOffset dy="2.91667"/>
<feGaussianBlur stdDeviation="5.20833"/>
<feColorMatrix type="matrix" values="0 0 0 0 0 0 0 0 0 0 0 0 0 0 0 0 0 0 0.15 0"/>
<feBlend mode="normal" in2="BackgroundImageFix" result="effect1_dropShadow_1408_106874"/>
<feBlend mode="normal" in="SourceGraphic" in2="effect1_dropShadow_1408_106874" result="shape"/>
</filter>
</defs>
</svg>
