<svg width="93" height="40" viewBox="0 0 93 40" fill="none" xmlns="http://www.w3.org/2000/svg">
<path opacity="0.54" d="M27.7495 26.9372H26.0098V13.5023H33.9107V15.1529H27.7495V19.5638H33.3067V21.1763H27.7495V26.9372ZM37.1818 15.4359C36.7671 15.8493 36.1158 15.9142 35.6266 15.591C35.1373 15.2677 34.9463 14.6463 35.1704 14.107C35.3946 13.5677 35.9714 13.2607 36.548 13.3739C37.1246 13.4872 37.5403 13.989 37.5406 14.5724C37.5462 14.8974 37.4157 15.21 37.1803 15.4359H37.1818ZM37.1818 26.9372H35.4421V17.7432H37.1818V26.9372ZM40.9993 26.9372H39.2596V17.7432H40.9225V19.2442H40.9978C41.1987 18.7153 41.5845 18.2756 42.0848 18.0056C42.5625 17.7011 43.1151 17.5323 43.6826 17.5174C44.1282 17.5049 44.5717 17.5816 44.9867 17.7432L44.3251 19.3556C44.0268 19.2571 43.7132 19.2124 43.3991 19.2237C42.7612 19.2269 42.154 19.4961 41.7259 19.9655C41.2405 20.4599 40.9978 21.1074 40.9978 21.9078L40.9993 26.9372ZM49.7538 27.2304C48.3547 27.2304 47.2176 26.7677 46.3424 25.8422C45.4671 24.9167 45.029 23.7494 45.028 22.3402C45.0023 21.0714 45.4577 19.8393 46.304 18.888C47.1145 17.9412 48.3134 17.4097 49.5647 17.4427C50.9382 17.4427 52.0379 17.8868 52.8639 18.7752C53.6899 19.6635 54.1024 20.8518 54.1015 22.3402L54.0823 22.6598H46.7647C46.8149 23.5852 47.127 24.3182 47.701 24.8586C48.2378 25.3816 48.9618 25.6716 49.7139 25.6648C50.9613 25.6648 51.8055 25.1396 52.2466 24.089L53.7972 24.7267C53.483 25.4536 52.9647 26.0754 52.3042 26.518C51.6101 26.9929 50.76 27.2304 49.7538 27.2304ZM52.2496 21.2203C52.2121 20.6945 51.9695 20.1941 51.5215 19.7192C51.0735 19.2442 50.4075 19.0116 49.5234 19.0214C48.9102 19.0108 48.3145 19.2247 47.8502 19.6224C47.3637 20.0456 47.0233 20.6096 46.877 21.2349L52.2496 21.2203ZM60.3867 27.2304C59.7285 27.2434 59.0775 27.0922 58.4935 26.7906C57.9805 26.5338 57.5465 26.145 57.2367 25.6648H57.1614V26.9372H55.497V13.5023H57.2367V17.7432L57.1614 19.0185H57.2367C57.5465 18.5383 57.9805 18.1495 58.4935 17.8927C59.0766 17.5877 59.7276 17.4329 60.3867 17.4427C61.5839 17.4427 62.6177 17.9117 63.488 18.8499C64.3583 19.7881 64.793 20.9515 64.792 22.3402C64.792 23.7289 64.3573 24.8923 63.488 25.8305C62.6187 26.7686 61.5849 27.2353 60.3867 27.2304ZM60.1032 25.6546C60.8957 25.6608 61.6528 25.3294 62.1825 24.7443C62.7624 24.1374 63.0523 23.3336 63.0523 22.3329C63.0523 21.3322 62.7624 20.5284 62.1825 19.9215C61.6467 19.3434 60.892 19.0137 60.1007 19.012C59.3093 19.0103 58.5532 19.3368 58.015 19.9127C57.442 20.5127 57.1555 21.3194 57.1555 22.3329C57.1555 23.3463 57.4449 24.1555 58.0238 24.7604C58.5569 25.3433 59.316 25.6715 60.1091 25.6619L60.1032 25.6546ZM69.2209 27.2304C68.2364 27.2304 67.4143 26.949 66.7547 26.386C66.095 25.8231 65.7642 25.079 65.7623 24.1535C65.7623 23.1528 66.1531 22.368 66.9349 21.7993C67.7166 21.2305 68.6804 20.9461 69.8264 20.9461C70.8474 20.9461 71.6842 21.1338 72.337 21.509V21.2466C72.3619 20.6287 72.1047 20.0325 71.637 19.6239C71.1606 19.2167 70.5478 19.0017 69.9195 19.0214C69.4386 19.0153 68.9651 19.1384 68.549 19.3776C68.1592 19.5919 67.8603 19.9386 67.7072 20.3539L66.1197 19.6781C66.3343 19.126 66.7566 18.6139 67.3867 18.1419C68.0168 17.6699 68.8488 17.4353 69.8825 17.4383C71.064 17.4383 72.0485 17.7803 72.8361 18.4644C73.6238 19.1485 74.0146 20.1179 74.0087 21.3727V26.9372H72.3399V25.6619H72.2646C71.5705 26.7076 70.556 27.2304 69.2209 27.2304ZM69.5045 25.6546C70.2355 25.652 70.9372 25.3689 71.4627 24.8645C72.0228 24.3958 72.3468 23.7064 72.3488 22.9793C71.8565 22.5786 71.1181 22.3783 70.1336 22.3783C69.2889 22.3783 68.6524 22.5596 68.2241 22.9222C67.8244 23.2271 67.5877 23.6971 67.5817 24.1975C67.5736 24.6329 67.7983 25.04 68.1724 25.2676C68.5658 25.5301 69.0304 25.6677 69.5045 25.6619V25.6546ZM79.1258 27.2304C78.0921 27.2304 77.2385 26.9802 76.5651 26.4799C75.9099 25.9995 75.3992 25.3508 75.0883 24.6035L76.6389 23.9659C77.1312 25.1171 77.968 25.6927 79.1495 25.6927C79.6188 25.7118 80.0827 25.5874 80.4786 25.3365C80.805 25.1353 81.0021 24.7797 80.9984 24.3983C80.9984 23.7983 80.576 23.3917 79.7313 23.1787L77.8602 22.7287C77.2445 22.567 76.6709 22.276 76.1781 21.8755C75.6536 21.4695 75.3579 20.8378 75.3836 20.178C75.3836 19.3649 75.7459 18.7053 76.4705 18.1991C77.2285 17.6826 78.1314 17.4168 79.0505 17.4397C79.8179 17.4276 80.5746 17.6194 81.2421 17.9953C81.8723 18.3504 82.3595 18.9107 82.6214 19.5814L81.1106 20.1941C80.771 19.3811 80.0651 18.9745 78.9929 18.9745C78.5369 18.9595 78.0855 19.0701 77.6889 19.2941C77.364 19.4612 77.16 19.7942 77.1602 20.1575C77.1602 20.6832 77.5698 21.04 78.3889 21.2276L80.2216 21.66C81.091 21.8555 81.7339 22.1975 82.1503 22.6861C82.5537 23.1426 82.7753 23.7295 82.7735 24.3367C82.7816 25.1463 82.4031 25.9118 81.7531 26.4007C81.0727 26.9538 80.197 27.2304 79.1258 27.2304ZM88.4828 27.2304C87.0838 27.2304 85.9467 26.7677 85.0714 25.8422C84.1962 24.9167 83.7581 23.747 83.7571 22.3329C83.7314 21.0641 84.1868 19.832 85.033 18.8807C85.8466 17.9362 87.0468 17.4076 88.2982 17.4427C89.6766 17.4427 90.7763 17.8868 91.5974 18.7752C92.4185 19.6635 92.831 20.8518 92.835 22.3402L92.8157 22.6598H85.4923C85.5425 23.5852 85.8546 24.3182 86.4286 24.8586C86.9669 25.3816 87.6927 25.6706 88.4459 25.6619C89.6933 25.6619 90.5375 25.1366 90.9786 24.0861L92.5293 24.7237C92.2151 25.4507 91.6968 26.0726 91.0362 26.515C90.3421 26.992 89.491 27.2304 88.4828 27.2304ZM90.9786 21.2203C90.9412 20.6945 90.6985 20.1941 90.2506 19.7192C89.8026 19.2442 89.1375 19.0116 88.2554 19.0214C87.6422 19.0109 87.0466 19.2248 86.5822 19.6224C86.0957 20.0456 85.7553 20.6096 85.609 21.2349L90.9786 21.2203Z" fill="black"/>
<mask id="mask0_493_2460" style="mask-type:alpha" maskUnits="userSpaceOnUse" x="0" y="7" width="19" height="26">
<path d="M16.4539 12.8074C16.4169 12.5897 16.2615 12.4108 16.0511 12.3436C15.8406 12.2765 15.6103 12.3323 15.4541 12.4884L12.3866 15.5633L9.97484 10.9717C9.8727 10.7775 9.6714 10.656 9.45203 10.656C9.23266 10.656 9.03135 10.7775 8.92921 10.9717L7.61036 13.4824L4.30215 7.31197C4.18217 7.08785 3.93226 6.96562 3.68169 7.0085C3.43112 7.05137 3.23608 7.24975 3.19744 7.50101L0 27.9691L8.55113 32.763C9.0881 33.0628 9.74211 33.0628 10.2791 32.763L18.9041 27.9691L16.4539 12.8074Z" fill="white"/>
</mask>
<g mask="url(#mask0_493_2460)">
<path d="M16.4539 12.8074C16.4169 12.5897 16.2615 12.4108 16.0511 12.3436C15.8406 12.2765 15.6103 12.3323 15.4541 12.4884L12.3866 15.5633L9.97484 10.9717C9.8727 10.7775 9.6714 10.656 9.45203 10.656C9.23266 10.656 9.03135 10.7775 8.92921 10.9717L7.61036 13.4824L4.30215 7.31197C4.18217 7.08785 3.93226 6.96562 3.68169 7.0085C3.43112 7.05137 3.23608 7.24975 3.19744 7.50101L0 27.9691L8.55113 32.763C9.0881 33.0628 9.74211 33.0628 10.2791 32.763L18.9041 27.9691L16.4539 12.8074Z" fill="url(#paint0_linear_493_2460)"/>
<path d="M0 27.9694L3.19892 7.49987C3.23802 7.24882 3.43326 7.0509 3.68374 7.00837C3.93423 6.96584 4.18385 7.08823 4.30362 7.3123L7.61183 13.4827L8.93068 10.972C9.03282 10.7779 9.23413 10.6563 9.4535 10.6563C9.67287 10.6563 9.87418 10.7779 9.97632 10.972L18.904 27.9694H0Z" fill="#FFA000"/>
<path d="M11.0515 19.9955L7.61035 13.4795L0 27.9692L11.0515 19.9955Z" fill="#F57C00"/>
<path d="M18.9041 27.9698L16.4539 12.8081C16.4169 12.5904 16.2615 12.4115 16.0511 12.3443C15.8407 12.2772 15.6103 12.3331 15.4541 12.4891L0 27.9698L8.55113 32.7652C9.0881 33.065 9.74211 33.065 10.2791 32.7652L18.9041 27.9698Z" fill="#FFCA28"/>
<path d="M16.4535 12.8074C16.4165 12.5897 16.2611 12.4108 16.0507 12.3436C15.8402 12.2765 15.6099 12.3323 15.4537 12.4884L12.3862 15.5633L9.97444 10.9717C9.8723 10.7775 9.67099 10.656 9.45162 10.656C9.23225 10.656 9.03094 10.7775 8.92881 10.9717L7.60995 13.4824L4.30174 7.31197C4.18176 7.08785 3.93186 6.96562 3.68128 7.0085C3.43071 7.05137 3.23567 7.24975 3.19704 7.50101L-0.000404056 27.9691H-0.0107422L-0.000404056 27.9809L0.083778 28.0222L12.3803 15.711L15.4492 12.6391C15.6054 12.4821 15.8363 12.4257 16.0473 12.4929C16.2582 12.5601 16.4139 12.7397 16.4505 12.9581L18.88 27.9838L18.9036 27.9691L16.4535 12.8074ZM0.0276566 27.941L3.19851 7.64574C3.23715 7.39448 3.43219 7.19611 3.68276 7.15323C3.93333 7.11035 4.18324 7.23258 4.30322 7.4567L7.61143 13.6271L8.93028 11.1164C9.03242 10.9223 9.23373 10.8007 9.4531 10.8007C9.67247 10.8007 9.87377 10.9223 9.97591 11.1164L12.3389 15.6105L0.0276566 27.941Z" fill="white" fill-opacity="0.2"/>
<path opacity="0.2" d="M10.2791 32.6206C9.74211 32.9204 9.0881 32.9204 8.55113 32.6206L0.0206763 27.8384L0 27.9699L8.55113 32.7638C9.0881 33.0636 9.74211 33.0636 10.2791 32.7638L18.9041 27.9699L18.8819 27.834L10.2791 32.6206Z" fill="#A52714"/>
</g>
<mask id="mask1_493_2460" style="mask-type:alpha" maskUnits="userSpaceOnUse" x="0" y="7" width="19" height="26">
<path d="M16.4295 12.8107C16.3926 12.5931 16.2378 12.4142 16.0281 12.3471C15.8184 12.28 15.5889 12.3358 15.4332 12.4918L12.3764 15.5654L9.97317 10.9758C9.87139 10.7817 9.67078 10.6602 9.45218 10.6602C9.23358 10.6602 9.03297 10.7817 8.93119 10.9758L7.61695 13.4854L4.32031 7.31769C4.20075 7.09366 3.95172 6.97149 3.70202 7.01435C3.45233 7.05721 3.25796 7.25549 3.21947 7.50664L0.0332031 27.9657L8.55443 32.7576C9.08953 33.0573 9.74125 33.0573 10.2763 32.7576L18.8711 27.9657L16.4295 12.8107Z" fill="white"/>
</mask>
<g mask="url(#mask1_493_2460)">
</g>
<defs>
<linearGradient id="paint0_linear_493_2460" x1="-0.660165" y1="11.4236" x2="22.8988" y2="23.8886" gradientUnits="userSpaceOnUse">
<stop stop-color="white" stop-opacity="0.1"/>
<stop offset="0.14" stop-color="white" stop-opacity="0.08"/>
<stop offset="0.61" stop-color="white" stop-opacity="0.02"/>
<stop offset="1" stop-color="white" stop-opacity="0"/>
</linearGradient>
</defs>
</svg>
