<svg width="96" height="40" viewBox="0 0 96 40" fill="none" xmlns="http://www.w3.org/2000/svg">
<g id="Service=Google, Theme=Light">
<path id="Vector" d="M40.8533 21.1807C40.8533 25.6878 37.3275 29.009 33.0004 29.009C28.6733 29.009 25.1475 25.6878 25.1475 21.1807C25.1475 16.6419 28.6733 13.3525 33.0004 13.3525C37.3275 13.3525 40.8533 16.6419 40.8533 21.1807ZM37.4157 21.1807C37.4157 18.3643 35.3722 16.4372 33.0004 16.4372C30.6286 16.4372 28.5851 18.3643 28.5851 21.1807C28.5851 23.969 30.6286 25.9243 33.0004 25.9243C35.3722 25.9243 37.4157 23.9654 37.4157 21.1807Z" fill="#EA4335"/>
<path id="Vector_2" d="M57.7938 21.1807C57.7938 25.6878 54.2679 29.009 49.9409 29.009C45.6138 29.009 42.0879 25.6878 42.0879 21.1807C42.0879 16.6454 45.6138 13.3525 49.9409 13.3525C54.2679 13.3525 57.7938 16.6419 57.7938 21.1807ZM54.3562 21.1807C54.3562 18.3643 52.3126 16.4372 49.9409 16.4372C47.5691 16.4372 45.5256 18.3643 45.5256 21.1807C45.5256 23.969 47.5691 25.9243 49.9409 25.9243C52.3126 25.9243 54.3562 23.9654 54.3562 21.1807Z" fill="#FBBC05"/>
<path id="Vector_3" d="M74.0295 13.8254V27.8796C74.0295 33.6607 70.6201 36.0219 66.5895 36.0219C62.7954 36.0219 60.5119 33.4843 59.6507 31.409L62.6436 30.1631C63.1766 31.4372 64.4825 32.9407 66.586 32.9407C69.166 32.9407 70.7648 31.349 70.7648 28.3525V27.2266H70.6448C69.8754 28.176 68.393 29.0054 66.5225 29.0054C62.6083 29.0054 59.0225 25.596 59.0225 21.209C59.0225 16.7902 62.6083 13.3525 66.5225 13.3525C68.3895 13.3525 69.8719 14.1819 70.6448 15.1031H70.7648V13.829H74.0295V13.8254ZM71.0083 21.209C71.0083 18.4525 69.1695 16.4372 66.8295 16.4372C64.4577 16.4372 62.4707 18.4525 62.4707 21.209C62.4707 23.9372 64.4577 25.9243 66.8295 25.9243C69.1695 25.9243 71.0083 23.9372 71.0083 21.209Z" fill="#4285F4"/>
<path id="Vector_4" d="M79.4116 5.58789V28.529H76.0586V5.58789H79.4116Z" fill="#34A853"/>
<path id="Vector_5" d="M92.4778 23.7579L95.1461 25.5367C94.2849 26.8108 92.2096 29.0061 88.6237 29.0061C84.1767 29.0061 80.8555 25.5684 80.8555 21.1779C80.8555 16.5226 84.2049 13.3496 88.239 13.3496C92.3014 13.3496 94.2884 16.5826 94.9378 18.3296L95.2943 19.219L84.8296 23.5532C85.6308 25.1237 86.8767 25.9249 88.6237 25.9249C90.3743 25.9249 91.5884 25.0637 92.4778 23.7579ZM84.2649 20.9414L91.2602 18.0367C90.8755 17.059 89.7178 16.3779 88.3555 16.3779C86.6084 16.3779 84.1767 17.9202 84.2649 20.9414Z" fill="#EA4335"/>
<path id="Vector_6" d="M12.4552 19.1447V15.8235H23.647C23.7564 16.4024 23.8128 17.0871 23.8128 17.8283C23.8128 20.32 23.1317 23.4012 20.9364 25.5965C18.8011 27.82 16.0728 29.0059 12.4587 29.0059C5.75989 29.0059 0.126953 23.5494 0.126953 16.8506C0.126953 10.1518 5.75989 4.69531 12.4587 4.69531C16.1646 4.69531 18.8046 6.14943 20.7881 8.04472L18.4446 10.3883C17.0223 9.05414 15.0952 8.01649 12.4552 8.01649C7.56342 8.01649 3.73754 11.9588 3.73754 16.8506C3.73754 21.7424 7.56342 25.6847 12.4552 25.6847C15.6281 25.6847 17.4352 24.4106 18.5928 23.253C19.5317 22.3141 20.1493 20.973 20.3928 19.1412L12.4552 19.1447Z" fill="#4285F4"/>
</g>
</svg>
