<svg width="97" height="40" viewBox="0 0 97 40" fill="none" xmlns="http://www.w3.org/2000/svg">
<g id="Service=Linkedin, Theme=Light">
<path id="Vector" d="M71.208 8.95808C71.208 7.95406 72.0425 7.13965 73.072 7.13965H94.569C95.5985 7.13965 96.4331 7.95406 96.4331 8.95808V30.7064C96.4331 31.7108 95.5985 32.5249 94.569 32.5249H73.072C72.0425 32.5249 71.208 31.7108 71.208 30.7064V8.95808Z" fill="#006699"/>
<path id="Vector_2" fill-rule="evenodd" clip-rule="evenodd" d="M0.594727 28.4027H11.1219V24.9467H4.40439V11.7607H0.594727V28.4027Z" fill="black"/>
<path id="Vector_3" fill-rule="evenodd" clip-rule="evenodd" d="M16.4513 28.4024V16.9399H12.6413V28.4024H16.4513ZM14.5463 15.3749C15.8749 15.3749 16.7019 14.4947 16.7019 13.394C16.6771 12.2695 15.8749 11.4141 14.5716 11.4141C13.2681 11.4141 12.416 12.2695 12.416 13.394C12.416 14.4947 13.2428 15.3749 14.5214 15.3749H14.5462H14.5463Z" fill="black"/>
<path id="Vector_4" fill-rule="evenodd" clip-rule="evenodd" d="M18.2207 28.4027H22.0307V22.0014C22.0307 21.6588 22.0555 21.3166 22.1562 21.0717C22.4315 20.3875 23.0584 19.6786 24.1109 19.6786C25.4897 19.6786 26.0413 20.7301 26.0413 22.27V28.4027H29.8509V21.8301C29.8509 18.3092 27.9711 16.6709 25.4644 16.6709C23.4092 16.6709 22.5067 17.8198 22.0053 18.6023H22.0308V16.9402H18.2207C18.2708 18.0158 18.2207 28.4027 18.2207 28.4027Z" fill="black"/>
<path id="Vector_5" fill-rule="evenodd" clip-rule="evenodd" d="M35.2252 11.7607H31.415V28.4027H35.2252V24.6865L36.1773 23.4878L39.1602 28.4027H43.8472L38.8344 21.2874L43.2208 16.4464H38.634C38.634 16.4464 35.5009 20.7776 35.2252 21.2911V11.7607Z" fill="black"/>
<path id="Vector_6" fill-rule="evenodd" clip-rule="evenodd" d="M54.0368 23.6211C54.0868 23.3267 54.1622 22.7619 54.1622 22.1235C54.1622 19.1603 52.658 16.1523 48.6979 16.1523C44.4618 16.1523 42.5068 19.5026 42.5068 22.5411C42.5068 26.2994 44.8879 28.6466 49.0487 28.6466C50.7031 28.6466 52.2318 28.4024 53.4853 27.8889L52.9838 25.3727C51.9563 25.7136 50.9035 25.8839 49.6003 25.8839C47.8206 25.8839 46.2667 25.1536 46.1412 23.5967L54.0368 23.6204V23.6211ZM46.1164 21.0435C46.2166 20.0653 46.8683 18.6223 48.4975 18.6223C50.2266 18.6223 50.6279 20.1633 50.6279 21.0435H46.1164Z" fill="black"/>
<path id="Vector_7" fill-rule="evenodd" clip-rule="evenodd" d="M63.5661 11.7607V17.5217H63.516C62.9645 16.7154 61.8113 16.1774 60.2827 16.1774C57.3499 16.1774 54.7683 18.5247 54.7931 22.5343C54.7931 26.2512 57.1243 28.6718 60.0318 28.6718C61.6109 28.6718 63.1147 27.9869 63.8666 26.6664H63.942L64.0924 28.4028H67.4764C67.4262 27.5958 67.3757 26.2021 67.3757 24.8331V11.7607H63.5661ZM63.5661 23.097C63.5661 23.3901 63.541 23.6839 63.4907 23.9281C63.2654 24.9796 62.3628 25.7129 61.2602 25.7129C59.681 25.7129 58.6533 24.4416 58.6533 22.4366C58.6533 20.5541 59.5308 19.0382 61.2851 19.0382C62.463 19.0382 63.2903 19.8448 63.516 20.8472C63.5661 21.0676 63.5661 21.3122 63.5661 21.532V23.097Z" fill="black"/>
<path id="Vector_8" fill-rule="evenodd" clip-rule="evenodd" d="M78.8546 28.3891V16.9263H75.0446V28.3891H78.8546ZM76.9496 15.3612C78.2782 15.3612 79.1052 14.481 79.1052 13.381C79.0804 12.2562 78.2782 11.4004 76.9748 11.4004C75.6715 11.4004 74.8193 12.2562 74.8193 13.381C74.8193 14.481 75.6461 15.3612 76.9247 15.3612H76.9495H76.9496Z" fill="white"/>
<path id="Vector_9" fill-rule="evenodd" clip-rule="evenodd" d="M80.9629 28.389H84.7729V21.9877C84.7729 21.6451 84.7976 21.3029 84.8983 21.058C85.1737 20.3735 85.8006 19.6645 86.8531 19.6645C88.2318 19.6645 88.7833 20.7157 88.7833 22.2567V28.389H92.593V21.8164C92.593 18.2955 90.7133 16.6572 88.2066 16.6572C86.1512 16.6572 85.2489 17.8061 84.7475 18.5886H84.773V16.9262H80.963C81.013 18.0018 80.963 28.389 80.963 28.389H80.9629Z" fill="white"/>
</g>
</svg>
