<svg width="122" height="40" viewBox="0 0 122 40" fill="none" xmlns="http://www.w3.org/2000/svg">
<g clip-path="url(#clip0_561_3260)">
<path d="M43.0705 21.9748L42.3432 24.0306H42.2826C42.1614 23.5671 41.9392 22.8616 41.5756 22.0151L37.6766 12.2399H33.8584V27.8198H36.3837V18.2058C36.3837 17.6012 36.3837 16.9159 36.3635 16.0694C36.3433 15.6462 36.3028 15.3237 36.2826 15.0818H36.3433C36.4645 15.6865 36.6058 16.1298 36.7069 16.412L41.3937 27.7795H43.1715L47.818 16.3113C47.919 16.0492 48.02 15.5252 48.121 15.0818H48.1816C48.121 16.2306 48.0806 17.2586 48.0604 17.8833V27.7593H50.7473V12.1996H47.0705L43.0705 21.9748ZM53.2927 16.5934H55.919V27.7593H53.2927V16.5934ZM54.6261 11.8771C54.1816 11.8771 53.8179 12.0383 53.5149 12.3205C53.2119 12.6027 53.0503 12.9655 53.0503 13.4089C53.0503 13.8322 53.2119 14.195 53.5149 14.4771C53.8179 14.7593 54.1816 14.9004 54.6261 14.9004C55.0705 14.9004 55.4543 14.7392 55.7371 14.4771C56.0402 14.195 56.2018 13.8322 56.2018 13.4089C56.2018 12.9856 56.0402 12.6229 55.7371 12.3205C55.4745 12.0383 55.0907 11.8771 54.6261 11.8771ZM65.2321 16.4926C64.7473 16.3919 64.2422 16.3314 63.7574 16.3314C62.5654 16.3314 61.4745 16.5934 60.5654 17.1174C59.6563 17.6415 58.9291 18.3671 58.4645 19.2741C57.9796 20.2012 57.7371 21.2694 57.7371 22.4989C57.7371 23.5671 57.9796 24.5144 58.4443 25.381C58.9089 26.2275 59.5553 26.9128 60.4241 27.3764C61.2523 27.8399 62.222 28.0818 63.3129 28.0818C64.5654 28.0818 65.6362 27.8198 66.4846 27.3361L66.5048 27.3158V24.8973L66.4038 24.9779C66.02 25.2601 65.5755 25.5019 65.1311 25.643C64.6665 25.8043 64.2422 25.8849 63.8785 25.8849C62.8281 25.8849 61.9997 25.5825 61.4139 24.9174C60.8079 24.2725 60.5048 23.3856 60.5048 22.2771C60.5048 21.1283 60.8079 20.2213 61.4341 19.5562C62.0604 18.8911 62.8887 18.5484 63.8987 18.5484C64.7473 18.5484 65.616 18.8306 66.4038 19.395L66.5048 19.4756V16.9159L66.4846 16.8957C66.1412 16.7547 65.7573 16.5934 65.2321 16.4926ZM73.8988 16.412C73.2523 16.412 72.6462 16.6136 72.121 17.0368C71.6765 17.3996 71.3735 17.9237 71.1108 18.5484H71.0906V16.5934H68.4644V27.7593H71.0906V22.0554C71.0906 21.088 71.2927 20.2818 71.7371 19.6973C72.1816 19.0926 72.7473 18.7903 73.4341 18.7903C73.6765 18.7903 73.919 18.8507 74.222 18.8911C74.5048 18.9717 74.7069 19.0523 74.8483 19.1531L74.9492 19.2338V16.6136L74.8886 16.5934C74.7069 16.4725 74.3432 16.412 73.8988 16.412ZM81.0503 16.3516C79.2119 16.3516 77.7372 16.8957 76.7069 17.964C75.6563 19.0322 75.1513 20.5034 75.1513 22.3577C75.1513 24.0911 75.6766 25.5019 76.6867 26.5298C77.6968 27.5376 79.0705 28.0616 80.7876 28.0616C82.5858 28.0616 84.0199 27.5174 85.0502 26.4291C86.1007 25.3407 86.6056 23.8895 86.6056 22.0957C86.6056 20.3221 86.1211 18.9113 85.1308 17.8833C84.1812 16.8554 82.7878 16.3516 81.0503 16.3516ZM83.151 24.9376C82.6664 25.5624 81.8985 25.8647 80.9493 25.8647C79.9998 25.8647 79.2321 25.5624 78.6867 24.8973C78.1412 24.2725 77.8785 23.3655 77.8785 22.2167C77.8785 21.0275 78.1614 20.1205 78.6867 19.4756C79.2321 18.8306 79.9796 18.5081 80.9291 18.5081C81.8586 18.5081 82.5858 18.8104 83.1111 19.4353C83.6364 20.0601 83.919 20.9671 83.919 22.1562C83.8782 23.3655 83.6567 24.3128 83.151 24.9376ZM92.4644 21.2291C91.6361 20.8865 91.1109 20.6244 90.8682 20.4027C90.6662 20.2012 90.5652 19.919 90.5652 19.5562C90.5652 19.2539 90.6866 18.9516 90.9895 18.75C91.2925 18.5484 91.6361 18.4477 92.1411 18.4477C92.5857 18.4477 93.0499 18.5283 93.4946 18.6492C93.9392 18.7701 94.3432 18.9516 94.6665 19.1934L94.7675 19.2741V16.8151L94.7072 16.795C94.4035 16.6741 93.9995 16.5531 93.515 16.4523C93.0304 16.3717 92.5857 16.3314 92.2217 16.3314C90.9692 16.3314 89.939 16.6338 89.1311 17.2989C88.3232 17.9237 87.9388 18.7701 87.9388 19.7577C87.9388 20.2818 88.0202 20.7453 88.2019 21.1283C88.3835 21.5113 88.6465 21.8741 89.0097 22.1764C89.3738 22.4586 89.899 22.781 90.6263 23.0833C91.2322 23.3453 91.6964 23.5469 91.9798 23.7081C92.2624 23.8694 92.444 24.0507 92.5857 24.1919C92.6867 24.3531 92.747 24.5547 92.747 24.8167C92.747 25.5624 92.1818 25.9252 91.0302 25.9252C90.5856 25.9252 90.1206 25.8446 89.5757 25.6631C89.0301 25.4818 88.5252 25.2198 88.1009 24.9174L87.9999 24.8368V27.3965L88.0601 27.4167C88.4445 27.598 88.9087 27.719 89.4747 27.8601C90.0399 27.9608 90.5449 28.0415 90.9895 28.0415C92.343 28.0415 93.4547 27.7392 94.2422 27.074C95.0501 26.4291 95.4744 25.6027 95.4744 24.5345C95.4744 23.7888 95.2724 23.1237 94.8278 22.6198C94.2422 22.1361 93.515 21.6322 92.4644 21.2291ZM102.404 16.3516C100.565 16.3516 99.0903 16.8957 98.0601 17.964C97.0299 19.0322 96.5046 20.5034 96.5046 22.3577C96.5046 24.0911 97.0299 25.5019 98.0405 26.5298C99.0504 27.5376 100.424 28.0616 102.141 28.0616C103.939 28.0616 105.373 27.5174 106.404 26.4291C107.454 25.3407 107.959 23.8895 107.959 22.0957C107.959 20.3221 107.474 18.9113 106.485 17.8833C105.535 16.8554 104.141 16.3516 102.404 16.3516ZM104.485 24.9376C103.999 25.5624 103.232 25.8647 102.283 25.8647C101.313 25.8647 100.565 25.5624 100.02 24.8973C99.4747 24.2725 99.2116 23.3655 99.2116 22.2167C99.2116 21.0275 99.495 20.1205 100.02 19.4756C100.565 18.8306 101.313 18.5081 102.262 18.5081C103.171 18.5081 103.919 18.8104 104.444 19.4353C104.969 20.0601 105.252 20.9671 105.252 22.1562C105.252 23.3655 104.99 24.3128 104.485 24.9376ZM122 18.75V16.5934H119.353V13.288L119.273 13.3081L116.768 14.0539L116.706 14.0741V16.5934H112.747V15.1826C112.747 14.5376 112.909 14.0338 113.191 13.7113C113.474 13.3888 113.898 13.2275 114.424 13.2275C114.788 13.2275 115.171 13.3081 115.596 13.4895L115.697 13.55V11.2725L115.636 11.2523C115.272 11.1314 114.788 11.0508 114.161 11.0508C113.373 11.0508 112.687 11.2322 112.06 11.5345C111.434 11.8771 110.969 12.3407 110.626 12.9655C110.282 13.5701 110.101 14.2554 110.101 15.0415V16.5934H108.262V18.7298H110.101V27.7593H112.747V18.75H116.706V24.4942C116.706 26.8523 117.818 28.0415 120.04 28.0415C120.404 28.0415 120.787 27.981 121.151 27.9205C121.535 27.8399 121.818 27.7392 121.98 27.6586L122 27.6383V25.4818L121.899 25.5624C121.737 25.6631 121.596 25.7438 121.353 25.8043C121.151 25.8647 120.97 25.8849 120.828 25.8849C120.303 25.8849 119.939 25.764 119.677 25.4616C119.434 25.1795 119.312 24.7159 119.312 24.0306V18.75H122Z" fill="#737373"/>
<path d="M0 7H12.3838V19.355H0V7Z" fill="#F25022"/>
<path d="M13.6768 7H26.0607V19.355H13.6768V7Z" fill="#7FBA00"/>
<path d="M0 20.6445H12.3838V32.9996H0V20.6445Z" fill="#00A4EF"/>
<path d="M13.6768 20.6445H26.0607V32.9996H13.6768V20.6445Z" fill="#FFB900"/>
</g>
<defs>
<clipPath id="clip0_561_3260">
<rect width="122" height="25.9996" fill="white" transform="translate(0 7)"/>
</clipPath>
</defs>
</svg>
