<svg width="93" height="40" viewBox="0 0 93 40" fill="none" xmlns="http://www.w3.org/2000/svg">
<g id="Service=Selectel, Theme=Light">
<path id="Vector" fill-rule="evenodd" clip-rule="evenodd" d="M70.7365 26.3642C69.5779 26.3642 69.0712 26.0071 69.023 25.1416H65.292C65.3236 28.1766 67.3004 29.4357 69.1526 29.6018C69.2871 29.6126 69.4367 29.6185 69.5978 29.6185C70.7357 29.6185 72.4093 29.2729 72.4093 29.2729V26.2579C72.4093 26.2579 71.0737 26.3642 70.7365 26.3642Z" fill="#23242A"/>
<path id="Vector_2" fill-rule="evenodd" clip-rule="evenodd" d="M89.3212 29.6324H92.9999V10.0596H89.3204L89.3212 29.6324ZM25.4424 20.5449H20.0046C20.1458 19.2741 20.4182 17.9344 22.6882 17.9344C25.3154 17.9344 25.376 19.1935 25.4358 20.4112L25.4424 20.5449ZM22.8161 14.8695H22.6367C21.1425 14.8695 19.0793 15.1885 17.7363 16.7093C16.5776 17.9967 15.9131 19.9236 15.9131 21.9968V22.5259C15.9131 22.8714 15.9605 24.6846 16.8974 26.4379C17.8692 28.2586 19.473 29.3425 21.5354 29.5734C21.89 29.6133 22.2721 29.6332 22.6699 29.6332C25.1426 29.6332 27.5779 28.879 27.68 28.8475L27.8503 28.7935V26.011C27.8503 26.011 24.6401 26.3715 23.5803 26.4055C20.341 26.5102 19.9589 24.8606 19.9207 23.5641H29.0098V21.0781C29.0098 19.0349 28.4882 17.5207 27.4151 16.4518C26.1244 15.1436 24.2024 14.8695 22.8161 14.8695ZM46.6498 20.564H41.2136C41.3548 19.2932 41.6273 17.9535 43.8964 17.9535C46.5236 17.9535 46.585 19.2127 46.644 20.4303L46.6498 20.564ZM44.026 14.8878H43.8458C42.3515 14.8878 40.2884 15.2076 38.9453 16.7275C37.7866 18.0149 37.1222 19.9419 37.1222 22.0151V22.5441C37.1222 22.8897 37.1695 24.7037 38.1056 26.4562C39.0782 28.2768 40.6821 29.3608 42.7436 29.5917C43.0982 29.6315 43.4803 29.6515 43.8782 29.6515C46.3516 29.6515 48.7869 28.8981 48.8891 28.8657L49.0594 28.8117V26.0293C49.0594 26.0293 45.8491 26.3898 44.7885 26.4238C41.5492 26.5285 41.1688 24.8797 41.1289 23.5824H50.2189V21.0964C50.2189 19.0532 49.6964 17.539 48.6241 16.4701C47.3334 15.1602 45.4106 14.8861 44.0252 14.8861L44.026 14.8878ZM83.3302 20.5624H77.8924C78.0327 19.2916 78.306 17.9518 80.5751 17.9518C83.2023 17.9518 83.2638 19.211 83.3227 20.4286C83.3252 20.4735 83.3269 20.5183 83.3302 20.5624ZM80.7039 14.8861H80.5245C79.0303 14.8861 76.9671 15.2059 75.624 16.7259C74.4654 18.0133 73.8009 19.9402 73.8009 22.0134V22.5425C73.8009 22.888 73.8482 24.702 74.7851 26.4545C75.7569 28.2752 77.3608 29.3591 79.4223 29.59C79.7778 29.6299 80.159 29.6498 80.5569 29.6498C83.0304 29.6498 85.4656 28.8965 85.5678 28.8641L85.7381 28.8101V26.0276C85.7381 26.0276 82.5279 26.3881 81.4672 26.4221C78.2279 26.5268 77.8475 24.8781 77.8076 23.5807H86.8976V21.0948C86.8976 19.0515 86.376 17.5374 85.3029 16.4684C84.0121 15.1602 82.0885 14.8861 80.7039 14.8861ZM31.4343 29.6506H35.1138V10.0604H31.4343V29.6506Z" fill="#23242A"/>
<path id="Vector_3" fill-rule="evenodd" clip-rule="evenodd" d="M59.2293 14.9521C58.6246 14.9521 58.0723 14.9828 57.5872 15.0434C55.5813 15.2893 54.0381 16.4172 53.1245 18.3027C52.2914 20.022 52.2266 21.7928 52.2266 22.2945C52.2266 22.7936 52.2914 24.5553 53.1261 26.2705C54.0398 28.1476 55.5822 29.2805 57.5847 29.5471C58.0083 29.6036 58.5116 29.6319 59.0798 29.6319C60.8157 29.6319 62.6513 29.3636 62.6696 29.3611L62.8755 29.3304V26.2065C62.8755 26.2065 60.8647 26.3477 59.8539 26.3477C58.598 26.3477 58.0565 26.2647 57.8222 26.1941C56.4069 25.7713 56.2649 23.5545 56.2691 22.6225C56.2707 22.5112 56.2707 22.0802 56.2691 21.9697C56.2649 21.0145 56.4061 18.7537 57.8131 18.3998C58.2243 18.296 58.9519 18.242 59.917 18.242C60.9245 18.242 62.8755 18.3849 62.8755 18.3849V15.2453L62.6721 15.2137C62.6554 15.2112 60.986 14.9529 59.2293 14.9529" fill="#23242A"/>
<path id="Vector_4" fill-rule="evenodd" clip-rule="evenodd" d="M9.85407 25.1327C9.41385 26.092 8.18459 26.1833 6.94701 26.1833H6.7975C4.82154 26.1833 0.57392 25.729 0.530729 25.724L0.266602 25.6958V29.0555L0.44767 29.1029C0.478402 29.1112 4.02168 29.8961 6.61311 29.8961C10.9745 29.8961 13.463 28.2498 13.8293 25.1318H9.85407V25.1327Z" fill="#23242A"/>
<path id="Vector_5" fill-rule="evenodd" clip-rule="evenodd" d="M69.0185 18.1213H72.2893V15.0124H69.0185V10.0605H65.29V23.4437H69.0185V18.1213Z" fill="#DE1F26"/>
<path id="Vector_6" fill-rule="evenodd" clip-rule="evenodd" d="M4.96359 20.996C5.89302 21.3581 8.42714 22.3482 8.98363 22.5824C9.35822 22.7385 9.6373 22.9811 9.81422 23.3017L9.88316 23.4279H13.8559L13.8226 23.1414C13.4605 20.03 11.4247 19.2526 9.45623 18.5001C8.5594 18.1658 7.65956 17.8396 6.75683 17.5216C6.28007 17.3514 5.90298 17.2168 5.80497 17.1794C4.6679 16.7384 3.73432 16.2757 3.85475 15.0755C3.95609 14.0589 4.7684 13.642 6.65549 13.6353C8.56252 13.6395 12.4164 13.9758 12.4555 13.9792L12.7146 14.0024V10.8479L12.5344 10.798C12.5078 10.7914 8.86486 10.0762 6.60566 10.0605H6.5118C4.86973 10.0605 3.5084 10.3545 2.46352 10.9359C0.828926 11.8462 0 13.421 0 15.6171C0 18.0324 1.48426 19.6404 4.96359 20.9968V20.996Z" fill="#DE1F26"/>
</g>
</svg>
