<svg width="168" height="40" viewBox="0 0 168 40" fill="none" xmlns="http://www.w3.org/2000/svg">
<g clip-path="url(#clip0_24534_74650)">
<path d="M89.3973 6.97385H87.4314C87.4314 6.97385 83.0884 21.8881 82.9275 22.425C82.2901 24.7039 81.7361 26.6845 81.3012 28.683C80.8961 26.2967 80.1633 23.5108 79.3829 20.5995L75.8084 7.0514V6.97385H74.0212L70.0535 20.6949C69.1947 23.3208 68.4709 25.9889 67.885 28.689C67.4739 26.7621 66.8722 24.3818 66.2348 21.8642L62.422 7.03947V6.96191H60.4561L66.8782 31.3139V31.3914H68.6654L72.8356 17.3721C73.6347 14.7996 74.2988 12.187 74.8254 9.54506C75.2766 12.1831 75.8732 14.7941 76.6127 17.3661L80.2586 31.3914H82.0458L89.3616 7.10509L89.3973 6.97385Z" fill="#4E4E4E"/>
<path d="M97.017 13.5542C92.3225 13.5542 89.165 17.3484 89.165 22.9979C89.165 28.2418 92.4357 31.7615 97.3029 31.7615C100.413 31.7615 102.164 30.9741 102.772 30.634L102.861 30.5863L102.069 29.2321L101.985 29.2679C100.58 29.8861 99.0513 30.1739 97.5174 30.109C95.5812 30.109 91.0953 29.3753 91.0535 22.6161H103.737V22.5326C103.807 22.1832 103.833 21.8265 103.814 21.4707C103.81 19.7644 103.378 18.0865 102.557 16.5908C102.004 15.622 101.193 14.8256 100.215 14.2897C99.2372 13.7537 98.1303 13.4992 97.017 13.5542ZM91.1489 21.0293C91.5123 18.3089 93.2042 15.1948 96.8144 15.1948C97.449 15.1641 98.0831 15.2643 98.6774 15.489C99.2718 15.7137 99.8137 16.0583 100.27 16.5013C101.682 17.939 101.848 20.0807 101.848 21.0293H91.1489Z" fill="#4E4E4E"/>
<path d="M163.293 10.1416H161.369V13.9537H158.468V15.5585H161.375V26.3444C161.375 28.325 161.732 29.6972 162.471 30.5204C162.843 30.9502 163.309 31.2877 163.833 31.5061C164.357 31.7246 164.925 31.8181 165.492 31.7792C166.357 31.7742 167.212 31.5936 168.006 31.2482L167.273 29.9596C166.752 30.0737 166.221 30.1357 165.688 30.1446C164.062 30.1446 163.305 28.9514 163.305 26.6487V15.5525H167.785V13.9477H163.293V10.1416Z" fill="#4E4E4E"/>
<path d="M123.564 29.1307C121.948 29.7782 120.222 30.1025 118.482 30.0852C112.137 30.0852 108.354 26.0823 108.354 19.347C108.354 12.385 112.25 8.2329 118.774 8.2329C120.41 8.20443 122.033 8.51942 123.54 9.15758L123.623 9.19337L124.493 7.69598L124.404 7.64229C123.915 7.40963 122.128 6.5625 118.732 6.5625C111.327 6.5625 106.353 11.687 106.353 19.3172C106.353 28.4924 112.578 31.7437 117.904 31.7437C121.61 31.7437 123.796 30.8429 124.38 30.5506L124.475 30.5028L123.647 29.0651L123.564 29.1307Z" fill="#4E4E4E"/>
<path d="M155.936 29.0768C155.907 28.4802 155.895 27.8836 155.895 27.1856V20.4265C155.895 15.9164 153.804 13.5361 149.836 13.5361C148 13.5582 146.206 14.0889 144.653 15.0693L145.249 16.5249C146.54 15.6404 148.069 15.1683 149.634 15.1707C150.189 15.1326 150.747 15.2063 151.274 15.3877C151.801 15.569 152.287 15.8543 152.702 16.2267C153.542 17.0619 153.947 18.3445 153.947 20.1402V20.51H153.738C149.628 20.51 146.685 21.3631 144.993 23.0395C144.48 23.5481 144.076 24.1569 143.808 24.828C143.539 25.4992 143.411 26.2184 143.432 26.9411C143.432 29.2736 145.046 31.7852 148.591 31.7852C149.636 31.7963 150.669 31.5639 151.609 31.1063C152.549 30.6486 153.37 29.9783 154.006 29.1484C154.062 29.9102 154.206 30.663 154.435 31.3915H156.52C156.2 30.6573 156.003 29.8753 155.936 29.0768ZM146.554 23.9403C147.787 22.7472 150.051 22.1506 153.297 22.1506H153.994V25.73C153.999 26.0739 153.941 26.4157 153.822 26.7382C153.463 27.7659 152.783 28.6503 151.883 29.2598C150.982 29.8693 149.909 30.1713 148.823 30.1208C146.351 30.1208 145.475 28.2416 145.475 26.6308C145.461 26.1323 145.549 25.6361 145.735 25.1732C145.92 24.7103 146.199 24.2906 146.554 23.9403Z" fill="#4E4E4E"/>
<path d="M134.835 13.5543C133.584 13.5471 132.357 13.9013 131.302 14.5744C130.364 15.1328 129.588 15.9266 129.05 16.8772V6.5625H127.126V31.4037H129.05V20.7728C129.027 20.2031 129.104 19.6338 129.277 19.0905C129.643 18.0118 130.328 17.07 131.241 16.3894C132.154 15.7087 133.251 15.3214 134.388 15.2784C136.122 15.2784 139.023 16.036 139.023 21.1069V31.4037H140.947V20.916C140.929 13.9063 135.83 13.5543 134.835 13.5543Z" fill="#4E4E4E"/>
<mask id="mask0_24534_74650" style="mask-type:luminance" maskUnits="userSpaceOnUse" x="0" y="0" width="36" height="32">
<path d="M0 14.962C0 19.472 2.41872 23.5347 6.19574 26.2968C6.35248 26.4071 6.48034 26.5536 6.56849 26.7239C6.65664 26.8942 6.70248 27.0833 6.70213 27.2752C6.69827 27.4049 6.67621 27.5334 6.6366 27.657C6.33872 28.7845 5.85021 30.5921 5.83234 30.6756C5.7783 30.8153 5.74421 30.9619 5.73106 31.1111C5.73106 31.2693 5.79383 31.4211 5.90555 31.5329C6.01728 31.6448 6.16881 31.7077 6.32681 31.7077C6.44928 31.7021 6.56826 31.6652 6.67234 31.6003L10.5983 29.3274C10.8866 29.1541 11.2153 29.0594 11.5515 29.0529C11.7309 29.0544 11.9093 29.0805 12.0817 29.1305C13.9854 29.6792 15.9569 29.9564 17.9379 29.9538C27.8451 29.9538 35.8757 23.2543 35.8757 14.9858C35.8757 6.71738 27.8511 0 17.9438 0C8.0366 0 0 6.69948 0 14.962Z" fill="white"/>
</mask>
<g mask="url(#mask0_24534_74650)">
<path d="M35.8817 0H0V31.6838H35.8817V0Z" fill="url(#paint0_linear_24534_74650)"/>
</g>
<mask id="mask1_24534_74650" style="mask-type:luminance" maskUnits="userSpaceOnUse" x="19" y="13" width="31" height="27">
<path d="M19.6592 26.0756C19.6592 32.9541 26.3494 38.532 34.6005 38.532C36.2506 38.5353 37.8931 38.3063 39.4796 37.8519C39.6225 37.8085 39.7711 37.7863 39.9205 37.7863C40.1997 37.7917 40.4728 37.8698 40.7128 38.013L43.9834 39.9041C44.068 39.9621 44.167 39.9951 44.2694 39.9996C44.4016 39.998 44.528 39.9447 44.6215 39.8511C44.7151 39.7574 44.7683 39.6309 44.7698 39.4984C44.7543 39.3741 44.7243 39.2519 44.6805 39.1345L44.0073 36.623C43.9753 36.5205 43.9572 36.4141 43.9536 36.3068C43.9538 36.1466 43.9923 35.9888 44.0659 35.8466C44.1395 35.7044 44.246 35.582 44.3766 35.4895C47.5222 33.2106 49.5358 29.828 49.5358 26.0756C49.5358 19.1912 42.8456 13.6133 34.5945 13.6133C26.3434 13.6133 19.6592 19.1912 19.6592 26.0756Z" fill="white"/>
</mask>
<g mask="url(#mask1_24534_74650)">
<path d="M49.5359 13.6133H19.6533V39.9996H49.5359V13.6133Z" fill="url(#paint1_linear_24534_74650)"/>
</g>
<path d="M14.3392 10.1421C14.3392 10.6141 14.1994 11.0755 13.9376 11.4679C13.6758 11.8603 13.3036 12.1662 12.8681 12.3468C12.4327 12.5274 11.9536 12.5746 11.4913 12.4826C11.0291 12.3905 10.6045 12.1632 10.2712 11.8295C9.93794 11.4958 9.71098 11.0706 9.61903 10.6077C9.52708 10.1448 9.57427 9.66498 9.75464 9.22895C9.935 8.79291 10.2404 8.42023 10.6323 8.15802C11.0242 7.89581 11.4849 7.75586 11.9562 7.75586C12.5882 7.75586 13.1943 8.00727 13.6412 8.45478C14.0881 8.9023 14.3392 9.50926 14.3392 10.1421Z" fill="#227B3D"/>
<path d="M26.3382 10.1421C26.3382 10.6141 26.1985 11.0755 25.9366 11.4679C25.6748 11.8603 25.3026 12.1662 24.8672 12.3468C24.4317 12.5274 23.9526 12.5746 23.4903 12.4826C23.0281 12.3905 22.6035 12.1632 22.2702 11.8295C21.937 11.4958 21.71 11.0706 21.6181 10.6077C21.5261 10.1448 21.5733 9.66498 21.7537 9.22895C21.934 8.79291 22.2395 8.42023 22.6313 8.15802C23.0232 7.89581 23.4839 7.75586 23.9552 7.75586C24.5873 7.75586 25.1934 8.00727 25.6403 8.45478C26.0872 8.9023 26.3382 9.50926 26.3382 10.1421Z" fill="#227B3D"/>
<path d="M37.7403 22.2698C37.7368 22.6672 37.8513 23.0568 38.0694 23.3889C38.2874 23.721 38.5991 23.9807 38.9649 24.135C39.3307 24.2893 39.734 24.3312 40.1237 24.2554C40.5133 24.1796 40.8716 23.9895 41.1531 23.7093C41.4346 23.4291 41.6266 23.0714 41.7046 22.6817C41.7826 22.292 41.7432 21.8879 41.5913 21.5207C41.4394 21.1534 41.1819 20.8397 40.8516 20.6194C40.5213 20.3991 40.133 20.282 39.7361 20.2832C39.4735 20.2832 39.2135 20.3351 38.9709 20.4359C38.7284 20.5367 38.5081 20.6845 38.3227 20.8707C38.1373 21.0569 37.9905 21.2779 37.8905 21.5211C37.7906 21.7642 37.7395 22.0247 37.7403 22.2877" fill="#8C8C8C"/>
<path d="M27.7384 22.2698C27.7348 22.667 27.8492 23.0563 28.067 23.3882C28.2848 23.7202 28.5961 23.9799 28.9616 24.1344C29.327 24.2888 29.73 24.3311 30.1195 24.2558C30.509 24.1805 30.8673 23.991 31.149 23.7114C31.4308 23.4318 31.6232 23.0747 31.7019 22.6854C31.7806 22.296 31.742 21.8921 31.591 21.5248C31.4401 21.1575 31.1835 20.8434 30.854 20.6223C30.5244 20.4012 30.1367 20.2832 29.7401 20.2832C29.2092 20.2832 28.7 20.4944 28.3246 20.8703C27.9493 21.2462 27.7384 21.7561 27.7384 22.2877" fill="#8C8C8C"/>
</g>
<defs>
<linearGradient id="paint0_linear_24534_74650" x1="17.8041" y1="36.4799" x2="17.8041" y2="8.63403" gradientUnits="userSpaceOnUse">
<stop stop-color="#7BC142"/>
<stop offset="0.03" stop-color="#7BC142"/>
<stop offset="0.96" stop-color="#A7D168"/>
<stop offset="1" stop-color="#A7D168"/>
</linearGradient>
<linearGradient id="paint1_linear_24534_74650" x1="34.8584" y1="40.0984" x2="34.8584" y2="13.7782" gradientUnits="userSpaceOnUse">
<stop stop-color="#E4E7E8"/>
<stop offset="1" stop-color="#F1F0F0"/>
</linearGradient>
<clipPath id="clip0_24534_74650">
<rect width="168" height="40" fill="white"/>
</clipPath>
</defs>
</svg>
