<svg width="170" height="40" viewBox="0 0 170 40" fill="none" xmlns="http://www.w3.org/2000/svg">
<g clip-path="url(#clip0_628_1054)">
<path d="M89.3974 6.97391H87.4315C87.4315 6.97391 83.0885 21.8881 82.9277 22.4251C82.2902 24.704 81.7362 26.6846 81.3013 28.6831C80.8962 26.2968 80.1634 23.5108 79.383 20.5996L75.8085 7.05146V6.97391H74.0213L70.0536 20.695C69.1948 23.3208 68.471 25.989 67.8851 28.689C67.474 26.7621 66.8723 24.3818 66.2349 21.8643L62.4221 7.03953V6.96198H60.4562L66.8783 31.314V31.3915H68.6655L72.8358 17.3721C73.6348 14.7996 74.299 12.1871 74.8255 9.54512C75.2767 12.1832 75.8733 14.7942 76.6128 17.3662L80.2587 31.3915H82.046L89.3617 7.10515L89.3974 6.97391Z" fill="#4E4E4E"/>
<path d="M97.0171 13.5541C92.3226 13.5541 89.1652 17.3483 89.1652 22.9978C89.1652 28.2417 92.4358 31.7614 97.303 31.7614C100.413 31.7614 102.164 30.9739 102.772 30.6339L102.861 30.5862L102.069 29.232L101.986 29.2678C100.58 29.886 99.0515 30.1738 97.5175 30.1089C95.5813 30.1089 91.0954 29.3751 91.0537 22.616H103.737V22.5325C103.807 22.1831 103.833 21.8264 103.815 21.4706C103.81 19.7642 103.378 18.0863 102.557 16.5907C102.004 15.6219 101.193 14.8255 100.215 14.2895C99.2373 13.7536 98.1304 13.4991 97.0171 13.5541ZM91.149 21.0291C91.5124 18.3088 93.2043 15.1947 96.8145 15.1947C97.4491 15.164 98.0832 15.2641 98.6776 15.4889C99.2719 15.7136 99.8139 16.0582 100.27 16.5012C101.682 17.9389 101.849 20.0806 101.849 21.0291H91.149Z" fill="#4E4E4E"/>
<path d="M163.294 10.1417H161.369V13.9538H158.468V15.5586H161.375V26.3446C161.375 28.3252 161.733 29.6973 162.471 30.5205C162.843 30.9504 163.309 31.2878 163.834 31.5063C164.358 31.7247 164.925 31.8182 165.492 31.7793C166.357 31.7744 167.212 31.5937 168.006 31.2484L167.273 29.9598C166.752 30.0739 166.221 30.1358 165.688 30.1447C164.062 30.1447 163.305 28.9516 163.305 26.6488V15.5526H167.785V13.9478H163.294V10.1417Z" fill="#4E4E4E"/>
<path d="M123.563 29.1305C121.948 29.778 120.222 30.1022 118.482 30.085C112.137 30.085 108.354 26.082 108.354 19.3467C108.354 12.3848 112.25 8.23265 118.774 8.23265C120.409 8.20419 122.033 8.51918 123.54 9.15733L123.623 9.19313L124.493 7.69574L124.403 7.64205C123.915 7.40939 122.128 6.56226 118.732 6.56226C111.327 6.56226 106.352 11.6868 106.352 19.3169C106.352 28.4922 112.578 31.7435 117.904 31.7435C121.609 31.7435 123.796 30.8426 124.38 30.5503L124.475 30.5026L123.647 29.0649L123.563 29.1305Z" fill="#4E4E4E"/>
<path d="M155.936 29.0768C155.906 28.4802 155.894 27.8836 155.894 27.1856V20.4265C155.894 15.9164 153.803 13.5361 149.836 13.5361C148 13.5582 146.206 14.0889 144.653 15.0693L145.248 16.5249C146.54 15.6404 148.069 15.1683 149.633 15.1707C150.189 15.1326 150.747 15.2063 151.274 15.3877C151.801 15.569 152.286 15.8543 152.701 16.2267C153.541 17.0619 153.946 18.3445 153.946 20.1402V20.51H153.738C149.627 20.51 146.684 21.3631 144.992 23.0395C144.479 23.5481 144.076 24.1569 143.807 24.828C143.539 25.4992 143.411 26.2184 143.431 26.9411C143.431 29.2736 145.046 31.7852 148.591 31.7852C149.636 31.7963 150.669 31.5639 151.609 31.1063C152.549 30.6486 153.369 29.9783 154.006 29.1484C154.061 29.9102 154.205 30.663 154.435 31.3915H156.52C156.199 30.6573 156.002 29.8753 155.936 29.0768ZM146.553 23.9403C147.786 22.7472 150.05 22.1506 153.297 22.1506H153.994V25.73C153.999 26.0739 153.94 26.4157 153.821 26.7382C153.463 27.7659 152.783 28.6503 151.882 29.2598C150.982 29.8693 149.909 30.1713 148.823 30.1208C146.351 30.1208 145.475 28.2416 145.475 26.6308C145.461 26.1323 145.549 25.6361 145.734 25.1732C145.92 24.7103 146.199 24.2906 146.553 23.9403Z" fill="#4E4E4E"/>
<path d="M134.835 13.5541C133.584 13.5469 132.357 13.9011 131.302 14.5742C130.364 15.1326 129.588 15.9263 129.05 16.8769V6.56226H127.126V31.4034H129.05V20.7725C129.027 20.2029 129.104 19.6336 129.277 19.0902C129.643 18.0116 130.328 17.0697 131.241 16.3891C132.154 15.7085 133.251 15.3211 134.388 15.2781C136.122 15.2781 139.023 16.0358 139.023 21.1066V31.4034H140.947V20.9157C140.929 13.906 135.83 13.5541 134.835 13.5541Z" fill="#4E4E4E"/>
<mask id="mask0_628_1054" style="mask-type:luminance" maskUnits="userSpaceOnUse" x="0" y="0" width="36" height="32">
<path d="M0 14.962C0 19.472 2.41872 23.5347 6.19574 26.2968C6.35248 26.4071 6.48034 26.5536 6.56849 26.7239C6.65664 26.8942 6.70248 27.0833 6.70213 27.2752C6.69827 27.4049 6.67621 27.5334 6.6366 27.657C6.33872 28.7845 5.85021 30.5921 5.83234 30.6756C5.7783 30.8153 5.74421 30.9619 5.73106 31.1111C5.73106 31.2693 5.79383 31.4211 5.90555 31.5329C6.01728 31.6448 6.16881 31.7077 6.32681 31.7077C6.44928 31.7021 6.56826 31.6652 6.67234 31.6003L10.5983 29.3274C10.8866 29.1541 11.2153 29.0594 11.5515 29.0529C11.7309 29.0544 11.9093 29.0805 12.0817 29.1305C13.9854 29.6792 15.9569 29.9564 17.9379 29.9538C27.8451 29.9538 35.8757 23.2543 35.8757 14.9858C35.8757 6.71738 27.8511 0 17.9438 0C8.0366 0 0 6.69948 0 14.962Z" fill="white"/>
</mask>
<g mask="url(#mask0_628_1054)">
<path d="M35.8817 0H0V31.6838H35.8817V0Z" fill="url(#paint0_linear_628_1054)"/>
</g>
<mask id="mask1_628_1054" style="mask-type:luminance" maskUnits="userSpaceOnUse" x="19" y="13" width="31" height="27">
<path d="M19.6597 26.0761C19.6597 32.9546 26.3499 38.5325 34.6009 38.5325C36.2511 38.5357 37.8935 38.3068 39.4801 37.8524C39.623 37.8089 39.7716 37.7868 39.9209 37.7868C40.2002 37.7922 40.4733 37.8703 40.7133 38.0135L43.9839 39.9046C44.0685 39.9626 44.1675 39.9956 44.2699 40C44.4021 39.9985 44.5285 39.9452 44.622 39.8516C44.7155 39.7579 44.7688 39.6314 44.7703 39.4989C44.7548 39.3745 44.7248 39.2524 44.6809 39.135L44.0078 36.6235C43.9758 36.521 43.9577 36.4146 43.9541 36.3073C43.9543 36.1471 43.9928 35.9893 44.0664 35.8471C44.14 35.7049 44.2465 35.5825 44.3771 35.49C47.5226 33.2111 49.5363 29.8285 49.5363 26.0761C49.5363 19.1917 42.8461 13.6138 34.595 13.6138C26.3439 13.6138 19.6597 19.1917 19.6597 26.0761Z" fill="white"/>
</mask>
<g mask="url(#mask1_628_1054)">
<path d="M49.5362 13.6138H19.6537V40H49.5362V13.6138Z" fill="url(#paint1_linear_628_1054)"/>
</g>
<path d="M14.3396 10.1417C14.3396 10.6137 14.1998 11.075 13.938 11.4675C13.6761 11.8599 13.3039 12.1657 12.8685 12.3463C12.4331 12.527 11.9539 12.5742 11.4917 12.4821C11.0294 12.3901 10.6048 12.1628 10.2716 11.8291C9.9383 11.4953 9.71135 11.0701 9.6194 10.6073C9.52745 10.1444 9.57464 9.66456 9.755 9.22852C9.93536 8.79249 10.2408 8.4198 10.6327 8.15759C11.0246 7.89539 11.4853 7.75543 11.9566 7.75543C12.5886 7.75543 13.1947 8.00684 13.6416 8.45436C14.0885 8.90187 14.3396 9.50883 14.3396 10.1417Z" fill="#227B3D"/>
<path d="M26.3379 10.1417C26.3379 10.6137 26.1981 11.075 25.9363 11.4675C25.6744 11.8599 25.3022 12.1657 24.8668 12.3463C24.4314 12.527 23.9522 12.5742 23.49 12.4821C23.0277 12.3901 22.6031 12.1628 22.2699 11.8291C21.9366 11.4953 21.7096 11.0701 21.6177 10.6073C21.5257 10.1444 21.5729 9.66456 21.7533 9.22852C21.9337 8.79249 22.2391 8.4198 22.631 8.15759C23.0228 7.89539 23.4836 7.75543 23.9549 7.75543C24.5869 7.75543 25.193 8.00684 25.6399 8.45436C26.0868 8.90187 26.3379 9.50883 26.3379 10.1417Z" fill="#227B3D"/>
<path d="M37.7404 22.2699C37.7369 22.6674 37.8514 23.0569 38.0695 23.389C38.2875 23.7211 38.5992 23.9808 38.965 24.1351C39.3308 24.2894 39.7342 24.3313 40.1238 24.2555C40.5134 24.1797 40.8717 23.9896 41.1532 23.7094C41.4347 23.4292 41.6267 23.0715 41.7047 22.6818C41.7827 22.2921 41.7433 21.888 41.5914 21.5208C41.4395 21.1536 41.1821 20.8399 40.8517 20.6195C40.5214 20.3992 40.1331 20.2822 39.7362 20.2833C39.4736 20.2833 39.2136 20.3352 38.9711 20.436C38.7285 20.5368 38.5083 20.6846 38.3229 20.8708C38.1375 21.057 37.9906 21.278 37.8906 21.5212C37.7907 21.7643 37.7397 22.0249 37.7404 22.2878" fill="#8C8C8C"/>
<path d="M27.7379 22.2699C27.7343 22.6671 27.8487 23.0564 28.0665 23.3884C28.2843 23.7203 28.5957 23.98 28.9611 24.1345C29.3265 24.289 29.7296 24.3312 30.119 24.2559C30.5085 24.1806 30.8668 23.9911 31.1486 23.7115C31.4303 23.4319 31.6227 23.0748 31.7014 22.6855C31.7801 22.2962 31.7415 21.8922 31.5906 21.5249C31.4396 21.1576 31.183 20.8435 30.8535 20.6224C30.5239 20.4014 30.1362 20.2833 29.7396 20.2833C29.2087 20.2833 28.6995 20.4945 28.3242 20.8704C27.9488 21.2463 27.7379 21.7562 27.7379 22.2878" fill="#8C8C8C"/>
</g>
<defs>
<linearGradient id="paint0_linear_628_1054" x1="17.8041" y1="36.4799" x2="17.8041" y2="8.63403" gradientUnits="userSpaceOnUse">
<stop stop-color="#7BC142"/>
<stop offset="0.03" stop-color="#7BC142"/>
<stop offset="0.96" stop-color="#A7D168"/>
<stop offset="1" stop-color="#A7D168"/>
</linearGradient>
<linearGradient id="paint1_linear_628_1054" x1="34.8588" y1="40.0988" x2="34.8588" y2="13.7787" gradientUnits="userSpaceOnUse">
<stop stop-color="#E4E7E8"/>
<stop offset="1" stop-color="#F1F0F0"/>
</linearGradient>
<clipPath id="clip0_628_1054">
<rect width="308" height="40" fill="white"/>
</clipPath>
</defs>
</svg>
