<svg width="128" height="40" viewBox="0 0 128 40" fill="none" xmlns="http://www.w3.org/2000/svg">
<path d="M67 10.0088H65.5056C65.5056 10.0088 62.2042 20.9978 62.0819 21.3934C61.5974 23.0725 61.1762 24.5319 60.8456 26.0044C60.5377 24.2462 59.9807 22.1934 59.3874 20.0484L56.6702 10.0659V10.0088H55.3117L52.2956 20.1187C51.6427 22.0534 51.0926 24.0194 50.6472 26.0088C50.3347 24.589 49.8773 22.8352 49.3928 20.9802L46.4944 10.0571V10H45L49.8818 27.9429V28H51.2404L54.4105 17.6703C55.0179 15.7749 55.5227 13.8499 55.923 11.9033C56.266 13.847 56.7195 15.7709 57.2816 17.6659L60.0531 28H61.4117L66.9728 10.1055L67 10.0088Z" fill="#4E4E4E"/>
<path d="M71.8936 15.0057C68.37 15.0057 66 17.9219 66 22.2642C66 26.2947 68.4549 29 72.1083 29C74.4425 29 75.7572 28.3947 76.2133 28.1334L76.2803 28.0967L75.6856 27.0558L75.623 27.0833C74.5679 27.5585 73.4207 27.7797 72.2693 27.7299C70.816 27.7299 67.4488 27.1659 67.4175 21.9707H76.9377V21.9065C76.9899 21.638 77.0094 21.3638 76.9958 21.0904C76.9923 19.7788 76.6679 18.4892 76.0523 17.3396C75.6366 16.595 75.0281 15.9828 74.2941 15.5709C73.5601 15.159 72.7293 14.9634 71.8936 15.0057ZM67.4891 20.751C67.7618 18.6601 69.0318 16.2666 71.7416 16.2666C72.2179 16.243 72.6939 16.32 73.14 16.4927C73.5861 16.6655 73.9929 16.9303 74.3352 17.2708C75.3949 18.3759 75.5202 20.022 75.5202 20.751H67.4891Z" fill="#4E4E4E"/>
<path d="M121.542 13H120.129V15.8177H118V17.0039H120.134V24.9765C120.134 26.4405 120.396 27.4547 120.938 28.0632C121.211 28.3809 121.553 28.6304 121.938 28.7918C122.323 28.9533 122.739 29.0224 123.155 28.9937C123.79 28.99 124.418 28.8565 125 28.6012L124.462 27.6487C124.08 27.733 123.69 27.7788 123.299 27.7854C122.106 27.7854 121.55 26.9035 121.55 25.2014V16.9995H124.838V15.8133H121.542V13Z" fill="#4E4E4E"/>
<path d="M92.2828 27.0284C91.0361 27.517 89.7037 27.7616 88.3609 27.7486C83.4644 27.7486 80.5448 24.7283 80.5448 19.6463C80.5448 14.3933 83.5517 11.2604 88.5862 11.2604C89.8486 11.2389 91.1015 11.4766 92.2644 11.9581L92.3287 11.9851L93 10.8552L92.931 10.8147C92.554 10.6392 91.1747 10 88.554 10C82.8391 10 79 13.8666 79 19.6238C79 26.5468 83.8046 29 87.9149 29C90.7747 29 92.4621 28.3203 92.9126 28.0997L92.9862 28.0637L92.3471 26.9789L92.2828 27.0284Z" fill="#4E4E4E"/>
<path d="M115.599 26.9219C115.578 26.4643 115.57 26.0066 115.57 25.4712V20.2859C115.57 16.826 114.132 15 111.404 15C110.142 15.0169 108.909 15.424 107.841 16.1762L108.251 17.2929C109.139 16.6143 110.19 16.2521 111.265 16.254C111.647 16.2247 112.031 16.2813 112.393 16.4204C112.756 16.5595 113.089 16.7784 113.375 17.064C113.952 17.7047 114.231 18.6887 114.231 20.0663V20.35H114.087C111.261 20.35 109.238 21.0045 108.075 22.2905C107.722 22.6807 107.445 23.1477 107.26 23.6625C107.075 24.1774 106.987 24.7291 107.001 25.2835C107.001 27.073 108.111 28.9997 110.548 28.9997C111.267 29.0083 111.977 28.8299 112.623 28.4789C113.27 28.1278 113.834 27.6136 114.272 26.9769C114.31 27.5613 114.409 28.1388 114.566 28.6977H116C115.78 28.1345 115.644 27.5345 115.599 26.9219ZM109.148 22.9815C109.996 22.0662 111.552 21.6086 113.784 21.6086H114.263V24.3545C114.267 24.6183 114.226 24.8805 114.145 25.1279C113.898 25.9163 113.431 26.5948 112.812 27.0624C112.192 27.5299 111.455 27.7616 110.708 27.7228C109.008 27.7228 108.406 26.2812 108.406 25.0456C108.396 24.6631 108.457 24.2824 108.585 23.9273C108.712 23.5722 108.904 23.2503 109.148 22.9815Z" fill="#4E4E4E"/>
<path d="M100.578 15.0663C99.6724 15.0611 98.785 15.3177 98.0215 15.8055C97.343 16.2101 96.7814 16.7852 96.3922 17.4741V10H95V28H96.3922V20.2968C96.3758 19.884 96.4312 19.4715 96.556 19.0778C96.8215 18.2962 97.317 17.6138 97.9773 17.1206C98.6376 16.6274 99.4316 16.3467 100.254 16.3156C101.509 16.3156 103.608 16.8646 103.608 20.5389V28H105V20.4006C104.987 15.3213 101.297 15.0663 100.578 15.0663Z" fill="#4E4E4E"/>
<mask id="mask0_24534_74650" style="mask-type:luminance" maskUnits="userSpaceOnUse" x="0" y="5" width="27" height="24">
<path d="M0 16.2215C0 19.604 1.79958 22.651 4.60977 24.7226C4.72639 24.8053 4.82152 24.9152 4.8871 25.043C4.95269 25.1707 4.9868 25.3125 4.98653 25.4564C4.98366 25.5537 4.96725 25.6501 4.93778 25.7427C4.71615 26.5884 4.35269 27.9441 4.33939 28.0067C4.29919 28.1115 4.27382 28.2214 4.26404 28.3333C4.26404 28.452 4.31074 28.5658 4.39386 28.6497C4.47699 28.7336 4.58973 28.7808 4.70729 28.7808C4.79841 28.7766 4.88694 28.7489 4.96437 28.7002L7.88537 26.9955C8.09989 26.8656 8.34441 26.7946 8.59457 26.7897C8.72808 26.7908 8.86081 26.8104 8.98906 26.8479C10.4055 27.2594 11.8723 27.4673 13.3462 27.4653C20.7174 27.4653 26.6924 22.4407 26.6924 16.2394C26.6924 10.038 20.7218 5 13.3506 5C5.97941 5 0 10.0246 0 16.2215Z" fill="white"/>
</mask>
<g mask="url(#mask0_24534_74650)">
<path d="M26.6968 5H0V28.7629H26.6968V5Z" fill="url(#paint0_linear_24534_74650)"/>
</g>
<mask id="mask1_24534_74650" style="mask-type:luminance" maskUnits="userSpaceOnUse" x="14" y="15" width="23" height="20">
<path d="M14.627 24.5567C14.627 29.7156 19.6046 33.899 25.7436 33.899C26.9714 33.9014 28.1934 33.7298 29.3738 33.3889C29.4801 33.3563 29.5907 33.3398 29.7018 33.3397C29.9096 33.3438 30.1128 33.4024 30.2913 33.5097L32.7247 34.9281C32.7876 34.9716 32.8614 34.9964 32.9375 34.9997C33.0359 34.9985 33.1299 34.9585 33.1995 34.8883C33.2691 34.8181 33.3087 34.7232 33.3098 34.6238C33.2983 34.5306 33.276 34.4389 33.2433 34.3509L32.7425 32.4672C32.7187 32.3904 32.7052 32.3106 32.7026 32.2301C32.7027 32.11 32.7313 31.9916 32.7861 31.885C32.8409 31.7783 32.9201 31.6865 33.0173 31.6171C35.3576 29.908 36.8558 27.371 36.8558 24.5567C36.8558 19.3934 31.8781 15.21 25.7392 15.21C19.6002 15.21 14.627 19.3934 14.627 24.5567Z" fill="white"/>
</mask>
<g mask="url(#mask1_24534_74650)">
<path d="M36.8554 15.21H14.6221V34.9997H36.8554V15.21Z" fill="url(#paint1_linear_24534_74650)"/>
</g>
<path d="M11 12.5C11 12.7967 10.8827 13.0867 10.6629 13.3334C10.4432 13.58 10.1308 13.7723 9.76537 13.8858C9.39991 13.9994 8.99778 14.0291 8.60982 13.9712C8.22186 13.9133 7.86549 13.7704 7.58579 13.5607C7.30608 13.3509 7.1156 13.0836 7.03843 12.7926C6.96126 12.5017 7.00087 12.2001 7.15224 11.926C7.30362 11.6519 7.55996 11.4176 7.88886 11.2528C8.21776 11.088 8.60444 11 9 11C9.53043 11 10.0391 11.158 10.4142 11.4393C10.7893 11.7206 11 12.1022 11 12.5Z" fill="#227B3D"/>
<path d="M20 12.5C20 12.7967 19.8827 13.0867 19.6629 13.3334C19.4432 13.58 19.1308 13.7723 18.7654 13.8858C18.3999 13.9994 17.9978 14.0291 17.6098 13.9712C17.2219 13.9133 16.8655 13.7704 16.5858 13.5607C16.3061 13.3509 16.1156 13.0836 16.0384 12.7926C15.9613 12.5017 16.0009 12.2001 16.1522 11.926C16.3036 11.6519 16.56 11.4176 16.8889 11.2528C17.2178 11.088 17.6044 11 18 11C18.5304 11 19.0391 11.158 19.4142 11.4393C19.7893 11.7206 20 12.1022 20 12.5Z" fill="#227B3D"/>
<path d="M28.0001 21.4866C27.9974 21.784 28.0832 22.0755 28.2466 22.3241C28.41 22.5726 28.6436 22.7669 28.9177 22.8824C29.1918 22.9978 29.4941 23.0292 29.786 22.9725C30.078 22.9158 30.3465 22.7735 30.5575 22.5638C30.7684 22.3541 30.9123 22.0865 30.9707 21.7949C31.0292 21.5032 30.9996 21.2008 30.8858 20.926C30.772 20.6512 30.5791 20.4165 30.3315 20.2516C30.084 20.0867 29.793 19.9991 29.4956 20C29.2988 20 29.104 20.0388 28.9222 20.1143C28.7405 20.1897 28.5754 20.3003 28.4365 20.4396C28.2976 20.579 28.1875 20.7444 28.1126 20.9263C28.0377 21.1083 27.9995 21.3032 28.0001 21.5" fill="#8C8C8C"/>
<path d="M21.0001 21.4866C20.9974 21.7838 21.0831 22.0752 21.2463 22.3236C21.4095 22.572 21.6428 22.7664 21.9167 22.8819C22.1905 22.9975 22.4926 23.0291 22.7844 22.9728C23.0762 22.9164 23.3448 22.7746 23.5559 22.5654C23.767 22.3562 23.9112 22.0889 23.9702 21.7976C24.0292 21.5063 24.0002 21.204 23.8871 20.9291C23.774 20.6542 23.5817 20.4192 23.3348 20.2538C23.0878 20.0883 22.7973 20 22.5001 20C22.1022 20 21.7207 20.158 21.4394 20.4393C21.1581 20.7206 21.0001 21.1022 21.0001 21.5" fill="#8C8C8C"/>
<defs>
<linearGradient id="paint0_linear_24534_74650" x1="13.2467" y1="32.36" x2="13.2467" y2="11.4755" gradientUnits="userSpaceOnUse">
<stop stop-color="#7BC142"/>
<stop offset="0.03" stop-color="#7BC142"/>
<stop offset="0.96" stop-color="#A7D168"/>
<stop offset="1" stop-color="#A7D168"/>
</linearGradient>
<linearGradient id="paint1_linear_24534_74650" x1="25.935" y1="35.0738" x2="25.935" y2="15.3336" gradientUnits="userSpaceOnUse">
<stop stop-color="#E4E7E8"/>
<stop offset="1" stop-color="#F1F0F0"/>
</linearGradient>
</defs>
</svg>
