<svg width="12" height="12" viewBox="0 0 12 12" fill="none" xmlns="http://www.w3.org/2000/svg">
<g clip-path="url(#clip0_2566_29327)">
<path d="M11.4141 10L10 11.4141L8.58594 10L10 8.58594L11.4141 10ZM5 1C5.45701 1 5.98089 1.21045 6.28418 1.70117L6.3418 1.80273L6.60547 2.29102C6.88167 2.77667 7.18914 3.23796 7.47559 3.52441C7.85747 3.9063 8.55098 4.32478 9.19727 4.6582C9.76071 4.94903 10 5.51262 10 6C10 6.48738 9.76071 7.05097 9.19727 7.3418C8.55098 7.67522 7.85747 8.0937 7.47559 8.47559C7.0937 8.85747 6.67522 9.55098 6.3418 10.1973C6.05097 10.7607 5.48738 11 5 11C4.51262 11 3.94903 10.7607 3.6582 10.1973C3.32478 9.55098 2.9063 8.85747 2.52441 8.47559C2.14253 8.0937 1.44902 7.67522 0.802734 7.3418C0.239286 7.05097 -1.20209e-08 6.48738 0 6C6.8962e-08 5.51262 0.239286 4.94903 0.802734 4.6582L1.29102 4.39453C1.77667 4.11833 2.23796 3.81087 2.52441 3.52441C2.9063 3.14253 3.32478 2.44902 3.6582 1.80273L3.71582 1.70117C4.01911 1.21045 4.54299 1 5 1ZM5 3.34277C4.68957 3.87762 4.30373 4.45604 3.87988 4.87988C3.45604 5.30373 2.87762 5.68957 2.34277 6C2.87762 6.31043 3.45604 6.69627 3.87988 7.12012C4.30354 7.54377 4.68964 8.1216 5 8.65625C5.31036 8.1216 5.69646 7.54377 6.12012 7.12012C6.54377 6.69646 7.1216 6.31036 7.65625 6C7.1216 5.68964 6.54377 5.30354 6.12012 4.87988C5.69627 4.45604 5.31043 3.87762 5 3.34277ZM10 1C10.5523 1 11 1.44772 11 2C11 2.55228 10.5523 3 10 3C9.44771 3 9 2.55228 9 2C9 1.44772 9.44771 1 10 1Z" fill="#4781D1"/>
</g>
<defs>
<clipPath id="clip0_2566_29327">
<rect width="12" height="12" fill="white"/>
</clipPath>
</defs>
</svg>
