<svg width="16" height="17" viewBox="0 0 16 17" xmlns="http://www.w3.org/2000/svg">
    <mask id="path-1-outside-1_292_9674" maskUnits="userSpaceOnUse" x="0.5" y="0" width="15" height="17" fill="black">
        <rect fill="white" x="0.5" width="15" height="17" />
        <path
            d="M6 11.25C6 11.8023 6.44772 12.25 7 12.25V6.5H9V12.25C9.55221 12.2499 10 11.8022 10 11.25V5.75H12V11.25C12 12.9068 10.6568 14.2499 9 14.25H7C5.34314 14.25 4 12.9069 4 11.25V5.75H6V11.25ZM7.99902 2C8.74217 2 9.35743 2.54071 9.47656 3.25H11.75C12.7164 3.25018 13.4999 4.0336 13.5 5H11.5C11.5 5.13798 11.612 5.25 11.75 5.25H4.25C4.3879 5.24991 4.5 5.13793 4.5 5H2.5C2.50009 4.03354 3.28354 3.25009 4.25 3.25H6.52148C6.64062 2.54072 7.25588 2.00001 7.99902 2Z" />
    </mask>
    <path
        d="M7 12.25V14.25C7.53043 14.25 8.03914 14.0393 8.41421 13.6642C8.78929 13.2891 9 12.7804 9 12.25H7ZM7 6.5V4.5C5.89543 4.5 5 5.39543 5 6.5H7ZM9 6.5H11C11 5.39543 10.1046 4.5 9 4.5V6.5ZM9 12.25H7C7 12.7805 7.21076 13.2892 7.5859 13.6643C7.96105 14.0394 8.46984 14.2501 9.00033 14.25L9 12.25ZM10 5.75V3.75C8.89543 3.75 8 4.64543 8 5.75H10ZM12 5.75H14C14 4.64543 13.1046 3.75 12 3.75V5.75ZM9 14.25V16.25H9.00011L9 14.25ZM7 14.25V16.25V14.25ZM4 5.75V3.75C2.89543 3.75 2 4.64543 2 5.75H4ZM6 5.75H8C8 4.64543 7.10457 3.75 6 3.75V5.75ZM7.99902 2V0H7.99898L7.99902 2ZM9.47656 3.25L7.50419 3.58129C7.66598 4.54452 8.49984 5.25 9.47656 5.25V3.25ZM11.75 3.25L11.7504 1.25H11.75V3.25ZM13.5 5V7C14.0305 7 14.5392 6.78926 14.9143 6.41415C15.2894 6.03904 15.5 5.53028 15.5 4.99982L13.5 5ZM11.5 5V3C10.3954 3 9.5 3.89543 9.5 5H11.5ZM11.75 7.25C12.8546 7.25 13.75 6.35457 13.75 5.25C13.75 4.14543 12.8546 3.25 11.75 3.25V7.25ZM4.25 5.25L4.24868 3.25C3.14437 3.25073 2.24964 4.14635 2.25 5.25066C2.25036 6.35497 3.14569 7.25 4.25 7.25V5.25ZM4.5 5H6.5C6.5 3.89543 5.60457 3 4.5 3V5ZM2.5 5L0.5 4.99982C0.499952 5.53028 0.710644 6.03904 1.08572 6.41415C1.4608 6.78926 1.96954 7 2.5 7L2.5 5ZM4.25 3.25V1.25H4.24982L4.25 3.25ZM6.52148 3.25V5.25C7.49821 5.25 8.33207 4.54452 8.49386 3.58128L6.52148 3.25ZM6 11.25H4C4 12.9069 5.34315 14.25 7 14.25V12.25V10.25C7.55228 10.25 8 10.6977 8 11.25H6ZM7 12.25H9V6.5H7H5V12.25H7ZM7 6.5V8.5H9V6.5V4.5H7V6.5ZM9 6.5H7V12.25H9H11V6.5H9ZM9 12.25L9.00033 14.25C10.6565 14.2497 12 12.9071 12 11.25H10H8C8 10.6973 8.44789 10.2501 8.99967 10.25L9 12.25ZM10 11.25H12V5.75H10H8V11.25H10ZM10 5.75V7.75H12V5.75V3.75H10V5.75ZM12 5.75H10V11.25H12H14V5.75H12ZM12 11.25H10C10 11.8021 9.55229 12.25 8.99989 12.25L9 14.25L9.00011 16.25C11.7613 16.2498 14 14.0115 14 11.25H12ZM9 14.25V12.25H7V14.25V16.25H9V14.25ZM7 14.25V12.25C6.44772 12.25 6 11.8023 6 11.25H4H2C2 14.0114 4.23857 16.25 7 16.25V14.25ZM4 11.25H6V5.75H4H2V11.25H4ZM4 5.75V7.75H6V5.75V3.75H4V5.75ZM6 5.75H4V11.25H6H8V5.75H6ZM7.99902 2V4C7.74603 4 7.54361 3.81596 7.50419 3.58129L9.47656 3.25L11.4489 2.91871C11.1712 1.26547 9.73831 0 7.99902 0V2ZM9.47656 3.25V5.25H11.75V3.25V1.25H9.47656V3.25ZM11.75 3.25L11.7496 5.25C11.6119 5.24997 11.5 5.13839 11.5 5.00018L13.5 5L15.5 4.99982C15.4998 2.9288 13.8208 1.25038 11.7504 1.25L11.75 3.25ZM13.5 5V3H11.5V5V7H13.5V5ZM11.5 5H9.5C9.5 6.24255 10.5074 7.25 11.75 7.25V5.25V3.25C12.7166 3.25 13.5 4.03341 13.5 5H11.5ZM11.75 5.25V3.25H4.25V5.25V7.25H11.75V5.25ZM4.25 5.25L4.25132 7.25C5.49145 7.24918 6.5 6.2438 6.5 5H4.5H2.5C2.5 4.03205 3.28436 3.25064 4.24868 3.25L4.25 5.25ZM4.5 5V3H2.5V5V7H4.5V5ZM2.5 5L4.5 5.00018C4.49999 5.13815 4.38815 5.24999 4.25018 5.25L4.25 3.25L4.24982 1.25C2.17893 1.25019 0.500188 2.92893 0.5 4.99982L2.5 5ZM4.25 3.25V5.25H6.52148V3.25V1.25H4.25V3.25ZM6.52148 3.25L8.49386 3.58128C8.45443 3.81601 8.25199 3.99999 7.99906 4L7.99902 2L7.99898 0C6.25978 3.45707e-05 4.8268 1.26543 4.54911 2.91872L6.52148 3.25Z"
        fill="white" mask="url(#path-1-outside-1_292_9674)" />
    <path
        d="M6.00098 11.25C6.00098 11.8022 6.44877 12.2499 7.00098 12.25V6.5H9.00098V12.25C9.55318 12.2499 10.001 11.8022 10.001 11.25V5.75H12.001V11.25C12.001 12.9068 10.6578 14.2499 9.00098 14.25H7.00098C5.3442 14.2499 4.00098 12.9068 4.00098 11.25V5.75H6.00098V11.25ZM8 2C8.74314 2 9.35839 2.54073 9.47754 3.25H11.751C12.7174 3.25018 13.5009 4.0336 13.501 5H11.501C11.501 5.13793 11.6131 5.24991 11.751 5.25H4.25098C4.38888 5.24991 4.50098 5.13793 4.50098 5H2.50098C2.50106 4.0336 3.28459 3.25018 4.25098 3.25H6.52246C6.64158 2.54077 7.25694 2.0001 8 2Z"
        fill="#657077" />
</svg>