<svg width="12" height="12" viewBox="0 0 12 12" fill="none" xmlns="http://www.w3.org/2000/svg">
<g clip-path="url(#clip0_24100_1948)">
<path d="M7.25 3.00098C8.2165 3.00098 9 3.78448 9 4.75097L9 10.251C8.9998 11.2173 8.21638 12.001 7.25 12.001L1.75 12.001C0.783655 12.0009 0.00019967 11.2173 1.79217e-06 10.251L8.30516e-07 4.75098C8.6273e-07 3.7845 0.783531 3.00101 1.75 3.00098L7.25 3.00098ZM2 10.001L7 10.001L7 5.00098L2 5.00098L2 10.001ZM10.25 0.00097477C11.2165 0.000974803 12 0.784477 12 1.75097L12 7.25097C11.9998 8.2173 11.2164 9.00097 10.25 9.00097L10 9.00097L10 2.00097L3 2.00098L3 1.75098C3 0.784499 3.78353 0.00101028 4.75 0.000975732L10.25 0.00097477Z" fill="#657077"/>
</g>
<defs>
<clipPath id="clip0_24100_1948">
<rect width="12" height="12" fill="white"/>
</clipPath>
</defs>
</svg>
