<svg width="12" height="12" viewBox="0 0 12 12" fill="none" xmlns="http://www.w3.org/2000/svg">
    <g clip-path="url(#clip0_6259_4447)">
        <path fill-rule="evenodd" clip-rule="evenodd"
            d="M0.0995484 1.56506C0.266436 1.21955 0.616305 1 1.00001 1H1.02173H1.04341H1.06506H1.08667H1.10824H1.12977H1.15127H1.17273H1.19416H1.21555H1.23691H1.25822H1.27951H1.30076H1.32197H1.34315H1.36429H1.3854H1.40647H1.42751H1.44851H1.46948H1.49042H1.51132H1.53219H1.55302H1.57382H1.59459H1.61532H1.63603H1.65669H1.67733H1.69793H1.7185H1.73904H1.75955H1.78002H1.80046H1.82087H1.84125H1.8616H1.88191H1.9022H1.92245H1.94267H1.96286H1.98303H2.00316H2.02326H2.04333H2.06337H2.08338H2.10336H2.12331H2.14323H2.16312H2.18299H2.20282H2.22263H2.2424H2.26215H2.28187H2.30156H2.32122H2.34086H2.36047H2.38005H2.3996H2.41912H2.43862H2.45809H2.47753H2.49695H2.51634H2.5357H2.55504H2.57435H2.59364H2.61289H2.63213H2.65134H2.67052H2.68967H2.7088H2.72791H2.74699H2.76605H2.78508H2.80409H2.82307H2.84203H2.86096H2.87988H2.89876H2.91763H2.93647H2.95528H2.97408H2.99285H3.01159H3.03032H3.04902H3.0677H3.08636H3.10499H3.12361H3.1422H3.16077H3.17932H3.19784H3.21635H3.23484H3.2533H3.27174H3.29016H3.30856H3.32695H3.34531H3.36365H3.38197H3.40027H3.41855H3.43681H3.45505H3.47328H3.49148H3.50967H3.52783H3.54598H3.56411H3.58222H3.60031H3.61839H3.63644H3.65448H3.6725H3.69051H3.70849H3.72646H3.74441H3.76235H3.78027H3.79817H3.81605H3.83392H3.85178H3.86961H3.88743H3.90524H3.92303H3.9408H3.95856H3.9763H3.99403H4.01175H4.02945H4.04713H4.0648H4.08246H4.1001H4.11772H4.13534H4.15294H4.17053H4.1881H4.20566H4.2232H4.24074H4.25826H4.27577H4.29326H4.31075H4.32822H4.34568H4.36312H4.38056H4.39798H4.41539H4.4328H4.45018H4.46756H4.48493H4.50229H4.51963H4.53697H4.55429H4.57161H4.58891H4.60621H4.6235H4.64077H4.65804H4.67529H4.69254H4.70978H4.72701H4.74423H4.76144H4.77865H4.79584H4.81303H4.83021H4.84738H4.86455H4.8817H4.89885H4.91599H4.93313H4.95025H4.96737H4.98449H5.0016H5.0187H5.03579H5.05288H5.06996H5.08704H5.10411H5.12118H5.13824H5.15529H5.17234H5.18939H5.20643H5.22346H5.24049H5.25752H5.27454H5.29156H5.30857H5.32558H5.34259H5.35959H5.37659H5.39359H5.41058H5.42758H5.44456H5.46155H5.47853H5.49551H5.51249H5.52947H5.54644H5.56341H5.58038H5.59735H5.61432H5.63129H5.64826H5.66522H5.68219H5.69915H5.71611H5.73308H5.75004H5.767H5.78397H5.80093H5.81789H5.83486H5.85182H5.86879H5.88576H5.90272H5.91969H5.93667H5.95364H5.97061H5.98759H6.00457H6.02155H6.03853H6.05552H6.0725H6.08949H6.10649H6.12349H6.14048H6.15749H6.1745H6.19151H6.20852H6.22554H6.24256H6.25959H6.27662H6.29365H6.31069H6.32774H6.34479H6.36184H6.3789H6.39597H6.41304H6.43012H6.4472H6.46429H6.48138H6.49848H6.51559H6.5327H6.54982H6.56695H6.58409H6.60123H6.61838H6.63553H6.6527H6.66987H6.68705H6.70424H6.72143H6.73864H6.75585H6.77307H6.7903H6.80754H6.82479H6.84204H6.85931H6.87658H6.89387H6.91116H6.92847H6.94578H6.96311H6.98044H6.99779H7.01515H7.03252H7.04989H7.06728H7.08468H7.1021H7.11952H7.13695H7.1544H7.17186H7.18933H7.20681H7.22431H7.24182H7.25934H7.27687H7.29442H7.31198H7.32955H7.34714H7.36474H7.38235H7.39998H7.41762H7.43528H7.45295H7.47063H7.48833H7.50605H7.52377H7.54152H7.55928H7.57705H7.59484H7.61265H7.63047H7.6483H7.66616H7.68402H7.70191H7.71981H7.73773H7.75566H7.77362H7.79159H7.80957H7.82758H7.8456H7.86364H7.88169H7.89977H7.91786H7.93597H7.9541H7.97225H7.99041H8.0086H8.0268H8.04502H8.06327H8.08153H8.09981H8.11811H8.13643H8.15477H8.17313H8.19151H8.20992H8.22834H8.24678H8.26524H8.28373H8.30223H8.32076H8.33931H8.35788H8.37647H8.39508H8.41372H8.43238H8.45106H8.46976H8.48848H8.50723H8.526H8.5448H8.56361H8.58245H8.60132H8.6202H8.63911H8.65805H8.67701H8.69599H8.715H8.73403H8.75309H8.77217H8.79127H8.81041H8.82956H8.84874H8.86795H8.88718H8.90644H8.92573H8.94504H8.96438H8.98374H9.00313H9.02254H9.04199H9.06146H9.08096H9.10048H9.12003H9.13961H9.15922H9.17885H9.19852H9.21821H9.23793H9.25768H9.27745H9.29726H9.31709H9.33696H9.35685H9.37677H9.39672H9.4167H9.43671H9.45675H9.47682H9.49692H9.51705H9.53721H9.55741H9.57763H9.59788H9.61817H9.63848H9.65883H9.67921H9.69962H9.72006H9.74053H9.76104H9.78158H9.80215H9.82275H9.84338H9.86405H9.88475H9.90549H9.92626H9.94706H9.96789H9.98876H10.0097H10.0306H10.0516H10.0726H10.0936H10.1147H10.1358H10.1569H10.1781H10.1993H10.2206H10.2419H10.2632H10.2845H10.3059H10.3273H10.3488H10.3703H10.3918H10.4134H10.435H10.4567H10.4783H10.5001C10.8737 1 11.2161 1.20824 11.388 1.53993C11.5598 1.87163 11.5325 2.27147 11.317 2.57668L9.81704 4.70171C9.49855 5.15291 8.87459 5.26049 8.42339 4.942C7.97219 4.62351 7.86461 3.99955 8.1831 3.54835L8.57016 3H8.56361H8.5448H8.526H8.50723H8.48848H8.46976H8.45106H8.43238H8.41372H8.39508H8.37647H8.35788H8.33931H8.32076H8.30223H8.28373H8.26524H8.24678H8.22834H8.20992H8.19151H8.17313H8.15477H8.13643H8.11811H8.09981H8.08153H8.06327H8.04502H8.0268H8.0086H7.99041H7.97225H7.9541H7.93597H7.91786H7.89977H7.88169H7.86364H7.8456H7.82758H7.80957H7.79159H7.77362H7.75566H7.73773H7.71981H7.70191H7.68402H7.66616H7.6483H7.63047H7.61265H7.59484H7.57705H7.55928H7.54152H7.52377H7.50605H7.48833H7.47063H7.45295H7.43528H7.41762H7.39998H7.38235H7.36474H7.34714H7.32955H7.31198H7.29442H7.27687H7.25934H7.24182H7.22431H7.20681H7.18933H7.17186H7.1544H7.13695H7.11952H7.1021H7.08468H7.06728H7.04989H7.03252H7.01515H6.99779H6.98044H6.96311H6.94578H6.92847H6.91116H6.89387H6.87658H6.85931H6.84204H6.82479H6.80754H6.7903H6.77307H6.75585H6.73864H6.72143H6.70424H6.68705H6.66987H6.6527H6.63553H6.61838H6.60123H6.58409H6.56695H6.54982H6.5327H6.51559H6.49848H6.48138H6.46429H6.4472H6.43012H6.41304H6.39597H6.3789H6.36184H6.34479H6.32774H6.31069H6.29365H6.27662H6.25959H6.24256H6.22554H6.20852H6.19151H6.1745H6.15749H6.14048H6.12349H6.10649H6.08949H6.0725H6.05552H6.03853H6.02155H6.00457H5.98759H5.97061H5.95364H5.93667H5.91969H5.90272H5.88576H5.86879H5.85182H5.83486H5.81789H5.80093H5.78397H5.767H5.75004H5.73308H5.71611H5.69915H5.68219H5.66522H5.64826H5.63129H5.61432H5.59735H5.58038H5.56341H5.54644H5.52947H5.51249H5.49551H5.47853H5.46155H5.44456H5.42758H5.41058H5.39359H5.37659H5.35959H5.34259H5.32558H5.30857H5.29156H5.27454H5.25752H5.24049H5.22346H5.20643H5.18939H5.17234H5.15529H5.13824H5.12118H5.10411H5.08704H5.06996H5.05288H5.03579H5.0187H5.0016H4.98449H4.96737H4.95025H4.93313H4.91599H4.89885H4.8817H4.86455H4.84738H4.83021H4.81303H4.79584H4.77865H4.76144H4.74423H4.72701H4.70978H4.69254H4.67529H4.65804H4.64077H4.6235H4.60621H4.58891H4.57161H4.55429H4.53697H4.51963H4.50229H4.48493H4.46756H4.45018H4.4328H4.41539H4.39798H4.38056H4.36312H4.34568H4.32822H4.31075H4.29326H4.27577H4.25826H4.24074H4.2232H4.20566H4.1881H4.17053H4.15294H4.13534H4.11772H4.1001H4.08246H4.0648H4.04713H4.02945H4.01175H3.99403H3.9763H3.95856H3.9408H3.92303H3.90524H3.88743H3.86961H3.85178H3.83392H3.81605H3.79817H3.78027H3.76235H3.74441H3.72646H3.70849H3.69051H3.6725H3.65448H3.63644H3.61839H3.60031H3.58222H3.56411H3.54598H3.52783H3.50967H3.49148H3.47328H3.45505H3.43681H3.41855H3.40027H3.38197H3.36365H3.34531H3.32695H3.30856H3.29016H3.27174H3.2533H3.23484H3.21635H3.19784H3.17932H3.16077H3.1422H3.12361H3.10499H3.08636H3.07033L5.35473 5.87834C5.49506 6.05516 5.57144 6.27426 5.57144 6.5V9.50121C5.96436 9.48026 6.34938 9.69382 6.52852 10.0713C6.76528 10.5703 6.55273 11.1667 6.05377 11.4035L5.00014 11.9034C4.69033 12.0505 4.32681 12.0285 4.03698 11.8452C3.74715 11.6619 3.57144 11.3429 3.57144 11V6.8486L0.21672 2.62166C-0.0218128 2.32111 -0.0673391 1.91057 0.0995484 1.56506Z"
            fill="#35AD17" />
        <g clip-path="url(#clip1_6259_4447)">
            <path fill-rule="evenodd" clip-rule="evenodd"
                d="M6.95241 6.05741C7.10643 5.91352 7.33922 5.91124 7.51437 6.0285L7.67376 6.13522C7.79112 6.21379 7.92517 6.2351 8.0486 6.21045C8.10798 6.18271 8.16877 6.15748 8.23083 6.1349C8.33541 6.06504 8.41502 5.95526 8.44242 5.81683L8.47968 5.62861C8.52062 5.42176 8.68696 5.25877 8.89771 5.25171C8.93167 5.25057 8.96577 5.25 9 5.25C9.03423 5.25 9.06833 5.25057 9.10229 5.25171C9.31304 5.25877 9.47938 5.42176 9.52033 5.62861L9.55758 5.81683C9.58498 5.95526 9.66459 6.06504 9.76917 6.1349C9.83123 6.15748 9.89202 6.18271 9.9514 6.21045C10.0748 6.2351 10.2089 6.21379 10.3262 6.13522L10.4856 6.0285C10.6608 5.91124 10.8936 5.91352 11.0476 6.05741C11.0976 6.10409 11.1459 6.15245 11.1926 6.20241C11.3365 6.35643 11.3388 6.58922 11.2215 6.76437L11.1148 6.92376C11.0362 7.04112 11.0149 7.17517 11.0395 7.2986C11.0673 7.35798 11.0925 7.41877 11.1151 7.48083C11.185 7.58541 11.2947 7.66502 11.4332 7.69242L11.6214 7.72967C11.8282 7.77062 11.9912 7.93696 11.9983 8.14771C11.9994 8.18167 12 8.21577 12 8.25C12 8.28423 11.9994 8.31833 11.9983 8.35229C11.9912 8.56304 11.8282 8.72938 11.6214 8.77033L11.4332 8.80758C11.2947 8.83498 11.185 8.91459 11.1151 9.01917C11.0925 9.08123 11.0673 9.14202 11.0395 9.2014C11.0149 9.32483 11.0362 9.45888 11.1148 9.57624L11.2215 9.73563C11.3388 9.91078 11.3365 10.1436 11.1926 10.2976C11.1459 10.3476 11.0976 10.3959 11.0476 10.4426C10.8936 10.5865 10.6608 10.5888 10.4856 10.4715L10.3262 10.3648C10.2089 10.2862 10.0748 10.2649 9.9514 10.2895C9.89202 10.3173 9.83123 10.3425 9.76917 10.3651C9.66459 10.435 9.58498 10.5447 9.55758 10.6832L9.52033 10.8714C9.47938 11.0782 9.31304 11.2412 9.10229 11.2483C9.06833 11.2494 9.03423 11.25 9 11.25C8.96577 11.25 8.93167 11.2494 8.89771 11.2483C8.68696 11.2412 8.52062 11.0782 8.47967 10.8714L8.44242 10.6832C8.41502 10.5447 8.33541 10.435 8.23083 10.3651C8.16877 10.3425 8.10798 10.3173 8.0486 10.2895C7.92517 10.2649 7.79112 10.2862 7.67376 10.3648L7.51437 10.4715C7.33922 10.5888 7.10643 10.5865 6.95241 10.4426C6.90245 10.3959 6.85409 10.3476 6.80741 10.2976C6.66352 10.1436 6.66124 9.91078 6.7785 9.73563L6.88522 9.57624C6.96379 9.45888 6.9851 9.32483 6.96045 9.2014C6.93271 9.14202 6.90748 9.08123 6.8849 9.01917C6.81504 8.91459 6.70526 8.83498 6.56683 8.80758L6.37861 8.77033C6.17176 8.72938 6.00877 8.56304 6.00171 8.35229C6.00057 8.31833 6 8.28423 6 8.25C6 8.21577 6.00057 8.18167 6.00171 8.14771C6.00877 7.93696 6.17176 7.77062 6.37861 7.72967L6.56683 7.69242C6.70526 7.66502 6.81504 7.58541 6.8849 7.48083C6.90748 7.41877 6.93271 7.35798 6.96045 7.2986C6.9851 7.17517 6.96379 7.04112 6.88522 6.92376L6.7785 6.76437C6.66124 6.58922 6.66352 6.35643 6.80741 6.20241C6.85409 6.15245 6.90245 6.10409 6.95241 6.05741ZM9 9C9.41421 9 9.75 8.66421 9.75 8.25C9.75 7.83579 9.41421 7.5 9 7.5C8.58579 7.5 8.25 7.83579 8.25 8.25C8.25 8.66421 8.58579 9 9 9Z"
                fill="#35AD17" />
        </g>
    </g>
    <defs>
        <clipPath id="clip0_6259_4447">
            <rect width="12" height="12" fill="white" />
        </clipPath>
        <clipPath id="clip1_6259_4447">
            <rect width="6" height="6" fill="white" transform="translate(6 5.25)" />
        </clipPath>
    </defs>
</svg>