<svg class="link" width="14" height="14" viewBox="0 0 14 14" fill="none" xmlns="http://www.w3.org/2000/svg">
<path class="link-background" d="M12.18 1.82783C10.4188 0.0678052 7.5635 0.0678068 5.80233 1.82783L1.82199 5.80558C0.0606384 7.56579 0.060639 10.4198 1.82199 12.18C3.58316 13.94 6.43845 13.94 8.19963 12.18L12.18 8.20224C13.9413 6.44203 13.9413 3.58804 12.18 1.82783Z" fill="white" stroke="white"/>
<path fill-rule="evenodd" clip-rule="evenodd" d="M11.8278 2.17171C10.2644 0.609432 7.72972 0.609431 6.16637 2.1717L5.58426 2.75342C5.19342 3.14399 5.19342 3.77722 5.58426 4.16779C5.9751 4.55836 6.60877 4.55836 6.99961 4.16779L7.58172 3.58608C8.3634 2.80494 9.63074 2.80494 10.4124 3.58608C11.1941 4.36722 11.1941 5.63369 10.4124 6.41482L9.8303 6.99654C9.43947 7.38711 9.43947 8.02034 9.8303 8.41091C10.2211 8.80148 10.8548 8.80148 11.2457 8.41091L11.8278 7.8292C13.3911 6.26692 13.3911 3.73398 11.8278 2.17171ZM5.32877 8.66432C4.93793 8.27375 4.93793 7.64052 5.32877 7.24995L7.25344 5.3266C7.64428 4.93603 8.27795 4.93603 8.66879 5.3266C9.05963 5.71717 9.05963 6.35041 8.66879 6.74097L6.74412 8.66432C6.35328 9.05489 5.71961 9.05489 5.32877 8.66432ZM2.17249 6.16336C0.60917 7.72566 0.60917 10.2587 2.17249 11.821C3.73581 13.3833 6.27046 13.3833 7.83378 11.821L8.41484 11.2403C8.80567 10.8497 8.80567 10.2164 8.41484 9.82587C8.02401 9.4353 7.39035 9.4353 6.99952 9.82587L6.41846 10.4066C5.63679 11.1877 4.36947 11.1877 3.58781 10.4066C2.80615 9.62541 2.80615 8.35891 3.58781 7.57776L4.16888 6.99707C4.55971 6.6065 4.55971 5.97325 4.16888 5.58267C3.77805 5.1921 3.14439 5.1921 2.75356 5.58267L2.17249 6.16336Z" fill="#35A5D2"/>
</svg>
