<svg width="12" height="14" viewBox="0 0 12 14" fill="none" xmlns="http://www.w3.org/2000/svg">
<g clip-path="url(#clip0_622_21524)">
<mask id="path-1-outside-1_622_21524" maskUnits="userSpaceOnUse" x="0" y="0" width="12" height="14" fill="black">
<rect fill="white" width="12" height="14"/>
<path fill-rule="evenodd" clip-rule="evenodd" d="M3 4C3 2.34315 4.34315 1 6 1C7.65685 1 9 2.34315 9 4V5C10.1046 5 11 5.89543 11 7V11C11 12.1046 10.1046 13 9 13H3C1.89543 13 1 12.1046 1 11V7C1 5.89543 1.89543 5 3 5V4ZM7 4V5H5V4C5 3.44772 5.44772 3 6 3C6.55228 3 7 3.44772 7 4ZM3 7V11H9V7H3ZM6 10C6.55228 10 7 9.55229 7 9C7 8.44772 6.55228 8 6 8C5.44772 8 5 8.44772 5 9C5 9.55229 5.44772 10 6 10Z"/>
</mask>
<path fill-rule="evenodd" clip-rule="evenodd" d="M3 4C3 2.34315 4.34315 1 6 1C7.65685 1 9 2.34315 9 4V5C10.1046 5 11 5.89543 11 7V11C11 12.1046 10.1046 13 9 13H3C1.89543 13 1 12.1046 1 11V7C1 5.89543 1.89543 5 3 5V4ZM7 4V5H5V4C5 3.44772 5.44772 3 6 3C6.55228 3 7 3.44772 7 4ZM3 7V11H9V7H3ZM6 10C6.55228 10 7 9.55229 7 9C7 8.44772 6.55228 8 6 8C5.44772 8 5 8.44772 5 9C5 9.55229 5.44772 10 6 10Z" fill="#4781D1"/>
<path d="M9 5H8C8 5.55228 8.44772 6 9 6V5ZM3 5V6C3.55228 6 4 5.55228 4 5H3ZM7 5V6C7.55228 6 8 5.55228 8 5H7ZM5 5H4C4 5.55228 4.44772 6 5 6V5ZM3 11H2C2 11.5523 2.44772 12 3 12V11ZM3 7V6C2.44772 6 2 6.44772 2 7H3ZM9 11V12C9.55228 12 10 11.5523 10 11H9ZM9 7H10C10 6.44772 9.55228 6 9 6V7ZM6 0C3.79086 0 2 1.79086 2 4H4C4 2.89543 4.89543 2 6 2V0ZM10 4C10 1.79086 8.20914 0 6 0V2C7.10457 2 8 2.89543 8 4H10ZM10 5V4H8V5H10ZM12 7C12 5.34315 10.6569 4 9 4V6C9.55228 6 10 6.44772 10 7H12ZM12 11V7H10V11H12ZM9 14C10.6569 14 12 12.6569 12 11H10C10 11.5523 9.55228 12 9 12V14ZM3 14H9V12H3V14ZM0 11C0 12.6569 1.34315 14 3 14V12C2.44772 12 2 11.5523 2 11H0ZM0 7V11H2V7H0ZM3 4C1.34315 4 0 5.34315 0 7H2C2 6.44772 2.44772 6 3 6V4ZM2 4V5H4V4H2ZM8 5V4H6V5H8ZM5 6H7V4H5V6ZM4 4V5H6V4H4ZM6 2C4.89543 2 4 2.89543 4 4H6V2ZM8 4C8 2.89543 7.10457 2 6 2V4H8ZM4 11V7H2V11H4ZM9 10H3V12H9V10ZM8 7V11H10V7H8ZM3 8H9V6H3V8ZM6 9V11C7.10457 11 8 10.1046 8 9H6ZM6 9H8C8 7.89543 7.10457 7 6 7V9ZM6 9V7C4.89543 7 4 7.89543 4 9H6ZM6 9H4C4 10.1046 4.89543 11 6 11V9Z" fill="white" mask="url(#path-1-outside-1_622_21524)"/>
</g>
<defs>
<clipPath id="clip0_622_21524">
<rect width="12" height="14" fill="white"/>
</clipPath>
</defs>
</svg>
