<svg xmlns="http://www.w3.org/2000/svg" width="12" height="12" viewBox="0 0 12 12" fill="none">
  <path d="M10 2L1 9" stroke="#657077" stroke-width="2"/>
  <path fill-rule="evenodd" clip-rule="evenodd" d="M6.00011 0C5.44782 0 5.00011 0.447715 5.00011 1V1.13263C4.44659 1.28854 3.98223 1.57464 3.6079 1.95197C3.05299 2.51131 2.74972 3.2151 2.57825 3.83236C2.41437 4.42235 2.35323 4.99746 2.33228 5.43015L7.57245 1.35446C7.39366 1.26432 7.20286 1.18974 7.00011 1.13263V1C7.00011 0.447715 6.55239 0 6.00011 0ZM9.61718 4.83156L7.65086 6.36091L7.6177 6.77867L8.20194 7.0854L8.51769 7.25117C8.7997 7.39922 8.98153 7.68436 8.99876 8H5.54346L2.97204 10H5.00011C5.00011 10.1313 5.02597 10.2614 5.07623 10.3827C5.12648 10.504 5.20014 10.6142 5.293 10.7071C5.38586 10.8 5.4961 10.8736 5.61742 10.9239C5.73875 10.9741 5.86878 11 6.00011 11C6.13143 11 6.26146 10.9741 6.38279 10.9239C6.50412 10.8736 6.61435 10.8 6.70721 10.7071C6.80007 10.6142 6.87373 10.504 6.92399 10.3827C6.97424 10.2614 7.00011 10.1313 7.00011 10H9.04939C10.1267 10 11.0001 9.12664 11.0001 8.04929C11.0001 7.05936 10.4961 6.14441 9.67482 5.61325C9.67388 5.57793 9.67268 5.54152 9.6712 5.5041C9.66344 5.30863 9.6476 5.08003 9.61718 4.83156Z" fill="#657077"/>
</svg>