<svg width="12" height="12" viewBox="0 0 12 12" fill="none" xmlns="http://www.w3.org/2000/svg">
<g clip-path="url(#clip0_2236_1322)">
<path d="M8.29272 6.18579C8.8595 6.22847 9.33192 6.43705 9.71948 6.72583C8.49652 6.77242 7.47077 7.56912 7.09643 8.66626C6.90661 8.72005 6.69787 8.76308 6.47143 8.78149L6.21948 8.79126C5.53082 8.79126 4.98032 8.56238 4.61401 8.3811C4.523 8.33605 4.43967 8.29111 4.37182 8.25513C4.3178 8.22648 4.27665 8.20555 4.24194 8.18774C4.01111 8.2239 3.79054 8.37207 3.56323 8.71021C3.32393 9.06639 3.1513 9.54298 3.03686 10.01H6.97827C7.10655 10.8549 7.60617 11.5768 8.30932 12.01H2.88452C1.82265 12.01 0.76257 11.0945 1.02612 9.81763L1.08374 9.56177C1.23188 8.94716 1.48518 8.21717 1.90405 7.59399C2.39263 6.86728 3.19111 6.17818 4.36108 6.17798C4.70259 6.17805 4.99674 6.32834 5.09546 6.3772C5.16882 6.41352 5.24589 6.45541 5.30835 6.48853C5.37584 6.52431 5.43811 6.55666 5.50171 6.58813C5.75489 6.71342 5.97946 6.79126 6.21948 6.79126L6.39722 6.77759C6.57318 6.74986 6.74666 6.68205 6.93628 6.58813C6.99984 6.55665 7.06215 6.52434 7.12964 6.48853C7.19209 6.45539 7.26915 6.41353 7.34253 6.3772C7.44151 6.32819 7.73599 6.17768 8.07788 6.17798L8.29272 6.18579ZM10.5554 8.86548H11.9998V10.2952H10.5554V11.7268H9.11011V10.2952H7.66479V8.86548H9.11011V7.43481H10.5554V8.86548ZM6.4685 0.0090332C7.70053 0.134341 8.66348 1.17479 8.66382 2.44067V2.78442C8.66382 3.5893 8.53183 4.3997 8.18335 5.04712C7.8373 5.68975 7.23758 6.21758 6.39233 6.28149L6.21948 6.28833C5.28257 6.28833 4.62512 5.73278 4.25561 5.04712C3.90676 4.39962 3.77417 3.58962 3.77417 2.78442V2.44067C3.77453 1.09099 4.86887 -0.00328618 6.2185 -0.00366211L6.4685 0.0090332ZM6.2185 1.99634C5.97319 1.99656 5.77438 2.1954 5.77417 2.44067V2.78442C5.77417 3.4098 5.88338 3.85206 6.01636 4.09888C6.10029 4.25448 6.15755 4.28374 6.19214 4.28833H6.24585C6.28031 4.28389 6.33837 4.25535 6.42261 4.09888C6.55546 3.85201 6.66382 3.40979 6.66382 2.78442V2.44067C6.66363 2.22651 6.51114 2.04677 6.30835 2.00513L6.2185 1.99634Z" fill="#657077"/>
</g>
<defs>
<clipPath id="clip0_2236_1322">
<rect width="12" height="12" fill="white"/>
</clipPath>
</defs>
</svg>
