<svg width="12" height="12" viewBox="0 0 12 12" fill="none" xmlns="http://www.w3.org/2000/svg">
<circle cx="6" cy="6" r="5.5" fill="#5DC0E8" stroke="#35A5D2"/>
<mask id="mask0_6978_179195" style="mask-type:alpha" maskUnits="userSpaceOnUse" x="1" y="1" width="10" height="10">
<circle cx="6" cy="6" r="5" fill="#D9D9D9"/>
</mask>
<g mask="url(#mask0_6978_179195)">
<path d="M4.64412 6.85588L4.70997 6.79003C5.13142 6.36858 5.09297 5.67438 4.62756 5.30205L3.27391 4.21913C3.0966 4.07728 2.87629 4 2.64922 4H1.35355C1.12718 4 0.910072 4.08993 0.75 4.25C0.589928 4.41007 0.5 4.62718 0.5 4.85355V5V5.87689C0.5 5.95866 0.510027 6.04011 0.529857 6.11943L0.973376 7.89351C0.991072 7.96429 1.01646 8.03292 1.04909 8.09818L1.86977 9.73954C1.95482 9.90965 2.08662 10.052 2.2497 10.1498L4.26249 11.3575C4.4179 11.4507 4.59574 11.5 4.77698 11.5H4.96482C5.29917 11.5 5.6114 11.3329 5.79687 11.0547L6.33591 10.2461C6.44291 10.0856 6.5 9.89707 6.5 9.70419C6.5 9.28365 6.2309 8.9103 5.83195 8.77732L5.035 8.51167C4.32977 8.27659 4.11847 7.38153 4.64412 6.85588Z" fill="white"/>
<path d="M7.69032 2.21452L7.82337 2.01494C8.17342 1.48988 8.91631 1.41631 9.36253 1.86253L9.5 2L9.92998 2.42998C9.97655 2.47655 10.0184 2.5276 10.0549 2.58239L10.9039 3.85588C10.9675 3.95125 11.0142 4.05684 11.042 4.16804L11.4394 5.75746C11.4792 5.9167 11.4792 6.0833 11.4394 6.24254L11.0266 7.89351C11.0089 7.96429 10.9835 8.03292 10.9509 8.09818L10.1329 9.73414C10.0466 9.90671 9.90671 10.0466 9.73414 10.1329C9.05271 10.4736 8.28546 9.85817 8.47023 9.11907L8.83896 7.64415C8.93654 7.25382 8.79069 6.84302 8.46882 6.60161L5.92241 4.69181C5.43557 4.32668 5.38499 3.61501 5.8153 3.1847L5.83307 3.16693C5.94285 3.05715 6.07668 2.97444 6.22395 2.92535L7.1745 2.6085C7.38546 2.53818 7.56697 2.39955 7.69032 2.21452Z" fill="white"/>
</g>
</svg>
