<svg width="14" height="14" viewBox="0 0 14 14" fill="none" xmlns="http://www.w3.org/2000/svg">
<rect x="0.5" y="0.5" width="13" height="13" rx="6.5" stroke="white"/>
<circle cx="7" cy="7" r="5.5" fill="#5DC0E8" stroke="#35A5D2"/>
<mask id="mask0_4524_37458" style="mask-type:alpha" maskUnits="userSpaceOnUse" x="2" y="2" width="10" height="10">
<circle cx="7" cy="7" r="5" fill="#D9D9D9"/>
</mask>
<g mask="url(#mask0_4524_37458)">
<path d="M5.64412 7.85588L5.70997 7.79003C6.13142 7.36858 6.09297 6.67438 5.62756 6.30205L4.27391 5.21913C4.0966 5.07728 3.87629 5 3.64922 5H2.35355C2.12718 5 1.91007 5.08993 1.75 5.25C1.58993 5.41007 1.5 5.62718 1.5 5.85355V6V6.87689C1.5 6.95866 1.51003 7.04011 1.52986 7.11943L1.97338 8.89351C1.99107 8.96429 2.01646 9.03292 2.04909 9.09818L2.86977 10.7395C2.95482 10.9096 3.08662 11.052 3.2497 11.1498L5.26249 12.3575C5.4179 12.4507 5.59574 12.5 5.77698 12.5H5.96482C6.29917 12.5 6.6114 12.3329 6.79687 12.0547L7.33591 11.2461C7.44291 11.0856 7.5 10.8971 7.5 10.7042C7.5 10.2837 7.2309 9.9103 6.83195 9.77732L6.035 9.51167C5.32977 9.27659 5.11847 8.38153 5.64412 7.85588Z" fill="white"/>
<path d="M8.69032 3.21452L8.82337 3.01494C9.17342 2.48988 9.91631 2.41631 10.3625 2.86253L10.5 3L10.93 3.42998C10.9765 3.47655 11.0184 3.5276 11.0549 3.58239L11.9039 4.85588C11.9675 4.95125 12.0142 5.05684 12.042 5.16804L12.4394 6.75746C12.4792 6.9167 12.4792 7.0833 12.4394 7.24254L12.0266 8.89351C12.0089 8.96429 11.9835 9.03292 11.9509 9.09818L11.1329 10.7341C11.0466 10.9067 10.9067 11.0466 10.7341 11.1329C10.0527 11.4736 9.28546 10.8582 9.47023 10.1191L9.83896 8.64415C9.93654 8.25382 9.79069 7.84302 9.46882 7.60161L6.92241 5.69181C6.43557 5.32668 6.38499 4.61501 6.8153 4.1847L6.83307 4.16693C6.94285 4.05715 7.07668 3.97444 7.22395 3.92535L8.1745 3.6085C8.38546 3.53818 8.56697 3.39955 8.69032 3.21452Z" fill="white"/>
</g>
</svg>
