<svg width="12" height="12" viewBox="0 0 12 12" fill="none" xmlns="http://www.w3.org/2000/svg">
<path fill-rule="evenodd" clip-rule="evenodd" d="M2.99902 1.99931V1H0.999023V4.50012C0.999023 4.76534 1.10439 5.0197 1.29193 5.20724C1.47947 5.39477 1.73383 5.50013 1.99906 5.50012L5.49906 5.5L5.49899 3.5L4.33922 3.50004C4.81457 3.18372 5.38449 3.00008 5.99834 3.00008C7.30455 3.00008 8.41579 3.83489 8.82763 5.00008H10.8983C10.435 2.71784 8.41729 1.00008 5.99834 1.00008C4.87343 1.00008 3.83424 1.37243 2.99902 1.99931ZM8.99902 9.99973V10.9998H10.999V7.49969C10.999 6.9474 10.5513 6.49969 9.99902 6.49969H6.49902V8.49969H7.65812C7.18244 8.81619 6.61171 9.00008 5.99834 9.00008C4.69212 9.00008 3.58088 8.16527 3.16904 7.00008H1.09835C1.56162 9.28232 3.57938 11.0001 5.99834 11.0001C7.12472 11.0001 8.16368 10.6274 8.99902 9.99973Z" fill="#657077"/>
</svg>
