<svg width="13" height="12" viewBox="0 0 13 12" fill="none" xmlns="http://www.w3.org/2000/svg">
<g clip-path="url(#clip0_3696_15663)">
<path fill-rule="evenodd" clip-rule="evenodd" d="M0.5 4C0.5 2.34315 1.84315 1 3.5 1H8.5C10.1569 1 11.5 2.34315 11.5 4V9C11.5 10.6569 10.1569 12 8.5 12H3.5C1.84315 12 0.5 10.6569 0.5 9V4ZM3.5 3C2.94772 3 2.5 3.44772 2.5 4V9C2.5 9.55228 2.94772 10 3.5 10H8.5C9.05228 10 9.5 9.55228 9.5 9V4C9.5 3.44772 9.05228 3 8.5 3H3.5Z" fill="#4781D1"/>
<path d="M3.5 4H5.5V6H3.5V4Z" fill="#4781D1"/>
<path d="M6.5 4H8.5V6H6.5V4Z" fill="#4781D1"/>
<path d="M6.5 7H8.5V9H6.5V7Z" fill="#4781D1"/>
<path d="M3.5 7H5.5V9H3.5V7Z" fill="#4781D1"/>
</g>
<defs>
<clipPath id="clip0_3696_15663">
<rect width="12" height="12" fill="white" transform="translate(0.5)"/>
</clipPath>
</defs>
</svg>
