<svg width="12" height="12" viewBox="0 0 12 12" fill="none" xmlns="http://www.w3.org/2000/svg">
<path fill-rule="evenodd" clip-rule="evenodd" d="M9.92427 1.00288C10.2019 0.981767 10.4759 1.07733 10.6801 1.26656C10.8843 1.4558 11.0004 1.72156 11.0004 1.99995V9.99995C11.0004 10.5522 10.5527 11 10.0004 11H2.00044C1.72205 11 1.45629 10.8838 1.26704 10.6796C1.07782 10.4755 0.982256 10.2014 1.00337 9.92378C1.36568 5.16318 5.16366 1.36519 9.92427 1.00288ZM9.00044 6.41597C7.84711 6.91988 6.92143 7.84667 6.41743 8.99995H9.00044V6.41597ZM9.00044 3.1562C6.09121 3.79947 3.80101 6.09075 3.15767 8.99995H4.29146C4.96345 6.74243 6.74292 4.96296 9.00044 4.29097V3.1562Z" fill="#A3A9AE"/>
</svg>
