<svg width="12" height="12" viewBox="0 0 12 12" fill="none" xmlns="http://www.w3.org/2000/svg">
<g clip-path="url(#clip0_1793_53171)">
<circle cx="6" cy="6" r="6" fill="white"/>
<path fill-rule="evenodd" clip-rule="evenodd" d="M6 12C9.31371 12 12 9.31371 12 6C12 2.68629 9.31371 0 6 0C2.68629 0 0 2.68629 0 6C0 9.31371 2.68629 12 6 12ZM9.78067 4.62469C10.1257 4.19343 10.0558 3.56414 9.6245 3.21913C9.19324 2.87412 8.56395 2.94404 8.21894 3.3753L5.71692 6.50283L4.20714 4.99292C3.81663 4.60238 3.18346 4.60236 2.79292 4.99286C2.40238 5.38337 2.40236 6.01654 2.79286 6.40708L4.69766 8.31203C5.32981 8.94424 6.37116 8.88659 6.92966 8.18846L9.78067 4.62469Z" fill="#35AD17"/>
</g>
<defs>
<clipPath id="clip0_1793_53171">
<rect width="12" height="12" fill="white"/>
</clipPath>
</defs>
</svg>